<?xml version="1.0" encoding="utf-8" standalone="no"?>
<!DOCTYPE svg PUBLIC "-//W3C//DTD SVG 1.1//EN"
  "http://www.w3.org/Graphics/SVG/1.1/DTD/svg11.dtd">
<!-- Created with matplotlib (http://matplotlib.org/) -->
<svg height="576pt" version="1.1" viewBox="0 0 1440 576" width="1440pt" xmlns="http://www.w3.org/2000/svg" xmlns:xlink="http://www.w3.org/1999/xlink">
 <defs>
  <style type="text/css">
*{stroke-linecap:butt;stroke-linejoin:round;}
  </style>
 </defs>
 <g id="figure_1">
  <g id="patch_1">
   <path d="M 0 576 
L 1440 576 
L 1440 0 
L 0 0 
z
" style="fill:#ffffff;"/>
  </g>
  <g id="axes_1">
   <g id="patch_2">
    <path d="M 180 512.64 
L 1296 512.64 
L 1296 69.12 
L 180 69.12 
z
" style="fill:#ffffff;"/>
   </g>
   <g id="matplotlib.axis_1">
    <g id="xtick_1">
     <g id="line2d_1">
      <defs>
       <path d="M 0 0 
L 0 3.5 
" id="mc3b91c7bcf" style="stroke:#000000;stroke-width:0.8;"/>
      </defs>
      <g>
       <use style="stroke:#000000;stroke-width:0.8;" x="230.727273" xlink:href="#mc3b91c7bcf" y="512.64"/>
      </g>
     </g>
     <g id="text_1">
      <!-- 0.0 -->
      <defs>
       <path d="M 31.78125 66.40625 
Q 24.171875 66.40625 20.328125 58.90625 
Q 16.5 51.421875 16.5 36.375 
Q 16.5 21.390625 20.328125 13.890625 
Q 24.171875 6.390625 31.78125 6.390625 
Q 39.453125 6.390625 43.28125 13.890625 
Q 47.125 21.390625 47.125 36.375 
Q 47.125 51.421875 43.28125 58.90625 
Q 39.453125 66.40625 31.78125 66.40625 
z
M 31.78125 74.21875 
Q 44.046875 74.21875 50.515625 64.515625 
Q 56.984375 54.828125 56.984375 36.375 
Q 56.984375 17.96875 50.515625 8.265625 
Q 44.046875 -1.421875 31.78125 -1.421875 
Q 19.53125 -1.421875 13.0625 8.265625 
Q 6.59375 17.96875 6.59375 36.375 
Q 6.59375 54.828125 13.0625 64.515625 
Q 19.53125 74.21875 31.78125 74.21875 
z
" id="DejaVuSans-30"/>
       <path d="M 10.6875 12.40625 
L 21 12.40625 
L 21 0 
L 10.6875 0 
z
" id="DejaVuSans-2e"/>
      </defs>
      <g transform="translate(222.77571 527.238438)scale(0.1 -0.1)">
       <use xlink:href="#DejaVuSans-30"/>
       <use x="63.623047" xlink:href="#DejaVuSans-2e"/>
       <use x="95.410156" xlink:href="#DejaVuSans-30"/>
      </g>
     </g>
    </g>
    <g id="xtick_2">
     <g id="line2d_2">
      <g>
       <use style="stroke:#000000;stroke-width:0.8;" x="379.040055" xlink:href="#mc3b91c7bcf" y="512.64"/>
      </g>
     </g>
     <g id="text_2">
      <!-- 0.2 -->
      <defs>
       <path d="M 19.1875 8.296875 
L 53.609375 8.296875 
L 53.609375 0 
L 7.328125 0 
L 7.328125 8.296875 
Q 12.9375 14.109375 22.625 23.890625 
Q 32.328125 33.6875 34.8125 36.53125 
Q 39.546875 41.84375 41.421875 45.53125 
Q 43.3125 49.21875 43.3125 52.78125 
Q 43.3125 58.59375 39.234375 62.25 
Q 35.15625 65.921875 28.609375 65.921875 
Q 23.96875 65.921875 18.8125 64.3125 
Q 13.671875 62.703125 7.8125 59.421875 
L 7.8125 69.390625 
Q 13.765625 71.78125 18.9375 73 
Q 24.125 74.21875 28.421875 74.21875 
Q 39.75 74.21875 46.484375 68.546875 
Q 53.21875 62.890625 53.21875 53.421875 
Q 53.21875 48.921875 51.53125 44.890625 
Q 49.859375 40.875 45.40625 35.40625 
Q 44.1875 33.984375 37.640625 27.21875 
Q 31.109375 20.453125 19.1875 8.296875 
z
" id="DejaVuSans-32"/>
      </defs>
      <g transform="translate(371.088493 527.238438)scale(0.1 -0.1)">
       <use xlink:href="#DejaVuSans-30"/>
       <use x="63.623047" xlink:href="#DejaVuSans-2e"/>
       <use x="95.410156" xlink:href="#DejaVuSans-32"/>
      </g>
     </g>
    </g>
    <g id="xtick_3">
     <g id="line2d_3">
      <g>
       <use style="stroke:#000000;stroke-width:0.8;" x="527.352838" xlink:href="#mc3b91c7bcf" y="512.64"/>
      </g>
     </g>
     <g id="text_3">
      <!-- 0.4 -->
      <defs>
       <path d="M 37.796875 64.3125 
L 12.890625 25.390625 
L 37.796875 25.390625 
z
M 35.203125 72.90625 
L 47.609375 72.90625 
L 47.609375 25.390625 
L 58.015625 25.390625 
L 58.015625 17.1875 
L 47.609375 17.1875 
L 47.609375 0 
L 37.796875 0 
L 37.796875 17.1875 
L 4.890625 17.1875 
L 4.890625 26.703125 
z
" id="DejaVuSans-34"/>
      </defs>
      <g transform="translate(519.401275 527.238438)scale(0.1 -0.1)">
       <use xlink:href="#DejaVuSans-30"/>
       <use x="63.623047" xlink:href="#DejaVuSans-2e"/>
       <use x="95.410156" xlink:href="#DejaVuSans-34"/>
      </g>
     </g>
    </g>
    <g id="xtick_4">
     <g id="line2d_4">
      <g>
       <use style="stroke:#000000;stroke-width:0.8;" x="675.665621" xlink:href="#mc3b91c7bcf" y="512.64"/>
      </g>
     </g>
     <g id="text_4">
      <!-- 0.6 -->
      <defs>
       <path d="M 33.015625 40.375 
Q 26.375 40.375 22.484375 35.828125 
Q 18.609375 31.296875 18.609375 23.390625 
Q 18.609375 15.53125 22.484375 10.953125 
Q 26.375 6.390625 33.015625 6.390625 
Q 39.65625 6.390625 43.53125 10.953125 
Q 47.40625 15.53125 47.40625 23.390625 
Q 47.40625 31.296875 43.53125 35.828125 
Q 39.65625 40.375 33.015625 40.375 
z
M 52.59375 71.296875 
L 52.59375 62.3125 
Q 48.875 64.0625 45.09375 64.984375 
Q 41.3125 65.921875 37.59375 65.921875 
Q 27.828125 65.921875 22.671875 59.328125 
Q 17.53125 52.734375 16.796875 39.40625 
Q 19.671875 43.65625 24.015625 45.921875 
Q 28.375 48.1875 33.59375 48.1875 
Q 44.578125 48.1875 50.953125 41.515625 
Q 57.328125 34.859375 57.328125 23.390625 
Q 57.328125 12.15625 50.6875 5.359375 
Q 44.046875 -1.421875 33.015625 -1.421875 
Q 20.359375 -1.421875 13.671875 8.265625 
Q 6.984375 17.96875 6.984375 36.375 
Q 6.984375 53.65625 15.1875 63.9375 
Q 23.390625 74.21875 37.203125 74.21875 
Q 40.921875 74.21875 44.703125 73.484375 
Q 48.484375 72.75 52.59375 71.296875 
z
" id="DejaVuSans-36"/>
      </defs>
      <g transform="translate(667.714058 527.238438)scale(0.1 -0.1)">
       <use xlink:href="#DejaVuSans-30"/>
       <use x="63.623047" xlink:href="#DejaVuSans-2e"/>
       <use x="95.410156" xlink:href="#DejaVuSans-36"/>
      </g>
     </g>
    </g>
    <g id="xtick_5">
     <g id="line2d_5">
      <g>
       <use style="stroke:#000000;stroke-width:0.8;" x="823.978403" xlink:href="#mc3b91c7bcf" y="512.64"/>
      </g>
     </g>
     <g id="text_5">
      <!-- 0.8 -->
      <defs>
       <path d="M 31.78125 34.625 
Q 24.75 34.625 20.71875 30.859375 
Q 16.703125 27.09375 16.703125 20.515625 
Q 16.703125 13.921875 20.71875 10.15625 
Q 24.75 6.390625 31.78125 6.390625 
Q 38.8125 6.390625 42.859375 10.171875 
Q 46.921875 13.96875 46.921875 20.515625 
Q 46.921875 27.09375 42.890625 30.859375 
Q 38.875 34.625 31.78125 34.625 
z
M 21.921875 38.8125 
Q 15.578125 40.375 12.03125 44.71875 
Q 8.5 49.078125 8.5 55.328125 
Q 8.5 64.0625 14.71875 69.140625 
Q 20.953125 74.21875 31.78125 74.21875 
Q 42.671875 74.21875 48.875 69.140625 
Q 55.078125 64.0625 55.078125 55.328125 
Q 55.078125 49.078125 51.53125 44.71875 
Q 48 40.375 41.703125 38.8125 
Q 48.828125 37.15625 52.796875 32.3125 
Q 56.78125 27.484375 56.78125 20.515625 
Q 56.78125 9.90625 50.3125 4.234375 
Q 43.84375 -1.421875 31.78125 -1.421875 
Q 19.734375 -1.421875 13.25 4.234375 
Q 6.78125 9.90625 6.78125 20.515625 
Q 6.78125 27.484375 10.78125 32.3125 
Q 14.796875 37.15625 21.921875 38.8125 
z
M 18.3125 54.390625 
Q 18.3125 48.734375 21.84375 45.5625 
Q 25.390625 42.390625 31.78125 42.390625 
Q 38.140625 42.390625 41.71875 45.5625 
Q 45.3125 48.734375 45.3125 54.390625 
Q 45.3125 60.0625 41.71875 63.234375 
Q 38.140625 66.40625 31.78125 66.40625 
Q 25.390625 66.40625 21.84375 63.234375 
Q 18.3125 60.0625 18.3125 54.390625 
z
" id="DejaVuSans-38"/>
      </defs>
      <g transform="translate(816.026841 527.238438)scale(0.1 -0.1)">
       <use xlink:href="#DejaVuSans-30"/>
       <use x="63.623047" xlink:href="#DejaVuSans-2e"/>
       <use x="95.410156" xlink:href="#DejaVuSans-38"/>
      </g>
     </g>
    </g>
    <g id="xtick_6">
     <g id="line2d_6">
      <g>
       <use style="stroke:#000000;stroke-width:0.8;" x="972.291186" xlink:href="#mc3b91c7bcf" y="512.64"/>
      </g>
     </g>
     <g id="text_6">
      <!-- 1.0 -->
      <defs>
       <path d="M 12.40625 8.296875 
L 28.515625 8.296875 
L 28.515625 63.921875 
L 10.984375 60.40625 
L 10.984375 69.390625 
L 28.421875 72.90625 
L 38.28125 72.90625 
L 38.28125 8.296875 
L 54.390625 8.296875 
L 54.390625 0 
L 12.40625 0 
z
" id="DejaVuSans-31"/>
      </defs>
      <g transform="translate(964.339623 527.238438)scale(0.1 -0.1)">
       <use xlink:href="#DejaVuSans-31"/>
       <use x="63.623047" xlink:href="#DejaVuSans-2e"/>
       <use x="95.410156" xlink:href="#DejaVuSans-30"/>
      </g>
     </g>
    </g>
    <g id="xtick_7">
     <g id="line2d_7">
      <g>
       <use style="stroke:#000000;stroke-width:0.8;" x="1120.603968" xlink:href="#mc3b91c7bcf" y="512.64"/>
      </g>
     </g>
     <g id="text_7">
      <!-- 1.2 -->
      <g transform="translate(1112.652406 527.238438)scale(0.1 -0.1)">
       <use xlink:href="#DejaVuSans-31"/>
       <use x="63.623047" xlink:href="#DejaVuSans-2e"/>
       <use x="95.410156" xlink:href="#DejaVuSans-32"/>
      </g>
     </g>
    </g>
    <g id="xtick_8">
     <g id="line2d_8">
      <g>
       <use style="stroke:#000000;stroke-width:0.8;" x="1268.916751" xlink:href="#mc3b91c7bcf" y="512.64"/>
      </g>
     </g>
     <g id="text_8">
      <!-- 1.4 -->
      <g transform="translate(1260.965189 527.238438)scale(0.1 -0.1)">
       <use xlink:href="#DejaVuSans-31"/>
       <use x="63.623047" xlink:href="#DejaVuSans-2e"/>
       <use x="95.410156" xlink:href="#DejaVuSans-34"/>
      </g>
     </g>
    </g>
   </g>
   <g id="matplotlib.axis_2">
    <g id="ytick_1">
     <g id="line2d_9">
      <defs>
       <path d="M 0 0 
L -3.5 0 
" id="m6c6d85cb76" style="stroke:#000000;stroke-width:0.8;"/>
      </defs>
      <g>
       <use style="stroke:#000000;stroke-width:0.8;" x="180" xlink:href="#m6c6d85cb76" y="473.332103"/>
      </g>
     </g>
     <g id="text_9">
      <!-- 0.3004 -->
      <defs>
       <path d="M 40.578125 39.3125 
Q 47.65625 37.796875 51.625 33 
Q 55.609375 28.21875 55.609375 21.1875 
Q 55.609375 10.40625 48.1875 4.484375 
Q 40.765625 -1.421875 27.09375 -1.421875 
Q 22.515625 -1.421875 17.65625 -0.515625 
Q 12.796875 0.390625 7.625 2.203125 
L 7.625 11.71875 
Q 11.71875 9.328125 16.59375 8.109375 
Q 21.484375 6.890625 26.8125 6.890625 
Q 36.078125 6.890625 40.9375 10.546875 
Q 45.796875 14.203125 45.796875 21.1875 
Q 45.796875 27.640625 41.28125 31.265625 
Q 36.765625 34.90625 28.71875 34.90625 
L 20.21875 34.90625 
L 20.21875 43.015625 
L 29.109375 43.015625 
Q 36.375 43.015625 40.234375 45.921875 
Q 44.09375 48.828125 44.09375 54.296875 
Q 44.09375 59.90625 40.109375 62.90625 
Q 36.140625 65.921875 28.71875 65.921875 
Q 24.65625 65.921875 20.015625 65.03125 
Q 15.375 64.15625 9.8125 62.3125 
L 9.8125 71.09375 
Q 15.4375 72.65625 20.34375 73.4375 
Q 25.25 74.21875 29.59375 74.21875 
Q 40.828125 74.21875 47.359375 69.109375 
Q 53.90625 64.015625 53.90625 55.328125 
Q 53.90625 49.265625 50.4375 45.09375 
Q 46.96875 40.921875 40.578125 39.3125 
z
" id="DejaVuSans-33"/>
      </defs>
      <g transform="translate(138.009375 477.131322)scale(0.1 -0.1)">
       <use xlink:href="#DejaVuSans-30"/>
       <use x="63.623047" xlink:href="#DejaVuSans-2e"/>
       <use x="95.410156" xlink:href="#DejaVuSans-33"/>
       <use x="159.033203" xlink:href="#DejaVuSans-30"/>
       <use x="222.65625" xlink:href="#DejaVuSans-30"/>
       <use x="286.279297" xlink:href="#DejaVuSans-34"/>
      </g>
     </g>
    </g>
    <g id="ytick_2">
     <g id="line2d_10">
      <g>
       <use style="stroke:#000000;stroke-width:0.8;" x="180" xlink:href="#m6c6d85cb76" y="418.623826"/>
      </g>
     </g>
     <g id="text_10">
      <!-- 0.3005 -->
      <defs>
       <path d="M 10.796875 72.90625 
L 49.515625 72.90625 
L 49.515625 64.59375 
L 19.828125 64.59375 
L 19.828125 46.734375 
Q 21.96875 47.46875 24.109375 47.828125 
Q 26.265625 48.1875 28.421875 48.1875 
Q 40.625 48.1875 47.75 41.5 
Q 54.890625 34.8125 54.890625 23.390625 
Q 54.890625 11.625 47.5625 5.09375 
Q 40.234375 -1.421875 26.90625 -1.421875 
Q 22.3125 -1.421875 17.546875 -0.640625 
Q 12.796875 0.140625 7.71875 1.703125 
L 7.71875 11.625 
Q 12.109375 9.234375 16.796875 8.0625 
Q 21.484375 6.890625 26.703125 6.890625 
Q 35.15625 6.890625 40.078125 11.328125 
Q 45.015625 15.765625 45.015625 23.390625 
Q 45.015625 31 40.078125 35.4375 
Q 35.15625 39.890625 26.703125 39.890625 
Q 22.75 39.890625 18.8125 39.015625 
Q 14.890625 38.140625 10.796875 36.28125 
z
" id="DejaVuSans-35"/>
      </defs>
      <g transform="translate(138.009375 422.423045)scale(0.1 -0.1)">
       <use xlink:href="#DejaVuSans-30"/>
       <use x="63.623047" xlink:href="#DejaVuSans-2e"/>
       <use x="95.410156" xlink:href="#DejaVuSans-33"/>
       <use x="159.033203" xlink:href="#DejaVuSans-30"/>
       <use x="222.65625" xlink:href="#DejaVuSans-30"/>
       <use x="286.279297" xlink:href="#DejaVuSans-35"/>
      </g>
     </g>
    </g>
    <g id="ytick_3">
     <g id="line2d_11">
      <g>
       <use style="stroke:#000000;stroke-width:0.8;" x="180" xlink:href="#m6c6d85cb76" y="363.91555"/>
      </g>
     </g>
     <g id="text_11">
      <!-- 0.3006 -->
      <g transform="translate(138.009375 367.714768)scale(0.1 -0.1)">
       <use xlink:href="#DejaVuSans-30"/>
       <use x="63.623047" xlink:href="#DejaVuSans-2e"/>
       <use x="95.410156" xlink:href="#DejaVuSans-33"/>
       <use x="159.033203" xlink:href="#DejaVuSans-30"/>
       <use x="222.65625" xlink:href="#DejaVuSans-30"/>
       <use x="286.279297" xlink:href="#DejaVuSans-36"/>
      </g>
     </g>
    </g>
    <g id="ytick_4">
     <g id="line2d_12">
      <g>
       <use style="stroke:#000000;stroke-width:0.8;" x="180" xlink:href="#m6c6d85cb76" y="309.207273"/>
      </g>
     </g>
     <g id="text_12">
      <!-- 0.3007 -->
      <defs>
       <path d="M 8.203125 72.90625 
L 55.078125 72.90625 
L 55.078125 68.703125 
L 28.609375 0 
L 18.3125 0 
L 43.21875 64.59375 
L 8.203125 64.59375 
z
" id="DejaVuSans-37"/>
      </defs>
      <g transform="translate(138.009375 313.006491)scale(0.1 -0.1)">
       <use xlink:href="#DejaVuSans-30"/>
       <use x="63.623047" xlink:href="#DejaVuSans-2e"/>
       <use x="95.410156" xlink:href="#DejaVuSans-33"/>
       <use x="159.033203" xlink:href="#DejaVuSans-30"/>
       <use x="222.65625" xlink:href="#DejaVuSans-30"/>
       <use x="286.279297" xlink:href="#DejaVuSans-37"/>
      </g>
     </g>
    </g>
    <g id="ytick_5">
     <g id="line2d_13">
      <g>
       <use style="stroke:#000000;stroke-width:0.8;" x="180" xlink:href="#m6c6d85cb76" y="254.498996"/>
      </g>
     </g>
     <g id="text_13">
      <!-- 0.3008 -->
      <g transform="translate(138.009375 258.298215)scale(0.1 -0.1)">
       <use xlink:href="#DejaVuSans-30"/>
       <use x="63.623047" xlink:href="#DejaVuSans-2e"/>
       <use x="95.410156" xlink:href="#DejaVuSans-33"/>
       <use x="159.033203" xlink:href="#DejaVuSans-30"/>
       <use x="222.65625" xlink:href="#DejaVuSans-30"/>
       <use x="286.279297" xlink:href="#DejaVuSans-38"/>
      </g>
     </g>
    </g>
    <g id="ytick_6">
     <g id="line2d_14">
      <g>
       <use style="stroke:#000000;stroke-width:0.8;" x="180" xlink:href="#m6c6d85cb76" y="199.790719"/>
      </g>
     </g>
     <g id="text_14">
      <!-- 0.3009 -->
      <defs>
       <path d="M 10.984375 1.515625 
L 10.984375 10.5 
Q 14.703125 8.734375 18.5 7.8125 
Q 22.3125 6.890625 25.984375 6.890625 
Q 35.75 6.890625 40.890625 13.453125 
Q 46.046875 20.015625 46.78125 33.40625 
Q 43.953125 29.203125 39.59375 26.953125 
Q 35.25 24.703125 29.984375 24.703125 
Q 19.046875 24.703125 12.671875 31.3125 
Q 6.296875 37.9375 6.296875 49.421875 
Q 6.296875 60.640625 12.9375 67.421875 
Q 19.578125 74.21875 30.609375 74.21875 
Q 43.265625 74.21875 49.921875 64.515625 
Q 56.59375 54.828125 56.59375 36.375 
Q 56.59375 19.140625 48.40625 8.859375 
Q 40.234375 -1.421875 26.421875 -1.421875 
Q 22.703125 -1.421875 18.890625 -0.6875 
Q 15.09375 0.046875 10.984375 1.515625 
z
M 30.609375 32.421875 
Q 37.25 32.421875 41.125 36.953125 
Q 45.015625 41.5 45.015625 49.421875 
Q 45.015625 57.28125 41.125 61.84375 
Q 37.25 66.40625 30.609375 66.40625 
Q 23.96875 66.40625 20.09375 61.84375 
Q 16.21875 57.28125 16.21875 49.421875 
Q 16.21875 41.5 20.09375 36.953125 
Q 23.96875 32.421875 30.609375 32.421875 
z
" id="DejaVuSans-39"/>
      </defs>
      <g transform="translate(138.009375 203.589938)scale(0.1 -0.1)">
       <use xlink:href="#DejaVuSans-30"/>
       <use x="63.623047" xlink:href="#DejaVuSans-2e"/>
       <use x="95.410156" xlink:href="#DejaVuSans-33"/>
       <use x="159.033203" xlink:href="#DejaVuSans-30"/>
       <use x="222.65625" xlink:href="#DejaVuSans-30"/>
       <use x="286.279297" xlink:href="#DejaVuSans-39"/>
      </g>
     </g>
    </g>
    <g id="ytick_7">
     <g id="line2d_15">
      <g>
       <use style="stroke:#000000;stroke-width:0.8;" x="180" xlink:href="#m6c6d85cb76" y="145.082442"/>
      </g>
     </g>
     <g id="text_15">
      <!-- 0.3010 -->
      <g transform="translate(138.009375 148.881661)scale(0.1 -0.1)">
       <use xlink:href="#DejaVuSans-30"/>
       <use x="63.623047" xlink:href="#DejaVuSans-2e"/>
       <use x="95.410156" xlink:href="#DejaVuSans-33"/>
       <use x="159.033203" xlink:href="#DejaVuSans-30"/>
       <use x="222.65625" xlink:href="#DejaVuSans-31"/>
       <use x="286.279297" xlink:href="#DejaVuSans-30"/>
      </g>
     </g>
    </g>
    <g id="ytick_8">
     <g id="line2d_16">
      <g>
       <use style="stroke:#000000;stroke-width:0.8;" x="180" xlink:href="#m6c6d85cb76" y="90.374166"/>
      </g>
     </g>
     <g id="text_16">
      <!-- 0.3011 -->
      <g transform="translate(138.009375 94.173384)scale(0.1 -0.1)">
       <use xlink:href="#DejaVuSans-30"/>
       <use x="63.623047" xlink:href="#DejaVuSans-2e"/>
       <use x="95.410156" xlink:href="#DejaVuSans-33"/>
       <use x="159.033203" xlink:href="#DejaVuSans-30"/>
       <use x="222.65625" xlink:href="#DejaVuSans-31"/>
       <use x="286.279297" xlink:href="#DejaVuSans-31"/>
      </g>
     </g>
    </g>
   </g>
   <g id="line2d_17">
    <path clip-path="url(#p003c15383b)" d="M 230.727273 409.870502 
L 242.762855 246.292754 
L 252.587835 448.166296 
L 262.199245 469.502524 
L 273.365715 426.282985 
L 282.967484 448.713379 
L 292.577411 468.955441 
L 303.276695 343.126404 
L 312.988958 465.125862 
L 322.645603 464.578779 
L 333.192125 438.318806 
L 342.892522 481.538345 
L 352.53582 461.296282 
L 363.174295 467.861275 
L 372.793121 462.937531 
L 382.426778 462.390448 
L 393.040782 443.242551 
L 402.6559 466.220027 
L 412.282882 473.332103 
L 422.940639 480.444179 
L 432.547599 470.049607 
L 442.170874 478.255848 
L 452.852361 462.390448 
L 462.514939 466.220027 
L 472.153787 466.76711 
L 482.804869 430.112564 
L 492.471896 465.125862 
L 502.139665 471.143772 
L 512.804096 464.578779 
L 522.445168 453.637123 
L 532.084016 480.444179 
L 542.809255 481.538345 
L 552.494821 464.031696 
L 562.203376 462.937531 
L 572.976075 478.802931 
L 582.735056 455.278372 
L 594.907086 468.408358 
L 604.603034 492.48 
L 614.26487 471.143772 
L 625.209612 400.023012 
L 634.895178 483.179593 
L 644.555531 486.46209 
L 655.240726 444.336716 
L 665.121323 476.6146 
L 677.975592 484.273758 
L 687.73309 464.578779 
L 699.876941 89.28 
L 709.629248 483.179593 
L 719.39342 489.744586 
L 730.339645 480.444179 
L 740.117165 478.802931 
L 751.515744 449.807544 
L 761.276208 488.103338 
L 770.977347 477.708765 
L 782.479745 427.377151 
L 792.16457 470.596689 
L 801.824181 480.991262 
L 812.659913 451.448792 
L 822.329165 472.78502 
L 831.989518 457.466703 
L 842.632443 413.152999 
L 852.293538 466.220027 
L 861.950925 455.278372 
L 872.48929 348.597232 
L 882.141486 458.013786 
L 891.805547 458.013786 
L 902.575279 445.977965 
L 912.339451 462.937531 
L 922.832581 156.024098 
L 933.964197 488.103338 
L 944.099151 477.161682 
L 955.284159 400.023012 
L 965.057971 474.973351 
L 978.306752 448.166296 
L 988.015307 484.273758 
L 999.834353 466.76711 
L 1009.504346 485.915007 
L 1019.16025 469.502524 
L 1030.084969 459.655034 
L 1039.797974 475.520434 
L 1050.38454 462.390448 
L 1060.176891 480.444179 
L 1069.817222 455.825455 
L 1080.37116 420.265075 
L 1090.23396 484.820841 
L 1099.935099 427.924233 
L 1110.53798 430.112564 
L 1120.719652 479.897096 
L 1130.414859 456.91962 
L 1141.286186 450.354627 
L 1151.625812 483.726676 
L 1161.241671 470.596689 
L 1172.233873 210.732374 
L 1181.857889 479.897096 
L 1192.201223 415.34133 
L 1202.933136 484.273758 
L 1212.666162 471.143772 
L 1224.837451 405.49384 
L 1234.558612 457.466703 
L 1245.272727 447.07213 
" style="fill:none;stroke:#ff0000;stroke-dasharray:5.55,2.4;stroke-dashoffset:0;stroke-width:1.5;"/>
    <defs>
     <path d="M -3 3 
L 3 3 
L 3 -3 
L -3 -3 
z
" id="maa78a7dc05" style="stroke:#ff0000;stroke-linejoin:miter;"/>
    </defs>
    <g clip-path="url(#p003c15383b)">
     <use style="fill:#ff0000;stroke:#ff0000;stroke-linejoin:miter;" x="230.727273" xlink:href="#maa78a7dc05" y="409.870502"/>
     <use style="fill:#ff0000;stroke:#ff0000;stroke-linejoin:miter;" x="242.762855" xlink:href="#maa78a7dc05" y="246.292754"/>
     <use style="fill:#ff0000;stroke:#ff0000;stroke-linejoin:miter;" x="252.587835" xlink:href="#maa78a7dc05" y="448.166296"/>
     <use style="fill:#ff0000;stroke:#ff0000;stroke-linejoin:miter;" x="262.199245" xlink:href="#maa78a7dc05" y="469.502524"/>
     <use style="fill:#ff0000;stroke:#ff0000;stroke-linejoin:miter;" x="273.365715" xlink:href="#maa78a7dc05" y="426.282985"/>
     <use style="fill:#ff0000;stroke:#ff0000;stroke-linejoin:miter;" x="282.967484" xlink:href="#maa78a7dc05" y="448.713379"/>
     <use style="fill:#ff0000;stroke:#ff0000;stroke-linejoin:miter;" x="292.577411" xlink:href="#maa78a7dc05" y="468.955441"/>
     <use style="fill:#ff0000;stroke:#ff0000;stroke-linejoin:miter;" x="303.276695" xlink:href="#maa78a7dc05" y="343.126404"/>
     <use style="fill:#ff0000;stroke:#ff0000;stroke-linejoin:miter;" x="312.988958" xlink:href="#maa78a7dc05" y="465.125862"/>
     <use style="fill:#ff0000;stroke:#ff0000;stroke-linejoin:miter;" x="322.645603" xlink:href="#maa78a7dc05" y="464.578779"/>
     <use style="fill:#ff0000;stroke:#ff0000;stroke-linejoin:miter;" x="333.192125" xlink:href="#maa78a7dc05" y="438.318806"/>
     <use style="fill:#ff0000;stroke:#ff0000;stroke-linejoin:miter;" x="342.892522" xlink:href="#maa78a7dc05" y="481.538345"/>
     <use style="fill:#ff0000;stroke:#ff0000;stroke-linejoin:miter;" x="352.53582" xlink:href="#maa78a7dc05" y="461.296282"/>
     <use style="fill:#ff0000;stroke:#ff0000;stroke-linejoin:miter;" x="363.174295" xlink:href="#maa78a7dc05" y="467.861275"/>
     <use style="fill:#ff0000;stroke:#ff0000;stroke-linejoin:miter;" x="372.793121" xlink:href="#maa78a7dc05" y="462.937531"/>
     <use style="fill:#ff0000;stroke:#ff0000;stroke-linejoin:miter;" x="382.426778" xlink:href="#maa78a7dc05" y="462.390448"/>
     <use style="fill:#ff0000;stroke:#ff0000;stroke-linejoin:miter;" x="393.040782" xlink:href="#maa78a7dc05" y="443.242551"/>
     <use style="fill:#ff0000;stroke:#ff0000;stroke-linejoin:miter;" x="402.6559" xlink:href="#maa78a7dc05" y="466.220027"/>
     <use style="fill:#ff0000;stroke:#ff0000;stroke-linejoin:miter;" x="412.282882" xlink:href="#maa78a7dc05" y="473.332103"/>
     <use style="fill:#ff0000;stroke:#ff0000;stroke-linejoin:miter;" x="422.940639" xlink:href="#maa78a7dc05" y="480.444179"/>
     <use style="fill:#ff0000;stroke:#ff0000;stroke-linejoin:miter;" x="432.547599" xlink:href="#maa78a7dc05" y="470.049607"/>
     <use style="fill:#ff0000;stroke:#ff0000;stroke-linejoin:miter;" x="442.170874" xlink:href="#maa78a7dc05" y="478.255848"/>
     <use style="fill:#ff0000;stroke:#ff0000;stroke-linejoin:miter;" x="452.852361" xlink:href="#maa78a7dc05" y="462.390448"/>
     <use style="fill:#ff0000;stroke:#ff0000;stroke-linejoin:miter;" x="462.514939" xlink:href="#maa78a7dc05" y="466.220027"/>
     <use style="fill:#ff0000;stroke:#ff0000;stroke-linejoin:miter;" x="472.153787" xlink:href="#maa78a7dc05" y="466.76711"/>
     <use style="fill:#ff0000;stroke:#ff0000;stroke-linejoin:miter;" x="482.804869" xlink:href="#maa78a7dc05" y="430.112564"/>
     <use style="fill:#ff0000;stroke:#ff0000;stroke-linejoin:miter;" x="492.471896" xlink:href="#maa78a7dc05" y="465.125862"/>
     <use style="fill:#ff0000;stroke:#ff0000;stroke-linejoin:miter;" x="502.139665" xlink:href="#maa78a7dc05" y="471.143772"/>
     <use style="fill:#ff0000;stroke:#ff0000;stroke-linejoin:miter;" x="512.804096" xlink:href="#maa78a7dc05" y="464.578779"/>
     <use style="fill:#ff0000;stroke:#ff0000;stroke-linejoin:miter;" x="522.445168" xlink:href="#maa78a7dc05" y="453.637123"/>
     <use style="fill:#ff0000;stroke:#ff0000;stroke-linejoin:miter;" x="532.084016" xlink:href="#maa78a7dc05" y="480.444179"/>
     <use style="fill:#ff0000;stroke:#ff0000;stroke-linejoin:miter;" x="542.809255" xlink:href="#maa78a7dc05" y="481.538345"/>
     <use style="fill:#ff0000;stroke:#ff0000;stroke-linejoin:miter;" x="552.494821" xlink:href="#maa78a7dc05" y="464.031696"/>
     <use style="fill:#ff0000;stroke:#ff0000;stroke-linejoin:miter;" x="562.203376" xlink:href="#maa78a7dc05" y="462.937531"/>
     <use style="fill:#ff0000;stroke:#ff0000;stroke-linejoin:miter;" x="572.976075" xlink:href="#maa78a7dc05" y="478.802931"/>
     <use style="fill:#ff0000;stroke:#ff0000;stroke-linejoin:miter;" x="582.735056" xlink:href="#maa78a7dc05" y="455.278372"/>
     <use style="fill:#ff0000;stroke:#ff0000;stroke-linejoin:miter;" x="594.907086" xlink:href="#maa78a7dc05" y="468.408358"/>
     <use style="fill:#ff0000;stroke:#ff0000;stroke-linejoin:miter;" x="604.603034" xlink:href="#maa78a7dc05" y="492.48"/>
     <use style="fill:#ff0000;stroke:#ff0000;stroke-linejoin:miter;" x="614.26487" xlink:href="#maa78a7dc05" y="471.143772"/>
     <use style="fill:#ff0000;stroke:#ff0000;stroke-linejoin:miter;" x="625.209612" xlink:href="#maa78a7dc05" y="400.023012"/>
     <use style="fill:#ff0000;stroke:#ff0000;stroke-linejoin:miter;" x="634.895178" xlink:href="#maa78a7dc05" y="483.179593"/>
     <use style="fill:#ff0000;stroke:#ff0000;stroke-linejoin:miter;" x="644.555531" xlink:href="#maa78a7dc05" y="486.46209"/>
     <use style="fill:#ff0000;stroke:#ff0000;stroke-linejoin:miter;" x="655.240726" xlink:href="#maa78a7dc05" y="444.336716"/>
     <use style="fill:#ff0000;stroke:#ff0000;stroke-linejoin:miter;" x="665.121323" xlink:href="#maa78a7dc05" y="476.6146"/>
     <use style="fill:#ff0000;stroke:#ff0000;stroke-linejoin:miter;" x="677.975592" xlink:href="#maa78a7dc05" y="484.273758"/>
     <use style="fill:#ff0000;stroke:#ff0000;stroke-linejoin:miter;" x="687.73309" xlink:href="#maa78a7dc05" y="464.578779"/>
     <use style="fill:#ff0000;stroke:#ff0000;stroke-linejoin:miter;" x="699.876941" xlink:href="#maa78a7dc05" y="89.28"/>
     <use style="fill:#ff0000;stroke:#ff0000;stroke-linejoin:miter;" x="709.629248" xlink:href="#maa78a7dc05" y="483.179593"/>
     <use style="fill:#ff0000;stroke:#ff0000;stroke-linejoin:miter;" x="719.39342" xlink:href="#maa78a7dc05" y="489.744586"/>
     <use style="fill:#ff0000;stroke:#ff0000;stroke-linejoin:miter;" x="730.339645" xlink:href="#maa78a7dc05" y="480.444179"/>
     <use style="fill:#ff0000;stroke:#ff0000;stroke-linejoin:miter;" x="740.117165" xlink:href="#maa78a7dc05" y="478.802931"/>
     <use style="fill:#ff0000;stroke:#ff0000;stroke-linejoin:miter;" x="751.515744" xlink:href="#maa78a7dc05" y="449.807544"/>
     <use style="fill:#ff0000;stroke:#ff0000;stroke-linejoin:miter;" x="761.276208" xlink:href="#maa78a7dc05" y="488.103338"/>
     <use style="fill:#ff0000;stroke:#ff0000;stroke-linejoin:miter;" x="770.977347" xlink:href="#maa78a7dc05" y="477.708765"/>
     <use style="fill:#ff0000;stroke:#ff0000;stroke-linejoin:miter;" x="782.479745" xlink:href="#maa78a7dc05" y="427.377151"/>
     <use style="fill:#ff0000;stroke:#ff0000;stroke-linejoin:miter;" x="792.16457" xlink:href="#maa78a7dc05" y="470.596689"/>
     <use style="fill:#ff0000;stroke:#ff0000;stroke-linejoin:miter;" x="801.824181" xlink:href="#maa78a7dc05" y="480.991262"/>
     <use style="fill:#ff0000;stroke:#ff0000;stroke-linejoin:miter;" x="812.659913" xlink:href="#maa78a7dc05" y="451.448792"/>
     <use style="fill:#ff0000;stroke:#ff0000;stroke-linejoin:miter;" x="822.329165" xlink:href="#maa78a7dc05" y="472.78502"/>
     <use style="fill:#ff0000;stroke:#ff0000;stroke-linejoin:miter;" x="831.989518" xlink:href="#maa78a7dc05" y="457.466703"/>
     <use style="fill:#ff0000;stroke:#ff0000;stroke-linejoin:miter;" x="842.632443" xlink:href="#maa78a7dc05" y="413.152999"/>
     <use style="fill:#ff0000;stroke:#ff0000;stroke-linejoin:miter;" x="852.293538" xlink:href="#maa78a7dc05" y="466.220027"/>
     <use style="fill:#ff0000;stroke:#ff0000;stroke-linejoin:miter;" x="861.950925" xlink:href="#maa78a7dc05" y="455.278372"/>
     <use style="fill:#ff0000;stroke:#ff0000;stroke-linejoin:miter;" x="872.48929" xlink:href="#maa78a7dc05" y="348.597232"/>
     <use style="fill:#ff0000;stroke:#ff0000;stroke-linejoin:miter;" x="882.141486" xlink:href="#maa78a7dc05" y="458.013786"/>
     <use style="fill:#ff0000;stroke:#ff0000;stroke-linejoin:miter;" x="891.805547" xlink:href="#maa78a7dc05" y="458.013786"/>
     <use style="fill:#ff0000;stroke:#ff0000;stroke-linejoin:miter;" x="902.575279" xlink:href="#maa78a7dc05" y="445.977965"/>
     <use style="fill:#ff0000;stroke:#ff0000;stroke-linejoin:miter;" x="912.339451" xlink:href="#maa78a7dc05" y="462.937531"/>
     <use style="fill:#ff0000;stroke:#ff0000;stroke-linejoin:miter;" x="922.832581" xlink:href="#maa78a7dc05" y="156.024098"/>
     <use style="fill:#ff0000;stroke:#ff0000;stroke-linejoin:miter;" x="933.964197" xlink:href="#maa78a7dc05" y="488.103338"/>
     <use style="fill:#ff0000;stroke:#ff0000;stroke-linejoin:miter;" x="944.099151" xlink:href="#maa78a7dc05" y="477.161682"/>
     <use style="fill:#ff0000;stroke:#ff0000;stroke-linejoin:miter;" x="955.284159" xlink:href="#maa78a7dc05" y="400.023012"/>
     <use style="fill:#ff0000;stroke:#ff0000;stroke-linejoin:miter;" x="965.057971" xlink:href="#maa78a7dc05" y="474.973351"/>
     <use style="fill:#ff0000;stroke:#ff0000;stroke-linejoin:miter;" x="978.306752" xlink:href="#maa78a7dc05" y="448.166296"/>
     <use style="fill:#ff0000;stroke:#ff0000;stroke-linejoin:miter;" x="988.015307" xlink:href="#maa78a7dc05" y="484.273758"/>
     <use style="fill:#ff0000;stroke:#ff0000;stroke-linejoin:miter;" x="999.834353" xlink:href="#maa78a7dc05" y="466.76711"/>
     <use style="fill:#ff0000;stroke:#ff0000;stroke-linejoin:miter;" x="1009.504346" xlink:href="#maa78a7dc05" y="485.915007"/>
     <use style="fill:#ff0000;stroke:#ff0000;stroke-linejoin:miter;" x="1019.16025" xlink:href="#maa78a7dc05" y="469.502524"/>
     <use style="fill:#ff0000;stroke:#ff0000;stroke-linejoin:miter;" x="1030.084969" xlink:href="#maa78a7dc05" y="459.655034"/>
     <use style="fill:#ff0000;stroke:#ff0000;stroke-linejoin:miter;" x="1039.797974" xlink:href="#maa78a7dc05" y="475.520434"/>
     <use style="fill:#ff0000;stroke:#ff0000;stroke-linejoin:miter;" x="1050.38454" xlink:href="#maa78a7dc05" y="462.390448"/>
     <use style="fill:#ff0000;stroke:#ff0000;stroke-linejoin:miter;" x="1060.176891" xlink:href="#maa78a7dc05" y="480.444179"/>
     <use style="fill:#ff0000;stroke:#ff0000;stroke-linejoin:miter;" x="1069.817222" xlink:href="#maa78a7dc05" y="455.825455"/>
     <use style="fill:#ff0000;stroke:#ff0000;stroke-linejoin:miter;" x="1080.37116" xlink:href="#maa78a7dc05" y="420.265075"/>
     <use style="fill:#ff0000;stroke:#ff0000;stroke-linejoin:miter;" x="1090.23396" xlink:href="#maa78a7dc05" y="484.820841"/>
     <use style="fill:#ff0000;stroke:#ff0000;stroke-linejoin:miter;" x="1099.935099" xlink:href="#maa78a7dc05" y="427.924233"/>
     <use style="fill:#ff0000;stroke:#ff0000;stroke-linejoin:miter;" x="1110.53798" xlink:href="#maa78a7dc05" y="430.112564"/>
     <use style="fill:#ff0000;stroke:#ff0000;stroke-linejoin:miter;" x="1120.719652" xlink:href="#maa78a7dc05" y="479.897096"/>
     <use style="fill:#ff0000;stroke:#ff0000;stroke-linejoin:miter;" x="1130.414859" xlink:href="#maa78a7dc05" y="456.91962"/>
     <use style="fill:#ff0000;stroke:#ff0000;stroke-linejoin:miter;" x="1141.286186" xlink:href="#maa78a7dc05" y="450.354627"/>
     <use style="fill:#ff0000;stroke:#ff0000;stroke-linejoin:miter;" x="1151.625812" xlink:href="#maa78a7dc05" y="483.726676"/>
     <use style="fill:#ff0000;stroke:#ff0000;stroke-linejoin:miter;" x="1161.241671" xlink:href="#maa78a7dc05" y="470.596689"/>
     <use style="fill:#ff0000;stroke:#ff0000;stroke-linejoin:miter;" x="1172.233873" xlink:href="#maa78a7dc05" y="210.732374"/>
     <use style="fill:#ff0000;stroke:#ff0000;stroke-linejoin:miter;" x="1181.857889" xlink:href="#maa78a7dc05" y="479.897096"/>
     <use style="fill:#ff0000;stroke:#ff0000;stroke-linejoin:miter;" x="1192.201223" xlink:href="#maa78a7dc05" y="415.34133"/>
     <use style="fill:#ff0000;stroke:#ff0000;stroke-linejoin:miter;" x="1202.933136" xlink:href="#maa78a7dc05" y="484.273758"/>
     <use style="fill:#ff0000;stroke:#ff0000;stroke-linejoin:miter;" x="1212.666162" xlink:href="#maa78a7dc05" y="471.143772"/>
     <use style="fill:#ff0000;stroke:#ff0000;stroke-linejoin:miter;" x="1224.837451" xlink:href="#maa78a7dc05" y="405.49384"/>
     <use style="fill:#ff0000;stroke:#ff0000;stroke-linejoin:miter;" x="1234.558612" xlink:href="#maa78a7dc05" y="457.466703"/>
     <use style="fill:#ff0000;stroke:#ff0000;stroke-linejoin:miter;" x="1245.272727" xlink:href="#maa78a7dc05" y="447.07213"/>
    </g>
   </g>
   <g id="line2d_18">
    <path clip-path="url(#p003c15383b)" d="M 230.727273 409.870502 
L 242.762855 246.292754 
L 252.587835 448.166296 
L 262.199245 469.502524 
L 273.365715 426.282985 
L 282.967484 448.713379 
L 292.577411 468.955441 
L 303.276695 343.126404 
L 312.988958 465.125862 
L 322.645603 464.578779 
L 333.192125 438.318806 
L 342.892522 481.538345 
L 352.53582 461.296282 
L 363.174295 467.861275 
L 372.793121 462.937531 
L 382.426778 462.390448 
L 393.040782 443.242551 
L 402.6559 466.220027 
L 412.282882 473.332103 
L 422.940639 480.444179 
L 432.547599 470.049607 
L 442.170874 478.255848 
L 452.852361 462.390448 
L 462.514939 466.220027 
L 472.153787 466.76711 
L 482.804869 430.112564 
L 492.471896 465.125862 
L 502.139665 471.143772 
L 512.804096 464.578779 
L 522.445168 453.637123 
L 532.084016 480.444179 
L 542.809255 481.538345 
L 552.494821 464.031696 
L 562.203376 462.937531 
L 572.976075 478.802931 
L 582.735056 455.278372 
L 594.907086 468.408358 
L 604.603034 492.48 
L 614.26487 471.143772 
L 625.209612 400.023012 
L 634.895178 483.179593 
L 644.555531 486.46209 
L 655.240726 444.336716 
L 665.121323 476.6146 
L 677.975592 484.273758 
L 687.73309 464.578779 
L 699.876941 89.28 
L 709.629248 483.179593 
L 719.39342 489.744586 
L 730.339645 480.444179 
L 740.117165 478.802931 
L 751.515744 449.807544 
L 761.276208 488.103338 
L 770.977347 477.708765 
L 782.479745 427.377151 
L 792.16457 470.596689 
L 801.824181 480.991262 
L 812.659913 451.448792 
L 822.329165 472.78502 
L 831.989518 457.466703 
L 842.632443 413.152999 
L 852.293538 466.220027 
L 861.950925 455.278372 
L 872.48929 348.597232 
L 882.141486 458.013786 
L 891.805547 458.013786 
L 902.575279 445.977965 
L 912.339451 462.937531 
L 922.832581 156.024098 
L 933.964197 488.103338 
L 944.099151 477.161682 
L 955.284159 400.023012 
L 965.057971 474.973351 
L 978.306752 448.166296 
L 988.015307 484.273758 
L 999.834353 466.76711 
L 1009.504346 485.915007 
L 1019.16025 469.502524 
L 1030.084969 459.655034 
L 1039.797974 475.520434 
L 1050.38454 462.390448 
L 1060.176891 480.444179 
L 1069.817222 455.825455 
L 1080.37116 420.265075 
L 1090.23396 484.820841 
L 1099.935099 427.924233 
L 1110.53798 430.112564 
L 1120.719652 479.897096 
L 1130.414859 456.91962 
L 1141.286186 450.354627 
L 1151.625812 483.726676 
L 1161.241671 470.596689 
L 1172.233873 210.732374 
L 1181.857889 479.897096 
L 1192.201223 415.34133 
L 1202.933136 484.273758 
L 1212.666162 471.143772 
L 1224.837451 405.49384 
L 1234.558612 457.466703 
L 1245.272727 447.07213 
" style="fill:none;stroke:#800080;stroke-dasharray:9.6,2.4,1.5,2.4;stroke-dashoffset:0;stroke-width:1.5;"/>
    <defs>
     <path d="M -3 3 
L 3 -3 
M -3 -3 
L 3 3 
" id="me4932bde4f" style="stroke:#800080;"/>
    </defs>
    <g clip-path="url(#p003c15383b)">
     <use style="fill:#800080;stroke:#800080;" x="230.727273" xlink:href="#me4932bde4f" y="409.870502"/>
     <use style="fill:#800080;stroke:#800080;" x="242.762855" xlink:href="#me4932bde4f" y="246.292754"/>
     <use style="fill:#800080;stroke:#800080;" x="252.587835" xlink:href="#me4932bde4f" y="448.166296"/>
     <use style="fill:#800080;stroke:#800080;" x="262.199245" xlink:href="#me4932bde4f" y="469.502524"/>
     <use style="fill:#800080;stroke:#800080;" x="273.365715" xlink:href="#me4932bde4f" y="426.282985"/>
     <use style="fill:#800080;stroke:#800080;" x="282.967484" xlink:href="#me4932bde4f" y="448.713379"/>
     <use style="fill:#800080;stroke:#800080;" x="292.577411" xlink:href="#me4932bde4f" y="468.955441"/>
     <use style="fill:#800080;stroke:#800080;" x="303.276695" xlink:href="#me4932bde4f" y="343.126404"/>
     <use style="fill:#800080;stroke:#800080;" x="312.988958" xlink:href="#me4932bde4f" y="465.125862"/>
     <use style="fill:#800080;stroke:#800080;" x="322.645603" xlink:href="#me4932bde4f" y="464.578779"/>
     <use style="fill:#800080;stroke:#800080;" x="333.192125" xlink:href="#me4932bde4f" y="438.318806"/>
     <use style="fill:#800080;stroke:#800080;" x="342.892522" xlink:href="#me4932bde4f" y="481.538345"/>
     <use style="fill:#800080;stroke:#800080;" x="352.53582" xlink:href="#me4932bde4f" y="461.296282"/>
     <use style="fill:#800080;stroke:#800080;" x="363.174295" xlink:href="#me4932bde4f" y="467.861275"/>
     <use style="fill:#800080;stroke:#800080;" x="372.793121" xlink:href="#me4932bde4f" y="462.937531"/>
     <use style="fill:#800080;stroke:#800080;" x="382.426778" xlink:href="#me4932bde4f" y="462.390448"/>
     <use style="fill:#800080;stroke:#800080;" x="393.040782" xlink:href="#me4932bde4f" y="443.242551"/>
     <use style="fill:#800080;stroke:#800080;" x="402.6559" xlink:href="#me4932bde4f" y="466.220027"/>
     <use style="fill:#800080;stroke:#800080;" x="412.282882" xlink:href="#me4932bde4f" y="473.332103"/>
     <use style="fill:#800080;stroke:#800080;" x="422.940639" xlink:href="#me4932bde4f" y="480.444179"/>
     <use style="fill:#800080;stroke:#800080;" x="432.547599" xlink:href="#me4932bde4f" y="470.049607"/>
     <use style="fill:#800080;stroke:#800080;" x="442.170874" xlink:href="#me4932bde4f" y="478.255848"/>
     <use style="fill:#800080;stroke:#800080;" x="452.852361" xlink:href="#me4932bde4f" y="462.390448"/>
     <use style="fill:#800080;stroke:#800080;" x="462.514939" xlink:href="#me4932bde4f" y="466.220027"/>
     <use style="fill:#800080;stroke:#800080;" x="472.153787" xlink:href="#me4932bde4f" y="466.76711"/>
     <use style="fill:#800080;stroke:#800080;" x="482.804869" xlink:href="#me4932bde4f" y="430.112564"/>
     <use style="fill:#800080;stroke:#800080;" x="492.471896" xlink:href="#me4932bde4f" y="465.125862"/>
     <use style="fill:#800080;stroke:#800080;" x="502.139665" xlink:href="#me4932bde4f" y="471.143772"/>
     <use style="fill:#800080;stroke:#800080;" x="512.804096" xlink:href="#me4932bde4f" y="464.578779"/>
     <use style="fill:#800080;stroke:#800080;" x="522.445168" xlink:href="#me4932bde4f" y="453.637123"/>
     <use style="fill:#800080;stroke:#800080;" x="532.084016" xlink:href="#me4932bde4f" y="480.444179"/>
     <use style="fill:#800080;stroke:#800080;" x="542.809255" xlink:href="#me4932bde4f" y="481.538345"/>
     <use style="fill:#800080;stroke:#800080;" x="552.494821" xlink:href="#me4932bde4f" y="464.031696"/>
     <use style="fill:#800080;stroke:#800080;" x="562.203376" xlink:href="#me4932bde4f" y="462.937531"/>
     <use style="fill:#800080;stroke:#800080;" x="572.976075" xlink:href="#me4932bde4f" y="478.802931"/>
     <use style="fill:#800080;stroke:#800080;" x="582.735056" xlink:href="#me4932bde4f" y="455.278372"/>
     <use style="fill:#800080;stroke:#800080;" x="594.907086" xlink:href="#me4932bde4f" y="468.408358"/>
     <use style="fill:#800080;stroke:#800080;" x="604.603034" xlink:href="#me4932bde4f" y="492.48"/>
     <use style="fill:#800080;stroke:#800080;" x="614.26487" xlink:href="#me4932bde4f" y="471.143772"/>
     <use style="fill:#800080;stroke:#800080;" x="625.209612" xlink:href="#me4932bde4f" y="400.023012"/>
     <use style="fill:#800080;stroke:#800080;" x="634.895178" xlink:href="#me4932bde4f" y="483.179593"/>
     <use style="fill:#800080;stroke:#800080;" x="644.555531" xlink:href="#me4932bde4f" y="486.46209"/>
     <use style="fill:#800080;stroke:#800080;" x="655.240726" xlink:href="#me4932bde4f" y="444.336716"/>
     <use style="fill:#800080;stroke:#800080;" x="665.121323" xlink:href="#me4932bde4f" y="476.6146"/>
     <use style="fill:#800080;stroke:#800080;" x="677.975592" xlink:href="#me4932bde4f" y="484.273758"/>
     <use style="fill:#800080;stroke:#800080;" x="687.73309" xlink:href="#me4932bde4f" y="464.578779"/>
     <use style="fill:#800080;stroke:#800080;" x="699.876941" xlink:href="#me4932bde4f" y="89.28"/>
     <use style="fill:#800080;stroke:#800080;" x="709.629248" xlink:href="#me4932bde4f" y="483.179593"/>
     <use style="fill:#800080;stroke:#800080;" x="719.39342" xlink:href="#me4932bde4f" y="489.744586"/>
     <use style="fill:#800080;stroke:#800080;" x="730.339645" xlink:href="#me4932bde4f" y="480.444179"/>
     <use style="fill:#800080;stroke:#800080;" x="740.117165" xlink:href="#me4932bde4f" y="478.802931"/>
     <use style="fill:#800080;stroke:#800080;" x="751.515744" xlink:href="#me4932bde4f" y="449.807544"/>
     <use style="fill:#800080;stroke:#800080;" x="761.276208" xlink:href="#me4932bde4f" y="488.103338"/>
     <use style="fill:#800080;stroke:#800080;" x="770.977347" xlink:href="#me4932bde4f" y="477.708765"/>
     <use style="fill:#800080;stroke:#800080;" x="782.479745" xlink:href="#me4932bde4f" y="427.377151"/>
     <use style="fill:#800080;stroke:#800080;" x="792.16457" xlink:href="#me4932bde4f" y="470.596689"/>
     <use style="fill:#800080;stroke:#800080;" x="801.824181" xlink:href="#me4932bde4f" y="480.991262"/>
     <use style="fill:#800080;stroke:#800080;" x="812.659913" xlink:href="#me4932bde4f" y="451.448792"/>
     <use style="fill:#800080;stroke:#800080;" x="822.329165" xlink:href="#me4932bde4f" y="472.78502"/>
     <use style="fill:#800080;stroke:#800080;" x="831.989518" xlink:href="#me4932bde4f" y="457.466703"/>
     <use style="fill:#800080;stroke:#800080;" x="842.632443" xlink:href="#me4932bde4f" y="413.152999"/>
     <use style="fill:#800080;stroke:#800080;" x="852.293538" xlink:href="#me4932bde4f" y="466.220027"/>
     <use style="fill:#800080;stroke:#800080;" x="861.950925" xlink:href="#me4932bde4f" y="455.278372"/>
     <use style="fill:#800080;stroke:#800080;" x="872.48929" xlink:href="#me4932bde4f" y="348.597232"/>
     <use style="fill:#800080;stroke:#800080;" x="882.141486" xlink:href="#me4932bde4f" y="458.013786"/>
     <use style="fill:#800080;stroke:#800080;" x="891.805547" xlink:href="#me4932bde4f" y="458.013786"/>
     <use style="fill:#800080;stroke:#800080;" x="902.575279" xlink:href="#me4932bde4f" y="445.977965"/>
     <use style="fill:#800080;stroke:#800080;" x="912.339451" xlink:href="#me4932bde4f" y="462.937531"/>
     <use style="fill:#800080;stroke:#800080;" x="922.832581" xlink:href="#me4932bde4f" y="156.024098"/>
     <use style="fill:#800080;stroke:#800080;" x="933.964197" xlink:href="#me4932bde4f" y="488.103338"/>
     <use style="fill:#800080;stroke:#800080;" x="944.099151" xlink:href="#me4932bde4f" y="477.161682"/>
     <use style="fill:#800080;stroke:#800080;" x="955.284159" xlink:href="#me4932bde4f" y="400.023012"/>
     <use style="fill:#800080;stroke:#800080;" x="965.057971" xlink:href="#me4932bde4f" y="474.973351"/>
     <use style="fill:#800080;stroke:#800080;" x="978.306752" xlink:href="#me4932bde4f" y="448.166296"/>
     <use style="fill:#800080;stroke:#800080;" x="988.015307" xlink:href="#me4932bde4f" y="484.273758"/>
     <use style="fill:#800080;stroke:#800080;" x="999.834353" xlink:href="#me4932bde4f" y="466.76711"/>
     <use style="fill:#800080;stroke:#800080;" x="1009.504346" xlink:href="#me4932bde4f" y="485.915007"/>
     <use style="fill:#800080;stroke:#800080;" x="1019.16025" xlink:href="#me4932bde4f" y="469.502524"/>
     <use style="fill:#800080;stroke:#800080;" x="1030.084969" xlink:href="#me4932bde4f" y="459.655034"/>
     <use style="fill:#800080;stroke:#800080;" x="1039.797974" xlink:href="#me4932bde4f" y="475.520434"/>
     <use style="fill:#800080;stroke:#800080;" x="1050.38454" xlink:href="#me4932bde4f" y="462.390448"/>
     <use style="fill:#800080;stroke:#800080;" x="1060.176891" xlink:href="#me4932bde4f" y="480.444179"/>
     <use style="fill:#800080;stroke:#800080;" x="1069.817222" xlink:href="#me4932bde4f" y="455.825455"/>
     <use style="fill:#800080;stroke:#800080;" x="1080.37116" xlink:href="#me4932bde4f" y="420.265075"/>
     <use style="fill:#800080;stroke:#800080;" x="1090.23396" xlink:href="#me4932bde4f" y="484.820841"/>
     <use style="fill:#800080;stroke:#800080;" x="1099.935099" xlink:href="#me4932bde4f" y="427.924233"/>
     <use style="fill:#800080;stroke:#800080;" x="1110.53798" xlink:href="#me4932bde4f" y="430.112564"/>
     <use style="fill:#800080;stroke:#800080;" x="1120.719652" xlink:href="#me4932bde4f" y="479.897096"/>
     <use style="fill:#800080;stroke:#800080;" x="1130.414859" xlink:href="#me4932bde4f" y="456.91962"/>
     <use style="fill:#800080;stroke:#800080;" x="1141.286186" xlink:href="#me4932bde4f" y="450.354627"/>
     <use style="fill:#800080;stroke:#800080;" x="1151.625812" xlink:href="#me4932bde4f" y="483.726676"/>
     <use style="fill:#800080;stroke:#800080;" x="1161.241671" xlink:href="#me4932bde4f" y="470.596689"/>
     <use style="fill:#800080;stroke:#800080;" x="1172.233873" xlink:href="#me4932bde4f" y="210.732374"/>
     <use style="fill:#800080;stroke:#800080;" x="1181.857889" xlink:href="#me4932bde4f" y="479.897096"/>
     <use style="fill:#800080;stroke:#800080;" x="1192.201223" xlink:href="#me4932bde4f" y="415.34133"/>
     <use style="fill:#800080;stroke:#800080;" x="1202.933136" xlink:href="#me4932bde4f" y="484.273758"/>
     <use style="fill:#800080;stroke:#800080;" x="1212.666162" xlink:href="#me4932bde4f" y="471.143772"/>
     <use style="fill:#800080;stroke:#800080;" x="1224.837451" xlink:href="#me4932bde4f" y="405.49384"/>
     <use style="fill:#800080;stroke:#800080;" x="1234.558612" xlink:href="#me4932bde4f" y="457.466703"/>
     <use style="fill:#800080;stroke:#800080;" x="1245.272727" xlink:href="#me4932bde4f" y="447.07213"/>
    </g>
   </g>
   <g id="line2d_19">
    <path clip-path="url(#p003c15383b)" d="M 230.727273 450.126416 
L 242.762855 450.079934 
L 252.587835 450.041989 
L 262.199245 450.004869 
L 273.365715 449.961744 
L 282.967484 449.924661 
L 292.577411 449.887547 
L 303.276695 449.846226 
L 312.988958 449.808717 
L 322.645603 449.771423 
L 333.192125 449.730692 
L 342.892522 449.693228 
L 352.53582 449.655985 
L 363.174295 449.614899 
L 372.793121 449.577751 
L 382.426778 449.540545 
L 393.040782 449.499553 
L 402.6559 449.462419 
L 412.282882 449.425239 
L 422.940639 449.384078 
L 432.547599 449.346976 
L 442.170874 449.30981 
L 452.852361 449.268558 
L 462.514939 449.231241 
L 472.153787 449.194015 
L 482.804869 449.15288 
L 492.471896 449.115545 
L 502.139665 449.078208 
L 512.804096 449.037021 
L 522.445168 448.999787 
L 532.084016 448.962562 
L 542.809255 448.92114 
L 552.494821 448.883734 
L 562.203376 448.846239 
L 572.976075 448.804634 
L 582.735056 448.766945 
L 594.907086 448.719936 
L 604.603034 448.68249 
L 614.26487 448.645175 
L 625.209612 448.602906 
L 634.895178 448.5655 
L 644.555531 448.528191 
L 655.240726 448.486924 
L 665.121323 448.448765 
L 677.975592 448.399121 
L 687.73309 448.361437 
L 699.876941 448.314537 
L 709.629248 448.276873 
L 719.39342 448.239164 
L 730.339645 448.196889 
L 740.117165 448.159128 
L 751.515744 448.115106 
L 761.276208 448.07741 
L 770.977347 448.039944 
L 782.479745 447.995521 
L 792.16457 447.958118 
L 801.824181 447.920812 
L 812.659913 447.878964 
L 822.329165 447.841621 
L 831.989518 447.804312 
L 842.632443 447.763209 
L 852.293538 447.725897 
L 861.950925 447.6886 
L 872.48929 447.6479 
L 882.141486 447.610623 
L 891.805547 447.5733 
L 902.575279 447.531707 
L 912.339451 447.493997 
L 922.832581 447.453472 
L 933.964197 447.410481 
L 944.099151 447.371339 
L 955.284159 447.328142 
L 965.057971 447.290395 
L 978.306752 447.239228 
L 988.015307 447.201733 
L 999.834353 447.156087 
L 1009.504346 447.118741 
L 1019.16025 447.08145 
L 1030.084969 447.039258 
L 1039.797974 447.001746 
L 1050.38454 446.96086 
L 1060.176891 446.923042 
L 1069.817222 446.88581 
L 1080.37116 446.84505 
L 1090.23396 446.80696 
L 1099.935099 446.769493 
L 1110.53798 446.728545 
L 1120.719652 446.689223 
L 1130.414859 446.651779 
L 1141.286186 446.609794 
L 1151.625812 446.569861 
L 1161.241671 446.532725 
L 1172.233873 446.490272 
L 1181.857889 446.453104 
L 1192.201223 446.413157 
L 1202.933136 446.37171 
L 1212.666162 446.334121 
L 1224.837451 446.287115 
L 1234.558612 446.249571 
L 1245.272727 446.208193 
" style="fill:none;stroke:#0000ff;stroke-linecap:square;stroke-width:1.5;"/>
   </g>
   <g id="line2d_20">
    <path clip-path="url(#p003c15383b)" d="M 230.727273 464.45565 
L 242.762855 464.455616 
L 252.587835 464.455588 
L 262.199245 464.455561 
L 273.365715 464.455529 
L 282.967484 464.455502 
L 292.577411 464.455475 
L 303.276695 464.455444 
L 312.988958 464.455417 
L 322.645603 464.455389 
L 333.192125 464.455359 
L 342.892522 464.455332 
L 352.53582 464.455305 
L 363.174295 464.455274 
L 372.793121 464.455247 
L 382.426778 464.45522 
L 393.040782 464.45519 
L 402.6559 464.455162 
L 412.282882 464.455135 
L 422.940639 464.455105 
L 432.547599 464.455077 
L 442.170874 464.45505 
L 452.852361 464.45502 
L 462.514939 464.454992 
L 472.153787 464.454965 
L 482.804869 464.454935 
L 492.471896 464.454907 
L 502.139665 464.45488 
L 512.804096 464.45485 
L 522.445168 464.454822 
L 532.084016 464.454795 
L 542.809255 464.454764 
L 552.494821 464.454737 
L 562.203376 464.454709 
L 572.976075 464.454679 
L 582.735056 464.454651 
L 594.907086 464.454617 
L 604.603034 464.454589 
L 614.26487 464.454562 
L 625.209612 464.454531 
L 634.895178 464.454503 
L 644.555531 464.454476 
L 655.240726 464.454445 
L 665.121323 464.454417 
L 677.975592 464.454381 
L 687.73309 464.454353 
L 699.876941 464.454319 
L 709.629248 464.454291 
L 719.39342 464.454263 
L 730.339645 464.454232 
L 740.117165 464.454205 
L 751.515744 464.454172 
L 761.276208 464.454144 
L 770.977347 464.454117 
L 782.479745 464.454084 
L 792.16457 464.454057 
L 801.824181 464.454029 
L 812.659913 464.453999 
L 822.329165 464.453971 
L 831.989518 464.453944 
L 842.632443 464.453914 
L 852.293538 464.453886 
L 861.950925 464.453859 
L 872.48929 464.453829 
L 882.141486 464.453801 
L 891.805547 464.453774 
L 902.575279 464.453743 
L 912.339451 464.453716 
L 922.832581 464.453686 
L 933.964197 464.453654 
L 944.099151 464.453626 
L 955.284159 464.453594 
L 965.057971 464.453566 
L 978.306752 464.453529 
L 988.015307 464.453501 
L 999.834353 464.453467 
L 1009.504346 464.45344 
L 1019.16025 464.453413 
L 1030.084969 464.453382 
L 1039.797974 464.453354 
L 1050.38454 464.453324 
L 1060.176891 464.453296 
L 1069.817222 464.453269 
L 1080.37116 464.453239 
L 1090.23396 464.453211 
L 1099.935099 464.453183 
L 1110.53798 464.453153 
L 1120.719652 464.453124 
L 1130.414859 464.453097 
L 1141.286186 464.453066 
L 1151.625812 464.453037 
L 1161.241671 464.453009 
L 1172.233873 464.452978 
L 1181.857889 464.452951 
L 1192.201223 464.452921 
L 1202.933136 464.452891 
L 1212.666162 464.452863 
L 1224.837451 464.452829 
L 1234.558612 464.452801 
L 1245.272727 464.452771 
" style="fill:none;stroke:#008000;stroke-linecap:square;stroke-width:1.5;"/>
    <defs>
     <path d="M 0 3 
C 0.795609 3 1.55874 2.683901 2.12132 2.12132 
C 2.683901 1.55874 3 0.795609 3 0 
C 3 -0.795609 2.683901 -1.55874 2.12132 -2.12132 
C 1.55874 -2.683901 0.795609 -3 0 -3 
C -0.795609 -3 -1.55874 -2.683901 -2.12132 -2.12132 
C -2.683901 -1.55874 -3 -0.795609 -3 0 
C -3 0.795609 -2.683901 1.55874 -2.12132 2.12132 
C -1.55874 2.683901 -0.795609 3 0 3 
z
" id="m878fd6ac9f" style="stroke:#008000;"/>
    </defs>
    <g clip-path="url(#p003c15383b)">
     <use style="fill:#008000;stroke:#008000;" x="230.727273" xlink:href="#m878fd6ac9f" y="464.45565"/>
     <use style="fill:#008000;stroke:#008000;" x="242.762855" xlink:href="#m878fd6ac9f" y="464.455616"/>
     <use style="fill:#008000;stroke:#008000;" x="252.587835" xlink:href="#m878fd6ac9f" y="464.455588"/>
     <use style="fill:#008000;stroke:#008000;" x="262.199245" xlink:href="#m878fd6ac9f" y="464.455561"/>
     <use style="fill:#008000;stroke:#008000;" x="273.365715" xlink:href="#m878fd6ac9f" y="464.455529"/>
     <use style="fill:#008000;stroke:#008000;" x="282.967484" xlink:href="#m878fd6ac9f" y="464.455502"/>
     <use style="fill:#008000;stroke:#008000;" x="292.577411" xlink:href="#m878fd6ac9f" y="464.455475"/>
     <use style="fill:#008000;stroke:#008000;" x="303.276695" xlink:href="#m878fd6ac9f" y="464.455444"/>
     <use style="fill:#008000;stroke:#008000;" x="312.988958" xlink:href="#m878fd6ac9f" y="464.455417"/>
     <use style="fill:#008000;stroke:#008000;" x="322.645603" xlink:href="#m878fd6ac9f" y="464.455389"/>
     <use style="fill:#008000;stroke:#008000;" x="333.192125" xlink:href="#m878fd6ac9f" y="464.455359"/>
     <use style="fill:#008000;stroke:#008000;" x="342.892522" xlink:href="#m878fd6ac9f" y="464.455332"/>
     <use style="fill:#008000;stroke:#008000;" x="352.53582" xlink:href="#m878fd6ac9f" y="464.455305"/>
     <use style="fill:#008000;stroke:#008000;" x="363.174295" xlink:href="#m878fd6ac9f" y="464.455274"/>
     <use style="fill:#008000;stroke:#008000;" x="372.793121" xlink:href="#m878fd6ac9f" y="464.455247"/>
     <use style="fill:#008000;stroke:#008000;" x="382.426778" xlink:href="#m878fd6ac9f" y="464.45522"/>
     <use style="fill:#008000;stroke:#008000;" x="393.040782" xlink:href="#m878fd6ac9f" y="464.45519"/>
     <use style="fill:#008000;stroke:#008000;" x="402.6559" xlink:href="#m878fd6ac9f" y="464.455162"/>
     <use style="fill:#008000;stroke:#008000;" x="412.282882" xlink:href="#m878fd6ac9f" y="464.455135"/>
     <use style="fill:#008000;stroke:#008000;" x="422.940639" xlink:href="#m878fd6ac9f" y="464.455105"/>
     <use style="fill:#008000;stroke:#008000;" x="432.547599" xlink:href="#m878fd6ac9f" y="464.455077"/>
     <use style="fill:#008000;stroke:#008000;" x="442.170874" xlink:href="#m878fd6ac9f" y="464.45505"/>
     <use style="fill:#008000;stroke:#008000;" x="452.852361" xlink:href="#m878fd6ac9f" y="464.45502"/>
     <use style="fill:#008000;stroke:#008000;" x="462.514939" xlink:href="#m878fd6ac9f" y="464.454992"/>
     <use style="fill:#008000;stroke:#008000;" x="472.153787" xlink:href="#m878fd6ac9f" y="464.454965"/>
     <use style="fill:#008000;stroke:#008000;" x="482.804869" xlink:href="#m878fd6ac9f" y="464.454935"/>
     <use style="fill:#008000;stroke:#008000;" x="492.471896" xlink:href="#m878fd6ac9f" y="464.454907"/>
     <use style="fill:#008000;stroke:#008000;" x="502.139665" xlink:href="#m878fd6ac9f" y="464.45488"/>
     <use style="fill:#008000;stroke:#008000;" x="512.804096" xlink:href="#m878fd6ac9f" y="464.45485"/>
     <use style="fill:#008000;stroke:#008000;" x="522.445168" xlink:href="#m878fd6ac9f" y="464.454822"/>
     <use style="fill:#008000;stroke:#008000;" x="532.084016" xlink:href="#m878fd6ac9f" y="464.454795"/>
     <use style="fill:#008000;stroke:#008000;" x="542.809255" xlink:href="#m878fd6ac9f" y="464.454764"/>
     <use style="fill:#008000;stroke:#008000;" x="552.494821" xlink:href="#m878fd6ac9f" y="464.454737"/>
     <use style="fill:#008000;stroke:#008000;" x="562.203376" xlink:href="#m878fd6ac9f" y="464.454709"/>
     <use style="fill:#008000;stroke:#008000;" x="572.976075" xlink:href="#m878fd6ac9f" y="464.454679"/>
     <use style="fill:#008000;stroke:#008000;" x="582.735056" xlink:href="#m878fd6ac9f" y="464.454651"/>
     <use style="fill:#008000;stroke:#008000;" x="594.907086" xlink:href="#m878fd6ac9f" y="464.454617"/>
     <use style="fill:#008000;stroke:#008000;" x="604.603034" xlink:href="#m878fd6ac9f" y="464.454589"/>
     <use style="fill:#008000;stroke:#008000;" x="614.26487" xlink:href="#m878fd6ac9f" y="464.454562"/>
     <use style="fill:#008000;stroke:#008000;" x="625.209612" xlink:href="#m878fd6ac9f" y="464.454531"/>
     <use style="fill:#008000;stroke:#008000;" x="634.895178" xlink:href="#m878fd6ac9f" y="464.454503"/>
     <use style="fill:#008000;stroke:#008000;" x="644.555531" xlink:href="#m878fd6ac9f" y="464.454476"/>
     <use style="fill:#008000;stroke:#008000;" x="655.240726" xlink:href="#m878fd6ac9f" y="464.454445"/>
     <use style="fill:#008000;stroke:#008000;" x="665.121323" xlink:href="#m878fd6ac9f" y="464.454417"/>
     <use style="fill:#008000;stroke:#008000;" x="677.975592" xlink:href="#m878fd6ac9f" y="464.454381"/>
     <use style="fill:#008000;stroke:#008000;" x="687.73309" xlink:href="#m878fd6ac9f" y="464.454353"/>
     <use style="fill:#008000;stroke:#008000;" x="699.876941" xlink:href="#m878fd6ac9f" y="464.454319"/>
     <use style="fill:#008000;stroke:#008000;" x="709.629248" xlink:href="#m878fd6ac9f" y="464.454291"/>
     <use style="fill:#008000;stroke:#008000;" x="719.39342" xlink:href="#m878fd6ac9f" y="464.454263"/>
     <use style="fill:#008000;stroke:#008000;" x="730.339645" xlink:href="#m878fd6ac9f" y="464.454232"/>
     <use style="fill:#008000;stroke:#008000;" x="740.117165" xlink:href="#m878fd6ac9f" y="464.454205"/>
     <use style="fill:#008000;stroke:#008000;" x="751.515744" xlink:href="#m878fd6ac9f" y="464.454172"/>
     <use style="fill:#008000;stroke:#008000;" x="761.276208" xlink:href="#m878fd6ac9f" y="464.454144"/>
     <use style="fill:#008000;stroke:#008000;" x="770.977347" xlink:href="#m878fd6ac9f" y="464.454117"/>
     <use style="fill:#008000;stroke:#008000;" x="782.479745" xlink:href="#m878fd6ac9f" y="464.454084"/>
     <use style="fill:#008000;stroke:#008000;" x="792.16457" xlink:href="#m878fd6ac9f" y="464.454057"/>
     <use style="fill:#008000;stroke:#008000;" x="801.824181" xlink:href="#m878fd6ac9f" y="464.454029"/>
     <use style="fill:#008000;stroke:#008000;" x="812.659913" xlink:href="#m878fd6ac9f" y="464.453999"/>
     <use style="fill:#008000;stroke:#008000;" x="822.329165" xlink:href="#m878fd6ac9f" y="464.453971"/>
     <use style="fill:#008000;stroke:#008000;" x="831.989518" xlink:href="#m878fd6ac9f" y="464.453944"/>
     <use style="fill:#008000;stroke:#008000;" x="842.632443" xlink:href="#m878fd6ac9f" y="464.453914"/>
     <use style="fill:#008000;stroke:#008000;" x="852.293538" xlink:href="#m878fd6ac9f" y="464.453886"/>
     <use style="fill:#008000;stroke:#008000;" x="861.950925" xlink:href="#m878fd6ac9f" y="464.453859"/>
     <use style="fill:#008000;stroke:#008000;" x="872.48929" xlink:href="#m878fd6ac9f" y="464.453829"/>
     <use style="fill:#008000;stroke:#008000;" x="882.141486" xlink:href="#m878fd6ac9f" y="464.453801"/>
     <use style="fill:#008000;stroke:#008000;" x="891.805547" xlink:href="#m878fd6ac9f" y="464.453774"/>
     <use style="fill:#008000;stroke:#008000;" x="902.575279" xlink:href="#m878fd6ac9f" y="464.453743"/>
     <use style="fill:#008000;stroke:#008000;" x="912.339451" xlink:href="#m878fd6ac9f" y="464.453716"/>
     <use style="fill:#008000;stroke:#008000;" x="922.832581" xlink:href="#m878fd6ac9f" y="464.453686"/>
     <use style="fill:#008000;stroke:#008000;" x="933.964197" xlink:href="#m878fd6ac9f" y="464.453654"/>
     <use style="fill:#008000;stroke:#008000;" x="944.099151" xlink:href="#m878fd6ac9f" y="464.453626"/>
     <use style="fill:#008000;stroke:#008000;" x="955.284159" xlink:href="#m878fd6ac9f" y="464.453594"/>
     <use style="fill:#008000;stroke:#008000;" x="965.057971" xlink:href="#m878fd6ac9f" y="464.453566"/>
     <use style="fill:#008000;stroke:#008000;" x="978.306752" xlink:href="#m878fd6ac9f" y="464.453529"/>
     <use style="fill:#008000;stroke:#008000;" x="988.015307" xlink:href="#m878fd6ac9f" y="464.453501"/>
     <use style="fill:#008000;stroke:#008000;" x="999.834353" xlink:href="#m878fd6ac9f" y="464.453467"/>
     <use style="fill:#008000;stroke:#008000;" x="1009.504346" xlink:href="#m878fd6ac9f" y="464.45344"/>
     <use style="fill:#008000;stroke:#008000;" x="1019.16025" xlink:href="#m878fd6ac9f" y="464.453413"/>
     <use style="fill:#008000;stroke:#008000;" x="1030.084969" xlink:href="#m878fd6ac9f" y="464.453382"/>
     <use style="fill:#008000;stroke:#008000;" x="1039.797974" xlink:href="#m878fd6ac9f" y="464.453354"/>
     <use style="fill:#008000;stroke:#008000;" x="1050.38454" xlink:href="#m878fd6ac9f" y="464.453324"/>
     <use style="fill:#008000;stroke:#008000;" x="1060.176891" xlink:href="#m878fd6ac9f" y="464.453296"/>
     <use style="fill:#008000;stroke:#008000;" x="1069.817222" xlink:href="#m878fd6ac9f" y="464.453269"/>
     <use style="fill:#008000;stroke:#008000;" x="1080.37116" xlink:href="#m878fd6ac9f" y="464.453239"/>
     <use style="fill:#008000;stroke:#008000;" x="1090.23396" xlink:href="#m878fd6ac9f" y="464.453211"/>
     <use style="fill:#008000;stroke:#008000;" x="1099.935099" xlink:href="#m878fd6ac9f" y="464.453183"/>
     <use style="fill:#008000;stroke:#008000;" x="1110.53798" xlink:href="#m878fd6ac9f" y="464.453153"/>
     <use style="fill:#008000;stroke:#008000;" x="1120.719652" xlink:href="#m878fd6ac9f" y="464.453124"/>
     <use style="fill:#008000;stroke:#008000;" x="1130.414859" xlink:href="#m878fd6ac9f" y="464.453097"/>
     <use style="fill:#008000;stroke:#008000;" x="1141.286186" xlink:href="#m878fd6ac9f" y="464.453066"/>
     <use style="fill:#008000;stroke:#008000;" x="1151.625812" xlink:href="#m878fd6ac9f" y="464.453037"/>
     <use style="fill:#008000;stroke:#008000;" x="1161.241671" xlink:href="#m878fd6ac9f" y="464.453009"/>
     <use style="fill:#008000;stroke:#008000;" x="1172.233873" xlink:href="#m878fd6ac9f" y="464.452978"/>
     <use style="fill:#008000;stroke:#008000;" x="1181.857889" xlink:href="#m878fd6ac9f" y="464.452951"/>
     <use style="fill:#008000;stroke:#008000;" x="1192.201223" xlink:href="#m878fd6ac9f" y="464.452921"/>
     <use style="fill:#008000;stroke:#008000;" x="1202.933136" xlink:href="#m878fd6ac9f" y="464.452891"/>
     <use style="fill:#008000;stroke:#008000;" x="1212.666162" xlink:href="#m878fd6ac9f" y="464.452863"/>
     <use style="fill:#008000;stroke:#008000;" x="1224.837451" xlink:href="#m878fd6ac9f" y="464.452829"/>
     <use style="fill:#008000;stroke:#008000;" x="1234.558612" xlink:href="#m878fd6ac9f" y="464.452801"/>
     <use style="fill:#008000;stroke:#008000;" x="1245.272727" xlink:href="#m878fd6ac9f" y="464.452771"/>
    </g>
   </g>
   <g id="patch_3">
    <path d="M 180 512.64 
L 180 69.12 
" style="fill:none;stroke:#000000;stroke-linecap:square;stroke-linejoin:miter;stroke-width:0.8;"/>
   </g>
   <g id="patch_4">
    <path d="M 1296 512.64 
L 1296 69.12 
" style="fill:none;stroke:#000000;stroke-linecap:square;stroke-linejoin:miter;stroke-width:0.8;"/>
   </g>
   <g id="patch_5">
    <path d="M 180 512.64 
L 1296 512.64 
" style="fill:none;stroke:#000000;stroke-linecap:square;stroke-linejoin:miter;stroke-width:0.8;"/>
   </g>
   <g id="patch_6">
    <path d="M 180 69.12 
L 1296 69.12 
" style="fill:none;stroke:#000000;stroke-linecap:square;stroke-linejoin:miter;stroke-width:0.8;"/>
   </g>
   <g id="text_17">
    <!-- 500000.0 bit/s -->
    <defs>
     <path id="DejaVuSans-20"/>
     <path d="M 48.6875 27.296875 
Q 48.6875 37.203125 44.609375 42.84375 
Q 40.53125 48.484375 33.40625 48.484375 
Q 26.265625 48.484375 22.1875 42.84375 
Q 18.109375 37.203125 18.109375 27.296875 
Q 18.109375 17.390625 22.1875 11.75 
Q 26.265625 6.109375 33.40625 6.109375 
Q 40.53125 6.109375 44.609375 11.75 
Q 48.6875 17.390625 48.6875 27.296875 
z
M 18.109375 46.390625 
Q 20.953125 51.265625 25.265625 53.625 
Q 29.59375 56 35.59375 56 
Q 45.5625 56 51.78125 48.09375 
Q 58.015625 40.1875 58.015625 27.296875 
Q 58.015625 14.40625 51.78125 6.484375 
Q 45.5625 -1.421875 35.59375 -1.421875 
Q 29.59375 -1.421875 25.265625 0.953125 
Q 20.953125 3.328125 18.109375 8.203125 
L 18.109375 0 
L 9.078125 0 
L 9.078125 75.984375 
L 18.109375 75.984375 
z
" id="DejaVuSans-62"/>
     <path d="M 9.421875 54.6875 
L 18.40625 54.6875 
L 18.40625 0 
L 9.421875 0 
z
M 9.421875 75.984375 
L 18.40625 75.984375 
L 18.40625 64.59375 
L 9.421875 64.59375 
z
" id="DejaVuSans-69"/>
     <path d="M 18.3125 70.21875 
L 18.3125 54.6875 
L 36.8125 54.6875 
L 36.8125 47.703125 
L 18.3125 47.703125 
L 18.3125 18.015625 
Q 18.3125 11.328125 20.140625 9.421875 
Q 21.96875 7.515625 27.59375 7.515625 
L 36.8125 7.515625 
L 36.8125 0 
L 27.59375 0 
Q 17.1875 0 13.234375 3.875 
Q 9.28125 7.765625 9.28125 18.015625 
L 9.28125 47.703125 
L 2.6875 47.703125 
L 2.6875 54.6875 
L 9.28125 54.6875 
L 9.28125 70.21875 
z
" id="DejaVuSans-74"/>
     <path d="M 25.390625 72.90625 
L 33.6875 72.90625 
L 8.296875 -9.28125 
L 0 -9.28125 
z
" id="DejaVuSans-2f"/>
     <path d="M 44.28125 53.078125 
L 44.28125 44.578125 
Q 40.484375 46.53125 36.375 47.5 
Q 32.28125 48.484375 27.875 48.484375 
Q 21.1875 48.484375 17.84375 46.4375 
Q 14.5 44.390625 14.5 40.28125 
Q 14.5 37.15625 16.890625 35.375 
Q 19.28125 33.59375 26.515625 31.984375 
L 29.59375 31.296875 
Q 39.15625 29.25 43.1875 25.515625 
Q 47.21875 21.78125 47.21875 15.09375 
Q 47.21875 7.46875 41.1875 3.015625 
Q 35.15625 -1.421875 24.609375 -1.421875 
Q 20.21875 -1.421875 15.453125 -0.5625 
Q 10.6875 0.296875 5.421875 2 
L 5.421875 11.28125 
Q 10.40625 8.6875 15.234375 7.390625 
Q 20.0625 6.109375 24.8125 6.109375 
Q 31.15625 6.109375 34.5625 8.28125 
Q 37.984375 10.453125 37.984375 14.40625 
Q 37.984375 18.0625 35.515625 20.015625 
Q 33.0625 21.96875 24.703125 23.78125 
L 21.578125 24.515625 
Q 13.234375 26.265625 9.515625 29.90625 
Q 5.8125 33.546875 5.8125 39.890625 
Q 5.8125 47.609375 11.28125 51.796875 
Q 16.75 56 26.8125 56 
Q 31.78125 56 36.171875 55.265625 
Q 40.578125 54.546875 44.28125 53.078125 
z
" id="DejaVuSans-73"/>
    </defs>
    <g transform="translate(694.48875 63.12)scale(0.12 -0.12)">
     <use xlink:href="#DejaVuSans-35"/>
     <use x="63.623047" xlink:href="#DejaVuSans-30"/>
     <use x="127.246094" xlink:href="#DejaVuSans-30"/>
     <use x="190.869141" xlink:href="#DejaVuSans-30"/>
     <use x="254.492188" xlink:href="#DejaVuSans-30"/>
     <use x="318.115234" xlink:href="#DejaVuSans-30"/>
     <use x="381.738281" xlink:href="#DejaVuSans-2e"/>
     <use x="413.525391" xlink:href="#DejaVuSans-30"/>
     <use x="477.148438" xlink:href="#DejaVuSans-20"/>
     <use x="508.935547" xlink:href="#DejaVuSans-62"/>
     <use x="572.412109" xlink:href="#DejaVuSans-69"/>
     <use x="600.195312" xlink:href="#DejaVuSans-74"/>
     <use x="639.404297" xlink:href="#DejaVuSans-2f"/>
     <use x="673.095703" xlink:href="#DejaVuSans-73"/>
    </g>
   </g>
   <g id="legend_1">
    <g id="patch_7">
     <path d="M 1173.520313 135.8325 
L 1289 135.8325 
Q 1291 135.8325 1291 133.8325 
L 1291 76.12 
Q 1291 74.12 1289 74.12 
L 1173.520313 74.12 
Q 1171.520313 74.12 1171.520313 76.12 
L 1171.520313 133.8325 
Q 1171.520313 135.8325 1173.520313 135.8325 
z
" style="fill:#ffffff;opacity:0.8;stroke:#cccccc;stroke-linejoin:miter;"/>
    </g>
    <g id="line2d_21">
     <path d="M 1175.520313 82.218437 
L 1195.520313 82.218437 
" style="fill:none;stroke:#ff0000;stroke-dasharray:5.55,2.4;stroke-dashoffset:0;stroke-width:1.5;"/>
    </g>
    <g id="line2d_22">
     <g>
      <use style="fill:#ff0000;stroke:#ff0000;stroke-linejoin:miter;" x="1185.520313" xlink:href="#maa78a7dc05" y="82.218437"/>
     </g>
    </g>
    <g id="text_18">
     <!-- tcpdump -->
     <defs>
      <path d="M 48.78125 52.59375 
L 48.78125 44.1875 
Q 44.96875 46.296875 41.140625 47.34375 
Q 37.3125 48.390625 33.40625 48.390625 
Q 24.65625 48.390625 19.8125 42.84375 
Q 14.984375 37.3125 14.984375 27.296875 
Q 14.984375 17.28125 19.8125 11.734375 
Q 24.65625 6.203125 33.40625 6.203125 
Q 37.3125 6.203125 41.140625 7.25 
Q 44.96875 8.296875 48.78125 10.40625 
L 48.78125 2.09375 
Q 45.015625 0.34375 40.984375 -0.53125 
Q 36.96875 -1.421875 32.421875 -1.421875 
Q 20.0625 -1.421875 12.78125 6.34375 
Q 5.515625 14.109375 5.515625 27.296875 
Q 5.515625 40.671875 12.859375 48.328125 
Q 20.21875 56 33.015625 56 
Q 37.15625 56 41.109375 55.140625 
Q 45.0625 54.296875 48.78125 52.59375 
z
" id="DejaVuSans-63"/>
      <path d="M 18.109375 8.203125 
L 18.109375 -20.796875 
L 9.078125 -20.796875 
L 9.078125 54.6875 
L 18.109375 54.6875 
L 18.109375 46.390625 
Q 20.953125 51.265625 25.265625 53.625 
Q 29.59375 56 35.59375 56 
Q 45.5625 56 51.78125 48.09375 
Q 58.015625 40.1875 58.015625 27.296875 
Q 58.015625 14.40625 51.78125 6.484375 
Q 45.5625 -1.421875 35.59375 -1.421875 
Q 29.59375 -1.421875 25.265625 0.953125 
Q 20.953125 3.328125 18.109375 8.203125 
z
M 48.6875 27.296875 
Q 48.6875 37.203125 44.609375 42.84375 
Q 40.53125 48.484375 33.40625 48.484375 
Q 26.265625 48.484375 22.1875 42.84375 
Q 18.109375 37.203125 18.109375 27.296875 
Q 18.109375 17.390625 22.1875 11.75 
Q 26.265625 6.109375 33.40625 6.109375 
Q 40.53125 6.109375 44.609375 11.75 
Q 48.6875 17.390625 48.6875 27.296875 
z
" id="DejaVuSans-70"/>
      <path d="M 45.40625 46.390625 
L 45.40625 75.984375 
L 54.390625 75.984375 
L 54.390625 0 
L 45.40625 0 
L 45.40625 8.203125 
Q 42.578125 3.328125 38.25 0.953125 
Q 33.9375 -1.421875 27.875 -1.421875 
Q 17.96875 -1.421875 11.734375 6.484375 
Q 5.515625 14.40625 5.515625 27.296875 
Q 5.515625 40.1875 11.734375 48.09375 
Q 17.96875 56 27.875 56 
Q 33.9375 56 38.25 53.625 
Q 42.578125 51.265625 45.40625 46.390625 
z
M 14.796875 27.296875 
Q 14.796875 17.390625 18.875 11.75 
Q 22.953125 6.109375 30.078125 6.109375 
Q 37.203125 6.109375 41.296875 11.75 
Q 45.40625 17.390625 45.40625 27.296875 
Q 45.40625 37.203125 41.296875 42.84375 
Q 37.203125 48.484375 30.078125 48.484375 
Q 22.953125 48.484375 18.875 42.84375 
Q 14.796875 37.203125 14.796875 27.296875 
z
" id="DejaVuSans-64"/>
      <path d="M 8.5 21.578125 
L 8.5 54.6875 
L 17.484375 54.6875 
L 17.484375 21.921875 
Q 17.484375 14.15625 20.5 10.265625 
Q 23.53125 6.390625 29.59375 6.390625 
Q 36.859375 6.390625 41.078125 11.03125 
Q 45.3125 15.671875 45.3125 23.6875 
L 45.3125 54.6875 
L 54.296875 54.6875 
L 54.296875 0 
L 45.3125 0 
L 45.3125 8.40625 
Q 42.046875 3.421875 37.71875 1 
Q 33.40625 -1.421875 27.6875 -1.421875 
Q 18.265625 -1.421875 13.375 4.4375 
Q 8.5 10.296875 8.5 21.578125 
z
M 31.109375 56 
z
" id="DejaVuSans-75"/>
      <path d="M 52 44.1875 
Q 55.375 50.25 60.0625 53.125 
Q 64.75 56 71.09375 56 
Q 79.640625 56 84.28125 50.015625 
Q 88.921875 44.046875 88.921875 33.015625 
L 88.921875 0 
L 79.890625 0 
L 79.890625 32.71875 
Q 79.890625 40.578125 77.09375 44.375 
Q 74.3125 48.1875 68.609375 48.1875 
Q 61.625 48.1875 57.5625 43.546875 
Q 53.515625 38.921875 53.515625 30.90625 
L 53.515625 0 
L 44.484375 0 
L 44.484375 32.71875 
Q 44.484375 40.625 41.703125 44.40625 
Q 38.921875 48.1875 33.109375 48.1875 
Q 26.21875 48.1875 22.15625 43.53125 
Q 18.109375 38.875 18.109375 30.90625 
L 18.109375 0 
L 9.078125 0 
L 9.078125 54.6875 
L 18.109375 54.6875 
L 18.109375 46.1875 
Q 21.1875 51.21875 25.484375 53.609375 
Q 29.78125 56 35.6875 56 
Q 41.65625 56 45.828125 52.96875 
Q 50 49.953125 52 44.1875 
z
" id="DejaVuSans-6d"/>
     </defs>
     <g transform="translate(1203.520313 85.718437)scale(0.1 -0.1)">
      <use xlink:href="#DejaVuSans-74"/>
      <use x="39.208984" xlink:href="#DejaVuSans-63"/>
      <use x="94.189453" xlink:href="#DejaVuSans-70"/>
      <use x="157.666016" xlink:href="#DejaVuSans-64"/>
      <use x="221.142578" xlink:href="#DejaVuSans-75"/>
      <use x="284.521484" xlink:href="#DejaVuSans-6d"/>
      <use x="381.933594" xlink:href="#DejaVuSans-70"/>
     </g>
    </g>
    <g id="line2d_23">
     <path d="M 1175.520313 96.896563 
L 1195.520313 96.896563 
" style="fill:none;stroke:#800080;stroke-dasharray:9.6,2.4,1.5,2.4;stroke-dashoffset:0;stroke-width:1.5;"/>
    </g>
    <g id="line2d_24">
     <g>
      <use style="fill:#800080;stroke:#800080;" x="1185.520313" xlink:href="#me4932bde4f" y="96.896563"/>
     </g>
    </g>
    <g id="text_19">
     <!-- filtered tcpdump -->
     <defs>
      <path d="M 37.109375 75.984375 
L 37.109375 68.5 
L 28.515625 68.5 
Q 23.6875 68.5 21.796875 66.546875 
Q 19.921875 64.59375 19.921875 59.515625 
L 19.921875 54.6875 
L 34.71875 54.6875 
L 34.71875 47.703125 
L 19.921875 47.703125 
L 19.921875 0 
L 10.890625 0 
L 10.890625 47.703125 
L 2.296875 47.703125 
L 2.296875 54.6875 
L 10.890625 54.6875 
L 10.890625 58.5 
Q 10.890625 67.625 15.140625 71.796875 
Q 19.390625 75.984375 28.609375 75.984375 
z
" id="DejaVuSans-66"/>
      <path d="M 9.421875 75.984375 
L 18.40625 75.984375 
L 18.40625 0 
L 9.421875 0 
z
" id="DejaVuSans-6c"/>
      <path d="M 56.203125 29.59375 
L 56.203125 25.203125 
L 14.890625 25.203125 
Q 15.484375 15.921875 20.484375 11.0625 
Q 25.484375 6.203125 34.421875 6.203125 
Q 39.59375 6.203125 44.453125 7.46875 
Q 49.3125 8.734375 54.109375 11.28125 
L 54.109375 2.78125 
Q 49.265625 0.734375 44.1875 -0.34375 
Q 39.109375 -1.421875 33.890625 -1.421875 
Q 20.796875 -1.421875 13.15625 6.1875 
Q 5.515625 13.8125 5.515625 26.8125 
Q 5.515625 40.234375 12.765625 48.109375 
Q 20.015625 56 32.328125 56 
Q 43.359375 56 49.78125 48.890625 
Q 56.203125 41.796875 56.203125 29.59375 
z
M 47.21875 32.234375 
Q 47.125 39.59375 43.09375 43.984375 
Q 39.0625 48.390625 32.421875 48.390625 
Q 24.90625 48.390625 20.390625 44.140625 
Q 15.875 39.890625 15.1875 32.171875 
z
" id="DejaVuSans-65"/>
      <path d="M 41.109375 46.296875 
Q 39.59375 47.171875 37.8125 47.578125 
Q 36.03125 48 33.890625 48 
Q 26.265625 48 22.1875 43.046875 
Q 18.109375 38.09375 18.109375 28.8125 
L 18.109375 0 
L 9.078125 0 
L 9.078125 54.6875 
L 18.109375 54.6875 
L 18.109375 46.1875 
Q 20.953125 51.171875 25.484375 53.578125 
Q 30.03125 56 36.53125 56 
Q 37.453125 56 38.578125 55.875 
Q 39.703125 55.765625 41.0625 55.515625 
z
" id="DejaVuSans-72"/>
     </defs>
     <g transform="translate(1203.520313 100.396563)scale(0.1 -0.1)">
      <use xlink:href="#DejaVuSans-66"/>
      <use x="35.205078" xlink:href="#DejaVuSans-69"/>
      <use x="62.988281" xlink:href="#DejaVuSans-6c"/>
      <use x="90.771484" xlink:href="#DejaVuSans-74"/>
      <use x="129.980469" xlink:href="#DejaVuSans-65"/>
      <use x="191.503906" xlink:href="#DejaVuSans-72"/>
      <use x="232.585938" xlink:href="#DejaVuSans-65"/>
      <use x="294.109375" xlink:href="#DejaVuSans-64"/>
      <use x="357.585938" xlink:href="#DejaVuSans-20"/>
      <use x="389.373047" xlink:href="#DejaVuSans-74"/>
      <use x="428.582031" xlink:href="#DejaVuSans-63"/>
      <use x="483.5625" xlink:href="#DejaVuSans-70"/>
      <use x="547.039062" xlink:href="#DejaVuSans-64"/>
      <use x="610.515625" xlink:href="#DejaVuSans-75"/>
      <use x="673.894531" xlink:href="#DejaVuSans-6d"/>
      <use x="771.306641" xlink:href="#DejaVuSans-70"/>
     </g>
    </g>
    <g id="line2d_25">
     <path d="M 1175.520313 111.574687 
L 1195.520313 111.574687 
" style="fill:none;stroke:#0000ff;stroke-linecap:square;stroke-width:1.5;"/>
    </g>
    <g id="line2d_26"/>
    <g id="text_20">
     <!-- OLS -->
     <defs>
      <path d="M 39.40625 66.21875 
Q 28.65625 66.21875 22.328125 58.203125 
Q 16.015625 50.203125 16.015625 36.375 
Q 16.015625 22.609375 22.328125 14.59375 
Q 28.65625 6.59375 39.40625 6.59375 
Q 50.140625 6.59375 56.421875 14.59375 
Q 62.703125 22.609375 62.703125 36.375 
Q 62.703125 50.203125 56.421875 58.203125 
Q 50.140625 66.21875 39.40625 66.21875 
z
M 39.40625 74.21875 
Q 54.734375 74.21875 63.90625 63.9375 
Q 73.09375 53.65625 73.09375 36.375 
Q 73.09375 19.140625 63.90625 8.859375 
Q 54.734375 -1.421875 39.40625 -1.421875 
Q 24.03125 -1.421875 14.8125 8.828125 
Q 5.609375 19.09375 5.609375 36.375 
Q 5.609375 53.65625 14.8125 63.9375 
Q 24.03125 74.21875 39.40625 74.21875 
z
" id="DejaVuSans-4f"/>
      <path d="M 9.8125 72.90625 
L 19.671875 72.90625 
L 19.671875 8.296875 
L 55.171875 8.296875 
L 55.171875 0 
L 9.8125 0 
z
" id="DejaVuSans-4c"/>
      <path d="M 53.515625 70.515625 
L 53.515625 60.890625 
Q 47.90625 63.578125 42.921875 64.890625 
Q 37.9375 66.21875 33.296875 66.21875 
Q 25.25 66.21875 20.875 63.09375 
Q 16.5 59.96875 16.5 54.203125 
Q 16.5 49.359375 19.40625 46.890625 
Q 22.3125 44.4375 30.421875 42.921875 
L 36.375 41.703125 
Q 47.40625 39.59375 52.65625 34.296875 
Q 57.90625 29 57.90625 20.125 
Q 57.90625 9.515625 50.796875 4.046875 
Q 43.703125 -1.421875 29.984375 -1.421875 
Q 24.8125 -1.421875 18.96875 -0.25 
Q 13.140625 0.921875 6.890625 3.21875 
L 6.890625 13.375 
Q 12.890625 10.015625 18.65625 8.296875 
Q 24.421875 6.59375 29.984375 6.59375 
Q 38.421875 6.59375 43.015625 9.90625 
Q 47.609375 13.234375 47.609375 19.390625 
Q 47.609375 24.75 44.3125 27.78125 
Q 41.015625 30.8125 33.5 32.328125 
L 27.484375 33.5 
Q 16.453125 35.6875 11.515625 40.375 
Q 6.59375 45.0625 6.59375 53.421875 
Q 6.59375 63.09375 13.40625 68.65625 
Q 20.21875 74.21875 32.171875 74.21875 
Q 37.3125 74.21875 42.625 73.28125 
Q 47.953125 72.359375 53.515625 70.515625 
z
" id="DejaVuSans-53"/>
     </defs>
     <g transform="translate(1203.520313 115.074687)scale(0.1 -0.1)">
      <use xlink:href="#DejaVuSans-4f"/>
      <use x="78.710938" xlink:href="#DejaVuSans-4c"/>
      <use x="134.423828" xlink:href="#DejaVuSans-53"/>
     </g>
    </g>
    <g id="line2d_27">
     <path d="M 1175.520313 126.252813 
L 1195.520313 126.252813 
" style="fill:none;stroke:#008000;stroke-linecap:square;stroke-width:1.5;"/>
    </g>
    <g id="line2d_28">
     <g>
      <use style="fill:#008000;stroke:#008000;" x="1185.520313" xlink:href="#m878fd6ac9f" y="126.252813"/>
     </g>
    </g>
    <g id="text_21">
     <!-- IRLS -->
     <defs>
      <path d="M 9.8125 72.90625 
L 19.671875 72.90625 
L 19.671875 0 
L 9.8125 0 
z
" id="DejaVuSans-49"/>
      <path d="M 44.390625 34.1875 
Q 47.5625 33.109375 50.5625 29.59375 
Q 53.5625 26.078125 56.59375 19.921875 
L 66.609375 0 
L 56 0 
L 46.6875 18.703125 
Q 43.0625 26.03125 39.671875 28.421875 
Q 36.28125 30.8125 30.421875 30.8125 
L 19.671875 30.8125 
L 19.671875 0 
L 9.8125 0 
L 9.8125 72.90625 
L 32.078125 72.90625 
Q 44.578125 72.90625 50.734375 67.671875 
Q 56.890625 62.453125 56.890625 51.90625 
Q 56.890625 45.015625 53.6875 40.46875 
Q 50.484375 35.9375 44.390625 34.1875 
z
M 19.671875 64.796875 
L 19.671875 38.921875 
L 32.078125 38.921875 
Q 39.203125 38.921875 42.84375 42.21875 
Q 46.484375 45.515625 46.484375 51.90625 
Q 46.484375 58.296875 42.84375 61.546875 
Q 39.203125 64.796875 32.078125 64.796875 
z
" id="DejaVuSans-52"/>
     </defs>
     <g transform="translate(1203.520313 129.752813)scale(0.1 -0.1)">
      <use xlink:href="#DejaVuSans-49"/>
      <use x="29.492188" xlink:href="#DejaVuSans-52"/>
      <use x="98.974609" xlink:href="#DejaVuSans-4c"/>
      <use x="154.6875" xlink:href="#DejaVuSans-53"/>
     </g>
    </g>
   </g>
  </g>
 </g>
 <defs>
  <clipPath id="p003c15383b">
   <rect height="443.52" width="1116" x="180" y="69.12"/>
  </clipPath>
 </defs>
</svg>
