<?xml version="1.0" encoding="utf-8" standalone="no"?>
<!DOCTYPE svg PUBLIC "-//W3C//DTD SVG 1.1//EN"
  "http://www.w3.org/Graphics/SVG/1.1/DTD/svg11.dtd">
<!-- Created with matplotlib (http://matplotlib.org/) -->
<svg height="576pt" version="1.1" viewBox="0 0 1440 576" width="1440pt" xmlns="http://www.w3.org/2000/svg" xmlns:xlink="http://www.w3.org/1999/xlink">
 <defs>
  <style type="text/css">
*{stroke-linecap:butt;stroke-linejoin:round;}
  </style>
 </defs>
 <g id="figure_1">
  <g id="patch_1">
   <path d="M 0 576 
L 1440 576 
L 1440 0 
L 0 0 
z
" style="fill:#ffffff;"/>
  </g>
  <g id="axes_1">
   <g id="patch_2">
    <path d="M 180 512.64 
L 1296 512.64 
L 1296 69.12 
L 180 69.12 
z
" style="fill:#ffffff;"/>
   </g>
   <g id="matplotlib.axis_1">
    <g id="xtick_1">
     <g id="line2d_1">
      <defs>
       <path d="M 0 0 
L 0 3.5 
" id="mc601875194" style="stroke:#000000;stroke-width:0.8;"/>
      </defs>
      <g>
       <use style="stroke:#000000;stroke-width:0.8;" x="230.727273" xlink:href="#mc601875194" y="512.64"/>
      </g>
     </g>
     <g id="text_1">
      <!-- 0.00 -->
      <defs>
       <path d="M 31.78125 66.40625 
Q 24.171875 66.40625 20.328125 58.90625 
Q 16.5 51.421875 16.5 36.375 
Q 16.5 21.390625 20.328125 13.890625 
Q 24.171875 6.390625 31.78125 6.390625 
Q 39.453125 6.390625 43.28125 13.890625 
Q 47.125 21.390625 47.125 36.375 
Q 47.125 51.421875 43.28125 58.90625 
Q 39.453125 66.40625 31.78125 66.40625 
z
M 31.78125 74.21875 
Q 44.046875 74.21875 50.515625 64.515625 
Q 56.984375 54.828125 56.984375 36.375 
Q 56.984375 17.96875 50.515625 8.265625 
Q 44.046875 -1.421875 31.78125 -1.421875 
Q 19.53125 -1.421875 13.0625 8.265625 
Q 6.59375 17.96875 6.59375 36.375 
Q 6.59375 54.828125 13.0625 64.515625 
Q 19.53125 74.21875 31.78125 74.21875 
z
" id="DejaVuSans-30"/>
       <path d="M 10.6875 12.40625 
L 21 12.40625 
L 21 0 
L 10.6875 0 
z
" id="DejaVuSans-2e"/>
      </defs>
      <g transform="translate(219.59446 527.238438)scale(0.1 -0.1)">
       <use xlink:href="#DejaVuSans-30"/>
       <use x="63.623047" xlink:href="#DejaVuSans-2e"/>
       <use x="95.410156" xlink:href="#DejaVuSans-30"/>
       <use x="159.033203" xlink:href="#DejaVuSans-30"/>
      </g>
     </g>
    </g>
    <g id="xtick_2">
     <g id="line2d_2">
      <g>
       <use style="stroke:#000000;stroke-width:0.8;" x="416.816161" xlink:href="#mc601875194" y="512.64"/>
      </g>
     </g>
     <g id="text_2">
      <!-- 0.05 -->
      <defs>
       <path d="M 10.796875 72.90625 
L 49.515625 72.90625 
L 49.515625 64.59375 
L 19.828125 64.59375 
L 19.828125 46.734375 
Q 21.96875 47.46875 24.109375 47.828125 
Q 26.265625 48.1875 28.421875 48.1875 
Q 40.625 48.1875 47.75 41.5 
Q 54.890625 34.8125 54.890625 23.390625 
Q 54.890625 11.625 47.5625 5.09375 
Q 40.234375 -1.421875 26.90625 -1.421875 
Q 22.3125 -1.421875 17.546875 -0.640625 
Q 12.796875 0.140625 7.71875 1.703125 
L 7.71875 11.625 
Q 12.109375 9.234375 16.796875 8.0625 
Q 21.484375 6.890625 26.703125 6.890625 
Q 35.15625 6.890625 40.078125 11.328125 
Q 45.015625 15.765625 45.015625 23.390625 
Q 45.015625 31 40.078125 35.4375 
Q 35.15625 39.890625 26.703125 39.890625 
Q 22.75 39.890625 18.8125 39.015625 
Q 14.890625 38.140625 10.796875 36.28125 
z
" id="DejaVuSans-35"/>
      </defs>
      <g transform="translate(405.683349 527.238438)scale(0.1 -0.1)">
       <use xlink:href="#DejaVuSans-30"/>
       <use x="63.623047" xlink:href="#DejaVuSans-2e"/>
       <use x="95.410156" xlink:href="#DejaVuSans-30"/>
       <use x="159.033203" xlink:href="#DejaVuSans-35"/>
      </g>
     </g>
    </g>
    <g id="xtick_3">
     <g id="line2d_3">
      <g>
       <use style="stroke:#000000;stroke-width:0.8;" x="602.90505" xlink:href="#mc601875194" y="512.64"/>
      </g>
     </g>
     <g id="text_3">
      <!-- 0.10 -->
      <defs>
       <path d="M 12.40625 8.296875 
L 28.515625 8.296875 
L 28.515625 63.921875 
L 10.984375 60.40625 
L 10.984375 69.390625 
L 28.421875 72.90625 
L 38.28125 72.90625 
L 38.28125 8.296875 
L 54.390625 8.296875 
L 54.390625 0 
L 12.40625 0 
z
" id="DejaVuSans-31"/>
      </defs>
      <g transform="translate(591.772237 527.238438)scale(0.1 -0.1)">
       <use xlink:href="#DejaVuSans-30"/>
       <use x="63.623047" xlink:href="#DejaVuSans-2e"/>
       <use x="95.410156" xlink:href="#DejaVuSans-31"/>
       <use x="159.033203" xlink:href="#DejaVuSans-30"/>
      </g>
     </g>
    </g>
    <g id="xtick_4">
     <g id="line2d_4">
      <g>
       <use style="stroke:#000000;stroke-width:0.8;" x="788.993938" xlink:href="#mc601875194" y="512.64"/>
      </g>
     </g>
     <g id="text_4">
      <!-- 0.15 -->
      <g transform="translate(777.861126 527.238438)scale(0.1 -0.1)">
       <use xlink:href="#DejaVuSans-30"/>
       <use x="63.623047" xlink:href="#DejaVuSans-2e"/>
       <use x="95.410156" xlink:href="#DejaVuSans-31"/>
       <use x="159.033203" xlink:href="#DejaVuSans-35"/>
      </g>
     </g>
    </g>
    <g id="xtick_5">
     <g id="line2d_5">
      <g>
       <use style="stroke:#000000;stroke-width:0.8;" x="975.082827" xlink:href="#mc601875194" y="512.64"/>
      </g>
     </g>
     <g id="text_5">
      <!-- 0.20 -->
      <defs>
       <path d="M 19.1875 8.296875 
L 53.609375 8.296875 
L 53.609375 0 
L 7.328125 0 
L 7.328125 8.296875 
Q 12.9375 14.109375 22.625 23.890625 
Q 32.328125 33.6875 34.8125 36.53125 
Q 39.546875 41.84375 41.421875 45.53125 
Q 43.3125 49.21875 43.3125 52.78125 
Q 43.3125 58.59375 39.234375 62.25 
Q 35.15625 65.921875 28.609375 65.921875 
Q 23.96875 65.921875 18.8125 64.3125 
Q 13.671875 62.703125 7.8125 59.421875 
L 7.8125 69.390625 
Q 13.765625 71.78125 18.9375 73 
Q 24.125 74.21875 28.421875 74.21875 
Q 39.75 74.21875 46.484375 68.546875 
Q 53.21875 62.890625 53.21875 53.421875 
Q 53.21875 48.921875 51.53125 44.890625 
Q 49.859375 40.875 45.40625 35.40625 
Q 44.1875 33.984375 37.640625 27.21875 
Q 31.109375 20.453125 19.1875 8.296875 
z
" id="DejaVuSans-32"/>
      </defs>
      <g transform="translate(963.950014 527.238438)scale(0.1 -0.1)">
       <use xlink:href="#DejaVuSans-30"/>
       <use x="63.623047" xlink:href="#DejaVuSans-2e"/>
       <use x="95.410156" xlink:href="#DejaVuSans-32"/>
       <use x="159.033203" xlink:href="#DejaVuSans-30"/>
      </g>
     </g>
    </g>
    <g id="xtick_6">
     <g id="line2d_6">
      <g>
       <use style="stroke:#000000;stroke-width:0.8;" x="1161.171715" xlink:href="#mc601875194" y="512.64"/>
      </g>
     </g>
     <g id="text_6">
      <!-- 0.25 -->
      <g transform="translate(1150.038903 527.238438)scale(0.1 -0.1)">
       <use xlink:href="#DejaVuSans-30"/>
       <use x="63.623047" xlink:href="#DejaVuSans-2e"/>
       <use x="95.410156" xlink:href="#DejaVuSans-32"/>
       <use x="159.033203" xlink:href="#DejaVuSans-35"/>
      </g>
     </g>
    </g>
   </g>
   <g id="matplotlib.axis_2">
    <g id="ytick_1">
     <g id="line2d_7">
      <defs>
       <path d="M 0 0 
L -3.5 0 
" id="mee149b1fe6" style="stroke:#000000;stroke-width:0.8;"/>
      </defs>
      <g>
       <use style="stroke:#000000;stroke-width:0.8;" x="180" xlink:href="#mee149b1fe6" y="440.725073"/>
      </g>
     </g>
     <g id="text_7">
      <!-- 0.4 -->
      <defs>
       <path d="M 37.796875 64.3125 
L 12.890625 25.390625 
L 37.796875 25.390625 
z
M 35.203125 72.90625 
L 47.609375 72.90625 
L 47.609375 25.390625 
L 58.015625 25.390625 
L 58.015625 17.1875 
L 47.609375 17.1875 
L 47.609375 0 
L 37.796875 0 
L 37.796875 17.1875 
L 4.890625 17.1875 
L 4.890625 26.703125 
z
" id="DejaVuSans-34"/>
      </defs>
      <g transform="translate(157.096875 444.524292)scale(0.1 -0.1)">
       <use xlink:href="#DejaVuSans-30"/>
       <use x="63.623047" xlink:href="#DejaVuSans-2e"/>
       <use x="95.410156" xlink:href="#DejaVuSans-34"/>
      </g>
     </g>
    </g>
    <g id="ytick_2">
     <g id="line2d_8">
      <g>
       <use style="stroke:#000000;stroke-width:0.8;" x="180" xlink:href="#mee149b1fe6" y="354.173028"/>
      </g>
     </g>
     <g id="text_8">
      <!-- 0.6 -->
      <defs>
       <path d="M 33.015625 40.375 
Q 26.375 40.375 22.484375 35.828125 
Q 18.609375 31.296875 18.609375 23.390625 
Q 18.609375 15.53125 22.484375 10.953125 
Q 26.375 6.390625 33.015625 6.390625 
Q 39.65625 6.390625 43.53125 10.953125 
Q 47.40625 15.53125 47.40625 23.390625 
Q 47.40625 31.296875 43.53125 35.828125 
Q 39.65625 40.375 33.015625 40.375 
z
M 52.59375 71.296875 
L 52.59375 62.3125 
Q 48.875 64.0625 45.09375 64.984375 
Q 41.3125 65.921875 37.59375 65.921875 
Q 27.828125 65.921875 22.671875 59.328125 
Q 17.53125 52.734375 16.796875 39.40625 
Q 19.671875 43.65625 24.015625 45.921875 
Q 28.375 48.1875 33.59375 48.1875 
Q 44.578125 48.1875 50.953125 41.515625 
Q 57.328125 34.859375 57.328125 23.390625 
Q 57.328125 12.15625 50.6875 5.359375 
Q 44.046875 -1.421875 33.015625 -1.421875 
Q 20.359375 -1.421875 13.671875 8.265625 
Q 6.984375 17.96875 6.984375 36.375 
Q 6.984375 53.65625 15.1875 63.9375 
Q 23.390625 74.21875 37.203125 74.21875 
Q 40.921875 74.21875 44.703125 73.484375 
Q 48.484375 72.75 52.59375 71.296875 
z
" id="DejaVuSans-36"/>
      </defs>
      <g transform="translate(157.096875 357.972247)scale(0.1 -0.1)">
       <use xlink:href="#DejaVuSans-30"/>
       <use x="63.623047" xlink:href="#DejaVuSans-2e"/>
       <use x="95.410156" xlink:href="#DejaVuSans-36"/>
      </g>
     </g>
    </g>
    <g id="ytick_3">
     <g id="line2d_9">
      <g>
       <use style="stroke:#000000;stroke-width:0.8;" x="180" xlink:href="#mee149b1fe6" y="267.620983"/>
      </g>
     </g>
     <g id="text_9">
      <!-- 0.8 -->
      <defs>
       <path d="M 31.78125 34.625 
Q 24.75 34.625 20.71875 30.859375 
Q 16.703125 27.09375 16.703125 20.515625 
Q 16.703125 13.921875 20.71875 10.15625 
Q 24.75 6.390625 31.78125 6.390625 
Q 38.8125 6.390625 42.859375 10.171875 
Q 46.921875 13.96875 46.921875 20.515625 
Q 46.921875 27.09375 42.890625 30.859375 
Q 38.875 34.625 31.78125 34.625 
z
M 21.921875 38.8125 
Q 15.578125 40.375 12.03125 44.71875 
Q 8.5 49.078125 8.5 55.328125 
Q 8.5 64.0625 14.71875 69.140625 
Q 20.953125 74.21875 31.78125 74.21875 
Q 42.671875 74.21875 48.875 69.140625 
Q 55.078125 64.0625 55.078125 55.328125 
Q 55.078125 49.078125 51.53125 44.71875 
Q 48 40.375 41.703125 38.8125 
Q 48.828125 37.15625 52.796875 32.3125 
Q 56.78125 27.484375 56.78125 20.515625 
Q 56.78125 9.90625 50.3125 4.234375 
Q 43.84375 -1.421875 31.78125 -1.421875 
Q 19.734375 -1.421875 13.25 4.234375 
Q 6.78125 9.90625 6.78125 20.515625 
Q 6.78125 27.484375 10.78125 32.3125 
Q 14.796875 37.15625 21.921875 38.8125 
z
M 18.3125 54.390625 
Q 18.3125 48.734375 21.84375 45.5625 
Q 25.390625 42.390625 31.78125 42.390625 
Q 38.140625 42.390625 41.71875 45.5625 
Q 45.3125 48.734375 45.3125 54.390625 
Q 45.3125 60.0625 41.71875 63.234375 
Q 38.140625 66.40625 31.78125 66.40625 
Q 25.390625 66.40625 21.84375 63.234375 
Q 18.3125 60.0625 18.3125 54.390625 
z
" id="DejaVuSans-38"/>
      </defs>
      <g transform="translate(157.096875 271.420202)scale(0.1 -0.1)">
       <use xlink:href="#DejaVuSans-30"/>
       <use x="63.623047" xlink:href="#DejaVuSans-2e"/>
       <use x="95.410156" xlink:href="#DejaVuSans-38"/>
      </g>
     </g>
    </g>
    <g id="ytick_4">
     <g id="line2d_10">
      <g>
       <use style="stroke:#000000;stroke-width:0.8;" x="180" xlink:href="#mee149b1fe6" y="181.068938"/>
      </g>
     </g>
     <g id="text_10">
      <!-- 1.0 -->
      <g transform="translate(157.096875 184.868157)scale(0.1 -0.1)">
       <use xlink:href="#DejaVuSans-31"/>
       <use x="63.623047" xlink:href="#DejaVuSans-2e"/>
       <use x="95.410156" xlink:href="#DejaVuSans-30"/>
      </g>
     </g>
    </g>
    <g id="ytick_5">
     <g id="line2d_11">
      <g>
       <use style="stroke:#000000;stroke-width:0.8;" x="180" xlink:href="#mee149b1fe6" y="94.516893"/>
      </g>
     </g>
     <g id="text_11">
      <!-- 1.2 -->
      <g transform="translate(157.096875 98.316112)scale(0.1 -0.1)">
       <use xlink:href="#DejaVuSans-31"/>
       <use x="63.623047" xlink:href="#DejaVuSans-2e"/>
       <use x="95.410156" xlink:href="#DejaVuSans-32"/>
      </g>
     </g>
    </g>
   </g>
   <g id="line2d_12">
    <path clip-path="url(#pa12a843c1d)" d="M 230.727273 483.807219 
L 238.732817 483.83881 
L 249.838602 481.134059 
L 265.09789 477.701838 
L 272.113442 473.301964 
L 279.136436 468.886079 
L 297.309877 465.780159 
L 304.671553 461.449527 
L 311.850863 457.051818 
L 318.885023 452.65584 
L 335.625579 449.379412 
L 343.117518 445.035365 
L 350.468029 440.693481 
L 357.781322 436.326931 
L 373.814741 432.973472 
L 381.299236 428.58009 
L 388.653469 424.273693 
L 395.955597 419.924886 
L 411.333983 416.486606 
L 419.365579 412.197952 
L 426.935675 407.873379 
L 437.7065 403.898043 
L 453.058833 400.432067 
L 460.14882 396.084125 
L 467.164371 391.694638 
L 485.907244 388.661421 
L 493.384295 384.31045 
L 500.671536 379.940005 
L 507.973664 375.586437 
L 524.178284 372.252019 
L 531.521352 367.857339 
L 538.775097 363.518052 
L 546.010233 359.160157 
L 561.753353 355.7803 
L 569.401606 351.450534 
L 576.848883 347.078357 
L 584.180786 342.728251 
L 599.536841 339.315504 
L 607.445619 335.02209 
L 614.848235 330.665925 
L 634.767189 327.701951 
L 642.445217 323.45138 
L 649.795728 319.094783 
L 657.123908 314.725635 
L 674.474836 311.539655 
L 682.111924 307.203397 
L 689.499653 302.759815 
L 697.248394 298.511841 
L 712.358812 295.074859 
L 719.887968 290.738169 
L 727.42829 286.401479 
L 741.384957 282.792258 
L 754.504224 279.116826 
L 761.843569 274.755901 
L 769.06754 270.383724 
L 787.412183 267.308098 
L 795.533102 263.028964 
L 802.935718 258.667607 
L 822.51599 255.746475 
L 830.048869 251.409352 
L 837.302614 246.945431 
L 844.355382 242.61653 
L 862.409726 239.519698 
L 869.976101 235.115064 
L 877.661572 230.877909 
L 885.600124 226.583629 
L 900.271372 223.070482 
L 907.878685 218.758459 
L 915.352015 214.389745 
L 935.483111 211.529632 
L 943.172304 207.075664 
L 950.682852 202.521295 
L 958.07058 198.356411 
L 975.481057 195.146196 
L 982.950665 190.839799 
L 990.353281 186.4845 
L 1001.529779 182.558499 
L 1017.905602 179.243556 
L 1025.568742 174.945814 
L 1032.941584 170.575368 
L 1050.51954 167.388089 
L 1058.402265 163.124103 
L 1065.752777 158.734183 
L 1085.373989 155.825602 
L 1093.081791 151.455156 
L 1100.320648 147.135344 
L 1107.633942 142.779612 
L 1125.617572 139.635609 
L 1133.82037 135.395424 
L 1141.330918 131.050512 
L 1161.268481 128.154047 
L 1169.05444 123.850247 
L 1176.25608 119.462491 
L 1183.409337 115.041413 
L 1200.689551 111.86928 
L 1207.850252 107.498402 
L 1214.981178 103.101558 
L 1222.205149 98.728516 
L 1238.078531 95.341734 
L 1245.272727 90.994225 
" style="fill:none;stroke:#ff0000;stroke-dasharray:5.55,2.4;stroke-dashoffset:0;stroke-width:1.5;"/>
    <defs>
     <path d="M -3 3 
L 3 3 
L 3 -3 
L -3 -3 
z
" id="m0c66d99488" style="stroke:#ff0000;stroke-linejoin:miter;"/>
    </defs>
    <g clip-path="url(#pa12a843c1d)">
     <use style="fill:#ff0000;stroke:#ff0000;stroke-linejoin:miter;" x="230.727273" xlink:href="#m0c66d99488" y="483.807219"/>
     <use style="fill:#ff0000;stroke:#ff0000;stroke-linejoin:miter;" x="238.732817" xlink:href="#m0c66d99488" y="483.83881"/>
     <use style="fill:#ff0000;stroke:#ff0000;stroke-linejoin:miter;" x="249.838602" xlink:href="#m0c66d99488" y="481.134059"/>
     <use style="fill:#ff0000;stroke:#ff0000;stroke-linejoin:miter;" x="265.09789" xlink:href="#m0c66d99488" y="477.701838"/>
     <use style="fill:#ff0000;stroke:#ff0000;stroke-linejoin:miter;" x="272.113442" xlink:href="#m0c66d99488" y="473.301964"/>
     <use style="fill:#ff0000;stroke:#ff0000;stroke-linejoin:miter;" x="279.136436" xlink:href="#m0c66d99488" y="468.886079"/>
     <use style="fill:#ff0000;stroke:#ff0000;stroke-linejoin:miter;" x="297.309877" xlink:href="#m0c66d99488" y="465.780159"/>
     <use style="fill:#ff0000;stroke:#ff0000;stroke-linejoin:miter;" x="304.671553" xlink:href="#m0c66d99488" y="461.449527"/>
     <use style="fill:#ff0000;stroke:#ff0000;stroke-linejoin:miter;" x="311.850863" xlink:href="#m0c66d99488" y="457.051818"/>
     <use style="fill:#ff0000;stroke:#ff0000;stroke-linejoin:miter;" x="318.885023" xlink:href="#m0c66d99488" y="452.65584"/>
     <use style="fill:#ff0000;stroke:#ff0000;stroke-linejoin:miter;" x="335.625579" xlink:href="#m0c66d99488" y="449.379412"/>
     <use style="fill:#ff0000;stroke:#ff0000;stroke-linejoin:miter;" x="343.117518" xlink:href="#m0c66d99488" y="445.035365"/>
     <use style="fill:#ff0000;stroke:#ff0000;stroke-linejoin:miter;" x="350.468029" xlink:href="#m0c66d99488" y="440.693481"/>
     <use style="fill:#ff0000;stroke:#ff0000;stroke-linejoin:miter;" x="357.781322" xlink:href="#m0c66d99488" y="436.326931"/>
     <use style="fill:#ff0000;stroke:#ff0000;stroke-linejoin:miter;" x="373.814741" xlink:href="#m0c66d99488" y="432.973472"/>
     <use style="fill:#ff0000;stroke:#ff0000;stroke-linejoin:miter;" x="381.299236" xlink:href="#m0c66d99488" y="428.58009"/>
     <use style="fill:#ff0000;stroke:#ff0000;stroke-linejoin:miter;" x="388.653469" xlink:href="#m0c66d99488" y="424.273693"/>
     <use style="fill:#ff0000;stroke:#ff0000;stroke-linejoin:miter;" x="395.955597" xlink:href="#m0c66d99488" y="419.924886"/>
     <use style="fill:#ff0000;stroke:#ff0000;stroke-linejoin:miter;" x="411.333983" xlink:href="#m0c66d99488" y="416.486606"/>
     <use style="fill:#ff0000;stroke:#ff0000;stroke-linejoin:miter;" x="419.365579" xlink:href="#m0c66d99488" y="412.197952"/>
     <use style="fill:#ff0000;stroke:#ff0000;stroke-linejoin:miter;" x="426.935675" xlink:href="#m0c66d99488" y="407.873379"/>
     <use style="fill:#ff0000;stroke:#ff0000;stroke-linejoin:miter;" x="437.7065" xlink:href="#m0c66d99488" y="403.898043"/>
     <use style="fill:#ff0000;stroke:#ff0000;stroke-linejoin:miter;" x="453.058833" xlink:href="#m0c66d99488" y="400.432067"/>
     <use style="fill:#ff0000;stroke:#ff0000;stroke-linejoin:miter;" x="460.14882" xlink:href="#m0c66d99488" y="396.084125"/>
     <use style="fill:#ff0000;stroke:#ff0000;stroke-linejoin:miter;" x="467.164371" xlink:href="#m0c66d99488" y="391.694638"/>
     <use style="fill:#ff0000;stroke:#ff0000;stroke-linejoin:miter;" x="485.907244" xlink:href="#m0c66d99488" y="388.661421"/>
     <use style="fill:#ff0000;stroke:#ff0000;stroke-linejoin:miter;" x="493.384295" xlink:href="#m0c66d99488" y="384.31045"/>
     <use style="fill:#ff0000;stroke:#ff0000;stroke-linejoin:miter;" x="500.671536" xlink:href="#m0c66d99488" y="379.940005"/>
     <use style="fill:#ff0000;stroke:#ff0000;stroke-linejoin:miter;" x="507.973664" xlink:href="#m0c66d99488" y="375.586437"/>
     <use style="fill:#ff0000;stroke:#ff0000;stroke-linejoin:miter;" x="524.178284" xlink:href="#m0c66d99488" y="372.252019"/>
     <use style="fill:#ff0000;stroke:#ff0000;stroke-linejoin:miter;" x="531.521352" xlink:href="#m0c66d99488" y="367.857339"/>
     <use style="fill:#ff0000;stroke:#ff0000;stroke-linejoin:miter;" x="538.775097" xlink:href="#m0c66d99488" y="363.518052"/>
     <use style="fill:#ff0000;stroke:#ff0000;stroke-linejoin:miter;" x="546.010233" xlink:href="#m0c66d99488" y="359.160157"/>
     <use style="fill:#ff0000;stroke:#ff0000;stroke-linejoin:miter;" x="561.753353" xlink:href="#m0c66d99488" y="355.7803"/>
     <use style="fill:#ff0000;stroke:#ff0000;stroke-linejoin:miter;" x="569.401606" xlink:href="#m0c66d99488" y="351.450534"/>
     <use style="fill:#ff0000;stroke:#ff0000;stroke-linejoin:miter;" x="576.848883" xlink:href="#m0c66d99488" y="347.078357"/>
     <use style="fill:#ff0000;stroke:#ff0000;stroke-linejoin:miter;" x="584.180786" xlink:href="#m0c66d99488" y="342.728251"/>
     <use style="fill:#ff0000;stroke:#ff0000;stroke-linejoin:miter;" x="599.536841" xlink:href="#m0c66d99488" y="339.315504"/>
     <use style="fill:#ff0000;stroke:#ff0000;stroke-linejoin:miter;" x="607.445619" xlink:href="#m0c66d99488" y="335.02209"/>
     <use style="fill:#ff0000;stroke:#ff0000;stroke-linejoin:miter;" x="614.848235" xlink:href="#m0c66d99488" y="330.665925"/>
     <use style="fill:#ff0000;stroke:#ff0000;stroke-linejoin:miter;" x="634.767189" xlink:href="#m0c66d99488" y="327.701951"/>
     <use style="fill:#ff0000;stroke:#ff0000;stroke-linejoin:miter;" x="642.445217" xlink:href="#m0c66d99488" y="323.45138"/>
     <use style="fill:#ff0000;stroke:#ff0000;stroke-linejoin:miter;" x="649.795728" xlink:href="#m0c66d99488" y="319.094783"/>
     <use style="fill:#ff0000;stroke:#ff0000;stroke-linejoin:miter;" x="657.123908" xlink:href="#m0c66d99488" y="314.725635"/>
     <use style="fill:#ff0000;stroke:#ff0000;stroke-linejoin:miter;" x="674.474836" xlink:href="#m0c66d99488" y="311.539655"/>
     <use style="fill:#ff0000;stroke:#ff0000;stroke-linejoin:miter;" x="682.111924" xlink:href="#m0c66d99488" y="307.203397"/>
     <use style="fill:#ff0000;stroke:#ff0000;stroke-linejoin:miter;" x="689.499653" xlink:href="#m0c66d99488" y="302.759815"/>
     <use style="fill:#ff0000;stroke:#ff0000;stroke-linejoin:miter;" x="697.248394" xlink:href="#m0c66d99488" y="298.511841"/>
     <use style="fill:#ff0000;stroke:#ff0000;stroke-linejoin:miter;" x="712.358812" xlink:href="#m0c66d99488" y="295.074859"/>
     <use style="fill:#ff0000;stroke:#ff0000;stroke-linejoin:miter;" x="719.887968" xlink:href="#m0c66d99488" y="290.738169"/>
     <use style="fill:#ff0000;stroke:#ff0000;stroke-linejoin:miter;" x="727.42829" xlink:href="#m0c66d99488" y="286.401479"/>
     <use style="fill:#ff0000;stroke:#ff0000;stroke-linejoin:miter;" x="741.384957" xlink:href="#m0c66d99488" y="282.792258"/>
     <use style="fill:#ff0000;stroke:#ff0000;stroke-linejoin:miter;" x="754.504224" xlink:href="#m0c66d99488" y="279.116826"/>
     <use style="fill:#ff0000;stroke:#ff0000;stroke-linejoin:miter;" x="761.843569" xlink:href="#m0c66d99488" y="274.755901"/>
     <use style="fill:#ff0000;stroke:#ff0000;stroke-linejoin:miter;" x="769.06754" xlink:href="#m0c66d99488" y="270.383724"/>
     <use style="fill:#ff0000;stroke:#ff0000;stroke-linejoin:miter;" x="787.412183" xlink:href="#m0c66d99488" y="267.308098"/>
     <use style="fill:#ff0000;stroke:#ff0000;stroke-linejoin:miter;" x="795.533102" xlink:href="#m0c66d99488" y="263.028964"/>
     <use style="fill:#ff0000;stroke:#ff0000;stroke-linejoin:miter;" x="802.935718" xlink:href="#m0c66d99488" y="258.667607"/>
     <use style="fill:#ff0000;stroke:#ff0000;stroke-linejoin:miter;" x="822.51599" xlink:href="#m0c66d99488" y="255.746475"/>
     <use style="fill:#ff0000;stroke:#ff0000;stroke-linejoin:miter;" x="830.048869" xlink:href="#m0c66d99488" y="251.409352"/>
     <use style="fill:#ff0000;stroke:#ff0000;stroke-linejoin:miter;" x="837.302614" xlink:href="#m0c66d99488" y="246.945431"/>
     <use style="fill:#ff0000;stroke:#ff0000;stroke-linejoin:miter;" x="844.355382" xlink:href="#m0c66d99488" y="242.61653"/>
     <use style="fill:#ff0000;stroke:#ff0000;stroke-linejoin:miter;" x="862.409726" xlink:href="#m0c66d99488" y="239.519698"/>
     <use style="fill:#ff0000;stroke:#ff0000;stroke-linejoin:miter;" x="869.976101" xlink:href="#m0c66d99488" y="235.115064"/>
     <use style="fill:#ff0000;stroke:#ff0000;stroke-linejoin:miter;" x="877.661572" xlink:href="#m0c66d99488" y="230.877909"/>
     <use style="fill:#ff0000;stroke:#ff0000;stroke-linejoin:miter;" x="885.600124" xlink:href="#m0c66d99488" y="226.583629"/>
     <use style="fill:#ff0000;stroke:#ff0000;stroke-linejoin:miter;" x="900.271372" xlink:href="#m0c66d99488" y="223.070482"/>
     <use style="fill:#ff0000;stroke:#ff0000;stroke-linejoin:miter;" x="907.878685" xlink:href="#m0c66d99488" y="218.758459"/>
     <use style="fill:#ff0000;stroke:#ff0000;stroke-linejoin:miter;" x="915.352015" xlink:href="#m0c66d99488" y="214.389745"/>
     <use style="fill:#ff0000;stroke:#ff0000;stroke-linejoin:miter;" x="935.483111" xlink:href="#m0c66d99488" y="211.529632"/>
     <use style="fill:#ff0000;stroke:#ff0000;stroke-linejoin:miter;" x="943.172304" xlink:href="#m0c66d99488" y="207.075664"/>
     <use style="fill:#ff0000;stroke:#ff0000;stroke-linejoin:miter;" x="950.682852" xlink:href="#m0c66d99488" y="202.521295"/>
     <use style="fill:#ff0000;stroke:#ff0000;stroke-linejoin:miter;" x="958.07058" xlink:href="#m0c66d99488" y="198.356411"/>
     <use style="fill:#ff0000;stroke:#ff0000;stroke-linejoin:miter;" x="975.481057" xlink:href="#m0c66d99488" y="195.146196"/>
     <use style="fill:#ff0000;stroke:#ff0000;stroke-linejoin:miter;" x="982.950665" xlink:href="#m0c66d99488" y="190.839799"/>
     <use style="fill:#ff0000;stroke:#ff0000;stroke-linejoin:miter;" x="990.353281" xlink:href="#m0c66d99488" y="186.4845"/>
     <use style="fill:#ff0000;stroke:#ff0000;stroke-linejoin:miter;" x="1001.529779" xlink:href="#m0c66d99488" y="182.558499"/>
     <use style="fill:#ff0000;stroke:#ff0000;stroke-linejoin:miter;" x="1017.905602" xlink:href="#m0c66d99488" y="179.243556"/>
     <use style="fill:#ff0000;stroke:#ff0000;stroke-linejoin:miter;" x="1025.568742" xlink:href="#m0c66d99488" y="174.945814"/>
     <use style="fill:#ff0000;stroke:#ff0000;stroke-linejoin:miter;" x="1032.941584" xlink:href="#m0c66d99488" y="170.575368"/>
     <use style="fill:#ff0000;stroke:#ff0000;stroke-linejoin:miter;" x="1050.51954" xlink:href="#m0c66d99488" y="167.388089"/>
     <use style="fill:#ff0000;stroke:#ff0000;stroke-linejoin:miter;" x="1058.402265" xlink:href="#m0c66d99488" y="163.124103"/>
     <use style="fill:#ff0000;stroke:#ff0000;stroke-linejoin:miter;" x="1065.752777" xlink:href="#m0c66d99488" y="158.734183"/>
     <use style="fill:#ff0000;stroke:#ff0000;stroke-linejoin:miter;" x="1085.373989" xlink:href="#m0c66d99488" y="155.825602"/>
     <use style="fill:#ff0000;stroke:#ff0000;stroke-linejoin:miter;" x="1093.081791" xlink:href="#m0c66d99488" y="151.455156"/>
     <use style="fill:#ff0000;stroke:#ff0000;stroke-linejoin:miter;" x="1100.320648" xlink:href="#m0c66d99488" y="147.135344"/>
     <use style="fill:#ff0000;stroke:#ff0000;stroke-linejoin:miter;" x="1107.633942" xlink:href="#m0c66d99488" y="142.779612"/>
     <use style="fill:#ff0000;stroke:#ff0000;stroke-linejoin:miter;" x="1125.617572" xlink:href="#m0c66d99488" y="139.635609"/>
     <use style="fill:#ff0000;stroke:#ff0000;stroke-linejoin:miter;" x="1133.82037" xlink:href="#m0c66d99488" y="135.395424"/>
     <use style="fill:#ff0000;stroke:#ff0000;stroke-linejoin:miter;" x="1141.330918" xlink:href="#m0c66d99488" y="131.050512"/>
     <use style="fill:#ff0000;stroke:#ff0000;stroke-linejoin:miter;" x="1161.268481" xlink:href="#m0c66d99488" y="128.154047"/>
     <use style="fill:#ff0000;stroke:#ff0000;stroke-linejoin:miter;" x="1169.05444" xlink:href="#m0c66d99488" y="123.850247"/>
     <use style="fill:#ff0000;stroke:#ff0000;stroke-linejoin:miter;" x="1176.25608" xlink:href="#m0c66d99488" y="119.462491"/>
     <use style="fill:#ff0000;stroke:#ff0000;stroke-linejoin:miter;" x="1183.409337" xlink:href="#m0c66d99488" y="115.041413"/>
     <use style="fill:#ff0000;stroke:#ff0000;stroke-linejoin:miter;" x="1200.689551" xlink:href="#m0c66d99488" y="111.86928"/>
     <use style="fill:#ff0000;stroke:#ff0000;stroke-linejoin:miter;" x="1207.850252" xlink:href="#m0c66d99488" y="107.498402"/>
     <use style="fill:#ff0000;stroke:#ff0000;stroke-linejoin:miter;" x="1214.981178" xlink:href="#m0c66d99488" y="103.101558"/>
     <use style="fill:#ff0000;stroke:#ff0000;stroke-linejoin:miter;" x="1222.205149" xlink:href="#m0c66d99488" y="98.728516"/>
     <use style="fill:#ff0000;stroke:#ff0000;stroke-linejoin:miter;" x="1238.078531" xlink:href="#m0c66d99488" y="95.341734"/>
     <use style="fill:#ff0000;stroke:#ff0000;stroke-linejoin:miter;" x="1245.272727" xlink:href="#m0c66d99488" y="90.994225"/>
    </g>
   </g>
   <g id="line2d_13">
    <path clip-path="url(#pa12a843c1d)" d="M 230.727273 483.807219 
L 238.732817 483.83881 
L 249.838602 481.134059 
L 265.09789 477.701838 
L 272.113442 473.301964 
L 279.136436 468.886079 
L 297.309877 465.780159 
L 304.671553 461.449527 
L 311.850863 457.051818 
L 318.885023 452.65584 
L 335.625579 449.379412 
L 343.117518 445.035365 
L 350.468029 440.693481 
L 357.781322 436.326931 
L 373.814741 432.973472 
L 381.299236 428.58009 
L 388.653469 424.273693 
L 395.955597 419.924886 
L 411.333983 416.486606 
L 419.365579 412.197952 
L 426.935675 407.873379 
L 437.7065 403.898043 
L 453.058833 400.432067 
L 460.14882 396.084125 
L 467.164371 391.694638 
L 485.907244 388.661421 
L 493.384295 384.31045 
L 500.671536 379.940005 
L 507.973664 375.586437 
L 524.178284 372.252019 
L 531.521352 367.857339 
L 538.775097 363.518052 
L 546.010233 359.160157 
L 561.753353 355.7803 
L 569.401606 351.450534 
L 576.848883 347.078357 
L 584.180786 342.728251 
L 599.536841 339.315504 
L 607.445619 335.02209 
L 614.848235 330.665925 
L 634.767189 327.701951 
L 642.445217 323.45138 
L 649.795728 319.094783 
L 657.123908 314.725635 
L 674.474836 311.539655 
L 682.111924 307.203397 
L 689.499653 302.759815 
L 697.248394 298.511841 
L 712.358812 295.074859 
L 719.887968 290.738169 
L 727.42829 286.401479 
L 741.384957 282.792258 
L 754.504224 279.116826 
L 761.843569 274.755901 
L 769.06754 270.383724 
L 787.412183 267.308098 
L 795.533102 263.028964 
L 802.935718 258.667607 
L 822.51599 255.746475 
L 830.048869 251.409352 
L 837.302614 246.945431 
L 844.355382 242.61653 
L 862.409726 239.519698 
L 869.976101 235.115064 
L 877.661572 230.877909 
L 885.600124 226.583629 
L 900.271372 223.070482 
L 907.878685 218.758459 
L 915.352015 214.389745 
L 935.483111 211.529632 
L 943.172304 207.075664 
L 950.682852 202.521295 
L 958.07058 198.356411 
L 975.481057 195.146196 
L 982.950665 190.839799 
L 990.353281 186.4845 
L 1001.529779 182.558499 
L 1017.905602 179.243556 
L 1025.568742 174.945814 
L 1032.941584 170.575368 
L 1050.51954 167.388089 
L 1058.402265 163.124103 
L 1065.752777 158.734183 
L 1085.373989 155.825602 
L 1093.081791 151.455156 
L 1100.320648 147.135344 
L 1107.633942 142.779612 
L 1125.617572 139.635609 
L 1133.82037 135.395424 
L 1141.330918 131.050512 
L 1161.268481 128.154047 
L 1169.05444 123.850247 
L 1176.25608 119.462491 
L 1183.409337 115.041413 
L 1200.689551 111.86928 
L 1207.850252 107.498402 
L 1214.981178 103.101558 
L 1222.205149 98.728516 
L 1238.078531 95.341734 
L 1245.272727 90.994225 
" style="fill:none;stroke:#800080;stroke-dasharray:9.6,2.4,1.5,2.4;stroke-dashoffset:0;stroke-width:1.5;"/>
    <defs>
     <path d="M -3 3 
L 3 -3 
M -3 -3 
L 3 3 
" id="m63711c3920" style="stroke:#800080;"/>
    </defs>
    <g clip-path="url(#pa12a843c1d)">
     <use style="fill:#800080;stroke:#800080;" x="230.727273" xlink:href="#m63711c3920" y="483.807219"/>
     <use style="fill:#800080;stroke:#800080;" x="238.732817" xlink:href="#m63711c3920" y="483.83881"/>
     <use style="fill:#800080;stroke:#800080;" x="249.838602" xlink:href="#m63711c3920" y="481.134059"/>
     <use style="fill:#800080;stroke:#800080;" x="265.09789" xlink:href="#m63711c3920" y="477.701838"/>
     <use style="fill:#800080;stroke:#800080;" x="272.113442" xlink:href="#m63711c3920" y="473.301964"/>
     <use style="fill:#800080;stroke:#800080;" x="279.136436" xlink:href="#m63711c3920" y="468.886079"/>
     <use style="fill:#800080;stroke:#800080;" x="297.309877" xlink:href="#m63711c3920" y="465.780159"/>
     <use style="fill:#800080;stroke:#800080;" x="304.671553" xlink:href="#m63711c3920" y="461.449527"/>
     <use style="fill:#800080;stroke:#800080;" x="311.850863" xlink:href="#m63711c3920" y="457.051818"/>
     <use style="fill:#800080;stroke:#800080;" x="318.885023" xlink:href="#m63711c3920" y="452.65584"/>
     <use style="fill:#800080;stroke:#800080;" x="335.625579" xlink:href="#m63711c3920" y="449.379412"/>
     <use style="fill:#800080;stroke:#800080;" x="343.117518" xlink:href="#m63711c3920" y="445.035365"/>
     <use style="fill:#800080;stroke:#800080;" x="350.468029" xlink:href="#m63711c3920" y="440.693481"/>
     <use style="fill:#800080;stroke:#800080;" x="357.781322" xlink:href="#m63711c3920" y="436.326931"/>
     <use style="fill:#800080;stroke:#800080;" x="373.814741" xlink:href="#m63711c3920" y="432.973472"/>
     <use style="fill:#800080;stroke:#800080;" x="381.299236" xlink:href="#m63711c3920" y="428.58009"/>
     <use style="fill:#800080;stroke:#800080;" x="388.653469" xlink:href="#m63711c3920" y="424.273693"/>
     <use style="fill:#800080;stroke:#800080;" x="395.955597" xlink:href="#m63711c3920" y="419.924886"/>
     <use style="fill:#800080;stroke:#800080;" x="411.333983" xlink:href="#m63711c3920" y="416.486606"/>
     <use style="fill:#800080;stroke:#800080;" x="419.365579" xlink:href="#m63711c3920" y="412.197952"/>
     <use style="fill:#800080;stroke:#800080;" x="426.935675" xlink:href="#m63711c3920" y="407.873379"/>
     <use style="fill:#800080;stroke:#800080;" x="437.7065" xlink:href="#m63711c3920" y="403.898043"/>
     <use style="fill:#800080;stroke:#800080;" x="453.058833" xlink:href="#m63711c3920" y="400.432067"/>
     <use style="fill:#800080;stroke:#800080;" x="460.14882" xlink:href="#m63711c3920" y="396.084125"/>
     <use style="fill:#800080;stroke:#800080;" x="467.164371" xlink:href="#m63711c3920" y="391.694638"/>
     <use style="fill:#800080;stroke:#800080;" x="485.907244" xlink:href="#m63711c3920" y="388.661421"/>
     <use style="fill:#800080;stroke:#800080;" x="493.384295" xlink:href="#m63711c3920" y="384.31045"/>
     <use style="fill:#800080;stroke:#800080;" x="500.671536" xlink:href="#m63711c3920" y="379.940005"/>
     <use style="fill:#800080;stroke:#800080;" x="507.973664" xlink:href="#m63711c3920" y="375.586437"/>
     <use style="fill:#800080;stroke:#800080;" x="524.178284" xlink:href="#m63711c3920" y="372.252019"/>
     <use style="fill:#800080;stroke:#800080;" x="531.521352" xlink:href="#m63711c3920" y="367.857339"/>
     <use style="fill:#800080;stroke:#800080;" x="538.775097" xlink:href="#m63711c3920" y="363.518052"/>
     <use style="fill:#800080;stroke:#800080;" x="546.010233" xlink:href="#m63711c3920" y="359.160157"/>
     <use style="fill:#800080;stroke:#800080;" x="561.753353" xlink:href="#m63711c3920" y="355.7803"/>
     <use style="fill:#800080;stroke:#800080;" x="569.401606" xlink:href="#m63711c3920" y="351.450534"/>
     <use style="fill:#800080;stroke:#800080;" x="576.848883" xlink:href="#m63711c3920" y="347.078357"/>
     <use style="fill:#800080;stroke:#800080;" x="584.180786" xlink:href="#m63711c3920" y="342.728251"/>
     <use style="fill:#800080;stroke:#800080;" x="599.536841" xlink:href="#m63711c3920" y="339.315504"/>
     <use style="fill:#800080;stroke:#800080;" x="607.445619" xlink:href="#m63711c3920" y="335.02209"/>
     <use style="fill:#800080;stroke:#800080;" x="614.848235" xlink:href="#m63711c3920" y="330.665925"/>
     <use style="fill:#800080;stroke:#800080;" x="634.767189" xlink:href="#m63711c3920" y="327.701951"/>
     <use style="fill:#800080;stroke:#800080;" x="642.445217" xlink:href="#m63711c3920" y="323.45138"/>
     <use style="fill:#800080;stroke:#800080;" x="649.795728" xlink:href="#m63711c3920" y="319.094783"/>
     <use style="fill:#800080;stroke:#800080;" x="657.123908" xlink:href="#m63711c3920" y="314.725635"/>
     <use style="fill:#800080;stroke:#800080;" x="674.474836" xlink:href="#m63711c3920" y="311.539655"/>
     <use style="fill:#800080;stroke:#800080;" x="682.111924" xlink:href="#m63711c3920" y="307.203397"/>
     <use style="fill:#800080;stroke:#800080;" x="689.499653" xlink:href="#m63711c3920" y="302.759815"/>
     <use style="fill:#800080;stroke:#800080;" x="697.248394" xlink:href="#m63711c3920" y="298.511841"/>
     <use style="fill:#800080;stroke:#800080;" x="712.358812" xlink:href="#m63711c3920" y="295.074859"/>
     <use style="fill:#800080;stroke:#800080;" x="719.887968" xlink:href="#m63711c3920" y="290.738169"/>
     <use style="fill:#800080;stroke:#800080;" x="727.42829" xlink:href="#m63711c3920" y="286.401479"/>
     <use style="fill:#800080;stroke:#800080;" x="741.384957" xlink:href="#m63711c3920" y="282.792258"/>
     <use style="fill:#800080;stroke:#800080;" x="754.504224" xlink:href="#m63711c3920" y="279.116826"/>
     <use style="fill:#800080;stroke:#800080;" x="761.843569" xlink:href="#m63711c3920" y="274.755901"/>
     <use style="fill:#800080;stroke:#800080;" x="769.06754" xlink:href="#m63711c3920" y="270.383724"/>
     <use style="fill:#800080;stroke:#800080;" x="787.412183" xlink:href="#m63711c3920" y="267.308098"/>
     <use style="fill:#800080;stroke:#800080;" x="795.533102" xlink:href="#m63711c3920" y="263.028964"/>
     <use style="fill:#800080;stroke:#800080;" x="802.935718" xlink:href="#m63711c3920" y="258.667607"/>
     <use style="fill:#800080;stroke:#800080;" x="822.51599" xlink:href="#m63711c3920" y="255.746475"/>
     <use style="fill:#800080;stroke:#800080;" x="830.048869" xlink:href="#m63711c3920" y="251.409352"/>
     <use style="fill:#800080;stroke:#800080;" x="837.302614" xlink:href="#m63711c3920" y="246.945431"/>
     <use style="fill:#800080;stroke:#800080;" x="844.355382" xlink:href="#m63711c3920" y="242.61653"/>
     <use style="fill:#800080;stroke:#800080;" x="862.409726" xlink:href="#m63711c3920" y="239.519698"/>
     <use style="fill:#800080;stroke:#800080;" x="869.976101" xlink:href="#m63711c3920" y="235.115064"/>
     <use style="fill:#800080;stroke:#800080;" x="877.661572" xlink:href="#m63711c3920" y="230.877909"/>
     <use style="fill:#800080;stroke:#800080;" x="885.600124" xlink:href="#m63711c3920" y="226.583629"/>
     <use style="fill:#800080;stroke:#800080;" x="900.271372" xlink:href="#m63711c3920" y="223.070482"/>
     <use style="fill:#800080;stroke:#800080;" x="907.878685" xlink:href="#m63711c3920" y="218.758459"/>
     <use style="fill:#800080;stroke:#800080;" x="915.352015" xlink:href="#m63711c3920" y="214.389745"/>
     <use style="fill:#800080;stroke:#800080;" x="935.483111" xlink:href="#m63711c3920" y="211.529632"/>
     <use style="fill:#800080;stroke:#800080;" x="943.172304" xlink:href="#m63711c3920" y="207.075664"/>
     <use style="fill:#800080;stroke:#800080;" x="950.682852" xlink:href="#m63711c3920" y="202.521295"/>
     <use style="fill:#800080;stroke:#800080;" x="958.07058" xlink:href="#m63711c3920" y="198.356411"/>
     <use style="fill:#800080;stroke:#800080;" x="975.481057" xlink:href="#m63711c3920" y="195.146196"/>
     <use style="fill:#800080;stroke:#800080;" x="982.950665" xlink:href="#m63711c3920" y="190.839799"/>
     <use style="fill:#800080;stroke:#800080;" x="990.353281" xlink:href="#m63711c3920" y="186.4845"/>
     <use style="fill:#800080;stroke:#800080;" x="1001.529779" xlink:href="#m63711c3920" y="182.558499"/>
     <use style="fill:#800080;stroke:#800080;" x="1017.905602" xlink:href="#m63711c3920" y="179.243556"/>
     <use style="fill:#800080;stroke:#800080;" x="1025.568742" xlink:href="#m63711c3920" y="174.945814"/>
     <use style="fill:#800080;stroke:#800080;" x="1032.941584" xlink:href="#m63711c3920" y="170.575368"/>
     <use style="fill:#800080;stroke:#800080;" x="1050.51954" xlink:href="#m63711c3920" y="167.388089"/>
     <use style="fill:#800080;stroke:#800080;" x="1058.402265" xlink:href="#m63711c3920" y="163.124103"/>
     <use style="fill:#800080;stroke:#800080;" x="1065.752777" xlink:href="#m63711c3920" y="158.734183"/>
     <use style="fill:#800080;stroke:#800080;" x="1085.373989" xlink:href="#m63711c3920" y="155.825602"/>
     <use style="fill:#800080;stroke:#800080;" x="1093.081791" xlink:href="#m63711c3920" y="151.455156"/>
     <use style="fill:#800080;stroke:#800080;" x="1100.320648" xlink:href="#m63711c3920" y="147.135344"/>
     <use style="fill:#800080;stroke:#800080;" x="1107.633942" xlink:href="#m63711c3920" y="142.779612"/>
     <use style="fill:#800080;stroke:#800080;" x="1125.617572" xlink:href="#m63711c3920" y="139.635609"/>
     <use style="fill:#800080;stroke:#800080;" x="1133.82037" xlink:href="#m63711c3920" y="135.395424"/>
     <use style="fill:#800080;stroke:#800080;" x="1141.330918" xlink:href="#m63711c3920" y="131.050512"/>
     <use style="fill:#800080;stroke:#800080;" x="1161.268481" xlink:href="#m63711c3920" y="128.154047"/>
     <use style="fill:#800080;stroke:#800080;" x="1169.05444" xlink:href="#m63711c3920" y="123.850247"/>
     <use style="fill:#800080;stroke:#800080;" x="1176.25608" xlink:href="#m63711c3920" y="119.462491"/>
     <use style="fill:#800080;stroke:#800080;" x="1183.409337" xlink:href="#m63711c3920" y="115.041413"/>
     <use style="fill:#800080;stroke:#800080;" x="1200.689551" xlink:href="#m63711c3920" y="111.86928"/>
     <use style="fill:#800080;stroke:#800080;" x="1207.850252" xlink:href="#m63711c3920" y="107.498402"/>
     <use style="fill:#800080;stroke:#800080;" x="1214.981178" xlink:href="#m63711c3920" y="103.101558"/>
     <use style="fill:#800080;stroke:#800080;" x="1222.205149" xlink:href="#m63711c3920" y="98.728516"/>
     <use style="fill:#800080;stroke:#800080;" x="1238.078531" xlink:href="#m63711c3920" y="95.341734"/>
     <use style="fill:#800080;stroke:#800080;" x="1245.272727" xlink:href="#m63711c3920" y="90.994225"/>
    </g>
   </g>
   <g id="line2d_14">
    <path clip-path="url(#pa12a843c1d)" d="M 230.727273 485.492248 
L 238.732817 482.365828 
L 249.838602 478.028666 
L 265.09789 472.069429 
L 272.113442 469.329633 
L 279.136436 466.586931 
L 297.309877 459.489624 
L 304.671553 456.614656 
L 311.850863 453.810907 
L 318.885023 451.063844 
L 335.625579 444.526125 
L 343.117518 441.600285 
L 350.468029 438.729676 
L 357.781322 435.873603 
L 373.814741 429.612043 
L 381.299236 426.68911 
L 388.653469 423.817048 
L 395.955597 420.965335 
L 411.333983 414.959587 
L 419.365579 411.822993 
L 426.935675 408.86663 
L 437.7065 404.660281 
L 453.058833 398.664707 
L 460.14882 395.895841 
L 467.164371 393.156046 
L 485.907244 385.836358 
L 493.384295 382.916332 
L 500.671536 380.070433 
L 507.973664 377.21872 
L 524.178284 370.8903 
L 531.521352 368.022599 
L 538.775097 365.189781 
L 546.010233 362.36423 
L 561.753353 356.216042 
L 569.401606 353.229156 
L 576.848883 350.320757 
L 584.180786 347.457416 
L 599.536841 341.460389 
L 607.445619 338.37176 
L 614.848235 335.480803 
L 634.767189 327.701818 
L 642.445217 324.703304 
L 649.795728 321.832696 
L 657.123908 318.970808 
L 674.474836 312.19472 
L 682.111924 309.212194 
L 689.499653 306.327051 
L 697.248394 303.300921 
L 712.358812 297.399823 
L 719.887968 294.459448 
L 727.42829 291.514713 
L 741.384957 286.064191 
L 754.504224 280.9407 
L 761.843569 278.074452 
L 769.06754 275.253262 
L 787.412183 268.089096 
L 795.533102 264.917619 
L 802.935718 262.026662 
L 822.51599 254.379943 
L 830.048869 251.438115 
L 837.302614 248.605297 
L 844.355382 245.850967 
L 862.409726 238.800171 
L 869.976101 235.845262 
L 877.661572 232.843841 
L 885.600124 229.743584 
L 900.271372 224.013995 
L 907.878685 221.043098 
L 915.352015 218.124525 
L 935.483111 210.262692 
L 943.172304 207.259818 
L 950.682852 204.32671 
L 958.07058 201.441567 
L 975.481057 194.642223 
L 982.950665 191.725103 
L 990.353281 188.834147 
L 1001.529779 184.469369 
L 1017.905602 178.07409 
L 1025.568742 175.08139 
L 1032.941584 172.202061 
L 1050.51954 165.33731 
L 1058.402265 162.258855 
L 1065.752777 159.388247 
L 1085.373989 151.72554 
L 1093.081791 148.715398 
L 1100.320648 145.888394 
L 1107.633942 143.032321 
L 1125.617572 136.009141 
L 1133.82037 132.805688 
L 1141.330918 129.87258 
L 1161.268481 122.086328 
L 1169.05444 119.045664 
L 1176.25608 116.233194 
L 1183.409337 113.43962 
L 1200.689551 106.691147 
L 1207.850252 103.894666 
L 1214.981178 101.109813 
L 1222.205149 98.288623 
L 1238.078531 92.089562 
L 1245.272727 89.28 
" style="fill:none;stroke:#0000ff;stroke-linecap:square;stroke-width:1.5;"/>
   </g>
   <g id="line2d_15">
    <path clip-path="url(#pa12a843c1d)" d="M 230.727273 492.48 
L 238.732817 492.471355 
L 249.838602 492.459362 
L 265.09789 492.442885 
L 272.113442 492.435309 
L 279.136436 492.427725 
L 297.309877 492.4081 
L 304.671553 492.40015 
L 311.850863 492.392398 
L 318.885023 492.384802 
L 335.625579 492.366724 
L 343.117518 492.358634 
L 350.468029 492.350697 
L 357.781322 492.342799 
L 373.814741 492.325485 
L 381.299236 492.317403 
L 388.653469 492.309462 
L 395.955597 492.301576 
L 411.333983 492.28497 
L 419.365579 492.276297 
L 426.935675 492.268122 
L 437.7065 492.256491 
L 453.058833 492.239913 
L 460.14882 492.232257 
L 467.164371 492.224681 
L 485.907244 492.204441 
L 493.384295 492.196367 
L 500.671536 492.188498 
L 507.973664 492.180613 
L 524.178284 492.163114 
L 531.521352 492.155184 
L 538.775097 492.147351 
L 546.010233 492.139538 
L 561.753353 492.122538 
L 569.401606 492.114279 
L 576.848883 492.106237 
L 584.180786 492.098319 
L 599.536841 492.081737 
L 607.445619 492.073197 
L 614.848235 492.065203 
L 634.767189 492.043693 
L 642.445217 492.035402 
L 649.795728 492.027464 
L 657.123908 492.019551 
L 674.474836 492.000814 
L 682.111924 491.992567 
L 689.499653 491.98459 
L 697.248394 491.976222 
L 712.358812 491.959905 
L 719.887968 491.951775 
L 727.42829 491.943632 
L 741.384957 491.928561 
L 754.504224 491.914394 
L 761.843569 491.906468 
L 769.06754 491.898667 
L 787.412183 491.878858 
L 795.533102 491.870088 
L 802.935718 491.862095 
L 822.51599 491.840951 
L 830.048869 491.832816 
L 837.302614 491.824983 
L 844.355382 491.817367 
L 862.409726 491.797871 
L 869.976101 491.7897 
L 877.661572 491.781401 
L 885.600124 491.772829 
L 900.271372 491.756986 
L 907.878685 491.748771 
L 915.352015 491.740701 
L 935.483111 491.718962 
L 943.172304 491.710659 
L 950.682852 491.702548 
L 958.07058 491.694571 
L 975.481057 491.67577 
L 982.950665 491.667703 
L 990.353281 491.65971 
L 1001.529779 491.647641 
L 1017.905602 491.629957 
L 1025.568742 491.621682 
L 1032.941584 491.61372 
L 1050.51954 491.594739 
L 1058.402265 491.586226 
L 1065.752777 491.578289 
L 1085.373989 491.557101 
L 1093.081791 491.548777 
L 1100.320648 491.54096 
L 1107.633942 491.533063 
L 1125.617572 491.513643 
L 1133.82037 491.504785 
L 1141.330918 491.496675 
L 1161.268481 491.475145 
L 1169.05444 491.466737 
L 1176.25608 491.458961 
L 1183.409337 491.451236 
L 1200.689551 491.432576 
L 1207.850252 491.424843 
L 1214.981178 491.417143 
L 1222.205149 491.409342 
L 1238.078531 491.392201 
L 1245.272727 491.384432 
" style="fill:none;stroke:#008000;stroke-linecap:square;stroke-width:1.5;"/>
    <defs>
     <path d="M 0 3 
C 0.795609 3 1.55874 2.683901 2.12132 2.12132 
C 2.683901 1.55874 3 0.795609 3 0 
C 3 -0.795609 2.683901 -1.55874 2.12132 -2.12132 
C 1.55874 -2.683901 0.795609 -3 0 -3 
C -0.795609 -3 -1.55874 -2.683901 -2.12132 -2.12132 
C -2.683901 -1.55874 -3 -0.795609 -3 0 
C -3 0.795609 -2.683901 1.55874 -2.12132 2.12132 
C -1.55874 2.683901 -0.795609 3 0 3 
z
" id="med8017a8eb" style="stroke:#008000;"/>
    </defs>
    <g clip-path="url(#pa12a843c1d)">
     <use style="fill:#008000;stroke:#008000;" x="230.727273" xlink:href="#med8017a8eb" y="492.48"/>
     <use style="fill:#008000;stroke:#008000;" x="238.732817" xlink:href="#med8017a8eb" y="492.471355"/>
     <use style="fill:#008000;stroke:#008000;" x="249.838602" xlink:href="#med8017a8eb" y="492.459362"/>
     <use style="fill:#008000;stroke:#008000;" x="265.09789" xlink:href="#med8017a8eb" y="492.442885"/>
     <use style="fill:#008000;stroke:#008000;" x="272.113442" xlink:href="#med8017a8eb" y="492.435309"/>
     <use style="fill:#008000;stroke:#008000;" x="279.136436" xlink:href="#med8017a8eb" y="492.427725"/>
     <use style="fill:#008000;stroke:#008000;" x="297.309877" xlink:href="#med8017a8eb" y="492.4081"/>
     <use style="fill:#008000;stroke:#008000;" x="304.671553" xlink:href="#med8017a8eb" y="492.40015"/>
     <use style="fill:#008000;stroke:#008000;" x="311.850863" xlink:href="#med8017a8eb" y="492.392398"/>
     <use style="fill:#008000;stroke:#008000;" x="318.885023" xlink:href="#med8017a8eb" y="492.384802"/>
     <use style="fill:#008000;stroke:#008000;" x="335.625579" xlink:href="#med8017a8eb" y="492.366724"/>
     <use style="fill:#008000;stroke:#008000;" x="343.117518" xlink:href="#med8017a8eb" y="492.358634"/>
     <use style="fill:#008000;stroke:#008000;" x="350.468029" xlink:href="#med8017a8eb" y="492.350697"/>
     <use style="fill:#008000;stroke:#008000;" x="357.781322" xlink:href="#med8017a8eb" y="492.342799"/>
     <use style="fill:#008000;stroke:#008000;" x="373.814741" xlink:href="#med8017a8eb" y="492.325485"/>
     <use style="fill:#008000;stroke:#008000;" x="381.299236" xlink:href="#med8017a8eb" y="492.317403"/>
     <use style="fill:#008000;stroke:#008000;" x="388.653469" xlink:href="#med8017a8eb" y="492.309462"/>
     <use style="fill:#008000;stroke:#008000;" x="395.955597" xlink:href="#med8017a8eb" y="492.301576"/>
     <use style="fill:#008000;stroke:#008000;" x="411.333983" xlink:href="#med8017a8eb" y="492.28497"/>
     <use style="fill:#008000;stroke:#008000;" x="419.365579" xlink:href="#med8017a8eb" y="492.276297"/>
     <use style="fill:#008000;stroke:#008000;" x="426.935675" xlink:href="#med8017a8eb" y="492.268122"/>
     <use style="fill:#008000;stroke:#008000;" x="437.7065" xlink:href="#med8017a8eb" y="492.256491"/>
     <use style="fill:#008000;stroke:#008000;" x="453.058833" xlink:href="#med8017a8eb" y="492.239913"/>
     <use style="fill:#008000;stroke:#008000;" x="460.14882" xlink:href="#med8017a8eb" y="492.232257"/>
     <use style="fill:#008000;stroke:#008000;" x="467.164371" xlink:href="#med8017a8eb" y="492.224681"/>
     <use style="fill:#008000;stroke:#008000;" x="485.907244" xlink:href="#med8017a8eb" y="492.204441"/>
     <use style="fill:#008000;stroke:#008000;" x="493.384295" xlink:href="#med8017a8eb" y="492.196367"/>
     <use style="fill:#008000;stroke:#008000;" x="500.671536" xlink:href="#med8017a8eb" y="492.188498"/>
     <use style="fill:#008000;stroke:#008000;" x="507.973664" xlink:href="#med8017a8eb" y="492.180613"/>
     <use style="fill:#008000;stroke:#008000;" x="524.178284" xlink:href="#med8017a8eb" y="492.163114"/>
     <use style="fill:#008000;stroke:#008000;" x="531.521352" xlink:href="#med8017a8eb" y="492.155184"/>
     <use style="fill:#008000;stroke:#008000;" x="538.775097" xlink:href="#med8017a8eb" y="492.147351"/>
     <use style="fill:#008000;stroke:#008000;" x="546.010233" xlink:href="#med8017a8eb" y="492.139538"/>
     <use style="fill:#008000;stroke:#008000;" x="561.753353" xlink:href="#med8017a8eb" y="492.122538"/>
     <use style="fill:#008000;stroke:#008000;" x="569.401606" xlink:href="#med8017a8eb" y="492.114279"/>
     <use style="fill:#008000;stroke:#008000;" x="576.848883" xlink:href="#med8017a8eb" y="492.106237"/>
     <use style="fill:#008000;stroke:#008000;" x="584.180786" xlink:href="#med8017a8eb" y="492.098319"/>
     <use style="fill:#008000;stroke:#008000;" x="599.536841" xlink:href="#med8017a8eb" y="492.081737"/>
     <use style="fill:#008000;stroke:#008000;" x="607.445619" xlink:href="#med8017a8eb" y="492.073197"/>
     <use style="fill:#008000;stroke:#008000;" x="614.848235" xlink:href="#med8017a8eb" y="492.065203"/>
     <use style="fill:#008000;stroke:#008000;" x="634.767189" xlink:href="#med8017a8eb" y="492.043693"/>
     <use style="fill:#008000;stroke:#008000;" x="642.445217" xlink:href="#med8017a8eb" y="492.035402"/>
     <use style="fill:#008000;stroke:#008000;" x="649.795728" xlink:href="#med8017a8eb" y="492.027464"/>
     <use style="fill:#008000;stroke:#008000;" x="657.123908" xlink:href="#med8017a8eb" y="492.019551"/>
     <use style="fill:#008000;stroke:#008000;" x="674.474836" xlink:href="#med8017a8eb" y="492.000814"/>
     <use style="fill:#008000;stroke:#008000;" x="682.111924" xlink:href="#med8017a8eb" y="491.992567"/>
     <use style="fill:#008000;stroke:#008000;" x="689.499653" xlink:href="#med8017a8eb" y="491.98459"/>
     <use style="fill:#008000;stroke:#008000;" x="697.248394" xlink:href="#med8017a8eb" y="491.976222"/>
     <use style="fill:#008000;stroke:#008000;" x="712.358812" xlink:href="#med8017a8eb" y="491.959905"/>
     <use style="fill:#008000;stroke:#008000;" x="719.887968" xlink:href="#med8017a8eb" y="491.951775"/>
     <use style="fill:#008000;stroke:#008000;" x="727.42829" xlink:href="#med8017a8eb" y="491.943632"/>
     <use style="fill:#008000;stroke:#008000;" x="741.384957" xlink:href="#med8017a8eb" y="491.928561"/>
     <use style="fill:#008000;stroke:#008000;" x="754.504224" xlink:href="#med8017a8eb" y="491.914394"/>
     <use style="fill:#008000;stroke:#008000;" x="761.843569" xlink:href="#med8017a8eb" y="491.906468"/>
     <use style="fill:#008000;stroke:#008000;" x="769.06754" xlink:href="#med8017a8eb" y="491.898667"/>
     <use style="fill:#008000;stroke:#008000;" x="787.412183" xlink:href="#med8017a8eb" y="491.878858"/>
     <use style="fill:#008000;stroke:#008000;" x="795.533102" xlink:href="#med8017a8eb" y="491.870088"/>
     <use style="fill:#008000;stroke:#008000;" x="802.935718" xlink:href="#med8017a8eb" y="491.862095"/>
     <use style="fill:#008000;stroke:#008000;" x="822.51599" xlink:href="#med8017a8eb" y="491.840951"/>
     <use style="fill:#008000;stroke:#008000;" x="830.048869" xlink:href="#med8017a8eb" y="491.832816"/>
     <use style="fill:#008000;stroke:#008000;" x="837.302614" xlink:href="#med8017a8eb" y="491.824983"/>
     <use style="fill:#008000;stroke:#008000;" x="844.355382" xlink:href="#med8017a8eb" y="491.817367"/>
     <use style="fill:#008000;stroke:#008000;" x="862.409726" xlink:href="#med8017a8eb" y="491.797871"/>
     <use style="fill:#008000;stroke:#008000;" x="869.976101" xlink:href="#med8017a8eb" y="491.7897"/>
     <use style="fill:#008000;stroke:#008000;" x="877.661572" xlink:href="#med8017a8eb" y="491.781401"/>
     <use style="fill:#008000;stroke:#008000;" x="885.600124" xlink:href="#med8017a8eb" y="491.772829"/>
     <use style="fill:#008000;stroke:#008000;" x="900.271372" xlink:href="#med8017a8eb" y="491.756986"/>
     <use style="fill:#008000;stroke:#008000;" x="907.878685" xlink:href="#med8017a8eb" y="491.748771"/>
     <use style="fill:#008000;stroke:#008000;" x="915.352015" xlink:href="#med8017a8eb" y="491.740701"/>
     <use style="fill:#008000;stroke:#008000;" x="935.483111" xlink:href="#med8017a8eb" y="491.718962"/>
     <use style="fill:#008000;stroke:#008000;" x="943.172304" xlink:href="#med8017a8eb" y="491.710659"/>
     <use style="fill:#008000;stroke:#008000;" x="950.682852" xlink:href="#med8017a8eb" y="491.702548"/>
     <use style="fill:#008000;stroke:#008000;" x="958.07058" xlink:href="#med8017a8eb" y="491.694571"/>
     <use style="fill:#008000;stroke:#008000;" x="975.481057" xlink:href="#med8017a8eb" y="491.67577"/>
     <use style="fill:#008000;stroke:#008000;" x="982.950665" xlink:href="#med8017a8eb" y="491.667703"/>
     <use style="fill:#008000;stroke:#008000;" x="990.353281" xlink:href="#med8017a8eb" y="491.65971"/>
     <use style="fill:#008000;stroke:#008000;" x="1001.529779" xlink:href="#med8017a8eb" y="491.647641"/>
     <use style="fill:#008000;stroke:#008000;" x="1017.905602" xlink:href="#med8017a8eb" y="491.629957"/>
     <use style="fill:#008000;stroke:#008000;" x="1025.568742" xlink:href="#med8017a8eb" y="491.621682"/>
     <use style="fill:#008000;stroke:#008000;" x="1032.941584" xlink:href="#med8017a8eb" y="491.61372"/>
     <use style="fill:#008000;stroke:#008000;" x="1050.51954" xlink:href="#med8017a8eb" y="491.594739"/>
     <use style="fill:#008000;stroke:#008000;" x="1058.402265" xlink:href="#med8017a8eb" y="491.586226"/>
     <use style="fill:#008000;stroke:#008000;" x="1065.752777" xlink:href="#med8017a8eb" y="491.578289"/>
     <use style="fill:#008000;stroke:#008000;" x="1085.373989" xlink:href="#med8017a8eb" y="491.557101"/>
     <use style="fill:#008000;stroke:#008000;" x="1093.081791" xlink:href="#med8017a8eb" y="491.548777"/>
     <use style="fill:#008000;stroke:#008000;" x="1100.320648" xlink:href="#med8017a8eb" y="491.54096"/>
     <use style="fill:#008000;stroke:#008000;" x="1107.633942" xlink:href="#med8017a8eb" y="491.533063"/>
     <use style="fill:#008000;stroke:#008000;" x="1125.617572" xlink:href="#med8017a8eb" y="491.513643"/>
     <use style="fill:#008000;stroke:#008000;" x="1133.82037" xlink:href="#med8017a8eb" y="491.504785"/>
     <use style="fill:#008000;stroke:#008000;" x="1141.330918" xlink:href="#med8017a8eb" y="491.496675"/>
     <use style="fill:#008000;stroke:#008000;" x="1161.268481" xlink:href="#med8017a8eb" y="491.475145"/>
     <use style="fill:#008000;stroke:#008000;" x="1169.05444" xlink:href="#med8017a8eb" y="491.466737"/>
     <use style="fill:#008000;stroke:#008000;" x="1176.25608" xlink:href="#med8017a8eb" y="491.458961"/>
     <use style="fill:#008000;stroke:#008000;" x="1183.409337" xlink:href="#med8017a8eb" y="491.451236"/>
     <use style="fill:#008000;stroke:#008000;" x="1200.689551" xlink:href="#med8017a8eb" y="491.432576"/>
     <use style="fill:#008000;stroke:#008000;" x="1207.850252" xlink:href="#med8017a8eb" y="491.424843"/>
     <use style="fill:#008000;stroke:#008000;" x="1214.981178" xlink:href="#med8017a8eb" y="491.417143"/>
     <use style="fill:#008000;stroke:#008000;" x="1222.205149" xlink:href="#med8017a8eb" y="491.409342"/>
     <use style="fill:#008000;stroke:#008000;" x="1238.078531" xlink:href="#med8017a8eb" y="491.392201"/>
     <use style="fill:#008000;stroke:#008000;" x="1245.272727" xlink:href="#med8017a8eb" y="491.384432"/>
    </g>
   </g>
   <g id="patch_3">
    <path d="M 180 512.64 
L 180 69.12 
" style="fill:none;stroke:#000000;stroke-linecap:square;stroke-linejoin:miter;stroke-width:0.8;"/>
   </g>
   <g id="patch_4">
    <path d="M 1296 512.64 
L 1296 69.12 
" style="fill:none;stroke:#000000;stroke-linecap:square;stroke-linejoin:miter;stroke-width:0.8;"/>
   </g>
   <g id="patch_5">
    <path d="M 180 512.64 
L 1296 512.64 
" style="fill:none;stroke:#000000;stroke-linecap:square;stroke-linejoin:miter;stroke-width:0.8;"/>
   </g>
   <g id="patch_6">
    <path d="M 180 69.12 
L 1296 69.12 
" style="fill:none;stroke:#000000;stroke-linecap:square;stroke-linejoin:miter;stroke-width:0.8;"/>
   </g>
   <g id="text_12">
    <!-- 5000000.0 bit/s -->
    <defs>
     <path id="DejaVuSans-20"/>
     <path d="M 48.6875 27.296875 
Q 48.6875 37.203125 44.609375 42.84375 
Q 40.53125 48.484375 33.40625 48.484375 
Q 26.265625 48.484375 22.1875 42.84375 
Q 18.109375 37.203125 18.109375 27.296875 
Q 18.109375 17.390625 22.1875 11.75 
Q 26.265625 6.109375 33.40625 6.109375 
Q 40.53125 6.109375 44.609375 11.75 
Q 48.6875 17.390625 48.6875 27.296875 
z
M 18.109375 46.390625 
Q 20.953125 51.265625 25.265625 53.625 
Q 29.59375 56 35.59375 56 
Q 45.5625 56 51.78125 48.09375 
Q 58.015625 40.1875 58.015625 27.296875 
Q 58.015625 14.40625 51.78125 6.484375 
Q 45.5625 -1.421875 35.59375 -1.421875 
Q 29.59375 -1.421875 25.265625 0.953125 
Q 20.953125 3.328125 18.109375 8.203125 
L 18.109375 0 
L 9.078125 0 
L 9.078125 75.984375 
L 18.109375 75.984375 
z
" id="DejaVuSans-62"/>
     <path d="M 9.421875 54.6875 
L 18.40625 54.6875 
L 18.40625 0 
L 9.421875 0 
z
M 9.421875 75.984375 
L 18.40625 75.984375 
L 18.40625 64.59375 
L 9.421875 64.59375 
z
" id="DejaVuSans-69"/>
     <path d="M 18.3125 70.21875 
L 18.3125 54.6875 
L 36.8125 54.6875 
L 36.8125 47.703125 
L 18.3125 47.703125 
L 18.3125 18.015625 
Q 18.3125 11.328125 20.140625 9.421875 
Q 21.96875 7.515625 27.59375 7.515625 
L 36.8125 7.515625 
L 36.8125 0 
L 27.59375 0 
Q 17.1875 0 13.234375 3.875 
Q 9.28125 7.765625 9.28125 18.015625 
L 9.28125 47.703125 
L 2.6875 47.703125 
L 2.6875 54.6875 
L 9.28125 54.6875 
L 9.28125 70.21875 
z
" id="DejaVuSans-74"/>
     <path d="M 25.390625 72.90625 
L 33.6875 72.90625 
L 8.296875 -9.28125 
L 0 -9.28125 
z
" id="DejaVuSans-2f"/>
     <path d="M 44.28125 53.078125 
L 44.28125 44.578125 
Q 40.484375 46.53125 36.375 47.5 
Q 32.28125 48.484375 27.875 48.484375 
Q 21.1875 48.484375 17.84375 46.4375 
Q 14.5 44.390625 14.5 40.28125 
Q 14.5 37.15625 16.890625 35.375 
Q 19.28125 33.59375 26.515625 31.984375 
L 29.59375 31.296875 
Q 39.15625 29.25 43.1875 25.515625 
Q 47.21875 21.78125 47.21875 15.09375 
Q 47.21875 7.46875 41.1875 3.015625 
Q 35.15625 -1.421875 24.609375 -1.421875 
Q 20.21875 -1.421875 15.453125 -0.5625 
Q 10.6875 0.296875 5.421875 2 
L 5.421875 11.28125 
Q 10.40625 8.6875 15.234375 7.390625 
Q 20.0625 6.109375 24.8125 6.109375 
Q 31.15625 6.109375 34.5625 8.28125 
Q 37.984375 10.453125 37.984375 14.40625 
Q 37.984375 18.0625 35.515625 20.015625 
Q 33.0625 21.96875 24.703125 23.78125 
L 21.578125 24.515625 
Q 13.234375 26.265625 9.515625 29.90625 
Q 5.8125 33.546875 5.8125 39.890625 
Q 5.8125 47.609375 11.28125 51.796875 
Q 16.75 56 26.8125 56 
Q 31.78125 56 36.171875 55.265625 
Q 40.578125 54.546875 44.28125 53.078125 
z
" id="DejaVuSans-73"/>
    </defs>
    <g transform="translate(690.67125 63.12)scale(0.12 -0.12)">
     <use xlink:href="#DejaVuSans-35"/>
     <use x="63.623047" xlink:href="#DejaVuSans-30"/>
     <use x="127.246094" xlink:href="#DejaVuSans-30"/>
     <use x="190.869141" xlink:href="#DejaVuSans-30"/>
     <use x="254.492188" xlink:href="#DejaVuSans-30"/>
     <use x="318.115234" xlink:href="#DejaVuSans-30"/>
     <use x="381.738281" xlink:href="#DejaVuSans-30"/>
     <use x="445.361328" xlink:href="#DejaVuSans-2e"/>
     <use x="477.148438" xlink:href="#DejaVuSans-30"/>
     <use x="540.771484" xlink:href="#DejaVuSans-20"/>
     <use x="572.558594" xlink:href="#DejaVuSans-62"/>
     <use x="636.035156" xlink:href="#DejaVuSans-69"/>
     <use x="663.818359" xlink:href="#DejaVuSans-74"/>
     <use x="703.027344" xlink:href="#DejaVuSans-2f"/>
     <use x="736.71875" xlink:href="#DejaVuSans-73"/>
    </g>
   </g>
   <g id="legend_1">
    <g id="patch_7">
     <path d="M 1173.520313 135.8325 
L 1289 135.8325 
Q 1291 135.8325 1291 133.8325 
L 1291 76.12 
Q 1291 74.12 1289 74.12 
L 1173.520313 74.12 
Q 1171.520313 74.12 1171.520313 76.12 
L 1171.520313 133.8325 
Q 1171.520313 135.8325 1173.520313 135.8325 
z
" style="fill:#ffffff;opacity:0.8;stroke:#cccccc;stroke-linejoin:miter;"/>
    </g>
    <g id="line2d_16">
     <path d="M 1175.520313 82.218437 
L 1195.520313 82.218437 
" style="fill:none;stroke:#ff0000;stroke-dasharray:5.55,2.4;stroke-dashoffset:0;stroke-width:1.5;"/>
    </g>
    <g id="line2d_17">
     <g>
      <use style="fill:#ff0000;stroke:#ff0000;stroke-linejoin:miter;" x="1185.520313" xlink:href="#m0c66d99488" y="82.218437"/>
     </g>
    </g>
    <g id="text_13">
     <!-- tcpdump -->
     <defs>
      <path d="M 48.78125 52.59375 
L 48.78125 44.1875 
Q 44.96875 46.296875 41.140625 47.34375 
Q 37.3125 48.390625 33.40625 48.390625 
Q 24.65625 48.390625 19.8125 42.84375 
Q 14.984375 37.3125 14.984375 27.296875 
Q 14.984375 17.28125 19.8125 11.734375 
Q 24.65625 6.203125 33.40625 6.203125 
Q 37.3125 6.203125 41.140625 7.25 
Q 44.96875 8.296875 48.78125 10.40625 
L 48.78125 2.09375 
Q 45.015625 0.34375 40.984375 -0.53125 
Q 36.96875 -1.421875 32.421875 -1.421875 
Q 20.0625 -1.421875 12.78125 6.34375 
Q 5.515625 14.109375 5.515625 27.296875 
Q 5.515625 40.671875 12.859375 48.328125 
Q 20.21875 56 33.015625 56 
Q 37.15625 56 41.109375 55.140625 
Q 45.0625 54.296875 48.78125 52.59375 
z
" id="DejaVuSans-63"/>
      <path d="M 18.109375 8.203125 
L 18.109375 -20.796875 
L 9.078125 -20.796875 
L 9.078125 54.6875 
L 18.109375 54.6875 
L 18.109375 46.390625 
Q 20.953125 51.265625 25.265625 53.625 
Q 29.59375 56 35.59375 56 
Q 45.5625 56 51.78125 48.09375 
Q 58.015625 40.1875 58.015625 27.296875 
Q 58.015625 14.40625 51.78125 6.484375 
Q 45.5625 -1.421875 35.59375 -1.421875 
Q 29.59375 -1.421875 25.265625 0.953125 
Q 20.953125 3.328125 18.109375 8.203125 
z
M 48.6875 27.296875 
Q 48.6875 37.203125 44.609375 42.84375 
Q 40.53125 48.484375 33.40625 48.484375 
Q 26.265625 48.484375 22.1875 42.84375 
Q 18.109375 37.203125 18.109375 27.296875 
Q 18.109375 17.390625 22.1875 11.75 
Q 26.265625 6.109375 33.40625 6.109375 
Q 40.53125 6.109375 44.609375 11.75 
Q 48.6875 17.390625 48.6875 27.296875 
z
" id="DejaVuSans-70"/>
      <path d="M 45.40625 46.390625 
L 45.40625 75.984375 
L 54.390625 75.984375 
L 54.390625 0 
L 45.40625 0 
L 45.40625 8.203125 
Q 42.578125 3.328125 38.25 0.953125 
Q 33.9375 -1.421875 27.875 -1.421875 
Q 17.96875 -1.421875 11.734375 6.484375 
Q 5.515625 14.40625 5.515625 27.296875 
Q 5.515625 40.1875 11.734375 48.09375 
Q 17.96875 56 27.875 56 
Q 33.9375 56 38.25 53.625 
Q 42.578125 51.265625 45.40625 46.390625 
z
M 14.796875 27.296875 
Q 14.796875 17.390625 18.875 11.75 
Q 22.953125 6.109375 30.078125 6.109375 
Q 37.203125 6.109375 41.296875 11.75 
Q 45.40625 17.390625 45.40625 27.296875 
Q 45.40625 37.203125 41.296875 42.84375 
Q 37.203125 48.484375 30.078125 48.484375 
Q 22.953125 48.484375 18.875 42.84375 
Q 14.796875 37.203125 14.796875 27.296875 
z
" id="DejaVuSans-64"/>
      <path d="M 8.5 21.578125 
L 8.5 54.6875 
L 17.484375 54.6875 
L 17.484375 21.921875 
Q 17.484375 14.15625 20.5 10.265625 
Q 23.53125 6.390625 29.59375 6.390625 
Q 36.859375 6.390625 41.078125 11.03125 
Q 45.3125 15.671875 45.3125 23.6875 
L 45.3125 54.6875 
L 54.296875 54.6875 
L 54.296875 0 
L 45.3125 0 
L 45.3125 8.40625 
Q 42.046875 3.421875 37.71875 1 
Q 33.40625 -1.421875 27.6875 -1.421875 
Q 18.265625 -1.421875 13.375 4.4375 
Q 8.5 10.296875 8.5 21.578125 
z
M 31.109375 56 
z
" id="DejaVuSans-75"/>
      <path d="M 52 44.1875 
Q 55.375 50.25 60.0625 53.125 
Q 64.75 56 71.09375 56 
Q 79.640625 56 84.28125 50.015625 
Q 88.921875 44.046875 88.921875 33.015625 
L 88.921875 0 
L 79.890625 0 
L 79.890625 32.71875 
Q 79.890625 40.578125 77.09375 44.375 
Q 74.3125 48.1875 68.609375 48.1875 
Q 61.625 48.1875 57.5625 43.546875 
Q 53.515625 38.921875 53.515625 30.90625 
L 53.515625 0 
L 44.484375 0 
L 44.484375 32.71875 
Q 44.484375 40.625 41.703125 44.40625 
Q 38.921875 48.1875 33.109375 48.1875 
Q 26.21875 48.1875 22.15625 43.53125 
Q 18.109375 38.875 18.109375 30.90625 
L 18.109375 0 
L 9.078125 0 
L 9.078125 54.6875 
L 18.109375 54.6875 
L 18.109375 46.1875 
Q 21.1875 51.21875 25.484375 53.609375 
Q 29.78125 56 35.6875 56 
Q 41.65625 56 45.828125 52.96875 
Q 50 49.953125 52 44.1875 
z
" id="DejaVuSans-6d"/>
     </defs>
     <g transform="translate(1203.520313 85.718437)scale(0.1 -0.1)">
      <use xlink:href="#DejaVuSans-74"/>
      <use x="39.208984" xlink:href="#DejaVuSans-63"/>
      <use x="94.189453" xlink:href="#DejaVuSans-70"/>
      <use x="157.666016" xlink:href="#DejaVuSans-64"/>
      <use x="221.142578" xlink:href="#DejaVuSans-75"/>
      <use x="284.521484" xlink:href="#DejaVuSans-6d"/>
      <use x="381.933594" xlink:href="#DejaVuSans-70"/>
     </g>
    </g>
    <g id="line2d_18">
     <path d="M 1175.520313 96.896563 
L 1195.520313 96.896563 
" style="fill:none;stroke:#800080;stroke-dasharray:9.6,2.4,1.5,2.4;stroke-dashoffset:0;stroke-width:1.5;"/>
    </g>
    <g id="line2d_19">
     <g>
      <use style="fill:#800080;stroke:#800080;" x="1185.520313" xlink:href="#m63711c3920" y="96.896563"/>
     </g>
    </g>
    <g id="text_14">
     <!-- filtered tcpdump -->
     <defs>
      <path d="M 37.109375 75.984375 
L 37.109375 68.5 
L 28.515625 68.5 
Q 23.6875 68.5 21.796875 66.546875 
Q 19.921875 64.59375 19.921875 59.515625 
L 19.921875 54.6875 
L 34.71875 54.6875 
L 34.71875 47.703125 
L 19.921875 47.703125 
L 19.921875 0 
L 10.890625 0 
L 10.890625 47.703125 
L 2.296875 47.703125 
L 2.296875 54.6875 
L 10.890625 54.6875 
L 10.890625 58.5 
Q 10.890625 67.625 15.140625 71.796875 
Q 19.390625 75.984375 28.609375 75.984375 
z
" id="DejaVuSans-66"/>
      <path d="M 9.421875 75.984375 
L 18.40625 75.984375 
L 18.40625 0 
L 9.421875 0 
z
" id="DejaVuSans-6c"/>
      <path d="M 56.203125 29.59375 
L 56.203125 25.203125 
L 14.890625 25.203125 
Q 15.484375 15.921875 20.484375 11.0625 
Q 25.484375 6.203125 34.421875 6.203125 
Q 39.59375 6.203125 44.453125 7.46875 
Q 49.3125 8.734375 54.109375 11.28125 
L 54.109375 2.78125 
Q 49.265625 0.734375 44.1875 -0.34375 
Q 39.109375 -1.421875 33.890625 -1.421875 
Q 20.796875 -1.421875 13.15625 6.1875 
Q 5.515625 13.8125 5.515625 26.8125 
Q 5.515625 40.234375 12.765625 48.109375 
Q 20.015625 56 32.328125 56 
Q 43.359375 56 49.78125 48.890625 
Q 56.203125 41.796875 56.203125 29.59375 
z
M 47.21875 32.234375 
Q 47.125 39.59375 43.09375 43.984375 
Q 39.0625 48.390625 32.421875 48.390625 
Q 24.90625 48.390625 20.390625 44.140625 
Q 15.875 39.890625 15.1875 32.171875 
z
" id="DejaVuSans-65"/>
      <path d="M 41.109375 46.296875 
Q 39.59375 47.171875 37.8125 47.578125 
Q 36.03125 48 33.890625 48 
Q 26.265625 48 22.1875 43.046875 
Q 18.109375 38.09375 18.109375 28.8125 
L 18.109375 0 
L 9.078125 0 
L 9.078125 54.6875 
L 18.109375 54.6875 
L 18.109375 46.1875 
Q 20.953125 51.171875 25.484375 53.578125 
Q 30.03125 56 36.53125 56 
Q 37.453125 56 38.578125 55.875 
Q 39.703125 55.765625 41.0625 55.515625 
z
" id="DejaVuSans-72"/>
     </defs>
     <g transform="translate(1203.520313 100.396563)scale(0.1 -0.1)">
      <use xlink:href="#DejaVuSans-66"/>
      <use x="35.205078" xlink:href="#DejaVuSans-69"/>
      <use x="62.988281" xlink:href="#DejaVuSans-6c"/>
      <use x="90.771484" xlink:href="#DejaVuSans-74"/>
      <use x="129.980469" xlink:href="#DejaVuSans-65"/>
      <use x="191.503906" xlink:href="#DejaVuSans-72"/>
      <use x="232.585938" xlink:href="#DejaVuSans-65"/>
      <use x="294.109375" xlink:href="#DejaVuSans-64"/>
      <use x="357.585938" xlink:href="#DejaVuSans-20"/>
      <use x="389.373047" xlink:href="#DejaVuSans-74"/>
      <use x="428.582031" xlink:href="#DejaVuSans-63"/>
      <use x="483.5625" xlink:href="#DejaVuSans-70"/>
      <use x="547.039062" xlink:href="#DejaVuSans-64"/>
      <use x="610.515625" xlink:href="#DejaVuSans-75"/>
      <use x="673.894531" xlink:href="#DejaVuSans-6d"/>
      <use x="771.306641" xlink:href="#DejaVuSans-70"/>
     </g>
    </g>
    <g id="line2d_20">
     <path d="M 1175.520313 111.574687 
L 1195.520313 111.574687 
" style="fill:none;stroke:#0000ff;stroke-linecap:square;stroke-width:1.5;"/>
    </g>
    <g id="line2d_21"/>
    <g id="text_15">
     <!-- OLS -->
     <defs>
      <path d="M 39.40625 66.21875 
Q 28.65625 66.21875 22.328125 58.203125 
Q 16.015625 50.203125 16.015625 36.375 
Q 16.015625 22.609375 22.328125 14.59375 
Q 28.65625 6.59375 39.40625 6.59375 
Q 50.140625 6.59375 56.421875 14.59375 
Q 62.703125 22.609375 62.703125 36.375 
Q 62.703125 50.203125 56.421875 58.203125 
Q 50.140625 66.21875 39.40625 66.21875 
z
M 39.40625 74.21875 
Q 54.734375 74.21875 63.90625 63.9375 
Q 73.09375 53.65625 73.09375 36.375 
Q 73.09375 19.140625 63.90625 8.859375 
Q 54.734375 -1.421875 39.40625 -1.421875 
Q 24.03125 -1.421875 14.8125 8.828125 
Q 5.609375 19.09375 5.609375 36.375 
Q 5.609375 53.65625 14.8125 63.9375 
Q 24.03125 74.21875 39.40625 74.21875 
z
" id="DejaVuSans-4f"/>
      <path d="M 9.8125 72.90625 
L 19.671875 72.90625 
L 19.671875 8.296875 
L 55.171875 8.296875 
L 55.171875 0 
L 9.8125 0 
z
" id="DejaVuSans-4c"/>
      <path d="M 53.515625 70.515625 
L 53.515625 60.890625 
Q 47.90625 63.578125 42.921875 64.890625 
Q 37.9375 66.21875 33.296875 66.21875 
Q 25.25 66.21875 20.875 63.09375 
Q 16.5 59.96875 16.5 54.203125 
Q 16.5 49.359375 19.40625 46.890625 
Q 22.3125 44.4375 30.421875 42.921875 
L 36.375 41.703125 
Q 47.40625 39.59375 52.65625 34.296875 
Q 57.90625 29 57.90625 20.125 
Q 57.90625 9.515625 50.796875 4.046875 
Q 43.703125 -1.421875 29.984375 -1.421875 
Q 24.8125 -1.421875 18.96875 -0.25 
Q 13.140625 0.921875 6.890625 3.21875 
L 6.890625 13.375 
Q 12.890625 10.015625 18.65625 8.296875 
Q 24.421875 6.59375 29.984375 6.59375 
Q 38.421875 6.59375 43.015625 9.90625 
Q 47.609375 13.234375 47.609375 19.390625 
Q 47.609375 24.75 44.3125 27.78125 
Q 41.015625 30.8125 33.5 32.328125 
L 27.484375 33.5 
Q 16.453125 35.6875 11.515625 40.375 
Q 6.59375 45.0625 6.59375 53.421875 
Q 6.59375 63.09375 13.40625 68.65625 
Q 20.21875 74.21875 32.171875 74.21875 
Q 37.3125 74.21875 42.625 73.28125 
Q 47.953125 72.359375 53.515625 70.515625 
z
" id="DejaVuSans-53"/>
     </defs>
     <g transform="translate(1203.520313 115.074687)scale(0.1 -0.1)">
      <use xlink:href="#DejaVuSans-4f"/>
      <use x="78.710938" xlink:href="#DejaVuSans-4c"/>
      <use x="134.423828" xlink:href="#DejaVuSans-53"/>
     </g>
    </g>
    <g id="line2d_22">
     <path d="M 1175.520313 126.252813 
L 1195.520313 126.252813 
" style="fill:none;stroke:#008000;stroke-linecap:square;stroke-width:1.5;"/>
    </g>
    <g id="line2d_23">
     <g>
      <use style="fill:#008000;stroke:#008000;" x="1185.520313" xlink:href="#med8017a8eb" y="126.252813"/>
     </g>
    </g>
    <g id="text_16">
     <!-- IRLS -->
     <defs>
      <path d="M 9.8125 72.90625 
L 19.671875 72.90625 
L 19.671875 0 
L 9.8125 0 
z
" id="DejaVuSans-49"/>
      <path d="M 44.390625 34.1875 
Q 47.5625 33.109375 50.5625 29.59375 
Q 53.5625 26.078125 56.59375 19.921875 
L 66.609375 0 
L 56 0 
L 46.6875 18.703125 
Q 43.0625 26.03125 39.671875 28.421875 
Q 36.28125 30.8125 30.421875 30.8125 
L 19.671875 30.8125 
L 19.671875 0 
L 9.8125 0 
L 9.8125 72.90625 
L 32.078125 72.90625 
Q 44.578125 72.90625 50.734375 67.671875 
Q 56.890625 62.453125 56.890625 51.90625 
Q 56.890625 45.015625 53.6875 40.46875 
Q 50.484375 35.9375 44.390625 34.1875 
z
M 19.671875 64.796875 
L 19.671875 38.921875 
L 32.078125 38.921875 
Q 39.203125 38.921875 42.84375 42.21875 
Q 46.484375 45.515625 46.484375 51.90625 
Q 46.484375 58.296875 42.84375 61.546875 
Q 39.203125 64.796875 32.078125 64.796875 
z
" id="DejaVuSans-52"/>
     </defs>
     <g transform="translate(1203.520313 129.752813)scale(0.1 -0.1)">
      <use xlink:href="#DejaVuSans-49"/>
      <use x="29.492188" xlink:href="#DejaVuSans-52"/>
      <use x="98.974609" xlink:href="#DejaVuSans-4c"/>
      <use x="154.6875" xlink:href="#DejaVuSans-53"/>
     </g>
    </g>
   </g>
  </g>
 </g>
 <defs>
  <clipPath id="pa12a843c1d">
   <rect height="443.52" width="1116" x="180" y="69.12"/>
  </clipPath>
 </defs>
</svg>
