<?xml version="1.0" encoding="utf-8" standalone="no"?>
<!DOCTYPE svg PUBLIC "-//W3C//DTD SVG 1.1//EN"
  "http://www.w3.org/Graphics/SVG/1.1/DTD/svg11.dtd">
<!-- Created with matplotlib (http://matplotlib.org/) -->
<svg height="576pt" version="1.1" viewBox="0 0 1440 576" width="1440pt" xmlns="http://www.w3.org/2000/svg" xmlns:xlink="http://www.w3.org/1999/xlink">
 <defs>
  <style type="text/css">
*{stroke-linecap:butt;stroke-linejoin:round;}
  </style>
 </defs>
 <g id="figure_1">
  <g id="patch_1">
   <path d="M 0 576 
L 1440 576 
L 1440 0 
L 0 0 
z
" style="fill:#ffffff;"/>
  </g>
  <g id="axes_1">
   <g id="patch_2">
    <path d="M 180 512.64 
L 1296 512.64 
L 1296 69.12 
L 180 69.12 
z
" style="fill:#ffffff;"/>
   </g>
   <g id="matplotlib.axis_1">
    <g id="xtick_1">
     <g id="line2d_1">
      <defs>
       <path d="M 0 0 
L 0 3.5 
" id="m1a11533c5a" style="stroke:#000000;stroke-width:0.8;"/>
      </defs>
      <g>
       <use style="stroke:#000000;stroke-width:0.8;" x="230.727273" xlink:href="#m1a11533c5a" y="512.64"/>
      </g>
     </g>
     <g id="text_1">
      <!-- 0.0 -->
      <defs>
       <path d="M 31.78125 66.40625 
Q 24.171875 66.40625 20.328125 58.90625 
Q 16.5 51.421875 16.5 36.375 
Q 16.5 21.390625 20.328125 13.890625 
Q 24.171875 6.390625 31.78125 6.390625 
Q 39.453125 6.390625 43.28125 13.890625 
Q 47.125 21.390625 47.125 36.375 
Q 47.125 51.421875 43.28125 58.90625 
Q 39.453125 66.40625 31.78125 66.40625 
z
M 31.78125 74.21875 
Q 44.046875 74.21875 50.515625 64.515625 
Q 56.984375 54.828125 56.984375 36.375 
Q 56.984375 17.96875 50.515625 8.265625 
Q 44.046875 -1.421875 31.78125 -1.421875 
Q 19.53125 -1.421875 13.0625 8.265625 
Q 6.59375 17.96875 6.59375 36.375 
Q 6.59375 54.828125 13.0625 64.515625 
Q 19.53125 74.21875 31.78125 74.21875 
z
" id="DejaVuSans-30"/>
       <path d="M 10.6875 12.40625 
L 21 12.40625 
L 21 0 
L 10.6875 0 
z
" id="DejaVuSans-2e"/>
      </defs>
      <g transform="translate(222.77571 527.238438)scale(0.1 -0.1)">
       <use xlink:href="#DejaVuSans-30"/>
       <use x="63.623047" xlink:href="#DejaVuSans-2e"/>
       <use x="95.410156" xlink:href="#DejaVuSans-30"/>
      </g>
     </g>
    </g>
    <g id="xtick_2">
     <g id="line2d_2">
      <g>
       <use style="stroke:#000000;stroke-width:0.8;" x="382.886305" xlink:href="#m1a11533c5a" y="512.64"/>
      </g>
     </g>
     <g id="text_2">
      <!-- 0.2 -->
      <defs>
       <path d="M 19.1875 8.296875 
L 53.609375 8.296875 
L 53.609375 0 
L 7.328125 0 
L 7.328125 8.296875 
Q 12.9375 14.109375 22.625 23.890625 
Q 32.328125 33.6875 34.8125 36.53125 
Q 39.546875 41.84375 41.421875 45.53125 
Q 43.3125 49.21875 43.3125 52.78125 
Q 43.3125 58.59375 39.234375 62.25 
Q 35.15625 65.921875 28.609375 65.921875 
Q 23.96875 65.921875 18.8125 64.3125 
Q 13.671875 62.703125 7.8125 59.421875 
L 7.8125 69.390625 
Q 13.765625 71.78125 18.9375 73 
Q 24.125 74.21875 28.421875 74.21875 
Q 39.75 74.21875 46.484375 68.546875 
Q 53.21875 62.890625 53.21875 53.421875 
Q 53.21875 48.921875 51.53125 44.890625 
Q 49.859375 40.875 45.40625 35.40625 
Q 44.1875 33.984375 37.640625 27.21875 
Q 31.109375 20.453125 19.1875 8.296875 
z
" id="DejaVuSans-32"/>
      </defs>
      <g transform="translate(374.934743 527.238438)scale(0.1 -0.1)">
       <use xlink:href="#DejaVuSans-30"/>
       <use x="63.623047" xlink:href="#DejaVuSans-2e"/>
       <use x="95.410156" xlink:href="#DejaVuSans-32"/>
      </g>
     </g>
    </g>
    <g id="xtick_3">
     <g id="line2d_3">
      <g>
       <use style="stroke:#000000;stroke-width:0.8;" x="535.045337" xlink:href="#m1a11533c5a" y="512.64"/>
      </g>
     </g>
     <g id="text_3">
      <!-- 0.4 -->
      <defs>
       <path d="M 37.796875 64.3125 
L 12.890625 25.390625 
L 37.796875 25.390625 
z
M 35.203125 72.90625 
L 47.609375 72.90625 
L 47.609375 25.390625 
L 58.015625 25.390625 
L 58.015625 17.1875 
L 47.609375 17.1875 
L 47.609375 0 
L 37.796875 0 
L 37.796875 17.1875 
L 4.890625 17.1875 
L 4.890625 26.703125 
z
" id="DejaVuSans-34"/>
      </defs>
      <g transform="translate(527.093775 527.238438)scale(0.1 -0.1)">
       <use xlink:href="#DejaVuSans-30"/>
       <use x="63.623047" xlink:href="#DejaVuSans-2e"/>
       <use x="95.410156" xlink:href="#DejaVuSans-34"/>
      </g>
     </g>
    </g>
    <g id="xtick_4">
     <g id="line2d_4">
      <g>
       <use style="stroke:#000000;stroke-width:0.8;" x="687.20437" xlink:href="#m1a11533c5a" y="512.64"/>
      </g>
     </g>
     <g id="text_4">
      <!-- 0.6 -->
      <defs>
       <path d="M 33.015625 40.375 
Q 26.375 40.375 22.484375 35.828125 
Q 18.609375 31.296875 18.609375 23.390625 
Q 18.609375 15.53125 22.484375 10.953125 
Q 26.375 6.390625 33.015625 6.390625 
Q 39.65625 6.390625 43.53125 10.953125 
Q 47.40625 15.53125 47.40625 23.390625 
Q 47.40625 31.296875 43.53125 35.828125 
Q 39.65625 40.375 33.015625 40.375 
z
M 52.59375 71.296875 
L 52.59375 62.3125 
Q 48.875 64.0625 45.09375 64.984375 
Q 41.3125 65.921875 37.59375 65.921875 
Q 27.828125 65.921875 22.671875 59.328125 
Q 17.53125 52.734375 16.796875 39.40625 
Q 19.671875 43.65625 24.015625 45.921875 
Q 28.375 48.1875 33.59375 48.1875 
Q 44.578125 48.1875 50.953125 41.515625 
Q 57.328125 34.859375 57.328125 23.390625 
Q 57.328125 12.15625 50.6875 5.359375 
Q 44.046875 -1.421875 33.015625 -1.421875 
Q 20.359375 -1.421875 13.671875 8.265625 
Q 6.984375 17.96875 6.984375 36.375 
Q 6.984375 53.65625 15.1875 63.9375 
Q 23.390625 74.21875 37.203125 74.21875 
Q 40.921875 74.21875 44.703125 73.484375 
Q 48.484375 72.75 52.59375 71.296875 
z
" id="DejaVuSans-36"/>
      </defs>
      <g transform="translate(679.252807 527.238438)scale(0.1 -0.1)">
       <use xlink:href="#DejaVuSans-30"/>
       <use x="63.623047" xlink:href="#DejaVuSans-2e"/>
       <use x="95.410156" xlink:href="#DejaVuSans-36"/>
      </g>
     </g>
    </g>
    <g id="xtick_5">
     <g id="line2d_5">
      <g>
       <use style="stroke:#000000;stroke-width:0.8;" x="839.363402" xlink:href="#m1a11533c5a" y="512.64"/>
      </g>
     </g>
     <g id="text_5">
      <!-- 0.8 -->
      <defs>
       <path d="M 31.78125 34.625 
Q 24.75 34.625 20.71875 30.859375 
Q 16.703125 27.09375 16.703125 20.515625 
Q 16.703125 13.921875 20.71875 10.15625 
Q 24.75 6.390625 31.78125 6.390625 
Q 38.8125 6.390625 42.859375 10.171875 
Q 46.921875 13.96875 46.921875 20.515625 
Q 46.921875 27.09375 42.890625 30.859375 
Q 38.875 34.625 31.78125 34.625 
z
M 21.921875 38.8125 
Q 15.578125 40.375 12.03125 44.71875 
Q 8.5 49.078125 8.5 55.328125 
Q 8.5 64.0625 14.71875 69.140625 
Q 20.953125 74.21875 31.78125 74.21875 
Q 42.671875 74.21875 48.875 69.140625 
Q 55.078125 64.0625 55.078125 55.328125 
Q 55.078125 49.078125 51.53125 44.71875 
Q 48 40.375 41.703125 38.8125 
Q 48.828125 37.15625 52.796875 32.3125 
Q 56.78125 27.484375 56.78125 20.515625 
Q 56.78125 9.90625 50.3125 4.234375 
Q 43.84375 -1.421875 31.78125 -1.421875 
Q 19.734375 -1.421875 13.25 4.234375 
Q 6.78125 9.90625 6.78125 20.515625 
Q 6.78125 27.484375 10.78125 32.3125 
Q 14.796875 37.15625 21.921875 38.8125 
z
M 18.3125 54.390625 
Q 18.3125 48.734375 21.84375 45.5625 
Q 25.390625 42.390625 31.78125 42.390625 
Q 38.140625 42.390625 41.71875 45.5625 
Q 45.3125 48.734375 45.3125 54.390625 
Q 45.3125 60.0625 41.71875 63.234375 
Q 38.140625 66.40625 31.78125 66.40625 
Q 25.390625 66.40625 21.84375 63.234375 
Q 18.3125 60.0625 18.3125 54.390625 
z
" id="DejaVuSans-38"/>
      </defs>
      <g transform="translate(831.41184 527.238438)scale(0.1 -0.1)">
       <use xlink:href="#DejaVuSans-30"/>
       <use x="63.623047" xlink:href="#DejaVuSans-2e"/>
       <use x="95.410156" xlink:href="#DejaVuSans-38"/>
      </g>
     </g>
    </g>
    <g id="xtick_6">
     <g id="line2d_6">
      <g>
       <use style="stroke:#000000;stroke-width:0.8;" x="991.522435" xlink:href="#m1a11533c5a" y="512.64"/>
      </g>
     </g>
     <g id="text_6">
      <!-- 1.0 -->
      <defs>
       <path d="M 12.40625 8.296875 
L 28.515625 8.296875 
L 28.515625 63.921875 
L 10.984375 60.40625 
L 10.984375 69.390625 
L 28.421875 72.90625 
L 38.28125 72.90625 
L 38.28125 8.296875 
L 54.390625 8.296875 
L 54.390625 0 
L 12.40625 0 
z
" id="DejaVuSans-31"/>
      </defs>
      <g transform="translate(983.570872 527.238438)scale(0.1 -0.1)">
       <use xlink:href="#DejaVuSans-31"/>
       <use x="63.623047" xlink:href="#DejaVuSans-2e"/>
       <use x="95.410156" xlink:href="#DejaVuSans-30"/>
      </g>
     </g>
    </g>
    <g id="xtick_7">
     <g id="line2d_7">
      <g>
       <use style="stroke:#000000;stroke-width:0.8;" x="1143.681467" xlink:href="#m1a11533c5a" y="512.64"/>
      </g>
     </g>
     <g id="text_7">
      <!-- 1.2 -->
      <g transform="translate(1135.729904 527.238438)scale(0.1 -0.1)">
       <use xlink:href="#DejaVuSans-31"/>
       <use x="63.623047" xlink:href="#DejaVuSans-2e"/>
       <use x="95.410156" xlink:href="#DejaVuSans-32"/>
      </g>
     </g>
    </g>
    <g id="xtick_8">
     <g id="line2d_8">
      <g>
       <use style="stroke:#000000;stroke-width:0.8;" x="1295.840499" xlink:href="#m1a11533c5a" y="512.64"/>
      </g>
     </g>
     <g id="text_8">
      <!-- 1.4 -->
      <g transform="translate(1287.888937 527.238438)scale(0.1 -0.1)">
       <use xlink:href="#DejaVuSans-31"/>
       <use x="63.623047" xlink:href="#DejaVuSans-2e"/>
       <use x="95.410156" xlink:href="#DejaVuSans-34"/>
      </g>
     </g>
    </g>
   </g>
   <g id="matplotlib.axis_2">
    <g id="ytick_1">
     <g id="line2d_9">
      <defs>
       <path d="M 0 0 
L -3.5 0 
" id="m6f95497fe3" style="stroke:#000000;stroke-width:0.8;"/>
      </defs>
      <g>
       <use style="stroke:#000000;stroke-width:0.8;" x="180" xlink:href="#m6f95497fe3" y="483.895611"/>
      </g>
     </g>
     <g id="text_9">
      <!-- 0.2 -->
      <g transform="translate(157.096875 487.69483)scale(0.1 -0.1)">
       <use xlink:href="#DejaVuSans-30"/>
       <use x="63.623047" xlink:href="#DejaVuSans-2e"/>
       <use x="95.410156" xlink:href="#DejaVuSans-32"/>
      </g>
     </g>
    </g>
    <g id="ytick_2">
     <g id="line2d_10">
      <g>
       <use style="stroke:#000000;stroke-width:0.8;" x="180" xlink:href="#m6f95497fe3" y="417.199376"/>
      </g>
     </g>
     <g id="text_10">
      <!-- 0.4 -->
      <g transform="translate(157.096875 420.998595)scale(0.1 -0.1)">
       <use xlink:href="#DejaVuSans-30"/>
       <use x="63.623047" xlink:href="#DejaVuSans-2e"/>
       <use x="95.410156" xlink:href="#DejaVuSans-34"/>
      </g>
     </g>
    </g>
    <g id="ytick_3">
     <g id="line2d_11">
      <g>
       <use style="stroke:#000000;stroke-width:0.8;" x="180" xlink:href="#m6f95497fe3" y="350.503141"/>
      </g>
     </g>
     <g id="text_11">
      <!-- 0.6 -->
      <g transform="translate(157.096875 354.30236)scale(0.1 -0.1)">
       <use xlink:href="#DejaVuSans-30"/>
       <use x="63.623047" xlink:href="#DejaVuSans-2e"/>
       <use x="95.410156" xlink:href="#DejaVuSans-36"/>
      </g>
     </g>
    </g>
    <g id="ytick_4">
     <g id="line2d_12">
      <g>
       <use style="stroke:#000000;stroke-width:0.8;" x="180" xlink:href="#m6f95497fe3" y="283.806906"/>
      </g>
     </g>
     <g id="text_12">
      <!-- 0.8 -->
      <g transform="translate(157.096875 287.606125)scale(0.1 -0.1)">
       <use xlink:href="#DejaVuSans-30"/>
       <use x="63.623047" xlink:href="#DejaVuSans-2e"/>
       <use x="95.410156" xlink:href="#DejaVuSans-38"/>
      </g>
     </g>
    </g>
    <g id="ytick_5">
     <g id="line2d_13">
      <g>
       <use style="stroke:#000000;stroke-width:0.8;" x="180" xlink:href="#m6f95497fe3" y="217.110671"/>
      </g>
     </g>
     <g id="text_13">
      <!-- 1.0 -->
      <g transform="translate(157.096875 220.90989)scale(0.1 -0.1)">
       <use xlink:href="#DejaVuSans-31"/>
       <use x="63.623047" xlink:href="#DejaVuSans-2e"/>
       <use x="95.410156" xlink:href="#DejaVuSans-30"/>
      </g>
     </g>
    </g>
    <g id="ytick_6">
     <g id="line2d_14">
      <g>
       <use style="stroke:#000000;stroke-width:0.8;" x="180" xlink:href="#m6f95497fe3" y="150.414436"/>
      </g>
     </g>
     <g id="text_14">
      <!-- 1.2 -->
      <g transform="translate(157.096875 154.213655)scale(0.1 -0.1)">
       <use xlink:href="#DejaVuSans-31"/>
       <use x="63.623047" xlink:href="#DejaVuSans-2e"/>
       <use x="95.410156" xlink:href="#DejaVuSans-32"/>
      </g>
     </g>
    </g>
    <g id="ytick_7">
     <g id="line2d_15">
      <g>
       <use style="stroke:#000000;stroke-width:0.8;" x="180" xlink:href="#m6f95497fe3" y="83.718201"/>
      </g>
     </g>
     <g id="text_15">
      <!-- 1.4 -->
      <g transform="translate(157.096875 87.51742)scale(0.1 -0.1)">
       <use xlink:href="#DejaVuSans-31"/>
       <use x="63.623047" xlink:href="#DejaVuSans-2e"/>
       <use x="95.410156" xlink:href="#DejaVuSans-34"/>
      </g>
     </g>
    </g>
   </g>
   <g id="line2d_16">
    <path clip-path="url(#pec28e79704)" d="M 230.727273 450.202674 
L 241.017788 450.363412 
L 251.204075 450.390091 
L 261.674138 450.375751 
L 271.662617 450.412434 
L 281.847382 450.404097 
L 292.364614 450.361078 
L 302.267124 450.398428 
L 312.444281 450.415102 
L 323.007922 450.399762 
L 332.949993 450.400095 
L 343.181166 450.407765 
L 353.73796 450.408099 
L 363.772087 450.408432 
L 374.024563 450.38142 
L 384.648307 450.374083 
L 394.531036 450.407098 
L 404.712757 450.376084 
L 415.462032 450.391758 
L 425.354652 450.409766 
L 435.575935 450.407432 
L 446.116752 450.401429 
L 455.991873 450.400428 
L 466.244349 450.411433 
L 476.85668 450.42644 
L 486.750061 450.40443 
L 497.001015 450.397427 
L 507.55933 450.409766 
L 517.495315 450.407432 
L 527.693774 450.361745 
L 538.25285 450.326062 
L 548.185031 450.415435 
L 558.443593 450.414768 
L 568.934197 450.425106 
L 578.789538 236.850089 
L 589.05799 237.351644 
L 599.633043 237.941906 
L 609.507403 89.28 
L 619.730208 89.747541 
L 630.392752 90.201408 
L 640.28385 90.713636 
L 650.505133 91.187512 
L 661.184414 91.850139 
L 671.089207 92.169948 
L 681.267885 92.488089 
L 691.897715 93.246759 
L 701.839026 93.59558 
L 712.089219 94.075793 
L 722.668076 94.680061 
L 732.617755 94.987864 
L 742.76448 95.43006 
L 753.444522 96.127369 
L 763.439088 96.482526 
L 773.504408 96.882037 
L 784.111414 97.474966 
L 794.013924 97.766095 
L 804.233686 98.290995 
L 814.820911 98.915605 
L 824.672448 99.175387 
L 834.882319 99.683946 
L 845.553232 100.346573 
L 855.4352 100.645372 
L 865.568231 101.080898 
L 876.206429 101.718848 
L 886.088398 102.040324 
L 896.336309 102.40015 
L 906.99657 103.170158 
L 916.905167 103.498303 
L 927.037437 103.878472 
L 937.648247 104.542766 
L 947.512717 104.830894 
L 957.69596 105.297768 
L 968.455125 106.005415 
L 978.354592 106.322555 
L 988.448061 106.731737 
L 999.189728 107.347343 
L 1009.076261 107.68616 
L 1019.143864 108.13069 
L 1029.906833 108.841339 
L 1039.796409 109.15181 
L 1049.825211 109.435936 
L 1060.600353 110.241293 
L 1070.468627 110.537758 
L 1080.569704 110.950941 
L 1091.322022 111.600895 
L 1101.172798 111.88869 
L 1111.29746 112.321882 
L 1122.040649 113.06321 
L 1131.889142 113.356674 
L 1142.01 113.693156 
L 1152.749384 114.226059 
L 1162.603203 114.70027 
L 1172.687543 115.156472 
L 1183.466489 115.869121 
L 1193.324112 116.164585 
L 1203.455621 116.582437 
L 1214.688762 117.478835 
L 1224.755603 117.893685 
L 1234.757777 118.253178 
L 1245.272727 118.824098 
" style="fill:none;stroke:#ff0000;stroke-dasharray:5.55,2.4;stroke-dashoffset:0;stroke-width:1.5;"/>
    <defs>
     <path d="M -3 3 
L 3 3 
L 3 -3 
L -3 -3 
z
" id="mde1d4f06ae" style="stroke:#ff0000;stroke-linejoin:miter;"/>
    </defs>
    <g clip-path="url(#pec28e79704)">
     <use style="fill:#ff0000;stroke:#ff0000;stroke-linejoin:miter;" x="230.727273" xlink:href="#mde1d4f06ae" y="450.202674"/>
     <use style="fill:#ff0000;stroke:#ff0000;stroke-linejoin:miter;" x="241.017788" xlink:href="#mde1d4f06ae" y="450.363412"/>
     <use style="fill:#ff0000;stroke:#ff0000;stroke-linejoin:miter;" x="251.204075" xlink:href="#mde1d4f06ae" y="450.390091"/>
     <use style="fill:#ff0000;stroke:#ff0000;stroke-linejoin:miter;" x="261.674138" xlink:href="#mde1d4f06ae" y="450.375751"/>
     <use style="fill:#ff0000;stroke:#ff0000;stroke-linejoin:miter;" x="271.662617" xlink:href="#mde1d4f06ae" y="450.412434"/>
     <use style="fill:#ff0000;stroke:#ff0000;stroke-linejoin:miter;" x="281.847382" xlink:href="#mde1d4f06ae" y="450.404097"/>
     <use style="fill:#ff0000;stroke:#ff0000;stroke-linejoin:miter;" x="292.364614" xlink:href="#mde1d4f06ae" y="450.361078"/>
     <use style="fill:#ff0000;stroke:#ff0000;stroke-linejoin:miter;" x="302.267124" xlink:href="#mde1d4f06ae" y="450.398428"/>
     <use style="fill:#ff0000;stroke:#ff0000;stroke-linejoin:miter;" x="312.444281" xlink:href="#mde1d4f06ae" y="450.415102"/>
     <use style="fill:#ff0000;stroke:#ff0000;stroke-linejoin:miter;" x="323.007922" xlink:href="#mde1d4f06ae" y="450.399762"/>
     <use style="fill:#ff0000;stroke:#ff0000;stroke-linejoin:miter;" x="332.949993" xlink:href="#mde1d4f06ae" y="450.400095"/>
     <use style="fill:#ff0000;stroke:#ff0000;stroke-linejoin:miter;" x="343.181166" xlink:href="#mde1d4f06ae" y="450.407765"/>
     <use style="fill:#ff0000;stroke:#ff0000;stroke-linejoin:miter;" x="353.73796" xlink:href="#mde1d4f06ae" y="450.408099"/>
     <use style="fill:#ff0000;stroke:#ff0000;stroke-linejoin:miter;" x="363.772087" xlink:href="#mde1d4f06ae" y="450.408432"/>
     <use style="fill:#ff0000;stroke:#ff0000;stroke-linejoin:miter;" x="374.024563" xlink:href="#mde1d4f06ae" y="450.38142"/>
     <use style="fill:#ff0000;stroke:#ff0000;stroke-linejoin:miter;" x="384.648307" xlink:href="#mde1d4f06ae" y="450.374083"/>
     <use style="fill:#ff0000;stroke:#ff0000;stroke-linejoin:miter;" x="394.531036" xlink:href="#mde1d4f06ae" y="450.407098"/>
     <use style="fill:#ff0000;stroke:#ff0000;stroke-linejoin:miter;" x="404.712757" xlink:href="#mde1d4f06ae" y="450.376084"/>
     <use style="fill:#ff0000;stroke:#ff0000;stroke-linejoin:miter;" x="415.462032" xlink:href="#mde1d4f06ae" y="450.391758"/>
     <use style="fill:#ff0000;stroke:#ff0000;stroke-linejoin:miter;" x="425.354652" xlink:href="#mde1d4f06ae" y="450.409766"/>
     <use style="fill:#ff0000;stroke:#ff0000;stroke-linejoin:miter;" x="435.575935" xlink:href="#mde1d4f06ae" y="450.407432"/>
     <use style="fill:#ff0000;stroke:#ff0000;stroke-linejoin:miter;" x="446.116752" xlink:href="#mde1d4f06ae" y="450.401429"/>
     <use style="fill:#ff0000;stroke:#ff0000;stroke-linejoin:miter;" x="455.991873" xlink:href="#mde1d4f06ae" y="450.400428"/>
     <use style="fill:#ff0000;stroke:#ff0000;stroke-linejoin:miter;" x="466.244349" xlink:href="#mde1d4f06ae" y="450.411433"/>
     <use style="fill:#ff0000;stroke:#ff0000;stroke-linejoin:miter;" x="476.85668" xlink:href="#mde1d4f06ae" y="450.42644"/>
     <use style="fill:#ff0000;stroke:#ff0000;stroke-linejoin:miter;" x="486.750061" xlink:href="#mde1d4f06ae" y="450.40443"/>
     <use style="fill:#ff0000;stroke:#ff0000;stroke-linejoin:miter;" x="497.001015" xlink:href="#mde1d4f06ae" y="450.397427"/>
     <use style="fill:#ff0000;stroke:#ff0000;stroke-linejoin:miter;" x="507.55933" xlink:href="#mde1d4f06ae" y="450.409766"/>
     <use style="fill:#ff0000;stroke:#ff0000;stroke-linejoin:miter;" x="517.495315" xlink:href="#mde1d4f06ae" y="450.407432"/>
     <use style="fill:#ff0000;stroke:#ff0000;stroke-linejoin:miter;" x="527.693774" xlink:href="#mde1d4f06ae" y="450.361745"/>
     <use style="fill:#ff0000;stroke:#ff0000;stroke-linejoin:miter;" x="538.25285" xlink:href="#mde1d4f06ae" y="450.326062"/>
     <use style="fill:#ff0000;stroke:#ff0000;stroke-linejoin:miter;" x="548.185031" xlink:href="#mde1d4f06ae" y="450.415435"/>
     <use style="fill:#ff0000;stroke:#ff0000;stroke-linejoin:miter;" x="558.443593" xlink:href="#mde1d4f06ae" y="450.414768"/>
     <use style="fill:#ff0000;stroke:#ff0000;stroke-linejoin:miter;" x="568.934197" xlink:href="#mde1d4f06ae" y="450.425106"/>
     <use style="fill:#ff0000;stroke:#ff0000;stroke-linejoin:miter;" x="578.789538" xlink:href="#mde1d4f06ae" y="236.850089"/>
     <use style="fill:#ff0000;stroke:#ff0000;stroke-linejoin:miter;" x="589.05799" xlink:href="#mde1d4f06ae" y="237.351644"/>
     <use style="fill:#ff0000;stroke:#ff0000;stroke-linejoin:miter;" x="599.633043" xlink:href="#mde1d4f06ae" y="237.941906"/>
     <use style="fill:#ff0000;stroke:#ff0000;stroke-linejoin:miter;" x="609.507403" xlink:href="#mde1d4f06ae" y="89.28"/>
     <use style="fill:#ff0000;stroke:#ff0000;stroke-linejoin:miter;" x="619.730208" xlink:href="#mde1d4f06ae" y="89.747541"/>
     <use style="fill:#ff0000;stroke:#ff0000;stroke-linejoin:miter;" x="630.392752" xlink:href="#mde1d4f06ae" y="90.201408"/>
     <use style="fill:#ff0000;stroke:#ff0000;stroke-linejoin:miter;" x="640.28385" xlink:href="#mde1d4f06ae" y="90.713636"/>
     <use style="fill:#ff0000;stroke:#ff0000;stroke-linejoin:miter;" x="650.505133" xlink:href="#mde1d4f06ae" y="91.187512"/>
     <use style="fill:#ff0000;stroke:#ff0000;stroke-linejoin:miter;" x="661.184414" xlink:href="#mde1d4f06ae" y="91.850139"/>
     <use style="fill:#ff0000;stroke:#ff0000;stroke-linejoin:miter;" x="671.089207" xlink:href="#mde1d4f06ae" y="92.169948"/>
     <use style="fill:#ff0000;stroke:#ff0000;stroke-linejoin:miter;" x="681.267885" xlink:href="#mde1d4f06ae" y="92.488089"/>
     <use style="fill:#ff0000;stroke:#ff0000;stroke-linejoin:miter;" x="691.897715" xlink:href="#mde1d4f06ae" y="93.246759"/>
     <use style="fill:#ff0000;stroke:#ff0000;stroke-linejoin:miter;" x="701.839026" xlink:href="#mde1d4f06ae" y="93.59558"/>
     <use style="fill:#ff0000;stroke:#ff0000;stroke-linejoin:miter;" x="712.089219" xlink:href="#mde1d4f06ae" y="94.075793"/>
     <use style="fill:#ff0000;stroke:#ff0000;stroke-linejoin:miter;" x="722.668076" xlink:href="#mde1d4f06ae" y="94.680061"/>
     <use style="fill:#ff0000;stroke:#ff0000;stroke-linejoin:miter;" x="732.617755" xlink:href="#mde1d4f06ae" y="94.987864"/>
     <use style="fill:#ff0000;stroke:#ff0000;stroke-linejoin:miter;" x="742.76448" xlink:href="#mde1d4f06ae" y="95.43006"/>
     <use style="fill:#ff0000;stroke:#ff0000;stroke-linejoin:miter;" x="753.444522" xlink:href="#mde1d4f06ae" y="96.127369"/>
     <use style="fill:#ff0000;stroke:#ff0000;stroke-linejoin:miter;" x="763.439088" xlink:href="#mde1d4f06ae" y="96.482526"/>
     <use style="fill:#ff0000;stroke:#ff0000;stroke-linejoin:miter;" x="773.504408" xlink:href="#mde1d4f06ae" y="96.882037"/>
     <use style="fill:#ff0000;stroke:#ff0000;stroke-linejoin:miter;" x="784.111414" xlink:href="#mde1d4f06ae" y="97.474966"/>
     <use style="fill:#ff0000;stroke:#ff0000;stroke-linejoin:miter;" x="794.013924" xlink:href="#mde1d4f06ae" y="97.766095"/>
     <use style="fill:#ff0000;stroke:#ff0000;stroke-linejoin:miter;" x="804.233686" xlink:href="#mde1d4f06ae" y="98.290995"/>
     <use style="fill:#ff0000;stroke:#ff0000;stroke-linejoin:miter;" x="814.820911" xlink:href="#mde1d4f06ae" y="98.915605"/>
     <use style="fill:#ff0000;stroke:#ff0000;stroke-linejoin:miter;" x="824.672448" xlink:href="#mde1d4f06ae" y="99.175387"/>
     <use style="fill:#ff0000;stroke:#ff0000;stroke-linejoin:miter;" x="834.882319" xlink:href="#mde1d4f06ae" y="99.683946"/>
     <use style="fill:#ff0000;stroke:#ff0000;stroke-linejoin:miter;" x="845.553232" xlink:href="#mde1d4f06ae" y="100.346573"/>
     <use style="fill:#ff0000;stroke:#ff0000;stroke-linejoin:miter;" x="855.4352" xlink:href="#mde1d4f06ae" y="100.645372"/>
     <use style="fill:#ff0000;stroke:#ff0000;stroke-linejoin:miter;" x="865.568231" xlink:href="#mde1d4f06ae" y="101.080898"/>
     <use style="fill:#ff0000;stroke:#ff0000;stroke-linejoin:miter;" x="876.206429" xlink:href="#mde1d4f06ae" y="101.718848"/>
     <use style="fill:#ff0000;stroke:#ff0000;stroke-linejoin:miter;" x="886.088398" xlink:href="#mde1d4f06ae" y="102.040324"/>
     <use style="fill:#ff0000;stroke:#ff0000;stroke-linejoin:miter;" x="896.336309" xlink:href="#mde1d4f06ae" y="102.40015"/>
     <use style="fill:#ff0000;stroke:#ff0000;stroke-linejoin:miter;" x="906.99657" xlink:href="#mde1d4f06ae" y="103.170158"/>
     <use style="fill:#ff0000;stroke:#ff0000;stroke-linejoin:miter;" x="916.905167" xlink:href="#mde1d4f06ae" y="103.498303"/>
     <use style="fill:#ff0000;stroke:#ff0000;stroke-linejoin:miter;" x="927.037437" xlink:href="#mde1d4f06ae" y="103.878472"/>
     <use style="fill:#ff0000;stroke:#ff0000;stroke-linejoin:miter;" x="937.648247" xlink:href="#mde1d4f06ae" y="104.542766"/>
     <use style="fill:#ff0000;stroke:#ff0000;stroke-linejoin:miter;" x="947.512717" xlink:href="#mde1d4f06ae" y="104.830894"/>
     <use style="fill:#ff0000;stroke:#ff0000;stroke-linejoin:miter;" x="957.69596" xlink:href="#mde1d4f06ae" y="105.297768"/>
     <use style="fill:#ff0000;stroke:#ff0000;stroke-linejoin:miter;" x="968.455125" xlink:href="#mde1d4f06ae" y="106.005415"/>
     <use style="fill:#ff0000;stroke:#ff0000;stroke-linejoin:miter;" x="978.354592" xlink:href="#mde1d4f06ae" y="106.322555"/>
     <use style="fill:#ff0000;stroke:#ff0000;stroke-linejoin:miter;" x="988.448061" xlink:href="#mde1d4f06ae" y="106.731737"/>
     <use style="fill:#ff0000;stroke:#ff0000;stroke-linejoin:miter;" x="999.189728" xlink:href="#mde1d4f06ae" y="107.347343"/>
     <use style="fill:#ff0000;stroke:#ff0000;stroke-linejoin:miter;" x="1009.076261" xlink:href="#mde1d4f06ae" y="107.68616"/>
     <use style="fill:#ff0000;stroke:#ff0000;stroke-linejoin:miter;" x="1019.143864" xlink:href="#mde1d4f06ae" y="108.13069"/>
     <use style="fill:#ff0000;stroke:#ff0000;stroke-linejoin:miter;" x="1029.906833" xlink:href="#mde1d4f06ae" y="108.841339"/>
     <use style="fill:#ff0000;stroke:#ff0000;stroke-linejoin:miter;" x="1039.796409" xlink:href="#mde1d4f06ae" y="109.15181"/>
     <use style="fill:#ff0000;stroke:#ff0000;stroke-linejoin:miter;" x="1049.825211" xlink:href="#mde1d4f06ae" y="109.435936"/>
     <use style="fill:#ff0000;stroke:#ff0000;stroke-linejoin:miter;" x="1060.600353" xlink:href="#mde1d4f06ae" y="110.241293"/>
     <use style="fill:#ff0000;stroke:#ff0000;stroke-linejoin:miter;" x="1070.468627" xlink:href="#mde1d4f06ae" y="110.537758"/>
     <use style="fill:#ff0000;stroke:#ff0000;stroke-linejoin:miter;" x="1080.569704" xlink:href="#mde1d4f06ae" y="110.950941"/>
     <use style="fill:#ff0000;stroke:#ff0000;stroke-linejoin:miter;" x="1091.322022" xlink:href="#mde1d4f06ae" y="111.600895"/>
     <use style="fill:#ff0000;stroke:#ff0000;stroke-linejoin:miter;" x="1101.172798" xlink:href="#mde1d4f06ae" y="111.88869"/>
     <use style="fill:#ff0000;stroke:#ff0000;stroke-linejoin:miter;" x="1111.29746" xlink:href="#mde1d4f06ae" y="112.321882"/>
     <use style="fill:#ff0000;stroke:#ff0000;stroke-linejoin:miter;" x="1122.040649" xlink:href="#mde1d4f06ae" y="113.06321"/>
     <use style="fill:#ff0000;stroke:#ff0000;stroke-linejoin:miter;" x="1131.889142" xlink:href="#mde1d4f06ae" y="113.356674"/>
     <use style="fill:#ff0000;stroke:#ff0000;stroke-linejoin:miter;" x="1142.01" xlink:href="#mde1d4f06ae" y="113.693156"/>
     <use style="fill:#ff0000;stroke:#ff0000;stroke-linejoin:miter;" x="1152.749384" xlink:href="#mde1d4f06ae" y="114.226059"/>
     <use style="fill:#ff0000;stroke:#ff0000;stroke-linejoin:miter;" x="1162.603203" xlink:href="#mde1d4f06ae" y="114.70027"/>
     <use style="fill:#ff0000;stroke:#ff0000;stroke-linejoin:miter;" x="1172.687543" xlink:href="#mde1d4f06ae" y="115.156472"/>
     <use style="fill:#ff0000;stroke:#ff0000;stroke-linejoin:miter;" x="1183.466489" xlink:href="#mde1d4f06ae" y="115.869121"/>
     <use style="fill:#ff0000;stroke:#ff0000;stroke-linejoin:miter;" x="1193.324112" xlink:href="#mde1d4f06ae" y="116.164585"/>
     <use style="fill:#ff0000;stroke:#ff0000;stroke-linejoin:miter;" x="1203.455621" xlink:href="#mde1d4f06ae" y="116.582437"/>
     <use style="fill:#ff0000;stroke:#ff0000;stroke-linejoin:miter;" x="1214.688762" xlink:href="#mde1d4f06ae" y="117.478835"/>
     <use style="fill:#ff0000;stroke:#ff0000;stroke-linejoin:miter;" x="1224.755603" xlink:href="#mde1d4f06ae" y="117.893685"/>
     <use style="fill:#ff0000;stroke:#ff0000;stroke-linejoin:miter;" x="1234.757777" xlink:href="#mde1d4f06ae" y="118.253178"/>
     <use style="fill:#ff0000;stroke:#ff0000;stroke-linejoin:miter;" x="1245.272727" xlink:href="#mde1d4f06ae" y="118.824098"/>
    </g>
   </g>
   <g id="line2d_17">
    <path clip-path="url(#pec28e79704)" d="M 230.727273 450.202674 
L 241.017788 450.363412 
L 251.204075 450.390091 
L 261.674138 450.375751 
L 271.662617 450.412434 
L 281.847382 450.404097 
L 292.364614 450.361078 
L 302.267124 450.398428 
L 312.444281 450.415102 
L 323.007922 450.399762 
L 332.949993 450.400095 
L 343.181166 450.407765 
L 353.73796 450.408099 
L 363.772087 450.408432 
L 374.024563 450.38142 
L 384.648307 450.374083 
L 394.531036 450.407098 
L 404.712757 450.376084 
L 415.462032 450.391758 
L 425.354652 450.409766 
L 435.575935 450.407432 
L 446.116752 450.401429 
L 455.991873 450.400428 
L 466.244349 450.411433 
L 476.85668 450.42644 
L 486.750061 450.40443 
L 497.001015 450.397427 
L 507.55933 450.409766 
L 517.495315 450.407432 
L 527.693774 450.361745 
L 538.25285 450.326062 
L 548.185031 450.415435 
L 558.443593 450.414768 
L 568.934197 450.425106 
L 578.789538 236.850089 
L 589.05799 237.351644 
L 599.633043 237.941906 
L 1245.272727 118.824098 
" style="fill:none;stroke:#800080;stroke-dasharray:9.6,2.4,1.5,2.4;stroke-dashoffset:0;stroke-width:1.5;"/>
    <defs>
     <path d="M -3 3 
L 3 -3 
M -3 -3 
L 3 3 
" id="m3cf29ddcf7" style="stroke:#800080;"/>
    </defs>
    <g clip-path="url(#pec28e79704)">
     <use style="fill:#800080;stroke:#800080;" x="230.727273" xlink:href="#m3cf29ddcf7" y="450.202674"/>
     <use style="fill:#800080;stroke:#800080;" x="241.017788" xlink:href="#m3cf29ddcf7" y="450.363412"/>
     <use style="fill:#800080;stroke:#800080;" x="251.204075" xlink:href="#m3cf29ddcf7" y="450.390091"/>
     <use style="fill:#800080;stroke:#800080;" x="261.674138" xlink:href="#m3cf29ddcf7" y="450.375751"/>
     <use style="fill:#800080;stroke:#800080;" x="271.662617" xlink:href="#m3cf29ddcf7" y="450.412434"/>
     <use style="fill:#800080;stroke:#800080;" x="281.847382" xlink:href="#m3cf29ddcf7" y="450.404097"/>
     <use style="fill:#800080;stroke:#800080;" x="292.364614" xlink:href="#m3cf29ddcf7" y="450.361078"/>
     <use style="fill:#800080;stroke:#800080;" x="302.267124" xlink:href="#m3cf29ddcf7" y="450.398428"/>
     <use style="fill:#800080;stroke:#800080;" x="312.444281" xlink:href="#m3cf29ddcf7" y="450.415102"/>
     <use style="fill:#800080;stroke:#800080;" x="323.007922" xlink:href="#m3cf29ddcf7" y="450.399762"/>
     <use style="fill:#800080;stroke:#800080;" x="332.949993" xlink:href="#m3cf29ddcf7" y="450.400095"/>
     <use style="fill:#800080;stroke:#800080;" x="343.181166" xlink:href="#m3cf29ddcf7" y="450.407765"/>
     <use style="fill:#800080;stroke:#800080;" x="353.73796" xlink:href="#m3cf29ddcf7" y="450.408099"/>
     <use style="fill:#800080;stroke:#800080;" x="363.772087" xlink:href="#m3cf29ddcf7" y="450.408432"/>
     <use style="fill:#800080;stroke:#800080;" x="374.024563" xlink:href="#m3cf29ddcf7" y="450.38142"/>
     <use style="fill:#800080;stroke:#800080;" x="384.648307" xlink:href="#m3cf29ddcf7" y="450.374083"/>
     <use style="fill:#800080;stroke:#800080;" x="394.531036" xlink:href="#m3cf29ddcf7" y="450.407098"/>
     <use style="fill:#800080;stroke:#800080;" x="404.712757" xlink:href="#m3cf29ddcf7" y="450.376084"/>
     <use style="fill:#800080;stroke:#800080;" x="415.462032" xlink:href="#m3cf29ddcf7" y="450.391758"/>
     <use style="fill:#800080;stroke:#800080;" x="425.354652" xlink:href="#m3cf29ddcf7" y="450.409766"/>
     <use style="fill:#800080;stroke:#800080;" x="435.575935" xlink:href="#m3cf29ddcf7" y="450.407432"/>
     <use style="fill:#800080;stroke:#800080;" x="446.116752" xlink:href="#m3cf29ddcf7" y="450.401429"/>
     <use style="fill:#800080;stroke:#800080;" x="455.991873" xlink:href="#m3cf29ddcf7" y="450.400428"/>
     <use style="fill:#800080;stroke:#800080;" x="466.244349" xlink:href="#m3cf29ddcf7" y="450.411433"/>
     <use style="fill:#800080;stroke:#800080;" x="476.85668" xlink:href="#m3cf29ddcf7" y="450.42644"/>
     <use style="fill:#800080;stroke:#800080;" x="486.750061" xlink:href="#m3cf29ddcf7" y="450.40443"/>
     <use style="fill:#800080;stroke:#800080;" x="497.001015" xlink:href="#m3cf29ddcf7" y="450.397427"/>
     <use style="fill:#800080;stroke:#800080;" x="507.55933" xlink:href="#m3cf29ddcf7" y="450.409766"/>
     <use style="fill:#800080;stroke:#800080;" x="517.495315" xlink:href="#m3cf29ddcf7" y="450.407432"/>
     <use style="fill:#800080;stroke:#800080;" x="527.693774" xlink:href="#m3cf29ddcf7" y="450.361745"/>
     <use style="fill:#800080;stroke:#800080;" x="538.25285" xlink:href="#m3cf29ddcf7" y="450.326062"/>
     <use style="fill:#800080;stroke:#800080;" x="548.185031" xlink:href="#m3cf29ddcf7" y="450.415435"/>
     <use style="fill:#800080;stroke:#800080;" x="558.443593" xlink:href="#m3cf29ddcf7" y="450.414768"/>
     <use style="fill:#800080;stroke:#800080;" x="568.934197" xlink:href="#m3cf29ddcf7" y="450.425106"/>
     <use style="fill:#800080;stroke:#800080;" x="578.789538" xlink:href="#m3cf29ddcf7" y="236.850089"/>
     <use style="fill:#800080;stroke:#800080;" x="589.05799" xlink:href="#m3cf29ddcf7" y="237.351644"/>
     <use style="fill:#800080;stroke:#800080;" x="599.633043" xlink:href="#m3cf29ddcf7" y="237.941906"/>
     <use style="fill:#800080;stroke:#800080;" x="1245.272727" xlink:href="#m3cf29ddcf7" y="118.824098"/>
    </g>
   </g>
   <g id="line2d_18">
    <path clip-path="url(#pec28e79704)" d="M 230.727273 492.48 
L 241.017788 489.105365 
L 251.204075 485.76491 
L 261.674138 482.331395 
L 271.662617 479.055808 
L 281.847382 475.715853 
L 292.364614 472.266869 
L 302.267124 469.019475 
L 312.444281 465.682014 
L 323.007922 462.217811 
L 332.949993 458.957444 
L 343.181166 455.602269 
L 353.73796 452.140311 
L 363.772087 448.849755 
L 374.024563 445.487595 
L 384.648307 442.003682 
L 394.531036 438.762775 
L 404.712757 435.423817 
L 415.462032 431.898738 
L 425.354652 428.654587 
L 435.575935 425.302656 
L 446.116752 421.845938 
L 455.991873 418.607526 
L 466.244349 415.245365 
L 476.85668 411.765195 
L 486.750061 408.520795 
L 497.001015 405.159133 
L 507.55933 401.696677 
L 517.495315 398.438305 
L 527.693774 395.093859 
L 538.25285 391.631153 
L 548.185031 388.374029 
L 558.443593 385.009872 
L 568.934197 381.569621 
L 578.789538 378.337695 
L 589.05799 374.970295 
L 599.633043 371.50235 
L 1245.272727 159.773561 
" style="fill:none;stroke:#0000ff;stroke-linecap:square;stroke-width:1.5;"/>
   </g>
   <g id="line2d_19">
    <path clip-path="url(#pec28e79704)" d="M 230.727273 450.441239 
L 241.017788 450.438408 
L 251.204075 450.435606 
L 261.674138 450.432725 
L 271.662617 450.429977 
L 281.847382 450.427175 
L 292.364614 450.424282 
L 302.267124 450.421558 
L 312.444281 450.418758 
L 323.007922 450.415852 
L 332.949993 450.413117 
L 343.181166 450.410302 
L 353.73796 450.407398 
L 363.772087 450.404637 
L 374.024563 450.401817 
L 384.648307 450.398894 
L 394.531036 450.396175 
L 404.712757 450.393374 
L 415.462032 450.390417 
L 425.354652 450.387695 
L 435.575935 450.384883 
L 446.116752 450.381983 
L 455.991873 450.379267 
L 466.244349 450.376446 
L 476.85668 450.373526 
L 486.750061 450.370805 
L 497.001015 450.367985 
L 507.55933 450.36508 
L 517.495315 450.362346 
L 527.693774 450.359541 
L 538.25285 450.356636 
L 548.185031 450.353903 
L 558.443593 450.351081 
L 568.934197 450.348195 
L 578.789538 450.345484 
L 589.05799 450.342659 
L 599.633043 450.339749 
L 1245.272727 450.162128 
" style="fill:none;stroke:#008000;stroke-linecap:square;stroke-width:1.5;"/>
    <defs>
     <path d="M 0 3 
C 0.795609 3 1.55874 2.683901 2.12132 2.12132 
C 2.683901 1.55874 3 0.795609 3 0 
C 3 -0.795609 2.683901 -1.55874 2.12132 -2.12132 
C 1.55874 -2.683901 0.795609 -3 0 -3 
C -0.795609 -3 -1.55874 -2.683901 -2.12132 -2.12132 
C -2.683901 -1.55874 -3 -0.795609 -3 0 
C -3 0.795609 -2.683901 1.55874 -2.12132 2.12132 
C -1.55874 2.683901 -0.795609 3 0 3 
z
" id="m582d0ffaa4" style="stroke:#008000;"/>
    </defs>
    <g clip-path="url(#pec28e79704)">
     <use style="fill:#008000;stroke:#008000;" x="230.727273" xlink:href="#m582d0ffaa4" y="450.441239"/>
     <use style="fill:#008000;stroke:#008000;" x="241.017788" xlink:href="#m582d0ffaa4" y="450.438408"/>
     <use style="fill:#008000;stroke:#008000;" x="251.204075" xlink:href="#m582d0ffaa4" y="450.435606"/>
     <use style="fill:#008000;stroke:#008000;" x="261.674138" xlink:href="#m582d0ffaa4" y="450.432725"/>
     <use style="fill:#008000;stroke:#008000;" x="271.662617" xlink:href="#m582d0ffaa4" y="450.429977"/>
     <use style="fill:#008000;stroke:#008000;" x="281.847382" xlink:href="#m582d0ffaa4" y="450.427175"/>
     <use style="fill:#008000;stroke:#008000;" x="292.364614" xlink:href="#m582d0ffaa4" y="450.424282"/>
     <use style="fill:#008000;stroke:#008000;" x="302.267124" xlink:href="#m582d0ffaa4" y="450.421558"/>
     <use style="fill:#008000;stroke:#008000;" x="312.444281" xlink:href="#m582d0ffaa4" y="450.418758"/>
     <use style="fill:#008000;stroke:#008000;" x="323.007922" xlink:href="#m582d0ffaa4" y="450.415852"/>
     <use style="fill:#008000;stroke:#008000;" x="332.949993" xlink:href="#m582d0ffaa4" y="450.413117"/>
     <use style="fill:#008000;stroke:#008000;" x="343.181166" xlink:href="#m582d0ffaa4" y="450.410302"/>
     <use style="fill:#008000;stroke:#008000;" x="353.73796" xlink:href="#m582d0ffaa4" y="450.407398"/>
     <use style="fill:#008000;stroke:#008000;" x="363.772087" xlink:href="#m582d0ffaa4" y="450.404637"/>
     <use style="fill:#008000;stroke:#008000;" x="374.024563" xlink:href="#m582d0ffaa4" y="450.401817"/>
     <use style="fill:#008000;stroke:#008000;" x="384.648307" xlink:href="#m582d0ffaa4" y="450.398894"/>
     <use style="fill:#008000;stroke:#008000;" x="394.531036" xlink:href="#m582d0ffaa4" y="450.396175"/>
     <use style="fill:#008000;stroke:#008000;" x="404.712757" xlink:href="#m582d0ffaa4" y="450.393374"/>
     <use style="fill:#008000;stroke:#008000;" x="415.462032" xlink:href="#m582d0ffaa4" y="450.390417"/>
     <use style="fill:#008000;stroke:#008000;" x="425.354652" xlink:href="#m582d0ffaa4" y="450.387695"/>
     <use style="fill:#008000;stroke:#008000;" x="435.575935" xlink:href="#m582d0ffaa4" y="450.384883"/>
     <use style="fill:#008000;stroke:#008000;" x="446.116752" xlink:href="#m582d0ffaa4" y="450.381983"/>
     <use style="fill:#008000;stroke:#008000;" x="455.991873" xlink:href="#m582d0ffaa4" y="450.379267"/>
     <use style="fill:#008000;stroke:#008000;" x="466.244349" xlink:href="#m582d0ffaa4" y="450.376446"/>
     <use style="fill:#008000;stroke:#008000;" x="476.85668" xlink:href="#m582d0ffaa4" y="450.373526"/>
     <use style="fill:#008000;stroke:#008000;" x="486.750061" xlink:href="#m582d0ffaa4" y="450.370805"/>
     <use style="fill:#008000;stroke:#008000;" x="497.001015" xlink:href="#m582d0ffaa4" y="450.367985"/>
     <use style="fill:#008000;stroke:#008000;" x="507.55933" xlink:href="#m582d0ffaa4" y="450.36508"/>
     <use style="fill:#008000;stroke:#008000;" x="517.495315" xlink:href="#m582d0ffaa4" y="450.362346"/>
     <use style="fill:#008000;stroke:#008000;" x="527.693774" xlink:href="#m582d0ffaa4" y="450.359541"/>
     <use style="fill:#008000;stroke:#008000;" x="538.25285" xlink:href="#m582d0ffaa4" y="450.356636"/>
     <use style="fill:#008000;stroke:#008000;" x="548.185031" xlink:href="#m582d0ffaa4" y="450.353903"/>
     <use style="fill:#008000;stroke:#008000;" x="558.443593" xlink:href="#m582d0ffaa4" y="450.351081"/>
     <use style="fill:#008000;stroke:#008000;" x="568.934197" xlink:href="#m582d0ffaa4" y="450.348195"/>
     <use style="fill:#008000;stroke:#008000;" x="578.789538" xlink:href="#m582d0ffaa4" y="450.345484"/>
     <use style="fill:#008000;stroke:#008000;" x="589.05799" xlink:href="#m582d0ffaa4" y="450.342659"/>
     <use style="fill:#008000;stroke:#008000;" x="599.633043" xlink:href="#m582d0ffaa4" y="450.339749"/>
     <use style="fill:#008000;stroke:#008000;" x="1245.272727" xlink:href="#m582d0ffaa4" y="450.162128"/>
    </g>
   </g>
   <g id="patch_3">
    <path d="M 180 512.64 
L 180 69.12 
" style="fill:none;stroke:#000000;stroke-linecap:square;stroke-linejoin:miter;stroke-width:0.8;"/>
   </g>
   <g id="patch_4">
    <path d="M 1296 512.64 
L 1296 69.12 
" style="fill:none;stroke:#000000;stroke-linecap:square;stroke-linejoin:miter;stroke-width:0.8;"/>
   </g>
   <g id="patch_5">
    <path d="M 180 512.64 
L 1296 512.64 
" style="fill:none;stroke:#000000;stroke-linecap:square;stroke-linejoin:miter;stroke-width:0.8;"/>
   </g>
   <g id="patch_6">
    <path d="M 180 69.12 
L 1296 69.12 
" style="fill:none;stroke:#000000;stroke-linecap:square;stroke-linejoin:miter;stroke-width:0.8;"/>
   </g>
   <g id="text_16">
    <!-- 500000.0 bit/s -->
    <defs>
     <path d="M 10.796875 72.90625 
L 49.515625 72.90625 
L 49.515625 64.59375 
L 19.828125 64.59375 
L 19.828125 46.734375 
Q 21.96875 47.46875 24.109375 47.828125 
Q 26.265625 48.1875 28.421875 48.1875 
Q 40.625 48.1875 47.75 41.5 
Q 54.890625 34.8125 54.890625 23.390625 
Q 54.890625 11.625 47.5625 5.09375 
Q 40.234375 -1.421875 26.90625 -1.421875 
Q 22.3125 -1.421875 17.546875 -0.640625 
Q 12.796875 0.140625 7.71875 1.703125 
L 7.71875 11.625 
Q 12.109375 9.234375 16.796875 8.0625 
Q 21.484375 6.890625 26.703125 6.890625 
Q 35.15625 6.890625 40.078125 11.328125 
Q 45.015625 15.765625 45.015625 23.390625 
Q 45.015625 31 40.078125 35.4375 
Q 35.15625 39.890625 26.703125 39.890625 
Q 22.75 39.890625 18.8125 39.015625 
Q 14.890625 38.140625 10.796875 36.28125 
z
" id="DejaVuSans-35"/>
     <path id="DejaVuSans-20"/>
     <path d="M 48.6875 27.296875 
Q 48.6875 37.203125 44.609375 42.84375 
Q 40.53125 48.484375 33.40625 48.484375 
Q 26.265625 48.484375 22.1875 42.84375 
Q 18.109375 37.203125 18.109375 27.296875 
Q 18.109375 17.390625 22.1875 11.75 
Q 26.265625 6.109375 33.40625 6.109375 
Q 40.53125 6.109375 44.609375 11.75 
Q 48.6875 17.390625 48.6875 27.296875 
z
M 18.109375 46.390625 
Q 20.953125 51.265625 25.265625 53.625 
Q 29.59375 56 35.59375 56 
Q 45.5625 56 51.78125 48.09375 
Q 58.015625 40.1875 58.015625 27.296875 
Q 58.015625 14.40625 51.78125 6.484375 
Q 45.5625 -1.421875 35.59375 -1.421875 
Q 29.59375 -1.421875 25.265625 0.953125 
Q 20.953125 3.328125 18.109375 8.203125 
L 18.109375 0 
L 9.078125 0 
L 9.078125 75.984375 
L 18.109375 75.984375 
z
" id="DejaVuSans-62"/>
     <path d="M 9.421875 54.6875 
L 18.40625 54.6875 
L 18.40625 0 
L 9.421875 0 
z
M 9.421875 75.984375 
L 18.40625 75.984375 
L 18.40625 64.59375 
L 9.421875 64.59375 
z
" id="DejaVuSans-69"/>
     <path d="M 18.3125 70.21875 
L 18.3125 54.6875 
L 36.8125 54.6875 
L 36.8125 47.703125 
L 18.3125 47.703125 
L 18.3125 18.015625 
Q 18.3125 11.328125 20.140625 9.421875 
Q 21.96875 7.515625 27.59375 7.515625 
L 36.8125 7.515625 
L 36.8125 0 
L 27.59375 0 
Q 17.1875 0 13.234375 3.875 
Q 9.28125 7.765625 9.28125 18.015625 
L 9.28125 47.703125 
L 2.6875 47.703125 
L 2.6875 54.6875 
L 9.28125 54.6875 
L 9.28125 70.21875 
z
" id="DejaVuSans-74"/>
     <path d="M 25.390625 72.90625 
L 33.6875 72.90625 
L 8.296875 -9.28125 
L 0 -9.28125 
z
" id="DejaVuSans-2f"/>
     <path d="M 44.28125 53.078125 
L 44.28125 44.578125 
Q 40.484375 46.53125 36.375 47.5 
Q 32.28125 48.484375 27.875 48.484375 
Q 21.1875 48.484375 17.84375 46.4375 
Q 14.5 44.390625 14.5 40.28125 
Q 14.5 37.15625 16.890625 35.375 
Q 19.28125 33.59375 26.515625 31.984375 
L 29.59375 31.296875 
Q 39.15625 29.25 43.1875 25.515625 
Q 47.21875 21.78125 47.21875 15.09375 
Q 47.21875 7.46875 41.1875 3.015625 
Q 35.15625 -1.421875 24.609375 -1.421875 
Q 20.21875 -1.421875 15.453125 -0.5625 
Q 10.6875 0.296875 5.421875 2 
L 5.421875 11.28125 
Q 10.40625 8.6875 15.234375 7.390625 
Q 20.0625 6.109375 24.8125 6.109375 
Q 31.15625 6.109375 34.5625 8.28125 
Q 37.984375 10.453125 37.984375 14.40625 
Q 37.984375 18.0625 35.515625 20.015625 
Q 33.0625 21.96875 24.703125 23.78125 
L 21.578125 24.515625 
Q 13.234375 26.265625 9.515625 29.90625 
Q 5.8125 33.546875 5.8125 39.890625 
Q 5.8125 47.609375 11.28125 51.796875 
Q 16.75 56 26.8125 56 
Q 31.78125 56 36.171875 55.265625 
Q 40.578125 54.546875 44.28125 53.078125 
z
" id="DejaVuSans-73"/>
    </defs>
    <g transform="translate(694.48875 63.12)scale(0.12 -0.12)">
     <use xlink:href="#DejaVuSans-35"/>
     <use x="63.623047" xlink:href="#DejaVuSans-30"/>
     <use x="127.246094" xlink:href="#DejaVuSans-30"/>
     <use x="190.869141" xlink:href="#DejaVuSans-30"/>
     <use x="254.492188" xlink:href="#DejaVuSans-30"/>
     <use x="318.115234" xlink:href="#DejaVuSans-30"/>
     <use x="381.738281" xlink:href="#DejaVuSans-2e"/>
     <use x="413.525391" xlink:href="#DejaVuSans-30"/>
     <use x="477.148438" xlink:href="#DejaVuSans-20"/>
     <use x="508.935547" xlink:href="#DejaVuSans-62"/>
     <use x="572.412109" xlink:href="#DejaVuSans-69"/>
     <use x="600.195312" xlink:href="#DejaVuSans-74"/>
     <use x="639.404297" xlink:href="#DejaVuSans-2f"/>
     <use x="673.095703" xlink:href="#DejaVuSans-73"/>
    </g>
   </g>
   <g id="legend_1">
    <g id="patch_7">
     <path d="M 1173.520313 135.8325 
L 1289 135.8325 
Q 1291 135.8325 1291 133.8325 
L 1291 76.12 
Q 1291 74.12 1289 74.12 
L 1173.520313 74.12 
Q 1171.520313 74.12 1171.520313 76.12 
L 1171.520313 133.8325 
Q 1171.520313 135.8325 1173.520313 135.8325 
z
" style="fill:#ffffff;opacity:0.8;stroke:#cccccc;stroke-linejoin:miter;"/>
    </g>
    <g id="line2d_20">
     <path d="M 1175.520313 82.218437 
L 1195.520313 82.218437 
" style="fill:none;stroke:#ff0000;stroke-dasharray:5.55,2.4;stroke-dashoffset:0;stroke-width:1.5;"/>
    </g>
    <g id="line2d_21">
     <g>
      <use style="fill:#ff0000;stroke:#ff0000;stroke-linejoin:miter;" x="1185.520313" xlink:href="#mde1d4f06ae" y="82.218437"/>
     </g>
    </g>
    <g id="text_17">
     <!-- tcpdump -->
     <defs>
      <path d="M 48.78125 52.59375 
L 48.78125 44.1875 
Q 44.96875 46.296875 41.140625 47.34375 
Q 37.3125 48.390625 33.40625 48.390625 
Q 24.65625 48.390625 19.8125 42.84375 
Q 14.984375 37.3125 14.984375 27.296875 
Q 14.984375 17.28125 19.8125 11.734375 
Q 24.65625 6.203125 33.40625 6.203125 
Q 37.3125 6.203125 41.140625 7.25 
Q 44.96875 8.296875 48.78125 10.40625 
L 48.78125 2.09375 
Q 45.015625 0.34375 40.984375 -0.53125 
Q 36.96875 -1.421875 32.421875 -1.421875 
Q 20.0625 -1.421875 12.78125 6.34375 
Q 5.515625 14.109375 5.515625 27.296875 
Q 5.515625 40.671875 12.859375 48.328125 
Q 20.21875 56 33.015625 56 
Q 37.15625 56 41.109375 55.140625 
Q 45.0625 54.296875 48.78125 52.59375 
z
" id="DejaVuSans-63"/>
      <path d="M 18.109375 8.203125 
L 18.109375 -20.796875 
L 9.078125 -20.796875 
L 9.078125 54.6875 
L 18.109375 54.6875 
L 18.109375 46.390625 
Q 20.953125 51.265625 25.265625 53.625 
Q 29.59375 56 35.59375 56 
Q 45.5625 56 51.78125 48.09375 
Q 58.015625 40.1875 58.015625 27.296875 
Q 58.015625 14.40625 51.78125 6.484375 
Q 45.5625 -1.421875 35.59375 -1.421875 
Q 29.59375 -1.421875 25.265625 0.953125 
Q 20.953125 3.328125 18.109375 8.203125 
z
M 48.6875 27.296875 
Q 48.6875 37.203125 44.609375 42.84375 
Q 40.53125 48.484375 33.40625 48.484375 
Q 26.265625 48.484375 22.1875 42.84375 
Q 18.109375 37.203125 18.109375 27.296875 
Q 18.109375 17.390625 22.1875 11.75 
Q 26.265625 6.109375 33.40625 6.109375 
Q 40.53125 6.109375 44.609375 11.75 
Q 48.6875 17.390625 48.6875 27.296875 
z
" id="DejaVuSans-70"/>
      <path d="M 45.40625 46.390625 
L 45.40625 75.984375 
L 54.390625 75.984375 
L 54.390625 0 
L 45.40625 0 
L 45.40625 8.203125 
Q 42.578125 3.328125 38.25 0.953125 
Q 33.9375 -1.421875 27.875 -1.421875 
Q 17.96875 -1.421875 11.734375 6.484375 
Q 5.515625 14.40625 5.515625 27.296875 
Q 5.515625 40.1875 11.734375 48.09375 
Q 17.96875 56 27.875 56 
Q 33.9375 56 38.25 53.625 
Q 42.578125 51.265625 45.40625 46.390625 
z
M 14.796875 27.296875 
Q 14.796875 17.390625 18.875 11.75 
Q 22.953125 6.109375 30.078125 6.109375 
Q 37.203125 6.109375 41.296875 11.75 
Q 45.40625 17.390625 45.40625 27.296875 
Q 45.40625 37.203125 41.296875 42.84375 
Q 37.203125 48.484375 30.078125 48.484375 
Q 22.953125 48.484375 18.875 42.84375 
Q 14.796875 37.203125 14.796875 27.296875 
z
" id="DejaVuSans-64"/>
      <path d="M 8.5 21.578125 
L 8.5 54.6875 
L 17.484375 54.6875 
L 17.484375 21.921875 
Q 17.484375 14.15625 20.5 10.265625 
Q 23.53125 6.390625 29.59375 6.390625 
Q 36.859375 6.390625 41.078125 11.03125 
Q 45.3125 15.671875 45.3125 23.6875 
L 45.3125 54.6875 
L 54.296875 54.6875 
L 54.296875 0 
L 45.3125 0 
L 45.3125 8.40625 
Q 42.046875 3.421875 37.71875 1 
Q 33.40625 -1.421875 27.6875 -1.421875 
Q 18.265625 -1.421875 13.375 4.4375 
Q 8.5 10.296875 8.5 21.578125 
z
M 31.109375 56 
z
" id="DejaVuSans-75"/>
      <path d="M 52 44.1875 
Q 55.375 50.25 60.0625 53.125 
Q 64.75 56 71.09375 56 
Q 79.640625 56 84.28125 50.015625 
Q 88.921875 44.046875 88.921875 33.015625 
L 88.921875 0 
L 79.890625 0 
L 79.890625 32.71875 
Q 79.890625 40.578125 77.09375 44.375 
Q 74.3125 48.1875 68.609375 48.1875 
Q 61.625 48.1875 57.5625 43.546875 
Q 53.515625 38.921875 53.515625 30.90625 
L 53.515625 0 
L 44.484375 0 
L 44.484375 32.71875 
Q 44.484375 40.625 41.703125 44.40625 
Q 38.921875 48.1875 33.109375 48.1875 
Q 26.21875 48.1875 22.15625 43.53125 
Q 18.109375 38.875 18.109375 30.90625 
L 18.109375 0 
L 9.078125 0 
L 9.078125 54.6875 
L 18.109375 54.6875 
L 18.109375 46.1875 
Q 21.1875 51.21875 25.484375 53.609375 
Q 29.78125 56 35.6875 56 
Q 41.65625 56 45.828125 52.96875 
Q 50 49.953125 52 44.1875 
z
" id="DejaVuSans-6d"/>
     </defs>
     <g transform="translate(1203.520313 85.718437)scale(0.1 -0.1)">
      <use xlink:href="#DejaVuSans-74"/>
      <use x="39.208984" xlink:href="#DejaVuSans-63"/>
      <use x="94.189453" xlink:href="#DejaVuSans-70"/>
      <use x="157.666016" xlink:href="#DejaVuSans-64"/>
      <use x="221.142578" xlink:href="#DejaVuSans-75"/>
      <use x="284.521484" xlink:href="#DejaVuSans-6d"/>
      <use x="381.933594" xlink:href="#DejaVuSans-70"/>
     </g>
    </g>
    <g id="line2d_22">
     <path d="M 1175.520313 96.896563 
L 1195.520313 96.896563 
" style="fill:none;stroke:#800080;stroke-dasharray:9.6,2.4,1.5,2.4;stroke-dashoffset:0;stroke-width:1.5;"/>
    </g>
    <g id="line2d_23">
     <g>
      <use style="fill:#800080;stroke:#800080;" x="1185.520313" xlink:href="#m3cf29ddcf7" y="96.896563"/>
     </g>
    </g>
    <g id="text_18">
     <!-- filtered tcpdump -->
     <defs>
      <path d="M 37.109375 75.984375 
L 37.109375 68.5 
L 28.515625 68.5 
Q 23.6875 68.5 21.796875 66.546875 
Q 19.921875 64.59375 19.921875 59.515625 
L 19.921875 54.6875 
L 34.71875 54.6875 
L 34.71875 47.703125 
L 19.921875 47.703125 
L 19.921875 0 
L 10.890625 0 
L 10.890625 47.703125 
L 2.296875 47.703125 
L 2.296875 54.6875 
L 10.890625 54.6875 
L 10.890625 58.5 
Q 10.890625 67.625 15.140625 71.796875 
Q 19.390625 75.984375 28.609375 75.984375 
z
" id="DejaVuSans-66"/>
      <path d="M 9.421875 75.984375 
L 18.40625 75.984375 
L 18.40625 0 
L 9.421875 0 
z
" id="DejaVuSans-6c"/>
      <path d="M 56.203125 29.59375 
L 56.203125 25.203125 
L 14.890625 25.203125 
Q 15.484375 15.921875 20.484375 11.0625 
Q 25.484375 6.203125 34.421875 6.203125 
Q 39.59375 6.203125 44.453125 7.46875 
Q 49.3125 8.734375 54.109375 11.28125 
L 54.109375 2.78125 
Q 49.265625 0.734375 44.1875 -0.34375 
Q 39.109375 -1.421875 33.890625 -1.421875 
Q 20.796875 -1.421875 13.15625 6.1875 
Q 5.515625 13.8125 5.515625 26.8125 
Q 5.515625 40.234375 12.765625 48.109375 
Q 20.015625 56 32.328125 56 
Q 43.359375 56 49.78125 48.890625 
Q 56.203125 41.796875 56.203125 29.59375 
z
M 47.21875 32.234375 
Q 47.125 39.59375 43.09375 43.984375 
Q 39.0625 48.390625 32.421875 48.390625 
Q 24.90625 48.390625 20.390625 44.140625 
Q 15.875 39.890625 15.1875 32.171875 
z
" id="DejaVuSans-65"/>
      <path d="M 41.109375 46.296875 
Q 39.59375 47.171875 37.8125 47.578125 
Q 36.03125 48 33.890625 48 
Q 26.265625 48 22.1875 43.046875 
Q 18.109375 38.09375 18.109375 28.8125 
L 18.109375 0 
L 9.078125 0 
L 9.078125 54.6875 
L 18.109375 54.6875 
L 18.109375 46.1875 
Q 20.953125 51.171875 25.484375 53.578125 
Q 30.03125 56 36.53125 56 
Q 37.453125 56 38.578125 55.875 
Q 39.703125 55.765625 41.0625 55.515625 
z
" id="DejaVuSans-72"/>
     </defs>
     <g transform="translate(1203.520313 100.396563)scale(0.1 -0.1)">
      <use xlink:href="#DejaVuSans-66"/>
      <use x="35.205078" xlink:href="#DejaVuSans-69"/>
      <use x="62.988281" xlink:href="#DejaVuSans-6c"/>
      <use x="90.771484" xlink:href="#DejaVuSans-74"/>
      <use x="129.980469" xlink:href="#DejaVuSans-65"/>
      <use x="191.503906" xlink:href="#DejaVuSans-72"/>
      <use x="232.585938" xlink:href="#DejaVuSans-65"/>
      <use x="294.109375" xlink:href="#DejaVuSans-64"/>
      <use x="357.585938" xlink:href="#DejaVuSans-20"/>
      <use x="389.373047" xlink:href="#DejaVuSans-74"/>
      <use x="428.582031" xlink:href="#DejaVuSans-63"/>
      <use x="483.5625" xlink:href="#DejaVuSans-70"/>
      <use x="547.039062" xlink:href="#DejaVuSans-64"/>
      <use x="610.515625" xlink:href="#DejaVuSans-75"/>
      <use x="673.894531" xlink:href="#DejaVuSans-6d"/>
      <use x="771.306641" xlink:href="#DejaVuSans-70"/>
     </g>
    </g>
    <g id="line2d_24">
     <path d="M 1175.520313 111.574687 
L 1195.520313 111.574687 
" style="fill:none;stroke:#0000ff;stroke-linecap:square;stroke-width:1.5;"/>
    </g>
    <g id="line2d_25"/>
    <g id="text_19">
     <!-- OLS -->
     <defs>
      <path d="M 39.40625 66.21875 
Q 28.65625 66.21875 22.328125 58.203125 
Q 16.015625 50.203125 16.015625 36.375 
Q 16.015625 22.609375 22.328125 14.59375 
Q 28.65625 6.59375 39.40625 6.59375 
Q 50.140625 6.59375 56.421875 14.59375 
Q 62.703125 22.609375 62.703125 36.375 
Q 62.703125 50.203125 56.421875 58.203125 
Q 50.140625 66.21875 39.40625 66.21875 
z
M 39.40625 74.21875 
Q 54.734375 74.21875 63.90625 63.9375 
Q 73.09375 53.65625 73.09375 36.375 
Q 73.09375 19.140625 63.90625 8.859375 
Q 54.734375 -1.421875 39.40625 -1.421875 
Q 24.03125 -1.421875 14.8125 8.828125 
Q 5.609375 19.09375 5.609375 36.375 
Q 5.609375 53.65625 14.8125 63.9375 
Q 24.03125 74.21875 39.40625 74.21875 
z
" id="DejaVuSans-4f"/>
      <path d="M 9.8125 72.90625 
L 19.671875 72.90625 
L 19.671875 8.296875 
L 55.171875 8.296875 
L 55.171875 0 
L 9.8125 0 
z
" id="DejaVuSans-4c"/>
      <path d="M 53.515625 70.515625 
L 53.515625 60.890625 
Q 47.90625 63.578125 42.921875 64.890625 
Q 37.9375 66.21875 33.296875 66.21875 
Q 25.25 66.21875 20.875 63.09375 
Q 16.5 59.96875 16.5 54.203125 
Q 16.5 49.359375 19.40625 46.890625 
Q 22.3125 44.4375 30.421875 42.921875 
L 36.375 41.703125 
Q 47.40625 39.59375 52.65625 34.296875 
Q 57.90625 29 57.90625 20.125 
Q 57.90625 9.515625 50.796875 4.046875 
Q 43.703125 -1.421875 29.984375 -1.421875 
Q 24.8125 -1.421875 18.96875 -0.25 
Q 13.140625 0.921875 6.890625 3.21875 
L 6.890625 13.375 
Q 12.890625 10.015625 18.65625 8.296875 
Q 24.421875 6.59375 29.984375 6.59375 
Q 38.421875 6.59375 43.015625 9.90625 
Q 47.609375 13.234375 47.609375 19.390625 
Q 47.609375 24.75 44.3125 27.78125 
Q 41.015625 30.8125 33.5 32.328125 
L 27.484375 33.5 
Q 16.453125 35.6875 11.515625 40.375 
Q 6.59375 45.0625 6.59375 53.421875 
Q 6.59375 63.09375 13.40625 68.65625 
Q 20.21875 74.21875 32.171875 74.21875 
Q 37.3125 74.21875 42.625 73.28125 
Q 47.953125 72.359375 53.515625 70.515625 
z
" id="DejaVuSans-53"/>
     </defs>
     <g transform="translate(1203.520313 115.074687)scale(0.1 -0.1)">
      <use xlink:href="#DejaVuSans-4f"/>
      <use x="78.710938" xlink:href="#DejaVuSans-4c"/>
      <use x="134.423828" xlink:href="#DejaVuSans-53"/>
     </g>
    </g>
    <g id="line2d_26">
     <path d="M 1175.520313 126.252813 
L 1195.520313 126.252813 
" style="fill:none;stroke:#008000;stroke-linecap:square;stroke-width:1.5;"/>
    </g>
    <g id="line2d_27">
     <g>
      <use style="fill:#008000;stroke:#008000;" x="1185.520313" xlink:href="#m582d0ffaa4" y="126.252813"/>
     </g>
    </g>
    <g id="text_20">
     <!-- IRLS -->
     <defs>
      <path d="M 9.8125 72.90625 
L 19.671875 72.90625 
L 19.671875 0 
L 9.8125 0 
z
" id="DejaVuSans-49"/>
      <path d="M 44.390625 34.1875 
Q 47.5625 33.109375 50.5625 29.59375 
Q 53.5625 26.078125 56.59375 19.921875 
L 66.609375 0 
L 56 0 
L 46.6875 18.703125 
Q 43.0625 26.03125 39.671875 28.421875 
Q 36.28125 30.8125 30.421875 30.8125 
L 19.671875 30.8125 
L 19.671875 0 
L 9.8125 0 
L 9.8125 72.90625 
L 32.078125 72.90625 
Q 44.578125 72.90625 50.734375 67.671875 
Q 56.890625 62.453125 56.890625 51.90625 
Q 56.890625 45.015625 53.6875 40.46875 
Q 50.484375 35.9375 44.390625 34.1875 
z
M 19.671875 64.796875 
L 19.671875 38.921875 
L 32.078125 38.921875 
Q 39.203125 38.921875 42.84375 42.21875 
Q 46.484375 45.515625 46.484375 51.90625 
Q 46.484375 58.296875 42.84375 61.546875 
Q 39.203125 64.796875 32.078125 64.796875 
z
" id="DejaVuSans-52"/>
     </defs>
     <g transform="translate(1203.520313 129.752813)scale(0.1 -0.1)">
      <use xlink:href="#DejaVuSans-49"/>
      <use x="29.492188" xlink:href="#DejaVuSans-52"/>
      <use x="98.974609" xlink:href="#DejaVuSans-4c"/>
      <use x="154.6875" xlink:href="#DejaVuSans-53"/>
     </g>
    </g>
   </g>
  </g>
 </g>
 <defs>
  <clipPath id="pec28e79704">
   <rect height="443.52" width="1116" x="180" y="69.12"/>
  </clipPath>
 </defs>
</svg>
