<?xml version="1.0" encoding="utf-8" standalone="no"?>
<!DOCTYPE svg PUBLIC "-//W3C//DTD SVG 1.1//EN"
  "http://www.w3.org/Graphics/SVG/1.1/DTD/svg11.dtd">
<!-- Created with matplotlib (http://matplotlib.org/) -->
<svg height="576pt" version="1.1" viewBox="0 0 1440 576" width="1440pt" xmlns="http://www.w3.org/2000/svg" xmlns:xlink="http://www.w3.org/1999/xlink">
 <defs>
  <style type="text/css">
*{stroke-linecap:butt;stroke-linejoin:round;}
  </style>
 </defs>
 <g id="figure_1">
  <g id="patch_1">
   <path d="M 0 576 
L 1440 576 
L 1440 0 
L 0 0 
z
" style="fill:#ffffff;"/>
  </g>
  <g id="axes_1">
   <g id="patch_2">
    <path d="M 180 512.64 
L 1296 512.64 
L 1296 69.12 
L 180 69.12 
z
" style="fill:#ffffff;"/>
   </g>
   <g id="matplotlib.axis_1">
    <g id="xtick_1">
     <g id="line2d_1">
      <defs>
       <path d="M 0 0 
L 0 3.5 
" id="m955c66728e" style="stroke:#000000;stroke-width:0.8;"/>
      </defs>
      <g>
       <use style="stroke:#000000;stroke-width:0.8;" x="230.727273" xlink:href="#m955c66728e" y="512.64"/>
      </g>
     </g>
     <g id="text_1">
      <!-- 0.0 -->
      <defs>
       <path d="M 31.78125 66.40625 
Q 24.171875 66.40625 20.328125 58.90625 
Q 16.5 51.421875 16.5 36.375 
Q 16.5 21.390625 20.328125 13.890625 
Q 24.171875 6.390625 31.78125 6.390625 
Q 39.453125 6.390625 43.28125 13.890625 
Q 47.125 21.390625 47.125 36.375 
Q 47.125 51.421875 43.28125 58.90625 
Q 39.453125 66.40625 31.78125 66.40625 
z
M 31.78125 74.21875 
Q 44.046875 74.21875 50.515625 64.515625 
Q 56.984375 54.828125 56.984375 36.375 
Q 56.984375 17.96875 50.515625 8.265625 
Q 44.046875 -1.421875 31.78125 -1.421875 
Q 19.53125 -1.421875 13.0625 8.265625 
Q 6.59375 17.96875 6.59375 36.375 
Q 6.59375 54.828125 13.0625 64.515625 
Q 19.53125 74.21875 31.78125 74.21875 
z
" id="DejaVuSans-30"/>
       <path d="M 10.6875 12.40625 
L 21 12.40625 
L 21 0 
L 10.6875 0 
z
" id="DejaVuSans-2e"/>
      </defs>
      <g transform="translate(222.77571 527.238438)scale(0.1 -0.1)">
       <use xlink:href="#DejaVuSans-30"/>
       <use x="63.623047" xlink:href="#DejaVuSans-2e"/>
       <use x="95.410156" xlink:href="#DejaVuSans-30"/>
      </g>
     </g>
    </g>
    <g id="xtick_2">
     <g id="line2d_2">
      <g>
       <use style="stroke:#000000;stroke-width:0.8;" x="385.790278" xlink:href="#m955c66728e" y="512.64"/>
      </g>
     </g>
     <g id="text_2">
      <!-- 0.2 -->
      <defs>
       <path d="M 19.1875 8.296875 
L 53.609375 8.296875 
L 53.609375 0 
L 7.328125 0 
L 7.328125 8.296875 
Q 12.9375 14.109375 22.625 23.890625 
Q 32.328125 33.6875 34.8125 36.53125 
Q 39.546875 41.84375 41.421875 45.53125 
Q 43.3125 49.21875 43.3125 52.78125 
Q 43.3125 58.59375 39.234375 62.25 
Q 35.15625 65.921875 28.609375 65.921875 
Q 23.96875 65.921875 18.8125 64.3125 
Q 13.671875 62.703125 7.8125 59.421875 
L 7.8125 69.390625 
Q 13.765625 71.78125 18.9375 73 
Q 24.125 74.21875 28.421875 74.21875 
Q 39.75 74.21875 46.484375 68.546875 
Q 53.21875 62.890625 53.21875 53.421875 
Q 53.21875 48.921875 51.53125 44.890625 
Q 49.859375 40.875 45.40625 35.40625 
Q 44.1875 33.984375 37.640625 27.21875 
Q 31.109375 20.453125 19.1875 8.296875 
z
" id="DejaVuSans-32"/>
      </defs>
      <g transform="translate(377.838715 527.238438)scale(0.1 -0.1)">
       <use xlink:href="#DejaVuSans-30"/>
       <use x="63.623047" xlink:href="#DejaVuSans-2e"/>
       <use x="95.410156" xlink:href="#DejaVuSans-32"/>
      </g>
     </g>
    </g>
    <g id="xtick_3">
     <g id="line2d_3">
      <g>
       <use style="stroke:#000000;stroke-width:0.8;" x="540.853283" xlink:href="#m955c66728e" y="512.64"/>
      </g>
     </g>
     <g id="text_3">
      <!-- 0.4 -->
      <defs>
       <path d="M 37.796875 64.3125 
L 12.890625 25.390625 
L 37.796875 25.390625 
z
M 35.203125 72.90625 
L 47.609375 72.90625 
L 47.609375 25.390625 
L 58.015625 25.390625 
L 58.015625 17.1875 
L 47.609375 17.1875 
L 47.609375 0 
L 37.796875 0 
L 37.796875 17.1875 
L 4.890625 17.1875 
L 4.890625 26.703125 
z
" id="DejaVuSans-34"/>
      </defs>
      <g transform="translate(532.90172 527.238438)scale(0.1 -0.1)">
       <use xlink:href="#DejaVuSans-30"/>
       <use x="63.623047" xlink:href="#DejaVuSans-2e"/>
       <use x="95.410156" xlink:href="#DejaVuSans-34"/>
      </g>
     </g>
    </g>
    <g id="xtick_4">
     <g id="line2d_4">
      <g>
       <use style="stroke:#000000;stroke-width:0.8;" x="695.916288" xlink:href="#m955c66728e" y="512.64"/>
      </g>
     </g>
     <g id="text_4">
      <!-- 0.6 -->
      <defs>
       <path d="M 33.015625 40.375 
Q 26.375 40.375 22.484375 35.828125 
Q 18.609375 31.296875 18.609375 23.390625 
Q 18.609375 15.53125 22.484375 10.953125 
Q 26.375 6.390625 33.015625 6.390625 
Q 39.65625 6.390625 43.53125 10.953125 
Q 47.40625 15.53125 47.40625 23.390625 
Q 47.40625 31.296875 43.53125 35.828125 
Q 39.65625 40.375 33.015625 40.375 
z
M 52.59375 71.296875 
L 52.59375 62.3125 
Q 48.875 64.0625 45.09375 64.984375 
Q 41.3125 65.921875 37.59375 65.921875 
Q 27.828125 65.921875 22.671875 59.328125 
Q 17.53125 52.734375 16.796875 39.40625 
Q 19.671875 43.65625 24.015625 45.921875 
Q 28.375 48.1875 33.59375 48.1875 
Q 44.578125 48.1875 50.953125 41.515625 
Q 57.328125 34.859375 57.328125 23.390625 
Q 57.328125 12.15625 50.6875 5.359375 
Q 44.046875 -1.421875 33.015625 -1.421875 
Q 20.359375 -1.421875 13.671875 8.265625 
Q 6.984375 17.96875 6.984375 36.375 
Q 6.984375 53.65625 15.1875 63.9375 
Q 23.390625 74.21875 37.203125 74.21875 
Q 40.921875 74.21875 44.703125 73.484375 
Q 48.484375 72.75 52.59375 71.296875 
z
" id="DejaVuSans-36"/>
      </defs>
      <g transform="translate(687.964726 527.238438)scale(0.1 -0.1)">
       <use xlink:href="#DejaVuSans-30"/>
       <use x="63.623047" xlink:href="#DejaVuSans-2e"/>
       <use x="95.410156" xlink:href="#DejaVuSans-36"/>
      </g>
     </g>
    </g>
    <g id="xtick_5">
     <g id="line2d_5">
      <g>
       <use style="stroke:#000000;stroke-width:0.8;" x="850.979293" xlink:href="#m955c66728e" y="512.64"/>
      </g>
     </g>
     <g id="text_5">
      <!-- 0.8 -->
      <defs>
       <path d="M 31.78125 34.625 
Q 24.75 34.625 20.71875 30.859375 
Q 16.703125 27.09375 16.703125 20.515625 
Q 16.703125 13.921875 20.71875 10.15625 
Q 24.75 6.390625 31.78125 6.390625 
Q 38.8125 6.390625 42.859375 10.171875 
Q 46.921875 13.96875 46.921875 20.515625 
Q 46.921875 27.09375 42.890625 30.859375 
Q 38.875 34.625 31.78125 34.625 
z
M 21.921875 38.8125 
Q 15.578125 40.375 12.03125 44.71875 
Q 8.5 49.078125 8.5 55.328125 
Q 8.5 64.0625 14.71875 69.140625 
Q 20.953125 74.21875 31.78125 74.21875 
Q 42.671875 74.21875 48.875 69.140625 
Q 55.078125 64.0625 55.078125 55.328125 
Q 55.078125 49.078125 51.53125 44.71875 
Q 48 40.375 41.703125 38.8125 
Q 48.828125 37.15625 52.796875 32.3125 
Q 56.78125 27.484375 56.78125 20.515625 
Q 56.78125 9.90625 50.3125 4.234375 
Q 43.84375 -1.421875 31.78125 -1.421875 
Q 19.734375 -1.421875 13.25 4.234375 
Q 6.78125 9.90625 6.78125 20.515625 
Q 6.78125 27.484375 10.78125 32.3125 
Q 14.796875 37.15625 21.921875 38.8125 
z
M 18.3125 54.390625 
Q 18.3125 48.734375 21.84375 45.5625 
Q 25.390625 42.390625 31.78125 42.390625 
Q 38.140625 42.390625 41.71875 45.5625 
Q 45.3125 48.734375 45.3125 54.390625 
Q 45.3125 60.0625 41.71875 63.234375 
Q 38.140625 66.40625 31.78125 66.40625 
Q 25.390625 66.40625 21.84375 63.234375 
Q 18.3125 60.0625 18.3125 54.390625 
z
" id="DejaVuSans-38"/>
      </defs>
      <g transform="translate(843.027731 527.238438)scale(0.1 -0.1)">
       <use xlink:href="#DejaVuSans-30"/>
       <use x="63.623047" xlink:href="#DejaVuSans-2e"/>
       <use x="95.410156" xlink:href="#DejaVuSans-38"/>
      </g>
     </g>
    </g>
    <g id="xtick_6">
     <g id="line2d_6">
      <g>
       <use style="stroke:#000000;stroke-width:0.8;" x="1006.042298" xlink:href="#m955c66728e" y="512.64"/>
      </g>
     </g>
     <g id="text_6">
      <!-- 1.0 -->
      <defs>
       <path d="M 12.40625 8.296875 
L 28.515625 8.296875 
L 28.515625 63.921875 
L 10.984375 60.40625 
L 10.984375 69.390625 
L 28.421875 72.90625 
L 38.28125 72.90625 
L 38.28125 8.296875 
L 54.390625 8.296875 
L 54.390625 0 
L 12.40625 0 
z
" id="DejaVuSans-31"/>
      </defs>
      <g transform="translate(998.090736 527.238438)scale(0.1 -0.1)">
       <use xlink:href="#DejaVuSans-31"/>
       <use x="63.623047" xlink:href="#DejaVuSans-2e"/>
       <use x="95.410156" xlink:href="#DejaVuSans-30"/>
      </g>
     </g>
    </g>
    <g id="xtick_7">
     <g id="line2d_7">
      <g>
       <use style="stroke:#000000;stroke-width:0.8;" x="1161.105303" xlink:href="#m955c66728e" y="512.64"/>
      </g>
     </g>
     <g id="text_7">
      <!-- 1.2 -->
      <g transform="translate(1153.153741 527.238438)scale(0.1 -0.1)">
       <use xlink:href="#DejaVuSans-31"/>
       <use x="63.623047" xlink:href="#DejaVuSans-2e"/>
       <use x="95.410156" xlink:href="#DejaVuSans-32"/>
      </g>
     </g>
    </g>
   </g>
   <g id="matplotlib.axis_2">
    <g id="ytick_1">
     <g id="line2d_8">
      <defs>
       <path d="M 0 0 
L -3.5 0 
" id="m98b38d427b" style="stroke:#000000;stroke-width:0.8;"/>
      </defs>
      <g>
       <use style="stroke:#000000;stroke-width:0.8;" x="180" xlink:href="#m98b38d427b" y="472.746119"/>
      </g>
     </g>
     <g id="text_8">
      <!-- 1.0 -->
      <g transform="translate(157.096875 476.545338)scale(0.1 -0.1)">
       <use xlink:href="#DejaVuSans-31"/>
       <use x="63.623047" xlink:href="#DejaVuSans-2e"/>
       <use x="95.410156" xlink:href="#DejaVuSans-30"/>
      </g>
     </g>
    </g>
    <g id="ytick_2">
     <g id="line2d_9">
      <g>
       <use style="stroke:#000000;stroke-width:0.8;" x="180" xlink:href="#m98b38d427b" y="398.265998"/>
      </g>
     </g>
     <g id="text_9">
      <!-- 1.2 -->
      <g transform="translate(157.096875 402.065217)scale(0.1 -0.1)">
       <use xlink:href="#DejaVuSans-31"/>
       <use x="63.623047" xlink:href="#DejaVuSans-2e"/>
       <use x="95.410156" xlink:href="#DejaVuSans-32"/>
      </g>
     </g>
    </g>
    <g id="ytick_3">
     <g id="line2d_10">
      <g>
       <use style="stroke:#000000;stroke-width:0.8;" x="180" xlink:href="#m98b38d427b" y="323.785876"/>
      </g>
     </g>
     <g id="text_10">
      <!-- 1.4 -->
      <g transform="translate(157.096875 327.585095)scale(0.1 -0.1)">
       <use xlink:href="#DejaVuSans-31"/>
       <use x="63.623047" xlink:href="#DejaVuSans-2e"/>
       <use x="95.410156" xlink:href="#DejaVuSans-34"/>
      </g>
     </g>
    </g>
    <g id="ytick_4">
     <g id="line2d_11">
      <g>
       <use style="stroke:#000000;stroke-width:0.8;" x="180" xlink:href="#m98b38d427b" y="249.305755"/>
      </g>
     </g>
     <g id="text_11">
      <!-- 1.6 -->
      <g transform="translate(157.096875 253.104974)scale(0.1 -0.1)">
       <use xlink:href="#DejaVuSans-31"/>
       <use x="63.623047" xlink:href="#DejaVuSans-2e"/>
       <use x="95.410156" xlink:href="#DejaVuSans-36"/>
      </g>
     </g>
    </g>
    <g id="ytick_5">
     <g id="line2d_12">
      <g>
       <use style="stroke:#000000;stroke-width:0.8;" x="180" xlink:href="#m98b38d427b" y="174.825633"/>
      </g>
     </g>
     <g id="text_12">
      <!-- 1.8 -->
      <g transform="translate(157.096875 178.624852)scale(0.1 -0.1)">
       <use xlink:href="#DejaVuSans-31"/>
       <use x="63.623047" xlink:href="#DejaVuSans-2e"/>
       <use x="95.410156" xlink:href="#DejaVuSans-38"/>
      </g>
     </g>
    </g>
    <g id="ytick_6">
     <g id="line2d_13">
      <g>
       <use style="stroke:#000000;stroke-width:0.8;" x="180" xlink:href="#m98b38d427b" y="100.345512"/>
      </g>
     </g>
     <g id="text_13">
      <!-- 2.0 -->
      <g transform="translate(157.096875 104.14473)scale(0.1 -0.1)">
       <use xlink:href="#DejaVuSans-32"/>
       <use x="63.623047" xlink:href="#DejaVuSans-2e"/>
       <use x="95.410156" xlink:href="#DejaVuSans-30"/>
      </g>
     </g>
    </g>
   </g>
   <g id="line2d_14">
    <path clip-path="url(#p97b49c0a24)" d="M 230.727273 460.909738 
L 242.082537 461.899207 
L 252.268625 462.299165 
L 262.396566 462.669331 
L 273.295944 463.418229 
L 283.355657 463.766796 
L 295.22573 464.987153 
L 305.29242 465.336837 
L 315.341278 465.665294 
L 325.352146 465.997476 
L 335.975512 466.604116 
L 346.032899 466.928477 
L 356.113545 467.315029 
L 366.974933 468.01179 
L 377.00906 468.358123 
L 387.114516 468.715628 
L 397.170352 469.079463 
L 407.975142 469.794472 
L 418.071294 470.148998 
L 428.096118 470.480434 
L 438.125593 470.792133 
L 448.178327 471.150383 
L 458.245793 471.499695 
L 469.026548 472.18938 
L 479.063001 472.523796 
L 489.083948 472.822089 
L 499.953865 473.554601 
L 509.981014 473.906892 
L 520.02522 474.249873 
L 530.095012 474.575351 
L 540.133015 474.922801 
L 550.208234 475.28254 
L 560.238485 475.62068 
L 570.900617 476.250409 
L 581.002196 476.616107 
L 591.031671 476.942329 
L 601.879879 477.649891 
L 611.922535 477.985051 
L 621.952785 478.338087 
L 633.019632 479.171147 
L 643.172382 479.55323 
L 653.286367 479.926376 
L 663.395699 480.263398 
L 674.23848 481.022723 
L 684.295091 481.357139 
L 694.371861 481.719484 
L 704.418393 482.065072 
L 714.485083 481.974951 
L 724.516884 482.667244 
L 735.266627 483.381508 
L 745.297653 483.74162 
L 755.32015 484.054064 
L 766.178437 484.767956 
L 776.238925 485.160094 
L 786.286232 485.486317 
L 796.315707 485.823339 
L 806.356037 486.133921 
L 816.380085 486.489936 
L 826.413437 486.799029 
L 837.081771 487.447751 
L 847.163968 487.80749 
L 857.27175 488.176911 
L 867.38806 488.554525 
L 877.546238 488.947035 
L 887.586567 489.2781 
L 897.601312 489.59464 
L 907.751736 489.991992 
L 917.801369 490.335717 
L 927.823867 490.625445 
L 938.582138 491.332634 
L 948.838005 491.770577 
L 958.930281 492.122868 
L 969.024882 492.48 
L 979.174531 89.28 
L 989.250525 89.645697 
L 999.411804 90.02927 
L 1009.633557 90.463489 
L 1019.714203 90.819132 
L 1029.797175 91.17105 
L 1040.512804 91.839882 
L 1050.939241 92.342995 
L 1061.013684 92.713161 
L 1071.088903 93.056515 
L 1081.155593 93.415509 
L 1091.311445 93.79573 
L 1101.362629 94.133497 
L 1111.420791 94.484671 
L 1121.454918 94.817225 
L 1131.536339 95.176219 
L 1141.611558 95.525158 
L 1152.427978 96.22043 
L 1163.539793 97.0844 
L 1174.143776 97.694019 
L 1184.233726 98.054876 
L 1194.353138 98.425042 
L 1205.00209 99.035034 
L 1215.076533 99.401104 
L 1225.13547 99.745574 
L 1235.196733 100.091162 
L 1245.272727 100.445315 
" style="fill:none;stroke:#ff0000;stroke-dasharray:5.55,2.4;stroke-dashoffset:0;stroke-width:1.5;"/>
    <defs>
     <path d="M -3 3 
L 3 3 
L 3 -3 
L -3 -3 
z
" id="md3143d4400" style="stroke:#ff0000;stroke-linejoin:miter;"/>
    </defs>
    <g clip-path="url(#p97b49c0a24)">
     <use style="fill:#ff0000;stroke:#ff0000;stroke-linejoin:miter;" x="230.727273" xlink:href="#md3143d4400" y="460.909738"/>
     <use style="fill:#ff0000;stroke:#ff0000;stroke-linejoin:miter;" x="242.082537" xlink:href="#md3143d4400" y="461.899207"/>
     <use style="fill:#ff0000;stroke:#ff0000;stroke-linejoin:miter;" x="252.268625" xlink:href="#md3143d4400" y="462.299165"/>
     <use style="fill:#ff0000;stroke:#ff0000;stroke-linejoin:miter;" x="262.396566" xlink:href="#md3143d4400" y="462.669331"/>
     <use style="fill:#ff0000;stroke:#ff0000;stroke-linejoin:miter;" x="273.295944" xlink:href="#md3143d4400" y="463.418229"/>
     <use style="fill:#ff0000;stroke:#ff0000;stroke-linejoin:miter;" x="283.355657" xlink:href="#md3143d4400" y="463.766796"/>
     <use style="fill:#ff0000;stroke:#ff0000;stroke-linejoin:miter;" x="295.22573" xlink:href="#md3143d4400" y="464.987153"/>
     <use style="fill:#ff0000;stroke:#ff0000;stroke-linejoin:miter;" x="305.29242" xlink:href="#md3143d4400" y="465.336837"/>
     <use style="fill:#ff0000;stroke:#ff0000;stroke-linejoin:miter;" x="315.341278" xlink:href="#md3143d4400" y="465.665294"/>
     <use style="fill:#ff0000;stroke:#ff0000;stroke-linejoin:miter;" x="325.352146" xlink:href="#md3143d4400" y="465.997476"/>
     <use style="fill:#ff0000;stroke:#ff0000;stroke-linejoin:miter;" x="335.975512" xlink:href="#md3143d4400" y="466.604116"/>
     <use style="fill:#ff0000;stroke:#ff0000;stroke-linejoin:miter;" x="346.032899" xlink:href="#md3143d4400" y="466.928477"/>
     <use style="fill:#ff0000;stroke:#ff0000;stroke-linejoin:miter;" x="356.113545" xlink:href="#md3143d4400" y="467.315029"/>
     <use style="fill:#ff0000;stroke:#ff0000;stroke-linejoin:miter;" x="366.974933" xlink:href="#md3143d4400" y="468.01179"/>
     <use style="fill:#ff0000;stroke:#ff0000;stroke-linejoin:miter;" x="377.00906" xlink:href="#md3143d4400" y="468.358123"/>
     <use style="fill:#ff0000;stroke:#ff0000;stroke-linejoin:miter;" x="387.114516" xlink:href="#md3143d4400" y="468.715628"/>
     <use style="fill:#ff0000;stroke:#ff0000;stroke-linejoin:miter;" x="397.170352" xlink:href="#md3143d4400" y="469.079463"/>
     <use style="fill:#ff0000;stroke:#ff0000;stroke-linejoin:miter;" x="407.975142" xlink:href="#md3143d4400" y="469.794472"/>
     <use style="fill:#ff0000;stroke:#ff0000;stroke-linejoin:miter;" x="418.071294" xlink:href="#md3143d4400" y="470.148998"/>
     <use style="fill:#ff0000;stroke:#ff0000;stroke-linejoin:miter;" x="428.096118" xlink:href="#md3143d4400" y="470.480434"/>
     <use style="fill:#ff0000;stroke:#ff0000;stroke-linejoin:miter;" x="438.125593" xlink:href="#md3143d4400" y="470.792133"/>
     <use style="fill:#ff0000;stroke:#ff0000;stroke-linejoin:miter;" x="448.178327" xlink:href="#md3143d4400" y="471.150383"/>
     <use style="fill:#ff0000;stroke:#ff0000;stroke-linejoin:miter;" x="458.245793" xlink:href="#md3143d4400" y="471.499695"/>
     <use style="fill:#ff0000;stroke:#ff0000;stroke-linejoin:miter;" x="469.026548" xlink:href="#md3143d4400" y="472.18938"/>
     <use style="fill:#ff0000;stroke:#ff0000;stroke-linejoin:miter;" x="479.063001" xlink:href="#md3143d4400" y="472.523796"/>
     <use style="fill:#ff0000;stroke:#ff0000;stroke-linejoin:miter;" x="489.083948" xlink:href="#md3143d4400" y="472.822089"/>
     <use style="fill:#ff0000;stroke:#ff0000;stroke-linejoin:miter;" x="499.953865" xlink:href="#md3143d4400" y="473.554601"/>
     <use style="fill:#ff0000;stroke:#ff0000;stroke-linejoin:miter;" x="509.981014" xlink:href="#md3143d4400" y="473.906892"/>
     <use style="fill:#ff0000;stroke:#ff0000;stroke-linejoin:miter;" x="520.02522" xlink:href="#md3143d4400" y="474.249873"/>
     <use style="fill:#ff0000;stroke:#ff0000;stroke-linejoin:miter;" x="530.095012" xlink:href="#md3143d4400" y="474.575351"/>
     <use style="fill:#ff0000;stroke:#ff0000;stroke-linejoin:miter;" x="540.133015" xlink:href="#md3143d4400" y="474.922801"/>
     <use style="fill:#ff0000;stroke:#ff0000;stroke-linejoin:miter;" x="550.208234" xlink:href="#md3143d4400" y="475.28254"/>
     <use style="fill:#ff0000;stroke:#ff0000;stroke-linejoin:miter;" x="560.238485" xlink:href="#md3143d4400" y="475.62068"/>
     <use style="fill:#ff0000;stroke:#ff0000;stroke-linejoin:miter;" x="570.900617" xlink:href="#md3143d4400" y="476.250409"/>
     <use style="fill:#ff0000;stroke:#ff0000;stroke-linejoin:miter;" x="581.002196" xlink:href="#md3143d4400" y="476.616107"/>
     <use style="fill:#ff0000;stroke:#ff0000;stroke-linejoin:miter;" x="591.031671" xlink:href="#md3143d4400" y="476.942329"/>
     <use style="fill:#ff0000;stroke:#ff0000;stroke-linejoin:miter;" x="601.879879" xlink:href="#md3143d4400" y="477.649891"/>
     <use style="fill:#ff0000;stroke:#ff0000;stroke-linejoin:miter;" x="611.922535" xlink:href="#md3143d4400" y="477.985051"/>
     <use style="fill:#ff0000;stroke:#ff0000;stroke-linejoin:miter;" x="621.952785" xlink:href="#md3143d4400" y="478.338087"/>
     <use style="fill:#ff0000;stroke:#ff0000;stroke-linejoin:miter;" x="633.019632" xlink:href="#md3143d4400" y="479.171147"/>
     <use style="fill:#ff0000;stroke:#ff0000;stroke-linejoin:miter;" x="643.172382" xlink:href="#md3143d4400" y="479.55323"/>
     <use style="fill:#ff0000;stroke:#ff0000;stroke-linejoin:miter;" x="653.286367" xlink:href="#md3143d4400" y="479.926376"/>
     <use style="fill:#ff0000;stroke:#ff0000;stroke-linejoin:miter;" x="663.395699" xlink:href="#md3143d4400" y="480.263398"/>
     <use style="fill:#ff0000;stroke:#ff0000;stroke-linejoin:miter;" x="674.23848" xlink:href="#md3143d4400" y="481.022723"/>
     <use style="fill:#ff0000;stroke:#ff0000;stroke-linejoin:miter;" x="684.295091" xlink:href="#md3143d4400" y="481.357139"/>
     <use style="fill:#ff0000;stroke:#ff0000;stroke-linejoin:miter;" x="694.371861" xlink:href="#md3143d4400" y="481.719484"/>
     <use style="fill:#ff0000;stroke:#ff0000;stroke-linejoin:miter;" x="704.418393" xlink:href="#md3143d4400" y="482.065072"/>
     <use style="fill:#ff0000;stroke:#ff0000;stroke-linejoin:miter;" x="714.485083" xlink:href="#md3143d4400" y="481.974951"/>
     <use style="fill:#ff0000;stroke:#ff0000;stroke-linejoin:miter;" x="724.516884" xlink:href="#md3143d4400" y="482.667244"/>
     <use style="fill:#ff0000;stroke:#ff0000;stroke-linejoin:miter;" x="735.266627" xlink:href="#md3143d4400" y="483.381508"/>
     <use style="fill:#ff0000;stroke:#ff0000;stroke-linejoin:miter;" x="745.297653" xlink:href="#md3143d4400" y="483.74162"/>
     <use style="fill:#ff0000;stroke:#ff0000;stroke-linejoin:miter;" x="755.32015" xlink:href="#md3143d4400" y="484.054064"/>
     <use style="fill:#ff0000;stroke:#ff0000;stroke-linejoin:miter;" x="766.178437" xlink:href="#md3143d4400" y="484.767956"/>
     <use style="fill:#ff0000;stroke:#ff0000;stroke-linejoin:miter;" x="776.238925" xlink:href="#md3143d4400" y="485.160094"/>
     <use style="fill:#ff0000;stroke:#ff0000;stroke-linejoin:miter;" x="786.286232" xlink:href="#md3143d4400" y="485.486317"/>
     <use style="fill:#ff0000;stroke:#ff0000;stroke-linejoin:miter;" x="796.315707" xlink:href="#md3143d4400" y="485.823339"/>
     <use style="fill:#ff0000;stroke:#ff0000;stroke-linejoin:miter;" x="806.356037" xlink:href="#md3143d4400" y="486.133921"/>
     <use style="fill:#ff0000;stroke:#ff0000;stroke-linejoin:miter;" x="816.380085" xlink:href="#md3143d4400" y="486.489936"/>
     <use style="fill:#ff0000;stroke:#ff0000;stroke-linejoin:miter;" x="826.413437" xlink:href="#md3143d4400" y="486.799029"/>
     <use style="fill:#ff0000;stroke:#ff0000;stroke-linejoin:miter;" x="837.081771" xlink:href="#md3143d4400" y="487.447751"/>
     <use style="fill:#ff0000;stroke:#ff0000;stroke-linejoin:miter;" x="847.163968" xlink:href="#md3143d4400" y="487.80749"/>
     <use style="fill:#ff0000;stroke:#ff0000;stroke-linejoin:miter;" x="857.27175" xlink:href="#md3143d4400" y="488.176911"/>
     <use style="fill:#ff0000;stroke:#ff0000;stroke-linejoin:miter;" x="867.38806" xlink:href="#md3143d4400" y="488.554525"/>
     <use style="fill:#ff0000;stroke:#ff0000;stroke-linejoin:miter;" x="877.546238" xlink:href="#md3143d4400" y="488.947035"/>
     <use style="fill:#ff0000;stroke:#ff0000;stroke-linejoin:miter;" x="887.586567" xlink:href="#md3143d4400" y="489.2781"/>
     <use style="fill:#ff0000;stroke:#ff0000;stroke-linejoin:miter;" x="897.601312" xlink:href="#md3143d4400" y="489.59464"/>
     <use style="fill:#ff0000;stroke:#ff0000;stroke-linejoin:miter;" x="907.751736" xlink:href="#md3143d4400" y="489.991992"/>
     <use style="fill:#ff0000;stroke:#ff0000;stroke-linejoin:miter;" x="917.801369" xlink:href="#md3143d4400" y="490.335717"/>
     <use style="fill:#ff0000;stroke:#ff0000;stroke-linejoin:miter;" x="927.823867" xlink:href="#md3143d4400" y="490.625445"/>
     <use style="fill:#ff0000;stroke:#ff0000;stroke-linejoin:miter;" x="938.582138" xlink:href="#md3143d4400" y="491.332634"/>
     <use style="fill:#ff0000;stroke:#ff0000;stroke-linejoin:miter;" x="948.838005" xlink:href="#md3143d4400" y="491.770577"/>
     <use style="fill:#ff0000;stroke:#ff0000;stroke-linejoin:miter;" x="958.930281" xlink:href="#md3143d4400" y="492.122868"/>
     <use style="fill:#ff0000;stroke:#ff0000;stroke-linejoin:miter;" x="969.024882" xlink:href="#md3143d4400" y="492.48"/>
     <use style="fill:#ff0000;stroke:#ff0000;stroke-linejoin:miter;" x="979.174531" xlink:href="#md3143d4400" y="89.28"/>
     <use style="fill:#ff0000;stroke:#ff0000;stroke-linejoin:miter;" x="989.250525" xlink:href="#md3143d4400" y="89.645697"/>
     <use style="fill:#ff0000;stroke:#ff0000;stroke-linejoin:miter;" x="999.411804" xlink:href="#md3143d4400" y="90.02927"/>
     <use style="fill:#ff0000;stroke:#ff0000;stroke-linejoin:miter;" x="1009.633557" xlink:href="#md3143d4400" y="90.463489"/>
     <use style="fill:#ff0000;stroke:#ff0000;stroke-linejoin:miter;" x="1019.714203" xlink:href="#md3143d4400" y="90.819132"/>
     <use style="fill:#ff0000;stroke:#ff0000;stroke-linejoin:miter;" x="1029.797175" xlink:href="#md3143d4400" y="91.17105"/>
     <use style="fill:#ff0000;stroke:#ff0000;stroke-linejoin:miter;" x="1040.512804" xlink:href="#md3143d4400" y="91.839882"/>
     <use style="fill:#ff0000;stroke:#ff0000;stroke-linejoin:miter;" x="1050.939241" xlink:href="#md3143d4400" y="92.342995"/>
     <use style="fill:#ff0000;stroke:#ff0000;stroke-linejoin:miter;" x="1061.013684" xlink:href="#md3143d4400" y="92.713161"/>
     <use style="fill:#ff0000;stroke:#ff0000;stroke-linejoin:miter;" x="1071.088903" xlink:href="#md3143d4400" y="93.056515"/>
     <use style="fill:#ff0000;stroke:#ff0000;stroke-linejoin:miter;" x="1081.155593" xlink:href="#md3143d4400" y="93.415509"/>
     <use style="fill:#ff0000;stroke:#ff0000;stroke-linejoin:miter;" x="1091.311445" xlink:href="#md3143d4400" y="93.79573"/>
     <use style="fill:#ff0000;stroke:#ff0000;stroke-linejoin:miter;" x="1101.362629" xlink:href="#md3143d4400" y="94.133497"/>
     <use style="fill:#ff0000;stroke:#ff0000;stroke-linejoin:miter;" x="1111.420791" xlink:href="#md3143d4400" y="94.484671"/>
     <use style="fill:#ff0000;stroke:#ff0000;stroke-linejoin:miter;" x="1121.454918" xlink:href="#md3143d4400" y="94.817225"/>
     <use style="fill:#ff0000;stroke:#ff0000;stroke-linejoin:miter;" x="1131.536339" xlink:href="#md3143d4400" y="95.176219"/>
     <use style="fill:#ff0000;stroke:#ff0000;stroke-linejoin:miter;" x="1141.611558" xlink:href="#md3143d4400" y="95.525158"/>
     <use style="fill:#ff0000;stroke:#ff0000;stroke-linejoin:miter;" x="1152.427978" xlink:href="#md3143d4400" y="96.22043"/>
     <use style="fill:#ff0000;stroke:#ff0000;stroke-linejoin:miter;" x="1163.539793" xlink:href="#md3143d4400" y="97.0844"/>
     <use style="fill:#ff0000;stroke:#ff0000;stroke-linejoin:miter;" x="1174.143776" xlink:href="#md3143d4400" y="97.694019"/>
     <use style="fill:#ff0000;stroke:#ff0000;stroke-linejoin:miter;" x="1184.233726" xlink:href="#md3143d4400" y="98.054876"/>
     <use style="fill:#ff0000;stroke:#ff0000;stroke-linejoin:miter;" x="1194.353138" xlink:href="#md3143d4400" y="98.425042"/>
     <use style="fill:#ff0000;stroke:#ff0000;stroke-linejoin:miter;" x="1205.00209" xlink:href="#md3143d4400" y="99.035034"/>
     <use style="fill:#ff0000;stroke:#ff0000;stroke-linejoin:miter;" x="1215.076533" xlink:href="#md3143d4400" y="99.401104"/>
     <use style="fill:#ff0000;stroke:#ff0000;stroke-linejoin:miter;" x="1225.13547" xlink:href="#md3143d4400" y="99.745574"/>
     <use style="fill:#ff0000;stroke:#ff0000;stroke-linejoin:miter;" x="1235.196733" xlink:href="#md3143d4400" y="100.091162"/>
     <use style="fill:#ff0000;stroke:#ff0000;stroke-linejoin:miter;" x="1245.272727" xlink:href="#md3143d4400" y="100.445315"/>
    </g>
   </g>
   <g id="line2d_15">
    <path clip-path="url(#p97b49c0a24)" d="M 1245.272727 100.445315 
" style="fill:none;stroke:#800080;stroke-dasharray:9.6,2.4,1.5,2.4;stroke-dashoffset:0;stroke-width:1.5;"/>
    <defs>
     <path d="M -3 3 
L 3 -3 
M -3 -3 
L 3 3 
" id="mcef90698ad" style="stroke:#800080;"/>
    </defs>
    <g clip-path="url(#p97b49c0a24)">
     <use style="fill:#800080;stroke:#800080;" x="1245.272727" xlink:href="#mcef90698ad" y="100.445315"/>
    </g>
   </g>
   <g id="line2d_16">
    <path clip-path="url(#p97b49c0a24)" d="M 1245.272727 100.445315 
" style="fill:none;stroke:#0000ff;stroke-linecap:square;stroke-width:1.5;"/>
   </g>
   <g id="patch_3">
    <path d="M 180 512.64 
L 180 69.12 
" style="fill:none;stroke:#000000;stroke-linecap:square;stroke-linejoin:miter;stroke-width:0.8;"/>
   </g>
   <g id="patch_4">
    <path d="M 1296 512.64 
L 1296 69.12 
" style="fill:none;stroke:#000000;stroke-linecap:square;stroke-linejoin:miter;stroke-width:0.8;"/>
   </g>
   <g id="patch_5">
    <path d="M 180 512.64 
L 1296 512.64 
" style="fill:none;stroke:#000000;stroke-linecap:square;stroke-linejoin:miter;stroke-width:0.8;"/>
   </g>
   <g id="patch_6">
    <path d="M 180 69.12 
L 1296 69.12 
" style="fill:none;stroke:#000000;stroke-linecap:square;stroke-linejoin:miter;stroke-width:0.8;"/>
   </g>
   <g id="text_14">
    <!-- 500000.0 bit/s -->
    <defs>
     <path d="M 10.796875 72.90625 
L 49.515625 72.90625 
L 49.515625 64.59375 
L 19.828125 64.59375 
L 19.828125 46.734375 
Q 21.96875 47.46875 24.109375 47.828125 
Q 26.265625 48.1875 28.421875 48.1875 
Q 40.625 48.1875 47.75 41.5 
Q 54.890625 34.8125 54.890625 23.390625 
Q 54.890625 11.625 47.5625 5.09375 
Q 40.234375 -1.421875 26.90625 -1.421875 
Q 22.3125 -1.421875 17.546875 -0.640625 
Q 12.796875 0.140625 7.71875 1.703125 
L 7.71875 11.625 
Q 12.109375 9.234375 16.796875 8.0625 
Q 21.484375 6.890625 26.703125 6.890625 
Q 35.15625 6.890625 40.078125 11.328125 
Q 45.015625 15.765625 45.015625 23.390625 
Q 45.015625 31 40.078125 35.4375 
Q 35.15625 39.890625 26.703125 39.890625 
Q 22.75 39.890625 18.8125 39.015625 
Q 14.890625 38.140625 10.796875 36.28125 
z
" id="DejaVuSans-35"/>
     <path id="DejaVuSans-20"/>
     <path d="M 48.6875 27.296875 
Q 48.6875 37.203125 44.609375 42.84375 
Q 40.53125 48.484375 33.40625 48.484375 
Q 26.265625 48.484375 22.1875 42.84375 
Q 18.109375 37.203125 18.109375 27.296875 
Q 18.109375 17.390625 22.1875 11.75 
Q 26.265625 6.109375 33.40625 6.109375 
Q 40.53125 6.109375 44.609375 11.75 
Q 48.6875 17.390625 48.6875 27.296875 
z
M 18.109375 46.390625 
Q 20.953125 51.265625 25.265625 53.625 
Q 29.59375 56 35.59375 56 
Q 45.5625 56 51.78125 48.09375 
Q 58.015625 40.1875 58.015625 27.296875 
Q 58.015625 14.40625 51.78125 6.484375 
Q 45.5625 -1.421875 35.59375 -1.421875 
Q 29.59375 -1.421875 25.265625 0.953125 
Q 20.953125 3.328125 18.109375 8.203125 
L 18.109375 0 
L 9.078125 0 
L 9.078125 75.984375 
L 18.109375 75.984375 
z
" id="DejaVuSans-62"/>
     <path d="M 9.421875 54.6875 
L 18.40625 54.6875 
L 18.40625 0 
L 9.421875 0 
z
M 9.421875 75.984375 
L 18.40625 75.984375 
L 18.40625 64.59375 
L 9.421875 64.59375 
z
" id="DejaVuSans-69"/>
     <path d="M 18.3125 70.21875 
L 18.3125 54.6875 
L 36.8125 54.6875 
L 36.8125 47.703125 
L 18.3125 47.703125 
L 18.3125 18.015625 
Q 18.3125 11.328125 20.140625 9.421875 
Q 21.96875 7.515625 27.59375 7.515625 
L 36.8125 7.515625 
L 36.8125 0 
L 27.59375 0 
Q 17.1875 0 13.234375 3.875 
Q 9.28125 7.765625 9.28125 18.015625 
L 9.28125 47.703125 
L 2.6875 47.703125 
L 2.6875 54.6875 
L 9.28125 54.6875 
L 9.28125 70.21875 
z
" id="DejaVuSans-74"/>
     <path d="M 25.390625 72.90625 
L 33.6875 72.90625 
L 8.296875 -9.28125 
L 0 -9.28125 
z
" id="DejaVuSans-2f"/>
     <path d="M 44.28125 53.078125 
L 44.28125 44.578125 
Q 40.484375 46.53125 36.375 47.5 
Q 32.28125 48.484375 27.875 48.484375 
Q 21.1875 48.484375 17.84375 46.4375 
Q 14.5 44.390625 14.5 40.28125 
Q 14.5 37.15625 16.890625 35.375 
Q 19.28125 33.59375 26.515625 31.984375 
L 29.59375 31.296875 
Q 39.15625 29.25 43.1875 25.515625 
Q 47.21875 21.78125 47.21875 15.09375 
Q 47.21875 7.46875 41.1875 3.015625 
Q 35.15625 -1.421875 24.609375 -1.421875 
Q 20.21875 -1.421875 15.453125 -0.5625 
Q 10.6875 0.296875 5.421875 2 
L 5.421875 11.28125 
Q 10.40625 8.6875 15.234375 7.390625 
Q 20.0625 6.109375 24.8125 6.109375 
Q 31.15625 6.109375 34.5625 8.28125 
Q 37.984375 10.453125 37.984375 14.40625 
Q 37.984375 18.0625 35.515625 20.015625 
Q 33.0625 21.96875 24.703125 23.78125 
L 21.578125 24.515625 
Q 13.234375 26.265625 9.515625 29.90625 
Q 5.8125 33.546875 5.8125 39.890625 
Q 5.8125 47.609375 11.28125 51.796875 
Q 16.75 56 26.8125 56 
Q 31.78125 56 36.171875 55.265625 
Q 40.578125 54.546875 44.28125 53.078125 
z
" id="DejaVuSans-73"/>
    </defs>
    <g transform="translate(694.48875 63.12)scale(0.12 -0.12)">
     <use xlink:href="#DejaVuSans-35"/>
     <use x="63.623047" xlink:href="#DejaVuSans-30"/>
     <use x="127.246094" xlink:href="#DejaVuSans-30"/>
     <use x="190.869141" xlink:href="#DejaVuSans-30"/>
     <use x="254.492188" xlink:href="#DejaVuSans-30"/>
     <use x="318.115234" xlink:href="#DejaVuSans-30"/>
     <use x="381.738281" xlink:href="#DejaVuSans-2e"/>
     <use x="413.525391" xlink:href="#DejaVuSans-30"/>
     <use x="477.148438" xlink:href="#DejaVuSans-20"/>
     <use x="508.935547" xlink:href="#DejaVuSans-62"/>
     <use x="572.412109" xlink:href="#DejaVuSans-69"/>
     <use x="600.195312" xlink:href="#DejaVuSans-74"/>
     <use x="639.404297" xlink:href="#DejaVuSans-2f"/>
     <use x="673.095703" xlink:href="#DejaVuSans-73"/>
    </g>
   </g>
   <g id="legend_1">
    <g id="patch_7">
     <path d="M 1173.520313 121.154375 
L 1289 121.154375 
Q 1291 121.154375 1291 119.154375 
L 1291 76.12 
Q 1291 74.12 1289 74.12 
L 1173.520313 74.12 
Q 1171.520313 74.12 1171.520313 76.12 
L 1171.520313 119.154375 
Q 1171.520313 121.154375 1173.520313 121.154375 
z
" style="fill:#ffffff;opacity:0.8;stroke:#cccccc;stroke-linejoin:miter;"/>
    </g>
    <g id="line2d_17">
     <path d="M 1175.520313 82.218438 
L 1195.520313 82.218438 
" style="fill:none;stroke:#ff0000;stroke-dasharray:5.55,2.4;stroke-dashoffset:0;stroke-width:1.5;"/>
    </g>
    <g id="line2d_18">
     <g>
      <use style="fill:#ff0000;stroke:#ff0000;stroke-linejoin:miter;" x="1185.520313" xlink:href="#md3143d4400" y="82.218438"/>
     </g>
    </g>
    <g id="text_15">
     <!-- tcpdump -->
     <defs>
      <path d="M 48.78125 52.59375 
L 48.78125 44.1875 
Q 44.96875 46.296875 41.140625 47.34375 
Q 37.3125 48.390625 33.40625 48.390625 
Q 24.65625 48.390625 19.8125 42.84375 
Q 14.984375 37.3125 14.984375 27.296875 
Q 14.984375 17.28125 19.8125 11.734375 
Q 24.65625 6.203125 33.40625 6.203125 
Q 37.3125 6.203125 41.140625 7.25 
Q 44.96875 8.296875 48.78125 10.40625 
L 48.78125 2.09375 
Q 45.015625 0.34375 40.984375 -0.53125 
Q 36.96875 -1.421875 32.421875 -1.421875 
Q 20.0625 -1.421875 12.78125 6.34375 
Q 5.515625 14.109375 5.515625 27.296875 
Q 5.515625 40.671875 12.859375 48.328125 
Q 20.21875 56 33.015625 56 
Q 37.15625 56 41.109375 55.140625 
Q 45.0625 54.296875 48.78125 52.59375 
z
" id="DejaVuSans-63"/>
      <path d="M 18.109375 8.203125 
L 18.109375 -20.796875 
L 9.078125 -20.796875 
L 9.078125 54.6875 
L 18.109375 54.6875 
L 18.109375 46.390625 
Q 20.953125 51.265625 25.265625 53.625 
Q 29.59375 56 35.59375 56 
Q 45.5625 56 51.78125 48.09375 
Q 58.015625 40.1875 58.015625 27.296875 
Q 58.015625 14.40625 51.78125 6.484375 
Q 45.5625 -1.421875 35.59375 -1.421875 
Q 29.59375 -1.421875 25.265625 0.953125 
Q 20.953125 3.328125 18.109375 8.203125 
z
M 48.6875 27.296875 
Q 48.6875 37.203125 44.609375 42.84375 
Q 40.53125 48.484375 33.40625 48.484375 
Q 26.265625 48.484375 22.1875 42.84375 
Q 18.109375 37.203125 18.109375 27.296875 
Q 18.109375 17.390625 22.1875 11.75 
Q 26.265625 6.109375 33.40625 6.109375 
Q 40.53125 6.109375 44.609375 11.75 
Q 48.6875 17.390625 48.6875 27.296875 
z
" id="DejaVuSans-70"/>
      <path d="M 45.40625 46.390625 
L 45.40625 75.984375 
L 54.390625 75.984375 
L 54.390625 0 
L 45.40625 0 
L 45.40625 8.203125 
Q 42.578125 3.328125 38.25 0.953125 
Q 33.9375 -1.421875 27.875 -1.421875 
Q 17.96875 -1.421875 11.734375 6.484375 
Q 5.515625 14.40625 5.515625 27.296875 
Q 5.515625 40.1875 11.734375 48.09375 
Q 17.96875 56 27.875 56 
Q 33.9375 56 38.25 53.625 
Q 42.578125 51.265625 45.40625 46.390625 
z
M 14.796875 27.296875 
Q 14.796875 17.390625 18.875 11.75 
Q 22.953125 6.109375 30.078125 6.109375 
Q 37.203125 6.109375 41.296875 11.75 
Q 45.40625 17.390625 45.40625 27.296875 
Q 45.40625 37.203125 41.296875 42.84375 
Q 37.203125 48.484375 30.078125 48.484375 
Q 22.953125 48.484375 18.875 42.84375 
Q 14.796875 37.203125 14.796875 27.296875 
z
" id="DejaVuSans-64"/>
      <path d="M 8.5 21.578125 
L 8.5 54.6875 
L 17.484375 54.6875 
L 17.484375 21.921875 
Q 17.484375 14.15625 20.5 10.265625 
Q 23.53125 6.390625 29.59375 6.390625 
Q 36.859375 6.390625 41.078125 11.03125 
Q 45.3125 15.671875 45.3125 23.6875 
L 45.3125 54.6875 
L 54.296875 54.6875 
L 54.296875 0 
L 45.3125 0 
L 45.3125 8.40625 
Q 42.046875 3.421875 37.71875 1 
Q 33.40625 -1.421875 27.6875 -1.421875 
Q 18.265625 -1.421875 13.375 4.4375 
Q 8.5 10.296875 8.5 21.578125 
z
M 31.109375 56 
z
" id="DejaVuSans-75"/>
      <path d="M 52 44.1875 
Q 55.375 50.25 60.0625 53.125 
Q 64.75 56 71.09375 56 
Q 79.640625 56 84.28125 50.015625 
Q 88.921875 44.046875 88.921875 33.015625 
L 88.921875 0 
L 79.890625 0 
L 79.890625 32.71875 
Q 79.890625 40.578125 77.09375 44.375 
Q 74.3125 48.1875 68.609375 48.1875 
Q 61.625 48.1875 57.5625 43.546875 
Q 53.515625 38.921875 53.515625 30.90625 
L 53.515625 0 
L 44.484375 0 
L 44.484375 32.71875 
Q 44.484375 40.625 41.703125 44.40625 
Q 38.921875 48.1875 33.109375 48.1875 
Q 26.21875 48.1875 22.15625 43.53125 
Q 18.109375 38.875 18.109375 30.90625 
L 18.109375 0 
L 9.078125 0 
L 9.078125 54.6875 
L 18.109375 54.6875 
L 18.109375 46.1875 
Q 21.1875 51.21875 25.484375 53.609375 
Q 29.78125 56 35.6875 56 
Q 41.65625 56 45.828125 52.96875 
Q 50 49.953125 52 44.1875 
z
" id="DejaVuSans-6d"/>
     </defs>
     <g transform="translate(1203.520313 85.718438)scale(0.1 -0.1)">
      <use xlink:href="#DejaVuSans-74"/>
      <use x="39.208984" xlink:href="#DejaVuSans-63"/>
      <use x="94.189453" xlink:href="#DejaVuSans-70"/>
      <use x="157.666016" xlink:href="#DejaVuSans-64"/>
      <use x="221.142578" xlink:href="#DejaVuSans-75"/>
      <use x="284.521484" xlink:href="#DejaVuSans-6d"/>
      <use x="381.933594" xlink:href="#DejaVuSans-70"/>
     </g>
    </g>
    <g id="line2d_19">
     <path d="M 1175.520313 96.896563 
L 1195.520313 96.896563 
" style="fill:none;stroke:#800080;stroke-dasharray:9.6,2.4,1.5,2.4;stroke-dashoffset:0;stroke-width:1.5;"/>
    </g>
    <g id="line2d_20">
     <g>
      <use style="fill:#800080;stroke:#800080;" x="1185.520313" xlink:href="#mcef90698ad" y="96.896563"/>
     </g>
    </g>
    <g id="text_16">
     <!-- filtered tcpdump -->
     <defs>
      <path d="M 37.109375 75.984375 
L 37.109375 68.5 
L 28.515625 68.5 
Q 23.6875 68.5 21.796875 66.546875 
Q 19.921875 64.59375 19.921875 59.515625 
L 19.921875 54.6875 
L 34.71875 54.6875 
L 34.71875 47.703125 
L 19.921875 47.703125 
L 19.921875 0 
L 10.890625 0 
L 10.890625 47.703125 
L 2.296875 47.703125 
L 2.296875 54.6875 
L 10.890625 54.6875 
L 10.890625 58.5 
Q 10.890625 67.625 15.140625 71.796875 
Q 19.390625 75.984375 28.609375 75.984375 
z
" id="DejaVuSans-66"/>
      <path d="M 9.421875 75.984375 
L 18.40625 75.984375 
L 18.40625 0 
L 9.421875 0 
z
" id="DejaVuSans-6c"/>
      <path d="M 56.203125 29.59375 
L 56.203125 25.203125 
L 14.890625 25.203125 
Q 15.484375 15.921875 20.484375 11.0625 
Q 25.484375 6.203125 34.421875 6.203125 
Q 39.59375 6.203125 44.453125 7.46875 
Q 49.3125 8.734375 54.109375 11.28125 
L 54.109375 2.78125 
Q 49.265625 0.734375 44.1875 -0.34375 
Q 39.109375 -1.421875 33.890625 -1.421875 
Q 20.796875 -1.421875 13.15625 6.1875 
Q 5.515625 13.8125 5.515625 26.8125 
Q 5.515625 40.234375 12.765625 48.109375 
Q 20.015625 56 32.328125 56 
Q 43.359375 56 49.78125 48.890625 
Q 56.203125 41.796875 56.203125 29.59375 
z
M 47.21875 32.234375 
Q 47.125 39.59375 43.09375 43.984375 
Q 39.0625 48.390625 32.421875 48.390625 
Q 24.90625 48.390625 20.390625 44.140625 
Q 15.875 39.890625 15.1875 32.171875 
z
" id="DejaVuSans-65"/>
      <path d="M 41.109375 46.296875 
Q 39.59375 47.171875 37.8125 47.578125 
Q 36.03125 48 33.890625 48 
Q 26.265625 48 22.1875 43.046875 
Q 18.109375 38.09375 18.109375 28.8125 
L 18.109375 0 
L 9.078125 0 
L 9.078125 54.6875 
L 18.109375 54.6875 
L 18.109375 46.1875 
Q 20.953125 51.171875 25.484375 53.578125 
Q 30.03125 56 36.53125 56 
Q 37.453125 56 38.578125 55.875 
Q 39.703125 55.765625 41.0625 55.515625 
z
" id="DejaVuSans-72"/>
     </defs>
     <g transform="translate(1203.520313 100.396563)scale(0.1 -0.1)">
      <use xlink:href="#DejaVuSans-66"/>
      <use x="35.205078" xlink:href="#DejaVuSans-69"/>
      <use x="62.988281" xlink:href="#DejaVuSans-6c"/>
      <use x="90.771484" xlink:href="#DejaVuSans-74"/>
      <use x="129.980469" xlink:href="#DejaVuSans-65"/>
      <use x="191.503906" xlink:href="#DejaVuSans-72"/>
      <use x="232.585938" xlink:href="#DejaVuSans-65"/>
      <use x="294.109375" xlink:href="#DejaVuSans-64"/>
      <use x="357.585938" xlink:href="#DejaVuSans-20"/>
      <use x="389.373047" xlink:href="#DejaVuSans-74"/>
      <use x="428.582031" xlink:href="#DejaVuSans-63"/>
      <use x="483.5625" xlink:href="#DejaVuSans-70"/>
      <use x="547.039062" xlink:href="#DejaVuSans-64"/>
      <use x="610.515625" xlink:href="#DejaVuSans-75"/>
      <use x="673.894531" xlink:href="#DejaVuSans-6d"/>
      <use x="771.306641" xlink:href="#DejaVuSans-70"/>
     </g>
    </g>
    <g id="line2d_21">
     <path d="M 1175.520313 111.574688 
L 1195.520313 111.574688 
" style="fill:none;stroke:#0000ff;stroke-linecap:square;stroke-width:1.5;"/>
    </g>
    <g id="line2d_22"/>
    <g id="text_17">
     <!-- OLS -->
     <defs>
      <path d="M 39.40625 66.21875 
Q 28.65625 66.21875 22.328125 58.203125 
Q 16.015625 50.203125 16.015625 36.375 
Q 16.015625 22.609375 22.328125 14.59375 
Q 28.65625 6.59375 39.40625 6.59375 
Q 50.140625 6.59375 56.421875 14.59375 
Q 62.703125 22.609375 62.703125 36.375 
Q 62.703125 50.203125 56.421875 58.203125 
Q 50.140625 66.21875 39.40625 66.21875 
z
M 39.40625 74.21875 
Q 54.734375 74.21875 63.90625 63.9375 
Q 73.09375 53.65625 73.09375 36.375 
Q 73.09375 19.140625 63.90625 8.859375 
Q 54.734375 -1.421875 39.40625 -1.421875 
Q 24.03125 -1.421875 14.8125 8.828125 
Q 5.609375 19.09375 5.609375 36.375 
Q 5.609375 53.65625 14.8125 63.9375 
Q 24.03125 74.21875 39.40625 74.21875 
z
" id="DejaVuSans-4f"/>
      <path d="M 9.8125 72.90625 
L 19.671875 72.90625 
L 19.671875 8.296875 
L 55.171875 8.296875 
L 55.171875 0 
L 9.8125 0 
z
" id="DejaVuSans-4c"/>
      <path d="M 53.515625 70.515625 
L 53.515625 60.890625 
Q 47.90625 63.578125 42.921875 64.890625 
Q 37.9375 66.21875 33.296875 66.21875 
Q 25.25 66.21875 20.875 63.09375 
Q 16.5 59.96875 16.5 54.203125 
Q 16.5 49.359375 19.40625 46.890625 
Q 22.3125 44.4375 30.421875 42.921875 
L 36.375 41.703125 
Q 47.40625 39.59375 52.65625 34.296875 
Q 57.90625 29 57.90625 20.125 
Q 57.90625 9.515625 50.796875 4.046875 
Q 43.703125 -1.421875 29.984375 -1.421875 
Q 24.8125 -1.421875 18.96875 -0.25 
Q 13.140625 0.921875 6.890625 3.21875 
L 6.890625 13.375 
Q 12.890625 10.015625 18.65625 8.296875 
Q 24.421875 6.59375 29.984375 6.59375 
Q 38.421875 6.59375 43.015625 9.90625 
Q 47.609375 13.234375 47.609375 19.390625 
Q 47.609375 24.75 44.3125 27.78125 
Q 41.015625 30.8125 33.5 32.328125 
L 27.484375 33.5 
Q 16.453125 35.6875 11.515625 40.375 
Q 6.59375 45.0625 6.59375 53.421875 
Q 6.59375 63.09375 13.40625 68.65625 
Q 20.21875 74.21875 32.171875 74.21875 
Q 37.3125 74.21875 42.625 73.28125 
Q 47.953125 72.359375 53.515625 70.515625 
z
" id="DejaVuSans-53"/>
     </defs>
     <g transform="translate(1203.520313 115.074688)scale(0.1 -0.1)">
      <use xlink:href="#DejaVuSans-4f"/>
      <use x="78.710938" xlink:href="#DejaVuSans-4c"/>
      <use x="134.423828" xlink:href="#DejaVuSans-53"/>
     </g>
    </g>
   </g>
  </g>
 </g>
 <defs>
  <clipPath id="p97b49c0a24">
   <rect height="443.52" width="1116" x="180" y="69.12"/>
  </clipPath>
 </defs>
</svg>
