<?xml version="1.0" encoding="utf-8" standalone="no"?>
<!DOCTYPE svg PUBLIC "-//W3C//DTD SVG 1.1//EN"
  "http://www.w3.org/Graphics/SVG/1.1/DTD/svg11.dtd">
<!-- Created with matplotlib (http://matplotlib.org/) -->
<svg height="576pt" version="1.1" viewBox="0 0 1440 576" width="1440pt" xmlns="http://www.w3.org/2000/svg" xmlns:xlink="http://www.w3.org/1999/xlink">
 <defs>
  <style type="text/css">
*{stroke-linecap:butt;stroke-linejoin:round;}
  </style>
 </defs>
 <g id="figure_1">
  <g id="patch_1">
   <path d="M 0 576 
L 1440 576 
L 1440 0 
L 0 0 
z
" style="fill:#ffffff;"/>
  </g>
  <g id="axes_1">
   <g id="patch_2">
    <path d="M 180 512.64 
L 1296 512.64 
L 1296 69.12 
L 180 69.12 
z
" style="fill:#ffffff;"/>
   </g>
   <g id="matplotlib.axis_1">
    <g id="xtick_1">
     <g id="line2d_1">
      <defs>
       <path d="M 0 0 
L 0 3.5 
" id="mf814f826cf" style="stroke:#000000;stroke-width:0.8;"/>
      </defs>
      <g>
       <use style="stroke:#000000;stroke-width:0.8;" x="230.727273" xlink:href="#mf814f826cf" y="512.64"/>
      </g>
     </g>
     <g id="text_1">
      <!-- 0.0 -->
      <defs>
       <path d="M 31.78125 66.40625 
Q 24.171875 66.40625 20.328125 58.90625 
Q 16.5 51.421875 16.5 36.375 
Q 16.5 21.390625 20.328125 13.890625 
Q 24.171875 6.390625 31.78125 6.390625 
Q 39.453125 6.390625 43.28125 13.890625 
Q 47.125 21.390625 47.125 36.375 
Q 47.125 51.421875 43.28125 58.90625 
Q 39.453125 66.40625 31.78125 66.40625 
z
M 31.78125 74.21875 
Q 44.046875 74.21875 50.515625 64.515625 
Q 56.984375 54.828125 56.984375 36.375 
Q 56.984375 17.96875 50.515625 8.265625 
Q 44.046875 -1.421875 31.78125 -1.421875 
Q 19.53125 -1.421875 13.0625 8.265625 
Q 6.59375 17.96875 6.59375 36.375 
Q 6.59375 54.828125 13.0625 64.515625 
Q 19.53125 74.21875 31.78125 74.21875 
z
" id="DejaVuSans-30"/>
       <path d="M 10.6875 12.40625 
L 21 12.40625 
L 21 0 
L 10.6875 0 
z
" id="DejaVuSans-2e"/>
      </defs>
      <g transform="translate(222.77571 527.238438)scale(0.1 -0.1)">
       <use xlink:href="#DejaVuSans-30"/>
       <use x="63.623047" xlink:href="#DejaVuSans-2e"/>
       <use x="95.410156" xlink:href="#DejaVuSans-30"/>
      </g>
     </g>
    </g>
    <g id="xtick_2">
     <g id="line2d_2">
      <g>
       <use style="stroke:#000000;stroke-width:0.8;" x="382.830074" xlink:href="#mf814f826cf" y="512.64"/>
      </g>
     </g>
     <g id="text_2">
      <!-- 0.2 -->
      <defs>
       <path d="M 19.1875 8.296875 
L 53.609375 8.296875 
L 53.609375 0 
L 7.328125 0 
L 7.328125 8.296875 
Q 12.9375 14.109375 22.625 23.890625 
Q 32.328125 33.6875 34.8125 36.53125 
Q 39.546875 41.84375 41.421875 45.53125 
Q 43.3125 49.21875 43.3125 52.78125 
Q 43.3125 58.59375 39.234375 62.25 
Q 35.15625 65.921875 28.609375 65.921875 
Q 23.96875 65.921875 18.8125 64.3125 
Q 13.671875 62.703125 7.8125 59.421875 
L 7.8125 69.390625 
Q 13.765625 71.78125 18.9375 73 
Q 24.125 74.21875 28.421875 74.21875 
Q 39.75 74.21875 46.484375 68.546875 
Q 53.21875 62.890625 53.21875 53.421875 
Q 53.21875 48.921875 51.53125 44.890625 
Q 49.859375 40.875 45.40625 35.40625 
Q 44.1875 33.984375 37.640625 27.21875 
Q 31.109375 20.453125 19.1875 8.296875 
z
" id="DejaVuSans-32"/>
      </defs>
      <g transform="translate(374.878511 527.238438)scale(0.1 -0.1)">
       <use xlink:href="#DejaVuSans-30"/>
       <use x="63.623047" xlink:href="#DejaVuSans-2e"/>
       <use x="95.410156" xlink:href="#DejaVuSans-32"/>
      </g>
     </g>
    </g>
    <g id="xtick_3">
     <g id="line2d_3">
      <g>
       <use style="stroke:#000000;stroke-width:0.8;" x="534.932874" xlink:href="#mf814f826cf" y="512.64"/>
      </g>
     </g>
     <g id="text_3">
      <!-- 0.4 -->
      <defs>
       <path d="M 37.796875 64.3125 
L 12.890625 25.390625 
L 37.796875 25.390625 
z
M 35.203125 72.90625 
L 47.609375 72.90625 
L 47.609375 25.390625 
L 58.015625 25.390625 
L 58.015625 17.1875 
L 47.609375 17.1875 
L 47.609375 0 
L 37.796875 0 
L 37.796875 17.1875 
L 4.890625 17.1875 
L 4.890625 26.703125 
z
" id="DejaVuSans-34"/>
      </defs>
      <g transform="translate(526.981312 527.238438)scale(0.1 -0.1)">
       <use xlink:href="#DejaVuSans-30"/>
       <use x="63.623047" xlink:href="#DejaVuSans-2e"/>
       <use x="95.410156" xlink:href="#DejaVuSans-34"/>
      </g>
     </g>
    </g>
    <g id="xtick_4">
     <g id="line2d_4">
      <g>
       <use style="stroke:#000000;stroke-width:0.8;" x="687.035675" xlink:href="#mf814f826cf" y="512.64"/>
      </g>
     </g>
     <g id="text_4">
      <!-- 0.6 -->
      <defs>
       <path d="M 33.015625 40.375 
Q 26.375 40.375 22.484375 35.828125 
Q 18.609375 31.296875 18.609375 23.390625 
Q 18.609375 15.53125 22.484375 10.953125 
Q 26.375 6.390625 33.015625 6.390625 
Q 39.65625 6.390625 43.53125 10.953125 
Q 47.40625 15.53125 47.40625 23.390625 
Q 47.40625 31.296875 43.53125 35.828125 
Q 39.65625 40.375 33.015625 40.375 
z
M 52.59375 71.296875 
L 52.59375 62.3125 
Q 48.875 64.0625 45.09375 64.984375 
Q 41.3125 65.921875 37.59375 65.921875 
Q 27.828125 65.921875 22.671875 59.328125 
Q 17.53125 52.734375 16.796875 39.40625 
Q 19.671875 43.65625 24.015625 45.921875 
Q 28.375 48.1875 33.59375 48.1875 
Q 44.578125 48.1875 50.953125 41.515625 
Q 57.328125 34.859375 57.328125 23.390625 
Q 57.328125 12.15625 50.6875 5.359375 
Q 44.046875 -1.421875 33.015625 -1.421875 
Q 20.359375 -1.421875 13.671875 8.265625 
Q 6.984375 17.96875 6.984375 36.375 
Q 6.984375 53.65625 15.1875 63.9375 
Q 23.390625 74.21875 37.203125 74.21875 
Q 40.921875 74.21875 44.703125 73.484375 
Q 48.484375 72.75 52.59375 71.296875 
z
" id="DejaVuSans-36"/>
      </defs>
      <g transform="translate(679.084113 527.238438)scale(0.1 -0.1)">
       <use xlink:href="#DejaVuSans-30"/>
       <use x="63.623047" xlink:href="#DejaVuSans-2e"/>
       <use x="95.410156" xlink:href="#DejaVuSans-36"/>
      </g>
     </g>
    </g>
    <g id="xtick_5">
     <g id="line2d_5">
      <g>
       <use style="stroke:#000000;stroke-width:0.8;" x="839.138476" xlink:href="#mf814f826cf" y="512.64"/>
      </g>
     </g>
     <g id="text_5">
      <!-- 0.8 -->
      <defs>
       <path d="M 31.78125 34.625 
Q 24.75 34.625 20.71875 30.859375 
Q 16.703125 27.09375 16.703125 20.515625 
Q 16.703125 13.921875 20.71875 10.15625 
Q 24.75 6.390625 31.78125 6.390625 
Q 38.8125 6.390625 42.859375 10.171875 
Q 46.921875 13.96875 46.921875 20.515625 
Q 46.921875 27.09375 42.890625 30.859375 
Q 38.875 34.625 31.78125 34.625 
z
M 21.921875 38.8125 
Q 15.578125 40.375 12.03125 44.71875 
Q 8.5 49.078125 8.5 55.328125 
Q 8.5 64.0625 14.71875 69.140625 
Q 20.953125 74.21875 31.78125 74.21875 
Q 42.671875 74.21875 48.875 69.140625 
Q 55.078125 64.0625 55.078125 55.328125 
Q 55.078125 49.078125 51.53125 44.71875 
Q 48 40.375 41.703125 38.8125 
Q 48.828125 37.15625 52.796875 32.3125 
Q 56.78125 27.484375 56.78125 20.515625 
Q 56.78125 9.90625 50.3125 4.234375 
Q 43.84375 -1.421875 31.78125 -1.421875 
Q 19.734375 -1.421875 13.25 4.234375 
Q 6.78125 9.90625 6.78125 20.515625 
Q 6.78125 27.484375 10.78125 32.3125 
Q 14.796875 37.15625 21.921875 38.8125 
z
M 18.3125 54.390625 
Q 18.3125 48.734375 21.84375 45.5625 
Q 25.390625 42.390625 31.78125 42.390625 
Q 38.140625 42.390625 41.71875 45.5625 
Q 45.3125 48.734375 45.3125 54.390625 
Q 45.3125 60.0625 41.71875 63.234375 
Q 38.140625 66.40625 31.78125 66.40625 
Q 25.390625 66.40625 21.84375 63.234375 
Q 18.3125 60.0625 18.3125 54.390625 
z
" id="DejaVuSans-38"/>
      </defs>
      <g transform="translate(831.186913 527.238438)scale(0.1 -0.1)">
       <use xlink:href="#DejaVuSans-30"/>
       <use x="63.623047" xlink:href="#DejaVuSans-2e"/>
       <use x="95.410156" xlink:href="#DejaVuSans-38"/>
      </g>
     </g>
    </g>
    <g id="xtick_6">
     <g id="line2d_6">
      <g>
       <use style="stroke:#000000;stroke-width:0.8;" x="991.241277" xlink:href="#mf814f826cf" y="512.64"/>
      </g>
     </g>
     <g id="text_6">
      <!-- 1.0 -->
      <defs>
       <path d="M 12.40625 8.296875 
L 28.515625 8.296875 
L 28.515625 63.921875 
L 10.984375 60.40625 
L 10.984375 69.390625 
L 28.421875 72.90625 
L 38.28125 72.90625 
L 38.28125 8.296875 
L 54.390625 8.296875 
L 54.390625 0 
L 12.40625 0 
z
" id="DejaVuSans-31"/>
      </defs>
      <g transform="translate(983.289714 527.238438)scale(0.1 -0.1)">
       <use xlink:href="#DejaVuSans-31"/>
       <use x="63.623047" xlink:href="#DejaVuSans-2e"/>
       <use x="95.410156" xlink:href="#DejaVuSans-30"/>
      </g>
     </g>
    </g>
    <g id="xtick_7">
     <g id="line2d_7">
      <g>
       <use style="stroke:#000000;stroke-width:0.8;" x="1143.344077" xlink:href="#mf814f826cf" y="512.64"/>
      </g>
     </g>
     <g id="text_7">
      <!-- 1.2 -->
      <g transform="translate(1135.392515 527.238438)scale(0.1 -0.1)">
       <use xlink:href="#DejaVuSans-31"/>
       <use x="63.623047" xlink:href="#DejaVuSans-2e"/>
       <use x="95.410156" xlink:href="#DejaVuSans-32"/>
      </g>
     </g>
    </g>
    <g id="xtick_8">
     <g id="line2d_8">
      <g>
       <use style="stroke:#000000;stroke-width:0.8;" x="1295.446878" xlink:href="#mf814f826cf" y="512.64"/>
      </g>
     </g>
     <g id="text_8">
      <!-- 1.4 -->
      <g transform="translate(1287.495316 527.238438)scale(0.1 -0.1)">
       <use xlink:href="#DejaVuSans-31"/>
       <use x="63.623047" xlink:href="#DejaVuSans-2e"/>
       <use x="95.410156" xlink:href="#DejaVuSans-34"/>
      </g>
     </g>
    </g>
   </g>
   <g id="matplotlib.axis_2">
    <g id="ytick_1">
     <g id="line2d_9">
      <defs>
       <path d="M 0 0 
L -3.5 0 
" id="mf5c722c954" style="stroke:#000000;stroke-width:0.8;"/>
      </defs>
      <g>
       <use style="stroke:#000000;stroke-width:0.8;" x="180" xlink:href="#mf5c722c954" y="466.846093"/>
      </g>
     </g>
     <g id="text_9">
      <!-- 0.3004 -->
      <defs>
       <path d="M 40.578125 39.3125 
Q 47.65625 37.796875 51.625 33 
Q 55.609375 28.21875 55.609375 21.1875 
Q 55.609375 10.40625 48.1875 4.484375 
Q 40.765625 -1.421875 27.09375 -1.421875 
Q 22.515625 -1.421875 17.65625 -0.515625 
Q 12.796875 0.390625 7.625 2.203125 
L 7.625 11.71875 
Q 11.71875 9.328125 16.59375 8.109375 
Q 21.484375 6.890625 26.8125 6.890625 
Q 36.078125 6.890625 40.9375 10.546875 
Q 45.796875 14.203125 45.796875 21.1875 
Q 45.796875 27.640625 41.28125 31.265625 
Q 36.765625 34.90625 28.71875 34.90625 
L 20.21875 34.90625 
L 20.21875 43.015625 
L 29.109375 43.015625 
Q 36.375 43.015625 40.234375 45.921875 
Q 44.09375 48.828125 44.09375 54.296875 
Q 44.09375 59.90625 40.109375 62.90625 
Q 36.140625 65.921875 28.71875 65.921875 
Q 24.65625 65.921875 20.015625 65.03125 
Q 15.375 64.15625 9.8125 62.3125 
L 9.8125 71.09375 
Q 15.4375 72.65625 20.34375 73.4375 
Q 25.25 74.21875 29.59375 74.21875 
Q 40.828125 74.21875 47.359375 69.109375 
Q 53.90625 64.015625 53.90625 55.328125 
Q 53.90625 49.265625 50.4375 45.09375 
Q 46.96875 40.921875 40.578125 39.3125 
z
" id="DejaVuSans-33"/>
      </defs>
      <g transform="translate(138.009375 470.645311)scale(0.1 -0.1)">
       <use xlink:href="#DejaVuSans-30"/>
       <use x="63.623047" xlink:href="#DejaVuSans-2e"/>
       <use x="95.410156" xlink:href="#DejaVuSans-33"/>
       <use x="159.033203" xlink:href="#DejaVuSans-30"/>
       <use x="222.65625" xlink:href="#DejaVuSans-30"/>
       <use x="286.279297" xlink:href="#DejaVuSans-34"/>
      </g>
     </g>
    </g>
    <g id="ytick_2">
     <g id="line2d_10">
      <g>
       <use style="stroke:#000000;stroke-width:0.8;" x="180" xlink:href="#mf5c722c954" y="413.442119"/>
      </g>
     </g>
     <g id="text_10">
      <!-- 0.3005 -->
      <defs>
       <path d="M 10.796875 72.90625 
L 49.515625 72.90625 
L 49.515625 64.59375 
L 19.828125 64.59375 
L 19.828125 46.734375 
Q 21.96875 47.46875 24.109375 47.828125 
Q 26.265625 48.1875 28.421875 48.1875 
Q 40.625 48.1875 47.75 41.5 
Q 54.890625 34.8125 54.890625 23.390625 
Q 54.890625 11.625 47.5625 5.09375 
Q 40.234375 -1.421875 26.90625 -1.421875 
Q 22.3125 -1.421875 17.546875 -0.640625 
Q 12.796875 0.140625 7.71875 1.703125 
L 7.71875 11.625 
Q 12.109375 9.234375 16.796875 8.0625 
Q 21.484375 6.890625 26.703125 6.890625 
Q 35.15625 6.890625 40.078125 11.328125 
Q 45.015625 15.765625 45.015625 23.390625 
Q 45.015625 31 40.078125 35.4375 
Q 35.15625 39.890625 26.703125 39.890625 
Q 22.75 39.890625 18.8125 39.015625 
Q 14.890625 38.140625 10.796875 36.28125 
z
" id="DejaVuSans-35"/>
      </defs>
      <g transform="translate(138.009375 417.241338)scale(0.1 -0.1)">
       <use xlink:href="#DejaVuSans-30"/>
       <use x="63.623047" xlink:href="#DejaVuSans-2e"/>
       <use x="95.410156" xlink:href="#DejaVuSans-33"/>
       <use x="159.033203" xlink:href="#DejaVuSans-30"/>
       <use x="222.65625" xlink:href="#DejaVuSans-30"/>
       <use x="286.279297" xlink:href="#DejaVuSans-35"/>
      </g>
     </g>
    </g>
    <g id="ytick_3">
     <g id="line2d_11">
      <g>
       <use style="stroke:#000000;stroke-width:0.8;" x="180" xlink:href="#mf5c722c954" y="360.038146"/>
      </g>
     </g>
     <g id="text_11">
      <!-- 0.3006 -->
      <g transform="translate(138.009375 363.837364)scale(0.1 -0.1)">
       <use xlink:href="#DejaVuSans-30"/>
       <use x="63.623047" xlink:href="#DejaVuSans-2e"/>
       <use x="95.410156" xlink:href="#DejaVuSans-33"/>
       <use x="159.033203" xlink:href="#DejaVuSans-30"/>
       <use x="222.65625" xlink:href="#DejaVuSans-30"/>
       <use x="286.279297" xlink:href="#DejaVuSans-36"/>
      </g>
     </g>
    </g>
    <g id="ytick_4">
     <g id="line2d_12">
      <g>
       <use style="stroke:#000000;stroke-width:0.8;" x="180" xlink:href="#mf5c722c954" y="306.634172"/>
      </g>
     </g>
     <g id="text_12">
      <!-- 0.3007 -->
      <defs>
       <path d="M 8.203125 72.90625 
L 55.078125 72.90625 
L 55.078125 68.703125 
L 28.609375 0 
L 18.3125 0 
L 43.21875 64.59375 
L 8.203125 64.59375 
z
" id="DejaVuSans-37"/>
      </defs>
      <g transform="translate(138.009375 310.433391)scale(0.1 -0.1)">
       <use xlink:href="#DejaVuSans-30"/>
       <use x="63.623047" xlink:href="#DejaVuSans-2e"/>
       <use x="95.410156" xlink:href="#DejaVuSans-33"/>
       <use x="159.033203" xlink:href="#DejaVuSans-30"/>
       <use x="222.65625" xlink:href="#DejaVuSans-30"/>
       <use x="286.279297" xlink:href="#DejaVuSans-37"/>
      </g>
     </g>
    </g>
    <g id="ytick_5">
     <g id="line2d_13">
      <g>
       <use style="stroke:#000000;stroke-width:0.8;" x="180" xlink:href="#mf5c722c954" y="253.230199"/>
      </g>
     </g>
     <g id="text_13">
      <!-- 0.3008 -->
      <g transform="translate(138.009375 257.029417)scale(0.1 -0.1)">
       <use xlink:href="#DejaVuSans-30"/>
       <use x="63.623047" xlink:href="#DejaVuSans-2e"/>
       <use x="95.410156" xlink:href="#DejaVuSans-33"/>
       <use x="159.033203" xlink:href="#DejaVuSans-30"/>
       <use x="222.65625" xlink:href="#DejaVuSans-30"/>
       <use x="286.279297" xlink:href="#DejaVuSans-38"/>
      </g>
     </g>
    </g>
    <g id="ytick_6">
     <g id="line2d_14">
      <g>
       <use style="stroke:#000000;stroke-width:0.8;" x="180" xlink:href="#mf5c722c954" y="199.826225"/>
      </g>
     </g>
     <g id="text_14">
      <!-- 0.3009 -->
      <defs>
       <path d="M 10.984375 1.515625 
L 10.984375 10.5 
Q 14.703125 8.734375 18.5 7.8125 
Q 22.3125 6.890625 25.984375 6.890625 
Q 35.75 6.890625 40.890625 13.453125 
Q 46.046875 20.015625 46.78125 33.40625 
Q 43.953125 29.203125 39.59375 26.953125 
Q 35.25 24.703125 29.984375 24.703125 
Q 19.046875 24.703125 12.671875 31.3125 
Q 6.296875 37.9375 6.296875 49.421875 
Q 6.296875 60.640625 12.9375 67.421875 
Q 19.578125 74.21875 30.609375 74.21875 
Q 43.265625 74.21875 49.921875 64.515625 
Q 56.59375 54.828125 56.59375 36.375 
Q 56.59375 19.140625 48.40625 8.859375 
Q 40.234375 -1.421875 26.421875 -1.421875 
Q 22.703125 -1.421875 18.890625 -0.6875 
Q 15.09375 0.046875 10.984375 1.515625 
z
M 30.609375 32.421875 
Q 37.25 32.421875 41.125 36.953125 
Q 45.015625 41.5 45.015625 49.421875 
Q 45.015625 57.28125 41.125 61.84375 
Q 37.25 66.40625 30.609375 66.40625 
Q 23.96875 66.40625 20.09375 61.84375 
Q 16.21875 57.28125 16.21875 49.421875 
Q 16.21875 41.5 20.09375 36.953125 
Q 23.96875 32.421875 30.609375 32.421875 
z
" id="DejaVuSans-39"/>
      </defs>
      <g transform="translate(138.009375 203.625444)scale(0.1 -0.1)">
       <use xlink:href="#DejaVuSans-30"/>
       <use x="63.623047" xlink:href="#DejaVuSans-2e"/>
       <use x="95.410156" xlink:href="#DejaVuSans-33"/>
       <use x="159.033203" xlink:href="#DejaVuSans-30"/>
       <use x="222.65625" xlink:href="#DejaVuSans-30"/>
       <use x="286.279297" xlink:href="#DejaVuSans-39"/>
      </g>
     </g>
    </g>
    <g id="ytick_7">
     <g id="line2d_15">
      <g>
       <use style="stroke:#000000;stroke-width:0.8;" x="180" xlink:href="#mf5c722c954" y="146.422252"/>
      </g>
     </g>
     <g id="text_15">
      <!-- 0.3010 -->
      <g transform="translate(138.009375 150.22147)scale(0.1 -0.1)">
       <use xlink:href="#DejaVuSans-30"/>
       <use x="63.623047" xlink:href="#DejaVuSans-2e"/>
       <use x="95.410156" xlink:href="#DejaVuSans-33"/>
       <use x="159.033203" xlink:href="#DejaVuSans-30"/>
       <use x="222.65625" xlink:href="#DejaVuSans-31"/>
       <use x="286.279297" xlink:href="#DejaVuSans-30"/>
      </g>
     </g>
    </g>
    <g id="ytick_8">
     <g id="line2d_16">
      <g>
       <use style="stroke:#000000;stroke-width:0.8;" x="180" xlink:href="#mf5c722c954" y="93.018278"/>
      </g>
     </g>
     <g id="text_16">
      <!-- 0.3011 -->
      <g transform="translate(138.009375 96.817497)scale(0.1 -0.1)">
       <use xlink:href="#DejaVuSans-30"/>
       <use x="63.623047" xlink:href="#DejaVuSans-2e"/>
       <use x="95.410156" xlink:href="#DejaVuSans-33"/>
       <use x="159.033203" xlink:href="#DejaVuSans-30"/>
       <use x="222.65625" xlink:href="#DejaVuSans-31"/>
       <use x="286.279297" xlink:href="#DejaVuSans-31"/>
      </g>
     </g>
    </g>
   </g>
   <g id="line2d_17">
    <path clip-path="url(#p22bfed3f4e)" d="M 230.727273 442.814305 
L 240.939455 405.431523 
L 252.01406 377.661457 
L 262.088589 395.284768 
L 272.449831 468.982252 
L 282.741107 353.629669 
L 292.82172 366.446623 
L 303.052915 466.312053 
L 313.719124 431.59947 
L 323.748022 420.384636 
L 333.763231 294.351258 
L 344.437045 451.35894 
L 354.481914 426.259073 
L 364.483434 424.656954 
L 375.202879 348.289272 
L 385.252311 461.505695 
L 395.236338 364.310464 
L 406.049327 483.935364 
L 416.107124 410.237881 
L 426.024227 422.520795 
L 436.761164 441.746225 
L 446.922391 476.992848 
L 456.89273 470.050331 
L 467.608372 486.605563 
L 477.659325 437.473907 
L 487.578709 394.750728 
L 498.113349 311.44053 
L 508.04186 424.122914 
L 517.965807 426.793113 
L 528.689054 426.793113 
L 538.587905 450.290861 
L 548.705783 416.646358 
L 559.36971 421.986755 
L 569.276926 454.029139 
L 579.357539 469.516291 
L 590.023748 423.588874 
L 600.046562 362.708344 
L 610.109684 400.625166 
L 620.771329 492.48 
L 630.752315 399.023046 
L 640.754595 492.48 
L 651.505982 403.829404 
L 661.447421 375.525298 
L 671.428407 481.799205 
L 682.16078 455.097219 
L 692.11743 477.526887 
L 702.093852 446.552583 
L 712.877941 355.765828 
L 722.771468 467.380132 
L 732.780592 407.567682 
L 743.582933 415.044238 
L 753.46125 477.526887 
L 763.514484 283.670464 
L 774.270434 89.28 
L 784.124414 422.520795 
L 794.198182 263.376954 
L 805.002044 332.802119 
L 814.854503 455.631258 
L 824.877317 404.363444 
L 835.63859 420.918675 
L 845.514625 400.625166 
L 855.584591 389.944371 
L 866.396058 471.118411 
L 876.22266 464.175894 
L 886.337496 420.918675 
L 897.209044 317.849007 
L 907.112457 465.778013 
L 917.121582 427.327152 
L 927.996932 459.903576 
L 938.029633 432.66755 
L 947.922399 411.84 
L 958.676827 304.498013 
L 968.708007 463.641854 
L 978.605336 475.924768 
L 989.389425 401.693245 
L 999.447983 435.871788 
L 1009.349115 380.331656 
L 1020.219142 446.018543 
L 1030.226745 475.390728 
L 1040.117991 442.814305 
L 1051.534066 419.850596 
L 1061.562204 437.473907 
L 1071.467899 454.563179 
L 1081.849676 441.746225 
L 1091.877053 356.833907 
L 1101.7721 479.663046 
L 1112.507516 311.97457 
L 1122.531851 462.039735 
L 1132.429941 480.731126 
L 1143.164596 329.063841 
L 1153.166116 466.312053 
L 1163.089302 478.594967 
L 1173.877194 456.699338 
L 1183.902289 378.729536 
L 1193.840686 486.071523 
L 1204.61717 446.552583 
L 1214.678009 454.563179 
L 1224.597394 447.620662 
L 1235.228619 301.827815 
L 1245.272727 462.039735 
" style="fill:none;stroke:#ff0000;stroke-dasharray:5.55,2.4;stroke-dashoffset:0;stroke-width:1.5;"/>
    <defs>
     <path d="M -3 3 
L 3 3 
L 3 -3 
L -3 -3 
z
" id="m5e0770abd3" style="stroke:#ff0000;stroke-linejoin:miter;"/>
    </defs>
    <g clip-path="url(#p22bfed3f4e)">
     <use style="fill:#ff0000;stroke:#ff0000;stroke-linejoin:miter;" x="230.727273" xlink:href="#m5e0770abd3" y="442.814305"/>
     <use style="fill:#ff0000;stroke:#ff0000;stroke-linejoin:miter;" x="240.939455" xlink:href="#m5e0770abd3" y="405.431523"/>
     <use style="fill:#ff0000;stroke:#ff0000;stroke-linejoin:miter;" x="252.01406" xlink:href="#m5e0770abd3" y="377.661457"/>
     <use style="fill:#ff0000;stroke:#ff0000;stroke-linejoin:miter;" x="262.088589" xlink:href="#m5e0770abd3" y="395.284768"/>
     <use style="fill:#ff0000;stroke:#ff0000;stroke-linejoin:miter;" x="272.449831" xlink:href="#m5e0770abd3" y="468.982252"/>
     <use style="fill:#ff0000;stroke:#ff0000;stroke-linejoin:miter;" x="282.741107" xlink:href="#m5e0770abd3" y="353.629669"/>
     <use style="fill:#ff0000;stroke:#ff0000;stroke-linejoin:miter;" x="292.82172" xlink:href="#m5e0770abd3" y="366.446623"/>
     <use style="fill:#ff0000;stroke:#ff0000;stroke-linejoin:miter;" x="303.052915" xlink:href="#m5e0770abd3" y="466.312053"/>
     <use style="fill:#ff0000;stroke:#ff0000;stroke-linejoin:miter;" x="313.719124" xlink:href="#m5e0770abd3" y="431.59947"/>
     <use style="fill:#ff0000;stroke:#ff0000;stroke-linejoin:miter;" x="323.748022" xlink:href="#m5e0770abd3" y="420.384636"/>
     <use style="fill:#ff0000;stroke:#ff0000;stroke-linejoin:miter;" x="333.763231" xlink:href="#m5e0770abd3" y="294.351258"/>
     <use style="fill:#ff0000;stroke:#ff0000;stroke-linejoin:miter;" x="344.437045" xlink:href="#m5e0770abd3" y="451.35894"/>
     <use style="fill:#ff0000;stroke:#ff0000;stroke-linejoin:miter;" x="354.481914" xlink:href="#m5e0770abd3" y="426.259073"/>
     <use style="fill:#ff0000;stroke:#ff0000;stroke-linejoin:miter;" x="364.483434" xlink:href="#m5e0770abd3" y="424.656954"/>
     <use style="fill:#ff0000;stroke:#ff0000;stroke-linejoin:miter;" x="375.202879" xlink:href="#m5e0770abd3" y="348.289272"/>
     <use style="fill:#ff0000;stroke:#ff0000;stroke-linejoin:miter;" x="385.252311" xlink:href="#m5e0770abd3" y="461.505695"/>
     <use style="fill:#ff0000;stroke:#ff0000;stroke-linejoin:miter;" x="395.236338" xlink:href="#m5e0770abd3" y="364.310464"/>
     <use style="fill:#ff0000;stroke:#ff0000;stroke-linejoin:miter;" x="406.049327" xlink:href="#m5e0770abd3" y="483.935364"/>
     <use style="fill:#ff0000;stroke:#ff0000;stroke-linejoin:miter;" x="416.107124" xlink:href="#m5e0770abd3" y="410.237881"/>
     <use style="fill:#ff0000;stroke:#ff0000;stroke-linejoin:miter;" x="426.024227" xlink:href="#m5e0770abd3" y="422.520795"/>
     <use style="fill:#ff0000;stroke:#ff0000;stroke-linejoin:miter;" x="436.761164" xlink:href="#m5e0770abd3" y="441.746225"/>
     <use style="fill:#ff0000;stroke:#ff0000;stroke-linejoin:miter;" x="446.922391" xlink:href="#m5e0770abd3" y="476.992848"/>
     <use style="fill:#ff0000;stroke:#ff0000;stroke-linejoin:miter;" x="456.89273" xlink:href="#m5e0770abd3" y="470.050331"/>
     <use style="fill:#ff0000;stroke:#ff0000;stroke-linejoin:miter;" x="467.608372" xlink:href="#m5e0770abd3" y="486.605563"/>
     <use style="fill:#ff0000;stroke:#ff0000;stroke-linejoin:miter;" x="477.659325" xlink:href="#m5e0770abd3" y="437.473907"/>
     <use style="fill:#ff0000;stroke:#ff0000;stroke-linejoin:miter;" x="487.578709" xlink:href="#m5e0770abd3" y="394.750728"/>
     <use style="fill:#ff0000;stroke:#ff0000;stroke-linejoin:miter;" x="498.113349" xlink:href="#m5e0770abd3" y="311.44053"/>
     <use style="fill:#ff0000;stroke:#ff0000;stroke-linejoin:miter;" x="508.04186" xlink:href="#m5e0770abd3" y="424.122914"/>
     <use style="fill:#ff0000;stroke:#ff0000;stroke-linejoin:miter;" x="517.965807" xlink:href="#m5e0770abd3" y="426.793113"/>
     <use style="fill:#ff0000;stroke:#ff0000;stroke-linejoin:miter;" x="528.689054" xlink:href="#m5e0770abd3" y="426.793113"/>
     <use style="fill:#ff0000;stroke:#ff0000;stroke-linejoin:miter;" x="538.587905" xlink:href="#m5e0770abd3" y="450.290861"/>
     <use style="fill:#ff0000;stroke:#ff0000;stroke-linejoin:miter;" x="548.705783" xlink:href="#m5e0770abd3" y="416.646358"/>
     <use style="fill:#ff0000;stroke:#ff0000;stroke-linejoin:miter;" x="559.36971" xlink:href="#m5e0770abd3" y="421.986755"/>
     <use style="fill:#ff0000;stroke:#ff0000;stroke-linejoin:miter;" x="569.276926" xlink:href="#m5e0770abd3" y="454.029139"/>
     <use style="fill:#ff0000;stroke:#ff0000;stroke-linejoin:miter;" x="579.357539" xlink:href="#m5e0770abd3" y="469.516291"/>
     <use style="fill:#ff0000;stroke:#ff0000;stroke-linejoin:miter;" x="590.023748" xlink:href="#m5e0770abd3" y="423.588874"/>
     <use style="fill:#ff0000;stroke:#ff0000;stroke-linejoin:miter;" x="600.046562" xlink:href="#m5e0770abd3" y="362.708344"/>
     <use style="fill:#ff0000;stroke:#ff0000;stroke-linejoin:miter;" x="610.109684" xlink:href="#m5e0770abd3" y="400.625166"/>
     <use style="fill:#ff0000;stroke:#ff0000;stroke-linejoin:miter;" x="620.771329" xlink:href="#m5e0770abd3" y="492.48"/>
     <use style="fill:#ff0000;stroke:#ff0000;stroke-linejoin:miter;" x="630.752315" xlink:href="#m5e0770abd3" y="399.023046"/>
     <use style="fill:#ff0000;stroke:#ff0000;stroke-linejoin:miter;" x="640.754595" xlink:href="#m5e0770abd3" y="492.48"/>
     <use style="fill:#ff0000;stroke:#ff0000;stroke-linejoin:miter;" x="651.505982" xlink:href="#m5e0770abd3" y="403.829404"/>
     <use style="fill:#ff0000;stroke:#ff0000;stroke-linejoin:miter;" x="661.447421" xlink:href="#m5e0770abd3" y="375.525298"/>
     <use style="fill:#ff0000;stroke:#ff0000;stroke-linejoin:miter;" x="671.428407" xlink:href="#m5e0770abd3" y="481.799205"/>
     <use style="fill:#ff0000;stroke:#ff0000;stroke-linejoin:miter;" x="682.16078" xlink:href="#m5e0770abd3" y="455.097219"/>
     <use style="fill:#ff0000;stroke:#ff0000;stroke-linejoin:miter;" x="692.11743" xlink:href="#m5e0770abd3" y="477.526887"/>
     <use style="fill:#ff0000;stroke:#ff0000;stroke-linejoin:miter;" x="702.093852" xlink:href="#m5e0770abd3" y="446.552583"/>
     <use style="fill:#ff0000;stroke:#ff0000;stroke-linejoin:miter;" x="712.877941" xlink:href="#m5e0770abd3" y="355.765828"/>
     <use style="fill:#ff0000;stroke:#ff0000;stroke-linejoin:miter;" x="722.771468" xlink:href="#m5e0770abd3" y="467.380132"/>
     <use style="fill:#ff0000;stroke:#ff0000;stroke-linejoin:miter;" x="732.780592" xlink:href="#m5e0770abd3" y="407.567682"/>
     <use style="fill:#ff0000;stroke:#ff0000;stroke-linejoin:miter;" x="743.582933" xlink:href="#m5e0770abd3" y="415.044238"/>
     <use style="fill:#ff0000;stroke:#ff0000;stroke-linejoin:miter;" x="753.46125" xlink:href="#m5e0770abd3" y="477.526887"/>
     <use style="fill:#ff0000;stroke:#ff0000;stroke-linejoin:miter;" x="763.514484" xlink:href="#m5e0770abd3" y="283.670464"/>
     <use style="fill:#ff0000;stroke:#ff0000;stroke-linejoin:miter;" x="774.270434" xlink:href="#m5e0770abd3" y="89.28"/>
     <use style="fill:#ff0000;stroke:#ff0000;stroke-linejoin:miter;" x="784.124414" xlink:href="#m5e0770abd3" y="422.520795"/>
     <use style="fill:#ff0000;stroke:#ff0000;stroke-linejoin:miter;" x="794.198182" xlink:href="#m5e0770abd3" y="263.376954"/>
     <use style="fill:#ff0000;stroke:#ff0000;stroke-linejoin:miter;" x="805.002044" xlink:href="#m5e0770abd3" y="332.802119"/>
     <use style="fill:#ff0000;stroke:#ff0000;stroke-linejoin:miter;" x="814.854503" xlink:href="#m5e0770abd3" y="455.631258"/>
     <use style="fill:#ff0000;stroke:#ff0000;stroke-linejoin:miter;" x="824.877317" xlink:href="#m5e0770abd3" y="404.363444"/>
     <use style="fill:#ff0000;stroke:#ff0000;stroke-linejoin:miter;" x="835.63859" xlink:href="#m5e0770abd3" y="420.918675"/>
     <use style="fill:#ff0000;stroke:#ff0000;stroke-linejoin:miter;" x="845.514625" xlink:href="#m5e0770abd3" y="400.625166"/>
     <use style="fill:#ff0000;stroke:#ff0000;stroke-linejoin:miter;" x="855.584591" xlink:href="#m5e0770abd3" y="389.944371"/>
     <use style="fill:#ff0000;stroke:#ff0000;stroke-linejoin:miter;" x="866.396058" xlink:href="#m5e0770abd3" y="471.118411"/>
     <use style="fill:#ff0000;stroke:#ff0000;stroke-linejoin:miter;" x="876.22266" xlink:href="#m5e0770abd3" y="464.175894"/>
     <use style="fill:#ff0000;stroke:#ff0000;stroke-linejoin:miter;" x="886.337496" xlink:href="#m5e0770abd3" y="420.918675"/>
     <use style="fill:#ff0000;stroke:#ff0000;stroke-linejoin:miter;" x="897.209044" xlink:href="#m5e0770abd3" y="317.849007"/>
     <use style="fill:#ff0000;stroke:#ff0000;stroke-linejoin:miter;" x="907.112457" xlink:href="#m5e0770abd3" y="465.778013"/>
     <use style="fill:#ff0000;stroke:#ff0000;stroke-linejoin:miter;" x="917.121582" xlink:href="#m5e0770abd3" y="427.327152"/>
     <use style="fill:#ff0000;stroke:#ff0000;stroke-linejoin:miter;" x="927.996932" xlink:href="#m5e0770abd3" y="459.903576"/>
     <use style="fill:#ff0000;stroke:#ff0000;stroke-linejoin:miter;" x="938.029633" xlink:href="#m5e0770abd3" y="432.66755"/>
     <use style="fill:#ff0000;stroke:#ff0000;stroke-linejoin:miter;" x="947.922399" xlink:href="#m5e0770abd3" y="411.84"/>
     <use style="fill:#ff0000;stroke:#ff0000;stroke-linejoin:miter;" x="958.676827" xlink:href="#m5e0770abd3" y="304.498013"/>
     <use style="fill:#ff0000;stroke:#ff0000;stroke-linejoin:miter;" x="968.708007" xlink:href="#m5e0770abd3" y="463.641854"/>
     <use style="fill:#ff0000;stroke:#ff0000;stroke-linejoin:miter;" x="978.605336" xlink:href="#m5e0770abd3" y="475.924768"/>
     <use style="fill:#ff0000;stroke:#ff0000;stroke-linejoin:miter;" x="989.389425" xlink:href="#m5e0770abd3" y="401.693245"/>
     <use style="fill:#ff0000;stroke:#ff0000;stroke-linejoin:miter;" x="999.447983" xlink:href="#m5e0770abd3" y="435.871788"/>
     <use style="fill:#ff0000;stroke:#ff0000;stroke-linejoin:miter;" x="1009.349115" xlink:href="#m5e0770abd3" y="380.331656"/>
     <use style="fill:#ff0000;stroke:#ff0000;stroke-linejoin:miter;" x="1020.219142" xlink:href="#m5e0770abd3" y="446.018543"/>
     <use style="fill:#ff0000;stroke:#ff0000;stroke-linejoin:miter;" x="1030.226745" xlink:href="#m5e0770abd3" y="475.390728"/>
     <use style="fill:#ff0000;stroke:#ff0000;stroke-linejoin:miter;" x="1040.117991" xlink:href="#m5e0770abd3" y="442.814305"/>
     <use style="fill:#ff0000;stroke:#ff0000;stroke-linejoin:miter;" x="1051.534066" xlink:href="#m5e0770abd3" y="419.850596"/>
     <use style="fill:#ff0000;stroke:#ff0000;stroke-linejoin:miter;" x="1061.562204" xlink:href="#m5e0770abd3" y="437.473907"/>
     <use style="fill:#ff0000;stroke:#ff0000;stroke-linejoin:miter;" x="1071.467899" xlink:href="#m5e0770abd3" y="454.563179"/>
     <use style="fill:#ff0000;stroke:#ff0000;stroke-linejoin:miter;" x="1081.849676" xlink:href="#m5e0770abd3" y="441.746225"/>
     <use style="fill:#ff0000;stroke:#ff0000;stroke-linejoin:miter;" x="1091.877053" xlink:href="#m5e0770abd3" y="356.833907"/>
     <use style="fill:#ff0000;stroke:#ff0000;stroke-linejoin:miter;" x="1101.7721" xlink:href="#m5e0770abd3" y="479.663046"/>
     <use style="fill:#ff0000;stroke:#ff0000;stroke-linejoin:miter;" x="1112.507516" xlink:href="#m5e0770abd3" y="311.97457"/>
     <use style="fill:#ff0000;stroke:#ff0000;stroke-linejoin:miter;" x="1122.531851" xlink:href="#m5e0770abd3" y="462.039735"/>
     <use style="fill:#ff0000;stroke:#ff0000;stroke-linejoin:miter;" x="1132.429941" xlink:href="#m5e0770abd3" y="480.731126"/>
     <use style="fill:#ff0000;stroke:#ff0000;stroke-linejoin:miter;" x="1143.164596" xlink:href="#m5e0770abd3" y="329.063841"/>
     <use style="fill:#ff0000;stroke:#ff0000;stroke-linejoin:miter;" x="1153.166116" xlink:href="#m5e0770abd3" y="466.312053"/>
     <use style="fill:#ff0000;stroke:#ff0000;stroke-linejoin:miter;" x="1163.089302" xlink:href="#m5e0770abd3" y="478.594967"/>
     <use style="fill:#ff0000;stroke:#ff0000;stroke-linejoin:miter;" x="1173.877194" xlink:href="#m5e0770abd3" y="456.699338"/>
     <use style="fill:#ff0000;stroke:#ff0000;stroke-linejoin:miter;" x="1183.902289" xlink:href="#m5e0770abd3" y="378.729536"/>
     <use style="fill:#ff0000;stroke:#ff0000;stroke-linejoin:miter;" x="1193.840686" xlink:href="#m5e0770abd3" y="486.071523"/>
     <use style="fill:#ff0000;stroke:#ff0000;stroke-linejoin:miter;" x="1204.61717" xlink:href="#m5e0770abd3" y="446.552583"/>
     <use style="fill:#ff0000;stroke:#ff0000;stroke-linejoin:miter;" x="1214.678009" xlink:href="#m5e0770abd3" y="454.563179"/>
     <use style="fill:#ff0000;stroke:#ff0000;stroke-linejoin:miter;" x="1224.597394" xlink:href="#m5e0770abd3" y="447.620662"/>
     <use style="fill:#ff0000;stroke:#ff0000;stroke-linejoin:miter;" x="1235.228619" xlink:href="#m5e0770abd3" y="301.827815"/>
     <use style="fill:#ff0000;stroke:#ff0000;stroke-linejoin:miter;" x="1245.272727" xlink:href="#m5e0770abd3" y="462.039735"/>
    </g>
   </g>
   <g id="line2d_18">
    <path clip-path="url(#p22bfed3f4e)" d="M 230.727273 442.814305 
L 240.939455 405.431523 
L 252.01406 377.661457 
L 262.088589 395.284768 
L 272.449831 468.982252 
L 282.741107 353.629669 
L 292.82172 366.446623 
L 303.052915 466.312053 
L 313.719124 431.59947 
L 323.748022 420.384636 
L 333.763231 294.351258 
L 344.437045 451.35894 
L 354.481914 426.259073 
L 364.483434 424.656954 
L 375.202879 348.289272 
L 385.252311 461.505695 
L 395.236338 364.310464 
L 406.049327 483.935364 
L 416.107124 410.237881 
L 426.024227 422.520795 
L 436.761164 441.746225 
L 446.922391 476.992848 
L 456.89273 470.050331 
L 467.608372 486.605563 
L 477.659325 437.473907 
L 487.578709 394.750728 
L 498.113349 311.44053 
L 508.04186 424.122914 
L 517.965807 426.793113 
L 528.689054 426.793113 
L 538.587905 450.290861 
L 548.705783 416.646358 
L 559.36971 421.986755 
L 569.276926 454.029139 
L 579.357539 469.516291 
L 590.023748 423.588874 
L 600.046562 362.708344 
L 610.109684 400.625166 
L 620.771329 492.48 
L 630.752315 399.023046 
L 640.754595 492.48 
L 651.505982 403.829404 
L 661.447421 375.525298 
L 671.428407 481.799205 
L 682.16078 455.097219 
L 692.11743 477.526887 
L 702.093852 446.552583 
L 712.877941 355.765828 
L 722.771468 467.380132 
L 732.780592 407.567682 
L 743.582933 415.044238 
L 753.46125 477.526887 
L 763.514484 283.670464 
L 774.270434 89.28 
L 784.124414 422.520795 
L 794.198182 263.376954 
L 805.002044 332.802119 
L 814.854503 455.631258 
L 824.877317 404.363444 
L 835.63859 420.918675 
L 845.514625 400.625166 
L 855.584591 389.944371 
L 866.396058 471.118411 
L 876.22266 464.175894 
L 886.337496 420.918675 
L 897.209044 317.849007 
L 907.112457 465.778013 
L 917.121582 427.327152 
L 927.996932 459.903576 
L 938.029633 432.66755 
L 947.922399 411.84 
L 958.676827 304.498013 
L 968.708007 463.641854 
L 978.605336 475.924768 
L 989.389425 401.693245 
L 999.447983 435.871788 
L 1009.349115 380.331656 
L 1020.219142 446.018543 
L 1030.226745 475.390728 
L 1040.117991 442.814305 
L 1051.534066 419.850596 
L 1061.562204 437.473907 
L 1071.467899 454.563179 
L 1081.849676 441.746225 
L 1091.877053 356.833907 
L 1101.7721 479.663046 
L 1112.507516 311.97457 
L 1122.531851 462.039735 
L 1132.429941 480.731126 
L 1143.164596 329.063841 
L 1153.166116 466.312053 
L 1163.089302 478.594967 
L 1173.877194 456.699338 
L 1183.902289 378.729536 
L 1193.840686 486.071523 
L 1204.61717 446.552583 
L 1214.678009 454.563179 
L 1224.597394 447.620662 
L 1235.228619 301.827815 
L 1245.272727 462.039735 
" style="fill:none;stroke:#800080;stroke-dasharray:9.6,2.4,1.5,2.4;stroke-dashoffset:0;stroke-width:1.5;"/>
    <defs>
     <path d="M -3 3 
L 3 -3 
M -3 -3 
L 3 3 
" id="mf148cca77d" style="stroke:#800080;"/>
    </defs>
    <g clip-path="url(#p22bfed3f4e)">
     <use style="fill:#800080;stroke:#800080;" x="230.727273" xlink:href="#mf148cca77d" y="442.814305"/>
     <use style="fill:#800080;stroke:#800080;" x="240.939455" xlink:href="#mf148cca77d" y="405.431523"/>
     <use style="fill:#800080;stroke:#800080;" x="252.01406" xlink:href="#mf148cca77d" y="377.661457"/>
     <use style="fill:#800080;stroke:#800080;" x="262.088589" xlink:href="#mf148cca77d" y="395.284768"/>
     <use style="fill:#800080;stroke:#800080;" x="272.449831" xlink:href="#mf148cca77d" y="468.982252"/>
     <use style="fill:#800080;stroke:#800080;" x="282.741107" xlink:href="#mf148cca77d" y="353.629669"/>
     <use style="fill:#800080;stroke:#800080;" x="292.82172" xlink:href="#mf148cca77d" y="366.446623"/>
     <use style="fill:#800080;stroke:#800080;" x="303.052915" xlink:href="#mf148cca77d" y="466.312053"/>
     <use style="fill:#800080;stroke:#800080;" x="313.719124" xlink:href="#mf148cca77d" y="431.59947"/>
     <use style="fill:#800080;stroke:#800080;" x="323.748022" xlink:href="#mf148cca77d" y="420.384636"/>
     <use style="fill:#800080;stroke:#800080;" x="333.763231" xlink:href="#mf148cca77d" y="294.351258"/>
     <use style="fill:#800080;stroke:#800080;" x="344.437045" xlink:href="#mf148cca77d" y="451.35894"/>
     <use style="fill:#800080;stroke:#800080;" x="354.481914" xlink:href="#mf148cca77d" y="426.259073"/>
     <use style="fill:#800080;stroke:#800080;" x="364.483434" xlink:href="#mf148cca77d" y="424.656954"/>
     <use style="fill:#800080;stroke:#800080;" x="375.202879" xlink:href="#mf148cca77d" y="348.289272"/>
     <use style="fill:#800080;stroke:#800080;" x="385.252311" xlink:href="#mf148cca77d" y="461.505695"/>
     <use style="fill:#800080;stroke:#800080;" x="395.236338" xlink:href="#mf148cca77d" y="364.310464"/>
     <use style="fill:#800080;stroke:#800080;" x="406.049327" xlink:href="#mf148cca77d" y="483.935364"/>
     <use style="fill:#800080;stroke:#800080;" x="416.107124" xlink:href="#mf148cca77d" y="410.237881"/>
     <use style="fill:#800080;stroke:#800080;" x="426.024227" xlink:href="#mf148cca77d" y="422.520795"/>
     <use style="fill:#800080;stroke:#800080;" x="436.761164" xlink:href="#mf148cca77d" y="441.746225"/>
     <use style="fill:#800080;stroke:#800080;" x="446.922391" xlink:href="#mf148cca77d" y="476.992848"/>
     <use style="fill:#800080;stroke:#800080;" x="456.89273" xlink:href="#mf148cca77d" y="470.050331"/>
     <use style="fill:#800080;stroke:#800080;" x="467.608372" xlink:href="#mf148cca77d" y="486.605563"/>
     <use style="fill:#800080;stroke:#800080;" x="477.659325" xlink:href="#mf148cca77d" y="437.473907"/>
     <use style="fill:#800080;stroke:#800080;" x="487.578709" xlink:href="#mf148cca77d" y="394.750728"/>
     <use style="fill:#800080;stroke:#800080;" x="498.113349" xlink:href="#mf148cca77d" y="311.44053"/>
     <use style="fill:#800080;stroke:#800080;" x="508.04186" xlink:href="#mf148cca77d" y="424.122914"/>
     <use style="fill:#800080;stroke:#800080;" x="517.965807" xlink:href="#mf148cca77d" y="426.793113"/>
     <use style="fill:#800080;stroke:#800080;" x="528.689054" xlink:href="#mf148cca77d" y="426.793113"/>
     <use style="fill:#800080;stroke:#800080;" x="538.587905" xlink:href="#mf148cca77d" y="450.290861"/>
     <use style="fill:#800080;stroke:#800080;" x="548.705783" xlink:href="#mf148cca77d" y="416.646358"/>
     <use style="fill:#800080;stroke:#800080;" x="559.36971" xlink:href="#mf148cca77d" y="421.986755"/>
     <use style="fill:#800080;stroke:#800080;" x="569.276926" xlink:href="#mf148cca77d" y="454.029139"/>
     <use style="fill:#800080;stroke:#800080;" x="579.357539" xlink:href="#mf148cca77d" y="469.516291"/>
     <use style="fill:#800080;stroke:#800080;" x="590.023748" xlink:href="#mf148cca77d" y="423.588874"/>
     <use style="fill:#800080;stroke:#800080;" x="600.046562" xlink:href="#mf148cca77d" y="362.708344"/>
     <use style="fill:#800080;stroke:#800080;" x="610.109684" xlink:href="#mf148cca77d" y="400.625166"/>
     <use style="fill:#800080;stroke:#800080;" x="620.771329" xlink:href="#mf148cca77d" y="492.48"/>
     <use style="fill:#800080;stroke:#800080;" x="630.752315" xlink:href="#mf148cca77d" y="399.023046"/>
     <use style="fill:#800080;stroke:#800080;" x="640.754595" xlink:href="#mf148cca77d" y="492.48"/>
     <use style="fill:#800080;stroke:#800080;" x="651.505982" xlink:href="#mf148cca77d" y="403.829404"/>
     <use style="fill:#800080;stroke:#800080;" x="661.447421" xlink:href="#mf148cca77d" y="375.525298"/>
     <use style="fill:#800080;stroke:#800080;" x="671.428407" xlink:href="#mf148cca77d" y="481.799205"/>
     <use style="fill:#800080;stroke:#800080;" x="682.16078" xlink:href="#mf148cca77d" y="455.097219"/>
     <use style="fill:#800080;stroke:#800080;" x="692.11743" xlink:href="#mf148cca77d" y="477.526887"/>
     <use style="fill:#800080;stroke:#800080;" x="702.093852" xlink:href="#mf148cca77d" y="446.552583"/>
     <use style="fill:#800080;stroke:#800080;" x="712.877941" xlink:href="#mf148cca77d" y="355.765828"/>
     <use style="fill:#800080;stroke:#800080;" x="722.771468" xlink:href="#mf148cca77d" y="467.380132"/>
     <use style="fill:#800080;stroke:#800080;" x="732.780592" xlink:href="#mf148cca77d" y="407.567682"/>
     <use style="fill:#800080;stroke:#800080;" x="743.582933" xlink:href="#mf148cca77d" y="415.044238"/>
     <use style="fill:#800080;stroke:#800080;" x="753.46125" xlink:href="#mf148cca77d" y="477.526887"/>
     <use style="fill:#800080;stroke:#800080;" x="763.514484" xlink:href="#mf148cca77d" y="283.670464"/>
     <use style="fill:#800080;stroke:#800080;" x="774.270434" xlink:href="#mf148cca77d" y="89.28"/>
     <use style="fill:#800080;stroke:#800080;" x="784.124414" xlink:href="#mf148cca77d" y="422.520795"/>
     <use style="fill:#800080;stroke:#800080;" x="794.198182" xlink:href="#mf148cca77d" y="263.376954"/>
     <use style="fill:#800080;stroke:#800080;" x="805.002044" xlink:href="#mf148cca77d" y="332.802119"/>
     <use style="fill:#800080;stroke:#800080;" x="814.854503" xlink:href="#mf148cca77d" y="455.631258"/>
     <use style="fill:#800080;stroke:#800080;" x="824.877317" xlink:href="#mf148cca77d" y="404.363444"/>
     <use style="fill:#800080;stroke:#800080;" x="835.63859" xlink:href="#mf148cca77d" y="420.918675"/>
     <use style="fill:#800080;stroke:#800080;" x="845.514625" xlink:href="#mf148cca77d" y="400.625166"/>
     <use style="fill:#800080;stroke:#800080;" x="855.584591" xlink:href="#mf148cca77d" y="389.944371"/>
     <use style="fill:#800080;stroke:#800080;" x="866.396058" xlink:href="#mf148cca77d" y="471.118411"/>
     <use style="fill:#800080;stroke:#800080;" x="876.22266" xlink:href="#mf148cca77d" y="464.175894"/>
     <use style="fill:#800080;stroke:#800080;" x="886.337496" xlink:href="#mf148cca77d" y="420.918675"/>
     <use style="fill:#800080;stroke:#800080;" x="897.209044" xlink:href="#mf148cca77d" y="317.849007"/>
     <use style="fill:#800080;stroke:#800080;" x="907.112457" xlink:href="#mf148cca77d" y="465.778013"/>
     <use style="fill:#800080;stroke:#800080;" x="917.121582" xlink:href="#mf148cca77d" y="427.327152"/>
     <use style="fill:#800080;stroke:#800080;" x="927.996932" xlink:href="#mf148cca77d" y="459.903576"/>
     <use style="fill:#800080;stroke:#800080;" x="938.029633" xlink:href="#mf148cca77d" y="432.66755"/>
     <use style="fill:#800080;stroke:#800080;" x="947.922399" xlink:href="#mf148cca77d" y="411.84"/>
     <use style="fill:#800080;stroke:#800080;" x="958.676827" xlink:href="#mf148cca77d" y="304.498013"/>
     <use style="fill:#800080;stroke:#800080;" x="968.708007" xlink:href="#mf148cca77d" y="463.641854"/>
     <use style="fill:#800080;stroke:#800080;" x="978.605336" xlink:href="#mf148cca77d" y="475.924768"/>
     <use style="fill:#800080;stroke:#800080;" x="989.389425" xlink:href="#mf148cca77d" y="401.693245"/>
     <use style="fill:#800080;stroke:#800080;" x="999.447983" xlink:href="#mf148cca77d" y="435.871788"/>
     <use style="fill:#800080;stroke:#800080;" x="1009.349115" xlink:href="#mf148cca77d" y="380.331656"/>
     <use style="fill:#800080;stroke:#800080;" x="1020.219142" xlink:href="#mf148cca77d" y="446.018543"/>
     <use style="fill:#800080;stroke:#800080;" x="1030.226745" xlink:href="#mf148cca77d" y="475.390728"/>
     <use style="fill:#800080;stroke:#800080;" x="1040.117991" xlink:href="#mf148cca77d" y="442.814305"/>
     <use style="fill:#800080;stroke:#800080;" x="1051.534066" xlink:href="#mf148cca77d" y="419.850596"/>
     <use style="fill:#800080;stroke:#800080;" x="1061.562204" xlink:href="#mf148cca77d" y="437.473907"/>
     <use style="fill:#800080;stroke:#800080;" x="1071.467899" xlink:href="#mf148cca77d" y="454.563179"/>
     <use style="fill:#800080;stroke:#800080;" x="1081.849676" xlink:href="#mf148cca77d" y="441.746225"/>
     <use style="fill:#800080;stroke:#800080;" x="1091.877053" xlink:href="#mf148cca77d" y="356.833907"/>
     <use style="fill:#800080;stroke:#800080;" x="1101.7721" xlink:href="#mf148cca77d" y="479.663046"/>
     <use style="fill:#800080;stroke:#800080;" x="1112.507516" xlink:href="#mf148cca77d" y="311.97457"/>
     <use style="fill:#800080;stroke:#800080;" x="1122.531851" xlink:href="#mf148cca77d" y="462.039735"/>
     <use style="fill:#800080;stroke:#800080;" x="1132.429941" xlink:href="#mf148cca77d" y="480.731126"/>
     <use style="fill:#800080;stroke:#800080;" x="1143.164596" xlink:href="#mf148cca77d" y="329.063841"/>
     <use style="fill:#800080;stroke:#800080;" x="1153.166116" xlink:href="#mf148cca77d" y="466.312053"/>
     <use style="fill:#800080;stroke:#800080;" x="1163.089302" xlink:href="#mf148cca77d" y="478.594967"/>
     <use style="fill:#800080;stroke:#800080;" x="1173.877194" xlink:href="#mf148cca77d" y="456.699338"/>
     <use style="fill:#800080;stroke:#800080;" x="1183.902289" xlink:href="#mf148cca77d" y="378.729536"/>
     <use style="fill:#800080;stroke:#800080;" x="1193.840686" xlink:href="#mf148cca77d" y="486.071523"/>
     <use style="fill:#800080;stroke:#800080;" x="1204.61717" xlink:href="#mf148cca77d" y="446.552583"/>
     <use style="fill:#800080;stroke:#800080;" x="1214.678009" xlink:href="#mf148cca77d" y="454.563179"/>
     <use style="fill:#800080;stroke:#800080;" x="1224.597394" xlink:href="#mf148cca77d" y="447.620662"/>
     <use style="fill:#800080;stroke:#800080;" x="1235.228619" xlink:href="#mf148cca77d" y="301.827815"/>
     <use style="fill:#800080;stroke:#800080;" x="1245.272727" xlink:href="#mf148cca77d" y="462.039735"/>
    </g>
   </g>
   <g id="line2d_19">
    <path clip-path="url(#p22bfed3f4e)" d="M 230.727273 412.885088 
L 240.939455 412.982672 
L 252.01406 413.088498 
L 262.088589 413.184767 
L 272.449831 413.283776 
L 282.741107 413.382117 
L 292.82172 413.478444 
L 303.052915 413.57621 
L 313.719124 413.678133 
L 323.748022 413.773967 
L 333.763231 413.869669 
L 344.437045 413.971665 
L 354.481914 414.06765 
L 364.483434 414.163222 
L 375.202879 414.265654 
L 385.252311 414.361683 
L 395.236338 414.457088 
L 406.049327 414.560413 
L 416.107124 414.656523 
L 426.024227 414.751288 
L 436.761164 414.853887 
L 446.922391 414.950984 
L 456.89273 415.046258 
L 467.608372 415.148653 
L 477.659325 415.244697 
L 487.578709 415.339484 
L 498.113349 415.44015 
L 508.04186 415.535024 
L 517.965807 415.629854 
L 528.689054 415.732322 
L 538.587905 415.826913 
L 548.705783 415.923596 
L 559.36971 416.025498 
L 569.276926 416.120168 
L 579.357539 416.216495 
L 590.023748 416.318419 
L 600.046562 416.414194 
L 610.109684 416.510354 
L 620.771329 416.612233 
L 630.752315 416.707609 
L 640.754595 416.803188 
L 651.505982 416.905925 
L 661.447421 417.000922 
L 671.428407 417.096297 
L 682.16078 417.198853 
L 692.11743 417.293996 
L 702.093852 417.389327 
L 712.877941 417.492377 
L 722.771468 417.586917 
L 732.780592 417.682561 
L 743.582933 417.785785 
L 753.46125 417.880179 
L 763.514484 417.976245 
L 774.270434 418.079025 
L 784.124414 418.173187 
L 794.198182 418.269449 
L 805.002044 418.372688 
L 814.854503 418.466835 
L 824.877317 418.56261 
L 835.63859 418.665441 
L 845.514625 418.759814 
L 855.584591 418.856039 
L 866.396058 418.959351 
L 876.22266 419.053251 
L 886.337496 419.149905 
L 897.209044 419.25379 
L 907.112457 419.348425 
L 917.121582 419.444069 
L 927.996932 419.54799 
L 938.029633 419.64386 
L 947.922399 419.738392 
L 958.676827 419.841158 
L 968.708007 419.937013 
L 978.605336 420.031589 
L 989.389425 420.134639 
L 999.447983 420.230756 
L 1009.349115 420.325368 
L 1020.219142 420.429239 
L 1030.226745 420.524868 
L 1040.117991 420.619386 
L 1051.534066 420.728475 
L 1061.562204 420.824301 
L 1071.467899 420.918957 
L 1081.849676 421.018162 
L 1091.877053 421.11398 
L 1101.7721 421.208535 
L 1112.507516 421.311119 
L 1122.531851 421.406909 
L 1132.429941 421.501492 
L 1143.164596 421.604069 
L 1153.166116 421.699641 
L 1163.089302 421.794464 
L 1173.877194 421.897549 
L 1183.902289 421.993346 
L 1193.840686 422.088315 
L 1204.61717 422.191292 
L 1214.678009 422.28743 
L 1224.597394 422.382217 
L 1235.228619 422.483806 
L 1245.272727 422.579784 
" style="fill:none;stroke:#0000ff;stroke-linecap:square;stroke-width:1.5;"/>
   </g>
   <g id="line2d_20">
    <path clip-path="url(#p22bfed3f4e)" d="M 230.727273 417.638808 
L 240.939455 417.641965 
L 252.01406 417.645388 
L 262.088589 417.648503 
L 272.449831 417.651706 
L 282.741107 417.654887 
L 292.82172 417.658003 
L 303.052915 417.661166 
L 313.719124 417.664463 
L 323.748022 417.667564 
L 333.763231 417.67066 
L 344.437045 417.673959 
L 354.481914 417.677064 
L 364.483434 417.680156 
L 375.202879 417.68347 
L 385.252311 417.686576 
L 395.236338 417.689663 
L 406.049327 417.693005 
L 416.107124 417.696115 
L 426.024227 417.69918 
L 436.761164 417.702499 
L 446.922391 417.705641 
L 456.89273 417.708723 
L 467.608372 417.712035 
L 477.659325 417.715142 
L 487.578709 417.718209 
L 498.113349 417.721465 
L 508.04186 417.724534 
L 517.965807 417.727602 
L 528.689054 417.730917 
L 538.587905 417.733977 
L 548.705783 417.737105 
L 559.36971 417.740402 
L 569.276926 417.743464 
L 579.357539 417.74658 
L 590.023748 417.749878 
L 600.046562 417.752976 
L 610.109684 417.756087 
L 620.771329 417.759383 
L 630.752315 417.762468 
L 640.754595 417.76556 
L 651.505982 417.768884 
L 661.447421 417.771957 
L 671.428407 417.775042 
L 682.16078 417.77836 
L 692.11743 417.781438 
L 702.093852 417.784522 
L 712.877941 417.787856 
L 722.771468 417.790914 
L 732.780592 417.794008 
L 743.582933 417.797348 
L 753.46125 417.800401 
L 763.514484 417.803509 
L 774.270434 417.806834 
L 784.124414 417.80988 
L 794.198182 417.812994 
L 805.002044 417.816334 
L 814.854503 417.81938 
L 824.877317 417.822478 
L 835.63859 417.825805 
L 845.514625 417.828858 
L 855.584591 417.831971 
L 866.396058 417.835313 
L 876.22266 417.838351 
L 886.337496 417.841477 
L 897.209044 417.844838 
L 907.112457 417.8479 
L 917.121582 417.850994 
L 927.996932 417.854356 
L 938.029633 417.857457 
L 947.922399 417.860515 
L 958.676827 417.86384 
L 968.708007 417.866941 
L 978.605336 417.87 
L 989.389425 417.873334 
L 999.447983 417.876443 
L 1009.349115 417.879504 
L 1020.219142 417.882864 
L 1030.226745 417.885958 
L 1040.117991 417.889016 
L 1051.534066 417.892545 
L 1061.562204 417.895645 
L 1071.467899 417.898707 
L 1081.849676 417.901916 
L 1091.877053 417.905016 
L 1101.7721 417.908075 
L 1112.507516 417.911394 
L 1122.531851 417.914492 
L 1132.429941 417.917552 
L 1143.164596 417.920871 
L 1153.166116 417.923962 
L 1163.089302 417.92703 
L 1173.877194 417.930365 
L 1183.902289 417.933464 
L 1193.840686 417.936536 
L 1204.61717 417.939867 
L 1214.678009 417.942978 
L 1224.597394 417.946044 
L 1235.228619 417.94933 
L 1245.272727 417.952435 
" style="fill:none;stroke:#008000;stroke-linecap:square;stroke-width:1.5;"/>
    <defs>
     <path d="M 0 3 
C 0.795609 3 1.55874 2.683901 2.12132 2.12132 
C 2.683901 1.55874 3 0.795609 3 0 
C 3 -0.795609 2.683901 -1.55874 2.12132 -2.12132 
C 1.55874 -2.683901 0.795609 -3 0 -3 
C -0.795609 -3 -1.55874 -2.683901 -2.12132 -2.12132 
C -2.683901 -1.55874 -3 -0.795609 -3 0 
C -3 0.795609 -2.683901 1.55874 -2.12132 2.12132 
C -1.55874 2.683901 -0.795609 3 0 3 
z
" id="mbe32f96ae4" style="stroke:#008000;"/>
    </defs>
    <g clip-path="url(#p22bfed3f4e)">
     <use style="fill:#008000;stroke:#008000;" x="230.727273" xlink:href="#mbe32f96ae4" y="417.638808"/>
     <use style="fill:#008000;stroke:#008000;" x="240.939455" xlink:href="#mbe32f96ae4" y="417.641965"/>
     <use style="fill:#008000;stroke:#008000;" x="252.01406" xlink:href="#mbe32f96ae4" y="417.645388"/>
     <use style="fill:#008000;stroke:#008000;" x="262.088589" xlink:href="#mbe32f96ae4" y="417.648503"/>
     <use style="fill:#008000;stroke:#008000;" x="272.449831" xlink:href="#mbe32f96ae4" y="417.651706"/>
     <use style="fill:#008000;stroke:#008000;" x="282.741107" xlink:href="#mbe32f96ae4" y="417.654887"/>
     <use style="fill:#008000;stroke:#008000;" x="292.82172" xlink:href="#mbe32f96ae4" y="417.658003"/>
     <use style="fill:#008000;stroke:#008000;" x="303.052915" xlink:href="#mbe32f96ae4" y="417.661166"/>
     <use style="fill:#008000;stroke:#008000;" x="313.719124" xlink:href="#mbe32f96ae4" y="417.664463"/>
     <use style="fill:#008000;stroke:#008000;" x="323.748022" xlink:href="#mbe32f96ae4" y="417.667564"/>
     <use style="fill:#008000;stroke:#008000;" x="333.763231" xlink:href="#mbe32f96ae4" y="417.67066"/>
     <use style="fill:#008000;stroke:#008000;" x="344.437045" xlink:href="#mbe32f96ae4" y="417.673959"/>
     <use style="fill:#008000;stroke:#008000;" x="354.481914" xlink:href="#mbe32f96ae4" y="417.677064"/>
     <use style="fill:#008000;stroke:#008000;" x="364.483434" xlink:href="#mbe32f96ae4" y="417.680156"/>
     <use style="fill:#008000;stroke:#008000;" x="375.202879" xlink:href="#mbe32f96ae4" y="417.68347"/>
     <use style="fill:#008000;stroke:#008000;" x="385.252311" xlink:href="#mbe32f96ae4" y="417.686576"/>
     <use style="fill:#008000;stroke:#008000;" x="395.236338" xlink:href="#mbe32f96ae4" y="417.689663"/>
     <use style="fill:#008000;stroke:#008000;" x="406.049327" xlink:href="#mbe32f96ae4" y="417.693005"/>
     <use style="fill:#008000;stroke:#008000;" x="416.107124" xlink:href="#mbe32f96ae4" y="417.696115"/>
     <use style="fill:#008000;stroke:#008000;" x="426.024227" xlink:href="#mbe32f96ae4" y="417.69918"/>
     <use style="fill:#008000;stroke:#008000;" x="436.761164" xlink:href="#mbe32f96ae4" y="417.702499"/>
     <use style="fill:#008000;stroke:#008000;" x="446.922391" xlink:href="#mbe32f96ae4" y="417.705641"/>
     <use style="fill:#008000;stroke:#008000;" x="456.89273" xlink:href="#mbe32f96ae4" y="417.708723"/>
     <use style="fill:#008000;stroke:#008000;" x="467.608372" xlink:href="#mbe32f96ae4" y="417.712035"/>
     <use style="fill:#008000;stroke:#008000;" x="477.659325" xlink:href="#mbe32f96ae4" y="417.715142"/>
     <use style="fill:#008000;stroke:#008000;" x="487.578709" xlink:href="#mbe32f96ae4" y="417.718209"/>
     <use style="fill:#008000;stroke:#008000;" x="498.113349" xlink:href="#mbe32f96ae4" y="417.721465"/>
     <use style="fill:#008000;stroke:#008000;" x="508.04186" xlink:href="#mbe32f96ae4" y="417.724534"/>
     <use style="fill:#008000;stroke:#008000;" x="517.965807" xlink:href="#mbe32f96ae4" y="417.727602"/>
     <use style="fill:#008000;stroke:#008000;" x="528.689054" xlink:href="#mbe32f96ae4" y="417.730917"/>
     <use style="fill:#008000;stroke:#008000;" x="538.587905" xlink:href="#mbe32f96ae4" y="417.733977"/>
     <use style="fill:#008000;stroke:#008000;" x="548.705783" xlink:href="#mbe32f96ae4" y="417.737105"/>
     <use style="fill:#008000;stroke:#008000;" x="559.36971" xlink:href="#mbe32f96ae4" y="417.740402"/>
     <use style="fill:#008000;stroke:#008000;" x="569.276926" xlink:href="#mbe32f96ae4" y="417.743464"/>
     <use style="fill:#008000;stroke:#008000;" x="579.357539" xlink:href="#mbe32f96ae4" y="417.74658"/>
     <use style="fill:#008000;stroke:#008000;" x="590.023748" xlink:href="#mbe32f96ae4" y="417.749878"/>
     <use style="fill:#008000;stroke:#008000;" x="600.046562" xlink:href="#mbe32f96ae4" y="417.752976"/>
     <use style="fill:#008000;stroke:#008000;" x="610.109684" xlink:href="#mbe32f96ae4" y="417.756087"/>
     <use style="fill:#008000;stroke:#008000;" x="620.771329" xlink:href="#mbe32f96ae4" y="417.759383"/>
     <use style="fill:#008000;stroke:#008000;" x="630.752315" xlink:href="#mbe32f96ae4" y="417.762468"/>
     <use style="fill:#008000;stroke:#008000;" x="640.754595" xlink:href="#mbe32f96ae4" y="417.76556"/>
     <use style="fill:#008000;stroke:#008000;" x="651.505982" xlink:href="#mbe32f96ae4" y="417.768884"/>
     <use style="fill:#008000;stroke:#008000;" x="661.447421" xlink:href="#mbe32f96ae4" y="417.771957"/>
     <use style="fill:#008000;stroke:#008000;" x="671.428407" xlink:href="#mbe32f96ae4" y="417.775042"/>
     <use style="fill:#008000;stroke:#008000;" x="682.16078" xlink:href="#mbe32f96ae4" y="417.77836"/>
     <use style="fill:#008000;stroke:#008000;" x="692.11743" xlink:href="#mbe32f96ae4" y="417.781438"/>
     <use style="fill:#008000;stroke:#008000;" x="702.093852" xlink:href="#mbe32f96ae4" y="417.784522"/>
     <use style="fill:#008000;stroke:#008000;" x="712.877941" xlink:href="#mbe32f96ae4" y="417.787856"/>
     <use style="fill:#008000;stroke:#008000;" x="722.771468" xlink:href="#mbe32f96ae4" y="417.790914"/>
     <use style="fill:#008000;stroke:#008000;" x="732.780592" xlink:href="#mbe32f96ae4" y="417.794008"/>
     <use style="fill:#008000;stroke:#008000;" x="743.582933" xlink:href="#mbe32f96ae4" y="417.797348"/>
     <use style="fill:#008000;stroke:#008000;" x="753.46125" xlink:href="#mbe32f96ae4" y="417.800401"/>
     <use style="fill:#008000;stroke:#008000;" x="763.514484" xlink:href="#mbe32f96ae4" y="417.803509"/>
     <use style="fill:#008000;stroke:#008000;" x="774.270434" xlink:href="#mbe32f96ae4" y="417.806834"/>
     <use style="fill:#008000;stroke:#008000;" x="784.124414" xlink:href="#mbe32f96ae4" y="417.80988"/>
     <use style="fill:#008000;stroke:#008000;" x="794.198182" xlink:href="#mbe32f96ae4" y="417.812994"/>
     <use style="fill:#008000;stroke:#008000;" x="805.002044" xlink:href="#mbe32f96ae4" y="417.816334"/>
     <use style="fill:#008000;stroke:#008000;" x="814.854503" xlink:href="#mbe32f96ae4" y="417.81938"/>
     <use style="fill:#008000;stroke:#008000;" x="824.877317" xlink:href="#mbe32f96ae4" y="417.822478"/>
     <use style="fill:#008000;stroke:#008000;" x="835.63859" xlink:href="#mbe32f96ae4" y="417.825805"/>
     <use style="fill:#008000;stroke:#008000;" x="845.514625" xlink:href="#mbe32f96ae4" y="417.828858"/>
     <use style="fill:#008000;stroke:#008000;" x="855.584591" xlink:href="#mbe32f96ae4" y="417.831971"/>
     <use style="fill:#008000;stroke:#008000;" x="866.396058" xlink:href="#mbe32f96ae4" y="417.835313"/>
     <use style="fill:#008000;stroke:#008000;" x="876.22266" xlink:href="#mbe32f96ae4" y="417.838351"/>
     <use style="fill:#008000;stroke:#008000;" x="886.337496" xlink:href="#mbe32f96ae4" y="417.841477"/>
     <use style="fill:#008000;stroke:#008000;" x="897.209044" xlink:href="#mbe32f96ae4" y="417.844838"/>
     <use style="fill:#008000;stroke:#008000;" x="907.112457" xlink:href="#mbe32f96ae4" y="417.8479"/>
     <use style="fill:#008000;stroke:#008000;" x="917.121582" xlink:href="#mbe32f96ae4" y="417.850994"/>
     <use style="fill:#008000;stroke:#008000;" x="927.996932" xlink:href="#mbe32f96ae4" y="417.854356"/>
     <use style="fill:#008000;stroke:#008000;" x="938.029633" xlink:href="#mbe32f96ae4" y="417.857457"/>
     <use style="fill:#008000;stroke:#008000;" x="947.922399" xlink:href="#mbe32f96ae4" y="417.860515"/>
     <use style="fill:#008000;stroke:#008000;" x="958.676827" xlink:href="#mbe32f96ae4" y="417.86384"/>
     <use style="fill:#008000;stroke:#008000;" x="968.708007" xlink:href="#mbe32f96ae4" y="417.866941"/>
     <use style="fill:#008000;stroke:#008000;" x="978.605336" xlink:href="#mbe32f96ae4" y="417.87"/>
     <use style="fill:#008000;stroke:#008000;" x="989.389425" xlink:href="#mbe32f96ae4" y="417.873334"/>
     <use style="fill:#008000;stroke:#008000;" x="999.447983" xlink:href="#mbe32f96ae4" y="417.876443"/>
     <use style="fill:#008000;stroke:#008000;" x="1009.349115" xlink:href="#mbe32f96ae4" y="417.879504"/>
     <use style="fill:#008000;stroke:#008000;" x="1020.219142" xlink:href="#mbe32f96ae4" y="417.882864"/>
     <use style="fill:#008000;stroke:#008000;" x="1030.226745" xlink:href="#mbe32f96ae4" y="417.885958"/>
     <use style="fill:#008000;stroke:#008000;" x="1040.117991" xlink:href="#mbe32f96ae4" y="417.889016"/>
     <use style="fill:#008000;stroke:#008000;" x="1051.534066" xlink:href="#mbe32f96ae4" y="417.892545"/>
     <use style="fill:#008000;stroke:#008000;" x="1061.562204" xlink:href="#mbe32f96ae4" y="417.895645"/>
     <use style="fill:#008000;stroke:#008000;" x="1071.467899" xlink:href="#mbe32f96ae4" y="417.898707"/>
     <use style="fill:#008000;stroke:#008000;" x="1081.849676" xlink:href="#mbe32f96ae4" y="417.901916"/>
     <use style="fill:#008000;stroke:#008000;" x="1091.877053" xlink:href="#mbe32f96ae4" y="417.905016"/>
     <use style="fill:#008000;stroke:#008000;" x="1101.7721" xlink:href="#mbe32f96ae4" y="417.908075"/>
     <use style="fill:#008000;stroke:#008000;" x="1112.507516" xlink:href="#mbe32f96ae4" y="417.911394"/>
     <use style="fill:#008000;stroke:#008000;" x="1122.531851" xlink:href="#mbe32f96ae4" y="417.914492"/>
     <use style="fill:#008000;stroke:#008000;" x="1132.429941" xlink:href="#mbe32f96ae4" y="417.917552"/>
     <use style="fill:#008000;stroke:#008000;" x="1143.164596" xlink:href="#mbe32f96ae4" y="417.920871"/>
     <use style="fill:#008000;stroke:#008000;" x="1153.166116" xlink:href="#mbe32f96ae4" y="417.923962"/>
     <use style="fill:#008000;stroke:#008000;" x="1163.089302" xlink:href="#mbe32f96ae4" y="417.92703"/>
     <use style="fill:#008000;stroke:#008000;" x="1173.877194" xlink:href="#mbe32f96ae4" y="417.930365"/>
     <use style="fill:#008000;stroke:#008000;" x="1183.902289" xlink:href="#mbe32f96ae4" y="417.933464"/>
     <use style="fill:#008000;stroke:#008000;" x="1193.840686" xlink:href="#mbe32f96ae4" y="417.936536"/>
     <use style="fill:#008000;stroke:#008000;" x="1204.61717" xlink:href="#mbe32f96ae4" y="417.939867"/>
     <use style="fill:#008000;stroke:#008000;" x="1214.678009" xlink:href="#mbe32f96ae4" y="417.942978"/>
     <use style="fill:#008000;stroke:#008000;" x="1224.597394" xlink:href="#mbe32f96ae4" y="417.946044"/>
     <use style="fill:#008000;stroke:#008000;" x="1235.228619" xlink:href="#mbe32f96ae4" y="417.94933"/>
     <use style="fill:#008000;stroke:#008000;" x="1245.272727" xlink:href="#mbe32f96ae4" y="417.952435"/>
    </g>
   </g>
   <g id="patch_3">
    <path d="M 180 512.64 
L 180 69.12 
" style="fill:none;stroke:#000000;stroke-linecap:square;stroke-linejoin:miter;stroke-width:0.8;"/>
   </g>
   <g id="patch_4">
    <path d="M 1296 512.64 
L 1296 69.12 
" style="fill:none;stroke:#000000;stroke-linecap:square;stroke-linejoin:miter;stroke-width:0.8;"/>
   </g>
   <g id="patch_5">
    <path d="M 180 512.64 
L 1296 512.64 
" style="fill:none;stroke:#000000;stroke-linecap:square;stroke-linejoin:miter;stroke-width:0.8;"/>
   </g>
   <g id="patch_6">
    <path d="M 180 69.12 
L 1296 69.12 
" style="fill:none;stroke:#000000;stroke-linecap:square;stroke-linejoin:miter;stroke-width:0.8;"/>
   </g>
   <g id="text_17">
    <!-- 500000.0 bit/s -->
    <defs>
     <path id="DejaVuSans-20"/>
     <path d="M 48.6875 27.296875 
Q 48.6875 37.203125 44.609375 42.84375 
Q 40.53125 48.484375 33.40625 48.484375 
Q 26.265625 48.484375 22.1875 42.84375 
Q 18.109375 37.203125 18.109375 27.296875 
Q 18.109375 17.390625 22.1875 11.75 
Q 26.265625 6.109375 33.40625 6.109375 
Q 40.53125 6.109375 44.609375 11.75 
Q 48.6875 17.390625 48.6875 27.296875 
z
M 18.109375 46.390625 
Q 20.953125 51.265625 25.265625 53.625 
Q 29.59375 56 35.59375 56 
Q 45.5625 56 51.78125 48.09375 
Q 58.015625 40.1875 58.015625 27.296875 
Q 58.015625 14.40625 51.78125 6.484375 
Q 45.5625 -1.421875 35.59375 -1.421875 
Q 29.59375 -1.421875 25.265625 0.953125 
Q 20.953125 3.328125 18.109375 8.203125 
L 18.109375 0 
L 9.078125 0 
L 9.078125 75.984375 
L 18.109375 75.984375 
z
" id="DejaVuSans-62"/>
     <path d="M 9.421875 54.6875 
L 18.40625 54.6875 
L 18.40625 0 
L 9.421875 0 
z
M 9.421875 75.984375 
L 18.40625 75.984375 
L 18.40625 64.59375 
L 9.421875 64.59375 
z
" id="DejaVuSans-69"/>
     <path d="M 18.3125 70.21875 
L 18.3125 54.6875 
L 36.8125 54.6875 
L 36.8125 47.703125 
L 18.3125 47.703125 
L 18.3125 18.015625 
Q 18.3125 11.328125 20.140625 9.421875 
Q 21.96875 7.515625 27.59375 7.515625 
L 36.8125 7.515625 
L 36.8125 0 
L 27.59375 0 
Q 17.1875 0 13.234375 3.875 
Q 9.28125 7.765625 9.28125 18.015625 
L 9.28125 47.703125 
L 2.6875 47.703125 
L 2.6875 54.6875 
L 9.28125 54.6875 
L 9.28125 70.21875 
z
" id="DejaVuSans-74"/>
     <path d="M 25.390625 72.90625 
L 33.6875 72.90625 
L 8.296875 -9.28125 
L 0 -9.28125 
z
" id="DejaVuSans-2f"/>
     <path d="M 44.28125 53.078125 
L 44.28125 44.578125 
Q 40.484375 46.53125 36.375 47.5 
Q 32.28125 48.484375 27.875 48.484375 
Q 21.1875 48.484375 17.84375 46.4375 
Q 14.5 44.390625 14.5 40.28125 
Q 14.5 37.15625 16.890625 35.375 
Q 19.28125 33.59375 26.515625 31.984375 
L 29.59375 31.296875 
Q 39.15625 29.25 43.1875 25.515625 
Q 47.21875 21.78125 47.21875 15.09375 
Q 47.21875 7.46875 41.1875 3.015625 
Q 35.15625 -1.421875 24.609375 -1.421875 
Q 20.21875 -1.421875 15.453125 -0.5625 
Q 10.6875 0.296875 5.421875 2 
L 5.421875 11.28125 
Q 10.40625 8.6875 15.234375 7.390625 
Q 20.0625 6.109375 24.8125 6.109375 
Q 31.15625 6.109375 34.5625 8.28125 
Q 37.984375 10.453125 37.984375 14.40625 
Q 37.984375 18.0625 35.515625 20.015625 
Q 33.0625 21.96875 24.703125 23.78125 
L 21.578125 24.515625 
Q 13.234375 26.265625 9.515625 29.90625 
Q 5.8125 33.546875 5.8125 39.890625 
Q 5.8125 47.609375 11.28125 51.796875 
Q 16.75 56 26.8125 56 
Q 31.78125 56 36.171875 55.265625 
Q 40.578125 54.546875 44.28125 53.078125 
z
" id="DejaVuSans-73"/>
    </defs>
    <g transform="translate(694.48875 63.12)scale(0.12 -0.12)">
     <use xlink:href="#DejaVuSans-35"/>
     <use x="63.623047" xlink:href="#DejaVuSans-30"/>
     <use x="127.246094" xlink:href="#DejaVuSans-30"/>
     <use x="190.869141" xlink:href="#DejaVuSans-30"/>
     <use x="254.492188" xlink:href="#DejaVuSans-30"/>
     <use x="318.115234" xlink:href="#DejaVuSans-30"/>
     <use x="381.738281" xlink:href="#DejaVuSans-2e"/>
     <use x="413.525391" xlink:href="#DejaVuSans-30"/>
     <use x="477.148438" xlink:href="#DejaVuSans-20"/>
     <use x="508.935547" xlink:href="#DejaVuSans-62"/>
     <use x="572.412109" xlink:href="#DejaVuSans-69"/>
     <use x="600.195312" xlink:href="#DejaVuSans-74"/>
     <use x="639.404297" xlink:href="#DejaVuSans-2f"/>
     <use x="673.095703" xlink:href="#DejaVuSans-73"/>
    </g>
   </g>
   <g id="legend_1">
    <g id="patch_7">
     <path d="M 1173.520313 135.8325 
L 1289 135.8325 
Q 1291 135.8325 1291 133.8325 
L 1291 76.12 
Q 1291 74.12 1289 74.12 
L 1173.520313 74.12 
Q 1171.520313 74.12 1171.520313 76.12 
L 1171.520313 133.8325 
Q 1171.520313 135.8325 1173.520313 135.8325 
z
" style="fill:#ffffff;opacity:0.8;stroke:#cccccc;stroke-linejoin:miter;"/>
    </g>
    <g id="line2d_21">
     <path d="M 1175.520313 82.218437 
L 1195.520313 82.218437 
" style="fill:none;stroke:#ff0000;stroke-dasharray:5.55,2.4;stroke-dashoffset:0;stroke-width:1.5;"/>
    </g>
    <g id="line2d_22">
     <g>
      <use style="fill:#ff0000;stroke:#ff0000;stroke-linejoin:miter;" x="1185.520313" xlink:href="#m5e0770abd3" y="82.218437"/>
     </g>
    </g>
    <g id="text_18">
     <!-- tcpdump -->
     <defs>
      <path d="M 48.78125 52.59375 
L 48.78125 44.1875 
Q 44.96875 46.296875 41.140625 47.34375 
Q 37.3125 48.390625 33.40625 48.390625 
Q 24.65625 48.390625 19.8125 42.84375 
Q 14.984375 37.3125 14.984375 27.296875 
Q 14.984375 17.28125 19.8125 11.734375 
Q 24.65625 6.203125 33.40625 6.203125 
Q 37.3125 6.203125 41.140625 7.25 
Q 44.96875 8.296875 48.78125 10.40625 
L 48.78125 2.09375 
Q 45.015625 0.34375 40.984375 -0.53125 
Q 36.96875 -1.421875 32.421875 -1.421875 
Q 20.0625 -1.421875 12.78125 6.34375 
Q 5.515625 14.109375 5.515625 27.296875 
Q 5.515625 40.671875 12.859375 48.328125 
Q 20.21875 56 33.015625 56 
Q 37.15625 56 41.109375 55.140625 
Q 45.0625 54.296875 48.78125 52.59375 
z
" id="DejaVuSans-63"/>
      <path d="M 18.109375 8.203125 
L 18.109375 -20.796875 
L 9.078125 -20.796875 
L 9.078125 54.6875 
L 18.109375 54.6875 
L 18.109375 46.390625 
Q 20.953125 51.265625 25.265625 53.625 
Q 29.59375 56 35.59375 56 
Q 45.5625 56 51.78125 48.09375 
Q 58.015625 40.1875 58.015625 27.296875 
Q 58.015625 14.40625 51.78125 6.484375 
Q 45.5625 -1.421875 35.59375 -1.421875 
Q 29.59375 -1.421875 25.265625 0.953125 
Q 20.953125 3.328125 18.109375 8.203125 
z
M 48.6875 27.296875 
Q 48.6875 37.203125 44.609375 42.84375 
Q 40.53125 48.484375 33.40625 48.484375 
Q 26.265625 48.484375 22.1875 42.84375 
Q 18.109375 37.203125 18.109375 27.296875 
Q 18.109375 17.390625 22.1875 11.75 
Q 26.265625 6.109375 33.40625 6.109375 
Q 40.53125 6.109375 44.609375 11.75 
Q 48.6875 17.390625 48.6875 27.296875 
z
" id="DejaVuSans-70"/>
      <path d="M 45.40625 46.390625 
L 45.40625 75.984375 
L 54.390625 75.984375 
L 54.390625 0 
L 45.40625 0 
L 45.40625 8.203125 
Q 42.578125 3.328125 38.25 0.953125 
Q 33.9375 -1.421875 27.875 -1.421875 
Q 17.96875 -1.421875 11.734375 6.484375 
Q 5.515625 14.40625 5.515625 27.296875 
Q 5.515625 40.1875 11.734375 48.09375 
Q 17.96875 56 27.875 56 
Q 33.9375 56 38.25 53.625 
Q 42.578125 51.265625 45.40625 46.390625 
z
M 14.796875 27.296875 
Q 14.796875 17.390625 18.875 11.75 
Q 22.953125 6.109375 30.078125 6.109375 
Q 37.203125 6.109375 41.296875 11.75 
Q 45.40625 17.390625 45.40625 27.296875 
Q 45.40625 37.203125 41.296875 42.84375 
Q 37.203125 48.484375 30.078125 48.484375 
Q 22.953125 48.484375 18.875 42.84375 
Q 14.796875 37.203125 14.796875 27.296875 
z
" id="DejaVuSans-64"/>
      <path d="M 8.5 21.578125 
L 8.5 54.6875 
L 17.484375 54.6875 
L 17.484375 21.921875 
Q 17.484375 14.15625 20.5 10.265625 
Q 23.53125 6.390625 29.59375 6.390625 
Q 36.859375 6.390625 41.078125 11.03125 
Q 45.3125 15.671875 45.3125 23.6875 
L 45.3125 54.6875 
L 54.296875 54.6875 
L 54.296875 0 
L 45.3125 0 
L 45.3125 8.40625 
Q 42.046875 3.421875 37.71875 1 
Q 33.40625 -1.421875 27.6875 -1.421875 
Q 18.265625 -1.421875 13.375 4.4375 
Q 8.5 10.296875 8.5 21.578125 
z
M 31.109375 56 
z
" id="DejaVuSans-75"/>
      <path d="M 52 44.1875 
Q 55.375 50.25 60.0625 53.125 
Q 64.75 56 71.09375 56 
Q 79.640625 56 84.28125 50.015625 
Q 88.921875 44.046875 88.921875 33.015625 
L 88.921875 0 
L 79.890625 0 
L 79.890625 32.71875 
Q 79.890625 40.578125 77.09375 44.375 
Q 74.3125 48.1875 68.609375 48.1875 
Q 61.625 48.1875 57.5625 43.546875 
Q 53.515625 38.921875 53.515625 30.90625 
L 53.515625 0 
L 44.484375 0 
L 44.484375 32.71875 
Q 44.484375 40.625 41.703125 44.40625 
Q 38.921875 48.1875 33.109375 48.1875 
Q 26.21875 48.1875 22.15625 43.53125 
Q 18.109375 38.875 18.109375 30.90625 
L 18.109375 0 
L 9.078125 0 
L 9.078125 54.6875 
L 18.109375 54.6875 
L 18.109375 46.1875 
Q 21.1875 51.21875 25.484375 53.609375 
Q 29.78125 56 35.6875 56 
Q 41.65625 56 45.828125 52.96875 
Q 50 49.953125 52 44.1875 
z
" id="DejaVuSans-6d"/>
     </defs>
     <g transform="translate(1203.520313 85.718437)scale(0.1 -0.1)">
      <use xlink:href="#DejaVuSans-74"/>
      <use x="39.208984" xlink:href="#DejaVuSans-63"/>
      <use x="94.189453" xlink:href="#DejaVuSans-70"/>
      <use x="157.666016" xlink:href="#DejaVuSans-64"/>
      <use x="221.142578" xlink:href="#DejaVuSans-75"/>
      <use x="284.521484" xlink:href="#DejaVuSans-6d"/>
      <use x="381.933594" xlink:href="#DejaVuSans-70"/>
     </g>
    </g>
    <g id="line2d_23">
     <path d="M 1175.520313 96.896563 
L 1195.520313 96.896563 
" style="fill:none;stroke:#800080;stroke-dasharray:9.6,2.4,1.5,2.4;stroke-dashoffset:0;stroke-width:1.5;"/>
    </g>
    <g id="line2d_24">
     <g>
      <use style="fill:#800080;stroke:#800080;" x="1185.520313" xlink:href="#mf148cca77d" y="96.896563"/>
     </g>
    </g>
    <g id="text_19">
     <!-- filtered tcpdump -->
     <defs>
      <path d="M 37.109375 75.984375 
L 37.109375 68.5 
L 28.515625 68.5 
Q 23.6875 68.5 21.796875 66.546875 
Q 19.921875 64.59375 19.921875 59.515625 
L 19.921875 54.6875 
L 34.71875 54.6875 
L 34.71875 47.703125 
L 19.921875 47.703125 
L 19.921875 0 
L 10.890625 0 
L 10.890625 47.703125 
L 2.296875 47.703125 
L 2.296875 54.6875 
L 10.890625 54.6875 
L 10.890625 58.5 
Q 10.890625 67.625 15.140625 71.796875 
Q 19.390625 75.984375 28.609375 75.984375 
z
" id="DejaVuSans-66"/>
      <path d="M 9.421875 75.984375 
L 18.40625 75.984375 
L 18.40625 0 
L 9.421875 0 
z
" id="DejaVuSans-6c"/>
      <path d="M 56.203125 29.59375 
L 56.203125 25.203125 
L 14.890625 25.203125 
Q 15.484375 15.921875 20.484375 11.0625 
Q 25.484375 6.203125 34.421875 6.203125 
Q 39.59375 6.203125 44.453125 7.46875 
Q 49.3125 8.734375 54.109375 11.28125 
L 54.109375 2.78125 
Q 49.265625 0.734375 44.1875 -0.34375 
Q 39.109375 -1.421875 33.890625 -1.421875 
Q 20.796875 -1.421875 13.15625 6.1875 
Q 5.515625 13.8125 5.515625 26.8125 
Q 5.515625 40.234375 12.765625 48.109375 
Q 20.015625 56 32.328125 56 
Q 43.359375 56 49.78125 48.890625 
Q 56.203125 41.796875 56.203125 29.59375 
z
M 47.21875 32.234375 
Q 47.125 39.59375 43.09375 43.984375 
Q 39.0625 48.390625 32.421875 48.390625 
Q 24.90625 48.390625 20.390625 44.140625 
Q 15.875 39.890625 15.1875 32.171875 
z
" id="DejaVuSans-65"/>
      <path d="M 41.109375 46.296875 
Q 39.59375 47.171875 37.8125 47.578125 
Q 36.03125 48 33.890625 48 
Q 26.265625 48 22.1875 43.046875 
Q 18.109375 38.09375 18.109375 28.8125 
L 18.109375 0 
L 9.078125 0 
L 9.078125 54.6875 
L 18.109375 54.6875 
L 18.109375 46.1875 
Q 20.953125 51.171875 25.484375 53.578125 
Q 30.03125 56 36.53125 56 
Q 37.453125 56 38.578125 55.875 
Q 39.703125 55.765625 41.0625 55.515625 
z
" id="DejaVuSans-72"/>
     </defs>
     <g transform="translate(1203.520313 100.396563)scale(0.1 -0.1)">
      <use xlink:href="#DejaVuSans-66"/>
      <use x="35.205078" xlink:href="#DejaVuSans-69"/>
      <use x="62.988281" xlink:href="#DejaVuSans-6c"/>
      <use x="90.771484" xlink:href="#DejaVuSans-74"/>
      <use x="129.980469" xlink:href="#DejaVuSans-65"/>
      <use x="191.503906" xlink:href="#DejaVuSans-72"/>
      <use x="232.585938" xlink:href="#DejaVuSans-65"/>
      <use x="294.109375" xlink:href="#DejaVuSans-64"/>
      <use x="357.585938" xlink:href="#DejaVuSans-20"/>
      <use x="389.373047" xlink:href="#DejaVuSans-74"/>
      <use x="428.582031" xlink:href="#DejaVuSans-63"/>
      <use x="483.5625" xlink:href="#DejaVuSans-70"/>
      <use x="547.039062" xlink:href="#DejaVuSans-64"/>
      <use x="610.515625" xlink:href="#DejaVuSans-75"/>
      <use x="673.894531" xlink:href="#DejaVuSans-6d"/>
      <use x="771.306641" xlink:href="#DejaVuSans-70"/>
     </g>
    </g>
    <g id="line2d_25">
     <path d="M 1175.520313 111.574687 
L 1195.520313 111.574687 
" style="fill:none;stroke:#0000ff;stroke-linecap:square;stroke-width:1.5;"/>
    </g>
    <g id="line2d_26"/>
    <g id="text_20">
     <!-- OLS -->
     <defs>
      <path d="M 39.40625 66.21875 
Q 28.65625 66.21875 22.328125 58.203125 
Q 16.015625 50.203125 16.015625 36.375 
Q 16.015625 22.609375 22.328125 14.59375 
Q 28.65625 6.59375 39.40625 6.59375 
Q 50.140625 6.59375 56.421875 14.59375 
Q 62.703125 22.609375 62.703125 36.375 
Q 62.703125 50.203125 56.421875 58.203125 
Q 50.140625 66.21875 39.40625 66.21875 
z
M 39.40625 74.21875 
Q 54.734375 74.21875 63.90625 63.9375 
Q 73.09375 53.65625 73.09375 36.375 
Q 73.09375 19.140625 63.90625 8.859375 
Q 54.734375 -1.421875 39.40625 -1.421875 
Q 24.03125 -1.421875 14.8125 8.828125 
Q 5.609375 19.09375 5.609375 36.375 
Q 5.609375 53.65625 14.8125 63.9375 
Q 24.03125 74.21875 39.40625 74.21875 
z
" id="DejaVuSans-4f"/>
      <path d="M 9.8125 72.90625 
L 19.671875 72.90625 
L 19.671875 8.296875 
L 55.171875 8.296875 
L 55.171875 0 
L 9.8125 0 
z
" id="DejaVuSans-4c"/>
      <path d="M 53.515625 70.515625 
L 53.515625 60.890625 
Q 47.90625 63.578125 42.921875 64.890625 
Q 37.9375 66.21875 33.296875 66.21875 
Q 25.25 66.21875 20.875 63.09375 
Q 16.5 59.96875 16.5 54.203125 
Q 16.5 49.359375 19.40625 46.890625 
Q 22.3125 44.4375 30.421875 42.921875 
L 36.375 41.703125 
Q 47.40625 39.59375 52.65625 34.296875 
Q 57.90625 29 57.90625 20.125 
Q 57.90625 9.515625 50.796875 4.046875 
Q 43.703125 -1.421875 29.984375 -1.421875 
Q 24.8125 -1.421875 18.96875 -0.25 
Q 13.140625 0.921875 6.890625 3.21875 
L 6.890625 13.375 
Q 12.890625 10.015625 18.65625 8.296875 
Q 24.421875 6.59375 29.984375 6.59375 
Q 38.421875 6.59375 43.015625 9.90625 
Q 47.609375 13.234375 47.609375 19.390625 
Q 47.609375 24.75 44.3125 27.78125 
Q 41.015625 30.8125 33.5 32.328125 
L 27.484375 33.5 
Q 16.453125 35.6875 11.515625 40.375 
Q 6.59375 45.0625 6.59375 53.421875 
Q 6.59375 63.09375 13.40625 68.65625 
Q 20.21875 74.21875 32.171875 74.21875 
Q 37.3125 74.21875 42.625 73.28125 
Q 47.953125 72.359375 53.515625 70.515625 
z
" id="DejaVuSans-53"/>
     </defs>
     <g transform="translate(1203.520313 115.074687)scale(0.1 -0.1)">
      <use xlink:href="#DejaVuSans-4f"/>
      <use x="78.710938" xlink:href="#DejaVuSans-4c"/>
      <use x="134.423828" xlink:href="#DejaVuSans-53"/>
     </g>
    </g>
    <g id="line2d_27">
     <path d="M 1175.520313 126.252813 
L 1195.520313 126.252813 
" style="fill:none;stroke:#008000;stroke-linecap:square;stroke-width:1.5;"/>
    </g>
    <g id="line2d_28">
     <g>
      <use style="fill:#008000;stroke:#008000;" x="1185.520313" xlink:href="#mbe32f96ae4" y="126.252813"/>
     </g>
    </g>
    <g id="text_21">
     <!-- IRLS -->
     <defs>
      <path d="M 9.8125 72.90625 
L 19.671875 72.90625 
L 19.671875 0 
L 9.8125 0 
z
" id="DejaVuSans-49"/>
      <path d="M 44.390625 34.1875 
Q 47.5625 33.109375 50.5625 29.59375 
Q 53.5625 26.078125 56.59375 19.921875 
L 66.609375 0 
L 56 0 
L 46.6875 18.703125 
Q 43.0625 26.03125 39.671875 28.421875 
Q 36.28125 30.8125 30.421875 30.8125 
L 19.671875 30.8125 
L 19.671875 0 
L 9.8125 0 
L 9.8125 72.90625 
L 32.078125 72.90625 
Q 44.578125 72.90625 50.734375 67.671875 
Q 56.890625 62.453125 56.890625 51.90625 
Q 56.890625 45.015625 53.6875 40.46875 
Q 50.484375 35.9375 44.390625 34.1875 
z
M 19.671875 64.796875 
L 19.671875 38.921875 
L 32.078125 38.921875 
Q 39.203125 38.921875 42.84375 42.21875 
Q 46.484375 45.515625 46.484375 51.90625 
Q 46.484375 58.296875 42.84375 61.546875 
Q 39.203125 64.796875 32.078125 64.796875 
z
" id="DejaVuSans-52"/>
     </defs>
     <g transform="translate(1203.520313 129.752813)scale(0.1 -0.1)">
      <use xlink:href="#DejaVuSans-49"/>
      <use x="29.492188" xlink:href="#DejaVuSans-52"/>
      <use x="98.974609" xlink:href="#DejaVuSans-4c"/>
      <use x="154.6875" xlink:href="#DejaVuSans-53"/>
     </g>
    </g>
   </g>
  </g>
 </g>
 <defs>
  <clipPath id="p22bfed3f4e">
   <rect height="443.52" width="1116" x="180" y="69.12"/>
  </clipPath>
 </defs>
</svg>
