<?xml version="1.0" encoding="utf-8" standalone="no"?>
<!DOCTYPE svg PUBLIC "-//W3C//DTD SVG 1.1//EN"
  "http://www.w3.org/Graphics/SVG/1.1/DTD/svg11.dtd">
<!-- Created with matplotlib (http://matplotlib.org/) -->
<svg height="576pt" version="1.1" viewBox="0 0 1440 576" width="1440pt" xmlns="http://www.w3.org/2000/svg" xmlns:xlink="http://www.w3.org/1999/xlink">
 <defs>
  <style type="text/css">
*{stroke-linecap:butt;stroke-linejoin:round;}
  </style>
 </defs>
 <g id="figure_1">
  <g id="patch_1">
   <path d="M 0 576 
L 1440 576 
L 1440 0 
L 0 0 
z
" style="fill:#ffffff;"/>
  </g>
  <g id="axes_1">
   <g id="patch_2">
    <path d="M 180 512.64 
L 1296 512.64 
L 1296 69.12 
L 180 69.12 
z
" style="fill:#ffffff;"/>
   </g>
   <g id="matplotlib.axis_1">
    <g id="xtick_1">
     <g id="line2d_1">
      <defs>
       <path d="M 0 0 
L 0 3.5 
" id="ma8e2502f7d" style="stroke:#000000;stroke-width:0.8;"/>
      </defs>
      <g>
       <use style="stroke:#000000;stroke-width:0.8;" x="230.727273" xlink:href="#ma8e2502f7d" y="512.64"/>
      </g>
     </g>
     <g id="text_1">
      <!-- 0.0 -->
      <defs>
       <path d="M 31.78125 66.40625 
Q 24.171875 66.40625 20.328125 58.90625 
Q 16.5 51.421875 16.5 36.375 
Q 16.5 21.390625 20.328125 13.890625 
Q 24.171875 6.390625 31.78125 6.390625 
Q 39.453125 6.390625 43.28125 13.890625 
Q 47.125 21.390625 47.125 36.375 
Q 47.125 51.421875 43.28125 58.90625 
Q 39.453125 66.40625 31.78125 66.40625 
z
M 31.78125 74.21875 
Q 44.046875 74.21875 50.515625 64.515625 
Q 56.984375 54.828125 56.984375 36.375 
Q 56.984375 17.96875 50.515625 8.265625 
Q 44.046875 -1.421875 31.78125 -1.421875 
Q 19.53125 -1.421875 13.0625 8.265625 
Q 6.59375 17.96875 6.59375 36.375 
Q 6.59375 54.828125 13.0625 64.515625 
Q 19.53125 74.21875 31.78125 74.21875 
z
" id="DejaVuSans-30"/>
       <path d="M 10.6875 12.40625 
L 21 12.40625 
L 21 0 
L 10.6875 0 
z
" id="DejaVuSans-2e"/>
      </defs>
      <g transform="translate(222.77571 527.238438)scale(0.1 -0.1)">
       <use xlink:href="#DejaVuSans-30"/>
       <use x="63.623047" xlink:href="#DejaVuSans-2e"/>
       <use x="95.410156" xlink:href="#DejaVuSans-30"/>
      </g>
     </g>
    </g>
    <g id="xtick_2">
     <g id="line2d_2">
      <g>
       <use style="stroke:#000000;stroke-width:0.8;" x="387.175714" xlink:href="#ma8e2502f7d" y="512.64"/>
      </g>
     </g>
     <g id="text_2">
      <!-- 0.2 -->
      <defs>
       <path d="M 19.1875 8.296875 
L 53.609375 8.296875 
L 53.609375 0 
L 7.328125 0 
L 7.328125 8.296875 
Q 12.9375 14.109375 22.625 23.890625 
Q 32.328125 33.6875 34.8125 36.53125 
Q 39.546875 41.84375 41.421875 45.53125 
Q 43.3125 49.21875 43.3125 52.78125 
Q 43.3125 58.59375 39.234375 62.25 
Q 35.15625 65.921875 28.609375 65.921875 
Q 23.96875 65.921875 18.8125 64.3125 
Q 13.671875 62.703125 7.8125 59.421875 
L 7.8125 69.390625 
Q 13.765625 71.78125 18.9375 73 
Q 24.125 74.21875 28.421875 74.21875 
Q 39.75 74.21875 46.484375 68.546875 
Q 53.21875 62.890625 53.21875 53.421875 
Q 53.21875 48.921875 51.53125 44.890625 
Q 49.859375 40.875 45.40625 35.40625 
Q 44.1875 33.984375 37.640625 27.21875 
Q 31.109375 20.453125 19.1875 8.296875 
z
" id="DejaVuSans-32"/>
      </defs>
      <g transform="translate(379.224151 527.238438)scale(0.1 -0.1)">
       <use xlink:href="#DejaVuSans-30"/>
       <use x="63.623047" xlink:href="#DejaVuSans-2e"/>
       <use x="95.410156" xlink:href="#DejaVuSans-32"/>
      </g>
     </g>
    </g>
    <g id="xtick_3">
     <g id="line2d_3">
      <g>
       <use style="stroke:#000000;stroke-width:0.8;" x="543.624155" xlink:href="#ma8e2502f7d" y="512.64"/>
      </g>
     </g>
     <g id="text_3">
      <!-- 0.4 -->
      <defs>
       <path d="M 37.796875 64.3125 
L 12.890625 25.390625 
L 37.796875 25.390625 
z
M 35.203125 72.90625 
L 47.609375 72.90625 
L 47.609375 25.390625 
L 58.015625 25.390625 
L 58.015625 17.1875 
L 47.609375 17.1875 
L 47.609375 0 
L 37.796875 0 
L 37.796875 17.1875 
L 4.890625 17.1875 
L 4.890625 26.703125 
z
" id="DejaVuSans-34"/>
      </defs>
      <g transform="translate(535.672592 527.238438)scale(0.1 -0.1)">
       <use xlink:href="#DejaVuSans-30"/>
       <use x="63.623047" xlink:href="#DejaVuSans-2e"/>
       <use x="95.410156" xlink:href="#DejaVuSans-34"/>
      </g>
     </g>
    </g>
    <g id="xtick_4">
     <g id="line2d_4">
      <g>
       <use style="stroke:#000000;stroke-width:0.8;" x="700.072596" xlink:href="#ma8e2502f7d" y="512.64"/>
      </g>
     </g>
     <g id="text_4">
      <!-- 0.6 -->
      <defs>
       <path d="M 33.015625 40.375 
Q 26.375 40.375 22.484375 35.828125 
Q 18.609375 31.296875 18.609375 23.390625 
Q 18.609375 15.53125 22.484375 10.953125 
Q 26.375 6.390625 33.015625 6.390625 
Q 39.65625 6.390625 43.53125 10.953125 
Q 47.40625 15.53125 47.40625 23.390625 
Q 47.40625 31.296875 43.53125 35.828125 
Q 39.65625 40.375 33.015625 40.375 
z
M 52.59375 71.296875 
L 52.59375 62.3125 
Q 48.875 64.0625 45.09375 64.984375 
Q 41.3125 65.921875 37.59375 65.921875 
Q 27.828125 65.921875 22.671875 59.328125 
Q 17.53125 52.734375 16.796875 39.40625 
Q 19.671875 43.65625 24.015625 45.921875 
Q 28.375 48.1875 33.59375 48.1875 
Q 44.578125 48.1875 50.953125 41.515625 
Q 57.328125 34.859375 57.328125 23.390625 
Q 57.328125 12.15625 50.6875 5.359375 
Q 44.046875 -1.421875 33.015625 -1.421875 
Q 20.359375 -1.421875 13.671875 8.265625 
Q 6.984375 17.96875 6.984375 36.375 
Q 6.984375 53.65625 15.1875 63.9375 
Q 23.390625 74.21875 37.203125 74.21875 
Q 40.921875 74.21875 44.703125 73.484375 
Q 48.484375 72.75 52.59375 71.296875 
z
" id="DejaVuSans-36"/>
      </defs>
      <g transform="translate(692.121033 527.238438)scale(0.1 -0.1)">
       <use xlink:href="#DejaVuSans-30"/>
       <use x="63.623047" xlink:href="#DejaVuSans-2e"/>
       <use x="95.410156" xlink:href="#DejaVuSans-36"/>
      </g>
     </g>
    </g>
    <g id="xtick_5">
     <g id="line2d_5">
      <g>
       <use style="stroke:#000000;stroke-width:0.8;" x="856.521037" xlink:href="#ma8e2502f7d" y="512.64"/>
      </g>
     </g>
     <g id="text_5">
      <!-- 0.8 -->
      <defs>
       <path d="M 31.78125 34.625 
Q 24.75 34.625 20.71875 30.859375 
Q 16.703125 27.09375 16.703125 20.515625 
Q 16.703125 13.921875 20.71875 10.15625 
Q 24.75 6.390625 31.78125 6.390625 
Q 38.8125 6.390625 42.859375 10.171875 
Q 46.921875 13.96875 46.921875 20.515625 
Q 46.921875 27.09375 42.890625 30.859375 
Q 38.875 34.625 31.78125 34.625 
z
M 21.921875 38.8125 
Q 15.578125 40.375 12.03125 44.71875 
Q 8.5 49.078125 8.5 55.328125 
Q 8.5 64.0625 14.71875 69.140625 
Q 20.953125 74.21875 31.78125 74.21875 
Q 42.671875 74.21875 48.875 69.140625 
Q 55.078125 64.0625 55.078125 55.328125 
Q 55.078125 49.078125 51.53125 44.71875 
Q 48 40.375 41.703125 38.8125 
Q 48.828125 37.15625 52.796875 32.3125 
Q 56.78125 27.484375 56.78125 20.515625 
Q 56.78125 9.90625 50.3125 4.234375 
Q 43.84375 -1.421875 31.78125 -1.421875 
Q 19.734375 -1.421875 13.25 4.234375 
Q 6.78125 9.90625 6.78125 20.515625 
Q 6.78125 27.484375 10.78125 32.3125 
Q 14.796875 37.15625 21.921875 38.8125 
z
M 18.3125 54.390625 
Q 18.3125 48.734375 21.84375 45.5625 
Q 25.390625 42.390625 31.78125 42.390625 
Q 38.140625 42.390625 41.71875 45.5625 
Q 45.3125 48.734375 45.3125 54.390625 
Q 45.3125 60.0625 41.71875 63.234375 
Q 38.140625 66.40625 31.78125 66.40625 
Q 25.390625 66.40625 21.84375 63.234375 
Q 18.3125 60.0625 18.3125 54.390625 
z
" id="DejaVuSans-38"/>
      </defs>
      <g transform="translate(848.569474 527.238438)scale(0.1 -0.1)">
       <use xlink:href="#DejaVuSans-30"/>
       <use x="63.623047" xlink:href="#DejaVuSans-2e"/>
       <use x="95.410156" xlink:href="#DejaVuSans-38"/>
      </g>
     </g>
    </g>
    <g id="xtick_6">
     <g id="line2d_6">
      <g>
       <use style="stroke:#000000;stroke-width:0.8;" x="1012.969477" xlink:href="#ma8e2502f7d" y="512.64"/>
      </g>
     </g>
     <g id="text_6">
      <!-- 1.0 -->
      <defs>
       <path d="M 12.40625 8.296875 
L 28.515625 8.296875 
L 28.515625 63.921875 
L 10.984375 60.40625 
L 10.984375 69.390625 
L 28.421875 72.90625 
L 38.28125 72.90625 
L 38.28125 8.296875 
L 54.390625 8.296875 
L 54.390625 0 
L 12.40625 0 
z
" id="DejaVuSans-31"/>
      </defs>
      <g transform="translate(1005.017915 527.238438)scale(0.1 -0.1)">
       <use xlink:href="#DejaVuSans-31"/>
       <use x="63.623047" xlink:href="#DejaVuSans-2e"/>
       <use x="95.410156" xlink:href="#DejaVuSans-30"/>
      </g>
     </g>
    </g>
    <g id="xtick_7">
     <g id="line2d_7">
      <g>
       <use style="stroke:#000000;stroke-width:0.8;" x="1169.417918" xlink:href="#ma8e2502f7d" y="512.64"/>
      </g>
     </g>
     <g id="text_7">
      <!-- 1.2 -->
      <g transform="translate(1161.466356 527.238438)scale(0.1 -0.1)">
       <use xlink:href="#DejaVuSans-31"/>
       <use x="63.623047" xlink:href="#DejaVuSans-2e"/>
       <use x="95.410156" xlink:href="#DejaVuSans-32"/>
      </g>
     </g>
    </g>
   </g>
   <g id="matplotlib.axis_2">
    <g id="ytick_1">
     <g id="line2d_8">
      <defs>
       <path d="M 0 0 
L -3.5 0 
" id="m6cf96b115a" style="stroke:#000000;stroke-width:0.8;"/>
      </defs>
      <g>
       <use style="stroke:#000000;stroke-width:0.8;" x="180" xlink:href="#m6cf96b115a" y="478.985847"/>
      </g>
     </g>
     <g id="text_8">
      <!-- 0.30 -->
      <defs>
       <path d="M 40.578125 39.3125 
Q 47.65625 37.796875 51.625 33 
Q 55.609375 28.21875 55.609375 21.1875 
Q 55.609375 10.40625 48.1875 4.484375 
Q 40.765625 -1.421875 27.09375 -1.421875 
Q 22.515625 -1.421875 17.65625 -0.515625 
Q 12.796875 0.390625 7.625 2.203125 
L 7.625 11.71875 
Q 11.71875 9.328125 16.59375 8.109375 
Q 21.484375 6.890625 26.8125 6.890625 
Q 36.078125 6.890625 40.9375 10.546875 
Q 45.796875 14.203125 45.796875 21.1875 
Q 45.796875 27.640625 41.28125 31.265625 
Q 36.765625 34.90625 28.71875 34.90625 
L 20.21875 34.90625 
L 20.21875 43.015625 
L 29.109375 43.015625 
Q 36.375 43.015625 40.234375 45.921875 
Q 44.09375 48.828125 44.09375 54.296875 
Q 44.09375 59.90625 40.109375 62.90625 
Q 36.140625 65.921875 28.71875 65.921875 
Q 24.65625 65.921875 20.015625 65.03125 
Q 15.375 64.15625 9.8125 62.3125 
L 9.8125 71.09375 
Q 15.4375 72.65625 20.34375 73.4375 
Q 25.25 74.21875 29.59375 74.21875 
Q 40.828125 74.21875 47.359375 69.109375 
Q 53.90625 64.015625 53.90625 55.328125 
Q 53.90625 49.265625 50.4375 45.09375 
Q 46.96875 40.921875 40.578125 39.3125 
z
" id="DejaVuSans-33"/>
      </defs>
      <g transform="translate(150.734375 482.785066)scale(0.1 -0.1)">
       <use xlink:href="#DejaVuSans-30"/>
       <use x="63.623047" xlink:href="#DejaVuSans-2e"/>
       <use x="95.410156" xlink:href="#DejaVuSans-33"/>
       <use x="159.033203" xlink:href="#DejaVuSans-30"/>
      </g>
     </g>
    </g>
    <g id="ytick_2">
     <g id="line2d_9">
      <g>
       <use style="stroke:#000000;stroke-width:0.8;" x="180" xlink:href="#m6cf96b115a" y="390.872922"/>
      </g>
     </g>
     <g id="text_9">
      <!-- 0.31 -->
      <g transform="translate(150.734375 394.672141)scale(0.1 -0.1)">
       <use xlink:href="#DejaVuSans-30"/>
       <use x="63.623047" xlink:href="#DejaVuSans-2e"/>
       <use x="95.410156" xlink:href="#DejaVuSans-33"/>
       <use x="159.033203" xlink:href="#DejaVuSans-31"/>
      </g>
     </g>
    </g>
    <g id="ytick_3">
     <g id="line2d_10">
      <g>
       <use style="stroke:#000000;stroke-width:0.8;" x="180" xlink:href="#m6cf96b115a" y="302.759996"/>
      </g>
     </g>
     <g id="text_10">
      <!-- 0.32 -->
      <g transform="translate(150.734375 306.559215)scale(0.1 -0.1)">
       <use xlink:href="#DejaVuSans-30"/>
       <use x="63.623047" xlink:href="#DejaVuSans-2e"/>
       <use x="95.410156" xlink:href="#DejaVuSans-33"/>
       <use x="159.033203" xlink:href="#DejaVuSans-32"/>
      </g>
     </g>
    </g>
    <g id="ytick_4">
     <g id="line2d_11">
      <g>
       <use style="stroke:#000000;stroke-width:0.8;" x="180" xlink:href="#m6cf96b115a" y="214.647071"/>
      </g>
     </g>
     <g id="text_11">
      <!-- 0.33 -->
      <g transform="translate(150.734375 218.446289)scale(0.1 -0.1)">
       <use xlink:href="#DejaVuSans-30"/>
       <use x="63.623047" xlink:href="#DejaVuSans-2e"/>
       <use x="95.410156" xlink:href="#DejaVuSans-33"/>
       <use x="159.033203" xlink:href="#DejaVuSans-33"/>
      </g>
     </g>
    </g>
    <g id="ytick_5">
     <g id="line2d_12">
      <g>
       <use style="stroke:#000000;stroke-width:0.8;" x="180" xlink:href="#m6cf96b115a" y="126.534145"/>
      </g>
     </g>
     <g id="text_12">
      <!-- 0.34 -->
      <g transform="translate(150.734375 130.333364)scale(0.1 -0.1)">
       <use xlink:href="#DejaVuSans-30"/>
       <use x="63.623047" xlink:href="#DejaVuSans-2e"/>
       <use x="95.410156" xlink:href="#DejaVuSans-33"/>
       <use x="159.033203" xlink:href="#DejaVuSans-34"/>
      </g>
     </g>
    </g>
   </g>
   <g id="line2d_13">
    <path clip-path="url(#p47e7b0eca1)" d="M 230.727273 89.28 
L 240.982468 265.726134 
L 251.380814 242.992999 
L 261.612542 431.669206 
L 271.90372 440.550989 
L 282.175343 450.789711 
L 292.2428 457.891613 
L 302.425246 466.32402 
L 312.735199 476.439384 
L 323.523101 477.223589 
L 333.66096 477.09142 
L 343.839496 476.827081 
L 354.376298 476.950439 
L 364.570478 477.073797 
L 374.621509 476.712534 
L 384.997169 476.809458 
L 395.321984 471.3024 
L 405.567792 476.386516 
L 415.834721 476.351271 
L 426.546746 476.324837 
L 436.762047 476.271969 
L 446.927284 476.175045 
L 457.366307 476.157422 
L 467.465054 476.157422 
L 477.741369 476.254347 
L 487.930074 476.104555 
L 498.667131 476.474629 
L 508.901205 476.783024 
L 518.930333 476.694911 
L 528.824914 477.126665 
L 539.475924 477.346947 
L 549.26021 477.611286 
L 559.174347 477.496739 
L 569.211297 477.179532 
L 579.113701 477.840379 
L 588.903462 477.954926 
L 598.66741 477.972549 
L 608.470469 477.628908 
L 618.206255 477.875625 
L 627.942042 477.769889 
L 637.641063 477.699399 
L 647.391712 477.593663 
L 657.174433 477.584852 
L 667.146457 477.611286 
L 677.326557 477.620097 
L 687.544204 477.267645 
L 697.655467 477.531984 
L 707.824616 477.329324 
L 717.947612 477.382192 
L 728.073738 477.470305 
L 738.197516 477.346947 
L 748.30565 477.50555 
L 758.428646 477.487928 
L 768.578239 477.50555 
L 778.743476 477.514362 
L 788.917318 477.540795 
L 799.046573 477.523173 
L 809.205552 477.373381 
L 819.326202 477.452682 
L 829.423384 477.329324 
L 839.619911 477.558418 
L 850.537666 477.496739 
L 860.695863 477.523173 
L 871.14349 477.461494 
L 881.305599 477.223589 
L 891.754008 477.338136 
L 903.663645 477.452682 
L 914.468757 477.50555 
L 924.771669 477.479116 
L 935.464138 477.523173 
L 945.589481 477.470305 
L 955.797741 477.391003 
L 966.6889 477.479116 
L 976.867435 477.514362 
L 987.027979 477.302891 
L 997.15254 477.329324 
L 1007.97799 477.470305 
L 1018.136187 477.443871 
L 1028.387471 477.452682 
L 1038.566789 477.302891 
L 1048.747671 477.43506 
L 1058.896482 477.487928 
L 1069.815019 477.452682 
L 1079.972434 477.426249 
L 1090.191646 477.223589 
L 1100.281788 477.197155 
L 1110.479097 477.461494 
L 1120.666238 477.408626 
L 1131.996234 477.267645 
L 1142.043352 477.346947 
L 1152.146011 477.36457 
L 1162.301079 477.470305 
L 1172.982596 476.932816 
L 1183.131407 477.188344 
L 1193.266919 477.276457 
L 1204.388056 477.117853 
L 1214.692533 476.06931 
L 1224.851512 477.267645 
L 1235.199794 477.382192 
L 1245.272727 477.188344 
" style="fill:none;stroke:#ff0000;stroke-dasharray:5.55,2.4;stroke-dashoffset:0;stroke-width:1.5;"/>
    <defs>
     <path d="M -3 3 
L 3 3 
L 3 -3 
L -3 -3 
z
" id="md4f2e29ad2" style="stroke:#ff0000;stroke-linejoin:miter;"/>
    </defs>
    <g clip-path="url(#p47e7b0eca1)">
     <use style="fill:#ff0000;stroke:#ff0000;stroke-linejoin:miter;" x="230.727273" xlink:href="#md4f2e29ad2" y="89.28"/>
     <use style="fill:#ff0000;stroke:#ff0000;stroke-linejoin:miter;" x="240.982468" xlink:href="#md4f2e29ad2" y="265.726134"/>
     <use style="fill:#ff0000;stroke:#ff0000;stroke-linejoin:miter;" x="251.380814" xlink:href="#md4f2e29ad2" y="242.992999"/>
     <use style="fill:#ff0000;stroke:#ff0000;stroke-linejoin:miter;" x="261.612542" xlink:href="#md4f2e29ad2" y="431.669206"/>
     <use style="fill:#ff0000;stroke:#ff0000;stroke-linejoin:miter;" x="271.90372" xlink:href="#md4f2e29ad2" y="440.550989"/>
     <use style="fill:#ff0000;stroke:#ff0000;stroke-linejoin:miter;" x="282.175343" xlink:href="#md4f2e29ad2" y="450.789711"/>
     <use style="fill:#ff0000;stroke:#ff0000;stroke-linejoin:miter;" x="292.2428" xlink:href="#md4f2e29ad2" y="457.891613"/>
     <use style="fill:#ff0000;stroke:#ff0000;stroke-linejoin:miter;" x="302.425246" xlink:href="#md4f2e29ad2" y="466.32402"/>
     <use style="fill:#ff0000;stroke:#ff0000;stroke-linejoin:miter;" x="312.735199" xlink:href="#md4f2e29ad2" y="476.439384"/>
     <use style="fill:#ff0000;stroke:#ff0000;stroke-linejoin:miter;" x="323.523101" xlink:href="#md4f2e29ad2" y="477.223589"/>
     <use style="fill:#ff0000;stroke:#ff0000;stroke-linejoin:miter;" x="333.66096" xlink:href="#md4f2e29ad2" y="477.09142"/>
     <use style="fill:#ff0000;stroke:#ff0000;stroke-linejoin:miter;" x="343.839496" xlink:href="#md4f2e29ad2" y="476.827081"/>
     <use style="fill:#ff0000;stroke:#ff0000;stroke-linejoin:miter;" x="354.376298" xlink:href="#md4f2e29ad2" y="476.950439"/>
     <use style="fill:#ff0000;stroke:#ff0000;stroke-linejoin:miter;" x="364.570478" xlink:href="#md4f2e29ad2" y="477.073797"/>
     <use style="fill:#ff0000;stroke:#ff0000;stroke-linejoin:miter;" x="374.621509" xlink:href="#md4f2e29ad2" y="476.712534"/>
     <use style="fill:#ff0000;stroke:#ff0000;stroke-linejoin:miter;" x="384.997169" xlink:href="#md4f2e29ad2" y="476.809458"/>
     <use style="fill:#ff0000;stroke:#ff0000;stroke-linejoin:miter;" x="395.321984" xlink:href="#md4f2e29ad2" y="471.3024"/>
     <use style="fill:#ff0000;stroke:#ff0000;stroke-linejoin:miter;" x="405.567792" xlink:href="#md4f2e29ad2" y="476.386516"/>
     <use style="fill:#ff0000;stroke:#ff0000;stroke-linejoin:miter;" x="415.834721" xlink:href="#md4f2e29ad2" y="476.351271"/>
     <use style="fill:#ff0000;stroke:#ff0000;stroke-linejoin:miter;" x="426.546746" xlink:href="#md4f2e29ad2" y="476.324837"/>
     <use style="fill:#ff0000;stroke:#ff0000;stroke-linejoin:miter;" x="436.762047" xlink:href="#md4f2e29ad2" y="476.271969"/>
     <use style="fill:#ff0000;stroke:#ff0000;stroke-linejoin:miter;" x="446.927284" xlink:href="#md4f2e29ad2" y="476.175045"/>
     <use style="fill:#ff0000;stroke:#ff0000;stroke-linejoin:miter;" x="457.366307" xlink:href="#md4f2e29ad2" y="476.157422"/>
     <use style="fill:#ff0000;stroke:#ff0000;stroke-linejoin:miter;" x="467.465054" xlink:href="#md4f2e29ad2" y="476.157422"/>
     <use style="fill:#ff0000;stroke:#ff0000;stroke-linejoin:miter;" x="477.741369" xlink:href="#md4f2e29ad2" y="476.254347"/>
     <use style="fill:#ff0000;stroke:#ff0000;stroke-linejoin:miter;" x="487.930074" xlink:href="#md4f2e29ad2" y="476.104555"/>
     <use style="fill:#ff0000;stroke:#ff0000;stroke-linejoin:miter;" x="498.667131" xlink:href="#md4f2e29ad2" y="476.474629"/>
     <use style="fill:#ff0000;stroke:#ff0000;stroke-linejoin:miter;" x="508.901205" xlink:href="#md4f2e29ad2" y="476.783024"/>
     <use style="fill:#ff0000;stroke:#ff0000;stroke-linejoin:miter;" x="518.930333" xlink:href="#md4f2e29ad2" y="476.694911"/>
     <use style="fill:#ff0000;stroke:#ff0000;stroke-linejoin:miter;" x="528.824914" xlink:href="#md4f2e29ad2" y="477.126665"/>
     <use style="fill:#ff0000;stroke:#ff0000;stroke-linejoin:miter;" x="539.475924" xlink:href="#md4f2e29ad2" y="477.346947"/>
     <use style="fill:#ff0000;stroke:#ff0000;stroke-linejoin:miter;" x="549.26021" xlink:href="#md4f2e29ad2" y="477.611286"/>
     <use style="fill:#ff0000;stroke:#ff0000;stroke-linejoin:miter;" x="559.174347" xlink:href="#md4f2e29ad2" y="477.496739"/>
     <use style="fill:#ff0000;stroke:#ff0000;stroke-linejoin:miter;" x="569.211297" xlink:href="#md4f2e29ad2" y="477.179532"/>
     <use style="fill:#ff0000;stroke:#ff0000;stroke-linejoin:miter;" x="579.113701" xlink:href="#md4f2e29ad2" y="477.840379"/>
     <use style="fill:#ff0000;stroke:#ff0000;stroke-linejoin:miter;" x="588.903462" xlink:href="#md4f2e29ad2" y="477.954926"/>
     <use style="fill:#ff0000;stroke:#ff0000;stroke-linejoin:miter;" x="598.66741" xlink:href="#md4f2e29ad2" y="477.972549"/>
     <use style="fill:#ff0000;stroke:#ff0000;stroke-linejoin:miter;" x="608.470469" xlink:href="#md4f2e29ad2" y="477.628908"/>
     <use style="fill:#ff0000;stroke:#ff0000;stroke-linejoin:miter;" x="618.206255" xlink:href="#md4f2e29ad2" y="477.875625"/>
     <use style="fill:#ff0000;stroke:#ff0000;stroke-linejoin:miter;" x="627.942042" xlink:href="#md4f2e29ad2" y="477.769889"/>
     <use style="fill:#ff0000;stroke:#ff0000;stroke-linejoin:miter;" x="637.641063" xlink:href="#md4f2e29ad2" y="477.699399"/>
     <use style="fill:#ff0000;stroke:#ff0000;stroke-linejoin:miter;" x="647.391712" xlink:href="#md4f2e29ad2" y="477.593663"/>
     <use style="fill:#ff0000;stroke:#ff0000;stroke-linejoin:miter;" x="657.174433" xlink:href="#md4f2e29ad2" y="477.584852"/>
     <use style="fill:#ff0000;stroke:#ff0000;stroke-linejoin:miter;" x="667.146457" xlink:href="#md4f2e29ad2" y="477.611286"/>
     <use style="fill:#ff0000;stroke:#ff0000;stroke-linejoin:miter;" x="677.326557" xlink:href="#md4f2e29ad2" y="477.620097"/>
     <use style="fill:#ff0000;stroke:#ff0000;stroke-linejoin:miter;" x="687.544204" xlink:href="#md4f2e29ad2" y="477.267645"/>
     <use style="fill:#ff0000;stroke:#ff0000;stroke-linejoin:miter;" x="697.655467" xlink:href="#md4f2e29ad2" y="477.531984"/>
     <use style="fill:#ff0000;stroke:#ff0000;stroke-linejoin:miter;" x="707.824616" xlink:href="#md4f2e29ad2" y="477.329324"/>
     <use style="fill:#ff0000;stroke:#ff0000;stroke-linejoin:miter;" x="717.947612" xlink:href="#md4f2e29ad2" y="477.382192"/>
     <use style="fill:#ff0000;stroke:#ff0000;stroke-linejoin:miter;" x="728.073738" xlink:href="#md4f2e29ad2" y="477.470305"/>
     <use style="fill:#ff0000;stroke:#ff0000;stroke-linejoin:miter;" x="738.197516" xlink:href="#md4f2e29ad2" y="477.346947"/>
     <use style="fill:#ff0000;stroke:#ff0000;stroke-linejoin:miter;" x="748.30565" xlink:href="#md4f2e29ad2" y="477.50555"/>
     <use style="fill:#ff0000;stroke:#ff0000;stroke-linejoin:miter;" x="758.428646" xlink:href="#md4f2e29ad2" y="477.487928"/>
     <use style="fill:#ff0000;stroke:#ff0000;stroke-linejoin:miter;" x="768.578239" xlink:href="#md4f2e29ad2" y="477.50555"/>
     <use style="fill:#ff0000;stroke:#ff0000;stroke-linejoin:miter;" x="778.743476" xlink:href="#md4f2e29ad2" y="477.514362"/>
     <use style="fill:#ff0000;stroke:#ff0000;stroke-linejoin:miter;" x="788.917318" xlink:href="#md4f2e29ad2" y="477.540795"/>
     <use style="fill:#ff0000;stroke:#ff0000;stroke-linejoin:miter;" x="799.046573" xlink:href="#md4f2e29ad2" y="477.523173"/>
     <use style="fill:#ff0000;stroke:#ff0000;stroke-linejoin:miter;" x="809.205552" xlink:href="#md4f2e29ad2" y="477.373381"/>
     <use style="fill:#ff0000;stroke:#ff0000;stroke-linejoin:miter;" x="819.326202" xlink:href="#md4f2e29ad2" y="477.452682"/>
     <use style="fill:#ff0000;stroke:#ff0000;stroke-linejoin:miter;" x="829.423384" xlink:href="#md4f2e29ad2" y="477.329324"/>
     <use style="fill:#ff0000;stroke:#ff0000;stroke-linejoin:miter;" x="839.619911" xlink:href="#md4f2e29ad2" y="477.558418"/>
     <use style="fill:#ff0000;stroke:#ff0000;stroke-linejoin:miter;" x="850.537666" xlink:href="#md4f2e29ad2" y="477.496739"/>
     <use style="fill:#ff0000;stroke:#ff0000;stroke-linejoin:miter;" x="860.695863" xlink:href="#md4f2e29ad2" y="477.523173"/>
     <use style="fill:#ff0000;stroke:#ff0000;stroke-linejoin:miter;" x="871.14349" xlink:href="#md4f2e29ad2" y="477.461494"/>
     <use style="fill:#ff0000;stroke:#ff0000;stroke-linejoin:miter;" x="881.305599" xlink:href="#md4f2e29ad2" y="477.223589"/>
     <use style="fill:#ff0000;stroke:#ff0000;stroke-linejoin:miter;" x="891.754008" xlink:href="#md4f2e29ad2" y="477.338136"/>
     <use style="fill:#ff0000;stroke:#ff0000;stroke-linejoin:miter;" x="903.663645" xlink:href="#md4f2e29ad2" y="477.452682"/>
     <use style="fill:#ff0000;stroke:#ff0000;stroke-linejoin:miter;" x="914.468757" xlink:href="#md4f2e29ad2" y="477.50555"/>
     <use style="fill:#ff0000;stroke:#ff0000;stroke-linejoin:miter;" x="924.771669" xlink:href="#md4f2e29ad2" y="477.479116"/>
     <use style="fill:#ff0000;stroke:#ff0000;stroke-linejoin:miter;" x="935.464138" xlink:href="#md4f2e29ad2" y="477.523173"/>
     <use style="fill:#ff0000;stroke:#ff0000;stroke-linejoin:miter;" x="945.589481" xlink:href="#md4f2e29ad2" y="477.470305"/>
     <use style="fill:#ff0000;stroke:#ff0000;stroke-linejoin:miter;" x="955.797741" xlink:href="#md4f2e29ad2" y="477.391003"/>
     <use style="fill:#ff0000;stroke:#ff0000;stroke-linejoin:miter;" x="966.6889" xlink:href="#md4f2e29ad2" y="477.479116"/>
     <use style="fill:#ff0000;stroke:#ff0000;stroke-linejoin:miter;" x="976.867435" xlink:href="#md4f2e29ad2" y="477.514362"/>
     <use style="fill:#ff0000;stroke:#ff0000;stroke-linejoin:miter;" x="987.027979" xlink:href="#md4f2e29ad2" y="477.302891"/>
     <use style="fill:#ff0000;stroke:#ff0000;stroke-linejoin:miter;" x="997.15254" xlink:href="#md4f2e29ad2" y="477.329324"/>
     <use style="fill:#ff0000;stroke:#ff0000;stroke-linejoin:miter;" x="1007.97799" xlink:href="#md4f2e29ad2" y="477.470305"/>
     <use style="fill:#ff0000;stroke:#ff0000;stroke-linejoin:miter;" x="1018.136187" xlink:href="#md4f2e29ad2" y="477.443871"/>
     <use style="fill:#ff0000;stroke:#ff0000;stroke-linejoin:miter;" x="1028.387471" xlink:href="#md4f2e29ad2" y="477.452682"/>
     <use style="fill:#ff0000;stroke:#ff0000;stroke-linejoin:miter;" x="1038.566789" xlink:href="#md4f2e29ad2" y="477.302891"/>
     <use style="fill:#ff0000;stroke:#ff0000;stroke-linejoin:miter;" x="1048.747671" xlink:href="#md4f2e29ad2" y="477.43506"/>
     <use style="fill:#ff0000;stroke:#ff0000;stroke-linejoin:miter;" x="1058.896482" xlink:href="#md4f2e29ad2" y="477.487928"/>
     <use style="fill:#ff0000;stroke:#ff0000;stroke-linejoin:miter;" x="1069.815019" xlink:href="#md4f2e29ad2" y="477.452682"/>
     <use style="fill:#ff0000;stroke:#ff0000;stroke-linejoin:miter;" x="1079.972434" xlink:href="#md4f2e29ad2" y="477.426249"/>
     <use style="fill:#ff0000;stroke:#ff0000;stroke-linejoin:miter;" x="1090.191646" xlink:href="#md4f2e29ad2" y="477.223589"/>
     <use style="fill:#ff0000;stroke:#ff0000;stroke-linejoin:miter;" x="1100.281788" xlink:href="#md4f2e29ad2" y="477.197155"/>
     <use style="fill:#ff0000;stroke:#ff0000;stroke-linejoin:miter;" x="1110.479097" xlink:href="#md4f2e29ad2" y="477.461494"/>
     <use style="fill:#ff0000;stroke:#ff0000;stroke-linejoin:miter;" x="1120.666238" xlink:href="#md4f2e29ad2" y="477.408626"/>
     <use style="fill:#ff0000;stroke:#ff0000;stroke-linejoin:miter;" x="1131.996234" xlink:href="#md4f2e29ad2" y="477.267645"/>
     <use style="fill:#ff0000;stroke:#ff0000;stroke-linejoin:miter;" x="1142.043352" xlink:href="#md4f2e29ad2" y="477.346947"/>
     <use style="fill:#ff0000;stroke:#ff0000;stroke-linejoin:miter;" x="1152.146011" xlink:href="#md4f2e29ad2" y="477.36457"/>
     <use style="fill:#ff0000;stroke:#ff0000;stroke-linejoin:miter;" x="1162.301079" xlink:href="#md4f2e29ad2" y="477.470305"/>
     <use style="fill:#ff0000;stroke:#ff0000;stroke-linejoin:miter;" x="1172.982596" xlink:href="#md4f2e29ad2" y="476.932816"/>
     <use style="fill:#ff0000;stroke:#ff0000;stroke-linejoin:miter;" x="1183.131407" xlink:href="#md4f2e29ad2" y="477.188344"/>
     <use style="fill:#ff0000;stroke:#ff0000;stroke-linejoin:miter;" x="1193.266919" xlink:href="#md4f2e29ad2" y="477.276457"/>
     <use style="fill:#ff0000;stroke:#ff0000;stroke-linejoin:miter;" x="1204.388056" xlink:href="#md4f2e29ad2" y="477.117853"/>
     <use style="fill:#ff0000;stroke:#ff0000;stroke-linejoin:miter;" x="1214.692533" xlink:href="#md4f2e29ad2" y="476.06931"/>
     <use style="fill:#ff0000;stroke:#ff0000;stroke-linejoin:miter;" x="1224.851512" xlink:href="#md4f2e29ad2" y="477.267645"/>
     <use style="fill:#ff0000;stroke:#ff0000;stroke-linejoin:miter;" x="1235.199794" xlink:href="#md4f2e29ad2" y="477.382192"/>
     <use style="fill:#ff0000;stroke:#ff0000;stroke-linejoin:miter;" x="1245.272727" xlink:href="#md4f2e29ad2" y="477.188344"/>
    </g>
   </g>
   <g id="line2d_14">
    <path clip-path="url(#p47e7b0eca1)" d="M 230.727273 89.28 
L 240.982468 265.726134 
L 323.523101 477.223589 
L 333.66096 477.09142 
L 343.839496 476.827081 
L 354.376298 476.950439 
L 364.570478 477.073797 
L 374.621509 476.712534 
L 384.997169 476.809458 
L 395.321984 471.3024 
L 405.567792 476.386516 
L 415.834721 476.351271 
L 426.546746 476.324837 
L 436.762047 476.271969 
L 446.927284 476.175045 
L 457.366307 476.157422 
L 467.465054 476.157422 
L 477.741369 476.254347 
L 487.930074 476.104555 
L 498.667131 476.474629 
L 508.901205 476.783024 
L 518.930333 476.694911 
L 528.824914 477.126665 
L 539.475924 477.346947 
L 549.26021 477.611286 
L 559.174347 477.496739 
L 569.211297 477.179532 
L 579.113701 477.840379 
L 588.903462 477.954926 
L 598.66741 477.972549 
L 608.470469 477.628908 
L 618.206255 477.875625 
L 627.942042 477.769889 
L 637.641063 477.699399 
L 647.391712 477.593663 
L 657.174433 477.584852 
L 667.146457 477.611286 
L 677.326557 477.620097 
L 687.544204 477.267645 
L 697.655467 477.531984 
L 707.824616 477.329324 
L 717.947612 477.382192 
L 728.073738 477.470305 
L 738.197516 477.346947 
L 748.30565 477.50555 
L 758.428646 477.487928 
L 768.578239 477.50555 
L 778.743476 477.514362 
L 788.917318 477.540795 
L 799.046573 477.523173 
L 809.205552 477.373381 
L 819.326202 477.452682 
L 829.423384 477.329324 
L 839.619911 477.558418 
L 850.537666 477.496739 
L 860.695863 477.523173 
L 871.14349 477.461494 
L 881.305599 477.223589 
L 891.754008 477.338136 
L 903.663645 477.452682 
L 914.468757 477.50555 
L 924.771669 477.479116 
L 935.464138 477.523173 
L 945.589481 477.470305 
L 955.797741 477.391003 
L 966.6889 477.479116 
L 976.867435 477.514362 
L 987.027979 477.302891 
L 997.15254 477.329324 
L 1007.97799 477.470305 
L 1018.136187 477.443871 
L 1028.387471 477.452682 
L 1038.566789 477.302891 
L 1048.747671 477.43506 
L 1058.896482 477.487928 
L 1069.815019 477.452682 
L 1079.972434 477.426249 
L 1090.191646 477.223589 
L 1100.281788 477.197155 
L 1110.479097 477.461494 
L 1120.666238 477.408626 
L 1131.996234 477.267645 
L 1142.043352 477.346947 
L 1152.146011 477.36457 
L 1162.301079 477.470305 
L 1172.982596 476.932816 
L 1183.131407 477.188344 
L 1193.266919 477.276457 
L 1204.388056 477.117853 
L 1214.692533 476.06931 
L 1224.851512 477.267645 
L 1235.199794 477.382192 
L 1245.272727 477.188344 
" style="fill:none;stroke:#800080;stroke-dasharray:9.6,2.4,1.5,2.4;stroke-dashoffset:0;stroke-width:1.5;"/>
    <defs>
     <path d="M -3 3 
L 3 -3 
M -3 -3 
L 3 3 
" id="me0e6528a20" style="stroke:#800080;"/>
    </defs>
    <g clip-path="url(#p47e7b0eca1)">
     <use style="fill:#800080;stroke:#800080;" x="230.727273" xlink:href="#me0e6528a20" y="89.28"/>
     <use style="fill:#800080;stroke:#800080;" x="240.982468" xlink:href="#me0e6528a20" y="265.726134"/>
     <use style="fill:#800080;stroke:#800080;" x="323.523101" xlink:href="#me0e6528a20" y="477.223589"/>
     <use style="fill:#800080;stroke:#800080;" x="333.66096" xlink:href="#me0e6528a20" y="477.09142"/>
     <use style="fill:#800080;stroke:#800080;" x="343.839496" xlink:href="#me0e6528a20" y="476.827081"/>
     <use style="fill:#800080;stroke:#800080;" x="354.376298" xlink:href="#me0e6528a20" y="476.950439"/>
     <use style="fill:#800080;stroke:#800080;" x="364.570478" xlink:href="#me0e6528a20" y="477.073797"/>
     <use style="fill:#800080;stroke:#800080;" x="374.621509" xlink:href="#me0e6528a20" y="476.712534"/>
     <use style="fill:#800080;stroke:#800080;" x="384.997169" xlink:href="#me0e6528a20" y="476.809458"/>
     <use style="fill:#800080;stroke:#800080;" x="395.321984" xlink:href="#me0e6528a20" y="471.3024"/>
     <use style="fill:#800080;stroke:#800080;" x="405.567792" xlink:href="#me0e6528a20" y="476.386516"/>
     <use style="fill:#800080;stroke:#800080;" x="415.834721" xlink:href="#me0e6528a20" y="476.351271"/>
     <use style="fill:#800080;stroke:#800080;" x="426.546746" xlink:href="#me0e6528a20" y="476.324837"/>
     <use style="fill:#800080;stroke:#800080;" x="436.762047" xlink:href="#me0e6528a20" y="476.271969"/>
     <use style="fill:#800080;stroke:#800080;" x="446.927284" xlink:href="#me0e6528a20" y="476.175045"/>
     <use style="fill:#800080;stroke:#800080;" x="457.366307" xlink:href="#me0e6528a20" y="476.157422"/>
     <use style="fill:#800080;stroke:#800080;" x="467.465054" xlink:href="#me0e6528a20" y="476.157422"/>
     <use style="fill:#800080;stroke:#800080;" x="477.741369" xlink:href="#me0e6528a20" y="476.254347"/>
     <use style="fill:#800080;stroke:#800080;" x="487.930074" xlink:href="#me0e6528a20" y="476.104555"/>
     <use style="fill:#800080;stroke:#800080;" x="498.667131" xlink:href="#me0e6528a20" y="476.474629"/>
     <use style="fill:#800080;stroke:#800080;" x="508.901205" xlink:href="#me0e6528a20" y="476.783024"/>
     <use style="fill:#800080;stroke:#800080;" x="518.930333" xlink:href="#me0e6528a20" y="476.694911"/>
     <use style="fill:#800080;stroke:#800080;" x="528.824914" xlink:href="#me0e6528a20" y="477.126665"/>
     <use style="fill:#800080;stroke:#800080;" x="539.475924" xlink:href="#me0e6528a20" y="477.346947"/>
     <use style="fill:#800080;stroke:#800080;" x="549.26021" xlink:href="#me0e6528a20" y="477.611286"/>
     <use style="fill:#800080;stroke:#800080;" x="559.174347" xlink:href="#me0e6528a20" y="477.496739"/>
     <use style="fill:#800080;stroke:#800080;" x="569.211297" xlink:href="#me0e6528a20" y="477.179532"/>
     <use style="fill:#800080;stroke:#800080;" x="579.113701" xlink:href="#me0e6528a20" y="477.840379"/>
     <use style="fill:#800080;stroke:#800080;" x="588.903462" xlink:href="#me0e6528a20" y="477.954926"/>
     <use style="fill:#800080;stroke:#800080;" x="598.66741" xlink:href="#me0e6528a20" y="477.972549"/>
     <use style="fill:#800080;stroke:#800080;" x="608.470469" xlink:href="#me0e6528a20" y="477.628908"/>
     <use style="fill:#800080;stroke:#800080;" x="618.206255" xlink:href="#me0e6528a20" y="477.875625"/>
     <use style="fill:#800080;stroke:#800080;" x="627.942042" xlink:href="#me0e6528a20" y="477.769889"/>
     <use style="fill:#800080;stroke:#800080;" x="637.641063" xlink:href="#me0e6528a20" y="477.699399"/>
     <use style="fill:#800080;stroke:#800080;" x="647.391712" xlink:href="#me0e6528a20" y="477.593663"/>
     <use style="fill:#800080;stroke:#800080;" x="657.174433" xlink:href="#me0e6528a20" y="477.584852"/>
     <use style="fill:#800080;stroke:#800080;" x="667.146457" xlink:href="#me0e6528a20" y="477.611286"/>
     <use style="fill:#800080;stroke:#800080;" x="677.326557" xlink:href="#me0e6528a20" y="477.620097"/>
     <use style="fill:#800080;stroke:#800080;" x="687.544204" xlink:href="#me0e6528a20" y="477.267645"/>
     <use style="fill:#800080;stroke:#800080;" x="697.655467" xlink:href="#me0e6528a20" y="477.531984"/>
     <use style="fill:#800080;stroke:#800080;" x="707.824616" xlink:href="#me0e6528a20" y="477.329324"/>
     <use style="fill:#800080;stroke:#800080;" x="717.947612" xlink:href="#me0e6528a20" y="477.382192"/>
     <use style="fill:#800080;stroke:#800080;" x="728.073738" xlink:href="#me0e6528a20" y="477.470305"/>
     <use style="fill:#800080;stroke:#800080;" x="738.197516" xlink:href="#me0e6528a20" y="477.346947"/>
     <use style="fill:#800080;stroke:#800080;" x="748.30565" xlink:href="#me0e6528a20" y="477.50555"/>
     <use style="fill:#800080;stroke:#800080;" x="758.428646" xlink:href="#me0e6528a20" y="477.487928"/>
     <use style="fill:#800080;stroke:#800080;" x="768.578239" xlink:href="#me0e6528a20" y="477.50555"/>
     <use style="fill:#800080;stroke:#800080;" x="778.743476" xlink:href="#me0e6528a20" y="477.514362"/>
     <use style="fill:#800080;stroke:#800080;" x="788.917318" xlink:href="#me0e6528a20" y="477.540795"/>
     <use style="fill:#800080;stroke:#800080;" x="799.046573" xlink:href="#me0e6528a20" y="477.523173"/>
     <use style="fill:#800080;stroke:#800080;" x="809.205552" xlink:href="#me0e6528a20" y="477.373381"/>
     <use style="fill:#800080;stroke:#800080;" x="819.326202" xlink:href="#me0e6528a20" y="477.452682"/>
     <use style="fill:#800080;stroke:#800080;" x="829.423384" xlink:href="#me0e6528a20" y="477.329324"/>
     <use style="fill:#800080;stroke:#800080;" x="839.619911" xlink:href="#me0e6528a20" y="477.558418"/>
     <use style="fill:#800080;stroke:#800080;" x="850.537666" xlink:href="#me0e6528a20" y="477.496739"/>
     <use style="fill:#800080;stroke:#800080;" x="860.695863" xlink:href="#me0e6528a20" y="477.523173"/>
     <use style="fill:#800080;stroke:#800080;" x="871.14349" xlink:href="#me0e6528a20" y="477.461494"/>
     <use style="fill:#800080;stroke:#800080;" x="881.305599" xlink:href="#me0e6528a20" y="477.223589"/>
     <use style="fill:#800080;stroke:#800080;" x="891.754008" xlink:href="#me0e6528a20" y="477.338136"/>
     <use style="fill:#800080;stroke:#800080;" x="903.663645" xlink:href="#me0e6528a20" y="477.452682"/>
     <use style="fill:#800080;stroke:#800080;" x="914.468757" xlink:href="#me0e6528a20" y="477.50555"/>
     <use style="fill:#800080;stroke:#800080;" x="924.771669" xlink:href="#me0e6528a20" y="477.479116"/>
     <use style="fill:#800080;stroke:#800080;" x="935.464138" xlink:href="#me0e6528a20" y="477.523173"/>
     <use style="fill:#800080;stroke:#800080;" x="945.589481" xlink:href="#me0e6528a20" y="477.470305"/>
     <use style="fill:#800080;stroke:#800080;" x="955.797741" xlink:href="#me0e6528a20" y="477.391003"/>
     <use style="fill:#800080;stroke:#800080;" x="966.6889" xlink:href="#me0e6528a20" y="477.479116"/>
     <use style="fill:#800080;stroke:#800080;" x="976.867435" xlink:href="#me0e6528a20" y="477.514362"/>
     <use style="fill:#800080;stroke:#800080;" x="987.027979" xlink:href="#me0e6528a20" y="477.302891"/>
     <use style="fill:#800080;stroke:#800080;" x="997.15254" xlink:href="#me0e6528a20" y="477.329324"/>
     <use style="fill:#800080;stroke:#800080;" x="1007.97799" xlink:href="#me0e6528a20" y="477.470305"/>
     <use style="fill:#800080;stroke:#800080;" x="1018.136187" xlink:href="#me0e6528a20" y="477.443871"/>
     <use style="fill:#800080;stroke:#800080;" x="1028.387471" xlink:href="#me0e6528a20" y="477.452682"/>
     <use style="fill:#800080;stroke:#800080;" x="1038.566789" xlink:href="#me0e6528a20" y="477.302891"/>
     <use style="fill:#800080;stroke:#800080;" x="1048.747671" xlink:href="#me0e6528a20" y="477.43506"/>
     <use style="fill:#800080;stroke:#800080;" x="1058.896482" xlink:href="#me0e6528a20" y="477.487928"/>
     <use style="fill:#800080;stroke:#800080;" x="1069.815019" xlink:href="#me0e6528a20" y="477.452682"/>
     <use style="fill:#800080;stroke:#800080;" x="1079.972434" xlink:href="#me0e6528a20" y="477.426249"/>
     <use style="fill:#800080;stroke:#800080;" x="1090.191646" xlink:href="#me0e6528a20" y="477.223589"/>
     <use style="fill:#800080;stroke:#800080;" x="1100.281788" xlink:href="#me0e6528a20" y="477.197155"/>
     <use style="fill:#800080;stroke:#800080;" x="1110.479097" xlink:href="#me0e6528a20" y="477.461494"/>
     <use style="fill:#800080;stroke:#800080;" x="1120.666238" xlink:href="#me0e6528a20" y="477.408626"/>
     <use style="fill:#800080;stroke:#800080;" x="1131.996234" xlink:href="#me0e6528a20" y="477.267645"/>
     <use style="fill:#800080;stroke:#800080;" x="1142.043352" xlink:href="#me0e6528a20" y="477.346947"/>
     <use style="fill:#800080;stroke:#800080;" x="1152.146011" xlink:href="#me0e6528a20" y="477.36457"/>
     <use style="fill:#800080;stroke:#800080;" x="1162.301079" xlink:href="#me0e6528a20" y="477.470305"/>
     <use style="fill:#800080;stroke:#800080;" x="1172.982596" xlink:href="#me0e6528a20" y="476.932816"/>
     <use style="fill:#800080;stroke:#800080;" x="1183.131407" xlink:href="#me0e6528a20" y="477.188344"/>
     <use style="fill:#800080;stroke:#800080;" x="1193.266919" xlink:href="#me0e6528a20" y="477.276457"/>
     <use style="fill:#800080;stroke:#800080;" x="1204.388056" xlink:href="#me0e6528a20" y="477.117853"/>
     <use style="fill:#800080;stroke:#800080;" x="1214.692533" xlink:href="#me0e6528a20" y="476.06931"/>
     <use style="fill:#800080;stroke:#800080;" x="1224.851512" xlink:href="#me0e6528a20" y="477.267645"/>
     <use style="fill:#800080;stroke:#800080;" x="1235.199794" xlink:href="#me0e6528a20" y="477.382192"/>
     <use style="fill:#800080;stroke:#800080;" x="1245.272727" xlink:href="#me0e6528a20" y="477.188344"/>
    </g>
   </g>
   <g id="line2d_15">
    <path clip-path="url(#p47e7b0eca1)" d="M 230.727273 446.004258 
L 240.982468 446.474042 
L 323.523101 450.255181 
L 333.66096 450.719591 
L 343.839496 451.185863 
L 354.376298 451.668548 
L 364.570478 452.135538 
L 374.621509 452.59597 
L 384.997169 453.071273 
L 395.321984 453.544246 
L 405.567792 454.013601 
L 415.834721 454.483923 
L 426.546746 454.974635 
L 436.762047 455.442592 
L 446.927284 455.908256 
L 457.366307 456.386461 
L 467.465054 456.849079 
L 477.741369 457.319831 
L 487.930074 457.78657 
L 498.667131 458.278428 
L 508.901205 458.747245 
L 518.930333 459.206674 
L 528.824914 459.659939 
L 539.475924 460.147855 
L 549.26021 460.596068 
L 559.174347 461.050229 
L 569.211297 461.510016 
L 579.113701 461.963639 
L 588.903462 462.412102 
L 598.66741 462.859383 
L 608.470469 463.308456 
L 618.206255 463.754446 
L 627.942042 464.200437 
L 637.641063 464.644744 
L 647.391712 465.091415 
L 657.174433 465.539556 
L 667.146457 465.996369 
L 677.326557 466.462713 
L 687.544204 466.930778 
L 697.655467 467.393969 
L 707.824616 467.859812 
L 717.947612 468.323541 
L 728.073738 468.787412 
L 738.197516 469.251177 
L 748.30565 469.714225 
L 758.428646 470.177953 
L 768.578239 470.6429 
L 778.743476 471.108564 
L 788.917318 471.574622 
L 799.046573 472.038637 
L 809.205552 472.504014 
L 819.326202 472.967635 
L 829.423384 473.430181 
L 839.619911 473.897278 
L 850.537666 474.397414 
L 860.695863 474.862756 
L 871.14349 475.341355 
L 881.305599 475.806876 
L 891.754008 476.285511 
L 903.663645 476.831085 
L 914.468757 477.326061 
L 924.771669 477.798031 
L 935.464138 478.287847 
L 945.589481 478.751683 
L 955.797741 479.219318 
L 966.6889 479.718235 
L 976.867435 480.184508 
L 987.027979 480.649957 
L 997.15254 481.113757 
L 1007.97799 481.609665 
L 1018.136187 482.075006 
L 1028.387471 482.544611 
L 1038.566789 483.01092 
L 1048.747671 483.4773 
L 1058.896482 483.942212 
L 1069.815019 484.442384 
L 1079.972434 484.907689 
L 1090.191646 485.375825 
L 1100.281788 485.838049 
L 1110.479097 486.305182 
L 1120.666238 486.771849 
L 1131.996234 487.290869 
L 1142.043352 487.751122 
L 1152.146011 488.213919 
L 1162.301079 488.679117 
L 1172.982596 489.168431 
L 1183.131407 489.633342 
L 1193.266919 490.097644 
L 1204.388056 490.607097 
L 1214.692533 491.079139 
L 1224.851512 491.544516 
L 1235.199794 492.018565 
L 1245.272727 492.48 
" style="fill:none;stroke:#0000ff;stroke-linecap:square;stroke-width:1.5;"/>
   </g>
   <g id="line2d_16">
    <path clip-path="url(#p47e7b0eca1)" d="M 230.727273 476.9575 
L 240.982468 476.957577 
L 323.523101 476.958196 
L 333.66096 476.958272 
L 343.839496 476.958348 
L 354.376298 476.958427 
L 364.570478 476.958504 
L 374.621509 476.958579 
L 384.997169 476.958657 
L 395.321984 476.958734 
L 405.567792 476.958811 
L 415.834721 476.958888 
L 426.546746 476.958969 
L 436.762047 476.959045 
L 446.927284 476.959122 
L 457.366307 476.9592 
L 467.465054 476.959276 
L 477.741369 476.959353 
L 487.930074 476.959429 
L 498.667131 476.95951 
L 508.901205 476.959586 
L 518.930333 476.959662 
L 528.824914 476.959736 
L 539.475924 476.959816 
L 549.26021 476.959889 
L 559.174347 476.959963 
L 569.211297 476.960039 
L 579.113701 476.960113 
L 588.903462 476.960186 
L 598.66741 476.96026 
L 608.470469 476.960333 
L 618.206255 476.960406 
L 627.942042 476.960479 
L 637.641063 476.960552 
L 647.391712 476.960625 
L 657.174433 476.960699 
L 667.146457 476.960773 
L 677.326557 476.96085 
L 687.544204 476.960926 
L 697.655467 476.961002 
L 707.824616 476.961078 
L 717.947612 476.961154 
L 728.073738 476.96123 
L 738.197516 476.961306 
L 748.30565 476.961382 
L 758.428646 476.961458 
L 768.578239 476.961534 
L 778.743476 476.96161 
L 788.917318 476.961687 
L 799.046573 476.961763 
L 809.205552 476.961839 
L 819.326202 476.961915 
L 829.423384 476.961991 
L 839.619911 476.962067 
L 850.537666 476.962149 
L 860.695863 476.962225 
L 871.14349 476.962303 
L 881.305599 476.96238 
L 891.754008 476.962458 
L 903.663645 476.962547 
L 914.468757 476.962628 
L 924.771669 476.962706 
L 935.464138 476.962786 
L 945.589481 476.962862 
L 955.797741 476.962938 
L 966.6889 476.96302 
L 976.867435 476.963097 
L 987.027979 476.963173 
L 997.15254 476.963249 
L 1007.97799 476.96333 
L 1018.136187 476.963406 
L 1028.387471 476.963483 
L 1038.566789 476.963559 
L 1048.747671 476.963636 
L 1058.896482 476.963712 
L 1069.815019 476.963794 
L 1079.972434 476.96387 
L 1090.191646 476.963947 
L 1100.281788 476.964022 
L 1110.479097 476.964099 
L 1120.666238 476.964175 
L 1131.996234 476.96426 
L 1142.043352 476.964335 
L 1152.146011 476.964411 
L 1162.301079 476.964487 
L 1172.982596 476.964568 
L 1183.131407 476.964644 
L 1193.266919 476.96472 
L 1204.388056 476.964803 
L 1214.692533 476.96488 
L 1224.851512 476.964957 
L 1235.199794 476.965034 
L 1245.272727 476.96511 
" style="fill:none;stroke:#008000;stroke-linecap:square;stroke-width:1.5;"/>
    <defs>
     <path d="M 0 3 
C 0.795609 3 1.55874 2.683901 2.12132 2.12132 
C 2.683901 1.55874 3 0.795609 3 0 
C 3 -0.795609 2.683901 -1.55874 2.12132 -2.12132 
C 1.55874 -2.683901 0.795609 -3 0 -3 
C -0.795609 -3 -1.55874 -2.683901 -2.12132 -2.12132 
C -2.683901 -1.55874 -3 -0.795609 -3 0 
C -3 0.795609 -2.683901 1.55874 -2.12132 2.12132 
C -1.55874 2.683901 -0.795609 3 0 3 
z
" id="m4e3f80d957" style="stroke:#008000;"/>
    </defs>
    <g clip-path="url(#p47e7b0eca1)">
     <use style="fill:#008000;stroke:#008000;" x="230.727273" xlink:href="#m4e3f80d957" y="476.9575"/>
     <use style="fill:#008000;stroke:#008000;" x="240.982468" xlink:href="#m4e3f80d957" y="476.957577"/>
     <use style="fill:#008000;stroke:#008000;" x="323.523101" xlink:href="#m4e3f80d957" y="476.958196"/>
     <use style="fill:#008000;stroke:#008000;" x="333.66096" xlink:href="#m4e3f80d957" y="476.958272"/>
     <use style="fill:#008000;stroke:#008000;" x="343.839496" xlink:href="#m4e3f80d957" y="476.958348"/>
     <use style="fill:#008000;stroke:#008000;" x="354.376298" xlink:href="#m4e3f80d957" y="476.958427"/>
     <use style="fill:#008000;stroke:#008000;" x="364.570478" xlink:href="#m4e3f80d957" y="476.958504"/>
     <use style="fill:#008000;stroke:#008000;" x="374.621509" xlink:href="#m4e3f80d957" y="476.958579"/>
     <use style="fill:#008000;stroke:#008000;" x="384.997169" xlink:href="#m4e3f80d957" y="476.958657"/>
     <use style="fill:#008000;stroke:#008000;" x="395.321984" xlink:href="#m4e3f80d957" y="476.958734"/>
     <use style="fill:#008000;stroke:#008000;" x="405.567792" xlink:href="#m4e3f80d957" y="476.958811"/>
     <use style="fill:#008000;stroke:#008000;" x="415.834721" xlink:href="#m4e3f80d957" y="476.958888"/>
     <use style="fill:#008000;stroke:#008000;" x="426.546746" xlink:href="#m4e3f80d957" y="476.958969"/>
     <use style="fill:#008000;stroke:#008000;" x="436.762047" xlink:href="#m4e3f80d957" y="476.959045"/>
     <use style="fill:#008000;stroke:#008000;" x="446.927284" xlink:href="#m4e3f80d957" y="476.959122"/>
     <use style="fill:#008000;stroke:#008000;" x="457.366307" xlink:href="#m4e3f80d957" y="476.9592"/>
     <use style="fill:#008000;stroke:#008000;" x="467.465054" xlink:href="#m4e3f80d957" y="476.959276"/>
     <use style="fill:#008000;stroke:#008000;" x="477.741369" xlink:href="#m4e3f80d957" y="476.959353"/>
     <use style="fill:#008000;stroke:#008000;" x="487.930074" xlink:href="#m4e3f80d957" y="476.959429"/>
     <use style="fill:#008000;stroke:#008000;" x="498.667131" xlink:href="#m4e3f80d957" y="476.95951"/>
     <use style="fill:#008000;stroke:#008000;" x="508.901205" xlink:href="#m4e3f80d957" y="476.959586"/>
     <use style="fill:#008000;stroke:#008000;" x="518.930333" xlink:href="#m4e3f80d957" y="476.959662"/>
     <use style="fill:#008000;stroke:#008000;" x="528.824914" xlink:href="#m4e3f80d957" y="476.959736"/>
     <use style="fill:#008000;stroke:#008000;" x="539.475924" xlink:href="#m4e3f80d957" y="476.959816"/>
     <use style="fill:#008000;stroke:#008000;" x="549.26021" xlink:href="#m4e3f80d957" y="476.959889"/>
     <use style="fill:#008000;stroke:#008000;" x="559.174347" xlink:href="#m4e3f80d957" y="476.959963"/>
     <use style="fill:#008000;stroke:#008000;" x="569.211297" xlink:href="#m4e3f80d957" y="476.960039"/>
     <use style="fill:#008000;stroke:#008000;" x="579.113701" xlink:href="#m4e3f80d957" y="476.960113"/>
     <use style="fill:#008000;stroke:#008000;" x="588.903462" xlink:href="#m4e3f80d957" y="476.960186"/>
     <use style="fill:#008000;stroke:#008000;" x="598.66741" xlink:href="#m4e3f80d957" y="476.96026"/>
     <use style="fill:#008000;stroke:#008000;" x="608.470469" xlink:href="#m4e3f80d957" y="476.960333"/>
     <use style="fill:#008000;stroke:#008000;" x="618.206255" xlink:href="#m4e3f80d957" y="476.960406"/>
     <use style="fill:#008000;stroke:#008000;" x="627.942042" xlink:href="#m4e3f80d957" y="476.960479"/>
     <use style="fill:#008000;stroke:#008000;" x="637.641063" xlink:href="#m4e3f80d957" y="476.960552"/>
     <use style="fill:#008000;stroke:#008000;" x="647.391712" xlink:href="#m4e3f80d957" y="476.960625"/>
     <use style="fill:#008000;stroke:#008000;" x="657.174433" xlink:href="#m4e3f80d957" y="476.960699"/>
     <use style="fill:#008000;stroke:#008000;" x="667.146457" xlink:href="#m4e3f80d957" y="476.960773"/>
     <use style="fill:#008000;stroke:#008000;" x="677.326557" xlink:href="#m4e3f80d957" y="476.96085"/>
     <use style="fill:#008000;stroke:#008000;" x="687.544204" xlink:href="#m4e3f80d957" y="476.960926"/>
     <use style="fill:#008000;stroke:#008000;" x="697.655467" xlink:href="#m4e3f80d957" y="476.961002"/>
     <use style="fill:#008000;stroke:#008000;" x="707.824616" xlink:href="#m4e3f80d957" y="476.961078"/>
     <use style="fill:#008000;stroke:#008000;" x="717.947612" xlink:href="#m4e3f80d957" y="476.961154"/>
     <use style="fill:#008000;stroke:#008000;" x="728.073738" xlink:href="#m4e3f80d957" y="476.96123"/>
     <use style="fill:#008000;stroke:#008000;" x="738.197516" xlink:href="#m4e3f80d957" y="476.961306"/>
     <use style="fill:#008000;stroke:#008000;" x="748.30565" xlink:href="#m4e3f80d957" y="476.961382"/>
     <use style="fill:#008000;stroke:#008000;" x="758.428646" xlink:href="#m4e3f80d957" y="476.961458"/>
     <use style="fill:#008000;stroke:#008000;" x="768.578239" xlink:href="#m4e3f80d957" y="476.961534"/>
     <use style="fill:#008000;stroke:#008000;" x="778.743476" xlink:href="#m4e3f80d957" y="476.96161"/>
     <use style="fill:#008000;stroke:#008000;" x="788.917318" xlink:href="#m4e3f80d957" y="476.961687"/>
     <use style="fill:#008000;stroke:#008000;" x="799.046573" xlink:href="#m4e3f80d957" y="476.961763"/>
     <use style="fill:#008000;stroke:#008000;" x="809.205552" xlink:href="#m4e3f80d957" y="476.961839"/>
     <use style="fill:#008000;stroke:#008000;" x="819.326202" xlink:href="#m4e3f80d957" y="476.961915"/>
     <use style="fill:#008000;stroke:#008000;" x="829.423384" xlink:href="#m4e3f80d957" y="476.961991"/>
     <use style="fill:#008000;stroke:#008000;" x="839.619911" xlink:href="#m4e3f80d957" y="476.962067"/>
     <use style="fill:#008000;stroke:#008000;" x="850.537666" xlink:href="#m4e3f80d957" y="476.962149"/>
     <use style="fill:#008000;stroke:#008000;" x="860.695863" xlink:href="#m4e3f80d957" y="476.962225"/>
     <use style="fill:#008000;stroke:#008000;" x="871.14349" xlink:href="#m4e3f80d957" y="476.962303"/>
     <use style="fill:#008000;stroke:#008000;" x="881.305599" xlink:href="#m4e3f80d957" y="476.96238"/>
     <use style="fill:#008000;stroke:#008000;" x="891.754008" xlink:href="#m4e3f80d957" y="476.962458"/>
     <use style="fill:#008000;stroke:#008000;" x="903.663645" xlink:href="#m4e3f80d957" y="476.962547"/>
     <use style="fill:#008000;stroke:#008000;" x="914.468757" xlink:href="#m4e3f80d957" y="476.962628"/>
     <use style="fill:#008000;stroke:#008000;" x="924.771669" xlink:href="#m4e3f80d957" y="476.962706"/>
     <use style="fill:#008000;stroke:#008000;" x="935.464138" xlink:href="#m4e3f80d957" y="476.962786"/>
     <use style="fill:#008000;stroke:#008000;" x="945.589481" xlink:href="#m4e3f80d957" y="476.962862"/>
     <use style="fill:#008000;stroke:#008000;" x="955.797741" xlink:href="#m4e3f80d957" y="476.962938"/>
     <use style="fill:#008000;stroke:#008000;" x="966.6889" xlink:href="#m4e3f80d957" y="476.96302"/>
     <use style="fill:#008000;stroke:#008000;" x="976.867435" xlink:href="#m4e3f80d957" y="476.963097"/>
     <use style="fill:#008000;stroke:#008000;" x="987.027979" xlink:href="#m4e3f80d957" y="476.963173"/>
     <use style="fill:#008000;stroke:#008000;" x="997.15254" xlink:href="#m4e3f80d957" y="476.963249"/>
     <use style="fill:#008000;stroke:#008000;" x="1007.97799" xlink:href="#m4e3f80d957" y="476.96333"/>
     <use style="fill:#008000;stroke:#008000;" x="1018.136187" xlink:href="#m4e3f80d957" y="476.963406"/>
     <use style="fill:#008000;stroke:#008000;" x="1028.387471" xlink:href="#m4e3f80d957" y="476.963483"/>
     <use style="fill:#008000;stroke:#008000;" x="1038.566789" xlink:href="#m4e3f80d957" y="476.963559"/>
     <use style="fill:#008000;stroke:#008000;" x="1048.747671" xlink:href="#m4e3f80d957" y="476.963636"/>
     <use style="fill:#008000;stroke:#008000;" x="1058.896482" xlink:href="#m4e3f80d957" y="476.963712"/>
     <use style="fill:#008000;stroke:#008000;" x="1069.815019" xlink:href="#m4e3f80d957" y="476.963794"/>
     <use style="fill:#008000;stroke:#008000;" x="1079.972434" xlink:href="#m4e3f80d957" y="476.96387"/>
     <use style="fill:#008000;stroke:#008000;" x="1090.191646" xlink:href="#m4e3f80d957" y="476.963947"/>
     <use style="fill:#008000;stroke:#008000;" x="1100.281788" xlink:href="#m4e3f80d957" y="476.964022"/>
     <use style="fill:#008000;stroke:#008000;" x="1110.479097" xlink:href="#m4e3f80d957" y="476.964099"/>
     <use style="fill:#008000;stroke:#008000;" x="1120.666238" xlink:href="#m4e3f80d957" y="476.964175"/>
     <use style="fill:#008000;stroke:#008000;" x="1131.996234" xlink:href="#m4e3f80d957" y="476.96426"/>
     <use style="fill:#008000;stroke:#008000;" x="1142.043352" xlink:href="#m4e3f80d957" y="476.964335"/>
     <use style="fill:#008000;stroke:#008000;" x="1152.146011" xlink:href="#m4e3f80d957" y="476.964411"/>
     <use style="fill:#008000;stroke:#008000;" x="1162.301079" xlink:href="#m4e3f80d957" y="476.964487"/>
     <use style="fill:#008000;stroke:#008000;" x="1172.982596" xlink:href="#m4e3f80d957" y="476.964568"/>
     <use style="fill:#008000;stroke:#008000;" x="1183.131407" xlink:href="#m4e3f80d957" y="476.964644"/>
     <use style="fill:#008000;stroke:#008000;" x="1193.266919" xlink:href="#m4e3f80d957" y="476.96472"/>
     <use style="fill:#008000;stroke:#008000;" x="1204.388056" xlink:href="#m4e3f80d957" y="476.964803"/>
     <use style="fill:#008000;stroke:#008000;" x="1214.692533" xlink:href="#m4e3f80d957" y="476.96488"/>
     <use style="fill:#008000;stroke:#008000;" x="1224.851512" xlink:href="#m4e3f80d957" y="476.964957"/>
     <use style="fill:#008000;stroke:#008000;" x="1235.199794" xlink:href="#m4e3f80d957" y="476.965034"/>
     <use style="fill:#008000;stroke:#008000;" x="1245.272727" xlink:href="#m4e3f80d957" y="476.96511"/>
    </g>
   </g>
   <g id="patch_3">
    <path d="M 180 512.64 
L 180 69.12 
" style="fill:none;stroke:#000000;stroke-linecap:square;stroke-linejoin:miter;stroke-width:0.8;"/>
   </g>
   <g id="patch_4">
    <path d="M 1296 512.64 
L 1296 69.12 
" style="fill:none;stroke:#000000;stroke-linecap:square;stroke-linejoin:miter;stroke-width:0.8;"/>
   </g>
   <g id="patch_5">
    <path d="M 180 512.64 
L 1296 512.64 
" style="fill:none;stroke:#000000;stroke-linecap:square;stroke-linejoin:miter;stroke-width:0.8;"/>
   </g>
   <g id="patch_6">
    <path d="M 180 69.12 
L 1296 69.12 
" style="fill:none;stroke:#000000;stroke-linecap:square;stroke-linejoin:miter;stroke-width:0.8;"/>
   </g>
   <g id="text_13">
    <!-- 500000.0 bit/s -->
    <defs>
     <path d="M 10.796875 72.90625 
L 49.515625 72.90625 
L 49.515625 64.59375 
L 19.828125 64.59375 
L 19.828125 46.734375 
Q 21.96875 47.46875 24.109375 47.828125 
Q 26.265625 48.1875 28.421875 48.1875 
Q 40.625 48.1875 47.75 41.5 
Q 54.890625 34.8125 54.890625 23.390625 
Q 54.890625 11.625 47.5625 5.09375 
Q 40.234375 -1.421875 26.90625 -1.421875 
Q 22.3125 -1.421875 17.546875 -0.640625 
Q 12.796875 0.140625 7.71875 1.703125 
L 7.71875 11.625 
Q 12.109375 9.234375 16.796875 8.0625 
Q 21.484375 6.890625 26.703125 6.890625 
Q 35.15625 6.890625 40.078125 11.328125 
Q 45.015625 15.765625 45.015625 23.390625 
Q 45.015625 31 40.078125 35.4375 
Q 35.15625 39.890625 26.703125 39.890625 
Q 22.75 39.890625 18.8125 39.015625 
Q 14.890625 38.140625 10.796875 36.28125 
z
" id="DejaVuSans-35"/>
     <path id="DejaVuSans-20"/>
     <path d="M 48.6875 27.296875 
Q 48.6875 37.203125 44.609375 42.84375 
Q 40.53125 48.484375 33.40625 48.484375 
Q 26.265625 48.484375 22.1875 42.84375 
Q 18.109375 37.203125 18.109375 27.296875 
Q 18.109375 17.390625 22.1875 11.75 
Q 26.265625 6.109375 33.40625 6.109375 
Q 40.53125 6.109375 44.609375 11.75 
Q 48.6875 17.390625 48.6875 27.296875 
z
M 18.109375 46.390625 
Q 20.953125 51.265625 25.265625 53.625 
Q 29.59375 56 35.59375 56 
Q 45.5625 56 51.78125 48.09375 
Q 58.015625 40.1875 58.015625 27.296875 
Q 58.015625 14.40625 51.78125 6.484375 
Q 45.5625 -1.421875 35.59375 -1.421875 
Q 29.59375 -1.421875 25.265625 0.953125 
Q 20.953125 3.328125 18.109375 8.203125 
L 18.109375 0 
L 9.078125 0 
L 9.078125 75.984375 
L 18.109375 75.984375 
z
" id="DejaVuSans-62"/>
     <path d="M 9.421875 54.6875 
L 18.40625 54.6875 
L 18.40625 0 
L 9.421875 0 
z
M 9.421875 75.984375 
L 18.40625 75.984375 
L 18.40625 64.59375 
L 9.421875 64.59375 
z
" id="DejaVuSans-69"/>
     <path d="M 18.3125 70.21875 
L 18.3125 54.6875 
L 36.8125 54.6875 
L 36.8125 47.703125 
L 18.3125 47.703125 
L 18.3125 18.015625 
Q 18.3125 11.328125 20.140625 9.421875 
Q 21.96875 7.515625 27.59375 7.515625 
L 36.8125 7.515625 
L 36.8125 0 
L 27.59375 0 
Q 17.1875 0 13.234375 3.875 
Q 9.28125 7.765625 9.28125 18.015625 
L 9.28125 47.703125 
L 2.6875 47.703125 
L 2.6875 54.6875 
L 9.28125 54.6875 
L 9.28125 70.21875 
z
" id="DejaVuSans-74"/>
     <path d="M 25.390625 72.90625 
L 33.6875 72.90625 
L 8.296875 -9.28125 
L 0 -9.28125 
z
" id="DejaVuSans-2f"/>
     <path d="M 44.28125 53.078125 
L 44.28125 44.578125 
Q 40.484375 46.53125 36.375 47.5 
Q 32.28125 48.484375 27.875 48.484375 
Q 21.1875 48.484375 17.84375 46.4375 
Q 14.5 44.390625 14.5 40.28125 
Q 14.5 37.15625 16.890625 35.375 
Q 19.28125 33.59375 26.515625 31.984375 
L 29.59375 31.296875 
Q 39.15625 29.25 43.1875 25.515625 
Q 47.21875 21.78125 47.21875 15.09375 
Q 47.21875 7.46875 41.1875 3.015625 
Q 35.15625 -1.421875 24.609375 -1.421875 
Q 20.21875 -1.421875 15.453125 -0.5625 
Q 10.6875 0.296875 5.421875 2 
L 5.421875 11.28125 
Q 10.40625 8.6875 15.234375 7.390625 
Q 20.0625 6.109375 24.8125 6.109375 
Q 31.15625 6.109375 34.5625 8.28125 
Q 37.984375 10.453125 37.984375 14.40625 
Q 37.984375 18.0625 35.515625 20.015625 
Q 33.0625 21.96875 24.703125 23.78125 
L 21.578125 24.515625 
Q 13.234375 26.265625 9.515625 29.90625 
Q 5.8125 33.546875 5.8125 39.890625 
Q 5.8125 47.609375 11.28125 51.796875 
Q 16.75 56 26.8125 56 
Q 31.78125 56 36.171875 55.265625 
Q 40.578125 54.546875 44.28125 53.078125 
z
" id="DejaVuSans-73"/>
    </defs>
    <g transform="translate(694.48875 63.12)scale(0.12 -0.12)">
     <use xlink:href="#DejaVuSans-35"/>
     <use x="63.623047" xlink:href="#DejaVuSans-30"/>
     <use x="127.246094" xlink:href="#DejaVuSans-30"/>
     <use x="190.869141" xlink:href="#DejaVuSans-30"/>
     <use x="254.492188" xlink:href="#DejaVuSans-30"/>
     <use x="318.115234" xlink:href="#DejaVuSans-30"/>
     <use x="381.738281" xlink:href="#DejaVuSans-2e"/>
     <use x="413.525391" xlink:href="#DejaVuSans-30"/>
     <use x="477.148438" xlink:href="#DejaVuSans-20"/>
     <use x="508.935547" xlink:href="#DejaVuSans-62"/>
     <use x="572.412109" xlink:href="#DejaVuSans-69"/>
     <use x="600.195312" xlink:href="#DejaVuSans-74"/>
     <use x="639.404297" xlink:href="#DejaVuSans-2f"/>
     <use x="673.095703" xlink:href="#DejaVuSans-73"/>
    </g>
   </g>
   <g id="legend_1">
    <g id="patch_7">
     <path d="M 1173.520313 135.8325 
L 1289 135.8325 
Q 1291 135.8325 1291 133.8325 
L 1291 76.12 
Q 1291 74.12 1289 74.12 
L 1173.520313 74.12 
Q 1171.520313 74.12 1171.520313 76.12 
L 1171.520313 133.8325 
Q 1171.520313 135.8325 1173.520313 135.8325 
z
" style="fill:#ffffff;opacity:0.8;stroke:#cccccc;stroke-linejoin:miter;"/>
    </g>
    <g id="line2d_17">
     <path d="M 1175.520313 82.218437 
L 1195.520313 82.218437 
" style="fill:none;stroke:#ff0000;stroke-dasharray:5.55,2.4;stroke-dashoffset:0;stroke-width:1.5;"/>
    </g>
    <g id="line2d_18">
     <g>
      <use style="fill:#ff0000;stroke:#ff0000;stroke-linejoin:miter;" x="1185.520313" xlink:href="#md4f2e29ad2" y="82.218437"/>
     </g>
    </g>
    <g id="text_14">
     <!-- tcpdump -->
     <defs>
      <path d="M 48.78125 52.59375 
L 48.78125 44.1875 
Q 44.96875 46.296875 41.140625 47.34375 
Q 37.3125 48.390625 33.40625 48.390625 
Q 24.65625 48.390625 19.8125 42.84375 
Q 14.984375 37.3125 14.984375 27.296875 
Q 14.984375 17.28125 19.8125 11.734375 
Q 24.65625 6.203125 33.40625 6.203125 
Q 37.3125 6.203125 41.140625 7.25 
Q 44.96875 8.296875 48.78125 10.40625 
L 48.78125 2.09375 
Q 45.015625 0.34375 40.984375 -0.53125 
Q 36.96875 -1.421875 32.421875 -1.421875 
Q 20.0625 -1.421875 12.78125 6.34375 
Q 5.515625 14.109375 5.515625 27.296875 
Q 5.515625 40.671875 12.859375 48.328125 
Q 20.21875 56 33.015625 56 
Q 37.15625 56 41.109375 55.140625 
Q 45.0625 54.296875 48.78125 52.59375 
z
" id="DejaVuSans-63"/>
      <path d="M 18.109375 8.203125 
L 18.109375 -20.796875 
L 9.078125 -20.796875 
L 9.078125 54.6875 
L 18.109375 54.6875 
L 18.109375 46.390625 
Q 20.953125 51.265625 25.265625 53.625 
Q 29.59375 56 35.59375 56 
Q 45.5625 56 51.78125 48.09375 
Q 58.015625 40.1875 58.015625 27.296875 
Q 58.015625 14.40625 51.78125 6.484375 
Q 45.5625 -1.421875 35.59375 -1.421875 
Q 29.59375 -1.421875 25.265625 0.953125 
Q 20.953125 3.328125 18.109375 8.203125 
z
M 48.6875 27.296875 
Q 48.6875 37.203125 44.609375 42.84375 
Q 40.53125 48.484375 33.40625 48.484375 
Q 26.265625 48.484375 22.1875 42.84375 
Q 18.109375 37.203125 18.109375 27.296875 
Q 18.109375 17.390625 22.1875 11.75 
Q 26.265625 6.109375 33.40625 6.109375 
Q 40.53125 6.109375 44.609375 11.75 
Q 48.6875 17.390625 48.6875 27.296875 
z
" id="DejaVuSans-70"/>
      <path d="M 45.40625 46.390625 
L 45.40625 75.984375 
L 54.390625 75.984375 
L 54.390625 0 
L 45.40625 0 
L 45.40625 8.203125 
Q 42.578125 3.328125 38.25 0.953125 
Q 33.9375 -1.421875 27.875 -1.421875 
Q 17.96875 -1.421875 11.734375 6.484375 
Q 5.515625 14.40625 5.515625 27.296875 
Q 5.515625 40.1875 11.734375 48.09375 
Q 17.96875 56 27.875 56 
Q 33.9375 56 38.25 53.625 
Q 42.578125 51.265625 45.40625 46.390625 
z
M 14.796875 27.296875 
Q 14.796875 17.390625 18.875 11.75 
Q 22.953125 6.109375 30.078125 6.109375 
Q 37.203125 6.109375 41.296875 11.75 
Q 45.40625 17.390625 45.40625 27.296875 
Q 45.40625 37.203125 41.296875 42.84375 
Q 37.203125 48.484375 30.078125 48.484375 
Q 22.953125 48.484375 18.875 42.84375 
Q 14.796875 37.203125 14.796875 27.296875 
z
" id="DejaVuSans-64"/>
      <path d="M 8.5 21.578125 
L 8.5 54.6875 
L 17.484375 54.6875 
L 17.484375 21.921875 
Q 17.484375 14.15625 20.5 10.265625 
Q 23.53125 6.390625 29.59375 6.390625 
Q 36.859375 6.390625 41.078125 11.03125 
Q 45.3125 15.671875 45.3125 23.6875 
L 45.3125 54.6875 
L 54.296875 54.6875 
L 54.296875 0 
L 45.3125 0 
L 45.3125 8.40625 
Q 42.046875 3.421875 37.71875 1 
Q 33.40625 -1.421875 27.6875 -1.421875 
Q 18.265625 -1.421875 13.375 4.4375 
Q 8.5 10.296875 8.5 21.578125 
z
M 31.109375 56 
z
" id="DejaVuSans-75"/>
      <path d="M 52 44.1875 
Q 55.375 50.25 60.0625 53.125 
Q 64.75 56 71.09375 56 
Q 79.640625 56 84.28125 50.015625 
Q 88.921875 44.046875 88.921875 33.015625 
L 88.921875 0 
L 79.890625 0 
L 79.890625 32.71875 
Q 79.890625 40.578125 77.09375 44.375 
Q 74.3125 48.1875 68.609375 48.1875 
Q 61.625 48.1875 57.5625 43.546875 
Q 53.515625 38.921875 53.515625 30.90625 
L 53.515625 0 
L 44.484375 0 
L 44.484375 32.71875 
Q 44.484375 40.625 41.703125 44.40625 
Q 38.921875 48.1875 33.109375 48.1875 
Q 26.21875 48.1875 22.15625 43.53125 
Q 18.109375 38.875 18.109375 30.90625 
L 18.109375 0 
L 9.078125 0 
L 9.078125 54.6875 
L 18.109375 54.6875 
L 18.109375 46.1875 
Q 21.1875 51.21875 25.484375 53.609375 
Q 29.78125 56 35.6875 56 
Q 41.65625 56 45.828125 52.96875 
Q 50 49.953125 52 44.1875 
z
" id="DejaVuSans-6d"/>
     </defs>
     <g transform="translate(1203.520313 85.718437)scale(0.1 -0.1)">
      <use xlink:href="#DejaVuSans-74"/>
      <use x="39.208984" xlink:href="#DejaVuSans-63"/>
      <use x="94.189453" xlink:href="#DejaVuSans-70"/>
      <use x="157.666016" xlink:href="#DejaVuSans-64"/>
      <use x="221.142578" xlink:href="#DejaVuSans-75"/>
      <use x="284.521484" xlink:href="#DejaVuSans-6d"/>
      <use x="381.933594" xlink:href="#DejaVuSans-70"/>
     </g>
    </g>
    <g id="line2d_19">
     <path d="M 1175.520313 96.896563 
L 1195.520313 96.896563 
" style="fill:none;stroke:#800080;stroke-dasharray:9.6,2.4,1.5,2.4;stroke-dashoffset:0;stroke-width:1.5;"/>
    </g>
    <g id="line2d_20">
     <g>
      <use style="fill:#800080;stroke:#800080;" x="1185.520313" xlink:href="#me0e6528a20" y="96.896563"/>
     </g>
    </g>
    <g id="text_15">
     <!-- filtered tcpdump -->
     <defs>
      <path d="M 37.109375 75.984375 
L 37.109375 68.5 
L 28.515625 68.5 
Q 23.6875 68.5 21.796875 66.546875 
Q 19.921875 64.59375 19.921875 59.515625 
L 19.921875 54.6875 
L 34.71875 54.6875 
L 34.71875 47.703125 
L 19.921875 47.703125 
L 19.921875 0 
L 10.890625 0 
L 10.890625 47.703125 
L 2.296875 47.703125 
L 2.296875 54.6875 
L 10.890625 54.6875 
L 10.890625 58.5 
Q 10.890625 67.625 15.140625 71.796875 
Q 19.390625 75.984375 28.609375 75.984375 
z
" id="DejaVuSans-66"/>
      <path d="M 9.421875 75.984375 
L 18.40625 75.984375 
L 18.40625 0 
L 9.421875 0 
z
" id="DejaVuSans-6c"/>
      <path d="M 56.203125 29.59375 
L 56.203125 25.203125 
L 14.890625 25.203125 
Q 15.484375 15.921875 20.484375 11.0625 
Q 25.484375 6.203125 34.421875 6.203125 
Q 39.59375 6.203125 44.453125 7.46875 
Q 49.3125 8.734375 54.109375 11.28125 
L 54.109375 2.78125 
Q 49.265625 0.734375 44.1875 -0.34375 
Q 39.109375 -1.421875 33.890625 -1.421875 
Q 20.796875 -1.421875 13.15625 6.1875 
Q 5.515625 13.8125 5.515625 26.8125 
Q 5.515625 40.234375 12.765625 48.109375 
Q 20.015625 56 32.328125 56 
Q 43.359375 56 49.78125 48.890625 
Q 56.203125 41.796875 56.203125 29.59375 
z
M 47.21875 32.234375 
Q 47.125 39.59375 43.09375 43.984375 
Q 39.0625 48.390625 32.421875 48.390625 
Q 24.90625 48.390625 20.390625 44.140625 
Q 15.875 39.890625 15.1875 32.171875 
z
" id="DejaVuSans-65"/>
      <path d="M 41.109375 46.296875 
Q 39.59375 47.171875 37.8125 47.578125 
Q 36.03125 48 33.890625 48 
Q 26.265625 48 22.1875 43.046875 
Q 18.109375 38.09375 18.109375 28.8125 
L 18.109375 0 
L 9.078125 0 
L 9.078125 54.6875 
L 18.109375 54.6875 
L 18.109375 46.1875 
Q 20.953125 51.171875 25.484375 53.578125 
Q 30.03125 56 36.53125 56 
Q 37.453125 56 38.578125 55.875 
Q 39.703125 55.765625 41.0625 55.515625 
z
" id="DejaVuSans-72"/>
     </defs>
     <g transform="translate(1203.520313 100.396563)scale(0.1 -0.1)">
      <use xlink:href="#DejaVuSans-66"/>
      <use x="35.205078" xlink:href="#DejaVuSans-69"/>
      <use x="62.988281" xlink:href="#DejaVuSans-6c"/>
      <use x="90.771484" xlink:href="#DejaVuSans-74"/>
      <use x="129.980469" xlink:href="#DejaVuSans-65"/>
      <use x="191.503906" xlink:href="#DejaVuSans-72"/>
      <use x="232.585938" xlink:href="#DejaVuSans-65"/>
      <use x="294.109375" xlink:href="#DejaVuSans-64"/>
      <use x="357.585938" xlink:href="#DejaVuSans-20"/>
      <use x="389.373047" xlink:href="#DejaVuSans-74"/>
      <use x="428.582031" xlink:href="#DejaVuSans-63"/>
      <use x="483.5625" xlink:href="#DejaVuSans-70"/>
      <use x="547.039062" xlink:href="#DejaVuSans-64"/>
      <use x="610.515625" xlink:href="#DejaVuSans-75"/>
      <use x="673.894531" xlink:href="#DejaVuSans-6d"/>
      <use x="771.306641" xlink:href="#DejaVuSans-70"/>
     </g>
    </g>
    <g id="line2d_21">
     <path d="M 1175.520313 111.574687 
L 1195.520313 111.574687 
" style="fill:none;stroke:#0000ff;stroke-linecap:square;stroke-width:1.5;"/>
    </g>
    <g id="line2d_22"/>
    <g id="text_16">
     <!-- OLS -->
     <defs>
      <path d="M 39.40625 66.21875 
Q 28.65625 66.21875 22.328125 58.203125 
Q 16.015625 50.203125 16.015625 36.375 
Q 16.015625 22.609375 22.328125 14.59375 
Q 28.65625 6.59375 39.40625 6.59375 
Q 50.140625 6.59375 56.421875 14.59375 
Q 62.703125 22.609375 62.703125 36.375 
Q 62.703125 50.203125 56.421875 58.203125 
Q 50.140625 66.21875 39.40625 66.21875 
z
M 39.40625 74.21875 
Q 54.734375 74.21875 63.90625 63.9375 
Q 73.09375 53.65625 73.09375 36.375 
Q 73.09375 19.140625 63.90625 8.859375 
Q 54.734375 -1.421875 39.40625 -1.421875 
Q 24.03125 -1.421875 14.8125 8.828125 
Q 5.609375 19.09375 5.609375 36.375 
Q 5.609375 53.65625 14.8125 63.9375 
Q 24.03125 74.21875 39.40625 74.21875 
z
" id="DejaVuSans-4f"/>
      <path d="M 9.8125 72.90625 
L 19.671875 72.90625 
L 19.671875 8.296875 
L 55.171875 8.296875 
L 55.171875 0 
L 9.8125 0 
z
" id="DejaVuSans-4c"/>
      <path d="M 53.515625 70.515625 
L 53.515625 60.890625 
Q 47.90625 63.578125 42.921875 64.890625 
Q 37.9375 66.21875 33.296875 66.21875 
Q 25.25 66.21875 20.875 63.09375 
Q 16.5 59.96875 16.5 54.203125 
Q 16.5 49.359375 19.40625 46.890625 
Q 22.3125 44.4375 30.421875 42.921875 
L 36.375 41.703125 
Q 47.40625 39.59375 52.65625 34.296875 
Q 57.90625 29 57.90625 20.125 
Q 57.90625 9.515625 50.796875 4.046875 
Q 43.703125 -1.421875 29.984375 -1.421875 
Q 24.8125 -1.421875 18.96875 -0.25 
Q 13.140625 0.921875 6.890625 3.21875 
L 6.890625 13.375 
Q 12.890625 10.015625 18.65625 8.296875 
Q 24.421875 6.59375 29.984375 6.59375 
Q 38.421875 6.59375 43.015625 9.90625 
Q 47.609375 13.234375 47.609375 19.390625 
Q 47.609375 24.75 44.3125 27.78125 
Q 41.015625 30.8125 33.5 32.328125 
L 27.484375 33.5 
Q 16.453125 35.6875 11.515625 40.375 
Q 6.59375 45.0625 6.59375 53.421875 
Q 6.59375 63.09375 13.40625 68.65625 
Q 20.21875 74.21875 32.171875 74.21875 
Q 37.3125 74.21875 42.625 73.28125 
Q 47.953125 72.359375 53.515625 70.515625 
z
" id="DejaVuSans-53"/>
     </defs>
     <g transform="translate(1203.520313 115.074687)scale(0.1 -0.1)">
      <use xlink:href="#DejaVuSans-4f"/>
      <use x="78.710938" xlink:href="#DejaVuSans-4c"/>
      <use x="134.423828" xlink:href="#DejaVuSans-53"/>
     </g>
    </g>
    <g id="line2d_23">
     <path d="M 1175.520313 126.252813 
L 1195.520313 126.252813 
" style="fill:none;stroke:#008000;stroke-linecap:square;stroke-width:1.5;"/>
    </g>
    <g id="line2d_24">
     <g>
      <use style="fill:#008000;stroke:#008000;" x="1185.520313" xlink:href="#m4e3f80d957" y="126.252813"/>
     </g>
    </g>
    <g id="text_17">
     <!-- IRLS -->
     <defs>
      <path d="M 9.8125 72.90625 
L 19.671875 72.90625 
L 19.671875 0 
L 9.8125 0 
z
" id="DejaVuSans-49"/>
      <path d="M 44.390625 34.1875 
Q 47.5625 33.109375 50.5625 29.59375 
Q 53.5625 26.078125 56.59375 19.921875 
L 66.609375 0 
L 56 0 
L 46.6875 18.703125 
Q 43.0625 26.03125 39.671875 28.421875 
Q 36.28125 30.8125 30.421875 30.8125 
L 19.671875 30.8125 
L 19.671875 0 
L 9.8125 0 
L 9.8125 72.90625 
L 32.078125 72.90625 
Q 44.578125 72.90625 50.734375 67.671875 
Q 56.890625 62.453125 56.890625 51.90625 
Q 56.890625 45.015625 53.6875 40.46875 
Q 50.484375 35.9375 44.390625 34.1875 
z
M 19.671875 64.796875 
L 19.671875 38.921875 
L 32.078125 38.921875 
Q 39.203125 38.921875 42.84375 42.21875 
Q 46.484375 45.515625 46.484375 51.90625 
Q 46.484375 58.296875 42.84375 61.546875 
Q 39.203125 64.796875 32.078125 64.796875 
z
" id="DejaVuSans-52"/>
     </defs>
     <g transform="translate(1203.520313 129.752813)scale(0.1 -0.1)">
      <use xlink:href="#DejaVuSans-49"/>
      <use x="29.492188" xlink:href="#DejaVuSans-52"/>
      <use x="98.974609" xlink:href="#DejaVuSans-4c"/>
      <use x="154.6875" xlink:href="#DejaVuSans-53"/>
     </g>
    </g>
   </g>
  </g>
 </g>
 <defs>
  <clipPath id="p47e7b0eca1">
   <rect height="443.52" width="1116" x="180" y="69.12"/>
  </clipPath>
 </defs>
</svg>
