<?xml version="1.0" encoding="utf-8" standalone="no"?>
<!DOCTYPE svg PUBLIC "-//W3C//DTD SVG 1.1//EN"
  "http://www.w3.org/Graphics/SVG/1.1/DTD/svg11.dtd">
<!-- Created with matplotlib (http://matplotlib.org/) -->
<svg height="576pt" version="1.1" viewBox="0 0 1440 576" width="1440pt" xmlns="http://www.w3.org/2000/svg" xmlns:xlink="http://www.w3.org/1999/xlink">
 <defs>
  <style type="text/css">
*{stroke-linecap:butt;stroke-linejoin:round;}
  </style>
 </defs>
 <g id="figure_1">
  <g id="patch_1">
   <path d="M 0 576 
L 1440 576 
L 1440 0 
L 0 0 
z
" style="fill:#ffffff;"/>
  </g>
  <g id="axes_1">
   <g id="patch_2">
    <path d="M 180 512.64 
L 1296 512.64 
L 1296 69.12 
L 180 69.12 
z
" style="fill:#ffffff;"/>
   </g>
   <g id="matplotlib.axis_1">
    <g id="xtick_1">
     <g id="line2d_1">
      <defs>
       <path d="M 0 0 
L 0 3.5 
" id="m81401bc47c" style="stroke:#000000;stroke-width:0.8;"/>
      </defs>
      <g>
       <use style="stroke:#000000;stroke-width:0.8;" x="230.727273" xlink:href="#m81401bc47c" y="512.64"/>
      </g>
     </g>
     <g id="text_1">
      <!-- 0.0 -->
      <defs>
       <path d="M 31.78125 66.40625 
Q 24.171875 66.40625 20.328125 58.90625 
Q 16.5 51.421875 16.5 36.375 
Q 16.5 21.390625 20.328125 13.890625 
Q 24.171875 6.390625 31.78125 6.390625 
Q 39.453125 6.390625 43.28125 13.890625 
Q 47.125 21.390625 47.125 36.375 
Q 47.125 51.421875 43.28125 58.90625 
Q 39.453125 66.40625 31.78125 66.40625 
z
M 31.78125 74.21875 
Q 44.046875 74.21875 50.515625 64.515625 
Q 56.984375 54.828125 56.984375 36.375 
Q 56.984375 17.96875 50.515625 8.265625 
Q 44.046875 -1.421875 31.78125 -1.421875 
Q 19.53125 -1.421875 13.0625 8.265625 
Q 6.59375 17.96875 6.59375 36.375 
Q 6.59375 54.828125 13.0625 64.515625 
Q 19.53125 74.21875 31.78125 74.21875 
z
" id="DejaVuSans-30"/>
       <path d="M 10.6875 12.40625 
L 21 12.40625 
L 21 0 
L 10.6875 0 
z
" id="DejaVuSans-2e"/>
      </defs>
      <g transform="translate(222.77571 527.238438)scale(0.1 -0.1)">
       <use xlink:href="#DejaVuSans-30"/>
       <use x="63.623047" xlink:href="#DejaVuSans-2e"/>
       <use x="95.410156" xlink:href="#DejaVuSans-30"/>
      </g>
     </g>
    </g>
    <g id="xtick_2">
     <g id="line2d_2">
      <g>
       <use style="stroke:#000000;stroke-width:0.8;" x="384.541249" xlink:href="#m81401bc47c" y="512.64"/>
      </g>
     </g>
     <g id="text_2">
      <!-- 0.2 -->
      <defs>
       <path d="M 19.1875 8.296875 
L 53.609375 8.296875 
L 53.609375 0 
L 7.328125 0 
L 7.328125 8.296875 
Q 12.9375 14.109375 22.625 23.890625 
Q 32.328125 33.6875 34.8125 36.53125 
Q 39.546875 41.84375 41.421875 45.53125 
Q 43.3125 49.21875 43.3125 52.78125 
Q 43.3125 58.59375 39.234375 62.25 
Q 35.15625 65.921875 28.609375 65.921875 
Q 23.96875 65.921875 18.8125 64.3125 
Q 13.671875 62.703125 7.8125 59.421875 
L 7.8125 69.390625 
Q 13.765625 71.78125 18.9375 73 
Q 24.125 74.21875 28.421875 74.21875 
Q 39.75 74.21875 46.484375 68.546875 
Q 53.21875 62.890625 53.21875 53.421875 
Q 53.21875 48.921875 51.53125 44.890625 
Q 49.859375 40.875 45.40625 35.40625 
Q 44.1875 33.984375 37.640625 27.21875 
Q 31.109375 20.453125 19.1875 8.296875 
z
" id="DejaVuSans-32"/>
      </defs>
      <g transform="translate(376.589687 527.238438)scale(0.1 -0.1)">
       <use xlink:href="#DejaVuSans-30"/>
       <use x="63.623047" xlink:href="#DejaVuSans-2e"/>
       <use x="95.410156" xlink:href="#DejaVuSans-32"/>
      </g>
     </g>
    </g>
    <g id="xtick_3">
     <g id="line2d_3">
      <g>
       <use style="stroke:#000000;stroke-width:0.8;" x="538.355226" xlink:href="#m81401bc47c" y="512.64"/>
      </g>
     </g>
     <g id="text_3">
      <!-- 0.4 -->
      <defs>
       <path d="M 37.796875 64.3125 
L 12.890625 25.390625 
L 37.796875 25.390625 
z
M 35.203125 72.90625 
L 47.609375 72.90625 
L 47.609375 25.390625 
L 58.015625 25.390625 
L 58.015625 17.1875 
L 47.609375 17.1875 
L 47.609375 0 
L 37.796875 0 
L 37.796875 17.1875 
L 4.890625 17.1875 
L 4.890625 26.703125 
z
" id="DejaVuSans-34"/>
      </defs>
      <g transform="translate(530.403664 527.238438)scale(0.1 -0.1)">
       <use xlink:href="#DejaVuSans-30"/>
       <use x="63.623047" xlink:href="#DejaVuSans-2e"/>
       <use x="95.410156" xlink:href="#DejaVuSans-34"/>
      </g>
     </g>
    </g>
    <g id="xtick_4">
     <g id="line2d_4">
      <g>
       <use style="stroke:#000000;stroke-width:0.8;" x="692.169203" xlink:href="#m81401bc47c" y="512.64"/>
      </g>
     </g>
     <g id="text_4">
      <!-- 0.6 -->
      <defs>
       <path d="M 33.015625 40.375 
Q 26.375 40.375 22.484375 35.828125 
Q 18.609375 31.296875 18.609375 23.390625 
Q 18.609375 15.53125 22.484375 10.953125 
Q 26.375 6.390625 33.015625 6.390625 
Q 39.65625 6.390625 43.53125 10.953125 
Q 47.40625 15.53125 47.40625 23.390625 
Q 47.40625 31.296875 43.53125 35.828125 
Q 39.65625 40.375 33.015625 40.375 
z
M 52.59375 71.296875 
L 52.59375 62.3125 
Q 48.875 64.0625 45.09375 64.984375 
Q 41.3125 65.921875 37.59375 65.921875 
Q 27.828125 65.921875 22.671875 59.328125 
Q 17.53125 52.734375 16.796875 39.40625 
Q 19.671875 43.65625 24.015625 45.921875 
Q 28.375 48.1875 33.59375 48.1875 
Q 44.578125 48.1875 50.953125 41.515625 
Q 57.328125 34.859375 57.328125 23.390625 
Q 57.328125 12.15625 50.6875 5.359375 
Q 44.046875 -1.421875 33.015625 -1.421875 
Q 20.359375 -1.421875 13.671875 8.265625 
Q 6.984375 17.96875 6.984375 36.375 
Q 6.984375 53.65625 15.1875 63.9375 
Q 23.390625 74.21875 37.203125 74.21875 
Q 40.921875 74.21875 44.703125 73.484375 
Q 48.484375 72.75 52.59375 71.296875 
z
" id="DejaVuSans-36"/>
      </defs>
      <g transform="translate(684.21764 527.238438)scale(0.1 -0.1)">
       <use xlink:href="#DejaVuSans-30"/>
       <use x="63.623047" xlink:href="#DejaVuSans-2e"/>
       <use x="95.410156" xlink:href="#DejaVuSans-36"/>
      </g>
     </g>
    </g>
    <g id="xtick_5">
     <g id="line2d_5">
      <g>
       <use style="stroke:#000000;stroke-width:0.8;" x="845.98318" xlink:href="#m81401bc47c" y="512.64"/>
      </g>
     </g>
     <g id="text_5">
      <!-- 0.8 -->
      <defs>
       <path d="M 31.78125 34.625 
Q 24.75 34.625 20.71875 30.859375 
Q 16.703125 27.09375 16.703125 20.515625 
Q 16.703125 13.921875 20.71875 10.15625 
Q 24.75 6.390625 31.78125 6.390625 
Q 38.8125 6.390625 42.859375 10.171875 
Q 46.921875 13.96875 46.921875 20.515625 
Q 46.921875 27.09375 42.890625 30.859375 
Q 38.875 34.625 31.78125 34.625 
z
M 21.921875 38.8125 
Q 15.578125 40.375 12.03125 44.71875 
Q 8.5 49.078125 8.5 55.328125 
Q 8.5 64.0625 14.71875 69.140625 
Q 20.953125 74.21875 31.78125 74.21875 
Q 42.671875 74.21875 48.875 69.140625 
Q 55.078125 64.0625 55.078125 55.328125 
Q 55.078125 49.078125 51.53125 44.71875 
Q 48 40.375 41.703125 38.8125 
Q 48.828125 37.15625 52.796875 32.3125 
Q 56.78125 27.484375 56.78125 20.515625 
Q 56.78125 9.90625 50.3125 4.234375 
Q 43.84375 -1.421875 31.78125 -1.421875 
Q 19.734375 -1.421875 13.25 4.234375 
Q 6.78125 9.90625 6.78125 20.515625 
Q 6.78125 27.484375 10.78125 32.3125 
Q 14.796875 37.15625 21.921875 38.8125 
z
M 18.3125 54.390625 
Q 18.3125 48.734375 21.84375 45.5625 
Q 25.390625 42.390625 31.78125 42.390625 
Q 38.140625 42.390625 41.71875 45.5625 
Q 45.3125 48.734375 45.3125 54.390625 
Q 45.3125 60.0625 41.71875 63.234375 
Q 38.140625 66.40625 31.78125 66.40625 
Q 25.390625 66.40625 21.84375 63.234375 
Q 18.3125 60.0625 18.3125 54.390625 
z
" id="DejaVuSans-38"/>
      </defs>
      <g transform="translate(838.031617 527.238438)scale(0.1 -0.1)">
       <use xlink:href="#DejaVuSans-30"/>
       <use x="63.623047" xlink:href="#DejaVuSans-2e"/>
       <use x="95.410156" xlink:href="#DejaVuSans-38"/>
      </g>
     </g>
    </g>
    <g id="xtick_6">
     <g id="line2d_6">
      <g>
       <use style="stroke:#000000;stroke-width:0.8;" x="999.797156" xlink:href="#m81401bc47c" y="512.64"/>
      </g>
     </g>
     <g id="text_6">
      <!-- 1.0 -->
      <defs>
       <path d="M 12.40625 8.296875 
L 28.515625 8.296875 
L 28.515625 63.921875 
L 10.984375 60.40625 
L 10.984375 69.390625 
L 28.421875 72.90625 
L 38.28125 72.90625 
L 38.28125 8.296875 
L 54.390625 8.296875 
L 54.390625 0 
L 12.40625 0 
z
" id="DejaVuSans-31"/>
      </defs>
      <g transform="translate(991.845594 527.238438)scale(0.1 -0.1)">
       <use xlink:href="#DejaVuSans-31"/>
       <use x="63.623047" xlink:href="#DejaVuSans-2e"/>
       <use x="95.410156" xlink:href="#DejaVuSans-30"/>
      </g>
     </g>
    </g>
    <g id="xtick_7">
     <g id="line2d_7">
      <g>
       <use style="stroke:#000000;stroke-width:0.8;" x="1153.611133" xlink:href="#m81401bc47c" y="512.64"/>
      </g>
     </g>
     <g id="text_7">
      <!-- 1.2 -->
      <g transform="translate(1145.659571 527.238438)scale(0.1 -0.1)">
       <use xlink:href="#DejaVuSans-31"/>
       <use x="63.623047" xlink:href="#DejaVuSans-2e"/>
       <use x="95.410156" xlink:href="#DejaVuSans-32"/>
      </g>
     </g>
    </g>
   </g>
   <g id="matplotlib.axis_2">
    <g id="ytick_1">
     <g id="line2d_8">
      <defs>
       <path d="M 0 0 
L -3.5 0 
" id="mf4f962523d" style="stroke:#000000;stroke-width:0.8;"/>
      </defs>
      <g>
       <use style="stroke:#000000;stroke-width:0.8;" x="180" xlink:href="#mf4f962523d" y="504.12082"/>
      </g>
     </g>
     <g id="text_8">
      <!-- 0.2 -->
      <g transform="translate(157.096875 507.920039)scale(0.1 -0.1)">
       <use xlink:href="#DejaVuSans-30"/>
       <use x="63.623047" xlink:href="#DejaVuSans-2e"/>
       <use x="95.410156" xlink:href="#DejaVuSans-32"/>
      </g>
     </g>
    </g>
    <g id="ytick_2">
     <g id="line2d_9">
      <g>
       <use style="stroke:#000000;stroke-width:0.8;" x="180" xlink:href="#mf4f962523d" y="440.17792"/>
      </g>
     </g>
     <g id="text_9">
      <!-- 0.4 -->
      <g transform="translate(157.096875 443.977138)scale(0.1 -0.1)">
       <use xlink:href="#DejaVuSans-30"/>
       <use x="63.623047" xlink:href="#DejaVuSans-2e"/>
       <use x="95.410156" xlink:href="#DejaVuSans-34"/>
      </g>
     </g>
    </g>
    <g id="ytick_3">
     <g id="line2d_10">
      <g>
       <use style="stroke:#000000;stroke-width:0.8;" x="180" xlink:href="#mf4f962523d" y="376.235019"/>
      </g>
     </g>
     <g id="text_10">
      <!-- 0.6 -->
      <g transform="translate(157.096875 380.034238)scale(0.1 -0.1)">
       <use xlink:href="#DejaVuSans-30"/>
       <use x="63.623047" xlink:href="#DejaVuSans-2e"/>
       <use x="95.410156" xlink:href="#DejaVuSans-36"/>
      </g>
     </g>
    </g>
    <g id="ytick_4">
     <g id="line2d_11">
      <g>
       <use style="stroke:#000000;stroke-width:0.8;" x="180" xlink:href="#mf4f962523d" y="312.292118"/>
      </g>
     </g>
     <g id="text_11">
      <!-- 0.8 -->
      <g transform="translate(157.096875 316.091337)scale(0.1 -0.1)">
       <use xlink:href="#DejaVuSans-30"/>
       <use x="63.623047" xlink:href="#DejaVuSans-2e"/>
       <use x="95.410156" xlink:href="#DejaVuSans-38"/>
      </g>
     </g>
    </g>
    <g id="ytick_5">
     <g id="line2d_12">
      <g>
       <use style="stroke:#000000;stroke-width:0.8;" x="180" xlink:href="#mf4f962523d" y="248.349218"/>
      </g>
     </g>
     <g id="text_12">
      <!-- 1.0 -->
      <g transform="translate(157.096875 252.148436)scale(0.1 -0.1)">
       <use xlink:href="#DejaVuSans-31"/>
       <use x="63.623047" xlink:href="#DejaVuSans-2e"/>
       <use x="95.410156" xlink:href="#DejaVuSans-30"/>
      </g>
     </g>
    </g>
    <g id="ytick_6">
     <g id="line2d_13">
      <g>
       <use style="stroke:#000000;stroke-width:0.8;" x="180" xlink:href="#mf4f962523d" y="184.406317"/>
      </g>
     </g>
     <g id="text_13">
      <!-- 1.2 -->
      <g transform="translate(157.096875 188.205536)scale(0.1 -0.1)">
       <use xlink:href="#DejaVuSans-31"/>
       <use x="63.623047" xlink:href="#DejaVuSans-2e"/>
       <use x="95.410156" xlink:href="#DejaVuSans-32"/>
      </g>
     </g>
    </g>
    <g id="ytick_7">
     <g id="line2d_14">
      <g>
       <use style="stroke:#000000;stroke-width:0.8;" x="180" xlink:href="#mf4f962523d" y="120.463416"/>
      </g>
     </g>
     <g id="text_14">
      <!-- 1.4 -->
      <g transform="translate(157.096875 124.262635)scale(0.1 -0.1)">
       <use xlink:href="#DejaVuSans-31"/>
       <use x="63.623047" xlink:href="#DejaVuSans-2e"/>
       <use x="95.410156" xlink:href="#DejaVuSans-34"/>
      </g>
     </g>
    </g>
   </g>
   <g id="line2d_15">
    <path clip-path="url(#p09be3d5c1a)" d="M 230.727273 471.990792 
L 241.898782 471.99207 
L 251.987441 472.001982 
L 262.742883 472.000383 
L 272.70926 472.01445 
L 282.800225 472.021804 
L 292.785829 472.006777 
L 302.790659 472.019886 
L 312.757036 472.016049 
L 322.753406 472.025321 
L 333.246595 471.97065 
L 343.219894 472.016369 
L 353.192423 471.942834 
L 364.06784 471.996546 
L 374.036524 472.010614 
L 384.012898 471.945712 
L 394.945227 472.02596 
L 404.906989 472.010614 
L 415.032563 472.002941 
L 426.425564 471.984397 
L 436.388096 471.995587 
L 446.286025 472.008056 
L 457.302182 472.018926 
L 467.342389 472.010294 
L 477.357987 472.01509 
L 488.384141 126.203251 
L 498.40666 126.533836 
L 508.462249 126.870815 
L 519.511476 126.239378 
L 529.545531 126.55142 
L 539.544977 126.859305 
L 550.623429 127.620865 
L 560.604418 127.910846 
L 570.57464 128.115143 
L 581.510045 128.892369 
L 591.511798 129.200894 
L 601.511245 129.497269 
L 612.509713 130.214069 
L 622.552228 130.400143 
L 632.524757 130.828241 
L 642.883359 131.304296 
L 653.399621 131.801771 
L 663.393684 132.123724 
L 673.455425 132.438323 
L 683.442567 132.717753 
L 693.454319 133.06848 
L 703.512215 133.38212 
L 713.794679 133.818211 
L 723.804124 134.116504 
L 733.782036 134.252703 
L 743.991439 134.814121 
L 753.994731 135.122326 
L 764.030324 135.440442 
L 774.040537 135.755681 
L 784.463742 136.084347 
L 794.442423 136.527152 
L 804.470326 136.843349 
L 815.433417 137.546721 
L 825.428249 137.852368 
L 835.469225 138.160253 
L 846.444622 138.881849 
L 856.404846 139.177585 
L 866.42275 139.435914 
L 877.349695 140.18021 
L 887.312226 140.398575 
L 897.389349 140.763369 
L 907.940988 141.342372 
L 918.288823 141.775585 
L 928.384403 142.134305 
L 938.910663 142.65512 
L 948.97548 142.994017 
L 959.201803 143.390783 
L 969.745751 143.923747 
L 979.735969 144.217245 
L 990.097647 144.667722 
L 1000.044797 144.846123 
L 1010.037322 145.266228 
L 1020.026771 145.55557 
L 1029.981611 145.854183 
L 1040.570165 146.411126 
L 1050.530389 146.67489 
L 1060.554446 147.002278 
L 1071.492927 147.703092 
L 1081.534673 148.028561 
L 1091.563344 148.348596 
L 1102.560274 149.069552 
L 1112.540494 149.356016 
L 1122.562244 149.613066 
L 1133.09927 150.203579 
L 1143.496326 150.674519 
L 1153.513461 150.87434 
L 1164.038952 151.506416 
L 1174.033015 151.805029 
L 1184.274719 152.192203 
L 1194.235712 152.505204 
L 1204.711213 153.016427 
L 1215.099809 153.47202 
L 1225.094641 153.754328 
L 1235.145615 154.084593 
L 1245.272727 154.455782 
" style="fill:none;stroke:#ff0000;stroke-dasharray:5.55,2.4;stroke-dashoffset:0;stroke-width:1.5;"/>
    <defs>
     <path d="M -3 3 
L 3 3 
L 3 -3 
L -3 -3 
z
" id="m3b1099b3c7" style="stroke:#ff0000;stroke-linejoin:miter;"/>
    </defs>
    <g clip-path="url(#p09be3d5c1a)">
     <use style="fill:#ff0000;stroke:#ff0000;stroke-linejoin:miter;" x="230.727273" xlink:href="#m3b1099b3c7" y="471.990792"/>
     <use style="fill:#ff0000;stroke:#ff0000;stroke-linejoin:miter;" x="241.898782" xlink:href="#m3b1099b3c7" y="471.99207"/>
     <use style="fill:#ff0000;stroke:#ff0000;stroke-linejoin:miter;" x="251.987441" xlink:href="#m3b1099b3c7" y="472.001982"/>
     <use style="fill:#ff0000;stroke:#ff0000;stroke-linejoin:miter;" x="262.742883" xlink:href="#m3b1099b3c7" y="472.000383"/>
     <use style="fill:#ff0000;stroke:#ff0000;stroke-linejoin:miter;" x="272.70926" xlink:href="#m3b1099b3c7" y="472.01445"/>
     <use style="fill:#ff0000;stroke:#ff0000;stroke-linejoin:miter;" x="282.800225" xlink:href="#m3b1099b3c7" y="472.021804"/>
     <use style="fill:#ff0000;stroke:#ff0000;stroke-linejoin:miter;" x="292.785829" xlink:href="#m3b1099b3c7" y="472.006777"/>
     <use style="fill:#ff0000;stroke:#ff0000;stroke-linejoin:miter;" x="302.790659" xlink:href="#m3b1099b3c7" y="472.019886"/>
     <use style="fill:#ff0000;stroke:#ff0000;stroke-linejoin:miter;" x="312.757036" xlink:href="#m3b1099b3c7" y="472.016049"/>
     <use style="fill:#ff0000;stroke:#ff0000;stroke-linejoin:miter;" x="322.753406" xlink:href="#m3b1099b3c7" y="472.025321"/>
     <use style="fill:#ff0000;stroke:#ff0000;stroke-linejoin:miter;" x="333.246595" xlink:href="#m3b1099b3c7" y="471.97065"/>
     <use style="fill:#ff0000;stroke:#ff0000;stroke-linejoin:miter;" x="343.219894" xlink:href="#m3b1099b3c7" y="472.016369"/>
     <use style="fill:#ff0000;stroke:#ff0000;stroke-linejoin:miter;" x="353.192423" xlink:href="#m3b1099b3c7" y="471.942834"/>
     <use style="fill:#ff0000;stroke:#ff0000;stroke-linejoin:miter;" x="364.06784" xlink:href="#m3b1099b3c7" y="471.996546"/>
     <use style="fill:#ff0000;stroke:#ff0000;stroke-linejoin:miter;" x="374.036524" xlink:href="#m3b1099b3c7" y="472.010614"/>
     <use style="fill:#ff0000;stroke:#ff0000;stroke-linejoin:miter;" x="384.012898" xlink:href="#m3b1099b3c7" y="471.945712"/>
     <use style="fill:#ff0000;stroke:#ff0000;stroke-linejoin:miter;" x="394.945227" xlink:href="#m3b1099b3c7" y="472.02596"/>
     <use style="fill:#ff0000;stroke:#ff0000;stroke-linejoin:miter;" x="404.906989" xlink:href="#m3b1099b3c7" y="472.010614"/>
     <use style="fill:#ff0000;stroke:#ff0000;stroke-linejoin:miter;" x="415.032563" xlink:href="#m3b1099b3c7" y="472.002941"/>
     <use style="fill:#ff0000;stroke:#ff0000;stroke-linejoin:miter;" x="426.425564" xlink:href="#m3b1099b3c7" y="471.984397"/>
     <use style="fill:#ff0000;stroke:#ff0000;stroke-linejoin:miter;" x="436.388096" xlink:href="#m3b1099b3c7" y="471.995587"/>
     <use style="fill:#ff0000;stroke:#ff0000;stroke-linejoin:miter;" x="446.286025" xlink:href="#m3b1099b3c7" y="472.008056"/>
     <use style="fill:#ff0000;stroke:#ff0000;stroke-linejoin:miter;" x="457.302182" xlink:href="#m3b1099b3c7" y="472.018926"/>
     <use style="fill:#ff0000;stroke:#ff0000;stroke-linejoin:miter;" x="467.342389" xlink:href="#m3b1099b3c7" y="472.010294"/>
     <use style="fill:#ff0000;stroke:#ff0000;stroke-linejoin:miter;" x="477.357987" xlink:href="#m3b1099b3c7" y="472.01509"/>
     <use style="fill:#ff0000;stroke:#ff0000;stroke-linejoin:miter;" x="488.384141" xlink:href="#m3b1099b3c7" y="126.203251"/>
     <use style="fill:#ff0000;stroke:#ff0000;stroke-linejoin:miter;" x="498.40666" xlink:href="#m3b1099b3c7" y="126.533836"/>
     <use style="fill:#ff0000;stroke:#ff0000;stroke-linejoin:miter;" x="508.462249" xlink:href="#m3b1099b3c7" y="126.870815"/>
     <use style="fill:#ff0000;stroke:#ff0000;stroke-linejoin:miter;" x="519.511476" xlink:href="#m3b1099b3c7" y="126.239378"/>
     <use style="fill:#ff0000;stroke:#ff0000;stroke-linejoin:miter;" x="529.545531" xlink:href="#m3b1099b3c7" y="126.55142"/>
     <use style="fill:#ff0000;stroke:#ff0000;stroke-linejoin:miter;" x="539.544977" xlink:href="#m3b1099b3c7" y="126.859305"/>
     <use style="fill:#ff0000;stroke:#ff0000;stroke-linejoin:miter;" x="550.623429" xlink:href="#m3b1099b3c7" y="127.620865"/>
     <use style="fill:#ff0000;stroke:#ff0000;stroke-linejoin:miter;" x="560.604418" xlink:href="#m3b1099b3c7" y="127.910846"/>
     <use style="fill:#ff0000;stroke:#ff0000;stroke-linejoin:miter;" x="570.57464" xlink:href="#m3b1099b3c7" y="128.115143"/>
     <use style="fill:#ff0000;stroke:#ff0000;stroke-linejoin:miter;" x="581.510045" xlink:href="#m3b1099b3c7" y="128.892369"/>
     <use style="fill:#ff0000;stroke:#ff0000;stroke-linejoin:miter;" x="591.511798" xlink:href="#m3b1099b3c7" y="129.200894"/>
     <use style="fill:#ff0000;stroke:#ff0000;stroke-linejoin:miter;" x="601.511245" xlink:href="#m3b1099b3c7" y="129.497269"/>
     <use style="fill:#ff0000;stroke:#ff0000;stroke-linejoin:miter;" x="612.509713" xlink:href="#m3b1099b3c7" y="130.214069"/>
     <use style="fill:#ff0000;stroke:#ff0000;stroke-linejoin:miter;" x="622.552228" xlink:href="#m3b1099b3c7" y="130.400143"/>
     <use style="fill:#ff0000;stroke:#ff0000;stroke-linejoin:miter;" x="632.524757" xlink:href="#m3b1099b3c7" y="130.828241"/>
     <use style="fill:#ff0000;stroke:#ff0000;stroke-linejoin:miter;" x="642.883359" xlink:href="#m3b1099b3c7" y="131.304296"/>
     <use style="fill:#ff0000;stroke:#ff0000;stroke-linejoin:miter;" x="653.399621" xlink:href="#m3b1099b3c7" y="131.801771"/>
     <use style="fill:#ff0000;stroke:#ff0000;stroke-linejoin:miter;" x="663.393684" xlink:href="#m3b1099b3c7" y="132.123724"/>
     <use style="fill:#ff0000;stroke:#ff0000;stroke-linejoin:miter;" x="673.455425" xlink:href="#m3b1099b3c7" y="132.438323"/>
     <use style="fill:#ff0000;stroke:#ff0000;stroke-linejoin:miter;" x="683.442567" xlink:href="#m3b1099b3c7" y="132.717753"/>
     <use style="fill:#ff0000;stroke:#ff0000;stroke-linejoin:miter;" x="693.454319" xlink:href="#m3b1099b3c7" y="133.06848"/>
     <use style="fill:#ff0000;stroke:#ff0000;stroke-linejoin:miter;" x="703.512215" xlink:href="#m3b1099b3c7" y="133.38212"/>
     <use style="fill:#ff0000;stroke:#ff0000;stroke-linejoin:miter;" x="713.794679" xlink:href="#m3b1099b3c7" y="133.818211"/>
     <use style="fill:#ff0000;stroke:#ff0000;stroke-linejoin:miter;" x="723.804124" xlink:href="#m3b1099b3c7" y="134.116504"/>
     <use style="fill:#ff0000;stroke:#ff0000;stroke-linejoin:miter;" x="733.782036" xlink:href="#m3b1099b3c7" y="134.252703"/>
     <use style="fill:#ff0000;stroke:#ff0000;stroke-linejoin:miter;" x="743.991439" xlink:href="#m3b1099b3c7" y="134.814121"/>
     <use style="fill:#ff0000;stroke:#ff0000;stroke-linejoin:miter;" x="753.994731" xlink:href="#m3b1099b3c7" y="135.122326"/>
     <use style="fill:#ff0000;stroke:#ff0000;stroke-linejoin:miter;" x="764.030324" xlink:href="#m3b1099b3c7" y="135.440442"/>
     <use style="fill:#ff0000;stroke:#ff0000;stroke-linejoin:miter;" x="774.040537" xlink:href="#m3b1099b3c7" y="135.755681"/>
     <use style="fill:#ff0000;stroke:#ff0000;stroke-linejoin:miter;" x="784.463742" xlink:href="#m3b1099b3c7" y="136.084347"/>
     <use style="fill:#ff0000;stroke:#ff0000;stroke-linejoin:miter;" x="794.442423" xlink:href="#m3b1099b3c7" y="136.527152"/>
     <use style="fill:#ff0000;stroke:#ff0000;stroke-linejoin:miter;" x="804.470326" xlink:href="#m3b1099b3c7" y="136.843349"/>
     <use style="fill:#ff0000;stroke:#ff0000;stroke-linejoin:miter;" x="815.433417" xlink:href="#m3b1099b3c7" y="137.546721"/>
     <use style="fill:#ff0000;stroke:#ff0000;stroke-linejoin:miter;" x="825.428249" xlink:href="#m3b1099b3c7" y="137.852368"/>
     <use style="fill:#ff0000;stroke:#ff0000;stroke-linejoin:miter;" x="835.469225" xlink:href="#m3b1099b3c7" y="138.160253"/>
     <use style="fill:#ff0000;stroke:#ff0000;stroke-linejoin:miter;" x="846.444622" xlink:href="#m3b1099b3c7" y="138.881849"/>
     <use style="fill:#ff0000;stroke:#ff0000;stroke-linejoin:miter;" x="856.404846" xlink:href="#m3b1099b3c7" y="139.177585"/>
     <use style="fill:#ff0000;stroke:#ff0000;stroke-linejoin:miter;" x="866.42275" xlink:href="#m3b1099b3c7" y="139.435914"/>
     <use style="fill:#ff0000;stroke:#ff0000;stroke-linejoin:miter;" x="877.349695" xlink:href="#m3b1099b3c7" y="140.18021"/>
     <use style="fill:#ff0000;stroke:#ff0000;stroke-linejoin:miter;" x="887.312226" xlink:href="#m3b1099b3c7" y="140.398575"/>
     <use style="fill:#ff0000;stroke:#ff0000;stroke-linejoin:miter;" x="897.389349" xlink:href="#m3b1099b3c7" y="140.763369"/>
     <use style="fill:#ff0000;stroke:#ff0000;stroke-linejoin:miter;" x="907.940988" xlink:href="#m3b1099b3c7" y="141.342372"/>
     <use style="fill:#ff0000;stroke:#ff0000;stroke-linejoin:miter;" x="918.288823" xlink:href="#m3b1099b3c7" y="141.775585"/>
     <use style="fill:#ff0000;stroke:#ff0000;stroke-linejoin:miter;" x="928.384403" xlink:href="#m3b1099b3c7" y="142.134305"/>
     <use style="fill:#ff0000;stroke:#ff0000;stroke-linejoin:miter;" x="938.910663" xlink:href="#m3b1099b3c7" y="142.65512"/>
     <use style="fill:#ff0000;stroke:#ff0000;stroke-linejoin:miter;" x="948.97548" xlink:href="#m3b1099b3c7" y="142.994017"/>
     <use style="fill:#ff0000;stroke:#ff0000;stroke-linejoin:miter;" x="959.201803" xlink:href="#m3b1099b3c7" y="143.390783"/>
     <use style="fill:#ff0000;stroke:#ff0000;stroke-linejoin:miter;" x="969.745751" xlink:href="#m3b1099b3c7" y="143.923747"/>
     <use style="fill:#ff0000;stroke:#ff0000;stroke-linejoin:miter;" x="979.735969" xlink:href="#m3b1099b3c7" y="144.217245"/>
     <use style="fill:#ff0000;stroke:#ff0000;stroke-linejoin:miter;" x="990.097647" xlink:href="#m3b1099b3c7" y="144.667722"/>
     <use style="fill:#ff0000;stroke:#ff0000;stroke-linejoin:miter;" x="1000.044797" xlink:href="#m3b1099b3c7" y="144.846123"/>
     <use style="fill:#ff0000;stroke:#ff0000;stroke-linejoin:miter;" x="1010.037322" xlink:href="#m3b1099b3c7" y="145.266228"/>
     <use style="fill:#ff0000;stroke:#ff0000;stroke-linejoin:miter;" x="1020.026771" xlink:href="#m3b1099b3c7" y="145.55557"/>
     <use style="fill:#ff0000;stroke:#ff0000;stroke-linejoin:miter;" x="1029.981611" xlink:href="#m3b1099b3c7" y="145.854183"/>
     <use style="fill:#ff0000;stroke:#ff0000;stroke-linejoin:miter;" x="1040.570165" xlink:href="#m3b1099b3c7" y="146.411126"/>
     <use style="fill:#ff0000;stroke:#ff0000;stroke-linejoin:miter;" x="1050.530389" xlink:href="#m3b1099b3c7" y="146.67489"/>
     <use style="fill:#ff0000;stroke:#ff0000;stroke-linejoin:miter;" x="1060.554446" xlink:href="#m3b1099b3c7" y="147.002278"/>
     <use style="fill:#ff0000;stroke:#ff0000;stroke-linejoin:miter;" x="1071.492927" xlink:href="#m3b1099b3c7" y="147.703092"/>
     <use style="fill:#ff0000;stroke:#ff0000;stroke-linejoin:miter;" x="1081.534673" xlink:href="#m3b1099b3c7" y="148.028561"/>
     <use style="fill:#ff0000;stroke:#ff0000;stroke-linejoin:miter;" x="1091.563344" xlink:href="#m3b1099b3c7" y="148.348596"/>
     <use style="fill:#ff0000;stroke:#ff0000;stroke-linejoin:miter;" x="1102.560274" xlink:href="#m3b1099b3c7" y="149.069552"/>
     <use style="fill:#ff0000;stroke:#ff0000;stroke-linejoin:miter;" x="1112.540494" xlink:href="#m3b1099b3c7" y="149.356016"/>
     <use style="fill:#ff0000;stroke:#ff0000;stroke-linejoin:miter;" x="1122.562244" xlink:href="#m3b1099b3c7" y="149.613066"/>
     <use style="fill:#ff0000;stroke:#ff0000;stroke-linejoin:miter;" x="1133.09927" xlink:href="#m3b1099b3c7" y="150.203579"/>
     <use style="fill:#ff0000;stroke:#ff0000;stroke-linejoin:miter;" x="1143.496326" xlink:href="#m3b1099b3c7" y="150.674519"/>
     <use style="fill:#ff0000;stroke:#ff0000;stroke-linejoin:miter;" x="1153.513461" xlink:href="#m3b1099b3c7" y="150.87434"/>
     <use style="fill:#ff0000;stroke:#ff0000;stroke-linejoin:miter;" x="1164.038952" xlink:href="#m3b1099b3c7" y="151.506416"/>
     <use style="fill:#ff0000;stroke:#ff0000;stroke-linejoin:miter;" x="1174.033015" xlink:href="#m3b1099b3c7" y="151.805029"/>
     <use style="fill:#ff0000;stroke:#ff0000;stroke-linejoin:miter;" x="1184.274719" xlink:href="#m3b1099b3c7" y="152.192203"/>
     <use style="fill:#ff0000;stroke:#ff0000;stroke-linejoin:miter;" x="1194.235712" xlink:href="#m3b1099b3c7" y="152.505204"/>
     <use style="fill:#ff0000;stroke:#ff0000;stroke-linejoin:miter;" x="1204.711213" xlink:href="#m3b1099b3c7" y="153.016427"/>
     <use style="fill:#ff0000;stroke:#ff0000;stroke-linejoin:miter;" x="1215.099809" xlink:href="#m3b1099b3c7" y="153.47202"/>
     <use style="fill:#ff0000;stroke:#ff0000;stroke-linejoin:miter;" x="1225.094641" xlink:href="#m3b1099b3c7" y="153.754328"/>
     <use style="fill:#ff0000;stroke:#ff0000;stroke-linejoin:miter;" x="1235.145615" xlink:href="#m3b1099b3c7" y="154.084593"/>
     <use style="fill:#ff0000;stroke:#ff0000;stroke-linejoin:miter;" x="1245.272727" xlink:href="#m3b1099b3c7" y="154.455782"/>
    </g>
   </g>
   <g id="line2d_16">
    <path clip-path="url(#p09be3d5c1a)" d="M 230.727273 471.990792 
L 241.898782 471.99207 
L 251.987441 472.001982 
L 262.742883 472.000383 
L 272.70926 472.01445 
L 282.800225 472.021804 
L 292.785829 472.006777 
L 302.790659 472.019886 
L 312.757036 472.016049 
L 322.753406 472.025321 
L 333.246595 471.97065 
L 343.219894 472.016369 
L 353.192423 471.942834 
L 364.06784 471.996546 
L 374.036524 472.010614 
L 384.012898 471.945712 
L 394.945227 472.02596 
L 404.906989 472.010614 
L 415.032563 472.002941 
L 426.425564 471.984397 
L 436.388096 471.995587 
L 446.286025 472.008056 
L 457.302182 472.018926 
L 467.342389 472.010294 
L 477.357987 472.01509 
L 488.384141 126.203251 
L 498.40666 126.533836 
L 508.462249 126.870815 
L 1245.272727 154.455782 
" style="fill:none;stroke:#800080;stroke-dasharray:9.6,2.4,1.5,2.4;stroke-dashoffset:0;stroke-width:1.5;"/>
    <defs>
     <path d="M -3 3 
L 3 -3 
M -3 -3 
L 3 3 
" id="mae1104e651" style="stroke:#800080;"/>
    </defs>
    <g clip-path="url(#p09be3d5c1a)">
     <use style="fill:#800080;stroke:#800080;" x="230.727273" xlink:href="#mae1104e651" y="471.990792"/>
     <use style="fill:#800080;stroke:#800080;" x="241.898782" xlink:href="#mae1104e651" y="471.99207"/>
     <use style="fill:#800080;stroke:#800080;" x="251.987441" xlink:href="#mae1104e651" y="472.001982"/>
     <use style="fill:#800080;stroke:#800080;" x="262.742883" xlink:href="#mae1104e651" y="472.000383"/>
     <use style="fill:#800080;stroke:#800080;" x="272.70926" xlink:href="#mae1104e651" y="472.01445"/>
     <use style="fill:#800080;stroke:#800080;" x="282.800225" xlink:href="#mae1104e651" y="472.021804"/>
     <use style="fill:#800080;stroke:#800080;" x="292.785829" xlink:href="#mae1104e651" y="472.006777"/>
     <use style="fill:#800080;stroke:#800080;" x="302.790659" xlink:href="#mae1104e651" y="472.019886"/>
     <use style="fill:#800080;stroke:#800080;" x="312.757036" xlink:href="#mae1104e651" y="472.016049"/>
     <use style="fill:#800080;stroke:#800080;" x="322.753406" xlink:href="#mae1104e651" y="472.025321"/>
     <use style="fill:#800080;stroke:#800080;" x="333.246595" xlink:href="#mae1104e651" y="471.97065"/>
     <use style="fill:#800080;stroke:#800080;" x="343.219894" xlink:href="#mae1104e651" y="472.016369"/>
     <use style="fill:#800080;stroke:#800080;" x="353.192423" xlink:href="#mae1104e651" y="471.942834"/>
     <use style="fill:#800080;stroke:#800080;" x="364.06784" xlink:href="#mae1104e651" y="471.996546"/>
     <use style="fill:#800080;stroke:#800080;" x="374.036524" xlink:href="#mae1104e651" y="472.010614"/>
     <use style="fill:#800080;stroke:#800080;" x="384.012898" xlink:href="#mae1104e651" y="471.945712"/>
     <use style="fill:#800080;stroke:#800080;" x="394.945227" xlink:href="#mae1104e651" y="472.02596"/>
     <use style="fill:#800080;stroke:#800080;" x="404.906989" xlink:href="#mae1104e651" y="472.010614"/>
     <use style="fill:#800080;stroke:#800080;" x="415.032563" xlink:href="#mae1104e651" y="472.002941"/>
     <use style="fill:#800080;stroke:#800080;" x="426.425564" xlink:href="#mae1104e651" y="471.984397"/>
     <use style="fill:#800080;stroke:#800080;" x="436.388096" xlink:href="#mae1104e651" y="471.995587"/>
     <use style="fill:#800080;stroke:#800080;" x="446.286025" xlink:href="#mae1104e651" y="472.008056"/>
     <use style="fill:#800080;stroke:#800080;" x="457.302182" xlink:href="#mae1104e651" y="472.018926"/>
     <use style="fill:#800080;stroke:#800080;" x="467.342389" xlink:href="#mae1104e651" y="472.010294"/>
     <use style="fill:#800080;stroke:#800080;" x="477.357987" xlink:href="#mae1104e651" y="472.01509"/>
     <use style="fill:#800080;stroke:#800080;" x="488.384141" xlink:href="#mae1104e651" y="126.203251"/>
     <use style="fill:#800080;stroke:#800080;" x="498.40666" xlink:href="#mae1104e651" y="126.533836"/>
     <use style="fill:#800080;stroke:#800080;" x="508.462249" xlink:href="#mae1104e651" y="126.870815"/>
     <use style="fill:#800080;stroke:#800080;" x="1245.272727" xlink:href="#mae1104e651" y="154.455782"/>
    </g>
   </g>
   <g id="line2d_17">
    <path clip-path="url(#p09be3d5c1a)" d="M 230.727273 492.48 
L 241.898782 488.040226 
L 251.987441 484.030798 
L 262.742883 479.756377 
L 272.70926 475.795546 
L 282.800225 471.785201 
L 292.785829 467.816729 
L 302.790659 463.840616 
L 312.757036 459.879785 
L 322.753406 455.907034 
L 333.246595 451.736837 
L 343.219894 447.773255 
L 353.192423 443.809979 
L 364.06784 439.487878 
L 374.036524 435.52613 
L 384.012898 431.561326 
L 394.945227 427.216607 
L 404.906989 423.25761 
L 415.032563 419.23351 
L 426.425564 414.705711 
L 436.388096 410.746408 
L 446.286025 406.81278 
L 457.302182 402.434746 
L 467.342389 398.444573 
L 477.357987 394.464181 
L 488.384141 390.082173 
L 498.40666 386.099031 
L 508.462249 382.102745 
L 1245.272727 89.28 
" style="fill:none;stroke:#0000ff;stroke-linecap:square;stroke-width:1.5;"/>
   </g>
   <g id="line2d_18">
    <path clip-path="url(#p09be3d5c1a)" d="M 230.727273 472.043042 
L 241.898782 472.038486 
L 251.987441 472.034371 
L 262.742883 472.029984 
L 272.70926 472.02592 
L 282.800225 472.021804 
L 292.785829 472.017731 
L 302.790659 472.013651 
L 312.757036 472.009586 
L 322.753406 472.005509 
L 333.246595 472.001229 
L 343.219894 471.997162 
L 353.192423 471.993094 
L 364.06784 471.988659 
L 374.036524 471.984593 
L 384.012898 471.980524 
L 394.945227 471.976065 
L 404.906989 471.972002 
L 415.032563 471.967873 
L 426.425564 471.963226 
L 436.388096 471.959163 
L 446.286025 471.955126 
L 457.302182 471.950633 
L 467.342389 471.946538 
L 477.357987 471.942453 
L 488.384141 471.937956 
L 498.40666 471.933868 
L 508.462249 471.929767 
L 1245.272727 471.629256 
" style="fill:none;stroke:#008000;stroke-linecap:square;stroke-width:1.5;"/>
    <defs>
     <path d="M 0 3 
C 0.795609 3 1.55874 2.683901 2.12132 2.12132 
C 2.683901 1.55874 3 0.795609 3 0 
C 3 -0.795609 2.683901 -1.55874 2.12132 -2.12132 
C 1.55874 -2.683901 0.795609 -3 0 -3 
C -0.795609 -3 -1.55874 -2.683901 -2.12132 -2.12132 
C -2.683901 -1.55874 -3 -0.795609 -3 0 
C -3 0.795609 -2.683901 1.55874 -2.12132 2.12132 
C -1.55874 2.683901 -0.795609 3 0 3 
z
" id="mf3d844b54f" style="stroke:#008000;"/>
    </defs>
    <g clip-path="url(#p09be3d5c1a)">
     <use style="fill:#008000;stroke:#008000;" x="230.727273" xlink:href="#mf3d844b54f" y="472.043042"/>
     <use style="fill:#008000;stroke:#008000;" x="241.898782" xlink:href="#mf3d844b54f" y="472.038486"/>
     <use style="fill:#008000;stroke:#008000;" x="251.987441" xlink:href="#mf3d844b54f" y="472.034371"/>
     <use style="fill:#008000;stroke:#008000;" x="262.742883" xlink:href="#mf3d844b54f" y="472.029984"/>
     <use style="fill:#008000;stroke:#008000;" x="272.70926" xlink:href="#mf3d844b54f" y="472.02592"/>
     <use style="fill:#008000;stroke:#008000;" x="282.800225" xlink:href="#mf3d844b54f" y="472.021804"/>
     <use style="fill:#008000;stroke:#008000;" x="292.785829" xlink:href="#mf3d844b54f" y="472.017731"/>
     <use style="fill:#008000;stroke:#008000;" x="302.790659" xlink:href="#mf3d844b54f" y="472.013651"/>
     <use style="fill:#008000;stroke:#008000;" x="312.757036" xlink:href="#mf3d844b54f" y="472.009586"/>
     <use style="fill:#008000;stroke:#008000;" x="322.753406" xlink:href="#mf3d844b54f" y="472.005509"/>
     <use style="fill:#008000;stroke:#008000;" x="333.246595" xlink:href="#mf3d844b54f" y="472.001229"/>
     <use style="fill:#008000;stroke:#008000;" x="343.219894" xlink:href="#mf3d844b54f" y="471.997162"/>
     <use style="fill:#008000;stroke:#008000;" x="353.192423" xlink:href="#mf3d844b54f" y="471.993094"/>
     <use style="fill:#008000;stroke:#008000;" x="364.06784" xlink:href="#mf3d844b54f" y="471.988659"/>
     <use style="fill:#008000;stroke:#008000;" x="374.036524" xlink:href="#mf3d844b54f" y="471.984593"/>
     <use style="fill:#008000;stroke:#008000;" x="384.012898" xlink:href="#mf3d844b54f" y="471.980524"/>
     <use style="fill:#008000;stroke:#008000;" x="394.945227" xlink:href="#mf3d844b54f" y="471.976065"/>
     <use style="fill:#008000;stroke:#008000;" x="404.906989" xlink:href="#mf3d844b54f" y="471.972002"/>
     <use style="fill:#008000;stroke:#008000;" x="415.032563" xlink:href="#mf3d844b54f" y="471.967873"/>
     <use style="fill:#008000;stroke:#008000;" x="426.425564" xlink:href="#mf3d844b54f" y="471.963226"/>
     <use style="fill:#008000;stroke:#008000;" x="436.388096" xlink:href="#mf3d844b54f" y="471.959163"/>
     <use style="fill:#008000;stroke:#008000;" x="446.286025" xlink:href="#mf3d844b54f" y="471.955126"/>
     <use style="fill:#008000;stroke:#008000;" x="457.302182" xlink:href="#mf3d844b54f" y="471.950633"/>
     <use style="fill:#008000;stroke:#008000;" x="467.342389" xlink:href="#mf3d844b54f" y="471.946538"/>
     <use style="fill:#008000;stroke:#008000;" x="477.357987" xlink:href="#mf3d844b54f" y="471.942453"/>
     <use style="fill:#008000;stroke:#008000;" x="488.384141" xlink:href="#mf3d844b54f" y="471.937956"/>
     <use style="fill:#008000;stroke:#008000;" x="498.40666" xlink:href="#mf3d844b54f" y="471.933868"/>
     <use style="fill:#008000;stroke:#008000;" x="508.462249" xlink:href="#mf3d844b54f" y="471.929767"/>
     <use style="fill:#008000;stroke:#008000;" x="1245.272727" xlink:href="#mf3d844b54f" y="471.629256"/>
    </g>
   </g>
   <g id="patch_3">
    <path d="M 180 512.64 
L 180 69.12 
" style="fill:none;stroke:#000000;stroke-linecap:square;stroke-linejoin:miter;stroke-width:0.8;"/>
   </g>
   <g id="patch_4">
    <path d="M 1296 512.64 
L 1296 69.12 
" style="fill:none;stroke:#000000;stroke-linecap:square;stroke-linejoin:miter;stroke-width:0.8;"/>
   </g>
   <g id="patch_5">
    <path d="M 180 512.64 
L 1296 512.64 
" style="fill:none;stroke:#000000;stroke-linecap:square;stroke-linejoin:miter;stroke-width:0.8;"/>
   </g>
   <g id="patch_6">
    <path d="M 180 69.12 
L 1296 69.12 
" style="fill:none;stroke:#000000;stroke-linecap:square;stroke-linejoin:miter;stroke-width:0.8;"/>
   </g>
   <g id="text_15">
    <!-- 500000.0 bit/s -->
    <defs>
     <path d="M 10.796875 72.90625 
L 49.515625 72.90625 
L 49.515625 64.59375 
L 19.828125 64.59375 
L 19.828125 46.734375 
Q 21.96875 47.46875 24.109375 47.828125 
Q 26.265625 48.1875 28.421875 48.1875 
Q 40.625 48.1875 47.75 41.5 
Q 54.890625 34.8125 54.890625 23.390625 
Q 54.890625 11.625 47.5625 5.09375 
Q 40.234375 -1.421875 26.90625 -1.421875 
Q 22.3125 -1.421875 17.546875 -0.640625 
Q 12.796875 0.140625 7.71875 1.703125 
L 7.71875 11.625 
Q 12.109375 9.234375 16.796875 8.0625 
Q 21.484375 6.890625 26.703125 6.890625 
Q 35.15625 6.890625 40.078125 11.328125 
Q 45.015625 15.765625 45.015625 23.390625 
Q 45.015625 31 40.078125 35.4375 
Q 35.15625 39.890625 26.703125 39.890625 
Q 22.75 39.890625 18.8125 39.015625 
Q 14.890625 38.140625 10.796875 36.28125 
z
" id="DejaVuSans-35"/>
     <path id="DejaVuSans-20"/>
     <path d="M 48.6875 27.296875 
Q 48.6875 37.203125 44.609375 42.84375 
Q 40.53125 48.484375 33.40625 48.484375 
Q 26.265625 48.484375 22.1875 42.84375 
Q 18.109375 37.203125 18.109375 27.296875 
Q 18.109375 17.390625 22.1875 11.75 
Q 26.265625 6.109375 33.40625 6.109375 
Q 40.53125 6.109375 44.609375 11.75 
Q 48.6875 17.390625 48.6875 27.296875 
z
M 18.109375 46.390625 
Q 20.953125 51.265625 25.265625 53.625 
Q 29.59375 56 35.59375 56 
Q 45.5625 56 51.78125 48.09375 
Q 58.015625 40.1875 58.015625 27.296875 
Q 58.015625 14.40625 51.78125 6.484375 
Q 45.5625 -1.421875 35.59375 -1.421875 
Q 29.59375 -1.421875 25.265625 0.953125 
Q 20.953125 3.328125 18.109375 8.203125 
L 18.109375 0 
L 9.078125 0 
L 9.078125 75.984375 
L 18.109375 75.984375 
z
" id="DejaVuSans-62"/>
     <path d="M 9.421875 54.6875 
L 18.40625 54.6875 
L 18.40625 0 
L 9.421875 0 
z
M 9.421875 75.984375 
L 18.40625 75.984375 
L 18.40625 64.59375 
L 9.421875 64.59375 
z
" id="DejaVuSans-69"/>
     <path d="M 18.3125 70.21875 
L 18.3125 54.6875 
L 36.8125 54.6875 
L 36.8125 47.703125 
L 18.3125 47.703125 
L 18.3125 18.015625 
Q 18.3125 11.328125 20.140625 9.421875 
Q 21.96875 7.515625 27.59375 7.515625 
L 36.8125 7.515625 
L 36.8125 0 
L 27.59375 0 
Q 17.1875 0 13.234375 3.875 
Q 9.28125 7.765625 9.28125 18.015625 
L 9.28125 47.703125 
L 2.6875 47.703125 
L 2.6875 54.6875 
L 9.28125 54.6875 
L 9.28125 70.21875 
z
" id="DejaVuSans-74"/>
     <path d="M 25.390625 72.90625 
L 33.6875 72.90625 
L 8.296875 -9.28125 
L 0 -9.28125 
z
" id="DejaVuSans-2f"/>
     <path d="M 44.28125 53.078125 
L 44.28125 44.578125 
Q 40.484375 46.53125 36.375 47.5 
Q 32.28125 48.484375 27.875 48.484375 
Q 21.1875 48.484375 17.84375 46.4375 
Q 14.5 44.390625 14.5 40.28125 
Q 14.5 37.15625 16.890625 35.375 
Q 19.28125 33.59375 26.515625 31.984375 
L 29.59375 31.296875 
Q 39.15625 29.25 43.1875 25.515625 
Q 47.21875 21.78125 47.21875 15.09375 
Q 47.21875 7.46875 41.1875 3.015625 
Q 35.15625 -1.421875 24.609375 -1.421875 
Q 20.21875 -1.421875 15.453125 -0.5625 
Q 10.6875 0.296875 5.421875 2 
L 5.421875 11.28125 
Q 10.40625 8.6875 15.234375 7.390625 
Q 20.0625 6.109375 24.8125 6.109375 
Q 31.15625 6.109375 34.5625 8.28125 
Q 37.984375 10.453125 37.984375 14.40625 
Q 37.984375 18.0625 35.515625 20.015625 
Q 33.0625 21.96875 24.703125 23.78125 
L 21.578125 24.515625 
Q 13.234375 26.265625 9.515625 29.90625 
Q 5.8125 33.546875 5.8125 39.890625 
Q 5.8125 47.609375 11.28125 51.796875 
Q 16.75 56 26.8125 56 
Q 31.78125 56 36.171875 55.265625 
Q 40.578125 54.546875 44.28125 53.078125 
z
" id="DejaVuSans-73"/>
    </defs>
    <g transform="translate(694.48875 63.12)scale(0.12 -0.12)">
     <use xlink:href="#DejaVuSans-35"/>
     <use x="63.623047" xlink:href="#DejaVuSans-30"/>
     <use x="127.246094" xlink:href="#DejaVuSans-30"/>
     <use x="190.869141" xlink:href="#DejaVuSans-30"/>
     <use x="254.492188" xlink:href="#DejaVuSans-30"/>
     <use x="318.115234" xlink:href="#DejaVuSans-30"/>
     <use x="381.738281" xlink:href="#DejaVuSans-2e"/>
     <use x="413.525391" xlink:href="#DejaVuSans-30"/>
     <use x="477.148438" xlink:href="#DejaVuSans-20"/>
     <use x="508.935547" xlink:href="#DejaVuSans-62"/>
     <use x="572.412109" xlink:href="#DejaVuSans-69"/>
     <use x="600.195312" xlink:href="#DejaVuSans-74"/>
     <use x="639.404297" xlink:href="#DejaVuSans-2f"/>
     <use x="673.095703" xlink:href="#DejaVuSans-73"/>
    </g>
   </g>
   <g id="legend_1">
    <g id="patch_7">
     <path d="M 1173.520313 135.8325 
L 1289 135.8325 
Q 1291 135.8325 1291 133.8325 
L 1291 76.12 
Q 1291 74.12 1289 74.12 
L 1173.520313 74.12 
Q 1171.520313 74.12 1171.520313 76.12 
L 1171.520313 133.8325 
Q 1171.520313 135.8325 1173.520313 135.8325 
z
" style="fill:#ffffff;opacity:0.8;stroke:#cccccc;stroke-linejoin:miter;"/>
    </g>
    <g id="line2d_19">
     <path d="M 1175.520313 82.218437 
L 1195.520313 82.218437 
" style="fill:none;stroke:#ff0000;stroke-dasharray:5.55,2.4;stroke-dashoffset:0;stroke-width:1.5;"/>
    </g>
    <g id="line2d_20">
     <g>
      <use style="fill:#ff0000;stroke:#ff0000;stroke-linejoin:miter;" x="1185.520313" xlink:href="#m3b1099b3c7" y="82.218437"/>
     </g>
    </g>
    <g id="text_16">
     <!-- tcpdump -->
     <defs>
      <path d="M 48.78125 52.59375 
L 48.78125 44.1875 
Q 44.96875 46.296875 41.140625 47.34375 
Q 37.3125 48.390625 33.40625 48.390625 
Q 24.65625 48.390625 19.8125 42.84375 
Q 14.984375 37.3125 14.984375 27.296875 
Q 14.984375 17.28125 19.8125 11.734375 
Q 24.65625 6.203125 33.40625 6.203125 
Q 37.3125 6.203125 41.140625 7.25 
Q 44.96875 8.296875 48.78125 10.40625 
L 48.78125 2.09375 
Q 45.015625 0.34375 40.984375 -0.53125 
Q 36.96875 -1.421875 32.421875 -1.421875 
Q 20.0625 -1.421875 12.78125 6.34375 
Q 5.515625 14.109375 5.515625 27.296875 
Q 5.515625 40.671875 12.859375 48.328125 
Q 20.21875 56 33.015625 56 
Q 37.15625 56 41.109375 55.140625 
Q 45.0625 54.296875 48.78125 52.59375 
z
" id="DejaVuSans-63"/>
      <path d="M 18.109375 8.203125 
L 18.109375 -20.796875 
L 9.078125 -20.796875 
L 9.078125 54.6875 
L 18.109375 54.6875 
L 18.109375 46.390625 
Q 20.953125 51.265625 25.265625 53.625 
Q 29.59375 56 35.59375 56 
Q 45.5625 56 51.78125 48.09375 
Q 58.015625 40.1875 58.015625 27.296875 
Q 58.015625 14.40625 51.78125 6.484375 
Q 45.5625 -1.421875 35.59375 -1.421875 
Q 29.59375 -1.421875 25.265625 0.953125 
Q 20.953125 3.328125 18.109375 8.203125 
z
M 48.6875 27.296875 
Q 48.6875 37.203125 44.609375 42.84375 
Q 40.53125 48.484375 33.40625 48.484375 
Q 26.265625 48.484375 22.1875 42.84375 
Q 18.109375 37.203125 18.109375 27.296875 
Q 18.109375 17.390625 22.1875 11.75 
Q 26.265625 6.109375 33.40625 6.109375 
Q 40.53125 6.109375 44.609375 11.75 
Q 48.6875 17.390625 48.6875 27.296875 
z
" id="DejaVuSans-70"/>
      <path d="M 45.40625 46.390625 
L 45.40625 75.984375 
L 54.390625 75.984375 
L 54.390625 0 
L 45.40625 0 
L 45.40625 8.203125 
Q 42.578125 3.328125 38.25 0.953125 
Q 33.9375 -1.421875 27.875 -1.421875 
Q 17.96875 -1.421875 11.734375 6.484375 
Q 5.515625 14.40625 5.515625 27.296875 
Q 5.515625 40.1875 11.734375 48.09375 
Q 17.96875 56 27.875 56 
Q 33.9375 56 38.25 53.625 
Q 42.578125 51.265625 45.40625 46.390625 
z
M 14.796875 27.296875 
Q 14.796875 17.390625 18.875 11.75 
Q 22.953125 6.109375 30.078125 6.109375 
Q 37.203125 6.109375 41.296875 11.75 
Q 45.40625 17.390625 45.40625 27.296875 
Q 45.40625 37.203125 41.296875 42.84375 
Q 37.203125 48.484375 30.078125 48.484375 
Q 22.953125 48.484375 18.875 42.84375 
Q 14.796875 37.203125 14.796875 27.296875 
z
" id="DejaVuSans-64"/>
      <path d="M 8.5 21.578125 
L 8.5 54.6875 
L 17.484375 54.6875 
L 17.484375 21.921875 
Q 17.484375 14.15625 20.5 10.265625 
Q 23.53125 6.390625 29.59375 6.390625 
Q 36.859375 6.390625 41.078125 11.03125 
Q 45.3125 15.671875 45.3125 23.6875 
L 45.3125 54.6875 
L 54.296875 54.6875 
L 54.296875 0 
L 45.3125 0 
L 45.3125 8.40625 
Q 42.046875 3.421875 37.71875 1 
Q 33.40625 -1.421875 27.6875 -1.421875 
Q 18.265625 -1.421875 13.375 4.4375 
Q 8.5 10.296875 8.5 21.578125 
z
M 31.109375 56 
z
" id="DejaVuSans-75"/>
      <path d="M 52 44.1875 
Q 55.375 50.25 60.0625 53.125 
Q 64.75 56 71.09375 56 
Q 79.640625 56 84.28125 50.015625 
Q 88.921875 44.046875 88.921875 33.015625 
L 88.921875 0 
L 79.890625 0 
L 79.890625 32.71875 
Q 79.890625 40.578125 77.09375 44.375 
Q 74.3125 48.1875 68.609375 48.1875 
Q 61.625 48.1875 57.5625 43.546875 
Q 53.515625 38.921875 53.515625 30.90625 
L 53.515625 0 
L 44.484375 0 
L 44.484375 32.71875 
Q 44.484375 40.625 41.703125 44.40625 
Q 38.921875 48.1875 33.109375 48.1875 
Q 26.21875 48.1875 22.15625 43.53125 
Q 18.109375 38.875 18.109375 30.90625 
L 18.109375 0 
L 9.078125 0 
L 9.078125 54.6875 
L 18.109375 54.6875 
L 18.109375 46.1875 
Q 21.1875 51.21875 25.484375 53.609375 
Q 29.78125 56 35.6875 56 
Q 41.65625 56 45.828125 52.96875 
Q 50 49.953125 52 44.1875 
z
" id="DejaVuSans-6d"/>
     </defs>
     <g transform="translate(1203.520313 85.718437)scale(0.1 -0.1)">
      <use xlink:href="#DejaVuSans-74"/>
      <use x="39.208984" xlink:href="#DejaVuSans-63"/>
      <use x="94.189453" xlink:href="#DejaVuSans-70"/>
      <use x="157.666016" xlink:href="#DejaVuSans-64"/>
      <use x="221.142578" xlink:href="#DejaVuSans-75"/>
      <use x="284.521484" xlink:href="#DejaVuSans-6d"/>
      <use x="381.933594" xlink:href="#DejaVuSans-70"/>
     </g>
    </g>
    <g id="line2d_21">
     <path d="M 1175.520313 96.896563 
L 1195.520313 96.896563 
" style="fill:none;stroke:#800080;stroke-dasharray:9.6,2.4,1.5,2.4;stroke-dashoffset:0;stroke-width:1.5;"/>
    </g>
    <g id="line2d_22">
     <g>
      <use style="fill:#800080;stroke:#800080;" x="1185.520313" xlink:href="#mae1104e651" y="96.896563"/>
     </g>
    </g>
    <g id="text_17">
     <!-- filtered tcpdump -->
     <defs>
      <path d="M 37.109375 75.984375 
L 37.109375 68.5 
L 28.515625 68.5 
Q 23.6875 68.5 21.796875 66.546875 
Q 19.921875 64.59375 19.921875 59.515625 
L 19.921875 54.6875 
L 34.71875 54.6875 
L 34.71875 47.703125 
L 19.921875 47.703125 
L 19.921875 0 
L 10.890625 0 
L 10.890625 47.703125 
L 2.296875 47.703125 
L 2.296875 54.6875 
L 10.890625 54.6875 
L 10.890625 58.5 
Q 10.890625 67.625 15.140625 71.796875 
Q 19.390625 75.984375 28.609375 75.984375 
z
" id="DejaVuSans-66"/>
      <path d="M 9.421875 75.984375 
L 18.40625 75.984375 
L 18.40625 0 
L 9.421875 0 
z
" id="DejaVuSans-6c"/>
      <path d="M 56.203125 29.59375 
L 56.203125 25.203125 
L 14.890625 25.203125 
Q 15.484375 15.921875 20.484375 11.0625 
Q 25.484375 6.203125 34.421875 6.203125 
Q 39.59375 6.203125 44.453125 7.46875 
Q 49.3125 8.734375 54.109375 11.28125 
L 54.109375 2.78125 
Q 49.265625 0.734375 44.1875 -0.34375 
Q 39.109375 -1.421875 33.890625 -1.421875 
Q 20.796875 -1.421875 13.15625 6.1875 
Q 5.515625 13.8125 5.515625 26.8125 
Q 5.515625 40.234375 12.765625 48.109375 
Q 20.015625 56 32.328125 56 
Q 43.359375 56 49.78125 48.890625 
Q 56.203125 41.796875 56.203125 29.59375 
z
M 47.21875 32.234375 
Q 47.125 39.59375 43.09375 43.984375 
Q 39.0625 48.390625 32.421875 48.390625 
Q 24.90625 48.390625 20.390625 44.140625 
Q 15.875 39.890625 15.1875 32.171875 
z
" id="DejaVuSans-65"/>
      <path d="M 41.109375 46.296875 
Q 39.59375 47.171875 37.8125 47.578125 
Q 36.03125 48 33.890625 48 
Q 26.265625 48 22.1875 43.046875 
Q 18.109375 38.09375 18.109375 28.8125 
L 18.109375 0 
L 9.078125 0 
L 9.078125 54.6875 
L 18.109375 54.6875 
L 18.109375 46.1875 
Q 20.953125 51.171875 25.484375 53.578125 
Q 30.03125 56 36.53125 56 
Q 37.453125 56 38.578125 55.875 
Q 39.703125 55.765625 41.0625 55.515625 
z
" id="DejaVuSans-72"/>
     </defs>
     <g transform="translate(1203.520313 100.396563)scale(0.1 -0.1)">
      <use xlink:href="#DejaVuSans-66"/>
      <use x="35.205078" xlink:href="#DejaVuSans-69"/>
      <use x="62.988281" xlink:href="#DejaVuSans-6c"/>
      <use x="90.771484" xlink:href="#DejaVuSans-74"/>
      <use x="129.980469" xlink:href="#DejaVuSans-65"/>
      <use x="191.503906" xlink:href="#DejaVuSans-72"/>
      <use x="232.585938" xlink:href="#DejaVuSans-65"/>
      <use x="294.109375" xlink:href="#DejaVuSans-64"/>
      <use x="357.585938" xlink:href="#DejaVuSans-20"/>
      <use x="389.373047" xlink:href="#DejaVuSans-74"/>
      <use x="428.582031" xlink:href="#DejaVuSans-63"/>
      <use x="483.5625" xlink:href="#DejaVuSans-70"/>
      <use x="547.039062" xlink:href="#DejaVuSans-64"/>
      <use x="610.515625" xlink:href="#DejaVuSans-75"/>
      <use x="673.894531" xlink:href="#DejaVuSans-6d"/>
      <use x="771.306641" xlink:href="#DejaVuSans-70"/>
     </g>
    </g>
    <g id="line2d_23">
     <path d="M 1175.520313 111.574687 
L 1195.520313 111.574687 
" style="fill:none;stroke:#0000ff;stroke-linecap:square;stroke-width:1.5;"/>
    </g>
    <g id="line2d_24"/>
    <g id="text_18">
     <!-- OLS -->
     <defs>
      <path d="M 39.40625 66.21875 
Q 28.65625 66.21875 22.328125 58.203125 
Q 16.015625 50.203125 16.015625 36.375 
Q 16.015625 22.609375 22.328125 14.59375 
Q 28.65625 6.59375 39.40625 6.59375 
Q 50.140625 6.59375 56.421875 14.59375 
Q 62.703125 22.609375 62.703125 36.375 
Q 62.703125 50.203125 56.421875 58.203125 
Q 50.140625 66.21875 39.40625 66.21875 
z
M 39.40625 74.21875 
Q 54.734375 74.21875 63.90625 63.9375 
Q 73.09375 53.65625 73.09375 36.375 
Q 73.09375 19.140625 63.90625 8.859375 
Q 54.734375 -1.421875 39.40625 -1.421875 
Q 24.03125 -1.421875 14.8125 8.828125 
Q 5.609375 19.09375 5.609375 36.375 
Q 5.609375 53.65625 14.8125 63.9375 
Q 24.03125 74.21875 39.40625 74.21875 
z
" id="DejaVuSans-4f"/>
      <path d="M 9.8125 72.90625 
L 19.671875 72.90625 
L 19.671875 8.296875 
L 55.171875 8.296875 
L 55.171875 0 
L 9.8125 0 
z
" id="DejaVuSans-4c"/>
      <path d="M 53.515625 70.515625 
L 53.515625 60.890625 
Q 47.90625 63.578125 42.921875 64.890625 
Q 37.9375 66.21875 33.296875 66.21875 
Q 25.25 66.21875 20.875 63.09375 
Q 16.5 59.96875 16.5 54.203125 
Q 16.5 49.359375 19.40625 46.890625 
Q 22.3125 44.4375 30.421875 42.921875 
L 36.375 41.703125 
Q 47.40625 39.59375 52.65625 34.296875 
Q 57.90625 29 57.90625 20.125 
Q 57.90625 9.515625 50.796875 4.046875 
Q 43.703125 -1.421875 29.984375 -1.421875 
Q 24.8125 -1.421875 18.96875 -0.25 
Q 13.140625 0.921875 6.890625 3.21875 
L 6.890625 13.375 
Q 12.890625 10.015625 18.65625 8.296875 
Q 24.421875 6.59375 29.984375 6.59375 
Q 38.421875 6.59375 43.015625 9.90625 
Q 47.609375 13.234375 47.609375 19.390625 
Q 47.609375 24.75 44.3125 27.78125 
Q 41.015625 30.8125 33.5 32.328125 
L 27.484375 33.5 
Q 16.453125 35.6875 11.515625 40.375 
Q 6.59375 45.0625 6.59375 53.421875 
Q 6.59375 63.09375 13.40625 68.65625 
Q 20.21875 74.21875 32.171875 74.21875 
Q 37.3125 74.21875 42.625 73.28125 
Q 47.953125 72.359375 53.515625 70.515625 
z
" id="DejaVuSans-53"/>
     </defs>
     <g transform="translate(1203.520313 115.074687)scale(0.1 -0.1)">
      <use xlink:href="#DejaVuSans-4f"/>
      <use x="78.710938" xlink:href="#DejaVuSans-4c"/>
      <use x="134.423828" xlink:href="#DejaVuSans-53"/>
     </g>
    </g>
    <g id="line2d_25">
     <path d="M 1175.520313 126.252813 
L 1195.520313 126.252813 
" style="fill:none;stroke:#008000;stroke-linecap:square;stroke-width:1.5;"/>
    </g>
    <g id="line2d_26">
     <g>
      <use style="fill:#008000;stroke:#008000;" x="1185.520313" xlink:href="#mf3d844b54f" y="126.252813"/>
     </g>
    </g>
    <g id="text_19">
     <!-- IRLS -->
     <defs>
      <path d="M 9.8125 72.90625 
L 19.671875 72.90625 
L 19.671875 0 
L 9.8125 0 
z
" id="DejaVuSans-49"/>
      <path d="M 44.390625 34.1875 
Q 47.5625 33.109375 50.5625 29.59375 
Q 53.5625 26.078125 56.59375 19.921875 
L 66.609375 0 
L 56 0 
L 46.6875 18.703125 
Q 43.0625 26.03125 39.671875 28.421875 
Q 36.28125 30.8125 30.421875 30.8125 
L 19.671875 30.8125 
L 19.671875 0 
L 9.8125 0 
L 9.8125 72.90625 
L 32.078125 72.90625 
Q 44.578125 72.90625 50.734375 67.671875 
Q 56.890625 62.453125 56.890625 51.90625 
Q 56.890625 45.015625 53.6875 40.46875 
Q 50.484375 35.9375 44.390625 34.1875 
z
M 19.671875 64.796875 
L 19.671875 38.921875 
L 32.078125 38.921875 
Q 39.203125 38.921875 42.84375 42.21875 
Q 46.484375 45.515625 46.484375 51.90625 
Q 46.484375 58.296875 42.84375 61.546875 
Q 39.203125 64.796875 32.078125 64.796875 
z
" id="DejaVuSans-52"/>
     </defs>
     <g transform="translate(1203.520313 129.752813)scale(0.1 -0.1)">
      <use xlink:href="#DejaVuSans-49"/>
      <use x="29.492188" xlink:href="#DejaVuSans-52"/>
      <use x="98.974609" xlink:href="#DejaVuSans-4c"/>
      <use x="154.6875" xlink:href="#DejaVuSans-53"/>
     </g>
    </g>
   </g>
  </g>
 </g>
 <defs>
  <clipPath id="p09be3d5c1a">
   <rect height="443.52" width="1116" x="180" y="69.12"/>
  </clipPath>
 </defs>
</svg>
