<?xml version="1.0" encoding="utf-8" standalone="no"?>
<!DOCTYPE svg PUBLIC "-//W3C//DTD SVG 1.1//EN"
  "http://www.w3.org/Graphics/SVG/1.1/DTD/svg11.dtd">
<!-- Created with matplotlib (http://matplotlib.org/) -->
<svg height="576pt" version="1.1" viewBox="0 0 1440 576" width="1440pt" xmlns="http://www.w3.org/2000/svg" xmlns:xlink="http://www.w3.org/1999/xlink">
 <defs>
  <style type="text/css">
*{stroke-linecap:butt;stroke-linejoin:round;}
  </style>
 </defs>
 <g id="figure_1">
  <g id="patch_1">
   <path d="M 0 576 
L 1440 576 
L 1440 0 
L 0 0 
z
" style="fill:#ffffff;"/>
  </g>
  <g id="axes_1">
   <g id="patch_2">
    <path d="M 180 512.64 
L 1296 512.64 
L 1296 69.12 
L 180 69.12 
z
" style="fill:#ffffff;"/>
   </g>
   <g id="matplotlib.axis_1">
    <g id="xtick_1">
     <g id="line2d_1">
      <defs>
       <path d="M 0 0 
L 0 3.5 
" id="m2bdb9c7f2f" style="stroke:#000000;stroke-width:0.8;"/>
      </defs>
      <g>
       <use style="stroke:#000000;stroke-width:0.8;" x="230.727273" xlink:href="#m2bdb9c7f2f" y="512.64"/>
      </g>
     </g>
     <g id="text_1">
      <!-- 0.0 -->
      <defs>
       <path d="M 31.78125 66.40625 
Q 24.171875 66.40625 20.328125 58.90625 
Q 16.5 51.421875 16.5 36.375 
Q 16.5 21.390625 20.328125 13.890625 
Q 24.171875 6.390625 31.78125 6.390625 
Q 39.453125 6.390625 43.28125 13.890625 
Q 47.125 21.390625 47.125 36.375 
Q 47.125 51.421875 43.28125 58.90625 
Q 39.453125 66.40625 31.78125 66.40625 
z
M 31.78125 74.21875 
Q 44.046875 74.21875 50.515625 64.515625 
Q 56.984375 54.828125 56.984375 36.375 
Q 56.984375 17.96875 50.515625 8.265625 
Q 44.046875 -1.421875 31.78125 -1.421875 
Q 19.53125 -1.421875 13.0625 8.265625 
Q 6.59375 17.96875 6.59375 36.375 
Q 6.59375 54.828125 13.0625 64.515625 
Q 19.53125 74.21875 31.78125 74.21875 
z
" id="DejaVuSans-30"/>
       <path d="M 10.6875 12.40625 
L 21 12.40625 
L 21 0 
L 10.6875 0 
z
" id="DejaVuSans-2e"/>
      </defs>
      <g transform="translate(222.77571 527.238438)scale(0.1 -0.1)">
       <use xlink:href="#DejaVuSans-30"/>
       <use x="63.623047" xlink:href="#DejaVuSans-2e"/>
       <use x="95.410156" xlink:href="#DejaVuSans-30"/>
      </g>
     </g>
    </g>
    <g id="xtick_2">
     <g id="line2d_2">
      <g>
       <use style="stroke:#000000;stroke-width:0.8;" x="382.668568" xlink:href="#m2bdb9c7f2f" y="512.64"/>
      </g>
     </g>
     <g id="text_2">
      <!-- 0.2 -->
      <defs>
       <path d="M 19.1875 8.296875 
L 53.609375 8.296875 
L 53.609375 0 
L 7.328125 0 
L 7.328125 8.296875 
Q 12.9375 14.109375 22.625 23.890625 
Q 32.328125 33.6875 34.8125 36.53125 
Q 39.546875 41.84375 41.421875 45.53125 
Q 43.3125 49.21875 43.3125 52.78125 
Q 43.3125 58.59375 39.234375 62.25 
Q 35.15625 65.921875 28.609375 65.921875 
Q 23.96875 65.921875 18.8125 64.3125 
Q 13.671875 62.703125 7.8125 59.421875 
L 7.8125 69.390625 
Q 13.765625 71.78125 18.9375 73 
Q 24.125 74.21875 28.421875 74.21875 
Q 39.75 74.21875 46.484375 68.546875 
Q 53.21875 62.890625 53.21875 53.421875 
Q 53.21875 48.921875 51.53125 44.890625 
Q 49.859375 40.875 45.40625 35.40625 
Q 44.1875 33.984375 37.640625 27.21875 
Q 31.109375 20.453125 19.1875 8.296875 
z
" id="DejaVuSans-32"/>
      </defs>
      <g transform="translate(374.717005 527.238438)scale(0.1 -0.1)">
       <use xlink:href="#DejaVuSans-30"/>
       <use x="63.623047" xlink:href="#DejaVuSans-2e"/>
       <use x="95.410156" xlink:href="#DejaVuSans-32"/>
      </g>
     </g>
    </g>
    <g id="xtick_3">
     <g id="line2d_3">
      <g>
       <use style="stroke:#000000;stroke-width:0.8;" x="534.609863" xlink:href="#m2bdb9c7f2f" y="512.64"/>
      </g>
     </g>
     <g id="text_3">
      <!-- 0.4 -->
      <defs>
       <path d="M 37.796875 64.3125 
L 12.890625 25.390625 
L 37.796875 25.390625 
z
M 35.203125 72.90625 
L 47.609375 72.90625 
L 47.609375 25.390625 
L 58.015625 25.390625 
L 58.015625 17.1875 
L 47.609375 17.1875 
L 47.609375 0 
L 37.796875 0 
L 37.796875 17.1875 
L 4.890625 17.1875 
L 4.890625 26.703125 
z
" id="DejaVuSans-34"/>
      </defs>
      <g transform="translate(526.6583 527.238438)scale(0.1 -0.1)">
       <use xlink:href="#DejaVuSans-30"/>
       <use x="63.623047" xlink:href="#DejaVuSans-2e"/>
       <use x="95.410156" xlink:href="#DejaVuSans-34"/>
      </g>
     </g>
    </g>
    <g id="xtick_4">
     <g id="line2d_4">
      <g>
       <use style="stroke:#000000;stroke-width:0.8;" x="686.551158" xlink:href="#m2bdb9c7f2f" y="512.64"/>
      </g>
     </g>
     <g id="text_4">
      <!-- 0.6 -->
      <defs>
       <path d="M 33.015625 40.375 
Q 26.375 40.375 22.484375 35.828125 
Q 18.609375 31.296875 18.609375 23.390625 
Q 18.609375 15.53125 22.484375 10.953125 
Q 26.375 6.390625 33.015625 6.390625 
Q 39.65625 6.390625 43.53125 10.953125 
Q 47.40625 15.53125 47.40625 23.390625 
Q 47.40625 31.296875 43.53125 35.828125 
Q 39.65625 40.375 33.015625 40.375 
z
M 52.59375 71.296875 
L 52.59375 62.3125 
Q 48.875 64.0625 45.09375 64.984375 
Q 41.3125 65.921875 37.59375 65.921875 
Q 27.828125 65.921875 22.671875 59.328125 
Q 17.53125 52.734375 16.796875 39.40625 
Q 19.671875 43.65625 24.015625 45.921875 
Q 28.375 48.1875 33.59375 48.1875 
Q 44.578125 48.1875 50.953125 41.515625 
Q 57.328125 34.859375 57.328125 23.390625 
Q 57.328125 12.15625 50.6875 5.359375 
Q 44.046875 -1.421875 33.015625 -1.421875 
Q 20.359375 -1.421875 13.671875 8.265625 
Q 6.984375 17.96875 6.984375 36.375 
Q 6.984375 53.65625 15.1875 63.9375 
Q 23.390625 74.21875 37.203125 74.21875 
Q 40.921875 74.21875 44.703125 73.484375 
Q 48.484375 72.75 52.59375 71.296875 
z
" id="DejaVuSans-36"/>
      </defs>
      <g transform="translate(678.599596 527.238438)scale(0.1 -0.1)">
       <use xlink:href="#DejaVuSans-30"/>
       <use x="63.623047" xlink:href="#DejaVuSans-2e"/>
       <use x="95.410156" xlink:href="#DejaVuSans-36"/>
      </g>
     </g>
    </g>
    <g id="xtick_5">
     <g id="line2d_5">
      <g>
       <use style="stroke:#000000;stroke-width:0.8;" x="838.492453" xlink:href="#m2bdb9c7f2f" y="512.64"/>
      </g>
     </g>
     <g id="text_5">
      <!-- 0.8 -->
      <defs>
       <path d="M 31.78125 34.625 
Q 24.75 34.625 20.71875 30.859375 
Q 16.703125 27.09375 16.703125 20.515625 
Q 16.703125 13.921875 20.71875 10.15625 
Q 24.75 6.390625 31.78125 6.390625 
Q 38.8125 6.390625 42.859375 10.171875 
Q 46.921875 13.96875 46.921875 20.515625 
Q 46.921875 27.09375 42.890625 30.859375 
Q 38.875 34.625 31.78125 34.625 
z
M 21.921875 38.8125 
Q 15.578125 40.375 12.03125 44.71875 
Q 8.5 49.078125 8.5 55.328125 
Q 8.5 64.0625 14.71875 69.140625 
Q 20.953125 74.21875 31.78125 74.21875 
Q 42.671875 74.21875 48.875 69.140625 
Q 55.078125 64.0625 55.078125 55.328125 
Q 55.078125 49.078125 51.53125 44.71875 
Q 48 40.375 41.703125 38.8125 
Q 48.828125 37.15625 52.796875 32.3125 
Q 56.78125 27.484375 56.78125 20.515625 
Q 56.78125 9.90625 50.3125 4.234375 
Q 43.84375 -1.421875 31.78125 -1.421875 
Q 19.734375 -1.421875 13.25 4.234375 
Q 6.78125 9.90625 6.78125 20.515625 
Q 6.78125 27.484375 10.78125 32.3125 
Q 14.796875 37.15625 21.921875 38.8125 
z
M 18.3125 54.390625 
Q 18.3125 48.734375 21.84375 45.5625 
Q 25.390625 42.390625 31.78125 42.390625 
Q 38.140625 42.390625 41.71875 45.5625 
Q 45.3125 48.734375 45.3125 54.390625 
Q 45.3125 60.0625 41.71875 63.234375 
Q 38.140625 66.40625 31.78125 66.40625 
Q 25.390625 66.40625 21.84375 63.234375 
Q 18.3125 60.0625 18.3125 54.390625 
z
" id="DejaVuSans-38"/>
      </defs>
      <g transform="translate(830.540891 527.238438)scale(0.1 -0.1)">
       <use xlink:href="#DejaVuSans-30"/>
       <use x="63.623047" xlink:href="#DejaVuSans-2e"/>
       <use x="95.410156" xlink:href="#DejaVuSans-38"/>
      </g>
     </g>
    </g>
    <g id="xtick_6">
     <g id="line2d_6">
      <g>
       <use style="stroke:#000000;stroke-width:0.8;" x="990.433748" xlink:href="#m2bdb9c7f2f" y="512.64"/>
      </g>
     </g>
     <g id="text_6">
      <!-- 1.0 -->
      <defs>
       <path d="M 12.40625 8.296875 
L 28.515625 8.296875 
L 28.515625 63.921875 
L 10.984375 60.40625 
L 10.984375 69.390625 
L 28.421875 72.90625 
L 38.28125 72.90625 
L 38.28125 8.296875 
L 54.390625 8.296875 
L 54.390625 0 
L 12.40625 0 
z
" id="DejaVuSans-31"/>
      </defs>
      <g transform="translate(982.482186 527.238438)scale(0.1 -0.1)">
       <use xlink:href="#DejaVuSans-31"/>
       <use x="63.623047" xlink:href="#DejaVuSans-2e"/>
       <use x="95.410156" xlink:href="#DejaVuSans-30"/>
      </g>
     </g>
    </g>
    <g id="xtick_7">
     <g id="line2d_7">
      <g>
       <use style="stroke:#000000;stroke-width:0.8;" x="1142.375043" xlink:href="#m2bdb9c7f2f" y="512.64"/>
      </g>
     </g>
     <g id="text_7">
      <!-- 1.2 -->
      <g transform="translate(1134.423481 527.238438)scale(0.1 -0.1)">
       <use xlink:href="#DejaVuSans-31"/>
       <use x="63.623047" xlink:href="#DejaVuSans-2e"/>
       <use x="95.410156" xlink:href="#DejaVuSans-32"/>
      </g>
     </g>
    </g>
    <g id="xtick_8">
     <g id="line2d_8">
      <g>
       <use style="stroke:#000000;stroke-width:0.8;" x="1294.316339" xlink:href="#m2bdb9c7f2f" y="512.64"/>
      </g>
     </g>
     <g id="text_8">
      <!-- 1.4 -->
      <g transform="translate(1286.364776 527.238438)scale(0.1 -0.1)">
       <use xlink:href="#DejaVuSans-31"/>
       <use x="63.623047" xlink:href="#DejaVuSans-2e"/>
       <use x="95.410156" xlink:href="#DejaVuSans-34"/>
      </g>
     </g>
    </g>
   </g>
   <g id="matplotlib.axis_2">
    <g id="ytick_1">
     <g id="line2d_9">
      <defs>
       <path d="M 0 0 
L -3.5 0 
" id="m5409456c56" style="stroke:#000000;stroke-width:0.8;"/>
      </defs>
      <g>
       <use style="stroke:#000000;stroke-width:0.8;" x="180" xlink:href="#m5409456c56" y="465.921916"/>
      </g>
     </g>
     <g id="text_9">
      <!-- 0.3004 -->
      <defs>
       <path d="M 40.578125 39.3125 
Q 47.65625 37.796875 51.625 33 
Q 55.609375 28.21875 55.609375 21.1875 
Q 55.609375 10.40625 48.1875 4.484375 
Q 40.765625 -1.421875 27.09375 -1.421875 
Q 22.515625 -1.421875 17.65625 -0.515625 
Q 12.796875 0.390625 7.625 2.203125 
L 7.625 11.71875 
Q 11.71875 9.328125 16.59375 8.109375 
Q 21.484375 6.890625 26.8125 6.890625 
Q 36.078125 6.890625 40.9375 10.546875 
Q 45.796875 14.203125 45.796875 21.1875 
Q 45.796875 27.640625 41.28125 31.265625 
Q 36.765625 34.90625 28.71875 34.90625 
L 20.21875 34.90625 
L 20.21875 43.015625 
L 29.109375 43.015625 
Q 36.375 43.015625 40.234375 45.921875 
Q 44.09375 48.828125 44.09375 54.296875 
Q 44.09375 59.90625 40.109375 62.90625 
Q 36.140625 65.921875 28.71875 65.921875 
Q 24.65625 65.921875 20.015625 65.03125 
Q 15.375 64.15625 9.8125 62.3125 
L 9.8125 71.09375 
Q 15.4375 72.65625 20.34375 73.4375 
Q 25.25 74.21875 29.59375 74.21875 
Q 40.828125 74.21875 47.359375 69.109375 
Q 53.90625 64.015625 53.90625 55.328125 
Q 53.90625 49.265625 50.4375 45.09375 
Q 46.96875 40.921875 40.578125 39.3125 
z
" id="DejaVuSans-33"/>
      </defs>
      <g transform="translate(138.009375 469.721135)scale(0.1 -0.1)">
       <use xlink:href="#DejaVuSans-30"/>
       <use x="63.623047" xlink:href="#DejaVuSans-2e"/>
       <use x="95.410156" xlink:href="#DejaVuSans-33"/>
       <use x="159.033203" xlink:href="#DejaVuSans-30"/>
       <use x="222.65625" xlink:href="#DejaVuSans-30"/>
       <use x="286.279297" xlink:href="#DejaVuSans-34"/>
      </g>
     </g>
    </g>
    <g id="ytick_2">
     <g id="line2d_10">
      <g>
       <use style="stroke:#000000;stroke-width:0.8;" x="180" xlink:href="#m5409456c56" y="405.562635"/>
      </g>
     </g>
     <g id="text_10">
      <!-- 0.3005 -->
      <defs>
       <path d="M 10.796875 72.90625 
L 49.515625 72.90625 
L 49.515625 64.59375 
L 19.828125 64.59375 
L 19.828125 46.734375 
Q 21.96875 47.46875 24.109375 47.828125 
Q 26.265625 48.1875 28.421875 48.1875 
Q 40.625 48.1875 47.75 41.5 
Q 54.890625 34.8125 54.890625 23.390625 
Q 54.890625 11.625 47.5625 5.09375 
Q 40.234375 -1.421875 26.90625 -1.421875 
Q 22.3125 -1.421875 17.546875 -0.640625 
Q 12.796875 0.140625 7.71875 1.703125 
L 7.71875 11.625 
Q 12.109375 9.234375 16.796875 8.0625 
Q 21.484375 6.890625 26.703125 6.890625 
Q 35.15625 6.890625 40.078125 11.328125 
Q 45.015625 15.765625 45.015625 23.390625 
Q 45.015625 31 40.078125 35.4375 
Q 35.15625 39.890625 26.703125 39.890625 
Q 22.75 39.890625 18.8125 39.015625 
Q 14.890625 38.140625 10.796875 36.28125 
z
" id="DejaVuSans-35"/>
      </defs>
      <g transform="translate(138.009375 409.361853)scale(0.1 -0.1)">
       <use xlink:href="#DejaVuSans-30"/>
       <use x="63.623047" xlink:href="#DejaVuSans-2e"/>
       <use x="95.410156" xlink:href="#DejaVuSans-33"/>
       <use x="159.033203" xlink:href="#DejaVuSans-30"/>
       <use x="222.65625" xlink:href="#DejaVuSans-30"/>
       <use x="286.279297" xlink:href="#DejaVuSans-35"/>
      </g>
     </g>
    </g>
    <g id="ytick_3">
     <g id="line2d_11">
      <g>
       <use style="stroke:#000000;stroke-width:0.8;" x="180" xlink:href="#m5409456c56" y="345.203353"/>
      </g>
     </g>
     <g id="text_11">
      <!-- 0.3006 -->
      <g transform="translate(138.009375 349.002572)scale(0.1 -0.1)">
       <use xlink:href="#DejaVuSans-30"/>
       <use x="63.623047" xlink:href="#DejaVuSans-2e"/>
       <use x="95.410156" xlink:href="#DejaVuSans-33"/>
       <use x="159.033203" xlink:href="#DejaVuSans-30"/>
       <use x="222.65625" xlink:href="#DejaVuSans-30"/>
       <use x="286.279297" xlink:href="#DejaVuSans-36"/>
      </g>
     </g>
    </g>
    <g id="ytick_4">
     <g id="line2d_12">
      <g>
       <use style="stroke:#000000;stroke-width:0.8;" x="180" xlink:href="#m5409456c56" y="284.844072"/>
      </g>
     </g>
     <g id="text_12">
      <!-- 0.3007 -->
      <defs>
       <path d="M 8.203125 72.90625 
L 55.078125 72.90625 
L 55.078125 68.703125 
L 28.609375 0 
L 18.3125 0 
L 43.21875 64.59375 
L 8.203125 64.59375 
z
" id="DejaVuSans-37"/>
      </defs>
      <g transform="translate(138.009375 288.643291)scale(0.1 -0.1)">
       <use xlink:href="#DejaVuSans-30"/>
       <use x="63.623047" xlink:href="#DejaVuSans-2e"/>
       <use x="95.410156" xlink:href="#DejaVuSans-33"/>
       <use x="159.033203" xlink:href="#DejaVuSans-30"/>
       <use x="222.65625" xlink:href="#DejaVuSans-30"/>
       <use x="286.279297" xlink:href="#DejaVuSans-37"/>
      </g>
     </g>
    </g>
    <g id="ytick_5">
     <g id="line2d_13">
      <g>
       <use style="stroke:#000000;stroke-width:0.8;" x="180" xlink:href="#m5409456c56" y="224.48479"/>
      </g>
     </g>
     <g id="text_13">
      <!-- 0.3008 -->
      <g transform="translate(138.009375 228.284009)scale(0.1 -0.1)">
       <use xlink:href="#DejaVuSans-30"/>
       <use x="63.623047" xlink:href="#DejaVuSans-2e"/>
       <use x="95.410156" xlink:href="#DejaVuSans-33"/>
       <use x="159.033203" xlink:href="#DejaVuSans-30"/>
       <use x="222.65625" xlink:href="#DejaVuSans-30"/>
       <use x="286.279297" xlink:href="#DejaVuSans-38"/>
      </g>
     </g>
    </g>
    <g id="ytick_6">
     <g id="line2d_14">
      <g>
       <use style="stroke:#000000;stroke-width:0.8;" x="180" xlink:href="#m5409456c56" y="164.125509"/>
      </g>
     </g>
     <g id="text_14">
      <!-- 0.3009 -->
      <defs>
       <path d="M 10.984375 1.515625 
L 10.984375 10.5 
Q 14.703125 8.734375 18.5 7.8125 
Q 22.3125 6.890625 25.984375 6.890625 
Q 35.75 6.890625 40.890625 13.453125 
Q 46.046875 20.015625 46.78125 33.40625 
Q 43.953125 29.203125 39.59375 26.953125 
Q 35.25 24.703125 29.984375 24.703125 
Q 19.046875 24.703125 12.671875 31.3125 
Q 6.296875 37.9375 6.296875 49.421875 
Q 6.296875 60.640625 12.9375 67.421875 
Q 19.578125 74.21875 30.609375 74.21875 
Q 43.265625 74.21875 49.921875 64.515625 
Q 56.59375 54.828125 56.59375 36.375 
Q 56.59375 19.140625 48.40625 8.859375 
Q 40.234375 -1.421875 26.421875 -1.421875 
Q 22.703125 -1.421875 18.890625 -0.6875 
Q 15.09375 0.046875 10.984375 1.515625 
z
M 30.609375 32.421875 
Q 37.25 32.421875 41.125 36.953125 
Q 45.015625 41.5 45.015625 49.421875 
Q 45.015625 57.28125 41.125 61.84375 
Q 37.25 66.40625 30.609375 66.40625 
Q 23.96875 66.40625 20.09375 61.84375 
Q 16.21875 57.28125 16.21875 49.421875 
Q 16.21875 41.5 20.09375 36.953125 
Q 23.96875 32.421875 30.609375 32.421875 
z
" id="DejaVuSans-39"/>
      </defs>
      <g transform="translate(138.009375 167.924728)scale(0.1 -0.1)">
       <use xlink:href="#DejaVuSans-30"/>
       <use x="63.623047" xlink:href="#DejaVuSans-2e"/>
       <use x="95.410156" xlink:href="#DejaVuSans-33"/>
       <use x="159.033203" xlink:href="#DejaVuSans-30"/>
       <use x="222.65625" xlink:href="#DejaVuSans-30"/>
       <use x="286.279297" xlink:href="#DejaVuSans-39"/>
      </g>
     </g>
    </g>
    <g id="ytick_7">
     <g id="line2d_15">
      <g>
       <use style="stroke:#000000;stroke-width:0.8;" x="180" xlink:href="#m5409456c56" y="103.766228"/>
      </g>
     </g>
     <g id="text_15">
      <!-- 0.3010 -->
      <g transform="translate(138.009375 107.565446)scale(0.1 -0.1)">
       <use xlink:href="#DejaVuSans-30"/>
       <use x="63.623047" xlink:href="#DejaVuSans-2e"/>
       <use x="95.410156" xlink:href="#DejaVuSans-33"/>
       <use x="159.033203" xlink:href="#DejaVuSans-30"/>
       <use x="222.65625" xlink:href="#DejaVuSans-31"/>
       <use x="286.279297" xlink:href="#DejaVuSans-30"/>
      </g>
     </g>
    </g>
   </g>
   <g id="line2d_16">
    <path clip-path="url(#p25323b2f1b)" d="M 230.727273 433.931497 
L 241.492313 355.464431 
L 251.472577 420.652455 
L 261.398902 438.76024 
L 272.392615 407.977006 
L 282.31742 434.53509 
L 292.242225 470.147066 
L 302.960164 462.903952 
L 312.882691 440.571018 
L 322.802178 471.957844 
L 333.647748 390.472814 
L 343.558119 449.62491 
L 353.469249 452.039281 
L 364.335331 388.058443 
L 374.257857 453.246467 
L 384.187981 475.579401 
L 395.03431 321.059641 
L 404.955317 429.706347 
L 414.883921 473.16503 
L 425.701381 471.354251 
L 435.639102 461.093174 
L 445.596575 477.39018 
L 456.430749 474.372216 
L 466.397338 465.921916 
L 476.379121 463.507545 
L 487.286987 483.426108 
L 497.26953 457.471617 
L 507.275624 474.372216 
L 518.161458 405.562635 
L 528.12045 457.471617 
L 538.068807 476.786587 
L 548.787505 460.489581 
L 558.772327 456.868024 
L 568.663706 482.218922 
L 579.328465 459.282395 
L 589.181099 465.318323 
L 599.061841 492.48 
L 610.009971 386.851257 
L 619.861085 462.903952 
L 629.706121 492.48 
L 640.702872 258.889581 
L 650.560823 462.903952 
L 660.409658 476.182994 
L 671.56139 488.858443 
L 681.406426 474.975808 
L 691.252981 490.669222 
L 702.420667 485.840479 
L 712.269501 469.543473 
L 722.136569 475.579401 
L 733.075583 385.644072 
L 742.936573 468.93988 
L 752.796803 476.182994 
L 763.83002 461.093174 
L 773.7176 464.111138 
L 783.547442 463.507545 
L 794.479618 280.015329 
L 804.369477 459.282395 
L 814.225909 471.354251 
L 825.101867 397.715928 
L 834.943864 454.453653 
L 844.886903 463.507545 
L 855.862382 419.445269 
L 865.719574 454.453653 
L 875.569168 471.354251 
L 886.502864 434.53509 
L 896.355497 462.300359 
L 906.203572 475.579401 
L 917.148663 371.761437 
L 927.040801 457.471617 
L 936.938257 462.300359 
L 948.012498 459.282395 
L 958.026189 435.138683 
L 968.599024 360.293174 
L 978.740346 467.732695 
L 988.766952 89.28 
L 999.371695 452.039281 
L 1009.437806 410.99497 
L 1019.456055 448.417725 
L 1030.084349 377.797365 
L 1040.150459 300.537485 
L 1050.186182 451.435689 
L 1060.731668 343.392575 
L 1070.919331 428.499162 
L 1080.951255 458.07521 
L 1091.581068 445.39976 
L 1101.62059 285.447665 
L 1111.63504 453.85006 
L 1122.245101 444.192575 
L 1132.356034 431.517126 
L 1142.361369 451.435689 
L 1152.954716 357.878802 
L 1163.191761 196.115928 
L 1173.139357 450.832096 
L 1183.89908 415.823713 
L 1193.887701 470.147066 
L 1203.787436 453.246467 
L 1214.538802 423.670419 
L 1224.591238 454.453653 
L 1234.515284 431.517126 
L 1245.272727 327.095569 
" style="fill:none;stroke:#ff0000;stroke-dasharray:5.55,2.4;stroke-dashoffset:0;stroke-width:1.5;"/>
    <defs>
     <path d="M -3 3 
L 3 3 
L 3 -3 
L -3 -3 
z
" id="m8706d33c77" style="stroke:#ff0000;stroke-linejoin:miter;"/>
    </defs>
    <g clip-path="url(#p25323b2f1b)">
     <use style="fill:#ff0000;stroke:#ff0000;stroke-linejoin:miter;" x="230.727273" xlink:href="#m8706d33c77" y="433.931497"/>
     <use style="fill:#ff0000;stroke:#ff0000;stroke-linejoin:miter;" x="241.492313" xlink:href="#m8706d33c77" y="355.464431"/>
     <use style="fill:#ff0000;stroke:#ff0000;stroke-linejoin:miter;" x="251.472577" xlink:href="#m8706d33c77" y="420.652455"/>
     <use style="fill:#ff0000;stroke:#ff0000;stroke-linejoin:miter;" x="261.398902" xlink:href="#m8706d33c77" y="438.76024"/>
     <use style="fill:#ff0000;stroke:#ff0000;stroke-linejoin:miter;" x="272.392615" xlink:href="#m8706d33c77" y="407.977006"/>
     <use style="fill:#ff0000;stroke:#ff0000;stroke-linejoin:miter;" x="282.31742" xlink:href="#m8706d33c77" y="434.53509"/>
     <use style="fill:#ff0000;stroke:#ff0000;stroke-linejoin:miter;" x="292.242225" xlink:href="#m8706d33c77" y="470.147066"/>
     <use style="fill:#ff0000;stroke:#ff0000;stroke-linejoin:miter;" x="302.960164" xlink:href="#m8706d33c77" y="462.903952"/>
     <use style="fill:#ff0000;stroke:#ff0000;stroke-linejoin:miter;" x="312.882691" xlink:href="#m8706d33c77" y="440.571018"/>
     <use style="fill:#ff0000;stroke:#ff0000;stroke-linejoin:miter;" x="322.802178" xlink:href="#m8706d33c77" y="471.957844"/>
     <use style="fill:#ff0000;stroke:#ff0000;stroke-linejoin:miter;" x="333.647748" xlink:href="#m8706d33c77" y="390.472814"/>
     <use style="fill:#ff0000;stroke:#ff0000;stroke-linejoin:miter;" x="343.558119" xlink:href="#m8706d33c77" y="449.62491"/>
     <use style="fill:#ff0000;stroke:#ff0000;stroke-linejoin:miter;" x="353.469249" xlink:href="#m8706d33c77" y="452.039281"/>
     <use style="fill:#ff0000;stroke:#ff0000;stroke-linejoin:miter;" x="364.335331" xlink:href="#m8706d33c77" y="388.058443"/>
     <use style="fill:#ff0000;stroke:#ff0000;stroke-linejoin:miter;" x="374.257857" xlink:href="#m8706d33c77" y="453.246467"/>
     <use style="fill:#ff0000;stroke:#ff0000;stroke-linejoin:miter;" x="384.187981" xlink:href="#m8706d33c77" y="475.579401"/>
     <use style="fill:#ff0000;stroke:#ff0000;stroke-linejoin:miter;" x="395.03431" xlink:href="#m8706d33c77" y="321.059641"/>
     <use style="fill:#ff0000;stroke:#ff0000;stroke-linejoin:miter;" x="404.955317" xlink:href="#m8706d33c77" y="429.706347"/>
     <use style="fill:#ff0000;stroke:#ff0000;stroke-linejoin:miter;" x="414.883921" xlink:href="#m8706d33c77" y="473.16503"/>
     <use style="fill:#ff0000;stroke:#ff0000;stroke-linejoin:miter;" x="425.701381" xlink:href="#m8706d33c77" y="471.354251"/>
     <use style="fill:#ff0000;stroke:#ff0000;stroke-linejoin:miter;" x="435.639102" xlink:href="#m8706d33c77" y="461.093174"/>
     <use style="fill:#ff0000;stroke:#ff0000;stroke-linejoin:miter;" x="445.596575" xlink:href="#m8706d33c77" y="477.39018"/>
     <use style="fill:#ff0000;stroke:#ff0000;stroke-linejoin:miter;" x="456.430749" xlink:href="#m8706d33c77" y="474.372216"/>
     <use style="fill:#ff0000;stroke:#ff0000;stroke-linejoin:miter;" x="466.397338" xlink:href="#m8706d33c77" y="465.921916"/>
     <use style="fill:#ff0000;stroke:#ff0000;stroke-linejoin:miter;" x="476.379121" xlink:href="#m8706d33c77" y="463.507545"/>
     <use style="fill:#ff0000;stroke:#ff0000;stroke-linejoin:miter;" x="487.286987" xlink:href="#m8706d33c77" y="483.426108"/>
     <use style="fill:#ff0000;stroke:#ff0000;stroke-linejoin:miter;" x="497.26953" xlink:href="#m8706d33c77" y="457.471617"/>
     <use style="fill:#ff0000;stroke:#ff0000;stroke-linejoin:miter;" x="507.275624" xlink:href="#m8706d33c77" y="474.372216"/>
     <use style="fill:#ff0000;stroke:#ff0000;stroke-linejoin:miter;" x="518.161458" xlink:href="#m8706d33c77" y="405.562635"/>
     <use style="fill:#ff0000;stroke:#ff0000;stroke-linejoin:miter;" x="528.12045" xlink:href="#m8706d33c77" y="457.471617"/>
     <use style="fill:#ff0000;stroke:#ff0000;stroke-linejoin:miter;" x="538.068807" xlink:href="#m8706d33c77" y="476.786587"/>
     <use style="fill:#ff0000;stroke:#ff0000;stroke-linejoin:miter;" x="548.787505" xlink:href="#m8706d33c77" y="460.489581"/>
     <use style="fill:#ff0000;stroke:#ff0000;stroke-linejoin:miter;" x="558.772327" xlink:href="#m8706d33c77" y="456.868024"/>
     <use style="fill:#ff0000;stroke:#ff0000;stroke-linejoin:miter;" x="568.663706" xlink:href="#m8706d33c77" y="482.218922"/>
     <use style="fill:#ff0000;stroke:#ff0000;stroke-linejoin:miter;" x="579.328465" xlink:href="#m8706d33c77" y="459.282395"/>
     <use style="fill:#ff0000;stroke:#ff0000;stroke-linejoin:miter;" x="589.181099" xlink:href="#m8706d33c77" y="465.318323"/>
     <use style="fill:#ff0000;stroke:#ff0000;stroke-linejoin:miter;" x="599.061841" xlink:href="#m8706d33c77" y="492.48"/>
     <use style="fill:#ff0000;stroke:#ff0000;stroke-linejoin:miter;" x="610.009971" xlink:href="#m8706d33c77" y="386.851257"/>
     <use style="fill:#ff0000;stroke:#ff0000;stroke-linejoin:miter;" x="619.861085" xlink:href="#m8706d33c77" y="462.903952"/>
     <use style="fill:#ff0000;stroke:#ff0000;stroke-linejoin:miter;" x="629.706121" xlink:href="#m8706d33c77" y="492.48"/>
     <use style="fill:#ff0000;stroke:#ff0000;stroke-linejoin:miter;" x="640.702872" xlink:href="#m8706d33c77" y="258.889581"/>
     <use style="fill:#ff0000;stroke:#ff0000;stroke-linejoin:miter;" x="650.560823" xlink:href="#m8706d33c77" y="462.903952"/>
     <use style="fill:#ff0000;stroke:#ff0000;stroke-linejoin:miter;" x="660.409658" xlink:href="#m8706d33c77" y="476.182994"/>
     <use style="fill:#ff0000;stroke:#ff0000;stroke-linejoin:miter;" x="671.56139" xlink:href="#m8706d33c77" y="488.858443"/>
     <use style="fill:#ff0000;stroke:#ff0000;stroke-linejoin:miter;" x="681.406426" xlink:href="#m8706d33c77" y="474.975808"/>
     <use style="fill:#ff0000;stroke:#ff0000;stroke-linejoin:miter;" x="691.252981" xlink:href="#m8706d33c77" y="490.669222"/>
     <use style="fill:#ff0000;stroke:#ff0000;stroke-linejoin:miter;" x="702.420667" xlink:href="#m8706d33c77" y="485.840479"/>
     <use style="fill:#ff0000;stroke:#ff0000;stroke-linejoin:miter;" x="712.269501" xlink:href="#m8706d33c77" y="469.543473"/>
     <use style="fill:#ff0000;stroke:#ff0000;stroke-linejoin:miter;" x="722.136569" xlink:href="#m8706d33c77" y="475.579401"/>
     <use style="fill:#ff0000;stroke:#ff0000;stroke-linejoin:miter;" x="733.075583" xlink:href="#m8706d33c77" y="385.644072"/>
     <use style="fill:#ff0000;stroke:#ff0000;stroke-linejoin:miter;" x="742.936573" xlink:href="#m8706d33c77" y="468.93988"/>
     <use style="fill:#ff0000;stroke:#ff0000;stroke-linejoin:miter;" x="752.796803" xlink:href="#m8706d33c77" y="476.182994"/>
     <use style="fill:#ff0000;stroke:#ff0000;stroke-linejoin:miter;" x="763.83002" xlink:href="#m8706d33c77" y="461.093174"/>
     <use style="fill:#ff0000;stroke:#ff0000;stroke-linejoin:miter;" x="773.7176" xlink:href="#m8706d33c77" y="464.111138"/>
     <use style="fill:#ff0000;stroke:#ff0000;stroke-linejoin:miter;" x="783.547442" xlink:href="#m8706d33c77" y="463.507545"/>
     <use style="fill:#ff0000;stroke:#ff0000;stroke-linejoin:miter;" x="794.479618" xlink:href="#m8706d33c77" y="280.015329"/>
     <use style="fill:#ff0000;stroke:#ff0000;stroke-linejoin:miter;" x="804.369477" xlink:href="#m8706d33c77" y="459.282395"/>
     <use style="fill:#ff0000;stroke:#ff0000;stroke-linejoin:miter;" x="814.225909" xlink:href="#m8706d33c77" y="471.354251"/>
     <use style="fill:#ff0000;stroke:#ff0000;stroke-linejoin:miter;" x="825.101867" xlink:href="#m8706d33c77" y="397.715928"/>
     <use style="fill:#ff0000;stroke:#ff0000;stroke-linejoin:miter;" x="834.943864" xlink:href="#m8706d33c77" y="454.453653"/>
     <use style="fill:#ff0000;stroke:#ff0000;stroke-linejoin:miter;" x="844.886903" xlink:href="#m8706d33c77" y="463.507545"/>
     <use style="fill:#ff0000;stroke:#ff0000;stroke-linejoin:miter;" x="855.862382" xlink:href="#m8706d33c77" y="419.445269"/>
     <use style="fill:#ff0000;stroke:#ff0000;stroke-linejoin:miter;" x="865.719574" xlink:href="#m8706d33c77" y="454.453653"/>
     <use style="fill:#ff0000;stroke:#ff0000;stroke-linejoin:miter;" x="875.569168" xlink:href="#m8706d33c77" y="471.354251"/>
     <use style="fill:#ff0000;stroke:#ff0000;stroke-linejoin:miter;" x="886.502864" xlink:href="#m8706d33c77" y="434.53509"/>
     <use style="fill:#ff0000;stroke:#ff0000;stroke-linejoin:miter;" x="896.355497" xlink:href="#m8706d33c77" y="462.300359"/>
     <use style="fill:#ff0000;stroke:#ff0000;stroke-linejoin:miter;" x="906.203572" xlink:href="#m8706d33c77" y="475.579401"/>
     <use style="fill:#ff0000;stroke:#ff0000;stroke-linejoin:miter;" x="917.148663" xlink:href="#m8706d33c77" y="371.761437"/>
     <use style="fill:#ff0000;stroke:#ff0000;stroke-linejoin:miter;" x="927.040801" xlink:href="#m8706d33c77" y="457.471617"/>
     <use style="fill:#ff0000;stroke:#ff0000;stroke-linejoin:miter;" x="936.938257" xlink:href="#m8706d33c77" y="462.300359"/>
     <use style="fill:#ff0000;stroke:#ff0000;stroke-linejoin:miter;" x="948.012498" xlink:href="#m8706d33c77" y="459.282395"/>
     <use style="fill:#ff0000;stroke:#ff0000;stroke-linejoin:miter;" x="958.026189" xlink:href="#m8706d33c77" y="435.138683"/>
     <use style="fill:#ff0000;stroke:#ff0000;stroke-linejoin:miter;" x="968.599024" xlink:href="#m8706d33c77" y="360.293174"/>
     <use style="fill:#ff0000;stroke:#ff0000;stroke-linejoin:miter;" x="978.740346" xlink:href="#m8706d33c77" y="467.732695"/>
     <use style="fill:#ff0000;stroke:#ff0000;stroke-linejoin:miter;" x="988.766952" xlink:href="#m8706d33c77" y="89.28"/>
     <use style="fill:#ff0000;stroke:#ff0000;stroke-linejoin:miter;" x="999.371695" xlink:href="#m8706d33c77" y="452.039281"/>
     <use style="fill:#ff0000;stroke:#ff0000;stroke-linejoin:miter;" x="1009.437806" xlink:href="#m8706d33c77" y="410.99497"/>
     <use style="fill:#ff0000;stroke:#ff0000;stroke-linejoin:miter;" x="1019.456055" xlink:href="#m8706d33c77" y="448.417725"/>
     <use style="fill:#ff0000;stroke:#ff0000;stroke-linejoin:miter;" x="1030.084349" xlink:href="#m8706d33c77" y="377.797365"/>
     <use style="fill:#ff0000;stroke:#ff0000;stroke-linejoin:miter;" x="1040.150459" xlink:href="#m8706d33c77" y="300.537485"/>
     <use style="fill:#ff0000;stroke:#ff0000;stroke-linejoin:miter;" x="1050.186182" xlink:href="#m8706d33c77" y="451.435689"/>
     <use style="fill:#ff0000;stroke:#ff0000;stroke-linejoin:miter;" x="1060.731668" xlink:href="#m8706d33c77" y="343.392575"/>
     <use style="fill:#ff0000;stroke:#ff0000;stroke-linejoin:miter;" x="1070.919331" xlink:href="#m8706d33c77" y="428.499162"/>
     <use style="fill:#ff0000;stroke:#ff0000;stroke-linejoin:miter;" x="1080.951255" xlink:href="#m8706d33c77" y="458.07521"/>
     <use style="fill:#ff0000;stroke:#ff0000;stroke-linejoin:miter;" x="1091.581068" xlink:href="#m8706d33c77" y="445.39976"/>
     <use style="fill:#ff0000;stroke:#ff0000;stroke-linejoin:miter;" x="1101.62059" xlink:href="#m8706d33c77" y="285.447665"/>
     <use style="fill:#ff0000;stroke:#ff0000;stroke-linejoin:miter;" x="1111.63504" xlink:href="#m8706d33c77" y="453.85006"/>
     <use style="fill:#ff0000;stroke:#ff0000;stroke-linejoin:miter;" x="1122.245101" xlink:href="#m8706d33c77" y="444.192575"/>
     <use style="fill:#ff0000;stroke:#ff0000;stroke-linejoin:miter;" x="1132.356034" xlink:href="#m8706d33c77" y="431.517126"/>
     <use style="fill:#ff0000;stroke:#ff0000;stroke-linejoin:miter;" x="1142.361369" xlink:href="#m8706d33c77" y="451.435689"/>
     <use style="fill:#ff0000;stroke:#ff0000;stroke-linejoin:miter;" x="1152.954716" xlink:href="#m8706d33c77" y="357.878802"/>
     <use style="fill:#ff0000;stroke:#ff0000;stroke-linejoin:miter;" x="1163.191761" xlink:href="#m8706d33c77" y="196.115928"/>
     <use style="fill:#ff0000;stroke:#ff0000;stroke-linejoin:miter;" x="1173.139357" xlink:href="#m8706d33c77" y="450.832096"/>
     <use style="fill:#ff0000;stroke:#ff0000;stroke-linejoin:miter;" x="1183.89908" xlink:href="#m8706d33c77" y="415.823713"/>
     <use style="fill:#ff0000;stroke:#ff0000;stroke-linejoin:miter;" x="1193.887701" xlink:href="#m8706d33c77" y="470.147066"/>
     <use style="fill:#ff0000;stroke:#ff0000;stroke-linejoin:miter;" x="1203.787436" xlink:href="#m8706d33c77" y="453.246467"/>
     <use style="fill:#ff0000;stroke:#ff0000;stroke-linejoin:miter;" x="1214.538802" xlink:href="#m8706d33c77" y="423.670419"/>
     <use style="fill:#ff0000;stroke:#ff0000;stroke-linejoin:miter;" x="1224.591238" xlink:href="#m8706d33c77" y="454.453653"/>
     <use style="fill:#ff0000;stroke:#ff0000;stroke-linejoin:miter;" x="1234.515284" xlink:href="#m8706d33c77" y="431.517126"/>
     <use style="fill:#ff0000;stroke:#ff0000;stroke-linejoin:miter;" x="1245.272727" xlink:href="#m8706d33c77" y="327.095569"/>
    </g>
   </g>
   <g id="line2d_17">
    <path clip-path="url(#p25323b2f1b)" d="M 230.727273 433.931497 
L 241.492313 355.464431 
L 251.472577 420.652455 
L 261.398902 438.76024 
L 272.392615 407.977006 
L 282.31742 434.53509 
L 292.242225 470.147066 
L 302.960164 462.903952 
L 312.882691 440.571018 
L 322.802178 471.957844 
L 333.647748 390.472814 
L 343.558119 449.62491 
L 353.469249 452.039281 
L 364.335331 388.058443 
L 374.257857 453.246467 
L 384.187981 475.579401 
L 395.03431 321.059641 
L 404.955317 429.706347 
L 414.883921 473.16503 
L 425.701381 471.354251 
L 435.639102 461.093174 
L 445.596575 477.39018 
L 456.430749 474.372216 
L 466.397338 465.921916 
L 476.379121 463.507545 
L 487.286987 483.426108 
L 497.26953 457.471617 
L 507.275624 474.372216 
L 518.161458 405.562635 
L 528.12045 457.471617 
L 538.068807 476.786587 
L 548.787505 460.489581 
L 558.772327 456.868024 
L 568.663706 482.218922 
L 579.328465 459.282395 
L 589.181099 465.318323 
L 599.061841 492.48 
L 610.009971 386.851257 
L 619.861085 462.903952 
L 629.706121 492.48 
L 640.702872 258.889581 
L 650.560823 462.903952 
L 660.409658 476.182994 
L 671.56139 488.858443 
L 681.406426 474.975808 
L 691.252981 490.669222 
L 702.420667 485.840479 
L 712.269501 469.543473 
L 722.136569 475.579401 
L 733.075583 385.644072 
L 742.936573 468.93988 
L 752.796803 476.182994 
L 763.83002 461.093174 
L 773.7176 464.111138 
L 783.547442 463.507545 
L 794.479618 280.015329 
L 804.369477 459.282395 
L 814.225909 471.354251 
L 825.101867 397.715928 
L 834.943864 454.453653 
L 844.886903 463.507545 
L 855.862382 419.445269 
L 865.719574 454.453653 
L 875.569168 471.354251 
L 886.502864 434.53509 
L 896.355497 462.300359 
L 906.203572 475.579401 
L 917.148663 371.761437 
L 927.040801 457.471617 
L 936.938257 462.300359 
L 948.012498 459.282395 
L 958.026189 435.138683 
L 968.599024 360.293174 
L 978.740346 467.732695 
L 988.766952 89.28 
L 999.371695 452.039281 
L 1009.437806 410.99497 
L 1019.456055 448.417725 
L 1030.084349 377.797365 
L 1040.150459 300.537485 
L 1050.186182 451.435689 
L 1060.731668 343.392575 
L 1070.919331 428.499162 
L 1080.951255 458.07521 
L 1091.581068 445.39976 
L 1101.62059 285.447665 
L 1111.63504 453.85006 
L 1122.245101 444.192575 
L 1132.356034 431.517126 
L 1142.361369 451.435689 
L 1152.954716 357.878802 
L 1163.191761 196.115928 
L 1173.139357 450.832096 
L 1183.89908 415.823713 
L 1193.887701 470.147066 
L 1203.787436 453.246467 
L 1214.538802 423.670419 
L 1224.591238 454.453653 
L 1234.515284 431.517126 
L 1245.272727 327.095569 
" style="fill:none;stroke:#800080;stroke-dasharray:9.6,2.4,1.5,2.4;stroke-dashoffset:0;stroke-width:1.5;"/>
    <defs>
     <path d="M -3 3 
L 3 -3 
M -3 -3 
L 3 3 
" id="me7870f603f" style="stroke:#800080;"/>
    </defs>
    <g clip-path="url(#p25323b2f1b)">
     <use style="fill:#800080;stroke:#800080;" x="230.727273" xlink:href="#me7870f603f" y="433.931497"/>
     <use style="fill:#800080;stroke:#800080;" x="241.492313" xlink:href="#me7870f603f" y="355.464431"/>
     <use style="fill:#800080;stroke:#800080;" x="251.472577" xlink:href="#me7870f603f" y="420.652455"/>
     <use style="fill:#800080;stroke:#800080;" x="261.398902" xlink:href="#me7870f603f" y="438.76024"/>
     <use style="fill:#800080;stroke:#800080;" x="272.392615" xlink:href="#me7870f603f" y="407.977006"/>
     <use style="fill:#800080;stroke:#800080;" x="282.31742" xlink:href="#me7870f603f" y="434.53509"/>
     <use style="fill:#800080;stroke:#800080;" x="292.242225" xlink:href="#me7870f603f" y="470.147066"/>
     <use style="fill:#800080;stroke:#800080;" x="302.960164" xlink:href="#me7870f603f" y="462.903952"/>
     <use style="fill:#800080;stroke:#800080;" x="312.882691" xlink:href="#me7870f603f" y="440.571018"/>
     <use style="fill:#800080;stroke:#800080;" x="322.802178" xlink:href="#me7870f603f" y="471.957844"/>
     <use style="fill:#800080;stroke:#800080;" x="333.647748" xlink:href="#me7870f603f" y="390.472814"/>
     <use style="fill:#800080;stroke:#800080;" x="343.558119" xlink:href="#me7870f603f" y="449.62491"/>
     <use style="fill:#800080;stroke:#800080;" x="353.469249" xlink:href="#me7870f603f" y="452.039281"/>
     <use style="fill:#800080;stroke:#800080;" x="364.335331" xlink:href="#me7870f603f" y="388.058443"/>
     <use style="fill:#800080;stroke:#800080;" x="374.257857" xlink:href="#me7870f603f" y="453.246467"/>
     <use style="fill:#800080;stroke:#800080;" x="384.187981" xlink:href="#me7870f603f" y="475.579401"/>
     <use style="fill:#800080;stroke:#800080;" x="395.03431" xlink:href="#me7870f603f" y="321.059641"/>
     <use style="fill:#800080;stroke:#800080;" x="404.955317" xlink:href="#me7870f603f" y="429.706347"/>
     <use style="fill:#800080;stroke:#800080;" x="414.883921" xlink:href="#me7870f603f" y="473.16503"/>
     <use style="fill:#800080;stroke:#800080;" x="425.701381" xlink:href="#me7870f603f" y="471.354251"/>
     <use style="fill:#800080;stroke:#800080;" x="435.639102" xlink:href="#me7870f603f" y="461.093174"/>
     <use style="fill:#800080;stroke:#800080;" x="445.596575" xlink:href="#me7870f603f" y="477.39018"/>
     <use style="fill:#800080;stroke:#800080;" x="456.430749" xlink:href="#me7870f603f" y="474.372216"/>
     <use style="fill:#800080;stroke:#800080;" x="466.397338" xlink:href="#me7870f603f" y="465.921916"/>
     <use style="fill:#800080;stroke:#800080;" x="476.379121" xlink:href="#me7870f603f" y="463.507545"/>
     <use style="fill:#800080;stroke:#800080;" x="487.286987" xlink:href="#me7870f603f" y="483.426108"/>
     <use style="fill:#800080;stroke:#800080;" x="497.26953" xlink:href="#me7870f603f" y="457.471617"/>
     <use style="fill:#800080;stroke:#800080;" x="507.275624" xlink:href="#me7870f603f" y="474.372216"/>
     <use style="fill:#800080;stroke:#800080;" x="518.161458" xlink:href="#me7870f603f" y="405.562635"/>
     <use style="fill:#800080;stroke:#800080;" x="528.12045" xlink:href="#me7870f603f" y="457.471617"/>
     <use style="fill:#800080;stroke:#800080;" x="538.068807" xlink:href="#me7870f603f" y="476.786587"/>
     <use style="fill:#800080;stroke:#800080;" x="548.787505" xlink:href="#me7870f603f" y="460.489581"/>
     <use style="fill:#800080;stroke:#800080;" x="558.772327" xlink:href="#me7870f603f" y="456.868024"/>
     <use style="fill:#800080;stroke:#800080;" x="568.663706" xlink:href="#me7870f603f" y="482.218922"/>
     <use style="fill:#800080;stroke:#800080;" x="579.328465" xlink:href="#me7870f603f" y="459.282395"/>
     <use style="fill:#800080;stroke:#800080;" x="589.181099" xlink:href="#me7870f603f" y="465.318323"/>
     <use style="fill:#800080;stroke:#800080;" x="599.061841" xlink:href="#me7870f603f" y="492.48"/>
     <use style="fill:#800080;stroke:#800080;" x="610.009971" xlink:href="#me7870f603f" y="386.851257"/>
     <use style="fill:#800080;stroke:#800080;" x="619.861085" xlink:href="#me7870f603f" y="462.903952"/>
     <use style="fill:#800080;stroke:#800080;" x="629.706121" xlink:href="#me7870f603f" y="492.48"/>
     <use style="fill:#800080;stroke:#800080;" x="640.702872" xlink:href="#me7870f603f" y="258.889581"/>
     <use style="fill:#800080;stroke:#800080;" x="650.560823" xlink:href="#me7870f603f" y="462.903952"/>
     <use style="fill:#800080;stroke:#800080;" x="660.409658" xlink:href="#me7870f603f" y="476.182994"/>
     <use style="fill:#800080;stroke:#800080;" x="671.56139" xlink:href="#me7870f603f" y="488.858443"/>
     <use style="fill:#800080;stroke:#800080;" x="681.406426" xlink:href="#me7870f603f" y="474.975808"/>
     <use style="fill:#800080;stroke:#800080;" x="691.252981" xlink:href="#me7870f603f" y="490.669222"/>
     <use style="fill:#800080;stroke:#800080;" x="702.420667" xlink:href="#me7870f603f" y="485.840479"/>
     <use style="fill:#800080;stroke:#800080;" x="712.269501" xlink:href="#me7870f603f" y="469.543473"/>
     <use style="fill:#800080;stroke:#800080;" x="722.136569" xlink:href="#me7870f603f" y="475.579401"/>
     <use style="fill:#800080;stroke:#800080;" x="733.075583" xlink:href="#me7870f603f" y="385.644072"/>
     <use style="fill:#800080;stroke:#800080;" x="742.936573" xlink:href="#me7870f603f" y="468.93988"/>
     <use style="fill:#800080;stroke:#800080;" x="752.796803" xlink:href="#me7870f603f" y="476.182994"/>
     <use style="fill:#800080;stroke:#800080;" x="763.83002" xlink:href="#me7870f603f" y="461.093174"/>
     <use style="fill:#800080;stroke:#800080;" x="773.7176" xlink:href="#me7870f603f" y="464.111138"/>
     <use style="fill:#800080;stroke:#800080;" x="783.547442" xlink:href="#me7870f603f" y="463.507545"/>
     <use style="fill:#800080;stroke:#800080;" x="794.479618" xlink:href="#me7870f603f" y="280.015329"/>
     <use style="fill:#800080;stroke:#800080;" x="804.369477" xlink:href="#me7870f603f" y="459.282395"/>
     <use style="fill:#800080;stroke:#800080;" x="814.225909" xlink:href="#me7870f603f" y="471.354251"/>
     <use style="fill:#800080;stroke:#800080;" x="825.101867" xlink:href="#me7870f603f" y="397.715928"/>
     <use style="fill:#800080;stroke:#800080;" x="834.943864" xlink:href="#me7870f603f" y="454.453653"/>
     <use style="fill:#800080;stroke:#800080;" x="844.886903" xlink:href="#me7870f603f" y="463.507545"/>
     <use style="fill:#800080;stroke:#800080;" x="855.862382" xlink:href="#me7870f603f" y="419.445269"/>
     <use style="fill:#800080;stroke:#800080;" x="865.719574" xlink:href="#me7870f603f" y="454.453653"/>
     <use style="fill:#800080;stroke:#800080;" x="875.569168" xlink:href="#me7870f603f" y="471.354251"/>
     <use style="fill:#800080;stroke:#800080;" x="886.502864" xlink:href="#me7870f603f" y="434.53509"/>
     <use style="fill:#800080;stroke:#800080;" x="896.355497" xlink:href="#me7870f603f" y="462.300359"/>
     <use style="fill:#800080;stroke:#800080;" x="906.203572" xlink:href="#me7870f603f" y="475.579401"/>
     <use style="fill:#800080;stroke:#800080;" x="917.148663" xlink:href="#me7870f603f" y="371.761437"/>
     <use style="fill:#800080;stroke:#800080;" x="927.040801" xlink:href="#me7870f603f" y="457.471617"/>
     <use style="fill:#800080;stroke:#800080;" x="936.938257" xlink:href="#me7870f603f" y="462.300359"/>
     <use style="fill:#800080;stroke:#800080;" x="948.012498" xlink:href="#me7870f603f" y="459.282395"/>
     <use style="fill:#800080;stroke:#800080;" x="958.026189" xlink:href="#me7870f603f" y="435.138683"/>
     <use style="fill:#800080;stroke:#800080;" x="968.599024" xlink:href="#me7870f603f" y="360.293174"/>
     <use style="fill:#800080;stroke:#800080;" x="978.740346" xlink:href="#me7870f603f" y="467.732695"/>
     <use style="fill:#800080;stroke:#800080;" x="988.766952" xlink:href="#me7870f603f" y="89.28"/>
     <use style="fill:#800080;stroke:#800080;" x="999.371695" xlink:href="#me7870f603f" y="452.039281"/>
     <use style="fill:#800080;stroke:#800080;" x="1009.437806" xlink:href="#me7870f603f" y="410.99497"/>
     <use style="fill:#800080;stroke:#800080;" x="1019.456055" xlink:href="#me7870f603f" y="448.417725"/>
     <use style="fill:#800080;stroke:#800080;" x="1030.084349" xlink:href="#me7870f603f" y="377.797365"/>
     <use style="fill:#800080;stroke:#800080;" x="1040.150459" xlink:href="#me7870f603f" y="300.537485"/>
     <use style="fill:#800080;stroke:#800080;" x="1050.186182" xlink:href="#me7870f603f" y="451.435689"/>
     <use style="fill:#800080;stroke:#800080;" x="1060.731668" xlink:href="#me7870f603f" y="343.392575"/>
     <use style="fill:#800080;stroke:#800080;" x="1070.919331" xlink:href="#me7870f603f" y="428.499162"/>
     <use style="fill:#800080;stroke:#800080;" x="1080.951255" xlink:href="#me7870f603f" y="458.07521"/>
     <use style="fill:#800080;stroke:#800080;" x="1091.581068" xlink:href="#me7870f603f" y="445.39976"/>
     <use style="fill:#800080;stroke:#800080;" x="1101.62059" xlink:href="#me7870f603f" y="285.447665"/>
     <use style="fill:#800080;stroke:#800080;" x="1111.63504" xlink:href="#me7870f603f" y="453.85006"/>
     <use style="fill:#800080;stroke:#800080;" x="1122.245101" xlink:href="#me7870f603f" y="444.192575"/>
     <use style="fill:#800080;stroke:#800080;" x="1132.356034" xlink:href="#me7870f603f" y="431.517126"/>
     <use style="fill:#800080;stroke:#800080;" x="1142.361369" xlink:href="#me7870f603f" y="451.435689"/>
     <use style="fill:#800080;stroke:#800080;" x="1152.954716" xlink:href="#me7870f603f" y="357.878802"/>
     <use style="fill:#800080;stroke:#800080;" x="1163.191761" xlink:href="#me7870f603f" y="196.115928"/>
     <use style="fill:#800080;stroke:#800080;" x="1173.139357" xlink:href="#me7870f603f" y="450.832096"/>
     <use style="fill:#800080;stroke:#800080;" x="1183.89908" xlink:href="#me7870f603f" y="415.823713"/>
     <use style="fill:#800080;stroke:#800080;" x="1193.887701" xlink:href="#me7870f603f" y="470.147066"/>
     <use style="fill:#800080;stroke:#800080;" x="1203.787436" xlink:href="#me7870f603f" y="453.246467"/>
     <use style="fill:#800080;stroke:#800080;" x="1214.538802" xlink:href="#me7870f603f" y="423.670419"/>
     <use style="fill:#800080;stroke:#800080;" x="1224.591238" xlink:href="#me7870f603f" y="454.453653"/>
     <use style="fill:#800080;stroke:#800080;" x="1234.515284" xlink:href="#me7870f603f" y="431.517126"/>
     <use style="fill:#800080;stroke:#800080;" x="1245.272727" xlink:href="#me7870f603f" y="327.095569"/>
    </g>
   </g>
   <g id="line2d_18">
    <path clip-path="url(#p25323b2f1b)" d="M 230.727273 457.180683 
L 241.492313 456.648618 
L 251.472577 456.155341 
L 261.398902 455.66473 
L 272.392615 455.121363 
L 282.31742 454.630827 
L 292.242225 454.140291 
L 302.960164 453.610555 
L 312.882691 453.120131 
L 322.802178 452.629858 
L 333.647748 452.093813 
L 343.558119 451.603991 
L 353.469249 451.114131 
L 364.335331 450.577072 
L 374.257857 450.086649 
L 384.187981 449.59585 
L 395.03431 449.059768 
L 404.955317 448.569419 
L 414.883921 448.078696 
L 425.701381 447.54404 
L 435.639102 447.052866 
L 445.596575 446.560715 
L 456.430749 446.025233 
L 466.397338 445.532632 
L 476.379121 445.03928 
L 487.286987 444.500156 
L 497.26953 444.006767 
L 507.275624 443.512213 
L 518.161458 442.974178 
L 528.12045 442.481952 
L 538.068807 441.990252 
L 548.787505 441.460478 
L 558.772327 440.966976 
L 568.663706 440.478092 
L 579.328465 439.950984 
L 589.181099 439.464015 
L 599.061841 438.975657 
L 610.009971 438.434543 
L 619.861085 437.947649 
L 629.706121 437.461056 
L 640.702872 436.917539 
L 650.560823 436.430307 
L 660.409658 435.943526 
L 671.56139 435.392349 
L 681.406426 434.905756 
L 691.252981 434.419087 
L 702.420667 433.867122 
L 712.269501 433.38034 
L 722.136569 432.892658 
L 733.075583 432.351995 
L 742.936573 431.864613 
L 752.796803 431.377269 
L 763.83002 430.831949 
L 773.7176 430.343253 
L 783.547442 429.857411 
L 794.479618 429.317085 
L 804.369477 428.828277 
L 814.225909 428.34112 
L 825.101867 427.803573 
L 834.943864 427.31713 
L 844.886903 426.825693 
L 855.862382 426.283227 
L 865.719574 425.796033 
L 875.569168 425.309214 
L 886.502864 424.768814 
L 896.355497 424.281845 
L 906.203572 423.795101 
L 917.148663 423.254138 
L 927.040801 422.765216 
L 936.938257 422.276032 
L 948.012498 421.728685 
L 958.026189 421.233756 
L 968.599024 420.711191 
L 978.740346 420.209954 
L 988.766952 419.714386 
L 999.371695 419.190244 
L 1009.437806 418.692724 
L 1019.456055 418.19757 
L 1030.084349 417.672264 
L 1040.150459 417.174744 
L 1050.186182 416.678726 
L 1060.731668 416.157513 
L 1070.919331 415.653985 
L 1080.951255 415.158154 
L 1091.581068 414.632773 
L 1101.62059 414.136568 
L 1111.63504 413.641601 
L 1122.245101 413.117196 
L 1132.356034 412.617461 
L 1142.361369 412.122945 
L 1152.954716 411.599366 
L 1163.191761 411.093397 
L 1173.139357 410.601735 
L 1183.89908 410.069933 
L 1193.887701 409.576243 
L 1203.787436 409.086946 
L 1214.538802 408.555557 
L 1224.591238 408.058713 
L 1234.515284 407.568215 
L 1245.272727 407.036525 
" style="fill:none;stroke:#0000ff;stroke-linecap:square;stroke-width:1.5;"/>
   </g>
   <g id="line2d_19">
    <path clip-path="url(#p25323b2f1b)" d="M 230.727273 456.494176 
L 241.492313 456.099961 
L 251.472577 455.734485 
L 261.398902 455.370984 
L 272.392615 454.968395 
L 282.31742 454.60495 
L 292.242225 454.241504 
L 302.960164 453.849015 
L 312.882691 453.485653 
L 322.802178 453.122402 
L 333.647748 452.725239 
L 343.558119 452.362322 
L 353.469249 451.999377 
L 364.335331 451.601463 
L 374.257857 451.238101 
L 384.187981 450.874461 
L 395.03431 450.477269 
L 404.955317 450.113963 
L 414.883921 449.750378 
L 425.701381 449.354244 
L 435.639102 448.990326 
L 445.596575 448.625684 
L 456.430749 448.228938 
L 466.397338 447.863963 
L 476.379121 447.498431 
L 487.286987 447.098986 
L 497.26953 446.733426 
L 507.275624 446.367004 
L 518.161458 445.968366 
L 528.12045 445.603669 
L 538.068807 445.239361 
L 548.787505 444.846843 
L 558.772327 444.4812 
L 568.663706 444.118979 
L 579.328465 443.728437 
L 589.181099 443.367634 
L 599.061841 443.005802 
L 610.009971 442.604883 
L 619.861085 442.244136 
L 629.706121 441.883612 
L 640.702872 441.480912 
L 650.560823 441.119915 
L 660.409658 440.759252 
L 671.56139 440.350877 
L 681.406426 439.990352 
L 691.252981 439.629773 
L 702.420667 439.220813 
L 712.269501 438.86015 
L 722.136569 438.498819 
L 733.075583 438.098233 
L 742.936573 437.737125 
L 752.796803 437.376044 
L 763.83002 436.972009 
L 773.7176 436.609927 
L 783.547442 436.249959 
L 794.479618 435.849624 
L 804.369477 435.487459 
L 814.225909 435.126517 
L 825.101867 434.728241 
L 834.943864 434.367828 
L 844.886903 434.003715 
L 855.862382 433.601794 
L 865.719574 433.240824 
L 875.569168 432.880133 
L 886.502864 432.479743 
L 896.355497 432.11894 
L 906.203572 431.758305 
L 917.148663 431.357497 
L 927.040801 430.995248 
L 936.938257 430.632804 
L 948.012498 430.227266 
L 958.026189 429.860566 
L 968.599024 429.47339 
L 978.740346 429.102016 
L 988.766952 428.734842 
L 999.371695 428.346498 
L 1009.437806 427.977878 
L 1019.456055 427.611011 
L 1030.084349 427.221804 
L 1040.150459 426.853184 
L 1050.186182 426.485677 
L 1060.731668 426.099502 
L 1070.919331 425.726431 
L 1080.951255 425.359063 
L 1091.581068 424.9698 
L 1101.62059 424.602154 
L 1111.63504 424.235426 
L 1122.245101 423.846887 
L 1132.356034 423.476625 
L 1142.361369 423.110231 
L 1152.954716 422.722304 
L 1163.191761 422.347424 
L 1173.139357 421.983144 
L 1183.89908 421.589125 
L 1193.887701 421.223342 
L 1203.787436 420.860815 
L 1214.538802 420.467101 
L 1224.591238 420.098982 
L 1234.515284 419.735564 
L 1245.272727 419.341628 
" style="fill:none;stroke:#008000;stroke-linecap:square;stroke-width:1.5;"/>
    <defs>
     <path d="M 0 3 
C 0.795609 3 1.55874 2.683901 2.12132 2.12132 
C 2.683901 1.55874 3 0.795609 3 0 
C 3 -0.795609 2.683901 -1.55874 2.12132 -2.12132 
C 1.55874 -2.683901 0.795609 -3 0 -3 
C -0.795609 -3 -1.55874 -2.683901 -2.12132 -2.12132 
C -2.683901 -1.55874 -3 -0.795609 -3 0 
C -3 0.795609 -2.683901 1.55874 -2.12132 2.12132 
C -1.55874 2.683901 -0.795609 3 0 3 
z
" id="mcde33123a7" style="stroke:#008000;"/>
    </defs>
    <g clip-path="url(#p25323b2f1b)">
     <use style="fill:#008000;stroke:#008000;" x="230.727273" xlink:href="#mcde33123a7" y="456.494176"/>
     <use style="fill:#008000;stroke:#008000;" x="241.492313" xlink:href="#mcde33123a7" y="456.099961"/>
     <use style="fill:#008000;stroke:#008000;" x="251.472577" xlink:href="#mcde33123a7" y="455.734485"/>
     <use style="fill:#008000;stroke:#008000;" x="261.398902" xlink:href="#mcde33123a7" y="455.370984"/>
     <use style="fill:#008000;stroke:#008000;" x="272.392615" xlink:href="#mcde33123a7" y="454.968395"/>
     <use style="fill:#008000;stroke:#008000;" x="282.31742" xlink:href="#mcde33123a7" y="454.60495"/>
     <use style="fill:#008000;stroke:#008000;" x="292.242225" xlink:href="#mcde33123a7" y="454.241504"/>
     <use style="fill:#008000;stroke:#008000;" x="302.960164" xlink:href="#mcde33123a7" y="453.849015"/>
     <use style="fill:#008000;stroke:#008000;" x="312.882691" xlink:href="#mcde33123a7" y="453.485653"/>
     <use style="fill:#008000;stroke:#008000;" x="322.802178" xlink:href="#mcde33123a7" y="453.122402"/>
     <use style="fill:#008000;stroke:#008000;" x="333.647748" xlink:href="#mcde33123a7" y="452.725239"/>
     <use style="fill:#008000;stroke:#008000;" x="343.558119" xlink:href="#mcde33123a7" y="452.362322"/>
     <use style="fill:#008000;stroke:#008000;" x="353.469249" xlink:href="#mcde33123a7" y="451.999377"/>
     <use style="fill:#008000;stroke:#008000;" x="364.335331" xlink:href="#mcde33123a7" y="451.601463"/>
     <use style="fill:#008000;stroke:#008000;" x="374.257857" xlink:href="#mcde33123a7" y="451.238101"/>
     <use style="fill:#008000;stroke:#008000;" x="384.187981" xlink:href="#mcde33123a7" y="450.874461"/>
     <use style="fill:#008000;stroke:#008000;" x="395.03431" xlink:href="#mcde33123a7" y="450.477269"/>
     <use style="fill:#008000;stroke:#008000;" x="404.955317" xlink:href="#mcde33123a7" y="450.113963"/>
     <use style="fill:#008000;stroke:#008000;" x="414.883921" xlink:href="#mcde33123a7" y="449.750378"/>
     <use style="fill:#008000;stroke:#008000;" x="425.701381" xlink:href="#mcde33123a7" y="449.354244"/>
     <use style="fill:#008000;stroke:#008000;" x="435.639102" xlink:href="#mcde33123a7" y="448.990326"/>
     <use style="fill:#008000;stroke:#008000;" x="445.596575" xlink:href="#mcde33123a7" y="448.625684"/>
     <use style="fill:#008000;stroke:#008000;" x="456.430749" xlink:href="#mcde33123a7" y="448.228938"/>
     <use style="fill:#008000;stroke:#008000;" x="466.397338" xlink:href="#mcde33123a7" y="447.863963"/>
     <use style="fill:#008000;stroke:#008000;" x="476.379121" xlink:href="#mcde33123a7" y="447.498431"/>
     <use style="fill:#008000;stroke:#008000;" x="487.286987" xlink:href="#mcde33123a7" y="447.098986"/>
     <use style="fill:#008000;stroke:#008000;" x="497.26953" xlink:href="#mcde33123a7" y="446.733426"/>
     <use style="fill:#008000;stroke:#008000;" x="507.275624" xlink:href="#mcde33123a7" y="446.367004"/>
     <use style="fill:#008000;stroke:#008000;" x="518.161458" xlink:href="#mcde33123a7" y="445.968366"/>
     <use style="fill:#008000;stroke:#008000;" x="528.12045" xlink:href="#mcde33123a7" y="445.603669"/>
     <use style="fill:#008000;stroke:#008000;" x="538.068807" xlink:href="#mcde33123a7" y="445.239361"/>
     <use style="fill:#008000;stroke:#008000;" x="548.787505" xlink:href="#mcde33123a7" y="444.846843"/>
     <use style="fill:#008000;stroke:#008000;" x="558.772327" xlink:href="#mcde33123a7" y="444.4812"/>
     <use style="fill:#008000;stroke:#008000;" x="568.663706" xlink:href="#mcde33123a7" y="444.118979"/>
     <use style="fill:#008000;stroke:#008000;" x="579.328465" xlink:href="#mcde33123a7" y="443.728437"/>
     <use style="fill:#008000;stroke:#008000;" x="589.181099" xlink:href="#mcde33123a7" y="443.367634"/>
     <use style="fill:#008000;stroke:#008000;" x="599.061841" xlink:href="#mcde33123a7" y="443.005802"/>
     <use style="fill:#008000;stroke:#008000;" x="610.009971" xlink:href="#mcde33123a7" y="442.604883"/>
     <use style="fill:#008000;stroke:#008000;" x="619.861085" xlink:href="#mcde33123a7" y="442.244136"/>
     <use style="fill:#008000;stroke:#008000;" x="629.706121" xlink:href="#mcde33123a7" y="441.883612"/>
     <use style="fill:#008000;stroke:#008000;" x="640.702872" xlink:href="#mcde33123a7" y="441.480912"/>
     <use style="fill:#008000;stroke:#008000;" x="650.560823" xlink:href="#mcde33123a7" y="441.119915"/>
     <use style="fill:#008000;stroke:#008000;" x="660.409658" xlink:href="#mcde33123a7" y="440.759252"/>
     <use style="fill:#008000;stroke:#008000;" x="671.56139" xlink:href="#mcde33123a7" y="440.350877"/>
     <use style="fill:#008000;stroke:#008000;" x="681.406426" xlink:href="#mcde33123a7" y="439.990352"/>
     <use style="fill:#008000;stroke:#008000;" x="691.252981" xlink:href="#mcde33123a7" y="439.629773"/>
     <use style="fill:#008000;stroke:#008000;" x="702.420667" xlink:href="#mcde33123a7" y="439.220813"/>
     <use style="fill:#008000;stroke:#008000;" x="712.269501" xlink:href="#mcde33123a7" y="438.86015"/>
     <use style="fill:#008000;stroke:#008000;" x="722.136569" xlink:href="#mcde33123a7" y="438.498819"/>
     <use style="fill:#008000;stroke:#008000;" x="733.075583" xlink:href="#mcde33123a7" y="438.098233"/>
     <use style="fill:#008000;stroke:#008000;" x="742.936573" xlink:href="#mcde33123a7" y="437.737125"/>
     <use style="fill:#008000;stroke:#008000;" x="752.796803" xlink:href="#mcde33123a7" y="437.376044"/>
     <use style="fill:#008000;stroke:#008000;" x="763.83002" xlink:href="#mcde33123a7" y="436.972009"/>
     <use style="fill:#008000;stroke:#008000;" x="773.7176" xlink:href="#mcde33123a7" y="436.609927"/>
     <use style="fill:#008000;stroke:#008000;" x="783.547442" xlink:href="#mcde33123a7" y="436.249959"/>
     <use style="fill:#008000;stroke:#008000;" x="794.479618" xlink:href="#mcde33123a7" y="435.849624"/>
     <use style="fill:#008000;stroke:#008000;" x="804.369477" xlink:href="#mcde33123a7" y="435.487459"/>
     <use style="fill:#008000;stroke:#008000;" x="814.225909" xlink:href="#mcde33123a7" y="435.126517"/>
     <use style="fill:#008000;stroke:#008000;" x="825.101867" xlink:href="#mcde33123a7" y="434.728241"/>
     <use style="fill:#008000;stroke:#008000;" x="834.943864" xlink:href="#mcde33123a7" y="434.367828"/>
     <use style="fill:#008000;stroke:#008000;" x="844.886903" xlink:href="#mcde33123a7" y="434.003715"/>
     <use style="fill:#008000;stroke:#008000;" x="855.862382" xlink:href="#mcde33123a7" y="433.601794"/>
     <use style="fill:#008000;stroke:#008000;" x="865.719574" xlink:href="#mcde33123a7" y="433.240824"/>
     <use style="fill:#008000;stroke:#008000;" x="875.569168" xlink:href="#mcde33123a7" y="432.880133"/>
     <use style="fill:#008000;stroke:#008000;" x="886.502864" xlink:href="#mcde33123a7" y="432.479743"/>
     <use style="fill:#008000;stroke:#008000;" x="896.355497" xlink:href="#mcde33123a7" y="432.11894"/>
     <use style="fill:#008000;stroke:#008000;" x="906.203572" xlink:href="#mcde33123a7" y="431.758305"/>
     <use style="fill:#008000;stroke:#008000;" x="917.148663" xlink:href="#mcde33123a7" y="431.357497"/>
     <use style="fill:#008000;stroke:#008000;" x="927.040801" xlink:href="#mcde33123a7" y="430.995248"/>
     <use style="fill:#008000;stroke:#008000;" x="936.938257" xlink:href="#mcde33123a7" y="430.632804"/>
     <use style="fill:#008000;stroke:#008000;" x="948.012498" xlink:href="#mcde33123a7" y="430.227266"/>
     <use style="fill:#008000;stroke:#008000;" x="958.026189" xlink:href="#mcde33123a7" y="429.860566"/>
     <use style="fill:#008000;stroke:#008000;" x="968.599024" xlink:href="#mcde33123a7" y="429.47339"/>
     <use style="fill:#008000;stroke:#008000;" x="978.740346" xlink:href="#mcde33123a7" y="429.102016"/>
     <use style="fill:#008000;stroke:#008000;" x="988.766952" xlink:href="#mcde33123a7" y="428.734842"/>
     <use style="fill:#008000;stroke:#008000;" x="999.371695" xlink:href="#mcde33123a7" y="428.346498"/>
     <use style="fill:#008000;stroke:#008000;" x="1009.437806" xlink:href="#mcde33123a7" y="427.977878"/>
     <use style="fill:#008000;stroke:#008000;" x="1019.456055" xlink:href="#mcde33123a7" y="427.611011"/>
     <use style="fill:#008000;stroke:#008000;" x="1030.084349" xlink:href="#mcde33123a7" y="427.221804"/>
     <use style="fill:#008000;stroke:#008000;" x="1040.150459" xlink:href="#mcde33123a7" y="426.853184"/>
     <use style="fill:#008000;stroke:#008000;" x="1050.186182" xlink:href="#mcde33123a7" y="426.485677"/>
     <use style="fill:#008000;stroke:#008000;" x="1060.731668" xlink:href="#mcde33123a7" y="426.099502"/>
     <use style="fill:#008000;stroke:#008000;" x="1070.919331" xlink:href="#mcde33123a7" y="425.726431"/>
     <use style="fill:#008000;stroke:#008000;" x="1080.951255" xlink:href="#mcde33123a7" y="425.359063"/>
     <use style="fill:#008000;stroke:#008000;" x="1091.581068" xlink:href="#mcde33123a7" y="424.9698"/>
     <use style="fill:#008000;stroke:#008000;" x="1101.62059" xlink:href="#mcde33123a7" y="424.602154"/>
     <use style="fill:#008000;stroke:#008000;" x="1111.63504" xlink:href="#mcde33123a7" y="424.235426"/>
     <use style="fill:#008000;stroke:#008000;" x="1122.245101" xlink:href="#mcde33123a7" y="423.846887"/>
     <use style="fill:#008000;stroke:#008000;" x="1132.356034" xlink:href="#mcde33123a7" y="423.476625"/>
     <use style="fill:#008000;stroke:#008000;" x="1142.361369" xlink:href="#mcde33123a7" y="423.110231"/>
     <use style="fill:#008000;stroke:#008000;" x="1152.954716" xlink:href="#mcde33123a7" y="422.722304"/>
     <use style="fill:#008000;stroke:#008000;" x="1163.191761" xlink:href="#mcde33123a7" y="422.347424"/>
     <use style="fill:#008000;stroke:#008000;" x="1173.139357" xlink:href="#mcde33123a7" y="421.983144"/>
     <use style="fill:#008000;stroke:#008000;" x="1183.89908" xlink:href="#mcde33123a7" y="421.589125"/>
     <use style="fill:#008000;stroke:#008000;" x="1193.887701" xlink:href="#mcde33123a7" y="421.223342"/>
     <use style="fill:#008000;stroke:#008000;" x="1203.787436" xlink:href="#mcde33123a7" y="420.860815"/>
     <use style="fill:#008000;stroke:#008000;" x="1214.538802" xlink:href="#mcde33123a7" y="420.467101"/>
     <use style="fill:#008000;stroke:#008000;" x="1224.591238" xlink:href="#mcde33123a7" y="420.098982"/>
     <use style="fill:#008000;stroke:#008000;" x="1234.515284" xlink:href="#mcde33123a7" y="419.735564"/>
     <use style="fill:#008000;stroke:#008000;" x="1245.272727" xlink:href="#mcde33123a7" y="419.341628"/>
    </g>
   </g>
   <g id="patch_3">
    <path d="M 180 512.64 
L 180 69.12 
" style="fill:none;stroke:#000000;stroke-linecap:square;stroke-linejoin:miter;stroke-width:0.8;"/>
   </g>
   <g id="patch_4">
    <path d="M 1296 512.64 
L 1296 69.12 
" style="fill:none;stroke:#000000;stroke-linecap:square;stroke-linejoin:miter;stroke-width:0.8;"/>
   </g>
   <g id="patch_5">
    <path d="M 180 512.64 
L 1296 512.64 
" style="fill:none;stroke:#000000;stroke-linecap:square;stroke-linejoin:miter;stroke-width:0.8;"/>
   </g>
   <g id="patch_6">
    <path d="M 180 69.12 
L 1296 69.12 
" style="fill:none;stroke:#000000;stroke-linecap:square;stroke-linejoin:miter;stroke-width:0.8;"/>
   </g>
   <g id="text_16">
    <!-- 500000.0 bit/s -->
    <defs>
     <path id="DejaVuSans-20"/>
     <path d="M 48.6875 27.296875 
Q 48.6875 37.203125 44.609375 42.84375 
Q 40.53125 48.484375 33.40625 48.484375 
Q 26.265625 48.484375 22.1875 42.84375 
Q 18.109375 37.203125 18.109375 27.296875 
Q 18.109375 17.390625 22.1875 11.75 
Q 26.265625 6.109375 33.40625 6.109375 
Q 40.53125 6.109375 44.609375 11.75 
Q 48.6875 17.390625 48.6875 27.296875 
z
M 18.109375 46.390625 
Q 20.953125 51.265625 25.265625 53.625 
Q 29.59375 56 35.59375 56 
Q 45.5625 56 51.78125 48.09375 
Q 58.015625 40.1875 58.015625 27.296875 
Q 58.015625 14.40625 51.78125 6.484375 
Q 45.5625 -1.421875 35.59375 -1.421875 
Q 29.59375 -1.421875 25.265625 0.953125 
Q 20.953125 3.328125 18.109375 8.203125 
L 18.109375 0 
L 9.078125 0 
L 9.078125 75.984375 
L 18.109375 75.984375 
z
" id="DejaVuSans-62"/>
     <path d="M 9.421875 54.6875 
L 18.40625 54.6875 
L 18.40625 0 
L 9.421875 0 
z
M 9.421875 75.984375 
L 18.40625 75.984375 
L 18.40625 64.59375 
L 9.421875 64.59375 
z
" id="DejaVuSans-69"/>
     <path d="M 18.3125 70.21875 
L 18.3125 54.6875 
L 36.8125 54.6875 
L 36.8125 47.703125 
L 18.3125 47.703125 
L 18.3125 18.015625 
Q 18.3125 11.328125 20.140625 9.421875 
Q 21.96875 7.515625 27.59375 7.515625 
L 36.8125 7.515625 
L 36.8125 0 
L 27.59375 0 
Q 17.1875 0 13.234375 3.875 
Q 9.28125 7.765625 9.28125 18.015625 
L 9.28125 47.703125 
L 2.6875 47.703125 
L 2.6875 54.6875 
L 9.28125 54.6875 
L 9.28125 70.21875 
z
" id="DejaVuSans-74"/>
     <path d="M 25.390625 72.90625 
L 33.6875 72.90625 
L 8.296875 -9.28125 
L 0 -9.28125 
z
" id="DejaVuSans-2f"/>
     <path d="M 44.28125 53.078125 
L 44.28125 44.578125 
Q 40.484375 46.53125 36.375 47.5 
Q 32.28125 48.484375 27.875 48.484375 
Q 21.1875 48.484375 17.84375 46.4375 
Q 14.5 44.390625 14.5 40.28125 
Q 14.5 37.15625 16.890625 35.375 
Q 19.28125 33.59375 26.515625 31.984375 
L 29.59375 31.296875 
Q 39.15625 29.25 43.1875 25.515625 
Q 47.21875 21.78125 47.21875 15.09375 
Q 47.21875 7.46875 41.1875 3.015625 
Q 35.15625 -1.421875 24.609375 -1.421875 
Q 20.21875 -1.421875 15.453125 -0.5625 
Q 10.6875 0.296875 5.421875 2 
L 5.421875 11.28125 
Q 10.40625 8.6875 15.234375 7.390625 
Q 20.0625 6.109375 24.8125 6.109375 
Q 31.15625 6.109375 34.5625 8.28125 
Q 37.984375 10.453125 37.984375 14.40625 
Q 37.984375 18.0625 35.515625 20.015625 
Q 33.0625 21.96875 24.703125 23.78125 
L 21.578125 24.515625 
Q 13.234375 26.265625 9.515625 29.90625 
Q 5.8125 33.546875 5.8125 39.890625 
Q 5.8125 47.609375 11.28125 51.796875 
Q 16.75 56 26.8125 56 
Q 31.78125 56 36.171875 55.265625 
Q 40.578125 54.546875 44.28125 53.078125 
z
" id="DejaVuSans-73"/>
    </defs>
    <g transform="translate(694.48875 63.12)scale(0.12 -0.12)">
     <use xlink:href="#DejaVuSans-35"/>
     <use x="63.623047" xlink:href="#DejaVuSans-30"/>
     <use x="127.246094" xlink:href="#DejaVuSans-30"/>
     <use x="190.869141" xlink:href="#DejaVuSans-30"/>
     <use x="254.492188" xlink:href="#DejaVuSans-30"/>
     <use x="318.115234" xlink:href="#DejaVuSans-30"/>
     <use x="381.738281" xlink:href="#DejaVuSans-2e"/>
     <use x="413.525391" xlink:href="#DejaVuSans-30"/>
     <use x="477.148438" xlink:href="#DejaVuSans-20"/>
     <use x="508.935547" xlink:href="#DejaVuSans-62"/>
     <use x="572.412109" xlink:href="#DejaVuSans-69"/>
     <use x="600.195312" xlink:href="#DejaVuSans-74"/>
     <use x="639.404297" xlink:href="#DejaVuSans-2f"/>
     <use x="673.095703" xlink:href="#DejaVuSans-73"/>
    </g>
   </g>
   <g id="legend_1">
    <g id="patch_7">
     <path d="M 1173.520313 135.8325 
L 1289 135.8325 
Q 1291 135.8325 1291 133.8325 
L 1291 76.12 
Q 1291 74.12 1289 74.12 
L 1173.520313 74.12 
Q 1171.520313 74.12 1171.520313 76.12 
L 1171.520313 133.8325 
Q 1171.520313 135.8325 1173.520313 135.8325 
z
" style="fill:#ffffff;opacity:0.8;stroke:#cccccc;stroke-linejoin:miter;"/>
    </g>
    <g id="line2d_20">
     <path d="M 1175.520313 82.218437 
L 1195.520313 82.218437 
" style="fill:none;stroke:#ff0000;stroke-dasharray:5.55,2.4;stroke-dashoffset:0;stroke-width:1.5;"/>
    </g>
    <g id="line2d_21">
     <g>
      <use style="fill:#ff0000;stroke:#ff0000;stroke-linejoin:miter;" x="1185.520313" xlink:href="#m8706d33c77" y="82.218437"/>
     </g>
    </g>
    <g id="text_17">
     <!-- tcpdump -->
     <defs>
      <path d="M 48.78125 52.59375 
L 48.78125 44.1875 
Q 44.96875 46.296875 41.140625 47.34375 
Q 37.3125 48.390625 33.40625 48.390625 
Q 24.65625 48.390625 19.8125 42.84375 
Q 14.984375 37.3125 14.984375 27.296875 
Q 14.984375 17.28125 19.8125 11.734375 
Q 24.65625 6.203125 33.40625 6.203125 
Q 37.3125 6.203125 41.140625 7.25 
Q 44.96875 8.296875 48.78125 10.40625 
L 48.78125 2.09375 
Q 45.015625 0.34375 40.984375 -0.53125 
Q 36.96875 -1.421875 32.421875 -1.421875 
Q 20.0625 -1.421875 12.78125 6.34375 
Q 5.515625 14.109375 5.515625 27.296875 
Q 5.515625 40.671875 12.859375 48.328125 
Q 20.21875 56 33.015625 56 
Q 37.15625 56 41.109375 55.140625 
Q 45.0625 54.296875 48.78125 52.59375 
z
" id="DejaVuSans-63"/>
      <path d="M 18.109375 8.203125 
L 18.109375 -20.796875 
L 9.078125 -20.796875 
L 9.078125 54.6875 
L 18.109375 54.6875 
L 18.109375 46.390625 
Q 20.953125 51.265625 25.265625 53.625 
Q 29.59375 56 35.59375 56 
Q 45.5625 56 51.78125 48.09375 
Q 58.015625 40.1875 58.015625 27.296875 
Q 58.015625 14.40625 51.78125 6.484375 
Q 45.5625 -1.421875 35.59375 -1.421875 
Q 29.59375 -1.421875 25.265625 0.953125 
Q 20.953125 3.328125 18.109375 8.203125 
z
M 48.6875 27.296875 
Q 48.6875 37.203125 44.609375 42.84375 
Q 40.53125 48.484375 33.40625 48.484375 
Q 26.265625 48.484375 22.1875 42.84375 
Q 18.109375 37.203125 18.109375 27.296875 
Q 18.109375 17.390625 22.1875 11.75 
Q 26.265625 6.109375 33.40625 6.109375 
Q 40.53125 6.109375 44.609375 11.75 
Q 48.6875 17.390625 48.6875 27.296875 
z
" id="DejaVuSans-70"/>
      <path d="M 45.40625 46.390625 
L 45.40625 75.984375 
L 54.390625 75.984375 
L 54.390625 0 
L 45.40625 0 
L 45.40625 8.203125 
Q 42.578125 3.328125 38.25 0.953125 
Q 33.9375 -1.421875 27.875 -1.421875 
Q 17.96875 -1.421875 11.734375 6.484375 
Q 5.515625 14.40625 5.515625 27.296875 
Q 5.515625 40.1875 11.734375 48.09375 
Q 17.96875 56 27.875 56 
Q 33.9375 56 38.25 53.625 
Q 42.578125 51.265625 45.40625 46.390625 
z
M 14.796875 27.296875 
Q 14.796875 17.390625 18.875 11.75 
Q 22.953125 6.109375 30.078125 6.109375 
Q 37.203125 6.109375 41.296875 11.75 
Q 45.40625 17.390625 45.40625 27.296875 
Q 45.40625 37.203125 41.296875 42.84375 
Q 37.203125 48.484375 30.078125 48.484375 
Q 22.953125 48.484375 18.875 42.84375 
Q 14.796875 37.203125 14.796875 27.296875 
z
" id="DejaVuSans-64"/>
      <path d="M 8.5 21.578125 
L 8.5 54.6875 
L 17.484375 54.6875 
L 17.484375 21.921875 
Q 17.484375 14.15625 20.5 10.265625 
Q 23.53125 6.390625 29.59375 6.390625 
Q 36.859375 6.390625 41.078125 11.03125 
Q 45.3125 15.671875 45.3125 23.6875 
L 45.3125 54.6875 
L 54.296875 54.6875 
L 54.296875 0 
L 45.3125 0 
L 45.3125 8.40625 
Q 42.046875 3.421875 37.71875 1 
Q 33.40625 -1.421875 27.6875 -1.421875 
Q 18.265625 -1.421875 13.375 4.4375 
Q 8.5 10.296875 8.5 21.578125 
z
M 31.109375 56 
z
" id="DejaVuSans-75"/>
      <path d="M 52 44.1875 
Q 55.375 50.25 60.0625 53.125 
Q 64.75 56 71.09375 56 
Q 79.640625 56 84.28125 50.015625 
Q 88.921875 44.046875 88.921875 33.015625 
L 88.921875 0 
L 79.890625 0 
L 79.890625 32.71875 
Q 79.890625 40.578125 77.09375 44.375 
Q 74.3125 48.1875 68.609375 48.1875 
Q 61.625 48.1875 57.5625 43.546875 
Q 53.515625 38.921875 53.515625 30.90625 
L 53.515625 0 
L 44.484375 0 
L 44.484375 32.71875 
Q 44.484375 40.625 41.703125 44.40625 
Q 38.921875 48.1875 33.109375 48.1875 
Q 26.21875 48.1875 22.15625 43.53125 
Q 18.109375 38.875 18.109375 30.90625 
L 18.109375 0 
L 9.078125 0 
L 9.078125 54.6875 
L 18.109375 54.6875 
L 18.109375 46.1875 
Q 21.1875 51.21875 25.484375 53.609375 
Q 29.78125 56 35.6875 56 
Q 41.65625 56 45.828125 52.96875 
Q 50 49.953125 52 44.1875 
z
" id="DejaVuSans-6d"/>
     </defs>
     <g transform="translate(1203.520313 85.718437)scale(0.1 -0.1)">
      <use xlink:href="#DejaVuSans-74"/>
      <use x="39.208984" xlink:href="#DejaVuSans-63"/>
      <use x="94.189453" xlink:href="#DejaVuSans-70"/>
      <use x="157.666016" xlink:href="#DejaVuSans-64"/>
      <use x="221.142578" xlink:href="#DejaVuSans-75"/>
      <use x="284.521484" xlink:href="#DejaVuSans-6d"/>
      <use x="381.933594" xlink:href="#DejaVuSans-70"/>
     </g>
    </g>
    <g id="line2d_22">
     <path d="M 1175.520313 96.896563 
L 1195.520313 96.896563 
" style="fill:none;stroke:#800080;stroke-dasharray:9.6,2.4,1.5,2.4;stroke-dashoffset:0;stroke-width:1.5;"/>
    </g>
    <g id="line2d_23">
     <g>
      <use style="fill:#800080;stroke:#800080;" x="1185.520313" xlink:href="#me7870f603f" y="96.896563"/>
     </g>
    </g>
    <g id="text_18">
     <!-- filtered tcpdump -->
     <defs>
      <path d="M 37.109375 75.984375 
L 37.109375 68.5 
L 28.515625 68.5 
Q 23.6875 68.5 21.796875 66.546875 
Q 19.921875 64.59375 19.921875 59.515625 
L 19.921875 54.6875 
L 34.71875 54.6875 
L 34.71875 47.703125 
L 19.921875 47.703125 
L 19.921875 0 
L 10.890625 0 
L 10.890625 47.703125 
L 2.296875 47.703125 
L 2.296875 54.6875 
L 10.890625 54.6875 
L 10.890625 58.5 
Q 10.890625 67.625 15.140625 71.796875 
Q 19.390625 75.984375 28.609375 75.984375 
z
" id="DejaVuSans-66"/>
      <path d="M 9.421875 75.984375 
L 18.40625 75.984375 
L 18.40625 0 
L 9.421875 0 
z
" id="DejaVuSans-6c"/>
      <path d="M 56.203125 29.59375 
L 56.203125 25.203125 
L 14.890625 25.203125 
Q 15.484375 15.921875 20.484375 11.0625 
Q 25.484375 6.203125 34.421875 6.203125 
Q 39.59375 6.203125 44.453125 7.46875 
Q 49.3125 8.734375 54.109375 11.28125 
L 54.109375 2.78125 
Q 49.265625 0.734375 44.1875 -0.34375 
Q 39.109375 -1.421875 33.890625 -1.421875 
Q 20.796875 -1.421875 13.15625 6.1875 
Q 5.515625 13.8125 5.515625 26.8125 
Q 5.515625 40.234375 12.765625 48.109375 
Q 20.015625 56 32.328125 56 
Q 43.359375 56 49.78125 48.890625 
Q 56.203125 41.796875 56.203125 29.59375 
z
M 47.21875 32.234375 
Q 47.125 39.59375 43.09375 43.984375 
Q 39.0625 48.390625 32.421875 48.390625 
Q 24.90625 48.390625 20.390625 44.140625 
Q 15.875 39.890625 15.1875 32.171875 
z
" id="DejaVuSans-65"/>
      <path d="M 41.109375 46.296875 
Q 39.59375 47.171875 37.8125 47.578125 
Q 36.03125 48 33.890625 48 
Q 26.265625 48 22.1875 43.046875 
Q 18.109375 38.09375 18.109375 28.8125 
L 18.109375 0 
L 9.078125 0 
L 9.078125 54.6875 
L 18.109375 54.6875 
L 18.109375 46.1875 
Q 20.953125 51.171875 25.484375 53.578125 
Q 30.03125 56 36.53125 56 
Q 37.453125 56 38.578125 55.875 
Q 39.703125 55.765625 41.0625 55.515625 
z
" id="DejaVuSans-72"/>
     </defs>
     <g transform="translate(1203.520313 100.396563)scale(0.1 -0.1)">
      <use xlink:href="#DejaVuSans-66"/>
      <use x="35.205078" xlink:href="#DejaVuSans-69"/>
      <use x="62.988281" xlink:href="#DejaVuSans-6c"/>
      <use x="90.771484" xlink:href="#DejaVuSans-74"/>
      <use x="129.980469" xlink:href="#DejaVuSans-65"/>
      <use x="191.503906" xlink:href="#DejaVuSans-72"/>
      <use x="232.585938" xlink:href="#DejaVuSans-65"/>
      <use x="294.109375" xlink:href="#DejaVuSans-64"/>
      <use x="357.585938" xlink:href="#DejaVuSans-20"/>
      <use x="389.373047" xlink:href="#DejaVuSans-74"/>
      <use x="428.582031" xlink:href="#DejaVuSans-63"/>
      <use x="483.5625" xlink:href="#DejaVuSans-70"/>
      <use x="547.039062" xlink:href="#DejaVuSans-64"/>
      <use x="610.515625" xlink:href="#DejaVuSans-75"/>
      <use x="673.894531" xlink:href="#DejaVuSans-6d"/>
      <use x="771.306641" xlink:href="#DejaVuSans-70"/>
     </g>
    </g>
    <g id="line2d_24">
     <path d="M 1175.520313 111.574687 
L 1195.520313 111.574687 
" style="fill:none;stroke:#0000ff;stroke-linecap:square;stroke-width:1.5;"/>
    </g>
    <g id="line2d_25"/>
    <g id="text_19">
     <!-- OLS -->
     <defs>
      <path d="M 39.40625 66.21875 
Q 28.65625 66.21875 22.328125 58.203125 
Q 16.015625 50.203125 16.015625 36.375 
Q 16.015625 22.609375 22.328125 14.59375 
Q 28.65625 6.59375 39.40625 6.59375 
Q 50.140625 6.59375 56.421875 14.59375 
Q 62.703125 22.609375 62.703125 36.375 
Q 62.703125 50.203125 56.421875 58.203125 
Q 50.140625 66.21875 39.40625 66.21875 
z
M 39.40625 74.21875 
Q 54.734375 74.21875 63.90625 63.9375 
Q 73.09375 53.65625 73.09375 36.375 
Q 73.09375 19.140625 63.90625 8.859375 
Q 54.734375 -1.421875 39.40625 -1.421875 
Q 24.03125 -1.421875 14.8125 8.828125 
Q 5.609375 19.09375 5.609375 36.375 
Q 5.609375 53.65625 14.8125 63.9375 
Q 24.03125 74.21875 39.40625 74.21875 
z
" id="DejaVuSans-4f"/>
      <path d="M 9.8125 72.90625 
L 19.671875 72.90625 
L 19.671875 8.296875 
L 55.171875 8.296875 
L 55.171875 0 
L 9.8125 0 
z
" id="DejaVuSans-4c"/>
      <path d="M 53.515625 70.515625 
L 53.515625 60.890625 
Q 47.90625 63.578125 42.921875 64.890625 
Q 37.9375 66.21875 33.296875 66.21875 
Q 25.25 66.21875 20.875 63.09375 
Q 16.5 59.96875 16.5 54.203125 
Q 16.5 49.359375 19.40625 46.890625 
Q 22.3125 44.4375 30.421875 42.921875 
L 36.375 41.703125 
Q 47.40625 39.59375 52.65625 34.296875 
Q 57.90625 29 57.90625 20.125 
Q 57.90625 9.515625 50.796875 4.046875 
Q 43.703125 -1.421875 29.984375 -1.421875 
Q 24.8125 -1.421875 18.96875 -0.25 
Q 13.140625 0.921875 6.890625 3.21875 
L 6.890625 13.375 
Q 12.890625 10.015625 18.65625 8.296875 
Q 24.421875 6.59375 29.984375 6.59375 
Q 38.421875 6.59375 43.015625 9.90625 
Q 47.609375 13.234375 47.609375 19.390625 
Q 47.609375 24.75 44.3125 27.78125 
Q 41.015625 30.8125 33.5 32.328125 
L 27.484375 33.5 
Q 16.453125 35.6875 11.515625 40.375 
Q 6.59375 45.0625 6.59375 53.421875 
Q 6.59375 63.09375 13.40625 68.65625 
Q 20.21875 74.21875 32.171875 74.21875 
Q 37.3125 74.21875 42.625 73.28125 
Q 47.953125 72.359375 53.515625 70.515625 
z
" id="DejaVuSans-53"/>
     </defs>
     <g transform="translate(1203.520313 115.074687)scale(0.1 -0.1)">
      <use xlink:href="#DejaVuSans-4f"/>
      <use x="78.710938" xlink:href="#DejaVuSans-4c"/>
      <use x="134.423828" xlink:href="#DejaVuSans-53"/>
     </g>
    </g>
    <g id="line2d_26">
     <path d="M 1175.520313 126.252813 
L 1195.520313 126.252813 
" style="fill:none;stroke:#008000;stroke-linecap:square;stroke-width:1.5;"/>
    </g>
    <g id="line2d_27">
     <g>
      <use style="fill:#008000;stroke:#008000;" x="1185.520313" xlink:href="#mcde33123a7" y="126.252813"/>
     </g>
    </g>
    <g id="text_20">
     <!-- IRLS -->
     <defs>
      <path d="M 9.8125 72.90625 
L 19.671875 72.90625 
L 19.671875 0 
L 9.8125 0 
z
" id="DejaVuSans-49"/>
      <path d="M 44.390625 34.1875 
Q 47.5625 33.109375 50.5625 29.59375 
Q 53.5625 26.078125 56.59375 19.921875 
L 66.609375 0 
L 56 0 
L 46.6875 18.703125 
Q 43.0625 26.03125 39.671875 28.421875 
Q 36.28125 30.8125 30.421875 30.8125 
L 19.671875 30.8125 
L 19.671875 0 
L 9.8125 0 
L 9.8125 72.90625 
L 32.078125 72.90625 
Q 44.578125 72.90625 50.734375 67.671875 
Q 56.890625 62.453125 56.890625 51.90625 
Q 56.890625 45.015625 53.6875 40.46875 
Q 50.484375 35.9375 44.390625 34.1875 
z
M 19.671875 64.796875 
L 19.671875 38.921875 
L 32.078125 38.921875 
Q 39.203125 38.921875 42.84375 42.21875 
Q 46.484375 45.515625 46.484375 51.90625 
Q 46.484375 58.296875 42.84375 61.546875 
Q 39.203125 64.796875 32.078125 64.796875 
z
" id="DejaVuSans-52"/>
     </defs>
     <g transform="translate(1203.520313 129.752813)scale(0.1 -0.1)">
      <use xlink:href="#DejaVuSans-49"/>
      <use x="29.492188" xlink:href="#DejaVuSans-52"/>
      <use x="98.974609" xlink:href="#DejaVuSans-4c"/>
      <use x="154.6875" xlink:href="#DejaVuSans-53"/>
     </g>
    </g>
   </g>
  </g>
 </g>
 <defs>
  <clipPath id="p25323b2f1b">
   <rect height="443.52" width="1116" x="180" y="69.12"/>
  </clipPath>
 </defs>
</svg>
