<?xml version="1.0" encoding="utf-8" standalone="no"?>
<!DOCTYPE svg PUBLIC "-//W3C//DTD SVG 1.1//EN"
  "http://www.w3.org/Graphics/SVG/1.1/DTD/svg11.dtd">
<!-- Created with matplotlib (http://matplotlib.org/) -->
<svg height="576pt" version="1.1" viewBox="0 0 1440 576" width="1440pt" xmlns="http://www.w3.org/2000/svg" xmlns:xlink="http://www.w3.org/1999/xlink">
 <defs>
  <style type="text/css">
*{stroke-linecap:butt;stroke-linejoin:round;}
  </style>
 </defs>
 <g id="figure_1">
  <g id="patch_1">
   <path d="M 0 576 
L 1440 576 
L 1440 0 
L 0 0 
z
" style="fill:#ffffff;"/>
  </g>
  <g id="axes_1">
   <g id="patch_2">
    <path d="M 180 512.64 
L 1296 512.64 
L 1296 69.12 
L 180 69.12 
z
" style="fill:#ffffff;"/>
   </g>
   <g id="matplotlib.axis_1">
    <g id="xtick_1">
     <g id="line2d_1">
      <defs>
       <path d="M 0 0 
L 0 3.5 
" id="md9a91bf1fa" style="stroke:#000000;stroke-width:0.8;"/>
      </defs>
      <g>
       <use style="stroke:#000000;stroke-width:0.8;" x="230.727273" xlink:href="#md9a91bf1fa" y="512.64"/>
      </g>
     </g>
     <g id="text_1">
      <!-- 0.00 -->
      <defs>
       <path d="M 31.78125 66.40625 
Q 24.171875 66.40625 20.328125 58.90625 
Q 16.5 51.421875 16.5 36.375 
Q 16.5 21.390625 20.328125 13.890625 
Q 24.171875 6.390625 31.78125 6.390625 
Q 39.453125 6.390625 43.28125 13.890625 
Q 47.125 21.390625 47.125 36.375 
Q 47.125 51.421875 43.28125 58.90625 
Q 39.453125 66.40625 31.78125 66.40625 
z
M 31.78125 74.21875 
Q 44.046875 74.21875 50.515625 64.515625 
Q 56.984375 54.828125 56.984375 36.375 
Q 56.984375 17.96875 50.515625 8.265625 
Q 44.046875 -1.421875 31.78125 -1.421875 
Q 19.53125 -1.421875 13.0625 8.265625 
Q 6.59375 17.96875 6.59375 36.375 
Q 6.59375 54.828125 13.0625 64.515625 
Q 19.53125 74.21875 31.78125 74.21875 
z
" id="DejaVuSans-30"/>
       <path d="M 10.6875 12.40625 
L 21 12.40625 
L 21 0 
L 10.6875 0 
z
" id="DejaVuSans-2e"/>
      </defs>
      <g transform="translate(219.59446 527.238438)scale(0.1 -0.1)">
       <use xlink:href="#DejaVuSans-30"/>
       <use x="63.623047" xlink:href="#DejaVuSans-2e"/>
       <use x="95.410156" xlink:href="#DejaVuSans-30"/>
       <use x="159.033203" xlink:href="#DejaVuSans-30"/>
      </g>
     </g>
    </g>
    <g id="xtick_2">
     <g id="line2d_2">
      <g>
       <use style="stroke:#000000;stroke-width:0.8;" x="458.648432" xlink:href="#md9a91bf1fa" y="512.64"/>
      </g>
     </g>
     <g id="text_2">
      <!-- 0.05 -->
      <defs>
       <path d="M 10.796875 72.90625 
L 49.515625 72.90625 
L 49.515625 64.59375 
L 19.828125 64.59375 
L 19.828125 46.734375 
Q 21.96875 47.46875 24.109375 47.828125 
Q 26.265625 48.1875 28.421875 48.1875 
Q 40.625 48.1875 47.75 41.5 
Q 54.890625 34.8125 54.890625 23.390625 
Q 54.890625 11.625 47.5625 5.09375 
Q 40.234375 -1.421875 26.90625 -1.421875 
Q 22.3125 -1.421875 17.546875 -0.640625 
Q 12.796875 0.140625 7.71875 1.703125 
L 7.71875 11.625 
Q 12.109375 9.234375 16.796875 8.0625 
Q 21.484375 6.890625 26.703125 6.890625 
Q 35.15625 6.890625 40.078125 11.328125 
Q 45.015625 15.765625 45.015625 23.390625 
Q 45.015625 31 40.078125 35.4375 
Q 35.15625 39.890625 26.703125 39.890625 
Q 22.75 39.890625 18.8125 39.015625 
Q 14.890625 38.140625 10.796875 36.28125 
z
" id="DejaVuSans-35"/>
      </defs>
      <g transform="translate(447.515619 527.238438)scale(0.1 -0.1)">
       <use xlink:href="#DejaVuSans-30"/>
       <use x="63.623047" xlink:href="#DejaVuSans-2e"/>
       <use x="95.410156" xlink:href="#DejaVuSans-30"/>
       <use x="159.033203" xlink:href="#DejaVuSans-35"/>
      </g>
     </g>
    </g>
    <g id="xtick_3">
     <g id="line2d_3">
      <g>
       <use style="stroke:#000000;stroke-width:0.8;" x="686.56959" xlink:href="#md9a91bf1fa" y="512.64"/>
      </g>
     </g>
     <g id="text_3">
      <!-- 0.10 -->
      <defs>
       <path d="M 12.40625 8.296875 
L 28.515625 8.296875 
L 28.515625 63.921875 
L 10.984375 60.40625 
L 10.984375 69.390625 
L 28.421875 72.90625 
L 38.28125 72.90625 
L 38.28125 8.296875 
L 54.390625 8.296875 
L 54.390625 0 
L 12.40625 0 
z
" id="DejaVuSans-31"/>
      </defs>
      <g transform="translate(675.436778 527.238438)scale(0.1 -0.1)">
       <use xlink:href="#DejaVuSans-30"/>
       <use x="63.623047" xlink:href="#DejaVuSans-2e"/>
       <use x="95.410156" xlink:href="#DejaVuSans-31"/>
       <use x="159.033203" xlink:href="#DejaVuSans-30"/>
      </g>
     </g>
    </g>
    <g id="xtick_4">
     <g id="line2d_4">
      <g>
       <use style="stroke:#000000;stroke-width:0.8;" x="914.490749" xlink:href="#md9a91bf1fa" y="512.64"/>
      </g>
     </g>
     <g id="text_4">
      <!-- 0.15 -->
      <g transform="translate(903.357937 527.238438)scale(0.1 -0.1)">
       <use xlink:href="#DejaVuSans-30"/>
       <use x="63.623047" xlink:href="#DejaVuSans-2e"/>
       <use x="95.410156" xlink:href="#DejaVuSans-31"/>
       <use x="159.033203" xlink:href="#DejaVuSans-35"/>
      </g>
     </g>
    </g>
    <g id="xtick_5">
     <g id="line2d_5">
      <g>
       <use style="stroke:#000000;stroke-width:0.8;" x="1142.411908" xlink:href="#md9a91bf1fa" y="512.64"/>
      </g>
     </g>
     <g id="text_5">
      <!-- 0.20 -->
      <defs>
       <path d="M 19.1875 8.296875 
L 53.609375 8.296875 
L 53.609375 0 
L 7.328125 0 
L 7.328125 8.296875 
Q 12.9375 14.109375 22.625 23.890625 
Q 32.328125 33.6875 34.8125 36.53125 
Q 39.546875 41.84375 41.421875 45.53125 
Q 43.3125 49.21875 43.3125 52.78125 
Q 43.3125 58.59375 39.234375 62.25 
Q 35.15625 65.921875 28.609375 65.921875 
Q 23.96875 65.921875 18.8125 64.3125 
Q 13.671875 62.703125 7.8125 59.421875 
L 7.8125 69.390625 
Q 13.765625 71.78125 18.9375 73 
Q 24.125 74.21875 28.421875 74.21875 
Q 39.75 74.21875 46.484375 68.546875 
Q 53.21875 62.890625 53.21875 53.421875 
Q 53.21875 48.921875 51.53125 44.890625 
Q 49.859375 40.875 45.40625 35.40625 
Q 44.1875 33.984375 37.640625 27.21875 
Q 31.109375 20.453125 19.1875 8.296875 
z
" id="DejaVuSans-32"/>
      </defs>
      <g transform="translate(1131.279096 527.238438)scale(0.1 -0.1)">
       <use xlink:href="#DejaVuSans-30"/>
       <use x="63.623047" xlink:href="#DejaVuSans-2e"/>
       <use x="95.410156" xlink:href="#DejaVuSans-32"/>
       <use x="159.033203" xlink:href="#DejaVuSans-30"/>
      </g>
     </g>
    </g>
   </g>
   <g id="matplotlib.axis_2">
    <g id="ytick_1">
     <g id="line2d_6">
      <defs>
       <path d="M 0 0 
L -3.5 0 
" id="mde35f61471" style="stroke:#000000;stroke-width:0.8;"/>
      </defs>
      <g>
       <use style="stroke:#000000;stroke-width:0.8;" x="180" xlink:href="#mde35f61471" y="506.87496"/>
      </g>
     </g>
     <g id="text_6">
      <!-- 0.2 -->
      <g transform="translate(157.096875 510.674178)scale(0.1 -0.1)">
       <use xlink:href="#DejaVuSans-30"/>
       <use x="63.623047" xlink:href="#DejaVuSans-2e"/>
       <use x="95.410156" xlink:href="#DejaVuSans-32"/>
      </g>
     </g>
    </g>
    <g id="ytick_2">
     <g id="line2d_7">
      <g>
       <use style="stroke:#000000;stroke-width:0.8;" x="180" xlink:href="#mde35f61471" y="428.241289"/>
      </g>
     </g>
     <g id="text_7">
      <!-- 0.4 -->
      <defs>
       <path d="M 37.796875 64.3125 
L 12.890625 25.390625 
L 37.796875 25.390625 
z
M 35.203125 72.90625 
L 47.609375 72.90625 
L 47.609375 25.390625 
L 58.015625 25.390625 
L 58.015625 17.1875 
L 47.609375 17.1875 
L 47.609375 0 
L 37.796875 0 
L 37.796875 17.1875 
L 4.890625 17.1875 
L 4.890625 26.703125 
z
" id="DejaVuSans-34"/>
      </defs>
      <g transform="translate(157.096875 432.040508)scale(0.1 -0.1)">
       <use xlink:href="#DejaVuSans-30"/>
       <use x="63.623047" xlink:href="#DejaVuSans-2e"/>
       <use x="95.410156" xlink:href="#DejaVuSans-34"/>
      </g>
     </g>
    </g>
    <g id="ytick_3">
     <g id="line2d_8">
      <g>
       <use style="stroke:#000000;stroke-width:0.8;" x="180" xlink:href="#mde35f61471" y="349.607619"/>
      </g>
     </g>
     <g id="text_8">
      <!-- 0.6 -->
      <defs>
       <path d="M 33.015625 40.375 
Q 26.375 40.375 22.484375 35.828125 
Q 18.609375 31.296875 18.609375 23.390625 
Q 18.609375 15.53125 22.484375 10.953125 
Q 26.375 6.390625 33.015625 6.390625 
Q 39.65625 6.390625 43.53125 10.953125 
Q 47.40625 15.53125 47.40625 23.390625 
Q 47.40625 31.296875 43.53125 35.828125 
Q 39.65625 40.375 33.015625 40.375 
z
M 52.59375 71.296875 
L 52.59375 62.3125 
Q 48.875 64.0625 45.09375 64.984375 
Q 41.3125 65.921875 37.59375 65.921875 
Q 27.828125 65.921875 22.671875 59.328125 
Q 17.53125 52.734375 16.796875 39.40625 
Q 19.671875 43.65625 24.015625 45.921875 
Q 28.375 48.1875 33.59375 48.1875 
Q 44.578125 48.1875 50.953125 41.515625 
Q 57.328125 34.859375 57.328125 23.390625 
Q 57.328125 12.15625 50.6875 5.359375 
Q 44.046875 -1.421875 33.015625 -1.421875 
Q 20.359375 -1.421875 13.671875 8.265625 
Q 6.984375 17.96875 6.984375 36.375 
Q 6.984375 53.65625 15.1875 63.9375 
Q 23.390625 74.21875 37.203125 74.21875 
Q 40.921875 74.21875 44.703125 73.484375 
Q 48.484375 72.75 52.59375 71.296875 
z
" id="DejaVuSans-36"/>
      </defs>
      <g transform="translate(157.096875 353.406838)scale(0.1 -0.1)">
       <use xlink:href="#DejaVuSans-30"/>
       <use x="63.623047" xlink:href="#DejaVuSans-2e"/>
       <use x="95.410156" xlink:href="#DejaVuSans-36"/>
      </g>
     </g>
    </g>
    <g id="ytick_4">
     <g id="line2d_9">
      <g>
       <use style="stroke:#000000;stroke-width:0.8;" x="180" xlink:href="#mde35f61471" y="270.973949"/>
      </g>
     </g>
     <g id="text_9">
      <!-- 0.8 -->
      <defs>
       <path d="M 31.78125 34.625 
Q 24.75 34.625 20.71875 30.859375 
Q 16.703125 27.09375 16.703125 20.515625 
Q 16.703125 13.921875 20.71875 10.15625 
Q 24.75 6.390625 31.78125 6.390625 
Q 38.8125 6.390625 42.859375 10.171875 
Q 46.921875 13.96875 46.921875 20.515625 
Q 46.921875 27.09375 42.890625 30.859375 
Q 38.875 34.625 31.78125 34.625 
z
M 21.921875 38.8125 
Q 15.578125 40.375 12.03125 44.71875 
Q 8.5 49.078125 8.5 55.328125 
Q 8.5 64.0625 14.71875 69.140625 
Q 20.953125 74.21875 31.78125 74.21875 
Q 42.671875 74.21875 48.875 69.140625 
Q 55.078125 64.0625 55.078125 55.328125 
Q 55.078125 49.078125 51.53125 44.71875 
Q 48 40.375 41.703125 38.8125 
Q 48.828125 37.15625 52.796875 32.3125 
Q 56.78125 27.484375 56.78125 20.515625 
Q 56.78125 9.90625 50.3125 4.234375 
Q 43.84375 -1.421875 31.78125 -1.421875 
Q 19.734375 -1.421875 13.25 4.234375 
Q 6.78125 9.90625 6.78125 20.515625 
Q 6.78125 27.484375 10.78125 32.3125 
Q 14.796875 37.15625 21.921875 38.8125 
z
M 18.3125 54.390625 
Q 18.3125 48.734375 21.84375 45.5625 
Q 25.390625 42.390625 31.78125 42.390625 
Q 38.140625 42.390625 41.71875 45.5625 
Q 45.3125 48.734375 45.3125 54.390625 
Q 45.3125 60.0625 41.71875 63.234375 
Q 38.140625 66.40625 31.78125 66.40625 
Q 25.390625 66.40625 21.84375 63.234375 
Q 18.3125 60.0625 18.3125 54.390625 
z
" id="DejaVuSans-38"/>
      </defs>
      <g transform="translate(157.096875 274.773167)scale(0.1 -0.1)">
       <use xlink:href="#DejaVuSans-30"/>
       <use x="63.623047" xlink:href="#DejaVuSans-2e"/>
       <use x="95.410156" xlink:href="#DejaVuSans-38"/>
      </g>
     </g>
    </g>
    <g id="ytick_5">
     <g id="line2d_10">
      <g>
       <use style="stroke:#000000;stroke-width:0.8;" x="180" xlink:href="#mde35f61471" y="192.340278"/>
      </g>
     </g>
     <g id="text_10">
      <!-- 1.0 -->
      <g transform="translate(157.096875 196.139497)scale(0.1 -0.1)">
       <use xlink:href="#DejaVuSans-31"/>
       <use x="63.623047" xlink:href="#DejaVuSans-2e"/>
       <use x="95.410156" xlink:href="#DejaVuSans-30"/>
      </g>
     </g>
    </g>
    <g id="ytick_6">
     <g id="line2d_11">
      <g>
       <use style="stroke:#000000;stroke-width:0.8;" x="180" xlink:href="#mde35f61471" y="113.706608"/>
      </g>
     </g>
     <g id="text_11">
      <!-- 1.2 -->
      <g transform="translate(157.096875 117.505827)scale(0.1 -0.1)">
       <use xlink:href="#DejaVuSans-31"/>
       <use x="63.623047" xlink:href="#DejaVuSans-2e"/>
       <use x="95.410156" xlink:href="#DejaVuSans-32"/>
      </g>
     </g>
    </g>
   </g>
   <g id="line2d_12">
    <path clip-path="url(#p3ade8cadcd)" d="M 230.727273 467.479491 
L 268.174719 467.503867 
L 284.785613 467.507013 
L 293.715564 463.747537 
L 302.189673 459.738399 
L 314.460948 456.059523 
L 322.483773 452.018145 
L 330.415429 447.961434 
L 338.547656 443.926348 
L 346.451962 439.871996 
L 361.467408 436.429413 
L 369.977984 432.423814 
L 382.003104 428.721741 
L 390.550148 424.72951 
L 405.624853 421.295184 
L 414.764492 417.345808 
L 427.477934 413.703103 
L 436.85461 409.774565 
L 452.125328 406.356359 
L 461.388044 402.418385 
L 474.461602 398.804775 
L 483.446254 394.845963 
L 498.821815 391.436407 
L 508.052622 387.495287 
L 522.776329 384.030295 
L 532.189473 380.105295 
L 542.682963 376.270331 
L 551.845393 372.320561 
L 561.190161 368.393203 
L 570.297891 364.444613 
L 579.378269 360.490912 
L 587.601665 356.46133 
L 595.920787 352.443542 
L 603.934495 348.397054 
L 614.660465 344.58568 
L 622.85651 340.556884 
L 632.502133 336.647217 
L 641.309007 332.671499 
L 649.527844 328.644669 
L 660.572903 324.861603 
L 668.93761 320.846961 
L 678.91144 316.966389 
L 688.192389 313.033526 
L 696.803251 309.038543 
L 707.652298 305.238964 
L 716.386237 301.254596 
L 725.380005 297.290279 
L 735.677483 293.442734 
L 744.972108 289.507118 
L 754.408044 285.586444 
L 763.761929 281.655546 
L 773.047437 277.715999 
L 787.183107 274.201861 
L 800.329599 270.599259 
L 809.510264 266.655387 
L 818.827681 262.720952 
L 828.122305 258.782584 
L 837.248269 254.83596 
L 846.346881 250.883832 
L 855.60048 246.945858 
L 864.512198 242.975644 
L 873.660953 239.025875 
L 882.290048 235.036002 
L 892.140801 231.148747 
L 900.961349 227.173815 
L 909.97791 223.213037 
L 918.971679 219.2499 
L 927.72841 215.27025 
L 937.911928 211.412482 
L 946.878346 207.447772 
L 955.689778 203.469302 
L 965.061896 199.540763 
L 973.732017 195.551677 
L 984.075079 191.708063 
L 992.89107 187.733918 
L 1001.85293 183.769994 
L 1010.828465 179.800174 
L 1019.662689 175.830353 
L 1029.837089 171.971012 
L 1038.748807 167.926489 
L 1047.542005 164.026259 
L 1057.005292 160.104012 
L 1065.643504 156.107456 
L 1076.009358 152.269739 
L 1084.743297 148.283799 
L 1093.718832 144.3242 
L 1102.808328 140.370892 
L 1111.642552 136.393208 
L 1123.526361 132.682092 
L 1133.03979 128.767315 
L 1147.631303 125.286988 
L 1157.231342 121.381647 
L 1169.201761 117.675249 
L 1178.400659 113.732557 
L 1193.183626 110.25459 
L 1203.162014 106.392104 
L 1215.132433 102.689637 
L 1224.299422 98.737116 
L 1233.334217 94.784988 
L 1245.272727 91.068367 
" style="fill:none;stroke:#ff0000;stroke-dasharray:5.55,2.4;stroke-dashoffset:0;stroke-width:1.5;"/>
    <defs>
     <path d="M -3 3 
L 3 3 
L 3 -3 
L -3 -3 
z
" id="me03bad39b3" style="stroke:#ff0000;stroke-linejoin:miter;"/>
    </defs>
    <g clip-path="url(#p3ade8cadcd)">
     <use style="fill:#ff0000;stroke:#ff0000;stroke-linejoin:miter;" x="230.727273" xlink:href="#me03bad39b3" y="467.479491"/>
     <use style="fill:#ff0000;stroke:#ff0000;stroke-linejoin:miter;" x="268.174719" xlink:href="#me03bad39b3" y="467.503867"/>
     <use style="fill:#ff0000;stroke:#ff0000;stroke-linejoin:miter;" x="284.785613" xlink:href="#me03bad39b3" y="467.507013"/>
     <use style="fill:#ff0000;stroke:#ff0000;stroke-linejoin:miter;" x="293.715564" xlink:href="#me03bad39b3" y="463.747537"/>
     <use style="fill:#ff0000;stroke:#ff0000;stroke-linejoin:miter;" x="302.189673" xlink:href="#me03bad39b3" y="459.738399"/>
     <use style="fill:#ff0000;stroke:#ff0000;stroke-linejoin:miter;" x="314.460948" xlink:href="#me03bad39b3" y="456.059523"/>
     <use style="fill:#ff0000;stroke:#ff0000;stroke-linejoin:miter;" x="322.483773" xlink:href="#me03bad39b3" y="452.018145"/>
     <use style="fill:#ff0000;stroke:#ff0000;stroke-linejoin:miter;" x="330.415429" xlink:href="#me03bad39b3" y="447.961434"/>
     <use style="fill:#ff0000;stroke:#ff0000;stroke-linejoin:miter;" x="338.547656" xlink:href="#me03bad39b3" y="443.926348"/>
     <use style="fill:#ff0000;stroke:#ff0000;stroke-linejoin:miter;" x="346.451962" xlink:href="#me03bad39b3" y="439.871996"/>
     <use style="fill:#ff0000;stroke:#ff0000;stroke-linejoin:miter;" x="361.467408" xlink:href="#me03bad39b3" y="436.429413"/>
     <use style="fill:#ff0000;stroke:#ff0000;stroke-linejoin:miter;" x="369.977984" xlink:href="#me03bad39b3" y="432.423814"/>
     <use style="fill:#ff0000;stroke:#ff0000;stroke-linejoin:miter;" x="382.003104" xlink:href="#me03bad39b3" y="428.721741"/>
     <use style="fill:#ff0000;stroke:#ff0000;stroke-linejoin:miter;" x="390.550148" xlink:href="#me03bad39b3" y="424.72951"/>
     <use style="fill:#ff0000;stroke:#ff0000;stroke-linejoin:miter;" x="405.624853" xlink:href="#me03bad39b3" y="421.295184"/>
     <use style="fill:#ff0000;stroke:#ff0000;stroke-linejoin:miter;" x="414.764492" xlink:href="#me03bad39b3" y="417.345808"/>
     <use style="fill:#ff0000;stroke:#ff0000;stroke-linejoin:miter;" x="427.477934" xlink:href="#me03bad39b3" y="413.703103"/>
     <use style="fill:#ff0000;stroke:#ff0000;stroke-linejoin:miter;" x="436.85461" xlink:href="#me03bad39b3" y="409.774565"/>
     <use style="fill:#ff0000;stroke:#ff0000;stroke-linejoin:miter;" x="452.125328" xlink:href="#me03bad39b3" y="406.356359"/>
     <use style="fill:#ff0000;stroke:#ff0000;stroke-linejoin:miter;" x="461.388044" xlink:href="#me03bad39b3" y="402.418385"/>
     <use style="fill:#ff0000;stroke:#ff0000;stroke-linejoin:miter;" x="474.461602" xlink:href="#me03bad39b3" y="398.804775"/>
     <use style="fill:#ff0000;stroke:#ff0000;stroke-linejoin:miter;" x="483.446254" xlink:href="#me03bad39b3" y="394.845963"/>
     <use style="fill:#ff0000;stroke:#ff0000;stroke-linejoin:miter;" x="498.821815" xlink:href="#me03bad39b3" y="391.436407"/>
     <use style="fill:#ff0000;stroke:#ff0000;stroke-linejoin:miter;" x="508.052622" xlink:href="#me03bad39b3" y="387.495287"/>
     <use style="fill:#ff0000;stroke:#ff0000;stroke-linejoin:miter;" x="522.776329" xlink:href="#me03bad39b3" y="384.030295"/>
     <use style="fill:#ff0000;stroke:#ff0000;stroke-linejoin:miter;" x="532.189473" xlink:href="#me03bad39b3" y="380.105295"/>
     <use style="fill:#ff0000;stroke:#ff0000;stroke-linejoin:miter;" x="542.682963" xlink:href="#me03bad39b3" y="376.270331"/>
     <use style="fill:#ff0000;stroke:#ff0000;stroke-linejoin:miter;" x="551.845393" xlink:href="#me03bad39b3" y="372.320561"/>
     <use style="fill:#ff0000;stroke:#ff0000;stroke-linejoin:miter;" x="561.190161" xlink:href="#me03bad39b3" y="368.393203"/>
     <use style="fill:#ff0000;stroke:#ff0000;stroke-linejoin:miter;" x="570.297891" xlink:href="#me03bad39b3" y="364.444613"/>
     <use style="fill:#ff0000;stroke:#ff0000;stroke-linejoin:miter;" x="579.378269" xlink:href="#me03bad39b3" y="360.490912"/>
     <use style="fill:#ff0000;stroke:#ff0000;stroke-linejoin:miter;" x="587.601665" xlink:href="#me03bad39b3" y="356.46133"/>
     <use style="fill:#ff0000;stroke:#ff0000;stroke-linejoin:miter;" x="595.920787" xlink:href="#me03bad39b3" y="352.443542"/>
     <use style="fill:#ff0000;stroke:#ff0000;stroke-linejoin:miter;" x="603.934495" xlink:href="#me03bad39b3" y="348.397054"/>
     <use style="fill:#ff0000;stroke:#ff0000;stroke-linejoin:miter;" x="614.660465" xlink:href="#me03bad39b3" y="344.58568"/>
     <use style="fill:#ff0000;stroke:#ff0000;stroke-linejoin:miter;" x="622.85651" xlink:href="#me03bad39b3" y="340.556884"/>
     <use style="fill:#ff0000;stroke:#ff0000;stroke-linejoin:miter;" x="632.502133" xlink:href="#me03bad39b3" y="336.647217"/>
     <use style="fill:#ff0000;stroke:#ff0000;stroke-linejoin:miter;" x="641.309007" xlink:href="#me03bad39b3" y="332.671499"/>
     <use style="fill:#ff0000;stroke:#ff0000;stroke-linejoin:miter;" x="649.527844" xlink:href="#me03bad39b3" y="328.644669"/>
     <use style="fill:#ff0000;stroke:#ff0000;stroke-linejoin:miter;" x="660.572903" xlink:href="#me03bad39b3" y="324.861603"/>
     <use style="fill:#ff0000;stroke:#ff0000;stroke-linejoin:miter;" x="668.93761" xlink:href="#me03bad39b3" y="320.846961"/>
     <use style="fill:#ff0000;stroke:#ff0000;stroke-linejoin:miter;" x="678.91144" xlink:href="#me03bad39b3" y="316.966389"/>
     <use style="fill:#ff0000;stroke:#ff0000;stroke-linejoin:miter;" x="688.192389" xlink:href="#me03bad39b3" y="313.033526"/>
     <use style="fill:#ff0000;stroke:#ff0000;stroke-linejoin:miter;" x="696.803251" xlink:href="#me03bad39b3" y="309.038543"/>
     <use style="fill:#ff0000;stroke:#ff0000;stroke-linejoin:miter;" x="707.652298" xlink:href="#me03bad39b3" y="305.238964"/>
     <use style="fill:#ff0000;stroke:#ff0000;stroke-linejoin:miter;" x="716.386237" xlink:href="#me03bad39b3" y="301.254596"/>
     <use style="fill:#ff0000;stroke:#ff0000;stroke-linejoin:miter;" x="725.380005" xlink:href="#me03bad39b3" y="297.290279"/>
     <use style="fill:#ff0000;stroke:#ff0000;stroke-linejoin:miter;" x="735.677483" xlink:href="#me03bad39b3" y="293.442734"/>
     <use style="fill:#ff0000;stroke:#ff0000;stroke-linejoin:miter;" x="744.972108" xlink:href="#me03bad39b3" y="289.507118"/>
     <use style="fill:#ff0000;stroke:#ff0000;stroke-linejoin:miter;" x="754.408044" xlink:href="#me03bad39b3" y="285.586444"/>
     <use style="fill:#ff0000;stroke:#ff0000;stroke-linejoin:miter;" x="763.761929" xlink:href="#me03bad39b3" y="281.655546"/>
     <use style="fill:#ff0000;stroke:#ff0000;stroke-linejoin:miter;" x="773.047437" xlink:href="#me03bad39b3" y="277.715999"/>
     <use style="fill:#ff0000;stroke:#ff0000;stroke-linejoin:miter;" x="787.183107" xlink:href="#me03bad39b3" y="274.201861"/>
     <use style="fill:#ff0000;stroke:#ff0000;stroke-linejoin:miter;" x="800.329599" xlink:href="#me03bad39b3" y="270.599259"/>
     <use style="fill:#ff0000;stroke:#ff0000;stroke-linejoin:miter;" x="809.510264" xlink:href="#me03bad39b3" y="266.655387"/>
     <use style="fill:#ff0000;stroke:#ff0000;stroke-linejoin:miter;" x="818.827681" xlink:href="#me03bad39b3" y="262.720952"/>
     <use style="fill:#ff0000;stroke:#ff0000;stroke-linejoin:miter;" x="828.122305" xlink:href="#me03bad39b3" y="258.782584"/>
     <use style="fill:#ff0000;stroke:#ff0000;stroke-linejoin:miter;" x="837.248269" xlink:href="#me03bad39b3" y="254.83596"/>
     <use style="fill:#ff0000;stroke:#ff0000;stroke-linejoin:miter;" x="846.346881" xlink:href="#me03bad39b3" y="250.883832"/>
     <use style="fill:#ff0000;stroke:#ff0000;stroke-linejoin:miter;" x="855.60048" xlink:href="#me03bad39b3" y="246.945858"/>
     <use style="fill:#ff0000;stroke:#ff0000;stroke-linejoin:miter;" x="864.512198" xlink:href="#me03bad39b3" y="242.975644"/>
     <use style="fill:#ff0000;stroke:#ff0000;stroke-linejoin:miter;" x="873.660953" xlink:href="#me03bad39b3" y="239.025875"/>
     <use style="fill:#ff0000;stroke:#ff0000;stroke-linejoin:miter;" x="882.290048" xlink:href="#me03bad39b3" y="235.036002"/>
     <use style="fill:#ff0000;stroke:#ff0000;stroke-linejoin:miter;" x="892.140801" xlink:href="#me03bad39b3" y="231.148747"/>
     <use style="fill:#ff0000;stroke:#ff0000;stroke-linejoin:miter;" x="900.961349" xlink:href="#me03bad39b3" y="227.173815"/>
     <use style="fill:#ff0000;stroke:#ff0000;stroke-linejoin:miter;" x="909.97791" xlink:href="#me03bad39b3" y="223.213037"/>
     <use style="fill:#ff0000;stroke:#ff0000;stroke-linejoin:miter;" x="918.971679" xlink:href="#me03bad39b3" y="219.2499"/>
     <use style="fill:#ff0000;stroke:#ff0000;stroke-linejoin:miter;" x="927.72841" xlink:href="#me03bad39b3" y="215.27025"/>
     <use style="fill:#ff0000;stroke:#ff0000;stroke-linejoin:miter;" x="937.911928" xlink:href="#me03bad39b3" y="211.412482"/>
     <use style="fill:#ff0000;stroke:#ff0000;stroke-linejoin:miter;" x="946.878346" xlink:href="#me03bad39b3" y="207.447772"/>
     <use style="fill:#ff0000;stroke:#ff0000;stroke-linejoin:miter;" x="955.689778" xlink:href="#me03bad39b3" y="203.469302"/>
     <use style="fill:#ff0000;stroke:#ff0000;stroke-linejoin:miter;" x="965.061896" xlink:href="#me03bad39b3" y="199.540763"/>
     <use style="fill:#ff0000;stroke:#ff0000;stroke-linejoin:miter;" x="973.732017" xlink:href="#me03bad39b3" y="195.551677"/>
     <use style="fill:#ff0000;stroke:#ff0000;stroke-linejoin:miter;" x="984.075079" xlink:href="#me03bad39b3" y="191.708063"/>
     <use style="fill:#ff0000;stroke:#ff0000;stroke-linejoin:miter;" x="992.89107" xlink:href="#me03bad39b3" y="187.733918"/>
     <use style="fill:#ff0000;stroke:#ff0000;stroke-linejoin:miter;" x="1001.85293" xlink:href="#me03bad39b3" y="183.769994"/>
     <use style="fill:#ff0000;stroke:#ff0000;stroke-linejoin:miter;" x="1010.828465" xlink:href="#me03bad39b3" y="179.800174"/>
     <use style="fill:#ff0000;stroke:#ff0000;stroke-linejoin:miter;" x="1019.662689" xlink:href="#me03bad39b3" y="175.830353"/>
     <use style="fill:#ff0000;stroke:#ff0000;stroke-linejoin:miter;" x="1029.837089" xlink:href="#me03bad39b3" y="171.971012"/>
     <use style="fill:#ff0000;stroke:#ff0000;stroke-linejoin:miter;" x="1038.748807" xlink:href="#me03bad39b3" y="167.926489"/>
     <use style="fill:#ff0000;stroke:#ff0000;stroke-linejoin:miter;" x="1047.542005" xlink:href="#me03bad39b3" y="164.026259"/>
     <use style="fill:#ff0000;stroke:#ff0000;stroke-linejoin:miter;" x="1057.005292" xlink:href="#me03bad39b3" y="160.104012"/>
     <use style="fill:#ff0000;stroke:#ff0000;stroke-linejoin:miter;" x="1065.643504" xlink:href="#me03bad39b3" y="156.107456"/>
     <use style="fill:#ff0000;stroke:#ff0000;stroke-linejoin:miter;" x="1076.009358" xlink:href="#me03bad39b3" y="152.269739"/>
     <use style="fill:#ff0000;stroke:#ff0000;stroke-linejoin:miter;" x="1084.743297" xlink:href="#me03bad39b3" y="148.283799"/>
     <use style="fill:#ff0000;stroke:#ff0000;stroke-linejoin:miter;" x="1093.718832" xlink:href="#me03bad39b3" y="144.3242"/>
     <use style="fill:#ff0000;stroke:#ff0000;stroke-linejoin:miter;" x="1102.808328" xlink:href="#me03bad39b3" y="140.370892"/>
     <use style="fill:#ff0000;stroke:#ff0000;stroke-linejoin:miter;" x="1111.642552" xlink:href="#me03bad39b3" y="136.393208"/>
     <use style="fill:#ff0000;stroke:#ff0000;stroke-linejoin:miter;" x="1123.526361" xlink:href="#me03bad39b3" y="132.682092"/>
     <use style="fill:#ff0000;stroke:#ff0000;stroke-linejoin:miter;" x="1133.03979" xlink:href="#me03bad39b3" y="128.767315"/>
     <use style="fill:#ff0000;stroke:#ff0000;stroke-linejoin:miter;" x="1147.631303" xlink:href="#me03bad39b3" y="125.286988"/>
     <use style="fill:#ff0000;stroke:#ff0000;stroke-linejoin:miter;" x="1157.231342" xlink:href="#me03bad39b3" y="121.381647"/>
     <use style="fill:#ff0000;stroke:#ff0000;stroke-linejoin:miter;" x="1169.201761" xlink:href="#me03bad39b3" y="117.675249"/>
     <use style="fill:#ff0000;stroke:#ff0000;stroke-linejoin:miter;" x="1178.400659" xlink:href="#me03bad39b3" y="113.732557"/>
     <use style="fill:#ff0000;stroke:#ff0000;stroke-linejoin:miter;" x="1193.183626" xlink:href="#me03bad39b3" y="110.25459"/>
     <use style="fill:#ff0000;stroke:#ff0000;stroke-linejoin:miter;" x="1203.162014" xlink:href="#me03bad39b3" y="106.392104"/>
     <use style="fill:#ff0000;stroke:#ff0000;stroke-linejoin:miter;" x="1215.132433" xlink:href="#me03bad39b3" y="102.689637"/>
     <use style="fill:#ff0000;stroke:#ff0000;stroke-linejoin:miter;" x="1224.299422" xlink:href="#me03bad39b3" y="98.737116"/>
     <use style="fill:#ff0000;stroke:#ff0000;stroke-linejoin:miter;" x="1233.334217" xlink:href="#me03bad39b3" y="94.784988"/>
     <use style="fill:#ff0000;stroke:#ff0000;stroke-linejoin:miter;" x="1245.272727" xlink:href="#me03bad39b3" y="91.068367"/>
    </g>
   </g>
   <g id="line2d_13">
    <path clip-path="url(#p3ade8cadcd)" d="M 230.727273 467.479491 
L 268.174719 467.503867 
L 284.785613 467.507013 
L 293.715564 463.747537 
L 302.189673 459.738399 
L 314.460948 456.059523 
L 322.483773 452.018145 
L 330.415429 447.961434 
L 338.547656 443.926348 
L 346.451962 439.871996 
L 361.467408 436.429413 
L 369.977984 432.423814 
L 382.003104 428.721741 
L 390.550148 424.72951 
L 405.624853 421.295184 
L 414.764492 417.345808 
L 427.477934 413.703103 
L 436.85461 409.774565 
L 452.125328 406.356359 
L 461.388044 402.418385 
L 474.461602 398.804775 
L 483.446254 394.845963 
L 498.821815 391.436407 
L 508.052622 387.495287 
L 522.776329 384.030295 
L 532.189473 380.105295 
L 542.682963 376.270331 
L 551.845393 372.320561 
L 561.190161 368.393203 
L 570.297891 364.444613 
L 579.378269 360.490912 
L 587.601665 356.46133 
L 595.920787 352.443542 
L 603.934495 348.397054 
L 614.660465 344.58568 
L 622.85651 340.556884 
L 632.502133 336.647217 
L 641.309007 332.671499 
L 649.527844 328.644669 
L 660.572903 324.861603 
L 668.93761 320.846961 
L 678.91144 316.966389 
L 688.192389 313.033526 
L 696.803251 309.038543 
L 707.652298 305.238964 
L 716.386237 301.254596 
L 725.380005 297.290279 
L 735.677483 293.442734 
L 744.972108 289.507118 
L 754.408044 285.586444 
L 763.761929 281.655546 
L 773.047437 277.715999 
L 787.183107 274.201861 
L 800.329599 270.599259 
L 809.510264 266.655387 
L 818.827681 262.720952 
L 828.122305 258.782584 
L 837.248269 254.83596 
L 846.346881 250.883832 
L 855.60048 246.945858 
L 864.512198 242.975644 
L 873.660953 239.025875 
L 882.290048 235.036002 
L 892.140801 231.148747 
L 900.961349 227.173815 
L 909.97791 223.213037 
L 918.971679 219.2499 
L 927.72841 215.27025 
L 937.911928 211.412482 
L 946.878346 207.447772 
L 955.689778 203.469302 
L 965.061896 199.540763 
L 973.732017 195.551677 
L 984.075079 191.708063 
L 992.89107 187.733918 
L 1001.85293 183.769994 
L 1010.828465 179.800174 
L 1019.662689 175.830353 
L 1029.837089 171.971012 
L 1038.748807 167.926489 
L 1047.542005 164.026259 
L 1057.005292 160.104012 
L 1065.643504 156.107456 
L 1076.009358 152.269739 
L 1084.743297 148.283799 
L 1093.718832 144.3242 
L 1102.808328 140.370892 
L 1111.642552 136.393208 
L 1123.526361 132.682092 
L 1133.03979 128.767315 
L 1147.631303 125.286988 
L 1157.231342 121.381647 
L 1169.201761 117.675249 
L 1178.400659 113.732557 
L 1193.183626 110.25459 
L 1203.162014 106.392104 
L 1215.132433 102.689637 
L 1224.299422 98.737116 
L 1233.334217 94.784988 
L 1245.272727 91.068367 
" style="fill:none;stroke:#800080;stroke-dasharray:9.6,2.4,1.5,2.4;stroke-dashoffset:0;stroke-width:1.5;"/>
    <defs>
     <path d="M -3 3 
L 3 -3 
M -3 -3 
L 3 3 
" id="m875fdbea73" style="stroke:#800080;"/>
    </defs>
    <g clip-path="url(#p3ade8cadcd)">
     <use style="fill:#800080;stroke:#800080;" x="230.727273" xlink:href="#m875fdbea73" y="467.479491"/>
     <use style="fill:#800080;stroke:#800080;" x="268.174719" xlink:href="#m875fdbea73" y="467.503867"/>
     <use style="fill:#800080;stroke:#800080;" x="284.785613" xlink:href="#m875fdbea73" y="467.507013"/>
     <use style="fill:#800080;stroke:#800080;" x="293.715564" xlink:href="#m875fdbea73" y="463.747537"/>
     <use style="fill:#800080;stroke:#800080;" x="302.189673" xlink:href="#m875fdbea73" y="459.738399"/>
     <use style="fill:#800080;stroke:#800080;" x="314.460948" xlink:href="#m875fdbea73" y="456.059523"/>
     <use style="fill:#800080;stroke:#800080;" x="322.483773" xlink:href="#m875fdbea73" y="452.018145"/>
     <use style="fill:#800080;stroke:#800080;" x="330.415429" xlink:href="#m875fdbea73" y="447.961434"/>
     <use style="fill:#800080;stroke:#800080;" x="338.547656" xlink:href="#m875fdbea73" y="443.926348"/>
     <use style="fill:#800080;stroke:#800080;" x="346.451962" xlink:href="#m875fdbea73" y="439.871996"/>
     <use style="fill:#800080;stroke:#800080;" x="361.467408" xlink:href="#m875fdbea73" y="436.429413"/>
     <use style="fill:#800080;stroke:#800080;" x="369.977984" xlink:href="#m875fdbea73" y="432.423814"/>
     <use style="fill:#800080;stroke:#800080;" x="382.003104" xlink:href="#m875fdbea73" y="428.721741"/>
     <use style="fill:#800080;stroke:#800080;" x="390.550148" xlink:href="#m875fdbea73" y="424.72951"/>
     <use style="fill:#800080;stroke:#800080;" x="405.624853" xlink:href="#m875fdbea73" y="421.295184"/>
     <use style="fill:#800080;stroke:#800080;" x="414.764492" xlink:href="#m875fdbea73" y="417.345808"/>
     <use style="fill:#800080;stroke:#800080;" x="427.477934" xlink:href="#m875fdbea73" y="413.703103"/>
     <use style="fill:#800080;stroke:#800080;" x="436.85461" xlink:href="#m875fdbea73" y="409.774565"/>
     <use style="fill:#800080;stroke:#800080;" x="452.125328" xlink:href="#m875fdbea73" y="406.356359"/>
     <use style="fill:#800080;stroke:#800080;" x="461.388044" xlink:href="#m875fdbea73" y="402.418385"/>
     <use style="fill:#800080;stroke:#800080;" x="474.461602" xlink:href="#m875fdbea73" y="398.804775"/>
     <use style="fill:#800080;stroke:#800080;" x="483.446254" xlink:href="#m875fdbea73" y="394.845963"/>
     <use style="fill:#800080;stroke:#800080;" x="498.821815" xlink:href="#m875fdbea73" y="391.436407"/>
     <use style="fill:#800080;stroke:#800080;" x="508.052622" xlink:href="#m875fdbea73" y="387.495287"/>
     <use style="fill:#800080;stroke:#800080;" x="522.776329" xlink:href="#m875fdbea73" y="384.030295"/>
     <use style="fill:#800080;stroke:#800080;" x="532.189473" xlink:href="#m875fdbea73" y="380.105295"/>
     <use style="fill:#800080;stroke:#800080;" x="542.682963" xlink:href="#m875fdbea73" y="376.270331"/>
     <use style="fill:#800080;stroke:#800080;" x="551.845393" xlink:href="#m875fdbea73" y="372.320561"/>
     <use style="fill:#800080;stroke:#800080;" x="561.190161" xlink:href="#m875fdbea73" y="368.393203"/>
     <use style="fill:#800080;stroke:#800080;" x="570.297891" xlink:href="#m875fdbea73" y="364.444613"/>
     <use style="fill:#800080;stroke:#800080;" x="579.378269" xlink:href="#m875fdbea73" y="360.490912"/>
     <use style="fill:#800080;stroke:#800080;" x="587.601665" xlink:href="#m875fdbea73" y="356.46133"/>
     <use style="fill:#800080;stroke:#800080;" x="595.920787" xlink:href="#m875fdbea73" y="352.443542"/>
     <use style="fill:#800080;stroke:#800080;" x="603.934495" xlink:href="#m875fdbea73" y="348.397054"/>
     <use style="fill:#800080;stroke:#800080;" x="614.660465" xlink:href="#m875fdbea73" y="344.58568"/>
     <use style="fill:#800080;stroke:#800080;" x="622.85651" xlink:href="#m875fdbea73" y="340.556884"/>
     <use style="fill:#800080;stroke:#800080;" x="632.502133" xlink:href="#m875fdbea73" y="336.647217"/>
     <use style="fill:#800080;stroke:#800080;" x="641.309007" xlink:href="#m875fdbea73" y="332.671499"/>
     <use style="fill:#800080;stroke:#800080;" x="649.527844" xlink:href="#m875fdbea73" y="328.644669"/>
     <use style="fill:#800080;stroke:#800080;" x="660.572903" xlink:href="#m875fdbea73" y="324.861603"/>
     <use style="fill:#800080;stroke:#800080;" x="668.93761" xlink:href="#m875fdbea73" y="320.846961"/>
     <use style="fill:#800080;stroke:#800080;" x="678.91144" xlink:href="#m875fdbea73" y="316.966389"/>
     <use style="fill:#800080;stroke:#800080;" x="688.192389" xlink:href="#m875fdbea73" y="313.033526"/>
     <use style="fill:#800080;stroke:#800080;" x="696.803251" xlink:href="#m875fdbea73" y="309.038543"/>
     <use style="fill:#800080;stroke:#800080;" x="707.652298" xlink:href="#m875fdbea73" y="305.238964"/>
     <use style="fill:#800080;stroke:#800080;" x="716.386237" xlink:href="#m875fdbea73" y="301.254596"/>
     <use style="fill:#800080;stroke:#800080;" x="725.380005" xlink:href="#m875fdbea73" y="297.290279"/>
     <use style="fill:#800080;stroke:#800080;" x="735.677483" xlink:href="#m875fdbea73" y="293.442734"/>
     <use style="fill:#800080;stroke:#800080;" x="744.972108" xlink:href="#m875fdbea73" y="289.507118"/>
     <use style="fill:#800080;stroke:#800080;" x="754.408044" xlink:href="#m875fdbea73" y="285.586444"/>
     <use style="fill:#800080;stroke:#800080;" x="763.761929" xlink:href="#m875fdbea73" y="281.655546"/>
     <use style="fill:#800080;stroke:#800080;" x="773.047437" xlink:href="#m875fdbea73" y="277.715999"/>
     <use style="fill:#800080;stroke:#800080;" x="787.183107" xlink:href="#m875fdbea73" y="274.201861"/>
     <use style="fill:#800080;stroke:#800080;" x="800.329599" xlink:href="#m875fdbea73" y="270.599259"/>
     <use style="fill:#800080;stroke:#800080;" x="809.510264" xlink:href="#m875fdbea73" y="266.655387"/>
     <use style="fill:#800080;stroke:#800080;" x="818.827681" xlink:href="#m875fdbea73" y="262.720952"/>
     <use style="fill:#800080;stroke:#800080;" x="828.122305" xlink:href="#m875fdbea73" y="258.782584"/>
     <use style="fill:#800080;stroke:#800080;" x="837.248269" xlink:href="#m875fdbea73" y="254.83596"/>
     <use style="fill:#800080;stroke:#800080;" x="846.346881" xlink:href="#m875fdbea73" y="250.883832"/>
     <use style="fill:#800080;stroke:#800080;" x="855.60048" xlink:href="#m875fdbea73" y="246.945858"/>
     <use style="fill:#800080;stroke:#800080;" x="864.512198" xlink:href="#m875fdbea73" y="242.975644"/>
     <use style="fill:#800080;stroke:#800080;" x="873.660953" xlink:href="#m875fdbea73" y="239.025875"/>
     <use style="fill:#800080;stroke:#800080;" x="882.290048" xlink:href="#m875fdbea73" y="235.036002"/>
     <use style="fill:#800080;stroke:#800080;" x="892.140801" xlink:href="#m875fdbea73" y="231.148747"/>
     <use style="fill:#800080;stroke:#800080;" x="900.961349" xlink:href="#m875fdbea73" y="227.173815"/>
     <use style="fill:#800080;stroke:#800080;" x="909.97791" xlink:href="#m875fdbea73" y="223.213037"/>
     <use style="fill:#800080;stroke:#800080;" x="918.971679" xlink:href="#m875fdbea73" y="219.2499"/>
     <use style="fill:#800080;stroke:#800080;" x="927.72841" xlink:href="#m875fdbea73" y="215.27025"/>
     <use style="fill:#800080;stroke:#800080;" x="937.911928" xlink:href="#m875fdbea73" y="211.412482"/>
     <use style="fill:#800080;stroke:#800080;" x="946.878346" xlink:href="#m875fdbea73" y="207.447772"/>
     <use style="fill:#800080;stroke:#800080;" x="955.689778" xlink:href="#m875fdbea73" y="203.469302"/>
     <use style="fill:#800080;stroke:#800080;" x="965.061896" xlink:href="#m875fdbea73" y="199.540763"/>
     <use style="fill:#800080;stroke:#800080;" x="973.732017" xlink:href="#m875fdbea73" y="195.551677"/>
     <use style="fill:#800080;stroke:#800080;" x="984.075079" xlink:href="#m875fdbea73" y="191.708063"/>
     <use style="fill:#800080;stroke:#800080;" x="992.89107" xlink:href="#m875fdbea73" y="187.733918"/>
     <use style="fill:#800080;stroke:#800080;" x="1001.85293" xlink:href="#m875fdbea73" y="183.769994"/>
     <use style="fill:#800080;stroke:#800080;" x="1010.828465" xlink:href="#m875fdbea73" y="179.800174"/>
     <use style="fill:#800080;stroke:#800080;" x="1019.662689" xlink:href="#m875fdbea73" y="175.830353"/>
     <use style="fill:#800080;stroke:#800080;" x="1029.837089" xlink:href="#m875fdbea73" y="171.971012"/>
     <use style="fill:#800080;stroke:#800080;" x="1038.748807" xlink:href="#m875fdbea73" y="167.926489"/>
     <use style="fill:#800080;stroke:#800080;" x="1047.542005" xlink:href="#m875fdbea73" y="164.026259"/>
     <use style="fill:#800080;stroke:#800080;" x="1057.005292" xlink:href="#m875fdbea73" y="160.104012"/>
     <use style="fill:#800080;stroke:#800080;" x="1065.643504" xlink:href="#m875fdbea73" y="156.107456"/>
     <use style="fill:#800080;stroke:#800080;" x="1076.009358" xlink:href="#m875fdbea73" y="152.269739"/>
     <use style="fill:#800080;stroke:#800080;" x="1084.743297" xlink:href="#m875fdbea73" y="148.283799"/>
     <use style="fill:#800080;stroke:#800080;" x="1093.718832" xlink:href="#m875fdbea73" y="144.3242"/>
     <use style="fill:#800080;stroke:#800080;" x="1102.808328" xlink:href="#m875fdbea73" y="140.370892"/>
     <use style="fill:#800080;stroke:#800080;" x="1111.642552" xlink:href="#m875fdbea73" y="136.393208"/>
     <use style="fill:#800080;stroke:#800080;" x="1123.526361" xlink:href="#m875fdbea73" y="132.682092"/>
     <use style="fill:#800080;stroke:#800080;" x="1133.03979" xlink:href="#m875fdbea73" y="128.767315"/>
     <use style="fill:#800080;stroke:#800080;" x="1147.631303" xlink:href="#m875fdbea73" y="125.286988"/>
     <use style="fill:#800080;stroke:#800080;" x="1157.231342" xlink:href="#m875fdbea73" y="121.381647"/>
     <use style="fill:#800080;stroke:#800080;" x="1169.201761" xlink:href="#m875fdbea73" y="117.675249"/>
     <use style="fill:#800080;stroke:#800080;" x="1178.400659" xlink:href="#m875fdbea73" y="113.732557"/>
     <use style="fill:#800080;stroke:#800080;" x="1193.183626" xlink:href="#m875fdbea73" y="110.25459"/>
     <use style="fill:#800080;stroke:#800080;" x="1203.162014" xlink:href="#m875fdbea73" y="106.392104"/>
     <use style="fill:#800080;stroke:#800080;" x="1215.132433" xlink:href="#m875fdbea73" y="102.689637"/>
     <use style="fill:#800080;stroke:#800080;" x="1224.299422" xlink:href="#m875fdbea73" y="98.737116"/>
     <use style="fill:#800080;stroke:#800080;" x="1233.334217" xlink:href="#m875fdbea73" y="94.784988"/>
     <use style="fill:#800080;stroke:#800080;" x="1245.272727" xlink:href="#m875fdbea73" y="91.068367"/>
    </g>
   </g>
   <g id="line2d_14">
    <path clip-path="url(#p3ade8cadcd)" d="M 230.727273 492.48 
L 268.174719 477.59766 
L 284.785613 470.996169 
L 293.715564 467.447234 
L 302.189673 464.079459 
L 314.460948 459.202617 
L 322.483773 456.014191 
L 330.415429 452.861997 
L 338.547656 449.630093 
L 346.451962 446.488769 
L 361.467408 440.52134 
L 369.977984 437.139072 
L 382.003104 432.360057 
L 390.550148 428.963296 
L 405.624853 422.972316 
L 414.764492 419.340047 
L 427.477934 414.287479 
L 436.85461 410.561006 
L 452.125328 404.492128 
L 461.388044 400.810945 
L 474.461602 395.61526 
L 483.446254 392.044586 
L 498.821815 385.93404 
L 508.052622 382.265539 
L 522.776329 376.414053 
L 532.189473 372.673087 
L 542.682963 368.502771 
L 551.845393 364.861444 
L 561.190161 361.147652 
L 570.297891 357.528064 
L 579.378269 353.919346 
L 587.601665 350.651209 
L 595.920787 347.345029 
L 603.934495 344.160226 
L 614.660465 339.897518 
L 622.85651 336.640252 
L 632.502133 332.806894 
L 641.309007 329.306872 
L 649.527844 326.040547 
L 660.572903 321.651027 
L 668.93761 318.326731 
L 678.91144 314.362938 
L 688.192389 310.674509 
L 696.803251 307.252386 
L 707.652298 302.940764 
L 716.386237 299.469728 
L 725.380005 295.89543 
L 735.677483 291.803013 
L 744.972108 288.109149 
L 754.408044 284.359126 
L 763.761929 280.641711 
L 773.047437 276.95147 
L 787.183107 271.333681 
L 800.329599 266.109011 
L 809.510264 262.460437 
L 818.827681 258.757515 
L 828.122305 255.063652 
L 837.248269 251.436817 
L 846.346881 247.820852 
L 855.60048 244.143293 
L 864.512198 240.601604 
L 873.660953 236.965712 
L 882.290048 233.536342 
L 892.140801 229.621462 
L 900.961349 226.116006 
L 909.97791 222.53265 
L 918.971679 218.958352 
L 927.72841 215.478258 
L 937.911928 211.431131 
L 946.878346 207.867702 
L 955.689778 204.365869 
L 965.061896 200.641208 
L 973.732017 197.195534 
L 984.075079 193.085001 
L 992.89107 189.581356 
L 1001.85293 186.019739 
L 1010.828465 182.452688 
L 1019.662689 178.941796 
L 1029.837089 174.898292 
L 1038.748807 171.356603 
L 1047.542005 167.862016 
L 1057.005292 164.101123 
L 1065.643504 160.66813 
L 1076.009358 156.548539 
L 1084.743297 153.077503 
L 1093.718832 149.510451 
L 1102.808328 145.89811 
L 1111.642552 142.387218 
L 1123.526361 137.664362 
L 1133.03979 133.883541 
L 1147.631303 128.084592 
L 1157.231342 124.269351 
L 1169.201761 119.512074 
L 1178.400659 115.856254 
L 1193.183626 109.981217 
L 1203.162014 106.015613 
L 1215.132433 101.258336 
L 1224.299422 97.615197 
L 1233.334217 94.024595 
L 1245.272727 89.28 
" style="fill:none;stroke:#0000ff;stroke-linecap:square;stroke-width:1.5;"/>
   </g>
   <g id="line2d_15">
    <path clip-path="url(#p3ade8cadcd)" d="M 230.727273 480.339321 
L 268.174719 480.307301 
L 284.785613 480.293098 
L 293.715564 480.285462 
L 302.189673 480.278216 
L 314.460948 480.267723 
L 322.483773 480.260863 
L 330.415429 480.254081 
L 338.547656 480.247127 
L 346.451962 480.240369 
L 361.467408 480.227529 
L 369.977984 480.220252 
L 382.003104 480.20997 
L 390.550148 480.202662 
L 405.624853 480.189772 
L 414.764492 480.181957 
L 427.477934 480.171086 
L 436.85461 480.163068 
L 452.125328 480.150011 
L 461.388044 480.14209 
L 474.461602 480.130912 
L 483.446254 480.123229 
L 498.821815 480.110082 
L 508.052622 480.102189 
L 522.776329 480.089599 
L 532.189473 480.08155 
L 542.682963 480.072578 
L 551.845393 480.064743 
L 561.190161 480.056753 
L 570.297891 480.048965 
L 579.378269 480.041201 
L 587.601665 480.034169 
L 595.920787 480.027056 
L 603.934495 480.020203 
L 614.660465 480.011032 
L 622.85651 480.004024 
L 632.502133 479.995776 
L 641.309007 479.988246 
L 649.527844 479.981218 
L 660.572903 479.971774 
L 668.93761 479.964621 
L 678.91144 479.956093 
L 688.192389 479.948157 
L 696.803251 479.940794 
L 707.652298 479.931518 
L 716.386237 479.92405 
L 725.380005 479.916359 
L 735.677483 479.907554 
L 744.972108 479.899607 
L 754.408044 479.891538 
L 763.761929 479.88354 
L 773.047437 479.8756 
L 787.183107 479.863513 
L 800.329599 479.852272 
L 809.510264 479.844422 
L 818.827681 479.836455 
L 828.122305 479.828507 
L 837.248269 479.820704 
L 846.346881 479.812924 
L 855.60048 479.805012 
L 864.512198 479.797392 
L 873.660953 479.789569 
L 882.290048 479.78219 
L 892.140801 479.773767 
L 900.961349 479.766225 
L 909.97791 479.758515 
L 918.971679 479.750825 
L 927.72841 479.743337 
L 937.911928 479.73463 
L 946.878346 479.726963 
L 955.689778 479.719429 
L 965.061896 479.711415 
L 973.732017 479.704001 
L 984.075079 479.695157 
L 992.89107 479.687619 
L 1001.85293 479.679956 
L 1010.828465 479.672281 
L 1019.662689 479.664727 
L 1029.837089 479.656027 
L 1038.748807 479.648407 
L 1047.542005 479.640889 
L 1057.005292 479.632797 
L 1065.643504 479.625411 
L 1076.009358 479.616547 
L 1084.743297 479.609079 
L 1093.718832 479.601404 
L 1102.808328 479.593632 
L 1111.642552 479.586078 
L 1123.526361 479.575917 
L 1133.03979 479.567782 
L 1147.631303 479.555305 
L 1157.231342 479.547097 
L 1169.201761 479.536861 
L 1178.400659 479.528995 
L 1193.183626 479.516355 
L 1203.162014 479.507823 
L 1215.132433 479.497587 
L 1224.299422 479.489749 
L 1233.334217 479.482023 
L 1245.272727 479.471815 
" style="fill:none;stroke:#008000;stroke-linecap:square;stroke-width:1.5;"/>
    <defs>
     <path d="M 0 3 
C 0.795609 3 1.55874 2.683901 2.12132 2.12132 
C 2.683901 1.55874 3 0.795609 3 0 
C 3 -0.795609 2.683901 -1.55874 2.12132 -2.12132 
C 1.55874 -2.683901 0.795609 -3 0 -3 
C -0.795609 -3 -1.55874 -2.683901 -2.12132 -2.12132 
C -2.683901 -1.55874 -3 -0.795609 -3 0 
C -3 0.795609 -2.683901 1.55874 -2.12132 2.12132 
C -1.55874 2.683901 -0.795609 3 0 3 
z
" id="m3ebe9b9a14" style="stroke:#008000;"/>
    </defs>
    <g clip-path="url(#p3ade8cadcd)">
     <use style="fill:#008000;stroke:#008000;" x="230.727273" xlink:href="#m3ebe9b9a14" y="480.339321"/>
     <use style="fill:#008000;stroke:#008000;" x="268.174719" xlink:href="#m3ebe9b9a14" y="480.307301"/>
     <use style="fill:#008000;stroke:#008000;" x="284.785613" xlink:href="#m3ebe9b9a14" y="480.293098"/>
     <use style="fill:#008000;stroke:#008000;" x="293.715564" xlink:href="#m3ebe9b9a14" y="480.285462"/>
     <use style="fill:#008000;stroke:#008000;" x="302.189673" xlink:href="#m3ebe9b9a14" y="480.278216"/>
     <use style="fill:#008000;stroke:#008000;" x="314.460948" xlink:href="#m3ebe9b9a14" y="480.267723"/>
     <use style="fill:#008000;stroke:#008000;" x="322.483773" xlink:href="#m3ebe9b9a14" y="480.260863"/>
     <use style="fill:#008000;stroke:#008000;" x="330.415429" xlink:href="#m3ebe9b9a14" y="480.254081"/>
     <use style="fill:#008000;stroke:#008000;" x="338.547656" xlink:href="#m3ebe9b9a14" y="480.247127"/>
     <use style="fill:#008000;stroke:#008000;" x="346.451962" xlink:href="#m3ebe9b9a14" y="480.240369"/>
     <use style="fill:#008000;stroke:#008000;" x="361.467408" xlink:href="#m3ebe9b9a14" y="480.227529"/>
     <use style="fill:#008000;stroke:#008000;" x="369.977984" xlink:href="#m3ebe9b9a14" y="480.220252"/>
     <use style="fill:#008000;stroke:#008000;" x="382.003104" xlink:href="#m3ebe9b9a14" y="480.20997"/>
     <use style="fill:#008000;stroke:#008000;" x="390.550148" xlink:href="#m3ebe9b9a14" y="480.202662"/>
     <use style="fill:#008000;stroke:#008000;" x="405.624853" xlink:href="#m3ebe9b9a14" y="480.189772"/>
     <use style="fill:#008000;stroke:#008000;" x="414.764492" xlink:href="#m3ebe9b9a14" y="480.181957"/>
     <use style="fill:#008000;stroke:#008000;" x="427.477934" xlink:href="#m3ebe9b9a14" y="480.171086"/>
     <use style="fill:#008000;stroke:#008000;" x="436.85461" xlink:href="#m3ebe9b9a14" y="480.163068"/>
     <use style="fill:#008000;stroke:#008000;" x="452.125328" xlink:href="#m3ebe9b9a14" y="480.150011"/>
     <use style="fill:#008000;stroke:#008000;" x="461.388044" xlink:href="#m3ebe9b9a14" y="480.14209"/>
     <use style="fill:#008000;stroke:#008000;" x="474.461602" xlink:href="#m3ebe9b9a14" y="480.130912"/>
     <use style="fill:#008000;stroke:#008000;" x="483.446254" xlink:href="#m3ebe9b9a14" y="480.123229"/>
     <use style="fill:#008000;stroke:#008000;" x="498.821815" xlink:href="#m3ebe9b9a14" y="480.110082"/>
     <use style="fill:#008000;stroke:#008000;" x="508.052622" xlink:href="#m3ebe9b9a14" y="480.102189"/>
     <use style="fill:#008000;stroke:#008000;" x="522.776329" xlink:href="#m3ebe9b9a14" y="480.089599"/>
     <use style="fill:#008000;stroke:#008000;" x="532.189473" xlink:href="#m3ebe9b9a14" y="480.08155"/>
     <use style="fill:#008000;stroke:#008000;" x="542.682963" xlink:href="#m3ebe9b9a14" y="480.072578"/>
     <use style="fill:#008000;stroke:#008000;" x="551.845393" xlink:href="#m3ebe9b9a14" y="480.064743"/>
     <use style="fill:#008000;stroke:#008000;" x="561.190161" xlink:href="#m3ebe9b9a14" y="480.056753"/>
     <use style="fill:#008000;stroke:#008000;" x="570.297891" xlink:href="#m3ebe9b9a14" y="480.048965"/>
     <use style="fill:#008000;stroke:#008000;" x="579.378269" xlink:href="#m3ebe9b9a14" y="480.041201"/>
     <use style="fill:#008000;stroke:#008000;" x="587.601665" xlink:href="#m3ebe9b9a14" y="480.034169"/>
     <use style="fill:#008000;stroke:#008000;" x="595.920787" xlink:href="#m3ebe9b9a14" y="480.027056"/>
     <use style="fill:#008000;stroke:#008000;" x="603.934495" xlink:href="#m3ebe9b9a14" y="480.020203"/>
     <use style="fill:#008000;stroke:#008000;" x="614.660465" xlink:href="#m3ebe9b9a14" y="480.011032"/>
     <use style="fill:#008000;stroke:#008000;" x="622.85651" xlink:href="#m3ebe9b9a14" y="480.004024"/>
     <use style="fill:#008000;stroke:#008000;" x="632.502133" xlink:href="#m3ebe9b9a14" y="479.995776"/>
     <use style="fill:#008000;stroke:#008000;" x="641.309007" xlink:href="#m3ebe9b9a14" y="479.988246"/>
     <use style="fill:#008000;stroke:#008000;" x="649.527844" xlink:href="#m3ebe9b9a14" y="479.981218"/>
     <use style="fill:#008000;stroke:#008000;" x="660.572903" xlink:href="#m3ebe9b9a14" y="479.971774"/>
     <use style="fill:#008000;stroke:#008000;" x="668.93761" xlink:href="#m3ebe9b9a14" y="479.964621"/>
     <use style="fill:#008000;stroke:#008000;" x="678.91144" xlink:href="#m3ebe9b9a14" y="479.956093"/>
     <use style="fill:#008000;stroke:#008000;" x="688.192389" xlink:href="#m3ebe9b9a14" y="479.948157"/>
     <use style="fill:#008000;stroke:#008000;" x="696.803251" xlink:href="#m3ebe9b9a14" y="479.940794"/>
     <use style="fill:#008000;stroke:#008000;" x="707.652298" xlink:href="#m3ebe9b9a14" y="479.931518"/>
     <use style="fill:#008000;stroke:#008000;" x="716.386237" xlink:href="#m3ebe9b9a14" y="479.92405"/>
     <use style="fill:#008000;stroke:#008000;" x="725.380005" xlink:href="#m3ebe9b9a14" y="479.916359"/>
     <use style="fill:#008000;stroke:#008000;" x="735.677483" xlink:href="#m3ebe9b9a14" y="479.907554"/>
     <use style="fill:#008000;stroke:#008000;" x="744.972108" xlink:href="#m3ebe9b9a14" y="479.899607"/>
     <use style="fill:#008000;stroke:#008000;" x="754.408044" xlink:href="#m3ebe9b9a14" y="479.891538"/>
     <use style="fill:#008000;stroke:#008000;" x="763.761929" xlink:href="#m3ebe9b9a14" y="479.88354"/>
     <use style="fill:#008000;stroke:#008000;" x="773.047437" xlink:href="#m3ebe9b9a14" y="479.8756"/>
     <use style="fill:#008000;stroke:#008000;" x="787.183107" xlink:href="#m3ebe9b9a14" y="479.863513"/>
     <use style="fill:#008000;stroke:#008000;" x="800.329599" xlink:href="#m3ebe9b9a14" y="479.852272"/>
     <use style="fill:#008000;stroke:#008000;" x="809.510264" xlink:href="#m3ebe9b9a14" y="479.844422"/>
     <use style="fill:#008000;stroke:#008000;" x="818.827681" xlink:href="#m3ebe9b9a14" y="479.836455"/>
     <use style="fill:#008000;stroke:#008000;" x="828.122305" xlink:href="#m3ebe9b9a14" y="479.828507"/>
     <use style="fill:#008000;stroke:#008000;" x="837.248269" xlink:href="#m3ebe9b9a14" y="479.820704"/>
     <use style="fill:#008000;stroke:#008000;" x="846.346881" xlink:href="#m3ebe9b9a14" y="479.812924"/>
     <use style="fill:#008000;stroke:#008000;" x="855.60048" xlink:href="#m3ebe9b9a14" y="479.805012"/>
     <use style="fill:#008000;stroke:#008000;" x="864.512198" xlink:href="#m3ebe9b9a14" y="479.797392"/>
     <use style="fill:#008000;stroke:#008000;" x="873.660953" xlink:href="#m3ebe9b9a14" y="479.789569"/>
     <use style="fill:#008000;stroke:#008000;" x="882.290048" xlink:href="#m3ebe9b9a14" y="479.78219"/>
     <use style="fill:#008000;stroke:#008000;" x="892.140801" xlink:href="#m3ebe9b9a14" y="479.773767"/>
     <use style="fill:#008000;stroke:#008000;" x="900.961349" xlink:href="#m3ebe9b9a14" y="479.766225"/>
     <use style="fill:#008000;stroke:#008000;" x="909.97791" xlink:href="#m3ebe9b9a14" y="479.758515"/>
     <use style="fill:#008000;stroke:#008000;" x="918.971679" xlink:href="#m3ebe9b9a14" y="479.750825"/>
     <use style="fill:#008000;stroke:#008000;" x="927.72841" xlink:href="#m3ebe9b9a14" y="479.743337"/>
     <use style="fill:#008000;stroke:#008000;" x="937.911928" xlink:href="#m3ebe9b9a14" y="479.73463"/>
     <use style="fill:#008000;stroke:#008000;" x="946.878346" xlink:href="#m3ebe9b9a14" y="479.726963"/>
     <use style="fill:#008000;stroke:#008000;" x="955.689778" xlink:href="#m3ebe9b9a14" y="479.719429"/>
     <use style="fill:#008000;stroke:#008000;" x="965.061896" xlink:href="#m3ebe9b9a14" y="479.711415"/>
     <use style="fill:#008000;stroke:#008000;" x="973.732017" xlink:href="#m3ebe9b9a14" y="479.704001"/>
     <use style="fill:#008000;stroke:#008000;" x="984.075079" xlink:href="#m3ebe9b9a14" y="479.695157"/>
     <use style="fill:#008000;stroke:#008000;" x="992.89107" xlink:href="#m3ebe9b9a14" y="479.687619"/>
     <use style="fill:#008000;stroke:#008000;" x="1001.85293" xlink:href="#m3ebe9b9a14" y="479.679956"/>
     <use style="fill:#008000;stroke:#008000;" x="1010.828465" xlink:href="#m3ebe9b9a14" y="479.672281"/>
     <use style="fill:#008000;stroke:#008000;" x="1019.662689" xlink:href="#m3ebe9b9a14" y="479.664727"/>
     <use style="fill:#008000;stroke:#008000;" x="1029.837089" xlink:href="#m3ebe9b9a14" y="479.656027"/>
     <use style="fill:#008000;stroke:#008000;" x="1038.748807" xlink:href="#m3ebe9b9a14" y="479.648407"/>
     <use style="fill:#008000;stroke:#008000;" x="1047.542005" xlink:href="#m3ebe9b9a14" y="479.640889"/>
     <use style="fill:#008000;stroke:#008000;" x="1057.005292" xlink:href="#m3ebe9b9a14" y="479.632797"/>
     <use style="fill:#008000;stroke:#008000;" x="1065.643504" xlink:href="#m3ebe9b9a14" y="479.625411"/>
     <use style="fill:#008000;stroke:#008000;" x="1076.009358" xlink:href="#m3ebe9b9a14" y="479.616547"/>
     <use style="fill:#008000;stroke:#008000;" x="1084.743297" xlink:href="#m3ebe9b9a14" y="479.609079"/>
     <use style="fill:#008000;stroke:#008000;" x="1093.718832" xlink:href="#m3ebe9b9a14" y="479.601404"/>
     <use style="fill:#008000;stroke:#008000;" x="1102.808328" xlink:href="#m3ebe9b9a14" y="479.593632"/>
     <use style="fill:#008000;stroke:#008000;" x="1111.642552" xlink:href="#m3ebe9b9a14" y="479.586078"/>
     <use style="fill:#008000;stroke:#008000;" x="1123.526361" xlink:href="#m3ebe9b9a14" y="479.575917"/>
     <use style="fill:#008000;stroke:#008000;" x="1133.03979" xlink:href="#m3ebe9b9a14" y="479.567782"/>
     <use style="fill:#008000;stroke:#008000;" x="1147.631303" xlink:href="#m3ebe9b9a14" y="479.555305"/>
     <use style="fill:#008000;stroke:#008000;" x="1157.231342" xlink:href="#m3ebe9b9a14" y="479.547097"/>
     <use style="fill:#008000;stroke:#008000;" x="1169.201761" xlink:href="#m3ebe9b9a14" y="479.536861"/>
     <use style="fill:#008000;stroke:#008000;" x="1178.400659" xlink:href="#m3ebe9b9a14" y="479.528995"/>
     <use style="fill:#008000;stroke:#008000;" x="1193.183626" xlink:href="#m3ebe9b9a14" y="479.516355"/>
     <use style="fill:#008000;stroke:#008000;" x="1203.162014" xlink:href="#m3ebe9b9a14" y="479.507823"/>
     <use style="fill:#008000;stroke:#008000;" x="1215.132433" xlink:href="#m3ebe9b9a14" y="479.497587"/>
     <use style="fill:#008000;stroke:#008000;" x="1224.299422" xlink:href="#m3ebe9b9a14" y="479.489749"/>
     <use style="fill:#008000;stroke:#008000;" x="1233.334217" xlink:href="#m3ebe9b9a14" y="479.482023"/>
     <use style="fill:#008000;stroke:#008000;" x="1245.272727" xlink:href="#m3ebe9b9a14" y="479.471815"/>
    </g>
   </g>
   <g id="patch_3">
    <path d="M 180 512.64 
L 180 69.12 
" style="fill:none;stroke:#000000;stroke-linecap:square;stroke-linejoin:miter;stroke-width:0.8;"/>
   </g>
   <g id="patch_4">
    <path d="M 1296 512.64 
L 1296 69.12 
" style="fill:none;stroke:#000000;stroke-linecap:square;stroke-linejoin:miter;stroke-width:0.8;"/>
   </g>
   <g id="patch_5">
    <path d="M 180 512.64 
L 1296 512.64 
" style="fill:none;stroke:#000000;stroke-linecap:square;stroke-linejoin:miter;stroke-width:0.8;"/>
   </g>
   <g id="patch_6">
    <path d="M 180 69.12 
L 1296 69.12 
" style="fill:none;stroke:#000000;stroke-linecap:square;stroke-linejoin:miter;stroke-width:0.8;"/>
   </g>
   <g id="text_12">
    <!-- 5000000.0 bit/s -->
    <defs>
     <path id="DejaVuSans-20"/>
     <path d="M 48.6875 27.296875 
Q 48.6875 37.203125 44.609375 42.84375 
Q 40.53125 48.484375 33.40625 48.484375 
Q 26.265625 48.484375 22.1875 42.84375 
Q 18.109375 37.203125 18.109375 27.296875 
Q 18.109375 17.390625 22.1875 11.75 
Q 26.265625 6.109375 33.40625 6.109375 
Q 40.53125 6.109375 44.609375 11.75 
Q 48.6875 17.390625 48.6875 27.296875 
z
M 18.109375 46.390625 
Q 20.953125 51.265625 25.265625 53.625 
Q 29.59375 56 35.59375 56 
Q 45.5625 56 51.78125 48.09375 
Q 58.015625 40.1875 58.015625 27.296875 
Q 58.015625 14.40625 51.78125 6.484375 
Q 45.5625 -1.421875 35.59375 -1.421875 
Q 29.59375 -1.421875 25.265625 0.953125 
Q 20.953125 3.328125 18.109375 8.203125 
L 18.109375 0 
L 9.078125 0 
L 9.078125 75.984375 
L 18.109375 75.984375 
z
" id="DejaVuSans-62"/>
     <path d="M 9.421875 54.6875 
L 18.40625 54.6875 
L 18.40625 0 
L 9.421875 0 
z
M 9.421875 75.984375 
L 18.40625 75.984375 
L 18.40625 64.59375 
L 9.421875 64.59375 
z
" id="DejaVuSans-69"/>
     <path d="M 18.3125 70.21875 
L 18.3125 54.6875 
L 36.8125 54.6875 
L 36.8125 47.703125 
L 18.3125 47.703125 
L 18.3125 18.015625 
Q 18.3125 11.328125 20.140625 9.421875 
Q 21.96875 7.515625 27.59375 7.515625 
L 36.8125 7.515625 
L 36.8125 0 
L 27.59375 0 
Q 17.1875 0 13.234375 3.875 
Q 9.28125 7.765625 9.28125 18.015625 
L 9.28125 47.703125 
L 2.6875 47.703125 
L 2.6875 54.6875 
L 9.28125 54.6875 
L 9.28125 70.21875 
z
" id="DejaVuSans-74"/>
     <path d="M 25.390625 72.90625 
L 33.6875 72.90625 
L 8.296875 -9.28125 
L 0 -9.28125 
z
" id="DejaVuSans-2f"/>
     <path d="M 44.28125 53.078125 
L 44.28125 44.578125 
Q 40.484375 46.53125 36.375 47.5 
Q 32.28125 48.484375 27.875 48.484375 
Q 21.1875 48.484375 17.84375 46.4375 
Q 14.5 44.390625 14.5 40.28125 
Q 14.5 37.15625 16.890625 35.375 
Q 19.28125 33.59375 26.515625 31.984375 
L 29.59375 31.296875 
Q 39.15625 29.25 43.1875 25.515625 
Q 47.21875 21.78125 47.21875 15.09375 
Q 47.21875 7.46875 41.1875 3.015625 
Q 35.15625 -1.421875 24.609375 -1.421875 
Q 20.21875 -1.421875 15.453125 -0.5625 
Q 10.6875 0.296875 5.421875 2 
L 5.421875 11.28125 
Q 10.40625 8.6875 15.234375 7.390625 
Q 20.0625 6.109375 24.8125 6.109375 
Q 31.15625 6.109375 34.5625 8.28125 
Q 37.984375 10.453125 37.984375 14.40625 
Q 37.984375 18.0625 35.515625 20.015625 
Q 33.0625 21.96875 24.703125 23.78125 
L 21.578125 24.515625 
Q 13.234375 26.265625 9.515625 29.90625 
Q 5.8125 33.546875 5.8125 39.890625 
Q 5.8125 47.609375 11.28125 51.796875 
Q 16.75 56 26.8125 56 
Q 31.78125 56 36.171875 55.265625 
Q 40.578125 54.546875 44.28125 53.078125 
z
" id="DejaVuSans-73"/>
    </defs>
    <g transform="translate(690.67125 63.12)scale(0.12 -0.12)">
     <use xlink:href="#DejaVuSans-35"/>
     <use x="63.623047" xlink:href="#DejaVuSans-30"/>
     <use x="127.246094" xlink:href="#DejaVuSans-30"/>
     <use x="190.869141" xlink:href="#DejaVuSans-30"/>
     <use x="254.492188" xlink:href="#DejaVuSans-30"/>
     <use x="318.115234" xlink:href="#DejaVuSans-30"/>
     <use x="381.738281" xlink:href="#DejaVuSans-30"/>
     <use x="445.361328" xlink:href="#DejaVuSans-2e"/>
     <use x="477.148438" xlink:href="#DejaVuSans-30"/>
     <use x="540.771484" xlink:href="#DejaVuSans-20"/>
     <use x="572.558594" xlink:href="#DejaVuSans-62"/>
     <use x="636.035156" xlink:href="#DejaVuSans-69"/>
     <use x="663.818359" xlink:href="#DejaVuSans-74"/>
     <use x="703.027344" xlink:href="#DejaVuSans-2f"/>
     <use x="736.71875" xlink:href="#DejaVuSans-73"/>
    </g>
   </g>
   <g id="legend_1">
    <g id="patch_7">
     <path d="M 1173.520313 135.8325 
L 1289 135.8325 
Q 1291 135.8325 1291 133.8325 
L 1291 76.12 
Q 1291 74.12 1289 74.12 
L 1173.520313 74.12 
Q 1171.520313 74.12 1171.520313 76.12 
L 1171.520313 133.8325 
Q 1171.520313 135.8325 1173.520313 135.8325 
z
" style="fill:#ffffff;opacity:0.8;stroke:#cccccc;stroke-linejoin:miter;"/>
    </g>
    <g id="line2d_16">
     <path d="M 1175.520313 82.218437 
L 1195.520313 82.218437 
" style="fill:none;stroke:#ff0000;stroke-dasharray:5.55,2.4;stroke-dashoffset:0;stroke-width:1.5;"/>
    </g>
    <g id="line2d_17">
     <g>
      <use style="fill:#ff0000;stroke:#ff0000;stroke-linejoin:miter;" x="1185.520313" xlink:href="#me03bad39b3" y="82.218437"/>
     </g>
    </g>
    <g id="text_13">
     <!-- tcpdump -->
     <defs>
      <path d="M 48.78125 52.59375 
L 48.78125 44.1875 
Q 44.96875 46.296875 41.140625 47.34375 
Q 37.3125 48.390625 33.40625 48.390625 
Q 24.65625 48.390625 19.8125 42.84375 
Q 14.984375 37.3125 14.984375 27.296875 
Q 14.984375 17.28125 19.8125 11.734375 
Q 24.65625 6.203125 33.40625 6.203125 
Q 37.3125 6.203125 41.140625 7.25 
Q 44.96875 8.296875 48.78125 10.40625 
L 48.78125 2.09375 
Q 45.015625 0.34375 40.984375 -0.53125 
Q 36.96875 -1.421875 32.421875 -1.421875 
Q 20.0625 -1.421875 12.78125 6.34375 
Q 5.515625 14.109375 5.515625 27.296875 
Q 5.515625 40.671875 12.859375 48.328125 
Q 20.21875 56 33.015625 56 
Q 37.15625 56 41.109375 55.140625 
Q 45.0625 54.296875 48.78125 52.59375 
z
" id="DejaVuSans-63"/>
      <path d="M 18.109375 8.203125 
L 18.109375 -20.796875 
L 9.078125 -20.796875 
L 9.078125 54.6875 
L 18.109375 54.6875 
L 18.109375 46.390625 
Q 20.953125 51.265625 25.265625 53.625 
Q 29.59375 56 35.59375 56 
Q 45.5625 56 51.78125 48.09375 
Q 58.015625 40.1875 58.015625 27.296875 
Q 58.015625 14.40625 51.78125 6.484375 
Q 45.5625 -1.421875 35.59375 -1.421875 
Q 29.59375 -1.421875 25.265625 0.953125 
Q 20.953125 3.328125 18.109375 8.203125 
z
M 48.6875 27.296875 
Q 48.6875 37.203125 44.609375 42.84375 
Q 40.53125 48.484375 33.40625 48.484375 
Q 26.265625 48.484375 22.1875 42.84375 
Q 18.109375 37.203125 18.109375 27.296875 
Q 18.109375 17.390625 22.1875 11.75 
Q 26.265625 6.109375 33.40625 6.109375 
Q 40.53125 6.109375 44.609375 11.75 
Q 48.6875 17.390625 48.6875 27.296875 
z
" id="DejaVuSans-70"/>
      <path d="M 45.40625 46.390625 
L 45.40625 75.984375 
L 54.390625 75.984375 
L 54.390625 0 
L 45.40625 0 
L 45.40625 8.203125 
Q 42.578125 3.328125 38.25 0.953125 
Q 33.9375 -1.421875 27.875 -1.421875 
Q 17.96875 -1.421875 11.734375 6.484375 
Q 5.515625 14.40625 5.515625 27.296875 
Q 5.515625 40.1875 11.734375 48.09375 
Q 17.96875 56 27.875 56 
Q 33.9375 56 38.25 53.625 
Q 42.578125 51.265625 45.40625 46.390625 
z
M 14.796875 27.296875 
Q 14.796875 17.390625 18.875 11.75 
Q 22.953125 6.109375 30.078125 6.109375 
Q 37.203125 6.109375 41.296875 11.75 
Q 45.40625 17.390625 45.40625 27.296875 
Q 45.40625 37.203125 41.296875 42.84375 
Q 37.203125 48.484375 30.078125 48.484375 
Q 22.953125 48.484375 18.875 42.84375 
Q 14.796875 37.203125 14.796875 27.296875 
z
" id="DejaVuSans-64"/>
      <path d="M 8.5 21.578125 
L 8.5 54.6875 
L 17.484375 54.6875 
L 17.484375 21.921875 
Q 17.484375 14.15625 20.5 10.265625 
Q 23.53125 6.390625 29.59375 6.390625 
Q 36.859375 6.390625 41.078125 11.03125 
Q 45.3125 15.671875 45.3125 23.6875 
L 45.3125 54.6875 
L 54.296875 54.6875 
L 54.296875 0 
L 45.3125 0 
L 45.3125 8.40625 
Q 42.046875 3.421875 37.71875 1 
Q 33.40625 -1.421875 27.6875 -1.421875 
Q 18.265625 -1.421875 13.375 4.4375 
Q 8.5 10.296875 8.5 21.578125 
z
M 31.109375 56 
z
" id="DejaVuSans-75"/>
      <path d="M 52 44.1875 
Q 55.375 50.25 60.0625 53.125 
Q 64.75 56 71.09375 56 
Q 79.640625 56 84.28125 50.015625 
Q 88.921875 44.046875 88.921875 33.015625 
L 88.921875 0 
L 79.890625 0 
L 79.890625 32.71875 
Q 79.890625 40.578125 77.09375 44.375 
Q 74.3125 48.1875 68.609375 48.1875 
Q 61.625 48.1875 57.5625 43.546875 
Q 53.515625 38.921875 53.515625 30.90625 
L 53.515625 0 
L 44.484375 0 
L 44.484375 32.71875 
Q 44.484375 40.625 41.703125 44.40625 
Q 38.921875 48.1875 33.109375 48.1875 
Q 26.21875 48.1875 22.15625 43.53125 
Q 18.109375 38.875 18.109375 30.90625 
L 18.109375 0 
L 9.078125 0 
L 9.078125 54.6875 
L 18.109375 54.6875 
L 18.109375 46.1875 
Q 21.1875 51.21875 25.484375 53.609375 
Q 29.78125 56 35.6875 56 
Q 41.65625 56 45.828125 52.96875 
Q 50 49.953125 52 44.1875 
z
" id="DejaVuSans-6d"/>
     </defs>
     <g transform="translate(1203.520313 85.718437)scale(0.1 -0.1)">
      <use xlink:href="#DejaVuSans-74"/>
      <use x="39.208984" xlink:href="#DejaVuSans-63"/>
      <use x="94.189453" xlink:href="#DejaVuSans-70"/>
      <use x="157.666016" xlink:href="#DejaVuSans-64"/>
      <use x="221.142578" xlink:href="#DejaVuSans-75"/>
      <use x="284.521484" xlink:href="#DejaVuSans-6d"/>
      <use x="381.933594" xlink:href="#DejaVuSans-70"/>
     </g>
    </g>
    <g id="line2d_18">
     <path d="M 1175.520313 96.896563 
L 1195.520313 96.896563 
" style="fill:none;stroke:#800080;stroke-dasharray:9.6,2.4,1.5,2.4;stroke-dashoffset:0;stroke-width:1.5;"/>
    </g>
    <g id="line2d_19">
     <g>
      <use style="fill:#800080;stroke:#800080;" x="1185.520313" xlink:href="#m875fdbea73" y="96.896563"/>
     </g>
    </g>
    <g id="text_14">
     <!-- filtered tcpdump -->
     <defs>
      <path d="M 37.109375 75.984375 
L 37.109375 68.5 
L 28.515625 68.5 
Q 23.6875 68.5 21.796875 66.546875 
Q 19.921875 64.59375 19.921875 59.515625 
L 19.921875 54.6875 
L 34.71875 54.6875 
L 34.71875 47.703125 
L 19.921875 47.703125 
L 19.921875 0 
L 10.890625 0 
L 10.890625 47.703125 
L 2.296875 47.703125 
L 2.296875 54.6875 
L 10.890625 54.6875 
L 10.890625 58.5 
Q 10.890625 67.625 15.140625 71.796875 
Q 19.390625 75.984375 28.609375 75.984375 
z
" id="DejaVuSans-66"/>
      <path d="M 9.421875 75.984375 
L 18.40625 75.984375 
L 18.40625 0 
L 9.421875 0 
z
" id="DejaVuSans-6c"/>
      <path d="M 56.203125 29.59375 
L 56.203125 25.203125 
L 14.890625 25.203125 
Q 15.484375 15.921875 20.484375 11.0625 
Q 25.484375 6.203125 34.421875 6.203125 
Q 39.59375 6.203125 44.453125 7.46875 
Q 49.3125 8.734375 54.109375 11.28125 
L 54.109375 2.78125 
Q 49.265625 0.734375 44.1875 -0.34375 
Q 39.109375 -1.421875 33.890625 -1.421875 
Q 20.796875 -1.421875 13.15625 6.1875 
Q 5.515625 13.8125 5.515625 26.8125 
Q 5.515625 40.234375 12.765625 48.109375 
Q 20.015625 56 32.328125 56 
Q 43.359375 56 49.78125 48.890625 
Q 56.203125 41.796875 56.203125 29.59375 
z
M 47.21875 32.234375 
Q 47.125 39.59375 43.09375 43.984375 
Q 39.0625 48.390625 32.421875 48.390625 
Q 24.90625 48.390625 20.390625 44.140625 
Q 15.875 39.890625 15.1875 32.171875 
z
" id="DejaVuSans-65"/>
      <path d="M 41.109375 46.296875 
Q 39.59375 47.171875 37.8125 47.578125 
Q 36.03125 48 33.890625 48 
Q 26.265625 48 22.1875 43.046875 
Q 18.109375 38.09375 18.109375 28.8125 
L 18.109375 0 
L 9.078125 0 
L 9.078125 54.6875 
L 18.109375 54.6875 
L 18.109375 46.1875 
Q 20.953125 51.171875 25.484375 53.578125 
Q 30.03125 56 36.53125 56 
Q 37.453125 56 38.578125 55.875 
Q 39.703125 55.765625 41.0625 55.515625 
z
" id="DejaVuSans-72"/>
     </defs>
     <g transform="translate(1203.520313 100.396563)scale(0.1 -0.1)">
      <use xlink:href="#DejaVuSans-66"/>
      <use x="35.205078" xlink:href="#DejaVuSans-69"/>
      <use x="62.988281" xlink:href="#DejaVuSans-6c"/>
      <use x="90.771484" xlink:href="#DejaVuSans-74"/>
      <use x="129.980469" xlink:href="#DejaVuSans-65"/>
      <use x="191.503906" xlink:href="#DejaVuSans-72"/>
      <use x="232.585938" xlink:href="#DejaVuSans-65"/>
      <use x="294.109375" xlink:href="#DejaVuSans-64"/>
      <use x="357.585938" xlink:href="#DejaVuSans-20"/>
      <use x="389.373047" xlink:href="#DejaVuSans-74"/>
      <use x="428.582031" xlink:href="#DejaVuSans-63"/>
      <use x="483.5625" xlink:href="#DejaVuSans-70"/>
      <use x="547.039062" xlink:href="#DejaVuSans-64"/>
      <use x="610.515625" xlink:href="#DejaVuSans-75"/>
      <use x="673.894531" xlink:href="#DejaVuSans-6d"/>
      <use x="771.306641" xlink:href="#DejaVuSans-70"/>
     </g>
    </g>
    <g id="line2d_20">
     <path d="M 1175.520313 111.574687 
L 1195.520313 111.574687 
" style="fill:none;stroke:#0000ff;stroke-linecap:square;stroke-width:1.5;"/>
    </g>
    <g id="line2d_21"/>
    <g id="text_15">
     <!-- OLS -->
     <defs>
      <path d="M 39.40625 66.21875 
Q 28.65625 66.21875 22.328125 58.203125 
Q 16.015625 50.203125 16.015625 36.375 
Q 16.015625 22.609375 22.328125 14.59375 
Q 28.65625 6.59375 39.40625 6.59375 
Q 50.140625 6.59375 56.421875 14.59375 
Q 62.703125 22.609375 62.703125 36.375 
Q 62.703125 50.203125 56.421875 58.203125 
Q 50.140625 66.21875 39.40625 66.21875 
z
M 39.40625 74.21875 
Q 54.734375 74.21875 63.90625 63.9375 
Q 73.09375 53.65625 73.09375 36.375 
Q 73.09375 19.140625 63.90625 8.859375 
Q 54.734375 -1.421875 39.40625 -1.421875 
Q 24.03125 -1.421875 14.8125 8.828125 
Q 5.609375 19.09375 5.609375 36.375 
Q 5.609375 53.65625 14.8125 63.9375 
Q 24.03125 74.21875 39.40625 74.21875 
z
" id="DejaVuSans-4f"/>
      <path d="M 9.8125 72.90625 
L 19.671875 72.90625 
L 19.671875 8.296875 
L 55.171875 8.296875 
L 55.171875 0 
L 9.8125 0 
z
" id="DejaVuSans-4c"/>
      <path d="M 53.515625 70.515625 
L 53.515625 60.890625 
Q 47.90625 63.578125 42.921875 64.890625 
Q 37.9375 66.21875 33.296875 66.21875 
Q 25.25 66.21875 20.875 63.09375 
Q 16.5 59.96875 16.5 54.203125 
Q 16.5 49.359375 19.40625 46.890625 
Q 22.3125 44.4375 30.421875 42.921875 
L 36.375 41.703125 
Q 47.40625 39.59375 52.65625 34.296875 
Q 57.90625 29 57.90625 20.125 
Q 57.90625 9.515625 50.796875 4.046875 
Q 43.703125 -1.421875 29.984375 -1.421875 
Q 24.8125 -1.421875 18.96875 -0.25 
Q 13.140625 0.921875 6.890625 3.21875 
L 6.890625 13.375 
Q 12.890625 10.015625 18.65625 8.296875 
Q 24.421875 6.59375 29.984375 6.59375 
Q 38.421875 6.59375 43.015625 9.90625 
Q 47.609375 13.234375 47.609375 19.390625 
Q 47.609375 24.75 44.3125 27.78125 
Q 41.015625 30.8125 33.5 32.328125 
L 27.484375 33.5 
Q 16.453125 35.6875 11.515625 40.375 
Q 6.59375 45.0625 6.59375 53.421875 
Q 6.59375 63.09375 13.40625 68.65625 
Q 20.21875 74.21875 32.171875 74.21875 
Q 37.3125 74.21875 42.625 73.28125 
Q 47.953125 72.359375 53.515625 70.515625 
z
" id="DejaVuSans-53"/>
     </defs>
     <g transform="translate(1203.520313 115.074687)scale(0.1 -0.1)">
      <use xlink:href="#DejaVuSans-4f"/>
      <use x="78.710938" xlink:href="#DejaVuSans-4c"/>
      <use x="134.423828" xlink:href="#DejaVuSans-53"/>
     </g>
    </g>
    <g id="line2d_22">
     <path d="M 1175.520313 126.252813 
L 1195.520313 126.252813 
" style="fill:none;stroke:#008000;stroke-linecap:square;stroke-width:1.5;"/>
    </g>
    <g id="line2d_23">
     <g>
      <use style="fill:#008000;stroke:#008000;" x="1185.520313" xlink:href="#m3ebe9b9a14" y="126.252813"/>
     </g>
    </g>
    <g id="text_16">
     <!-- IRLS -->
     <defs>
      <path d="M 9.8125 72.90625 
L 19.671875 72.90625 
L 19.671875 0 
L 9.8125 0 
z
" id="DejaVuSans-49"/>
      <path d="M 44.390625 34.1875 
Q 47.5625 33.109375 50.5625 29.59375 
Q 53.5625 26.078125 56.59375 19.921875 
L 66.609375 0 
L 56 0 
L 46.6875 18.703125 
Q 43.0625 26.03125 39.671875 28.421875 
Q 36.28125 30.8125 30.421875 30.8125 
L 19.671875 30.8125 
L 19.671875 0 
L 9.8125 0 
L 9.8125 72.90625 
L 32.078125 72.90625 
Q 44.578125 72.90625 50.734375 67.671875 
Q 56.890625 62.453125 56.890625 51.90625 
Q 56.890625 45.015625 53.6875 40.46875 
Q 50.484375 35.9375 44.390625 34.1875 
z
M 19.671875 64.796875 
L 19.671875 38.921875 
L 32.078125 38.921875 
Q 39.203125 38.921875 42.84375 42.21875 
Q 46.484375 45.515625 46.484375 51.90625 
Q 46.484375 58.296875 42.84375 61.546875 
Q 39.203125 64.796875 32.078125 64.796875 
z
" id="DejaVuSans-52"/>
     </defs>
     <g transform="translate(1203.520313 129.752813)scale(0.1 -0.1)">
      <use xlink:href="#DejaVuSans-49"/>
      <use x="29.492188" xlink:href="#DejaVuSans-52"/>
      <use x="98.974609" xlink:href="#DejaVuSans-4c"/>
      <use x="154.6875" xlink:href="#DejaVuSans-53"/>
     </g>
    </g>
   </g>
  </g>
 </g>
 <defs>
  <clipPath id="p3ade8cadcd">
   <rect height="443.52" width="1116" x="180" y="69.12"/>
  </clipPath>
 </defs>
</svg>
