<?xml version="1.0" encoding="utf-8" standalone="no"?>
<!DOCTYPE svg PUBLIC "-//W3C//DTD SVG 1.1//EN"
  "http://www.w3.org/Graphics/SVG/1.1/DTD/svg11.dtd">
<!-- Created with matplotlib (http://matplotlib.org/) -->
<svg height="576pt" version="1.1" viewBox="0 0 1440 576" width="1440pt" xmlns="http://www.w3.org/2000/svg" xmlns:xlink="http://www.w3.org/1999/xlink">
 <defs>
  <style type="text/css">
*{stroke-linecap:butt;stroke-linejoin:round;}
  </style>
 </defs>
 <g id="figure_1">
  <g id="patch_1">
   <path d="M 0 576 
L 1440 576 
L 1440 0 
L 0 0 
z
" style="fill:#ffffff;"/>
  </g>
  <g id="axes_1">
   <g id="patch_2">
    <path d="M 180 512.64 
L 1296 512.64 
L 1296 69.12 
L 180 69.12 
z
" style="fill:#ffffff;"/>
   </g>
   <g id="matplotlib.axis_1">
    <g id="xtick_1">
     <g id="line2d_1">
      <defs>
       <path d="M 0 0 
L 0 3.5 
" id="m980c2da1ea" style="stroke:#000000;stroke-width:0.8;"/>
      </defs>
      <g>
       <use style="stroke:#000000;stroke-width:0.8;" x="230.727273" xlink:href="#m980c2da1ea" y="512.64"/>
      </g>
     </g>
     <g id="text_1">
      <!-- 0.0 -->
      <defs>
       <path d="M 31.78125 66.40625 
Q 24.171875 66.40625 20.328125 58.90625 
Q 16.5 51.421875 16.5 36.375 
Q 16.5 21.390625 20.328125 13.890625 
Q 24.171875 6.390625 31.78125 6.390625 
Q 39.453125 6.390625 43.28125 13.890625 
Q 47.125 21.390625 47.125 36.375 
Q 47.125 51.421875 43.28125 58.90625 
Q 39.453125 66.40625 31.78125 66.40625 
z
M 31.78125 74.21875 
Q 44.046875 74.21875 50.515625 64.515625 
Q 56.984375 54.828125 56.984375 36.375 
Q 56.984375 17.96875 50.515625 8.265625 
Q 44.046875 -1.421875 31.78125 -1.421875 
Q 19.53125 -1.421875 13.0625 8.265625 
Q 6.59375 17.96875 6.59375 36.375 
Q 6.59375 54.828125 13.0625 64.515625 
Q 19.53125 74.21875 31.78125 74.21875 
z
" id="DejaVuSans-30"/>
       <path d="M 10.6875 12.40625 
L 21 12.40625 
L 21 0 
L 10.6875 0 
z
" id="DejaVuSans-2e"/>
      </defs>
      <g transform="translate(222.77571 527.238438)scale(0.1 -0.1)">
       <use xlink:href="#DejaVuSans-30"/>
       <use x="63.623047" xlink:href="#DejaVuSans-2e"/>
       <use x="95.410156" xlink:href="#DejaVuSans-30"/>
      </g>
     </g>
    </g>
    <g id="xtick_2">
     <g id="line2d_2">
      <g>
       <use style="stroke:#000000;stroke-width:0.8;" x="385.348001" xlink:href="#m980c2da1ea" y="512.64"/>
      </g>
     </g>
     <g id="text_2">
      <!-- 0.2 -->
      <defs>
       <path d="M 19.1875 8.296875 
L 53.609375 8.296875 
L 53.609375 0 
L 7.328125 0 
L 7.328125 8.296875 
Q 12.9375 14.109375 22.625 23.890625 
Q 32.328125 33.6875 34.8125 36.53125 
Q 39.546875 41.84375 41.421875 45.53125 
Q 43.3125 49.21875 43.3125 52.78125 
Q 43.3125 58.59375 39.234375 62.25 
Q 35.15625 65.921875 28.609375 65.921875 
Q 23.96875 65.921875 18.8125 64.3125 
Q 13.671875 62.703125 7.8125 59.421875 
L 7.8125 69.390625 
Q 13.765625 71.78125 18.9375 73 
Q 24.125 74.21875 28.421875 74.21875 
Q 39.75 74.21875 46.484375 68.546875 
Q 53.21875 62.890625 53.21875 53.421875 
Q 53.21875 48.921875 51.53125 44.890625 
Q 49.859375 40.875 45.40625 35.40625 
Q 44.1875 33.984375 37.640625 27.21875 
Q 31.109375 20.453125 19.1875 8.296875 
z
" id="DejaVuSans-32"/>
      </defs>
      <g transform="translate(377.396438 527.238438)scale(0.1 -0.1)">
       <use xlink:href="#DejaVuSans-30"/>
       <use x="63.623047" xlink:href="#DejaVuSans-2e"/>
       <use x="95.410156" xlink:href="#DejaVuSans-32"/>
      </g>
     </g>
    </g>
    <g id="xtick_3">
     <g id="line2d_3">
      <g>
       <use style="stroke:#000000;stroke-width:0.8;" x="539.968729" xlink:href="#m980c2da1ea" y="512.64"/>
      </g>
     </g>
     <g id="text_3">
      <!-- 0.4 -->
      <defs>
       <path d="M 37.796875 64.3125 
L 12.890625 25.390625 
L 37.796875 25.390625 
z
M 35.203125 72.90625 
L 47.609375 72.90625 
L 47.609375 25.390625 
L 58.015625 25.390625 
L 58.015625 17.1875 
L 47.609375 17.1875 
L 47.609375 0 
L 37.796875 0 
L 37.796875 17.1875 
L 4.890625 17.1875 
L 4.890625 26.703125 
z
" id="DejaVuSans-34"/>
      </defs>
      <g transform="translate(532.017167 527.238438)scale(0.1 -0.1)">
       <use xlink:href="#DejaVuSans-30"/>
       <use x="63.623047" xlink:href="#DejaVuSans-2e"/>
       <use x="95.410156" xlink:href="#DejaVuSans-34"/>
      </g>
     </g>
    </g>
    <g id="xtick_4">
     <g id="line2d_4">
      <g>
       <use style="stroke:#000000;stroke-width:0.8;" x="694.589457" xlink:href="#m980c2da1ea" y="512.64"/>
      </g>
     </g>
     <g id="text_4">
      <!-- 0.6 -->
      <defs>
       <path d="M 33.015625 40.375 
Q 26.375 40.375 22.484375 35.828125 
Q 18.609375 31.296875 18.609375 23.390625 
Q 18.609375 15.53125 22.484375 10.953125 
Q 26.375 6.390625 33.015625 6.390625 
Q 39.65625 6.390625 43.53125 10.953125 
Q 47.40625 15.53125 47.40625 23.390625 
Q 47.40625 31.296875 43.53125 35.828125 
Q 39.65625 40.375 33.015625 40.375 
z
M 52.59375 71.296875 
L 52.59375 62.3125 
Q 48.875 64.0625 45.09375 64.984375 
Q 41.3125 65.921875 37.59375 65.921875 
Q 27.828125 65.921875 22.671875 59.328125 
Q 17.53125 52.734375 16.796875 39.40625 
Q 19.671875 43.65625 24.015625 45.921875 
Q 28.375 48.1875 33.59375 48.1875 
Q 44.578125 48.1875 50.953125 41.515625 
Q 57.328125 34.859375 57.328125 23.390625 
Q 57.328125 12.15625 50.6875 5.359375 
Q 44.046875 -1.421875 33.015625 -1.421875 
Q 20.359375 -1.421875 13.671875 8.265625 
Q 6.984375 17.96875 6.984375 36.375 
Q 6.984375 53.65625 15.1875 63.9375 
Q 23.390625 74.21875 37.203125 74.21875 
Q 40.921875 74.21875 44.703125 73.484375 
Q 48.484375 72.75 52.59375 71.296875 
z
" id="DejaVuSans-36"/>
      </defs>
      <g transform="translate(686.637895 527.238438)scale(0.1 -0.1)">
       <use xlink:href="#DejaVuSans-30"/>
       <use x="63.623047" xlink:href="#DejaVuSans-2e"/>
       <use x="95.410156" xlink:href="#DejaVuSans-36"/>
      </g>
     </g>
    </g>
    <g id="xtick_5">
     <g id="line2d_5">
      <g>
       <use style="stroke:#000000;stroke-width:0.8;" x="849.210186" xlink:href="#m980c2da1ea" y="512.64"/>
      </g>
     </g>
     <g id="text_5">
      <!-- 0.8 -->
      <defs>
       <path d="M 31.78125 34.625 
Q 24.75 34.625 20.71875 30.859375 
Q 16.703125 27.09375 16.703125 20.515625 
Q 16.703125 13.921875 20.71875 10.15625 
Q 24.75 6.390625 31.78125 6.390625 
Q 38.8125 6.390625 42.859375 10.171875 
Q 46.921875 13.96875 46.921875 20.515625 
Q 46.921875 27.09375 42.890625 30.859375 
Q 38.875 34.625 31.78125 34.625 
z
M 21.921875 38.8125 
Q 15.578125 40.375 12.03125 44.71875 
Q 8.5 49.078125 8.5 55.328125 
Q 8.5 64.0625 14.71875 69.140625 
Q 20.953125 74.21875 31.78125 74.21875 
Q 42.671875 74.21875 48.875 69.140625 
Q 55.078125 64.0625 55.078125 55.328125 
Q 55.078125 49.078125 51.53125 44.71875 
Q 48 40.375 41.703125 38.8125 
Q 48.828125 37.15625 52.796875 32.3125 
Q 56.78125 27.484375 56.78125 20.515625 
Q 56.78125 9.90625 50.3125 4.234375 
Q 43.84375 -1.421875 31.78125 -1.421875 
Q 19.734375 -1.421875 13.25 4.234375 
Q 6.78125 9.90625 6.78125 20.515625 
Q 6.78125 27.484375 10.78125 32.3125 
Q 14.796875 37.15625 21.921875 38.8125 
z
M 18.3125 54.390625 
Q 18.3125 48.734375 21.84375 45.5625 
Q 25.390625 42.390625 31.78125 42.390625 
Q 38.140625 42.390625 41.71875 45.5625 
Q 45.3125 48.734375 45.3125 54.390625 
Q 45.3125 60.0625 41.71875 63.234375 
Q 38.140625 66.40625 31.78125 66.40625 
Q 25.390625 66.40625 21.84375 63.234375 
Q 18.3125 60.0625 18.3125 54.390625 
z
" id="DejaVuSans-38"/>
      </defs>
      <g transform="translate(841.258623 527.238438)scale(0.1 -0.1)">
       <use xlink:href="#DejaVuSans-30"/>
       <use x="63.623047" xlink:href="#DejaVuSans-2e"/>
       <use x="95.410156" xlink:href="#DejaVuSans-38"/>
      </g>
     </g>
    </g>
    <g id="xtick_6">
     <g id="line2d_6">
      <g>
       <use style="stroke:#000000;stroke-width:0.8;" x="1003.830914" xlink:href="#m980c2da1ea" y="512.64"/>
      </g>
     </g>
     <g id="text_6">
      <!-- 1.0 -->
      <defs>
       <path d="M 12.40625 8.296875 
L 28.515625 8.296875 
L 28.515625 63.921875 
L 10.984375 60.40625 
L 10.984375 69.390625 
L 28.421875 72.90625 
L 38.28125 72.90625 
L 38.28125 8.296875 
L 54.390625 8.296875 
L 54.390625 0 
L 12.40625 0 
z
" id="DejaVuSans-31"/>
      </defs>
      <g transform="translate(995.879351 527.238438)scale(0.1 -0.1)">
       <use xlink:href="#DejaVuSans-31"/>
       <use x="63.623047" xlink:href="#DejaVuSans-2e"/>
       <use x="95.410156" xlink:href="#DejaVuSans-30"/>
      </g>
     </g>
    </g>
    <g id="xtick_7">
     <g id="line2d_7">
      <g>
       <use style="stroke:#000000;stroke-width:0.8;" x="1158.451642" xlink:href="#m980c2da1ea" y="512.64"/>
      </g>
     </g>
     <g id="text_7">
      <!-- 1.2 -->
      <g transform="translate(1150.50008 527.238438)scale(0.1 -0.1)">
       <use xlink:href="#DejaVuSans-31"/>
       <use x="63.623047" xlink:href="#DejaVuSans-2e"/>
       <use x="95.410156" xlink:href="#DejaVuSans-32"/>
      </g>
     </g>
    </g>
   </g>
   <g id="matplotlib.axis_2">
    <g id="ytick_1">
     <g id="line2d_8">
      <defs>
       <path d="M 0 0 
L -3.5 0 
" id="mdbbdbf9fd3" style="stroke:#000000;stroke-width:0.8;"/>
      </defs>
      <g>
       <use style="stroke:#000000;stroke-width:0.8;" x="180" xlink:href="#mdbbdbf9fd3" y="448.686742"/>
      </g>
     </g>
     <g id="text_8">
      <!-- 0.30040 -->
      <defs>
       <path d="M 40.578125 39.3125 
Q 47.65625 37.796875 51.625 33 
Q 55.609375 28.21875 55.609375 21.1875 
Q 55.609375 10.40625 48.1875 4.484375 
Q 40.765625 -1.421875 27.09375 -1.421875 
Q 22.515625 -1.421875 17.65625 -0.515625 
Q 12.796875 0.390625 7.625 2.203125 
L 7.625 11.71875 
Q 11.71875 9.328125 16.59375 8.109375 
Q 21.484375 6.890625 26.8125 6.890625 
Q 36.078125 6.890625 40.9375 10.546875 
Q 45.796875 14.203125 45.796875 21.1875 
Q 45.796875 27.640625 41.28125 31.265625 
Q 36.765625 34.90625 28.71875 34.90625 
L 20.21875 34.90625 
L 20.21875 43.015625 
L 29.109375 43.015625 
Q 36.375 43.015625 40.234375 45.921875 
Q 44.09375 48.828125 44.09375 54.296875 
Q 44.09375 59.90625 40.109375 62.90625 
Q 36.140625 65.921875 28.71875 65.921875 
Q 24.65625 65.921875 20.015625 65.03125 
Q 15.375 64.15625 9.8125 62.3125 
L 9.8125 71.09375 
Q 15.4375 72.65625 20.34375 73.4375 
Q 25.25 74.21875 29.59375 74.21875 
Q 40.828125 74.21875 47.359375 69.109375 
Q 53.90625 64.015625 53.90625 55.328125 
Q 53.90625 49.265625 50.4375 45.09375 
Q 46.96875 40.921875 40.578125 39.3125 
z
" id="DejaVuSans-33"/>
      </defs>
      <g transform="translate(131.646875 452.48596)scale(0.1 -0.1)">
       <use xlink:href="#DejaVuSans-30"/>
       <use x="63.623047" xlink:href="#DejaVuSans-2e"/>
       <use x="95.410156" xlink:href="#DejaVuSans-33"/>
       <use x="159.033203" xlink:href="#DejaVuSans-30"/>
       <use x="222.65625" xlink:href="#DejaVuSans-30"/>
       <use x="286.279297" xlink:href="#DejaVuSans-34"/>
       <use x="349.902344" xlink:href="#DejaVuSans-30"/>
      </g>
     </g>
    </g>
    <g id="ytick_2">
     <g id="line2d_9">
      <g>
       <use style="stroke:#000000;stroke-width:0.8;" x="180" xlink:href="#mdbbdbf9fd3" y="373.181124"/>
      </g>
     </g>
     <g id="text_9">
      <!-- 0.30045 -->
      <defs>
       <path d="M 10.796875 72.90625 
L 49.515625 72.90625 
L 49.515625 64.59375 
L 19.828125 64.59375 
L 19.828125 46.734375 
Q 21.96875 47.46875 24.109375 47.828125 
Q 26.265625 48.1875 28.421875 48.1875 
Q 40.625 48.1875 47.75 41.5 
Q 54.890625 34.8125 54.890625 23.390625 
Q 54.890625 11.625 47.5625 5.09375 
Q 40.234375 -1.421875 26.90625 -1.421875 
Q 22.3125 -1.421875 17.546875 -0.640625 
Q 12.796875 0.140625 7.71875 1.703125 
L 7.71875 11.625 
Q 12.109375 9.234375 16.796875 8.0625 
Q 21.484375 6.890625 26.703125 6.890625 
Q 35.15625 6.890625 40.078125 11.328125 
Q 45.015625 15.765625 45.015625 23.390625 
Q 45.015625 31 40.078125 35.4375 
Q 35.15625 39.890625 26.703125 39.890625 
Q 22.75 39.890625 18.8125 39.015625 
Q 14.890625 38.140625 10.796875 36.28125 
z
" id="DejaVuSans-35"/>
      </defs>
      <g transform="translate(131.646875 376.980342)scale(0.1 -0.1)">
       <use xlink:href="#DejaVuSans-30"/>
       <use x="63.623047" xlink:href="#DejaVuSans-2e"/>
       <use x="95.410156" xlink:href="#DejaVuSans-33"/>
       <use x="159.033203" xlink:href="#DejaVuSans-30"/>
       <use x="222.65625" xlink:href="#DejaVuSans-30"/>
       <use x="286.279297" xlink:href="#DejaVuSans-34"/>
       <use x="349.902344" xlink:href="#DejaVuSans-35"/>
      </g>
     </g>
    </g>
    <g id="ytick_3">
     <g id="line2d_10">
      <g>
       <use style="stroke:#000000;stroke-width:0.8;" x="180" xlink:href="#mdbbdbf9fd3" y="297.675506"/>
      </g>
     </g>
     <g id="text_10">
      <!-- 0.30050 -->
      <g transform="translate(131.646875 301.474724)scale(0.1 -0.1)">
       <use xlink:href="#DejaVuSans-30"/>
       <use x="63.623047" xlink:href="#DejaVuSans-2e"/>
       <use x="95.410156" xlink:href="#DejaVuSans-33"/>
       <use x="159.033203" xlink:href="#DejaVuSans-30"/>
       <use x="222.65625" xlink:href="#DejaVuSans-30"/>
       <use x="286.279297" xlink:href="#DejaVuSans-35"/>
       <use x="349.902344" xlink:href="#DejaVuSans-30"/>
      </g>
     </g>
    </g>
    <g id="ytick_4">
     <g id="line2d_11">
      <g>
       <use style="stroke:#000000;stroke-width:0.8;" x="180" xlink:href="#mdbbdbf9fd3" y="222.169888"/>
      </g>
     </g>
     <g id="text_11">
      <!-- 0.30055 -->
      <g transform="translate(131.646875 225.969106)scale(0.1 -0.1)">
       <use xlink:href="#DejaVuSans-30"/>
       <use x="63.623047" xlink:href="#DejaVuSans-2e"/>
       <use x="95.410156" xlink:href="#DejaVuSans-33"/>
       <use x="159.033203" xlink:href="#DejaVuSans-30"/>
       <use x="222.65625" xlink:href="#DejaVuSans-30"/>
       <use x="286.279297" xlink:href="#DejaVuSans-35"/>
       <use x="349.902344" xlink:href="#DejaVuSans-35"/>
      </g>
     </g>
    </g>
    <g id="ytick_5">
     <g id="line2d_12">
      <g>
       <use style="stroke:#000000;stroke-width:0.8;" x="180" xlink:href="#mdbbdbf9fd3" y="146.66427"/>
      </g>
     </g>
     <g id="text_12">
      <!-- 0.30060 -->
      <g transform="translate(131.646875 150.463488)scale(0.1 -0.1)">
       <use xlink:href="#DejaVuSans-30"/>
       <use x="63.623047" xlink:href="#DejaVuSans-2e"/>
       <use x="95.410156" xlink:href="#DejaVuSans-33"/>
       <use x="159.033203" xlink:href="#DejaVuSans-30"/>
       <use x="222.65625" xlink:href="#DejaVuSans-30"/>
       <use x="286.279297" xlink:href="#DejaVuSans-36"/>
       <use x="349.902344" xlink:href="#DejaVuSans-30"/>
      </g>
     </g>
    </g>
    <g id="ytick_6">
     <g id="line2d_13">
      <g>
       <use style="stroke:#000000;stroke-width:0.8;" x="180" xlink:href="#mdbbdbf9fd3" y="71.158652"/>
      </g>
     </g>
     <g id="text_13">
      <!-- 0.30065 -->
      <g transform="translate(131.646875 74.95787)scale(0.1 -0.1)">
       <use xlink:href="#DejaVuSans-30"/>
       <use x="63.623047" xlink:href="#DejaVuSans-2e"/>
       <use x="95.410156" xlink:href="#DejaVuSans-33"/>
       <use x="159.033203" xlink:href="#DejaVuSans-30"/>
       <use x="222.65625" xlink:href="#DejaVuSans-30"/>
       <use x="286.279297" xlink:href="#DejaVuSans-36"/>
       <use x="349.902344" xlink:href="#DejaVuSans-35"/>
      </g>
     </g>
    </g>
   </g>
   <g id="line2d_14">
    <path clip-path="url(#pde0df27c5c)" d="M 230.727273 250.862022 
L 241.13634 285.594607 
L 251.219158 217.639551 
L 261.8014 353.549663 
L 272.107645 419.994607 
L 282.255404 432.075506 
L 292.710084 433.585618 
L 302.932834 418.484494 
L 312.989366 418.484494 
L 323.049763 379.221573 
L 333.093926 450.196854 
L 343.15355 388.282247 
L 353.207763 355.059775 
L 363.240329 329.387865 
L 373.510238 361.100225 
L 383.571409 320.327191 
L 394.021451 438.115955 
L 404.298317 379.221573 
L 414.360261 368.650787 
L 424.469365 456.237303 
L 434.85292 333.918202 
L 445.00377 438.115955 
L 455.092773 421.504719 
L 466.697059 403.383371 
L 476.823943 419.994607 
L 486.933046 423.014831 
L 497.12951 365.630562 
L 507.376226 427.545169 
L 517.551816 486.439551 
L 527.784616 373.181124 
L 537.892173 450.196854 
L 547.959528 311.266517 
L 558.394881 356.569888 
L 568.684118 264.453034 
L 578.755339 471.338427 
L 589.189919 447.176629 
L 599.504668 492.48 
L 609.579754 424.524944 
L 619.670303 460.76764 
L 629.837389 426.035056 
L 639.897787 475.868764 
L 649.957411 487.949663 
L 660.043321 190.457528 
L 670.2336 364.120449 
L 680.29709 438.115955 
L 690.800476 308.246292 
L 701.522651 344.488989 
L 711.784829 432.075506 
L 722.463709 217.639551 
L 732.618426 371.671011 
L 742.711294 421.504719 
L 753.200764 89.28 
L 763.488454 359.590112 
L 773.562767 415.46427 
L 783.65177 228.210337 
L 793.779428 469.828315 
L 803.839825 404.893483 
L 813.91182 459.257528 
L 824.078133 281.06427 
L 835.172943 256.902472 
L 845.264265 453.217079 
L 855.558913 475.868764 
L 865.671882 447.176629 
L 875.781758 413.954157 
L 886.312203 315.796854 
L 896.479289 380.731685 
L 906.609266 302.205843 
L 917.16445 429.055281 
L 927.45214 339.958652 
L 937.528773 312.776629 
L 947.715186 392.812584 
L 958.403344 403.383371 
L 968.504716 460.76764 
L 978.616139 407.913708 
L 988.824972 462.277753 
L 999.264964 435.09573 
L 1009.399579 406.403596 
L 1019.768445 287.104719 
L 1029.849717 438.115955 
L 1039.996702 478.888989 
L 1050.422778 173.846292 
L 1060.550436 419.994607 
L 1070.61238 478.888989 
L 1081.056237 383.75191 
L 1091.227188 341.468764 
L 1101.30846 457.747416 
L 1111.430706 471.338427 
L 1121.641085 463.787865 
L 1131.806625 445.666517 
L 1141.909544 478.888989 
L 1152.189503 447.176629 
L 1163.41806 444.156404 
L 1173.478458 442.646292 
L 1183.758417 478.888989 
L 1194.043014 477.378876 
L 1204.130471 474.358652 
L 1214.497791 395.832809 
L 1224.739095 481.909213 
L 1234.828097 445.666517 
L 1245.272727 451.706966 
" style="fill:none;stroke:#ff0000;stroke-dasharray:5.55,2.4;stroke-dashoffset:0;stroke-width:1.5;"/>
    <defs>
     <path d="M -3 3 
L 3 3 
L 3 -3 
L -3 -3 
z
" id="m33b3414d97" style="stroke:#ff0000;stroke-linejoin:miter;"/>
    </defs>
    <g clip-path="url(#pde0df27c5c)">
     <use style="fill:#ff0000;stroke:#ff0000;stroke-linejoin:miter;" x="230.727273" xlink:href="#m33b3414d97" y="250.862022"/>
     <use style="fill:#ff0000;stroke:#ff0000;stroke-linejoin:miter;" x="241.13634" xlink:href="#m33b3414d97" y="285.594607"/>
     <use style="fill:#ff0000;stroke:#ff0000;stroke-linejoin:miter;" x="251.219158" xlink:href="#m33b3414d97" y="217.639551"/>
     <use style="fill:#ff0000;stroke:#ff0000;stroke-linejoin:miter;" x="261.8014" xlink:href="#m33b3414d97" y="353.549663"/>
     <use style="fill:#ff0000;stroke:#ff0000;stroke-linejoin:miter;" x="272.107645" xlink:href="#m33b3414d97" y="419.994607"/>
     <use style="fill:#ff0000;stroke:#ff0000;stroke-linejoin:miter;" x="282.255404" xlink:href="#m33b3414d97" y="432.075506"/>
     <use style="fill:#ff0000;stroke:#ff0000;stroke-linejoin:miter;" x="292.710084" xlink:href="#m33b3414d97" y="433.585618"/>
     <use style="fill:#ff0000;stroke:#ff0000;stroke-linejoin:miter;" x="302.932834" xlink:href="#m33b3414d97" y="418.484494"/>
     <use style="fill:#ff0000;stroke:#ff0000;stroke-linejoin:miter;" x="312.989366" xlink:href="#m33b3414d97" y="418.484494"/>
     <use style="fill:#ff0000;stroke:#ff0000;stroke-linejoin:miter;" x="323.049763" xlink:href="#m33b3414d97" y="379.221573"/>
     <use style="fill:#ff0000;stroke:#ff0000;stroke-linejoin:miter;" x="333.093926" xlink:href="#m33b3414d97" y="450.196854"/>
     <use style="fill:#ff0000;stroke:#ff0000;stroke-linejoin:miter;" x="343.15355" xlink:href="#m33b3414d97" y="388.282247"/>
     <use style="fill:#ff0000;stroke:#ff0000;stroke-linejoin:miter;" x="353.207763" xlink:href="#m33b3414d97" y="355.059775"/>
     <use style="fill:#ff0000;stroke:#ff0000;stroke-linejoin:miter;" x="363.240329" xlink:href="#m33b3414d97" y="329.387865"/>
     <use style="fill:#ff0000;stroke:#ff0000;stroke-linejoin:miter;" x="373.510238" xlink:href="#m33b3414d97" y="361.100225"/>
     <use style="fill:#ff0000;stroke:#ff0000;stroke-linejoin:miter;" x="383.571409" xlink:href="#m33b3414d97" y="320.327191"/>
     <use style="fill:#ff0000;stroke:#ff0000;stroke-linejoin:miter;" x="394.021451" xlink:href="#m33b3414d97" y="438.115955"/>
     <use style="fill:#ff0000;stroke:#ff0000;stroke-linejoin:miter;" x="404.298317" xlink:href="#m33b3414d97" y="379.221573"/>
     <use style="fill:#ff0000;stroke:#ff0000;stroke-linejoin:miter;" x="414.360261" xlink:href="#m33b3414d97" y="368.650787"/>
     <use style="fill:#ff0000;stroke:#ff0000;stroke-linejoin:miter;" x="424.469365" xlink:href="#m33b3414d97" y="456.237303"/>
     <use style="fill:#ff0000;stroke:#ff0000;stroke-linejoin:miter;" x="434.85292" xlink:href="#m33b3414d97" y="333.918202"/>
     <use style="fill:#ff0000;stroke:#ff0000;stroke-linejoin:miter;" x="445.00377" xlink:href="#m33b3414d97" y="438.115955"/>
     <use style="fill:#ff0000;stroke:#ff0000;stroke-linejoin:miter;" x="455.092773" xlink:href="#m33b3414d97" y="421.504719"/>
     <use style="fill:#ff0000;stroke:#ff0000;stroke-linejoin:miter;" x="466.697059" xlink:href="#m33b3414d97" y="403.383371"/>
     <use style="fill:#ff0000;stroke:#ff0000;stroke-linejoin:miter;" x="476.823943" xlink:href="#m33b3414d97" y="419.994607"/>
     <use style="fill:#ff0000;stroke:#ff0000;stroke-linejoin:miter;" x="486.933046" xlink:href="#m33b3414d97" y="423.014831"/>
     <use style="fill:#ff0000;stroke:#ff0000;stroke-linejoin:miter;" x="497.12951" xlink:href="#m33b3414d97" y="365.630562"/>
     <use style="fill:#ff0000;stroke:#ff0000;stroke-linejoin:miter;" x="507.376226" xlink:href="#m33b3414d97" y="427.545169"/>
     <use style="fill:#ff0000;stroke:#ff0000;stroke-linejoin:miter;" x="517.551816" xlink:href="#m33b3414d97" y="486.439551"/>
     <use style="fill:#ff0000;stroke:#ff0000;stroke-linejoin:miter;" x="527.784616" xlink:href="#m33b3414d97" y="373.181124"/>
     <use style="fill:#ff0000;stroke:#ff0000;stroke-linejoin:miter;" x="537.892173" xlink:href="#m33b3414d97" y="450.196854"/>
     <use style="fill:#ff0000;stroke:#ff0000;stroke-linejoin:miter;" x="547.959528" xlink:href="#m33b3414d97" y="311.266517"/>
     <use style="fill:#ff0000;stroke:#ff0000;stroke-linejoin:miter;" x="558.394881" xlink:href="#m33b3414d97" y="356.569888"/>
     <use style="fill:#ff0000;stroke:#ff0000;stroke-linejoin:miter;" x="568.684118" xlink:href="#m33b3414d97" y="264.453034"/>
     <use style="fill:#ff0000;stroke:#ff0000;stroke-linejoin:miter;" x="578.755339" xlink:href="#m33b3414d97" y="471.338427"/>
     <use style="fill:#ff0000;stroke:#ff0000;stroke-linejoin:miter;" x="589.189919" xlink:href="#m33b3414d97" y="447.176629"/>
     <use style="fill:#ff0000;stroke:#ff0000;stroke-linejoin:miter;" x="599.504668" xlink:href="#m33b3414d97" y="492.48"/>
     <use style="fill:#ff0000;stroke:#ff0000;stroke-linejoin:miter;" x="609.579754" xlink:href="#m33b3414d97" y="424.524944"/>
     <use style="fill:#ff0000;stroke:#ff0000;stroke-linejoin:miter;" x="619.670303" xlink:href="#m33b3414d97" y="460.76764"/>
     <use style="fill:#ff0000;stroke:#ff0000;stroke-linejoin:miter;" x="629.837389" xlink:href="#m33b3414d97" y="426.035056"/>
     <use style="fill:#ff0000;stroke:#ff0000;stroke-linejoin:miter;" x="639.897787" xlink:href="#m33b3414d97" y="475.868764"/>
     <use style="fill:#ff0000;stroke:#ff0000;stroke-linejoin:miter;" x="649.957411" xlink:href="#m33b3414d97" y="487.949663"/>
     <use style="fill:#ff0000;stroke:#ff0000;stroke-linejoin:miter;" x="660.043321" xlink:href="#m33b3414d97" y="190.457528"/>
     <use style="fill:#ff0000;stroke:#ff0000;stroke-linejoin:miter;" x="670.2336" xlink:href="#m33b3414d97" y="364.120449"/>
     <use style="fill:#ff0000;stroke:#ff0000;stroke-linejoin:miter;" x="680.29709" xlink:href="#m33b3414d97" y="438.115955"/>
     <use style="fill:#ff0000;stroke:#ff0000;stroke-linejoin:miter;" x="690.800476" xlink:href="#m33b3414d97" y="308.246292"/>
     <use style="fill:#ff0000;stroke:#ff0000;stroke-linejoin:miter;" x="701.522651" xlink:href="#m33b3414d97" y="344.488989"/>
     <use style="fill:#ff0000;stroke:#ff0000;stroke-linejoin:miter;" x="711.784829" xlink:href="#m33b3414d97" y="432.075506"/>
     <use style="fill:#ff0000;stroke:#ff0000;stroke-linejoin:miter;" x="722.463709" xlink:href="#m33b3414d97" y="217.639551"/>
     <use style="fill:#ff0000;stroke:#ff0000;stroke-linejoin:miter;" x="732.618426" xlink:href="#m33b3414d97" y="371.671011"/>
     <use style="fill:#ff0000;stroke:#ff0000;stroke-linejoin:miter;" x="742.711294" xlink:href="#m33b3414d97" y="421.504719"/>
     <use style="fill:#ff0000;stroke:#ff0000;stroke-linejoin:miter;" x="753.200764" xlink:href="#m33b3414d97" y="89.28"/>
     <use style="fill:#ff0000;stroke:#ff0000;stroke-linejoin:miter;" x="763.488454" xlink:href="#m33b3414d97" y="359.590112"/>
     <use style="fill:#ff0000;stroke:#ff0000;stroke-linejoin:miter;" x="773.562767" xlink:href="#m33b3414d97" y="415.46427"/>
     <use style="fill:#ff0000;stroke:#ff0000;stroke-linejoin:miter;" x="783.65177" xlink:href="#m33b3414d97" y="228.210337"/>
     <use style="fill:#ff0000;stroke:#ff0000;stroke-linejoin:miter;" x="793.779428" xlink:href="#m33b3414d97" y="469.828315"/>
     <use style="fill:#ff0000;stroke:#ff0000;stroke-linejoin:miter;" x="803.839825" xlink:href="#m33b3414d97" y="404.893483"/>
     <use style="fill:#ff0000;stroke:#ff0000;stroke-linejoin:miter;" x="813.91182" xlink:href="#m33b3414d97" y="459.257528"/>
     <use style="fill:#ff0000;stroke:#ff0000;stroke-linejoin:miter;" x="824.078133" xlink:href="#m33b3414d97" y="281.06427"/>
     <use style="fill:#ff0000;stroke:#ff0000;stroke-linejoin:miter;" x="835.172943" xlink:href="#m33b3414d97" y="256.902472"/>
     <use style="fill:#ff0000;stroke:#ff0000;stroke-linejoin:miter;" x="845.264265" xlink:href="#m33b3414d97" y="453.217079"/>
     <use style="fill:#ff0000;stroke:#ff0000;stroke-linejoin:miter;" x="855.558913" xlink:href="#m33b3414d97" y="475.868764"/>
     <use style="fill:#ff0000;stroke:#ff0000;stroke-linejoin:miter;" x="865.671882" xlink:href="#m33b3414d97" y="447.176629"/>
     <use style="fill:#ff0000;stroke:#ff0000;stroke-linejoin:miter;" x="875.781758" xlink:href="#m33b3414d97" y="413.954157"/>
     <use style="fill:#ff0000;stroke:#ff0000;stroke-linejoin:miter;" x="886.312203" xlink:href="#m33b3414d97" y="315.796854"/>
     <use style="fill:#ff0000;stroke:#ff0000;stroke-linejoin:miter;" x="896.479289" xlink:href="#m33b3414d97" y="380.731685"/>
     <use style="fill:#ff0000;stroke:#ff0000;stroke-linejoin:miter;" x="906.609266" xlink:href="#m33b3414d97" y="302.205843"/>
     <use style="fill:#ff0000;stroke:#ff0000;stroke-linejoin:miter;" x="917.16445" xlink:href="#m33b3414d97" y="429.055281"/>
     <use style="fill:#ff0000;stroke:#ff0000;stroke-linejoin:miter;" x="927.45214" xlink:href="#m33b3414d97" y="339.958652"/>
     <use style="fill:#ff0000;stroke:#ff0000;stroke-linejoin:miter;" x="937.528773" xlink:href="#m33b3414d97" y="312.776629"/>
     <use style="fill:#ff0000;stroke:#ff0000;stroke-linejoin:miter;" x="947.715186" xlink:href="#m33b3414d97" y="392.812584"/>
     <use style="fill:#ff0000;stroke:#ff0000;stroke-linejoin:miter;" x="958.403344" xlink:href="#m33b3414d97" y="403.383371"/>
     <use style="fill:#ff0000;stroke:#ff0000;stroke-linejoin:miter;" x="968.504716" xlink:href="#m33b3414d97" y="460.76764"/>
     <use style="fill:#ff0000;stroke:#ff0000;stroke-linejoin:miter;" x="978.616139" xlink:href="#m33b3414d97" y="407.913708"/>
     <use style="fill:#ff0000;stroke:#ff0000;stroke-linejoin:miter;" x="988.824972" xlink:href="#m33b3414d97" y="462.277753"/>
     <use style="fill:#ff0000;stroke:#ff0000;stroke-linejoin:miter;" x="999.264964" xlink:href="#m33b3414d97" y="435.09573"/>
     <use style="fill:#ff0000;stroke:#ff0000;stroke-linejoin:miter;" x="1009.399579" xlink:href="#m33b3414d97" y="406.403596"/>
     <use style="fill:#ff0000;stroke:#ff0000;stroke-linejoin:miter;" x="1019.768445" xlink:href="#m33b3414d97" y="287.104719"/>
     <use style="fill:#ff0000;stroke:#ff0000;stroke-linejoin:miter;" x="1029.849717" xlink:href="#m33b3414d97" y="438.115955"/>
     <use style="fill:#ff0000;stroke:#ff0000;stroke-linejoin:miter;" x="1039.996702" xlink:href="#m33b3414d97" y="478.888989"/>
     <use style="fill:#ff0000;stroke:#ff0000;stroke-linejoin:miter;" x="1050.422778" xlink:href="#m33b3414d97" y="173.846292"/>
     <use style="fill:#ff0000;stroke:#ff0000;stroke-linejoin:miter;" x="1060.550436" xlink:href="#m33b3414d97" y="419.994607"/>
     <use style="fill:#ff0000;stroke:#ff0000;stroke-linejoin:miter;" x="1070.61238" xlink:href="#m33b3414d97" y="478.888989"/>
     <use style="fill:#ff0000;stroke:#ff0000;stroke-linejoin:miter;" x="1081.056237" xlink:href="#m33b3414d97" y="383.75191"/>
     <use style="fill:#ff0000;stroke:#ff0000;stroke-linejoin:miter;" x="1091.227188" xlink:href="#m33b3414d97" y="341.468764"/>
     <use style="fill:#ff0000;stroke:#ff0000;stroke-linejoin:miter;" x="1101.30846" xlink:href="#m33b3414d97" y="457.747416"/>
     <use style="fill:#ff0000;stroke:#ff0000;stroke-linejoin:miter;" x="1111.430706" xlink:href="#m33b3414d97" y="471.338427"/>
     <use style="fill:#ff0000;stroke:#ff0000;stroke-linejoin:miter;" x="1121.641085" xlink:href="#m33b3414d97" y="463.787865"/>
     <use style="fill:#ff0000;stroke:#ff0000;stroke-linejoin:miter;" x="1131.806625" xlink:href="#m33b3414d97" y="445.666517"/>
     <use style="fill:#ff0000;stroke:#ff0000;stroke-linejoin:miter;" x="1141.909544" xlink:href="#m33b3414d97" y="478.888989"/>
     <use style="fill:#ff0000;stroke:#ff0000;stroke-linejoin:miter;" x="1152.189503" xlink:href="#m33b3414d97" y="447.176629"/>
     <use style="fill:#ff0000;stroke:#ff0000;stroke-linejoin:miter;" x="1163.41806" xlink:href="#m33b3414d97" y="444.156404"/>
     <use style="fill:#ff0000;stroke:#ff0000;stroke-linejoin:miter;" x="1173.478458" xlink:href="#m33b3414d97" y="442.646292"/>
     <use style="fill:#ff0000;stroke:#ff0000;stroke-linejoin:miter;" x="1183.758417" xlink:href="#m33b3414d97" y="478.888989"/>
     <use style="fill:#ff0000;stroke:#ff0000;stroke-linejoin:miter;" x="1194.043014" xlink:href="#m33b3414d97" y="477.378876"/>
     <use style="fill:#ff0000;stroke:#ff0000;stroke-linejoin:miter;" x="1204.130471" xlink:href="#m33b3414d97" y="474.358652"/>
     <use style="fill:#ff0000;stroke:#ff0000;stroke-linejoin:miter;" x="1214.497791" xlink:href="#m33b3414d97" y="395.832809"/>
     <use style="fill:#ff0000;stroke:#ff0000;stroke-linejoin:miter;" x="1224.739095" xlink:href="#m33b3414d97" y="481.909213"/>
     <use style="fill:#ff0000;stroke:#ff0000;stroke-linejoin:miter;" x="1234.828097" xlink:href="#m33b3414d97" y="445.666517"/>
     <use style="fill:#ff0000;stroke:#ff0000;stroke-linejoin:miter;" x="1245.272727" xlink:href="#m33b3414d97" y="451.706966"/>
    </g>
   </g>
   <g id="line2d_15">
    <path clip-path="url(#pde0df27c5c)" d="M 230.727273 250.862022 
L 241.13634 285.594607 
L 251.219158 217.639551 
L 261.8014 353.549663 
L 272.107645 419.994607 
L 282.255404 432.075506 
L 292.710084 433.585618 
L 302.932834 418.484494 
L 312.989366 418.484494 
L 323.049763 379.221573 
L 333.093926 450.196854 
L 343.15355 388.282247 
L 353.207763 355.059775 
L 363.240329 329.387865 
L 373.510238 361.100225 
L 383.571409 320.327191 
L 394.021451 438.115955 
L 404.298317 379.221573 
L 414.360261 368.650787 
L 424.469365 456.237303 
L 434.85292 333.918202 
L 445.00377 438.115955 
L 455.092773 421.504719 
L 466.697059 403.383371 
L 476.823943 419.994607 
L 486.933046 423.014831 
L 497.12951 365.630562 
L 507.376226 427.545169 
L 517.551816 486.439551 
L 527.784616 373.181124 
L 537.892173 450.196854 
L 547.959528 311.266517 
L 558.394881 356.569888 
L 568.684118 264.453034 
L 578.755339 471.338427 
L 589.189919 447.176629 
L 599.504668 492.48 
L 609.579754 424.524944 
L 619.670303 460.76764 
L 629.837389 426.035056 
L 639.897787 475.868764 
L 649.957411 487.949663 
L 660.043321 190.457528 
L 670.2336 364.120449 
L 680.29709 438.115955 
L 690.800476 308.246292 
L 701.522651 344.488989 
L 711.784829 432.075506 
L 722.463709 217.639551 
L 732.618426 371.671011 
L 742.711294 421.504719 
L 753.200764 89.28 
L 763.488454 359.590112 
L 773.562767 415.46427 
L 783.65177 228.210337 
L 793.779428 469.828315 
L 803.839825 404.893483 
L 813.91182 459.257528 
L 824.078133 281.06427 
L 835.172943 256.902472 
L 845.264265 453.217079 
L 855.558913 475.868764 
L 865.671882 447.176629 
L 875.781758 413.954157 
L 886.312203 315.796854 
L 896.479289 380.731685 
L 906.609266 302.205843 
L 917.16445 429.055281 
L 927.45214 339.958652 
L 937.528773 312.776629 
L 947.715186 392.812584 
L 958.403344 403.383371 
L 968.504716 460.76764 
L 978.616139 407.913708 
L 988.824972 462.277753 
L 999.264964 435.09573 
L 1009.399579 406.403596 
L 1019.768445 287.104719 
L 1029.849717 438.115955 
L 1039.996702 478.888989 
L 1050.422778 173.846292 
L 1060.550436 419.994607 
L 1070.61238 478.888989 
L 1081.056237 383.75191 
L 1091.227188 341.468764 
L 1101.30846 457.747416 
L 1111.430706 471.338427 
L 1121.641085 463.787865 
L 1131.806625 445.666517 
L 1141.909544 478.888989 
L 1152.189503 447.176629 
L 1163.41806 444.156404 
L 1173.478458 442.646292 
L 1183.758417 478.888989 
L 1194.043014 477.378876 
L 1204.130471 474.358652 
L 1214.497791 395.832809 
L 1224.739095 481.909213 
L 1234.828097 445.666517 
L 1245.272727 451.706966 
" style="fill:none;stroke:#800080;stroke-dasharray:9.6,2.4,1.5,2.4;stroke-dashoffset:0;stroke-width:1.5;"/>
    <defs>
     <path d="M -3 3 
L 3 -3 
M -3 -3 
L 3 3 
" id="m9ed46b9d0a" style="stroke:#800080;"/>
    </defs>
    <g clip-path="url(#pde0df27c5c)">
     <use style="fill:#800080;stroke:#800080;" x="230.727273" xlink:href="#m9ed46b9d0a" y="250.862022"/>
     <use style="fill:#800080;stroke:#800080;" x="241.13634" xlink:href="#m9ed46b9d0a" y="285.594607"/>
     <use style="fill:#800080;stroke:#800080;" x="251.219158" xlink:href="#m9ed46b9d0a" y="217.639551"/>
     <use style="fill:#800080;stroke:#800080;" x="261.8014" xlink:href="#m9ed46b9d0a" y="353.549663"/>
     <use style="fill:#800080;stroke:#800080;" x="272.107645" xlink:href="#m9ed46b9d0a" y="419.994607"/>
     <use style="fill:#800080;stroke:#800080;" x="282.255404" xlink:href="#m9ed46b9d0a" y="432.075506"/>
     <use style="fill:#800080;stroke:#800080;" x="292.710084" xlink:href="#m9ed46b9d0a" y="433.585618"/>
     <use style="fill:#800080;stroke:#800080;" x="302.932834" xlink:href="#m9ed46b9d0a" y="418.484494"/>
     <use style="fill:#800080;stroke:#800080;" x="312.989366" xlink:href="#m9ed46b9d0a" y="418.484494"/>
     <use style="fill:#800080;stroke:#800080;" x="323.049763" xlink:href="#m9ed46b9d0a" y="379.221573"/>
     <use style="fill:#800080;stroke:#800080;" x="333.093926" xlink:href="#m9ed46b9d0a" y="450.196854"/>
     <use style="fill:#800080;stroke:#800080;" x="343.15355" xlink:href="#m9ed46b9d0a" y="388.282247"/>
     <use style="fill:#800080;stroke:#800080;" x="353.207763" xlink:href="#m9ed46b9d0a" y="355.059775"/>
     <use style="fill:#800080;stroke:#800080;" x="363.240329" xlink:href="#m9ed46b9d0a" y="329.387865"/>
     <use style="fill:#800080;stroke:#800080;" x="373.510238" xlink:href="#m9ed46b9d0a" y="361.100225"/>
     <use style="fill:#800080;stroke:#800080;" x="383.571409" xlink:href="#m9ed46b9d0a" y="320.327191"/>
     <use style="fill:#800080;stroke:#800080;" x="394.021451" xlink:href="#m9ed46b9d0a" y="438.115955"/>
     <use style="fill:#800080;stroke:#800080;" x="404.298317" xlink:href="#m9ed46b9d0a" y="379.221573"/>
     <use style="fill:#800080;stroke:#800080;" x="414.360261" xlink:href="#m9ed46b9d0a" y="368.650787"/>
     <use style="fill:#800080;stroke:#800080;" x="424.469365" xlink:href="#m9ed46b9d0a" y="456.237303"/>
     <use style="fill:#800080;stroke:#800080;" x="434.85292" xlink:href="#m9ed46b9d0a" y="333.918202"/>
     <use style="fill:#800080;stroke:#800080;" x="445.00377" xlink:href="#m9ed46b9d0a" y="438.115955"/>
     <use style="fill:#800080;stroke:#800080;" x="455.092773" xlink:href="#m9ed46b9d0a" y="421.504719"/>
     <use style="fill:#800080;stroke:#800080;" x="466.697059" xlink:href="#m9ed46b9d0a" y="403.383371"/>
     <use style="fill:#800080;stroke:#800080;" x="476.823943" xlink:href="#m9ed46b9d0a" y="419.994607"/>
     <use style="fill:#800080;stroke:#800080;" x="486.933046" xlink:href="#m9ed46b9d0a" y="423.014831"/>
     <use style="fill:#800080;stroke:#800080;" x="497.12951" xlink:href="#m9ed46b9d0a" y="365.630562"/>
     <use style="fill:#800080;stroke:#800080;" x="507.376226" xlink:href="#m9ed46b9d0a" y="427.545169"/>
     <use style="fill:#800080;stroke:#800080;" x="517.551816" xlink:href="#m9ed46b9d0a" y="486.439551"/>
     <use style="fill:#800080;stroke:#800080;" x="527.784616" xlink:href="#m9ed46b9d0a" y="373.181124"/>
     <use style="fill:#800080;stroke:#800080;" x="537.892173" xlink:href="#m9ed46b9d0a" y="450.196854"/>
     <use style="fill:#800080;stroke:#800080;" x="547.959528" xlink:href="#m9ed46b9d0a" y="311.266517"/>
     <use style="fill:#800080;stroke:#800080;" x="558.394881" xlink:href="#m9ed46b9d0a" y="356.569888"/>
     <use style="fill:#800080;stroke:#800080;" x="568.684118" xlink:href="#m9ed46b9d0a" y="264.453034"/>
     <use style="fill:#800080;stroke:#800080;" x="578.755339" xlink:href="#m9ed46b9d0a" y="471.338427"/>
     <use style="fill:#800080;stroke:#800080;" x="589.189919" xlink:href="#m9ed46b9d0a" y="447.176629"/>
     <use style="fill:#800080;stroke:#800080;" x="599.504668" xlink:href="#m9ed46b9d0a" y="492.48"/>
     <use style="fill:#800080;stroke:#800080;" x="609.579754" xlink:href="#m9ed46b9d0a" y="424.524944"/>
     <use style="fill:#800080;stroke:#800080;" x="619.670303" xlink:href="#m9ed46b9d0a" y="460.76764"/>
     <use style="fill:#800080;stroke:#800080;" x="629.837389" xlink:href="#m9ed46b9d0a" y="426.035056"/>
     <use style="fill:#800080;stroke:#800080;" x="639.897787" xlink:href="#m9ed46b9d0a" y="475.868764"/>
     <use style="fill:#800080;stroke:#800080;" x="649.957411" xlink:href="#m9ed46b9d0a" y="487.949663"/>
     <use style="fill:#800080;stroke:#800080;" x="660.043321" xlink:href="#m9ed46b9d0a" y="190.457528"/>
     <use style="fill:#800080;stroke:#800080;" x="670.2336" xlink:href="#m9ed46b9d0a" y="364.120449"/>
     <use style="fill:#800080;stroke:#800080;" x="680.29709" xlink:href="#m9ed46b9d0a" y="438.115955"/>
     <use style="fill:#800080;stroke:#800080;" x="690.800476" xlink:href="#m9ed46b9d0a" y="308.246292"/>
     <use style="fill:#800080;stroke:#800080;" x="701.522651" xlink:href="#m9ed46b9d0a" y="344.488989"/>
     <use style="fill:#800080;stroke:#800080;" x="711.784829" xlink:href="#m9ed46b9d0a" y="432.075506"/>
     <use style="fill:#800080;stroke:#800080;" x="722.463709" xlink:href="#m9ed46b9d0a" y="217.639551"/>
     <use style="fill:#800080;stroke:#800080;" x="732.618426" xlink:href="#m9ed46b9d0a" y="371.671011"/>
     <use style="fill:#800080;stroke:#800080;" x="742.711294" xlink:href="#m9ed46b9d0a" y="421.504719"/>
     <use style="fill:#800080;stroke:#800080;" x="753.200764" xlink:href="#m9ed46b9d0a" y="89.28"/>
     <use style="fill:#800080;stroke:#800080;" x="763.488454" xlink:href="#m9ed46b9d0a" y="359.590112"/>
     <use style="fill:#800080;stroke:#800080;" x="773.562767" xlink:href="#m9ed46b9d0a" y="415.46427"/>
     <use style="fill:#800080;stroke:#800080;" x="783.65177" xlink:href="#m9ed46b9d0a" y="228.210337"/>
     <use style="fill:#800080;stroke:#800080;" x="793.779428" xlink:href="#m9ed46b9d0a" y="469.828315"/>
     <use style="fill:#800080;stroke:#800080;" x="803.839825" xlink:href="#m9ed46b9d0a" y="404.893483"/>
     <use style="fill:#800080;stroke:#800080;" x="813.91182" xlink:href="#m9ed46b9d0a" y="459.257528"/>
     <use style="fill:#800080;stroke:#800080;" x="824.078133" xlink:href="#m9ed46b9d0a" y="281.06427"/>
     <use style="fill:#800080;stroke:#800080;" x="835.172943" xlink:href="#m9ed46b9d0a" y="256.902472"/>
     <use style="fill:#800080;stroke:#800080;" x="845.264265" xlink:href="#m9ed46b9d0a" y="453.217079"/>
     <use style="fill:#800080;stroke:#800080;" x="855.558913" xlink:href="#m9ed46b9d0a" y="475.868764"/>
     <use style="fill:#800080;stroke:#800080;" x="865.671882" xlink:href="#m9ed46b9d0a" y="447.176629"/>
     <use style="fill:#800080;stroke:#800080;" x="875.781758" xlink:href="#m9ed46b9d0a" y="413.954157"/>
     <use style="fill:#800080;stroke:#800080;" x="886.312203" xlink:href="#m9ed46b9d0a" y="315.796854"/>
     <use style="fill:#800080;stroke:#800080;" x="896.479289" xlink:href="#m9ed46b9d0a" y="380.731685"/>
     <use style="fill:#800080;stroke:#800080;" x="906.609266" xlink:href="#m9ed46b9d0a" y="302.205843"/>
     <use style="fill:#800080;stroke:#800080;" x="917.16445" xlink:href="#m9ed46b9d0a" y="429.055281"/>
     <use style="fill:#800080;stroke:#800080;" x="927.45214" xlink:href="#m9ed46b9d0a" y="339.958652"/>
     <use style="fill:#800080;stroke:#800080;" x="937.528773" xlink:href="#m9ed46b9d0a" y="312.776629"/>
     <use style="fill:#800080;stroke:#800080;" x="947.715186" xlink:href="#m9ed46b9d0a" y="392.812584"/>
     <use style="fill:#800080;stroke:#800080;" x="958.403344" xlink:href="#m9ed46b9d0a" y="403.383371"/>
     <use style="fill:#800080;stroke:#800080;" x="968.504716" xlink:href="#m9ed46b9d0a" y="460.76764"/>
     <use style="fill:#800080;stroke:#800080;" x="978.616139" xlink:href="#m9ed46b9d0a" y="407.913708"/>
     <use style="fill:#800080;stroke:#800080;" x="988.824972" xlink:href="#m9ed46b9d0a" y="462.277753"/>
     <use style="fill:#800080;stroke:#800080;" x="999.264964" xlink:href="#m9ed46b9d0a" y="435.09573"/>
     <use style="fill:#800080;stroke:#800080;" x="1009.399579" xlink:href="#m9ed46b9d0a" y="406.403596"/>
     <use style="fill:#800080;stroke:#800080;" x="1019.768445" xlink:href="#m9ed46b9d0a" y="287.104719"/>
     <use style="fill:#800080;stroke:#800080;" x="1029.849717" xlink:href="#m9ed46b9d0a" y="438.115955"/>
     <use style="fill:#800080;stroke:#800080;" x="1039.996702" xlink:href="#m9ed46b9d0a" y="478.888989"/>
     <use style="fill:#800080;stroke:#800080;" x="1050.422778" xlink:href="#m9ed46b9d0a" y="173.846292"/>
     <use style="fill:#800080;stroke:#800080;" x="1060.550436" xlink:href="#m9ed46b9d0a" y="419.994607"/>
     <use style="fill:#800080;stroke:#800080;" x="1070.61238" xlink:href="#m9ed46b9d0a" y="478.888989"/>
     <use style="fill:#800080;stroke:#800080;" x="1081.056237" xlink:href="#m9ed46b9d0a" y="383.75191"/>
     <use style="fill:#800080;stroke:#800080;" x="1091.227188" xlink:href="#m9ed46b9d0a" y="341.468764"/>
     <use style="fill:#800080;stroke:#800080;" x="1101.30846" xlink:href="#m9ed46b9d0a" y="457.747416"/>
     <use style="fill:#800080;stroke:#800080;" x="1111.430706" xlink:href="#m9ed46b9d0a" y="471.338427"/>
     <use style="fill:#800080;stroke:#800080;" x="1121.641085" xlink:href="#m9ed46b9d0a" y="463.787865"/>
     <use style="fill:#800080;stroke:#800080;" x="1131.806625" xlink:href="#m9ed46b9d0a" y="445.666517"/>
     <use style="fill:#800080;stroke:#800080;" x="1141.909544" xlink:href="#m9ed46b9d0a" y="478.888989"/>
     <use style="fill:#800080;stroke:#800080;" x="1152.189503" xlink:href="#m9ed46b9d0a" y="447.176629"/>
     <use style="fill:#800080;stroke:#800080;" x="1163.41806" xlink:href="#m9ed46b9d0a" y="444.156404"/>
     <use style="fill:#800080;stroke:#800080;" x="1173.478458" xlink:href="#m9ed46b9d0a" y="442.646292"/>
     <use style="fill:#800080;stroke:#800080;" x="1183.758417" xlink:href="#m9ed46b9d0a" y="478.888989"/>
     <use style="fill:#800080;stroke:#800080;" x="1194.043014" xlink:href="#m9ed46b9d0a" y="477.378876"/>
     <use style="fill:#800080;stroke:#800080;" x="1204.130471" xlink:href="#m9ed46b9d0a" y="474.358652"/>
     <use style="fill:#800080;stroke:#800080;" x="1214.497791" xlink:href="#m9ed46b9d0a" y="395.832809"/>
     <use style="fill:#800080;stroke:#800080;" x="1224.739095" xlink:href="#m9ed46b9d0a" y="481.909213"/>
     <use style="fill:#800080;stroke:#800080;" x="1234.828097" xlink:href="#m9ed46b9d0a" y="445.666517"/>
     <use style="fill:#800080;stroke:#800080;" x="1245.272727" xlink:href="#m9ed46b9d0a" y="451.706966"/>
    </g>
   </g>
   <g id="line2d_16">
    <path clip-path="url(#pde0df27c5c)" d="M 230.727273 363.19831 
L 241.13634 363.824376 
L 251.219158 364.430819 
L 261.8014 365.067301 
L 272.107645 365.687183 
L 282.255404 366.297533 
L 292.710084 366.926342 
L 302.932834 367.541202 
L 312.989366 368.146065 
L 323.049763 368.75116 
L 333.093926 369.355278 
L 343.15355 369.960327 
L 353.207763 370.56505 
L 363.240329 371.168471 
L 373.510238 371.786167 
L 383.571409 372.391309 
L 394.021451 373.01984 
L 404.298317 373.637955 
L 414.360261 374.243143 
L 424.469365 374.851167 
L 434.85292 375.475699 
L 445.00377 376.086234 
L 455.092773 376.69305 
L 466.697059 377.391004 
L 476.823943 378.000098 
L 486.933046 378.608122 
L 497.12951 379.221401 
L 507.376226 379.837703 
L 517.551816 380.449726 
L 527.784616 381.065191 
L 537.892173 381.673122 
L 547.959528 382.278636 
L 558.394881 382.906283 
L 568.684118 383.525142 
L 578.755339 384.130888 
L 589.189919 384.758488 
L 599.504668 385.378882 
L 609.579754 385.98486 
L 619.670303 386.591769 
L 629.837389 387.203281 
L 639.897787 387.808376 
L 649.957411 388.413424 
L 660.043321 389.020054 
L 670.2336 389.632961 
L 680.29709 390.238242 
L 690.800476 390.869981 
L 701.522651 391.514879 
L 711.784829 392.132111 
L 722.463709 392.774405 
L 732.618426 393.385173 
L 742.711294 393.992221 
L 753.200764 394.623123 
L 763.488454 395.241889 
L 773.562767 395.847821 
L 783.65177 396.454637 
L 793.779428 397.063777 
L 803.839825 397.668872 
L 813.91182 398.274665 
L 824.078133 398.88613 
L 835.172943 399.553441 
L 845.264265 400.160396 
L 855.558913 400.779581 
L 865.671882 401.387838 
L 875.781758 401.995909 
L 886.312203 402.629275 
L 896.479289 403.240787 
L 906.609266 403.850067 
L 917.16445 404.484922 
L 927.45214 405.103688 
L 937.528773 405.709759 
L 947.715186 406.322434 
L 958.403344 406.965286 
L 968.504716 407.572846 
L 978.616139 408.18101 
L 988.824972 408.795033 
L 999.264964 409.422959 
L 1009.399579 410.032518 
L 1019.768445 410.656166 
L 1029.849717 411.262517 
L 1039.996702 411.87282 
L 1050.422778 412.499909 
L 1060.550436 413.109049 
L 1070.61238 413.714237 
L 1081.056237 414.342396 
L 1091.227188 414.954141 
L 1101.30846 415.560491 
L 1111.430706 416.169306 
L 1121.641085 416.783422 
L 1131.806625 417.394841 
L 1141.909544 418.002493 
L 1152.189503 418.620794 
L 1163.41806 419.29615 
L 1173.478458 419.901245 
L 1183.758417 420.519546 
L 1194.043014 421.138125 
L 1204.130471 421.744848 
L 1214.497791 422.368403 
L 1224.739095 422.984379 
L 1234.828097 423.591195 
L 1245.272727 424.2194 
" style="fill:none;stroke:#0000ff;stroke-linecap:square;stroke-width:1.5;"/>
   </g>
   <g id="line2d_17">
    <path clip-path="url(#pde0df27c5c)" d="M 230.727273 361.972087 
L 241.13634 362.611813 
L 251.219158 363.231488 
L 261.8014 363.881858 
L 272.107645 364.515264 
L 282.255404 365.138931 
L 292.710084 365.78146 
L 302.932834 366.409735 
L 312.989366 367.027795 
L 323.049763 367.646092 
L 333.093926 368.263391 
L 343.15355 368.881641 
L 353.207763 369.499558 
L 363.240329 370.116145 
L 373.510238 370.747319 
L 383.571409 371.365663 
L 394.021451 372.007908 
L 404.298317 372.639509 
L 414.360261 373.257901 
L 424.469365 373.879192 
L 434.85292 374.51735 
L 445.00377 375.141206 
L 455.092773 375.761262 
L 466.697059 376.474444 
L 476.823943 377.096827 
L 486.933046 377.718118 
L 497.12951 378.344778 
L 507.376226 378.974526 
L 517.551816 379.599903 
L 527.784616 380.228796 
L 537.892173 380.849991 
L 547.959528 381.468716 
L 558.394881 382.110057 
L 568.684118 382.742419 
L 578.755339 383.361381 
L 589.189919 384.002675 
L 599.504668 384.636605 
L 609.579754 385.255805 
L 619.670303 385.875955 
L 629.837389 386.500809 
L 639.897787 387.119106 
L 649.957411 387.737356 
L 660.043321 388.357221 
L 670.2336 388.983501 
L 680.29709 389.601988 
L 690.800476 390.247511 
L 701.522651 390.90648 
L 711.784829 391.537178 
L 722.463709 392.193487 
L 732.618426 392.817581 
L 742.711294 393.437874 
L 753.200764 394.082541 
L 763.488454 394.714807 
L 773.562767 395.33396 
L 783.65177 395.954015 
L 793.779428 396.576446 
L 803.839825 397.194743 
L 813.91182 397.813753 
L 824.078133 398.43856 
L 835.172943 399.120431 
L 845.264265 399.740629 
L 855.558913 400.373323 
L 865.671882 400.994851 
L 875.781758 401.616189 
L 886.312203 402.263375 
L 896.479289 402.888229 
L 906.609266 403.510802 
L 917.16445 404.159509 
L 927.45214 404.791775 
L 937.528773 405.41107 
L 947.715186 406.037112 
L 958.403344 406.69399 
L 968.504716 407.314806 
L 978.616139 407.936239 
L 988.824972 408.563659 
L 999.264964 409.205286 
L 1009.399579 409.828144 
L 1019.768445 410.4654 
L 1029.849717 411.08498 
L 1039.996702 411.708598 
L 1050.422778 412.34937 
L 1060.550436 412.971801 
L 1070.61238 413.590193 
L 1081.056237 414.232057 
L 1091.227188 414.857149 
L 1101.30846 415.476729 
L 1111.430706 416.098827 
L 1121.641085 416.726342 
L 1131.806625 417.351102 
L 1141.909544 417.972012 
L 1152.189503 418.603803 
L 1163.41806 419.293894 
L 1173.478458 419.912191 
L 1183.758417 420.543982 
L 1194.043014 421.176059 
L 1204.130471 421.796019 
L 1214.497791 422.433179 
L 1224.739095 423.062595 
L 1234.828097 423.68265 
L 1245.272727 424.324562 
" style="fill:none;stroke:#008000;stroke-linecap:square;stroke-width:1.5;"/>
    <defs>
     <path d="M 0 3 
C 0.795609 3 1.55874 2.683901 2.12132 2.12132 
C 2.683901 1.55874 3 0.795609 3 0 
C 3 -0.795609 2.683901 -1.55874 2.12132 -2.12132 
C 1.55874 -2.683901 0.795609 -3 0 -3 
C -0.795609 -3 -1.55874 -2.683901 -2.12132 -2.12132 
C -2.683901 -1.55874 -3 -0.795609 -3 0 
C -3 0.795609 -2.683901 1.55874 -2.12132 2.12132 
C -1.55874 2.683901 -0.795609 3 0 3 
z
" id="mc1fe439fa8" style="stroke:#008000;"/>
    </defs>
    <g clip-path="url(#pde0df27c5c)">
     <use style="fill:#008000;stroke:#008000;" x="230.727273" xlink:href="#mc1fe439fa8" y="361.972087"/>
     <use style="fill:#008000;stroke:#008000;" x="241.13634" xlink:href="#mc1fe439fa8" y="362.611813"/>
     <use style="fill:#008000;stroke:#008000;" x="251.219158" xlink:href="#mc1fe439fa8" y="363.231488"/>
     <use style="fill:#008000;stroke:#008000;" x="261.8014" xlink:href="#mc1fe439fa8" y="363.881858"/>
     <use style="fill:#008000;stroke:#008000;" x="272.107645" xlink:href="#mc1fe439fa8" y="364.515264"/>
     <use style="fill:#008000;stroke:#008000;" x="282.255404" xlink:href="#mc1fe439fa8" y="365.138931"/>
     <use style="fill:#008000;stroke:#008000;" x="292.710084" xlink:href="#mc1fe439fa8" y="365.78146"/>
     <use style="fill:#008000;stroke:#008000;" x="302.932834" xlink:href="#mc1fe439fa8" y="366.409735"/>
     <use style="fill:#008000;stroke:#008000;" x="312.989366" xlink:href="#mc1fe439fa8" y="367.027795"/>
     <use style="fill:#008000;stroke:#008000;" x="323.049763" xlink:href="#mc1fe439fa8" y="367.646092"/>
     <use style="fill:#008000;stroke:#008000;" x="333.093926" xlink:href="#mc1fe439fa8" y="368.263391"/>
     <use style="fill:#008000;stroke:#008000;" x="343.15355" xlink:href="#mc1fe439fa8" y="368.881641"/>
     <use style="fill:#008000;stroke:#008000;" x="353.207763" xlink:href="#mc1fe439fa8" y="369.499558"/>
     <use style="fill:#008000;stroke:#008000;" x="363.240329" xlink:href="#mc1fe439fa8" y="370.116145"/>
     <use style="fill:#008000;stroke:#008000;" x="373.510238" xlink:href="#mc1fe439fa8" y="370.747319"/>
     <use style="fill:#008000;stroke:#008000;" x="383.571409" xlink:href="#mc1fe439fa8" y="371.365663"/>
     <use style="fill:#008000;stroke:#008000;" x="394.021451" xlink:href="#mc1fe439fa8" y="372.007908"/>
     <use style="fill:#008000;stroke:#008000;" x="404.298317" xlink:href="#mc1fe439fa8" y="372.639509"/>
     <use style="fill:#008000;stroke:#008000;" x="414.360261" xlink:href="#mc1fe439fa8" y="373.257901"/>
     <use style="fill:#008000;stroke:#008000;" x="424.469365" xlink:href="#mc1fe439fa8" y="373.879192"/>
     <use style="fill:#008000;stroke:#008000;" x="434.85292" xlink:href="#mc1fe439fa8" y="374.51735"/>
     <use style="fill:#008000;stroke:#008000;" x="445.00377" xlink:href="#mc1fe439fa8" y="375.141206"/>
     <use style="fill:#008000;stroke:#008000;" x="455.092773" xlink:href="#mc1fe439fa8" y="375.761262"/>
     <use style="fill:#008000;stroke:#008000;" x="466.697059" xlink:href="#mc1fe439fa8" y="376.474444"/>
     <use style="fill:#008000;stroke:#008000;" x="476.823943" xlink:href="#mc1fe439fa8" y="377.096827"/>
     <use style="fill:#008000;stroke:#008000;" x="486.933046" xlink:href="#mc1fe439fa8" y="377.718118"/>
     <use style="fill:#008000;stroke:#008000;" x="497.12951" xlink:href="#mc1fe439fa8" y="378.344778"/>
     <use style="fill:#008000;stroke:#008000;" x="507.376226" xlink:href="#mc1fe439fa8" y="378.974526"/>
     <use style="fill:#008000;stroke:#008000;" x="517.551816" xlink:href="#mc1fe439fa8" y="379.599903"/>
     <use style="fill:#008000;stroke:#008000;" x="527.784616" xlink:href="#mc1fe439fa8" y="380.228796"/>
     <use style="fill:#008000;stroke:#008000;" x="537.892173" xlink:href="#mc1fe439fa8" y="380.849991"/>
     <use style="fill:#008000;stroke:#008000;" x="547.959528" xlink:href="#mc1fe439fa8" y="381.468716"/>
     <use style="fill:#008000;stroke:#008000;" x="558.394881" xlink:href="#mc1fe439fa8" y="382.110057"/>
     <use style="fill:#008000;stroke:#008000;" x="568.684118" xlink:href="#mc1fe439fa8" y="382.742419"/>
     <use style="fill:#008000;stroke:#008000;" x="578.755339" xlink:href="#mc1fe439fa8" y="383.361381"/>
     <use style="fill:#008000;stroke:#008000;" x="589.189919" xlink:href="#mc1fe439fa8" y="384.002675"/>
     <use style="fill:#008000;stroke:#008000;" x="599.504668" xlink:href="#mc1fe439fa8" y="384.636605"/>
     <use style="fill:#008000;stroke:#008000;" x="609.579754" xlink:href="#mc1fe439fa8" y="385.255805"/>
     <use style="fill:#008000;stroke:#008000;" x="619.670303" xlink:href="#mc1fe439fa8" y="385.875955"/>
     <use style="fill:#008000;stroke:#008000;" x="629.837389" xlink:href="#mc1fe439fa8" y="386.500809"/>
     <use style="fill:#008000;stroke:#008000;" x="639.897787" xlink:href="#mc1fe439fa8" y="387.119106"/>
     <use style="fill:#008000;stroke:#008000;" x="649.957411" xlink:href="#mc1fe439fa8" y="387.737356"/>
     <use style="fill:#008000;stroke:#008000;" x="660.043321" xlink:href="#mc1fe439fa8" y="388.357221"/>
     <use style="fill:#008000;stroke:#008000;" x="670.2336" xlink:href="#mc1fe439fa8" y="388.983501"/>
     <use style="fill:#008000;stroke:#008000;" x="680.29709" xlink:href="#mc1fe439fa8" y="389.601988"/>
     <use style="fill:#008000;stroke:#008000;" x="690.800476" xlink:href="#mc1fe439fa8" y="390.247511"/>
     <use style="fill:#008000;stroke:#008000;" x="701.522651" xlink:href="#mc1fe439fa8" y="390.90648"/>
     <use style="fill:#008000;stroke:#008000;" x="711.784829" xlink:href="#mc1fe439fa8" y="391.537178"/>
     <use style="fill:#008000;stroke:#008000;" x="722.463709" xlink:href="#mc1fe439fa8" y="392.193487"/>
     <use style="fill:#008000;stroke:#008000;" x="732.618426" xlink:href="#mc1fe439fa8" y="392.817581"/>
     <use style="fill:#008000;stroke:#008000;" x="742.711294" xlink:href="#mc1fe439fa8" y="393.437874"/>
     <use style="fill:#008000;stroke:#008000;" x="753.200764" xlink:href="#mc1fe439fa8" y="394.082541"/>
     <use style="fill:#008000;stroke:#008000;" x="763.488454" xlink:href="#mc1fe439fa8" y="394.714807"/>
     <use style="fill:#008000;stroke:#008000;" x="773.562767" xlink:href="#mc1fe439fa8" y="395.33396"/>
     <use style="fill:#008000;stroke:#008000;" x="783.65177" xlink:href="#mc1fe439fa8" y="395.954015"/>
     <use style="fill:#008000;stroke:#008000;" x="793.779428" xlink:href="#mc1fe439fa8" y="396.576446"/>
     <use style="fill:#008000;stroke:#008000;" x="803.839825" xlink:href="#mc1fe439fa8" y="397.194743"/>
     <use style="fill:#008000;stroke:#008000;" x="813.91182" xlink:href="#mc1fe439fa8" y="397.813753"/>
     <use style="fill:#008000;stroke:#008000;" x="824.078133" xlink:href="#mc1fe439fa8" y="398.43856"/>
     <use style="fill:#008000;stroke:#008000;" x="835.172943" xlink:href="#mc1fe439fa8" y="399.120431"/>
     <use style="fill:#008000;stroke:#008000;" x="845.264265" xlink:href="#mc1fe439fa8" y="399.740629"/>
     <use style="fill:#008000;stroke:#008000;" x="855.558913" xlink:href="#mc1fe439fa8" y="400.373323"/>
     <use style="fill:#008000;stroke:#008000;" x="865.671882" xlink:href="#mc1fe439fa8" y="400.994851"/>
     <use style="fill:#008000;stroke:#008000;" x="875.781758" xlink:href="#mc1fe439fa8" y="401.616189"/>
     <use style="fill:#008000;stroke:#008000;" x="886.312203" xlink:href="#mc1fe439fa8" y="402.263375"/>
     <use style="fill:#008000;stroke:#008000;" x="896.479289" xlink:href="#mc1fe439fa8" y="402.888229"/>
     <use style="fill:#008000;stroke:#008000;" x="906.609266" xlink:href="#mc1fe439fa8" y="403.510802"/>
     <use style="fill:#008000;stroke:#008000;" x="917.16445" xlink:href="#mc1fe439fa8" y="404.159509"/>
     <use style="fill:#008000;stroke:#008000;" x="927.45214" xlink:href="#mc1fe439fa8" y="404.791775"/>
     <use style="fill:#008000;stroke:#008000;" x="937.528773" xlink:href="#mc1fe439fa8" y="405.41107"/>
     <use style="fill:#008000;stroke:#008000;" x="947.715186" xlink:href="#mc1fe439fa8" y="406.037112"/>
     <use style="fill:#008000;stroke:#008000;" x="958.403344" xlink:href="#mc1fe439fa8" y="406.69399"/>
     <use style="fill:#008000;stroke:#008000;" x="968.504716" xlink:href="#mc1fe439fa8" y="407.314806"/>
     <use style="fill:#008000;stroke:#008000;" x="978.616139" xlink:href="#mc1fe439fa8" y="407.936239"/>
     <use style="fill:#008000;stroke:#008000;" x="988.824972" xlink:href="#mc1fe439fa8" y="408.563659"/>
     <use style="fill:#008000;stroke:#008000;" x="999.264964" xlink:href="#mc1fe439fa8" y="409.205286"/>
     <use style="fill:#008000;stroke:#008000;" x="1009.399579" xlink:href="#mc1fe439fa8" y="409.828144"/>
     <use style="fill:#008000;stroke:#008000;" x="1019.768445" xlink:href="#mc1fe439fa8" y="410.4654"/>
     <use style="fill:#008000;stroke:#008000;" x="1029.849717" xlink:href="#mc1fe439fa8" y="411.08498"/>
     <use style="fill:#008000;stroke:#008000;" x="1039.996702" xlink:href="#mc1fe439fa8" y="411.708598"/>
     <use style="fill:#008000;stroke:#008000;" x="1050.422778" xlink:href="#mc1fe439fa8" y="412.34937"/>
     <use style="fill:#008000;stroke:#008000;" x="1060.550436" xlink:href="#mc1fe439fa8" y="412.971801"/>
     <use style="fill:#008000;stroke:#008000;" x="1070.61238" xlink:href="#mc1fe439fa8" y="413.590193"/>
     <use style="fill:#008000;stroke:#008000;" x="1081.056237" xlink:href="#mc1fe439fa8" y="414.232057"/>
     <use style="fill:#008000;stroke:#008000;" x="1091.227188" xlink:href="#mc1fe439fa8" y="414.857149"/>
     <use style="fill:#008000;stroke:#008000;" x="1101.30846" xlink:href="#mc1fe439fa8" y="415.476729"/>
     <use style="fill:#008000;stroke:#008000;" x="1111.430706" xlink:href="#mc1fe439fa8" y="416.098827"/>
     <use style="fill:#008000;stroke:#008000;" x="1121.641085" xlink:href="#mc1fe439fa8" y="416.726342"/>
     <use style="fill:#008000;stroke:#008000;" x="1131.806625" xlink:href="#mc1fe439fa8" y="417.351102"/>
     <use style="fill:#008000;stroke:#008000;" x="1141.909544" xlink:href="#mc1fe439fa8" y="417.972012"/>
     <use style="fill:#008000;stroke:#008000;" x="1152.189503" xlink:href="#mc1fe439fa8" y="418.603803"/>
     <use style="fill:#008000;stroke:#008000;" x="1163.41806" xlink:href="#mc1fe439fa8" y="419.293894"/>
     <use style="fill:#008000;stroke:#008000;" x="1173.478458" xlink:href="#mc1fe439fa8" y="419.912191"/>
     <use style="fill:#008000;stroke:#008000;" x="1183.758417" xlink:href="#mc1fe439fa8" y="420.543982"/>
     <use style="fill:#008000;stroke:#008000;" x="1194.043014" xlink:href="#mc1fe439fa8" y="421.176059"/>
     <use style="fill:#008000;stroke:#008000;" x="1204.130471" xlink:href="#mc1fe439fa8" y="421.796019"/>
     <use style="fill:#008000;stroke:#008000;" x="1214.497791" xlink:href="#mc1fe439fa8" y="422.433179"/>
     <use style="fill:#008000;stroke:#008000;" x="1224.739095" xlink:href="#mc1fe439fa8" y="423.062595"/>
     <use style="fill:#008000;stroke:#008000;" x="1234.828097" xlink:href="#mc1fe439fa8" y="423.68265"/>
     <use style="fill:#008000;stroke:#008000;" x="1245.272727" xlink:href="#mc1fe439fa8" y="424.324562"/>
    </g>
   </g>
   <g id="patch_3">
    <path d="M 180 512.64 
L 180 69.12 
" style="fill:none;stroke:#000000;stroke-linecap:square;stroke-linejoin:miter;stroke-width:0.8;"/>
   </g>
   <g id="patch_4">
    <path d="M 1296 512.64 
L 1296 69.12 
" style="fill:none;stroke:#000000;stroke-linecap:square;stroke-linejoin:miter;stroke-width:0.8;"/>
   </g>
   <g id="patch_5">
    <path d="M 180 512.64 
L 1296 512.64 
" style="fill:none;stroke:#000000;stroke-linecap:square;stroke-linejoin:miter;stroke-width:0.8;"/>
   </g>
   <g id="patch_6">
    <path d="M 180 69.12 
L 1296 69.12 
" style="fill:none;stroke:#000000;stroke-linecap:square;stroke-linejoin:miter;stroke-width:0.8;"/>
   </g>
   <g id="text_14">
    <!-- 500000.0 bit/s -->
    <defs>
     <path id="DejaVuSans-20"/>
     <path d="M 48.6875 27.296875 
Q 48.6875 37.203125 44.609375 42.84375 
Q 40.53125 48.484375 33.40625 48.484375 
Q 26.265625 48.484375 22.1875 42.84375 
Q 18.109375 37.203125 18.109375 27.296875 
Q 18.109375 17.390625 22.1875 11.75 
Q 26.265625 6.109375 33.40625 6.109375 
Q 40.53125 6.109375 44.609375 11.75 
Q 48.6875 17.390625 48.6875 27.296875 
z
M 18.109375 46.390625 
Q 20.953125 51.265625 25.265625 53.625 
Q 29.59375 56 35.59375 56 
Q 45.5625 56 51.78125 48.09375 
Q 58.015625 40.1875 58.015625 27.296875 
Q 58.015625 14.40625 51.78125 6.484375 
Q 45.5625 -1.421875 35.59375 -1.421875 
Q 29.59375 -1.421875 25.265625 0.953125 
Q 20.953125 3.328125 18.109375 8.203125 
L 18.109375 0 
L 9.078125 0 
L 9.078125 75.984375 
L 18.109375 75.984375 
z
" id="DejaVuSans-62"/>
     <path d="M 9.421875 54.6875 
L 18.40625 54.6875 
L 18.40625 0 
L 9.421875 0 
z
M 9.421875 75.984375 
L 18.40625 75.984375 
L 18.40625 64.59375 
L 9.421875 64.59375 
z
" id="DejaVuSans-69"/>
     <path d="M 18.3125 70.21875 
L 18.3125 54.6875 
L 36.8125 54.6875 
L 36.8125 47.703125 
L 18.3125 47.703125 
L 18.3125 18.015625 
Q 18.3125 11.328125 20.140625 9.421875 
Q 21.96875 7.515625 27.59375 7.515625 
L 36.8125 7.515625 
L 36.8125 0 
L 27.59375 0 
Q 17.1875 0 13.234375 3.875 
Q 9.28125 7.765625 9.28125 18.015625 
L 9.28125 47.703125 
L 2.6875 47.703125 
L 2.6875 54.6875 
L 9.28125 54.6875 
L 9.28125 70.21875 
z
" id="DejaVuSans-74"/>
     <path d="M 25.390625 72.90625 
L 33.6875 72.90625 
L 8.296875 -9.28125 
L 0 -9.28125 
z
" id="DejaVuSans-2f"/>
     <path d="M 44.28125 53.078125 
L 44.28125 44.578125 
Q 40.484375 46.53125 36.375 47.5 
Q 32.28125 48.484375 27.875 48.484375 
Q 21.1875 48.484375 17.84375 46.4375 
Q 14.5 44.390625 14.5 40.28125 
Q 14.5 37.15625 16.890625 35.375 
Q 19.28125 33.59375 26.515625 31.984375 
L 29.59375 31.296875 
Q 39.15625 29.25 43.1875 25.515625 
Q 47.21875 21.78125 47.21875 15.09375 
Q 47.21875 7.46875 41.1875 3.015625 
Q 35.15625 -1.421875 24.609375 -1.421875 
Q 20.21875 -1.421875 15.453125 -0.5625 
Q 10.6875 0.296875 5.421875 2 
L 5.421875 11.28125 
Q 10.40625 8.6875 15.234375 7.390625 
Q 20.0625 6.109375 24.8125 6.109375 
Q 31.15625 6.109375 34.5625 8.28125 
Q 37.984375 10.453125 37.984375 14.40625 
Q 37.984375 18.0625 35.515625 20.015625 
Q 33.0625 21.96875 24.703125 23.78125 
L 21.578125 24.515625 
Q 13.234375 26.265625 9.515625 29.90625 
Q 5.8125 33.546875 5.8125 39.890625 
Q 5.8125 47.609375 11.28125 51.796875 
Q 16.75 56 26.8125 56 
Q 31.78125 56 36.171875 55.265625 
Q 40.578125 54.546875 44.28125 53.078125 
z
" id="DejaVuSans-73"/>
    </defs>
    <g transform="translate(694.48875 63.12)scale(0.12 -0.12)">
     <use xlink:href="#DejaVuSans-35"/>
     <use x="63.623047" xlink:href="#DejaVuSans-30"/>
     <use x="127.246094" xlink:href="#DejaVuSans-30"/>
     <use x="190.869141" xlink:href="#DejaVuSans-30"/>
     <use x="254.492188" xlink:href="#DejaVuSans-30"/>
     <use x="318.115234" xlink:href="#DejaVuSans-30"/>
     <use x="381.738281" xlink:href="#DejaVuSans-2e"/>
     <use x="413.525391" xlink:href="#DejaVuSans-30"/>
     <use x="477.148438" xlink:href="#DejaVuSans-20"/>
     <use x="508.935547" xlink:href="#DejaVuSans-62"/>
     <use x="572.412109" xlink:href="#DejaVuSans-69"/>
     <use x="600.195312" xlink:href="#DejaVuSans-74"/>
     <use x="639.404297" xlink:href="#DejaVuSans-2f"/>
     <use x="673.095703" xlink:href="#DejaVuSans-73"/>
    </g>
   </g>
   <g id="legend_1">
    <g id="patch_7">
     <path d="M 1173.520313 135.8325 
L 1289 135.8325 
Q 1291 135.8325 1291 133.8325 
L 1291 76.12 
Q 1291 74.12 1289 74.12 
L 1173.520313 74.12 
Q 1171.520313 74.12 1171.520313 76.12 
L 1171.520313 133.8325 
Q 1171.520313 135.8325 1173.520313 135.8325 
z
" style="fill:#ffffff;opacity:0.8;stroke:#cccccc;stroke-linejoin:miter;"/>
    </g>
    <g id="line2d_18">
     <path d="M 1175.520313 82.218437 
L 1195.520313 82.218437 
" style="fill:none;stroke:#ff0000;stroke-dasharray:5.55,2.4;stroke-dashoffset:0;stroke-width:1.5;"/>
    </g>
    <g id="line2d_19">
     <g>
      <use style="fill:#ff0000;stroke:#ff0000;stroke-linejoin:miter;" x="1185.520313" xlink:href="#m33b3414d97" y="82.218437"/>
     </g>
    </g>
    <g id="text_15">
     <!-- tcpdump -->
     <defs>
      <path d="M 48.78125 52.59375 
L 48.78125 44.1875 
Q 44.96875 46.296875 41.140625 47.34375 
Q 37.3125 48.390625 33.40625 48.390625 
Q 24.65625 48.390625 19.8125 42.84375 
Q 14.984375 37.3125 14.984375 27.296875 
Q 14.984375 17.28125 19.8125 11.734375 
Q 24.65625 6.203125 33.40625 6.203125 
Q 37.3125 6.203125 41.140625 7.25 
Q 44.96875 8.296875 48.78125 10.40625 
L 48.78125 2.09375 
Q 45.015625 0.34375 40.984375 -0.53125 
Q 36.96875 -1.421875 32.421875 -1.421875 
Q 20.0625 -1.421875 12.78125 6.34375 
Q 5.515625 14.109375 5.515625 27.296875 
Q 5.515625 40.671875 12.859375 48.328125 
Q 20.21875 56 33.015625 56 
Q 37.15625 56 41.109375 55.140625 
Q 45.0625 54.296875 48.78125 52.59375 
z
" id="DejaVuSans-63"/>
      <path d="M 18.109375 8.203125 
L 18.109375 -20.796875 
L 9.078125 -20.796875 
L 9.078125 54.6875 
L 18.109375 54.6875 
L 18.109375 46.390625 
Q 20.953125 51.265625 25.265625 53.625 
Q 29.59375 56 35.59375 56 
Q 45.5625 56 51.78125 48.09375 
Q 58.015625 40.1875 58.015625 27.296875 
Q 58.015625 14.40625 51.78125 6.484375 
Q 45.5625 -1.421875 35.59375 -1.421875 
Q 29.59375 -1.421875 25.265625 0.953125 
Q 20.953125 3.328125 18.109375 8.203125 
z
M 48.6875 27.296875 
Q 48.6875 37.203125 44.609375 42.84375 
Q 40.53125 48.484375 33.40625 48.484375 
Q 26.265625 48.484375 22.1875 42.84375 
Q 18.109375 37.203125 18.109375 27.296875 
Q 18.109375 17.390625 22.1875 11.75 
Q 26.265625 6.109375 33.40625 6.109375 
Q 40.53125 6.109375 44.609375 11.75 
Q 48.6875 17.390625 48.6875 27.296875 
z
" id="DejaVuSans-70"/>
      <path d="M 45.40625 46.390625 
L 45.40625 75.984375 
L 54.390625 75.984375 
L 54.390625 0 
L 45.40625 0 
L 45.40625 8.203125 
Q 42.578125 3.328125 38.25 0.953125 
Q 33.9375 -1.421875 27.875 -1.421875 
Q 17.96875 -1.421875 11.734375 6.484375 
Q 5.515625 14.40625 5.515625 27.296875 
Q 5.515625 40.1875 11.734375 48.09375 
Q 17.96875 56 27.875 56 
Q 33.9375 56 38.25 53.625 
Q 42.578125 51.265625 45.40625 46.390625 
z
M 14.796875 27.296875 
Q 14.796875 17.390625 18.875 11.75 
Q 22.953125 6.109375 30.078125 6.109375 
Q 37.203125 6.109375 41.296875 11.75 
Q 45.40625 17.390625 45.40625 27.296875 
Q 45.40625 37.203125 41.296875 42.84375 
Q 37.203125 48.484375 30.078125 48.484375 
Q 22.953125 48.484375 18.875 42.84375 
Q 14.796875 37.203125 14.796875 27.296875 
z
" id="DejaVuSans-64"/>
      <path d="M 8.5 21.578125 
L 8.5 54.6875 
L 17.484375 54.6875 
L 17.484375 21.921875 
Q 17.484375 14.15625 20.5 10.265625 
Q 23.53125 6.390625 29.59375 6.390625 
Q 36.859375 6.390625 41.078125 11.03125 
Q 45.3125 15.671875 45.3125 23.6875 
L 45.3125 54.6875 
L 54.296875 54.6875 
L 54.296875 0 
L 45.3125 0 
L 45.3125 8.40625 
Q 42.046875 3.421875 37.71875 1 
Q 33.40625 -1.421875 27.6875 -1.421875 
Q 18.265625 -1.421875 13.375 4.4375 
Q 8.5 10.296875 8.5 21.578125 
z
M 31.109375 56 
z
" id="DejaVuSans-75"/>
      <path d="M 52 44.1875 
Q 55.375 50.25 60.0625 53.125 
Q 64.75 56 71.09375 56 
Q 79.640625 56 84.28125 50.015625 
Q 88.921875 44.046875 88.921875 33.015625 
L 88.921875 0 
L 79.890625 0 
L 79.890625 32.71875 
Q 79.890625 40.578125 77.09375 44.375 
Q 74.3125 48.1875 68.609375 48.1875 
Q 61.625 48.1875 57.5625 43.546875 
Q 53.515625 38.921875 53.515625 30.90625 
L 53.515625 0 
L 44.484375 0 
L 44.484375 32.71875 
Q 44.484375 40.625 41.703125 44.40625 
Q 38.921875 48.1875 33.109375 48.1875 
Q 26.21875 48.1875 22.15625 43.53125 
Q 18.109375 38.875 18.109375 30.90625 
L 18.109375 0 
L 9.078125 0 
L 9.078125 54.6875 
L 18.109375 54.6875 
L 18.109375 46.1875 
Q 21.1875 51.21875 25.484375 53.609375 
Q 29.78125 56 35.6875 56 
Q 41.65625 56 45.828125 52.96875 
Q 50 49.953125 52 44.1875 
z
" id="DejaVuSans-6d"/>
     </defs>
     <g transform="translate(1203.520313 85.718437)scale(0.1 -0.1)">
      <use xlink:href="#DejaVuSans-74"/>
      <use x="39.208984" xlink:href="#DejaVuSans-63"/>
      <use x="94.189453" xlink:href="#DejaVuSans-70"/>
      <use x="157.666016" xlink:href="#DejaVuSans-64"/>
      <use x="221.142578" xlink:href="#DejaVuSans-75"/>
      <use x="284.521484" xlink:href="#DejaVuSans-6d"/>
      <use x="381.933594" xlink:href="#DejaVuSans-70"/>
     </g>
    </g>
    <g id="line2d_20">
     <path d="M 1175.520313 96.896563 
L 1195.520313 96.896563 
" style="fill:none;stroke:#800080;stroke-dasharray:9.6,2.4,1.5,2.4;stroke-dashoffset:0;stroke-width:1.5;"/>
    </g>
    <g id="line2d_21">
     <g>
      <use style="fill:#800080;stroke:#800080;" x="1185.520313" xlink:href="#m9ed46b9d0a" y="96.896563"/>
     </g>
    </g>
    <g id="text_16">
     <!-- filtered tcpdump -->
     <defs>
      <path d="M 37.109375 75.984375 
L 37.109375 68.5 
L 28.515625 68.5 
Q 23.6875 68.5 21.796875 66.546875 
Q 19.921875 64.59375 19.921875 59.515625 
L 19.921875 54.6875 
L 34.71875 54.6875 
L 34.71875 47.703125 
L 19.921875 47.703125 
L 19.921875 0 
L 10.890625 0 
L 10.890625 47.703125 
L 2.296875 47.703125 
L 2.296875 54.6875 
L 10.890625 54.6875 
L 10.890625 58.5 
Q 10.890625 67.625 15.140625 71.796875 
Q 19.390625 75.984375 28.609375 75.984375 
z
" id="DejaVuSans-66"/>
      <path d="M 9.421875 75.984375 
L 18.40625 75.984375 
L 18.40625 0 
L 9.421875 0 
z
" id="DejaVuSans-6c"/>
      <path d="M 56.203125 29.59375 
L 56.203125 25.203125 
L 14.890625 25.203125 
Q 15.484375 15.921875 20.484375 11.0625 
Q 25.484375 6.203125 34.421875 6.203125 
Q 39.59375 6.203125 44.453125 7.46875 
Q 49.3125 8.734375 54.109375 11.28125 
L 54.109375 2.78125 
Q 49.265625 0.734375 44.1875 -0.34375 
Q 39.109375 -1.421875 33.890625 -1.421875 
Q 20.796875 -1.421875 13.15625 6.1875 
Q 5.515625 13.8125 5.515625 26.8125 
Q 5.515625 40.234375 12.765625 48.109375 
Q 20.015625 56 32.328125 56 
Q 43.359375 56 49.78125 48.890625 
Q 56.203125 41.796875 56.203125 29.59375 
z
M 47.21875 32.234375 
Q 47.125 39.59375 43.09375 43.984375 
Q 39.0625 48.390625 32.421875 48.390625 
Q 24.90625 48.390625 20.390625 44.140625 
Q 15.875 39.890625 15.1875 32.171875 
z
" id="DejaVuSans-65"/>
      <path d="M 41.109375 46.296875 
Q 39.59375 47.171875 37.8125 47.578125 
Q 36.03125 48 33.890625 48 
Q 26.265625 48 22.1875 43.046875 
Q 18.109375 38.09375 18.109375 28.8125 
L 18.109375 0 
L 9.078125 0 
L 9.078125 54.6875 
L 18.109375 54.6875 
L 18.109375 46.1875 
Q 20.953125 51.171875 25.484375 53.578125 
Q 30.03125 56 36.53125 56 
Q 37.453125 56 38.578125 55.875 
Q 39.703125 55.765625 41.0625 55.515625 
z
" id="DejaVuSans-72"/>
     </defs>
     <g transform="translate(1203.520313 100.396563)scale(0.1 -0.1)">
      <use xlink:href="#DejaVuSans-66"/>
      <use x="35.205078" xlink:href="#DejaVuSans-69"/>
      <use x="62.988281" xlink:href="#DejaVuSans-6c"/>
      <use x="90.771484" xlink:href="#DejaVuSans-74"/>
      <use x="129.980469" xlink:href="#DejaVuSans-65"/>
      <use x="191.503906" xlink:href="#DejaVuSans-72"/>
      <use x="232.585938" xlink:href="#DejaVuSans-65"/>
      <use x="294.109375" xlink:href="#DejaVuSans-64"/>
      <use x="357.585938" xlink:href="#DejaVuSans-20"/>
      <use x="389.373047" xlink:href="#DejaVuSans-74"/>
      <use x="428.582031" xlink:href="#DejaVuSans-63"/>
      <use x="483.5625" xlink:href="#DejaVuSans-70"/>
      <use x="547.039062" xlink:href="#DejaVuSans-64"/>
      <use x="610.515625" xlink:href="#DejaVuSans-75"/>
      <use x="673.894531" xlink:href="#DejaVuSans-6d"/>
      <use x="771.306641" xlink:href="#DejaVuSans-70"/>
     </g>
    </g>
    <g id="line2d_22">
     <path d="M 1175.520313 111.574687 
L 1195.520313 111.574687 
" style="fill:none;stroke:#0000ff;stroke-linecap:square;stroke-width:1.5;"/>
    </g>
    <g id="line2d_23"/>
    <g id="text_17">
     <!-- OLS -->
     <defs>
      <path d="M 39.40625 66.21875 
Q 28.65625 66.21875 22.328125 58.203125 
Q 16.015625 50.203125 16.015625 36.375 
Q 16.015625 22.609375 22.328125 14.59375 
Q 28.65625 6.59375 39.40625 6.59375 
Q 50.140625 6.59375 56.421875 14.59375 
Q 62.703125 22.609375 62.703125 36.375 
Q 62.703125 50.203125 56.421875 58.203125 
Q 50.140625 66.21875 39.40625 66.21875 
z
M 39.40625 74.21875 
Q 54.734375 74.21875 63.90625 63.9375 
Q 73.09375 53.65625 73.09375 36.375 
Q 73.09375 19.140625 63.90625 8.859375 
Q 54.734375 -1.421875 39.40625 -1.421875 
Q 24.03125 -1.421875 14.8125 8.828125 
Q 5.609375 19.09375 5.609375 36.375 
Q 5.609375 53.65625 14.8125 63.9375 
Q 24.03125 74.21875 39.40625 74.21875 
z
" id="DejaVuSans-4f"/>
      <path d="M 9.8125 72.90625 
L 19.671875 72.90625 
L 19.671875 8.296875 
L 55.171875 8.296875 
L 55.171875 0 
L 9.8125 0 
z
" id="DejaVuSans-4c"/>
      <path d="M 53.515625 70.515625 
L 53.515625 60.890625 
Q 47.90625 63.578125 42.921875 64.890625 
Q 37.9375 66.21875 33.296875 66.21875 
Q 25.25 66.21875 20.875 63.09375 
Q 16.5 59.96875 16.5 54.203125 
Q 16.5 49.359375 19.40625 46.890625 
Q 22.3125 44.4375 30.421875 42.921875 
L 36.375 41.703125 
Q 47.40625 39.59375 52.65625 34.296875 
Q 57.90625 29 57.90625 20.125 
Q 57.90625 9.515625 50.796875 4.046875 
Q 43.703125 -1.421875 29.984375 -1.421875 
Q 24.8125 -1.421875 18.96875 -0.25 
Q 13.140625 0.921875 6.890625 3.21875 
L 6.890625 13.375 
Q 12.890625 10.015625 18.65625 8.296875 
Q 24.421875 6.59375 29.984375 6.59375 
Q 38.421875 6.59375 43.015625 9.90625 
Q 47.609375 13.234375 47.609375 19.390625 
Q 47.609375 24.75 44.3125 27.78125 
Q 41.015625 30.8125 33.5 32.328125 
L 27.484375 33.5 
Q 16.453125 35.6875 11.515625 40.375 
Q 6.59375 45.0625 6.59375 53.421875 
Q 6.59375 63.09375 13.40625 68.65625 
Q 20.21875 74.21875 32.171875 74.21875 
Q 37.3125 74.21875 42.625 73.28125 
Q 47.953125 72.359375 53.515625 70.515625 
z
" id="DejaVuSans-53"/>
     </defs>
     <g transform="translate(1203.520313 115.074687)scale(0.1 -0.1)">
      <use xlink:href="#DejaVuSans-4f"/>
      <use x="78.710938" xlink:href="#DejaVuSans-4c"/>
      <use x="134.423828" xlink:href="#DejaVuSans-53"/>
     </g>
    </g>
    <g id="line2d_24">
     <path d="M 1175.520313 126.252813 
L 1195.520313 126.252813 
" style="fill:none;stroke:#008000;stroke-linecap:square;stroke-width:1.5;"/>
    </g>
    <g id="line2d_25">
     <g>
      <use style="fill:#008000;stroke:#008000;" x="1185.520313" xlink:href="#mc1fe439fa8" y="126.252813"/>
     </g>
    </g>
    <g id="text_18">
     <!-- IRLS -->
     <defs>
      <path d="M 9.8125 72.90625 
L 19.671875 72.90625 
L 19.671875 0 
L 9.8125 0 
z
" id="DejaVuSans-49"/>
      <path d="M 44.390625 34.1875 
Q 47.5625 33.109375 50.5625 29.59375 
Q 53.5625 26.078125 56.59375 19.921875 
L 66.609375 0 
L 56 0 
L 46.6875 18.703125 
Q 43.0625 26.03125 39.671875 28.421875 
Q 36.28125 30.8125 30.421875 30.8125 
L 19.671875 30.8125 
L 19.671875 0 
L 9.8125 0 
L 9.8125 72.90625 
L 32.078125 72.90625 
Q 44.578125 72.90625 50.734375 67.671875 
Q 56.890625 62.453125 56.890625 51.90625 
Q 56.890625 45.015625 53.6875 40.46875 
Q 50.484375 35.9375 44.390625 34.1875 
z
M 19.671875 64.796875 
L 19.671875 38.921875 
L 32.078125 38.921875 
Q 39.203125 38.921875 42.84375 42.21875 
Q 46.484375 45.515625 46.484375 51.90625 
Q 46.484375 58.296875 42.84375 61.546875 
Q 39.203125 64.796875 32.078125 64.796875 
z
" id="DejaVuSans-52"/>
     </defs>
     <g transform="translate(1203.520313 129.752813)scale(0.1 -0.1)">
      <use xlink:href="#DejaVuSans-49"/>
      <use x="29.492188" xlink:href="#DejaVuSans-52"/>
      <use x="98.974609" xlink:href="#DejaVuSans-4c"/>
      <use x="154.6875" xlink:href="#DejaVuSans-53"/>
     </g>
    </g>
   </g>
  </g>
 </g>
 <defs>
  <clipPath id="pde0df27c5c">
   <rect height="443.52" width="1116" x="180" y="69.12"/>
  </clipPath>
 </defs>
</svg>
