<?xml version="1.0" encoding="utf-8" standalone="no"?>
<!DOCTYPE svg PUBLIC "-//W3C//DTD SVG 1.1//EN"
  "http://www.w3.org/Graphics/SVG/1.1/DTD/svg11.dtd">
<!-- Created with matplotlib (http://matplotlib.org/) -->
<svg height="576pt" version="1.1" viewBox="0 0 1440 576" width="1440pt" xmlns="http://www.w3.org/2000/svg" xmlns:xlink="http://www.w3.org/1999/xlink">
 <defs>
  <style type="text/css">
*{stroke-linecap:butt;stroke-linejoin:round;}
  </style>
 </defs>
 <g id="figure_1">
  <g id="patch_1">
   <path d="M 0 576 
L 1440 576 
L 1440 0 
L 0 0 
z
" style="fill:#ffffff;"/>
  </g>
  <g id="axes_1">
   <g id="patch_2">
    <path d="M 180 512.64 
L 1296 512.64 
L 1296 69.12 
L 180 69.12 
z
" style="fill:#ffffff;"/>
   </g>
   <g id="matplotlib.axis_1">
    <g id="xtick_1">
     <g id="line2d_1">
      <defs>
       <path d="M 0 0 
L 0 3.5 
" id="mb54a3382c6" style="stroke:#000000;stroke-width:0.8;"/>
      </defs>
      <g>
       <use style="stroke:#000000;stroke-width:0.8;" x="230.727273" xlink:href="#mb54a3382c6" y="512.64"/>
      </g>
     </g>
     <g id="text_1">
      <!-- 0.0 -->
      <defs>
       <path d="M 31.78125 66.40625 
Q 24.171875 66.40625 20.328125 58.90625 
Q 16.5 51.421875 16.5 36.375 
Q 16.5 21.390625 20.328125 13.890625 
Q 24.171875 6.390625 31.78125 6.390625 
Q 39.453125 6.390625 43.28125 13.890625 
Q 47.125 21.390625 47.125 36.375 
Q 47.125 51.421875 43.28125 58.90625 
Q 39.453125 66.40625 31.78125 66.40625 
z
M 31.78125 74.21875 
Q 44.046875 74.21875 50.515625 64.515625 
Q 56.984375 54.828125 56.984375 36.375 
Q 56.984375 17.96875 50.515625 8.265625 
Q 44.046875 -1.421875 31.78125 -1.421875 
Q 19.53125 -1.421875 13.0625 8.265625 
Q 6.59375 17.96875 6.59375 36.375 
Q 6.59375 54.828125 13.0625 64.515625 
Q 19.53125 74.21875 31.78125 74.21875 
z
" id="DejaVuSans-30"/>
       <path d="M 10.6875 12.40625 
L 21 12.40625 
L 21 0 
L 10.6875 0 
z
" id="DejaVuSans-2e"/>
      </defs>
      <g transform="translate(222.77571 527.238438)scale(0.1 -0.1)">
       <use xlink:href="#DejaVuSans-30"/>
       <use x="63.623047" xlink:href="#DejaVuSans-2e"/>
       <use x="95.410156" xlink:href="#DejaVuSans-30"/>
      </g>
     </g>
    </g>
    <g id="xtick_2">
     <g id="line2d_2">
      <g>
       <use style="stroke:#000000;stroke-width:0.8;" x="383.067601" xlink:href="#mb54a3382c6" y="512.64"/>
      </g>
     </g>
     <g id="text_2">
      <!-- 0.2 -->
      <defs>
       <path d="M 19.1875 8.296875 
L 53.609375 8.296875 
L 53.609375 0 
L 7.328125 0 
L 7.328125 8.296875 
Q 12.9375 14.109375 22.625 23.890625 
Q 32.328125 33.6875 34.8125 36.53125 
Q 39.546875 41.84375 41.421875 45.53125 
Q 43.3125 49.21875 43.3125 52.78125 
Q 43.3125 58.59375 39.234375 62.25 
Q 35.15625 65.921875 28.609375 65.921875 
Q 23.96875 65.921875 18.8125 64.3125 
Q 13.671875 62.703125 7.8125 59.421875 
L 7.8125 69.390625 
Q 13.765625 71.78125 18.9375 73 
Q 24.125 74.21875 28.421875 74.21875 
Q 39.75 74.21875 46.484375 68.546875 
Q 53.21875 62.890625 53.21875 53.421875 
Q 53.21875 48.921875 51.53125 44.890625 
Q 49.859375 40.875 45.40625 35.40625 
Q 44.1875 33.984375 37.640625 27.21875 
Q 31.109375 20.453125 19.1875 8.296875 
z
" id="DejaVuSans-32"/>
      </defs>
      <g transform="translate(375.116039 527.238438)scale(0.1 -0.1)">
       <use xlink:href="#DejaVuSans-30"/>
       <use x="63.623047" xlink:href="#DejaVuSans-2e"/>
       <use x="95.410156" xlink:href="#DejaVuSans-32"/>
      </g>
     </g>
    </g>
    <g id="xtick_3">
     <g id="line2d_3">
      <g>
       <use style="stroke:#000000;stroke-width:0.8;" x="535.407929" xlink:href="#mb54a3382c6" y="512.64"/>
      </g>
     </g>
     <g id="text_3">
      <!-- 0.4 -->
      <defs>
       <path d="M 37.796875 64.3125 
L 12.890625 25.390625 
L 37.796875 25.390625 
z
M 35.203125 72.90625 
L 47.609375 72.90625 
L 47.609375 25.390625 
L 58.015625 25.390625 
L 58.015625 17.1875 
L 47.609375 17.1875 
L 47.609375 0 
L 37.796875 0 
L 37.796875 17.1875 
L 4.890625 17.1875 
L 4.890625 26.703125 
z
" id="DejaVuSans-34"/>
      </defs>
      <g transform="translate(527.456367 527.238438)scale(0.1 -0.1)">
       <use xlink:href="#DejaVuSans-30"/>
       <use x="63.623047" xlink:href="#DejaVuSans-2e"/>
       <use x="95.410156" xlink:href="#DejaVuSans-34"/>
      </g>
     </g>
    </g>
    <g id="xtick_4">
     <g id="line2d_4">
      <g>
       <use style="stroke:#000000;stroke-width:0.8;" x="687.748258" xlink:href="#mb54a3382c6" y="512.64"/>
      </g>
     </g>
     <g id="text_4">
      <!-- 0.6 -->
      <defs>
       <path d="M 33.015625 40.375 
Q 26.375 40.375 22.484375 35.828125 
Q 18.609375 31.296875 18.609375 23.390625 
Q 18.609375 15.53125 22.484375 10.953125 
Q 26.375 6.390625 33.015625 6.390625 
Q 39.65625 6.390625 43.53125 10.953125 
Q 47.40625 15.53125 47.40625 23.390625 
Q 47.40625 31.296875 43.53125 35.828125 
Q 39.65625 40.375 33.015625 40.375 
z
M 52.59375 71.296875 
L 52.59375 62.3125 
Q 48.875 64.0625 45.09375 64.984375 
Q 41.3125 65.921875 37.59375 65.921875 
Q 27.828125 65.921875 22.671875 59.328125 
Q 17.53125 52.734375 16.796875 39.40625 
Q 19.671875 43.65625 24.015625 45.921875 
Q 28.375 48.1875 33.59375 48.1875 
Q 44.578125 48.1875 50.953125 41.515625 
Q 57.328125 34.859375 57.328125 23.390625 
Q 57.328125 12.15625 50.6875 5.359375 
Q 44.046875 -1.421875 33.015625 -1.421875 
Q 20.359375 -1.421875 13.671875 8.265625 
Q 6.984375 17.96875 6.984375 36.375 
Q 6.984375 53.65625 15.1875 63.9375 
Q 23.390625 74.21875 37.203125 74.21875 
Q 40.921875 74.21875 44.703125 73.484375 
Q 48.484375 72.75 52.59375 71.296875 
z
" id="DejaVuSans-36"/>
      </defs>
      <g transform="translate(679.796695 527.238438)scale(0.1 -0.1)">
       <use xlink:href="#DejaVuSans-30"/>
       <use x="63.623047" xlink:href="#DejaVuSans-2e"/>
       <use x="95.410156" xlink:href="#DejaVuSans-36"/>
      </g>
     </g>
    </g>
    <g id="xtick_5">
     <g id="line2d_5">
      <g>
       <use style="stroke:#000000;stroke-width:0.8;" x="840.088586" xlink:href="#mb54a3382c6" y="512.64"/>
      </g>
     </g>
     <g id="text_5">
      <!-- 0.8 -->
      <defs>
       <path d="M 31.78125 34.625 
Q 24.75 34.625 20.71875 30.859375 
Q 16.703125 27.09375 16.703125 20.515625 
Q 16.703125 13.921875 20.71875 10.15625 
Q 24.75 6.390625 31.78125 6.390625 
Q 38.8125 6.390625 42.859375 10.171875 
Q 46.921875 13.96875 46.921875 20.515625 
Q 46.921875 27.09375 42.890625 30.859375 
Q 38.875 34.625 31.78125 34.625 
z
M 21.921875 38.8125 
Q 15.578125 40.375 12.03125 44.71875 
Q 8.5 49.078125 8.5 55.328125 
Q 8.5 64.0625 14.71875 69.140625 
Q 20.953125 74.21875 31.78125 74.21875 
Q 42.671875 74.21875 48.875 69.140625 
Q 55.078125 64.0625 55.078125 55.328125 
Q 55.078125 49.078125 51.53125 44.71875 
Q 48 40.375 41.703125 38.8125 
Q 48.828125 37.15625 52.796875 32.3125 
Q 56.78125 27.484375 56.78125 20.515625 
Q 56.78125 9.90625 50.3125 4.234375 
Q 43.84375 -1.421875 31.78125 -1.421875 
Q 19.734375 -1.421875 13.25 4.234375 
Q 6.78125 9.90625 6.78125 20.515625 
Q 6.78125 27.484375 10.78125 32.3125 
Q 14.796875 37.15625 21.921875 38.8125 
z
M 18.3125 54.390625 
Q 18.3125 48.734375 21.84375 45.5625 
Q 25.390625 42.390625 31.78125 42.390625 
Q 38.140625 42.390625 41.71875 45.5625 
Q 45.3125 48.734375 45.3125 54.390625 
Q 45.3125 60.0625 41.71875 63.234375 
Q 38.140625 66.40625 31.78125 66.40625 
Q 25.390625 66.40625 21.84375 63.234375 
Q 18.3125 60.0625 18.3125 54.390625 
z
" id="DejaVuSans-38"/>
      </defs>
      <g transform="translate(832.137023 527.238438)scale(0.1 -0.1)">
       <use xlink:href="#DejaVuSans-30"/>
       <use x="63.623047" xlink:href="#DejaVuSans-2e"/>
       <use x="95.410156" xlink:href="#DejaVuSans-38"/>
      </g>
     </g>
    </g>
    <g id="xtick_6">
     <g id="line2d_6">
      <g>
       <use style="stroke:#000000;stroke-width:0.8;" x="992.428914" xlink:href="#mb54a3382c6" y="512.64"/>
      </g>
     </g>
     <g id="text_6">
      <!-- 1.0 -->
      <defs>
       <path d="M 12.40625 8.296875 
L 28.515625 8.296875 
L 28.515625 63.921875 
L 10.984375 60.40625 
L 10.984375 69.390625 
L 28.421875 72.90625 
L 38.28125 72.90625 
L 38.28125 8.296875 
L 54.390625 8.296875 
L 54.390625 0 
L 12.40625 0 
z
" id="DejaVuSans-31"/>
      </defs>
      <g transform="translate(984.477352 527.238438)scale(0.1 -0.1)">
       <use xlink:href="#DejaVuSans-31"/>
       <use x="63.623047" xlink:href="#DejaVuSans-2e"/>
       <use x="95.410156" xlink:href="#DejaVuSans-30"/>
      </g>
     </g>
    </g>
    <g id="xtick_7">
     <g id="line2d_7">
      <g>
       <use style="stroke:#000000;stroke-width:0.8;" x="1144.769242" xlink:href="#mb54a3382c6" y="512.64"/>
      </g>
     </g>
     <g id="text_7">
      <!-- 1.2 -->
      <g transform="translate(1136.81768 527.238438)scale(0.1 -0.1)">
       <use xlink:href="#DejaVuSans-31"/>
       <use x="63.623047" xlink:href="#DejaVuSans-2e"/>
       <use x="95.410156" xlink:href="#DejaVuSans-32"/>
      </g>
     </g>
    </g>
   </g>
   <g id="matplotlib.axis_2">
    <g id="ytick_1">
     <g id="line2d_8">
      <defs>
       <path d="M 0 0 
L -3.5 0 
" id="mbf3a9349cb" style="stroke:#000000;stroke-width:0.8;"/>
      </defs>
      <g>
       <use style="stroke:#000000;stroke-width:0.8;" x="180" xlink:href="#mbf3a9349cb" y="506.156713"/>
      </g>
     </g>
     <g id="text_8">
      <!-- 0.2 -->
      <g transform="translate(157.096875 509.955931)scale(0.1 -0.1)">
       <use xlink:href="#DejaVuSans-30"/>
       <use x="63.623047" xlink:href="#DejaVuSans-2e"/>
       <use x="95.410156" xlink:href="#DejaVuSans-32"/>
      </g>
     </g>
    </g>
    <g id="ytick_2">
     <g id="line2d_9">
      <g>
       <use style="stroke:#000000;stroke-width:0.8;" x="180" xlink:href="#mbf3a9349cb" y="422.588495"/>
      </g>
     </g>
     <g id="text_9">
      <!-- 0.3 -->
      <defs>
       <path d="M 40.578125 39.3125 
Q 47.65625 37.796875 51.625 33 
Q 55.609375 28.21875 55.609375 21.1875 
Q 55.609375 10.40625 48.1875 4.484375 
Q 40.765625 -1.421875 27.09375 -1.421875 
Q 22.515625 -1.421875 17.65625 -0.515625 
Q 12.796875 0.390625 7.625 2.203125 
L 7.625 11.71875 
Q 11.71875 9.328125 16.59375 8.109375 
Q 21.484375 6.890625 26.8125 6.890625 
Q 36.078125 6.890625 40.9375 10.546875 
Q 45.796875 14.203125 45.796875 21.1875 
Q 45.796875 27.640625 41.28125 31.265625 
Q 36.765625 34.90625 28.71875 34.90625 
L 20.21875 34.90625 
L 20.21875 43.015625 
L 29.109375 43.015625 
Q 36.375 43.015625 40.234375 45.921875 
Q 44.09375 48.828125 44.09375 54.296875 
Q 44.09375 59.90625 40.109375 62.90625 
Q 36.140625 65.921875 28.71875 65.921875 
Q 24.65625 65.921875 20.015625 65.03125 
Q 15.375 64.15625 9.8125 62.3125 
L 9.8125 71.09375 
Q 15.4375 72.65625 20.34375 73.4375 
Q 25.25 74.21875 29.59375 74.21875 
Q 40.828125 74.21875 47.359375 69.109375 
Q 53.90625 64.015625 53.90625 55.328125 
Q 53.90625 49.265625 50.4375 45.09375 
Q 46.96875 40.921875 40.578125 39.3125 
z
" id="DejaVuSans-33"/>
      </defs>
      <g transform="translate(157.096875 426.387713)scale(0.1 -0.1)">
       <use xlink:href="#DejaVuSans-30"/>
       <use x="63.623047" xlink:href="#DejaVuSans-2e"/>
       <use x="95.410156" xlink:href="#DejaVuSans-33"/>
      </g>
     </g>
    </g>
    <g id="ytick_3">
     <g id="line2d_10">
      <g>
       <use style="stroke:#000000;stroke-width:0.8;" x="180" xlink:href="#mbf3a9349cb" y="339.020277"/>
      </g>
     </g>
     <g id="text_10">
      <!-- 0.4 -->
      <g transform="translate(157.096875 342.819495)scale(0.1 -0.1)">
       <use xlink:href="#DejaVuSans-30"/>
       <use x="63.623047" xlink:href="#DejaVuSans-2e"/>
       <use x="95.410156" xlink:href="#DejaVuSans-34"/>
      </g>
     </g>
    </g>
    <g id="ytick_4">
     <g id="line2d_11">
      <g>
       <use style="stroke:#000000;stroke-width:0.8;" x="180" xlink:href="#mbf3a9349cb" y="255.452059"/>
      </g>
     </g>
     <g id="text_11">
      <!-- 0.5 -->
      <defs>
       <path d="M 10.796875 72.90625 
L 49.515625 72.90625 
L 49.515625 64.59375 
L 19.828125 64.59375 
L 19.828125 46.734375 
Q 21.96875 47.46875 24.109375 47.828125 
Q 26.265625 48.1875 28.421875 48.1875 
Q 40.625 48.1875 47.75 41.5 
Q 54.890625 34.8125 54.890625 23.390625 
Q 54.890625 11.625 47.5625 5.09375 
Q 40.234375 -1.421875 26.90625 -1.421875 
Q 22.3125 -1.421875 17.546875 -0.640625 
Q 12.796875 0.140625 7.71875 1.703125 
L 7.71875 11.625 
Q 12.109375 9.234375 16.796875 8.0625 
Q 21.484375 6.890625 26.703125 6.890625 
Q 35.15625 6.890625 40.078125 11.328125 
Q 45.015625 15.765625 45.015625 23.390625 
Q 45.015625 31 40.078125 35.4375 
Q 35.15625 39.890625 26.703125 39.890625 
Q 22.75 39.890625 18.8125 39.015625 
Q 14.890625 38.140625 10.796875 36.28125 
z
" id="DejaVuSans-35"/>
      </defs>
      <g transform="translate(157.096875 259.251277)scale(0.1 -0.1)">
       <use xlink:href="#DejaVuSans-30"/>
       <use x="63.623047" xlink:href="#DejaVuSans-2e"/>
       <use x="95.410156" xlink:href="#DejaVuSans-35"/>
      </g>
     </g>
    </g>
    <g id="ytick_5">
     <g id="line2d_12">
      <g>
       <use style="stroke:#000000;stroke-width:0.8;" x="180" xlink:href="#mbf3a9349cb" y="171.883841"/>
      </g>
     </g>
     <g id="text_12">
      <!-- 0.6 -->
      <g transform="translate(157.096875 175.683059)scale(0.1 -0.1)">
       <use xlink:href="#DejaVuSans-30"/>
       <use x="63.623047" xlink:href="#DejaVuSans-2e"/>
       <use x="95.410156" xlink:href="#DejaVuSans-36"/>
      </g>
     </g>
    </g>
    <g id="ytick_6">
     <g id="line2d_13">
      <g>
       <use style="stroke:#000000;stroke-width:0.8;" x="180" xlink:href="#mbf3a9349cb" y="88.315623"/>
      </g>
     </g>
     <g id="text_13">
      <!-- 0.7 -->
      <defs>
       <path d="M 8.203125 72.90625 
L 55.078125 72.90625 
L 55.078125 68.703125 
L 28.609375 0 
L 18.3125 0 
L 43.21875 64.59375 
L 8.203125 64.59375 
z
" id="DejaVuSans-37"/>
      </defs>
      <g transform="translate(157.096875 92.114842)scale(0.1 -0.1)">
       <use xlink:href="#DejaVuSans-30"/>
       <use x="63.623047" xlink:href="#DejaVuSans-2e"/>
       <use x="95.410156" xlink:href="#DejaVuSans-37"/>
      </g>
     </g>
    </g>
   </g>
   <g id="line2d_14">
    <path clip-path="url(#p14f449e286)" d="M 230.727273 422.149761 
L 240.745173 422.285978 
L 250.603115 422.260072 
L 260.756598 422.237508 
L 270.887992 422.058672 
L 280.707849 421.841395 
L 291.359485 422.219123 
L 301.494687 422.25255 
L 311.346536 422.260072 
L 322.116236 422.191546 
L 332.176791 422.181517 
L 342.017214 422.257564 
L 352.839471 422.077893 
L 362.947252 422.272607 
L 372.803671 422.254222 
L 383.649541 422.201574 
L 393.824352 422.172325 
L 403.677724 422.245865 
L 414.383441 422.189874 
L 424.491221 422.260907 
L 434.337739 422.245029 
L 445.091442 422.225809 
L 455.1619 422.174832 
L 465.033553 422.250043 
L 475.913699 422.191546 
L 486.029097 422.176503 
L 496.173439 422.226644 
L 506.650646 422.254222 
L 516.740907 422.244194 
L 526.638458 422.256729 
L 537.370073 422.235837 
L 547.47176 422.247536 
L 557.351792 422.214109 
L 568.190806 422.195724 
L 578.330579 422.256729 
L 588.20604 422.236672 
L 598.883574 422.056165 
L 608.998972 422.188203 
L 618.938416 422.224137 
L 629.735537 422.14809 
L 639.962905 422.121348 
L 649.975473 422.238344 
L 660.655292 422.116334 
L 670.865141 422.134719 
L 680.803062 422.22163 
L 691.35263 421.979282 
L 701.551815 422.028588 
L 711.479072 422.22748 
L 722.122329 422.166475 
L 732.356553 422.144747 
L 742.286857 422.205752 
L 752.878318 292.758583 
L 763.074456 293.946087 
L 773.019995 294.738314 
L 783.802643 296.388786 
L 794.007922 297.676572 
L 803.98926 298.458771 
L 814.533496 300.076651 
L 824.791332 301.276691 
L 834.765815 302.127415 
L 845.233119 303.511305 
L 855.52904 304.73558 
L 865.476863 305.589647 
L 876.033286 307.118109 
L 886.310165 308.278872 
L 896.297597 309.21985 
L 906.893628 310.697336 
L 917.057775 311.844728 
L 927.004075 312.685424 
L 937.724264 314.391051 
L 947.822143 315.342893 
L 957.774536 316.257965 
L 968.558708 318.058861 
L 978.639829 278.469253 
L 988.610504 279.362597 
L 999.293369 240.494183 
L 1009.335644 200.962238 
L 1019.272042 201.789563 
L 1030.044788 163.064887 
L 1040.081731 164.015893 
L 1050.122482 124.464727 
L 1060.755075 126.072579 
L 1070.859047 106.837683 
L 1080.998058 107.361655 
L 1091.664927 89.28 
L 1101.805461 90.344659 
L 1111.798987 91.25806 
L 1122.388925 92.763123 
L 1132.433484 93.753407 
L 1142.433104 94.646751 
L 1153.138058 96.326472 
L 1163.149865 97.243215 
L 1173.117492 98.110654 
L 1184.915489 100.958658 
L 1194.608143 101.552828 
L 1204.424192 102.234745 
L 1214.563964 103.296897 
L 1224.585672 103.80917 
L 1234.496934 105.035952 
L 1245.272727 106.780021 
" style="fill:none;stroke:#ff0000;stroke-dasharray:5.55,2.4;stroke-dashoffset:0;stroke-width:1.5;"/>
    <defs>
     <path d="M -3 3 
L 3 3 
L 3 -3 
L -3 -3 
z
" id="mc5ea6af99c" style="stroke:#ff0000;stroke-linejoin:miter;"/>
    </defs>
    <g clip-path="url(#p14f449e286)">
     <use style="fill:#ff0000;stroke:#ff0000;stroke-linejoin:miter;" x="230.727273" xlink:href="#mc5ea6af99c" y="422.149761"/>
     <use style="fill:#ff0000;stroke:#ff0000;stroke-linejoin:miter;" x="240.745173" xlink:href="#mc5ea6af99c" y="422.285978"/>
     <use style="fill:#ff0000;stroke:#ff0000;stroke-linejoin:miter;" x="250.603115" xlink:href="#mc5ea6af99c" y="422.260072"/>
     <use style="fill:#ff0000;stroke:#ff0000;stroke-linejoin:miter;" x="260.756598" xlink:href="#mc5ea6af99c" y="422.237508"/>
     <use style="fill:#ff0000;stroke:#ff0000;stroke-linejoin:miter;" x="270.887992" xlink:href="#mc5ea6af99c" y="422.058672"/>
     <use style="fill:#ff0000;stroke:#ff0000;stroke-linejoin:miter;" x="280.707849" xlink:href="#mc5ea6af99c" y="421.841395"/>
     <use style="fill:#ff0000;stroke:#ff0000;stroke-linejoin:miter;" x="291.359485" xlink:href="#mc5ea6af99c" y="422.219123"/>
     <use style="fill:#ff0000;stroke:#ff0000;stroke-linejoin:miter;" x="301.494687" xlink:href="#mc5ea6af99c" y="422.25255"/>
     <use style="fill:#ff0000;stroke:#ff0000;stroke-linejoin:miter;" x="311.346536" xlink:href="#mc5ea6af99c" y="422.260072"/>
     <use style="fill:#ff0000;stroke:#ff0000;stroke-linejoin:miter;" x="322.116236" xlink:href="#mc5ea6af99c" y="422.191546"/>
     <use style="fill:#ff0000;stroke:#ff0000;stroke-linejoin:miter;" x="332.176791" xlink:href="#mc5ea6af99c" y="422.181517"/>
     <use style="fill:#ff0000;stroke:#ff0000;stroke-linejoin:miter;" x="342.017214" xlink:href="#mc5ea6af99c" y="422.257564"/>
     <use style="fill:#ff0000;stroke:#ff0000;stroke-linejoin:miter;" x="352.839471" xlink:href="#mc5ea6af99c" y="422.077893"/>
     <use style="fill:#ff0000;stroke:#ff0000;stroke-linejoin:miter;" x="362.947252" xlink:href="#mc5ea6af99c" y="422.272607"/>
     <use style="fill:#ff0000;stroke:#ff0000;stroke-linejoin:miter;" x="372.803671" xlink:href="#mc5ea6af99c" y="422.254222"/>
     <use style="fill:#ff0000;stroke:#ff0000;stroke-linejoin:miter;" x="383.649541" xlink:href="#mc5ea6af99c" y="422.201574"/>
     <use style="fill:#ff0000;stroke:#ff0000;stroke-linejoin:miter;" x="393.824352" xlink:href="#mc5ea6af99c" y="422.172325"/>
     <use style="fill:#ff0000;stroke:#ff0000;stroke-linejoin:miter;" x="403.677724" xlink:href="#mc5ea6af99c" y="422.245865"/>
     <use style="fill:#ff0000;stroke:#ff0000;stroke-linejoin:miter;" x="414.383441" xlink:href="#mc5ea6af99c" y="422.189874"/>
     <use style="fill:#ff0000;stroke:#ff0000;stroke-linejoin:miter;" x="424.491221" xlink:href="#mc5ea6af99c" y="422.260907"/>
     <use style="fill:#ff0000;stroke:#ff0000;stroke-linejoin:miter;" x="434.337739" xlink:href="#mc5ea6af99c" y="422.245029"/>
     <use style="fill:#ff0000;stroke:#ff0000;stroke-linejoin:miter;" x="445.091442" xlink:href="#mc5ea6af99c" y="422.225809"/>
     <use style="fill:#ff0000;stroke:#ff0000;stroke-linejoin:miter;" x="455.1619" xlink:href="#mc5ea6af99c" y="422.174832"/>
     <use style="fill:#ff0000;stroke:#ff0000;stroke-linejoin:miter;" x="465.033553" xlink:href="#mc5ea6af99c" y="422.250043"/>
     <use style="fill:#ff0000;stroke:#ff0000;stroke-linejoin:miter;" x="475.913699" xlink:href="#mc5ea6af99c" y="422.191546"/>
     <use style="fill:#ff0000;stroke:#ff0000;stroke-linejoin:miter;" x="486.029097" xlink:href="#mc5ea6af99c" y="422.176503"/>
     <use style="fill:#ff0000;stroke:#ff0000;stroke-linejoin:miter;" x="496.173439" xlink:href="#mc5ea6af99c" y="422.226644"/>
     <use style="fill:#ff0000;stroke:#ff0000;stroke-linejoin:miter;" x="506.650646" xlink:href="#mc5ea6af99c" y="422.254222"/>
     <use style="fill:#ff0000;stroke:#ff0000;stroke-linejoin:miter;" x="516.740907" xlink:href="#mc5ea6af99c" y="422.244194"/>
     <use style="fill:#ff0000;stroke:#ff0000;stroke-linejoin:miter;" x="526.638458" xlink:href="#mc5ea6af99c" y="422.256729"/>
     <use style="fill:#ff0000;stroke:#ff0000;stroke-linejoin:miter;" x="537.370073" xlink:href="#mc5ea6af99c" y="422.235837"/>
     <use style="fill:#ff0000;stroke:#ff0000;stroke-linejoin:miter;" x="547.47176" xlink:href="#mc5ea6af99c" y="422.247536"/>
     <use style="fill:#ff0000;stroke:#ff0000;stroke-linejoin:miter;" x="557.351792" xlink:href="#mc5ea6af99c" y="422.214109"/>
     <use style="fill:#ff0000;stroke:#ff0000;stroke-linejoin:miter;" x="568.190806" xlink:href="#mc5ea6af99c" y="422.195724"/>
     <use style="fill:#ff0000;stroke:#ff0000;stroke-linejoin:miter;" x="578.330579" xlink:href="#mc5ea6af99c" y="422.256729"/>
     <use style="fill:#ff0000;stroke:#ff0000;stroke-linejoin:miter;" x="588.20604" xlink:href="#mc5ea6af99c" y="422.236672"/>
     <use style="fill:#ff0000;stroke:#ff0000;stroke-linejoin:miter;" x="598.883574" xlink:href="#mc5ea6af99c" y="422.056165"/>
     <use style="fill:#ff0000;stroke:#ff0000;stroke-linejoin:miter;" x="608.998972" xlink:href="#mc5ea6af99c" y="422.188203"/>
     <use style="fill:#ff0000;stroke:#ff0000;stroke-linejoin:miter;" x="618.938416" xlink:href="#mc5ea6af99c" y="422.224137"/>
     <use style="fill:#ff0000;stroke:#ff0000;stroke-linejoin:miter;" x="629.735537" xlink:href="#mc5ea6af99c" y="422.14809"/>
     <use style="fill:#ff0000;stroke:#ff0000;stroke-linejoin:miter;" x="639.962905" xlink:href="#mc5ea6af99c" y="422.121348"/>
     <use style="fill:#ff0000;stroke:#ff0000;stroke-linejoin:miter;" x="649.975473" xlink:href="#mc5ea6af99c" y="422.238344"/>
     <use style="fill:#ff0000;stroke:#ff0000;stroke-linejoin:miter;" x="660.655292" xlink:href="#mc5ea6af99c" y="422.116334"/>
     <use style="fill:#ff0000;stroke:#ff0000;stroke-linejoin:miter;" x="670.865141" xlink:href="#mc5ea6af99c" y="422.134719"/>
     <use style="fill:#ff0000;stroke:#ff0000;stroke-linejoin:miter;" x="680.803062" xlink:href="#mc5ea6af99c" y="422.22163"/>
     <use style="fill:#ff0000;stroke:#ff0000;stroke-linejoin:miter;" x="691.35263" xlink:href="#mc5ea6af99c" y="421.979282"/>
     <use style="fill:#ff0000;stroke:#ff0000;stroke-linejoin:miter;" x="701.551815" xlink:href="#mc5ea6af99c" y="422.028588"/>
     <use style="fill:#ff0000;stroke:#ff0000;stroke-linejoin:miter;" x="711.479072" xlink:href="#mc5ea6af99c" y="422.22748"/>
     <use style="fill:#ff0000;stroke:#ff0000;stroke-linejoin:miter;" x="722.122329" xlink:href="#mc5ea6af99c" y="422.166475"/>
     <use style="fill:#ff0000;stroke:#ff0000;stroke-linejoin:miter;" x="732.356553" xlink:href="#mc5ea6af99c" y="422.144747"/>
     <use style="fill:#ff0000;stroke:#ff0000;stroke-linejoin:miter;" x="742.286857" xlink:href="#mc5ea6af99c" y="422.205752"/>
     <use style="fill:#ff0000;stroke:#ff0000;stroke-linejoin:miter;" x="752.878318" xlink:href="#mc5ea6af99c" y="292.758583"/>
     <use style="fill:#ff0000;stroke:#ff0000;stroke-linejoin:miter;" x="763.074456" xlink:href="#mc5ea6af99c" y="293.946087"/>
     <use style="fill:#ff0000;stroke:#ff0000;stroke-linejoin:miter;" x="773.019995" xlink:href="#mc5ea6af99c" y="294.738314"/>
     <use style="fill:#ff0000;stroke:#ff0000;stroke-linejoin:miter;" x="783.802643" xlink:href="#mc5ea6af99c" y="296.388786"/>
     <use style="fill:#ff0000;stroke:#ff0000;stroke-linejoin:miter;" x="794.007922" xlink:href="#mc5ea6af99c" y="297.676572"/>
     <use style="fill:#ff0000;stroke:#ff0000;stroke-linejoin:miter;" x="803.98926" xlink:href="#mc5ea6af99c" y="298.458771"/>
     <use style="fill:#ff0000;stroke:#ff0000;stroke-linejoin:miter;" x="814.533496" xlink:href="#mc5ea6af99c" y="300.076651"/>
     <use style="fill:#ff0000;stroke:#ff0000;stroke-linejoin:miter;" x="824.791332" xlink:href="#mc5ea6af99c" y="301.276691"/>
     <use style="fill:#ff0000;stroke:#ff0000;stroke-linejoin:miter;" x="834.765815" xlink:href="#mc5ea6af99c" y="302.127415"/>
     <use style="fill:#ff0000;stroke:#ff0000;stroke-linejoin:miter;" x="845.233119" xlink:href="#mc5ea6af99c" y="303.511305"/>
     <use style="fill:#ff0000;stroke:#ff0000;stroke-linejoin:miter;" x="855.52904" xlink:href="#mc5ea6af99c" y="304.73558"/>
     <use style="fill:#ff0000;stroke:#ff0000;stroke-linejoin:miter;" x="865.476863" xlink:href="#mc5ea6af99c" y="305.589647"/>
     <use style="fill:#ff0000;stroke:#ff0000;stroke-linejoin:miter;" x="876.033286" xlink:href="#mc5ea6af99c" y="307.118109"/>
     <use style="fill:#ff0000;stroke:#ff0000;stroke-linejoin:miter;" x="886.310165" xlink:href="#mc5ea6af99c" y="308.278872"/>
     <use style="fill:#ff0000;stroke:#ff0000;stroke-linejoin:miter;" x="896.297597" xlink:href="#mc5ea6af99c" y="309.21985"/>
     <use style="fill:#ff0000;stroke:#ff0000;stroke-linejoin:miter;" x="906.893628" xlink:href="#mc5ea6af99c" y="310.697336"/>
     <use style="fill:#ff0000;stroke:#ff0000;stroke-linejoin:miter;" x="917.057775" xlink:href="#mc5ea6af99c" y="311.844728"/>
     <use style="fill:#ff0000;stroke:#ff0000;stroke-linejoin:miter;" x="927.004075" xlink:href="#mc5ea6af99c" y="312.685424"/>
     <use style="fill:#ff0000;stroke:#ff0000;stroke-linejoin:miter;" x="937.724264" xlink:href="#mc5ea6af99c" y="314.391051"/>
     <use style="fill:#ff0000;stroke:#ff0000;stroke-linejoin:miter;" x="947.822143" xlink:href="#mc5ea6af99c" y="315.342893"/>
     <use style="fill:#ff0000;stroke:#ff0000;stroke-linejoin:miter;" x="957.774536" xlink:href="#mc5ea6af99c" y="316.257965"/>
     <use style="fill:#ff0000;stroke:#ff0000;stroke-linejoin:miter;" x="968.558708" xlink:href="#mc5ea6af99c" y="318.058861"/>
     <use style="fill:#ff0000;stroke:#ff0000;stroke-linejoin:miter;" x="978.639829" xlink:href="#mc5ea6af99c" y="278.469253"/>
     <use style="fill:#ff0000;stroke:#ff0000;stroke-linejoin:miter;" x="988.610504" xlink:href="#mc5ea6af99c" y="279.362597"/>
     <use style="fill:#ff0000;stroke:#ff0000;stroke-linejoin:miter;" x="999.293369" xlink:href="#mc5ea6af99c" y="240.494183"/>
     <use style="fill:#ff0000;stroke:#ff0000;stroke-linejoin:miter;" x="1009.335644" xlink:href="#mc5ea6af99c" y="200.962238"/>
     <use style="fill:#ff0000;stroke:#ff0000;stroke-linejoin:miter;" x="1019.272042" xlink:href="#mc5ea6af99c" y="201.789563"/>
     <use style="fill:#ff0000;stroke:#ff0000;stroke-linejoin:miter;" x="1030.044788" xlink:href="#mc5ea6af99c" y="163.064887"/>
     <use style="fill:#ff0000;stroke:#ff0000;stroke-linejoin:miter;" x="1040.081731" xlink:href="#mc5ea6af99c" y="164.015893"/>
     <use style="fill:#ff0000;stroke:#ff0000;stroke-linejoin:miter;" x="1050.122482" xlink:href="#mc5ea6af99c" y="124.464727"/>
     <use style="fill:#ff0000;stroke:#ff0000;stroke-linejoin:miter;" x="1060.755075" xlink:href="#mc5ea6af99c" y="126.072579"/>
     <use style="fill:#ff0000;stroke:#ff0000;stroke-linejoin:miter;" x="1070.859047" xlink:href="#mc5ea6af99c" y="106.837683"/>
     <use style="fill:#ff0000;stroke:#ff0000;stroke-linejoin:miter;" x="1080.998058" xlink:href="#mc5ea6af99c" y="107.361655"/>
     <use style="fill:#ff0000;stroke:#ff0000;stroke-linejoin:miter;" x="1091.664927" xlink:href="#mc5ea6af99c" y="89.28"/>
     <use style="fill:#ff0000;stroke:#ff0000;stroke-linejoin:miter;" x="1101.805461" xlink:href="#mc5ea6af99c" y="90.344659"/>
     <use style="fill:#ff0000;stroke:#ff0000;stroke-linejoin:miter;" x="1111.798987" xlink:href="#mc5ea6af99c" y="91.25806"/>
     <use style="fill:#ff0000;stroke:#ff0000;stroke-linejoin:miter;" x="1122.388925" xlink:href="#mc5ea6af99c" y="92.763123"/>
     <use style="fill:#ff0000;stroke:#ff0000;stroke-linejoin:miter;" x="1132.433484" xlink:href="#mc5ea6af99c" y="93.753407"/>
     <use style="fill:#ff0000;stroke:#ff0000;stroke-linejoin:miter;" x="1142.433104" xlink:href="#mc5ea6af99c" y="94.646751"/>
     <use style="fill:#ff0000;stroke:#ff0000;stroke-linejoin:miter;" x="1153.138058" xlink:href="#mc5ea6af99c" y="96.326472"/>
     <use style="fill:#ff0000;stroke:#ff0000;stroke-linejoin:miter;" x="1163.149865" xlink:href="#mc5ea6af99c" y="97.243215"/>
     <use style="fill:#ff0000;stroke:#ff0000;stroke-linejoin:miter;" x="1173.117492" xlink:href="#mc5ea6af99c" y="98.110654"/>
     <use style="fill:#ff0000;stroke:#ff0000;stroke-linejoin:miter;" x="1184.915489" xlink:href="#mc5ea6af99c" y="100.958658"/>
     <use style="fill:#ff0000;stroke:#ff0000;stroke-linejoin:miter;" x="1194.608143" xlink:href="#mc5ea6af99c" y="101.552828"/>
     <use style="fill:#ff0000;stroke:#ff0000;stroke-linejoin:miter;" x="1204.424192" xlink:href="#mc5ea6af99c" y="102.234745"/>
     <use style="fill:#ff0000;stroke:#ff0000;stroke-linejoin:miter;" x="1214.563964" xlink:href="#mc5ea6af99c" y="103.296897"/>
     <use style="fill:#ff0000;stroke:#ff0000;stroke-linejoin:miter;" x="1224.585672" xlink:href="#mc5ea6af99c" y="103.80917"/>
     <use style="fill:#ff0000;stroke:#ff0000;stroke-linejoin:miter;" x="1234.496934" xlink:href="#mc5ea6af99c" y="105.035952"/>
     <use style="fill:#ff0000;stroke:#ff0000;stroke-linejoin:miter;" x="1245.272727" xlink:href="#mc5ea6af99c" y="106.780021"/>
    </g>
   </g>
   <g id="line2d_15">
    <path clip-path="url(#p14f449e286)" d="M 230.727273 422.149761 
L 240.745173 422.285978 
L 250.603115 422.260072 
L 260.756598 422.237508 
L 270.887992 422.058672 
L 280.707849 421.841395 
L 291.359485 422.219123 
L 301.494687 422.25255 
L 311.346536 422.260072 
L 322.116236 422.191546 
L 332.176791 422.181517 
L 342.017214 422.257564 
L 352.839471 422.077893 
L 362.947252 422.272607 
L 372.803671 422.254222 
L 383.649541 422.201574 
L 393.824352 422.172325 
L 403.677724 422.245865 
L 414.383441 422.189874 
L 424.491221 422.260907 
L 434.337739 422.245029 
L 445.091442 422.225809 
L 455.1619 422.174832 
L 465.033553 422.250043 
L 475.913699 422.191546 
L 486.029097 422.176503 
L 496.173439 422.226644 
L 506.650646 422.254222 
L 516.740907 422.244194 
L 526.638458 422.256729 
L 537.370073 422.235837 
L 547.47176 422.247536 
L 557.351792 422.214109 
L 568.190806 422.195724 
L 578.330579 422.256729 
L 588.20604 422.236672 
L 598.883574 422.056165 
L 608.998972 422.188203 
L 618.938416 422.224137 
L 629.735537 422.14809 
L 639.962905 422.121348 
L 649.975473 422.238344 
L 660.655292 422.116334 
L 670.865141 422.134719 
L 680.803062 422.22163 
L 691.35263 421.979282 
L 701.551815 422.028588 
L 711.479072 422.22748 
L 722.122329 422.166475 
L 732.356553 422.144747 
L 742.286857 422.205752 
L 978.639829 278.469253 
L 988.610504 279.362597 
L 999.293369 240.494183 
L 1009.335644 200.962238 
L 1019.272042 201.789563 
L 1030.044788 163.064887 
L 1040.081731 164.015893 
L 1050.122482 124.464727 
L 1060.755075 126.072579 
L 1070.859047 106.837683 
L 1080.998058 107.361655 
L 1245.272727 106.780021 
" style="fill:none;stroke:#800080;stroke-dasharray:9.6,2.4,1.5,2.4;stroke-dashoffset:0;stroke-width:1.5;"/>
    <defs>
     <path d="M -3 3 
L 3 -3 
M -3 -3 
L 3 3 
" id="m0067b0de70" style="stroke:#800080;"/>
    </defs>
    <g clip-path="url(#p14f449e286)">
     <use style="fill:#800080;stroke:#800080;" x="230.727273" xlink:href="#m0067b0de70" y="422.149761"/>
     <use style="fill:#800080;stroke:#800080;" x="240.745173" xlink:href="#m0067b0de70" y="422.285978"/>
     <use style="fill:#800080;stroke:#800080;" x="250.603115" xlink:href="#m0067b0de70" y="422.260072"/>
     <use style="fill:#800080;stroke:#800080;" x="260.756598" xlink:href="#m0067b0de70" y="422.237508"/>
     <use style="fill:#800080;stroke:#800080;" x="270.887992" xlink:href="#m0067b0de70" y="422.058672"/>
     <use style="fill:#800080;stroke:#800080;" x="280.707849" xlink:href="#m0067b0de70" y="421.841395"/>
     <use style="fill:#800080;stroke:#800080;" x="291.359485" xlink:href="#m0067b0de70" y="422.219123"/>
     <use style="fill:#800080;stroke:#800080;" x="301.494687" xlink:href="#m0067b0de70" y="422.25255"/>
     <use style="fill:#800080;stroke:#800080;" x="311.346536" xlink:href="#m0067b0de70" y="422.260072"/>
     <use style="fill:#800080;stroke:#800080;" x="322.116236" xlink:href="#m0067b0de70" y="422.191546"/>
     <use style="fill:#800080;stroke:#800080;" x="332.176791" xlink:href="#m0067b0de70" y="422.181517"/>
     <use style="fill:#800080;stroke:#800080;" x="342.017214" xlink:href="#m0067b0de70" y="422.257564"/>
     <use style="fill:#800080;stroke:#800080;" x="352.839471" xlink:href="#m0067b0de70" y="422.077893"/>
     <use style="fill:#800080;stroke:#800080;" x="362.947252" xlink:href="#m0067b0de70" y="422.272607"/>
     <use style="fill:#800080;stroke:#800080;" x="372.803671" xlink:href="#m0067b0de70" y="422.254222"/>
     <use style="fill:#800080;stroke:#800080;" x="383.649541" xlink:href="#m0067b0de70" y="422.201574"/>
     <use style="fill:#800080;stroke:#800080;" x="393.824352" xlink:href="#m0067b0de70" y="422.172325"/>
     <use style="fill:#800080;stroke:#800080;" x="403.677724" xlink:href="#m0067b0de70" y="422.245865"/>
     <use style="fill:#800080;stroke:#800080;" x="414.383441" xlink:href="#m0067b0de70" y="422.189874"/>
     <use style="fill:#800080;stroke:#800080;" x="424.491221" xlink:href="#m0067b0de70" y="422.260907"/>
     <use style="fill:#800080;stroke:#800080;" x="434.337739" xlink:href="#m0067b0de70" y="422.245029"/>
     <use style="fill:#800080;stroke:#800080;" x="445.091442" xlink:href="#m0067b0de70" y="422.225809"/>
     <use style="fill:#800080;stroke:#800080;" x="455.1619" xlink:href="#m0067b0de70" y="422.174832"/>
     <use style="fill:#800080;stroke:#800080;" x="465.033553" xlink:href="#m0067b0de70" y="422.250043"/>
     <use style="fill:#800080;stroke:#800080;" x="475.913699" xlink:href="#m0067b0de70" y="422.191546"/>
     <use style="fill:#800080;stroke:#800080;" x="486.029097" xlink:href="#m0067b0de70" y="422.176503"/>
     <use style="fill:#800080;stroke:#800080;" x="496.173439" xlink:href="#m0067b0de70" y="422.226644"/>
     <use style="fill:#800080;stroke:#800080;" x="506.650646" xlink:href="#m0067b0de70" y="422.254222"/>
     <use style="fill:#800080;stroke:#800080;" x="516.740907" xlink:href="#m0067b0de70" y="422.244194"/>
     <use style="fill:#800080;stroke:#800080;" x="526.638458" xlink:href="#m0067b0de70" y="422.256729"/>
     <use style="fill:#800080;stroke:#800080;" x="537.370073" xlink:href="#m0067b0de70" y="422.235837"/>
     <use style="fill:#800080;stroke:#800080;" x="547.47176" xlink:href="#m0067b0de70" y="422.247536"/>
     <use style="fill:#800080;stroke:#800080;" x="557.351792" xlink:href="#m0067b0de70" y="422.214109"/>
     <use style="fill:#800080;stroke:#800080;" x="568.190806" xlink:href="#m0067b0de70" y="422.195724"/>
     <use style="fill:#800080;stroke:#800080;" x="578.330579" xlink:href="#m0067b0de70" y="422.256729"/>
     <use style="fill:#800080;stroke:#800080;" x="588.20604" xlink:href="#m0067b0de70" y="422.236672"/>
     <use style="fill:#800080;stroke:#800080;" x="598.883574" xlink:href="#m0067b0de70" y="422.056165"/>
     <use style="fill:#800080;stroke:#800080;" x="608.998972" xlink:href="#m0067b0de70" y="422.188203"/>
     <use style="fill:#800080;stroke:#800080;" x="618.938416" xlink:href="#m0067b0de70" y="422.224137"/>
     <use style="fill:#800080;stroke:#800080;" x="629.735537" xlink:href="#m0067b0de70" y="422.14809"/>
     <use style="fill:#800080;stroke:#800080;" x="639.962905" xlink:href="#m0067b0de70" y="422.121348"/>
     <use style="fill:#800080;stroke:#800080;" x="649.975473" xlink:href="#m0067b0de70" y="422.238344"/>
     <use style="fill:#800080;stroke:#800080;" x="660.655292" xlink:href="#m0067b0de70" y="422.116334"/>
     <use style="fill:#800080;stroke:#800080;" x="670.865141" xlink:href="#m0067b0de70" y="422.134719"/>
     <use style="fill:#800080;stroke:#800080;" x="680.803062" xlink:href="#m0067b0de70" y="422.22163"/>
     <use style="fill:#800080;stroke:#800080;" x="691.35263" xlink:href="#m0067b0de70" y="421.979282"/>
     <use style="fill:#800080;stroke:#800080;" x="701.551815" xlink:href="#m0067b0de70" y="422.028588"/>
     <use style="fill:#800080;stroke:#800080;" x="711.479072" xlink:href="#m0067b0de70" y="422.22748"/>
     <use style="fill:#800080;stroke:#800080;" x="722.122329" xlink:href="#m0067b0de70" y="422.166475"/>
     <use style="fill:#800080;stroke:#800080;" x="732.356553" xlink:href="#m0067b0de70" y="422.144747"/>
     <use style="fill:#800080;stroke:#800080;" x="742.286857" xlink:href="#m0067b0de70" y="422.205752"/>
     <use style="fill:#800080;stroke:#800080;" x="978.639829" xlink:href="#m0067b0de70" y="278.469253"/>
     <use style="fill:#800080;stroke:#800080;" x="988.610504" xlink:href="#m0067b0de70" y="279.362597"/>
     <use style="fill:#800080;stroke:#800080;" x="999.293369" xlink:href="#m0067b0de70" y="240.494183"/>
     <use style="fill:#800080;stroke:#800080;" x="1009.335644" xlink:href="#m0067b0de70" y="200.962238"/>
     <use style="fill:#800080;stroke:#800080;" x="1019.272042" xlink:href="#m0067b0de70" y="201.789563"/>
     <use style="fill:#800080;stroke:#800080;" x="1030.044788" xlink:href="#m0067b0de70" y="163.064887"/>
     <use style="fill:#800080;stroke:#800080;" x="1040.081731" xlink:href="#m0067b0de70" y="164.015893"/>
     <use style="fill:#800080;stroke:#800080;" x="1050.122482" xlink:href="#m0067b0de70" y="124.464727"/>
     <use style="fill:#800080;stroke:#800080;" x="1060.755075" xlink:href="#m0067b0de70" y="126.072579"/>
     <use style="fill:#800080;stroke:#800080;" x="1070.859047" xlink:href="#m0067b0de70" y="106.837683"/>
     <use style="fill:#800080;stroke:#800080;" x="1080.998058" xlink:href="#m0067b0de70" y="107.361655"/>
     <use style="fill:#800080;stroke:#800080;" x="1245.272727" xlink:href="#m0067b0de70" y="106.780021"/>
    </g>
   </g>
   <g id="line2d_16">
    <path clip-path="url(#p14f449e286)" d="M 230.727273 492.34169 
L 240.745173 489.100005 
L 250.603115 485.91008 
L 260.756598 482.624521 
L 270.887992 479.346111 
L 280.707849 476.16851 
L 291.359485 472.721754 
L 301.494687 469.442111 
L 311.346536 466.254158 
L 322.116236 462.769199 
L 332.176791 459.513711 
L 342.017214 456.329455 
L 352.839471 452.827488 
L 362.947252 449.556718 
L 372.803671 446.367287 
L 383.649541 442.857679 
L 393.824352 439.565219 
L 403.677724 436.376773 
L 414.383441 432.912518 
L 424.491221 429.641748 
L 434.337739 426.45552 
L 445.091442 422.975737 
L 455.1619 419.717045 
L 465.033553 416.522683 
L 475.913699 413.001984 
L 486.029097 409.72875 
L 496.173439 406.446149 
L 506.650646 403.055837 
L 516.740907 399.790736 
L 526.638458 396.587995 
L 537.370073 393.115359 
L 547.47176 389.846561 
L 557.351792 386.649488 
L 568.190806 383.142099 
L 578.330579 379.860977 
L 588.20604 376.665383 
L 598.883574 373.210248 
L 608.998972 369.937013 
L 618.938416 366.720715 
L 629.735537 363.226882 
L 639.962905 359.917415 
L 649.975473 356.677455 
L 660.655292 353.22158 
L 670.865141 349.917782 
L 680.803062 346.701977 
L 691.35263 343.28825 
L 701.551815 339.987903 
L 711.479072 336.775548 
L 722.122329 333.331504 
L 732.356553 330.019819 
L 742.286857 326.806479 
L 978.639829 250.325184 
L 988.610504 247.098781 
L 999.293369 243.64192 
L 1009.335644 240.392347 
L 1019.272042 237.177035 
L 1030.044788 233.691089 
L 1040.081731 230.443242 
L 1050.122482 227.194162 
L 1060.755075 223.753569 
L 1070.859047 220.484032 
L 1080.998058 217.203156 
L 1245.272727 164.04563 
" style="fill:none;stroke:#0000ff;stroke-linecap:square;stroke-width:1.5;"/>
   </g>
   <g id="line2d_17">
    <path clip-path="url(#p14f449e286)" d="M 230.727273 492.48 
L 240.745173 489.196805 
L 250.603115 485.966032 
L 260.756598 482.638402 
L 270.887992 479.318011 
L 280.707849 476.099721 
L 291.359485 472.608829 
L 301.494687 469.28719 
L 311.346536 466.058415 
L 322.116236 462.52883 
L 332.176791 459.231655 
L 342.017214 456.006624 
L 352.839471 452.459815 
L 362.947252 449.147162 
L 372.803671 445.916889 
L 383.649541 442.362341 
L 393.824352 439.027721 
L 403.677724 435.798446 
L 414.383441 432.289831 
L 424.491221 428.977179 
L 434.337739 425.750151 
L 445.091442 422.225808 
L 455.1619 418.925388 
L 465.033553 415.690123 
L 475.913699 412.124341 
L 486.029097 408.809192 
L 496.173439 405.484557 
L 506.650646 402.050832 
L 516.740907 398.743921 
L 526.638458 395.500168 
L 537.370073 391.983065 
L 547.47176 388.67241 
L 557.351792 385.434398 
L 568.190806 381.882096 
L 578.330579 378.558959 
L 588.20604 375.322446 
L 598.883574 371.823067 
L 608.998972 368.507918 
L 618.938416 365.250435 
L 629.735537 361.711863 
L 639.962905 358.360018 
L 649.975473 355.07857 
L 660.655292 351.578442 
L 670.865141 348.232339 
L 680.803062 344.975355 
L 691.35263 341.517914 
L 701.551815 338.175306 
L 711.479072 334.921817 
L 722.122329 331.433672 
L 732.356553 328.07958 
L 742.286857 324.825092 
L 978.639829 247.364447 
L 988.610504 244.096728 
L 999.293369 240.595602 
L 1009.335644 237.304418 
L 1019.272042 234.047934 
L 1030.044788 230.51735 
L 1040.081731 227.227914 
L 1050.122482 223.937229 
L 1060.755075 220.452579 
L 1070.859047 217.141175 
L 1080.998058 213.818287 
L 1245.272727 159.980073 
" style="fill:none;stroke:#008000;stroke-linecap:square;stroke-width:1.5;"/>
    <defs>
     <path d="M 0 3 
C 0.795609 3 1.55874 2.683901 2.12132 2.12132 
C 2.683901 1.55874 3 0.795609 3 0 
C 3 -0.795609 2.683901 -1.55874 2.12132 -2.12132 
C 1.55874 -2.683901 0.795609 -3 0 -3 
C -0.795609 -3 -1.55874 -2.683901 -2.12132 -2.12132 
C -2.683901 -1.55874 -3 -0.795609 -3 0 
C -3 0.795609 -2.683901 1.55874 -2.12132 2.12132 
C -1.55874 2.683901 -0.795609 3 0 3 
z
" id="ma60dc267d3" style="stroke:#008000;"/>
    </defs>
    <g clip-path="url(#p14f449e286)">
     <use style="fill:#008000;stroke:#008000;" x="230.727273" xlink:href="#ma60dc267d3" y="492.48"/>
     <use style="fill:#008000;stroke:#008000;" x="240.745173" xlink:href="#ma60dc267d3" y="489.196805"/>
     <use style="fill:#008000;stroke:#008000;" x="250.603115" xlink:href="#ma60dc267d3" y="485.966032"/>
     <use style="fill:#008000;stroke:#008000;" x="260.756598" xlink:href="#ma60dc267d3" y="482.638402"/>
     <use style="fill:#008000;stroke:#008000;" x="270.887992" xlink:href="#ma60dc267d3" y="479.318011"/>
     <use style="fill:#008000;stroke:#008000;" x="280.707849" xlink:href="#ma60dc267d3" y="476.099721"/>
     <use style="fill:#008000;stroke:#008000;" x="291.359485" xlink:href="#ma60dc267d3" y="472.608829"/>
     <use style="fill:#008000;stroke:#008000;" x="301.494687" xlink:href="#ma60dc267d3" y="469.28719"/>
     <use style="fill:#008000;stroke:#008000;" x="311.346536" xlink:href="#ma60dc267d3" y="466.058415"/>
     <use style="fill:#008000;stroke:#008000;" x="322.116236" xlink:href="#ma60dc267d3" y="462.52883"/>
     <use style="fill:#008000;stroke:#008000;" x="332.176791" xlink:href="#ma60dc267d3" y="459.231655"/>
     <use style="fill:#008000;stroke:#008000;" x="342.017214" xlink:href="#ma60dc267d3" y="456.006624"/>
     <use style="fill:#008000;stroke:#008000;" x="352.839471" xlink:href="#ma60dc267d3" y="452.459815"/>
     <use style="fill:#008000;stroke:#008000;" x="362.947252" xlink:href="#ma60dc267d3" y="449.147162"/>
     <use style="fill:#008000;stroke:#008000;" x="372.803671" xlink:href="#ma60dc267d3" y="445.916889"/>
     <use style="fill:#008000;stroke:#008000;" x="383.649541" xlink:href="#ma60dc267d3" y="442.362341"/>
     <use style="fill:#008000;stroke:#008000;" x="393.824352" xlink:href="#ma60dc267d3" y="439.027721"/>
     <use style="fill:#008000;stroke:#008000;" x="403.677724" xlink:href="#ma60dc267d3" y="435.798446"/>
     <use style="fill:#008000;stroke:#008000;" x="414.383441" xlink:href="#ma60dc267d3" y="432.289831"/>
     <use style="fill:#008000;stroke:#008000;" x="424.491221" xlink:href="#ma60dc267d3" y="428.977179"/>
     <use style="fill:#008000;stroke:#008000;" x="434.337739" xlink:href="#ma60dc267d3" y="425.750151"/>
     <use style="fill:#008000;stroke:#008000;" x="445.091442" xlink:href="#ma60dc267d3" y="422.225808"/>
     <use style="fill:#008000;stroke:#008000;" x="455.1619" xlink:href="#ma60dc267d3" y="418.925388"/>
     <use style="fill:#008000;stroke:#008000;" x="465.033553" xlink:href="#ma60dc267d3" y="415.690123"/>
     <use style="fill:#008000;stroke:#008000;" x="475.913699" xlink:href="#ma60dc267d3" y="412.124341"/>
     <use style="fill:#008000;stroke:#008000;" x="486.029097" xlink:href="#ma60dc267d3" y="408.809192"/>
     <use style="fill:#008000;stroke:#008000;" x="496.173439" xlink:href="#ma60dc267d3" y="405.484557"/>
     <use style="fill:#008000;stroke:#008000;" x="506.650646" xlink:href="#ma60dc267d3" y="402.050832"/>
     <use style="fill:#008000;stroke:#008000;" x="516.740907" xlink:href="#ma60dc267d3" y="398.743921"/>
     <use style="fill:#008000;stroke:#008000;" x="526.638458" xlink:href="#ma60dc267d3" y="395.500168"/>
     <use style="fill:#008000;stroke:#008000;" x="537.370073" xlink:href="#ma60dc267d3" y="391.983065"/>
     <use style="fill:#008000;stroke:#008000;" x="547.47176" xlink:href="#ma60dc267d3" y="388.67241"/>
     <use style="fill:#008000;stroke:#008000;" x="557.351792" xlink:href="#ma60dc267d3" y="385.434398"/>
     <use style="fill:#008000;stroke:#008000;" x="568.190806" xlink:href="#ma60dc267d3" y="381.882096"/>
     <use style="fill:#008000;stroke:#008000;" x="578.330579" xlink:href="#ma60dc267d3" y="378.558959"/>
     <use style="fill:#008000;stroke:#008000;" x="588.20604" xlink:href="#ma60dc267d3" y="375.322446"/>
     <use style="fill:#008000;stroke:#008000;" x="598.883574" xlink:href="#ma60dc267d3" y="371.823067"/>
     <use style="fill:#008000;stroke:#008000;" x="608.998972" xlink:href="#ma60dc267d3" y="368.507918"/>
     <use style="fill:#008000;stroke:#008000;" x="618.938416" xlink:href="#ma60dc267d3" y="365.250435"/>
     <use style="fill:#008000;stroke:#008000;" x="629.735537" xlink:href="#ma60dc267d3" y="361.711863"/>
     <use style="fill:#008000;stroke:#008000;" x="639.962905" xlink:href="#ma60dc267d3" y="358.360018"/>
     <use style="fill:#008000;stroke:#008000;" x="649.975473" xlink:href="#ma60dc267d3" y="355.07857"/>
     <use style="fill:#008000;stroke:#008000;" x="660.655292" xlink:href="#ma60dc267d3" y="351.578442"/>
     <use style="fill:#008000;stroke:#008000;" x="670.865141" xlink:href="#ma60dc267d3" y="348.232339"/>
     <use style="fill:#008000;stroke:#008000;" x="680.803062" xlink:href="#ma60dc267d3" y="344.975355"/>
     <use style="fill:#008000;stroke:#008000;" x="691.35263" xlink:href="#ma60dc267d3" y="341.517914"/>
     <use style="fill:#008000;stroke:#008000;" x="701.551815" xlink:href="#ma60dc267d3" y="338.175306"/>
     <use style="fill:#008000;stroke:#008000;" x="711.479072" xlink:href="#ma60dc267d3" y="334.921817"/>
     <use style="fill:#008000;stroke:#008000;" x="722.122329" xlink:href="#ma60dc267d3" y="331.433672"/>
     <use style="fill:#008000;stroke:#008000;" x="732.356553" xlink:href="#ma60dc267d3" y="328.07958"/>
     <use style="fill:#008000;stroke:#008000;" x="742.286857" xlink:href="#ma60dc267d3" y="324.825092"/>
     <use style="fill:#008000;stroke:#008000;" x="978.639829" xlink:href="#ma60dc267d3" y="247.364447"/>
     <use style="fill:#008000;stroke:#008000;" x="988.610504" xlink:href="#ma60dc267d3" y="244.096728"/>
     <use style="fill:#008000;stroke:#008000;" x="999.293369" xlink:href="#ma60dc267d3" y="240.595602"/>
     <use style="fill:#008000;stroke:#008000;" x="1009.335644" xlink:href="#ma60dc267d3" y="237.304418"/>
     <use style="fill:#008000;stroke:#008000;" x="1019.272042" xlink:href="#ma60dc267d3" y="234.047934"/>
     <use style="fill:#008000;stroke:#008000;" x="1030.044788" xlink:href="#ma60dc267d3" y="230.51735"/>
     <use style="fill:#008000;stroke:#008000;" x="1040.081731" xlink:href="#ma60dc267d3" y="227.227914"/>
     <use style="fill:#008000;stroke:#008000;" x="1050.122482" xlink:href="#ma60dc267d3" y="223.937229"/>
     <use style="fill:#008000;stroke:#008000;" x="1060.755075" xlink:href="#ma60dc267d3" y="220.452579"/>
     <use style="fill:#008000;stroke:#008000;" x="1070.859047" xlink:href="#ma60dc267d3" y="217.141175"/>
     <use style="fill:#008000;stroke:#008000;" x="1080.998058" xlink:href="#ma60dc267d3" y="213.818287"/>
     <use style="fill:#008000;stroke:#008000;" x="1245.272727" xlink:href="#ma60dc267d3" y="159.980073"/>
    </g>
   </g>
   <g id="patch_3">
    <path d="M 180 512.64 
L 180 69.12 
" style="fill:none;stroke:#000000;stroke-linecap:square;stroke-linejoin:miter;stroke-width:0.8;"/>
   </g>
   <g id="patch_4">
    <path d="M 1296 512.64 
L 1296 69.12 
" style="fill:none;stroke:#000000;stroke-linecap:square;stroke-linejoin:miter;stroke-width:0.8;"/>
   </g>
   <g id="patch_5">
    <path d="M 180 512.64 
L 1296 512.64 
" style="fill:none;stroke:#000000;stroke-linecap:square;stroke-linejoin:miter;stroke-width:0.8;"/>
   </g>
   <g id="patch_6">
    <path d="M 180 69.12 
L 1296 69.12 
" style="fill:none;stroke:#000000;stroke-linecap:square;stroke-linejoin:miter;stroke-width:0.8;"/>
   </g>
   <g id="text_14">
    <!-- 500000.0 bit/s -->
    <defs>
     <path id="DejaVuSans-20"/>
     <path d="M 48.6875 27.296875 
Q 48.6875 37.203125 44.609375 42.84375 
Q 40.53125 48.484375 33.40625 48.484375 
Q 26.265625 48.484375 22.1875 42.84375 
Q 18.109375 37.203125 18.109375 27.296875 
Q 18.109375 17.390625 22.1875 11.75 
Q 26.265625 6.109375 33.40625 6.109375 
Q 40.53125 6.109375 44.609375 11.75 
Q 48.6875 17.390625 48.6875 27.296875 
z
M 18.109375 46.390625 
Q 20.953125 51.265625 25.265625 53.625 
Q 29.59375 56 35.59375 56 
Q 45.5625 56 51.78125 48.09375 
Q 58.015625 40.1875 58.015625 27.296875 
Q 58.015625 14.40625 51.78125 6.484375 
Q 45.5625 -1.421875 35.59375 -1.421875 
Q 29.59375 -1.421875 25.265625 0.953125 
Q 20.953125 3.328125 18.109375 8.203125 
L 18.109375 0 
L 9.078125 0 
L 9.078125 75.984375 
L 18.109375 75.984375 
z
" id="DejaVuSans-62"/>
     <path d="M 9.421875 54.6875 
L 18.40625 54.6875 
L 18.40625 0 
L 9.421875 0 
z
M 9.421875 75.984375 
L 18.40625 75.984375 
L 18.40625 64.59375 
L 9.421875 64.59375 
z
" id="DejaVuSans-69"/>
     <path d="M 18.3125 70.21875 
L 18.3125 54.6875 
L 36.8125 54.6875 
L 36.8125 47.703125 
L 18.3125 47.703125 
L 18.3125 18.015625 
Q 18.3125 11.328125 20.140625 9.421875 
Q 21.96875 7.515625 27.59375 7.515625 
L 36.8125 7.515625 
L 36.8125 0 
L 27.59375 0 
Q 17.1875 0 13.234375 3.875 
Q 9.28125 7.765625 9.28125 18.015625 
L 9.28125 47.703125 
L 2.6875 47.703125 
L 2.6875 54.6875 
L 9.28125 54.6875 
L 9.28125 70.21875 
z
" id="DejaVuSans-74"/>
     <path d="M 25.390625 72.90625 
L 33.6875 72.90625 
L 8.296875 -9.28125 
L 0 -9.28125 
z
" id="DejaVuSans-2f"/>
     <path d="M 44.28125 53.078125 
L 44.28125 44.578125 
Q 40.484375 46.53125 36.375 47.5 
Q 32.28125 48.484375 27.875 48.484375 
Q 21.1875 48.484375 17.84375 46.4375 
Q 14.5 44.390625 14.5 40.28125 
Q 14.5 37.15625 16.890625 35.375 
Q 19.28125 33.59375 26.515625 31.984375 
L 29.59375 31.296875 
Q 39.15625 29.25 43.1875 25.515625 
Q 47.21875 21.78125 47.21875 15.09375 
Q 47.21875 7.46875 41.1875 3.015625 
Q 35.15625 -1.421875 24.609375 -1.421875 
Q 20.21875 -1.421875 15.453125 -0.5625 
Q 10.6875 0.296875 5.421875 2 
L 5.421875 11.28125 
Q 10.40625 8.6875 15.234375 7.390625 
Q 20.0625 6.109375 24.8125 6.109375 
Q 31.15625 6.109375 34.5625 8.28125 
Q 37.984375 10.453125 37.984375 14.40625 
Q 37.984375 18.0625 35.515625 20.015625 
Q 33.0625 21.96875 24.703125 23.78125 
L 21.578125 24.515625 
Q 13.234375 26.265625 9.515625 29.90625 
Q 5.8125 33.546875 5.8125 39.890625 
Q 5.8125 47.609375 11.28125 51.796875 
Q 16.75 56 26.8125 56 
Q 31.78125 56 36.171875 55.265625 
Q 40.578125 54.546875 44.28125 53.078125 
z
" id="DejaVuSans-73"/>
    </defs>
    <g transform="translate(694.48875 63.12)scale(0.12 -0.12)">
     <use xlink:href="#DejaVuSans-35"/>
     <use x="63.623047" xlink:href="#DejaVuSans-30"/>
     <use x="127.246094" xlink:href="#DejaVuSans-30"/>
     <use x="190.869141" xlink:href="#DejaVuSans-30"/>
     <use x="254.492188" xlink:href="#DejaVuSans-30"/>
     <use x="318.115234" xlink:href="#DejaVuSans-30"/>
     <use x="381.738281" xlink:href="#DejaVuSans-2e"/>
     <use x="413.525391" xlink:href="#DejaVuSans-30"/>
     <use x="477.148438" xlink:href="#DejaVuSans-20"/>
     <use x="508.935547" xlink:href="#DejaVuSans-62"/>
     <use x="572.412109" xlink:href="#DejaVuSans-69"/>
     <use x="600.195312" xlink:href="#DejaVuSans-74"/>
     <use x="639.404297" xlink:href="#DejaVuSans-2f"/>
     <use x="673.095703" xlink:href="#DejaVuSans-73"/>
    </g>
   </g>
   <g id="legend_1">
    <g id="patch_7">
     <path d="M 1173.520313 135.8325 
L 1289 135.8325 
Q 1291 135.8325 1291 133.8325 
L 1291 76.12 
Q 1291 74.12 1289 74.12 
L 1173.520313 74.12 
Q 1171.520313 74.12 1171.520313 76.12 
L 1171.520313 133.8325 
Q 1171.520313 135.8325 1173.520313 135.8325 
z
" style="fill:#ffffff;opacity:0.8;stroke:#cccccc;stroke-linejoin:miter;"/>
    </g>
    <g id="line2d_18">
     <path d="M 1175.520313 82.218437 
L 1195.520313 82.218437 
" style="fill:none;stroke:#ff0000;stroke-dasharray:5.55,2.4;stroke-dashoffset:0;stroke-width:1.5;"/>
    </g>
    <g id="line2d_19">
     <g>
      <use style="fill:#ff0000;stroke:#ff0000;stroke-linejoin:miter;" x="1185.520313" xlink:href="#mc5ea6af99c" y="82.218437"/>
     </g>
    </g>
    <g id="text_15">
     <!-- tcpdump -->
     <defs>
      <path d="M 48.78125 52.59375 
L 48.78125 44.1875 
Q 44.96875 46.296875 41.140625 47.34375 
Q 37.3125 48.390625 33.40625 48.390625 
Q 24.65625 48.390625 19.8125 42.84375 
Q 14.984375 37.3125 14.984375 27.296875 
Q 14.984375 17.28125 19.8125 11.734375 
Q 24.65625 6.203125 33.40625 6.203125 
Q 37.3125 6.203125 41.140625 7.25 
Q 44.96875 8.296875 48.78125 10.40625 
L 48.78125 2.09375 
Q 45.015625 0.34375 40.984375 -0.53125 
Q 36.96875 -1.421875 32.421875 -1.421875 
Q 20.0625 -1.421875 12.78125 6.34375 
Q 5.515625 14.109375 5.515625 27.296875 
Q 5.515625 40.671875 12.859375 48.328125 
Q 20.21875 56 33.015625 56 
Q 37.15625 56 41.109375 55.140625 
Q 45.0625 54.296875 48.78125 52.59375 
z
" id="DejaVuSans-63"/>
      <path d="M 18.109375 8.203125 
L 18.109375 -20.796875 
L 9.078125 -20.796875 
L 9.078125 54.6875 
L 18.109375 54.6875 
L 18.109375 46.390625 
Q 20.953125 51.265625 25.265625 53.625 
Q 29.59375 56 35.59375 56 
Q 45.5625 56 51.78125 48.09375 
Q 58.015625 40.1875 58.015625 27.296875 
Q 58.015625 14.40625 51.78125 6.484375 
Q 45.5625 -1.421875 35.59375 -1.421875 
Q 29.59375 -1.421875 25.265625 0.953125 
Q 20.953125 3.328125 18.109375 8.203125 
z
M 48.6875 27.296875 
Q 48.6875 37.203125 44.609375 42.84375 
Q 40.53125 48.484375 33.40625 48.484375 
Q 26.265625 48.484375 22.1875 42.84375 
Q 18.109375 37.203125 18.109375 27.296875 
Q 18.109375 17.390625 22.1875 11.75 
Q 26.265625 6.109375 33.40625 6.109375 
Q 40.53125 6.109375 44.609375 11.75 
Q 48.6875 17.390625 48.6875 27.296875 
z
" id="DejaVuSans-70"/>
      <path d="M 45.40625 46.390625 
L 45.40625 75.984375 
L 54.390625 75.984375 
L 54.390625 0 
L 45.40625 0 
L 45.40625 8.203125 
Q 42.578125 3.328125 38.25 0.953125 
Q 33.9375 -1.421875 27.875 -1.421875 
Q 17.96875 -1.421875 11.734375 6.484375 
Q 5.515625 14.40625 5.515625 27.296875 
Q 5.515625 40.1875 11.734375 48.09375 
Q 17.96875 56 27.875 56 
Q 33.9375 56 38.25 53.625 
Q 42.578125 51.265625 45.40625 46.390625 
z
M 14.796875 27.296875 
Q 14.796875 17.390625 18.875 11.75 
Q 22.953125 6.109375 30.078125 6.109375 
Q 37.203125 6.109375 41.296875 11.75 
Q 45.40625 17.390625 45.40625 27.296875 
Q 45.40625 37.203125 41.296875 42.84375 
Q 37.203125 48.484375 30.078125 48.484375 
Q 22.953125 48.484375 18.875 42.84375 
Q 14.796875 37.203125 14.796875 27.296875 
z
" id="DejaVuSans-64"/>
      <path d="M 8.5 21.578125 
L 8.5 54.6875 
L 17.484375 54.6875 
L 17.484375 21.921875 
Q 17.484375 14.15625 20.5 10.265625 
Q 23.53125 6.390625 29.59375 6.390625 
Q 36.859375 6.390625 41.078125 11.03125 
Q 45.3125 15.671875 45.3125 23.6875 
L 45.3125 54.6875 
L 54.296875 54.6875 
L 54.296875 0 
L 45.3125 0 
L 45.3125 8.40625 
Q 42.046875 3.421875 37.71875 1 
Q 33.40625 -1.421875 27.6875 -1.421875 
Q 18.265625 -1.421875 13.375 4.4375 
Q 8.5 10.296875 8.5 21.578125 
z
M 31.109375 56 
z
" id="DejaVuSans-75"/>
      <path d="M 52 44.1875 
Q 55.375 50.25 60.0625 53.125 
Q 64.75 56 71.09375 56 
Q 79.640625 56 84.28125 50.015625 
Q 88.921875 44.046875 88.921875 33.015625 
L 88.921875 0 
L 79.890625 0 
L 79.890625 32.71875 
Q 79.890625 40.578125 77.09375 44.375 
Q 74.3125 48.1875 68.609375 48.1875 
Q 61.625 48.1875 57.5625 43.546875 
Q 53.515625 38.921875 53.515625 30.90625 
L 53.515625 0 
L 44.484375 0 
L 44.484375 32.71875 
Q 44.484375 40.625 41.703125 44.40625 
Q 38.921875 48.1875 33.109375 48.1875 
Q 26.21875 48.1875 22.15625 43.53125 
Q 18.109375 38.875 18.109375 30.90625 
L 18.109375 0 
L 9.078125 0 
L 9.078125 54.6875 
L 18.109375 54.6875 
L 18.109375 46.1875 
Q 21.1875 51.21875 25.484375 53.609375 
Q 29.78125 56 35.6875 56 
Q 41.65625 56 45.828125 52.96875 
Q 50 49.953125 52 44.1875 
z
" id="DejaVuSans-6d"/>
     </defs>
     <g transform="translate(1203.520313 85.718437)scale(0.1 -0.1)">
      <use xlink:href="#DejaVuSans-74"/>
      <use x="39.208984" xlink:href="#DejaVuSans-63"/>
      <use x="94.189453" xlink:href="#DejaVuSans-70"/>
      <use x="157.666016" xlink:href="#DejaVuSans-64"/>
      <use x="221.142578" xlink:href="#DejaVuSans-75"/>
      <use x="284.521484" xlink:href="#DejaVuSans-6d"/>
      <use x="381.933594" xlink:href="#DejaVuSans-70"/>
     </g>
    </g>
    <g id="line2d_20">
     <path d="M 1175.520313 96.896563 
L 1195.520313 96.896563 
" style="fill:none;stroke:#800080;stroke-dasharray:9.6,2.4,1.5,2.4;stroke-dashoffset:0;stroke-width:1.5;"/>
    </g>
    <g id="line2d_21">
     <g>
      <use style="fill:#800080;stroke:#800080;" x="1185.520313" xlink:href="#m0067b0de70" y="96.896563"/>
     </g>
    </g>
    <g id="text_16">
     <!-- filtered tcpdump -->
     <defs>
      <path d="M 37.109375 75.984375 
L 37.109375 68.5 
L 28.515625 68.5 
Q 23.6875 68.5 21.796875 66.546875 
Q 19.921875 64.59375 19.921875 59.515625 
L 19.921875 54.6875 
L 34.71875 54.6875 
L 34.71875 47.703125 
L 19.921875 47.703125 
L 19.921875 0 
L 10.890625 0 
L 10.890625 47.703125 
L 2.296875 47.703125 
L 2.296875 54.6875 
L 10.890625 54.6875 
L 10.890625 58.5 
Q 10.890625 67.625 15.140625 71.796875 
Q 19.390625 75.984375 28.609375 75.984375 
z
" id="DejaVuSans-66"/>
      <path d="M 9.421875 75.984375 
L 18.40625 75.984375 
L 18.40625 0 
L 9.421875 0 
z
" id="DejaVuSans-6c"/>
      <path d="M 56.203125 29.59375 
L 56.203125 25.203125 
L 14.890625 25.203125 
Q 15.484375 15.921875 20.484375 11.0625 
Q 25.484375 6.203125 34.421875 6.203125 
Q 39.59375 6.203125 44.453125 7.46875 
Q 49.3125 8.734375 54.109375 11.28125 
L 54.109375 2.78125 
Q 49.265625 0.734375 44.1875 -0.34375 
Q 39.109375 -1.421875 33.890625 -1.421875 
Q 20.796875 -1.421875 13.15625 6.1875 
Q 5.515625 13.8125 5.515625 26.8125 
Q 5.515625 40.234375 12.765625 48.109375 
Q 20.015625 56 32.328125 56 
Q 43.359375 56 49.78125 48.890625 
Q 56.203125 41.796875 56.203125 29.59375 
z
M 47.21875 32.234375 
Q 47.125 39.59375 43.09375 43.984375 
Q 39.0625 48.390625 32.421875 48.390625 
Q 24.90625 48.390625 20.390625 44.140625 
Q 15.875 39.890625 15.1875 32.171875 
z
" id="DejaVuSans-65"/>
      <path d="M 41.109375 46.296875 
Q 39.59375 47.171875 37.8125 47.578125 
Q 36.03125 48 33.890625 48 
Q 26.265625 48 22.1875 43.046875 
Q 18.109375 38.09375 18.109375 28.8125 
L 18.109375 0 
L 9.078125 0 
L 9.078125 54.6875 
L 18.109375 54.6875 
L 18.109375 46.1875 
Q 20.953125 51.171875 25.484375 53.578125 
Q 30.03125 56 36.53125 56 
Q 37.453125 56 38.578125 55.875 
Q 39.703125 55.765625 41.0625 55.515625 
z
" id="DejaVuSans-72"/>
     </defs>
     <g transform="translate(1203.520313 100.396563)scale(0.1 -0.1)">
      <use xlink:href="#DejaVuSans-66"/>
      <use x="35.205078" xlink:href="#DejaVuSans-69"/>
      <use x="62.988281" xlink:href="#DejaVuSans-6c"/>
      <use x="90.771484" xlink:href="#DejaVuSans-74"/>
      <use x="129.980469" xlink:href="#DejaVuSans-65"/>
      <use x="191.503906" xlink:href="#DejaVuSans-72"/>
      <use x="232.585938" xlink:href="#DejaVuSans-65"/>
      <use x="294.109375" xlink:href="#DejaVuSans-64"/>
      <use x="357.585938" xlink:href="#DejaVuSans-20"/>
      <use x="389.373047" xlink:href="#DejaVuSans-74"/>
      <use x="428.582031" xlink:href="#DejaVuSans-63"/>
      <use x="483.5625" xlink:href="#DejaVuSans-70"/>
      <use x="547.039062" xlink:href="#DejaVuSans-64"/>
      <use x="610.515625" xlink:href="#DejaVuSans-75"/>
      <use x="673.894531" xlink:href="#DejaVuSans-6d"/>
      <use x="771.306641" xlink:href="#DejaVuSans-70"/>
     </g>
    </g>
    <g id="line2d_22">
     <path d="M 1175.520313 111.574687 
L 1195.520313 111.574687 
" style="fill:none;stroke:#0000ff;stroke-linecap:square;stroke-width:1.5;"/>
    </g>
    <g id="line2d_23"/>
    <g id="text_17">
     <!-- OLS -->
     <defs>
      <path d="M 39.40625 66.21875 
Q 28.65625 66.21875 22.328125 58.203125 
Q 16.015625 50.203125 16.015625 36.375 
Q 16.015625 22.609375 22.328125 14.59375 
Q 28.65625 6.59375 39.40625 6.59375 
Q 50.140625 6.59375 56.421875 14.59375 
Q 62.703125 22.609375 62.703125 36.375 
Q 62.703125 50.203125 56.421875 58.203125 
Q 50.140625 66.21875 39.40625 66.21875 
z
M 39.40625 74.21875 
Q 54.734375 74.21875 63.90625 63.9375 
Q 73.09375 53.65625 73.09375 36.375 
Q 73.09375 19.140625 63.90625 8.859375 
Q 54.734375 -1.421875 39.40625 -1.421875 
Q 24.03125 -1.421875 14.8125 8.828125 
Q 5.609375 19.09375 5.609375 36.375 
Q 5.609375 53.65625 14.8125 63.9375 
Q 24.03125 74.21875 39.40625 74.21875 
z
" id="DejaVuSans-4f"/>
      <path d="M 9.8125 72.90625 
L 19.671875 72.90625 
L 19.671875 8.296875 
L 55.171875 8.296875 
L 55.171875 0 
L 9.8125 0 
z
" id="DejaVuSans-4c"/>
      <path d="M 53.515625 70.515625 
L 53.515625 60.890625 
Q 47.90625 63.578125 42.921875 64.890625 
Q 37.9375 66.21875 33.296875 66.21875 
Q 25.25 66.21875 20.875 63.09375 
Q 16.5 59.96875 16.5 54.203125 
Q 16.5 49.359375 19.40625 46.890625 
Q 22.3125 44.4375 30.421875 42.921875 
L 36.375 41.703125 
Q 47.40625 39.59375 52.65625 34.296875 
Q 57.90625 29 57.90625 20.125 
Q 57.90625 9.515625 50.796875 4.046875 
Q 43.703125 -1.421875 29.984375 -1.421875 
Q 24.8125 -1.421875 18.96875 -0.25 
Q 13.140625 0.921875 6.890625 3.21875 
L 6.890625 13.375 
Q 12.890625 10.015625 18.65625 8.296875 
Q 24.421875 6.59375 29.984375 6.59375 
Q 38.421875 6.59375 43.015625 9.90625 
Q 47.609375 13.234375 47.609375 19.390625 
Q 47.609375 24.75 44.3125 27.78125 
Q 41.015625 30.8125 33.5 32.328125 
L 27.484375 33.5 
Q 16.453125 35.6875 11.515625 40.375 
Q 6.59375 45.0625 6.59375 53.421875 
Q 6.59375 63.09375 13.40625 68.65625 
Q 20.21875 74.21875 32.171875 74.21875 
Q 37.3125 74.21875 42.625 73.28125 
Q 47.953125 72.359375 53.515625 70.515625 
z
" id="DejaVuSans-53"/>
     </defs>
     <g transform="translate(1203.520313 115.074687)scale(0.1 -0.1)">
      <use xlink:href="#DejaVuSans-4f"/>
      <use x="78.710938" xlink:href="#DejaVuSans-4c"/>
      <use x="134.423828" xlink:href="#DejaVuSans-53"/>
     </g>
    </g>
    <g id="line2d_24">
     <path d="M 1175.520313 126.252813 
L 1195.520313 126.252813 
" style="fill:none;stroke:#008000;stroke-linecap:square;stroke-width:1.5;"/>
    </g>
    <g id="line2d_25">
     <g>
      <use style="fill:#008000;stroke:#008000;" x="1185.520313" xlink:href="#ma60dc267d3" y="126.252813"/>
     </g>
    </g>
    <g id="text_18">
     <!-- IRLS -->
     <defs>
      <path d="M 9.8125 72.90625 
L 19.671875 72.90625 
L 19.671875 0 
L 9.8125 0 
z
" id="DejaVuSans-49"/>
      <path d="M 44.390625 34.1875 
Q 47.5625 33.109375 50.5625 29.59375 
Q 53.5625 26.078125 56.59375 19.921875 
L 66.609375 0 
L 56 0 
L 46.6875 18.703125 
Q 43.0625 26.03125 39.671875 28.421875 
Q 36.28125 30.8125 30.421875 30.8125 
L 19.671875 30.8125 
L 19.671875 0 
L 9.8125 0 
L 9.8125 72.90625 
L 32.078125 72.90625 
Q 44.578125 72.90625 50.734375 67.671875 
Q 56.890625 62.453125 56.890625 51.90625 
Q 56.890625 45.015625 53.6875 40.46875 
Q 50.484375 35.9375 44.390625 34.1875 
z
M 19.671875 64.796875 
L 19.671875 38.921875 
L 32.078125 38.921875 
Q 39.203125 38.921875 42.84375 42.21875 
Q 46.484375 45.515625 46.484375 51.90625 
Q 46.484375 58.296875 42.84375 61.546875 
Q 39.203125 64.796875 32.078125 64.796875 
z
" id="DejaVuSans-52"/>
     </defs>
     <g transform="translate(1203.520313 129.752813)scale(0.1 -0.1)">
      <use xlink:href="#DejaVuSans-49"/>
      <use x="29.492188" xlink:href="#DejaVuSans-52"/>
      <use x="98.974609" xlink:href="#DejaVuSans-4c"/>
      <use x="154.6875" xlink:href="#DejaVuSans-53"/>
     </g>
    </g>
   </g>
  </g>
 </g>
 <defs>
  <clipPath id="p14f449e286">
   <rect height="443.52" width="1116" x="180" y="69.12"/>
  </clipPath>
 </defs>
</svg>
