<?xml version="1.0" encoding="utf-8" standalone="no"?>
<!DOCTYPE svg PUBLIC "-//W3C//DTD SVG 1.1//EN"
  "http://www.w3.org/Graphics/SVG/1.1/DTD/svg11.dtd">
<!-- Created with matplotlib (http://matplotlib.org/) -->
<svg height="576pt" version="1.1" viewBox="0 0 1440 576" width="1440pt" xmlns="http://www.w3.org/2000/svg" xmlns:xlink="http://www.w3.org/1999/xlink">
 <defs>
  <style type="text/css">
*{stroke-linecap:butt;stroke-linejoin:round;}
  </style>
 </defs>
 <g id="figure_1">
  <g id="patch_1">
   <path d="M 0 576 
L 1440 576 
L 1440 0 
L 0 0 
z
" style="fill:#ffffff;"/>
  </g>
  <g id="axes_1">
   <g id="patch_2">
    <path d="M 180 512.64 
L 1296 512.64 
L 1296 69.12 
L 180 69.12 
z
" style="fill:#ffffff;"/>
   </g>
   <g id="matplotlib.axis_1">
    <g id="xtick_1">
     <g id="line2d_1">
      <defs>
       <path d="M 0 0 
L 0 3.5 
" id="m06a5463b91" style="stroke:#000000;stroke-width:0.8;"/>
      </defs>
      <g>
       <use style="stroke:#000000;stroke-width:0.8;" x="230.727273" xlink:href="#m06a5463b91" y="512.64"/>
      </g>
     </g>
     <g id="text_1">
      <!-- 0.0 -->
      <defs>
       <path d="M 31.78125 66.40625 
Q 24.171875 66.40625 20.328125 58.90625 
Q 16.5 51.421875 16.5 36.375 
Q 16.5 21.390625 20.328125 13.890625 
Q 24.171875 6.390625 31.78125 6.390625 
Q 39.453125 6.390625 43.28125 13.890625 
Q 47.125 21.390625 47.125 36.375 
Q 47.125 51.421875 43.28125 58.90625 
Q 39.453125 66.40625 31.78125 66.40625 
z
M 31.78125 74.21875 
Q 44.046875 74.21875 50.515625 64.515625 
Q 56.984375 54.828125 56.984375 36.375 
Q 56.984375 17.96875 50.515625 8.265625 
Q 44.046875 -1.421875 31.78125 -1.421875 
Q 19.53125 -1.421875 13.0625 8.265625 
Q 6.59375 17.96875 6.59375 36.375 
Q 6.59375 54.828125 13.0625 64.515625 
Q 19.53125 74.21875 31.78125 74.21875 
z
" id="DejaVuSans-30"/>
       <path d="M 10.6875 12.40625 
L 21 12.40625 
L 21 0 
L 10.6875 0 
z
" id="DejaVuSans-2e"/>
      </defs>
      <g transform="translate(222.77571 527.238438)scale(0.1 -0.1)">
       <use xlink:href="#DejaVuSans-30"/>
       <use x="63.623047" xlink:href="#DejaVuSans-2e"/>
       <use x="95.410156" xlink:href="#DejaVuSans-30"/>
      </g>
     </g>
    </g>
    <g id="xtick_2">
     <g id="line2d_2">
      <g>
       <use style="stroke:#000000;stroke-width:0.8;" x="383.803592" xlink:href="#m06a5463b91" y="512.64"/>
      </g>
     </g>
     <g id="text_2">
      <!-- 0.2 -->
      <defs>
       <path d="M 19.1875 8.296875 
L 53.609375 8.296875 
L 53.609375 0 
L 7.328125 0 
L 7.328125 8.296875 
Q 12.9375 14.109375 22.625 23.890625 
Q 32.328125 33.6875 34.8125 36.53125 
Q 39.546875 41.84375 41.421875 45.53125 
Q 43.3125 49.21875 43.3125 52.78125 
Q 43.3125 58.59375 39.234375 62.25 
Q 35.15625 65.921875 28.609375 65.921875 
Q 23.96875 65.921875 18.8125 64.3125 
Q 13.671875 62.703125 7.8125 59.421875 
L 7.8125 69.390625 
Q 13.765625 71.78125 18.9375 73 
Q 24.125 74.21875 28.421875 74.21875 
Q 39.75 74.21875 46.484375 68.546875 
Q 53.21875 62.890625 53.21875 53.421875 
Q 53.21875 48.921875 51.53125 44.890625 
Q 49.859375 40.875 45.40625 35.40625 
Q 44.1875 33.984375 37.640625 27.21875 
Q 31.109375 20.453125 19.1875 8.296875 
z
" id="DejaVuSans-32"/>
      </defs>
      <g transform="translate(375.85203 527.238438)scale(0.1 -0.1)">
       <use xlink:href="#DejaVuSans-30"/>
       <use x="63.623047" xlink:href="#DejaVuSans-2e"/>
       <use x="95.410156" xlink:href="#DejaVuSans-32"/>
      </g>
     </g>
    </g>
    <g id="xtick_3">
     <g id="line2d_3">
      <g>
       <use style="stroke:#000000;stroke-width:0.8;" x="536.879912" xlink:href="#m06a5463b91" y="512.64"/>
      </g>
     </g>
     <g id="text_3">
      <!-- 0.4 -->
      <defs>
       <path d="M 37.796875 64.3125 
L 12.890625 25.390625 
L 37.796875 25.390625 
z
M 35.203125 72.90625 
L 47.609375 72.90625 
L 47.609375 25.390625 
L 58.015625 25.390625 
L 58.015625 17.1875 
L 47.609375 17.1875 
L 47.609375 0 
L 37.796875 0 
L 37.796875 17.1875 
L 4.890625 17.1875 
L 4.890625 26.703125 
z
" id="DejaVuSans-34"/>
      </defs>
      <g transform="translate(528.92835 527.238438)scale(0.1 -0.1)">
       <use xlink:href="#DejaVuSans-30"/>
       <use x="63.623047" xlink:href="#DejaVuSans-2e"/>
       <use x="95.410156" xlink:href="#DejaVuSans-34"/>
      </g>
     </g>
    </g>
    <g id="xtick_4">
     <g id="line2d_4">
      <g>
       <use style="stroke:#000000;stroke-width:0.8;" x="689.956232" xlink:href="#m06a5463b91" y="512.64"/>
      </g>
     </g>
     <g id="text_4">
      <!-- 0.6 -->
      <defs>
       <path d="M 33.015625 40.375 
Q 26.375 40.375 22.484375 35.828125 
Q 18.609375 31.296875 18.609375 23.390625 
Q 18.609375 15.53125 22.484375 10.953125 
Q 26.375 6.390625 33.015625 6.390625 
Q 39.65625 6.390625 43.53125 10.953125 
Q 47.40625 15.53125 47.40625 23.390625 
Q 47.40625 31.296875 43.53125 35.828125 
Q 39.65625 40.375 33.015625 40.375 
z
M 52.59375 71.296875 
L 52.59375 62.3125 
Q 48.875 64.0625 45.09375 64.984375 
Q 41.3125 65.921875 37.59375 65.921875 
Q 27.828125 65.921875 22.671875 59.328125 
Q 17.53125 52.734375 16.796875 39.40625 
Q 19.671875 43.65625 24.015625 45.921875 
Q 28.375 48.1875 33.59375 48.1875 
Q 44.578125 48.1875 50.953125 41.515625 
Q 57.328125 34.859375 57.328125 23.390625 
Q 57.328125 12.15625 50.6875 5.359375 
Q 44.046875 -1.421875 33.015625 -1.421875 
Q 20.359375 -1.421875 13.671875 8.265625 
Q 6.984375 17.96875 6.984375 36.375 
Q 6.984375 53.65625 15.1875 63.9375 
Q 23.390625 74.21875 37.203125 74.21875 
Q 40.921875 74.21875 44.703125 73.484375 
Q 48.484375 72.75 52.59375 71.296875 
z
" id="DejaVuSans-36"/>
      </defs>
      <g transform="translate(682.004669 527.238438)scale(0.1 -0.1)">
       <use xlink:href="#DejaVuSans-30"/>
       <use x="63.623047" xlink:href="#DejaVuSans-2e"/>
       <use x="95.410156" xlink:href="#DejaVuSans-36"/>
      </g>
     </g>
    </g>
    <g id="xtick_5">
     <g id="line2d_5">
      <g>
       <use style="stroke:#000000;stroke-width:0.8;" x="843.032551" xlink:href="#m06a5463b91" y="512.64"/>
      </g>
     </g>
     <g id="text_5">
      <!-- 0.8 -->
      <defs>
       <path d="M 31.78125 34.625 
Q 24.75 34.625 20.71875 30.859375 
Q 16.703125 27.09375 16.703125 20.515625 
Q 16.703125 13.921875 20.71875 10.15625 
Q 24.75 6.390625 31.78125 6.390625 
Q 38.8125 6.390625 42.859375 10.171875 
Q 46.921875 13.96875 46.921875 20.515625 
Q 46.921875 27.09375 42.890625 30.859375 
Q 38.875 34.625 31.78125 34.625 
z
M 21.921875 38.8125 
Q 15.578125 40.375 12.03125 44.71875 
Q 8.5 49.078125 8.5 55.328125 
Q 8.5 64.0625 14.71875 69.140625 
Q 20.953125 74.21875 31.78125 74.21875 
Q 42.671875 74.21875 48.875 69.140625 
Q 55.078125 64.0625 55.078125 55.328125 
Q 55.078125 49.078125 51.53125 44.71875 
Q 48 40.375 41.703125 38.8125 
Q 48.828125 37.15625 52.796875 32.3125 
Q 56.78125 27.484375 56.78125 20.515625 
Q 56.78125 9.90625 50.3125 4.234375 
Q 43.84375 -1.421875 31.78125 -1.421875 
Q 19.734375 -1.421875 13.25 4.234375 
Q 6.78125 9.90625 6.78125 20.515625 
Q 6.78125 27.484375 10.78125 32.3125 
Q 14.796875 37.15625 21.921875 38.8125 
z
M 18.3125 54.390625 
Q 18.3125 48.734375 21.84375 45.5625 
Q 25.390625 42.390625 31.78125 42.390625 
Q 38.140625 42.390625 41.71875 45.5625 
Q 45.3125 48.734375 45.3125 54.390625 
Q 45.3125 60.0625 41.71875 63.234375 
Q 38.140625 66.40625 31.78125 66.40625 
Q 25.390625 66.40625 21.84375 63.234375 
Q 18.3125 60.0625 18.3125 54.390625 
z
" id="DejaVuSans-38"/>
      </defs>
      <g transform="translate(835.080989 527.238438)scale(0.1 -0.1)">
       <use xlink:href="#DejaVuSans-30"/>
       <use x="63.623047" xlink:href="#DejaVuSans-2e"/>
       <use x="95.410156" xlink:href="#DejaVuSans-38"/>
      </g>
     </g>
    </g>
    <g id="xtick_6">
     <g id="line2d_6">
      <g>
       <use style="stroke:#000000;stroke-width:0.8;" x="996.108871" xlink:href="#m06a5463b91" y="512.64"/>
      </g>
     </g>
     <g id="text_6">
      <!-- 1.0 -->
      <defs>
       <path d="M 12.40625 8.296875 
L 28.515625 8.296875 
L 28.515625 63.921875 
L 10.984375 60.40625 
L 10.984375 69.390625 
L 28.421875 72.90625 
L 38.28125 72.90625 
L 38.28125 8.296875 
L 54.390625 8.296875 
L 54.390625 0 
L 12.40625 0 
z
" id="DejaVuSans-31"/>
      </defs>
      <g transform="translate(988.157309 527.238438)scale(0.1 -0.1)">
       <use xlink:href="#DejaVuSans-31"/>
       <use x="63.623047" xlink:href="#DejaVuSans-2e"/>
       <use x="95.410156" xlink:href="#DejaVuSans-30"/>
      </g>
     </g>
    </g>
    <g id="xtick_7">
     <g id="line2d_7">
      <g>
       <use style="stroke:#000000;stroke-width:0.8;" x="1149.185191" xlink:href="#m06a5463b91" y="512.64"/>
      </g>
     </g>
     <g id="text_7">
      <!-- 1.2 -->
      <g transform="translate(1141.233628 527.238438)scale(0.1 -0.1)">
       <use xlink:href="#DejaVuSans-31"/>
       <use x="63.623047" xlink:href="#DejaVuSans-2e"/>
       <use x="95.410156" xlink:href="#DejaVuSans-32"/>
      </g>
     </g>
    </g>
   </g>
   <g id="matplotlib.axis_2">
    <g id="ytick_1">
     <g id="line2d_8">
      <defs>
       <path d="M 0 0 
L -3.5 0 
" id="m51f12cd56d" style="stroke:#000000;stroke-width:0.8;"/>
      </defs>
      <g>
       <use style="stroke:#000000;stroke-width:0.8;" x="180" xlink:href="#m51f12cd56d" y="485.854648"/>
      </g>
     </g>
     <g id="text_8">
      <!-- 0.3003 -->
      <defs>
       <path d="M 40.578125 39.3125 
Q 47.65625 37.796875 51.625 33 
Q 55.609375 28.21875 55.609375 21.1875 
Q 55.609375 10.40625 48.1875 4.484375 
Q 40.765625 -1.421875 27.09375 -1.421875 
Q 22.515625 -1.421875 17.65625 -0.515625 
Q 12.796875 0.390625 7.625 2.203125 
L 7.625 11.71875 
Q 11.71875 9.328125 16.59375 8.109375 
Q 21.484375 6.890625 26.8125 6.890625 
Q 36.078125 6.890625 40.9375 10.546875 
Q 45.796875 14.203125 45.796875 21.1875 
Q 45.796875 27.640625 41.28125 31.265625 
Q 36.765625 34.90625 28.71875 34.90625 
L 20.21875 34.90625 
L 20.21875 43.015625 
L 29.109375 43.015625 
Q 36.375 43.015625 40.234375 45.921875 
Q 44.09375 48.828125 44.09375 54.296875 
Q 44.09375 59.90625 40.109375 62.90625 
Q 36.140625 65.921875 28.71875 65.921875 
Q 24.65625 65.921875 20.015625 65.03125 
Q 15.375 64.15625 9.8125 62.3125 
L 9.8125 71.09375 
Q 15.4375 72.65625 20.34375 73.4375 
Q 25.25 74.21875 29.59375 74.21875 
Q 40.828125 74.21875 47.359375 69.109375 
Q 53.90625 64.015625 53.90625 55.328125 
Q 53.90625 49.265625 50.4375 45.09375 
Q 46.96875 40.921875 40.578125 39.3125 
z
" id="DejaVuSans-33"/>
      </defs>
      <g transform="translate(138.009375 489.653867)scale(0.1 -0.1)">
       <use xlink:href="#DejaVuSans-30"/>
       <use x="63.623047" xlink:href="#DejaVuSans-2e"/>
       <use x="95.410156" xlink:href="#DejaVuSans-33"/>
       <use x="159.033203" xlink:href="#DejaVuSans-30"/>
       <use x="222.65625" xlink:href="#DejaVuSans-30"/>
       <use x="286.279297" xlink:href="#DejaVuSans-33"/>
      </g>
     </g>
    </g>
    <g id="ytick_2">
     <g id="line2d_9">
      <g>
       <use style="stroke:#000000;stroke-width:0.8;" x="180" xlink:href="#m51f12cd56d" y="391.206761"/>
      </g>
     </g>
     <g id="text_9">
      <!-- 0.3004 -->
      <g transform="translate(138.009375 395.005979)scale(0.1 -0.1)">
       <use xlink:href="#DejaVuSans-30"/>
       <use x="63.623047" xlink:href="#DejaVuSans-2e"/>
       <use x="95.410156" xlink:href="#DejaVuSans-33"/>
       <use x="159.033203" xlink:href="#DejaVuSans-30"/>
       <use x="222.65625" xlink:href="#DejaVuSans-30"/>
       <use x="286.279297" xlink:href="#DejaVuSans-34"/>
      </g>
     </g>
    </g>
    <g id="ytick_3">
     <g id="line2d_10">
      <g>
       <use style="stroke:#000000;stroke-width:0.8;" x="180" xlink:href="#m51f12cd56d" y="296.558873"/>
      </g>
     </g>
     <g id="text_10">
      <!-- 0.3005 -->
      <defs>
       <path d="M 10.796875 72.90625 
L 49.515625 72.90625 
L 49.515625 64.59375 
L 19.828125 64.59375 
L 19.828125 46.734375 
Q 21.96875 47.46875 24.109375 47.828125 
Q 26.265625 48.1875 28.421875 48.1875 
Q 40.625 48.1875 47.75 41.5 
Q 54.890625 34.8125 54.890625 23.390625 
Q 54.890625 11.625 47.5625 5.09375 
Q 40.234375 -1.421875 26.90625 -1.421875 
Q 22.3125 -1.421875 17.546875 -0.640625 
Q 12.796875 0.140625 7.71875 1.703125 
L 7.71875 11.625 
Q 12.109375 9.234375 16.796875 8.0625 
Q 21.484375 6.890625 26.703125 6.890625 
Q 35.15625 6.890625 40.078125 11.328125 
Q 45.015625 15.765625 45.015625 23.390625 
Q 45.015625 31 40.078125 35.4375 
Q 35.15625 39.890625 26.703125 39.890625 
Q 22.75 39.890625 18.8125 39.015625 
Q 14.890625 38.140625 10.796875 36.28125 
z
" id="DejaVuSans-35"/>
      </defs>
      <g transform="translate(138.009375 300.358092)scale(0.1 -0.1)">
       <use xlink:href="#DejaVuSans-30"/>
       <use x="63.623047" xlink:href="#DejaVuSans-2e"/>
       <use x="95.410156" xlink:href="#DejaVuSans-33"/>
       <use x="159.033203" xlink:href="#DejaVuSans-30"/>
       <use x="222.65625" xlink:href="#DejaVuSans-30"/>
       <use x="286.279297" xlink:href="#DejaVuSans-35"/>
      </g>
     </g>
    </g>
    <g id="ytick_4">
     <g id="line2d_11">
      <g>
       <use style="stroke:#000000;stroke-width:0.8;" x="180" xlink:href="#m51f12cd56d" y="201.910986"/>
      </g>
     </g>
     <g id="text_11">
      <!-- 0.3006 -->
      <g transform="translate(138.009375 205.710205)scale(0.1 -0.1)">
       <use xlink:href="#DejaVuSans-30"/>
       <use x="63.623047" xlink:href="#DejaVuSans-2e"/>
       <use x="95.410156" xlink:href="#DejaVuSans-33"/>
       <use x="159.033203" xlink:href="#DejaVuSans-30"/>
       <use x="222.65625" xlink:href="#DejaVuSans-30"/>
       <use x="286.279297" xlink:href="#DejaVuSans-36"/>
      </g>
     </g>
    </g>
    <g id="ytick_5">
     <g id="line2d_12">
      <g>
       <use style="stroke:#000000;stroke-width:0.8;" x="180" xlink:href="#m51f12cd56d" y="107.263099"/>
      </g>
     </g>
     <g id="text_12">
      <!-- 0.3007 -->
      <defs>
       <path d="M 8.203125 72.90625 
L 55.078125 72.90625 
L 55.078125 68.703125 
L 28.609375 0 
L 18.3125 0 
L 43.21875 64.59375 
L 8.203125 64.59375 
z
" id="DejaVuSans-37"/>
      </defs>
      <g transform="translate(138.009375 111.062317)scale(0.1 -0.1)">
       <use xlink:href="#DejaVuSans-30"/>
       <use x="63.623047" xlink:href="#DejaVuSans-2e"/>
       <use x="95.410156" xlink:href="#DejaVuSans-33"/>
       <use x="159.033203" xlink:href="#DejaVuSans-30"/>
       <use x="222.65625" xlink:href="#DejaVuSans-30"/>
       <use x="286.279297" xlink:href="#DejaVuSans-37"/>
      </g>
     </g>
    </g>
   </g>
   <g id="line2d_13">
    <path clip-path="url(#p9bd48327b1)" d="M 230.727273 343.882817 
L 240.692541 382.688451 
L 250.561371 409.189859 
L 260.598586 433.79831 
L 270.454405 450.83493 
L 280.867421 418.654648 
L 290.748498 446.102535 
L 300.601255 455.567324 
L 311.313536 454.620845 
L 321.254312 443.263099 
L 331.114723 449.888451 
L 340.992738 429.065915 
L 350.90443 492.48 
L 360.73346 451.781408 
L 370.616833 436.637746 
L 381.385752 416.76169 
L 391.293617 423.387042 
L 401.235158 426.226479 
L 411.133838 458.406761 
L 421.017976 288.040563 
L 430.92278 436.637746 
L 440.867383 456.513803 
L 450.598444 472.603944 
L 460.159591 432.851831 
L 469.982499 445.156056 
L 480.897606 454.620845 
L 491.119277 394.046197 
L 502.607655 413.922254 
L 514.702215 431.905352 
L 525.858417 422.440563 
L 536.029573 89.28 
L 546.020864 456.513803 
L 556.034352 461.246197 
L 566.179485 419.601127 
L 576.157765 400.671549 
L 586.092418 422.440563 
L 596.182444 444.209577 
L 606.957486 421.494085 
L 616.870708 422.440563 
L 626.816842 422.440563 
L 637.565861 312.649014 
L 647.485207 430.958873 
L 657.399195 413.922254 
L 668.414567 336.310986 
L 678.328554 417.708169 
L 688.236419 430.012394 
L 699.340575 284.254648 
L 709.256094 384.581408 
L 719.257335 416.76169 
L 730.213773 397.832113 
L 740.182103 408.24338 
L 750.259117 419.601127 
L 761.155089 344.829296 
L 771.090508 364.705352 
L 781.009854 404.457465 
L 791.975476 403.510986 
L 801.948398 428.119437 
L 811.863917 413.922254 
L 822.873165 431.905352 
L 832.813176 425.28 
L 842.724103 437.584225 
L 853.979039 414.868732 
L 863.977984 410.136338 
L 873.973102 434.744789 
L 884.834633 331.578592 
L 894.753213 321.167324 
L 904.784304 406.350423 
L 915.819576 438.530704 
L 925.738921 439.477183 
L 935.858797 414.868732 
L 947.081587 373.223662 
L 957.052979 412.975775 
L 967.123104 389.313803 
L 978.009892 372.277183 
L 988.008072 324.953239 
L 998.121059 406.350423 
L 1008.870844 374.170141 
L 1018.853716 389.313803 
L 1028.997318 306.023662 
L 1039.727968 318.327887 
L 1049.713137 386.474366 
L 1059.757239 364.705352 
L 1070.616473 443.263099 
L 1080.613888 397.832113 
L 1090.688606 425.28 
L 1101.491967 465.032113 
L 1111.503924 415.815211 
L 1121.508227 381.741972 
L 1132.306996 419.601127 
L 1142.296756 393.099718 
L 1152.330144 403.510986 
L 1163.331739 387.420845 
L 1173.292415 392.153239 
L 1183.316618 361.865915 
L 1194.294486 349.56169 
L 1204.282716 379.849014 
L 1214.324522 401.618028 
L 1225.224322 305.077183 
L 1235.231686 425.28 
L 1245.272727 404.457465 
" style="fill:none;stroke:#ff0000;stroke-dasharray:5.55,2.4;stroke-dashoffset:0;stroke-width:1.5;"/>
    <defs>
     <path d="M -3 3 
L 3 3 
L 3 -3 
L -3 -3 
z
" id="me15b07c0ce" style="stroke:#ff0000;stroke-linejoin:miter;"/>
    </defs>
    <g clip-path="url(#p9bd48327b1)">
     <use style="fill:#ff0000;stroke:#ff0000;stroke-linejoin:miter;" x="230.727273" xlink:href="#me15b07c0ce" y="343.882817"/>
     <use style="fill:#ff0000;stroke:#ff0000;stroke-linejoin:miter;" x="240.692541" xlink:href="#me15b07c0ce" y="382.688451"/>
     <use style="fill:#ff0000;stroke:#ff0000;stroke-linejoin:miter;" x="250.561371" xlink:href="#me15b07c0ce" y="409.189859"/>
     <use style="fill:#ff0000;stroke:#ff0000;stroke-linejoin:miter;" x="260.598586" xlink:href="#me15b07c0ce" y="433.79831"/>
     <use style="fill:#ff0000;stroke:#ff0000;stroke-linejoin:miter;" x="270.454405" xlink:href="#me15b07c0ce" y="450.83493"/>
     <use style="fill:#ff0000;stroke:#ff0000;stroke-linejoin:miter;" x="280.867421" xlink:href="#me15b07c0ce" y="418.654648"/>
     <use style="fill:#ff0000;stroke:#ff0000;stroke-linejoin:miter;" x="290.748498" xlink:href="#me15b07c0ce" y="446.102535"/>
     <use style="fill:#ff0000;stroke:#ff0000;stroke-linejoin:miter;" x="300.601255" xlink:href="#me15b07c0ce" y="455.567324"/>
     <use style="fill:#ff0000;stroke:#ff0000;stroke-linejoin:miter;" x="311.313536" xlink:href="#me15b07c0ce" y="454.620845"/>
     <use style="fill:#ff0000;stroke:#ff0000;stroke-linejoin:miter;" x="321.254312" xlink:href="#me15b07c0ce" y="443.263099"/>
     <use style="fill:#ff0000;stroke:#ff0000;stroke-linejoin:miter;" x="331.114723" xlink:href="#me15b07c0ce" y="449.888451"/>
     <use style="fill:#ff0000;stroke:#ff0000;stroke-linejoin:miter;" x="340.992738" xlink:href="#me15b07c0ce" y="429.065915"/>
     <use style="fill:#ff0000;stroke:#ff0000;stroke-linejoin:miter;" x="350.90443" xlink:href="#me15b07c0ce" y="492.48"/>
     <use style="fill:#ff0000;stroke:#ff0000;stroke-linejoin:miter;" x="360.73346" xlink:href="#me15b07c0ce" y="451.781408"/>
     <use style="fill:#ff0000;stroke:#ff0000;stroke-linejoin:miter;" x="370.616833" xlink:href="#me15b07c0ce" y="436.637746"/>
     <use style="fill:#ff0000;stroke:#ff0000;stroke-linejoin:miter;" x="381.385752" xlink:href="#me15b07c0ce" y="416.76169"/>
     <use style="fill:#ff0000;stroke:#ff0000;stroke-linejoin:miter;" x="391.293617" xlink:href="#me15b07c0ce" y="423.387042"/>
     <use style="fill:#ff0000;stroke:#ff0000;stroke-linejoin:miter;" x="401.235158" xlink:href="#me15b07c0ce" y="426.226479"/>
     <use style="fill:#ff0000;stroke:#ff0000;stroke-linejoin:miter;" x="411.133838" xlink:href="#me15b07c0ce" y="458.406761"/>
     <use style="fill:#ff0000;stroke:#ff0000;stroke-linejoin:miter;" x="421.017976" xlink:href="#me15b07c0ce" y="288.040563"/>
     <use style="fill:#ff0000;stroke:#ff0000;stroke-linejoin:miter;" x="430.92278" xlink:href="#me15b07c0ce" y="436.637746"/>
     <use style="fill:#ff0000;stroke:#ff0000;stroke-linejoin:miter;" x="440.867383" xlink:href="#me15b07c0ce" y="456.513803"/>
     <use style="fill:#ff0000;stroke:#ff0000;stroke-linejoin:miter;" x="450.598444" xlink:href="#me15b07c0ce" y="472.603944"/>
     <use style="fill:#ff0000;stroke:#ff0000;stroke-linejoin:miter;" x="460.159591" xlink:href="#me15b07c0ce" y="432.851831"/>
     <use style="fill:#ff0000;stroke:#ff0000;stroke-linejoin:miter;" x="469.982499" xlink:href="#me15b07c0ce" y="445.156056"/>
     <use style="fill:#ff0000;stroke:#ff0000;stroke-linejoin:miter;" x="480.897606" xlink:href="#me15b07c0ce" y="454.620845"/>
     <use style="fill:#ff0000;stroke:#ff0000;stroke-linejoin:miter;" x="491.119277" xlink:href="#me15b07c0ce" y="394.046197"/>
     <use style="fill:#ff0000;stroke:#ff0000;stroke-linejoin:miter;" x="502.607655" xlink:href="#me15b07c0ce" y="413.922254"/>
     <use style="fill:#ff0000;stroke:#ff0000;stroke-linejoin:miter;" x="514.702215" xlink:href="#me15b07c0ce" y="431.905352"/>
     <use style="fill:#ff0000;stroke:#ff0000;stroke-linejoin:miter;" x="525.858417" xlink:href="#me15b07c0ce" y="422.440563"/>
     <use style="fill:#ff0000;stroke:#ff0000;stroke-linejoin:miter;" x="536.029573" xlink:href="#me15b07c0ce" y="89.28"/>
     <use style="fill:#ff0000;stroke:#ff0000;stroke-linejoin:miter;" x="546.020864" xlink:href="#me15b07c0ce" y="456.513803"/>
     <use style="fill:#ff0000;stroke:#ff0000;stroke-linejoin:miter;" x="556.034352" xlink:href="#me15b07c0ce" y="461.246197"/>
     <use style="fill:#ff0000;stroke:#ff0000;stroke-linejoin:miter;" x="566.179485" xlink:href="#me15b07c0ce" y="419.601127"/>
     <use style="fill:#ff0000;stroke:#ff0000;stroke-linejoin:miter;" x="576.157765" xlink:href="#me15b07c0ce" y="400.671549"/>
     <use style="fill:#ff0000;stroke:#ff0000;stroke-linejoin:miter;" x="586.092418" xlink:href="#me15b07c0ce" y="422.440563"/>
     <use style="fill:#ff0000;stroke:#ff0000;stroke-linejoin:miter;" x="596.182444" xlink:href="#me15b07c0ce" y="444.209577"/>
     <use style="fill:#ff0000;stroke:#ff0000;stroke-linejoin:miter;" x="606.957486" xlink:href="#me15b07c0ce" y="421.494085"/>
     <use style="fill:#ff0000;stroke:#ff0000;stroke-linejoin:miter;" x="616.870708" xlink:href="#me15b07c0ce" y="422.440563"/>
     <use style="fill:#ff0000;stroke:#ff0000;stroke-linejoin:miter;" x="626.816842" xlink:href="#me15b07c0ce" y="422.440563"/>
     <use style="fill:#ff0000;stroke:#ff0000;stroke-linejoin:miter;" x="637.565861" xlink:href="#me15b07c0ce" y="312.649014"/>
     <use style="fill:#ff0000;stroke:#ff0000;stroke-linejoin:miter;" x="647.485207" xlink:href="#me15b07c0ce" y="430.958873"/>
     <use style="fill:#ff0000;stroke:#ff0000;stroke-linejoin:miter;" x="657.399195" xlink:href="#me15b07c0ce" y="413.922254"/>
     <use style="fill:#ff0000;stroke:#ff0000;stroke-linejoin:miter;" x="668.414567" xlink:href="#me15b07c0ce" y="336.310986"/>
     <use style="fill:#ff0000;stroke:#ff0000;stroke-linejoin:miter;" x="678.328554" xlink:href="#me15b07c0ce" y="417.708169"/>
     <use style="fill:#ff0000;stroke:#ff0000;stroke-linejoin:miter;" x="688.236419" xlink:href="#me15b07c0ce" y="430.012394"/>
     <use style="fill:#ff0000;stroke:#ff0000;stroke-linejoin:miter;" x="699.340575" xlink:href="#me15b07c0ce" y="284.254648"/>
     <use style="fill:#ff0000;stroke:#ff0000;stroke-linejoin:miter;" x="709.256094" xlink:href="#me15b07c0ce" y="384.581408"/>
     <use style="fill:#ff0000;stroke:#ff0000;stroke-linejoin:miter;" x="719.257335" xlink:href="#me15b07c0ce" y="416.76169"/>
     <use style="fill:#ff0000;stroke:#ff0000;stroke-linejoin:miter;" x="730.213773" xlink:href="#me15b07c0ce" y="397.832113"/>
     <use style="fill:#ff0000;stroke:#ff0000;stroke-linejoin:miter;" x="740.182103" xlink:href="#me15b07c0ce" y="408.24338"/>
     <use style="fill:#ff0000;stroke:#ff0000;stroke-linejoin:miter;" x="750.259117" xlink:href="#me15b07c0ce" y="419.601127"/>
     <use style="fill:#ff0000;stroke:#ff0000;stroke-linejoin:miter;" x="761.155089" xlink:href="#me15b07c0ce" y="344.829296"/>
     <use style="fill:#ff0000;stroke:#ff0000;stroke-linejoin:miter;" x="771.090508" xlink:href="#me15b07c0ce" y="364.705352"/>
     <use style="fill:#ff0000;stroke:#ff0000;stroke-linejoin:miter;" x="781.009854" xlink:href="#me15b07c0ce" y="404.457465"/>
     <use style="fill:#ff0000;stroke:#ff0000;stroke-linejoin:miter;" x="791.975476" xlink:href="#me15b07c0ce" y="403.510986"/>
     <use style="fill:#ff0000;stroke:#ff0000;stroke-linejoin:miter;" x="801.948398" xlink:href="#me15b07c0ce" y="428.119437"/>
     <use style="fill:#ff0000;stroke:#ff0000;stroke-linejoin:miter;" x="811.863917" xlink:href="#me15b07c0ce" y="413.922254"/>
     <use style="fill:#ff0000;stroke:#ff0000;stroke-linejoin:miter;" x="822.873165" xlink:href="#me15b07c0ce" y="431.905352"/>
     <use style="fill:#ff0000;stroke:#ff0000;stroke-linejoin:miter;" x="832.813176" xlink:href="#me15b07c0ce" y="425.28"/>
     <use style="fill:#ff0000;stroke:#ff0000;stroke-linejoin:miter;" x="842.724103" xlink:href="#me15b07c0ce" y="437.584225"/>
     <use style="fill:#ff0000;stroke:#ff0000;stroke-linejoin:miter;" x="853.979039" xlink:href="#me15b07c0ce" y="414.868732"/>
     <use style="fill:#ff0000;stroke:#ff0000;stroke-linejoin:miter;" x="863.977984" xlink:href="#me15b07c0ce" y="410.136338"/>
     <use style="fill:#ff0000;stroke:#ff0000;stroke-linejoin:miter;" x="873.973102" xlink:href="#me15b07c0ce" y="434.744789"/>
     <use style="fill:#ff0000;stroke:#ff0000;stroke-linejoin:miter;" x="884.834633" xlink:href="#me15b07c0ce" y="331.578592"/>
     <use style="fill:#ff0000;stroke:#ff0000;stroke-linejoin:miter;" x="894.753213" xlink:href="#me15b07c0ce" y="321.167324"/>
     <use style="fill:#ff0000;stroke:#ff0000;stroke-linejoin:miter;" x="904.784304" xlink:href="#me15b07c0ce" y="406.350423"/>
     <use style="fill:#ff0000;stroke:#ff0000;stroke-linejoin:miter;" x="915.819576" xlink:href="#me15b07c0ce" y="438.530704"/>
     <use style="fill:#ff0000;stroke:#ff0000;stroke-linejoin:miter;" x="925.738921" xlink:href="#me15b07c0ce" y="439.477183"/>
     <use style="fill:#ff0000;stroke:#ff0000;stroke-linejoin:miter;" x="935.858797" xlink:href="#me15b07c0ce" y="414.868732"/>
     <use style="fill:#ff0000;stroke:#ff0000;stroke-linejoin:miter;" x="947.081587" xlink:href="#me15b07c0ce" y="373.223662"/>
     <use style="fill:#ff0000;stroke:#ff0000;stroke-linejoin:miter;" x="957.052979" xlink:href="#me15b07c0ce" y="412.975775"/>
     <use style="fill:#ff0000;stroke:#ff0000;stroke-linejoin:miter;" x="967.123104" xlink:href="#me15b07c0ce" y="389.313803"/>
     <use style="fill:#ff0000;stroke:#ff0000;stroke-linejoin:miter;" x="978.009892" xlink:href="#me15b07c0ce" y="372.277183"/>
     <use style="fill:#ff0000;stroke:#ff0000;stroke-linejoin:miter;" x="988.008072" xlink:href="#me15b07c0ce" y="324.953239"/>
     <use style="fill:#ff0000;stroke:#ff0000;stroke-linejoin:miter;" x="998.121059" xlink:href="#me15b07c0ce" y="406.350423"/>
     <use style="fill:#ff0000;stroke:#ff0000;stroke-linejoin:miter;" x="1008.870844" xlink:href="#me15b07c0ce" y="374.170141"/>
     <use style="fill:#ff0000;stroke:#ff0000;stroke-linejoin:miter;" x="1018.853716" xlink:href="#me15b07c0ce" y="389.313803"/>
     <use style="fill:#ff0000;stroke:#ff0000;stroke-linejoin:miter;" x="1028.997318" xlink:href="#me15b07c0ce" y="306.023662"/>
     <use style="fill:#ff0000;stroke:#ff0000;stroke-linejoin:miter;" x="1039.727968" xlink:href="#me15b07c0ce" y="318.327887"/>
     <use style="fill:#ff0000;stroke:#ff0000;stroke-linejoin:miter;" x="1049.713137" xlink:href="#me15b07c0ce" y="386.474366"/>
     <use style="fill:#ff0000;stroke:#ff0000;stroke-linejoin:miter;" x="1059.757239" xlink:href="#me15b07c0ce" y="364.705352"/>
     <use style="fill:#ff0000;stroke:#ff0000;stroke-linejoin:miter;" x="1070.616473" xlink:href="#me15b07c0ce" y="443.263099"/>
     <use style="fill:#ff0000;stroke:#ff0000;stroke-linejoin:miter;" x="1080.613888" xlink:href="#me15b07c0ce" y="397.832113"/>
     <use style="fill:#ff0000;stroke:#ff0000;stroke-linejoin:miter;" x="1090.688606" xlink:href="#me15b07c0ce" y="425.28"/>
     <use style="fill:#ff0000;stroke:#ff0000;stroke-linejoin:miter;" x="1101.491967" xlink:href="#me15b07c0ce" y="465.032113"/>
     <use style="fill:#ff0000;stroke:#ff0000;stroke-linejoin:miter;" x="1111.503924" xlink:href="#me15b07c0ce" y="415.815211"/>
     <use style="fill:#ff0000;stroke:#ff0000;stroke-linejoin:miter;" x="1121.508227" xlink:href="#me15b07c0ce" y="381.741972"/>
     <use style="fill:#ff0000;stroke:#ff0000;stroke-linejoin:miter;" x="1132.306996" xlink:href="#me15b07c0ce" y="419.601127"/>
     <use style="fill:#ff0000;stroke:#ff0000;stroke-linejoin:miter;" x="1142.296756" xlink:href="#me15b07c0ce" y="393.099718"/>
     <use style="fill:#ff0000;stroke:#ff0000;stroke-linejoin:miter;" x="1152.330144" xlink:href="#me15b07c0ce" y="403.510986"/>
     <use style="fill:#ff0000;stroke:#ff0000;stroke-linejoin:miter;" x="1163.331739" xlink:href="#me15b07c0ce" y="387.420845"/>
     <use style="fill:#ff0000;stroke:#ff0000;stroke-linejoin:miter;" x="1173.292415" xlink:href="#me15b07c0ce" y="392.153239"/>
     <use style="fill:#ff0000;stroke:#ff0000;stroke-linejoin:miter;" x="1183.316618" xlink:href="#me15b07c0ce" y="361.865915"/>
     <use style="fill:#ff0000;stroke:#ff0000;stroke-linejoin:miter;" x="1194.294486" xlink:href="#me15b07c0ce" y="349.56169"/>
     <use style="fill:#ff0000;stroke:#ff0000;stroke-linejoin:miter;" x="1204.282716" xlink:href="#me15b07c0ce" y="379.849014"/>
     <use style="fill:#ff0000;stroke:#ff0000;stroke-linejoin:miter;" x="1214.324522" xlink:href="#me15b07c0ce" y="401.618028"/>
     <use style="fill:#ff0000;stroke:#ff0000;stroke-linejoin:miter;" x="1225.224322" xlink:href="#me15b07c0ce" y="305.077183"/>
     <use style="fill:#ff0000;stroke:#ff0000;stroke-linejoin:miter;" x="1235.231686" xlink:href="#me15b07c0ce" y="425.28"/>
     <use style="fill:#ff0000;stroke:#ff0000;stroke-linejoin:miter;" x="1245.272727" xlink:href="#me15b07c0ce" y="404.457465"/>
    </g>
   </g>
   <g id="line2d_14">
    <path clip-path="url(#p9bd48327b1)" d="M 230.727273 343.882817 
L 240.692541 382.688451 
L 250.561371 409.189859 
L 260.598586 433.79831 
L 270.454405 450.83493 
L 280.867421 418.654648 
L 290.748498 446.102535 
L 300.601255 455.567324 
L 311.313536 454.620845 
L 321.254312 443.263099 
L 331.114723 449.888451 
L 340.992738 429.065915 
L 350.90443 492.48 
L 360.73346 451.781408 
L 370.616833 436.637746 
L 381.385752 416.76169 
L 391.293617 423.387042 
L 401.235158 426.226479 
L 411.133838 458.406761 
L 421.017976 288.040563 
L 430.92278 436.637746 
L 440.867383 456.513803 
L 450.598444 472.603944 
L 460.159591 432.851831 
L 469.982499 445.156056 
L 480.897606 454.620845 
L 491.119277 394.046197 
L 502.607655 413.922254 
L 514.702215 431.905352 
L 525.858417 422.440563 
L 536.029573 89.28 
L 546.020864 456.513803 
L 556.034352 461.246197 
L 566.179485 419.601127 
L 576.157765 400.671549 
L 586.092418 422.440563 
L 596.182444 444.209577 
L 606.957486 421.494085 
L 616.870708 422.440563 
L 626.816842 422.440563 
L 637.565861 312.649014 
L 647.485207 430.958873 
L 657.399195 413.922254 
L 668.414567 336.310986 
L 678.328554 417.708169 
L 688.236419 430.012394 
L 699.340575 284.254648 
L 709.256094 384.581408 
L 719.257335 416.76169 
L 730.213773 397.832113 
L 740.182103 408.24338 
L 750.259117 419.601127 
L 761.155089 344.829296 
L 771.090508 364.705352 
L 781.009854 404.457465 
L 791.975476 403.510986 
L 801.948398 428.119437 
L 811.863917 413.922254 
L 822.873165 431.905352 
L 832.813176 425.28 
L 842.724103 437.584225 
L 853.979039 414.868732 
L 863.977984 410.136338 
L 873.973102 434.744789 
L 884.834633 331.578592 
L 894.753213 321.167324 
L 904.784304 406.350423 
L 915.819576 438.530704 
L 925.738921 439.477183 
L 935.858797 414.868732 
L 947.081587 373.223662 
L 957.052979 412.975775 
L 967.123104 389.313803 
L 978.009892 372.277183 
L 988.008072 324.953239 
L 998.121059 406.350423 
L 1008.870844 374.170141 
L 1018.853716 389.313803 
L 1028.997318 306.023662 
L 1039.727968 318.327887 
L 1049.713137 386.474366 
L 1059.757239 364.705352 
L 1070.616473 443.263099 
L 1080.613888 397.832113 
L 1090.688606 425.28 
L 1101.491967 465.032113 
L 1111.503924 415.815211 
L 1121.508227 381.741972 
L 1132.306996 419.601127 
L 1142.296756 393.099718 
L 1152.330144 403.510986 
L 1163.331739 387.420845 
L 1173.292415 392.153239 
L 1183.316618 361.865915 
L 1194.294486 349.56169 
L 1204.282716 379.849014 
L 1214.324522 401.618028 
L 1225.224322 305.077183 
L 1235.231686 425.28 
L 1245.272727 404.457465 
" style="fill:none;stroke:#800080;stroke-dasharray:9.6,2.4,1.5,2.4;stroke-dashoffset:0;stroke-width:1.5;"/>
    <defs>
     <path d="M -3 3 
L 3 -3 
M -3 -3 
L 3 3 
" id="mb3b96858a2" style="stroke:#800080;"/>
    </defs>
    <g clip-path="url(#p9bd48327b1)">
     <use style="fill:#800080;stroke:#800080;" x="230.727273" xlink:href="#mb3b96858a2" y="343.882817"/>
     <use style="fill:#800080;stroke:#800080;" x="240.692541" xlink:href="#mb3b96858a2" y="382.688451"/>
     <use style="fill:#800080;stroke:#800080;" x="250.561371" xlink:href="#mb3b96858a2" y="409.189859"/>
     <use style="fill:#800080;stroke:#800080;" x="260.598586" xlink:href="#mb3b96858a2" y="433.79831"/>
     <use style="fill:#800080;stroke:#800080;" x="270.454405" xlink:href="#mb3b96858a2" y="450.83493"/>
     <use style="fill:#800080;stroke:#800080;" x="280.867421" xlink:href="#mb3b96858a2" y="418.654648"/>
     <use style="fill:#800080;stroke:#800080;" x="290.748498" xlink:href="#mb3b96858a2" y="446.102535"/>
     <use style="fill:#800080;stroke:#800080;" x="300.601255" xlink:href="#mb3b96858a2" y="455.567324"/>
     <use style="fill:#800080;stroke:#800080;" x="311.313536" xlink:href="#mb3b96858a2" y="454.620845"/>
     <use style="fill:#800080;stroke:#800080;" x="321.254312" xlink:href="#mb3b96858a2" y="443.263099"/>
     <use style="fill:#800080;stroke:#800080;" x="331.114723" xlink:href="#mb3b96858a2" y="449.888451"/>
     <use style="fill:#800080;stroke:#800080;" x="340.992738" xlink:href="#mb3b96858a2" y="429.065915"/>
     <use style="fill:#800080;stroke:#800080;" x="350.90443" xlink:href="#mb3b96858a2" y="492.48"/>
     <use style="fill:#800080;stroke:#800080;" x="360.73346" xlink:href="#mb3b96858a2" y="451.781408"/>
     <use style="fill:#800080;stroke:#800080;" x="370.616833" xlink:href="#mb3b96858a2" y="436.637746"/>
     <use style="fill:#800080;stroke:#800080;" x="381.385752" xlink:href="#mb3b96858a2" y="416.76169"/>
     <use style="fill:#800080;stroke:#800080;" x="391.293617" xlink:href="#mb3b96858a2" y="423.387042"/>
     <use style="fill:#800080;stroke:#800080;" x="401.235158" xlink:href="#mb3b96858a2" y="426.226479"/>
     <use style="fill:#800080;stroke:#800080;" x="411.133838" xlink:href="#mb3b96858a2" y="458.406761"/>
     <use style="fill:#800080;stroke:#800080;" x="421.017976" xlink:href="#mb3b96858a2" y="288.040563"/>
     <use style="fill:#800080;stroke:#800080;" x="430.92278" xlink:href="#mb3b96858a2" y="436.637746"/>
     <use style="fill:#800080;stroke:#800080;" x="440.867383" xlink:href="#mb3b96858a2" y="456.513803"/>
     <use style="fill:#800080;stroke:#800080;" x="450.598444" xlink:href="#mb3b96858a2" y="472.603944"/>
     <use style="fill:#800080;stroke:#800080;" x="460.159591" xlink:href="#mb3b96858a2" y="432.851831"/>
     <use style="fill:#800080;stroke:#800080;" x="469.982499" xlink:href="#mb3b96858a2" y="445.156056"/>
     <use style="fill:#800080;stroke:#800080;" x="480.897606" xlink:href="#mb3b96858a2" y="454.620845"/>
     <use style="fill:#800080;stroke:#800080;" x="491.119277" xlink:href="#mb3b96858a2" y="394.046197"/>
     <use style="fill:#800080;stroke:#800080;" x="502.607655" xlink:href="#mb3b96858a2" y="413.922254"/>
     <use style="fill:#800080;stroke:#800080;" x="514.702215" xlink:href="#mb3b96858a2" y="431.905352"/>
     <use style="fill:#800080;stroke:#800080;" x="525.858417" xlink:href="#mb3b96858a2" y="422.440563"/>
     <use style="fill:#800080;stroke:#800080;" x="536.029573" xlink:href="#mb3b96858a2" y="89.28"/>
     <use style="fill:#800080;stroke:#800080;" x="546.020864" xlink:href="#mb3b96858a2" y="456.513803"/>
     <use style="fill:#800080;stroke:#800080;" x="556.034352" xlink:href="#mb3b96858a2" y="461.246197"/>
     <use style="fill:#800080;stroke:#800080;" x="566.179485" xlink:href="#mb3b96858a2" y="419.601127"/>
     <use style="fill:#800080;stroke:#800080;" x="576.157765" xlink:href="#mb3b96858a2" y="400.671549"/>
     <use style="fill:#800080;stroke:#800080;" x="586.092418" xlink:href="#mb3b96858a2" y="422.440563"/>
     <use style="fill:#800080;stroke:#800080;" x="596.182444" xlink:href="#mb3b96858a2" y="444.209577"/>
     <use style="fill:#800080;stroke:#800080;" x="606.957486" xlink:href="#mb3b96858a2" y="421.494085"/>
     <use style="fill:#800080;stroke:#800080;" x="616.870708" xlink:href="#mb3b96858a2" y="422.440563"/>
     <use style="fill:#800080;stroke:#800080;" x="626.816842" xlink:href="#mb3b96858a2" y="422.440563"/>
     <use style="fill:#800080;stroke:#800080;" x="637.565861" xlink:href="#mb3b96858a2" y="312.649014"/>
     <use style="fill:#800080;stroke:#800080;" x="647.485207" xlink:href="#mb3b96858a2" y="430.958873"/>
     <use style="fill:#800080;stroke:#800080;" x="657.399195" xlink:href="#mb3b96858a2" y="413.922254"/>
     <use style="fill:#800080;stroke:#800080;" x="668.414567" xlink:href="#mb3b96858a2" y="336.310986"/>
     <use style="fill:#800080;stroke:#800080;" x="678.328554" xlink:href="#mb3b96858a2" y="417.708169"/>
     <use style="fill:#800080;stroke:#800080;" x="688.236419" xlink:href="#mb3b96858a2" y="430.012394"/>
     <use style="fill:#800080;stroke:#800080;" x="699.340575" xlink:href="#mb3b96858a2" y="284.254648"/>
     <use style="fill:#800080;stroke:#800080;" x="709.256094" xlink:href="#mb3b96858a2" y="384.581408"/>
     <use style="fill:#800080;stroke:#800080;" x="719.257335" xlink:href="#mb3b96858a2" y="416.76169"/>
     <use style="fill:#800080;stroke:#800080;" x="730.213773" xlink:href="#mb3b96858a2" y="397.832113"/>
     <use style="fill:#800080;stroke:#800080;" x="740.182103" xlink:href="#mb3b96858a2" y="408.24338"/>
     <use style="fill:#800080;stroke:#800080;" x="750.259117" xlink:href="#mb3b96858a2" y="419.601127"/>
     <use style="fill:#800080;stroke:#800080;" x="761.155089" xlink:href="#mb3b96858a2" y="344.829296"/>
     <use style="fill:#800080;stroke:#800080;" x="771.090508" xlink:href="#mb3b96858a2" y="364.705352"/>
     <use style="fill:#800080;stroke:#800080;" x="781.009854" xlink:href="#mb3b96858a2" y="404.457465"/>
     <use style="fill:#800080;stroke:#800080;" x="791.975476" xlink:href="#mb3b96858a2" y="403.510986"/>
     <use style="fill:#800080;stroke:#800080;" x="801.948398" xlink:href="#mb3b96858a2" y="428.119437"/>
     <use style="fill:#800080;stroke:#800080;" x="811.863917" xlink:href="#mb3b96858a2" y="413.922254"/>
     <use style="fill:#800080;stroke:#800080;" x="822.873165" xlink:href="#mb3b96858a2" y="431.905352"/>
     <use style="fill:#800080;stroke:#800080;" x="832.813176" xlink:href="#mb3b96858a2" y="425.28"/>
     <use style="fill:#800080;stroke:#800080;" x="842.724103" xlink:href="#mb3b96858a2" y="437.584225"/>
     <use style="fill:#800080;stroke:#800080;" x="853.979039" xlink:href="#mb3b96858a2" y="414.868732"/>
     <use style="fill:#800080;stroke:#800080;" x="863.977984" xlink:href="#mb3b96858a2" y="410.136338"/>
     <use style="fill:#800080;stroke:#800080;" x="873.973102" xlink:href="#mb3b96858a2" y="434.744789"/>
     <use style="fill:#800080;stroke:#800080;" x="884.834633" xlink:href="#mb3b96858a2" y="331.578592"/>
     <use style="fill:#800080;stroke:#800080;" x="894.753213" xlink:href="#mb3b96858a2" y="321.167324"/>
     <use style="fill:#800080;stroke:#800080;" x="904.784304" xlink:href="#mb3b96858a2" y="406.350423"/>
     <use style="fill:#800080;stroke:#800080;" x="915.819576" xlink:href="#mb3b96858a2" y="438.530704"/>
     <use style="fill:#800080;stroke:#800080;" x="925.738921" xlink:href="#mb3b96858a2" y="439.477183"/>
     <use style="fill:#800080;stroke:#800080;" x="935.858797" xlink:href="#mb3b96858a2" y="414.868732"/>
     <use style="fill:#800080;stroke:#800080;" x="947.081587" xlink:href="#mb3b96858a2" y="373.223662"/>
     <use style="fill:#800080;stroke:#800080;" x="957.052979" xlink:href="#mb3b96858a2" y="412.975775"/>
     <use style="fill:#800080;stroke:#800080;" x="967.123104" xlink:href="#mb3b96858a2" y="389.313803"/>
     <use style="fill:#800080;stroke:#800080;" x="978.009892" xlink:href="#mb3b96858a2" y="372.277183"/>
     <use style="fill:#800080;stroke:#800080;" x="988.008072" xlink:href="#mb3b96858a2" y="324.953239"/>
     <use style="fill:#800080;stroke:#800080;" x="998.121059" xlink:href="#mb3b96858a2" y="406.350423"/>
     <use style="fill:#800080;stroke:#800080;" x="1008.870844" xlink:href="#mb3b96858a2" y="374.170141"/>
     <use style="fill:#800080;stroke:#800080;" x="1018.853716" xlink:href="#mb3b96858a2" y="389.313803"/>
     <use style="fill:#800080;stroke:#800080;" x="1028.997318" xlink:href="#mb3b96858a2" y="306.023662"/>
     <use style="fill:#800080;stroke:#800080;" x="1039.727968" xlink:href="#mb3b96858a2" y="318.327887"/>
     <use style="fill:#800080;stroke:#800080;" x="1049.713137" xlink:href="#mb3b96858a2" y="386.474366"/>
     <use style="fill:#800080;stroke:#800080;" x="1059.757239" xlink:href="#mb3b96858a2" y="364.705352"/>
     <use style="fill:#800080;stroke:#800080;" x="1070.616473" xlink:href="#mb3b96858a2" y="443.263099"/>
     <use style="fill:#800080;stroke:#800080;" x="1080.613888" xlink:href="#mb3b96858a2" y="397.832113"/>
     <use style="fill:#800080;stroke:#800080;" x="1090.688606" xlink:href="#mb3b96858a2" y="425.28"/>
     <use style="fill:#800080;stroke:#800080;" x="1101.491967" xlink:href="#mb3b96858a2" y="465.032113"/>
     <use style="fill:#800080;stroke:#800080;" x="1111.503924" xlink:href="#mb3b96858a2" y="415.815211"/>
     <use style="fill:#800080;stroke:#800080;" x="1121.508227" xlink:href="#mb3b96858a2" y="381.741972"/>
     <use style="fill:#800080;stroke:#800080;" x="1132.306996" xlink:href="#mb3b96858a2" y="419.601127"/>
     <use style="fill:#800080;stroke:#800080;" x="1142.296756" xlink:href="#mb3b96858a2" y="393.099718"/>
     <use style="fill:#800080;stroke:#800080;" x="1152.330144" xlink:href="#mb3b96858a2" y="403.510986"/>
     <use style="fill:#800080;stroke:#800080;" x="1163.331739" xlink:href="#mb3b96858a2" y="387.420845"/>
     <use style="fill:#800080;stroke:#800080;" x="1173.292415" xlink:href="#mb3b96858a2" y="392.153239"/>
     <use style="fill:#800080;stroke:#800080;" x="1183.316618" xlink:href="#mb3b96858a2" y="361.865915"/>
     <use style="fill:#800080;stroke:#800080;" x="1194.294486" xlink:href="#mb3b96858a2" y="349.56169"/>
     <use style="fill:#800080;stroke:#800080;" x="1204.282716" xlink:href="#mb3b96858a2" y="379.849014"/>
     <use style="fill:#800080;stroke:#800080;" x="1214.324522" xlink:href="#mb3b96858a2" y="401.618028"/>
     <use style="fill:#800080;stroke:#800080;" x="1225.224322" xlink:href="#mb3b96858a2" y="305.077183"/>
     <use style="fill:#800080;stroke:#800080;" x="1235.231686" xlink:href="#mb3b96858a2" y="425.28"/>
     <use style="fill:#800080;stroke:#800080;" x="1245.272727" xlink:href="#mb3b96858a2" y="404.457465"/>
    </g>
   </g>
   <g id="line2d_15">
    <path clip-path="url(#p9bd48327b1)" d="M 230.727273 426.492612 
L 240.692541 426.033384 
L 250.561371 425.578601 
L 260.598586 425.116057 
L 270.454405 424.661873 
L 280.867421 424.182012 
L 290.748498 423.726663 
L 300.601255 423.27262 
L 311.313536 422.778968 
L 321.254312 422.320869 
L 331.114723 421.866473 
L 340.992738 421.411266 
L 350.90443 420.954507 
L 360.73346 420.501557 
L 370.616833 420.046103 
L 381.385752 419.54984 
L 391.293617 419.093258 
L 401.235158 418.635123 
L 411.133838 418.178964 
L 421.017976 417.723475 
L 430.92278 417.267033 
L 440.867383 416.808757 
L 450.598444 416.360322 
L 460.159591 415.919717 
L 469.982499 415.46705 
L 480.897606 414.964051 
L 491.119277 414.493007 
L 502.607655 413.96359 
L 514.702215 413.406238 
L 525.858417 412.892128 
L 536.029573 412.423413 
L 546.020864 411.962985 
L 556.034352 411.501535 
L 566.179485 411.034019 
L 576.157765 410.574191 
L 586.092418 410.116374 
L 596.182444 409.651397 
L 606.957486 409.154852 
L 616.870708 408.698023 
L 626.816842 408.239676 
L 637.565861 407.744331 
L 647.485207 407.287219 
L 657.399195 406.830355 
L 668.414567 406.322735 
L 678.328554 405.86587 
L 688.236419 405.409287 
L 699.340575 404.897576 
L 709.256094 404.440641 
L 719.257335 403.979755 
L 730.213773 403.474851 
L 740.182103 403.015482 
L 750.259117 402.551105 
L 761.155089 402.048987 
L 771.090508 401.591135 
L 781.009854 401.134023 
L 791.975476 400.628696 
L 801.948398 400.169115 
L 811.863917 399.71218 
L 822.873165 399.204842 
L 832.813176 398.746778 
L 842.724103 398.290055 
L 853.979039 397.771395 
L 863.977984 397.310615 
L 873.973102 396.850012 
L 884.834633 396.349482 
L 894.753213 395.892405 
L 904.784304 395.430144 
L 915.819576 394.921607 
L 925.738921 394.464495 
L 935.858797 393.998143 
L 947.081587 393.480964 
L 957.052979 393.021454 
L 967.123104 392.557394 
L 978.009892 392.0557 
L 988.008072 391.594955 
L 998.121059 391.12892 
L 1008.870844 390.633539 
L 1018.853716 390.1735 
L 1028.997318 389.706054 
L 1039.727968 389.211555 
L 1049.713137 388.75141 
L 1059.757239 388.288549 
L 1070.616473 387.788125 
L 1080.613888 387.327416 
L 1090.688606 386.863144 
L 1101.491967 386.365294 
L 1111.503924 385.903915 
L 1121.508227 385.442888 
L 1132.306996 384.94525 
L 1142.296756 384.484893 
L 1152.330144 384.022526 
L 1163.331739 383.515541 
L 1173.292415 383.056525 
L 1183.316618 382.594581 
L 1194.294486 382.08869 
L 1204.282716 381.628404 
L 1214.324522 381.165649 
L 1225.224322 380.663355 
L 1235.231686 380.202187 
L 1245.272727 379.739467 
" style="fill:none;stroke:#0000ff;stroke-linecap:square;stroke-width:1.5;"/>
   </g>
   <g id="line2d_16">
    <path clip-path="url(#p9bd48327b1)" d="M 230.727273 426.70331 
L 240.692541 426.234951 
L 250.561371 425.771123 
L 260.598586 425.299382 
L 270.454405 424.836167 
L 280.867421 424.346763 
L 290.748498 423.882361 
L 300.601255 423.419289 
L 311.313536 422.91582 
L 321.254312 422.448612 
L 331.114723 421.98518 
L 340.992738 421.520921 
L 350.90443 421.05508 
L 360.73346 420.593123 
L 370.616833 420.128613 
L 381.385752 419.622482 
L 391.293617 419.15682 
L 401.235158 418.689576 
L 411.133838 418.224346 
L 421.017976 417.759799 
L 430.92278 417.294281 
L 440.867383 416.826893 
L 450.598444 416.369541 
L 460.159591 415.920174 
L 469.982499 415.458505 
L 480.897606 414.945504 
L 491.119277 414.465094 
L 502.607655 413.925149 
L 514.702215 413.356714 
L 525.858417 412.832382 
L 536.029573 412.354346 
L 546.020864 411.884763 
L 556.034352 411.414137 
L 566.179485 410.937324 
L 576.157765 410.468353 
L 586.092418 410.001432 
L 596.182444 409.527209 
L 606.957486 409.02079 
L 616.870708 408.554877 
L 626.816842 408.087416 
L 637.565861 407.582221 
L 647.485207 407.11602 
L 657.399195 406.65007 
L 668.414567 406.132357 
L 678.328554 405.666407 
L 688.236419 405.200745 
L 699.340575 404.678859 
L 709.256094 404.212837 
L 719.257335 403.742787 
L 730.213773 403.227843 
L 740.182103 402.75934 
L 750.259117 402.285728 
L 761.155089 401.773626 
L 771.090508 401.306669 
L 781.009854 400.840468 
L 791.975476 400.325092 
L 801.948398 399.856373 
L 811.863917 399.390351 
L 822.873165 398.872926 
L 832.813176 398.405753 
L 842.724103 397.939947 
L 853.979039 397.410974 
L 863.977984 396.941032 
L 873.973102 396.471269 
L 884.834633 395.960786 
L 894.753213 395.494621 
L 904.784304 395.023167 
L 915.819576 394.504518 
L 925.738921 394.038317 
L 935.858797 393.562691 
L 947.081587 393.035229 
L 957.052979 392.566581 
L 967.123104 392.093293 
L 978.009892 391.581623 
L 988.008072 391.111717 
L 998.121059 390.636414 
L 1008.870844 390.131183 
L 1018.853716 389.661996 
L 1028.997318 389.185255 
L 1039.727968 388.680923 
L 1049.713137 388.211628 
L 1059.757239 387.739563 
L 1070.616473 387.229188 
L 1080.613888 386.759317 
L 1090.688606 386.285813 
L 1101.491967 385.778064 
L 1111.503924 385.30751 
L 1121.508227 384.837316 
L 1132.306996 384.329782 
L 1142.296756 383.860271 
L 1152.330144 383.38871 
L 1163.331739 382.871644 
L 1173.292415 382.4035 
L 1183.316618 381.932371 
L 1194.294486 381.41642 
L 1204.282716 380.946981 
L 1214.324522 380.475024 
L 1225.224322 379.962742 
L 1235.231686 379.492404 
L 1245.272727 379.020483 
" style="fill:none;stroke:#008000;stroke-linecap:square;stroke-width:1.5;"/>
    <defs>
     <path d="M 0 3 
C 0.795609 3 1.55874 2.683901 2.12132 2.12132 
C 2.683901 1.55874 3 0.795609 3 0 
C 3 -0.795609 2.683901 -1.55874 2.12132 -2.12132 
C 1.55874 -2.683901 0.795609 -3 0 -3 
C -0.795609 -3 -1.55874 -2.683901 -2.12132 -2.12132 
C -2.683901 -1.55874 -3 -0.795609 -3 0 
C -3 0.795609 -2.683901 1.55874 -2.12132 2.12132 
C -1.55874 2.683901 -0.795609 3 0 3 
z
" id="mdd010f5f37" style="stroke:#008000;"/>
    </defs>
    <g clip-path="url(#p9bd48327b1)">
     <use style="fill:#008000;stroke:#008000;" x="230.727273" xlink:href="#mdd010f5f37" y="426.70331"/>
     <use style="fill:#008000;stroke:#008000;" x="240.692541" xlink:href="#mdd010f5f37" y="426.234951"/>
     <use style="fill:#008000;stroke:#008000;" x="250.561371" xlink:href="#mdd010f5f37" y="425.771123"/>
     <use style="fill:#008000;stroke:#008000;" x="260.598586" xlink:href="#mdd010f5f37" y="425.299382"/>
     <use style="fill:#008000;stroke:#008000;" x="270.454405" xlink:href="#mdd010f5f37" y="424.836167"/>
     <use style="fill:#008000;stroke:#008000;" x="280.867421" xlink:href="#mdd010f5f37" y="424.346763"/>
     <use style="fill:#008000;stroke:#008000;" x="290.748498" xlink:href="#mdd010f5f37" y="423.882361"/>
     <use style="fill:#008000;stroke:#008000;" x="300.601255" xlink:href="#mdd010f5f37" y="423.419289"/>
     <use style="fill:#008000;stroke:#008000;" x="311.313536" xlink:href="#mdd010f5f37" y="422.91582"/>
     <use style="fill:#008000;stroke:#008000;" x="321.254312" xlink:href="#mdd010f5f37" y="422.448612"/>
     <use style="fill:#008000;stroke:#008000;" x="331.114723" xlink:href="#mdd010f5f37" y="421.98518"/>
     <use style="fill:#008000;stroke:#008000;" x="340.992738" xlink:href="#mdd010f5f37" y="421.520921"/>
     <use style="fill:#008000;stroke:#008000;" x="350.90443" xlink:href="#mdd010f5f37" y="421.05508"/>
     <use style="fill:#008000;stroke:#008000;" x="360.73346" xlink:href="#mdd010f5f37" y="420.593123"/>
     <use style="fill:#008000;stroke:#008000;" x="370.616833" xlink:href="#mdd010f5f37" y="420.128613"/>
     <use style="fill:#008000;stroke:#008000;" x="381.385752" xlink:href="#mdd010f5f37" y="419.622482"/>
     <use style="fill:#008000;stroke:#008000;" x="391.293617" xlink:href="#mdd010f5f37" y="419.15682"/>
     <use style="fill:#008000;stroke:#008000;" x="401.235158" xlink:href="#mdd010f5f37" y="418.689576"/>
     <use style="fill:#008000;stroke:#008000;" x="411.133838" xlink:href="#mdd010f5f37" y="418.224346"/>
     <use style="fill:#008000;stroke:#008000;" x="421.017976" xlink:href="#mdd010f5f37" y="417.759799"/>
     <use style="fill:#008000;stroke:#008000;" x="430.92278" xlink:href="#mdd010f5f37" y="417.294281"/>
     <use style="fill:#008000;stroke:#008000;" x="440.867383" xlink:href="#mdd010f5f37" y="416.826893"/>
     <use style="fill:#008000;stroke:#008000;" x="450.598444" xlink:href="#mdd010f5f37" y="416.369541"/>
     <use style="fill:#008000;stroke:#008000;" x="460.159591" xlink:href="#mdd010f5f37" y="415.920174"/>
     <use style="fill:#008000;stroke:#008000;" x="469.982499" xlink:href="#mdd010f5f37" y="415.458505"/>
     <use style="fill:#008000;stroke:#008000;" x="480.897606" xlink:href="#mdd010f5f37" y="414.945504"/>
     <use style="fill:#008000;stroke:#008000;" x="491.119277" xlink:href="#mdd010f5f37" y="414.465094"/>
     <use style="fill:#008000;stroke:#008000;" x="502.607655" xlink:href="#mdd010f5f37" y="413.925149"/>
     <use style="fill:#008000;stroke:#008000;" x="514.702215" xlink:href="#mdd010f5f37" y="413.356714"/>
     <use style="fill:#008000;stroke:#008000;" x="525.858417" xlink:href="#mdd010f5f37" y="412.832382"/>
     <use style="fill:#008000;stroke:#008000;" x="536.029573" xlink:href="#mdd010f5f37" y="412.354346"/>
     <use style="fill:#008000;stroke:#008000;" x="546.020864" xlink:href="#mdd010f5f37" y="411.884763"/>
     <use style="fill:#008000;stroke:#008000;" x="556.034352" xlink:href="#mdd010f5f37" y="411.414137"/>
     <use style="fill:#008000;stroke:#008000;" x="566.179485" xlink:href="#mdd010f5f37" y="410.937324"/>
     <use style="fill:#008000;stroke:#008000;" x="576.157765" xlink:href="#mdd010f5f37" y="410.468353"/>
     <use style="fill:#008000;stroke:#008000;" x="586.092418" xlink:href="#mdd010f5f37" y="410.001432"/>
     <use style="fill:#008000;stroke:#008000;" x="596.182444" xlink:href="#mdd010f5f37" y="409.527209"/>
     <use style="fill:#008000;stroke:#008000;" x="606.957486" xlink:href="#mdd010f5f37" y="409.02079"/>
     <use style="fill:#008000;stroke:#008000;" x="616.870708" xlink:href="#mdd010f5f37" y="408.554877"/>
     <use style="fill:#008000;stroke:#008000;" x="626.816842" xlink:href="#mdd010f5f37" y="408.087416"/>
     <use style="fill:#008000;stroke:#008000;" x="637.565861" xlink:href="#mdd010f5f37" y="407.582221"/>
     <use style="fill:#008000;stroke:#008000;" x="647.485207" xlink:href="#mdd010f5f37" y="407.11602"/>
     <use style="fill:#008000;stroke:#008000;" x="657.399195" xlink:href="#mdd010f5f37" y="406.65007"/>
     <use style="fill:#008000;stroke:#008000;" x="668.414567" xlink:href="#mdd010f5f37" y="406.132357"/>
     <use style="fill:#008000;stroke:#008000;" x="678.328554" xlink:href="#mdd010f5f37" y="405.666407"/>
     <use style="fill:#008000;stroke:#008000;" x="688.236419" xlink:href="#mdd010f5f37" y="405.200745"/>
     <use style="fill:#008000;stroke:#008000;" x="699.340575" xlink:href="#mdd010f5f37" y="404.678859"/>
     <use style="fill:#008000;stroke:#008000;" x="709.256094" xlink:href="#mdd010f5f37" y="404.212837"/>
     <use style="fill:#008000;stroke:#008000;" x="719.257335" xlink:href="#mdd010f5f37" y="403.742787"/>
     <use style="fill:#008000;stroke:#008000;" x="730.213773" xlink:href="#mdd010f5f37" y="403.227843"/>
     <use style="fill:#008000;stroke:#008000;" x="740.182103" xlink:href="#mdd010f5f37" y="402.75934"/>
     <use style="fill:#008000;stroke:#008000;" x="750.259117" xlink:href="#mdd010f5f37" y="402.285728"/>
     <use style="fill:#008000;stroke:#008000;" x="761.155089" xlink:href="#mdd010f5f37" y="401.773626"/>
     <use style="fill:#008000;stroke:#008000;" x="771.090508" xlink:href="#mdd010f5f37" y="401.306669"/>
     <use style="fill:#008000;stroke:#008000;" x="781.009854" xlink:href="#mdd010f5f37" y="400.840468"/>
     <use style="fill:#008000;stroke:#008000;" x="791.975476" xlink:href="#mdd010f5f37" y="400.325092"/>
     <use style="fill:#008000;stroke:#008000;" x="801.948398" xlink:href="#mdd010f5f37" y="399.856373"/>
     <use style="fill:#008000;stroke:#008000;" x="811.863917" xlink:href="#mdd010f5f37" y="399.390351"/>
     <use style="fill:#008000;stroke:#008000;" x="822.873165" xlink:href="#mdd010f5f37" y="398.872926"/>
     <use style="fill:#008000;stroke:#008000;" x="832.813176" xlink:href="#mdd010f5f37" y="398.405753"/>
     <use style="fill:#008000;stroke:#008000;" x="842.724103" xlink:href="#mdd010f5f37" y="397.939947"/>
     <use style="fill:#008000;stroke:#008000;" x="853.979039" xlink:href="#mdd010f5f37" y="397.410974"/>
     <use style="fill:#008000;stroke:#008000;" x="863.977984" xlink:href="#mdd010f5f37" y="396.941032"/>
     <use style="fill:#008000;stroke:#008000;" x="873.973102" xlink:href="#mdd010f5f37" y="396.471269"/>
     <use style="fill:#008000;stroke:#008000;" x="884.834633" xlink:href="#mdd010f5f37" y="395.960786"/>
     <use style="fill:#008000;stroke:#008000;" x="894.753213" xlink:href="#mdd010f5f37" y="395.494621"/>
     <use style="fill:#008000;stroke:#008000;" x="904.784304" xlink:href="#mdd010f5f37" y="395.023167"/>
     <use style="fill:#008000;stroke:#008000;" x="915.819576" xlink:href="#mdd010f5f37" y="394.504518"/>
     <use style="fill:#008000;stroke:#008000;" x="925.738921" xlink:href="#mdd010f5f37" y="394.038317"/>
     <use style="fill:#008000;stroke:#008000;" x="935.858797" xlink:href="#mdd010f5f37" y="393.562691"/>
     <use style="fill:#008000;stroke:#008000;" x="947.081587" xlink:href="#mdd010f5f37" y="393.035229"/>
     <use style="fill:#008000;stroke:#008000;" x="957.052979" xlink:href="#mdd010f5f37" y="392.566581"/>
     <use style="fill:#008000;stroke:#008000;" x="967.123104" xlink:href="#mdd010f5f37" y="392.093293"/>
     <use style="fill:#008000;stroke:#008000;" x="978.009892" xlink:href="#mdd010f5f37" y="391.581623"/>
     <use style="fill:#008000;stroke:#008000;" x="988.008072" xlink:href="#mdd010f5f37" y="391.111717"/>
     <use style="fill:#008000;stroke:#008000;" x="998.121059" xlink:href="#mdd010f5f37" y="390.636414"/>
     <use style="fill:#008000;stroke:#008000;" x="1008.870844" xlink:href="#mdd010f5f37" y="390.131183"/>
     <use style="fill:#008000;stroke:#008000;" x="1018.853716" xlink:href="#mdd010f5f37" y="389.661996"/>
     <use style="fill:#008000;stroke:#008000;" x="1028.997318" xlink:href="#mdd010f5f37" y="389.185255"/>
     <use style="fill:#008000;stroke:#008000;" x="1039.727968" xlink:href="#mdd010f5f37" y="388.680923"/>
     <use style="fill:#008000;stroke:#008000;" x="1049.713137" xlink:href="#mdd010f5f37" y="388.211628"/>
     <use style="fill:#008000;stroke:#008000;" x="1059.757239" xlink:href="#mdd010f5f37" y="387.739563"/>
     <use style="fill:#008000;stroke:#008000;" x="1070.616473" xlink:href="#mdd010f5f37" y="387.229188"/>
     <use style="fill:#008000;stroke:#008000;" x="1080.613888" xlink:href="#mdd010f5f37" y="386.759317"/>
     <use style="fill:#008000;stroke:#008000;" x="1090.688606" xlink:href="#mdd010f5f37" y="386.285813"/>
     <use style="fill:#008000;stroke:#008000;" x="1101.491967" xlink:href="#mdd010f5f37" y="385.778064"/>
     <use style="fill:#008000;stroke:#008000;" x="1111.503924" xlink:href="#mdd010f5f37" y="385.30751"/>
     <use style="fill:#008000;stroke:#008000;" x="1121.508227" xlink:href="#mdd010f5f37" y="384.837316"/>
     <use style="fill:#008000;stroke:#008000;" x="1132.306996" xlink:href="#mdd010f5f37" y="384.329782"/>
     <use style="fill:#008000;stroke:#008000;" x="1142.296756" xlink:href="#mdd010f5f37" y="383.860271"/>
     <use style="fill:#008000;stroke:#008000;" x="1152.330144" xlink:href="#mdd010f5f37" y="383.38871"/>
     <use style="fill:#008000;stroke:#008000;" x="1163.331739" xlink:href="#mdd010f5f37" y="382.871644"/>
     <use style="fill:#008000;stroke:#008000;" x="1173.292415" xlink:href="#mdd010f5f37" y="382.4035"/>
     <use style="fill:#008000;stroke:#008000;" x="1183.316618" xlink:href="#mdd010f5f37" y="381.932371"/>
     <use style="fill:#008000;stroke:#008000;" x="1194.294486" xlink:href="#mdd010f5f37" y="381.41642"/>
     <use style="fill:#008000;stroke:#008000;" x="1204.282716" xlink:href="#mdd010f5f37" y="380.946981"/>
     <use style="fill:#008000;stroke:#008000;" x="1214.324522" xlink:href="#mdd010f5f37" y="380.475024"/>
     <use style="fill:#008000;stroke:#008000;" x="1225.224322" xlink:href="#mdd010f5f37" y="379.962742"/>
     <use style="fill:#008000;stroke:#008000;" x="1235.231686" xlink:href="#mdd010f5f37" y="379.492404"/>
     <use style="fill:#008000;stroke:#008000;" x="1245.272727" xlink:href="#mdd010f5f37" y="379.020483"/>
    </g>
   </g>
   <g id="patch_3">
    <path d="M 180 512.64 
L 180 69.12 
" style="fill:none;stroke:#000000;stroke-linecap:square;stroke-linejoin:miter;stroke-width:0.8;"/>
   </g>
   <g id="patch_4">
    <path d="M 1296 512.64 
L 1296 69.12 
" style="fill:none;stroke:#000000;stroke-linecap:square;stroke-linejoin:miter;stroke-width:0.8;"/>
   </g>
   <g id="patch_5">
    <path d="M 180 512.64 
L 1296 512.64 
" style="fill:none;stroke:#000000;stroke-linecap:square;stroke-linejoin:miter;stroke-width:0.8;"/>
   </g>
   <g id="patch_6">
    <path d="M 180 69.12 
L 1296 69.12 
" style="fill:none;stroke:#000000;stroke-linecap:square;stroke-linejoin:miter;stroke-width:0.8;"/>
   </g>
   <g id="text_13">
    <!-- 500000.0 bit/s -->
    <defs>
     <path id="DejaVuSans-20"/>
     <path d="M 48.6875 27.296875 
Q 48.6875 37.203125 44.609375 42.84375 
Q 40.53125 48.484375 33.40625 48.484375 
Q 26.265625 48.484375 22.1875 42.84375 
Q 18.109375 37.203125 18.109375 27.296875 
Q 18.109375 17.390625 22.1875 11.75 
Q 26.265625 6.109375 33.40625 6.109375 
Q 40.53125 6.109375 44.609375 11.75 
Q 48.6875 17.390625 48.6875 27.296875 
z
M 18.109375 46.390625 
Q 20.953125 51.265625 25.265625 53.625 
Q 29.59375 56 35.59375 56 
Q 45.5625 56 51.78125 48.09375 
Q 58.015625 40.1875 58.015625 27.296875 
Q 58.015625 14.40625 51.78125 6.484375 
Q 45.5625 -1.421875 35.59375 -1.421875 
Q 29.59375 -1.421875 25.265625 0.953125 
Q 20.953125 3.328125 18.109375 8.203125 
L 18.109375 0 
L 9.078125 0 
L 9.078125 75.984375 
L 18.109375 75.984375 
z
" id="DejaVuSans-62"/>
     <path d="M 9.421875 54.6875 
L 18.40625 54.6875 
L 18.40625 0 
L 9.421875 0 
z
M 9.421875 75.984375 
L 18.40625 75.984375 
L 18.40625 64.59375 
L 9.421875 64.59375 
z
" id="DejaVuSans-69"/>
     <path d="M 18.3125 70.21875 
L 18.3125 54.6875 
L 36.8125 54.6875 
L 36.8125 47.703125 
L 18.3125 47.703125 
L 18.3125 18.015625 
Q 18.3125 11.328125 20.140625 9.421875 
Q 21.96875 7.515625 27.59375 7.515625 
L 36.8125 7.515625 
L 36.8125 0 
L 27.59375 0 
Q 17.1875 0 13.234375 3.875 
Q 9.28125 7.765625 9.28125 18.015625 
L 9.28125 47.703125 
L 2.6875 47.703125 
L 2.6875 54.6875 
L 9.28125 54.6875 
L 9.28125 70.21875 
z
" id="DejaVuSans-74"/>
     <path d="M 25.390625 72.90625 
L 33.6875 72.90625 
L 8.296875 -9.28125 
L 0 -9.28125 
z
" id="DejaVuSans-2f"/>
     <path d="M 44.28125 53.078125 
L 44.28125 44.578125 
Q 40.484375 46.53125 36.375 47.5 
Q 32.28125 48.484375 27.875 48.484375 
Q 21.1875 48.484375 17.84375 46.4375 
Q 14.5 44.390625 14.5 40.28125 
Q 14.5 37.15625 16.890625 35.375 
Q 19.28125 33.59375 26.515625 31.984375 
L 29.59375 31.296875 
Q 39.15625 29.25 43.1875 25.515625 
Q 47.21875 21.78125 47.21875 15.09375 
Q 47.21875 7.46875 41.1875 3.015625 
Q 35.15625 -1.421875 24.609375 -1.421875 
Q 20.21875 -1.421875 15.453125 -0.5625 
Q 10.6875 0.296875 5.421875 2 
L 5.421875 11.28125 
Q 10.40625 8.6875 15.234375 7.390625 
Q 20.0625 6.109375 24.8125 6.109375 
Q 31.15625 6.109375 34.5625 8.28125 
Q 37.984375 10.453125 37.984375 14.40625 
Q 37.984375 18.0625 35.515625 20.015625 
Q 33.0625 21.96875 24.703125 23.78125 
L 21.578125 24.515625 
Q 13.234375 26.265625 9.515625 29.90625 
Q 5.8125 33.546875 5.8125 39.890625 
Q 5.8125 47.609375 11.28125 51.796875 
Q 16.75 56 26.8125 56 
Q 31.78125 56 36.171875 55.265625 
Q 40.578125 54.546875 44.28125 53.078125 
z
" id="DejaVuSans-73"/>
    </defs>
    <g transform="translate(694.48875 63.12)scale(0.12 -0.12)">
     <use xlink:href="#DejaVuSans-35"/>
     <use x="63.623047" xlink:href="#DejaVuSans-30"/>
     <use x="127.246094" xlink:href="#DejaVuSans-30"/>
     <use x="190.869141" xlink:href="#DejaVuSans-30"/>
     <use x="254.492188" xlink:href="#DejaVuSans-30"/>
     <use x="318.115234" xlink:href="#DejaVuSans-30"/>
     <use x="381.738281" xlink:href="#DejaVuSans-2e"/>
     <use x="413.525391" xlink:href="#DejaVuSans-30"/>
     <use x="477.148438" xlink:href="#DejaVuSans-20"/>
     <use x="508.935547" xlink:href="#DejaVuSans-62"/>
     <use x="572.412109" xlink:href="#DejaVuSans-69"/>
     <use x="600.195312" xlink:href="#DejaVuSans-74"/>
     <use x="639.404297" xlink:href="#DejaVuSans-2f"/>
     <use x="673.095703" xlink:href="#DejaVuSans-73"/>
    </g>
   </g>
   <g id="legend_1">
    <g id="patch_7">
     <path d="M 1173.520313 135.8325 
L 1289 135.8325 
Q 1291 135.8325 1291 133.8325 
L 1291 76.12 
Q 1291 74.12 1289 74.12 
L 1173.520313 74.12 
Q 1171.520313 74.12 1171.520313 76.12 
L 1171.520313 133.8325 
Q 1171.520313 135.8325 1173.520313 135.8325 
z
" style="fill:#ffffff;opacity:0.8;stroke:#cccccc;stroke-linejoin:miter;"/>
    </g>
    <g id="line2d_17">
     <path d="M 1175.520313 82.218437 
L 1195.520313 82.218437 
" style="fill:none;stroke:#ff0000;stroke-dasharray:5.55,2.4;stroke-dashoffset:0;stroke-width:1.5;"/>
    </g>
    <g id="line2d_18">
     <g>
      <use style="fill:#ff0000;stroke:#ff0000;stroke-linejoin:miter;" x="1185.520313" xlink:href="#me15b07c0ce" y="82.218437"/>
     </g>
    </g>
    <g id="text_14">
     <!-- tcpdump -->
     <defs>
      <path d="M 48.78125 52.59375 
L 48.78125 44.1875 
Q 44.96875 46.296875 41.140625 47.34375 
Q 37.3125 48.390625 33.40625 48.390625 
Q 24.65625 48.390625 19.8125 42.84375 
Q 14.984375 37.3125 14.984375 27.296875 
Q 14.984375 17.28125 19.8125 11.734375 
Q 24.65625 6.203125 33.40625 6.203125 
Q 37.3125 6.203125 41.140625 7.25 
Q 44.96875 8.296875 48.78125 10.40625 
L 48.78125 2.09375 
Q 45.015625 0.34375 40.984375 -0.53125 
Q 36.96875 -1.421875 32.421875 -1.421875 
Q 20.0625 -1.421875 12.78125 6.34375 
Q 5.515625 14.109375 5.515625 27.296875 
Q 5.515625 40.671875 12.859375 48.328125 
Q 20.21875 56 33.015625 56 
Q 37.15625 56 41.109375 55.140625 
Q 45.0625 54.296875 48.78125 52.59375 
z
" id="DejaVuSans-63"/>
      <path d="M 18.109375 8.203125 
L 18.109375 -20.796875 
L 9.078125 -20.796875 
L 9.078125 54.6875 
L 18.109375 54.6875 
L 18.109375 46.390625 
Q 20.953125 51.265625 25.265625 53.625 
Q 29.59375 56 35.59375 56 
Q 45.5625 56 51.78125 48.09375 
Q 58.015625 40.1875 58.015625 27.296875 
Q 58.015625 14.40625 51.78125 6.484375 
Q 45.5625 -1.421875 35.59375 -1.421875 
Q 29.59375 -1.421875 25.265625 0.953125 
Q 20.953125 3.328125 18.109375 8.203125 
z
M 48.6875 27.296875 
Q 48.6875 37.203125 44.609375 42.84375 
Q 40.53125 48.484375 33.40625 48.484375 
Q 26.265625 48.484375 22.1875 42.84375 
Q 18.109375 37.203125 18.109375 27.296875 
Q 18.109375 17.390625 22.1875 11.75 
Q 26.265625 6.109375 33.40625 6.109375 
Q 40.53125 6.109375 44.609375 11.75 
Q 48.6875 17.390625 48.6875 27.296875 
z
" id="DejaVuSans-70"/>
      <path d="M 45.40625 46.390625 
L 45.40625 75.984375 
L 54.390625 75.984375 
L 54.390625 0 
L 45.40625 0 
L 45.40625 8.203125 
Q 42.578125 3.328125 38.25 0.953125 
Q 33.9375 -1.421875 27.875 -1.421875 
Q 17.96875 -1.421875 11.734375 6.484375 
Q 5.515625 14.40625 5.515625 27.296875 
Q 5.515625 40.1875 11.734375 48.09375 
Q 17.96875 56 27.875 56 
Q 33.9375 56 38.25 53.625 
Q 42.578125 51.265625 45.40625 46.390625 
z
M 14.796875 27.296875 
Q 14.796875 17.390625 18.875 11.75 
Q 22.953125 6.109375 30.078125 6.109375 
Q 37.203125 6.109375 41.296875 11.75 
Q 45.40625 17.390625 45.40625 27.296875 
Q 45.40625 37.203125 41.296875 42.84375 
Q 37.203125 48.484375 30.078125 48.484375 
Q 22.953125 48.484375 18.875 42.84375 
Q 14.796875 37.203125 14.796875 27.296875 
z
" id="DejaVuSans-64"/>
      <path d="M 8.5 21.578125 
L 8.5 54.6875 
L 17.484375 54.6875 
L 17.484375 21.921875 
Q 17.484375 14.15625 20.5 10.265625 
Q 23.53125 6.390625 29.59375 6.390625 
Q 36.859375 6.390625 41.078125 11.03125 
Q 45.3125 15.671875 45.3125 23.6875 
L 45.3125 54.6875 
L 54.296875 54.6875 
L 54.296875 0 
L 45.3125 0 
L 45.3125 8.40625 
Q 42.046875 3.421875 37.71875 1 
Q 33.40625 -1.421875 27.6875 -1.421875 
Q 18.265625 -1.421875 13.375 4.4375 
Q 8.5 10.296875 8.5 21.578125 
z
M 31.109375 56 
z
" id="DejaVuSans-75"/>
      <path d="M 52 44.1875 
Q 55.375 50.25 60.0625 53.125 
Q 64.75 56 71.09375 56 
Q 79.640625 56 84.28125 50.015625 
Q 88.921875 44.046875 88.921875 33.015625 
L 88.921875 0 
L 79.890625 0 
L 79.890625 32.71875 
Q 79.890625 40.578125 77.09375 44.375 
Q 74.3125 48.1875 68.609375 48.1875 
Q 61.625 48.1875 57.5625 43.546875 
Q 53.515625 38.921875 53.515625 30.90625 
L 53.515625 0 
L 44.484375 0 
L 44.484375 32.71875 
Q 44.484375 40.625 41.703125 44.40625 
Q 38.921875 48.1875 33.109375 48.1875 
Q 26.21875 48.1875 22.15625 43.53125 
Q 18.109375 38.875 18.109375 30.90625 
L 18.109375 0 
L 9.078125 0 
L 9.078125 54.6875 
L 18.109375 54.6875 
L 18.109375 46.1875 
Q 21.1875 51.21875 25.484375 53.609375 
Q 29.78125 56 35.6875 56 
Q 41.65625 56 45.828125 52.96875 
Q 50 49.953125 52 44.1875 
z
" id="DejaVuSans-6d"/>
     </defs>
     <g transform="translate(1203.520313 85.718437)scale(0.1 -0.1)">
      <use xlink:href="#DejaVuSans-74"/>
      <use x="39.208984" xlink:href="#DejaVuSans-63"/>
      <use x="94.189453" xlink:href="#DejaVuSans-70"/>
      <use x="157.666016" xlink:href="#DejaVuSans-64"/>
      <use x="221.142578" xlink:href="#DejaVuSans-75"/>
      <use x="284.521484" xlink:href="#DejaVuSans-6d"/>
      <use x="381.933594" xlink:href="#DejaVuSans-70"/>
     </g>
    </g>
    <g id="line2d_19">
     <path d="M 1175.520313 96.896563 
L 1195.520313 96.896563 
" style="fill:none;stroke:#800080;stroke-dasharray:9.6,2.4,1.5,2.4;stroke-dashoffset:0;stroke-width:1.5;"/>
    </g>
    <g id="line2d_20">
     <g>
      <use style="fill:#800080;stroke:#800080;" x="1185.520313" xlink:href="#mb3b96858a2" y="96.896563"/>
     </g>
    </g>
    <g id="text_15">
     <!-- filtered tcpdump -->
     <defs>
      <path d="M 37.109375 75.984375 
L 37.109375 68.5 
L 28.515625 68.5 
Q 23.6875 68.5 21.796875 66.546875 
Q 19.921875 64.59375 19.921875 59.515625 
L 19.921875 54.6875 
L 34.71875 54.6875 
L 34.71875 47.703125 
L 19.921875 47.703125 
L 19.921875 0 
L 10.890625 0 
L 10.890625 47.703125 
L 2.296875 47.703125 
L 2.296875 54.6875 
L 10.890625 54.6875 
L 10.890625 58.5 
Q 10.890625 67.625 15.140625 71.796875 
Q 19.390625 75.984375 28.609375 75.984375 
z
" id="DejaVuSans-66"/>
      <path d="M 9.421875 75.984375 
L 18.40625 75.984375 
L 18.40625 0 
L 9.421875 0 
z
" id="DejaVuSans-6c"/>
      <path d="M 56.203125 29.59375 
L 56.203125 25.203125 
L 14.890625 25.203125 
Q 15.484375 15.921875 20.484375 11.0625 
Q 25.484375 6.203125 34.421875 6.203125 
Q 39.59375 6.203125 44.453125 7.46875 
Q 49.3125 8.734375 54.109375 11.28125 
L 54.109375 2.78125 
Q 49.265625 0.734375 44.1875 -0.34375 
Q 39.109375 -1.421875 33.890625 -1.421875 
Q 20.796875 -1.421875 13.15625 6.1875 
Q 5.515625 13.8125 5.515625 26.8125 
Q 5.515625 40.234375 12.765625 48.109375 
Q 20.015625 56 32.328125 56 
Q 43.359375 56 49.78125 48.890625 
Q 56.203125 41.796875 56.203125 29.59375 
z
M 47.21875 32.234375 
Q 47.125 39.59375 43.09375 43.984375 
Q 39.0625 48.390625 32.421875 48.390625 
Q 24.90625 48.390625 20.390625 44.140625 
Q 15.875 39.890625 15.1875 32.171875 
z
" id="DejaVuSans-65"/>
      <path d="M 41.109375 46.296875 
Q 39.59375 47.171875 37.8125 47.578125 
Q 36.03125 48 33.890625 48 
Q 26.265625 48 22.1875 43.046875 
Q 18.109375 38.09375 18.109375 28.8125 
L 18.109375 0 
L 9.078125 0 
L 9.078125 54.6875 
L 18.109375 54.6875 
L 18.109375 46.1875 
Q 20.953125 51.171875 25.484375 53.578125 
Q 30.03125 56 36.53125 56 
Q 37.453125 56 38.578125 55.875 
Q 39.703125 55.765625 41.0625 55.515625 
z
" id="DejaVuSans-72"/>
     </defs>
     <g transform="translate(1203.520313 100.396563)scale(0.1 -0.1)">
      <use xlink:href="#DejaVuSans-66"/>
      <use x="35.205078" xlink:href="#DejaVuSans-69"/>
      <use x="62.988281" xlink:href="#DejaVuSans-6c"/>
      <use x="90.771484" xlink:href="#DejaVuSans-74"/>
      <use x="129.980469" xlink:href="#DejaVuSans-65"/>
      <use x="191.503906" xlink:href="#DejaVuSans-72"/>
      <use x="232.585938" xlink:href="#DejaVuSans-65"/>
      <use x="294.109375" xlink:href="#DejaVuSans-64"/>
      <use x="357.585938" xlink:href="#DejaVuSans-20"/>
      <use x="389.373047" xlink:href="#DejaVuSans-74"/>
      <use x="428.582031" xlink:href="#DejaVuSans-63"/>
      <use x="483.5625" xlink:href="#DejaVuSans-70"/>
      <use x="547.039062" xlink:href="#DejaVuSans-64"/>
      <use x="610.515625" xlink:href="#DejaVuSans-75"/>
      <use x="673.894531" xlink:href="#DejaVuSans-6d"/>
      <use x="771.306641" xlink:href="#DejaVuSans-70"/>
     </g>
    </g>
    <g id="line2d_21">
     <path d="M 1175.520313 111.574687 
L 1195.520313 111.574687 
" style="fill:none;stroke:#0000ff;stroke-linecap:square;stroke-width:1.5;"/>
    </g>
    <g id="line2d_22"/>
    <g id="text_16">
     <!-- OLS -->
     <defs>
      <path d="M 39.40625 66.21875 
Q 28.65625 66.21875 22.328125 58.203125 
Q 16.015625 50.203125 16.015625 36.375 
Q 16.015625 22.609375 22.328125 14.59375 
Q 28.65625 6.59375 39.40625 6.59375 
Q 50.140625 6.59375 56.421875 14.59375 
Q 62.703125 22.609375 62.703125 36.375 
Q 62.703125 50.203125 56.421875 58.203125 
Q 50.140625 66.21875 39.40625 66.21875 
z
M 39.40625 74.21875 
Q 54.734375 74.21875 63.90625 63.9375 
Q 73.09375 53.65625 73.09375 36.375 
Q 73.09375 19.140625 63.90625 8.859375 
Q 54.734375 -1.421875 39.40625 -1.421875 
Q 24.03125 -1.421875 14.8125 8.828125 
Q 5.609375 19.09375 5.609375 36.375 
Q 5.609375 53.65625 14.8125 63.9375 
Q 24.03125 74.21875 39.40625 74.21875 
z
" id="DejaVuSans-4f"/>
      <path d="M 9.8125 72.90625 
L 19.671875 72.90625 
L 19.671875 8.296875 
L 55.171875 8.296875 
L 55.171875 0 
L 9.8125 0 
z
" id="DejaVuSans-4c"/>
      <path d="M 53.515625 70.515625 
L 53.515625 60.890625 
Q 47.90625 63.578125 42.921875 64.890625 
Q 37.9375 66.21875 33.296875 66.21875 
Q 25.25 66.21875 20.875 63.09375 
Q 16.5 59.96875 16.5 54.203125 
Q 16.5 49.359375 19.40625 46.890625 
Q 22.3125 44.4375 30.421875 42.921875 
L 36.375 41.703125 
Q 47.40625 39.59375 52.65625 34.296875 
Q 57.90625 29 57.90625 20.125 
Q 57.90625 9.515625 50.796875 4.046875 
Q 43.703125 -1.421875 29.984375 -1.421875 
Q 24.8125 -1.421875 18.96875 -0.25 
Q 13.140625 0.921875 6.890625 3.21875 
L 6.890625 13.375 
Q 12.890625 10.015625 18.65625 8.296875 
Q 24.421875 6.59375 29.984375 6.59375 
Q 38.421875 6.59375 43.015625 9.90625 
Q 47.609375 13.234375 47.609375 19.390625 
Q 47.609375 24.75 44.3125 27.78125 
Q 41.015625 30.8125 33.5 32.328125 
L 27.484375 33.5 
Q 16.453125 35.6875 11.515625 40.375 
Q 6.59375 45.0625 6.59375 53.421875 
Q 6.59375 63.09375 13.40625 68.65625 
Q 20.21875 74.21875 32.171875 74.21875 
Q 37.3125 74.21875 42.625 73.28125 
Q 47.953125 72.359375 53.515625 70.515625 
z
" id="DejaVuSans-53"/>
     </defs>
     <g transform="translate(1203.520313 115.074687)scale(0.1 -0.1)">
      <use xlink:href="#DejaVuSans-4f"/>
      <use x="78.710938" xlink:href="#DejaVuSans-4c"/>
      <use x="134.423828" xlink:href="#DejaVuSans-53"/>
     </g>
    </g>
    <g id="line2d_23">
     <path d="M 1175.520313 126.252813 
L 1195.520313 126.252813 
" style="fill:none;stroke:#008000;stroke-linecap:square;stroke-width:1.5;"/>
    </g>
    <g id="line2d_24">
     <g>
      <use style="fill:#008000;stroke:#008000;" x="1185.520313" xlink:href="#mdd010f5f37" y="126.252813"/>
     </g>
    </g>
    <g id="text_17">
     <!-- IRLS -->
     <defs>
      <path d="M 9.8125 72.90625 
L 19.671875 72.90625 
L 19.671875 0 
L 9.8125 0 
z
" id="DejaVuSans-49"/>
      <path d="M 44.390625 34.1875 
Q 47.5625 33.109375 50.5625 29.59375 
Q 53.5625 26.078125 56.59375 19.921875 
L 66.609375 0 
L 56 0 
L 46.6875 18.703125 
Q 43.0625 26.03125 39.671875 28.421875 
Q 36.28125 30.8125 30.421875 30.8125 
L 19.671875 30.8125 
L 19.671875 0 
L 9.8125 0 
L 9.8125 72.90625 
L 32.078125 72.90625 
Q 44.578125 72.90625 50.734375 67.671875 
Q 56.890625 62.453125 56.890625 51.90625 
Q 56.890625 45.015625 53.6875 40.46875 
Q 50.484375 35.9375 44.390625 34.1875 
z
M 19.671875 64.796875 
L 19.671875 38.921875 
L 32.078125 38.921875 
Q 39.203125 38.921875 42.84375 42.21875 
Q 46.484375 45.515625 46.484375 51.90625 
Q 46.484375 58.296875 42.84375 61.546875 
Q 39.203125 64.796875 32.078125 64.796875 
z
" id="DejaVuSans-52"/>
     </defs>
     <g transform="translate(1203.520313 129.752813)scale(0.1 -0.1)">
      <use xlink:href="#DejaVuSans-49"/>
      <use x="29.492188" xlink:href="#DejaVuSans-52"/>
      <use x="98.974609" xlink:href="#DejaVuSans-4c"/>
      <use x="154.6875" xlink:href="#DejaVuSans-53"/>
     </g>
    </g>
   </g>
  </g>
 </g>
 <defs>
  <clipPath id="p9bd48327b1">
   <rect height="443.52" width="1116" x="180" y="69.12"/>
  </clipPath>
 </defs>
</svg>
