<?xml version="1.0" encoding="utf-8" standalone="no"?>
<!DOCTYPE svg PUBLIC "-//W3C//DTD SVG 1.1//EN"
  "http://www.w3.org/Graphics/SVG/1.1/DTD/svg11.dtd">
<!-- Created with matplotlib (http://matplotlib.org/) -->
<svg height="576pt" version="1.1" viewBox="0 0 1440 576" width="1440pt" xmlns="http://www.w3.org/2000/svg" xmlns:xlink="http://www.w3.org/1999/xlink">
 <defs>
  <style type="text/css">
*{stroke-linecap:butt;stroke-linejoin:round;}
  </style>
 </defs>
 <g id="figure_1">
  <g id="patch_1">
   <path d="M 0 576 
L 1440 576 
L 1440 0 
L 0 0 
z
" style="fill:#ffffff;"/>
  </g>
  <g id="axes_1">
   <g id="patch_2">
    <path d="M 180 512.64 
L 1296 512.64 
L 1296 69.12 
L 180 69.12 
z
" style="fill:#ffffff;"/>
   </g>
   <g id="matplotlib.axis_1">
    <g id="xtick_1">
     <g id="line2d_1">
      <defs>
       <path d="M 0 0 
L 0 3.5 
" id="m193ad01f3a" style="stroke:#000000;stroke-width:0.8;"/>
      </defs>
      <g>
       <use style="stroke:#000000;stroke-width:0.8;" x="230.727273" xlink:href="#m193ad01f3a" y="512.64"/>
      </g>
     </g>
     <g id="text_1">
      <!-- 0.0 -->
      <defs>
       <path d="M 31.78125 66.40625 
Q 24.171875 66.40625 20.328125 58.90625 
Q 16.5 51.421875 16.5 36.375 
Q 16.5 21.390625 20.328125 13.890625 
Q 24.171875 6.390625 31.78125 6.390625 
Q 39.453125 6.390625 43.28125 13.890625 
Q 47.125 21.390625 47.125 36.375 
Q 47.125 51.421875 43.28125 58.90625 
Q 39.453125 66.40625 31.78125 66.40625 
z
M 31.78125 74.21875 
Q 44.046875 74.21875 50.515625 64.515625 
Q 56.984375 54.828125 56.984375 36.375 
Q 56.984375 17.96875 50.515625 8.265625 
Q 44.046875 -1.421875 31.78125 -1.421875 
Q 19.53125 -1.421875 13.0625 8.265625 
Q 6.59375 17.96875 6.59375 36.375 
Q 6.59375 54.828125 13.0625 64.515625 
Q 19.53125 74.21875 31.78125 74.21875 
z
" id="DejaVuSans-30"/>
       <path d="M 10.6875 12.40625 
L 21 12.40625 
L 21 0 
L 10.6875 0 
z
" id="DejaVuSans-2e"/>
      </defs>
      <g transform="translate(222.77571 527.238438)scale(0.1 -0.1)">
       <use xlink:href="#DejaVuSans-30"/>
       <use x="63.623047" xlink:href="#DejaVuSans-2e"/>
       <use x="95.410156" xlink:href="#DejaVuSans-30"/>
      </g>
     </g>
    </g>
    <g id="xtick_2">
     <g id="line2d_2">
      <g>
       <use style="stroke:#000000;stroke-width:0.8;" x="383.049189" xlink:href="#m193ad01f3a" y="512.64"/>
      </g>
     </g>
     <g id="text_2">
      <!-- 0.2 -->
      <defs>
       <path d="M 19.1875 8.296875 
L 53.609375 8.296875 
L 53.609375 0 
L 7.328125 0 
L 7.328125 8.296875 
Q 12.9375 14.109375 22.625 23.890625 
Q 32.328125 33.6875 34.8125 36.53125 
Q 39.546875 41.84375 41.421875 45.53125 
Q 43.3125 49.21875 43.3125 52.78125 
Q 43.3125 58.59375 39.234375 62.25 
Q 35.15625 65.921875 28.609375 65.921875 
Q 23.96875 65.921875 18.8125 64.3125 
Q 13.671875 62.703125 7.8125 59.421875 
L 7.8125 69.390625 
Q 13.765625 71.78125 18.9375 73 
Q 24.125 74.21875 28.421875 74.21875 
Q 39.75 74.21875 46.484375 68.546875 
Q 53.21875 62.890625 53.21875 53.421875 
Q 53.21875 48.921875 51.53125 44.890625 
Q 49.859375 40.875 45.40625 35.40625 
Q 44.1875 33.984375 37.640625 27.21875 
Q 31.109375 20.453125 19.1875 8.296875 
z
" id="DejaVuSans-32"/>
      </defs>
      <g transform="translate(375.097626 527.238438)scale(0.1 -0.1)">
       <use xlink:href="#DejaVuSans-30"/>
       <use x="63.623047" xlink:href="#DejaVuSans-2e"/>
       <use x="95.410156" xlink:href="#DejaVuSans-32"/>
      </g>
     </g>
    </g>
    <g id="xtick_3">
     <g id="line2d_3">
      <g>
       <use style="stroke:#000000;stroke-width:0.8;" x="535.371105" xlink:href="#m193ad01f3a" y="512.64"/>
      </g>
     </g>
     <g id="text_3">
      <!-- 0.4 -->
      <defs>
       <path d="M 37.796875 64.3125 
L 12.890625 25.390625 
L 37.796875 25.390625 
z
M 35.203125 72.90625 
L 47.609375 72.90625 
L 47.609375 25.390625 
L 58.015625 25.390625 
L 58.015625 17.1875 
L 47.609375 17.1875 
L 47.609375 0 
L 37.796875 0 
L 37.796875 17.1875 
L 4.890625 17.1875 
L 4.890625 26.703125 
z
" id="DejaVuSans-34"/>
      </defs>
      <g transform="translate(527.419543 527.238438)scale(0.1 -0.1)">
       <use xlink:href="#DejaVuSans-30"/>
       <use x="63.623047" xlink:href="#DejaVuSans-2e"/>
       <use x="95.410156" xlink:href="#DejaVuSans-34"/>
      </g>
     </g>
    </g>
    <g id="xtick_4">
     <g id="line2d_4">
      <g>
       <use style="stroke:#000000;stroke-width:0.8;" x="687.693022" xlink:href="#m193ad01f3a" y="512.64"/>
      </g>
     </g>
     <g id="text_4">
      <!-- 0.6 -->
      <defs>
       <path d="M 33.015625 40.375 
Q 26.375 40.375 22.484375 35.828125 
Q 18.609375 31.296875 18.609375 23.390625 
Q 18.609375 15.53125 22.484375 10.953125 
Q 26.375 6.390625 33.015625 6.390625 
Q 39.65625 6.390625 43.53125 10.953125 
Q 47.40625 15.53125 47.40625 23.390625 
Q 47.40625 31.296875 43.53125 35.828125 
Q 39.65625 40.375 33.015625 40.375 
z
M 52.59375 71.296875 
L 52.59375 62.3125 
Q 48.875 64.0625 45.09375 64.984375 
Q 41.3125 65.921875 37.59375 65.921875 
Q 27.828125 65.921875 22.671875 59.328125 
Q 17.53125 52.734375 16.796875 39.40625 
Q 19.671875 43.65625 24.015625 45.921875 
Q 28.375 48.1875 33.59375 48.1875 
Q 44.578125 48.1875 50.953125 41.515625 
Q 57.328125 34.859375 57.328125 23.390625 
Q 57.328125 12.15625 50.6875 5.359375 
Q 44.046875 -1.421875 33.015625 -1.421875 
Q 20.359375 -1.421875 13.671875 8.265625 
Q 6.984375 17.96875 6.984375 36.375 
Q 6.984375 53.65625 15.1875 63.9375 
Q 23.390625 74.21875 37.203125 74.21875 
Q 40.921875 74.21875 44.703125 73.484375 
Q 48.484375 72.75 52.59375 71.296875 
z
" id="DejaVuSans-36"/>
      </defs>
      <g transform="translate(679.741459 527.238438)scale(0.1 -0.1)">
       <use xlink:href="#DejaVuSans-30"/>
       <use x="63.623047" xlink:href="#DejaVuSans-2e"/>
       <use x="95.410156" xlink:href="#DejaVuSans-36"/>
      </g>
     </g>
    </g>
    <g id="xtick_5">
     <g id="line2d_5">
      <g>
       <use style="stroke:#000000;stroke-width:0.8;" x="840.014938" xlink:href="#m193ad01f3a" y="512.64"/>
      </g>
     </g>
     <g id="text_5">
      <!-- 0.8 -->
      <defs>
       <path d="M 31.78125 34.625 
Q 24.75 34.625 20.71875 30.859375 
Q 16.703125 27.09375 16.703125 20.515625 
Q 16.703125 13.921875 20.71875 10.15625 
Q 24.75 6.390625 31.78125 6.390625 
Q 38.8125 6.390625 42.859375 10.171875 
Q 46.921875 13.96875 46.921875 20.515625 
Q 46.921875 27.09375 42.890625 30.859375 
Q 38.875 34.625 31.78125 34.625 
z
M 21.921875 38.8125 
Q 15.578125 40.375 12.03125 44.71875 
Q 8.5 49.078125 8.5 55.328125 
Q 8.5 64.0625 14.71875 69.140625 
Q 20.953125 74.21875 31.78125 74.21875 
Q 42.671875 74.21875 48.875 69.140625 
Q 55.078125 64.0625 55.078125 55.328125 
Q 55.078125 49.078125 51.53125 44.71875 
Q 48 40.375 41.703125 38.8125 
Q 48.828125 37.15625 52.796875 32.3125 
Q 56.78125 27.484375 56.78125 20.515625 
Q 56.78125 9.90625 50.3125 4.234375 
Q 43.84375 -1.421875 31.78125 -1.421875 
Q 19.734375 -1.421875 13.25 4.234375 
Q 6.78125 9.90625 6.78125 20.515625 
Q 6.78125 27.484375 10.78125 32.3125 
Q 14.796875 37.15625 21.921875 38.8125 
z
M 18.3125 54.390625 
Q 18.3125 48.734375 21.84375 45.5625 
Q 25.390625 42.390625 31.78125 42.390625 
Q 38.140625 42.390625 41.71875 45.5625 
Q 45.3125 48.734375 45.3125 54.390625 
Q 45.3125 60.0625 41.71875 63.234375 
Q 38.140625 66.40625 31.78125 66.40625 
Q 25.390625 66.40625 21.84375 63.234375 
Q 18.3125 60.0625 18.3125 54.390625 
z
" id="DejaVuSans-38"/>
      </defs>
      <g transform="translate(832.063375 527.238438)scale(0.1 -0.1)">
       <use xlink:href="#DejaVuSans-30"/>
       <use x="63.623047" xlink:href="#DejaVuSans-2e"/>
       <use x="95.410156" xlink:href="#DejaVuSans-38"/>
      </g>
     </g>
    </g>
    <g id="xtick_6">
     <g id="line2d_6">
      <g>
       <use style="stroke:#000000;stroke-width:0.8;" x="992.336854" xlink:href="#m193ad01f3a" y="512.64"/>
      </g>
     </g>
     <g id="text_6">
      <!-- 1.0 -->
      <defs>
       <path d="M 12.40625 8.296875 
L 28.515625 8.296875 
L 28.515625 63.921875 
L 10.984375 60.40625 
L 10.984375 69.390625 
L 28.421875 72.90625 
L 38.28125 72.90625 
L 38.28125 8.296875 
L 54.390625 8.296875 
L 54.390625 0 
L 12.40625 0 
z
" id="DejaVuSans-31"/>
      </defs>
      <g transform="translate(984.385292 527.238438)scale(0.1 -0.1)">
       <use xlink:href="#DejaVuSans-31"/>
       <use x="63.623047" xlink:href="#DejaVuSans-2e"/>
       <use x="95.410156" xlink:href="#DejaVuSans-30"/>
      </g>
     </g>
    </g>
    <g id="xtick_7">
     <g id="line2d_7">
      <g>
       <use style="stroke:#000000;stroke-width:0.8;" x="1144.65877" xlink:href="#m193ad01f3a" y="512.64"/>
      </g>
     </g>
     <g id="text_7">
      <!-- 1.2 -->
      <g transform="translate(1136.707208 527.238438)scale(0.1 -0.1)">
       <use xlink:href="#DejaVuSans-31"/>
       <use x="63.623047" xlink:href="#DejaVuSans-2e"/>
       <use x="95.410156" xlink:href="#DejaVuSans-32"/>
      </g>
     </g>
    </g>
   </g>
   <g id="matplotlib.axis_2">
    <g id="ytick_1">
     <g id="line2d_8">
      <defs>
       <path d="M 0 0 
L -3.5 0 
" id="m0787e05691" style="stroke:#000000;stroke-width:0.8;"/>
      </defs>
      <g>
       <use style="stroke:#000000;stroke-width:0.8;" x="180" xlink:href="#m0787e05691" y="480.018404"/>
      </g>
     </g>
     <g id="text_8">
      <!-- 0.0 -->
      <g transform="translate(157.096875 483.817623)scale(0.1 -0.1)">
       <use xlink:href="#DejaVuSans-30"/>
       <use x="63.623047" xlink:href="#DejaVuSans-2e"/>
       <use x="95.410156" xlink:href="#DejaVuSans-30"/>
      </g>
     </g>
    </g>
    <g id="ytick_2">
     <g id="line2d_9">
      <g>
       <use style="stroke:#000000;stroke-width:0.8;" x="180" xlink:href="#m0787e05691" y="423.524743"/>
      </g>
     </g>
     <g id="text_9">
      <!-- 0.2 -->
      <g transform="translate(157.096875 427.323962)scale(0.1 -0.1)">
       <use xlink:href="#DejaVuSans-30"/>
       <use x="63.623047" xlink:href="#DejaVuSans-2e"/>
       <use x="95.410156" xlink:href="#DejaVuSans-32"/>
      </g>
     </g>
    </g>
    <g id="ytick_3">
     <g id="line2d_10">
      <g>
       <use style="stroke:#000000;stroke-width:0.8;" x="180" xlink:href="#m0787e05691" y="367.031083"/>
      </g>
     </g>
     <g id="text_10">
      <!-- 0.4 -->
      <g transform="translate(157.096875 370.830302)scale(0.1 -0.1)">
       <use xlink:href="#DejaVuSans-30"/>
       <use x="63.623047" xlink:href="#DejaVuSans-2e"/>
       <use x="95.410156" xlink:href="#DejaVuSans-34"/>
      </g>
     </g>
    </g>
    <g id="ytick_4">
     <g id="line2d_11">
      <g>
       <use style="stroke:#000000;stroke-width:0.8;" x="180" xlink:href="#m0787e05691" y="310.537422"/>
      </g>
     </g>
     <g id="text_11">
      <!-- 0.6 -->
      <g transform="translate(157.096875 314.336641)scale(0.1 -0.1)">
       <use xlink:href="#DejaVuSans-30"/>
       <use x="63.623047" xlink:href="#DejaVuSans-2e"/>
       <use x="95.410156" xlink:href="#DejaVuSans-36"/>
      </g>
     </g>
    </g>
    <g id="ytick_5">
     <g id="line2d_12">
      <g>
       <use style="stroke:#000000;stroke-width:0.8;" x="180" xlink:href="#m0787e05691" y="254.043761"/>
      </g>
     </g>
     <g id="text_12">
      <!-- 0.8 -->
      <g transform="translate(157.096875 257.84298)scale(0.1 -0.1)">
       <use xlink:href="#DejaVuSans-30"/>
       <use x="63.623047" xlink:href="#DejaVuSans-2e"/>
       <use x="95.410156" xlink:href="#DejaVuSans-38"/>
      </g>
     </g>
    </g>
    <g id="ytick_6">
     <g id="line2d_13">
      <g>
       <use style="stroke:#000000;stroke-width:0.8;" x="180" xlink:href="#m0787e05691" y="197.550101"/>
      </g>
     </g>
     <g id="text_13">
      <!-- 1.0 -->
      <g transform="translate(157.096875 201.349319)scale(0.1 -0.1)">
       <use xlink:href="#DejaVuSans-31"/>
       <use x="63.623047" xlink:href="#DejaVuSans-2e"/>
       <use x="95.410156" xlink:href="#DejaVuSans-30"/>
      </g>
     </g>
    </g>
    <g id="ytick_7">
     <g id="line2d_14">
      <g>
       <use style="stroke:#000000;stroke-width:0.8;" x="180" xlink:href="#m0787e05691" y="141.05644"/>
      </g>
     </g>
     <g id="text_14">
      <!-- 1.2 -->
      <g transform="translate(157.096875 144.855659)scale(0.1 -0.1)">
       <use xlink:href="#DejaVuSans-31"/>
       <use x="63.623047" xlink:href="#DejaVuSans-2e"/>
       <use x="95.410156" xlink:href="#DejaVuSans-32"/>
      </g>
     </g>
    </g>
    <g id="ytick_8">
     <g id="line2d_15">
      <g>
       <use style="stroke:#000000;stroke-width:0.8;" x="180" xlink:href="#m0787e05691" y="84.562779"/>
      </g>
     </g>
     <g id="text_15">
      <!-- 1.4 -->
      <g transform="translate(157.096875 88.361998)scale(0.1 -0.1)">
       <use xlink:href="#DejaVuSans-31"/>
       <use x="63.623047" xlink:href="#DejaVuSans-2e"/>
       <use x="95.410156" xlink:href="#DejaVuSans-34"/>
      </g>
     </g>
    </g>
   </g>
   <g id="line2d_16">
    <path clip-path="url(#p9d16c9ab8a)" d="M 230.727273 395.146848 
L 240.317461 395.14939 
L 249.956391 395.152497 
L 259.743836 395.143458 
L 269.667609 395.146848 
L 279.681252 395.090919 
L 289.523532 395.159559 
L 299.502903 395.155604 
L 309.435053 395.155604 
L 320.984101 395.125663 
L 330.820289 395.139786 
L 340.818699 395.138374 
L 351.0395 395.136679 
L 360.991452 395.146565 
L 371.330302 395.092331 
L 381.754453 395.12877 
L 391.754387 395.137809 
L 402.097806 395.142893 
L 412.557752 394.800824 
L 422.70163 395.123685 
L 432.905675 395.136397 
L 443.182073 395.139504 
L 453.177438 395.146 
L 463.420325 395.102783 
L 474.056203 395.15278 
L 484.596879 395.157299 
L 494.643271 395.143458 
L 504.822945 395.135549 
L 515.355244 395.160124 
L 525.320905 395.138939 
L 535.627006 395.137809 
L 545.97728 395.138656 
L 555.983307 395.108997 
L 568.185054 395.133289 
L 578.57874 395.10928 
L 588.831528 395.134702 
L 599.235115 395.157299 
L 609.61433 395.111822 
L 619.791719 395.132724 
L 630.049839 395.121143 
L 640.39859 395.155887 
L 650.457929 395.110127 
L 660.74042 395.166338 
L 671.096787 395.057305 
L 681.126424 395.129335 
L 691.550574 395.131312 
L 701.782037 395.102218 
L 711.897736 395.141481 
L 722.410994 395.158712 
L 732.56325 395.113517 
L 742.708651 395.120578 
L 753.206678 395.142046 
L 763.341416 395.130747 
L 773.376384 395.097981 
L 784.070144 395.148543 
L 794.054846 395.120578 
L 804.056303 395.140634 
L 814.725692 395.138091 
L 824.746189 395.1025 
L 834.833708 395.131595 
L 845.562502 283.000435 
L 855.508361 283.268497 
L 865.586741 283.628079 
L 876.408452 284.21872 
L 886.382491 89.28 
L 896.39918 89.584218 
L 907.181287 90.201412 
L 917.185029 90.498568 
L 927.187247 90.816345 
L 937.850543 91.351623 
L 947.861901 91.667705 
L 957.816138 91.943959 
L 968.706394 92.600697 
L 978.66977 92.889662 
L 988.681128 93.199248 
L 999.355086 93.754298 
L 1009.301707 94.039026 
L 1019.345815 94.168679 
L 1030.080702 94.909028 
L 1040.051694 95.237821 
L 1050.07143 95.544582 
L 1060.796416 96.126184 
L 1070.737706 96.401026 
L 1080.809993 96.746767 
L 1091.519747 97.254645 
L 1101.50064 97.604341 
L 1111.565311 97.932852 
L 1122.295628 98.466717 
L 1132.30394 98.821497 
L 1142.361756 99.15029 
L 1153.057039 99.704493 
L 1163.034886 100.001932 
L 1173.144492 100.327618 
L 1183.854246 100.881256 
L 1193.899115 101.228409 
L 1203.925705 101.564829 
L 1214.56996 102.088808 
L 1224.630823 102.42212 
L 1234.603339 102.730576 
L 1245.272727 103.212184 
" style="fill:none;stroke:#ff0000;stroke-dasharray:5.55,2.4;stroke-dashoffset:0;stroke-width:1.5;"/>
    <defs>
     <path d="M -3 3 
L 3 3 
L 3 -3 
L -3 -3 
z
" id="m4130e5c157" style="stroke:#ff0000;stroke-linejoin:miter;"/>
    </defs>
    <g clip-path="url(#p9d16c9ab8a)">
     <use style="fill:#ff0000;stroke:#ff0000;stroke-linejoin:miter;" x="230.727273" xlink:href="#m4130e5c157" y="395.146848"/>
     <use style="fill:#ff0000;stroke:#ff0000;stroke-linejoin:miter;" x="240.317461" xlink:href="#m4130e5c157" y="395.14939"/>
     <use style="fill:#ff0000;stroke:#ff0000;stroke-linejoin:miter;" x="249.956391" xlink:href="#m4130e5c157" y="395.152497"/>
     <use style="fill:#ff0000;stroke:#ff0000;stroke-linejoin:miter;" x="259.743836" xlink:href="#m4130e5c157" y="395.143458"/>
     <use style="fill:#ff0000;stroke:#ff0000;stroke-linejoin:miter;" x="269.667609" xlink:href="#m4130e5c157" y="395.146848"/>
     <use style="fill:#ff0000;stroke:#ff0000;stroke-linejoin:miter;" x="279.681252" xlink:href="#m4130e5c157" y="395.090919"/>
     <use style="fill:#ff0000;stroke:#ff0000;stroke-linejoin:miter;" x="289.523532" xlink:href="#m4130e5c157" y="395.159559"/>
     <use style="fill:#ff0000;stroke:#ff0000;stroke-linejoin:miter;" x="299.502903" xlink:href="#m4130e5c157" y="395.155604"/>
     <use style="fill:#ff0000;stroke:#ff0000;stroke-linejoin:miter;" x="309.435053" xlink:href="#m4130e5c157" y="395.155604"/>
     <use style="fill:#ff0000;stroke:#ff0000;stroke-linejoin:miter;" x="320.984101" xlink:href="#m4130e5c157" y="395.125663"/>
     <use style="fill:#ff0000;stroke:#ff0000;stroke-linejoin:miter;" x="330.820289" xlink:href="#m4130e5c157" y="395.139786"/>
     <use style="fill:#ff0000;stroke:#ff0000;stroke-linejoin:miter;" x="340.818699" xlink:href="#m4130e5c157" y="395.138374"/>
     <use style="fill:#ff0000;stroke:#ff0000;stroke-linejoin:miter;" x="351.0395" xlink:href="#m4130e5c157" y="395.136679"/>
     <use style="fill:#ff0000;stroke:#ff0000;stroke-linejoin:miter;" x="360.991452" xlink:href="#m4130e5c157" y="395.146565"/>
     <use style="fill:#ff0000;stroke:#ff0000;stroke-linejoin:miter;" x="371.330302" xlink:href="#m4130e5c157" y="395.092331"/>
     <use style="fill:#ff0000;stroke:#ff0000;stroke-linejoin:miter;" x="381.754453" xlink:href="#m4130e5c157" y="395.12877"/>
     <use style="fill:#ff0000;stroke:#ff0000;stroke-linejoin:miter;" x="391.754387" xlink:href="#m4130e5c157" y="395.137809"/>
     <use style="fill:#ff0000;stroke:#ff0000;stroke-linejoin:miter;" x="402.097806" xlink:href="#m4130e5c157" y="395.142893"/>
     <use style="fill:#ff0000;stroke:#ff0000;stroke-linejoin:miter;" x="412.557752" xlink:href="#m4130e5c157" y="394.800824"/>
     <use style="fill:#ff0000;stroke:#ff0000;stroke-linejoin:miter;" x="422.70163" xlink:href="#m4130e5c157" y="395.123685"/>
     <use style="fill:#ff0000;stroke:#ff0000;stroke-linejoin:miter;" x="432.905675" xlink:href="#m4130e5c157" y="395.136397"/>
     <use style="fill:#ff0000;stroke:#ff0000;stroke-linejoin:miter;" x="443.182073" xlink:href="#m4130e5c157" y="395.139504"/>
     <use style="fill:#ff0000;stroke:#ff0000;stroke-linejoin:miter;" x="453.177438" xlink:href="#m4130e5c157" y="395.146"/>
     <use style="fill:#ff0000;stroke:#ff0000;stroke-linejoin:miter;" x="463.420325" xlink:href="#m4130e5c157" y="395.102783"/>
     <use style="fill:#ff0000;stroke:#ff0000;stroke-linejoin:miter;" x="474.056203" xlink:href="#m4130e5c157" y="395.15278"/>
     <use style="fill:#ff0000;stroke:#ff0000;stroke-linejoin:miter;" x="484.596879" xlink:href="#m4130e5c157" y="395.157299"/>
     <use style="fill:#ff0000;stroke:#ff0000;stroke-linejoin:miter;" x="494.643271" xlink:href="#m4130e5c157" y="395.143458"/>
     <use style="fill:#ff0000;stroke:#ff0000;stroke-linejoin:miter;" x="504.822945" xlink:href="#m4130e5c157" y="395.135549"/>
     <use style="fill:#ff0000;stroke:#ff0000;stroke-linejoin:miter;" x="515.355244" xlink:href="#m4130e5c157" y="395.160124"/>
     <use style="fill:#ff0000;stroke:#ff0000;stroke-linejoin:miter;" x="525.320905" xlink:href="#m4130e5c157" y="395.138939"/>
     <use style="fill:#ff0000;stroke:#ff0000;stroke-linejoin:miter;" x="535.627006" xlink:href="#m4130e5c157" y="395.137809"/>
     <use style="fill:#ff0000;stroke:#ff0000;stroke-linejoin:miter;" x="545.97728" xlink:href="#m4130e5c157" y="395.138656"/>
     <use style="fill:#ff0000;stroke:#ff0000;stroke-linejoin:miter;" x="555.983307" xlink:href="#m4130e5c157" y="395.108997"/>
     <use style="fill:#ff0000;stroke:#ff0000;stroke-linejoin:miter;" x="568.185054" xlink:href="#m4130e5c157" y="395.133289"/>
     <use style="fill:#ff0000;stroke:#ff0000;stroke-linejoin:miter;" x="578.57874" xlink:href="#m4130e5c157" y="395.10928"/>
     <use style="fill:#ff0000;stroke:#ff0000;stroke-linejoin:miter;" x="588.831528" xlink:href="#m4130e5c157" y="395.134702"/>
     <use style="fill:#ff0000;stroke:#ff0000;stroke-linejoin:miter;" x="599.235115" xlink:href="#m4130e5c157" y="395.157299"/>
     <use style="fill:#ff0000;stroke:#ff0000;stroke-linejoin:miter;" x="609.61433" xlink:href="#m4130e5c157" y="395.111822"/>
     <use style="fill:#ff0000;stroke:#ff0000;stroke-linejoin:miter;" x="619.791719" xlink:href="#m4130e5c157" y="395.132724"/>
     <use style="fill:#ff0000;stroke:#ff0000;stroke-linejoin:miter;" x="630.049839" xlink:href="#m4130e5c157" y="395.121143"/>
     <use style="fill:#ff0000;stroke:#ff0000;stroke-linejoin:miter;" x="640.39859" xlink:href="#m4130e5c157" y="395.155887"/>
     <use style="fill:#ff0000;stroke:#ff0000;stroke-linejoin:miter;" x="650.457929" xlink:href="#m4130e5c157" y="395.110127"/>
     <use style="fill:#ff0000;stroke:#ff0000;stroke-linejoin:miter;" x="660.74042" xlink:href="#m4130e5c157" y="395.166338"/>
     <use style="fill:#ff0000;stroke:#ff0000;stroke-linejoin:miter;" x="671.096787" xlink:href="#m4130e5c157" y="395.057305"/>
     <use style="fill:#ff0000;stroke:#ff0000;stroke-linejoin:miter;" x="681.126424" xlink:href="#m4130e5c157" y="395.129335"/>
     <use style="fill:#ff0000;stroke:#ff0000;stroke-linejoin:miter;" x="691.550574" xlink:href="#m4130e5c157" y="395.131312"/>
     <use style="fill:#ff0000;stroke:#ff0000;stroke-linejoin:miter;" x="701.782037" xlink:href="#m4130e5c157" y="395.102218"/>
     <use style="fill:#ff0000;stroke:#ff0000;stroke-linejoin:miter;" x="711.897736" xlink:href="#m4130e5c157" y="395.141481"/>
     <use style="fill:#ff0000;stroke:#ff0000;stroke-linejoin:miter;" x="722.410994" xlink:href="#m4130e5c157" y="395.158712"/>
     <use style="fill:#ff0000;stroke:#ff0000;stroke-linejoin:miter;" x="732.56325" xlink:href="#m4130e5c157" y="395.113517"/>
     <use style="fill:#ff0000;stroke:#ff0000;stroke-linejoin:miter;" x="742.708651" xlink:href="#m4130e5c157" y="395.120578"/>
     <use style="fill:#ff0000;stroke:#ff0000;stroke-linejoin:miter;" x="753.206678" xlink:href="#m4130e5c157" y="395.142046"/>
     <use style="fill:#ff0000;stroke:#ff0000;stroke-linejoin:miter;" x="763.341416" xlink:href="#m4130e5c157" y="395.130747"/>
     <use style="fill:#ff0000;stroke:#ff0000;stroke-linejoin:miter;" x="773.376384" xlink:href="#m4130e5c157" y="395.097981"/>
     <use style="fill:#ff0000;stroke:#ff0000;stroke-linejoin:miter;" x="784.070144" xlink:href="#m4130e5c157" y="395.148543"/>
     <use style="fill:#ff0000;stroke:#ff0000;stroke-linejoin:miter;" x="794.054846" xlink:href="#m4130e5c157" y="395.120578"/>
     <use style="fill:#ff0000;stroke:#ff0000;stroke-linejoin:miter;" x="804.056303" xlink:href="#m4130e5c157" y="395.140634"/>
     <use style="fill:#ff0000;stroke:#ff0000;stroke-linejoin:miter;" x="814.725692" xlink:href="#m4130e5c157" y="395.138091"/>
     <use style="fill:#ff0000;stroke:#ff0000;stroke-linejoin:miter;" x="824.746189" xlink:href="#m4130e5c157" y="395.1025"/>
     <use style="fill:#ff0000;stroke:#ff0000;stroke-linejoin:miter;" x="834.833708" xlink:href="#m4130e5c157" y="395.131595"/>
     <use style="fill:#ff0000;stroke:#ff0000;stroke-linejoin:miter;" x="845.562502" xlink:href="#m4130e5c157" y="283.000435"/>
     <use style="fill:#ff0000;stroke:#ff0000;stroke-linejoin:miter;" x="855.508361" xlink:href="#m4130e5c157" y="283.268497"/>
     <use style="fill:#ff0000;stroke:#ff0000;stroke-linejoin:miter;" x="865.586741" xlink:href="#m4130e5c157" y="283.628079"/>
     <use style="fill:#ff0000;stroke:#ff0000;stroke-linejoin:miter;" x="876.408452" xlink:href="#m4130e5c157" y="284.21872"/>
     <use style="fill:#ff0000;stroke:#ff0000;stroke-linejoin:miter;" x="886.382491" xlink:href="#m4130e5c157" y="89.28"/>
     <use style="fill:#ff0000;stroke:#ff0000;stroke-linejoin:miter;" x="896.39918" xlink:href="#m4130e5c157" y="89.584218"/>
     <use style="fill:#ff0000;stroke:#ff0000;stroke-linejoin:miter;" x="907.181287" xlink:href="#m4130e5c157" y="90.201412"/>
     <use style="fill:#ff0000;stroke:#ff0000;stroke-linejoin:miter;" x="917.185029" xlink:href="#m4130e5c157" y="90.498568"/>
     <use style="fill:#ff0000;stroke:#ff0000;stroke-linejoin:miter;" x="927.187247" xlink:href="#m4130e5c157" y="90.816345"/>
     <use style="fill:#ff0000;stroke:#ff0000;stroke-linejoin:miter;" x="937.850543" xlink:href="#m4130e5c157" y="91.351623"/>
     <use style="fill:#ff0000;stroke:#ff0000;stroke-linejoin:miter;" x="947.861901" xlink:href="#m4130e5c157" y="91.667705"/>
     <use style="fill:#ff0000;stroke:#ff0000;stroke-linejoin:miter;" x="957.816138" xlink:href="#m4130e5c157" y="91.943959"/>
     <use style="fill:#ff0000;stroke:#ff0000;stroke-linejoin:miter;" x="968.706394" xlink:href="#m4130e5c157" y="92.600697"/>
     <use style="fill:#ff0000;stroke:#ff0000;stroke-linejoin:miter;" x="978.66977" xlink:href="#m4130e5c157" y="92.889662"/>
     <use style="fill:#ff0000;stroke:#ff0000;stroke-linejoin:miter;" x="988.681128" xlink:href="#m4130e5c157" y="93.199248"/>
     <use style="fill:#ff0000;stroke:#ff0000;stroke-linejoin:miter;" x="999.355086" xlink:href="#m4130e5c157" y="93.754298"/>
     <use style="fill:#ff0000;stroke:#ff0000;stroke-linejoin:miter;" x="1009.301707" xlink:href="#m4130e5c157" y="94.039026"/>
     <use style="fill:#ff0000;stroke:#ff0000;stroke-linejoin:miter;" x="1019.345815" xlink:href="#m4130e5c157" y="94.168679"/>
     <use style="fill:#ff0000;stroke:#ff0000;stroke-linejoin:miter;" x="1030.080702" xlink:href="#m4130e5c157" y="94.909028"/>
     <use style="fill:#ff0000;stroke:#ff0000;stroke-linejoin:miter;" x="1040.051694" xlink:href="#m4130e5c157" y="95.237821"/>
     <use style="fill:#ff0000;stroke:#ff0000;stroke-linejoin:miter;" x="1050.07143" xlink:href="#m4130e5c157" y="95.544582"/>
     <use style="fill:#ff0000;stroke:#ff0000;stroke-linejoin:miter;" x="1060.796416" xlink:href="#m4130e5c157" y="96.126184"/>
     <use style="fill:#ff0000;stroke:#ff0000;stroke-linejoin:miter;" x="1070.737706" xlink:href="#m4130e5c157" y="96.401026"/>
     <use style="fill:#ff0000;stroke:#ff0000;stroke-linejoin:miter;" x="1080.809993" xlink:href="#m4130e5c157" y="96.746767"/>
     <use style="fill:#ff0000;stroke:#ff0000;stroke-linejoin:miter;" x="1091.519747" xlink:href="#m4130e5c157" y="97.254645"/>
     <use style="fill:#ff0000;stroke:#ff0000;stroke-linejoin:miter;" x="1101.50064" xlink:href="#m4130e5c157" y="97.604341"/>
     <use style="fill:#ff0000;stroke:#ff0000;stroke-linejoin:miter;" x="1111.565311" xlink:href="#m4130e5c157" y="97.932852"/>
     <use style="fill:#ff0000;stroke:#ff0000;stroke-linejoin:miter;" x="1122.295628" xlink:href="#m4130e5c157" y="98.466717"/>
     <use style="fill:#ff0000;stroke:#ff0000;stroke-linejoin:miter;" x="1132.30394" xlink:href="#m4130e5c157" y="98.821497"/>
     <use style="fill:#ff0000;stroke:#ff0000;stroke-linejoin:miter;" x="1142.361756" xlink:href="#m4130e5c157" y="99.15029"/>
     <use style="fill:#ff0000;stroke:#ff0000;stroke-linejoin:miter;" x="1153.057039" xlink:href="#m4130e5c157" y="99.704493"/>
     <use style="fill:#ff0000;stroke:#ff0000;stroke-linejoin:miter;" x="1163.034886" xlink:href="#m4130e5c157" y="100.001932"/>
     <use style="fill:#ff0000;stroke:#ff0000;stroke-linejoin:miter;" x="1173.144492" xlink:href="#m4130e5c157" y="100.327618"/>
     <use style="fill:#ff0000;stroke:#ff0000;stroke-linejoin:miter;" x="1183.854246" xlink:href="#m4130e5c157" y="100.881256"/>
     <use style="fill:#ff0000;stroke:#ff0000;stroke-linejoin:miter;" x="1193.899115" xlink:href="#m4130e5c157" y="101.228409"/>
     <use style="fill:#ff0000;stroke:#ff0000;stroke-linejoin:miter;" x="1203.925705" xlink:href="#m4130e5c157" y="101.564829"/>
     <use style="fill:#ff0000;stroke:#ff0000;stroke-linejoin:miter;" x="1214.56996" xlink:href="#m4130e5c157" y="102.088808"/>
     <use style="fill:#ff0000;stroke:#ff0000;stroke-linejoin:miter;" x="1224.630823" xlink:href="#m4130e5c157" y="102.42212"/>
     <use style="fill:#ff0000;stroke:#ff0000;stroke-linejoin:miter;" x="1234.603339" xlink:href="#m4130e5c157" y="102.730576"/>
     <use style="fill:#ff0000;stroke:#ff0000;stroke-linejoin:miter;" x="1245.272727" xlink:href="#m4130e5c157" y="103.212184"/>
    </g>
   </g>
   <g id="line2d_17">
    <path clip-path="url(#p9d16c9ab8a)" d="M 230.727273 395.146848 
L 240.317461 395.14939 
L 249.956391 395.152497 
L 259.743836 395.143458 
L 269.667609 395.146848 
L 279.681252 395.090919 
L 289.523532 395.159559 
L 299.502903 395.155604 
L 309.435053 395.155604 
L 320.984101 395.125663 
L 330.820289 395.139786 
L 340.818699 395.138374 
L 351.0395 395.136679 
L 360.991452 395.146565 
L 371.330302 395.092331 
L 381.754453 395.12877 
L 391.754387 395.137809 
L 402.097806 395.142893 
L 412.557752 394.800824 
L 422.70163 395.123685 
L 432.905675 395.136397 
L 443.182073 395.139504 
L 453.177438 395.146 
L 463.420325 395.102783 
L 474.056203 395.15278 
L 484.596879 395.157299 
L 494.643271 395.143458 
L 504.822945 395.135549 
L 515.355244 395.160124 
L 525.320905 395.138939 
L 535.627006 395.137809 
L 545.97728 395.138656 
L 555.983307 395.108997 
L 568.185054 395.133289 
L 578.57874 395.10928 
L 588.831528 395.134702 
L 599.235115 395.157299 
L 609.61433 395.111822 
L 619.791719 395.132724 
L 630.049839 395.121143 
L 640.39859 395.155887 
L 650.457929 395.110127 
L 660.74042 395.166338 
L 671.096787 395.057305 
L 681.126424 395.129335 
L 691.550574 395.131312 
L 701.782037 395.102218 
L 711.897736 395.141481 
L 722.410994 395.158712 
L 732.56325 395.113517 
L 742.708651 395.120578 
L 753.206678 395.142046 
L 763.341416 395.130747 
L 773.376384 395.097981 
L 784.070144 395.148543 
L 794.054846 395.120578 
L 804.056303 395.140634 
L 814.725692 395.138091 
L 824.746189 395.1025 
L 834.833708 395.131595 
L 845.562502 283.000435 
L 855.508361 283.268497 
L 865.586741 283.628079 
L 876.408452 284.21872 
L 1245.272727 103.212184 
" style="fill:none;stroke:#800080;stroke-dasharray:9.6,2.4,1.5,2.4;stroke-dashoffset:0;stroke-width:1.5;"/>
    <defs>
     <path d="M -3 3 
L 3 -3 
M -3 -3 
L 3 3 
" id="medb3c606e5" style="stroke:#800080;"/>
    </defs>
    <g clip-path="url(#p9d16c9ab8a)">
     <use style="fill:#800080;stroke:#800080;" x="230.727273" xlink:href="#medb3c606e5" y="395.146848"/>
     <use style="fill:#800080;stroke:#800080;" x="240.317461" xlink:href="#medb3c606e5" y="395.14939"/>
     <use style="fill:#800080;stroke:#800080;" x="249.956391" xlink:href="#medb3c606e5" y="395.152497"/>
     <use style="fill:#800080;stroke:#800080;" x="259.743836" xlink:href="#medb3c606e5" y="395.143458"/>
     <use style="fill:#800080;stroke:#800080;" x="269.667609" xlink:href="#medb3c606e5" y="395.146848"/>
     <use style="fill:#800080;stroke:#800080;" x="279.681252" xlink:href="#medb3c606e5" y="395.090919"/>
     <use style="fill:#800080;stroke:#800080;" x="289.523532" xlink:href="#medb3c606e5" y="395.159559"/>
     <use style="fill:#800080;stroke:#800080;" x="299.502903" xlink:href="#medb3c606e5" y="395.155604"/>
     <use style="fill:#800080;stroke:#800080;" x="309.435053" xlink:href="#medb3c606e5" y="395.155604"/>
     <use style="fill:#800080;stroke:#800080;" x="320.984101" xlink:href="#medb3c606e5" y="395.125663"/>
     <use style="fill:#800080;stroke:#800080;" x="330.820289" xlink:href="#medb3c606e5" y="395.139786"/>
     <use style="fill:#800080;stroke:#800080;" x="340.818699" xlink:href="#medb3c606e5" y="395.138374"/>
     <use style="fill:#800080;stroke:#800080;" x="351.0395" xlink:href="#medb3c606e5" y="395.136679"/>
     <use style="fill:#800080;stroke:#800080;" x="360.991452" xlink:href="#medb3c606e5" y="395.146565"/>
     <use style="fill:#800080;stroke:#800080;" x="371.330302" xlink:href="#medb3c606e5" y="395.092331"/>
     <use style="fill:#800080;stroke:#800080;" x="381.754453" xlink:href="#medb3c606e5" y="395.12877"/>
     <use style="fill:#800080;stroke:#800080;" x="391.754387" xlink:href="#medb3c606e5" y="395.137809"/>
     <use style="fill:#800080;stroke:#800080;" x="402.097806" xlink:href="#medb3c606e5" y="395.142893"/>
     <use style="fill:#800080;stroke:#800080;" x="412.557752" xlink:href="#medb3c606e5" y="394.800824"/>
     <use style="fill:#800080;stroke:#800080;" x="422.70163" xlink:href="#medb3c606e5" y="395.123685"/>
     <use style="fill:#800080;stroke:#800080;" x="432.905675" xlink:href="#medb3c606e5" y="395.136397"/>
     <use style="fill:#800080;stroke:#800080;" x="443.182073" xlink:href="#medb3c606e5" y="395.139504"/>
     <use style="fill:#800080;stroke:#800080;" x="453.177438" xlink:href="#medb3c606e5" y="395.146"/>
     <use style="fill:#800080;stroke:#800080;" x="463.420325" xlink:href="#medb3c606e5" y="395.102783"/>
     <use style="fill:#800080;stroke:#800080;" x="474.056203" xlink:href="#medb3c606e5" y="395.15278"/>
     <use style="fill:#800080;stroke:#800080;" x="484.596879" xlink:href="#medb3c606e5" y="395.157299"/>
     <use style="fill:#800080;stroke:#800080;" x="494.643271" xlink:href="#medb3c606e5" y="395.143458"/>
     <use style="fill:#800080;stroke:#800080;" x="504.822945" xlink:href="#medb3c606e5" y="395.135549"/>
     <use style="fill:#800080;stroke:#800080;" x="515.355244" xlink:href="#medb3c606e5" y="395.160124"/>
     <use style="fill:#800080;stroke:#800080;" x="525.320905" xlink:href="#medb3c606e5" y="395.138939"/>
     <use style="fill:#800080;stroke:#800080;" x="535.627006" xlink:href="#medb3c606e5" y="395.137809"/>
     <use style="fill:#800080;stroke:#800080;" x="545.97728" xlink:href="#medb3c606e5" y="395.138656"/>
     <use style="fill:#800080;stroke:#800080;" x="555.983307" xlink:href="#medb3c606e5" y="395.108997"/>
     <use style="fill:#800080;stroke:#800080;" x="568.185054" xlink:href="#medb3c606e5" y="395.133289"/>
     <use style="fill:#800080;stroke:#800080;" x="578.57874" xlink:href="#medb3c606e5" y="395.10928"/>
     <use style="fill:#800080;stroke:#800080;" x="588.831528" xlink:href="#medb3c606e5" y="395.134702"/>
     <use style="fill:#800080;stroke:#800080;" x="599.235115" xlink:href="#medb3c606e5" y="395.157299"/>
     <use style="fill:#800080;stroke:#800080;" x="609.61433" xlink:href="#medb3c606e5" y="395.111822"/>
     <use style="fill:#800080;stroke:#800080;" x="619.791719" xlink:href="#medb3c606e5" y="395.132724"/>
     <use style="fill:#800080;stroke:#800080;" x="630.049839" xlink:href="#medb3c606e5" y="395.121143"/>
     <use style="fill:#800080;stroke:#800080;" x="640.39859" xlink:href="#medb3c606e5" y="395.155887"/>
     <use style="fill:#800080;stroke:#800080;" x="650.457929" xlink:href="#medb3c606e5" y="395.110127"/>
     <use style="fill:#800080;stroke:#800080;" x="660.74042" xlink:href="#medb3c606e5" y="395.166338"/>
     <use style="fill:#800080;stroke:#800080;" x="671.096787" xlink:href="#medb3c606e5" y="395.057305"/>
     <use style="fill:#800080;stroke:#800080;" x="681.126424" xlink:href="#medb3c606e5" y="395.129335"/>
     <use style="fill:#800080;stroke:#800080;" x="691.550574" xlink:href="#medb3c606e5" y="395.131312"/>
     <use style="fill:#800080;stroke:#800080;" x="701.782037" xlink:href="#medb3c606e5" y="395.102218"/>
     <use style="fill:#800080;stroke:#800080;" x="711.897736" xlink:href="#medb3c606e5" y="395.141481"/>
     <use style="fill:#800080;stroke:#800080;" x="722.410994" xlink:href="#medb3c606e5" y="395.158712"/>
     <use style="fill:#800080;stroke:#800080;" x="732.56325" xlink:href="#medb3c606e5" y="395.113517"/>
     <use style="fill:#800080;stroke:#800080;" x="742.708651" xlink:href="#medb3c606e5" y="395.120578"/>
     <use style="fill:#800080;stroke:#800080;" x="753.206678" xlink:href="#medb3c606e5" y="395.142046"/>
     <use style="fill:#800080;stroke:#800080;" x="763.341416" xlink:href="#medb3c606e5" y="395.130747"/>
     <use style="fill:#800080;stroke:#800080;" x="773.376384" xlink:href="#medb3c606e5" y="395.097981"/>
     <use style="fill:#800080;stroke:#800080;" x="784.070144" xlink:href="#medb3c606e5" y="395.148543"/>
     <use style="fill:#800080;stroke:#800080;" x="794.054846" xlink:href="#medb3c606e5" y="395.120578"/>
     <use style="fill:#800080;stroke:#800080;" x="804.056303" xlink:href="#medb3c606e5" y="395.140634"/>
     <use style="fill:#800080;stroke:#800080;" x="814.725692" xlink:href="#medb3c606e5" y="395.138091"/>
     <use style="fill:#800080;stroke:#800080;" x="824.746189" xlink:href="#medb3c606e5" y="395.1025"/>
     <use style="fill:#800080;stroke:#800080;" x="834.833708" xlink:href="#medb3c606e5" y="395.131595"/>
     <use style="fill:#800080;stroke:#800080;" x="845.562502" xlink:href="#medb3c606e5" y="283.000435"/>
     <use style="fill:#800080;stroke:#800080;" x="855.508361" xlink:href="#medb3c606e5" y="283.268497"/>
     <use style="fill:#800080;stroke:#800080;" x="865.586741" xlink:href="#medb3c606e5" y="283.628079"/>
     <use style="fill:#800080;stroke:#800080;" x="876.408452" xlink:href="#medb3c606e5" y="284.21872"/>
     <use style="fill:#800080;stroke:#800080;" x="1245.272727" xlink:href="#medb3c606e5" y="103.212184"/>
    </g>
   </g>
   <g id="line2d_18">
    <path clip-path="url(#p9d16c9ab8a)" d="M 230.727273 423.354235 
L 240.317461 422.210927 
L 249.956391 421.061808 
L 259.743836 419.894983 
L 269.667609 418.711906 
L 279.681252 417.518116 
L 289.523532 416.344754 
L 299.502903 415.155049 
L 309.435053 413.970973 
L 320.984101 412.594137 
L 330.820289 411.421501 
L 340.818699 410.229526 
L 351.0395 409.011039 
L 360.991452 407.824602 
L 371.330302 406.592041 
L 381.754453 405.349311 
L 391.754387 404.157155 
L 402.097806 402.924049 
L 412.557752 401.677051 
L 422.70163 400.467734 
L 432.905675 399.251244 
L 443.182073 398.026128 
L 453.177438 396.834517 
L 463.420325 395.613396 
L 474.056203 394.345424 
L 484.596879 393.088802 
L 494.643271 391.891107 
L 504.822945 390.677523 
L 515.355244 389.421899 
L 525.320905 388.233829 
L 535.627006 387.005172 
L 545.97728 385.771249 
L 555.983307 384.578366 
L 568.185054 383.123717 
L 578.57874 381.884619 
L 588.831528 380.662318 
L 599.235115 379.422039 
L 609.61433 378.184666 
L 619.791719 376.971354 
L 630.049839 375.748417 
L 640.39859 374.514676 
L 650.457929 373.315437 
L 660.74042 372.089595 
L 671.096787 370.854946 
L 681.126424 369.659248 
L 691.550574 368.416518 
L 701.782037 367.196759 
L 711.897736 365.990802 
L 722.410994 364.737448 
L 732.56325 363.527133 
L 742.708651 362.317634 
L 753.206678 361.066096 
L 763.341416 359.857869 
L 773.376384 358.661536 
L 784.070144 357.386664 
L 794.054846 356.196323 
L 804.056303 355.003985 
L 814.725692 353.732018 
L 824.746189 352.53741 
L 834.833708 351.334812 
L 845.562502 350.055763 
L 855.508361 348.870053 
L 865.586741 347.668544 
L 876.408452 346.378419 
L 1245.272727 302.40373 
" style="fill:none;stroke:#0000ff;stroke-linecap:square;stroke-width:1.5;"/>
   </g>
   <g id="line2d_19">
    <path clip-path="url(#p9d16c9ab8a)" d="M 230.727273 492.48 
L 240.317461 492.427438 
L 249.956391 492.374608 
L 259.743836 492.320964 
L 269.667609 492.266574 
L 279.681252 492.21169 
L 289.523532 492.157746 
L 299.502903 492.103051 
L 309.435053 492.048614 
L 320.984101 491.985316 
L 330.820289 491.931405 
L 340.818699 491.876605 
L 351.0395 491.820586 
L 360.991452 491.766041 
L 371.330302 491.709375 
L 381.754453 491.652242 
L 391.754387 491.597434 
L 402.097806 491.540743 
L 412.557752 491.483414 
L 422.70163 491.427817 
L 432.905675 491.37189 
L 443.182073 491.315566 
L 453.177438 491.260783 
L 463.420325 491.204643 
L 474.056203 491.14635 
L 484.596879 491.088578 
L 494.643271 491.033515 
L 504.822945 490.977722 
L 515.355244 490.919996 
L 525.320905 490.865375 
L 535.627006 490.808889 
L 545.97728 490.752161 
L 555.983307 490.697319 
L 568.185054 490.630443 
L 578.57874 490.573477 
L 588.831528 490.517283 
L 599.235115 490.460262 
L 609.61433 490.403376 
L 619.791719 490.347595 
L 630.049839 490.291372 
L 640.39859 490.234652 
L 650.457929 490.179518 
L 660.74042 490.123161 
L 671.096787 490.066399 
L 681.126424 490.011428 
L 691.550574 489.954295 
L 701.782037 489.898218 
L 711.897736 489.842775 
L 722.410994 489.785154 
L 732.56325 489.729511 
L 742.708651 489.673905 
L 753.206678 489.616367 
L 763.341416 489.56082 
L 773.376384 489.50582 
L 784.070144 489.447209 
L 794.054846 489.392484 
L 804.056303 489.337668 
L 814.725692 489.27919 
L 824.746189 489.224269 
L 834.833708 489.168981 
L 845.562502 489.110178 
L 855.508361 489.055666 
L 865.586741 489.000428 
L 876.408452 488.941116 
L 1245.272727 486.919425 
" style="fill:none;stroke:#008000;stroke-linecap:square;stroke-width:1.5;"/>
    <defs>
     <path d="M 0 3 
C 0.795609 3 1.55874 2.683901 2.12132 2.12132 
C 2.683901 1.55874 3 0.795609 3 0 
C 3 -0.795609 2.683901 -1.55874 2.12132 -2.12132 
C 1.55874 -2.683901 0.795609 -3 0 -3 
C -0.795609 -3 -1.55874 -2.683901 -2.12132 -2.12132 
C -2.683901 -1.55874 -3 -0.795609 -3 0 
C -3 0.795609 -2.683901 1.55874 -2.12132 2.12132 
C -1.55874 2.683901 -0.795609 3 0 3 
z
" id="m1bacda2fec" style="stroke:#008000;"/>
    </defs>
    <g clip-path="url(#p9d16c9ab8a)">
     <use style="fill:#008000;stroke:#008000;" x="230.727273" xlink:href="#m1bacda2fec" y="492.48"/>
     <use style="fill:#008000;stroke:#008000;" x="240.317461" xlink:href="#m1bacda2fec" y="492.427438"/>
     <use style="fill:#008000;stroke:#008000;" x="249.956391" xlink:href="#m1bacda2fec" y="492.374608"/>
     <use style="fill:#008000;stroke:#008000;" x="259.743836" xlink:href="#m1bacda2fec" y="492.320964"/>
     <use style="fill:#008000;stroke:#008000;" x="269.667609" xlink:href="#m1bacda2fec" y="492.266574"/>
     <use style="fill:#008000;stroke:#008000;" x="279.681252" xlink:href="#m1bacda2fec" y="492.21169"/>
     <use style="fill:#008000;stroke:#008000;" x="289.523532" xlink:href="#m1bacda2fec" y="492.157746"/>
     <use style="fill:#008000;stroke:#008000;" x="299.502903" xlink:href="#m1bacda2fec" y="492.103051"/>
     <use style="fill:#008000;stroke:#008000;" x="309.435053" xlink:href="#m1bacda2fec" y="492.048614"/>
     <use style="fill:#008000;stroke:#008000;" x="320.984101" xlink:href="#m1bacda2fec" y="491.985316"/>
     <use style="fill:#008000;stroke:#008000;" x="330.820289" xlink:href="#m1bacda2fec" y="491.931405"/>
     <use style="fill:#008000;stroke:#008000;" x="340.818699" xlink:href="#m1bacda2fec" y="491.876605"/>
     <use style="fill:#008000;stroke:#008000;" x="351.0395" xlink:href="#m1bacda2fec" y="491.820586"/>
     <use style="fill:#008000;stroke:#008000;" x="360.991452" xlink:href="#m1bacda2fec" y="491.766041"/>
     <use style="fill:#008000;stroke:#008000;" x="371.330302" xlink:href="#m1bacda2fec" y="491.709375"/>
     <use style="fill:#008000;stroke:#008000;" x="381.754453" xlink:href="#m1bacda2fec" y="491.652242"/>
     <use style="fill:#008000;stroke:#008000;" x="391.754387" xlink:href="#m1bacda2fec" y="491.597434"/>
     <use style="fill:#008000;stroke:#008000;" x="402.097806" xlink:href="#m1bacda2fec" y="491.540743"/>
     <use style="fill:#008000;stroke:#008000;" x="412.557752" xlink:href="#m1bacda2fec" y="491.483414"/>
     <use style="fill:#008000;stroke:#008000;" x="422.70163" xlink:href="#m1bacda2fec" y="491.427817"/>
     <use style="fill:#008000;stroke:#008000;" x="432.905675" xlink:href="#m1bacda2fec" y="491.37189"/>
     <use style="fill:#008000;stroke:#008000;" x="443.182073" xlink:href="#m1bacda2fec" y="491.315566"/>
     <use style="fill:#008000;stroke:#008000;" x="453.177438" xlink:href="#m1bacda2fec" y="491.260783"/>
     <use style="fill:#008000;stroke:#008000;" x="463.420325" xlink:href="#m1bacda2fec" y="491.204643"/>
     <use style="fill:#008000;stroke:#008000;" x="474.056203" xlink:href="#m1bacda2fec" y="491.14635"/>
     <use style="fill:#008000;stroke:#008000;" x="484.596879" xlink:href="#m1bacda2fec" y="491.088578"/>
     <use style="fill:#008000;stroke:#008000;" x="494.643271" xlink:href="#m1bacda2fec" y="491.033515"/>
     <use style="fill:#008000;stroke:#008000;" x="504.822945" xlink:href="#m1bacda2fec" y="490.977722"/>
     <use style="fill:#008000;stroke:#008000;" x="515.355244" xlink:href="#m1bacda2fec" y="490.919996"/>
     <use style="fill:#008000;stroke:#008000;" x="525.320905" xlink:href="#m1bacda2fec" y="490.865375"/>
     <use style="fill:#008000;stroke:#008000;" x="535.627006" xlink:href="#m1bacda2fec" y="490.808889"/>
     <use style="fill:#008000;stroke:#008000;" x="545.97728" xlink:href="#m1bacda2fec" y="490.752161"/>
     <use style="fill:#008000;stroke:#008000;" x="555.983307" xlink:href="#m1bacda2fec" y="490.697319"/>
     <use style="fill:#008000;stroke:#008000;" x="568.185054" xlink:href="#m1bacda2fec" y="490.630443"/>
     <use style="fill:#008000;stroke:#008000;" x="578.57874" xlink:href="#m1bacda2fec" y="490.573477"/>
     <use style="fill:#008000;stroke:#008000;" x="588.831528" xlink:href="#m1bacda2fec" y="490.517283"/>
     <use style="fill:#008000;stroke:#008000;" x="599.235115" xlink:href="#m1bacda2fec" y="490.460262"/>
     <use style="fill:#008000;stroke:#008000;" x="609.61433" xlink:href="#m1bacda2fec" y="490.403376"/>
     <use style="fill:#008000;stroke:#008000;" x="619.791719" xlink:href="#m1bacda2fec" y="490.347595"/>
     <use style="fill:#008000;stroke:#008000;" x="630.049839" xlink:href="#m1bacda2fec" y="490.291372"/>
     <use style="fill:#008000;stroke:#008000;" x="640.39859" xlink:href="#m1bacda2fec" y="490.234652"/>
     <use style="fill:#008000;stroke:#008000;" x="650.457929" xlink:href="#m1bacda2fec" y="490.179518"/>
     <use style="fill:#008000;stroke:#008000;" x="660.74042" xlink:href="#m1bacda2fec" y="490.123161"/>
     <use style="fill:#008000;stroke:#008000;" x="671.096787" xlink:href="#m1bacda2fec" y="490.066399"/>
     <use style="fill:#008000;stroke:#008000;" x="681.126424" xlink:href="#m1bacda2fec" y="490.011428"/>
     <use style="fill:#008000;stroke:#008000;" x="691.550574" xlink:href="#m1bacda2fec" y="489.954295"/>
     <use style="fill:#008000;stroke:#008000;" x="701.782037" xlink:href="#m1bacda2fec" y="489.898218"/>
     <use style="fill:#008000;stroke:#008000;" x="711.897736" xlink:href="#m1bacda2fec" y="489.842775"/>
     <use style="fill:#008000;stroke:#008000;" x="722.410994" xlink:href="#m1bacda2fec" y="489.785154"/>
     <use style="fill:#008000;stroke:#008000;" x="732.56325" xlink:href="#m1bacda2fec" y="489.729511"/>
     <use style="fill:#008000;stroke:#008000;" x="742.708651" xlink:href="#m1bacda2fec" y="489.673905"/>
     <use style="fill:#008000;stroke:#008000;" x="753.206678" xlink:href="#m1bacda2fec" y="489.616367"/>
     <use style="fill:#008000;stroke:#008000;" x="763.341416" xlink:href="#m1bacda2fec" y="489.56082"/>
     <use style="fill:#008000;stroke:#008000;" x="773.376384" xlink:href="#m1bacda2fec" y="489.50582"/>
     <use style="fill:#008000;stroke:#008000;" x="784.070144" xlink:href="#m1bacda2fec" y="489.447209"/>
     <use style="fill:#008000;stroke:#008000;" x="794.054846" xlink:href="#m1bacda2fec" y="489.392484"/>
     <use style="fill:#008000;stroke:#008000;" x="804.056303" xlink:href="#m1bacda2fec" y="489.337668"/>
     <use style="fill:#008000;stroke:#008000;" x="814.725692" xlink:href="#m1bacda2fec" y="489.27919"/>
     <use style="fill:#008000;stroke:#008000;" x="824.746189" xlink:href="#m1bacda2fec" y="489.224269"/>
     <use style="fill:#008000;stroke:#008000;" x="834.833708" xlink:href="#m1bacda2fec" y="489.168981"/>
     <use style="fill:#008000;stroke:#008000;" x="845.562502" xlink:href="#m1bacda2fec" y="489.110178"/>
     <use style="fill:#008000;stroke:#008000;" x="855.508361" xlink:href="#m1bacda2fec" y="489.055666"/>
     <use style="fill:#008000;stroke:#008000;" x="865.586741" xlink:href="#m1bacda2fec" y="489.000428"/>
     <use style="fill:#008000;stroke:#008000;" x="876.408452" xlink:href="#m1bacda2fec" y="488.941116"/>
     <use style="fill:#008000;stroke:#008000;" x="1245.272727" xlink:href="#m1bacda2fec" y="486.919425"/>
    </g>
   </g>
   <g id="patch_3">
    <path d="M 180 512.64 
L 180 69.12 
" style="fill:none;stroke:#000000;stroke-linecap:square;stroke-linejoin:miter;stroke-width:0.8;"/>
   </g>
   <g id="patch_4">
    <path d="M 1296 512.64 
L 1296 69.12 
" style="fill:none;stroke:#000000;stroke-linecap:square;stroke-linejoin:miter;stroke-width:0.8;"/>
   </g>
   <g id="patch_5">
    <path d="M 180 512.64 
L 1296 512.64 
" style="fill:none;stroke:#000000;stroke-linecap:square;stroke-linejoin:miter;stroke-width:0.8;"/>
   </g>
   <g id="patch_6">
    <path d="M 180 69.12 
L 1296 69.12 
" style="fill:none;stroke:#000000;stroke-linecap:square;stroke-linejoin:miter;stroke-width:0.8;"/>
   </g>
   <g id="text_16">
    <!-- 500000.0 bit/s -->
    <defs>
     <path d="M 10.796875 72.90625 
L 49.515625 72.90625 
L 49.515625 64.59375 
L 19.828125 64.59375 
L 19.828125 46.734375 
Q 21.96875 47.46875 24.109375 47.828125 
Q 26.265625 48.1875 28.421875 48.1875 
Q 40.625 48.1875 47.75 41.5 
Q 54.890625 34.8125 54.890625 23.390625 
Q 54.890625 11.625 47.5625 5.09375 
Q 40.234375 -1.421875 26.90625 -1.421875 
Q 22.3125 -1.421875 17.546875 -0.640625 
Q 12.796875 0.140625 7.71875 1.703125 
L 7.71875 11.625 
Q 12.109375 9.234375 16.796875 8.0625 
Q 21.484375 6.890625 26.703125 6.890625 
Q 35.15625 6.890625 40.078125 11.328125 
Q 45.015625 15.765625 45.015625 23.390625 
Q 45.015625 31 40.078125 35.4375 
Q 35.15625 39.890625 26.703125 39.890625 
Q 22.75 39.890625 18.8125 39.015625 
Q 14.890625 38.140625 10.796875 36.28125 
z
" id="DejaVuSans-35"/>
     <path id="DejaVuSans-20"/>
     <path d="M 48.6875 27.296875 
Q 48.6875 37.203125 44.609375 42.84375 
Q 40.53125 48.484375 33.40625 48.484375 
Q 26.265625 48.484375 22.1875 42.84375 
Q 18.109375 37.203125 18.109375 27.296875 
Q 18.109375 17.390625 22.1875 11.75 
Q 26.265625 6.109375 33.40625 6.109375 
Q 40.53125 6.109375 44.609375 11.75 
Q 48.6875 17.390625 48.6875 27.296875 
z
M 18.109375 46.390625 
Q 20.953125 51.265625 25.265625 53.625 
Q 29.59375 56 35.59375 56 
Q 45.5625 56 51.78125 48.09375 
Q 58.015625 40.1875 58.015625 27.296875 
Q 58.015625 14.40625 51.78125 6.484375 
Q 45.5625 -1.421875 35.59375 -1.421875 
Q 29.59375 -1.421875 25.265625 0.953125 
Q 20.953125 3.328125 18.109375 8.203125 
L 18.109375 0 
L 9.078125 0 
L 9.078125 75.984375 
L 18.109375 75.984375 
z
" id="DejaVuSans-62"/>
     <path d="M 9.421875 54.6875 
L 18.40625 54.6875 
L 18.40625 0 
L 9.421875 0 
z
M 9.421875 75.984375 
L 18.40625 75.984375 
L 18.40625 64.59375 
L 9.421875 64.59375 
z
" id="DejaVuSans-69"/>
     <path d="M 18.3125 70.21875 
L 18.3125 54.6875 
L 36.8125 54.6875 
L 36.8125 47.703125 
L 18.3125 47.703125 
L 18.3125 18.015625 
Q 18.3125 11.328125 20.140625 9.421875 
Q 21.96875 7.515625 27.59375 7.515625 
L 36.8125 7.515625 
L 36.8125 0 
L 27.59375 0 
Q 17.1875 0 13.234375 3.875 
Q 9.28125 7.765625 9.28125 18.015625 
L 9.28125 47.703125 
L 2.6875 47.703125 
L 2.6875 54.6875 
L 9.28125 54.6875 
L 9.28125 70.21875 
z
" id="DejaVuSans-74"/>
     <path d="M 25.390625 72.90625 
L 33.6875 72.90625 
L 8.296875 -9.28125 
L 0 -9.28125 
z
" id="DejaVuSans-2f"/>
     <path d="M 44.28125 53.078125 
L 44.28125 44.578125 
Q 40.484375 46.53125 36.375 47.5 
Q 32.28125 48.484375 27.875 48.484375 
Q 21.1875 48.484375 17.84375 46.4375 
Q 14.5 44.390625 14.5 40.28125 
Q 14.5 37.15625 16.890625 35.375 
Q 19.28125 33.59375 26.515625 31.984375 
L 29.59375 31.296875 
Q 39.15625 29.25 43.1875 25.515625 
Q 47.21875 21.78125 47.21875 15.09375 
Q 47.21875 7.46875 41.1875 3.015625 
Q 35.15625 -1.421875 24.609375 -1.421875 
Q 20.21875 -1.421875 15.453125 -0.5625 
Q 10.6875 0.296875 5.421875 2 
L 5.421875 11.28125 
Q 10.40625 8.6875 15.234375 7.390625 
Q 20.0625 6.109375 24.8125 6.109375 
Q 31.15625 6.109375 34.5625 8.28125 
Q 37.984375 10.453125 37.984375 14.40625 
Q 37.984375 18.0625 35.515625 20.015625 
Q 33.0625 21.96875 24.703125 23.78125 
L 21.578125 24.515625 
Q 13.234375 26.265625 9.515625 29.90625 
Q 5.8125 33.546875 5.8125 39.890625 
Q 5.8125 47.609375 11.28125 51.796875 
Q 16.75 56 26.8125 56 
Q 31.78125 56 36.171875 55.265625 
Q 40.578125 54.546875 44.28125 53.078125 
z
" id="DejaVuSans-73"/>
    </defs>
    <g transform="translate(694.48875 63.12)scale(0.12 -0.12)">
     <use xlink:href="#DejaVuSans-35"/>
     <use x="63.623047" xlink:href="#DejaVuSans-30"/>
     <use x="127.246094" xlink:href="#DejaVuSans-30"/>
     <use x="190.869141" xlink:href="#DejaVuSans-30"/>
     <use x="254.492188" xlink:href="#DejaVuSans-30"/>
     <use x="318.115234" xlink:href="#DejaVuSans-30"/>
     <use x="381.738281" xlink:href="#DejaVuSans-2e"/>
     <use x="413.525391" xlink:href="#DejaVuSans-30"/>
     <use x="477.148438" xlink:href="#DejaVuSans-20"/>
     <use x="508.935547" xlink:href="#DejaVuSans-62"/>
     <use x="572.412109" xlink:href="#DejaVuSans-69"/>
     <use x="600.195312" xlink:href="#DejaVuSans-74"/>
     <use x="639.404297" xlink:href="#DejaVuSans-2f"/>
     <use x="673.095703" xlink:href="#DejaVuSans-73"/>
    </g>
   </g>
   <g id="legend_1">
    <g id="patch_7">
     <path d="M 1173.520313 135.8325 
L 1289 135.8325 
Q 1291 135.8325 1291 133.8325 
L 1291 76.12 
Q 1291 74.12 1289 74.12 
L 1173.520313 74.12 
Q 1171.520313 74.12 1171.520313 76.12 
L 1171.520313 133.8325 
Q 1171.520313 135.8325 1173.520313 135.8325 
z
" style="fill:#ffffff;opacity:0.8;stroke:#cccccc;stroke-linejoin:miter;"/>
    </g>
    <g id="line2d_20">
     <path d="M 1175.520313 82.218437 
L 1195.520313 82.218437 
" style="fill:none;stroke:#ff0000;stroke-dasharray:5.55,2.4;stroke-dashoffset:0;stroke-width:1.5;"/>
    </g>
    <g id="line2d_21">
     <g>
      <use style="fill:#ff0000;stroke:#ff0000;stroke-linejoin:miter;" x="1185.520313" xlink:href="#m4130e5c157" y="82.218437"/>
     </g>
    </g>
    <g id="text_17">
     <!-- tcpdump -->
     <defs>
      <path d="M 48.78125 52.59375 
L 48.78125 44.1875 
Q 44.96875 46.296875 41.140625 47.34375 
Q 37.3125 48.390625 33.40625 48.390625 
Q 24.65625 48.390625 19.8125 42.84375 
Q 14.984375 37.3125 14.984375 27.296875 
Q 14.984375 17.28125 19.8125 11.734375 
Q 24.65625 6.203125 33.40625 6.203125 
Q 37.3125 6.203125 41.140625 7.25 
Q 44.96875 8.296875 48.78125 10.40625 
L 48.78125 2.09375 
Q 45.015625 0.34375 40.984375 -0.53125 
Q 36.96875 -1.421875 32.421875 -1.421875 
Q 20.0625 -1.421875 12.78125 6.34375 
Q 5.515625 14.109375 5.515625 27.296875 
Q 5.515625 40.671875 12.859375 48.328125 
Q 20.21875 56 33.015625 56 
Q 37.15625 56 41.109375 55.140625 
Q 45.0625 54.296875 48.78125 52.59375 
z
" id="DejaVuSans-63"/>
      <path d="M 18.109375 8.203125 
L 18.109375 -20.796875 
L 9.078125 -20.796875 
L 9.078125 54.6875 
L 18.109375 54.6875 
L 18.109375 46.390625 
Q 20.953125 51.265625 25.265625 53.625 
Q 29.59375 56 35.59375 56 
Q 45.5625 56 51.78125 48.09375 
Q 58.015625 40.1875 58.015625 27.296875 
Q 58.015625 14.40625 51.78125 6.484375 
Q 45.5625 -1.421875 35.59375 -1.421875 
Q 29.59375 -1.421875 25.265625 0.953125 
Q 20.953125 3.328125 18.109375 8.203125 
z
M 48.6875 27.296875 
Q 48.6875 37.203125 44.609375 42.84375 
Q 40.53125 48.484375 33.40625 48.484375 
Q 26.265625 48.484375 22.1875 42.84375 
Q 18.109375 37.203125 18.109375 27.296875 
Q 18.109375 17.390625 22.1875 11.75 
Q 26.265625 6.109375 33.40625 6.109375 
Q 40.53125 6.109375 44.609375 11.75 
Q 48.6875 17.390625 48.6875 27.296875 
z
" id="DejaVuSans-70"/>
      <path d="M 45.40625 46.390625 
L 45.40625 75.984375 
L 54.390625 75.984375 
L 54.390625 0 
L 45.40625 0 
L 45.40625 8.203125 
Q 42.578125 3.328125 38.25 0.953125 
Q 33.9375 -1.421875 27.875 -1.421875 
Q 17.96875 -1.421875 11.734375 6.484375 
Q 5.515625 14.40625 5.515625 27.296875 
Q 5.515625 40.1875 11.734375 48.09375 
Q 17.96875 56 27.875 56 
Q 33.9375 56 38.25 53.625 
Q 42.578125 51.265625 45.40625 46.390625 
z
M 14.796875 27.296875 
Q 14.796875 17.390625 18.875 11.75 
Q 22.953125 6.109375 30.078125 6.109375 
Q 37.203125 6.109375 41.296875 11.75 
Q 45.40625 17.390625 45.40625 27.296875 
Q 45.40625 37.203125 41.296875 42.84375 
Q 37.203125 48.484375 30.078125 48.484375 
Q 22.953125 48.484375 18.875 42.84375 
Q 14.796875 37.203125 14.796875 27.296875 
z
" id="DejaVuSans-64"/>
      <path d="M 8.5 21.578125 
L 8.5 54.6875 
L 17.484375 54.6875 
L 17.484375 21.921875 
Q 17.484375 14.15625 20.5 10.265625 
Q 23.53125 6.390625 29.59375 6.390625 
Q 36.859375 6.390625 41.078125 11.03125 
Q 45.3125 15.671875 45.3125 23.6875 
L 45.3125 54.6875 
L 54.296875 54.6875 
L 54.296875 0 
L 45.3125 0 
L 45.3125 8.40625 
Q 42.046875 3.421875 37.71875 1 
Q 33.40625 -1.421875 27.6875 -1.421875 
Q 18.265625 -1.421875 13.375 4.4375 
Q 8.5 10.296875 8.5 21.578125 
z
M 31.109375 56 
z
" id="DejaVuSans-75"/>
      <path d="M 52 44.1875 
Q 55.375 50.25 60.0625 53.125 
Q 64.75 56 71.09375 56 
Q 79.640625 56 84.28125 50.015625 
Q 88.921875 44.046875 88.921875 33.015625 
L 88.921875 0 
L 79.890625 0 
L 79.890625 32.71875 
Q 79.890625 40.578125 77.09375 44.375 
Q 74.3125 48.1875 68.609375 48.1875 
Q 61.625 48.1875 57.5625 43.546875 
Q 53.515625 38.921875 53.515625 30.90625 
L 53.515625 0 
L 44.484375 0 
L 44.484375 32.71875 
Q 44.484375 40.625 41.703125 44.40625 
Q 38.921875 48.1875 33.109375 48.1875 
Q 26.21875 48.1875 22.15625 43.53125 
Q 18.109375 38.875 18.109375 30.90625 
L 18.109375 0 
L 9.078125 0 
L 9.078125 54.6875 
L 18.109375 54.6875 
L 18.109375 46.1875 
Q 21.1875 51.21875 25.484375 53.609375 
Q 29.78125 56 35.6875 56 
Q 41.65625 56 45.828125 52.96875 
Q 50 49.953125 52 44.1875 
z
" id="DejaVuSans-6d"/>
     </defs>
     <g transform="translate(1203.520313 85.718437)scale(0.1 -0.1)">
      <use xlink:href="#DejaVuSans-74"/>
      <use x="39.208984" xlink:href="#DejaVuSans-63"/>
      <use x="94.189453" xlink:href="#DejaVuSans-70"/>
      <use x="157.666016" xlink:href="#DejaVuSans-64"/>
      <use x="221.142578" xlink:href="#DejaVuSans-75"/>
      <use x="284.521484" xlink:href="#DejaVuSans-6d"/>
      <use x="381.933594" xlink:href="#DejaVuSans-70"/>
     </g>
    </g>
    <g id="line2d_22">
     <path d="M 1175.520313 96.896563 
L 1195.520313 96.896563 
" style="fill:none;stroke:#800080;stroke-dasharray:9.6,2.4,1.5,2.4;stroke-dashoffset:0;stroke-width:1.5;"/>
    </g>
    <g id="line2d_23">
     <g>
      <use style="fill:#800080;stroke:#800080;" x="1185.520313" xlink:href="#medb3c606e5" y="96.896563"/>
     </g>
    </g>
    <g id="text_18">
     <!-- filtered tcpdump -->
     <defs>
      <path d="M 37.109375 75.984375 
L 37.109375 68.5 
L 28.515625 68.5 
Q 23.6875 68.5 21.796875 66.546875 
Q 19.921875 64.59375 19.921875 59.515625 
L 19.921875 54.6875 
L 34.71875 54.6875 
L 34.71875 47.703125 
L 19.921875 47.703125 
L 19.921875 0 
L 10.890625 0 
L 10.890625 47.703125 
L 2.296875 47.703125 
L 2.296875 54.6875 
L 10.890625 54.6875 
L 10.890625 58.5 
Q 10.890625 67.625 15.140625 71.796875 
Q 19.390625 75.984375 28.609375 75.984375 
z
" id="DejaVuSans-66"/>
      <path d="M 9.421875 75.984375 
L 18.40625 75.984375 
L 18.40625 0 
L 9.421875 0 
z
" id="DejaVuSans-6c"/>
      <path d="M 56.203125 29.59375 
L 56.203125 25.203125 
L 14.890625 25.203125 
Q 15.484375 15.921875 20.484375 11.0625 
Q 25.484375 6.203125 34.421875 6.203125 
Q 39.59375 6.203125 44.453125 7.46875 
Q 49.3125 8.734375 54.109375 11.28125 
L 54.109375 2.78125 
Q 49.265625 0.734375 44.1875 -0.34375 
Q 39.109375 -1.421875 33.890625 -1.421875 
Q 20.796875 -1.421875 13.15625 6.1875 
Q 5.515625 13.8125 5.515625 26.8125 
Q 5.515625 40.234375 12.765625 48.109375 
Q 20.015625 56 32.328125 56 
Q 43.359375 56 49.78125 48.890625 
Q 56.203125 41.796875 56.203125 29.59375 
z
M 47.21875 32.234375 
Q 47.125 39.59375 43.09375 43.984375 
Q 39.0625 48.390625 32.421875 48.390625 
Q 24.90625 48.390625 20.390625 44.140625 
Q 15.875 39.890625 15.1875 32.171875 
z
" id="DejaVuSans-65"/>
      <path d="M 41.109375 46.296875 
Q 39.59375 47.171875 37.8125 47.578125 
Q 36.03125 48 33.890625 48 
Q 26.265625 48 22.1875 43.046875 
Q 18.109375 38.09375 18.109375 28.8125 
L 18.109375 0 
L 9.078125 0 
L 9.078125 54.6875 
L 18.109375 54.6875 
L 18.109375 46.1875 
Q 20.953125 51.171875 25.484375 53.578125 
Q 30.03125 56 36.53125 56 
Q 37.453125 56 38.578125 55.875 
Q 39.703125 55.765625 41.0625 55.515625 
z
" id="DejaVuSans-72"/>
     </defs>
     <g transform="translate(1203.520313 100.396563)scale(0.1 -0.1)">
      <use xlink:href="#DejaVuSans-66"/>
      <use x="35.205078" xlink:href="#DejaVuSans-69"/>
      <use x="62.988281" xlink:href="#DejaVuSans-6c"/>
      <use x="90.771484" xlink:href="#DejaVuSans-74"/>
      <use x="129.980469" xlink:href="#DejaVuSans-65"/>
      <use x="191.503906" xlink:href="#DejaVuSans-72"/>
      <use x="232.585938" xlink:href="#DejaVuSans-65"/>
      <use x="294.109375" xlink:href="#DejaVuSans-64"/>
      <use x="357.585938" xlink:href="#DejaVuSans-20"/>
      <use x="389.373047" xlink:href="#DejaVuSans-74"/>
      <use x="428.582031" xlink:href="#DejaVuSans-63"/>
      <use x="483.5625" xlink:href="#DejaVuSans-70"/>
      <use x="547.039062" xlink:href="#DejaVuSans-64"/>
      <use x="610.515625" xlink:href="#DejaVuSans-75"/>
      <use x="673.894531" xlink:href="#DejaVuSans-6d"/>
      <use x="771.306641" xlink:href="#DejaVuSans-70"/>
     </g>
    </g>
    <g id="line2d_24">
     <path d="M 1175.520313 111.574687 
L 1195.520313 111.574687 
" style="fill:none;stroke:#0000ff;stroke-linecap:square;stroke-width:1.5;"/>
    </g>
    <g id="line2d_25"/>
    <g id="text_19">
     <!-- OLS -->
     <defs>
      <path d="M 39.40625 66.21875 
Q 28.65625 66.21875 22.328125 58.203125 
Q 16.015625 50.203125 16.015625 36.375 
Q 16.015625 22.609375 22.328125 14.59375 
Q 28.65625 6.59375 39.40625 6.59375 
Q 50.140625 6.59375 56.421875 14.59375 
Q 62.703125 22.609375 62.703125 36.375 
Q 62.703125 50.203125 56.421875 58.203125 
Q 50.140625 66.21875 39.40625 66.21875 
z
M 39.40625 74.21875 
Q 54.734375 74.21875 63.90625 63.9375 
Q 73.09375 53.65625 73.09375 36.375 
Q 73.09375 19.140625 63.90625 8.859375 
Q 54.734375 -1.421875 39.40625 -1.421875 
Q 24.03125 -1.421875 14.8125 8.828125 
Q 5.609375 19.09375 5.609375 36.375 
Q 5.609375 53.65625 14.8125 63.9375 
Q 24.03125 74.21875 39.40625 74.21875 
z
" id="DejaVuSans-4f"/>
      <path d="M 9.8125 72.90625 
L 19.671875 72.90625 
L 19.671875 8.296875 
L 55.171875 8.296875 
L 55.171875 0 
L 9.8125 0 
z
" id="DejaVuSans-4c"/>
      <path d="M 53.515625 70.515625 
L 53.515625 60.890625 
Q 47.90625 63.578125 42.921875 64.890625 
Q 37.9375 66.21875 33.296875 66.21875 
Q 25.25 66.21875 20.875 63.09375 
Q 16.5 59.96875 16.5 54.203125 
Q 16.5 49.359375 19.40625 46.890625 
Q 22.3125 44.4375 30.421875 42.921875 
L 36.375 41.703125 
Q 47.40625 39.59375 52.65625 34.296875 
Q 57.90625 29 57.90625 20.125 
Q 57.90625 9.515625 50.796875 4.046875 
Q 43.703125 -1.421875 29.984375 -1.421875 
Q 24.8125 -1.421875 18.96875 -0.25 
Q 13.140625 0.921875 6.890625 3.21875 
L 6.890625 13.375 
Q 12.890625 10.015625 18.65625 8.296875 
Q 24.421875 6.59375 29.984375 6.59375 
Q 38.421875 6.59375 43.015625 9.90625 
Q 47.609375 13.234375 47.609375 19.390625 
Q 47.609375 24.75 44.3125 27.78125 
Q 41.015625 30.8125 33.5 32.328125 
L 27.484375 33.5 
Q 16.453125 35.6875 11.515625 40.375 
Q 6.59375 45.0625 6.59375 53.421875 
Q 6.59375 63.09375 13.40625 68.65625 
Q 20.21875 74.21875 32.171875 74.21875 
Q 37.3125 74.21875 42.625 73.28125 
Q 47.953125 72.359375 53.515625 70.515625 
z
" id="DejaVuSans-53"/>
     </defs>
     <g transform="translate(1203.520313 115.074687)scale(0.1 -0.1)">
      <use xlink:href="#DejaVuSans-4f"/>
      <use x="78.710938" xlink:href="#DejaVuSans-4c"/>
      <use x="134.423828" xlink:href="#DejaVuSans-53"/>
     </g>
    </g>
    <g id="line2d_26">
     <path d="M 1175.520313 126.252813 
L 1195.520313 126.252813 
" style="fill:none;stroke:#008000;stroke-linecap:square;stroke-width:1.5;"/>
    </g>
    <g id="line2d_27">
     <g>
      <use style="fill:#008000;stroke:#008000;" x="1185.520313" xlink:href="#m1bacda2fec" y="126.252813"/>
     </g>
    </g>
    <g id="text_20">
     <!-- IRLS -->
     <defs>
      <path d="M 9.8125 72.90625 
L 19.671875 72.90625 
L 19.671875 0 
L 9.8125 0 
z
" id="DejaVuSans-49"/>
      <path d="M 44.390625 34.1875 
Q 47.5625 33.109375 50.5625 29.59375 
Q 53.5625 26.078125 56.59375 19.921875 
L 66.609375 0 
L 56 0 
L 46.6875 18.703125 
Q 43.0625 26.03125 39.671875 28.421875 
Q 36.28125 30.8125 30.421875 30.8125 
L 19.671875 30.8125 
L 19.671875 0 
L 9.8125 0 
L 9.8125 72.90625 
L 32.078125 72.90625 
Q 44.578125 72.90625 50.734375 67.671875 
Q 56.890625 62.453125 56.890625 51.90625 
Q 56.890625 45.015625 53.6875 40.46875 
Q 50.484375 35.9375 44.390625 34.1875 
z
M 19.671875 64.796875 
L 19.671875 38.921875 
L 32.078125 38.921875 
Q 39.203125 38.921875 42.84375 42.21875 
Q 46.484375 45.515625 46.484375 51.90625 
Q 46.484375 58.296875 42.84375 61.546875 
Q 39.203125 64.796875 32.078125 64.796875 
z
" id="DejaVuSans-52"/>
     </defs>
     <g transform="translate(1203.520313 129.752813)scale(0.1 -0.1)">
      <use xlink:href="#DejaVuSans-49"/>
      <use x="29.492188" xlink:href="#DejaVuSans-52"/>
      <use x="98.974609" xlink:href="#DejaVuSans-4c"/>
      <use x="154.6875" xlink:href="#DejaVuSans-53"/>
     </g>
    </g>
   </g>
  </g>
 </g>
 <defs>
  <clipPath id="p9d16c9ab8a">
   <rect height="443.52" width="1116" x="180" y="69.12"/>
  </clipPath>
 </defs>
</svg>
