<?xml version="1.0" encoding="utf-8" standalone="no"?>
<!DOCTYPE svg PUBLIC "-//W3C//DTD SVG 1.1//EN"
  "http://www.w3.org/Graphics/SVG/1.1/DTD/svg11.dtd">
<!-- Created with matplotlib (http://matplotlib.org/) -->
<svg height="576pt" version="1.1" viewBox="0 0 1440 576" width="1440pt" xmlns="http://www.w3.org/2000/svg" xmlns:xlink="http://www.w3.org/1999/xlink">
 <defs>
  <style type="text/css">
*{stroke-linecap:butt;stroke-linejoin:round;}
  </style>
 </defs>
 <g id="figure_1">
  <g id="patch_1">
   <path d="M 0 576 
L 1440 576 
L 1440 0 
L 0 0 
z
" style="fill:#ffffff;"/>
  </g>
  <g id="axes_1">
   <g id="patch_2">
    <path d="M 180 512.64 
L 1296 512.64 
L 1296 69.12 
L 180 69.12 
z
" style="fill:#ffffff;"/>
   </g>
   <g id="matplotlib.axis_1">
    <g id="xtick_1">
     <g id="line2d_1">
      <defs>
       <path d="M 0 0 
L 0 3.5 
" id="md175c2c55b" style="stroke:#000000;stroke-width:0.8;"/>
      </defs>
      <g>
       <use style="stroke:#000000;stroke-width:0.8;" x="230.727273" xlink:href="#md175c2c55b" y="512.64"/>
      </g>
     </g>
     <g id="text_1">
      <!-- 0.00 -->
      <defs>
       <path d="M 31.78125 66.40625 
Q 24.171875 66.40625 20.328125 58.90625 
Q 16.5 51.421875 16.5 36.375 
Q 16.5 21.390625 20.328125 13.890625 
Q 24.171875 6.390625 31.78125 6.390625 
Q 39.453125 6.390625 43.28125 13.890625 
Q 47.125 21.390625 47.125 36.375 
Q 47.125 51.421875 43.28125 58.90625 
Q 39.453125 66.40625 31.78125 66.40625 
z
M 31.78125 74.21875 
Q 44.046875 74.21875 50.515625 64.515625 
Q 56.984375 54.828125 56.984375 36.375 
Q 56.984375 17.96875 50.515625 8.265625 
Q 44.046875 -1.421875 31.78125 -1.421875 
Q 19.53125 -1.421875 13.0625 8.265625 
Q 6.59375 17.96875 6.59375 36.375 
Q 6.59375 54.828125 13.0625 64.515625 
Q 19.53125 74.21875 31.78125 74.21875 
z
" id="DejaVuSans-30"/>
       <path d="M 10.6875 12.40625 
L 21 12.40625 
L 21 0 
L 10.6875 0 
z
" id="DejaVuSans-2e"/>
      </defs>
      <g transform="translate(219.59446 527.238438)scale(0.1 -0.1)">
       <use xlink:href="#DejaVuSans-30"/>
       <use x="63.623047" xlink:href="#DejaVuSans-2e"/>
       <use x="95.410156" xlink:href="#DejaVuSans-30"/>
       <use x="159.033203" xlink:href="#DejaVuSans-30"/>
      </g>
     </g>
    </g>
    <g id="xtick_2">
     <g id="line2d_2">
      <g>
       <use style="stroke:#000000;stroke-width:0.8;" x="433.655033" xlink:href="#md175c2c55b" y="512.64"/>
      </g>
     </g>
     <g id="text_2">
      <!-- 0.05 -->
      <defs>
       <path d="M 10.796875 72.90625 
L 49.515625 72.90625 
L 49.515625 64.59375 
L 19.828125 64.59375 
L 19.828125 46.734375 
Q 21.96875 47.46875 24.109375 47.828125 
Q 26.265625 48.1875 28.421875 48.1875 
Q 40.625 48.1875 47.75 41.5 
Q 54.890625 34.8125 54.890625 23.390625 
Q 54.890625 11.625 47.5625 5.09375 
Q 40.234375 -1.421875 26.90625 -1.421875 
Q 22.3125 -1.421875 17.546875 -0.640625 
Q 12.796875 0.140625 7.71875 1.703125 
L 7.71875 11.625 
Q 12.109375 9.234375 16.796875 8.0625 
Q 21.484375 6.890625 26.703125 6.890625 
Q 35.15625 6.890625 40.078125 11.328125 
Q 45.015625 15.765625 45.015625 23.390625 
Q 45.015625 31 40.078125 35.4375 
Q 35.15625 39.890625 26.703125 39.890625 
Q 22.75 39.890625 18.8125 39.015625 
Q 14.890625 38.140625 10.796875 36.28125 
z
" id="DejaVuSans-35"/>
      </defs>
      <g transform="translate(422.52222 527.238438)scale(0.1 -0.1)">
       <use xlink:href="#DejaVuSans-30"/>
       <use x="63.623047" xlink:href="#DejaVuSans-2e"/>
       <use x="95.410156" xlink:href="#DejaVuSans-30"/>
       <use x="159.033203" xlink:href="#DejaVuSans-35"/>
      </g>
     </g>
    </g>
    <g id="xtick_3">
     <g id="line2d_3">
      <g>
       <use style="stroke:#000000;stroke-width:0.8;" x="636.582793" xlink:href="#md175c2c55b" y="512.64"/>
      </g>
     </g>
     <g id="text_3">
      <!-- 0.10 -->
      <defs>
       <path d="M 12.40625 8.296875 
L 28.515625 8.296875 
L 28.515625 63.921875 
L 10.984375 60.40625 
L 10.984375 69.390625 
L 28.421875 72.90625 
L 38.28125 72.90625 
L 38.28125 8.296875 
L 54.390625 8.296875 
L 54.390625 0 
L 12.40625 0 
z
" id="DejaVuSans-31"/>
      </defs>
      <g transform="translate(625.449981 527.238438)scale(0.1 -0.1)">
       <use xlink:href="#DejaVuSans-30"/>
       <use x="63.623047" xlink:href="#DejaVuSans-2e"/>
       <use x="95.410156" xlink:href="#DejaVuSans-31"/>
       <use x="159.033203" xlink:href="#DejaVuSans-30"/>
      </g>
     </g>
    </g>
    <g id="xtick_4">
     <g id="line2d_4">
      <g>
       <use style="stroke:#000000;stroke-width:0.8;" x="839.510554" xlink:href="#md175c2c55b" y="512.64"/>
      </g>
     </g>
     <g id="text_4">
      <!-- 0.15 -->
      <g transform="translate(828.377741 527.238438)scale(0.1 -0.1)">
       <use xlink:href="#DejaVuSans-30"/>
       <use x="63.623047" xlink:href="#DejaVuSans-2e"/>
       <use x="95.410156" xlink:href="#DejaVuSans-31"/>
       <use x="159.033203" xlink:href="#DejaVuSans-35"/>
      </g>
     </g>
    </g>
    <g id="xtick_5">
     <g id="line2d_5">
      <g>
       <use style="stroke:#000000;stroke-width:0.8;" x="1042.438314" xlink:href="#md175c2c55b" y="512.64"/>
      </g>
     </g>
     <g id="text_5">
      <!-- 0.20 -->
      <defs>
       <path d="M 19.1875 8.296875 
L 53.609375 8.296875 
L 53.609375 0 
L 7.328125 0 
L 7.328125 8.296875 
Q 12.9375 14.109375 22.625 23.890625 
Q 32.328125 33.6875 34.8125 36.53125 
Q 39.546875 41.84375 41.421875 45.53125 
Q 43.3125 49.21875 43.3125 52.78125 
Q 43.3125 58.59375 39.234375 62.25 
Q 35.15625 65.921875 28.609375 65.921875 
Q 23.96875 65.921875 18.8125 64.3125 
Q 13.671875 62.703125 7.8125 59.421875 
L 7.8125 69.390625 
Q 13.765625 71.78125 18.9375 73 
Q 24.125 74.21875 28.421875 74.21875 
Q 39.75 74.21875 46.484375 68.546875 
Q 53.21875 62.890625 53.21875 53.421875 
Q 53.21875 48.921875 51.53125 44.890625 
Q 49.859375 40.875 45.40625 35.40625 
Q 44.1875 33.984375 37.640625 27.21875 
Q 31.109375 20.453125 19.1875 8.296875 
z
" id="DejaVuSans-32"/>
      </defs>
      <g transform="translate(1031.305501 527.238438)scale(0.1 -0.1)">
       <use xlink:href="#DejaVuSans-30"/>
       <use x="63.623047" xlink:href="#DejaVuSans-2e"/>
       <use x="95.410156" xlink:href="#DejaVuSans-32"/>
       <use x="159.033203" xlink:href="#DejaVuSans-30"/>
      </g>
     </g>
    </g>
    <g id="xtick_6">
     <g id="line2d_6">
      <g>
       <use style="stroke:#000000;stroke-width:0.8;" x="1245.366074" xlink:href="#md175c2c55b" y="512.64"/>
      </g>
     </g>
     <g id="text_6">
      <!-- 0.25 -->
      <g transform="translate(1234.233262 527.238438)scale(0.1 -0.1)">
       <use xlink:href="#DejaVuSans-30"/>
       <use x="63.623047" xlink:href="#DejaVuSans-2e"/>
       <use x="95.410156" xlink:href="#DejaVuSans-32"/>
       <use x="159.033203" xlink:href="#DejaVuSans-35"/>
      </g>
     </g>
    </g>
   </g>
   <g id="matplotlib.axis_2">
    <g id="ytick_1">
     <g id="line2d_7">
      <defs>
       <path d="M 0 0 
L -3.5 0 
" id="m0addb41196" style="stroke:#000000;stroke-width:0.8;"/>
      </defs>
      <g>
       <use style="stroke:#000000;stroke-width:0.8;" x="180" xlink:href="#m0addb41196" y="432.289424"/>
      </g>
     </g>
     <g id="text_7">
      <!-- 1.0 -->
      <g transform="translate(157.096875 436.088643)scale(0.1 -0.1)">
       <use xlink:href="#DejaVuSans-31"/>
       <use x="63.623047" xlink:href="#DejaVuSans-2e"/>
       <use x="95.410156" xlink:href="#DejaVuSans-30"/>
      </g>
     </g>
    </g>
    <g id="ytick_2">
     <g id="line2d_8">
      <g>
       <use style="stroke:#000000;stroke-width:0.8;" x="180" xlink:href="#m0addb41196" y="347.742121"/>
      </g>
     </g>
     <g id="text_8">
      <!-- 1.5 -->
      <g transform="translate(157.096875 351.54134)scale(0.1 -0.1)">
       <use xlink:href="#DejaVuSans-31"/>
       <use x="63.623047" xlink:href="#DejaVuSans-2e"/>
       <use x="95.410156" xlink:href="#DejaVuSans-35"/>
      </g>
     </g>
    </g>
    <g id="ytick_3">
     <g id="line2d_9">
      <g>
       <use style="stroke:#000000;stroke-width:0.8;" x="180" xlink:href="#m0addb41196" y="263.194818"/>
      </g>
     </g>
     <g id="text_9">
      <!-- 2.0 -->
      <g transform="translate(157.096875 266.994036)scale(0.1 -0.1)">
       <use xlink:href="#DejaVuSans-32"/>
       <use x="63.623047" xlink:href="#DejaVuSans-2e"/>
       <use x="95.410156" xlink:href="#DejaVuSans-30"/>
      </g>
     </g>
    </g>
    <g id="ytick_4">
     <g id="line2d_10">
      <g>
       <use style="stroke:#000000;stroke-width:0.8;" x="180" xlink:href="#m0addb41196" y="178.647514"/>
      </g>
     </g>
     <g id="text_10">
      <!-- 2.5 -->
      <g transform="translate(157.096875 182.446733)scale(0.1 -0.1)">
       <use xlink:href="#DejaVuSans-32"/>
       <use x="63.623047" xlink:href="#DejaVuSans-2e"/>
       <use x="95.410156" xlink:href="#DejaVuSans-35"/>
      </g>
     </g>
    </g>
    <g id="ytick_5">
     <g id="line2d_11">
      <g>
       <use style="stroke:#000000;stroke-width:0.8;" x="180" xlink:href="#m0addb41196" y="94.100211"/>
      </g>
     </g>
     <g id="text_11">
      <!-- 3.0 -->
      <defs>
       <path d="M 40.578125 39.3125 
Q 47.65625 37.796875 51.625 33 
Q 55.609375 28.21875 55.609375 21.1875 
Q 55.609375 10.40625 48.1875 4.484375 
Q 40.765625 -1.421875 27.09375 -1.421875 
Q 22.515625 -1.421875 17.65625 -0.515625 
Q 12.796875 0.390625 7.625 2.203125 
L 7.625 11.71875 
Q 11.71875 9.328125 16.59375 8.109375 
Q 21.484375 6.890625 26.8125 6.890625 
Q 36.078125 6.890625 40.9375 10.546875 
Q 45.796875 14.203125 45.796875 21.1875 
Q 45.796875 27.640625 41.28125 31.265625 
Q 36.765625 34.90625 28.71875 34.90625 
L 20.21875 34.90625 
L 20.21875 43.015625 
L 29.109375 43.015625 
Q 36.375 43.015625 40.234375 45.921875 
Q 44.09375 48.828125 44.09375 54.296875 
Q 44.09375 59.90625 40.109375 62.90625 
Q 36.140625 65.921875 28.71875 65.921875 
Q 24.65625 65.921875 20.015625 65.03125 
Q 15.375 64.15625 9.8125 62.3125 
L 9.8125 71.09375 
Q 15.4375 72.65625 20.34375 73.4375 
Q 25.25 74.21875 29.59375 74.21875 
Q 40.828125 74.21875 47.359375 69.109375 
Q 53.90625 64.015625 53.90625 55.328125 
Q 53.90625 49.265625 50.4375 45.09375 
Q 46.96875 40.921875 40.578125 39.3125 
z
" id="DejaVuSans-33"/>
      </defs>
      <g transform="translate(157.096875 97.89943)scale(0.1 -0.1)">
       <use xlink:href="#DejaVuSans-33"/>
       <use x="63.623047" xlink:href="#DejaVuSans-2e"/>
       <use x="95.410156" xlink:href="#DejaVuSans-30"/>
      </g>
     </g>
    </g>
   </g>
   <g id="line2d_12">
    <path clip-path="url(#pce6574f98f)" d="M 230.727273 431.961719 
L 242.480849 430.421267 
L 254.080199 428.867457 
L 262.355593 427.175665 
L 270.67969 425.485396 
L 282.546906 423.938518 
L 292.75823 422.329921 
L 301.285255 420.648275 
L 309.475419 418.952426 
L 323.420615 417.496352 
L 333.871395 415.890122 
L 342.187374 414.203403 
L 350.511471 412.512627 
L 364.704239 411.067037 
L 375.029203 409.459623 
L 383.483174 407.774934 
L 391.604343 406.07604 
L 405.427782 404.615232 
L 416.783619 403.05043 
L 425.245707 401.366079 
L 434.515447 399.712841 
L 449.678209 398.308849 
L 459.942295 396.699913 
L 467.970117 394.997131 
L 475.876183 393.289444 
L 488.63628 391.783995 
L 499.078943 390.18064 
L 507.40304 388.491554 
L 515.832659 386.805173 
L 530.329818 385.372097 
L 540.926706 383.77652 
L 549.214275 382.08439 
L 557.392264 380.387864 
L 571.118298 378.922321 
L 581.788239 377.329788 
L 590.10016 375.638673 
L 598.955928 373.969878 
L 612.446565 372.495204 
L 622.71471 370.884916 
L 631.022573 369.194647 
L 639.111273 367.494231 
L 652.898185 366.031225 
L 663.523483 364.436832 
L 671.76235 362.742165 
L 679.972807 361.040397 
L 694.060052 359.597175 
L 704.563593 357.997878 
L 712.761874 356.302197 
L 720.911453 354.604487 
L 734.661838 353.140128 
L 745.348014 351.548441 
L 753.631525 349.855973 
L 762.093613 348.171621 
L 775.81153 346.70388 
L 787.053727 345.136711 
L 795.357531 343.445596 
L 803.604516 341.751775 
L 816.612185 340.256303 
L 827.27401 338.663432 
L 836.003962 336.990071 
L 844.328059 335.299463 
L 857.907984 333.827833 
L 868.379057 332.227014 
L 876.662568 330.534885 
L 885.956659 328.883507 
L 898.810104 327.382961 
L 909.171595 325.777915 
L 917.718912 324.096269 
L 925.969955 322.403294 
L 939.631052 320.935215 
L 950.252291 319.340145 
L 958.539861 317.648354 
L 966.82743 315.956055 
L 980.204428 314.476308 
L 990.740438 129.601962 
L 999.165998 127.920147 
L 1007.372397 126.224973 
L 1021.532696 124.777524 
L 1032.243223 123.186681 
L 1040.514559 121.494044 
L 1048.818363 119.802929 
L 1062.373937 118.329946 
L 1072.905888 116.72862 
L 1081.367975 115.046467 
L 1089.623077 113.353661 
L 1103.576389 111.897926 
L 1114.104282 110.298967 
L 1122.290387 108.601088 
L 1130.172102 106.893063 
L 1144.50286 105.453899 
L 1155.01046 103.854433 
L 1163.208741 102.158583 
L 1171.354261 100.460366 
L 1185.54297 99.014269 
L 1196.147975 97.4192 
L 1204.516716 95.730621 
L 1212.714997 94.034771 
L 1226.432914 92.569397 
L 1237.037919 90.973482 
L 1245.272727 89.28 
" style="fill:none;stroke:#ff0000;stroke-dasharray:5.55,2.4;stroke-dashoffset:0;stroke-width:1.5;"/>
    <defs>
     <path d="M -3 3 
L 3 3 
L 3 -3 
L -3 -3 
z
" id="mf3fca06eaa" style="stroke:#ff0000;stroke-linejoin:miter;"/>
    </defs>
    <g clip-path="url(#pce6574f98f)">
     <use style="fill:#ff0000;stroke:#ff0000;stroke-linejoin:miter;" x="230.727273" xlink:href="#mf3fca06eaa" y="431.961719"/>
     <use style="fill:#ff0000;stroke:#ff0000;stroke-linejoin:miter;" x="242.480849" xlink:href="#mf3fca06eaa" y="430.421267"/>
     <use style="fill:#ff0000;stroke:#ff0000;stroke-linejoin:miter;" x="254.080199" xlink:href="#mf3fca06eaa" y="428.867457"/>
     <use style="fill:#ff0000;stroke:#ff0000;stroke-linejoin:miter;" x="262.355593" xlink:href="#mf3fca06eaa" y="427.175665"/>
     <use style="fill:#ff0000;stroke:#ff0000;stroke-linejoin:miter;" x="270.67969" xlink:href="#mf3fca06eaa" y="425.485396"/>
     <use style="fill:#ff0000;stroke:#ff0000;stroke-linejoin:miter;" x="282.546906" xlink:href="#mf3fca06eaa" y="423.938518"/>
     <use style="fill:#ff0000;stroke:#ff0000;stroke-linejoin:miter;" x="292.75823" xlink:href="#mf3fca06eaa" y="422.329921"/>
     <use style="fill:#ff0000;stroke:#ff0000;stroke-linejoin:miter;" x="301.285255" xlink:href="#mf3fca06eaa" y="420.648275"/>
     <use style="fill:#ff0000;stroke:#ff0000;stroke-linejoin:miter;" x="309.475419" xlink:href="#mf3fca06eaa" y="418.952426"/>
     <use style="fill:#ff0000;stroke:#ff0000;stroke-linejoin:miter;" x="323.420615" xlink:href="#mf3fca06eaa" y="417.496352"/>
     <use style="fill:#ff0000;stroke:#ff0000;stroke-linejoin:miter;" x="333.871395" xlink:href="#mf3fca06eaa" y="415.890122"/>
     <use style="fill:#ff0000;stroke:#ff0000;stroke-linejoin:miter;" x="342.187374" xlink:href="#mf3fca06eaa" y="414.203403"/>
     <use style="fill:#ff0000;stroke:#ff0000;stroke-linejoin:miter;" x="350.511471" xlink:href="#mf3fca06eaa" y="412.512627"/>
     <use style="fill:#ff0000;stroke:#ff0000;stroke-linejoin:miter;" x="364.704239" xlink:href="#mf3fca06eaa" y="411.067037"/>
     <use style="fill:#ff0000;stroke:#ff0000;stroke-linejoin:miter;" x="375.029203" xlink:href="#mf3fca06eaa" y="409.459623"/>
     <use style="fill:#ff0000;stroke:#ff0000;stroke-linejoin:miter;" x="383.483174" xlink:href="#mf3fca06eaa" y="407.774934"/>
     <use style="fill:#ff0000;stroke:#ff0000;stroke-linejoin:miter;" x="391.604343" xlink:href="#mf3fca06eaa" y="406.07604"/>
     <use style="fill:#ff0000;stroke:#ff0000;stroke-linejoin:miter;" x="405.427782" xlink:href="#mf3fca06eaa" y="404.615232"/>
     <use style="fill:#ff0000;stroke:#ff0000;stroke-linejoin:miter;" x="416.783619" xlink:href="#mf3fca06eaa" y="403.05043"/>
     <use style="fill:#ff0000;stroke:#ff0000;stroke-linejoin:miter;" x="425.245707" xlink:href="#mf3fca06eaa" y="401.366079"/>
     <use style="fill:#ff0000;stroke:#ff0000;stroke-linejoin:miter;" x="434.515447" xlink:href="#mf3fca06eaa" y="399.712841"/>
     <use style="fill:#ff0000;stroke:#ff0000;stroke-linejoin:miter;" x="449.678209" xlink:href="#mf3fca06eaa" y="398.308849"/>
     <use style="fill:#ff0000;stroke:#ff0000;stroke-linejoin:miter;" x="459.942295" xlink:href="#mf3fca06eaa" y="396.699913"/>
     <use style="fill:#ff0000;stroke:#ff0000;stroke-linejoin:miter;" x="467.970117" xlink:href="#mf3fca06eaa" y="394.997131"/>
     <use style="fill:#ff0000;stroke:#ff0000;stroke-linejoin:miter;" x="475.876183" xlink:href="#mf3fca06eaa" y="393.289444"/>
     <use style="fill:#ff0000;stroke:#ff0000;stroke-linejoin:miter;" x="488.63628" xlink:href="#mf3fca06eaa" y="391.783995"/>
     <use style="fill:#ff0000;stroke:#ff0000;stroke-linejoin:miter;" x="499.078943" xlink:href="#mf3fca06eaa" y="390.18064"/>
     <use style="fill:#ff0000;stroke:#ff0000;stroke-linejoin:miter;" x="507.40304" xlink:href="#mf3fca06eaa" y="388.491554"/>
     <use style="fill:#ff0000;stroke:#ff0000;stroke-linejoin:miter;" x="515.832659" xlink:href="#mf3fca06eaa" y="386.805173"/>
     <use style="fill:#ff0000;stroke:#ff0000;stroke-linejoin:miter;" x="530.329818" xlink:href="#mf3fca06eaa" y="385.372097"/>
     <use style="fill:#ff0000;stroke:#ff0000;stroke-linejoin:miter;" x="540.926706" xlink:href="#mf3fca06eaa" y="383.77652"/>
     <use style="fill:#ff0000;stroke:#ff0000;stroke-linejoin:miter;" x="549.214275" xlink:href="#mf3fca06eaa" y="382.08439"/>
     <use style="fill:#ff0000;stroke:#ff0000;stroke-linejoin:miter;" x="557.392264" xlink:href="#mf3fca06eaa" y="380.387864"/>
     <use style="fill:#ff0000;stroke:#ff0000;stroke-linejoin:miter;" x="571.118298" xlink:href="#mf3fca06eaa" y="378.922321"/>
     <use style="fill:#ff0000;stroke:#ff0000;stroke-linejoin:miter;" x="581.788239" xlink:href="#mf3fca06eaa" y="377.329788"/>
     <use style="fill:#ff0000;stroke:#ff0000;stroke-linejoin:miter;" x="590.10016" xlink:href="#mf3fca06eaa" y="375.638673"/>
     <use style="fill:#ff0000;stroke:#ff0000;stroke-linejoin:miter;" x="598.955928" xlink:href="#mf3fca06eaa" y="373.969878"/>
     <use style="fill:#ff0000;stroke:#ff0000;stroke-linejoin:miter;" x="612.446565" xlink:href="#mf3fca06eaa" y="372.495204"/>
     <use style="fill:#ff0000;stroke:#ff0000;stroke-linejoin:miter;" x="622.71471" xlink:href="#mf3fca06eaa" y="370.884916"/>
     <use style="fill:#ff0000;stroke:#ff0000;stroke-linejoin:miter;" x="631.022573" xlink:href="#mf3fca06eaa" y="369.194647"/>
     <use style="fill:#ff0000;stroke:#ff0000;stroke-linejoin:miter;" x="639.111273" xlink:href="#mf3fca06eaa" y="367.494231"/>
     <use style="fill:#ff0000;stroke:#ff0000;stroke-linejoin:miter;" x="652.898185" xlink:href="#mf3fca06eaa" y="366.031225"/>
     <use style="fill:#ff0000;stroke:#ff0000;stroke-linejoin:miter;" x="663.523483" xlink:href="#mf3fca06eaa" y="364.436832"/>
     <use style="fill:#ff0000;stroke:#ff0000;stroke-linejoin:miter;" x="671.76235" xlink:href="#mf3fca06eaa" y="362.742165"/>
     <use style="fill:#ff0000;stroke:#ff0000;stroke-linejoin:miter;" x="679.972807" xlink:href="#mf3fca06eaa" y="361.040397"/>
     <use style="fill:#ff0000;stroke:#ff0000;stroke-linejoin:miter;" x="694.060052" xlink:href="#mf3fca06eaa" y="359.597175"/>
     <use style="fill:#ff0000;stroke:#ff0000;stroke-linejoin:miter;" x="704.563593" xlink:href="#mf3fca06eaa" y="357.997878"/>
     <use style="fill:#ff0000;stroke:#ff0000;stroke-linejoin:miter;" x="712.761874" xlink:href="#mf3fca06eaa" y="356.302197"/>
     <use style="fill:#ff0000;stroke:#ff0000;stroke-linejoin:miter;" x="720.911453" xlink:href="#mf3fca06eaa" y="354.604487"/>
     <use style="fill:#ff0000;stroke:#ff0000;stroke-linejoin:miter;" x="734.661838" xlink:href="#mf3fca06eaa" y="353.140128"/>
     <use style="fill:#ff0000;stroke:#ff0000;stroke-linejoin:miter;" x="745.348014" xlink:href="#mf3fca06eaa" y="351.548441"/>
     <use style="fill:#ff0000;stroke:#ff0000;stroke-linejoin:miter;" x="753.631525" xlink:href="#mf3fca06eaa" y="349.855973"/>
     <use style="fill:#ff0000;stroke:#ff0000;stroke-linejoin:miter;" x="762.093613" xlink:href="#mf3fca06eaa" y="348.171621"/>
     <use style="fill:#ff0000;stroke:#ff0000;stroke-linejoin:miter;" x="775.81153" xlink:href="#mf3fca06eaa" y="346.70388"/>
     <use style="fill:#ff0000;stroke:#ff0000;stroke-linejoin:miter;" x="787.053727" xlink:href="#mf3fca06eaa" y="345.136711"/>
     <use style="fill:#ff0000;stroke:#ff0000;stroke-linejoin:miter;" x="795.357531" xlink:href="#mf3fca06eaa" y="343.445596"/>
     <use style="fill:#ff0000;stroke:#ff0000;stroke-linejoin:miter;" x="803.604516" xlink:href="#mf3fca06eaa" y="341.751775"/>
     <use style="fill:#ff0000;stroke:#ff0000;stroke-linejoin:miter;" x="816.612185" xlink:href="#mf3fca06eaa" y="340.256303"/>
     <use style="fill:#ff0000;stroke:#ff0000;stroke-linejoin:miter;" x="827.27401" xlink:href="#mf3fca06eaa" y="338.663432"/>
     <use style="fill:#ff0000;stroke:#ff0000;stroke-linejoin:miter;" x="836.003962" xlink:href="#mf3fca06eaa" y="336.990071"/>
     <use style="fill:#ff0000;stroke:#ff0000;stroke-linejoin:miter;" x="844.328059" xlink:href="#mf3fca06eaa" y="335.299463"/>
     <use style="fill:#ff0000;stroke:#ff0000;stroke-linejoin:miter;" x="857.907984" xlink:href="#mf3fca06eaa" y="333.827833"/>
     <use style="fill:#ff0000;stroke:#ff0000;stroke-linejoin:miter;" x="868.379057" xlink:href="#mf3fca06eaa" y="332.227014"/>
     <use style="fill:#ff0000;stroke:#ff0000;stroke-linejoin:miter;" x="876.662568" xlink:href="#mf3fca06eaa" y="330.534885"/>
     <use style="fill:#ff0000;stroke:#ff0000;stroke-linejoin:miter;" x="885.956659" xlink:href="#mf3fca06eaa" y="328.883507"/>
     <use style="fill:#ff0000;stroke:#ff0000;stroke-linejoin:miter;" x="898.810104" xlink:href="#mf3fca06eaa" y="327.382961"/>
     <use style="fill:#ff0000;stroke:#ff0000;stroke-linejoin:miter;" x="909.171595" xlink:href="#mf3fca06eaa" y="325.777915"/>
     <use style="fill:#ff0000;stroke:#ff0000;stroke-linejoin:miter;" x="917.718912" xlink:href="#mf3fca06eaa" y="324.096269"/>
     <use style="fill:#ff0000;stroke:#ff0000;stroke-linejoin:miter;" x="925.969955" xlink:href="#mf3fca06eaa" y="322.403294"/>
     <use style="fill:#ff0000;stroke:#ff0000;stroke-linejoin:miter;" x="939.631052" xlink:href="#mf3fca06eaa" y="320.935215"/>
     <use style="fill:#ff0000;stroke:#ff0000;stroke-linejoin:miter;" x="950.252291" xlink:href="#mf3fca06eaa" y="319.340145"/>
     <use style="fill:#ff0000;stroke:#ff0000;stroke-linejoin:miter;" x="958.539861" xlink:href="#mf3fca06eaa" y="317.648354"/>
     <use style="fill:#ff0000;stroke:#ff0000;stroke-linejoin:miter;" x="966.82743" xlink:href="#mf3fca06eaa" y="315.956055"/>
     <use style="fill:#ff0000;stroke:#ff0000;stroke-linejoin:miter;" x="980.204428" xlink:href="#mf3fca06eaa" y="314.476308"/>
     <use style="fill:#ff0000;stroke:#ff0000;stroke-linejoin:miter;" x="990.740438" xlink:href="#mf3fca06eaa" y="129.601962"/>
     <use style="fill:#ff0000;stroke:#ff0000;stroke-linejoin:miter;" x="999.165998" xlink:href="#mf3fca06eaa" y="127.920147"/>
     <use style="fill:#ff0000;stroke:#ff0000;stroke-linejoin:miter;" x="1007.372397" xlink:href="#mf3fca06eaa" y="126.224973"/>
     <use style="fill:#ff0000;stroke:#ff0000;stroke-linejoin:miter;" x="1021.532696" xlink:href="#mf3fca06eaa" y="124.777524"/>
     <use style="fill:#ff0000;stroke:#ff0000;stroke-linejoin:miter;" x="1032.243223" xlink:href="#mf3fca06eaa" y="123.186681"/>
     <use style="fill:#ff0000;stroke:#ff0000;stroke-linejoin:miter;" x="1040.514559" xlink:href="#mf3fca06eaa" y="121.494044"/>
     <use style="fill:#ff0000;stroke:#ff0000;stroke-linejoin:miter;" x="1048.818363" xlink:href="#mf3fca06eaa" y="119.802929"/>
     <use style="fill:#ff0000;stroke:#ff0000;stroke-linejoin:miter;" x="1062.373937" xlink:href="#mf3fca06eaa" y="118.329946"/>
     <use style="fill:#ff0000;stroke:#ff0000;stroke-linejoin:miter;" x="1072.905888" xlink:href="#mf3fca06eaa" y="116.72862"/>
     <use style="fill:#ff0000;stroke:#ff0000;stroke-linejoin:miter;" x="1081.367975" xlink:href="#mf3fca06eaa" y="115.046467"/>
     <use style="fill:#ff0000;stroke:#ff0000;stroke-linejoin:miter;" x="1089.623077" xlink:href="#mf3fca06eaa" y="113.353661"/>
     <use style="fill:#ff0000;stroke:#ff0000;stroke-linejoin:miter;" x="1103.576389" xlink:href="#mf3fca06eaa" y="111.897926"/>
     <use style="fill:#ff0000;stroke:#ff0000;stroke-linejoin:miter;" x="1114.104282" xlink:href="#mf3fca06eaa" y="110.298967"/>
     <use style="fill:#ff0000;stroke:#ff0000;stroke-linejoin:miter;" x="1122.290387" xlink:href="#mf3fca06eaa" y="108.601088"/>
     <use style="fill:#ff0000;stroke:#ff0000;stroke-linejoin:miter;" x="1130.172102" xlink:href="#mf3fca06eaa" y="106.893063"/>
     <use style="fill:#ff0000;stroke:#ff0000;stroke-linejoin:miter;" x="1144.50286" xlink:href="#mf3fca06eaa" y="105.453899"/>
     <use style="fill:#ff0000;stroke:#ff0000;stroke-linejoin:miter;" x="1155.01046" xlink:href="#mf3fca06eaa" y="103.854433"/>
     <use style="fill:#ff0000;stroke:#ff0000;stroke-linejoin:miter;" x="1163.208741" xlink:href="#mf3fca06eaa" y="102.158583"/>
     <use style="fill:#ff0000;stroke:#ff0000;stroke-linejoin:miter;" x="1171.354261" xlink:href="#mf3fca06eaa" y="100.460366"/>
     <use style="fill:#ff0000;stroke:#ff0000;stroke-linejoin:miter;" x="1185.54297" xlink:href="#mf3fca06eaa" y="99.014269"/>
     <use style="fill:#ff0000;stroke:#ff0000;stroke-linejoin:miter;" x="1196.147975" xlink:href="#mf3fca06eaa" y="97.4192"/>
     <use style="fill:#ff0000;stroke:#ff0000;stroke-linejoin:miter;" x="1204.516716" xlink:href="#mf3fca06eaa" y="95.730621"/>
     <use style="fill:#ff0000;stroke:#ff0000;stroke-linejoin:miter;" x="1212.714997" xlink:href="#mf3fca06eaa" y="94.034771"/>
     <use style="fill:#ff0000;stroke:#ff0000;stroke-linejoin:miter;" x="1226.432914" xlink:href="#mf3fca06eaa" y="92.569397"/>
     <use style="fill:#ff0000;stroke:#ff0000;stroke-linejoin:miter;" x="1237.037919" xlink:href="#mf3fca06eaa" y="90.973482"/>
     <use style="fill:#ff0000;stroke:#ff0000;stroke-linejoin:miter;" x="1245.272727" xlink:href="#mf3fca06eaa" y="89.28"/>
    </g>
   </g>
   <g id="line2d_13">
    <path clip-path="url(#pce6574f98f)" d="M 230.727273 431.961719 
L 242.480849 430.421267 
L 254.080199 428.867457 
L 262.355593 427.175665 
L 270.67969 425.485396 
L 282.546906 423.938518 
L 292.75823 422.329921 
L 301.285255 420.648275 
L 309.475419 418.952426 
L 323.420615 417.496352 
L 333.871395 415.890122 
L 342.187374 414.203403 
L 350.511471 412.512627 
L 364.704239 411.067037 
L 375.029203 409.459623 
L 383.483174 407.774934 
L 391.604343 406.07604 
L 405.427782 404.615232 
L 416.783619 403.05043 
L 425.245707 401.366079 
L 434.515447 399.712841 
L 449.678209 398.308849 
L 459.942295 396.699913 
L 467.970117 394.997131 
L 475.876183 393.289444 
L 488.63628 391.783995 
L 499.078943 390.18064 
L 507.40304 388.491554 
L 515.832659 386.805173 
L 530.329818 385.372097 
L 540.926706 383.77652 
L 549.214275 382.08439 
L 557.392264 380.387864 
L 571.118298 378.922321 
L 581.788239 377.329788 
L 590.10016 375.638673 
L 598.955928 373.969878 
L 612.446565 372.495204 
L 622.71471 370.884916 
L 631.022573 369.194647 
L 639.111273 367.494231 
L 652.898185 366.031225 
L 663.523483 364.436832 
L 671.76235 362.742165 
L 679.972807 361.040397 
L 694.060052 359.597175 
L 704.563593 357.997878 
L 712.761874 356.302197 
L 720.911453 354.604487 
L 734.661838 353.140128 
L 745.348014 351.548441 
L 753.631525 349.855973 
L 762.093613 348.171621 
L 775.81153 346.70388 
L 787.053727 345.136711 
L 795.357531 343.445596 
L 803.604516 341.751775 
L 816.612185 340.256303 
L 827.27401 338.663432 
L 836.003962 336.990071 
L 844.328059 335.299463 
L 857.907984 333.827833 
L 868.379057 332.227014 
L 876.662568 330.534885 
L 885.956659 328.883507 
L 898.810104 327.382961 
L 909.171595 325.777915 
L 917.718912 324.096269 
L 925.969955 322.403294 
L 939.631052 320.935215 
L 950.252291 319.340145 
L 958.539861 317.648354 
L 966.82743 315.956055 
L 980.204428 314.476308 
L 990.740438 129.601962 
L 999.165998 127.920147 
L 1007.372397 126.224973 
L 1021.532696 124.777524 
L 1032.243223 123.186681 
L 1040.514559 121.494044 
L 1048.818363 119.802929 
L 1062.373937 118.329946 
L 1072.905888 116.72862 
L 1081.367975 115.046467 
L 1089.623077 113.353661 
L 1103.576389 111.897926 
L 1114.104282 110.298967 
L 1122.290387 108.601088 
L 1130.172102 106.893063 
L 1144.50286 105.453899 
L 1155.01046 103.854433 
L 1163.208741 102.158583 
L 1171.354261 100.460366 
L 1185.54297 99.014269 
L 1196.147975 97.4192 
L 1204.516716 95.730621 
L 1212.714997 94.034771 
L 1226.432914 92.569397 
L 1237.037919 90.973482 
L 1245.272727 89.28 
" style="fill:none;stroke:#800080;stroke-dasharray:9.6,2.4,1.5,2.4;stroke-dashoffset:0;stroke-width:1.5;"/>
    <defs>
     <path d="M -3 3 
L 3 -3 
M -3 -3 
L 3 3 
" id="md5d0b644bb" style="stroke:#800080;"/>
    </defs>
    <g clip-path="url(#pce6574f98f)">
     <use style="fill:#800080;stroke:#800080;" x="230.727273" xlink:href="#md5d0b644bb" y="431.961719"/>
     <use style="fill:#800080;stroke:#800080;" x="242.480849" xlink:href="#md5d0b644bb" y="430.421267"/>
     <use style="fill:#800080;stroke:#800080;" x="254.080199" xlink:href="#md5d0b644bb" y="428.867457"/>
     <use style="fill:#800080;stroke:#800080;" x="262.355593" xlink:href="#md5d0b644bb" y="427.175665"/>
     <use style="fill:#800080;stroke:#800080;" x="270.67969" xlink:href="#md5d0b644bb" y="425.485396"/>
     <use style="fill:#800080;stroke:#800080;" x="282.546906" xlink:href="#md5d0b644bb" y="423.938518"/>
     <use style="fill:#800080;stroke:#800080;" x="292.75823" xlink:href="#md5d0b644bb" y="422.329921"/>
     <use style="fill:#800080;stroke:#800080;" x="301.285255" xlink:href="#md5d0b644bb" y="420.648275"/>
     <use style="fill:#800080;stroke:#800080;" x="309.475419" xlink:href="#md5d0b644bb" y="418.952426"/>
     <use style="fill:#800080;stroke:#800080;" x="323.420615" xlink:href="#md5d0b644bb" y="417.496352"/>
     <use style="fill:#800080;stroke:#800080;" x="333.871395" xlink:href="#md5d0b644bb" y="415.890122"/>
     <use style="fill:#800080;stroke:#800080;" x="342.187374" xlink:href="#md5d0b644bb" y="414.203403"/>
     <use style="fill:#800080;stroke:#800080;" x="350.511471" xlink:href="#md5d0b644bb" y="412.512627"/>
     <use style="fill:#800080;stroke:#800080;" x="364.704239" xlink:href="#md5d0b644bb" y="411.067037"/>
     <use style="fill:#800080;stroke:#800080;" x="375.029203" xlink:href="#md5d0b644bb" y="409.459623"/>
     <use style="fill:#800080;stroke:#800080;" x="383.483174" xlink:href="#md5d0b644bb" y="407.774934"/>
     <use style="fill:#800080;stroke:#800080;" x="391.604343" xlink:href="#md5d0b644bb" y="406.07604"/>
     <use style="fill:#800080;stroke:#800080;" x="405.427782" xlink:href="#md5d0b644bb" y="404.615232"/>
     <use style="fill:#800080;stroke:#800080;" x="416.783619" xlink:href="#md5d0b644bb" y="403.05043"/>
     <use style="fill:#800080;stroke:#800080;" x="425.245707" xlink:href="#md5d0b644bb" y="401.366079"/>
     <use style="fill:#800080;stroke:#800080;" x="434.515447" xlink:href="#md5d0b644bb" y="399.712841"/>
     <use style="fill:#800080;stroke:#800080;" x="449.678209" xlink:href="#md5d0b644bb" y="398.308849"/>
     <use style="fill:#800080;stroke:#800080;" x="459.942295" xlink:href="#md5d0b644bb" y="396.699913"/>
     <use style="fill:#800080;stroke:#800080;" x="467.970117" xlink:href="#md5d0b644bb" y="394.997131"/>
     <use style="fill:#800080;stroke:#800080;" x="475.876183" xlink:href="#md5d0b644bb" y="393.289444"/>
     <use style="fill:#800080;stroke:#800080;" x="488.63628" xlink:href="#md5d0b644bb" y="391.783995"/>
     <use style="fill:#800080;stroke:#800080;" x="499.078943" xlink:href="#md5d0b644bb" y="390.18064"/>
     <use style="fill:#800080;stroke:#800080;" x="507.40304" xlink:href="#md5d0b644bb" y="388.491554"/>
     <use style="fill:#800080;stroke:#800080;" x="515.832659" xlink:href="#md5d0b644bb" y="386.805173"/>
     <use style="fill:#800080;stroke:#800080;" x="530.329818" xlink:href="#md5d0b644bb" y="385.372097"/>
     <use style="fill:#800080;stroke:#800080;" x="540.926706" xlink:href="#md5d0b644bb" y="383.77652"/>
     <use style="fill:#800080;stroke:#800080;" x="549.214275" xlink:href="#md5d0b644bb" y="382.08439"/>
     <use style="fill:#800080;stroke:#800080;" x="557.392264" xlink:href="#md5d0b644bb" y="380.387864"/>
     <use style="fill:#800080;stroke:#800080;" x="571.118298" xlink:href="#md5d0b644bb" y="378.922321"/>
     <use style="fill:#800080;stroke:#800080;" x="581.788239" xlink:href="#md5d0b644bb" y="377.329788"/>
     <use style="fill:#800080;stroke:#800080;" x="590.10016" xlink:href="#md5d0b644bb" y="375.638673"/>
     <use style="fill:#800080;stroke:#800080;" x="598.955928" xlink:href="#md5d0b644bb" y="373.969878"/>
     <use style="fill:#800080;stroke:#800080;" x="612.446565" xlink:href="#md5d0b644bb" y="372.495204"/>
     <use style="fill:#800080;stroke:#800080;" x="622.71471" xlink:href="#md5d0b644bb" y="370.884916"/>
     <use style="fill:#800080;stroke:#800080;" x="631.022573" xlink:href="#md5d0b644bb" y="369.194647"/>
     <use style="fill:#800080;stroke:#800080;" x="639.111273" xlink:href="#md5d0b644bb" y="367.494231"/>
     <use style="fill:#800080;stroke:#800080;" x="652.898185" xlink:href="#md5d0b644bb" y="366.031225"/>
     <use style="fill:#800080;stroke:#800080;" x="663.523483" xlink:href="#md5d0b644bb" y="364.436832"/>
     <use style="fill:#800080;stroke:#800080;" x="671.76235" xlink:href="#md5d0b644bb" y="362.742165"/>
     <use style="fill:#800080;stroke:#800080;" x="679.972807" xlink:href="#md5d0b644bb" y="361.040397"/>
     <use style="fill:#800080;stroke:#800080;" x="694.060052" xlink:href="#md5d0b644bb" y="359.597175"/>
     <use style="fill:#800080;stroke:#800080;" x="704.563593" xlink:href="#md5d0b644bb" y="357.997878"/>
     <use style="fill:#800080;stroke:#800080;" x="712.761874" xlink:href="#md5d0b644bb" y="356.302197"/>
     <use style="fill:#800080;stroke:#800080;" x="720.911453" xlink:href="#md5d0b644bb" y="354.604487"/>
     <use style="fill:#800080;stroke:#800080;" x="734.661838" xlink:href="#md5d0b644bb" y="353.140128"/>
     <use style="fill:#800080;stroke:#800080;" x="745.348014" xlink:href="#md5d0b644bb" y="351.548441"/>
     <use style="fill:#800080;stroke:#800080;" x="753.631525" xlink:href="#md5d0b644bb" y="349.855973"/>
     <use style="fill:#800080;stroke:#800080;" x="762.093613" xlink:href="#md5d0b644bb" y="348.171621"/>
     <use style="fill:#800080;stroke:#800080;" x="775.81153" xlink:href="#md5d0b644bb" y="346.70388"/>
     <use style="fill:#800080;stroke:#800080;" x="787.053727" xlink:href="#md5d0b644bb" y="345.136711"/>
     <use style="fill:#800080;stroke:#800080;" x="795.357531" xlink:href="#md5d0b644bb" y="343.445596"/>
     <use style="fill:#800080;stroke:#800080;" x="803.604516" xlink:href="#md5d0b644bb" y="341.751775"/>
     <use style="fill:#800080;stroke:#800080;" x="816.612185" xlink:href="#md5d0b644bb" y="340.256303"/>
     <use style="fill:#800080;stroke:#800080;" x="827.27401" xlink:href="#md5d0b644bb" y="338.663432"/>
     <use style="fill:#800080;stroke:#800080;" x="836.003962" xlink:href="#md5d0b644bb" y="336.990071"/>
     <use style="fill:#800080;stroke:#800080;" x="844.328059" xlink:href="#md5d0b644bb" y="335.299463"/>
     <use style="fill:#800080;stroke:#800080;" x="857.907984" xlink:href="#md5d0b644bb" y="333.827833"/>
     <use style="fill:#800080;stroke:#800080;" x="868.379057" xlink:href="#md5d0b644bb" y="332.227014"/>
     <use style="fill:#800080;stroke:#800080;" x="876.662568" xlink:href="#md5d0b644bb" y="330.534885"/>
     <use style="fill:#800080;stroke:#800080;" x="885.956659" xlink:href="#md5d0b644bb" y="328.883507"/>
     <use style="fill:#800080;stroke:#800080;" x="898.810104" xlink:href="#md5d0b644bb" y="327.382961"/>
     <use style="fill:#800080;stroke:#800080;" x="909.171595" xlink:href="#md5d0b644bb" y="325.777915"/>
     <use style="fill:#800080;stroke:#800080;" x="917.718912" xlink:href="#md5d0b644bb" y="324.096269"/>
     <use style="fill:#800080;stroke:#800080;" x="925.969955" xlink:href="#md5d0b644bb" y="322.403294"/>
     <use style="fill:#800080;stroke:#800080;" x="939.631052" xlink:href="#md5d0b644bb" y="320.935215"/>
     <use style="fill:#800080;stroke:#800080;" x="950.252291" xlink:href="#md5d0b644bb" y="319.340145"/>
     <use style="fill:#800080;stroke:#800080;" x="958.539861" xlink:href="#md5d0b644bb" y="317.648354"/>
     <use style="fill:#800080;stroke:#800080;" x="966.82743" xlink:href="#md5d0b644bb" y="315.956055"/>
     <use style="fill:#800080;stroke:#800080;" x="980.204428" xlink:href="#md5d0b644bb" y="314.476308"/>
     <use style="fill:#800080;stroke:#800080;" x="990.740438" xlink:href="#md5d0b644bb" y="129.601962"/>
     <use style="fill:#800080;stroke:#800080;" x="999.165998" xlink:href="#md5d0b644bb" y="127.920147"/>
     <use style="fill:#800080;stroke:#800080;" x="1007.372397" xlink:href="#md5d0b644bb" y="126.224973"/>
     <use style="fill:#800080;stroke:#800080;" x="1021.532696" xlink:href="#md5d0b644bb" y="124.777524"/>
     <use style="fill:#800080;stroke:#800080;" x="1032.243223" xlink:href="#md5d0b644bb" y="123.186681"/>
     <use style="fill:#800080;stroke:#800080;" x="1040.514559" xlink:href="#md5d0b644bb" y="121.494044"/>
     <use style="fill:#800080;stroke:#800080;" x="1048.818363" xlink:href="#md5d0b644bb" y="119.802929"/>
     <use style="fill:#800080;stroke:#800080;" x="1062.373937" xlink:href="#md5d0b644bb" y="118.329946"/>
     <use style="fill:#800080;stroke:#800080;" x="1072.905888" xlink:href="#md5d0b644bb" y="116.72862"/>
     <use style="fill:#800080;stroke:#800080;" x="1081.367975" xlink:href="#md5d0b644bb" y="115.046467"/>
     <use style="fill:#800080;stroke:#800080;" x="1089.623077" xlink:href="#md5d0b644bb" y="113.353661"/>
     <use style="fill:#800080;stroke:#800080;" x="1103.576389" xlink:href="#md5d0b644bb" y="111.897926"/>
     <use style="fill:#800080;stroke:#800080;" x="1114.104282" xlink:href="#md5d0b644bb" y="110.298967"/>
     <use style="fill:#800080;stroke:#800080;" x="1122.290387" xlink:href="#md5d0b644bb" y="108.601088"/>
     <use style="fill:#800080;stroke:#800080;" x="1130.172102" xlink:href="#md5d0b644bb" y="106.893063"/>
     <use style="fill:#800080;stroke:#800080;" x="1144.50286" xlink:href="#md5d0b644bb" y="105.453899"/>
     <use style="fill:#800080;stroke:#800080;" x="1155.01046" xlink:href="#md5d0b644bb" y="103.854433"/>
     <use style="fill:#800080;stroke:#800080;" x="1163.208741" xlink:href="#md5d0b644bb" y="102.158583"/>
     <use style="fill:#800080;stroke:#800080;" x="1171.354261" xlink:href="#md5d0b644bb" y="100.460366"/>
     <use style="fill:#800080;stroke:#800080;" x="1185.54297" xlink:href="#md5d0b644bb" y="99.014269"/>
     <use style="fill:#800080;stroke:#800080;" x="1196.147975" xlink:href="#md5d0b644bb" y="97.4192"/>
     <use style="fill:#800080;stroke:#800080;" x="1204.516716" xlink:href="#md5d0b644bb" y="95.730621"/>
     <use style="fill:#800080;stroke:#800080;" x="1212.714997" xlink:href="#md5d0b644bb" y="94.034771"/>
     <use style="fill:#800080;stroke:#800080;" x="1226.432914" xlink:href="#md5d0b644bb" y="92.569397"/>
     <use style="fill:#800080;stroke:#800080;" x="1237.037919" xlink:href="#md5d0b644bb" y="90.973482"/>
     <use style="fill:#800080;stroke:#800080;" x="1245.272727" xlink:href="#md5d0b644bb" y="89.28"/>
    </g>
   </g>
   <g id="line2d_14">
    <path clip-path="url(#pce6574f98f)" d="M 230.727273 489.17256 
L 242.480849 484.901794 
L 254.080199 480.687068 
L 262.355593 477.68013 
L 270.67969 474.655496 
L 282.546906 470.343438 
L 292.75823 466.633063 
L 301.285255 463.534694 
L 309.475419 460.558725 
L 323.420615 455.491615 
L 333.871395 451.694232 
L 342.187374 448.672547 
L 350.511471 445.647913 
L 364.704239 440.490846 
L 375.029203 436.739179 
L 383.483174 433.667354 
L 391.604343 430.716455 
L 405.427782 425.693586 
L 416.783619 421.567343 
L 425.245707 418.492568 
L 434.515447 415.124326 
L 449.678209 409.614803 
L 459.942295 405.885256 
L 467.970117 402.968276 
L 475.876183 400.095537 
L 488.63628 395.459043 
L 499.078943 391.66461 
L 507.40304 388.639975 
L 515.832659 385.576999 
L 530.329818 380.309328 
L 540.926706 376.458855 
L 549.214275 373.447494 
L 557.392264 370.475949 
L 571.118298 365.488473 
L 581.788239 361.611456 
L 590.10016 358.591246 
L 598.955928 355.373425 
L 612.446565 350.471482 
L 622.71471 346.740461 
L 631.022573 343.721726 
L 639.111273 340.782625 
L 652.898185 335.773029 
L 663.523483 331.912233 
L 671.76235 328.918568 
L 679.972807 325.935226 
L 694.060052 320.816501 
L 704.563593 316.999946 
L 712.761874 314.021028 
L 720.911453 311.059807 
L 734.661838 306.063483 
L 745.348014 302.180567 
L 753.631525 299.17068 
L 762.093613 296.095905 
L 775.81153 291.111379 
L 787.053727 287.026427 
L 795.357531 284.009167 
L 803.604516 281.012552 
L 816.612185 276.2861 
L 827.27401 272.412032 
L 836.003962 269.239927 
L 844.328059 266.215293 
L 857.907984 261.280907 
L 868.379057 257.47615 
L 876.662568 254.466263 
L 885.956659 251.089173 
L 898.810104 246.418761 
L 909.171595 242.653821 
L 917.718912 239.548078 
L 925.969955 236.549989 
L 939.631052 231.586108 
L 950.252291 227.726787 
L 958.539861 224.715426 
L 966.82743 221.704064 
L 980.204428 216.843414 
L 990.740438 213.015061 
L 999.165998 209.95356 
L 1007.372397 206.971692 
L 1021.532696 201.826422 
L 1032.243223 197.934658 
L 1040.514559 194.929195 
L 1048.818363 191.911934 
L 1062.373937 186.986397 
L 1072.905888 183.159519 
L 1081.367975 180.084745 
L 1089.623077 177.085181 
L 1103.576389 172.015121 
L 1114.104282 168.189719 
L 1122.290387 165.215225 
L 1130.172102 162.351334 
L 1144.50286 157.144127 
L 1155.01046 153.326098 
L 1163.208741 150.34718 
L 1171.354261 147.387433 
L 1185.54297 142.23184 
L 1196.147975 138.378418 
L 1204.516716 135.337562 
L 1212.714997 132.358644 
L 1226.432914 127.374118 
L 1237.037919 123.520696 
L 1245.272727 120.528505 
" style="fill:none;stroke:#0000ff;stroke-linecap:square;stroke-width:1.5;"/>
   </g>
   <g id="line2d_15">
    <path clip-path="url(#pce6574f98f)" d="M 230.727273 492.48 
L 242.480849 492.469179 
L 254.080199 492.458499 
L 262.355593 492.45088 
L 270.67969 492.443216 
L 282.546906 492.43229 
L 292.75823 492.422889 
L 301.285255 492.415038 
L 309.475419 492.407497 
L 323.420615 492.394658 
L 333.871395 492.385036 
L 342.187374 492.37738 
L 350.511471 492.369716 
L 364.704239 492.356648 
L 375.029203 492.347142 
L 383.483174 492.339359 
L 391.604343 492.331882 
L 405.427782 492.319155 
L 416.783619 492.308699 
L 425.245707 492.300908 
L 434.515447 492.292374 
L 449.678209 492.278414 
L 459.942295 492.268964 
L 467.970117 492.261572 
L 475.876183 492.254293 
L 488.63628 492.242545 
L 499.078943 492.232931 
L 507.40304 492.225267 
L 515.832659 492.217506 
L 530.329818 492.204158 
L 540.926706 492.194402 
L 549.214275 492.186772 
L 557.392264 492.179242 
L 571.118298 492.166605 
L 581.788239 492.156781 
L 590.10016 492.149128 
L 598.955928 492.140975 
L 612.446565 492.128554 
L 622.71471 492.1191 
L 631.022573 492.111451 
L 639.111273 492.104004 
L 652.898185 492.091311 
L 663.523483 492.081528 
L 671.76235 492.073942 
L 679.972807 492.066383 
L 694.060052 492.053413 
L 704.563593 492.043743 
L 712.761874 492.036195 
L 720.911453 492.028691 
L 734.661838 492.016031 
L 745.348014 492.006193 
L 753.631525 491.998566 
L 762.093613 491.990775 
L 775.81153 491.978145 
L 787.053727 491.967795 
L 795.357531 491.960149 
L 803.604516 491.952556 
L 816.612185 491.94058 
L 827.27401 491.930764 
L 836.003962 491.922727 
L 844.328059 491.915063 
L 857.907984 491.90256 
L 868.379057 491.892919 
L 876.662568 491.885292 
L 885.956659 491.876735 
L 898.810104 491.864901 
L 909.171595 491.855362 
L 917.718912 491.847492 
L 925.969955 491.839896 
L 939.631052 491.827318 
L 950.252291 491.817539 
L 958.539861 491.809909 
L 966.82743 491.802278 
L 980.204428 491.789962 
L 990.740438 491.780262 
L 999.165998 491.772505 
L 1007.372397 491.764949 
L 1021.532696 491.751912 
L 1032.243223 491.742051 
L 1040.514559 491.734435 
L 1048.818363 491.72679 
L 1062.373937 491.714309 
L 1072.905888 491.704613 
L 1081.367975 491.696822 
L 1089.623077 491.689221 
L 1103.576389 491.676375 
L 1114.104282 491.666682 
L 1122.290387 491.659145 
L 1130.172102 491.651888 
L 1144.50286 491.638694 
L 1155.01046 491.62902 
L 1163.208741 491.621472 
L 1171.354261 491.613972 
L 1185.54297 491.600909 
L 1196.147975 491.591145 
L 1204.516716 491.58344 
L 1212.714997 491.575892 
L 1226.432914 491.563262 
L 1237.037919 491.553498 
L 1245.272727 491.545916 
" style="fill:none;stroke:#008000;stroke-linecap:square;stroke-width:1.5;"/>
    <defs>
     <path d="M 0 3 
C 0.795609 3 1.55874 2.683901 2.12132 2.12132 
C 2.683901 1.55874 3 0.795609 3 0 
C 3 -0.795609 2.683901 -1.55874 2.12132 -2.12132 
C 1.55874 -2.683901 0.795609 -3 0 -3 
C -0.795609 -3 -1.55874 -2.683901 -2.12132 -2.12132 
C -2.683901 -1.55874 -3 -0.795609 -3 0 
C -3 0.795609 -2.683901 1.55874 -2.12132 2.12132 
C -1.55874 2.683901 -0.795609 3 0 3 
z
" id="m6360d10039" style="stroke:#008000;"/>
    </defs>
    <g clip-path="url(#pce6574f98f)">
     <use style="fill:#008000;stroke:#008000;" x="230.727273" xlink:href="#m6360d10039" y="492.48"/>
     <use style="fill:#008000;stroke:#008000;" x="242.480849" xlink:href="#m6360d10039" y="492.469179"/>
     <use style="fill:#008000;stroke:#008000;" x="254.080199" xlink:href="#m6360d10039" y="492.458499"/>
     <use style="fill:#008000;stroke:#008000;" x="262.355593" xlink:href="#m6360d10039" y="492.45088"/>
     <use style="fill:#008000;stroke:#008000;" x="270.67969" xlink:href="#m6360d10039" y="492.443216"/>
     <use style="fill:#008000;stroke:#008000;" x="282.546906" xlink:href="#m6360d10039" y="492.43229"/>
     <use style="fill:#008000;stroke:#008000;" x="292.75823" xlink:href="#m6360d10039" y="492.422889"/>
     <use style="fill:#008000;stroke:#008000;" x="301.285255" xlink:href="#m6360d10039" y="492.415038"/>
     <use style="fill:#008000;stroke:#008000;" x="309.475419" xlink:href="#m6360d10039" y="492.407497"/>
     <use style="fill:#008000;stroke:#008000;" x="323.420615" xlink:href="#m6360d10039" y="492.394658"/>
     <use style="fill:#008000;stroke:#008000;" x="333.871395" xlink:href="#m6360d10039" y="492.385036"/>
     <use style="fill:#008000;stroke:#008000;" x="342.187374" xlink:href="#m6360d10039" y="492.37738"/>
     <use style="fill:#008000;stroke:#008000;" x="350.511471" xlink:href="#m6360d10039" y="492.369716"/>
     <use style="fill:#008000;stroke:#008000;" x="364.704239" xlink:href="#m6360d10039" y="492.356648"/>
     <use style="fill:#008000;stroke:#008000;" x="375.029203" xlink:href="#m6360d10039" y="492.347142"/>
     <use style="fill:#008000;stroke:#008000;" x="383.483174" xlink:href="#m6360d10039" y="492.339359"/>
     <use style="fill:#008000;stroke:#008000;" x="391.604343" xlink:href="#m6360d10039" y="492.331882"/>
     <use style="fill:#008000;stroke:#008000;" x="405.427782" xlink:href="#m6360d10039" y="492.319155"/>
     <use style="fill:#008000;stroke:#008000;" x="416.783619" xlink:href="#m6360d10039" y="492.308699"/>
     <use style="fill:#008000;stroke:#008000;" x="425.245707" xlink:href="#m6360d10039" y="492.300908"/>
     <use style="fill:#008000;stroke:#008000;" x="434.515447" xlink:href="#m6360d10039" y="492.292374"/>
     <use style="fill:#008000;stroke:#008000;" x="449.678209" xlink:href="#m6360d10039" y="492.278414"/>
     <use style="fill:#008000;stroke:#008000;" x="459.942295" xlink:href="#m6360d10039" y="492.268964"/>
     <use style="fill:#008000;stroke:#008000;" x="467.970117" xlink:href="#m6360d10039" y="492.261572"/>
     <use style="fill:#008000;stroke:#008000;" x="475.876183" xlink:href="#m6360d10039" y="492.254293"/>
     <use style="fill:#008000;stroke:#008000;" x="488.63628" xlink:href="#m6360d10039" y="492.242545"/>
     <use style="fill:#008000;stroke:#008000;" x="499.078943" xlink:href="#m6360d10039" y="492.232931"/>
     <use style="fill:#008000;stroke:#008000;" x="507.40304" xlink:href="#m6360d10039" y="492.225267"/>
     <use style="fill:#008000;stroke:#008000;" x="515.832659" xlink:href="#m6360d10039" y="492.217506"/>
     <use style="fill:#008000;stroke:#008000;" x="530.329818" xlink:href="#m6360d10039" y="492.204158"/>
     <use style="fill:#008000;stroke:#008000;" x="540.926706" xlink:href="#m6360d10039" y="492.194402"/>
     <use style="fill:#008000;stroke:#008000;" x="549.214275" xlink:href="#m6360d10039" y="492.186772"/>
     <use style="fill:#008000;stroke:#008000;" x="557.392264" xlink:href="#m6360d10039" y="492.179242"/>
     <use style="fill:#008000;stroke:#008000;" x="571.118298" xlink:href="#m6360d10039" y="492.166605"/>
     <use style="fill:#008000;stroke:#008000;" x="581.788239" xlink:href="#m6360d10039" y="492.156781"/>
     <use style="fill:#008000;stroke:#008000;" x="590.10016" xlink:href="#m6360d10039" y="492.149128"/>
     <use style="fill:#008000;stroke:#008000;" x="598.955928" xlink:href="#m6360d10039" y="492.140975"/>
     <use style="fill:#008000;stroke:#008000;" x="612.446565" xlink:href="#m6360d10039" y="492.128554"/>
     <use style="fill:#008000;stroke:#008000;" x="622.71471" xlink:href="#m6360d10039" y="492.1191"/>
     <use style="fill:#008000;stroke:#008000;" x="631.022573" xlink:href="#m6360d10039" y="492.111451"/>
     <use style="fill:#008000;stroke:#008000;" x="639.111273" xlink:href="#m6360d10039" y="492.104004"/>
     <use style="fill:#008000;stroke:#008000;" x="652.898185" xlink:href="#m6360d10039" y="492.091311"/>
     <use style="fill:#008000;stroke:#008000;" x="663.523483" xlink:href="#m6360d10039" y="492.081528"/>
     <use style="fill:#008000;stroke:#008000;" x="671.76235" xlink:href="#m6360d10039" y="492.073942"/>
     <use style="fill:#008000;stroke:#008000;" x="679.972807" xlink:href="#m6360d10039" y="492.066383"/>
     <use style="fill:#008000;stroke:#008000;" x="694.060052" xlink:href="#m6360d10039" y="492.053413"/>
     <use style="fill:#008000;stroke:#008000;" x="704.563593" xlink:href="#m6360d10039" y="492.043743"/>
     <use style="fill:#008000;stroke:#008000;" x="712.761874" xlink:href="#m6360d10039" y="492.036195"/>
     <use style="fill:#008000;stroke:#008000;" x="720.911453" xlink:href="#m6360d10039" y="492.028691"/>
     <use style="fill:#008000;stroke:#008000;" x="734.661838" xlink:href="#m6360d10039" y="492.016031"/>
     <use style="fill:#008000;stroke:#008000;" x="745.348014" xlink:href="#m6360d10039" y="492.006193"/>
     <use style="fill:#008000;stroke:#008000;" x="753.631525" xlink:href="#m6360d10039" y="491.998566"/>
     <use style="fill:#008000;stroke:#008000;" x="762.093613" xlink:href="#m6360d10039" y="491.990775"/>
     <use style="fill:#008000;stroke:#008000;" x="775.81153" xlink:href="#m6360d10039" y="491.978145"/>
     <use style="fill:#008000;stroke:#008000;" x="787.053727" xlink:href="#m6360d10039" y="491.967795"/>
     <use style="fill:#008000;stroke:#008000;" x="795.357531" xlink:href="#m6360d10039" y="491.960149"/>
     <use style="fill:#008000;stroke:#008000;" x="803.604516" xlink:href="#m6360d10039" y="491.952556"/>
     <use style="fill:#008000;stroke:#008000;" x="816.612185" xlink:href="#m6360d10039" y="491.94058"/>
     <use style="fill:#008000;stroke:#008000;" x="827.27401" xlink:href="#m6360d10039" y="491.930764"/>
     <use style="fill:#008000;stroke:#008000;" x="836.003962" xlink:href="#m6360d10039" y="491.922727"/>
     <use style="fill:#008000;stroke:#008000;" x="844.328059" xlink:href="#m6360d10039" y="491.915063"/>
     <use style="fill:#008000;stroke:#008000;" x="857.907984" xlink:href="#m6360d10039" y="491.90256"/>
     <use style="fill:#008000;stroke:#008000;" x="868.379057" xlink:href="#m6360d10039" y="491.892919"/>
     <use style="fill:#008000;stroke:#008000;" x="876.662568" xlink:href="#m6360d10039" y="491.885292"/>
     <use style="fill:#008000;stroke:#008000;" x="885.956659" xlink:href="#m6360d10039" y="491.876735"/>
     <use style="fill:#008000;stroke:#008000;" x="898.810104" xlink:href="#m6360d10039" y="491.864901"/>
     <use style="fill:#008000;stroke:#008000;" x="909.171595" xlink:href="#m6360d10039" y="491.855362"/>
     <use style="fill:#008000;stroke:#008000;" x="917.718912" xlink:href="#m6360d10039" y="491.847492"/>
     <use style="fill:#008000;stroke:#008000;" x="925.969955" xlink:href="#m6360d10039" y="491.839896"/>
     <use style="fill:#008000;stroke:#008000;" x="939.631052" xlink:href="#m6360d10039" y="491.827318"/>
     <use style="fill:#008000;stroke:#008000;" x="950.252291" xlink:href="#m6360d10039" y="491.817539"/>
     <use style="fill:#008000;stroke:#008000;" x="958.539861" xlink:href="#m6360d10039" y="491.809909"/>
     <use style="fill:#008000;stroke:#008000;" x="966.82743" xlink:href="#m6360d10039" y="491.802278"/>
     <use style="fill:#008000;stroke:#008000;" x="980.204428" xlink:href="#m6360d10039" y="491.789962"/>
     <use style="fill:#008000;stroke:#008000;" x="990.740438" xlink:href="#m6360d10039" y="491.780262"/>
     <use style="fill:#008000;stroke:#008000;" x="999.165998" xlink:href="#m6360d10039" y="491.772505"/>
     <use style="fill:#008000;stroke:#008000;" x="1007.372397" xlink:href="#m6360d10039" y="491.764949"/>
     <use style="fill:#008000;stroke:#008000;" x="1021.532696" xlink:href="#m6360d10039" y="491.751912"/>
     <use style="fill:#008000;stroke:#008000;" x="1032.243223" xlink:href="#m6360d10039" y="491.742051"/>
     <use style="fill:#008000;stroke:#008000;" x="1040.514559" xlink:href="#m6360d10039" y="491.734435"/>
     <use style="fill:#008000;stroke:#008000;" x="1048.818363" xlink:href="#m6360d10039" y="491.72679"/>
     <use style="fill:#008000;stroke:#008000;" x="1062.373937" xlink:href="#m6360d10039" y="491.714309"/>
     <use style="fill:#008000;stroke:#008000;" x="1072.905888" xlink:href="#m6360d10039" y="491.704613"/>
     <use style="fill:#008000;stroke:#008000;" x="1081.367975" xlink:href="#m6360d10039" y="491.696822"/>
     <use style="fill:#008000;stroke:#008000;" x="1089.623077" xlink:href="#m6360d10039" y="491.689221"/>
     <use style="fill:#008000;stroke:#008000;" x="1103.576389" xlink:href="#m6360d10039" y="491.676375"/>
     <use style="fill:#008000;stroke:#008000;" x="1114.104282" xlink:href="#m6360d10039" y="491.666682"/>
     <use style="fill:#008000;stroke:#008000;" x="1122.290387" xlink:href="#m6360d10039" y="491.659145"/>
     <use style="fill:#008000;stroke:#008000;" x="1130.172102" xlink:href="#m6360d10039" y="491.651888"/>
     <use style="fill:#008000;stroke:#008000;" x="1144.50286" xlink:href="#m6360d10039" y="491.638694"/>
     <use style="fill:#008000;stroke:#008000;" x="1155.01046" xlink:href="#m6360d10039" y="491.62902"/>
     <use style="fill:#008000;stroke:#008000;" x="1163.208741" xlink:href="#m6360d10039" y="491.621472"/>
     <use style="fill:#008000;stroke:#008000;" x="1171.354261" xlink:href="#m6360d10039" y="491.613972"/>
     <use style="fill:#008000;stroke:#008000;" x="1185.54297" xlink:href="#m6360d10039" y="491.600909"/>
     <use style="fill:#008000;stroke:#008000;" x="1196.147975" xlink:href="#m6360d10039" y="491.591145"/>
     <use style="fill:#008000;stroke:#008000;" x="1204.516716" xlink:href="#m6360d10039" y="491.58344"/>
     <use style="fill:#008000;stroke:#008000;" x="1212.714997" xlink:href="#m6360d10039" y="491.575892"/>
     <use style="fill:#008000;stroke:#008000;" x="1226.432914" xlink:href="#m6360d10039" y="491.563262"/>
     <use style="fill:#008000;stroke:#008000;" x="1237.037919" xlink:href="#m6360d10039" y="491.553498"/>
     <use style="fill:#008000;stroke:#008000;" x="1245.272727" xlink:href="#m6360d10039" y="491.545916"/>
    </g>
   </g>
   <g id="patch_3">
    <path d="M 180 512.64 
L 180 69.12 
" style="fill:none;stroke:#000000;stroke-linecap:square;stroke-linejoin:miter;stroke-width:0.8;"/>
   </g>
   <g id="patch_4">
    <path d="M 1296 512.64 
L 1296 69.12 
" style="fill:none;stroke:#000000;stroke-linecap:square;stroke-linejoin:miter;stroke-width:0.8;"/>
   </g>
   <g id="patch_5">
    <path d="M 180 512.64 
L 1296 512.64 
" style="fill:none;stroke:#000000;stroke-linecap:square;stroke-linejoin:miter;stroke-width:0.8;"/>
   </g>
   <g id="patch_6">
    <path d="M 180 69.12 
L 1296 69.12 
" style="fill:none;stroke:#000000;stroke-linecap:square;stroke-linejoin:miter;stroke-width:0.8;"/>
   </g>
   <g id="text_12">
    <!-- 5000000.0 bit/s -->
    <defs>
     <path id="DejaVuSans-20"/>
     <path d="M 48.6875 27.296875 
Q 48.6875 37.203125 44.609375 42.84375 
Q 40.53125 48.484375 33.40625 48.484375 
Q 26.265625 48.484375 22.1875 42.84375 
Q 18.109375 37.203125 18.109375 27.296875 
Q 18.109375 17.390625 22.1875 11.75 
Q 26.265625 6.109375 33.40625 6.109375 
Q 40.53125 6.109375 44.609375 11.75 
Q 48.6875 17.390625 48.6875 27.296875 
z
M 18.109375 46.390625 
Q 20.953125 51.265625 25.265625 53.625 
Q 29.59375 56 35.59375 56 
Q 45.5625 56 51.78125 48.09375 
Q 58.015625 40.1875 58.015625 27.296875 
Q 58.015625 14.40625 51.78125 6.484375 
Q 45.5625 -1.421875 35.59375 -1.421875 
Q 29.59375 -1.421875 25.265625 0.953125 
Q 20.953125 3.328125 18.109375 8.203125 
L 18.109375 0 
L 9.078125 0 
L 9.078125 75.984375 
L 18.109375 75.984375 
z
" id="DejaVuSans-62"/>
     <path d="M 9.421875 54.6875 
L 18.40625 54.6875 
L 18.40625 0 
L 9.421875 0 
z
M 9.421875 75.984375 
L 18.40625 75.984375 
L 18.40625 64.59375 
L 9.421875 64.59375 
z
" id="DejaVuSans-69"/>
     <path d="M 18.3125 70.21875 
L 18.3125 54.6875 
L 36.8125 54.6875 
L 36.8125 47.703125 
L 18.3125 47.703125 
L 18.3125 18.015625 
Q 18.3125 11.328125 20.140625 9.421875 
Q 21.96875 7.515625 27.59375 7.515625 
L 36.8125 7.515625 
L 36.8125 0 
L 27.59375 0 
Q 17.1875 0 13.234375 3.875 
Q 9.28125 7.765625 9.28125 18.015625 
L 9.28125 47.703125 
L 2.6875 47.703125 
L 2.6875 54.6875 
L 9.28125 54.6875 
L 9.28125 70.21875 
z
" id="DejaVuSans-74"/>
     <path d="M 25.390625 72.90625 
L 33.6875 72.90625 
L 8.296875 -9.28125 
L 0 -9.28125 
z
" id="DejaVuSans-2f"/>
     <path d="M 44.28125 53.078125 
L 44.28125 44.578125 
Q 40.484375 46.53125 36.375 47.5 
Q 32.28125 48.484375 27.875 48.484375 
Q 21.1875 48.484375 17.84375 46.4375 
Q 14.5 44.390625 14.5 40.28125 
Q 14.5 37.15625 16.890625 35.375 
Q 19.28125 33.59375 26.515625 31.984375 
L 29.59375 31.296875 
Q 39.15625 29.25 43.1875 25.515625 
Q 47.21875 21.78125 47.21875 15.09375 
Q 47.21875 7.46875 41.1875 3.015625 
Q 35.15625 -1.421875 24.609375 -1.421875 
Q 20.21875 -1.421875 15.453125 -0.5625 
Q 10.6875 0.296875 5.421875 2 
L 5.421875 11.28125 
Q 10.40625 8.6875 15.234375 7.390625 
Q 20.0625 6.109375 24.8125 6.109375 
Q 31.15625 6.109375 34.5625 8.28125 
Q 37.984375 10.453125 37.984375 14.40625 
Q 37.984375 18.0625 35.515625 20.015625 
Q 33.0625 21.96875 24.703125 23.78125 
L 21.578125 24.515625 
Q 13.234375 26.265625 9.515625 29.90625 
Q 5.8125 33.546875 5.8125 39.890625 
Q 5.8125 47.609375 11.28125 51.796875 
Q 16.75 56 26.8125 56 
Q 31.78125 56 36.171875 55.265625 
Q 40.578125 54.546875 44.28125 53.078125 
z
" id="DejaVuSans-73"/>
    </defs>
    <g transform="translate(690.67125 63.12)scale(0.12 -0.12)">
     <use xlink:href="#DejaVuSans-35"/>
     <use x="63.623047" xlink:href="#DejaVuSans-30"/>
     <use x="127.246094" xlink:href="#DejaVuSans-30"/>
     <use x="190.869141" xlink:href="#DejaVuSans-30"/>
     <use x="254.492188" xlink:href="#DejaVuSans-30"/>
     <use x="318.115234" xlink:href="#DejaVuSans-30"/>
     <use x="381.738281" xlink:href="#DejaVuSans-30"/>
     <use x="445.361328" xlink:href="#DejaVuSans-2e"/>
     <use x="477.148438" xlink:href="#DejaVuSans-30"/>
     <use x="540.771484" xlink:href="#DejaVuSans-20"/>
     <use x="572.558594" xlink:href="#DejaVuSans-62"/>
     <use x="636.035156" xlink:href="#DejaVuSans-69"/>
     <use x="663.818359" xlink:href="#DejaVuSans-74"/>
     <use x="703.027344" xlink:href="#DejaVuSans-2f"/>
     <use x="736.71875" xlink:href="#DejaVuSans-73"/>
    </g>
   </g>
   <g id="legend_1">
    <g id="patch_7">
     <path d="M 1173.520313 135.8325 
L 1289 135.8325 
Q 1291 135.8325 1291 133.8325 
L 1291 76.12 
Q 1291 74.12 1289 74.12 
L 1173.520313 74.12 
Q 1171.520313 74.12 1171.520313 76.12 
L 1171.520313 133.8325 
Q 1171.520313 135.8325 1173.520313 135.8325 
z
" style="fill:#ffffff;opacity:0.8;stroke:#cccccc;stroke-linejoin:miter;"/>
    </g>
    <g id="line2d_16">
     <path d="M 1175.520313 82.218437 
L 1195.520313 82.218437 
" style="fill:none;stroke:#ff0000;stroke-dasharray:5.55,2.4;stroke-dashoffset:0;stroke-width:1.5;"/>
    </g>
    <g id="line2d_17">
     <g>
      <use style="fill:#ff0000;stroke:#ff0000;stroke-linejoin:miter;" x="1185.520313" xlink:href="#mf3fca06eaa" y="82.218437"/>
     </g>
    </g>
    <g id="text_13">
     <!-- tcpdump -->
     <defs>
      <path d="M 48.78125 52.59375 
L 48.78125 44.1875 
Q 44.96875 46.296875 41.140625 47.34375 
Q 37.3125 48.390625 33.40625 48.390625 
Q 24.65625 48.390625 19.8125 42.84375 
Q 14.984375 37.3125 14.984375 27.296875 
Q 14.984375 17.28125 19.8125 11.734375 
Q 24.65625 6.203125 33.40625 6.203125 
Q 37.3125 6.203125 41.140625 7.25 
Q 44.96875 8.296875 48.78125 10.40625 
L 48.78125 2.09375 
Q 45.015625 0.34375 40.984375 -0.53125 
Q 36.96875 -1.421875 32.421875 -1.421875 
Q 20.0625 -1.421875 12.78125 6.34375 
Q 5.515625 14.109375 5.515625 27.296875 
Q 5.515625 40.671875 12.859375 48.328125 
Q 20.21875 56 33.015625 56 
Q 37.15625 56 41.109375 55.140625 
Q 45.0625 54.296875 48.78125 52.59375 
z
" id="DejaVuSans-63"/>
      <path d="M 18.109375 8.203125 
L 18.109375 -20.796875 
L 9.078125 -20.796875 
L 9.078125 54.6875 
L 18.109375 54.6875 
L 18.109375 46.390625 
Q 20.953125 51.265625 25.265625 53.625 
Q 29.59375 56 35.59375 56 
Q 45.5625 56 51.78125 48.09375 
Q 58.015625 40.1875 58.015625 27.296875 
Q 58.015625 14.40625 51.78125 6.484375 
Q 45.5625 -1.421875 35.59375 -1.421875 
Q 29.59375 -1.421875 25.265625 0.953125 
Q 20.953125 3.328125 18.109375 8.203125 
z
M 48.6875 27.296875 
Q 48.6875 37.203125 44.609375 42.84375 
Q 40.53125 48.484375 33.40625 48.484375 
Q 26.265625 48.484375 22.1875 42.84375 
Q 18.109375 37.203125 18.109375 27.296875 
Q 18.109375 17.390625 22.1875 11.75 
Q 26.265625 6.109375 33.40625 6.109375 
Q 40.53125 6.109375 44.609375 11.75 
Q 48.6875 17.390625 48.6875 27.296875 
z
" id="DejaVuSans-70"/>
      <path d="M 45.40625 46.390625 
L 45.40625 75.984375 
L 54.390625 75.984375 
L 54.390625 0 
L 45.40625 0 
L 45.40625 8.203125 
Q 42.578125 3.328125 38.25 0.953125 
Q 33.9375 -1.421875 27.875 -1.421875 
Q 17.96875 -1.421875 11.734375 6.484375 
Q 5.515625 14.40625 5.515625 27.296875 
Q 5.515625 40.1875 11.734375 48.09375 
Q 17.96875 56 27.875 56 
Q 33.9375 56 38.25 53.625 
Q 42.578125 51.265625 45.40625 46.390625 
z
M 14.796875 27.296875 
Q 14.796875 17.390625 18.875 11.75 
Q 22.953125 6.109375 30.078125 6.109375 
Q 37.203125 6.109375 41.296875 11.75 
Q 45.40625 17.390625 45.40625 27.296875 
Q 45.40625 37.203125 41.296875 42.84375 
Q 37.203125 48.484375 30.078125 48.484375 
Q 22.953125 48.484375 18.875 42.84375 
Q 14.796875 37.203125 14.796875 27.296875 
z
" id="DejaVuSans-64"/>
      <path d="M 8.5 21.578125 
L 8.5 54.6875 
L 17.484375 54.6875 
L 17.484375 21.921875 
Q 17.484375 14.15625 20.5 10.265625 
Q 23.53125 6.390625 29.59375 6.390625 
Q 36.859375 6.390625 41.078125 11.03125 
Q 45.3125 15.671875 45.3125 23.6875 
L 45.3125 54.6875 
L 54.296875 54.6875 
L 54.296875 0 
L 45.3125 0 
L 45.3125 8.40625 
Q 42.046875 3.421875 37.71875 1 
Q 33.40625 -1.421875 27.6875 -1.421875 
Q 18.265625 -1.421875 13.375 4.4375 
Q 8.5 10.296875 8.5 21.578125 
z
M 31.109375 56 
z
" id="DejaVuSans-75"/>
      <path d="M 52 44.1875 
Q 55.375 50.25 60.0625 53.125 
Q 64.75 56 71.09375 56 
Q 79.640625 56 84.28125 50.015625 
Q 88.921875 44.046875 88.921875 33.015625 
L 88.921875 0 
L 79.890625 0 
L 79.890625 32.71875 
Q 79.890625 40.578125 77.09375 44.375 
Q 74.3125 48.1875 68.609375 48.1875 
Q 61.625 48.1875 57.5625 43.546875 
Q 53.515625 38.921875 53.515625 30.90625 
L 53.515625 0 
L 44.484375 0 
L 44.484375 32.71875 
Q 44.484375 40.625 41.703125 44.40625 
Q 38.921875 48.1875 33.109375 48.1875 
Q 26.21875 48.1875 22.15625 43.53125 
Q 18.109375 38.875 18.109375 30.90625 
L 18.109375 0 
L 9.078125 0 
L 9.078125 54.6875 
L 18.109375 54.6875 
L 18.109375 46.1875 
Q 21.1875 51.21875 25.484375 53.609375 
Q 29.78125 56 35.6875 56 
Q 41.65625 56 45.828125 52.96875 
Q 50 49.953125 52 44.1875 
z
" id="DejaVuSans-6d"/>
     </defs>
     <g transform="translate(1203.520313 85.718437)scale(0.1 -0.1)">
      <use xlink:href="#DejaVuSans-74"/>
      <use x="39.208984" xlink:href="#DejaVuSans-63"/>
      <use x="94.189453" xlink:href="#DejaVuSans-70"/>
      <use x="157.666016" xlink:href="#DejaVuSans-64"/>
      <use x="221.142578" xlink:href="#DejaVuSans-75"/>
      <use x="284.521484" xlink:href="#DejaVuSans-6d"/>
      <use x="381.933594" xlink:href="#DejaVuSans-70"/>
     </g>
    </g>
    <g id="line2d_18">
     <path d="M 1175.520313 96.896563 
L 1195.520313 96.896563 
" style="fill:none;stroke:#800080;stroke-dasharray:9.6,2.4,1.5,2.4;stroke-dashoffset:0;stroke-width:1.5;"/>
    </g>
    <g id="line2d_19">
     <g>
      <use style="fill:#800080;stroke:#800080;" x="1185.520313" xlink:href="#md5d0b644bb" y="96.896563"/>
     </g>
    </g>
    <g id="text_14">
     <!-- filtered tcpdump -->
     <defs>
      <path d="M 37.109375 75.984375 
L 37.109375 68.5 
L 28.515625 68.5 
Q 23.6875 68.5 21.796875 66.546875 
Q 19.921875 64.59375 19.921875 59.515625 
L 19.921875 54.6875 
L 34.71875 54.6875 
L 34.71875 47.703125 
L 19.921875 47.703125 
L 19.921875 0 
L 10.890625 0 
L 10.890625 47.703125 
L 2.296875 47.703125 
L 2.296875 54.6875 
L 10.890625 54.6875 
L 10.890625 58.5 
Q 10.890625 67.625 15.140625 71.796875 
Q 19.390625 75.984375 28.609375 75.984375 
z
" id="DejaVuSans-66"/>
      <path d="M 9.421875 75.984375 
L 18.40625 75.984375 
L 18.40625 0 
L 9.421875 0 
z
" id="DejaVuSans-6c"/>
      <path d="M 56.203125 29.59375 
L 56.203125 25.203125 
L 14.890625 25.203125 
Q 15.484375 15.921875 20.484375 11.0625 
Q 25.484375 6.203125 34.421875 6.203125 
Q 39.59375 6.203125 44.453125 7.46875 
Q 49.3125 8.734375 54.109375 11.28125 
L 54.109375 2.78125 
Q 49.265625 0.734375 44.1875 -0.34375 
Q 39.109375 -1.421875 33.890625 -1.421875 
Q 20.796875 -1.421875 13.15625 6.1875 
Q 5.515625 13.8125 5.515625 26.8125 
Q 5.515625 40.234375 12.765625 48.109375 
Q 20.015625 56 32.328125 56 
Q 43.359375 56 49.78125 48.890625 
Q 56.203125 41.796875 56.203125 29.59375 
z
M 47.21875 32.234375 
Q 47.125 39.59375 43.09375 43.984375 
Q 39.0625 48.390625 32.421875 48.390625 
Q 24.90625 48.390625 20.390625 44.140625 
Q 15.875 39.890625 15.1875 32.171875 
z
" id="DejaVuSans-65"/>
      <path d="M 41.109375 46.296875 
Q 39.59375 47.171875 37.8125 47.578125 
Q 36.03125 48 33.890625 48 
Q 26.265625 48 22.1875 43.046875 
Q 18.109375 38.09375 18.109375 28.8125 
L 18.109375 0 
L 9.078125 0 
L 9.078125 54.6875 
L 18.109375 54.6875 
L 18.109375 46.1875 
Q 20.953125 51.171875 25.484375 53.578125 
Q 30.03125 56 36.53125 56 
Q 37.453125 56 38.578125 55.875 
Q 39.703125 55.765625 41.0625 55.515625 
z
" id="DejaVuSans-72"/>
     </defs>
     <g transform="translate(1203.520313 100.396563)scale(0.1 -0.1)">
      <use xlink:href="#DejaVuSans-66"/>
      <use x="35.205078" xlink:href="#DejaVuSans-69"/>
      <use x="62.988281" xlink:href="#DejaVuSans-6c"/>
      <use x="90.771484" xlink:href="#DejaVuSans-74"/>
      <use x="129.980469" xlink:href="#DejaVuSans-65"/>
      <use x="191.503906" xlink:href="#DejaVuSans-72"/>
      <use x="232.585938" xlink:href="#DejaVuSans-65"/>
      <use x="294.109375" xlink:href="#DejaVuSans-64"/>
      <use x="357.585938" xlink:href="#DejaVuSans-20"/>
      <use x="389.373047" xlink:href="#DejaVuSans-74"/>
      <use x="428.582031" xlink:href="#DejaVuSans-63"/>
      <use x="483.5625" xlink:href="#DejaVuSans-70"/>
      <use x="547.039062" xlink:href="#DejaVuSans-64"/>
      <use x="610.515625" xlink:href="#DejaVuSans-75"/>
      <use x="673.894531" xlink:href="#DejaVuSans-6d"/>
      <use x="771.306641" xlink:href="#DejaVuSans-70"/>
     </g>
    </g>
    <g id="line2d_20">
     <path d="M 1175.520313 111.574687 
L 1195.520313 111.574687 
" style="fill:none;stroke:#0000ff;stroke-linecap:square;stroke-width:1.5;"/>
    </g>
    <g id="line2d_21"/>
    <g id="text_15">
     <!-- OLS -->
     <defs>
      <path d="M 39.40625 66.21875 
Q 28.65625 66.21875 22.328125 58.203125 
Q 16.015625 50.203125 16.015625 36.375 
Q 16.015625 22.609375 22.328125 14.59375 
Q 28.65625 6.59375 39.40625 6.59375 
Q 50.140625 6.59375 56.421875 14.59375 
Q 62.703125 22.609375 62.703125 36.375 
Q 62.703125 50.203125 56.421875 58.203125 
Q 50.140625 66.21875 39.40625 66.21875 
z
M 39.40625 74.21875 
Q 54.734375 74.21875 63.90625 63.9375 
Q 73.09375 53.65625 73.09375 36.375 
Q 73.09375 19.140625 63.90625 8.859375 
Q 54.734375 -1.421875 39.40625 -1.421875 
Q 24.03125 -1.421875 14.8125 8.828125 
Q 5.609375 19.09375 5.609375 36.375 
Q 5.609375 53.65625 14.8125 63.9375 
Q 24.03125 74.21875 39.40625 74.21875 
z
" id="DejaVuSans-4f"/>
      <path d="M 9.8125 72.90625 
L 19.671875 72.90625 
L 19.671875 8.296875 
L 55.171875 8.296875 
L 55.171875 0 
L 9.8125 0 
z
" id="DejaVuSans-4c"/>
      <path d="M 53.515625 70.515625 
L 53.515625 60.890625 
Q 47.90625 63.578125 42.921875 64.890625 
Q 37.9375 66.21875 33.296875 66.21875 
Q 25.25 66.21875 20.875 63.09375 
Q 16.5 59.96875 16.5 54.203125 
Q 16.5 49.359375 19.40625 46.890625 
Q 22.3125 44.4375 30.421875 42.921875 
L 36.375 41.703125 
Q 47.40625 39.59375 52.65625 34.296875 
Q 57.90625 29 57.90625 20.125 
Q 57.90625 9.515625 50.796875 4.046875 
Q 43.703125 -1.421875 29.984375 -1.421875 
Q 24.8125 -1.421875 18.96875 -0.25 
Q 13.140625 0.921875 6.890625 3.21875 
L 6.890625 13.375 
Q 12.890625 10.015625 18.65625 8.296875 
Q 24.421875 6.59375 29.984375 6.59375 
Q 38.421875 6.59375 43.015625 9.90625 
Q 47.609375 13.234375 47.609375 19.390625 
Q 47.609375 24.75 44.3125 27.78125 
Q 41.015625 30.8125 33.5 32.328125 
L 27.484375 33.5 
Q 16.453125 35.6875 11.515625 40.375 
Q 6.59375 45.0625 6.59375 53.421875 
Q 6.59375 63.09375 13.40625 68.65625 
Q 20.21875 74.21875 32.171875 74.21875 
Q 37.3125 74.21875 42.625 73.28125 
Q 47.953125 72.359375 53.515625 70.515625 
z
" id="DejaVuSans-53"/>
     </defs>
     <g transform="translate(1203.520313 115.074687)scale(0.1 -0.1)">
      <use xlink:href="#DejaVuSans-4f"/>
      <use x="78.710938" xlink:href="#DejaVuSans-4c"/>
      <use x="134.423828" xlink:href="#DejaVuSans-53"/>
     </g>
    </g>
    <g id="line2d_22">
     <path d="M 1175.520313 126.252813 
L 1195.520313 126.252813 
" style="fill:none;stroke:#008000;stroke-linecap:square;stroke-width:1.5;"/>
    </g>
    <g id="line2d_23">
     <g>
      <use style="fill:#008000;stroke:#008000;" x="1185.520313" xlink:href="#m6360d10039" y="126.252813"/>
     </g>
    </g>
    <g id="text_16">
     <!-- IRLS -->
     <defs>
      <path d="M 9.8125 72.90625 
L 19.671875 72.90625 
L 19.671875 0 
L 9.8125 0 
z
" id="DejaVuSans-49"/>
      <path d="M 44.390625 34.1875 
Q 47.5625 33.109375 50.5625 29.59375 
Q 53.5625 26.078125 56.59375 19.921875 
L 66.609375 0 
L 56 0 
L 46.6875 18.703125 
Q 43.0625 26.03125 39.671875 28.421875 
Q 36.28125 30.8125 30.421875 30.8125 
L 19.671875 30.8125 
L 19.671875 0 
L 9.8125 0 
L 9.8125 72.90625 
L 32.078125 72.90625 
Q 44.578125 72.90625 50.734375 67.671875 
Q 56.890625 62.453125 56.890625 51.90625 
Q 56.890625 45.015625 53.6875 40.46875 
Q 50.484375 35.9375 44.390625 34.1875 
z
M 19.671875 64.796875 
L 19.671875 38.921875 
L 32.078125 38.921875 
Q 39.203125 38.921875 42.84375 42.21875 
Q 46.484375 45.515625 46.484375 51.90625 
Q 46.484375 58.296875 42.84375 61.546875 
Q 39.203125 64.796875 32.078125 64.796875 
z
" id="DejaVuSans-52"/>
     </defs>
     <g transform="translate(1203.520313 129.752813)scale(0.1 -0.1)">
      <use xlink:href="#DejaVuSans-49"/>
      <use x="29.492188" xlink:href="#DejaVuSans-52"/>
      <use x="98.974609" xlink:href="#DejaVuSans-4c"/>
      <use x="154.6875" xlink:href="#DejaVuSans-53"/>
     </g>
    </g>
   </g>
  </g>
 </g>
 <defs>
  <clipPath id="pce6574f98f">
   <rect height="443.52" width="1116" x="180" y="69.12"/>
  </clipPath>
 </defs>
</svg>
