<?xml version="1.0" encoding="utf-8" standalone="no"?>
<!DOCTYPE svg PUBLIC "-//W3C//DTD SVG 1.1//EN"
  "http://www.w3.org/Graphics/SVG/1.1/DTD/svg11.dtd">
<!-- Created with matplotlib (http://matplotlib.org/) -->
<svg height="576pt" version="1.1" viewBox="0 0 1440 576" width="1440pt" xmlns="http://www.w3.org/2000/svg" xmlns:xlink="http://www.w3.org/1999/xlink">
 <defs>
  <style type="text/css">
*{stroke-linecap:butt;stroke-linejoin:round;}
  </style>
 </defs>
 <g id="figure_1">
  <g id="patch_1">
   <path d="M 0 576 
L 1440 576 
L 1440 0 
L 0 0 
z
" style="fill:#ffffff;"/>
  </g>
  <g id="axes_1">
   <g id="patch_2">
    <path d="M 180 512.64 
L 1296 512.64 
L 1296 69.12 
L 180 69.12 
z
" style="fill:#ffffff;"/>
   </g>
   <g id="matplotlib.axis_1">
    <g id="xtick_1">
     <g id="line2d_1">
      <defs>
       <path d="M 0 0 
L 0 3.5 
" id="m612cbed041" style="stroke:#000000;stroke-width:0.8;"/>
      </defs>
      <g>
       <use style="stroke:#000000;stroke-width:0.8;" x="230.727273" xlink:href="#m612cbed041" y="512.64"/>
      </g>
     </g>
     <g id="text_1">
      <!-- 0.00 -->
      <defs>
       <path d="M 31.78125 66.40625 
Q 24.171875 66.40625 20.328125 58.90625 
Q 16.5 51.421875 16.5 36.375 
Q 16.5 21.390625 20.328125 13.890625 
Q 24.171875 6.390625 31.78125 6.390625 
Q 39.453125 6.390625 43.28125 13.890625 
Q 47.125 21.390625 47.125 36.375 
Q 47.125 51.421875 43.28125 58.90625 
Q 39.453125 66.40625 31.78125 66.40625 
z
M 31.78125 74.21875 
Q 44.046875 74.21875 50.515625 64.515625 
Q 56.984375 54.828125 56.984375 36.375 
Q 56.984375 17.96875 50.515625 8.265625 
Q 44.046875 -1.421875 31.78125 -1.421875 
Q 19.53125 -1.421875 13.0625 8.265625 
Q 6.59375 17.96875 6.59375 36.375 
Q 6.59375 54.828125 13.0625 64.515625 
Q 19.53125 74.21875 31.78125 74.21875 
z
" id="DejaVuSans-30"/>
       <path d="M 10.6875 12.40625 
L 21 12.40625 
L 21 0 
L 10.6875 0 
z
" id="DejaVuSans-2e"/>
      </defs>
      <g transform="translate(219.59446 527.238438)scale(0.1 -0.1)">
       <use xlink:href="#DejaVuSans-30"/>
       <use x="63.623047" xlink:href="#DejaVuSans-2e"/>
       <use x="95.410156" xlink:href="#DejaVuSans-30"/>
       <use x="159.033203" xlink:href="#DejaVuSans-30"/>
      </g>
     </g>
    </g>
    <g id="xtick_2">
     <g id="line2d_2">
      <g>
       <use style="stroke:#000000;stroke-width:0.8;" x="461.821546" xlink:href="#m612cbed041" y="512.64"/>
      </g>
     </g>
     <g id="text_2">
      <!-- 0.05 -->
      <defs>
       <path d="M 10.796875 72.90625 
L 49.515625 72.90625 
L 49.515625 64.59375 
L 19.828125 64.59375 
L 19.828125 46.734375 
Q 21.96875 47.46875 24.109375 47.828125 
Q 26.265625 48.1875 28.421875 48.1875 
Q 40.625 48.1875 47.75 41.5 
Q 54.890625 34.8125 54.890625 23.390625 
Q 54.890625 11.625 47.5625 5.09375 
Q 40.234375 -1.421875 26.90625 -1.421875 
Q 22.3125 -1.421875 17.546875 -0.640625 
Q 12.796875 0.140625 7.71875 1.703125 
L 7.71875 11.625 
Q 12.109375 9.234375 16.796875 8.0625 
Q 21.484375 6.890625 26.703125 6.890625 
Q 35.15625 6.890625 40.078125 11.328125 
Q 45.015625 15.765625 45.015625 23.390625 
Q 45.015625 31 40.078125 35.4375 
Q 35.15625 39.890625 26.703125 39.890625 
Q 22.75 39.890625 18.8125 39.015625 
Q 14.890625 38.140625 10.796875 36.28125 
z
" id="DejaVuSans-35"/>
      </defs>
      <g transform="translate(450.688733 527.238438)scale(0.1 -0.1)">
       <use xlink:href="#DejaVuSans-30"/>
       <use x="63.623047" xlink:href="#DejaVuSans-2e"/>
       <use x="95.410156" xlink:href="#DejaVuSans-30"/>
       <use x="159.033203" xlink:href="#DejaVuSans-35"/>
      </g>
     </g>
    </g>
    <g id="xtick_3">
     <g id="line2d_3">
      <g>
       <use style="stroke:#000000;stroke-width:0.8;" x="692.915818" xlink:href="#m612cbed041" y="512.64"/>
      </g>
     </g>
     <g id="text_3">
      <!-- 0.10 -->
      <defs>
       <path d="M 12.40625 8.296875 
L 28.515625 8.296875 
L 28.515625 63.921875 
L 10.984375 60.40625 
L 10.984375 69.390625 
L 28.421875 72.90625 
L 38.28125 72.90625 
L 38.28125 8.296875 
L 54.390625 8.296875 
L 54.390625 0 
L 12.40625 0 
z
" id="DejaVuSans-31"/>
      </defs>
      <g transform="translate(681.783006 527.238438)scale(0.1 -0.1)">
       <use xlink:href="#DejaVuSans-30"/>
       <use x="63.623047" xlink:href="#DejaVuSans-2e"/>
       <use x="95.410156" xlink:href="#DejaVuSans-31"/>
       <use x="159.033203" xlink:href="#DejaVuSans-30"/>
      </g>
     </g>
    </g>
    <g id="xtick_4">
     <g id="line2d_4">
      <g>
       <use style="stroke:#000000;stroke-width:0.8;" x="924.010091" xlink:href="#m612cbed041" y="512.64"/>
      </g>
     </g>
     <g id="text_4">
      <!-- 0.15 -->
      <g transform="translate(912.877279 527.238438)scale(0.1 -0.1)">
       <use xlink:href="#DejaVuSans-30"/>
       <use x="63.623047" xlink:href="#DejaVuSans-2e"/>
       <use x="95.410156" xlink:href="#DejaVuSans-31"/>
       <use x="159.033203" xlink:href="#DejaVuSans-35"/>
      </g>
     </g>
    </g>
    <g id="xtick_5">
     <g id="line2d_5">
      <g>
       <use style="stroke:#000000;stroke-width:0.8;" x="1155.104364" xlink:href="#m612cbed041" y="512.64"/>
      </g>
     </g>
     <g id="text_5">
      <!-- 0.20 -->
      <defs>
       <path d="M 19.1875 8.296875 
L 53.609375 8.296875 
L 53.609375 0 
L 7.328125 0 
L 7.328125 8.296875 
Q 12.9375 14.109375 22.625 23.890625 
Q 32.328125 33.6875 34.8125 36.53125 
Q 39.546875 41.84375 41.421875 45.53125 
Q 43.3125 49.21875 43.3125 52.78125 
Q 43.3125 58.59375 39.234375 62.25 
Q 35.15625 65.921875 28.609375 65.921875 
Q 23.96875 65.921875 18.8125 64.3125 
Q 13.671875 62.703125 7.8125 59.421875 
L 7.8125 69.390625 
Q 13.765625 71.78125 18.9375 73 
Q 24.125 74.21875 28.421875 74.21875 
Q 39.75 74.21875 46.484375 68.546875 
Q 53.21875 62.890625 53.21875 53.421875 
Q 53.21875 48.921875 51.53125 44.890625 
Q 49.859375 40.875 45.40625 35.40625 
Q 44.1875 33.984375 37.640625 27.21875 
Q 31.109375 20.453125 19.1875 8.296875 
z
" id="DejaVuSans-32"/>
      </defs>
      <g transform="translate(1143.971551 527.238438)scale(0.1 -0.1)">
       <use xlink:href="#DejaVuSans-30"/>
       <use x="63.623047" xlink:href="#DejaVuSans-2e"/>
       <use x="95.410156" xlink:href="#DejaVuSans-32"/>
       <use x="159.033203" xlink:href="#DejaVuSans-30"/>
      </g>
     </g>
    </g>
   </g>
   <g id="matplotlib.axis_2">
    <g id="ytick_1">
     <g id="line2d_6">
      <defs>
       <path d="M 0 0 
L -3.5 0 
" id="m33e30f560f" style="stroke:#000000;stroke-width:0.8;"/>
      </defs>
      <g>
       <use style="stroke:#000000;stroke-width:0.8;" x="180" xlink:href="#m33e30f560f" y="442.402006"/>
      </g>
     </g>
     <g id="text_6">
      <!-- 0.4 -->
      <defs>
       <path d="M 37.796875 64.3125 
L 12.890625 25.390625 
L 37.796875 25.390625 
z
M 35.203125 72.90625 
L 47.609375 72.90625 
L 47.609375 25.390625 
L 58.015625 25.390625 
L 58.015625 17.1875 
L 47.609375 17.1875 
L 47.609375 0 
L 37.796875 0 
L 37.796875 17.1875 
L 4.890625 17.1875 
L 4.890625 26.703125 
z
" id="DejaVuSans-34"/>
      </defs>
      <g transform="translate(157.096875 446.201224)scale(0.1 -0.1)">
       <use xlink:href="#DejaVuSans-30"/>
       <use x="63.623047" xlink:href="#DejaVuSans-2e"/>
       <use x="95.410156" xlink:href="#DejaVuSans-34"/>
      </g>
     </g>
    </g>
    <g id="ytick_2">
     <g id="line2d_7">
      <g>
       <use style="stroke:#000000;stroke-width:0.8;" x="180" xlink:href="#m33e30f560f" y="361.394504"/>
      </g>
     </g>
     <g id="text_7">
      <!-- 0.6 -->
      <defs>
       <path d="M 33.015625 40.375 
Q 26.375 40.375 22.484375 35.828125 
Q 18.609375 31.296875 18.609375 23.390625 
Q 18.609375 15.53125 22.484375 10.953125 
Q 26.375 6.390625 33.015625 6.390625 
Q 39.65625 6.390625 43.53125 10.953125 
Q 47.40625 15.53125 47.40625 23.390625 
Q 47.40625 31.296875 43.53125 35.828125 
Q 39.65625 40.375 33.015625 40.375 
z
M 52.59375 71.296875 
L 52.59375 62.3125 
Q 48.875 64.0625 45.09375 64.984375 
Q 41.3125 65.921875 37.59375 65.921875 
Q 27.828125 65.921875 22.671875 59.328125 
Q 17.53125 52.734375 16.796875 39.40625 
Q 19.671875 43.65625 24.015625 45.921875 
Q 28.375 48.1875 33.59375 48.1875 
Q 44.578125 48.1875 50.953125 41.515625 
Q 57.328125 34.859375 57.328125 23.390625 
Q 57.328125 12.15625 50.6875 5.359375 
Q 44.046875 -1.421875 33.015625 -1.421875 
Q 20.359375 -1.421875 13.671875 8.265625 
Q 6.984375 17.96875 6.984375 36.375 
Q 6.984375 53.65625 15.1875 63.9375 
Q 23.390625 74.21875 37.203125 74.21875 
Q 40.921875 74.21875 44.703125 73.484375 
Q 48.484375 72.75 52.59375 71.296875 
z
" id="DejaVuSans-36"/>
      </defs>
      <g transform="translate(157.096875 365.193722)scale(0.1 -0.1)">
       <use xlink:href="#DejaVuSans-30"/>
       <use x="63.623047" xlink:href="#DejaVuSans-2e"/>
       <use x="95.410156" xlink:href="#DejaVuSans-36"/>
      </g>
     </g>
    </g>
    <g id="ytick_3">
     <g id="line2d_8">
      <g>
       <use style="stroke:#000000;stroke-width:0.8;" x="180" xlink:href="#m33e30f560f" y="280.387001"/>
      </g>
     </g>
     <g id="text_8">
      <!-- 0.8 -->
      <defs>
       <path d="M 31.78125 34.625 
Q 24.75 34.625 20.71875 30.859375 
Q 16.703125 27.09375 16.703125 20.515625 
Q 16.703125 13.921875 20.71875 10.15625 
Q 24.75 6.390625 31.78125 6.390625 
Q 38.8125 6.390625 42.859375 10.171875 
Q 46.921875 13.96875 46.921875 20.515625 
Q 46.921875 27.09375 42.890625 30.859375 
Q 38.875 34.625 31.78125 34.625 
z
M 21.921875 38.8125 
Q 15.578125 40.375 12.03125 44.71875 
Q 8.5 49.078125 8.5 55.328125 
Q 8.5 64.0625 14.71875 69.140625 
Q 20.953125 74.21875 31.78125 74.21875 
Q 42.671875 74.21875 48.875 69.140625 
Q 55.078125 64.0625 55.078125 55.328125 
Q 55.078125 49.078125 51.53125 44.71875 
Q 48 40.375 41.703125 38.8125 
Q 48.828125 37.15625 52.796875 32.3125 
Q 56.78125 27.484375 56.78125 20.515625 
Q 56.78125 9.90625 50.3125 4.234375 
Q 43.84375 -1.421875 31.78125 -1.421875 
Q 19.734375 -1.421875 13.25 4.234375 
Q 6.78125 9.90625 6.78125 20.515625 
Q 6.78125 27.484375 10.78125 32.3125 
Q 14.796875 37.15625 21.921875 38.8125 
z
M 18.3125 54.390625 
Q 18.3125 48.734375 21.84375 45.5625 
Q 25.390625 42.390625 31.78125 42.390625 
Q 38.140625 42.390625 41.71875 45.5625 
Q 45.3125 48.734375 45.3125 54.390625 
Q 45.3125 60.0625 41.71875 63.234375 
Q 38.140625 66.40625 31.78125 66.40625 
Q 25.390625 66.40625 21.84375 63.234375 
Q 18.3125 60.0625 18.3125 54.390625 
z
" id="DejaVuSans-38"/>
      </defs>
      <g transform="translate(157.096875 284.18622)scale(0.1 -0.1)">
       <use xlink:href="#DejaVuSans-30"/>
       <use x="63.623047" xlink:href="#DejaVuSans-2e"/>
       <use x="95.410156" xlink:href="#DejaVuSans-38"/>
      </g>
     </g>
    </g>
    <g id="ytick_4">
     <g id="line2d_9">
      <g>
       <use style="stroke:#000000;stroke-width:0.8;" x="180" xlink:href="#m33e30f560f" y="199.379499"/>
      </g>
     </g>
     <g id="text_9">
      <!-- 1.0 -->
      <g transform="translate(157.096875 203.178718)scale(0.1 -0.1)">
       <use xlink:href="#DejaVuSans-31"/>
       <use x="63.623047" xlink:href="#DejaVuSans-2e"/>
       <use x="95.410156" xlink:href="#DejaVuSans-30"/>
      </g>
     </g>
    </g>
    <g id="ytick_5">
     <g id="line2d_10">
      <g>
       <use style="stroke:#000000;stroke-width:0.8;" x="180" xlink:href="#m33e30f560f" y="118.371997"/>
      </g>
     </g>
     <g id="text_10">
      <!-- 1.2 -->
      <g transform="translate(157.096875 122.171216)scale(0.1 -0.1)">
       <use xlink:href="#DejaVuSans-31"/>
       <use x="63.623047" xlink:href="#DejaVuSans-2e"/>
       <use x="95.410156" xlink:href="#DejaVuSans-32"/>
      </g>
     </g>
    </g>
   </g>
   <g id="line2d_11">
    <path clip-path="url(#p7b9dac725c)" d="M 230.727273 482.694732 
L 246.413952 482.723085 
L 260.834235 480.748527 
L 270.725069 476.713948 
L 280.45876 472.697596 
L 290.123123 468.684485 
L 300.245052 464.697295 
L 309.960255 460.64287 
L 319.758652 456.620442 
L 329.399905 452.585054 
L 339.725197 448.591789 
L 349.569813 444.606625 
L 359.553086 440.606474 
L 369.198961 436.56582 
L 378.68307 432.513015 
L 388.36592 428.484512 
L 398.298352 424.481121 
L 407.800948 420.442492 
L 417.386739 416.396572 
L 428.183463 412.472569 
L 437.769254 408.421789 
L 447.61387 404.406247 
L 457.033272 400.348986 
L 467.095117 396.299016 
L 477.217046 392.352331 
L 487.278891 388.361496 
L 497.021825 384.324082 
L 506.727785 380.307325 
L 516.951395 376.288138 
L 526.458614 372.278266 
L 535.975076 368.240448 
L 545.727254 364.194933 
L 555.313045 360.159544 
L 565.513546 356.191392 
L 576.277917 352.243491 
L 586.06707 348.217013 
L 596.170512 344.227799 
L 607.189087 340.30258 
L 617.232444 336.297974 
L 627.562358 332.331442 
L 637.189745 328.305369 
L 646.595282 324.250539 
L 656.310486 320.224061 
L 666.427793 316.232011 
L 676.337115 312.102654 
L 685.862821 308.170549 
L 695.550293 304.142451 
L 706.30542 300.203462 
L 716.847941 296.231259 
L 726.858945 292.229488 
L 736.606502 288.215971 
L 747.985584 284.334092 
L 759.170546 280.425075 
L 769.227769 276.421279 
L 779.104738 272.338501 
L 788.843051 268.38898 
L 798.64607 264.374653 
L 808.536905 260.364377 
L 817.93782 256.309952 
L 827.283272 252.234869 
L 837.345117 248.250515 
L 847.739737 244.281148 
L 857.598219 240.251834 
L 867.054597 236.216446 
L 876.645009 229.83994 
L 891.971181 228.637789 
L 902.601518 224.686243 
L 912.557059 220.678802 
L 922.092009 212.665135 
L 934.663537 212.83201 
L 944.743869 208.858592 
L 954.680923 204.849531 
L 964.289823 196.100721 
L 973.935698 196.790904 
L 985.971088 192.942238 
L 995.963604 188.952213 
L 1005.646454 179.366596 
L 1015.139807 180.197733 
L 1027.947051 177.091905 
L 1038.013518 173.120512 
L 1047.659393 162.78436 
L 1057.111148 163.48467 
L 1066.488954 159.925605 
L 1078.764682 156.111772 
L 1088.595432 152.096635 
L 1098.333745 146.778088 
L 1107.80861 144.016947 
L 1119.155339 140.129802 
L 1129.443656 136.152739 
L 1139.071043 132.108844 
L 1148.55053 128.07305 
L 1158.076236 123.976501 
L 1171.364157 120.291065 
L 1181.560036 116.30428 
L 1191.547931 112.317496 
L 1201.785407 108.332737 
L 1213.931722 104.457743 
L 1224.959541 100.557637 
L 1235.506683 96.627963 
L 1245.272727 92.605941 
" style="fill:none;stroke:#ff0000;stroke-dasharray:5.55,2.4;stroke-dashoffset:0;stroke-width:1.5;"/>
    <defs>
     <path d="M -3 3 
L 3 3 
L 3 -3 
L -3 -3 
z
" id="m6276cae809" style="stroke:#ff0000;stroke-linejoin:miter;"/>
    </defs>
    <g clip-path="url(#p7b9dac725c)">
     <use style="fill:#ff0000;stroke:#ff0000;stroke-linejoin:miter;" x="230.727273" xlink:href="#m6276cae809" y="482.694732"/>
     <use style="fill:#ff0000;stroke:#ff0000;stroke-linejoin:miter;" x="246.413952" xlink:href="#m6276cae809" y="482.723085"/>
     <use style="fill:#ff0000;stroke:#ff0000;stroke-linejoin:miter;" x="260.834235" xlink:href="#m6276cae809" y="480.748527"/>
     <use style="fill:#ff0000;stroke:#ff0000;stroke-linejoin:miter;" x="270.725069" xlink:href="#m6276cae809" y="476.713948"/>
     <use style="fill:#ff0000;stroke:#ff0000;stroke-linejoin:miter;" x="280.45876" xlink:href="#m6276cae809" y="472.697596"/>
     <use style="fill:#ff0000;stroke:#ff0000;stroke-linejoin:miter;" x="290.123123" xlink:href="#m6276cae809" y="468.684485"/>
     <use style="fill:#ff0000;stroke:#ff0000;stroke-linejoin:miter;" x="300.245052" xlink:href="#m6276cae809" y="464.697295"/>
     <use style="fill:#ff0000;stroke:#ff0000;stroke-linejoin:miter;" x="309.960255" xlink:href="#m6276cae809" y="460.64287"/>
     <use style="fill:#ff0000;stroke:#ff0000;stroke-linejoin:miter;" x="319.758652" xlink:href="#m6276cae809" y="456.620442"/>
     <use style="fill:#ff0000;stroke:#ff0000;stroke-linejoin:miter;" x="329.399905" xlink:href="#m6276cae809" y="452.585054"/>
     <use style="fill:#ff0000;stroke:#ff0000;stroke-linejoin:miter;" x="339.725197" xlink:href="#m6276cae809" y="448.591789"/>
     <use style="fill:#ff0000;stroke:#ff0000;stroke-linejoin:miter;" x="349.569813" xlink:href="#m6276cae809" y="444.606625"/>
     <use style="fill:#ff0000;stroke:#ff0000;stroke-linejoin:miter;" x="359.553086" xlink:href="#m6276cae809" y="440.606474"/>
     <use style="fill:#ff0000;stroke:#ff0000;stroke-linejoin:miter;" x="369.198961" xlink:href="#m6276cae809" y="436.56582"/>
     <use style="fill:#ff0000;stroke:#ff0000;stroke-linejoin:miter;" x="378.68307" xlink:href="#m6276cae809" y="432.513015"/>
     <use style="fill:#ff0000;stroke:#ff0000;stroke-linejoin:miter;" x="388.36592" xlink:href="#m6276cae809" y="428.484512"/>
     <use style="fill:#ff0000;stroke:#ff0000;stroke-linejoin:miter;" x="398.298352" xlink:href="#m6276cae809" y="424.481121"/>
     <use style="fill:#ff0000;stroke:#ff0000;stroke-linejoin:miter;" x="407.800948" xlink:href="#m6276cae809" y="420.442492"/>
     <use style="fill:#ff0000;stroke:#ff0000;stroke-linejoin:miter;" x="417.386739" xlink:href="#m6276cae809" y="416.396572"/>
     <use style="fill:#ff0000;stroke:#ff0000;stroke-linejoin:miter;" x="428.183463" xlink:href="#m6276cae809" y="412.472569"/>
     <use style="fill:#ff0000;stroke:#ff0000;stroke-linejoin:miter;" x="437.769254" xlink:href="#m6276cae809" y="408.421789"/>
     <use style="fill:#ff0000;stroke:#ff0000;stroke-linejoin:miter;" x="447.61387" xlink:href="#m6276cae809" y="404.406247"/>
     <use style="fill:#ff0000;stroke:#ff0000;stroke-linejoin:miter;" x="457.033272" xlink:href="#m6276cae809" y="400.348986"/>
     <use style="fill:#ff0000;stroke:#ff0000;stroke-linejoin:miter;" x="467.095117" xlink:href="#m6276cae809" y="396.299016"/>
     <use style="fill:#ff0000;stroke:#ff0000;stroke-linejoin:miter;" x="477.217046" xlink:href="#m6276cae809" y="392.352331"/>
     <use style="fill:#ff0000;stroke:#ff0000;stroke-linejoin:miter;" x="487.278891" xlink:href="#m6276cae809" y="388.361496"/>
     <use style="fill:#ff0000;stroke:#ff0000;stroke-linejoin:miter;" x="497.021825" xlink:href="#m6276cae809" y="384.324082"/>
     <use style="fill:#ff0000;stroke:#ff0000;stroke-linejoin:miter;" x="506.727785" xlink:href="#m6276cae809" y="380.307325"/>
     <use style="fill:#ff0000;stroke:#ff0000;stroke-linejoin:miter;" x="516.951395" xlink:href="#m6276cae809" y="376.288138"/>
     <use style="fill:#ff0000;stroke:#ff0000;stroke-linejoin:miter;" x="526.458614" xlink:href="#m6276cae809" y="372.278266"/>
     <use style="fill:#ff0000;stroke:#ff0000;stroke-linejoin:miter;" x="535.975076" xlink:href="#m6276cae809" y="368.240448"/>
     <use style="fill:#ff0000;stroke:#ff0000;stroke-linejoin:miter;" x="545.727254" xlink:href="#m6276cae809" y="364.194933"/>
     <use style="fill:#ff0000;stroke:#ff0000;stroke-linejoin:miter;" x="555.313045" xlink:href="#m6276cae809" y="360.159544"/>
     <use style="fill:#ff0000;stroke:#ff0000;stroke-linejoin:miter;" x="565.513546" xlink:href="#m6276cae809" y="356.191392"/>
     <use style="fill:#ff0000;stroke:#ff0000;stroke-linejoin:miter;" x="576.277917" xlink:href="#m6276cae809" y="352.243491"/>
     <use style="fill:#ff0000;stroke:#ff0000;stroke-linejoin:miter;" x="586.06707" xlink:href="#m6276cae809" y="348.217013"/>
     <use style="fill:#ff0000;stroke:#ff0000;stroke-linejoin:miter;" x="596.170512" xlink:href="#m6276cae809" y="344.227799"/>
     <use style="fill:#ff0000;stroke:#ff0000;stroke-linejoin:miter;" x="607.189087" xlink:href="#m6276cae809" y="340.30258"/>
     <use style="fill:#ff0000;stroke:#ff0000;stroke-linejoin:miter;" x="617.232444" xlink:href="#m6276cae809" y="336.297974"/>
     <use style="fill:#ff0000;stroke:#ff0000;stroke-linejoin:miter;" x="627.562358" xlink:href="#m6276cae809" y="332.331442"/>
     <use style="fill:#ff0000;stroke:#ff0000;stroke-linejoin:miter;" x="637.189745" xlink:href="#m6276cae809" y="328.305369"/>
     <use style="fill:#ff0000;stroke:#ff0000;stroke-linejoin:miter;" x="646.595282" xlink:href="#m6276cae809" y="324.250539"/>
     <use style="fill:#ff0000;stroke:#ff0000;stroke-linejoin:miter;" x="656.310486" xlink:href="#m6276cae809" y="320.224061"/>
     <use style="fill:#ff0000;stroke:#ff0000;stroke-linejoin:miter;" x="666.427793" xlink:href="#m6276cae809" y="316.232011"/>
     <use style="fill:#ff0000;stroke:#ff0000;stroke-linejoin:miter;" x="676.337115" xlink:href="#m6276cae809" y="312.102654"/>
     <use style="fill:#ff0000;stroke:#ff0000;stroke-linejoin:miter;" x="685.862821" xlink:href="#m6276cae809" y="308.170549"/>
     <use style="fill:#ff0000;stroke:#ff0000;stroke-linejoin:miter;" x="695.550293" xlink:href="#m6276cae809" y="304.142451"/>
     <use style="fill:#ff0000;stroke:#ff0000;stroke-linejoin:miter;" x="706.30542" xlink:href="#m6276cae809" y="300.203462"/>
     <use style="fill:#ff0000;stroke:#ff0000;stroke-linejoin:miter;" x="716.847941" xlink:href="#m6276cae809" y="296.231259"/>
     <use style="fill:#ff0000;stroke:#ff0000;stroke-linejoin:miter;" x="726.858945" xlink:href="#m6276cae809" y="292.229488"/>
     <use style="fill:#ff0000;stroke:#ff0000;stroke-linejoin:miter;" x="736.606502" xlink:href="#m6276cae809" y="288.215971"/>
     <use style="fill:#ff0000;stroke:#ff0000;stroke-linejoin:miter;" x="747.985584" xlink:href="#m6276cae809" y="284.334092"/>
     <use style="fill:#ff0000;stroke:#ff0000;stroke-linejoin:miter;" x="759.170546" xlink:href="#m6276cae809" y="280.425075"/>
     <use style="fill:#ff0000;stroke:#ff0000;stroke-linejoin:miter;" x="769.227769" xlink:href="#m6276cae809" y="276.421279"/>
     <use style="fill:#ff0000;stroke:#ff0000;stroke-linejoin:miter;" x="779.104738" xlink:href="#m6276cae809" y="272.338501"/>
     <use style="fill:#ff0000;stroke:#ff0000;stroke-linejoin:miter;" x="788.843051" xlink:href="#m6276cae809" y="268.38898"/>
     <use style="fill:#ff0000;stroke:#ff0000;stroke-linejoin:miter;" x="798.64607" xlink:href="#m6276cae809" y="264.374653"/>
     <use style="fill:#ff0000;stroke:#ff0000;stroke-linejoin:miter;" x="808.536905" xlink:href="#m6276cae809" y="260.364377"/>
     <use style="fill:#ff0000;stroke:#ff0000;stroke-linejoin:miter;" x="817.93782" xlink:href="#m6276cae809" y="256.309952"/>
     <use style="fill:#ff0000;stroke:#ff0000;stroke-linejoin:miter;" x="827.283272" xlink:href="#m6276cae809" y="252.234869"/>
     <use style="fill:#ff0000;stroke:#ff0000;stroke-linejoin:miter;" x="837.345117" xlink:href="#m6276cae809" y="248.250515"/>
     <use style="fill:#ff0000;stroke:#ff0000;stroke-linejoin:miter;" x="847.739737" xlink:href="#m6276cae809" y="244.281148"/>
     <use style="fill:#ff0000;stroke:#ff0000;stroke-linejoin:miter;" x="857.598219" xlink:href="#m6276cae809" y="240.251834"/>
     <use style="fill:#ff0000;stroke:#ff0000;stroke-linejoin:miter;" x="867.054597" xlink:href="#m6276cae809" y="236.216446"/>
     <use style="fill:#ff0000;stroke:#ff0000;stroke-linejoin:miter;" x="876.645009" xlink:href="#m6276cae809" y="229.83994"/>
     <use style="fill:#ff0000;stroke:#ff0000;stroke-linejoin:miter;" x="891.971181" xlink:href="#m6276cae809" y="228.637789"/>
     <use style="fill:#ff0000;stroke:#ff0000;stroke-linejoin:miter;" x="902.601518" xlink:href="#m6276cae809" y="224.686243"/>
     <use style="fill:#ff0000;stroke:#ff0000;stroke-linejoin:miter;" x="912.557059" xlink:href="#m6276cae809" y="220.678802"/>
     <use style="fill:#ff0000;stroke:#ff0000;stroke-linejoin:miter;" x="922.092009" xlink:href="#m6276cae809" y="212.665135"/>
     <use style="fill:#ff0000;stroke:#ff0000;stroke-linejoin:miter;" x="934.663537" xlink:href="#m6276cae809" y="212.83201"/>
     <use style="fill:#ff0000;stroke:#ff0000;stroke-linejoin:miter;" x="944.743869" xlink:href="#m6276cae809" y="208.858592"/>
     <use style="fill:#ff0000;stroke:#ff0000;stroke-linejoin:miter;" x="954.680923" xlink:href="#m6276cae809" y="204.849531"/>
     <use style="fill:#ff0000;stroke:#ff0000;stroke-linejoin:miter;" x="964.289823" xlink:href="#m6276cae809" y="196.100721"/>
     <use style="fill:#ff0000;stroke:#ff0000;stroke-linejoin:miter;" x="973.935698" xlink:href="#m6276cae809" y="196.790904"/>
     <use style="fill:#ff0000;stroke:#ff0000;stroke-linejoin:miter;" x="985.971088" xlink:href="#m6276cae809" y="192.942238"/>
     <use style="fill:#ff0000;stroke:#ff0000;stroke-linejoin:miter;" x="995.963604" xlink:href="#m6276cae809" y="188.952213"/>
     <use style="fill:#ff0000;stroke:#ff0000;stroke-linejoin:miter;" x="1005.646454" xlink:href="#m6276cae809" y="179.366596"/>
     <use style="fill:#ff0000;stroke:#ff0000;stroke-linejoin:miter;" x="1015.139807" xlink:href="#m6276cae809" y="180.197733"/>
     <use style="fill:#ff0000;stroke:#ff0000;stroke-linejoin:miter;" x="1027.947051" xlink:href="#m6276cae809" y="177.091905"/>
     <use style="fill:#ff0000;stroke:#ff0000;stroke-linejoin:miter;" x="1038.013518" xlink:href="#m6276cae809" y="173.120512"/>
     <use style="fill:#ff0000;stroke:#ff0000;stroke-linejoin:miter;" x="1047.659393" xlink:href="#m6276cae809" y="162.78436"/>
     <use style="fill:#ff0000;stroke:#ff0000;stroke-linejoin:miter;" x="1057.111148" xlink:href="#m6276cae809" y="163.48467"/>
     <use style="fill:#ff0000;stroke:#ff0000;stroke-linejoin:miter;" x="1066.488954" xlink:href="#m6276cae809" y="159.925605"/>
     <use style="fill:#ff0000;stroke:#ff0000;stroke-linejoin:miter;" x="1078.764682" xlink:href="#m6276cae809" y="156.111772"/>
     <use style="fill:#ff0000;stroke:#ff0000;stroke-linejoin:miter;" x="1088.595432" xlink:href="#m6276cae809" y="152.096635"/>
     <use style="fill:#ff0000;stroke:#ff0000;stroke-linejoin:miter;" x="1098.333745" xlink:href="#m6276cae809" y="146.778088"/>
     <use style="fill:#ff0000;stroke:#ff0000;stroke-linejoin:miter;" x="1107.80861" xlink:href="#m6276cae809" y="144.016947"/>
     <use style="fill:#ff0000;stroke:#ff0000;stroke-linejoin:miter;" x="1119.155339" xlink:href="#m6276cae809" y="140.129802"/>
     <use style="fill:#ff0000;stroke:#ff0000;stroke-linejoin:miter;" x="1129.443656" xlink:href="#m6276cae809" y="136.152739"/>
     <use style="fill:#ff0000;stroke:#ff0000;stroke-linejoin:miter;" x="1139.071043" xlink:href="#m6276cae809" y="132.108844"/>
     <use style="fill:#ff0000;stroke:#ff0000;stroke-linejoin:miter;" x="1148.55053" xlink:href="#m6276cae809" y="128.07305"/>
     <use style="fill:#ff0000;stroke:#ff0000;stroke-linejoin:miter;" x="1158.076236" xlink:href="#m6276cae809" y="123.976501"/>
     <use style="fill:#ff0000;stroke:#ff0000;stroke-linejoin:miter;" x="1171.364157" xlink:href="#m6276cae809" y="120.291065"/>
     <use style="fill:#ff0000;stroke:#ff0000;stroke-linejoin:miter;" x="1181.560036" xlink:href="#m6276cae809" y="116.30428"/>
     <use style="fill:#ff0000;stroke:#ff0000;stroke-linejoin:miter;" x="1191.547931" xlink:href="#m6276cae809" y="112.317496"/>
     <use style="fill:#ff0000;stroke:#ff0000;stroke-linejoin:miter;" x="1201.785407" xlink:href="#m6276cae809" y="108.332737"/>
     <use style="fill:#ff0000;stroke:#ff0000;stroke-linejoin:miter;" x="1213.931722" xlink:href="#m6276cae809" y="104.457743"/>
     <use style="fill:#ff0000;stroke:#ff0000;stroke-linejoin:miter;" x="1224.959541" xlink:href="#m6276cae809" y="100.557637"/>
     <use style="fill:#ff0000;stroke:#ff0000;stroke-linejoin:miter;" x="1235.506683" xlink:href="#m6276cae809" y="96.627963"/>
     <use style="fill:#ff0000;stroke:#ff0000;stroke-linejoin:miter;" x="1245.272727" xlink:href="#m6276cae809" y="92.605941"/>
    </g>
   </g>
   <g id="line2d_12">
    <path clip-path="url(#p7b9dac725c)" d="M 230.727273 482.694732 
L 246.413952 482.723085 
L 260.834235 480.748527 
L 270.725069 476.713948 
L 280.45876 472.697596 
L 290.123123 468.684485 
L 300.245052 464.697295 
L 309.960255 460.64287 
L 319.758652 456.620442 
L 329.399905 452.585054 
L 339.725197 448.591789 
L 349.569813 444.606625 
L 359.553086 440.606474 
L 369.198961 436.56582 
L 378.68307 432.513015 
L 388.36592 428.484512 
L 398.298352 424.481121 
L 407.800948 420.442492 
L 417.386739 416.396572 
L 428.183463 412.472569 
L 437.769254 408.421789 
L 447.61387 404.406247 
L 457.033272 400.348986 
L 467.095117 396.299016 
L 477.217046 392.352331 
L 487.278891 388.361496 
L 497.021825 384.324082 
L 506.727785 380.307325 
L 516.951395 376.288138 
L 526.458614 372.278266 
L 535.975076 368.240448 
L 545.727254 364.194933 
L 555.313045 360.159544 
L 565.513546 356.191392 
L 576.277917 352.243491 
L 586.06707 348.217013 
L 596.170512 344.227799 
L 607.189087 340.30258 
L 617.232444 336.297974 
L 627.562358 332.331442 
L 637.189745 328.305369 
L 646.595282 324.250539 
L 656.310486 320.224061 
L 666.427793 316.232011 
L 676.337115 312.102654 
L 685.862821 308.170549 
L 695.550293 304.142451 
L 706.30542 300.203462 
L 716.847941 296.231259 
L 726.858945 292.229488 
L 736.606502 288.215971 
L 747.985584 284.334092 
L 759.170546 280.425075 
L 769.227769 276.421279 
L 779.104738 272.338501 
L 788.843051 268.38898 
L 798.64607 264.374653 
L 808.536905 260.364377 
L 817.93782 256.309952 
L 827.283272 252.234869 
L 837.345117 248.250515 
L 847.739737 244.281148 
L 857.598219 240.251834 
L 867.054597 236.216446 
L 876.645009 229.83994 
L 891.971181 228.637789 
L 902.601518 224.686243 
L 912.557059 220.678802 
L 922.092009 212.665135 
L 934.663537 212.83201 
L 944.743869 208.858592 
L 954.680923 204.849531 
L 964.289823 196.100721 
L 973.935698 196.790904 
L 985.971088 192.942238 
L 995.963604 188.952213 
L 1005.646454 179.366596 
L 1015.139807 180.197733 
L 1027.947051 177.091905 
L 1038.013518 173.120512 
L 1047.659393 162.78436 
L 1057.111148 163.48467 
L 1066.488954 159.925605 
L 1078.764682 156.111772 
L 1088.595432 152.096635 
L 1098.333745 146.778088 
L 1107.80861 144.016947 
L 1119.155339 140.129802 
L 1129.443656 136.152739 
L 1139.071043 132.108844 
L 1148.55053 128.07305 
L 1158.076236 123.976501 
L 1171.364157 120.291065 
L 1181.560036 116.30428 
L 1191.547931 112.317496 
L 1201.785407 108.332737 
L 1213.931722 104.457743 
L 1224.959541 100.557637 
L 1235.506683 96.627963 
L 1245.272727 92.605941 
" style="fill:none;stroke:#800080;stroke-dasharray:9.6,2.4,1.5,2.4;stroke-dashoffset:0;stroke-width:1.5;"/>
    <defs>
     <path d="M -3 3 
L 3 -3 
M -3 -3 
L 3 3 
" id="m9254db2882" style="stroke:#800080;"/>
    </defs>
    <g clip-path="url(#p7b9dac725c)">
     <use style="fill:#800080;stroke:#800080;" x="230.727273" xlink:href="#m9254db2882" y="482.694732"/>
     <use style="fill:#800080;stroke:#800080;" x="246.413952" xlink:href="#m9254db2882" y="482.723085"/>
     <use style="fill:#800080;stroke:#800080;" x="260.834235" xlink:href="#m9254db2882" y="480.748527"/>
     <use style="fill:#800080;stroke:#800080;" x="270.725069" xlink:href="#m9254db2882" y="476.713948"/>
     <use style="fill:#800080;stroke:#800080;" x="280.45876" xlink:href="#m9254db2882" y="472.697596"/>
     <use style="fill:#800080;stroke:#800080;" x="290.123123" xlink:href="#m9254db2882" y="468.684485"/>
     <use style="fill:#800080;stroke:#800080;" x="300.245052" xlink:href="#m9254db2882" y="464.697295"/>
     <use style="fill:#800080;stroke:#800080;" x="309.960255" xlink:href="#m9254db2882" y="460.64287"/>
     <use style="fill:#800080;stroke:#800080;" x="319.758652" xlink:href="#m9254db2882" y="456.620442"/>
     <use style="fill:#800080;stroke:#800080;" x="329.399905" xlink:href="#m9254db2882" y="452.585054"/>
     <use style="fill:#800080;stroke:#800080;" x="339.725197" xlink:href="#m9254db2882" y="448.591789"/>
     <use style="fill:#800080;stroke:#800080;" x="349.569813" xlink:href="#m9254db2882" y="444.606625"/>
     <use style="fill:#800080;stroke:#800080;" x="359.553086" xlink:href="#m9254db2882" y="440.606474"/>
     <use style="fill:#800080;stroke:#800080;" x="369.198961" xlink:href="#m9254db2882" y="436.56582"/>
     <use style="fill:#800080;stroke:#800080;" x="378.68307" xlink:href="#m9254db2882" y="432.513015"/>
     <use style="fill:#800080;stroke:#800080;" x="388.36592" xlink:href="#m9254db2882" y="428.484512"/>
     <use style="fill:#800080;stroke:#800080;" x="398.298352" xlink:href="#m9254db2882" y="424.481121"/>
     <use style="fill:#800080;stroke:#800080;" x="407.800948" xlink:href="#m9254db2882" y="420.442492"/>
     <use style="fill:#800080;stroke:#800080;" x="417.386739" xlink:href="#m9254db2882" y="416.396572"/>
     <use style="fill:#800080;stroke:#800080;" x="428.183463" xlink:href="#m9254db2882" y="412.472569"/>
     <use style="fill:#800080;stroke:#800080;" x="437.769254" xlink:href="#m9254db2882" y="408.421789"/>
     <use style="fill:#800080;stroke:#800080;" x="447.61387" xlink:href="#m9254db2882" y="404.406247"/>
     <use style="fill:#800080;stroke:#800080;" x="457.033272" xlink:href="#m9254db2882" y="400.348986"/>
     <use style="fill:#800080;stroke:#800080;" x="467.095117" xlink:href="#m9254db2882" y="396.299016"/>
     <use style="fill:#800080;stroke:#800080;" x="477.217046" xlink:href="#m9254db2882" y="392.352331"/>
     <use style="fill:#800080;stroke:#800080;" x="487.278891" xlink:href="#m9254db2882" y="388.361496"/>
     <use style="fill:#800080;stroke:#800080;" x="497.021825" xlink:href="#m9254db2882" y="384.324082"/>
     <use style="fill:#800080;stroke:#800080;" x="506.727785" xlink:href="#m9254db2882" y="380.307325"/>
     <use style="fill:#800080;stroke:#800080;" x="516.951395" xlink:href="#m9254db2882" y="376.288138"/>
     <use style="fill:#800080;stroke:#800080;" x="526.458614" xlink:href="#m9254db2882" y="372.278266"/>
     <use style="fill:#800080;stroke:#800080;" x="535.975076" xlink:href="#m9254db2882" y="368.240448"/>
     <use style="fill:#800080;stroke:#800080;" x="545.727254" xlink:href="#m9254db2882" y="364.194933"/>
     <use style="fill:#800080;stroke:#800080;" x="555.313045" xlink:href="#m9254db2882" y="360.159544"/>
     <use style="fill:#800080;stroke:#800080;" x="565.513546" xlink:href="#m9254db2882" y="356.191392"/>
     <use style="fill:#800080;stroke:#800080;" x="576.277917" xlink:href="#m9254db2882" y="352.243491"/>
     <use style="fill:#800080;stroke:#800080;" x="586.06707" xlink:href="#m9254db2882" y="348.217013"/>
     <use style="fill:#800080;stroke:#800080;" x="596.170512" xlink:href="#m9254db2882" y="344.227799"/>
     <use style="fill:#800080;stroke:#800080;" x="607.189087" xlink:href="#m9254db2882" y="340.30258"/>
     <use style="fill:#800080;stroke:#800080;" x="617.232444" xlink:href="#m9254db2882" y="336.297974"/>
     <use style="fill:#800080;stroke:#800080;" x="627.562358" xlink:href="#m9254db2882" y="332.331442"/>
     <use style="fill:#800080;stroke:#800080;" x="637.189745" xlink:href="#m9254db2882" y="328.305369"/>
     <use style="fill:#800080;stroke:#800080;" x="646.595282" xlink:href="#m9254db2882" y="324.250539"/>
     <use style="fill:#800080;stroke:#800080;" x="656.310486" xlink:href="#m9254db2882" y="320.224061"/>
     <use style="fill:#800080;stroke:#800080;" x="666.427793" xlink:href="#m9254db2882" y="316.232011"/>
     <use style="fill:#800080;stroke:#800080;" x="676.337115" xlink:href="#m9254db2882" y="312.102654"/>
     <use style="fill:#800080;stroke:#800080;" x="685.862821" xlink:href="#m9254db2882" y="308.170549"/>
     <use style="fill:#800080;stroke:#800080;" x="695.550293" xlink:href="#m9254db2882" y="304.142451"/>
     <use style="fill:#800080;stroke:#800080;" x="706.30542" xlink:href="#m9254db2882" y="300.203462"/>
     <use style="fill:#800080;stroke:#800080;" x="716.847941" xlink:href="#m9254db2882" y="296.231259"/>
     <use style="fill:#800080;stroke:#800080;" x="726.858945" xlink:href="#m9254db2882" y="292.229488"/>
     <use style="fill:#800080;stroke:#800080;" x="736.606502" xlink:href="#m9254db2882" y="288.215971"/>
     <use style="fill:#800080;stroke:#800080;" x="747.985584" xlink:href="#m9254db2882" y="284.334092"/>
     <use style="fill:#800080;stroke:#800080;" x="759.170546" xlink:href="#m9254db2882" y="280.425075"/>
     <use style="fill:#800080;stroke:#800080;" x="769.227769" xlink:href="#m9254db2882" y="276.421279"/>
     <use style="fill:#800080;stroke:#800080;" x="779.104738" xlink:href="#m9254db2882" y="272.338501"/>
     <use style="fill:#800080;stroke:#800080;" x="788.843051" xlink:href="#m9254db2882" y="268.38898"/>
     <use style="fill:#800080;stroke:#800080;" x="798.64607" xlink:href="#m9254db2882" y="264.374653"/>
     <use style="fill:#800080;stroke:#800080;" x="808.536905" xlink:href="#m9254db2882" y="260.364377"/>
     <use style="fill:#800080;stroke:#800080;" x="817.93782" xlink:href="#m9254db2882" y="256.309952"/>
     <use style="fill:#800080;stroke:#800080;" x="827.283272" xlink:href="#m9254db2882" y="252.234869"/>
     <use style="fill:#800080;stroke:#800080;" x="837.345117" xlink:href="#m9254db2882" y="248.250515"/>
     <use style="fill:#800080;stroke:#800080;" x="847.739737" xlink:href="#m9254db2882" y="244.281148"/>
     <use style="fill:#800080;stroke:#800080;" x="857.598219" xlink:href="#m9254db2882" y="240.251834"/>
     <use style="fill:#800080;stroke:#800080;" x="867.054597" xlink:href="#m9254db2882" y="236.216446"/>
     <use style="fill:#800080;stroke:#800080;" x="876.645009" xlink:href="#m9254db2882" y="229.83994"/>
     <use style="fill:#800080;stroke:#800080;" x="891.971181" xlink:href="#m9254db2882" y="228.637789"/>
     <use style="fill:#800080;stroke:#800080;" x="902.601518" xlink:href="#m9254db2882" y="224.686243"/>
     <use style="fill:#800080;stroke:#800080;" x="912.557059" xlink:href="#m9254db2882" y="220.678802"/>
     <use style="fill:#800080;stroke:#800080;" x="922.092009" xlink:href="#m9254db2882" y="212.665135"/>
     <use style="fill:#800080;stroke:#800080;" x="934.663537" xlink:href="#m9254db2882" y="212.83201"/>
     <use style="fill:#800080;stroke:#800080;" x="944.743869" xlink:href="#m9254db2882" y="208.858592"/>
     <use style="fill:#800080;stroke:#800080;" x="954.680923" xlink:href="#m9254db2882" y="204.849531"/>
     <use style="fill:#800080;stroke:#800080;" x="964.289823" xlink:href="#m9254db2882" y="196.100721"/>
     <use style="fill:#800080;stroke:#800080;" x="973.935698" xlink:href="#m9254db2882" y="196.790904"/>
     <use style="fill:#800080;stroke:#800080;" x="985.971088" xlink:href="#m9254db2882" y="192.942238"/>
     <use style="fill:#800080;stroke:#800080;" x="995.963604" xlink:href="#m9254db2882" y="188.952213"/>
     <use style="fill:#800080;stroke:#800080;" x="1005.646454" xlink:href="#m9254db2882" y="179.366596"/>
     <use style="fill:#800080;stroke:#800080;" x="1015.139807" xlink:href="#m9254db2882" y="180.197733"/>
     <use style="fill:#800080;stroke:#800080;" x="1027.947051" xlink:href="#m9254db2882" y="177.091905"/>
     <use style="fill:#800080;stroke:#800080;" x="1038.013518" xlink:href="#m9254db2882" y="173.120512"/>
     <use style="fill:#800080;stroke:#800080;" x="1047.659393" xlink:href="#m9254db2882" y="162.78436"/>
     <use style="fill:#800080;stroke:#800080;" x="1057.111148" xlink:href="#m9254db2882" y="163.48467"/>
     <use style="fill:#800080;stroke:#800080;" x="1066.488954" xlink:href="#m9254db2882" y="159.925605"/>
     <use style="fill:#800080;stroke:#800080;" x="1078.764682" xlink:href="#m9254db2882" y="156.111772"/>
     <use style="fill:#800080;stroke:#800080;" x="1088.595432" xlink:href="#m9254db2882" y="152.096635"/>
     <use style="fill:#800080;stroke:#800080;" x="1098.333745" xlink:href="#m9254db2882" y="146.778088"/>
     <use style="fill:#800080;stroke:#800080;" x="1107.80861" xlink:href="#m9254db2882" y="144.016947"/>
     <use style="fill:#800080;stroke:#800080;" x="1119.155339" xlink:href="#m9254db2882" y="140.129802"/>
     <use style="fill:#800080;stroke:#800080;" x="1129.443656" xlink:href="#m9254db2882" y="136.152739"/>
     <use style="fill:#800080;stroke:#800080;" x="1139.071043" xlink:href="#m9254db2882" y="132.108844"/>
     <use style="fill:#800080;stroke:#800080;" x="1148.55053" xlink:href="#m9254db2882" y="128.07305"/>
     <use style="fill:#800080;stroke:#800080;" x="1158.076236" xlink:href="#m9254db2882" y="123.976501"/>
     <use style="fill:#800080;stroke:#800080;" x="1171.364157" xlink:href="#m9254db2882" y="120.291065"/>
     <use style="fill:#800080;stroke:#800080;" x="1181.560036" xlink:href="#m9254db2882" y="116.30428"/>
     <use style="fill:#800080;stroke:#800080;" x="1191.547931" xlink:href="#m9254db2882" y="112.317496"/>
     <use style="fill:#800080;stroke:#800080;" x="1201.785407" xlink:href="#m9254db2882" y="108.332737"/>
     <use style="fill:#800080;stroke:#800080;" x="1213.931722" xlink:href="#m9254db2882" y="104.457743"/>
     <use style="fill:#800080;stroke:#800080;" x="1224.959541" xlink:href="#m9254db2882" y="100.557637"/>
     <use style="fill:#800080;stroke:#800080;" x="1235.506683" xlink:href="#m9254db2882" y="96.627963"/>
     <use style="fill:#800080;stroke:#800080;" x="1245.272727" xlink:href="#m9254db2882" y="92.605941"/>
    </g>
   </g>
   <g id="line2d_13">
    <path clip-path="url(#p7b9dac725c)" d="M 230.727273 489.470827 
L 246.413952 483.283164 
L 260.834235 477.595036 
L 270.725069 473.693563 
L 280.45876 469.854077 
L 290.123123 466.041937 
L 300.245052 462.049308 
L 309.960255 458.217114 
L 319.758652 454.352104 
L 329.399905 450.549079 
L 339.725197 446.476233 
L 349.569813 442.592992 
L 359.553086 438.655057 
L 369.198961 434.850209 
L 378.68307 431.109171 
L 388.36592 427.289739 
L 398.298352 423.371858 
L 407.800948 419.623527 
L 417.386739 415.84238 
L 428.183463 411.583577 
L 437.769254 407.80243 
L 447.61387 403.919188 
L 457.033272 400.203673 
L 467.095117 396.234745 
L 477.217046 392.242117 
L 487.278891 388.273189 
L 497.021825 384.430056 
L 506.727785 380.601508 
L 516.951395 376.568771 
L 526.458614 372.818617 
L 535.975076 369.064817 
L 545.727254 365.218037 
L 555.313045 361.436891 
L 565.513546 357.413269 
L 576.277917 353.167227 
L 586.06707 349.305863 
L 596.170512 345.320527 
L 607.189087 340.974213 
L 617.232444 337.012578 
L 627.562358 332.937909 
L 637.189745 329.140354 
L 646.595282 325.430308 
L 656.310486 321.598114 
L 666.427793 317.607309 
L 676.337115 313.698544 
L 685.862821 309.941097 
L 695.550293 306.119842 
L 706.30542 301.877446 
L 716.847941 297.718914 
L 726.858945 293.77004 
L 736.606502 289.925084 
L 747.985584 285.436567 
L 759.170546 281.024621 
L 769.227769 277.057516 
L 779.104738 273.161513 
L 788.843051 269.320203 
L 798.64607 265.45337 
L 808.536905 261.551897 
L 817.93782 257.843675 
L 827.283272 254.15733 
L 837.345117 250.188402 
L 847.739737 246.088209 
L 857.598219 242.199499 
L 867.054597 238.469399 
L 876.645009 234.686429 
L 891.971181 228.640969 
L 902.601518 224.447798 
L 912.557059 220.520801 
L 922.092009 216.759709 
L 934.663537 211.800828 
L 944.743869 207.824607 
L 954.680923 203.904903 
L 964.289823 200.114641 
L 973.935698 196.309793 
L 985.971088 191.562394 
L 995.963604 187.620813 
L 1005.646454 183.80138 
L 1015.139807 180.056696 
L 1027.947051 175.004835 
L 1038.013518 171.034084 
L 1047.659393 167.229237 
L 1057.111148 163.50096 
L 1066.488954 159.801854 
L 1078.764682 154.959652 
L 1088.595432 151.08188 
L 1098.333745 147.24057 
L 1107.80861 143.503178 
L 1119.155339 139.027423 
L 1129.443656 134.969162 
L 1139.071043 131.171607 
L 1148.55053 127.432392 
L 1158.076236 123.674946 
L 1171.364157 118.433481 
L 1181.560036 114.411683 
L 1191.547931 110.471925 
L 1201.785407 106.433718 
L 1213.931722 101.642564 
L 1224.959541 97.292604 
L 1235.506683 93.132249 
L 1245.272727 89.28 
" style="fill:none;stroke:#0000ff;stroke-linecap:square;stroke-width:1.5;"/>
   </g>
   <g id="line2d_14">
    <path clip-path="url(#p7b9dac725c)" d="M 230.727273 492.48 
L 246.413952 492.466416 
L 260.834235 492.453929 
L 270.725069 492.445364 
L 280.45876 492.436936 
L 290.123123 492.428567 
L 300.245052 492.419802 
L 309.960255 492.411389 
L 319.758652 492.402904 
L 329.399905 492.394556 
L 339.725197 492.385614 
L 349.569813 492.37709 
L 359.553086 492.368445 
L 369.198961 492.360092 
L 378.68307 492.351879 
L 388.36592 492.343495 
L 398.298352 492.334894 
L 407.800948 492.326665 
L 417.386739 492.318364 
L 428.183463 492.309015 
L 437.769254 492.300714 
L 447.61387 492.292189 
L 457.033272 492.284033 
L 467.095117 492.27532 
L 477.217046 492.266555 
L 487.278891 492.257842 
L 497.021825 492.249405 
L 506.727785 492.241 
L 516.951395 492.232147 
L 526.458614 492.223915 
L 535.975076 492.215674 
L 545.727254 492.207229 
L 555.313045 492.198929 
L 565.513546 492.190096 
L 576.277917 492.180774 
L 586.06707 492.172297 
L 596.170512 492.163549 
L 607.189087 492.154007 
L 617.232444 492.14531 
L 627.562358 492.136365 
L 637.189745 492.128028 
L 646.595282 492.119884 
L 656.310486 492.111471 
L 666.427793 492.10271 
L 676.337115 492.094129 
L 685.862821 492.08588 
L 695.550293 492.077492 
L 706.30542 492.068178 
L 716.847941 492.059049 
L 726.858945 492.05038 
L 736.606502 492.04194 
L 747.985584 492.032086 
L 759.170546 492.0224 
L 769.227769 492.013692 
L 779.104738 492.005139 
L 788.843051 491.996706 
L 798.64607 491.988217 
L 808.536905 491.979652 
L 817.93782 491.971512 
L 827.283272 491.963419 
L 837.345117 491.954706 
L 847.739737 491.945705 
L 857.598219 491.937168 
L 867.054597 491.928979 
L 876.645009 491.920675 
L 891.971181 491.907403 
L 902.601518 491.898198 
L 912.557059 491.889577 
L 922.092009 491.88132 
L 934.663537 491.870434 
L 944.743869 491.861705 
L 954.680923 491.8531 
L 964.289823 491.84478 
L 973.935698 491.836427 
L 985.971088 491.826005 
L 995.963604 491.817352 
L 1005.646454 491.808967 
L 1015.139807 491.800747 
L 1027.947051 491.789656 
L 1038.013518 491.780939 
L 1047.659393 491.772587 
L 1057.111148 491.764402 
L 1066.488954 491.756281 
L 1078.764682 491.745651 
L 1088.595432 491.737139 
L 1098.333745 491.728706 
L 1107.80861 491.720501 
L 1119.155339 491.710676 
L 1129.443656 491.701767 
L 1139.071043 491.69343 
L 1148.55053 491.685221 
L 1158.076236 491.676973 
L 1171.364157 491.665466 
L 1181.560036 491.656637 
L 1191.547931 491.647988 
L 1201.785407 491.639123 
L 1213.931722 491.628605 
L 1224.959541 491.619056 
L 1235.506683 491.609922 
L 1245.272727 491.601466 
" style="fill:none;stroke:#008000;stroke-linecap:square;stroke-width:1.5;"/>
    <defs>
     <path d="M 0 3 
C 0.795609 3 1.55874 2.683901 2.12132 2.12132 
C 2.683901 1.55874 3 0.795609 3 0 
C 3 -0.795609 2.683901 -1.55874 2.12132 -2.12132 
C 1.55874 -2.683901 0.795609 -3 0 -3 
C -0.795609 -3 -1.55874 -2.683901 -2.12132 -2.12132 
C -2.683901 -1.55874 -3 -0.795609 -3 0 
C -3 0.795609 -2.683901 1.55874 -2.12132 2.12132 
C -1.55874 2.683901 -0.795609 3 0 3 
z
" id="m46fae47741" style="stroke:#008000;"/>
    </defs>
    <g clip-path="url(#p7b9dac725c)">
     <use style="fill:#008000;stroke:#008000;" x="230.727273" xlink:href="#m46fae47741" y="492.48"/>
     <use style="fill:#008000;stroke:#008000;" x="246.413952" xlink:href="#m46fae47741" y="492.466416"/>
     <use style="fill:#008000;stroke:#008000;" x="260.834235" xlink:href="#m46fae47741" y="492.453929"/>
     <use style="fill:#008000;stroke:#008000;" x="270.725069" xlink:href="#m46fae47741" y="492.445364"/>
     <use style="fill:#008000;stroke:#008000;" x="280.45876" xlink:href="#m46fae47741" y="492.436936"/>
     <use style="fill:#008000;stroke:#008000;" x="290.123123" xlink:href="#m46fae47741" y="492.428567"/>
     <use style="fill:#008000;stroke:#008000;" x="300.245052" xlink:href="#m46fae47741" y="492.419802"/>
     <use style="fill:#008000;stroke:#008000;" x="309.960255" xlink:href="#m46fae47741" y="492.411389"/>
     <use style="fill:#008000;stroke:#008000;" x="319.758652" xlink:href="#m46fae47741" y="492.402904"/>
     <use style="fill:#008000;stroke:#008000;" x="329.399905" xlink:href="#m46fae47741" y="492.394556"/>
     <use style="fill:#008000;stroke:#008000;" x="339.725197" xlink:href="#m46fae47741" y="492.385614"/>
     <use style="fill:#008000;stroke:#008000;" x="349.569813" xlink:href="#m46fae47741" y="492.37709"/>
     <use style="fill:#008000;stroke:#008000;" x="359.553086" xlink:href="#m46fae47741" y="492.368445"/>
     <use style="fill:#008000;stroke:#008000;" x="369.198961" xlink:href="#m46fae47741" y="492.360092"/>
     <use style="fill:#008000;stroke:#008000;" x="378.68307" xlink:href="#m46fae47741" y="492.351879"/>
     <use style="fill:#008000;stroke:#008000;" x="388.36592" xlink:href="#m46fae47741" y="492.343495"/>
     <use style="fill:#008000;stroke:#008000;" x="398.298352" xlink:href="#m46fae47741" y="492.334894"/>
     <use style="fill:#008000;stroke:#008000;" x="407.800948" xlink:href="#m46fae47741" y="492.326665"/>
     <use style="fill:#008000;stroke:#008000;" x="417.386739" xlink:href="#m46fae47741" y="492.318364"/>
     <use style="fill:#008000;stroke:#008000;" x="428.183463" xlink:href="#m46fae47741" y="492.309015"/>
     <use style="fill:#008000;stroke:#008000;" x="437.769254" xlink:href="#m46fae47741" y="492.300714"/>
     <use style="fill:#008000;stroke:#008000;" x="447.61387" xlink:href="#m46fae47741" y="492.292189"/>
     <use style="fill:#008000;stroke:#008000;" x="457.033272" xlink:href="#m46fae47741" y="492.284033"/>
     <use style="fill:#008000;stroke:#008000;" x="467.095117" xlink:href="#m46fae47741" y="492.27532"/>
     <use style="fill:#008000;stroke:#008000;" x="477.217046" xlink:href="#m46fae47741" y="492.266555"/>
     <use style="fill:#008000;stroke:#008000;" x="487.278891" xlink:href="#m46fae47741" y="492.257842"/>
     <use style="fill:#008000;stroke:#008000;" x="497.021825" xlink:href="#m46fae47741" y="492.249405"/>
     <use style="fill:#008000;stroke:#008000;" x="506.727785" xlink:href="#m46fae47741" y="492.241"/>
     <use style="fill:#008000;stroke:#008000;" x="516.951395" xlink:href="#m46fae47741" y="492.232147"/>
     <use style="fill:#008000;stroke:#008000;" x="526.458614" xlink:href="#m46fae47741" y="492.223915"/>
     <use style="fill:#008000;stroke:#008000;" x="535.975076" xlink:href="#m46fae47741" y="492.215674"/>
     <use style="fill:#008000;stroke:#008000;" x="545.727254" xlink:href="#m46fae47741" y="492.207229"/>
     <use style="fill:#008000;stroke:#008000;" x="555.313045" xlink:href="#m46fae47741" y="492.198929"/>
     <use style="fill:#008000;stroke:#008000;" x="565.513546" xlink:href="#m46fae47741" y="492.190096"/>
     <use style="fill:#008000;stroke:#008000;" x="576.277917" xlink:href="#m46fae47741" y="492.180774"/>
     <use style="fill:#008000;stroke:#008000;" x="586.06707" xlink:href="#m46fae47741" y="492.172297"/>
     <use style="fill:#008000;stroke:#008000;" x="596.170512" xlink:href="#m46fae47741" y="492.163549"/>
     <use style="fill:#008000;stroke:#008000;" x="607.189087" xlink:href="#m46fae47741" y="492.154007"/>
     <use style="fill:#008000;stroke:#008000;" x="617.232444" xlink:href="#m46fae47741" y="492.14531"/>
     <use style="fill:#008000;stroke:#008000;" x="627.562358" xlink:href="#m46fae47741" y="492.136365"/>
     <use style="fill:#008000;stroke:#008000;" x="637.189745" xlink:href="#m46fae47741" y="492.128028"/>
     <use style="fill:#008000;stroke:#008000;" x="646.595282" xlink:href="#m46fae47741" y="492.119884"/>
     <use style="fill:#008000;stroke:#008000;" x="656.310486" xlink:href="#m46fae47741" y="492.111471"/>
     <use style="fill:#008000;stroke:#008000;" x="666.427793" xlink:href="#m46fae47741" y="492.10271"/>
     <use style="fill:#008000;stroke:#008000;" x="676.337115" xlink:href="#m46fae47741" y="492.094129"/>
     <use style="fill:#008000;stroke:#008000;" x="685.862821" xlink:href="#m46fae47741" y="492.08588"/>
     <use style="fill:#008000;stroke:#008000;" x="695.550293" xlink:href="#m46fae47741" y="492.077492"/>
     <use style="fill:#008000;stroke:#008000;" x="706.30542" xlink:href="#m46fae47741" y="492.068178"/>
     <use style="fill:#008000;stroke:#008000;" x="716.847941" xlink:href="#m46fae47741" y="492.059049"/>
     <use style="fill:#008000;stroke:#008000;" x="726.858945" xlink:href="#m46fae47741" y="492.05038"/>
     <use style="fill:#008000;stroke:#008000;" x="736.606502" xlink:href="#m46fae47741" y="492.04194"/>
     <use style="fill:#008000;stroke:#008000;" x="747.985584" xlink:href="#m46fae47741" y="492.032086"/>
     <use style="fill:#008000;stroke:#008000;" x="759.170546" xlink:href="#m46fae47741" y="492.0224"/>
     <use style="fill:#008000;stroke:#008000;" x="769.227769" xlink:href="#m46fae47741" y="492.013692"/>
     <use style="fill:#008000;stroke:#008000;" x="779.104738" xlink:href="#m46fae47741" y="492.005139"/>
     <use style="fill:#008000;stroke:#008000;" x="788.843051" xlink:href="#m46fae47741" y="491.996706"/>
     <use style="fill:#008000;stroke:#008000;" x="798.64607" xlink:href="#m46fae47741" y="491.988217"/>
     <use style="fill:#008000;stroke:#008000;" x="808.536905" xlink:href="#m46fae47741" y="491.979652"/>
     <use style="fill:#008000;stroke:#008000;" x="817.93782" xlink:href="#m46fae47741" y="491.971512"/>
     <use style="fill:#008000;stroke:#008000;" x="827.283272" xlink:href="#m46fae47741" y="491.963419"/>
     <use style="fill:#008000;stroke:#008000;" x="837.345117" xlink:href="#m46fae47741" y="491.954706"/>
     <use style="fill:#008000;stroke:#008000;" x="847.739737" xlink:href="#m46fae47741" y="491.945705"/>
     <use style="fill:#008000;stroke:#008000;" x="857.598219" xlink:href="#m46fae47741" y="491.937168"/>
     <use style="fill:#008000;stroke:#008000;" x="867.054597" xlink:href="#m46fae47741" y="491.928979"/>
     <use style="fill:#008000;stroke:#008000;" x="876.645009" xlink:href="#m46fae47741" y="491.920675"/>
     <use style="fill:#008000;stroke:#008000;" x="891.971181" xlink:href="#m46fae47741" y="491.907403"/>
     <use style="fill:#008000;stroke:#008000;" x="902.601518" xlink:href="#m46fae47741" y="491.898198"/>
     <use style="fill:#008000;stroke:#008000;" x="912.557059" xlink:href="#m46fae47741" y="491.889577"/>
     <use style="fill:#008000;stroke:#008000;" x="922.092009" xlink:href="#m46fae47741" y="491.88132"/>
     <use style="fill:#008000;stroke:#008000;" x="934.663537" xlink:href="#m46fae47741" y="491.870434"/>
     <use style="fill:#008000;stroke:#008000;" x="944.743869" xlink:href="#m46fae47741" y="491.861705"/>
     <use style="fill:#008000;stroke:#008000;" x="954.680923" xlink:href="#m46fae47741" y="491.8531"/>
     <use style="fill:#008000;stroke:#008000;" x="964.289823" xlink:href="#m46fae47741" y="491.84478"/>
     <use style="fill:#008000;stroke:#008000;" x="973.935698" xlink:href="#m46fae47741" y="491.836427"/>
     <use style="fill:#008000;stroke:#008000;" x="985.971088" xlink:href="#m46fae47741" y="491.826005"/>
     <use style="fill:#008000;stroke:#008000;" x="995.963604" xlink:href="#m46fae47741" y="491.817352"/>
     <use style="fill:#008000;stroke:#008000;" x="1005.646454" xlink:href="#m46fae47741" y="491.808967"/>
     <use style="fill:#008000;stroke:#008000;" x="1015.139807" xlink:href="#m46fae47741" y="491.800747"/>
     <use style="fill:#008000;stroke:#008000;" x="1027.947051" xlink:href="#m46fae47741" y="491.789656"/>
     <use style="fill:#008000;stroke:#008000;" x="1038.013518" xlink:href="#m46fae47741" y="491.780939"/>
     <use style="fill:#008000;stroke:#008000;" x="1047.659393" xlink:href="#m46fae47741" y="491.772587"/>
     <use style="fill:#008000;stroke:#008000;" x="1057.111148" xlink:href="#m46fae47741" y="491.764402"/>
     <use style="fill:#008000;stroke:#008000;" x="1066.488954" xlink:href="#m46fae47741" y="491.756281"/>
     <use style="fill:#008000;stroke:#008000;" x="1078.764682" xlink:href="#m46fae47741" y="491.745651"/>
     <use style="fill:#008000;stroke:#008000;" x="1088.595432" xlink:href="#m46fae47741" y="491.737139"/>
     <use style="fill:#008000;stroke:#008000;" x="1098.333745" xlink:href="#m46fae47741" y="491.728706"/>
     <use style="fill:#008000;stroke:#008000;" x="1107.80861" xlink:href="#m46fae47741" y="491.720501"/>
     <use style="fill:#008000;stroke:#008000;" x="1119.155339" xlink:href="#m46fae47741" y="491.710676"/>
     <use style="fill:#008000;stroke:#008000;" x="1129.443656" xlink:href="#m46fae47741" y="491.701767"/>
     <use style="fill:#008000;stroke:#008000;" x="1139.071043" xlink:href="#m46fae47741" y="491.69343"/>
     <use style="fill:#008000;stroke:#008000;" x="1148.55053" xlink:href="#m46fae47741" y="491.685221"/>
     <use style="fill:#008000;stroke:#008000;" x="1158.076236" xlink:href="#m46fae47741" y="491.676973"/>
     <use style="fill:#008000;stroke:#008000;" x="1171.364157" xlink:href="#m46fae47741" y="491.665466"/>
     <use style="fill:#008000;stroke:#008000;" x="1181.560036" xlink:href="#m46fae47741" y="491.656637"/>
     <use style="fill:#008000;stroke:#008000;" x="1191.547931" xlink:href="#m46fae47741" y="491.647988"/>
     <use style="fill:#008000;stroke:#008000;" x="1201.785407" xlink:href="#m46fae47741" y="491.639123"/>
     <use style="fill:#008000;stroke:#008000;" x="1213.931722" xlink:href="#m46fae47741" y="491.628605"/>
     <use style="fill:#008000;stroke:#008000;" x="1224.959541" xlink:href="#m46fae47741" y="491.619056"/>
     <use style="fill:#008000;stroke:#008000;" x="1235.506683" xlink:href="#m46fae47741" y="491.609922"/>
     <use style="fill:#008000;stroke:#008000;" x="1245.272727" xlink:href="#m46fae47741" y="491.601466"/>
    </g>
   </g>
   <g id="patch_3">
    <path d="M 180 512.64 
L 180 69.12 
" style="fill:none;stroke:#000000;stroke-linecap:square;stroke-linejoin:miter;stroke-width:0.8;"/>
   </g>
   <g id="patch_4">
    <path d="M 1296 512.64 
L 1296 69.12 
" style="fill:none;stroke:#000000;stroke-linecap:square;stroke-linejoin:miter;stroke-width:0.8;"/>
   </g>
   <g id="patch_5">
    <path d="M 180 512.64 
L 1296 512.64 
" style="fill:none;stroke:#000000;stroke-linecap:square;stroke-linejoin:miter;stroke-width:0.8;"/>
   </g>
   <g id="patch_6">
    <path d="M 180 69.12 
L 1296 69.12 
" style="fill:none;stroke:#000000;stroke-linecap:square;stroke-linejoin:miter;stroke-width:0.8;"/>
   </g>
   <g id="text_11">
    <!-- 5000000.0 bit/s -->
    <defs>
     <path id="DejaVuSans-20"/>
     <path d="M 48.6875 27.296875 
Q 48.6875 37.203125 44.609375 42.84375 
Q 40.53125 48.484375 33.40625 48.484375 
Q 26.265625 48.484375 22.1875 42.84375 
Q 18.109375 37.203125 18.109375 27.296875 
Q 18.109375 17.390625 22.1875 11.75 
Q 26.265625 6.109375 33.40625 6.109375 
Q 40.53125 6.109375 44.609375 11.75 
Q 48.6875 17.390625 48.6875 27.296875 
z
M 18.109375 46.390625 
Q 20.953125 51.265625 25.265625 53.625 
Q 29.59375 56 35.59375 56 
Q 45.5625 56 51.78125 48.09375 
Q 58.015625 40.1875 58.015625 27.296875 
Q 58.015625 14.40625 51.78125 6.484375 
Q 45.5625 -1.421875 35.59375 -1.421875 
Q 29.59375 -1.421875 25.265625 0.953125 
Q 20.953125 3.328125 18.109375 8.203125 
L 18.109375 0 
L 9.078125 0 
L 9.078125 75.984375 
L 18.109375 75.984375 
z
" id="DejaVuSans-62"/>
     <path d="M 9.421875 54.6875 
L 18.40625 54.6875 
L 18.40625 0 
L 9.421875 0 
z
M 9.421875 75.984375 
L 18.40625 75.984375 
L 18.40625 64.59375 
L 9.421875 64.59375 
z
" id="DejaVuSans-69"/>
     <path d="M 18.3125 70.21875 
L 18.3125 54.6875 
L 36.8125 54.6875 
L 36.8125 47.703125 
L 18.3125 47.703125 
L 18.3125 18.015625 
Q 18.3125 11.328125 20.140625 9.421875 
Q 21.96875 7.515625 27.59375 7.515625 
L 36.8125 7.515625 
L 36.8125 0 
L 27.59375 0 
Q 17.1875 0 13.234375 3.875 
Q 9.28125 7.765625 9.28125 18.015625 
L 9.28125 47.703125 
L 2.6875 47.703125 
L 2.6875 54.6875 
L 9.28125 54.6875 
L 9.28125 70.21875 
z
" id="DejaVuSans-74"/>
     <path d="M 25.390625 72.90625 
L 33.6875 72.90625 
L 8.296875 -9.28125 
L 0 -9.28125 
z
" id="DejaVuSans-2f"/>
     <path d="M 44.28125 53.078125 
L 44.28125 44.578125 
Q 40.484375 46.53125 36.375 47.5 
Q 32.28125 48.484375 27.875 48.484375 
Q 21.1875 48.484375 17.84375 46.4375 
Q 14.5 44.390625 14.5 40.28125 
Q 14.5 37.15625 16.890625 35.375 
Q 19.28125 33.59375 26.515625 31.984375 
L 29.59375 31.296875 
Q 39.15625 29.25 43.1875 25.515625 
Q 47.21875 21.78125 47.21875 15.09375 
Q 47.21875 7.46875 41.1875 3.015625 
Q 35.15625 -1.421875 24.609375 -1.421875 
Q 20.21875 -1.421875 15.453125 -0.5625 
Q 10.6875 0.296875 5.421875 2 
L 5.421875 11.28125 
Q 10.40625 8.6875 15.234375 7.390625 
Q 20.0625 6.109375 24.8125 6.109375 
Q 31.15625 6.109375 34.5625 8.28125 
Q 37.984375 10.453125 37.984375 14.40625 
Q 37.984375 18.0625 35.515625 20.015625 
Q 33.0625 21.96875 24.703125 23.78125 
L 21.578125 24.515625 
Q 13.234375 26.265625 9.515625 29.90625 
Q 5.8125 33.546875 5.8125 39.890625 
Q 5.8125 47.609375 11.28125 51.796875 
Q 16.75 56 26.8125 56 
Q 31.78125 56 36.171875 55.265625 
Q 40.578125 54.546875 44.28125 53.078125 
z
" id="DejaVuSans-73"/>
    </defs>
    <g transform="translate(690.67125 63.12)scale(0.12 -0.12)">
     <use xlink:href="#DejaVuSans-35"/>
     <use x="63.623047" xlink:href="#DejaVuSans-30"/>
     <use x="127.246094" xlink:href="#DejaVuSans-30"/>
     <use x="190.869141" xlink:href="#DejaVuSans-30"/>
     <use x="254.492188" xlink:href="#DejaVuSans-30"/>
     <use x="318.115234" xlink:href="#DejaVuSans-30"/>
     <use x="381.738281" xlink:href="#DejaVuSans-30"/>
     <use x="445.361328" xlink:href="#DejaVuSans-2e"/>
     <use x="477.148438" xlink:href="#DejaVuSans-30"/>
     <use x="540.771484" xlink:href="#DejaVuSans-20"/>
     <use x="572.558594" xlink:href="#DejaVuSans-62"/>
     <use x="636.035156" xlink:href="#DejaVuSans-69"/>
     <use x="663.818359" xlink:href="#DejaVuSans-74"/>
     <use x="703.027344" xlink:href="#DejaVuSans-2f"/>
     <use x="736.71875" xlink:href="#DejaVuSans-73"/>
    </g>
   </g>
   <g id="legend_1">
    <g id="patch_7">
     <path d="M 1173.520313 135.8325 
L 1289 135.8325 
Q 1291 135.8325 1291 133.8325 
L 1291 76.12 
Q 1291 74.12 1289 74.12 
L 1173.520313 74.12 
Q 1171.520313 74.12 1171.520313 76.12 
L 1171.520313 133.8325 
Q 1171.520313 135.8325 1173.520313 135.8325 
z
" style="fill:#ffffff;opacity:0.8;stroke:#cccccc;stroke-linejoin:miter;"/>
    </g>
    <g id="line2d_15">
     <path d="M 1175.520313 82.218437 
L 1195.520313 82.218437 
" style="fill:none;stroke:#ff0000;stroke-dasharray:5.55,2.4;stroke-dashoffset:0;stroke-width:1.5;"/>
    </g>
    <g id="line2d_16">
     <g>
      <use style="fill:#ff0000;stroke:#ff0000;stroke-linejoin:miter;" x="1185.520313" xlink:href="#m6276cae809" y="82.218437"/>
     </g>
    </g>
    <g id="text_12">
     <!-- tcpdump -->
     <defs>
      <path d="M 48.78125 52.59375 
L 48.78125 44.1875 
Q 44.96875 46.296875 41.140625 47.34375 
Q 37.3125 48.390625 33.40625 48.390625 
Q 24.65625 48.390625 19.8125 42.84375 
Q 14.984375 37.3125 14.984375 27.296875 
Q 14.984375 17.28125 19.8125 11.734375 
Q 24.65625 6.203125 33.40625 6.203125 
Q 37.3125 6.203125 41.140625 7.25 
Q 44.96875 8.296875 48.78125 10.40625 
L 48.78125 2.09375 
Q 45.015625 0.34375 40.984375 -0.53125 
Q 36.96875 -1.421875 32.421875 -1.421875 
Q 20.0625 -1.421875 12.78125 6.34375 
Q 5.515625 14.109375 5.515625 27.296875 
Q 5.515625 40.671875 12.859375 48.328125 
Q 20.21875 56 33.015625 56 
Q 37.15625 56 41.109375 55.140625 
Q 45.0625 54.296875 48.78125 52.59375 
z
" id="DejaVuSans-63"/>
      <path d="M 18.109375 8.203125 
L 18.109375 -20.796875 
L 9.078125 -20.796875 
L 9.078125 54.6875 
L 18.109375 54.6875 
L 18.109375 46.390625 
Q 20.953125 51.265625 25.265625 53.625 
Q 29.59375 56 35.59375 56 
Q 45.5625 56 51.78125 48.09375 
Q 58.015625 40.1875 58.015625 27.296875 
Q 58.015625 14.40625 51.78125 6.484375 
Q 45.5625 -1.421875 35.59375 -1.421875 
Q 29.59375 -1.421875 25.265625 0.953125 
Q 20.953125 3.328125 18.109375 8.203125 
z
M 48.6875 27.296875 
Q 48.6875 37.203125 44.609375 42.84375 
Q 40.53125 48.484375 33.40625 48.484375 
Q 26.265625 48.484375 22.1875 42.84375 
Q 18.109375 37.203125 18.109375 27.296875 
Q 18.109375 17.390625 22.1875 11.75 
Q 26.265625 6.109375 33.40625 6.109375 
Q 40.53125 6.109375 44.609375 11.75 
Q 48.6875 17.390625 48.6875 27.296875 
z
" id="DejaVuSans-70"/>
      <path d="M 45.40625 46.390625 
L 45.40625 75.984375 
L 54.390625 75.984375 
L 54.390625 0 
L 45.40625 0 
L 45.40625 8.203125 
Q 42.578125 3.328125 38.25 0.953125 
Q 33.9375 -1.421875 27.875 -1.421875 
Q 17.96875 -1.421875 11.734375 6.484375 
Q 5.515625 14.40625 5.515625 27.296875 
Q 5.515625 40.1875 11.734375 48.09375 
Q 17.96875 56 27.875 56 
Q 33.9375 56 38.25 53.625 
Q 42.578125 51.265625 45.40625 46.390625 
z
M 14.796875 27.296875 
Q 14.796875 17.390625 18.875 11.75 
Q 22.953125 6.109375 30.078125 6.109375 
Q 37.203125 6.109375 41.296875 11.75 
Q 45.40625 17.390625 45.40625 27.296875 
Q 45.40625 37.203125 41.296875 42.84375 
Q 37.203125 48.484375 30.078125 48.484375 
Q 22.953125 48.484375 18.875 42.84375 
Q 14.796875 37.203125 14.796875 27.296875 
z
" id="DejaVuSans-64"/>
      <path d="M 8.5 21.578125 
L 8.5 54.6875 
L 17.484375 54.6875 
L 17.484375 21.921875 
Q 17.484375 14.15625 20.5 10.265625 
Q 23.53125 6.390625 29.59375 6.390625 
Q 36.859375 6.390625 41.078125 11.03125 
Q 45.3125 15.671875 45.3125 23.6875 
L 45.3125 54.6875 
L 54.296875 54.6875 
L 54.296875 0 
L 45.3125 0 
L 45.3125 8.40625 
Q 42.046875 3.421875 37.71875 1 
Q 33.40625 -1.421875 27.6875 -1.421875 
Q 18.265625 -1.421875 13.375 4.4375 
Q 8.5 10.296875 8.5 21.578125 
z
M 31.109375 56 
z
" id="DejaVuSans-75"/>
      <path d="M 52 44.1875 
Q 55.375 50.25 60.0625 53.125 
Q 64.75 56 71.09375 56 
Q 79.640625 56 84.28125 50.015625 
Q 88.921875 44.046875 88.921875 33.015625 
L 88.921875 0 
L 79.890625 0 
L 79.890625 32.71875 
Q 79.890625 40.578125 77.09375 44.375 
Q 74.3125 48.1875 68.609375 48.1875 
Q 61.625 48.1875 57.5625 43.546875 
Q 53.515625 38.921875 53.515625 30.90625 
L 53.515625 0 
L 44.484375 0 
L 44.484375 32.71875 
Q 44.484375 40.625 41.703125 44.40625 
Q 38.921875 48.1875 33.109375 48.1875 
Q 26.21875 48.1875 22.15625 43.53125 
Q 18.109375 38.875 18.109375 30.90625 
L 18.109375 0 
L 9.078125 0 
L 9.078125 54.6875 
L 18.109375 54.6875 
L 18.109375 46.1875 
Q 21.1875 51.21875 25.484375 53.609375 
Q 29.78125 56 35.6875 56 
Q 41.65625 56 45.828125 52.96875 
Q 50 49.953125 52 44.1875 
z
" id="DejaVuSans-6d"/>
     </defs>
     <g transform="translate(1203.520313 85.718437)scale(0.1 -0.1)">
      <use xlink:href="#DejaVuSans-74"/>
      <use x="39.208984" xlink:href="#DejaVuSans-63"/>
      <use x="94.189453" xlink:href="#DejaVuSans-70"/>
      <use x="157.666016" xlink:href="#DejaVuSans-64"/>
      <use x="221.142578" xlink:href="#DejaVuSans-75"/>
      <use x="284.521484" xlink:href="#DejaVuSans-6d"/>
      <use x="381.933594" xlink:href="#DejaVuSans-70"/>
     </g>
    </g>
    <g id="line2d_17">
     <path d="M 1175.520313 96.896563 
L 1195.520313 96.896563 
" style="fill:none;stroke:#800080;stroke-dasharray:9.6,2.4,1.5,2.4;stroke-dashoffset:0;stroke-width:1.5;"/>
    </g>
    <g id="line2d_18">
     <g>
      <use style="fill:#800080;stroke:#800080;" x="1185.520313" xlink:href="#m9254db2882" y="96.896563"/>
     </g>
    </g>
    <g id="text_13">
     <!-- filtered tcpdump -->
     <defs>
      <path d="M 37.109375 75.984375 
L 37.109375 68.5 
L 28.515625 68.5 
Q 23.6875 68.5 21.796875 66.546875 
Q 19.921875 64.59375 19.921875 59.515625 
L 19.921875 54.6875 
L 34.71875 54.6875 
L 34.71875 47.703125 
L 19.921875 47.703125 
L 19.921875 0 
L 10.890625 0 
L 10.890625 47.703125 
L 2.296875 47.703125 
L 2.296875 54.6875 
L 10.890625 54.6875 
L 10.890625 58.5 
Q 10.890625 67.625 15.140625 71.796875 
Q 19.390625 75.984375 28.609375 75.984375 
z
" id="DejaVuSans-66"/>
      <path d="M 9.421875 75.984375 
L 18.40625 75.984375 
L 18.40625 0 
L 9.421875 0 
z
" id="DejaVuSans-6c"/>
      <path d="M 56.203125 29.59375 
L 56.203125 25.203125 
L 14.890625 25.203125 
Q 15.484375 15.921875 20.484375 11.0625 
Q 25.484375 6.203125 34.421875 6.203125 
Q 39.59375 6.203125 44.453125 7.46875 
Q 49.3125 8.734375 54.109375 11.28125 
L 54.109375 2.78125 
Q 49.265625 0.734375 44.1875 -0.34375 
Q 39.109375 -1.421875 33.890625 -1.421875 
Q 20.796875 -1.421875 13.15625 6.1875 
Q 5.515625 13.8125 5.515625 26.8125 
Q 5.515625 40.234375 12.765625 48.109375 
Q 20.015625 56 32.328125 56 
Q 43.359375 56 49.78125 48.890625 
Q 56.203125 41.796875 56.203125 29.59375 
z
M 47.21875 32.234375 
Q 47.125 39.59375 43.09375 43.984375 
Q 39.0625 48.390625 32.421875 48.390625 
Q 24.90625 48.390625 20.390625 44.140625 
Q 15.875 39.890625 15.1875 32.171875 
z
" id="DejaVuSans-65"/>
      <path d="M 41.109375 46.296875 
Q 39.59375 47.171875 37.8125 47.578125 
Q 36.03125 48 33.890625 48 
Q 26.265625 48 22.1875 43.046875 
Q 18.109375 38.09375 18.109375 28.8125 
L 18.109375 0 
L 9.078125 0 
L 9.078125 54.6875 
L 18.109375 54.6875 
L 18.109375 46.1875 
Q 20.953125 51.171875 25.484375 53.578125 
Q 30.03125 56 36.53125 56 
Q 37.453125 56 38.578125 55.875 
Q 39.703125 55.765625 41.0625 55.515625 
z
" id="DejaVuSans-72"/>
     </defs>
     <g transform="translate(1203.520313 100.396563)scale(0.1 -0.1)">
      <use xlink:href="#DejaVuSans-66"/>
      <use x="35.205078" xlink:href="#DejaVuSans-69"/>
      <use x="62.988281" xlink:href="#DejaVuSans-6c"/>
      <use x="90.771484" xlink:href="#DejaVuSans-74"/>
      <use x="129.980469" xlink:href="#DejaVuSans-65"/>
      <use x="191.503906" xlink:href="#DejaVuSans-72"/>
      <use x="232.585938" xlink:href="#DejaVuSans-65"/>
      <use x="294.109375" xlink:href="#DejaVuSans-64"/>
      <use x="357.585938" xlink:href="#DejaVuSans-20"/>
      <use x="389.373047" xlink:href="#DejaVuSans-74"/>
      <use x="428.582031" xlink:href="#DejaVuSans-63"/>
      <use x="483.5625" xlink:href="#DejaVuSans-70"/>
      <use x="547.039062" xlink:href="#DejaVuSans-64"/>
      <use x="610.515625" xlink:href="#DejaVuSans-75"/>
      <use x="673.894531" xlink:href="#DejaVuSans-6d"/>
      <use x="771.306641" xlink:href="#DejaVuSans-70"/>
     </g>
    </g>
    <g id="line2d_19">
     <path d="M 1175.520313 111.574687 
L 1195.520313 111.574687 
" style="fill:none;stroke:#0000ff;stroke-linecap:square;stroke-width:1.5;"/>
    </g>
    <g id="line2d_20"/>
    <g id="text_14">
     <!-- OLS -->
     <defs>
      <path d="M 39.40625 66.21875 
Q 28.65625 66.21875 22.328125 58.203125 
Q 16.015625 50.203125 16.015625 36.375 
Q 16.015625 22.609375 22.328125 14.59375 
Q 28.65625 6.59375 39.40625 6.59375 
Q 50.140625 6.59375 56.421875 14.59375 
Q 62.703125 22.609375 62.703125 36.375 
Q 62.703125 50.203125 56.421875 58.203125 
Q 50.140625 66.21875 39.40625 66.21875 
z
M 39.40625 74.21875 
Q 54.734375 74.21875 63.90625 63.9375 
Q 73.09375 53.65625 73.09375 36.375 
Q 73.09375 19.140625 63.90625 8.859375 
Q 54.734375 -1.421875 39.40625 -1.421875 
Q 24.03125 -1.421875 14.8125 8.828125 
Q 5.609375 19.09375 5.609375 36.375 
Q 5.609375 53.65625 14.8125 63.9375 
Q 24.03125 74.21875 39.40625 74.21875 
z
" id="DejaVuSans-4f"/>
      <path d="M 9.8125 72.90625 
L 19.671875 72.90625 
L 19.671875 8.296875 
L 55.171875 8.296875 
L 55.171875 0 
L 9.8125 0 
z
" id="DejaVuSans-4c"/>
      <path d="M 53.515625 70.515625 
L 53.515625 60.890625 
Q 47.90625 63.578125 42.921875 64.890625 
Q 37.9375 66.21875 33.296875 66.21875 
Q 25.25 66.21875 20.875 63.09375 
Q 16.5 59.96875 16.5 54.203125 
Q 16.5 49.359375 19.40625 46.890625 
Q 22.3125 44.4375 30.421875 42.921875 
L 36.375 41.703125 
Q 47.40625 39.59375 52.65625 34.296875 
Q 57.90625 29 57.90625 20.125 
Q 57.90625 9.515625 50.796875 4.046875 
Q 43.703125 -1.421875 29.984375 -1.421875 
Q 24.8125 -1.421875 18.96875 -0.25 
Q 13.140625 0.921875 6.890625 3.21875 
L 6.890625 13.375 
Q 12.890625 10.015625 18.65625 8.296875 
Q 24.421875 6.59375 29.984375 6.59375 
Q 38.421875 6.59375 43.015625 9.90625 
Q 47.609375 13.234375 47.609375 19.390625 
Q 47.609375 24.75 44.3125 27.78125 
Q 41.015625 30.8125 33.5 32.328125 
L 27.484375 33.5 
Q 16.453125 35.6875 11.515625 40.375 
Q 6.59375 45.0625 6.59375 53.421875 
Q 6.59375 63.09375 13.40625 68.65625 
Q 20.21875 74.21875 32.171875 74.21875 
Q 37.3125 74.21875 42.625 73.28125 
Q 47.953125 72.359375 53.515625 70.515625 
z
" id="DejaVuSans-53"/>
     </defs>
     <g transform="translate(1203.520313 115.074687)scale(0.1 -0.1)">
      <use xlink:href="#DejaVuSans-4f"/>
      <use x="78.710938" xlink:href="#DejaVuSans-4c"/>
      <use x="134.423828" xlink:href="#DejaVuSans-53"/>
     </g>
    </g>
    <g id="line2d_21">
     <path d="M 1175.520313 126.252813 
L 1195.520313 126.252813 
" style="fill:none;stroke:#008000;stroke-linecap:square;stroke-width:1.5;"/>
    </g>
    <g id="line2d_22">
     <g>
      <use style="fill:#008000;stroke:#008000;" x="1185.520313" xlink:href="#m46fae47741" y="126.252813"/>
     </g>
    </g>
    <g id="text_15">
     <!-- IRLS -->
     <defs>
      <path d="M 9.8125 72.90625 
L 19.671875 72.90625 
L 19.671875 0 
L 9.8125 0 
z
" id="DejaVuSans-49"/>
      <path d="M 44.390625 34.1875 
Q 47.5625 33.109375 50.5625 29.59375 
Q 53.5625 26.078125 56.59375 19.921875 
L 66.609375 0 
L 56 0 
L 46.6875 18.703125 
Q 43.0625 26.03125 39.671875 28.421875 
Q 36.28125 30.8125 30.421875 30.8125 
L 19.671875 30.8125 
L 19.671875 0 
L 9.8125 0 
L 9.8125 72.90625 
L 32.078125 72.90625 
Q 44.578125 72.90625 50.734375 67.671875 
Q 56.890625 62.453125 56.890625 51.90625 
Q 56.890625 45.015625 53.6875 40.46875 
Q 50.484375 35.9375 44.390625 34.1875 
z
M 19.671875 64.796875 
L 19.671875 38.921875 
L 32.078125 38.921875 
Q 39.203125 38.921875 42.84375 42.21875 
Q 46.484375 45.515625 46.484375 51.90625 
Q 46.484375 58.296875 42.84375 61.546875 
Q 39.203125 64.796875 32.078125 64.796875 
z
" id="DejaVuSans-52"/>
     </defs>
     <g transform="translate(1203.520313 129.752813)scale(0.1 -0.1)">
      <use xlink:href="#DejaVuSans-49"/>
      <use x="29.492188" xlink:href="#DejaVuSans-52"/>
      <use x="98.974609" xlink:href="#DejaVuSans-4c"/>
      <use x="154.6875" xlink:href="#DejaVuSans-53"/>
     </g>
    </g>
   </g>
  </g>
 </g>
 <defs>
  <clipPath id="p7b9dac725c">
   <rect height="443.52" width="1116" x="180" y="69.12"/>
  </clipPath>
 </defs>
</svg>
