<?xml version="1.0" encoding="utf-8" standalone="no"?>
<!DOCTYPE svg PUBLIC "-//W3C//DTD SVG 1.1//EN"
  "http://www.w3.org/Graphics/SVG/1.1/DTD/svg11.dtd">
<!-- Created with matplotlib (http://matplotlib.org/) -->
<svg height="576pt" version="1.1" viewBox="0 0 1440 576" width="1440pt" xmlns="http://www.w3.org/2000/svg" xmlns:xlink="http://www.w3.org/1999/xlink">
 <defs>
  <style type="text/css">
*{stroke-linecap:butt;stroke-linejoin:round;}
  </style>
 </defs>
 <g id="figure_1">
  <g id="patch_1">
   <path d="M 0 576 
L 1440 576 
L 1440 0 
L 0 0 
z
" style="fill:#ffffff;"/>
  </g>
  <g id="axes_1">
   <g id="patch_2">
    <path d="M 180 512.64 
L 1296 512.64 
L 1296 69.12 
L 180 69.12 
z
" style="fill:#ffffff;"/>
   </g>
   <g id="matplotlib.axis_1">
    <g id="xtick_1">
     <g id="line2d_1">
      <defs>
       <path d="M 0 0 
L 0 3.5 
" id="m21315c1170" style="stroke:#000000;stroke-width:0.8;"/>
      </defs>
      <g>
       <use style="stroke:#000000;stroke-width:0.8;" x="230.727273" xlink:href="#m21315c1170" y="512.64"/>
      </g>
     </g>
     <g id="text_1">
      <!-- 0.00 -->
      <defs>
       <path d="M 31.78125 66.40625 
Q 24.171875 66.40625 20.328125 58.90625 
Q 16.5 51.421875 16.5 36.375 
Q 16.5 21.390625 20.328125 13.890625 
Q 24.171875 6.390625 31.78125 6.390625 
Q 39.453125 6.390625 43.28125 13.890625 
Q 47.125 21.390625 47.125 36.375 
Q 47.125 51.421875 43.28125 58.90625 
Q 39.453125 66.40625 31.78125 66.40625 
z
M 31.78125 74.21875 
Q 44.046875 74.21875 50.515625 64.515625 
Q 56.984375 54.828125 56.984375 36.375 
Q 56.984375 17.96875 50.515625 8.265625 
Q 44.046875 -1.421875 31.78125 -1.421875 
Q 19.53125 -1.421875 13.0625 8.265625 
Q 6.59375 17.96875 6.59375 36.375 
Q 6.59375 54.828125 13.0625 64.515625 
Q 19.53125 74.21875 31.78125 74.21875 
z
" id="DejaVuSans-30"/>
       <path d="M 10.6875 12.40625 
L 21 12.40625 
L 21 0 
L 10.6875 0 
z
" id="DejaVuSans-2e"/>
      </defs>
      <g transform="translate(219.59446 527.238438)scale(0.1 -0.1)">
       <use xlink:href="#DejaVuSans-30"/>
       <use x="63.623047" xlink:href="#DejaVuSans-2e"/>
       <use x="95.410156" xlink:href="#DejaVuSans-30"/>
       <use x="159.033203" xlink:href="#DejaVuSans-30"/>
      </g>
     </g>
    </g>
    <g id="xtick_2">
     <g id="line2d_2">
      <g>
       <use style="stroke:#000000;stroke-width:0.8;" x="431.349273" xlink:href="#m21315c1170" y="512.64"/>
      </g>
     </g>
     <g id="text_2">
      <!-- 0.05 -->
      <defs>
       <path d="M 10.796875 72.90625 
L 49.515625 72.90625 
L 49.515625 64.59375 
L 19.828125 64.59375 
L 19.828125 46.734375 
Q 21.96875 47.46875 24.109375 47.828125 
Q 26.265625 48.1875 28.421875 48.1875 
Q 40.625 48.1875 47.75 41.5 
Q 54.890625 34.8125 54.890625 23.390625 
Q 54.890625 11.625 47.5625 5.09375 
Q 40.234375 -1.421875 26.90625 -1.421875 
Q 22.3125 -1.421875 17.546875 -0.640625 
Q 12.796875 0.140625 7.71875 1.703125 
L 7.71875 11.625 
Q 12.109375 9.234375 16.796875 8.0625 
Q 21.484375 6.890625 26.703125 6.890625 
Q 35.15625 6.890625 40.078125 11.328125 
Q 45.015625 15.765625 45.015625 23.390625 
Q 45.015625 31 40.078125 35.4375 
Q 35.15625 39.890625 26.703125 39.890625 
Q 22.75 39.890625 18.8125 39.015625 
Q 14.890625 38.140625 10.796875 36.28125 
z
" id="DejaVuSans-35"/>
      </defs>
      <g transform="translate(420.21646 527.238438)scale(0.1 -0.1)">
       <use xlink:href="#DejaVuSans-30"/>
       <use x="63.623047" xlink:href="#DejaVuSans-2e"/>
       <use x="95.410156" xlink:href="#DejaVuSans-30"/>
       <use x="159.033203" xlink:href="#DejaVuSans-35"/>
      </g>
     </g>
    </g>
    <g id="xtick_3">
     <g id="line2d_3">
      <g>
       <use style="stroke:#000000;stroke-width:0.8;" x="631.971273" xlink:href="#m21315c1170" y="512.64"/>
      </g>
     </g>
     <g id="text_3">
      <!-- 0.10 -->
      <defs>
       <path d="M 12.40625 8.296875 
L 28.515625 8.296875 
L 28.515625 63.921875 
L 10.984375 60.40625 
L 10.984375 69.390625 
L 28.421875 72.90625 
L 38.28125 72.90625 
L 38.28125 8.296875 
L 54.390625 8.296875 
L 54.390625 0 
L 12.40625 0 
z
" id="DejaVuSans-31"/>
      </defs>
      <g transform="translate(620.83846 527.238438)scale(0.1 -0.1)">
       <use xlink:href="#DejaVuSans-30"/>
       <use x="63.623047" xlink:href="#DejaVuSans-2e"/>
       <use x="95.410156" xlink:href="#DejaVuSans-31"/>
       <use x="159.033203" xlink:href="#DejaVuSans-30"/>
      </g>
     </g>
    </g>
    <g id="xtick_4">
     <g id="line2d_4">
      <g>
       <use style="stroke:#000000;stroke-width:0.8;" x="832.593273" xlink:href="#m21315c1170" y="512.64"/>
      </g>
     </g>
     <g id="text_4">
      <!-- 0.15 -->
      <g transform="translate(821.460461 527.238438)scale(0.1 -0.1)">
       <use xlink:href="#DejaVuSans-30"/>
       <use x="63.623047" xlink:href="#DejaVuSans-2e"/>
       <use x="95.410156" xlink:href="#DejaVuSans-31"/>
       <use x="159.033203" xlink:href="#DejaVuSans-35"/>
      </g>
     </g>
    </g>
    <g id="xtick_5">
     <g id="line2d_5">
      <g>
       <use style="stroke:#000000;stroke-width:0.8;" x="1033.215273" xlink:href="#m21315c1170" y="512.64"/>
      </g>
     </g>
     <g id="text_5">
      <!-- 0.20 -->
      <defs>
       <path d="M 19.1875 8.296875 
L 53.609375 8.296875 
L 53.609375 0 
L 7.328125 0 
L 7.328125 8.296875 
Q 12.9375 14.109375 22.625 23.890625 
Q 32.328125 33.6875 34.8125 36.53125 
Q 39.546875 41.84375 41.421875 45.53125 
Q 43.3125 49.21875 43.3125 52.78125 
Q 43.3125 58.59375 39.234375 62.25 
Q 35.15625 65.921875 28.609375 65.921875 
Q 23.96875 65.921875 18.8125 64.3125 
Q 13.671875 62.703125 7.8125 59.421875 
L 7.8125 69.390625 
Q 13.765625 71.78125 18.9375 73 
Q 24.125 74.21875 28.421875 74.21875 
Q 39.75 74.21875 46.484375 68.546875 
Q 53.21875 62.890625 53.21875 53.421875 
Q 53.21875 48.921875 51.53125 44.890625 
Q 49.859375 40.875 45.40625 35.40625 
Q 44.1875 33.984375 37.640625 27.21875 
Q 31.109375 20.453125 19.1875 8.296875 
z
" id="DejaVuSans-32"/>
      </defs>
      <g transform="translate(1022.082461 527.238438)scale(0.1 -0.1)">
       <use xlink:href="#DejaVuSans-30"/>
       <use x="63.623047" xlink:href="#DejaVuSans-2e"/>
       <use x="95.410156" xlink:href="#DejaVuSans-32"/>
       <use x="159.033203" xlink:href="#DejaVuSans-30"/>
      </g>
     </g>
    </g>
    <g id="xtick_6">
     <g id="line2d_6">
      <g>
       <use style="stroke:#000000;stroke-width:0.8;" x="1233.837273" xlink:href="#m21315c1170" y="512.64"/>
      </g>
     </g>
     <g id="text_6">
      <!-- 0.25 -->
      <g transform="translate(1222.704461 527.238438)scale(0.1 -0.1)">
       <use xlink:href="#DejaVuSans-30"/>
       <use x="63.623047" xlink:href="#DejaVuSans-2e"/>
       <use x="95.410156" xlink:href="#DejaVuSans-32"/>
       <use x="159.033203" xlink:href="#DejaVuSans-35"/>
      </g>
     </g>
    </g>
   </g>
   <g id="matplotlib.axis_2">
    <g id="ytick_1">
     <g id="line2d_7">
      <defs>
       <path d="M 0 0 
L -3.5 0 
" id="mbb33fd4694" style="stroke:#000000;stroke-width:0.8;"/>
      </defs>
      <g>
       <use style="stroke:#000000;stroke-width:0.8;" x="180" xlink:href="#mbb33fd4694" y="506.368604"/>
      </g>
     </g>
     <g id="text_7">
      <!-- 0.75 -->
      <defs>
       <path d="M 8.203125 72.90625 
L 55.078125 72.90625 
L 55.078125 68.703125 
L 28.609375 0 
L 18.3125 0 
L 43.21875 64.59375 
L 8.203125 64.59375 
z
" id="DejaVuSans-37"/>
      </defs>
      <g transform="translate(150.734375 510.167823)scale(0.1 -0.1)">
       <use xlink:href="#DejaVuSans-30"/>
       <use x="63.623047" xlink:href="#DejaVuSans-2e"/>
       <use x="95.410156" xlink:href="#DejaVuSans-37"/>
       <use x="159.033203" xlink:href="#DejaVuSans-35"/>
      </g>
     </g>
    </g>
    <g id="ytick_2">
     <g id="line2d_8">
      <g>
       <use style="stroke:#000000;stroke-width:0.8;" x="180" xlink:href="#mbb33fd4694" y="444.779435"/>
      </g>
     </g>
     <g id="text_8">
      <!-- 1.00 -->
      <g transform="translate(150.734375 448.578654)scale(0.1 -0.1)">
       <use xlink:href="#DejaVuSans-31"/>
       <use x="63.623047" xlink:href="#DejaVuSans-2e"/>
       <use x="95.410156" xlink:href="#DejaVuSans-30"/>
       <use x="159.033203" xlink:href="#DejaVuSans-30"/>
      </g>
     </g>
    </g>
    <g id="ytick_3">
     <g id="line2d_9">
      <g>
       <use style="stroke:#000000;stroke-width:0.8;" x="180" xlink:href="#mbb33fd4694" y="383.190266"/>
      </g>
     </g>
     <g id="text_9">
      <!-- 1.25 -->
      <g transform="translate(150.734375 386.989485)scale(0.1 -0.1)">
       <use xlink:href="#DejaVuSans-31"/>
       <use x="63.623047" xlink:href="#DejaVuSans-2e"/>
       <use x="95.410156" xlink:href="#DejaVuSans-32"/>
       <use x="159.033203" xlink:href="#DejaVuSans-35"/>
      </g>
     </g>
    </g>
    <g id="ytick_4">
     <g id="line2d_10">
      <g>
       <use style="stroke:#000000;stroke-width:0.8;" x="180" xlink:href="#mbb33fd4694" y="321.601098"/>
      </g>
     </g>
     <g id="text_10">
      <!-- 1.50 -->
      <g transform="translate(150.734375 325.400316)scale(0.1 -0.1)">
       <use xlink:href="#DejaVuSans-31"/>
       <use x="63.623047" xlink:href="#DejaVuSans-2e"/>
       <use x="95.410156" xlink:href="#DejaVuSans-35"/>
       <use x="159.033203" xlink:href="#DejaVuSans-30"/>
      </g>
     </g>
    </g>
    <g id="ytick_5">
     <g id="line2d_11">
      <g>
       <use style="stroke:#000000;stroke-width:0.8;" x="180" xlink:href="#mbb33fd4694" y="260.011929"/>
      </g>
     </g>
     <g id="text_11">
      <!-- 1.75 -->
      <g transform="translate(150.734375 263.811148)scale(0.1 -0.1)">
       <use xlink:href="#DejaVuSans-31"/>
       <use x="63.623047" xlink:href="#DejaVuSans-2e"/>
       <use x="95.410156" xlink:href="#DejaVuSans-37"/>
       <use x="159.033203" xlink:href="#DejaVuSans-35"/>
      </g>
     </g>
    </g>
    <g id="ytick_6">
     <g id="line2d_12">
      <g>
       <use style="stroke:#000000;stroke-width:0.8;" x="180" xlink:href="#mbb33fd4694" y="198.42276"/>
      </g>
     </g>
     <g id="text_12">
      <!-- 2.00 -->
      <g transform="translate(150.734375 202.221979)scale(0.1 -0.1)">
       <use xlink:href="#DejaVuSans-32"/>
       <use x="63.623047" xlink:href="#DejaVuSans-2e"/>
       <use x="95.410156" xlink:href="#DejaVuSans-30"/>
       <use x="159.033203" xlink:href="#DejaVuSans-30"/>
      </g>
     </g>
    </g>
    <g id="ytick_7">
     <g id="line2d_13">
      <g>
       <use style="stroke:#000000;stroke-width:0.8;" x="180" xlink:href="#mbb33fd4694" y="136.833591"/>
      </g>
     </g>
     <g id="text_13">
      <!-- 2.25 -->
      <g transform="translate(150.734375 140.63281)scale(0.1 -0.1)">
       <use xlink:href="#DejaVuSans-32"/>
       <use x="63.623047" xlink:href="#DejaVuSans-2e"/>
       <use x="95.410156" xlink:href="#DejaVuSans-32"/>
       <use x="159.033203" xlink:href="#DejaVuSans-35"/>
      </g>
     </g>
    </g>
    <g id="ytick_8">
     <g id="line2d_14">
      <g>
       <use style="stroke:#000000;stroke-width:0.8;" x="180" xlink:href="#mbb33fd4694" y="75.244422"/>
      </g>
     </g>
     <g id="text_14">
      <!-- 2.50 -->
      <g transform="translate(150.734375 79.043641)scale(0.1 -0.1)">
       <use xlink:href="#DejaVuSans-32"/>
       <use x="63.623047" xlink:href="#DejaVuSans-2e"/>
       <use x="95.410156" xlink:href="#DejaVuSans-35"/>
       <use x="159.033203" xlink:href="#DejaVuSans-30"/>
      </g>
     </g>
    </g>
   </g>
   <g id="line2d_15">
    <path clip-path="url(#p1b2ff3ac8d)" d="M 230.727273 492.48 
L 249.336969 490.665583 
L 257.650745 488.209161 
L 272.356338 486.143706 
L 280.036148 483.647128 
L 289.517544 481.260671 
L 297.165254 478.762614 
L 311.505715 476.675234 
L 319.261761 474.182843 
L 329.304899 471.829644 
L 337.261567 469.352282 
L 352.540939 467.322303 
L 360.63403 464.849128 
L 371.226872 462.532883 
L 379.271814 460.059462 
L 393.528013 457.96543 
L 401.621105 455.495211 
L 411.596031 453.139549 
L 419.801471 450.675489 
L 434.210143 448.592051 
L 442.194898 446.113703 
L 452.498844 443.777995 
L 460.571873 429.369086 
L 474.394729 415.314191 
L 482.419609 412.839785 
L 492.635281 398.55972 
L 500.892883 396.102559 
L 514.900311 382.055794 
L 522.985378 379.587546 
L 533.301361 365.316597 
L 541.334266 362.84219 
L 555.442005 348.804541 
L 563.507009 346.331366 
L 573.682557 332.051548 
L 581.980283 329.594879 
L 596.03586 315.552548 
L 604.088827 313.081345 
L 614.376724 298.807685 
L 622.505927 296.339191 
L 637.664925 282.363377 
L 645.890427 279.903259 
L 654.432912 266.895873 
L 662.253158 264.409149 
L 676.505345 262.310437 
L 684.47405 259.836769 
L 694.854233 257.506235 
L 702.838988 255.027394 
L 717.753228 252.97204 
L 726.171327 250.52424 
L 735.773096 248.145913 
L 743.801988 245.670521 
L 758.964999 243.633398 
L 766.985867 241.158252 
L 776.856469 238.794214 
L 784.957585 236.325227 
L 800.160721 234.290567 
L 808.221712 231.817639 
L 817.209578 229.400141 
L 825.186309 226.922778 
L 840.618153 224.902161 
L 849.048289 222.451405 
L 857.735222 220.017154 
L 866.024923 217.557776 
L 881.179909 215.519913 
L 889.252938 213.046246 
L 898.15253 210.625545 
L 906.17741 208.1504 
L 921.669441 206.131999 
L 929.706358 203.658332 
L 938.670149 201.241327 
L 946.66293 198.76421 
L 962.199098 196.749505 
L 970.24404 194.275099 
L 979.10752 191.850703 
L 987.124375 189.375065 
L 1002.496033 187.351491 
L 1010.69746 184.886446 
L 1019.733475 182.471658 
L 1027.694156 179.994295 
L 1042.901303 177.959143 
L 1052.009542 175.549774 
L 1060.32733 173.091381 
L 1068.243874 170.610816 
L 1083.374786 168.571722 
L 1091.187006 166.08278 
L 1100.367469 163.667992 
L 1108.095428 161.185702 
L 1122.740834 159.117045 
L 1130.557068 156.627611 
L 1140.664404 154.27318 
L 1148.384339 151.786702 
L 1163.298578 149.734798 
L 1171.142898 147.248073 
L 1181.631416 144.924437 
L 1189.993341 142.469246 
L 1204.951718 140.419805 
L 1212.892336 137.938747 
L 1222.277434 135.547117 
L 1230.302314 133.068276 
L 1245.272727 131.02253 
" style="fill:none;stroke:#ff0000;stroke-dasharray:5.55,2.4;stroke-dashoffset:0;stroke-width:1.5;"/>
    <defs>
     <path d="M -3 3 
L 3 3 
L 3 -3 
L -3 -3 
z
" id="m8b8d095311" style="stroke:#ff0000;stroke-linejoin:miter;"/>
    </defs>
    <g clip-path="url(#p1b2ff3ac8d)">
     <use style="fill:#ff0000;stroke:#ff0000;stroke-linejoin:miter;" x="230.727273" xlink:href="#m8b8d095311" y="492.48"/>
     <use style="fill:#ff0000;stroke:#ff0000;stroke-linejoin:miter;" x="249.336969" xlink:href="#m8b8d095311" y="490.665583"/>
     <use style="fill:#ff0000;stroke:#ff0000;stroke-linejoin:miter;" x="257.650745" xlink:href="#m8b8d095311" y="488.209161"/>
     <use style="fill:#ff0000;stroke:#ff0000;stroke-linejoin:miter;" x="272.356338" xlink:href="#m8b8d095311" y="486.143706"/>
     <use style="fill:#ff0000;stroke:#ff0000;stroke-linejoin:miter;" x="280.036148" xlink:href="#m8b8d095311" y="483.647128"/>
     <use style="fill:#ff0000;stroke:#ff0000;stroke-linejoin:miter;" x="289.517544" xlink:href="#m8b8d095311" y="481.260671"/>
     <use style="fill:#ff0000;stroke:#ff0000;stroke-linejoin:miter;" x="297.165254" xlink:href="#m8b8d095311" y="478.762614"/>
     <use style="fill:#ff0000;stroke:#ff0000;stroke-linejoin:miter;" x="311.505715" xlink:href="#m8b8d095311" y="476.675234"/>
     <use style="fill:#ff0000;stroke:#ff0000;stroke-linejoin:miter;" x="319.261761" xlink:href="#m8b8d095311" y="474.182843"/>
     <use style="fill:#ff0000;stroke:#ff0000;stroke-linejoin:miter;" x="329.304899" xlink:href="#m8b8d095311" y="471.829644"/>
     <use style="fill:#ff0000;stroke:#ff0000;stroke-linejoin:miter;" x="337.261567" xlink:href="#m8b8d095311" y="469.352282"/>
     <use style="fill:#ff0000;stroke:#ff0000;stroke-linejoin:miter;" x="352.540939" xlink:href="#m8b8d095311" y="467.322303"/>
     <use style="fill:#ff0000;stroke:#ff0000;stroke-linejoin:miter;" x="360.63403" xlink:href="#m8b8d095311" y="464.849128"/>
     <use style="fill:#ff0000;stroke:#ff0000;stroke-linejoin:miter;" x="371.226872" xlink:href="#m8b8d095311" y="462.532883"/>
     <use style="fill:#ff0000;stroke:#ff0000;stroke-linejoin:miter;" x="379.271814" xlink:href="#m8b8d095311" y="460.059462"/>
     <use style="fill:#ff0000;stroke:#ff0000;stroke-linejoin:miter;" x="393.528013" xlink:href="#m8b8d095311" y="457.96543"/>
     <use style="fill:#ff0000;stroke:#ff0000;stroke-linejoin:miter;" x="401.621105" xlink:href="#m8b8d095311" y="455.495211"/>
     <use style="fill:#ff0000;stroke:#ff0000;stroke-linejoin:miter;" x="411.596031" xlink:href="#m8b8d095311" y="453.139549"/>
     <use style="fill:#ff0000;stroke:#ff0000;stroke-linejoin:miter;" x="419.801471" xlink:href="#m8b8d095311" y="450.675489"/>
     <use style="fill:#ff0000;stroke:#ff0000;stroke-linejoin:miter;" x="434.210143" xlink:href="#m8b8d095311" y="448.592051"/>
     <use style="fill:#ff0000;stroke:#ff0000;stroke-linejoin:miter;" x="442.194898" xlink:href="#m8b8d095311" y="446.113703"/>
     <use style="fill:#ff0000;stroke:#ff0000;stroke-linejoin:miter;" x="452.498844" xlink:href="#m8b8d095311" y="443.777995"/>
     <use style="fill:#ff0000;stroke:#ff0000;stroke-linejoin:miter;" x="460.571873" xlink:href="#m8b8d095311" y="429.369086"/>
     <use style="fill:#ff0000;stroke:#ff0000;stroke-linejoin:miter;" x="474.394729" xlink:href="#m8b8d095311" y="415.314191"/>
     <use style="fill:#ff0000;stroke:#ff0000;stroke-linejoin:miter;" x="482.419609" xlink:href="#m8b8d095311" y="412.839785"/>
     <use style="fill:#ff0000;stroke:#ff0000;stroke-linejoin:miter;" x="492.635281" xlink:href="#m8b8d095311" y="398.55972"/>
     <use style="fill:#ff0000;stroke:#ff0000;stroke-linejoin:miter;" x="500.892883" xlink:href="#m8b8d095311" y="396.102559"/>
     <use style="fill:#ff0000;stroke:#ff0000;stroke-linejoin:miter;" x="514.900311" xlink:href="#m8b8d095311" y="382.055794"/>
     <use style="fill:#ff0000;stroke:#ff0000;stroke-linejoin:miter;" x="522.985378" xlink:href="#m8b8d095311" y="379.587546"/>
     <use style="fill:#ff0000;stroke:#ff0000;stroke-linejoin:miter;" x="533.301361" xlink:href="#m8b8d095311" y="365.316597"/>
     <use style="fill:#ff0000;stroke:#ff0000;stroke-linejoin:miter;" x="541.334266" xlink:href="#m8b8d095311" y="362.84219"/>
     <use style="fill:#ff0000;stroke:#ff0000;stroke-linejoin:miter;" x="555.442005" xlink:href="#m8b8d095311" y="348.804541"/>
     <use style="fill:#ff0000;stroke:#ff0000;stroke-linejoin:miter;" x="563.507009" xlink:href="#m8b8d095311" y="346.331366"/>
     <use style="fill:#ff0000;stroke:#ff0000;stroke-linejoin:miter;" x="573.682557" xlink:href="#m8b8d095311" y="332.051548"/>
     <use style="fill:#ff0000;stroke:#ff0000;stroke-linejoin:miter;" x="581.980283" xlink:href="#m8b8d095311" y="329.594879"/>
     <use style="fill:#ff0000;stroke:#ff0000;stroke-linejoin:miter;" x="596.03586" xlink:href="#m8b8d095311" y="315.552548"/>
     <use style="fill:#ff0000;stroke:#ff0000;stroke-linejoin:miter;" x="604.088827" xlink:href="#m8b8d095311" y="313.081345"/>
     <use style="fill:#ff0000;stroke:#ff0000;stroke-linejoin:miter;" x="614.376724" xlink:href="#m8b8d095311" y="298.807685"/>
     <use style="fill:#ff0000;stroke:#ff0000;stroke-linejoin:miter;" x="622.505927" xlink:href="#m8b8d095311" y="296.339191"/>
     <use style="fill:#ff0000;stroke:#ff0000;stroke-linejoin:miter;" x="637.664925" xlink:href="#m8b8d095311" y="282.363377"/>
     <use style="fill:#ff0000;stroke:#ff0000;stroke-linejoin:miter;" x="645.890427" xlink:href="#m8b8d095311" y="279.903259"/>
     <use style="fill:#ff0000;stroke:#ff0000;stroke-linejoin:miter;" x="654.432912" xlink:href="#m8b8d095311" y="266.895873"/>
     <use style="fill:#ff0000;stroke:#ff0000;stroke-linejoin:miter;" x="662.253158" xlink:href="#m8b8d095311" y="264.409149"/>
     <use style="fill:#ff0000;stroke:#ff0000;stroke-linejoin:miter;" x="676.505345" xlink:href="#m8b8d095311" y="262.310437"/>
     <use style="fill:#ff0000;stroke:#ff0000;stroke-linejoin:miter;" x="684.47405" xlink:href="#m8b8d095311" y="259.836769"/>
     <use style="fill:#ff0000;stroke:#ff0000;stroke-linejoin:miter;" x="694.854233" xlink:href="#m8b8d095311" y="257.506235"/>
     <use style="fill:#ff0000;stroke:#ff0000;stroke-linejoin:miter;" x="702.838988" xlink:href="#m8b8d095311" y="255.027394"/>
     <use style="fill:#ff0000;stroke:#ff0000;stroke-linejoin:miter;" x="717.753228" xlink:href="#m8b8d095311" y="252.97204"/>
     <use style="fill:#ff0000;stroke:#ff0000;stroke-linejoin:miter;" x="726.171327" xlink:href="#m8b8d095311" y="250.52424"/>
     <use style="fill:#ff0000;stroke:#ff0000;stroke-linejoin:miter;" x="735.773096" xlink:href="#m8b8d095311" y="248.145913"/>
     <use style="fill:#ff0000;stroke:#ff0000;stroke-linejoin:miter;" x="743.801988" xlink:href="#m8b8d095311" y="245.670521"/>
     <use style="fill:#ff0000;stroke:#ff0000;stroke-linejoin:miter;" x="758.964999" xlink:href="#m8b8d095311" y="243.633398"/>
     <use style="fill:#ff0000;stroke:#ff0000;stroke-linejoin:miter;" x="766.985867" xlink:href="#m8b8d095311" y="241.158252"/>
     <use style="fill:#ff0000;stroke:#ff0000;stroke-linejoin:miter;" x="776.856469" xlink:href="#m8b8d095311" y="238.794214"/>
     <use style="fill:#ff0000;stroke:#ff0000;stroke-linejoin:miter;" x="784.957585" xlink:href="#m8b8d095311" y="236.325227"/>
     <use style="fill:#ff0000;stroke:#ff0000;stroke-linejoin:miter;" x="800.160721" xlink:href="#m8b8d095311" y="234.290567"/>
     <use style="fill:#ff0000;stroke:#ff0000;stroke-linejoin:miter;" x="808.221712" xlink:href="#m8b8d095311" y="231.817639"/>
     <use style="fill:#ff0000;stroke:#ff0000;stroke-linejoin:miter;" x="817.209578" xlink:href="#m8b8d095311" y="229.400141"/>
     <use style="fill:#ff0000;stroke:#ff0000;stroke-linejoin:miter;" x="825.186309" xlink:href="#m8b8d095311" y="226.922778"/>
     <use style="fill:#ff0000;stroke:#ff0000;stroke-linejoin:miter;" x="840.618153" xlink:href="#m8b8d095311" y="224.902161"/>
     <use style="fill:#ff0000;stroke:#ff0000;stroke-linejoin:miter;" x="849.048289" xlink:href="#m8b8d095311" y="222.451405"/>
     <use style="fill:#ff0000;stroke:#ff0000;stroke-linejoin:miter;" x="857.735222" xlink:href="#m8b8d095311" y="220.017154"/>
     <use style="fill:#ff0000;stroke:#ff0000;stroke-linejoin:miter;" x="866.024923" xlink:href="#m8b8d095311" y="217.557776"/>
     <use style="fill:#ff0000;stroke:#ff0000;stroke-linejoin:miter;" x="881.179909" xlink:href="#m8b8d095311" y="215.519913"/>
     <use style="fill:#ff0000;stroke:#ff0000;stroke-linejoin:miter;" x="889.252938" xlink:href="#m8b8d095311" y="213.046246"/>
     <use style="fill:#ff0000;stroke:#ff0000;stroke-linejoin:miter;" x="898.15253" xlink:href="#m8b8d095311" y="210.625545"/>
     <use style="fill:#ff0000;stroke:#ff0000;stroke-linejoin:miter;" x="906.17741" xlink:href="#m8b8d095311" y="208.1504"/>
     <use style="fill:#ff0000;stroke:#ff0000;stroke-linejoin:miter;" x="921.669441" xlink:href="#m8b8d095311" y="206.131999"/>
     <use style="fill:#ff0000;stroke:#ff0000;stroke-linejoin:miter;" x="929.706358" xlink:href="#m8b8d095311" y="203.658332"/>
     <use style="fill:#ff0000;stroke:#ff0000;stroke-linejoin:miter;" x="938.670149" xlink:href="#m8b8d095311" y="201.241327"/>
     <use style="fill:#ff0000;stroke:#ff0000;stroke-linejoin:miter;" x="946.66293" xlink:href="#m8b8d095311" y="198.76421"/>
     <use style="fill:#ff0000;stroke:#ff0000;stroke-linejoin:miter;" x="962.199098" xlink:href="#m8b8d095311" y="196.749505"/>
     <use style="fill:#ff0000;stroke:#ff0000;stroke-linejoin:miter;" x="970.24404" xlink:href="#m8b8d095311" y="194.275099"/>
     <use style="fill:#ff0000;stroke:#ff0000;stroke-linejoin:miter;" x="979.10752" xlink:href="#m8b8d095311" y="191.850703"/>
     <use style="fill:#ff0000;stroke:#ff0000;stroke-linejoin:miter;" x="987.124375" xlink:href="#m8b8d095311" y="189.375065"/>
     <use style="fill:#ff0000;stroke:#ff0000;stroke-linejoin:miter;" x="1002.496033" xlink:href="#m8b8d095311" y="187.351491"/>
     <use style="fill:#ff0000;stroke:#ff0000;stroke-linejoin:miter;" x="1010.69746" xlink:href="#m8b8d095311" y="184.886446"/>
     <use style="fill:#ff0000;stroke:#ff0000;stroke-linejoin:miter;" x="1019.733475" xlink:href="#m8b8d095311" y="182.471658"/>
     <use style="fill:#ff0000;stroke:#ff0000;stroke-linejoin:miter;" x="1027.694156" xlink:href="#m8b8d095311" y="179.994295"/>
     <use style="fill:#ff0000;stroke:#ff0000;stroke-linejoin:miter;" x="1042.901303" xlink:href="#m8b8d095311" y="177.959143"/>
     <use style="fill:#ff0000;stroke:#ff0000;stroke-linejoin:miter;" x="1052.009542" xlink:href="#m8b8d095311" y="175.549774"/>
     <use style="fill:#ff0000;stroke:#ff0000;stroke-linejoin:miter;" x="1060.32733" xlink:href="#m8b8d095311" y="173.091381"/>
     <use style="fill:#ff0000;stroke:#ff0000;stroke-linejoin:miter;" x="1068.243874" xlink:href="#m8b8d095311" y="170.610816"/>
     <use style="fill:#ff0000;stroke:#ff0000;stroke-linejoin:miter;" x="1083.374786" xlink:href="#m8b8d095311" y="168.571722"/>
     <use style="fill:#ff0000;stroke:#ff0000;stroke-linejoin:miter;" x="1091.187006" xlink:href="#m8b8d095311" y="166.08278"/>
     <use style="fill:#ff0000;stroke:#ff0000;stroke-linejoin:miter;" x="1100.367469" xlink:href="#m8b8d095311" y="163.667992"/>
     <use style="fill:#ff0000;stroke:#ff0000;stroke-linejoin:miter;" x="1108.095428" xlink:href="#m8b8d095311" y="161.185702"/>
     <use style="fill:#ff0000;stroke:#ff0000;stroke-linejoin:miter;" x="1122.740834" xlink:href="#m8b8d095311" y="159.117045"/>
     <use style="fill:#ff0000;stroke:#ff0000;stroke-linejoin:miter;" x="1130.557068" xlink:href="#m8b8d095311" y="156.627611"/>
     <use style="fill:#ff0000;stroke:#ff0000;stroke-linejoin:miter;" x="1140.664404" xlink:href="#m8b8d095311" y="154.27318"/>
     <use style="fill:#ff0000;stroke:#ff0000;stroke-linejoin:miter;" x="1148.384339" xlink:href="#m8b8d095311" y="151.786702"/>
     <use style="fill:#ff0000;stroke:#ff0000;stroke-linejoin:miter;" x="1163.298578" xlink:href="#m8b8d095311" y="149.734798"/>
     <use style="fill:#ff0000;stroke:#ff0000;stroke-linejoin:miter;" x="1171.142898" xlink:href="#m8b8d095311" y="147.248073"/>
     <use style="fill:#ff0000;stroke:#ff0000;stroke-linejoin:miter;" x="1181.631416" xlink:href="#m8b8d095311" y="144.924437"/>
     <use style="fill:#ff0000;stroke:#ff0000;stroke-linejoin:miter;" x="1189.993341" xlink:href="#m8b8d095311" y="142.469246"/>
     <use style="fill:#ff0000;stroke:#ff0000;stroke-linejoin:miter;" x="1204.951718" xlink:href="#m8b8d095311" y="140.419805"/>
     <use style="fill:#ff0000;stroke:#ff0000;stroke-linejoin:miter;" x="1212.892336" xlink:href="#m8b8d095311" y="137.938747"/>
     <use style="fill:#ff0000;stroke:#ff0000;stroke-linejoin:miter;" x="1222.277434" xlink:href="#m8b8d095311" y="135.547117"/>
     <use style="fill:#ff0000;stroke:#ff0000;stroke-linejoin:miter;" x="1230.302314" xlink:href="#m8b8d095311" y="133.068276"/>
     <use style="fill:#ff0000;stroke:#ff0000;stroke-linejoin:miter;" x="1245.272727" xlink:href="#m8b8d095311" y="131.02253"/>
    </g>
   </g>
   <g id="line2d_16">
    <path clip-path="url(#p1b2ff3ac8d)" d="M 230.727273 492.48 
L 249.336969 490.665583 
L 257.650745 488.209161 
L 272.356338 486.143706 
L 280.036148 483.647128 
L 289.517544 481.260671 
L 297.165254 478.762614 
L 311.505715 476.675234 
L 319.261761 474.182843 
L 329.304899 471.829644 
L 337.261567 469.352282 
L 352.540939 467.322303 
L 360.63403 464.849128 
L 371.226872 462.532883 
L 379.271814 460.059462 
L 393.528013 457.96543 
L 401.621105 455.495211 
L 411.596031 453.139549 
L 419.801471 450.675489 
L 434.210143 448.592051 
L 442.194898 446.113703 
L 452.498844 443.777995 
L 460.571873 429.369086 
L 474.394729 415.314191 
L 482.419609 412.839785 
L 492.635281 398.55972 
L 500.892883 396.102559 
L 514.900311 382.055794 
L 522.985378 379.587546 
L 533.301361 365.316597 
L 541.334266 362.84219 
L 555.442005 348.804541 
L 563.507009 346.331366 
L 573.682557 332.051548 
L 581.980283 329.594879 
L 596.03586 315.552548 
L 604.088827 313.081345 
L 614.376724 298.807685 
L 622.505927 296.339191 
L 637.664925 282.363377 
L 645.890427 279.903259 
L 654.432912 266.895873 
L 662.253158 264.409149 
L 676.505345 262.310437 
L 684.47405 259.836769 
L 694.854233 257.506235 
L 702.838988 255.027394 
L 717.753228 252.97204 
L 726.171327 250.52424 
L 735.773096 248.145913 
L 743.801988 245.670521 
L 758.964999 243.633398 
L 766.985867 241.158252 
L 776.856469 238.794214 
L 784.957585 236.325227 
L 800.160721 234.290567 
L 808.221712 231.817639 
L 817.209578 229.400141 
L 825.186309 226.922778 
L 840.618153 224.902161 
L 849.048289 222.451405 
L 857.735222 220.017154 
L 866.024923 217.557776 
L 881.179909 215.519913 
L 889.252938 213.046246 
L 898.15253 210.625545 
L 906.17741 208.1504 
L 921.669441 206.131999 
L 929.706358 203.658332 
L 938.670149 201.241327 
L 946.66293 198.76421 
L 962.199098 196.749505 
L 970.24404 194.275099 
L 979.10752 191.850703 
L 987.124375 189.375065 
L 1002.496033 187.351491 
L 1010.69746 184.886446 
L 1019.733475 182.471658 
L 1027.694156 179.994295 
L 1042.901303 177.959143 
L 1052.009542 175.549774 
L 1060.32733 173.091381 
L 1068.243874 170.610816 
L 1083.374786 168.571722 
L 1091.187006 166.08278 
L 1100.367469 163.667992 
L 1108.095428 161.185702 
L 1122.740834 159.117045 
L 1130.557068 156.627611 
L 1140.664404 154.27318 
L 1148.384339 151.786702 
L 1163.298578 149.734798 
L 1171.142898 147.248073 
L 1181.631416 144.924437 
L 1189.993341 142.469246 
L 1204.951718 140.419805 
L 1212.892336 137.938747 
L 1222.277434 135.547117 
L 1230.302314 133.068276 
L 1245.272727 131.02253 
" style="fill:none;stroke:#800080;stroke-dasharray:9.6,2.4,1.5,2.4;stroke-dashoffset:0;stroke-width:1.5;"/>
    <defs>
     <path d="M -3 3 
L 3 -3 
M -3 -3 
L 3 3 
" id="mbc69e71882" style="stroke:#800080;"/>
    </defs>
    <g clip-path="url(#p1b2ff3ac8d)">
     <use style="fill:#800080;stroke:#800080;" x="230.727273" xlink:href="#mbc69e71882" y="492.48"/>
     <use style="fill:#800080;stroke:#800080;" x="249.336969" xlink:href="#mbc69e71882" y="490.665583"/>
     <use style="fill:#800080;stroke:#800080;" x="257.650745" xlink:href="#mbc69e71882" y="488.209161"/>
     <use style="fill:#800080;stroke:#800080;" x="272.356338" xlink:href="#mbc69e71882" y="486.143706"/>
     <use style="fill:#800080;stroke:#800080;" x="280.036148" xlink:href="#mbc69e71882" y="483.647128"/>
     <use style="fill:#800080;stroke:#800080;" x="289.517544" xlink:href="#mbc69e71882" y="481.260671"/>
     <use style="fill:#800080;stroke:#800080;" x="297.165254" xlink:href="#mbc69e71882" y="478.762614"/>
     <use style="fill:#800080;stroke:#800080;" x="311.505715" xlink:href="#mbc69e71882" y="476.675234"/>
     <use style="fill:#800080;stroke:#800080;" x="319.261761" xlink:href="#mbc69e71882" y="474.182843"/>
     <use style="fill:#800080;stroke:#800080;" x="329.304899" xlink:href="#mbc69e71882" y="471.829644"/>
     <use style="fill:#800080;stroke:#800080;" x="337.261567" xlink:href="#mbc69e71882" y="469.352282"/>
     <use style="fill:#800080;stroke:#800080;" x="352.540939" xlink:href="#mbc69e71882" y="467.322303"/>
     <use style="fill:#800080;stroke:#800080;" x="360.63403" xlink:href="#mbc69e71882" y="464.849128"/>
     <use style="fill:#800080;stroke:#800080;" x="371.226872" xlink:href="#mbc69e71882" y="462.532883"/>
     <use style="fill:#800080;stroke:#800080;" x="379.271814" xlink:href="#mbc69e71882" y="460.059462"/>
     <use style="fill:#800080;stroke:#800080;" x="393.528013" xlink:href="#mbc69e71882" y="457.96543"/>
     <use style="fill:#800080;stroke:#800080;" x="401.621105" xlink:href="#mbc69e71882" y="455.495211"/>
     <use style="fill:#800080;stroke:#800080;" x="411.596031" xlink:href="#mbc69e71882" y="453.139549"/>
     <use style="fill:#800080;stroke:#800080;" x="419.801471" xlink:href="#mbc69e71882" y="450.675489"/>
     <use style="fill:#800080;stroke:#800080;" x="434.210143" xlink:href="#mbc69e71882" y="448.592051"/>
     <use style="fill:#800080;stroke:#800080;" x="442.194898" xlink:href="#mbc69e71882" y="446.113703"/>
     <use style="fill:#800080;stroke:#800080;" x="452.498844" xlink:href="#mbc69e71882" y="443.777995"/>
     <use style="fill:#800080;stroke:#800080;" x="460.571873" xlink:href="#mbc69e71882" y="429.369086"/>
     <use style="fill:#800080;stroke:#800080;" x="474.394729" xlink:href="#mbc69e71882" y="415.314191"/>
     <use style="fill:#800080;stroke:#800080;" x="482.419609" xlink:href="#mbc69e71882" y="412.839785"/>
     <use style="fill:#800080;stroke:#800080;" x="492.635281" xlink:href="#mbc69e71882" y="398.55972"/>
     <use style="fill:#800080;stroke:#800080;" x="500.892883" xlink:href="#mbc69e71882" y="396.102559"/>
     <use style="fill:#800080;stroke:#800080;" x="514.900311" xlink:href="#mbc69e71882" y="382.055794"/>
     <use style="fill:#800080;stroke:#800080;" x="522.985378" xlink:href="#mbc69e71882" y="379.587546"/>
     <use style="fill:#800080;stroke:#800080;" x="533.301361" xlink:href="#mbc69e71882" y="365.316597"/>
     <use style="fill:#800080;stroke:#800080;" x="541.334266" xlink:href="#mbc69e71882" y="362.84219"/>
     <use style="fill:#800080;stroke:#800080;" x="555.442005" xlink:href="#mbc69e71882" y="348.804541"/>
     <use style="fill:#800080;stroke:#800080;" x="563.507009" xlink:href="#mbc69e71882" y="346.331366"/>
     <use style="fill:#800080;stroke:#800080;" x="573.682557" xlink:href="#mbc69e71882" y="332.051548"/>
     <use style="fill:#800080;stroke:#800080;" x="581.980283" xlink:href="#mbc69e71882" y="329.594879"/>
     <use style="fill:#800080;stroke:#800080;" x="596.03586" xlink:href="#mbc69e71882" y="315.552548"/>
     <use style="fill:#800080;stroke:#800080;" x="604.088827" xlink:href="#mbc69e71882" y="313.081345"/>
     <use style="fill:#800080;stroke:#800080;" x="614.376724" xlink:href="#mbc69e71882" y="298.807685"/>
     <use style="fill:#800080;stroke:#800080;" x="622.505927" xlink:href="#mbc69e71882" y="296.339191"/>
     <use style="fill:#800080;stroke:#800080;" x="637.664925" xlink:href="#mbc69e71882" y="282.363377"/>
     <use style="fill:#800080;stroke:#800080;" x="645.890427" xlink:href="#mbc69e71882" y="279.903259"/>
     <use style="fill:#800080;stroke:#800080;" x="654.432912" xlink:href="#mbc69e71882" y="266.895873"/>
     <use style="fill:#800080;stroke:#800080;" x="662.253158" xlink:href="#mbc69e71882" y="264.409149"/>
     <use style="fill:#800080;stroke:#800080;" x="676.505345" xlink:href="#mbc69e71882" y="262.310437"/>
     <use style="fill:#800080;stroke:#800080;" x="684.47405" xlink:href="#mbc69e71882" y="259.836769"/>
     <use style="fill:#800080;stroke:#800080;" x="694.854233" xlink:href="#mbc69e71882" y="257.506235"/>
     <use style="fill:#800080;stroke:#800080;" x="702.838988" xlink:href="#mbc69e71882" y="255.027394"/>
     <use style="fill:#800080;stroke:#800080;" x="717.753228" xlink:href="#mbc69e71882" y="252.97204"/>
     <use style="fill:#800080;stroke:#800080;" x="726.171327" xlink:href="#mbc69e71882" y="250.52424"/>
     <use style="fill:#800080;stroke:#800080;" x="735.773096" xlink:href="#mbc69e71882" y="248.145913"/>
     <use style="fill:#800080;stroke:#800080;" x="743.801988" xlink:href="#mbc69e71882" y="245.670521"/>
     <use style="fill:#800080;stroke:#800080;" x="758.964999" xlink:href="#mbc69e71882" y="243.633398"/>
     <use style="fill:#800080;stroke:#800080;" x="766.985867" xlink:href="#mbc69e71882" y="241.158252"/>
     <use style="fill:#800080;stroke:#800080;" x="776.856469" xlink:href="#mbc69e71882" y="238.794214"/>
     <use style="fill:#800080;stroke:#800080;" x="784.957585" xlink:href="#mbc69e71882" y="236.325227"/>
     <use style="fill:#800080;stroke:#800080;" x="800.160721" xlink:href="#mbc69e71882" y="234.290567"/>
     <use style="fill:#800080;stroke:#800080;" x="808.221712" xlink:href="#mbc69e71882" y="231.817639"/>
     <use style="fill:#800080;stroke:#800080;" x="817.209578" xlink:href="#mbc69e71882" y="229.400141"/>
     <use style="fill:#800080;stroke:#800080;" x="825.186309" xlink:href="#mbc69e71882" y="226.922778"/>
     <use style="fill:#800080;stroke:#800080;" x="840.618153" xlink:href="#mbc69e71882" y="224.902161"/>
     <use style="fill:#800080;stroke:#800080;" x="849.048289" xlink:href="#mbc69e71882" y="222.451405"/>
     <use style="fill:#800080;stroke:#800080;" x="857.735222" xlink:href="#mbc69e71882" y="220.017154"/>
     <use style="fill:#800080;stroke:#800080;" x="866.024923" xlink:href="#mbc69e71882" y="217.557776"/>
     <use style="fill:#800080;stroke:#800080;" x="881.179909" xlink:href="#mbc69e71882" y="215.519913"/>
     <use style="fill:#800080;stroke:#800080;" x="889.252938" xlink:href="#mbc69e71882" y="213.046246"/>
     <use style="fill:#800080;stroke:#800080;" x="898.15253" xlink:href="#mbc69e71882" y="210.625545"/>
     <use style="fill:#800080;stroke:#800080;" x="906.17741" xlink:href="#mbc69e71882" y="208.1504"/>
     <use style="fill:#800080;stroke:#800080;" x="921.669441" xlink:href="#mbc69e71882" y="206.131999"/>
     <use style="fill:#800080;stroke:#800080;" x="929.706358" xlink:href="#mbc69e71882" y="203.658332"/>
     <use style="fill:#800080;stroke:#800080;" x="938.670149" xlink:href="#mbc69e71882" y="201.241327"/>
     <use style="fill:#800080;stroke:#800080;" x="946.66293" xlink:href="#mbc69e71882" y="198.76421"/>
     <use style="fill:#800080;stroke:#800080;" x="962.199098" xlink:href="#mbc69e71882" y="196.749505"/>
     <use style="fill:#800080;stroke:#800080;" x="970.24404" xlink:href="#mbc69e71882" y="194.275099"/>
     <use style="fill:#800080;stroke:#800080;" x="979.10752" xlink:href="#mbc69e71882" y="191.850703"/>
     <use style="fill:#800080;stroke:#800080;" x="987.124375" xlink:href="#mbc69e71882" y="189.375065"/>
     <use style="fill:#800080;stroke:#800080;" x="1002.496033" xlink:href="#mbc69e71882" y="187.351491"/>
     <use style="fill:#800080;stroke:#800080;" x="1010.69746" xlink:href="#mbc69e71882" y="184.886446"/>
     <use style="fill:#800080;stroke:#800080;" x="1019.733475" xlink:href="#mbc69e71882" y="182.471658"/>
     <use style="fill:#800080;stroke:#800080;" x="1027.694156" xlink:href="#mbc69e71882" y="179.994295"/>
     <use style="fill:#800080;stroke:#800080;" x="1042.901303" xlink:href="#mbc69e71882" y="177.959143"/>
     <use style="fill:#800080;stroke:#800080;" x="1052.009542" xlink:href="#mbc69e71882" y="175.549774"/>
     <use style="fill:#800080;stroke:#800080;" x="1060.32733" xlink:href="#mbc69e71882" y="173.091381"/>
     <use style="fill:#800080;stroke:#800080;" x="1068.243874" xlink:href="#mbc69e71882" y="170.610816"/>
     <use style="fill:#800080;stroke:#800080;" x="1083.374786" xlink:href="#mbc69e71882" y="168.571722"/>
     <use style="fill:#800080;stroke:#800080;" x="1091.187006" xlink:href="#mbc69e71882" y="166.08278"/>
     <use style="fill:#800080;stroke:#800080;" x="1100.367469" xlink:href="#mbc69e71882" y="163.667992"/>
     <use style="fill:#800080;stroke:#800080;" x="1108.095428" xlink:href="#mbc69e71882" y="161.185702"/>
     <use style="fill:#800080;stroke:#800080;" x="1122.740834" xlink:href="#mbc69e71882" y="159.117045"/>
     <use style="fill:#800080;stroke:#800080;" x="1130.557068" xlink:href="#mbc69e71882" y="156.627611"/>
     <use style="fill:#800080;stroke:#800080;" x="1140.664404" xlink:href="#mbc69e71882" y="154.27318"/>
     <use style="fill:#800080;stroke:#800080;" x="1148.384339" xlink:href="#mbc69e71882" y="151.786702"/>
     <use style="fill:#800080;stroke:#800080;" x="1163.298578" xlink:href="#mbc69e71882" y="149.734798"/>
     <use style="fill:#800080;stroke:#800080;" x="1171.142898" xlink:href="#mbc69e71882" y="147.248073"/>
     <use style="fill:#800080;stroke:#800080;" x="1181.631416" xlink:href="#mbc69e71882" y="144.924437"/>
     <use style="fill:#800080;stroke:#800080;" x="1189.993341" xlink:href="#mbc69e71882" y="142.469246"/>
     <use style="fill:#800080;stroke:#800080;" x="1204.951718" xlink:href="#mbc69e71882" y="140.419805"/>
     <use style="fill:#800080;stroke:#800080;" x="1212.892336" xlink:href="#mbc69e71882" y="137.938747"/>
     <use style="fill:#800080;stroke:#800080;" x="1222.277434" xlink:href="#mbc69e71882" y="135.547117"/>
     <use style="fill:#800080;stroke:#800080;" x="1230.302314" xlink:href="#mbc69e71882" y="133.068276"/>
     <use style="fill:#800080;stroke:#800080;" x="1245.272727" xlink:href="#mbc69e71882" y="131.02253"/>
    </g>
   </g>
   <g id="line2d_17">
    <path clip-path="url(#p1b2ff3ac8d)" d="M 230.727273 487.589712 
L 249.336969 480.28356 
L 257.650745 477.019579 
L 272.356338 471.246175 
L 280.036148 468.231088 
L 289.517544 464.5087 
L 297.165254 461.506215 
L 311.505715 455.876162 
L 319.261761 452.831144 
L 329.304899 448.888217 
L 337.261567 445.764435 
L 352.540939 439.765767 
L 360.63403 436.588426 
L 371.226872 432.429685 
L 379.271814 429.271247 
L 393.528013 423.674275 
L 401.621105 420.496934 
L 411.596031 416.580786 
L 419.801471 413.359337 
L 434.210143 407.702504 
L 442.194898 404.567696 
L 452.498844 400.522375 
L 460.571873 397.35291 
L 474.394729 391.926069 
L 482.419609 388.775507 
L 492.635281 384.764843 
L 500.892883 381.522915 
L 514.900311 376.023611 
L 522.985378 372.84942 
L 533.301361 368.799373 
L 541.334266 365.645662 
L 555.442005 360.106975 
L 563.507009 356.940661 
L 573.682557 352.945749 
L 581.980283 349.688069 
L 596.03586 344.169861 
L 604.088827 341.008272 
L 614.376724 336.969253 
L 622.505927 333.777734 
L 637.664925 327.826324 
L 645.890427 324.596998 
L 654.432912 321.243226 
L 662.253158 318.173004 
L 676.505345 312.577607 
L 684.47405 309.4491 
L 694.854233 305.373849 
L 702.838988 302.23904 
L 717.753228 296.383722 
L 726.171327 293.078783 
L 735.773096 289.309137 
L 743.801988 286.157 
L 758.964999 280.204015 
L 766.985867 277.055029 
L 776.856469 273.179838 
L 784.957585 269.999347 
L 800.160721 264.030608 
L 808.221712 260.865869 
L 817.209578 257.337241 
L 825.186309 254.205583 
L 840.618153 248.147053 
L 849.048289 244.837389 
L 857.735222 241.426906 
L 866.024923 238.172376 
L 881.179909 232.222541 
L 889.252938 229.053077 
L 898.15253 225.559104 
L 906.17741 222.408543 
L 921.669441 216.326384 
L 929.706358 213.171097 
L 938.670149 209.65192 
L 946.66293 206.513961 
L 962.199098 200.414474 
L 970.24404 197.256037 
L 979.10752 193.776242 
L 987.124375 190.628831 
L 1002.496033 184.593931 
L 1010.69746 181.374057 
L 1019.733475 177.826525 
L 1027.694156 174.701168 
L 1042.901303 168.730855 
L 1052.009542 165.154968 
L 1060.32733 161.889411 
L 1068.243874 158.781382 
L 1083.374786 152.840999 
L 1091.187006 149.773927 
L 1100.367469 146.169685 
L 1108.095428 143.135695 
L 1122.740834 137.38592 
L 1130.557068 134.317274 
L 1140.664404 130.349142 
L 1148.384339 127.318302 
L 1163.298578 121.462984 
L 1171.142898 118.38331 
L 1181.631416 114.265526 
L 1189.993341 110.982641 
L 1204.951718 105.109995 
L 1212.892336 101.992515 
L 1222.277434 98.307933 
L 1230.302314 95.157372 
L 1245.272727 89.28 
" style="fill:none;stroke:#0000ff;stroke-linecap:square;stroke-width:1.5;"/>
   </g>
   <g id="line2d_18">
    <path clip-path="url(#p1b2ff3ac8d)" d="M 230.727273 489.344324 
L 249.336969 489.325814 
L 257.650745 489.317545 
L 272.356338 489.302919 
L 280.036148 489.29528 
L 289.517544 489.28585 
L 297.165254 489.278243 
L 311.505715 489.26398 
L 319.261761 489.256265 
L 329.304899 489.246276 
L 337.261567 489.238362 
L 352.540939 489.223165 
L 360.63403 489.215115 
L 371.226872 489.20458 
L 379.271814 489.196578 
L 393.528013 489.182398 
L 401.621105 489.174349 
L 411.596031 489.164427 
L 419.801471 489.156266 
L 434.210143 489.141935 
L 442.194898 489.133993 
L 452.498844 489.123744 
L 460.571873 489.115715 
L 474.394729 489.101966 
L 482.419609 489.093984 
L 492.635281 489.083824 
L 500.892883 489.07561 
L 514.900311 489.061678 
L 522.985378 489.053637 
L 533.301361 489.043376 
L 541.334266 489.035386 
L 555.442005 489.021354 
L 563.507009 489.013333 
L 573.682557 489.003212 
L 581.980283 488.994959 
L 596.03586 488.980979 
L 604.088827 488.972969 
L 614.376724 488.962736 
L 622.505927 488.954651 
L 637.664925 488.939573 
L 645.890427 488.931392 
L 654.432912 488.922895 
L 662.253158 488.915117 
L 676.505345 488.900942 
L 684.47405 488.893016 
L 694.854233 488.882691 
L 702.838988 488.874749 
L 717.753228 488.859915 
L 726.171327 488.851543 
L 735.773096 488.841992 
L 743.801988 488.834007 
L 758.964999 488.818925 
L 766.985867 488.810947 
L 776.856469 488.80113 
L 784.957585 488.793072 
L 800.160721 488.777951 
L 808.221712 488.769933 
L 817.209578 488.760994 
L 825.186309 488.75306 
L 840.618153 488.737711 
L 849.048289 488.729326 
L 857.735222 488.720686 
L 866.024923 488.71244 
L 881.179909 488.697367 
L 889.252938 488.689337 
L 898.15253 488.680486 
L 906.17741 488.672504 
L 921.669441 488.657095 
L 929.706358 488.649101 
L 938.670149 488.640186 
L 946.66293 488.632236 
L 962.199098 488.616783 
L 970.24404 488.608781 
L 979.10752 488.599966 
L 987.124375 488.591992 
L 1002.496033 488.576703 
L 1010.69746 488.568545 
L 1019.733475 488.559558 
L 1027.694156 488.55164 
L 1042.901303 488.536515 
L 1052.009542 488.527455 
L 1060.32733 488.519182 
L 1068.243874 488.511308 
L 1083.374786 488.496259 
L 1091.187006 488.488488 
L 1100.367469 488.479357 
L 1108.095428 488.471671 
L 1122.740834 488.457104 
L 1130.557068 488.44933 
L 1140.664404 488.439277 
L 1148.384339 488.431598 
L 1163.298578 488.416764 
L 1171.142898 488.408962 
L 1181.631416 488.39853 
L 1189.993341 488.390213 
L 1204.951718 488.375335 
L 1212.892336 488.367437 
L 1222.277434 488.358102 
L 1230.302314 488.350121 
L 1245.272727 488.335231 
" style="fill:none;stroke:#008000;stroke-linecap:square;stroke-width:1.5;"/>
    <defs>
     <path d="M 0 3 
C 0.795609 3 1.55874 2.683901 2.12132 2.12132 
C 2.683901 1.55874 3 0.795609 3 0 
C 3 -0.795609 2.683901 -1.55874 2.12132 -2.12132 
C 1.55874 -2.683901 0.795609 -3 0 -3 
C -0.795609 -3 -1.55874 -2.683901 -2.12132 -2.12132 
C -2.683901 -1.55874 -3 -0.795609 -3 0 
C -3 0.795609 -2.683901 1.55874 -2.12132 2.12132 
C -1.55874 2.683901 -0.795609 3 0 3 
z
" id="m6ae778b970" style="stroke:#008000;"/>
    </defs>
    <g clip-path="url(#p1b2ff3ac8d)">
     <use style="fill:#008000;stroke:#008000;" x="230.727273" xlink:href="#m6ae778b970" y="489.344324"/>
     <use style="fill:#008000;stroke:#008000;" x="249.336969" xlink:href="#m6ae778b970" y="489.325814"/>
     <use style="fill:#008000;stroke:#008000;" x="257.650745" xlink:href="#m6ae778b970" y="489.317545"/>
     <use style="fill:#008000;stroke:#008000;" x="272.356338" xlink:href="#m6ae778b970" y="489.302919"/>
     <use style="fill:#008000;stroke:#008000;" x="280.036148" xlink:href="#m6ae778b970" y="489.29528"/>
     <use style="fill:#008000;stroke:#008000;" x="289.517544" xlink:href="#m6ae778b970" y="489.28585"/>
     <use style="fill:#008000;stroke:#008000;" x="297.165254" xlink:href="#m6ae778b970" y="489.278243"/>
     <use style="fill:#008000;stroke:#008000;" x="311.505715" xlink:href="#m6ae778b970" y="489.26398"/>
     <use style="fill:#008000;stroke:#008000;" x="319.261761" xlink:href="#m6ae778b970" y="489.256265"/>
     <use style="fill:#008000;stroke:#008000;" x="329.304899" xlink:href="#m6ae778b970" y="489.246276"/>
     <use style="fill:#008000;stroke:#008000;" x="337.261567" xlink:href="#m6ae778b970" y="489.238362"/>
     <use style="fill:#008000;stroke:#008000;" x="352.540939" xlink:href="#m6ae778b970" y="489.223165"/>
     <use style="fill:#008000;stroke:#008000;" x="360.63403" xlink:href="#m6ae778b970" y="489.215115"/>
     <use style="fill:#008000;stroke:#008000;" x="371.226872" xlink:href="#m6ae778b970" y="489.20458"/>
     <use style="fill:#008000;stroke:#008000;" x="379.271814" xlink:href="#m6ae778b970" y="489.196578"/>
     <use style="fill:#008000;stroke:#008000;" x="393.528013" xlink:href="#m6ae778b970" y="489.182398"/>
     <use style="fill:#008000;stroke:#008000;" x="401.621105" xlink:href="#m6ae778b970" y="489.174349"/>
     <use style="fill:#008000;stroke:#008000;" x="411.596031" xlink:href="#m6ae778b970" y="489.164427"/>
     <use style="fill:#008000;stroke:#008000;" x="419.801471" xlink:href="#m6ae778b970" y="489.156266"/>
     <use style="fill:#008000;stroke:#008000;" x="434.210143" xlink:href="#m6ae778b970" y="489.141935"/>
     <use style="fill:#008000;stroke:#008000;" x="442.194898" xlink:href="#m6ae778b970" y="489.133993"/>
     <use style="fill:#008000;stroke:#008000;" x="452.498844" xlink:href="#m6ae778b970" y="489.123744"/>
     <use style="fill:#008000;stroke:#008000;" x="460.571873" xlink:href="#m6ae778b970" y="489.115715"/>
     <use style="fill:#008000;stroke:#008000;" x="474.394729" xlink:href="#m6ae778b970" y="489.101966"/>
     <use style="fill:#008000;stroke:#008000;" x="482.419609" xlink:href="#m6ae778b970" y="489.093984"/>
     <use style="fill:#008000;stroke:#008000;" x="492.635281" xlink:href="#m6ae778b970" y="489.083824"/>
     <use style="fill:#008000;stroke:#008000;" x="500.892883" xlink:href="#m6ae778b970" y="489.07561"/>
     <use style="fill:#008000;stroke:#008000;" x="514.900311" xlink:href="#m6ae778b970" y="489.061678"/>
     <use style="fill:#008000;stroke:#008000;" x="522.985378" xlink:href="#m6ae778b970" y="489.053637"/>
     <use style="fill:#008000;stroke:#008000;" x="533.301361" xlink:href="#m6ae778b970" y="489.043376"/>
     <use style="fill:#008000;stroke:#008000;" x="541.334266" xlink:href="#m6ae778b970" y="489.035386"/>
     <use style="fill:#008000;stroke:#008000;" x="555.442005" xlink:href="#m6ae778b970" y="489.021354"/>
     <use style="fill:#008000;stroke:#008000;" x="563.507009" xlink:href="#m6ae778b970" y="489.013333"/>
     <use style="fill:#008000;stroke:#008000;" x="573.682557" xlink:href="#m6ae778b970" y="489.003212"/>
     <use style="fill:#008000;stroke:#008000;" x="581.980283" xlink:href="#m6ae778b970" y="488.994959"/>
     <use style="fill:#008000;stroke:#008000;" x="596.03586" xlink:href="#m6ae778b970" y="488.980979"/>
     <use style="fill:#008000;stroke:#008000;" x="604.088827" xlink:href="#m6ae778b970" y="488.972969"/>
     <use style="fill:#008000;stroke:#008000;" x="614.376724" xlink:href="#m6ae778b970" y="488.962736"/>
     <use style="fill:#008000;stroke:#008000;" x="622.505927" xlink:href="#m6ae778b970" y="488.954651"/>
     <use style="fill:#008000;stroke:#008000;" x="637.664925" xlink:href="#m6ae778b970" y="488.939573"/>
     <use style="fill:#008000;stroke:#008000;" x="645.890427" xlink:href="#m6ae778b970" y="488.931392"/>
     <use style="fill:#008000;stroke:#008000;" x="654.432912" xlink:href="#m6ae778b970" y="488.922895"/>
     <use style="fill:#008000;stroke:#008000;" x="662.253158" xlink:href="#m6ae778b970" y="488.915117"/>
     <use style="fill:#008000;stroke:#008000;" x="676.505345" xlink:href="#m6ae778b970" y="488.900942"/>
     <use style="fill:#008000;stroke:#008000;" x="684.47405" xlink:href="#m6ae778b970" y="488.893016"/>
     <use style="fill:#008000;stroke:#008000;" x="694.854233" xlink:href="#m6ae778b970" y="488.882691"/>
     <use style="fill:#008000;stroke:#008000;" x="702.838988" xlink:href="#m6ae778b970" y="488.874749"/>
     <use style="fill:#008000;stroke:#008000;" x="717.753228" xlink:href="#m6ae778b970" y="488.859915"/>
     <use style="fill:#008000;stroke:#008000;" x="726.171327" xlink:href="#m6ae778b970" y="488.851543"/>
     <use style="fill:#008000;stroke:#008000;" x="735.773096" xlink:href="#m6ae778b970" y="488.841992"/>
     <use style="fill:#008000;stroke:#008000;" x="743.801988" xlink:href="#m6ae778b970" y="488.834007"/>
     <use style="fill:#008000;stroke:#008000;" x="758.964999" xlink:href="#m6ae778b970" y="488.818925"/>
     <use style="fill:#008000;stroke:#008000;" x="766.985867" xlink:href="#m6ae778b970" y="488.810947"/>
     <use style="fill:#008000;stroke:#008000;" x="776.856469" xlink:href="#m6ae778b970" y="488.80113"/>
     <use style="fill:#008000;stroke:#008000;" x="784.957585" xlink:href="#m6ae778b970" y="488.793072"/>
     <use style="fill:#008000;stroke:#008000;" x="800.160721" xlink:href="#m6ae778b970" y="488.777951"/>
     <use style="fill:#008000;stroke:#008000;" x="808.221712" xlink:href="#m6ae778b970" y="488.769933"/>
     <use style="fill:#008000;stroke:#008000;" x="817.209578" xlink:href="#m6ae778b970" y="488.760994"/>
     <use style="fill:#008000;stroke:#008000;" x="825.186309" xlink:href="#m6ae778b970" y="488.75306"/>
     <use style="fill:#008000;stroke:#008000;" x="840.618153" xlink:href="#m6ae778b970" y="488.737711"/>
     <use style="fill:#008000;stroke:#008000;" x="849.048289" xlink:href="#m6ae778b970" y="488.729326"/>
     <use style="fill:#008000;stroke:#008000;" x="857.735222" xlink:href="#m6ae778b970" y="488.720686"/>
     <use style="fill:#008000;stroke:#008000;" x="866.024923" xlink:href="#m6ae778b970" y="488.71244"/>
     <use style="fill:#008000;stroke:#008000;" x="881.179909" xlink:href="#m6ae778b970" y="488.697367"/>
     <use style="fill:#008000;stroke:#008000;" x="889.252938" xlink:href="#m6ae778b970" y="488.689337"/>
     <use style="fill:#008000;stroke:#008000;" x="898.15253" xlink:href="#m6ae778b970" y="488.680486"/>
     <use style="fill:#008000;stroke:#008000;" x="906.17741" xlink:href="#m6ae778b970" y="488.672504"/>
     <use style="fill:#008000;stroke:#008000;" x="921.669441" xlink:href="#m6ae778b970" y="488.657095"/>
     <use style="fill:#008000;stroke:#008000;" x="929.706358" xlink:href="#m6ae778b970" y="488.649101"/>
     <use style="fill:#008000;stroke:#008000;" x="938.670149" xlink:href="#m6ae778b970" y="488.640186"/>
     <use style="fill:#008000;stroke:#008000;" x="946.66293" xlink:href="#m6ae778b970" y="488.632236"/>
     <use style="fill:#008000;stroke:#008000;" x="962.199098" xlink:href="#m6ae778b970" y="488.616783"/>
     <use style="fill:#008000;stroke:#008000;" x="970.24404" xlink:href="#m6ae778b970" y="488.608781"/>
     <use style="fill:#008000;stroke:#008000;" x="979.10752" xlink:href="#m6ae778b970" y="488.599966"/>
     <use style="fill:#008000;stroke:#008000;" x="987.124375" xlink:href="#m6ae778b970" y="488.591992"/>
     <use style="fill:#008000;stroke:#008000;" x="1002.496033" xlink:href="#m6ae778b970" y="488.576703"/>
     <use style="fill:#008000;stroke:#008000;" x="1010.69746" xlink:href="#m6ae778b970" y="488.568545"/>
     <use style="fill:#008000;stroke:#008000;" x="1019.733475" xlink:href="#m6ae778b970" y="488.559558"/>
     <use style="fill:#008000;stroke:#008000;" x="1027.694156" xlink:href="#m6ae778b970" y="488.55164"/>
     <use style="fill:#008000;stroke:#008000;" x="1042.901303" xlink:href="#m6ae778b970" y="488.536515"/>
     <use style="fill:#008000;stroke:#008000;" x="1052.009542" xlink:href="#m6ae778b970" y="488.527455"/>
     <use style="fill:#008000;stroke:#008000;" x="1060.32733" xlink:href="#m6ae778b970" y="488.519182"/>
     <use style="fill:#008000;stroke:#008000;" x="1068.243874" xlink:href="#m6ae778b970" y="488.511308"/>
     <use style="fill:#008000;stroke:#008000;" x="1083.374786" xlink:href="#m6ae778b970" y="488.496259"/>
     <use style="fill:#008000;stroke:#008000;" x="1091.187006" xlink:href="#m6ae778b970" y="488.488488"/>
     <use style="fill:#008000;stroke:#008000;" x="1100.367469" xlink:href="#m6ae778b970" y="488.479357"/>
     <use style="fill:#008000;stroke:#008000;" x="1108.095428" xlink:href="#m6ae778b970" y="488.471671"/>
     <use style="fill:#008000;stroke:#008000;" x="1122.740834" xlink:href="#m6ae778b970" y="488.457104"/>
     <use style="fill:#008000;stroke:#008000;" x="1130.557068" xlink:href="#m6ae778b970" y="488.44933"/>
     <use style="fill:#008000;stroke:#008000;" x="1140.664404" xlink:href="#m6ae778b970" y="488.439277"/>
     <use style="fill:#008000;stroke:#008000;" x="1148.384339" xlink:href="#m6ae778b970" y="488.431598"/>
     <use style="fill:#008000;stroke:#008000;" x="1163.298578" xlink:href="#m6ae778b970" y="488.416764"/>
     <use style="fill:#008000;stroke:#008000;" x="1171.142898" xlink:href="#m6ae778b970" y="488.408962"/>
     <use style="fill:#008000;stroke:#008000;" x="1181.631416" xlink:href="#m6ae778b970" y="488.39853"/>
     <use style="fill:#008000;stroke:#008000;" x="1189.993341" xlink:href="#m6ae778b970" y="488.390213"/>
     <use style="fill:#008000;stroke:#008000;" x="1204.951718" xlink:href="#m6ae778b970" y="488.375335"/>
     <use style="fill:#008000;stroke:#008000;" x="1212.892336" xlink:href="#m6ae778b970" y="488.367437"/>
     <use style="fill:#008000;stroke:#008000;" x="1222.277434" xlink:href="#m6ae778b970" y="488.358102"/>
     <use style="fill:#008000;stroke:#008000;" x="1230.302314" xlink:href="#m6ae778b970" y="488.350121"/>
     <use style="fill:#008000;stroke:#008000;" x="1245.272727" xlink:href="#m6ae778b970" y="488.335231"/>
    </g>
   </g>
   <g id="patch_3">
    <path d="M 180 512.64 
L 180 69.12 
" style="fill:none;stroke:#000000;stroke-linecap:square;stroke-linejoin:miter;stroke-width:0.8;"/>
   </g>
   <g id="patch_4">
    <path d="M 1296 512.64 
L 1296 69.12 
" style="fill:none;stroke:#000000;stroke-linecap:square;stroke-linejoin:miter;stroke-width:0.8;"/>
   </g>
   <g id="patch_5">
    <path d="M 180 512.64 
L 1296 512.64 
" style="fill:none;stroke:#000000;stroke-linecap:square;stroke-linejoin:miter;stroke-width:0.8;"/>
   </g>
   <g id="patch_6">
    <path d="M 180 69.12 
L 1296 69.12 
" style="fill:none;stroke:#000000;stroke-linecap:square;stroke-linejoin:miter;stroke-width:0.8;"/>
   </g>
   <g id="text_15">
    <!-- 5000000.0 bit/s -->
    <defs>
     <path id="DejaVuSans-20"/>
     <path d="M 48.6875 27.296875 
Q 48.6875 37.203125 44.609375 42.84375 
Q 40.53125 48.484375 33.40625 48.484375 
Q 26.265625 48.484375 22.1875 42.84375 
Q 18.109375 37.203125 18.109375 27.296875 
Q 18.109375 17.390625 22.1875 11.75 
Q 26.265625 6.109375 33.40625 6.109375 
Q 40.53125 6.109375 44.609375 11.75 
Q 48.6875 17.390625 48.6875 27.296875 
z
M 18.109375 46.390625 
Q 20.953125 51.265625 25.265625 53.625 
Q 29.59375 56 35.59375 56 
Q 45.5625 56 51.78125 48.09375 
Q 58.015625 40.1875 58.015625 27.296875 
Q 58.015625 14.40625 51.78125 6.484375 
Q 45.5625 -1.421875 35.59375 -1.421875 
Q 29.59375 -1.421875 25.265625 0.953125 
Q 20.953125 3.328125 18.109375 8.203125 
L 18.109375 0 
L 9.078125 0 
L 9.078125 75.984375 
L 18.109375 75.984375 
z
" id="DejaVuSans-62"/>
     <path d="M 9.421875 54.6875 
L 18.40625 54.6875 
L 18.40625 0 
L 9.421875 0 
z
M 9.421875 75.984375 
L 18.40625 75.984375 
L 18.40625 64.59375 
L 9.421875 64.59375 
z
" id="DejaVuSans-69"/>
     <path d="M 18.3125 70.21875 
L 18.3125 54.6875 
L 36.8125 54.6875 
L 36.8125 47.703125 
L 18.3125 47.703125 
L 18.3125 18.015625 
Q 18.3125 11.328125 20.140625 9.421875 
Q 21.96875 7.515625 27.59375 7.515625 
L 36.8125 7.515625 
L 36.8125 0 
L 27.59375 0 
Q 17.1875 0 13.234375 3.875 
Q 9.28125 7.765625 9.28125 18.015625 
L 9.28125 47.703125 
L 2.6875 47.703125 
L 2.6875 54.6875 
L 9.28125 54.6875 
L 9.28125 70.21875 
z
" id="DejaVuSans-74"/>
     <path d="M 25.390625 72.90625 
L 33.6875 72.90625 
L 8.296875 -9.28125 
L 0 -9.28125 
z
" id="DejaVuSans-2f"/>
     <path d="M 44.28125 53.078125 
L 44.28125 44.578125 
Q 40.484375 46.53125 36.375 47.5 
Q 32.28125 48.484375 27.875 48.484375 
Q 21.1875 48.484375 17.84375 46.4375 
Q 14.5 44.390625 14.5 40.28125 
Q 14.5 37.15625 16.890625 35.375 
Q 19.28125 33.59375 26.515625 31.984375 
L 29.59375 31.296875 
Q 39.15625 29.25 43.1875 25.515625 
Q 47.21875 21.78125 47.21875 15.09375 
Q 47.21875 7.46875 41.1875 3.015625 
Q 35.15625 -1.421875 24.609375 -1.421875 
Q 20.21875 -1.421875 15.453125 -0.5625 
Q 10.6875 0.296875 5.421875 2 
L 5.421875 11.28125 
Q 10.40625 8.6875 15.234375 7.390625 
Q 20.0625 6.109375 24.8125 6.109375 
Q 31.15625 6.109375 34.5625 8.28125 
Q 37.984375 10.453125 37.984375 14.40625 
Q 37.984375 18.0625 35.515625 20.015625 
Q 33.0625 21.96875 24.703125 23.78125 
L 21.578125 24.515625 
Q 13.234375 26.265625 9.515625 29.90625 
Q 5.8125 33.546875 5.8125 39.890625 
Q 5.8125 47.609375 11.28125 51.796875 
Q 16.75 56 26.8125 56 
Q 31.78125 56 36.171875 55.265625 
Q 40.578125 54.546875 44.28125 53.078125 
z
" id="DejaVuSans-73"/>
    </defs>
    <g transform="translate(690.67125 63.12)scale(0.12 -0.12)">
     <use xlink:href="#DejaVuSans-35"/>
     <use x="63.623047" xlink:href="#DejaVuSans-30"/>
     <use x="127.246094" xlink:href="#DejaVuSans-30"/>
     <use x="190.869141" xlink:href="#DejaVuSans-30"/>
     <use x="254.492188" xlink:href="#DejaVuSans-30"/>
     <use x="318.115234" xlink:href="#DejaVuSans-30"/>
     <use x="381.738281" xlink:href="#DejaVuSans-30"/>
     <use x="445.361328" xlink:href="#DejaVuSans-2e"/>
     <use x="477.148438" xlink:href="#DejaVuSans-30"/>
     <use x="540.771484" xlink:href="#DejaVuSans-20"/>
     <use x="572.558594" xlink:href="#DejaVuSans-62"/>
     <use x="636.035156" xlink:href="#DejaVuSans-69"/>
     <use x="663.818359" xlink:href="#DejaVuSans-74"/>
     <use x="703.027344" xlink:href="#DejaVuSans-2f"/>
     <use x="736.71875" xlink:href="#DejaVuSans-73"/>
    </g>
   </g>
   <g id="legend_1">
    <g id="patch_7">
     <path d="M 1173.520313 135.8325 
L 1289 135.8325 
Q 1291 135.8325 1291 133.8325 
L 1291 76.12 
Q 1291 74.12 1289 74.12 
L 1173.520313 74.12 
Q 1171.520313 74.12 1171.520313 76.12 
L 1171.520313 133.8325 
Q 1171.520313 135.8325 1173.520313 135.8325 
z
" style="fill:#ffffff;opacity:0.8;stroke:#cccccc;stroke-linejoin:miter;"/>
    </g>
    <g id="line2d_19">
     <path d="M 1175.520313 82.218437 
L 1195.520313 82.218437 
" style="fill:none;stroke:#ff0000;stroke-dasharray:5.55,2.4;stroke-dashoffset:0;stroke-width:1.5;"/>
    </g>
    <g id="line2d_20">
     <g>
      <use style="fill:#ff0000;stroke:#ff0000;stroke-linejoin:miter;" x="1185.520313" xlink:href="#m8b8d095311" y="82.218437"/>
     </g>
    </g>
    <g id="text_16">
     <!-- tcpdump -->
     <defs>
      <path d="M 48.78125 52.59375 
L 48.78125 44.1875 
Q 44.96875 46.296875 41.140625 47.34375 
Q 37.3125 48.390625 33.40625 48.390625 
Q 24.65625 48.390625 19.8125 42.84375 
Q 14.984375 37.3125 14.984375 27.296875 
Q 14.984375 17.28125 19.8125 11.734375 
Q 24.65625 6.203125 33.40625 6.203125 
Q 37.3125 6.203125 41.140625 7.25 
Q 44.96875 8.296875 48.78125 10.40625 
L 48.78125 2.09375 
Q 45.015625 0.34375 40.984375 -0.53125 
Q 36.96875 -1.421875 32.421875 -1.421875 
Q 20.0625 -1.421875 12.78125 6.34375 
Q 5.515625 14.109375 5.515625 27.296875 
Q 5.515625 40.671875 12.859375 48.328125 
Q 20.21875 56 33.015625 56 
Q 37.15625 56 41.109375 55.140625 
Q 45.0625 54.296875 48.78125 52.59375 
z
" id="DejaVuSans-63"/>
      <path d="M 18.109375 8.203125 
L 18.109375 -20.796875 
L 9.078125 -20.796875 
L 9.078125 54.6875 
L 18.109375 54.6875 
L 18.109375 46.390625 
Q 20.953125 51.265625 25.265625 53.625 
Q 29.59375 56 35.59375 56 
Q 45.5625 56 51.78125 48.09375 
Q 58.015625 40.1875 58.015625 27.296875 
Q 58.015625 14.40625 51.78125 6.484375 
Q 45.5625 -1.421875 35.59375 -1.421875 
Q 29.59375 -1.421875 25.265625 0.953125 
Q 20.953125 3.328125 18.109375 8.203125 
z
M 48.6875 27.296875 
Q 48.6875 37.203125 44.609375 42.84375 
Q 40.53125 48.484375 33.40625 48.484375 
Q 26.265625 48.484375 22.1875 42.84375 
Q 18.109375 37.203125 18.109375 27.296875 
Q 18.109375 17.390625 22.1875 11.75 
Q 26.265625 6.109375 33.40625 6.109375 
Q 40.53125 6.109375 44.609375 11.75 
Q 48.6875 17.390625 48.6875 27.296875 
z
" id="DejaVuSans-70"/>
      <path d="M 45.40625 46.390625 
L 45.40625 75.984375 
L 54.390625 75.984375 
L 54.390625 0 
L 45.40625 0 
L 45.40625 8.203125 
Q 42.578125 3.328125 38.25 0.953125 
Q 33.9375 -1.421875 27.875 -1.421875 
Q 17.96875 -1.421875 11.734375 6.484375 
Q 5.515625 14.40625 5.515625 27.296875 
Q 5.515625 40.1875 11.734375 48.09375 
Q 17.96875 56 27.875 56 
Q 33.9375 56 38.25 53.625 
Q 42.578125 51.265625 45.40625 46.390625 
z
M 14.796875 27.296875 
Q 14.796875 17.390625 18.875 11.75 
Q 22.953125 6.109375 30.078125 6.109375 
Q 37.203125 6.109375 41.296875 11.75 
Q 45.40625 17.390625 45.40625 27.296875 
Q 45.40625 37.203125 41.296875 42.84375 
Q 37.203125 48.484375 30.078125 48.484375 
Q 22.953125 48.484375 18.875 42.84375 
Q 14.796875 37.203125 14.796875 27.296875 
z
" id="DejaVuSans-64"/>
      <path d="M 8.5 21.578125 
L 8.5 54.6875 
L 17.484375 54.6875 
L 17.484375 21.921875 
Q 17.484375 14.15625 20.5 10.265625 
Q 23.53125 6.390625 29.59375 6.390625 
Q 36.859375 6.390625 41.078125 11.03125 
Q 45.3125 15.671875 45.3125 23.6875 
L 45.3125 54.6875 
L 54.296875 54.6875 
L 54.296875 0 
L 45.3125 0 
L 45.3125 8.40625 
Q 42.046875 3.421875 37.71875 1 
Q 33.40625 -1.421875 27.6875 -1.421875 
Q 18.265625 -1.421875 13.375 4.4375 
Q 8.5 10.296875 8.5 21.578125 
z
M 31.109375 56 
z
" id="DejaVuSans-75"/>
      <path d="M 52 44.1875 
Q 55.375 50.25 60.0625 53.125 
Q 64.75 56 71.09375 56 
Q 79.640625 56 84.28125 50.015625 
Q 88.921875 44.046875 88.921875 33.015625 
L 88.921875 0 
L 79.890625 0 
L 79.890625 32.71875 
Q 79.890625 40.578125 77.09375 44.375 
Q 74.3125 48.1875 68.609375 48.1875 
Q 61.625 48.1875 57.5625 43.546875 
Q 53.515625 38.921875 53.515625 30.90625 
L 53.515625 0 
L 44.484375 0 
L 44.484375 32.71875 
Q 44.484375 40.625 41.703125 44.40625 
Q 38.921875 48.1875 33.109375 48.1875 
Q 26.21875 48.1875 22.15625 43.53125 
Q 18.109375 38.875 18.109375 30.90625 
L 18.109375 0 
L 9.078125 0 
L 9.078125 54.6875 
L 18.109375 54.6875 
L 18.109375 46.1875 
Q 21.1875 51.21875 25.484375 53.609375 
Q 29.78125 56 35.6875 56 
Q 41.65625 56 45.828125 52.96875 
Q 50 49.953125 52 44.1875 
z
" id="DejaVuSans-6d"/>
     </defs>
     <g transform="translate(1203.520313 85.718437)scale(0.1 -0.1)">
      <use xlink:href="#DejaVuSans-74"/>
      <use x="39.208984" xlink:href="#DejaVuSans-63"/>
      <use x="94.189453" xlink:href="#DejaVuSans-70"/>
      <use x="157.666016" xlink:href="#DejaVuSans-64"/>
      <use x="221.142578" xlink:href="#DejaVuSans-75"/>
      <use x="284.521484" xlink:href="#DejaVuSans-6d"/>
      <use x="381.933594" xlink:href="#DejaVuSans-70"/>
     </g>
    </g>
    <g id="line2d_21">
     <path d="M 1175.520313 96.896563 
L 1195.520313 96.896563 
" style="fill:none;stroke:#800080;stroke-dasharray:9.6,2.4,1.5,2.4;stroke-dashoffset:0;stroke-width:1.5;"/>
    </g>
    <g id="line2d_22">
     <g>
      <use style="fill:#800080;stroke:#800080;" x="1185.520313" xlink:href="#mbc69e71882" y="96.896563"/>
     </g>
    </g>
    <g id="text_17">
     <!-- filtered tcpdump -->
     <defs>
      <path d="M 37.109375 75.984375 
L 37.109375 68.5 
L 28.515625 68.5 
Q 23.6875 68.5 21.796875 66.546875 
Q 19.921875 64.59375 19.921875 59.515625 
L 19.921875 54.6875 
L 34.71875 54.6875 
L 34.71875 47.703125 
L 19.921875 47.703125 
L 19.921875 0 
L 10.890625 0 
L 10.890625 47.703125 
L 2.296875 47.703125 
L 2.296875 54.6875 
L 10.890625 54.6875 
L 10.890625 58.5 
Q 10.890625 67.625 15.140625 71.796875 
Q 19.390625 75.984375 28.609375 75.984375 
z
" id="DejaVuSans-66"/>
      <path d="M 9.421875 75.984375 
L 18.40625 75.984375 
L 18.40625 0 
L 9.421875 0 
z
" id="DejaVuSans-6c"/>
      <path d="M 56.203125 29.59375 
L 56.203125 25.203125 
L 14.890625 25.203125 
Q 15.484375 15.921875 20.484375 11.0625 
Q 25.484375 6.203125 34.421875 6.203125 
Q 39.59375 6.203125 44.453125 7.46875 
Q 49.3125 8.734375 54.109375 11.28125 
L 54.109375 2.78125 
Q 49.265625 0.734375 44.1875 -0.34375 
Q 39.109375 -1.421875 33.890625 -1.421875 
Q 20.796875 -1.421875 13.15625 6.1875 
Q 5.515625 13.8125 5.515625 26.8125 
Q 5.515625 40.234375 12.765625 48.109375 
Q 20.015625 56 32.328125 56 
Q 43.359375 56 49.78125 48.890625 
Q 56.203125 41.796875 56.203125 29.59375 
z
M 47.21875 32.234375 
Q 47.125 39.59375 43.09375 43.984375 
Q 39.0625 48.390625 32.421875 48.390625 
Q 24.90625 48.390625 20.390625 44.140625 
Q 15.875 39.890625 15.1875 32.171875 
z
" id="DejaVuSans-65"/>
      <path d="M 41.109375 46.296875 
Q 39.59375 47.171875 37.8125 47.578125 
Q 36.03125 48 33.890625 48 
Q 26.265625 48 22.1875 43.046875 
Q 18.109375 38.09375 18.109375 28.8125 
L 18.109375 0 
L 9.078125 0 
L 9.078125 54.6875 
L 18.109375 54.6875 
L 18.109375 46.1875 
Q 20.953125 51.171875 25.484375 53.578125 
Q 30.03125 56 36.53125 56 
Q 37.453125 56 38.578125 55.875 
Q 39.703125 55.765625 41.0625 55.515625 
z
" id="DejaVuSans-72"/>
     </defs>
     <g transform="translate(1203.520313 100.396563)scale(0.1 -0.1)">
      <use xlink:href="#DejaVuSans-66"/>
      <use x="35.205078" xlink:href="#DejaVuSans-69"/>
      <use x="62.988281" xlink:href="#DejaVuSans-6c"/>
      <use x="90.771484" xlink:href="#DejaVuSans-74"/>
      <use x="129.980469" xlink:href="#DejaVuSans-65"/>
      <use x="191.503906" xlink:href="#DejaVuSans-72"/>
      <use x="232.585938" xlink:href="#DejaVuSans-65"/>
      <use x="294.109375" xlink:href="#DejaVuSans-64"/>
      <use x="357.585938" xlink:href="#DejaVuSans-20"/>
      <use x="389.373047" xlink:href="#DejaVuSans-74"/>
      <use x="428.582031" xlink:href="#DejaVuSans-63"/>
      <use x="483.5625" xlink:href="#DejaVuSans-70"/>
      <use x="547.039062" xlink:href="#DejaVuSans-64"/>
      <use x="610.515625" xlink:href="#DejaVuSans-75"/>
      <use x="673.894531" xlink:href="#DejaVuSans-6d"/>
      <use x="771.306641" xlink:href="#DejaVuSans-70"/>
     </g>
    </g>
    <g id="line2d_23">
     <path d="M 1175.520313 111.574687 
L 1195.520313 111.574687 
" style="fill:none;stroke:#0000ff;stroke-linecap:square;stroke-width:1.5;"/>
    </g>
    <g id="line2d_24"/>
    <g id="text_18">
     <!-- OLS -->
     <defs>
      <path d="M 39.40625 66.21875 
Q 28.65625 66.21875 22.328125 58.203125 
Q 16.015625 50.203125 16.015625 36.375 
Q 16.015625 22.609375 22.328125 14.59375 
Q 28.65625 6.59375 39.40625 6.59375 
Q 50.140625 6.59375 56.421875 14.59375 
Q 62.703125 22.609375 62.703125 36.375 
Q 62.703125 50.203125 56.421875 58.203125 
Q 50.140625 66.21875 39.40625 66.21875 
z
M 39.40625 74.21875 
Q 54.734375 74.21875 63.90625 63.9375 
Q 73.09375 53.65625 73.09375 36.375 
Q 73.09375 19.140625 63.90625 8.859375 
Q 54.734375 -1.421875 39.40625 -1.421875 
Q 24.03125 -1.421875 14.8125 8.828125 
Q 5.609375 19.09375 5.609375 36.375 
Q 5.609375 53.65625 14.8125 63.9375 
Q 24.03125 74.21875 39.40625 74.21875 
z
" id="DejaVuSans-4f"/>
      <path d="M 9.8125 72.90625 
L 19.671875 72.90625 
L 19.671875 8.296875 
L 55.171875 8.296875 
L 55.171875 0 
L 9.8125 0 
z
" id="DejaVuSans-4c"/>
      <path d="M 53.515625 70.515625 
L 53.515625 60.890625 
Q 47.90625 63.578125 42.921875 64.890625 
Q 37.9375 66.21875 33.296875 66.21875 
Q 25.25 66.21875 20.875 63.09375 
Q 16.5 59.96875 16.5 54.203125 
Q 16.5 49.359375 19.40625 46.890625 
Q 22.3125 44.4375 30.421875 42.921875 
L 36.375 41.703125 
Q 47.40625 39.59375 52.65625 34.296875 
Q 57.90625 29 57.90625 20.125 
Q 57.90625 9.515625 50.796875 4.046875 
Q 43.703125 -1.421875 29.984375 -1.421875 
Q 24.8125 -1.421875 18.96875 -0.25 
Q 13.140625 0.921875 6.890625 3.21875 
L 6.890625 13.375 
Q 12.890625 10.015625 18.65625 8.296875 
Q 24.421875 6.59375 29.984375 6.59375 
Q 38.421875 6.59375 43.015625 9.90625 
Q 47.609375 13.234375 47.609375 19.390625 
Q 47.609375 24.75 44.3125 27.78125 
Q 41.015625 30.8125 33.5 32.328125 
L 27.484375 33.5 
Q 16.453125 35.6875 11.515625 40.375 
Q 6.59375 45.0625 6.59375 53.421875 
Q 6.59375 63.09375 13.40625 68.65625 
Q 20.21875 74.21875 32.171875 74.21875 
Q 37.3125 74.21875 42.625 73.28125 
Q 47.953125 72.359375 53.515625 70.515625 
z
" id="DejaVuSans-53"/>
     </defs>
     <g transform="translate(1203.520313 115.074687)scale(0.1 -0.1)">
      <use xlink:href="#DejaVuSans-4f"/>
      <use x="78.710938" xlink:href="#DejaVuSans-4c"/>
      <use x="134.423828" xlink:href="#DejaVuSans-53"/>
     </g>
    </g>
    <g id="line2d_25">
     <path d="M 1175.520313 126.252813 
L 1195.520313 126.252813 
" style="fill:none;stroke:#008000;stroke-linecap:square;stroke-width:1.5;"/>
    </g>
    <g id="line2d_26">
     <g>
      <use style="fill:#008000;stroke:#008000;" x="1185.520313" xlink:href="#m6ae778b970" y="126.252813"/>
     </g>
    </g>
    <g id="text_19">
     <!-- IRLS -->
     <defs>
      <path d="M 9.8125 72.90625 
L 19.671875 72.90625 
L 19.671875 0 
L 9.8125 0 
z
" id="DejaVuSans-49"/>
      <path d="M 44.390625 34.1875 
Q 47.5625 33.109375 50.5625 29.59375 
Q 53.5625 26.078125 56.59375 19.921875 
L 66.609375 0 
L 56 0 
L 46.6875 18.703125 
Q 43.0625 26.03125 39.671875 28.421875 
Q 36.28125 30.8125 30.421875 30.8125 
L 19.671875 30.8125 
L 19.671875 0 
L 9.8125 0 
L 9.8125 72.90625 
L 32.078125 72.90625 
Q 44.578125 72.90625 50.734375 67.671875 
Q 56.890625 62.453125 56.890625 51.90625 
Q 56.890625 45.015625 53.6875 40.46875 
Q 50.484375 35.9375 44.390625 34.1875 
z
M 19.671875 64.796875 
L 19.671875 38.921875 
L 32.078125 38.921875 
Q 39.203125 38.921875 42.84375 42.21875 
Q 46.484375 45.515625 46.484375 51.90625 
Q 46.484375 58.296875 42.84375 61.546875 
Q 39.203125 64.796875 32.078125 64.796875 
z
" id="DejaVuSans-52"/>
     </defs>
     <g transform="translate(1203.520313 129.752813)scale(0.1 -0.1)">
      <use xlink:href="#DejaVuSans-49"/>
      <use x="29.492188" xlink:href="#DejaVuSans-52"/>
      <use x="98.974609" xlink:href="#DejaVuSans-4c"/>
      <use x="154.6875" xlink:href="#DejaVuSans-53"/>
     </g>
    </g>
   </g>
  </g>
 </g>
 <defs>
  <clipPath id="p1b2ff3ac8d">
   <rect height="443.52" width="1116" x="180" y="69.12"/>
  </clipPath>
 </defs>
</svg>
