<?xml version="1.0" encoding="utf-8" standalone="no"?>
<!DOCTYPE svg PUBLIC "-//W3C//DTD SVG 1.1//EN"
  "http://www.w3.org/Graphics/SVG/1.1/DTD/svg11.dtd">
<!-- Created with matplotlib (http://matplotlib.org/) -->
<svg height="576pt" version="1.1" viewBox="0 0 1440 576" width="1440pt" xmlns="http://www.w3.org/2000/svg" xmlns:xlink="http://www.w3.org/1999/xlink">
 <defs>
  <style type="text/css">
*{stroke-linecap:butt;stroke-linejoin:round;}
  </style>
 </defs>
 <g id="figure_1">
  <g id="patch_1">
   <path d="M 0 576 
L 1440 576 
L 1440 0 
L 0 0 
z
" style="fill:#ffffff;"/>
  </g>
  <g id="axes_1">
   <g id="patch_2">
    <path d="M 180 512.64 
L 1296 512.64 
L 1296 69.12 
L 180 69.12 
z
" style="fill:#ffffff;"/>
   </g>
   <g id="matplotlib.axis_1">
    <g id="xtick_1">
     <g id="line2d_1">
      <defs>
       <path d="M 0 0 
L 0 3.5 
" id="m67f6b6a429" style="stroke:#000000;stroke-width:0.8;"/>
      </defs>
      <g>
       <use style="stroke:#000000;stroke-width:0.8;" x="230.727273" xlink:href="#m67f6b6a429" y="512.64"/>
      </g>
     </g>
     <g id="text_1">
      <!-- 0.00 -->
      <defs>
       <path d="M 31.78125 66.40625 
Q 24.171875 66.40625 20.328125 58.90625 
Q 16.5 51.421875 16.5 36.375 
Q 16.5 21.390625 20.328125 13.890625 
Q 24.171875 6.390625 31.78125 6.390625 
Q 39.453125 6.390625 43.28125 13.890625 
Q 47.125 21.390625 47.125 36.375 
Q 47.125 51.421875 43.28125 58.90625 
Q 39.453125 66.40625 31.78125 66.40625 
z
M 31.78125 74.21875 
Q 44.046875 74.21875 50.515625 64.515625 
Q 56.984375 54.828125 56.984375 36.375 
Q 56.984375 17.96875 50.515625 8.265625 
Q 44.046875 -1.421875 31.78125 -1.421875 
Q 19.53125 -1.421875 13.0625 8.265625 
Q 6.59375 17.96875 6.59375 36.375 
Q 6.59375 54.828125 13.0625 64.515625 
Q 19.53125 74.21875 31.78125 74.21875 
z
" id="DejaVuSans-30"/>
       <path d="M 10.6875 12.40625 
L 21 12.40625 
L 21 0 
L 10.6875 0 
z
" id="DejaVuSans-2e"/>
      </defs>
      <g transform="translate(219.59446 527.238438)scale(0.1 -0.1)">
       <use xlink:href="#DejaVuSans-30"/>
       <use x="63.623047" xlink:href="#DejaVuSans-2e"/>
       <use x="95.410156" xlink:href="#DejaVuSans-30"/>
       <use x="159.033203" xlink:href="#DejaVuSans-30"/>
      </g>
     </g>
    </g>
    <g id="xtick_2">
     <g id="line2d_2">
      <g>
       <use style="stroke:#000000;stroke-width:0.8;" x="430.326215" xlink:href="#m67f6b6a429" y="512.64"/>
      </g>
     </g>
     <g id="text_2">
      <!-- 0.05 -->
      <defs>
       <path d="M 10.796875 72.90625 
L 49.515625 72.90625 
L 49.515625 64.59375 
L 19.828125 64.59375 
L 19.828125 46.734375 
Q 21.96875 47.46875 24.109375 47.828125 
Q 26.265625 48.1875 28.421875 48.1875 
Q 40.625 48.1875 47.75 41.5 
Q 54.890625 34.8125 54.890625 23.390625 
Q 54.890625 11.625 47.5625 5.09375 
Q 40.234375 -1.421875 26.90625 -1.421875 
Q 22.3125 -1.421875 17.546875 -0.640625 
Q 12.796875 0.140625 7.71875 1.703125 
L 7.71875 11.625 
Q 12.109375 9.234375 16.796875 8.0625 
Q 21.484375 6.890625 26.703125 6.890625 
Q 35.15625 6.890625 40.078125 11.328125 
Q 45.015625 15.765625 45.015625 23.390625 
Q 45.015625 31 40.078125 35.4375 
Q 35.15625 39.890625 26.703125 39.890625 
Q 22.75 39.890625 18.8125 39.015625 
Q 14.890625 38.140625 10.796875 36.28125 
z
" id="DejaVuSans-35"/>
      </defs>
      <g transform="translate(419.193402 527.238438)scale(0.1 -0.1)">
       <use xlink:href="#DejaVuSans-30"/>
       <use x="63.623047" xlink:href="#DejaVuSans-2e"/>
       <use x="95.410156" xlink:href="#DejaVuSans-30"/>
       <use x="159.033203" xlink:href="#DejaVuSans-35"/>
      </g>
     </g>
    </g>
    <g id="xtick_3">
     <g id="line2d_3">
      <g>
       <use style="stroke:#000000;stroke-width:0.8;" x="629.925157" xlink:href="#m67f6b6a429" y="512.64"/>
      </g>
     </g>
     <g id="text_3">
      <!-- 0.10 -->
      <defs>
       <path d="M 12.40625 8.296875 
L 28.515625 8.296875 
L 28.515625 63.921875 
L 10.984375 60.40625 
L 10.984375 69.390625 
L 28.421875 72.90625 
L 38.28125 72.90625 
L 38.28125 8.296875 
L 54.390625 8.296875 
L 54.390625 0 
L 12.40625 0 
z
" id="DejaVuSans-31"/>
      </defs>
      <g transform="translate(618.792344 527.238438)scale(0.1 -0.1)">
       <use xlink:href="#DejaVuSans-30"/>
       <use x="63.623047" xlink:href="#DejaVuSans-2e"/>
       <use x="95.410156" xlink:href="#DejaVuSans-31"/>
       <use x="159.033203" xlink:href="#DejaVuSans-30"/>
      </g>
     </g>
    </g>
    <g id="xtick_4">
     <g id="line2d_4">
      <g>
       <use style="stroke:#000000;stroke-width:0.8;" x="829.524099" xlink:href="#m67f6b6a429" y="512.64"/>
      </g>
     </g>
     <g id="text_4">
      <!-- 0.15 -->
      <g transform="translate(818.391286 527.238438)scale(0.1 -0.1)">
       <use xlink:href="#DejaVuSans-30"/>
       <use x="63.623047" xlink:href="#DejaVuSans-2e"/>
       <use x="95.410156" xlink:href="#DejaVuSans-31"/>
       <use x="159.033203" xlink:href="#DejaVuSans-35"/>
      </g>
     </g>
    </g>
    <g id="xtick_5">
     <g id="line2d_5">
      <g>
       <use style="stroke:#000000;stroke-width:0.8;" x="1029.123041" xlink:href="#m67f6b6a429" y="512.64"/>
      </g>
     </g>
     <g id="text_5">
      <!-- 0.20 -->
      <defs>
       <path d="M 19.1875 8.296875 
L 53.609375 8.296875 
L 53.609375 0 
L 7.328125 0 
L 7.328125 8.296875 
Q 12.9375 14.109375 22.625 23.890625 
Q 32.328125 33.6875 34.8125 36.53125 
Q 39.546875 41.84375 41.421875 45.53125 
Q 43.3125 49.21875 43.3125 52.78125 
Q 43.3125 58.59375 39.234375 62.25 
Q 35.15625 65.921875 28.609375 65.921875 
Q 23.96875 65.921875 18.8125 64.3125 
Q 13.671875 62.703125 7.8125 59.421875 
L 7.8125 69.390625 
Q 13.765625 71.78125 18.9375 73 
Q 24.125 74.21875 28.421875 74.21875 
Q 39.75 74.21875 46.484375 68.546875 
Q 53.21875 62.890625 53.21875 53.421875 
Q 53.21875 48.921875 51.53125 44.890625 
Q 49.859375 40.875 45.40625 35.40625 
Q 44.1875 33.984375 37.640625 27.21875 
Q 31.109375 20.453125 19.1875 8.296875 
z
" id="DejaVuSans-32"/>
      </defs>
      <g transform="translate(1017.990228 527.238438)scale(0.1 -0.1)">
       <use xlink:href="#DejaVuSans-30"/>
       <use x="63.623047" xlink:href="#DejaVuSans-2e"/>
       <use x="95.410156" xlink:href="#DejaVuSans-32"/>
       <use x="159.033203" xlink:href="#DejaVuSans-30"/>
      </g>
     </g>
    </g>
    <g id="xtick_6">
     <g id="line2d_6">
      <g>
       <use style="stroke:#000000;stroke-width:0.8;" x="1228.721983" xlink:href="#m67f6b6a429" y="512.64"/>
      </g>
     </g>
     <g id="text_6">
      <!-- 0.25 -->
      <g transform="translate(1217.58917 527.238438)scale(0.1 -0.1)">
       <use xlink:href="#DejaVuSans-30"/>
       <use x="63.623047" xlink:href="#DejaVuSans-2e"/>
       <use x="95.410156" xlink:href="#DejaVuSans-32"/>
       <use x="159.033203" xlink:href="#DejaVuSans-35"/>
      </g>
     </g>
    </g>
   </g>
   <g id="matplotlib.axis_2">
    <g id="ytick_1">
     <g id="line2d_7">
      <defs>
       <path d="M 0 0 
L -3.5 0 
" id="m28c03d40f4" style="stroke:#000000;stroke-width:0.8;"/>
      </defs>
      <g>
       <use style="stroke:#000000;stroke-width:0.8;" x="180" xlink:href="#m28c03d40f4" y="440.26788"/>
      </g>
     </g>
     <g id="text_7">
      <!-- 0.4 -->
      <defs>
       <path d="M 37.796875 64.3125 
L 12.890625 25.390625 
L 37.796875 25.390625 
z
M 35.203125 72.90625 
L 47.609375 72.90625 
L 47.609375 25.390625 
L 58.015625 25.390625 
L 58.015625 17.1875 
L 47.609375 17.1875 
L 47.609375 0 
L 37.796875 0 
L 37.796875 17.1875 
L 4.890625 17.1875 
L 4.890625 26.703125 
z
" id="DejaVuSans-34"/>
      </defs>
      <g transform="translate(157.096875 444.067099)scale(0.1 -0.1)">
       <use xlink:href="#DejaVuSans-30"/>
       <use x="63.623047" xlink:href="#DejaVuSans-2e"/>
       <use x="95.410156" xlink:href="#DejaVuSans-34"/>
      </g>
     </g>
    </g>
    <g id="ytick_2">
     <g id="line2d_8">
      <g>
       <use style="stroke:#000000;stroke-width:0.8;" x="180" xlink:href="#m28c03d40f4" y="355.346458"/>
      </g>
     </g>
     <g id="text_8">
      <!-- 0.6 -->
      <defs>
       <path d="M 33.015625 40.375 
Q 26.375 40.375 22.484375 35.828125 
Q 18.609375 31.296875 18.609375 23.390625 
Q 18.609375 15.53125 22.484375 10.953125 
Q 26.375 6.390625 33.015625 6.390625 
Q 39.65625 6.390625 43.53125 10.953125 
Q 47.40625 15.53125 47.40625 23.390625 
Q 47.40625 31.296875 43.53125 35.828125 
Q 39.65625 40.375 33.015625 40.375 
z
M 52.59375 71.296875 
L 52.59375 62.3125 
Q 48.875 64.0625 45.09375 64.984375 
Q 41.3125 65.921875 37.59375 65.921875 
Q 27.828125 65.921875 22.671875 59.328125 
Q 17.53125 52.734375 16.796875 39.40625 
Q 19.671875 43.65625 24.015625 45.921875 
Q 28.375 48.1875 33.59375 48.1875 
Q 44.578125 48.1875 50.953125 41.515625 
Q 57.328125 34.859375 57.328125 23.390625 
Q 57.328125 12.15625 50.6875 5.359375 
Q 44.046875 -1.421875 33.015625 -1.421875 
Q 20.359375 -1.421875 13.671875 8.265625 
Q 6.984375 17.96875 6.984375 36.375 
Q 6.984375 53.65625 15.1875 63.9375 
Q 23.390625 74.21875 37.203125 74.21875 
Q 40.921875 74.21875 44.703125 73.484375 
Q 48.484375 72.75 52.59375 71.296875 
z
" id="DejaVuSans-36"/>
      </defs>
      <g transform="translate(157.096875 359.145677)scale(0.1 -0.1)">
       <use xlink:href="#DejaVuSans-30"/>
       <use x="63.623047" xlink:href="#DejaVuSans-2e"/>
       <use x="95.410156" xlink:href="#DejaVuSans-36"/>
      </g>
     </g>
    </g>
    <g id="ytick_3">
     <g id="line2d_9">
      <g>
       <use style="stroke:#000000;stroke-width:0.8;" x="180" xlink:href="#m28c03d40f4" y="270.425036"/>
      </g>
     </g>
     <g id="text_9">
      <!-- 0.8 -->
      <defs>
       <path d="M 31.78125 34.625 
Q 24.75 34.625 20.71875 30.859375 
Q 16.703125 27.09375 16.703125 20.515625 
Q 16.703125 13.921875 20.71875 10.15625 
Q 24.75 6.390625 31.78125 6.390625 
Q 38.8125 6.390625 42.859375 10.171875 
Q 46.921875 13.96875 46.921875 20.515625 
Q 46.921875 27.09375 42.890625 30.859375 
Q 38.875 34.625 31.78125 34.625 
z
M 21.921875 38.8125 
Q 15.578125 40.375 12.03125 44.71875 
Q 8.5 49.078125 8.5 55.328125 
Q 8.5 64.0625 14.71875 69.140625 
Q 20.953125 74.21875 31.78125 74.21875 
Q 42.671875 74.21875 48.875 69.140625 
Q 55.078125 64.0625 55.078125 55.328125 
Q 55.078125 49.078125 51.53125 44.71875 
Q 48 40.375 41.703125 38.8125 
Q 48.828125 37.15625 52.796875 32.3125 
Q 56.78125 27.484375 56.78125 20.515625 
Q 56.78125 9.90625 50.3125 4.234375 
Q 43.84375 -1.421875 31.78125 -1.421875 
Q 19.734375 -1.421875 13.25 4.234375 
Q 6.78125 9.90625 6.78125 20.515625 
Q 6.78125 27.484375 10.78125 32.3125 
Q 14.796875 37.15625 21.921875 38.8125 
z
M 18.3125 54.390625 
Q 18.3125 48.734375 21.84375 45.5625 
Q 25.390625 42.390625 31.78125 42.390625 
Q 38.140625 42.390625 41.71875 45.5625 
Q 45.3125 48.734375 45.3125 54.390625 
Q 45.3125 60.0625 41.71875 63.234375 
Q 38.140625 66.40625 31.78125 66.40625 
Q 25.390625 66.40625 21.84375 63.234375 
Q 18.3125 60.0625 18.3125 54.390625 
z
" id="DejaVuSans-38"/>
      </defs>
      <g transform="translate(157.096875 274.224255)scale(0.1 -0.1)">
       <use xlink:href="#DejaVuSans-30"/>
       <use x="63.623047" xlink:href="#DejaVuSans-2e"/>
       <use x="95.410156" xlink:href="#DejaVuSans-38"/>
      </g>
     </g>
    </g>
    <g id="ytick_4">
     <g id="line2d_10">
      <g>
       <use style="stroke:#000000;stroke-width:0.8;" x="180" xlink:href="#m28c03d40f4" y="185.503614"/>
      </g>
     </g>
     <g id="text_10">
      <!-- 1.0 -->
      <g transform="translate(157.096875 189.302833)scale(0.1 -0.1)">
       <use xlink:href="#DejaVuSans-31"/>
       <use x="63.623047" xlink:href="#DejaVuSans-2e"/>
       <use x="95.410156" xlink:href="#DejaVuSans-30"/>
      </g>
     </g>
    </g>
    <g id="ytick_5">
     <g id="line2d_11">
      <g>
       <use style="stroke:#000000;stroke-width:0.8;" x="180" xlink:href="#m28c03d40f4" y="100.582192"/>
      </g>
     </g>
     <g id="text_11">
      <!-- 1.2 -->
      <g transform="translate(157.096875 104.381411)scale(0.1 -0.1)">
       <use xlink:href="#DejaVuSans-31"/>
       <use x="63.623047" xlink:href="#DejaVuSans-2e"/>
       <use x="95.410156" xlink:href="#DejaVuSans-32"/>
      </g>
     </g>
    </g>
   </g>
   <g id="line2d_12">
    <path clip-path="url(#p9eed8251b3)" d="M 230.727273 482.395699 
L 252.012504 482.566816 
L 260.487475 480.750347 
L 268.323729 476.483894 
L 275.956393 472.134219 
L 291.109945 468.670699 
L 299.457172 464.436092 
L 307.141732 460.150108 
L 314.834275 455.806377 
L 331.400987 452.484251 
L 339.07357 448.198267 
L 347.025592 443.930116 
L 354.845879 439.636065 
L 372.195019 436.364042 
L 380.202928 432.071689 
L 388.055151 427.838356 
L 396.047092 423.562563 
L 412.801428 420.234492 
L 420.665626 415.956575 
L 428.637608 411.567412 
L 436.473862 407.387155 
L 453.316021 404.066727 
L 461.367842 399.812164 
L 469.156193 395.537644 
L 477.084263 391.115786 
L 493.455368 387.721052 
L 501.235735 383.597692 
L 510.736645 379.492166 
L 519.363311 375.303417 
L 534.429039 371.763467 
L 542.377069 367.522492 
L 550.357035 363.252218 
L 558.265145 358.978547 
L 575.438638 355.687842 
L 583.402635 351.350905 
L 591.230906 346.689993 
L 599.019257 342.847299 
L 615.526089 339.487383 
L 623.71763 335.244708 
L 633.957055 331.219433 
L 653.126538 328.149948 
L 661.36199 323.901329 
L 669.669298 319.664175 
L 677.645272 315.389655 
L 696.016359 312.236947 
L 703.884549 307.847784 
L 711.736771 303.691729 
L 719.608953 299.381118 
L 736.626759 296.095508 
L 744.439062 291.811222 
L 752.135597 287.519718 
L 760.091611 283.142444 
L 776.666307 279.876366 
L 784.466634 275.595477 
L 792.163169 271.297604 
L 800.163095 266.980199 
L 817.336587 263.733653 
L 825.268649 259.479089 
L 833.739629 255.263165 
L 841.699634 250.999261 
L 858.298282 247.562915 
L 866.226352 243.35888 
L 874.23027 239.11196 
L 882.19826 234.829797 
L 897.782945 231.379015 
L 905.766903 227.087511 
L 913.579205 222.718304 
L 921.327636 218.524035 
L 937.954228 215.186199 
L 945.86633 210.918473 
L 953.830328 206.626969 
L 961.674566 202.321028 
L 978.740276 199.041787 
L 986.840001 194.816097 
L 994.66428 190.536058 
L 1002.568398 186.256867 
L 1018.975431 182.896102 
L 1026.979348 178.604598 
L 1034.939354 174.354281 
L 1042.731697 170.063201 
L 1059.54192 166.745321 
L 1067.621685 162.200751 
L 1075.489875 158.187789 
L 1083.453873 153.926008 
L 1099.529572 150.521508 
L 1107.689177 146.275862 
L 1115.62523 141.795407 
L 1123.461485 137.725124 
L 1140.359531 134.407244 
L 1148.139898 130.098331 
L 1155.896313 125.834426 
L 1163.536961 121.433798 
L 1180.427023 118.196593 
L 1188.291221 113.925046 
L 1196.003724 109.55966 
L 1203.716228 105.337792 
L 1221.720052 102.093793 
L 1229.616186 97.828615 
L 1237.460425 93.566409 
L 1245.272727 89.28 
" style="fill:none;stroke:#ff0000;stroke-dasharray:5.55,2.4;stroke-dashoffset:0;stroke-width:1.5;"/>
    <defs>
     <path d="M -3 3 
L 3 3 
L 3 -3 
L -3 -3 
z
" id="m9571dcb848" style="stroke:#ff0000;stroke-linejoin:miter;"/>
    </defs>
    <g clip-path="url(#p9eed8251b3)">
     <use style="fill:#ff0000;stroke:#ff0000;stroke-linejoin:miter;" x="230.727273" xlink:href="#m9571dcb848" y="482.395699"/>
     <use style="fill:#ff0000;stroke:#ff0000;stroke-linejoin:miter;" x="252.012504" xlink:href="#m9571dcb848" y="482.566816"/>
     <use style="fill:#ff0000;stroke:#ff0000;stroke-linejoin:miter;" x="260.487475" xlink:href="#m9571dcb848" y="480.750347"/>
     <use style="fill:#ff0000;stroke:#ff0000;stroke-linejoin:miter;" x="268.323729" xlink:href="#m9571dcb848" y="476.483894"/>
     <use style="fill:#ff0000;stroke:#ff0000;stroke-linejoin:miter;" x="275.956393" xlink:href="#m9571dcb848" y="472.134219"/>
     <use style="fill:#ff0000;stroke:#ff0000;stroke-linejoin:miter;" x="291.109945" xlink:href="#m9571dcb848" y="468.670699"/>
     <use style="fill:#ff0000;stroke:#ff0000;stroke-linejoin:miter;" x="299.457172" xlink:href="#m9571dcb848" y="464.436092"/>
     <use style="fill:#ff0000;stroke:#ff0000;stroke-linejoin:miter;" x="307.141732" xlink:href="#m9571dcb848" y="460.150108"/>
     <use style="fill:#ff0000;stroke:#ff0000;stroke-linejoin:miter;" x="314.834275" xlink:href="#m9571dcb848" y="455.806377"/>
     <use style="fill:#ff0000;stroke:#ff0000;stroke-linejoin:miter;" x="331.400987" xlink:href="#m9571dcb848" y="452.484251"/>
     <use style="fill:#ff0000;stroke:#ff0000;stroke-linejoin:miter;" x="339.07357" xlink:href="#m9571dcb848" y="448.198267"/>
     <use style="fill:#ff0000;stroke:#ff0000;stroke-linejoin:miter;" x="347.025592" xlink:href="#m9571dcb848" y="443.930116"/>
     <use style="fill:#ff0000;stroke:#ff0000;stroke-linejoin:miter;" x="354.845879" xlink:href="#m9571dcb848" y="439.636065"/>
     <use style="fill:#ff0000;stroke:#ff0000;stroke-linejoin:miter;" x="372.195019" xlink:href="#m9571dcb848" y="436.364042"/>
     <use style="fill:#ff0000;stroke:#ff0000;stroke-linejoin:miter;" x="380.202928" xlink:href="#m9571dcb848" y="432.071689"/>
     <use style="fill:#ff0000;stroke:#ff0000;stroke-linejoin:miter;" x="388.055151" xlink:href="#m9571dcb848" y="427.838356"/>
     <use style="fill:#ff0000;stroke:#ff0000;stroke-linejoin:miter;" x="396.047092" xlink:href="#m9571dcb848" y="423.562563"/>
     <use style="fill:#ff0000;stroke:#ff0000;stroke-linejoin:miter;" x="412.801428" xlink:href="#m9571dcb848" y="420.234492"/>
     <use style="fill:#ff0000;stroke:#ff0000;stroke-linejoin:miter;" x="420.665626" xlink:href="#m9571dcb848" y="415.956575"/>
     <use style="fill:#ff0000;stroke:#ff0000;stroke-linejoin:miter;" x="428.637608" xlink:href="#m9571dcb848" y="411.567412"/>
     <use style="fill:#ff0000;stroke:#ff0000;stroke-linejoin:miter;" x="436.473862" xlink:href="#m9571dcb848" y="407.387155"/>
     <use style="fill:#ff0000;stroke:#ff0000;stroke-linejoin:miter;" x="453.316021" xlink:href="#m9571dcb848" y="404.066727"/>
     <use style="fill:#ff0000;stroke:#ff0000;stroke-linejoin:miter;" x="461.367842" xlink:href="#m9571dcb848" y="399.812164"/>
     <use style="fill:#ff0000;stroke:#ff0000;stroke-linejoin:miter;" x="469.156193" xlink:href="#m9571dcb848" y="395.537644"/>
     <use style="fill:#ff0000;stroke:#ff0000;stroke-linejoin:miter;" x="477.084263" xlink:href="#m9571dcb848" y="391.115786"/>
     <use style="fill:#ff0000;stroke:#ff0000;stroke-linejoin:miter;" x="493.455368" xlink:href="#m9571dcb848" y="387.721052"/>
     <use style="fill:#ff0000;stroke:#ff0000;stroke-linejoin:miter;" x="501.235735" xlink:href="#m9571dcb848" y="383.597692"/>
     <use style="fill:#ff0000;stroke:#ff0000;stroke-linejoin:miter;" x="510.736645" xlink:href="#m9571dcb848" y="379.492166"/>
     <use style="fill:#ff0000;stroke:#ff0000;stroke-linejoin:miter;" x="519.363311" xlink:href="#m9571dcb848" y="375.303417"/>
     <use style="fill:#ff0000;stroke:#ff0000;stroke-linejoin:miter;" x="534.429039" xlink:href="#m9571dcb848" y="371.763467"/>
     <use style="fill:#ff0000;stroke:#ff0000;stroke-linejoin:miter;" x="542.377069" xlink:href="#m9571dcb848" y="367.522492"/>
     <use style="fill:#ff0000;stroke:#ff0000;stroke-linejoin:miter;" x="550.357035" xlink:href="#m9571dcb848" y="363.252218"/>
     <use style="fill:#ff0000;stroke:#ff0000;stroke-linejoin:miter;" x="558.265145" xlink:href="#m9571dcb848" y="358.978547"/>
     <use style="fill:#ff0000;stroke:#ff0000;stroke-linejoin:miter;" x="575.438638" xlink:href="#m9571dcb848" y="355.687842"/>
     <use style="fill:#ff0000;stroke:#ff0000;stroke-linejoin:miter;" x="583.402635" xlink:href="#m9571dcb848" y="351.350905"/>
     <use style="fill:#ff0000;stroke:#ff0000;stroke-linejoin:miter;" x="591.230906" xlink:href="#m9571dcb848" y="346.689993"/>
     <use style="fill:#ff0000;stroke:#ff0000;stroke-linejoin:miter;" x="599.019257" xlink:href="#m9571dcb848" y="342.847299"/>
     <use style="fill:#ff0000;stroke:#ff0000;stroke-linejoin:miter;" x="615.526089" xlink:href="#m9571dcb848" y="339.487383"/>
     <use style="fill:#ff0000;stroke:#ff0000;stroke-linejoin:miter;" x="623.71763" xlink:href="#m9571dcb848" y="335.244708"/>
     <use style="fill:#ff0000;stroke:#ff0000;stroke-linejoin:miter;" x="633.957055" xlink:href="#m9571dcb848" y="331.219433"/>
     <use style="fill:#ff0000;stroke:#ff0000;stroke-linejoin:miter;" x="653.126538" xlink:href="#m9571dcb848" y="328.149948"/>
     <use style="fill:#ff0000;stroke:#ff0000;stroke-linejoin:miter;" x="661.36199" xlink:href="#m9571dcb848" y="323.901329"/>
     <use style="fill:#ff0000;stroke:#ff0000;stroke-linejoin:miter;" x="669.669298" xlink:href="#m9571dcb848" y="319.664175"/>
     <use style="fill:#ff0000;stroke:#ff0000;stroke-linejoin:miter;" x="677.645272" xlink:href="#m9571dcb848" y="315.389655"/>
     <use style="fill:#ff0000;stroke:#ff0000;stroke-linejoin:miter;" x="696.016359" xlink:href="#m9571dcb848" y="312.236947"/>
     <use style="fill:#ff0000;stroke:#ff0000;stroke-linejoin:miter;" x="703.884549" xlink:href="#m9571dcb848" y="307.847784"/>
     <use style="fill:#ff0000;stroke:#ff0000;stroke-linejoin:miter;" x="711.736771" xlink:href="#m9571dcb848" y="303.691729"/>
     <use style="fill:#ff0000;stroke:#ff0000;stroke-linejoin:miter;" x="719.608953" xlink:href="#m9571dcb848" y="299.381118"/>
     <use style="fill:#ff0000;stroke:#ff0000;stroke-linejoin:miter;" x="736.626759" xlink:href="#m9571dcb848" y="296.095508"/>
     <use style="fill:#ff0000;stroke:#ff0000;stroke-linejoin:miter;" x="744.439062" xlink:href="#m9571dcb848" y="291.811222"/>
     <use style="fill:#ff0000;stroke:#ff0000;stroke-linejoin:miter;" x="752.135597" xlink:href="#m9571dcb848" y="287.519718"/>
     <use style="fill:#ff0000;stroke:#ff0000;stroke-linejoin:miter;" x="760.091611" xlink:href="#m9571dcb848" y="283.142444"/>
     <use style="fill:#ff0000;stroke:#ff0000;stroke-linejoin:miter;" x="776.666307" xlink:href="#m9571dcb848" y="279.876366"/>
     <use style="fill:#ff0000;stroke:#ff0000;stroke-linejoin:miter;" x="784.466634" xlink:href="#m9571dcb848" y="275.595477"/>
     <use style="fill:#ff0000;stroke:#ff0000;stroke-linejoin:miter;" x="792.163169" xlink:href="#m9571dcb848" y="271.297604"/>
     <use style="fill:#ff0000;stroke:#ff0000;stroke-linejoin:miter;" x="800.163095" xlink:href="#m9571dcb848" y="266.980199"/>
     <use style="fill:#ff0000;stroke:#ff0000;stroke-linejoin:miter;" x="817.336587" xlink:href="#m9571dcb848" y="263.733653"/>
     <use style="fill:#ff0000;stroke:#ff0000;stroke-linejoin:miter;" x="825.268649" xlink:href="#m9571dcb848" y="259.479089"/>
     <use style="fill:#ff0000;stroke:#ff0000;stroke-linejoin:miter;" x="833.739629" xlink:href="#m9571dcb848" y="255.263165"/>
     <use style="fill:#ff0000;stroke:#ff0000;stroke-linejoin:miter;" x="841.699634" xlink:href="#m9571dcb848" y="250.999261"/>
     <use style="fill:#ff0000;stroke:#ff0000;stroke-linejoin:miter;" x="858.298282" xlink:href="#m9571dcb848" y="247.562915"/>
     <use style="fill:#ff0000;stroke:#ff0000;stroke-linejoin:miter;" x="866.226352" xlink:href="#m9571dcb848" y="243.35888"/>
     <use style="fill:#ff0000;stroke:#ff0000;stroke-linejoin:miter;" x="874.23027" xlink:href="#m9571dcb848" y="239.11196"/>
     <use style="fill:#ff0000;stroke:#ff0000;stroke-linejoin:miter;" x="882.19826" xlink:href="#m9571dcb848" y="234.829797"/>
     <use style="fill:#ff0000;stroke:#ff0000;stroke-linejoin:miter;" x="897.782945" xlink:href="#m9571dcb848" y="231.379015"/>
     <use style="fill:#ff0000;stroke:#ff0000;stroke-linejoin:miter;" x="905.766903" xlink:href="#m9571dcb848" y="227.087511"/>
     <use style="fill:#ff0000;stroke:#ff0000;stroke-linejoin:miter;" x="913.579205" xlink:href="#m9571dcb848" y="222.718304"/>
     <use style="fill:#ff0000;stroke:#ff0000;stroke-linejoin:miter;" x="921.327636" xlink:href="#m9571dcb848" y="218.524035"/>
     <use style="fill:#ff0000;stroke:#ff0000;stroke-linejoin:miter;" x="937.954228" xlink:href="#m9571dcb848" y="215.186199"/>
     <use style="fill:#ff0000;stroke:#ff0000;stroke-linejoin:miter;" x="945.86633" xlink:href="#m9571dcb848" y="210.918473"/>
     <use style="fill:#ff0000;stroke:#ff0000;stroke-linejoin:miter;" x="953.830328" xlink:href="#m9571dcb848" y="206.626969"/>
     <use style="fill:#ff0000;stroke:#ff0000;stroke-linejoin:miter;" x="961.674566" xlink:href="#m9571dcb848" y="202.321028"/>
     <use style="fill:#ff0000;stroke:#ff0000;stroke-linejoin:miter;" x="978.740276" xlink:href="#m9571dcb848" y="199.041787"/>
     <use style="fill:#ff0000;stroke:#ff0000;stroke-linejoin:miter;" x="986.840001" xlink:href="#m9571dcb848" y="194.816097"/>
     <use style="fill:#ff0000;stroke:#ff0000;stroke-linejoin:miter;" x="994.66428" xlink:href="#m9571dcb848" y="190.536058"/>
     <use style="fill:#ff0000;stroke:#ff0000;stroke-linejoin:miter;" x="1002.568398" xlink:href="#m9571dcb848" y="186.256867"/>
     <use style="fill:#ff0000;stroke:#ff0000;stroke-linejoin:miter;" x="1018.975431" xlink:href="#m9571dcb848" y="182.896102"/>
     <use style="fill:#ff0000;stroke:#ff0000;stroke-linejoin:miter;" x="1026.979348" xlink:href="#m9571dcb848" y="178.604598"/>
     <use style="fill:#ff0000;stroke:#ff0000;stroke-linejoin:miter;" x="1034.939354" xlink:href="#m9571dcb848" y="174.354281"/>
     <use style="fill:#ff0000;stroke:#ff0000;stroke-linejoin:miter;" x="1042.731697" xlink:href="#m9571dcb848" y="170.063201"/>
     <use style="fill:#ff0000;stroke:#ff0000;stroke-linejoin:miter;" x="1059.54192" xlink:href="#m9571dcb848" y="166.745321"/>
     <use style="fill:#ff0000;stroke:#ff0000;stroke-linejoin:miter;" x="1067.621685" xlink:href="#m9571dcb848" y="162.200751"/>
     <use style="fill:#ff0000;stroke:#ff0000;stroke-linejoin:miter;" x="1075.489875" xlink:href="#m9571dcb848" y="158.187789"/>
     <use style="fill:#ff0000;stroke:#ff0000;stroke-linejoin:miter;" x="1083.453873" xlink:href="#m9571dcb848" y="153.926008"/>
     <use style="fill:#ff0000;stroke:#ff0000;stroke-linejoin:miter;" x="1099.529572" xlink:href="#m9571dcb848" y="150.521508"/>
     <use style="fill:#ff0000;stroke:#ff0000;stroke-linejoin:miter;" x="1107.689177" xlink:href="#m9571dcb848" y="146.275862"/>
     <use style="fill:#ff0000;stroke:#ff0000;stroke-linejoin:miter;" x="1115.62523" xlink:href="#m9571dcb848" y="141.795407"/>
     <use style="fill:#ff0000;stroke:#ff0000;stroke-linejoin:miter;" x="1123.461485" xlink:href="#m9571dcb848" y="137.725124"/>
     <use style="fill:#ff0000;stroke:#ff0000;stroke-linejoin:miter;" x="1140.359531" xlink:href="#m9571dcb848" y="134.407244"/>
     <use style="fill:#ff0000;stroke:#ff0000;stroke-linejoin:miter;" x="1148.139898" xlink:href="#m9571dcb848" y="130.098331"/>
     <use style="fill:#ff0000;stroke:#ff0000;stroke-linejoin:miter;" x="1155.896313" xlink:href="#m9571dcb848" y="125.834426"/>
     <use style="fill:#ff0000;stroke:#ff0000;stroke-linejoin:miter;" x="1163.536961" xlink:href="#m9571dcb848" y="121.433798"/>
     <use style="fill:#ff0000;stroke:#ff0000;stroke-linejoin:miter;" x="1180.427023" xlink:href="#m9571dcb848" y="118.196593"/>
     <use style="fill:#ff0000;stroke:#ff0000;stroke-linejoin:miter;" x="1188.291221" xlink:href="#m9571dcb848" y="113.925046"/>
     <use style="fill:#ff0000;stroke:#ff0000;stroke-linejoin:miter;" x="1196.003724" xlink:href="#m9571dcb848" y="109.55966"/>
     <use style="fill:#ff0000;stroke:#ff0000;stroke-linejoin:miter;" x="1203.716228" xlink:href="#m9571dcb848" y="105.337792"/>
     <use style="fill:#ff0000;stroke:#ff0000;stroke-linejoin:miter;" x="1221.720052" xlink:href="#m9571dcb848" y="102.093793"/>
     <use style="fill:#ff0000;stroke:#ff0000;stroke-linejoin:miter;" x="1229.616186" xlink:href="#m9571dcb848" y="97.828615"/>
     <use style="fill:#ff0000;stroke:#ff0000;stroke-linejoin:miter;" x="1237.460425" xlink:href="#m9571dcb848" y="93.566409"/>
     <use style="fill:#ff0000;stroke:#ff0000;stroke-linejoin:miter;" x="1245.272727" xlink:href="#m9571dcb848" y="89.28"/>
    </g>
   </g>
   <g id="line2d_13">
    <path clip-path="url(#p9eed8251b3)" d="M 230.727273 482.395699 
L 252.012504 482.566816 
L 260.487475 480.750347 
L 268.323729 476.483894 
L 275.956393 472.134219 
L 291.109945 468.670699 
L 299.457172 464.436092 
L 307.141732 460.150108 
L 314.834275 455.806377 
L 331.400987 452.484251 
L 339.07357 448.198267 
L 347.025592 443.930116 
L 354.845879 439.636065 
L 372.195019 436.364042 
L 380.202928 432.071689 
L 388.055151 427.838356 
L 396.047092 423.562563 
L 412.801428 420.234492 
L 420.665626 415.956575 
L 428.637608 411.567412 
L 436.473862 407.387155 
L 453.316021 404.066727 
L 461.367842 399.812164 
L 469.156193 395.537644 
L 477.084263 391.115786 
L 493.455368 387.721052 
L 501.235735 383.597692 
L 510.736645 379.492166 
L 519.363311 375.303417 
L 534.429039 371.763467 
L 542.377069 367.522492 
L 550.357035 363.252218 
L 558.265145 358.978547 
L 575.438638 355.687842 
L 583.402635 351.350905 
L 591.230906 346.689993 
L 599.019257 342.847299 
L 615.526089 339.487383 
L 623.71763 335.244708 
L 633.957055 331.219433 
L 653.126538 328.149948 
L 661.36199 323.901329 
L 669.669298 319.664175 
L 677.645272 315.389655 
L 696.016359 312.236947 
L 703.884549 307.847784 
L 711.736771 303.691729 
L 719.608953 299.381118 
L 736.626759 296.095508 
L 744.439062 291.811222 
L 752.135597 287.519718 
L 760.091611 283.142444 
L 776.666307 279.876366 
L 784.466634 275.595477 
L 792.163169 271.297604 
L 800.163095 266.980199 
L 817.336587 263.733653 
L 825.268649 259.479089 
L 833.739629 255.263165 
L 841.699634 250.999261 
L 858.298282 247.562915 
L 866.226352 243.35888 
L 874.23027 239.11196 
L 882.19826 234.829797 
L 897.782945 231.379015 
L 905.766903 227.087511 
L 913.579205 222.718304 
L 921.327636 218.524035 
L 937.954228 215.186199 
L 945.86633 210.918473 
L 953.830328 206.626969 
L 961.674566 202.321028 
L 978.740276 199.041787 
L 986.840001 194.816097 
L 994.66428 190.536058 
L 1002.568398 186.256867 
L 1018.975431 182.896102 
L 1026.979348 178.604598 
L 1034.939354 174.354281 
L 1042.731697 170.063201 
L 1059.54192 166.745321 
L 1067.621685 162.200751 
L 1075.489875 158.187789 
L 1083.453873 153.926008 
L 1099.529572 150.521508 
L 1107.689177 146.275862 
L 1115.62523 141.795407 
L 1123.461485 137.725124 
L 1140.359531 134.407244 
L 1148.139898 130.098331 
L 1155.896313 125.834426 
L 1163.536961 121.433798 
L 1180.427023 118.196593 
L 1188.291221 113.925046 
L 1196.003724 109.55966 
L 1203.716228 105.337792 
L 1221.720052 102.093793 
L 1229.616186 97.828615 
L 1237.460425 93.566409 
L 1245.272727 89.28 
" style="fill:none;stroke:#800080;stroke-dasharray:9.6,2.4,1.5,2.4;stroke-dashoffset:0;stroke-width:1.5;"/>
    <defs>
     <path d="M -3 3 
L 3 -3 
M -3 -3 
L 3 3 
" id="m609bf379a7" style="stroke:#800080;"/>
    </defs>
    <g clip-path="url(#p9eed8251b3)">
     <use style="fill:#800080;stroke:#800080;" x="230.727273" xlink:href="#m609bf379a7" y="482.395699"/>
     <use style="fill:#800080;stroke:#800080;" x="252.012504" xlink:href="#m609bf379a7" y="482.566816"/>
     <use style="fill:#800080;stroke:#800080;" x="260.487475" xlink:href="#m609bf379a7" y="480.750347"/>
     <use style="fill:#800080;stroke:#800080;" x="268.323729" xlink:href="#m609bf379a7" y="476.483894"/>
     <use style="fill:#800080;stroke:#800080;" x="275.956393" xlink:href="#m609bf379a7" y="472.134219"/>
     <use style="fill:#800080;stroke:#800080;" x="291.109945" xlink:href="#m609bf379a7" y="468.670699"/>
     <use style="fill:#800080;stroke:#800080;" x="299.457172" xlink:href="#m609bf379a7" y="464.436092"/>
     <use style="fill:#800080;stroke:#800080;" x="307.141732" xlink:href="#m609bf379a7" y="460.150108"/>
     <use style="fill:#800080;stroke:#800080;" x="314.834275" xlink:href="#m609bf379a7" y="455.806377"/>
     <use style="fill:#800080;stroke:#800080;" x="331.400987" xlink:href="#m609bf379a7" y="452.484251"/>
     <use style="fill:#800080;stroke:#800080;" x="339.07357" xlink:href="#m609bf379a7" y="448.198267"/>
     <use style="fill:#800080;stroke:#800080;" x="347.025592" xlink:href="#m609bf379a7" y="443.930116"/>
     <use style="fill:#800080;stroke:#800080;" x="354.845879" xlink:href="#m609bf379a7" y="439.636065"/>
     <use style="fill:#800080;stroke:#800080;" x="372.195019" xlink:href="#m609bf379a7" y="436.364042"/>
     <use style="fill:#800080;stroke:#800080;" x="380.202928" xlink:href="#m609bf379a7" y="432.071689"/>
     <use style="fill:#800080;stroke:#800080;" x="388.055151" xlink:href="#m609bf379a7" y="427.838356"/>
     <use style="fill:#800080;stroke:#800080;" x="396.047092" xlink:href="#m609bf379a7" y="423.562563"/>
     <use style="fill:#800080;stroke:#800080;" x="412.801428" xlink:href="#m609bf379a7" y="420.234492"/>
     <use style="fill:#800080;stroke:#800080;" x="420.665626" xlink:href="#m609bf379a7" y="415.956575"/>
     <use style="fill:#800080;stroke:#800080;" x="428.637608" xlink:href="#m609bf379a7" y="411.567412"/>
     <use style="fill:#800080;stroke:#800080;" x="436.473862" xlink:href="#m609bf379a7" y="407.387155"/>
     <use style="fill:#800080;stroke:#800080;" x="453.316021" xlink:href="#m609bf379a7" y="404.066727"/>
     <use style="fill:#800080;stroke:#800080;" x="461.367842" xlink:href="#m609bf379a7" y="399.812164"/>
     <use style="fill:#800080;stroke:#800080;" x="469.156193" xlink:href="#m609bf379a7" y="395.537644"/>
     <use style="fill:#800080;stroke:#800080;" x="477.084263" xlink:href="#m609bf379a7" y="391.115786"/>
     <use style="fill:#800080;stroke:#800080;" x="493.455368" xlink:href="#m609bf379a7" y="387.721052"/>
     <use style="fill:#800080;stroke:#800080;" x="501.235735" xlink:href="#m609bf379a7" y="383.597692"/>
     <use style="fill:#800080;stroke:#800080;" x="510.736645" xlink:href="#m609bf379a7" y="379.492166"/>
     <use style="fill:#800080;stroke:#800080;" x="519.363311" xlink:href="#m609bf379a7" y="375.303417"/>
     <use style="fill:#800080;stroke:#800080;" x="534.429039" xlink:href="#m609bf379a7" y="371.763467"/>
     <use style="fill:#800080;stroke:#800080;" x="542.377069" xlink:href="#m609bf379a7" y="367.522492"/>
     <use style="fill:#800080;stroke:#800080;" x="550.357035" xlink:href="#m609bf379a7" y="363.252218"/>
     <use style="fill:#800080;stroke:#800080;" x="558.265145" xlink:href="#m609bf379a7" y="358.978547"/>
     <use style="fill:#800080;stroke:#800080;" x="575.438638" xlink:href="#m609bf379a7" y="355.687842"/>
     <use style="fill:#800080;stroke:#800080;" x="583.402635" xlink:href="#m609bf379a7" y="351.350905"/>
     <use style="fill:#800080;stroke:#800080;" x="591.230906" xlink:href="#m609bf379a7" y="346.689993"/>
     <use style="fill:#800080;stroke:#800080;" x="599.019257" xlink:href="#m609bf379a7" y="342.847299"/>
     <use style="fill:#800080;stroke:#800080;" x="615.526089" xlink:href="#m609bf379a7" y="339.487383"/>
     <use style="fill:#800080;stroke:#800080;" x="623.71763" xlink:href="#m609bf379a7" y="335.244708"/>
     <use style="fill:#800080;stroke:#800080;" x="633.957055" xlink:href="#m609bf379a7" y="331.219433"/>
     <use style="fill:#800080;stroke:#800080;" x="653.126538" xlink:href="#m609bf379a7" y="328.149948"/>
     <use style="fill:#800080;stroke:#800080;" x="661.36199" xlink:href="#m609bf379a7" y="323.901329"/>
     <use style="fill:#800080;stroke:#800080;" x="669.669298" xlink:href="#m609bf379a7" y="319.664175"/>
     <use style="fill:#800080;stroke:#800080;" x="677.645272" xlink:href="#m609bf379a7" y="315.389655"/>
     <use style="fill:#800080;stroke:#800080;" x="696.016359" xlink:href="#m609bf379a7" y="312.236947"/>
     <use style="fill:#800080;stroke:#800080;" x="703.884549" xlink:href="#m609bf379a7" y="307.847784"/>
     <use style="fill:#800080;stroke:#800080;" x="711.736771" xlink:href="#m609bf379a7" y="303.691729"/>
     <use style="fill:#800080;stroke:#800080;" x="719.608953" xlink:href="#m609bf379a7" y="299.381118"/>
     <use style="fill:#800080;stroke:#800080;" x="736.626759" xlink:href="#m609bf379a7" y="296.095508"/>
     <use style="fill:#800080;stroke:#800080;" x="744.439062" xlink:href="#m609bf379a7" y="291.811222"/>
     <use style="fill:#800080;stroke:#800080;" x="752.135597" xlink:href="#m609bf379a7" y="287.519718"/>
     <use style="fill:#800080;stroke:#800080;" x="760.091611" xlink:href="#m609bf379a7" y="283.142444"/>
     <use style="fill:#800080;stroke:#800080;" x="776.666307" xlink:href="#m609bf379a7" y="279.876366"/>
     <use style="fill:#800080;stroke:#800080;" x="784.466634" xlink:href="#m609bf379a7" y="275.595477"/>
     <use style="fill:#800080;stroke:#800080;" x="792.163169" xlink:href="#m609bf379a7" y="271.297604"/>
     <use style="fill:#800080;stroke:#800080;" x="800.163095" xlink:href="#m609bf379a7" y="266.980199"/>
     <use style="fill:#800080;stroke:#800080;" x="817.336587" xlink:href="#m609bf379a7" y="263.733653"/>
     <use style="fill:#800080;stroke:#800080;" x="825.268649" xlink:href="#m609bf379a7" y="259.479089"/>
     <use style="fill:#800080;stroke:#800080;" x="833.739629" xlink:href="#m609bf379a7" y="255.263165"/>
     <use style="fill:#800080;stroke:#800080;" x="841.699634" xlink:href="#m609bf379a7" y="250.999261"/>
     <use style="fill:#800080;stroke:#800080;" x="858.298282" xlink:href="#m609bf379a7" y="247.562915"/>
     <use style="fill:#800080;stroke:#800080;" x="866.226352" xlink:href="#m609bf379a7" y="243.35888"/>
     <use style="fill:#800080;stroke:#800080;" x="874.23027" xlink:href="#m609bf379a7" y="239.11196"/>
     <use style="fill:#800080;stroke:#800080;" x="882.19826" xlink:href="#m609bf379a7" y="234.829797"/>
     <use style="fill:#800080;stroke:#800080;" x="897.782945" xlink:href="#m609bf379a7" y="231.379015"/>
     <use style="fill:#800080;stroke:#800080;" x="905.766903" xlink:href="#m609bf379a7" y="227.087511"/>
     <use style="fill:#800080;stroke:#800080;" x="913.579205" xlink:href="#m609bf379a7" y="222.718304"/>
     <use style="fill:#800080;stroke:#800080;" x="921.327636" xlink:href="#m609bf379a7" y="218.524035"/>
     <use style="fill:#800080;stroke:#800080;" x="937.954228" xlink:href="#m609bf379a7" y="215.186199"/>
     <use style="fill:#800080;stroke:#800080;" x="945.86633" xlink:href="#m609bf379a7" y="210.918473"/>
     <use style="fill:#800080;stroke:#800080;" x="953.830328" xlink:href="#m609bf379a7" y="206.626969"/>
     <use style="fill:#800080;stroke:#800080;" x="961.674566" xlink:href="#m609bf379a7" y="202.321028"/>
     <use style="fill:#800080;stroke:#800080;" x="978.740276" xlink:href="#m609bf379a7" y="199.041787"/>
     <use style="fill:#800080;stroke:#800080;" x="986.840001" xlink:href="#m609bf379a7" y="194.816097"/>
     <use style="fill:#800080;stroke:#800080;" x="994.66428" xlink:href="#m609bf379a7" y="190.536058"/>
     <use style="fill:#800080;stroke:#800080;" x="1002.568398" xlink:href="#m609bf379a7" y="186.256867"/>
     <use style="fill:#800080;stroke:#800080;" x="1018.975431" xlink:href="#m609bf379a7" y="182.896102"/>
     <use style="fill:#800080;stroke:#800080;" x="1026.979348" xlink:href="#m609bf379a7" y="178.604598"/>
     <use style="fill:#800080;stroke:#800080;" x="1034.939354" xlink:href="#m609bf379a7" y="174.354281"/>
     <use style="fill:#800080;stroke:#800080;" x="1042.731697" xlink:href="#m609bf379a7" y="170.063201"/>
     <use style="fill:#800080;stroke:#800080;" x="1059.54192" xlink:href="#m609bf379a7" y="166.745321"/>
     <use style="fill:#800080;stroke:#800080;" x="1067.621685" xlink:href="#m609bf379a7" y="162.200751"/>
     <use style="fill:#800080;stroke:#800080;" x="1075.489875" xlink:href="#m609bf379a7" y="158.187789"/>
     <use style="fill:#800080;stroke:#800080;" x="1083.453873" xlink:href="#m609bf379a7" y="153.926008"/>
     <use style="fill:#800080;stroke:#800080;" x="1099.529572" xlink:href="#m609bf379a7" y="150.521508"/>
     <use style="fill:#800080;stroke:#800080;" x="1107.689177" xlink:href="#m609bf379a7" y="146.275862"/>
     <use style="fill:#800080;stroke:#800080;" x="1115.62523" xlink:href="#m609bf379a7" y="141.795407"/>
     <use style="fill:#800080;stroke:#800080;" x="1123.461485" xlink:href="#m609bf379a7" y="137.725124"/>
     <use style="fill:#800080;stroke:#800080;" x="1140.359531" xlink:href="#m609bf379a7" y="134.407244"/>
     <use style="fill:#800080;stroke:#800080;" x="1148.139898" xlink:href="#m609bf379a7" y="130.098331"/>
     <use style="fill:#800080;stroke:#800080;" x="1155.896313" xlink:href="#m609bf379a7" y="125.834426"/>
     <use style="fill:#800080;stroke:#800080;" x="1163.536961" xlink:href="#m609bf379a7" y="121.433798"/>
     <use style="fill:#800080;stroke:#800080;" x="1180.427023" xlink:href="#m609bf379a7" y="118.196593"/>
     <use style="fill:#800080;stroke:#800080;" x="1188.291221" xlink:href="#m609bf379a7" y="113.925046"/>
     <use style="fill:#800080;stroke:#800080;" x="1196.003724" xlink:href="#m609bf379a7" y="109.55966"/>
     <use style="fill:#800080;stroke:#800080;" x="1203.716228" xlink:href="#m609bf379a7" y="105.337792"/>
     <use style="fill:#800080;stroke:#800080;" x="1221.720052" xlink:href="#m609bf379a7" y="102.093793"/>
     <use style="fill:#800080;stroke:#800080;" x="1229.616186" xlink:href="#m609bf379a7" y="97.828615"/>
     <use style="fill:#800080;stroke:#800080;" x="1237.460425" xlink:href="#m609bf379a7" y="93.566409"/>
     <use style="fill:#800080;stroke:#800080;" x="1245.272727" xlink:href="#m609bf379a7" y="89.28"/>
    </g>
   </g>
   <g id="line2d_14">
    <path clip-path="url(#p9eed8251b3)" d="M 230.727273 490.483268 
L 252.012504 482.133292 
L 260.487475 478.808648 
L 268.323729 475.734566 
L 275.956393 472.740351 
L 291.109945 466.795769 
L 299.457172 463.521238 
L 307.141732 460.506665 
L 314.834275 457.48896 
L 331.400987 450.99001 
L 339.07357 447.980134 
L 347.025592 444.860638 
L 354.845879 441.792821 
L 372.195019 434.986932 
L 380.202928 431.845512 
L 388.055151 428.765166 
L 396.047092 425.63001 
L 412.801428 419.057457 
L 420.665626 415.972413 
L 428.637608 412.845087 
L 436.473862 409.771006 
L 453.316021 403.164001 
L 461.367842 400.005354 
L 469.156193 396.950065 
L 477.084263 393.839965 
L 493.455368 387.417749 
L 501.235735 384.365592 
L 510.736645 380.638483 
L 519.363311 377.254331 
L 534.429039 371.344201 
L 542.377069 368.226271 
L 550.357035 365.095813 
L 558.265145 361.993543 
L 575.438638 355.256559 
L 583.402635 352.132365 
L 591.230906 349.061415 
L 599.019257 346.006126 
L 615.526089 339.530666 
L 623.71763 336.317209 
L 633.957055 332.300388 
L 653.126538 324.780398 
L 661.36199 321.549715 
L 669.669298 318.290844 
L 677.645272 315.161952 
L 696.016359 307.955164 
L 703.884549 304.868554 
L 711.736771 301.788209 
L 719.608953 298.700033 
L 736.626759 292.024123 
L 744.439062 288.959438 
L 752.135597 285.940166 
L 760.091611 282.819104 
L 776.666307 276.317022 
L 784.466634 273.257035 
L 792.163169 270.237763 
L 800.163095 267.099475 
L 817.336587 260.362491 
L 825.268649 257.250825 
L 833.739629 253.927748 
L 841.699634 250.805119 
L 858.298282 244.293641 
L 866.226352 241.183541 
L 874.23027 238.043687 
L 882.19826 234.917927 
L 897.782945 228.804216 
L 905.766903 225.672192 
L 913.579205 222.607506 
L 921.327636 219.567876 
L 937.954228 213.045436 
L 945.86633 209.9416 
L 953.830328 206.817406 
L 961.674566 203.740192 
L 978.740276 197.045491 
L 986.840001 193.868052 
L 994.66428 190.798669 
L 1002.568398 187.697965 
L 1018.975431 181.261655 
L 1026.979348 178.121801 
L 1034.939354 174.999173 
L 1042.731697 171.942317 
L 1059.54192 165.34784 
L 1067.621685 162.178232 
L 1075.489875 159.091622 
L 1083.453873 155.967428 
L 1099.529572 149.661097 
L 1107.689177 146.460169 
L 1115.62523 143.346937 
L 1123.461485 140.272855 
L 1140.359531 133.643926 
L 1148.139898 130.591768 
L 1155.896313 127.549007 
L 1163.536961 124.55166 
L 1180.427023 117.925862 
L 1188.291221 114.840819 
L 1196.003724 111.815283 
L 1203.716228 108.789748 
L 1221.720052 101.727034 
L 1229.616186 98.629462 
L 1237.460425 95.552248 
L 1245.272727 92.487562 
" style="fill:none;stroke:#0000ff;stroke-linecap:square;stroke-width:1.5;"/>
   </g>
   <g id="line2d_15">
    <path clip-path="url(#p9eed8251b3)" d="M 230.727273 492.48 
L 252.012504 492.458535 
L 260.487475 492.449988 
L 268.323729 492.442086 
L 275.956393 492.434388 
L 291.109945 492.419107 
L 299.457172 492.410689 
L 307.141732 492.402939 
L 314.834275 492.395182 
L 331.400987 492.378475 
L 339.07357 492.370738 
L 347.025592 492.362718 
L 354.845879 492.354832 
L 372.195019 492.337336 
L 380.202928 492.32926 
L 388.055151 492.321342 
L 396.047092 492.313282 
L 412.801428 492.296386 
L 420.665626 492.288456 
L 428.637608 492.280416 
L 436.473862 492.272514 
L 453.316021 492.255529 
L 461.367842 492.247409 
L 469.156193 492.239555 
L 477.084263 492.23156 
L 493.455368 492.21505 
L 501.235735 492.207204 
L 510.736645 492.197623 
L 519.363311 492.188923 
L 534.429039 492.17373 
L 542.377069 492.165715 
L 550.357035 492.157667 
L 558.265145 492.149692 
L 575.438638 492.132374 
L 583.402635 492.124342 
L 591.230906 492.116448 
L 599.019257 492.108594 
L 615.526089 492.091947 
L 623.71763 492.083687 
L 633.957055 492.07336 
L 653.126538 492.054029 
L 661.36199 492.045724 
L 669.669298 492.037346 
L 677.645272 492.029303 
L 696.016359 492.010776 
L 703.884549 492.002842 
L 711.736771 491.994923 
L 719.608953 491.986984 
L 736.626759 491.969823 
L 744.439062 491.961944 
L 752.135597 491.954183 
L 760.091611 491.946159 
L 776.666307 491.929444 
L 784.466634 491.921578 
L 792.163169 491.913817 
L 800.163095 491.905749 
L 817.336587 491.88843 
L 825.268649 491.880431 
L 833.739629 491.871889 
L 841.699634 491.863861 
L 858.298282 491.847122 
L 866.226352 491.839127 
L 874.23027 491.831056 
L 882.19826 491.82302 
L 897.782945 491.807304 
L 905.766903 491.799252 
L 913.579205 491.791374 
L 921.327636 491.78356 
L 937.954228 491.766793 
L 945.86633 491.758814 
L 953.830328 491.750782 
L 961.674566 491.742872 
L 978.740276 491.725662 
L 986.840001 491.717494 
L 994.66428 491.709603 
L 1002.568398 491.701632 
L 1018.975431 491.685086 
L 1026.979348 491.677015 
L 1034.939354 491.668987 
L 1042.731697 491.661129 
L 1059.54192 491.644177 
L 1067.621685 491.636029 
L 1075.489875 491.628094 
L 1083.453873 491.620063 
L 1099.529572 491.603851 
L 1107.689177 491.595622 
L 1115.62523 491.587619 
L 1123.461485 491.579717 
L 1140.359531 491.562676 
L 1148.139898 491.55483 
L 1155.896313 491.547008 
L 1163.536961 491.539302 
L 1180.427023 491.52227 
L 1188.291221 491.514339 
L 1196.003724 491.506561 
L 1203.716228 491.498783 
L 1221.720052 491.480627 
L 1229.616186 491.472664 
L 1237.460425 491.464754 
L 1245.272727 491.456876 
" style="fill:none;stroke:#008000;stroke-linecap:square;stroke-width:1.5;"/>
    <defs>
     <path d="M 0 3 
C 0.795609 3 1.55874 2.683901 2.12132 2.12132 
C 2.683901 1.55874 3 0.795609 3 0 
C 3 -0.795609 2.683901 -1.55874 2.12132 -2.12132 
C 1.55874 -2.683901 0.795609 -3 0 -3 
C -0.795609 -3 -1.55874 -2.683901 -2.12132 -2.12132 
C -2.683901 -1.55874 -3 -0.795609 -3 0 
C -3 0.795609 -2.683901 1.55874 -2.12132 2.12132 
C -1.55874 2.683901 -0.795609 3 0 3 
z
" id="m6312f13a57" style="stroke:#008000;"/>
    </defs>
    <g clip-path="url(#p9eed8251b3)">
     <use style="fill:#008000;stroke:#008000;" x="230.727273" xlink:href="#m6312f13a57" y="492.48"/>
     <use style="fill:#008000;stroke:#008000;" x="252.012504" xlink:href="#m6312f13a57" y="492.458535"/>
     <use style="fill:#008000;stroke:#008000;" x="260.487475" xlink:href="#m6312f13a57" y="492.449988"/>
     <use style="fill:#008000;stroke:#008000;" x="268.323729" xlink:href="#m6312f13a57" y="492.442086"/>
     <use style="fill:#008000;stroke:#008000;" x="275.956393" xlink:href="#m6312f13a57" y="492.434388"/>
     <use style="fill:#008000;stroke:#008000;" x="291.109945" xlink:href="#m6312f13a57" y="492.419107"/>
     <use style="fill:#008000;stroke:#008000;" x="299.457172" xlink:href="#m6312f13a57" y="492.410689"/>
     <use style="fill:#008000;stroke:#008000;" x="307.141732" xlink:href="#m6312f13a57" y="492.402939"/>
     <use style="fill:#008000;stroke:#008000;" x="314.834275" xlink:href="#m6312f13a57" y="492.395182"/>
     <use style="fill:#008000;stroke:#008000;" x="331.400987" xlink:href="#m6312f13a57" y="492.378475"/>
     <use style="fill:#008000;stroke:#008000;" x="339.07357" xlink:href="#m6312f13a57" y="492.370738"/>
     <use style="fill:#008000;stroke:#008000;" x="347.025592" xlink:href="#m6312f13a57" y="492.362718"/>
     <use style="fill:#008000;stroke:#008000;" x="354.845879" xlink:href="#m6312f13a57" y="492.354832"/>
     <use style="fill:#008000;stroke:#008000;" x="372.195019" xlink:href="#m6312f13a57" y="492.337336"/>
     <use style="fill:#008000;stroke:#008000;" x="380.202928" xlink:href="#m6312f13a57" y="492.32926"/>
     <use style="fill:#008000;stroke:#008000;" x="388.055151" xlink:href="#m6312f13a57" y="492.321342"/>
     <use style="fill:#008000;stroke:#008000;" x="396.047092" xlink:href="#m6312f13a57" y="492.313282"/>
     <use style="fill:#008000;stroke:#008000;" x="412.801428" xlink:href="#m6312f13a57" y="492.296386"/>
     <use style="fill:#008000;stroke:#008000;" x="420.665626" xlink:href="#m6312f13a57" y="492.288456"/>
     <use style="fill:#008000;stroke:#008000;" x="428.637608" xlink:href="#m6312f13a57" y="492.280416"/>
     <use style="fill:#008000;stroke:#008000;" x="436.473862" xlink:href="#m6312f13a57" y="492.272514"/>
     <use style="fill:#008000;stroke:#008000;" x="453.316021" xlink:href="#m6312f13a57" y="492.255529"/>
     <use style="fill:#008000;stroke:#008000;" x="461.367842" xlink:href="#m6312f13a57" y="492.247409"/>
     <use style="fill:#008000;stroke:#008000;" x="469.156193" xlink:href="#m6312f13a57" y="492.239555"/>
     <use style="fill:#008000;stroke:#008000;" x="477.084263" xlink:href="#m6312f13a57" y="492.23156"/>
     <use style="fill:#008000;stroke:#008000;" x="493.455368" xlink:href="#m6312f13a57" y="492.21505"/>
     <use style="fill:#008000;stroke:#008000;" x="501.235735" xlink:href="#m6312f13a57" y="492.207204"/>
     <use style="fill:#008000;stroke:#008000;" x="510.736645" xlink:href="#m6312f13a57" y="492.197623"/>
     <use style="fill:#008000;stroke:#008000;" x="519.363311" xlink:href="#m6312f13a57" y="492.188923"/>
     <use style="fill:#008000;stroke:#008000;" x="534.429039" xlink:href="#m6312f13a57" y="492.17373"/>
     <use style="fill:#008000;stroke:#008000;" x="542.377069" xlink:href="#m6312f13a57" y="492.165715"/>
     <use style="fill:#008000;stroke:#008000;" x="550.357035" xlink:href="#m6312f13a57" y="492.157667"/>
     <use style="fill:#008000;stroke:#008000;" x="558.265145" xlink:href="#m6312f13a57" y="492.149692"/>
     <use style="fill:#008000;stroke:#008000;" x="575.438638" xlink:href="#m6312f13a57" y="492.132374"/>
     <use style="fill:#008000;stroke:#008000;" x="583.402635" xlink:href="#m6312f13a57" y="492.124342"/>
     <use style="fill:#008000;stroke:#008000;" x="591.230906" xlink:href="#m6312f13a57" y="492.116448"/>
     <use style="fill:#008000;stroke:#008000;" x="599.019257" xlink:href="#m6312f13a57" y="492.108594"/>
     <use style="fill:#008000;stroke:#008000;" x="615.526089" xlink:href="#m6312f13a57" y="492.091947"/>
     <use style="fill:#008000;stroke:#008000;" x="623.71763" xlink:href="#m6312f13a57" y="492.083687"/>
     <use style="fill:#008000;stroke:#008000;" x="633.957055" xlink:href="#m6312f13a57" y="492.07336"/>
     <use style="fill:#008000;stroke:#008000;" x="653.126538" xlink:href="#m6312f13a57" y="492.054029"/>
     <use style="fill:#008000;stroke:#008000;" x="661.36199" xlink:href="#m6312f13a57" y="492.045724"/>
     <use style="fill:#008000;stroke:#008000;" x="669.669298" xlink:href="#m6312f13a57" y="492.037346"/>
     <use style="fill:#008000;stroke:#008000;" x="677.645272" xlink:href="#m6312f13a57" y="492.029303"/>
     <use style="fill:#008000;stroke:#008000;" x="696.016359" xlink:href="#m6312f13a57" y="492.010776"/>
     <use style="fill:#008000;stroke:#008000;" x="703.884549" xlink:href="#m6312f13a57" y="492.002842"/>
     <use style="fill:#008000;stroke:#008000;" x="711.736771" xlink:href="#m6312f13a57" y="491.994923"/>
     <use style="fill:#008000;stroke:#008000;" x="719.608953" xlink:href="#m6312f13a57" y="491.986984"/>
     <use style="fill:#008000;stroke:#008000;" x="736.626759" xlink:href="#m6312f13a57" y="491.969823"/>
     <use style="fill:#008000;stroke:#008000;" x="744.439062" xlink:href="#m6312f13a57" y="491.961944"/>
     <use style="fill:#008000;stroke:#008000;" x="752.135597" xlink:href="#m6312f13a57" y="491.954183"/>
     <use style="fill:#008000;stroke:#008000;" x="760.091611" xlink:href="#m6312f13a57" y="491.946159"/>
     <use style="fill:#008000;stroke:#008000;" x="776.666307" xlink:href="#m6312f13a57" y="491.929444"/>
     <use style="fill:#008000;stroke:#008000;" x="784.466634" xlink:href="#m6312f13a57" y="491.921578"/>
     <use style="fill:#008000;stroke:#008000;" x="792.163169" xlink:href="#m6312f13a57" y="491.913817"/>
     <use style="fill:#008000;stroke:#008000;" x="800.163095" xlink:href="#m6312f13a57" y="491.905749"/>
     <use style="fill:#008000;stroke:#008000;" x="817.336587" xlink:href="#m6312f13a57" y="491.88843"/>
     <use style="fill:#008000;stroke:#008000;" x="825.268649" xlink:href="#m6312f13a57" y="491.880431"/>
     <use style="fill:#008000;stroke:#008000;" x="833.739629" xlink:href="#m6312f13a57" y="491.871889"/>
     <use style="fill:#008000;stroke:#008000;" x="841.699634" xlink:href="#m6312f13a57" y="491.863861"/>
     <use style="fill:#008000;stroke:#008000;" x="858.298282" xlink:href="#m6312f13a57" y="491.847122"/>
     <use style="fill:#008000;stroke:#008000;" x="866.226352" xlink:href="#m6312f13a57" y="491.839127"/>
     <use style="fill:#008000;stroke:#008000;" x="874.23027" xlink:href="#m6312f13a57" y="491.831056"/>
     <use style="fill:#008000;stroke:#008000;" x="882.19826" xlink:href="#m6312f13a57" y="491.82302"/>
     <use style="fill:#008000;stroke:#008000;" x="897.782945" xlink:href="#m6312f13a57" y="491.807304"/>
     <use style="fill:#008000;stroke:#008000;" x="905.766903" xlink:href="#m6312f13a57" y="491.799252"/>
     <use style="fill:#008000;stroke:#008000;" x="913.579205" xlink:href="#m6312f13a57" y="491.791374"/>
     <use style="fill:#008000;stroke:#008000;" x="921.327636" xlink:href="#m6312f13a57" y="491.78356"/>
     <use style="fill:#008000;stroke:#008000;" x="937.954228" xlink:href="#m6312f13a57" y="491.766793"/>
     <use style="fill:#008000;stroke:#008000;" x="945.86633" xlink:href="#m6312f13a57" y="491.758814"/>
     <use style="fill:#008000;stroke:#008000;" x="953.830328" xlink:href="#m6312f13a57" y="491.750782"/>
     <use style="fill:#008000;stroke:#008000;" x="961.674566" xlink:href="#m6312f13a57" y="491.742872"/>
     <use style="fill:#008000;stroke:#008000;" x="978.740276" xlink:href="#m6312f13a57" y="491.725662"/>
     <use style="fill:#008000;stroke:#008000;" x="986.840001" xlink:href="#m6312f13a57" y="491.717494"/>
     <use style="fill:#008000;stroke:#008000;" x="994.66428" xlink:href="#m6312f13a57" y="491.709603"/>
     <use style="fill:#008000;stroke:#008000;" x="1002.568398" xlink:href="#m6312f13a57" y="491.701632"/>
     <use style="fill:#008000;stroke:#008000;" x="1018.975431" xlink:href="#m6312f13a57" y="491.685086"/>
     <use style="fill:#008000;stroke:#008000;" x="1026.979348" xlink:href="#m6312f13a57" y="491.677015"/>
     <use style="fill:#008000;stroke:#008000;" x="1034.939354" xlink:href="#m6312f13a57" y="491.668987"/>
     <use style="fill:#008000;stroke:#008000;" x="1042.731697" xlink:href="#m6312f13a57" y="491.661129"/>
     <use style="fill:#008000;stroke:#008000;" x="1059.54192" xlink:href="#m6312f13a57" y="491.644177"/>
     <use style="fill:#008000;stroke:#008000;" x="1067.621685" xlink:href="#m6312f13a57" y="491.636029"/>
     <use style="fill:#008000;stroke:#008000;" x="1075.489875" xlink:href="#m6312f13a57" y="491.628094"/>
     <use style="fill:#008000;stroke:#008000;" x="1083.453873" xlink:href="#m6312f13a57" y="491.620063"/>
     <use style="fill:#008000;stroke:#008000;" x="1099.529572" xlink:href="#m6312f13a57" y="491.603851"/>
     <use style="fill:#008000;stroke:#008000;" x="1107.689177" xlink:href="#m6312f13a57" y="491.595622"/>
     <use style="fill:#008000;stroke:#008000;" x="1115.62523" xlink:href="#m6312f13a57" y="491.587619"/>
     <use style="fill:#008000;stroke:#008000;" x="1123.461485" xlink:href="#m6312f13a57" y="491.579717"/>
     <use style="fill:#008000;stroke:#008000;" x="1140.359531" xlink:href="#m6312f13a57" y="491.562676"/>
     <use style="fill:#008000;stroke:#008000;" x="1148.139898" xlink:href="#m6312f13a57" y="491.55483"/>
     <use style="fill:#008000;stroke:#008000;" x="1155.896313" xlink:href="#m6312f13a57" y="491.547008"/>
     <use style="fill:#008000;stroke:#008000;" x="1163.536961" xlink:href="#m6312f13a57" y="491.539302"/>
     <use style="fill:#008000;stroke:#008000;" x="1180.427023" xlink:href="#m6312f13a57" y="491.52227"/>
     <use style="fill:#008000;stroke:#008000;" x="1188.291221" xlink:href="#m6312f13a57" y="491.514339"/>
     <use style="fill:#008000;stroke:#008000;" x="1196.003724" xlink:href="#m6312f13a57" y="491.506561"/>
     <use style="fill:#008000;stroke:#008000;" x="1203.716228" xlink:href="#m6312f13a57" y="491.498783"/>
     <use style="fill:#008000;stroke:#008000;" x="1221.720052" xlink:href="#m6312f13a57" y="491.480627"/>
     <use style="fill:#008000;stroke:#008000;" x="1229.616186" xlink:href="#m6312f13a57" y="491.472664"/>
     <use style="fill:#008000;stroke:#008000;" x="1237.460425" xlink:href="#m6312f13a57" y="491.464754"/>
     <use style="fill:#008000;stroke:#008000;" x="1245.272727" xlink:href="#m6312f13a57" y="491.456876"/>
    </g>
   </g>
   <g id="patch_3">
    <path d="M 180 512.64 
L 180 69.12 
" style="fill:none;stroke:#000000;stroke-linecap:square;stroke-linejoin:miter;stroke-width:0.8;"/>
   </g>
   <g id="patch_4">
    <path d="M 1296 512.64 
L 1296 69.12 
" style="fill:none;stroke:#000000;stroke-linecap:square;stroke-linejoin:miter;stroke-width:0.8;"/>
   </g>
   <g id="patch_5">
    <path d="M 180 512.64 
L 1296 512.64 
" style="fill:none;stroke:#000000;stroke-linecap:square;stroke-linejoin:miter;stroke-width:0.8;"/>
   </g>
   <g id="patch_6">
    <path d="M 180 69.12 
L 1296 69.12 
" style="fill:none;stroke:#000000;stroke-linecap:square;stroke-linejoin:miter;stroke-width:0.8;"/>
   </g>
   <g id="text_12">
    <!-- 5000000.0 bit/s -->
    <defs>
     <path id="DejaVuSans-20"/>
     <path d="M 48.6875 27.296875 
Q 48.6875 37.203125 44.609375 42.84375 
Q 40.53125 48.484375 33.40625 48.484375 
Q 26.265625 48.484375 22.1875 42.84375 
Q 18.109375 37.203125 18.109375 27.296875 
Q 18.109375 17.390625 22.1875 11.75 
Q 26.265625 6.109375 33.40625 6.109375 
Q 40.53125 6.109375 44.609375 11.75 
Q 48.6875 17.390625 48.6875 27.296875 
z
M 18.109375 46.390625 
Q 20.953125 51.265625 25.265625 53.625 
Q 29.59375 56 35.59375 56 
Q 45.5625 56 51.78125 48.09375 
Q 58.015625 40.1875 58.015625 27.296875 
Q 58.015625 14.40625 51.78125 6.484375 
Q 45.5625 -1.421875 35.59375 -1.421875 
Q 29.59375 -1.421875 25.265625 0.953125 
Q 20.953125 3.328125 18.109375 8.203125 
L 18.109375 0 
L 9.078125 0 
L 9.078125 75.984375 
L 18.109375 75.984375 
z
" id="DejaVuSans-62"/>
     <path d="M 9.421875 54.6875 
L 18.40625 54.6875 
L 18.40625 0 
L 9.421875 0 
z
M 9.421875 75.984375 
L 18.40625 75.984375 
L 18.40625 64.59375 
L 9.421875 64.59375 
z
" id="DejaVuSans-69"/>
     <path d="M 18.3125 70.21875 
L 18.3125 54.6875 
L 36.8125 54.6875 
L 36.8125 47.703125 
L 18.3125 47.703125 
L 18.3125 18.015625 
Q 18.3125 11.328125 20.140625 9.421875 
Q 21.96875 7.515625 27.59375 7.515625 
L 36.8125 7.515625 
L 36.8125 0 
L 27.59375 0 
Q 17.1875 0 13.234375 3.875 
Q 9.28125 7.765625 9.28125 18.015625 
L 9.28125 47.703125 
L 2.6875 47.703125 
L 2.6875 54.6875 
L 9.28125 54.6875 
L 9.28125 70.21875 
z
" id="DejaVuSans-74"/>
     <path d="M 25.390625 72.90625 
L 33.6875 72.90625 
L 8.296875 -9.28125 
L 0 -9.28125 
z
" id="DejaVuSans-2f"/>
     <path d="M 44.28125 53.078125 
L 44.28125 44.578125 
Q 40.484375 46.53125 36.375 47.5 
Q 32.28125 48.484375 27.875 48.484375 
Q 21.1875 48.484375 17.84375 46.4375 
Q 14.5 44.390625 14.5 40.28125 
Q 14.5 37.15625 16.890625 35.375 
Q 19.28125 33.59375 26.515625 31.984375 
L 29.59375 31.296875 
Q 39.15625 29.25 43.1875 25.515625 
Q 47.21875 21.78125 47.21875 15.09375 
Q 47.21875 7.46875 41.1875 3.015625 
Q 35.15625 -1.421875 24.609375 -1.421875 
Q 20.21875 -1.421875 15.453125 -0.5625 
Q 10.6875 0.296875 5.421875 2 
L 5.421875 11.28125 
Q 10.40625 8.6875 15.234375 7.390625 
Q 20.0625 6.109375 24.8125 6.109375 
Q 31.15625 6.109375 34.5625 8.28125 
Q 37.984375 10.453125 37.984375 14.40625 
Q 37.984375 18.0625 35.515625 20.015625 
Q 33.0625 21.96875 24.703125 23.78125 
L 21.578125 24.515625 
Q 13.234375 26.265625 9.515625 29.90625 
Q 5.8125 33.546875 5.8125 39.890625 
Q 5.8125 47.609375 11.28125 51.796875 
Q 16.75 56 26.8125 56 
Q 31.78125 56 36.171875 55.265625 
Q 40.578125 54.546875 44.28125 53.078125 
z
" id="DejaVuSans-73"/>
    </defs>
    <g transform="translate(690.67125 63.12)scale(0.12 -0.12)">
     <use xlink:href="#DejaVuSans-35"/>
     <use x="63.623047" xlink:href="#DejaVuSans-30"/>
     <use x="127.246094" xlink:href="#DejaVuSans-30"/>
     <use x="190.869141" xlink:href="#DejaVuSans-30"/>
     <use x="254.492188" xlink:href="#DejaVuSans-30"/>
     <use x="318.115234" xlink:href="#DejaVuSans-30"/>
     <use x="381.738281" xlink:href="#DejaVuSans-30"/>
     <use x="445.361328" xlink:href="#DejaVuSans-2e"/>
     <use x="477.148438" xlink:href="#DejaVuSans-30"/>
     <use x="540.771484" xlink:href="#DejaVuSans-20"/>
     <use x="572.558594" xlink:href="#DejaVuSans-62"/>
     <use x="636.035156" xlink:href="#DejaVuSans-69"/>
     <use x="663.818359" xlink:href="#DejaVuSans-74"/>
     <use x="703.027344" xlink:href="#DejaVuSans-2f"/>
     <use x="736.71875" xlink:href="#DejaVuSans-73"/>
    </g>
   </g>
   <g id="legend_1">
    <g id="patch_7">
     <path d="M 1173.520313 135.8325 
L 1289 135.8325 
Q 1291 135.8325 1291 133.8325 
L 1291 76.12 
Q 1291 74.12 1289 74.12 
L 1173.520313 74.12 
Q 1171.520313 74.12 1171.520313 76.12 
L 1171.520313 133.8325 
Q 1171.520313 135.8325 1173.520313 135.8325 
z
" style="fill:#ffffff;opacity:0.8;stroke:#cccccc;stroke-linejoin:miter;"/>
    </g>
    <g id="line2d_16">
     <path d="M 1175.520313 82.218437 
L 1195.520313 82.218437 
" style="fill:none;stroke:#ff0000;stroke-dasharray:5.55,2.4;stroke-dashoffset:0;stroke-width:1.5;"/>
    </g>
    <g id="line2d_17">
     <g>
      <use style="fill:#ff0000;stroke:#ff0000;stroke-linejoin:miter;" x="1185.520313" xlink:href="#m9571dcb848" y="82.218437"/>
     </g>
    </g>
    <g id="text_13">
     <!-- tcpdump -->
     <defs>
      <path d="M 48.78125 52.59375 
L 48.78125 44.1875 
Q 44.96875 46.296875 41.140625 47.34375 
Q 37.3125 48.390625 33.40625 48.390625 
Q 24.65625 48.390625 19.8125 42.84375 
Q 14.984375 37.3125 14.984375 27.296875 
Q 14.984375 17.28125 19.8125 11.734375 
Q 24.65625 6.203125 33.40625 6.203125 
Q 37.3125 6.203125 41.140625 7.25 
Q 44.96875 8.296875 48.78125 10.40625 
L 48.78125 2.09375 
Q 45.015625 0.34375 40.984375 -0.53125 
Q 36.96875 -1.421875 32.421875 -1.421875 
Q 20.0625 -1.421875 12.78125 6.34375 
Q 5.515625 14.109375 5.515625 27.296875 
Q 5.515625 40.671875 12.859375 48.328125 
Q 20.21875 56 33.015625 56 
Q 37.15625 56 41.109375 55.140625 
Q 45.0625 54.296875 48.78125 52.59375 
z
" id="DejaVuSans-63"/>
      <path d="M 18.109375 8.203125 
L 18.109375 -20.796875 
L 9.078125 -20.796875 
L 9.078125 54.6875 
L 18.109375 54.6875 
L 18.109375 46.390625 
Q 20.953125 51.265625 25.265625 53.625 
Q 29.59375 56 35.59375 56 
Q 45.5625 56 51.78125 48.09375 
Q 58.015625 40.1875 58.015625 27.296875 
Q 58.015625 14.40625 51.78125 6.484375 
Q 45.5625 -1.421875 35.59375 -1.421875 
Q 29.59375 -1.421875 25.265625 0.953125 
Q 20.953125 3.328125 18.109375 8.203125 
z
M 48.6875 27.296875 
Q 48.6875 37.203125 44.609375 42.84375 
Q 40.53125 48.484375 33.40625 48.484375 
Q 26.265625 48.484375 22.1875 42.84375 
Q 18.109375 37.203125 18.109375 27.296875 
Q 18.109375 17.390625 22.1875 11.75 
Q 26.265625 6.109375 33.40625 6.109375 
Q 40.53125 6.109375 44.609375 11.75 
Q 48.6875 17.390625 48.6875 27.296875 
z
" id="DejaVuSans-70"/>
      <path d="M 45.40625 46.390625 
L 45.40625 75.984375 
L 54.390625 75.984375 
L 54.390625 0 
L 45.40625 0 
L 45.40625 8.203125 
Q 42.578125 3.328125 38.25 0.953125 
Q 33.9375 -1.421875 27.875 -1.421875 
Q 17.96875 -1.421875 11.734375 6.484375 
Q 5.515625 14.40625 5.515625 27.296875 
Q 5.515625 40.1875 11.734375 48.09375 
Q 17.96875 56 27.875 56 
Q 33.9375 56 38.25 53.625 
Q 42.578125 51.265625 45.40625 46.390625 
z
M 14.796875 27.296875 
Q 14.796875 17.390625 18.875 11.75 
Q 22.953125 6.109375 30.078125 6.109375 
Q 37.203125 6.109375 41.296875 11.75 
Q 45.40625 17.390625 45.40625 27.296875 
Q 45.40625 37.203125 41.296875 42.84375 
Q 37.203125 48.484375 30.078125 48.484375 
Q 22.953125 48.484375 18.875 42.84375 
Q 14.796875 37.203125 14.796875 27.296875 
z
" id="DejaVuSans-64"/>
      <path d="M 8.5 21.578125 
L 8.5 54.6875 
L 17.484375 54.6875 
L 17.484375 21.921875 
Q 17.484375 14.15625 20.5 10.265625 
Q 23.53125 6.390625 29.59375 6.390625 
Q 36.859375 6.390625 41.078125 11.03125 
Q 45.3125 15.671875 45.3125 23.6875 
L 45.3125 54.6875 
L 54.296875 54.6875 
L 54.296875 0 
L 45.3125 0 
L 45.3125 8.40625 
Q 42.046875 3.421875 37.71875 1 
Q 33.40625 -1.421875 27.6875 -1.421875 
Q 18.265625 -1.421875 13.375 4.4375 
Q 8.5 10.296875 8.5 21.578125 
z
M 31.109375 56 
z
" id="DejaVuSans-75"/>
      <path d="M 52 44.1875 
Q 55.375 50.25 60.0625 53.125 
Q 64.75 56 71.09375 56 
Q 79.640625 56 84.28125 50.015625 
Q 88.921875 44.046875 88.921875 33.015625 
L 88.921875 0 
L 79.890625 0 
L 79.890625 32.71875 
Q 79.890625 40.578125 77.09375 44.375 
Q 74.3125 48.1875 68.609375 48.1875 
Q 61.625 48.1875 57.5625 43.546875 
Q 53.515625 38.921875 53.515625 30.90625 
L 53.515625 0 
L 44.484375 0 
L 44.484375 32.71875 
Q 44.484375 40.625 41.703125 44.40625 
Q 38.921875 48.1875 33.109375 48.1875 
Q 26.21875 48.1875 22.15625 43.53125 
Q 18.109375 38.875 18.109375 30.90625 
L 18.109375 0 
L 9.078125 0 
L 9.078125 54.6875 
L 18.109375 54.6875 
L 18.109375 46.1875 
Q 21.1875 51.21875 25.484375 53.609375 
Q 29.78125 56 35.6875 56 
Q 41.65625 56 45.828125 52.96875 
Q 50 49.953125 52 44.1875 
z
" id="DejaVuSans-6d"/>
     </defs>
     <g transform="translate(1203.520313 85.718437)scale(0.1 -0.1)">
      <use xlink:href="#DejaVuSans-74"/>
      <use x="39.208984" xlink:href="#DejaVuSans-63"/>
      <use x="94.189453" xlink:href="#DejaVuSans-70"/>
      <use x="157.666016" xlink:href="#DejaVuSans-64"/>
      <use x="221.142578" xlink:href="#DejaVuSans-75"/>
      <use x="284.521484" xlink:href="#DejaVuSans-6d"/>
      <use x="381.933594" xlink:href="#DejaVuSans-70"/>
     </g>
    </g>
    <g id="line2d_18">
     <path d="M 1175.520313 96.896563 
L 1195.520313 96.896563 
" style="fill:none;stroke:#800080;stroke-dasharray:9.6,2.4,1.5,2.4;stroke-dashoffset:0;stroke-width:1.5;"/>
    </g>
    <g id="line2d_19">
     <g>
      <use style="fill:#800080;stroke:#800080;" x="1185.520313" xlink:href="#m609bf379a7" y="96.896563"/>
     </g>
    </g>
    <g id="text_14">
     <!-- filtered tcpdump -->
     <defs>
      <path d="M 37.109375 75.984375 
L 37.109375 68.5 
L 28.515625 68.5 
Q 23.6875 68.5 21.796875 66.546875 
Q 19.921875 64.59375 19.921875 59.515625 
L 19.921875 54.6875 
L 34.71875 54.6875 
L 34.71875 47.703125 
L 19.921875 47.703125 
L 19.921875 0 
L 10.890625 0 
L 10.890625 47.703125 
L 2.296875 47.703125 
L 2.296875 54.6875 
L 10.890625 54.6875 
L 10.890625 58.5 
Q 10.890625 67.625 15.140625 71.796875 
Q 19.390625 75.984375 28.609375 75.984375 
z
" id="DejaVuSans-66"/>
      <path d="M 9.421875 75.984375 
L 18.40625 75.984375 
L 18.40625 0 
L 9.421875 0 
z
" id="DejaVuSans-6c"/>
      <path d="M 56.203125 29.59375 
L 56.203125 25.203125 
L 14.890625 25.203125 
Q 15.484375 15.921875 20.484375 11.0625 
Q 25.484375 6.203125 34.421875 6.203125 
Q 39.59375 6.203125 44.453125 7.46875 
Q 49.3125 8.734375 54.109375 11.28125 
L 54.109375 2.78125 
Q 49.265625 0.734375 44.1875 -0.34375 
Q 39.109375 -1.421875 33.890625 -1.421875 
Q 20.796875 -1.421875 13.15625 6.1875 
Q 5.515625 13.8125 5.515625 26.8125 
Q 5.515625 40.234375 12.765625 48.109375 
Q 20.015625 56 32.328125 56 
Q 43.359375 56 49.78125 48.890625 
Q 56.203125 41.796875 56.203125 29.59375 
z
M 47.21875 32.234375 
Q 47.125 39.59375 43.09375 43.984375 
Q 39.0625 48.390625 32.421875 48.390625 
Q 24.90625 48.390625 20.390625 44.140625 
Q 15.875 39.890625 15.1875 32.171875 
z
" id="DejaVuSans-65"/>
      <path d="M 41.109375 46.296875 
Q 39.59375 47.171875 37.8125 47.578125 
Q 36.03125 48 33.890625 48 
Q 26.265625 48 22.1875 43.046875 
Q 18.109375 38.09375 18.109375 28.8125 
L 18.109375 0 
L 9.078125 0 
L 9.078125 54.6875 
L 18.109375 54.6875 
L 18.109375 46.1875 
Q 20.953125 51.171875 25.484375 53.578125 
Q 30.03125 56 36.53125 56 
Q 37.453125 56 38.578125 55.875 
Q 39.703125 55.765625 41.0625 55.515625 
z
" id="DejaVuSans-72"/>
     </defs>
     <g transform="translate(1203.520313 100.396563)scale(0.1 -0.1)">
      <use xlink:href="#DejaVuSans-66"/>
      <use x="35.205078" xlink:href="#DejaVuSans-69"/>
      <use x="62.988281" xlink:href="#DejaVuSans-6c"/>
      <use x="90.771484" xlink:href="#DejaVuSans-74"/>
      <use x="129.980469" xlink:href="#DejaVuSans-65"/>
      <use x="191.503906" xlink:href="#DejaVuSans-72"/>
      <use x="232.585938" xlink:href="#DejaVuSans-65"/>
      <use x="294.109375" xlink:href="#DejaVuSans-64"/>
      <use x="357.585938" xlink:href="#DejaVuSans-20"/>
      <use x="389.373047" xlink:href="#DejaVuSans-74"/>
      <use x="428.582031" xlink:href="#DejaVuSans-63"/>
      <use x="483.5625" xlink:href="#DejaVuSans-70"/>
      <use x="547.039062" xlink:href="#DejaVuSans-64"/>
      <use x="610.515625" xlink:href="#DejaVuSans-75"/>
      <use x="673.894531" xlink:href="#DejaVuSans-6d"/>
      <use x="771.306641" xlink:href="#DejaVuSans-70"/>
     </g>
    </g>
    <g id="line2d_20">
     <path d="M 1175.520313 111.574687 
L 1195.520313 111.574687 
" style="fill:none;stroke:#0000ff;stroke-linecap:square;stroke-width:1.5;"/>
    </g>
    <g id="line2d_21"/>
    <g id="text_15">
     <!-- OLS -->
     <defs>
      <path d="M 39.40625 66.21875 
Q 28.65625 66.21875 22.328125 58.203125 
Q 16.015625 50.203125 16.015625 36.375 
Q 16.015625 22.609375 22.328125 14.59375 
Q 28.65625 6.59375 39.40625 6.59375 
Q 50.140625 6.59375 56.421875 14.59375 
Q 62.703125 22.609375 62.703125 36.375 
Q 62.703125 50.203125 56.421875 58.203125 
Q 50.140625 66.21875 39.40625 66.21875 
z
M 39.40625 74.21875 
Q 54.734375 74.21875 63.90625 63.9375 
Q 73.09375 53.65625 73.09375 36.375 
Q 73.09375 19.140625 63.90625 8.859375 
Q 54.734375 -1.421875 39.40625 -1.421875 
Q 24.03125 -1.421875 14.8125 8.828125 
Q 5.609375 19.09375 5.609375 36.375 
Q 5.609375 53.65625 14.8125 63.9375 
Q 24.03125 74.21875 39.40625 74.21875 
z
" id="DejaVuSans-4f"/>
      <path d="M 9.8125 72.90625 
L 19.671875 72.90625 
L 19.671875 8.296875 
L 55.171875 8.296875 
L 55.171875 0 
L 9.8125 0 
z
" id="DejaVuSans-4c"/>
      <path d="M 53.515625 70.515625 
L 53.515625 60.890625 
Q 47.90625 63.578125 42.921875 64.890625 
Q 37.9375 66.21875 33.296875 66.21875 
Q 25.25 66.21875 20.875 63.09375 
Q 16.5 59.96875 16.5 54.203125 
Q 16.5 49.359375 19.40625 46.890625 
Q 22.3125 44.4375 30.421875 42.921875 
L 36.375 41.703125 
Q 47.40625 39.59375 52.65625 34.296875 
Q 57.90625 29 57.90625 20.125 
Q 57.90625 9.515625 50.796875 4.046875 
Q 43.703125 -1.421875 29.984375 -1.421875 
Q 24.8125 -1.421875 18.96875 -0.25 
Q 13.140625 0.921875 6.890625 3.21875 
L 6.890625 13.375 
Q 12.890625 10.015625 18.65625 8.296875 
Q 24.421875 6.59375 29.984375 6.59375 
Q 38.421875 6.59375 43.015625 9.90625 
Q 47.609375 13.234375 47.609375 19.390625 
Q 47.609375 24.75 44.3125 27.78125 
Q 41.015625 30.8125 33.5 32.328125 
L 27.484375 33.5 
Q 16.453125 35.6875 11.515625 40.375 
Q 6.59375 45.0625 6.59375 53.421875 
Q 6.59375 63.09375 13.40625 68.65625 
Q 20.21875 74.21875 32.171875 74.21875 
Q 37.3125 74.21875 42.625 73.28125 
Q 47.953125 72.359375 53.515625 70.515625 
z
" id="DejaVuSans-53"/>
     </defs>
     <g transform="translate(1203.520313 115.074687)scale(0.1 -0.1)">
      <use xlink:href="#DejaVuSans-4f"/>
      <use x="78.710938" xlink:href="#DejaVuSans-4c"/>
      <use x="134.423828" xlink:href="#DejaVuSans-53"/>
     </g>
    </g>
    <g id="line2d_22">
     <path d="M 1175.520313 126.252813 
L 1195.520313 126.252813 
" style="fill:none;stroke:#008000;stroke-linecap:square;stroke-width:1.5;"/>
    </g>
    <g id="line2d_23">
     <g>
      <use style="fill:#008000;stroke:#008000;" x="1185.520313" xlink:href="#m6312f13a57" y="126.252813"/>
     </g>
    </g>
    <g id="text_16">
     <!-- IRLS -->
     <defs>
      <path d="M 9.8125 72.90625 
L 19.671875 72.90625 
L 19.671875 0 
L 9.8125 0 
z
" id="DejaVuSans-49"/>
      <path d="M 44.390625 34.1875 
Q 47.5625 33.109375 50.5625 29.59375 
Q 53.5625 26.078125 56.59375 19.921875 
L 66.609375 0 
L 56 0 
L 46.6875 18.703125 
Q 43.0625 26.03125 39.671875 28.421875 
Q 36.28125 30.8125 30.421875 30.8125 
L 19.671875 30.8125 
L 19.671875 0 
L 9.8125 0 
L 9.8125 72.90625 
L 32.078125 72.90625 
Q 44.578125 72.90625 50.734375 67.671875 
Q 56.890625 62.453125 56.890625 51.90625 
Q 56.890625 45.015625 53.6875 40.46875 
Q 50.484375 35.9375 44.390625 34.1875 
z
M 19.671875 64.796875 
L 19.671875 38.921875 
L 32.078125 38.921875 
Q 39.203125 38.921875 42.84375 42.21875 
Q 46.484375 45.515625 46.484375 51.90625 
Q 46.484375 58.296875 42.84375 61.546875 
Q 39.203125 64.796875 32.078125 64.796875 
z
" id="DejaVuSans-52"/>
     </defs>
     <g transform="translate(1203.520313 129.752813)scale(0.1 -0.1)">
      <use xlink:href="#DejaVuSans-49"/>
      <use x="29.492188" xlink:href="#DejaVuSans-52"/>
      <use x="98.974609" xlink:href="#DejaVuSans-4c"/>
      <use x="154.6875" xlink:href="#DejaVuSans-53"/>
     </g>
    </g>
   </g>
  </g>
 </g>
 <defs>
  <clipPath id="p9eed8251b3">
   <rect height="443.52" width="1116" x="180" y="69.12"/>
  </clipPath>
 </defs>
</svg>
