<?xml version="1.0" encoding="utf-8" standalone="no"?>
<!DOCTYPE svg PUBLIC "-//W3C//DTD SVG 1.1//EN"
  "http://www.w3.org/Graphics/SVG/1.1/DTD/svg11.dtd">
<!-- Created with matplotlib (http://matplotlib.org/) -->
<svg height="576pt" version="1.1" viewBox="0 0 1440 576" width="1440pt" xmlns="http://www.w3.org/2000/svg" xmlns:xlink="http://www.w3.org/1999/xlink">
 <defs>
  <style type="text/css">
*{stroke-linecap:butt;stroke-linejoin:round;}
  </style>
 </defs>
 <g id="figure_1">
  <g id="patch_1">
   <path d="M 0 576 
L 1440 576 
L 1440 0 
L 0 0 
z
" style="fill:#ffffff;"/>
  </g>
  <g id="axes_1">
   <g id="patch_2">
    <path d="M 180 512.64 
L 1296 512.64 
L 1296 69.12 
L 180 69.12 
z
" style="fill:#ffffff;"/>
   </g>
   <g id="matplotlib.axis_1">
    <g id="xtick_1">
     <g id="line2d_1">
      <defs>
       <path d="M 0 0 
L 0 3.5 
" id="me0f85dc8cf" style="stroke:#000000;stroke-width:0.8;"/>
      </defs>
      <g>
       <use style="stroke:#000000;stroke-width:0.8;" x="230.727273" xlink:href="#me0f85dc8cf" y="512.64"/>
      </g>
     </g>
     <g id="text_1">
      <!-- 0.0 -->
      <defs>
       <path d="M 31.78125 66.40625 
Q 24.171875 66.40625 20.328125 58.90625 
Q 16.5 51.421875 16.5 36.375 
Q 16.5 21.390625 20.328125 13.890625 
Q 24.171875 6.390625 31.78125 6.390625 
Q 39.453125 6.390625 43.28125 13.890625 
Q 47.125 21.390625 47.125 36.375 
Q 47.125 51.421875 43.28125 58.90625 
Q 39.453125 66.40625 31.78125 66.40625 
z
M 31.78125 74.21875 
Q 44.046875 74.21875 50.515625 64.515625 
Q 56.984375 54.828125 56.984375 36.375 
Q 56.984375 17.96875 50.515625 8.265625 
Q 44.046875 -1.421875 31.78125 -1.421875 
Q 19.53125 -1.421875 13.0625 8.265625 
Q 6.59375 17.96875 6.59375 36.375 
Q 6.59375 54.828125 13.0625 64.515625 
Q 19.53125 74.21875 31.78125 74.21875 
z
" id="DejaVuSans-30"/>
       <path d="M 10.6875 12.40625 
L 21 12.40625 
L 21 0 
L 10.6875 0 
z
" id="DejaVuSans-2e"/>
      </defs>
      <g transform="translate(222.77571 527.238438)scale(0.1 -0.1)">
       <use xlink:href="#DejaVuSans-30"/>
       <use x="63.623047" xlink:href="#DejaVuSans-2e"/>
       <use x="95.410156" xlink:href="#DejaVuSans-30"/>
      </g>
     </g>
    </g>
    <g id="xtick_2">
     <g id="line2d_2">
      <g>
       <use style="stroke:#000000;stroke-width:0.8;" x="381.637633" xlink:href="#me0f85dc8cf" y="512.64"/>
      </g>
     </g>
     <g id="text_2">
      <!-- 0.2 -->
      <defs>
       <path d="M 19.1875 8.296875 
L 53.609375 8.296875 
L 53.609375 0 
L 7.328125 0 
L 7.328125 8.296875 
Q 12.9375 14.109375 22.625 23.890625 
Q 32.328125 33.6875 34.8125 36.53125 
Q 39.546875 41.84375 41.421875 45.53125 
Q 43.3125 49.21875 43.3125 52.78125 
Q 43.3125 58.59375 39.234375 62.25 
Q 35.15625 65.921875 28.609375 65.921875 
Q 23.96875 65.921875 18.8125 64.3125 
Q 13.671875 62.703125 7.8125 59.421875 
L 7.8125 69.390625 
Q 13.765625 71.78125 18.9375 73 
Q 24.125 74.21875 28.421875 74.21875 
Q 39.75 74.21875 46.484375 68.546875 
Q 53.21875 62.890625 53.21875 53.421875 
Q 53.21875 48.921875 51.53125 44.890625 
Q 49.859375 40.875 45.40625 35.40625 
Q 44.1875 33.984375 37.640625 27.21875 
Q 31.109375 20.453125 19.1875 8.296875 
z
" id="DejaVuSans-32"/>
      </defs>
      <g transform="translate(373.686071 527.238438)scale(0.1 -0.1)">
       <use xlink:href="#DejaVuSans-30"/>
       <use x="63.623047" xlink:href="#DejaVuSans-2e"/>
       <use x="95.410156" xlink:href="#DejaVuSans-32"/>
      </g>
     </g>
    </g>
    <g id="xtick_3">
     <g id="line2d_3">
      <g>
       <use style="stroke:#000000;stroke-width:0.8;" x="532.547994" xlink:href="#me0f85dc8cf" y="512.64"/>
      </g>
     </g>
     <g id="text_3">
      <!-- 0.4 -->
      <defs>
       <path d="M 37.796875 64.3125 
L 12.890625 25.390625 
L 37.796875 25.390625 
z
M 35.203125 72.90625 
L 47.609375 72.90625 
L 47.609375 25.390625 
L 58.015625 25.390625 
L 58.015625 17.1875 
L 47.609375 17.1875 
L 47.609375 0 
L 37.796875 0 
L 37.796875 17.1875 
L 4.890625 17.1875 
L 4.890625 26.703125 
z
" id="DejaVuSans-34"/>
      </defs>
      <g transform="translate(524.596432 527.238438)scale(0.1 -0.1)">
       <use xlink:href="#DejaVuSans-30"/>
       <use x="63.623047" xlink:href="#DejaVuSans-2e"/>
       <use x="95.410156" xlink:href="#DejaVuSans-34"/>
      </g>
     </g>
    </g>
    <g id="xtick_4">
     <g id="line2d_4">
      <g>
       <use style="stroke:#000000;stroke-width:0.8;" x="683.458355" xlink:href="#me0f85dc8cf" y="512.64"/>
      </g>
     </g>
     <g id="text_4">
      <!-- 0.6 -->
      <defs>
       <path d="M 33.015625 40.375 
Q 26.375 40.375 22.484375 35.828125 
Q 18.609375 31.296875 18.609375 23.390625 
Q 18.609375 15.53125 22.484375 10.953125 
Q 26.375 6.390625 33.015625 6.390625 
Q 39.65625 6.390625 43.53125 10.953125 
Q 47.40625 15.53125 47.40625 23.390625 
Q 47.40625 31.296875 43.53125 35.828125 
Q 39.65625 40.375 33.015625 40.375 
z
M 52.59375 71.296875 
L 52.59375 62.3125 
Q 48.875 64.0625 45.09375 64.984375 
Q 41.3125 65.921875 37.59375 65.921875 
Q 27.828125 65.921875 22.671875 59.328125 
Q 17.53125 52.734375 16.796875 39.40625 
Q 19.671875 43.65625 24.015625 45.921875 
Q 28.375 48.1875 33.59375 48.1875 
Q 44.578125 48.1875 50.953125 41.515625 
Q 57.328125 34.859375 57.328125 23.390625 
Q 57.328125 12.15625 50.6875 5.359375 
Q 44.046875 -1.421875 33.015625 -1.421875 
Q 20.359375 -1.421875 13.671875 8.265625 
Q 6.984375 17.96875 6.984375 36.375 
Q 6.984375 53.65625 15.1875 63.9375 
Q 23.390625 74.21875 37.203125 74.21875 
Q 40.921875 74.21875 44.703125 73.484375 
Q 48.484375 72.75 52.59375 71.296875 
z
" id="DejaVuSans-36"/>
      </defs>
      <g transform="translate(675.506792 527.238438)scale(0.1 -0.1)">
       <use xlink:href="#DejaVuSans-30"/>
       <use x="63.623047" xlink:href="#DejaVuSans-2e"/>
       <use x="95.410156" xlink:href="#DejaVuSans-36"/>
      </g>
     </g>
    </g>
    <g id="xtick_5">
     <g id="line2d_5">
      <g>
       <use style="stroke:#000000;stroke-width:0.8;" x="834.368715" xlink:href="#me0f85dc8cf" y="512.64"/>
      </g>
     </g>
     <g id="text_5">
      <!-- 0.8 -->
      <defs>
       <path d="M 31.78125 34.625 
Q 24.75 34.625 20.71875 30.859375 
Q 16.703125 27.09375 16.703125 20.515625 
Q 16.703125 13.921875 20.71875 10.15625 
Q 24.75 6.390625 31.78125 6.390625 
Q 38.8125 6.390625 42.859375 10.171875 
Q 46.921875 13.96875 46.921875 20.515625 
Q 46.921875 27.09375 42.890625 30.859375 
Q 38.875 34.625 31.78125 34.625 
z
M 21.921875 38.8125 
Q 15.578125 40.375 12.03125 44.71875 
Q 8.5 49.078125 8.5 55.328125 
Q 8.5 64.0625 14.71875 69.140625 
Q 20.953125 74.21875 31.78125 74.21875 
Q 42.671875 74.21875 48.875 69.140625 
Q 55.078125 64.0625 55.078125 55.328125 
Q 55.078125 49.078125 51.53125 44.71875 
Q 48 40.375 41.703125 38.8125 
Q 48.828125 37.15625 52.796875 32.3125 
Q 56.78125 27.484375 56.78125 20.515625 
Q 56.78125 9.90625 50.3125 4.234375 
Q 43.84375 -1.421875 31.78125 -1.421875 
Q 19.734375 -1.421875 13.25 4.234375 
Q 6.78125 9.90625 6.78125 20.515625 
Q 6.78125 27.484375 10.78125 32.3125 
Q 14.796875 37.15625 21.921875 38.8125 
z
M 18.3125 54.390625 
Q 18.3125 48.734375 21.84375 45.5625 
Q 25.390625 42.390625 31.78125 42.390625 
Q 38.140625 42.390625 41.71875 45.5625 
Q 45.3125 48.734375 45.3125 54.390625 
Q 45.3125 60.0625 41.71875 63.234375 
Q 38.140625 66.40625 31.78125 66.40625 
Q 25.390625 66.40625 21.84375 63.234375 
Q 18.3125 60.0625 18.3125 54.390625 
z
" id="DejaVuSans-38"/>
      </defs>
      <g transform="translate(826.417153 527.238438)scale(0.1 -0.1)">
       <use xlink:href="#DejaVuSans-30"/>
       <use x="63.623047" xlink:href="#DejaVuSans-2e"/>
       <use x="95.410156" xlink:href="#DejaVuSans-38"/>
      </g>
     </g>
    </g>
    <g id="xtick_6">
     <g id="line2d_6">
      <g>
       <use style="stroke:#000000;stroke-width:0.8;" x="985.279076" xlink:href="#me0f85dc8cf" y="512.64"/>
      </g>
     </g>
     <g id="text_6">
      <!-- 1.0 -->
      <defs>
       <path d="M 12.40625 8.296875 
L 28.515625 8.296875 
L 28.515625 63.921875 
L 10.984375 60.40625 
L 10.984375 69.390625 
L 28.421875 72.90625 
L 38.28125 72.90625 
L 38.28125 8.296875 
L 54.390625 8.296875 
L 54.390625 0 
L 12.40625 0 
z
" id="DejaVuSans-31"/>
      </defs>
      <g transform="translate(977.327514 527.238438)scale(0.1 -0.1)">
       <use xlink:href="#DejaVuSans-31"/>
       <use x="63.623047" xlink:href="#DejaVuSans-2e"/>
       <use x="95.410156" xlink:href="#DejaVuSans-30"/>
      </g>
     </g>
    </g>
    <g id="xtick_7">
     <g id="line2d_7">
      <g>
       <use style="stroke:#000000;stroke-width:0.8;" x="1136.189437" xlink:href="#me0f85dc8cf" y="512.64"/>
      </g>
     </g>
     <g id="text_7">
      <!-- 1.2 -->
      <g transform="translate(1128.237874 527.238438)scale(0.1 -0.1)">
       <use xlink:href="#DejaVuSans-31"/>
       <use x="63.623047" xlink:href="#DejaVuSans-2e"/>
       <use x="95.410156" xlink:href="#DejaVuSans-32"/>
      </g>
     </g>
    </g>
    <g id="xtick_8">
     <g id="line2d_8">
      <g>
       <use style="stroke:#000000;stroke-width:0.8;" x="1287.099797" xlink:href="#me0f85dc8cf" y="512.64"/>
      </g>
     </g>
     <g id="text_8">
      <!-- 1.4 -->
      <g transform="translate(1279.148235 527.238438)scale(0.1 -0.1)">
       <use xlink:href="#DejaVuSans-31"/>
       <use x="63.623047" xlink:href="#DejaVuSans-2e"/>
       <use x="95.410156" xlink:href="#DejaVuSans-34"/>
      </g>
     </g>
    </g>
   </g>
   <g id="matplotlib.axis_2">
    <g id="ytick_1">
     <g id="line2d_9">
      <defs>
       <path d="M 0 0 
L -3.5 0 
" id="m878c818f54" style="stroke:#000000;stroke-width:0.8;"/>
      </defs>
      <g>
       <use style="stroke:#000000;stroke-width:0.8;" x="180" xlink:href="#m878c818f54" y="466.304325"/>
      </g>
     </g>
     <g id="text_9">
      <!-- 0.3005 -->
      <defs>
       <path d="M 40.578125 39.3125 
Q 47.65625 37.796875 51.625 33 
Q 55.609375 28.21875 55.609375 21.1875 
Q 55.609375 10.40625 48.1875 4.484375 
Q 40.765625 -1.421875 27.09375 -1.421875 
Q 22.515625 -1.421875 17.65625 -0.515625 
Q 12.796875 0.390625 7.625 2.203125 
L 7.625 11.71875 
Q 11.71875 9.328125 16.59375 8.109375 
Q 21.484375 6.890625 26.8125 6.890625 
Q 36.078125 6.890625 40.9375 10.546875 
Q 45.796875 14.203125 45.796875 21.1875 
Q 45.796875 27.640625 41.28125 31.265625 
Q 36.765625 34.90625 28.71875 34.90625 
L 20.21875 34.90625 
L 20.21875 43.015625 
L 29.109375 43.015625 
Q 36.375 43.015625 40.234375 45.921875 
Q 44.09375 48.828125 44.09375 54.296875 
Q 44.09375 59.90625 40.109375 62.90625 
Q 36.140625 65.921875 28.71875 65.921875 
Q 24.65625 65.921875 20.015625 65.03125 
Q 15.375 64.15625 9.8125 62.3125 
L 9.8125 71.09375 
Q 15.4375 72.65625 20.34375 73.4375 
Q 25.25 74.21875 29.59375 74.21875 
Q 40.828125 74.21875 47.359375 69.109375 
Q 53.90625 64.015625 53.90625 55.328125 
Q 53.90625 49.265625 50.4375 45.09375 
Q 46.96875 40.921875 40.578125 39.3125 
z
" id="DejaVuSans-33"/>
       <path d="M 10.796875 72.90625 
L 49.515625 72.90625 
L 49.515625 64.59375 
L 19.828125 64.59375 
L 19.828125 46.734375 
Q 21.96875 47.46875 24.109375 47.828125 
Q 26.265625 48.1875 28.421875 48.1875 
Q 40.625 48.1875 47.75 41.5 
Q 54.890625 34.8125 54.890625 23.390625 
Q 54.890625 11.625 47.5625 5.09375 
Q 40.234375 -1.421875 26.90625 -1.421875 
Q 22.3125 -1.421875 17.546875 -0.640625 
Q 12.796875 0.140625 7.71875 1.703125 
L 7.71875 11.625 
Q 12.109375 9.234375 16.796875 8.0625 
Q 21.484375 6.890625 26.703125 6.890625 
Q 35.15625 6.890625 40.078125 11.328125 
Q 45.015625 15.765625 45.015625 23.390625 
Q 45.015625 31 40.078125 35.4375 
Q 35.15625 39.890625 26.703125 39.890625 
Q 22.75 39.890625 18.8125 39.015625 
Q 14.890625 38.140625 10.796875 36.28125 
z
" id="DejaVuSans-35"/>
      </defs>
      <g transform="translate(138.009375 470.103544)scale(0.1 -0.1)">
       <use xlink:href="#DejaVuSans-30"/>
       <use x="63.623047" xlink:href="#DejaVuSans-2e"/>
       <use x="95.410156" xlink:href="#DejaVuSans-33"/>
       <use x="159.033203" xlink:href="#DejaVuSans-30"/>
       <use x="222.65625" xlink:href="#DejaVuSans-30"/>
       <use x="286.279297" xlink:href="#DejaVuSans-35"/>
      </g>
     </g>
    </g>
    <g id="ytick_2">
     <g id="line2d_10">
      <g>
       <use style="stroke:#000000;stroke-width:0.8;" x="180" xlink:href="#m878c818f54" y="387.461932"/>
      </g>
     </g>
     <g id="text_10">
      <!-- 0.3010 -->
      <g transform="translate(138.009375 391.261151)scale(0.1 -0.1)">
       <use xlink:href="#DejaVuSans-30"/>
       <use x="63.623047" xlink:href="#DejaVuSans-2e"/>
       <use x="95.410156" xlink:href="#DejaVuSans-33"/>
       <use x="159.033203" xlink:href="#DejaVuSans-30"/>
       <use x="222.65625" xlink:href="#DejaVuSans-31"/>
       <use x="286.279297" xlink:href="#DejaVuSans-30"/>
      </g>
     </g>
    </g>
    <g id="ytick_3">
     <g id="line2d_11">
      <g>
       <use style="stroke:#000000;stroke-width:0.8;" x="180" xlink:href="#m878c818f54" y="308.619539"/>
      </g>
     </g>
     <g id="text_11">
      <!-- 0.3015 -->
      <g transform="translate(138.009375 312.418757)scale(0.1 -0.1)">
       <use xlink:href="#DejaVuSans-30"/>
       <use x="63.623047" xlink:href="#DejaVuSans-2e"/>
       <use x="95.410156" xlink:href="#DejaVuSans-33"/>
       <use x="159.033203" xlink:href="#DejaVuSans-30"/>
       <use x="222.65625" xlink:href="#DejaVuSans-31"/>
       <use x="286.279297" xlink:href="#DejaVuSans-35"/>
      </g>
     </g>
    </g>
    <g id="ytick_4">
     <g id="line2d_12">
      <g>
       <use style="stroke:#000000;stroke-width:0.8;" x="180" xlink:href="#m878c818f54" y="229.777145"/>
      </g>
     </g>
     <g id="text_12">
      <!-- 0.3020 -->
      <g transform="translate(138.009375 233.576364)scale(0.1 -0.1)">
       <use xlink:href="#DejaVuSans-30"/>
       <use x="63.623047" xlink:href="#DejaVuSans-2e"/>
       <use x="95.410156" xlink:href="#DejaVuSans-33"/>
       <use x="159.033203" xlink:href="#DejaVuSans-30"/>
       <use x="222.65625" xlink:href="#DejaVuSans-32"/>
       <use x="286.279297" xlink:href="#DejaVuSans-30"/>
      </g>
     </g>
    </g>
    <g id="ytick_5">
     <g id="line2d_13">
      <g>
       <use style="stroke:#000000;stroke-width:0.8;" x="180" xlink:href="#m878c818f54" y="150.934752"/>
      </g>
     </g>
     <g id="text_13">
      <!-- 0.3025 -->
      <g transform="translate(138.009375 154.73397)scale(0.1 -0.1)">
       <use xlink:href="#DejaVuSans-30"/>
       <use x="63.623047" xlink:href="#DejaVuSans-2e"/>
       <use x="95.410156" xlink:href="#DejaVuSans-33"/>
       <use x="159.033203" xlink:href="#DejaVuSans-30"/>
       <use x="222.65625" xlink:href="#DejaVuSans-32"/>
       <use x="286.279297" xlink:href="#DejaVuSans-35"/>
      </g>
     </g>
    </g>
    <g id="ytick_6">
     <g id="line2d_14">
      <g>
       <use style="stroke:#000000;stroke-width:0.8;" x="180" xlink:href="#m878c818f54" y="72.092358"/>
      </g>
     </g>
     <g id="text_14">
      <!-- 0.3030 -->
      <g transform="translate(138.009375 75.891577)scale(0.1 -0.1)">
       <use xlink:href="#DejaVuSans-30"/>
       <use x="63.623047" xlink:href="#DejaVuSans-2e"/>
       <use x="95.410156" xlink:href="#DejaVuSans-33"/>
       <use x="159.033203" xlink:href="#DejaVuSans-30"/>
       <use x="222.65625" xlink:href="#DejaVuSans-33"/>
       <use x="286.279297" xlink:href="#DejaVuSans-30"/>
      </g>
     </g>
    </g>
   </g>
   <g id="line2d_15">
    <path clip-path="url(#p4c72c777c2)" d="M 230.727273 475.134673 
L 241.392862 471.192554 
L 251.318237 476.080782 
L 261.582405 465.673586 
L 272.132548 480.653641 
L 282.024723 478.446054 
L 292.064034 479.392163 
L 302.427049 467.408119 
L 312.387133 472.138662 
L 325.037948 463.308314 
L 335.032741 476.080782 
L 345.474229 486.487978 
L 355.948163 484.753445 
L 365.805627 486.014924 
L 376.042632 484.438076 
L 386.398101 468.984967 
L 396.263111 89.28 
L 406.479742 489.957043 
L 416.850302 470.08876 
L 426.713804 487.591772 
L 436.919871 480.969011 
L 447.315331 479.707532 
L 457.197696 463.781369 
L 467.46111 477.65763 
L 478.094254 490.430098 
L 488.00001 482.703543 
L 498.41358 423.571748 
L 508.413655 477.815315 
L 518.376002 481.442065 
L 529.090638 489.483989 
L 539.237096 474.503934 
L 551.948275 474.661619 
L 563.86793 486.803348 
L 574.695749 474.03088 
L 584.705633 472.138662 
L 594.587998 487.118717 
L 605.149459 480.022902 
L 615.146516 468.038858 
L 625.136782 472.138662 
L 635.565443 481.442065 
L 645.652291 483.176598 
L 655.645575 482.388174 
L 666.240992 488.53788 
L 676.145239 478.288369 
L 686.007231 483.649652 
L 696.680366 487.276402 
L 706.860779 484.280391 
L 716.736353 480.495956 
L 727.323469 489.957043 
L 738.044896 483.965022 
L 748.038934 477.815315 
L 757.922054 488.222511 
L 767.950802 483.807337 
L 777.84524 483.334282 
L 788.162981 485.541869 
L 798.06421 483.176598 
L 807.960911 486.330293 
L 818.604619 458.420086 
L 828.465102 483.807337 
L 838.339167 484.595761 
L 849.069648 479.707532 
L 858.928622 484.438076 
L 868.749114 486.330293 
L 879.567123 441.390129 
L 889.512116 490.430098 
L 899.401272 486.803348 
L 910.084216 390.930997 
L 919.878299 483.018913 
L 929.706336 484.595761 
L 940.522081 482.230489 
L 950.323709 481.915119 
L 960.166083 489.326304 
L 971.010501 460.785358 
L 980.818166 426.725444 
L 990.65073 488.53788 
L 1001.458176 467.092749 
L 1011.270367 492.48 
L 1021.08935 486.645663 
L 1031.97376 480.653641 
L 1041.783688 487.591772 
L 1051.613234 486.645663 
L 1062.439543 481.59975 
L 1072.247208 485.2265 
L 1082.088072 483.807337 
L 1092.895518 457.158608 
L 1102.715255 492.48 
L 1112.562911 488.85325 
L 1123.384693 478.130684 
L 1133.19613 488.222511 
L 1143.050576 487.749456 
L 1153.881413 485.699554 
L 1163.729823 485.857239 
L 1173.554842 484.438076 
L 1184.354742 483.491967 
L 1194.204661 486.961032 
L 1204.02138 485.068815 
L 1214.797134 441.390129 
L 1224.64479 488.695565 
L 1234.4683 480.811326 
L 1245.272727 479.865217 
" style="fill:none;stroke:#ff0000;stroke-dasharray:5.55,2.4;stroke-dashoffset:0;stroke-width:1.5;"/>
    <defs>
     <path d="M -3 3 
L 3 3 
L 3 -3 
L -3 -3 
z
" id="m36c4a4b884" style="stroke:#ff0000;stroke-linejoin:miter;"/>
    </defs>
    <g clip-path="url(#p4c72c777c2)">
     <use style="fill:#ff0000;stroke:#ff0000;stroke-linejoin:miter;" x="230.727273" xlink:href="#m36c4a4b884" y="475.134673"/>
     <use style="fill:#ff0000;stroke:#ff0000;stroke-linejoin:miter;" x="241.392862" xlink:href="#m36c4a4b884" y="471.192554"/>
     <use style="fill:#ff0000;stroke:#ff0000;stroke-linejoin:miter;" x="251.318237" xlink:href="#m36c4a4b884" y="476.080782"/>
     <use style="fill:#ff0000;stroke:#ff0000;stroke-linejoin:miter;" x="261.582405" xlink:href="#m36c4a4b884" y="465.673586"/>
     <use style="fill:#ff0000;stroke:#ff0000;stroke-linejoin:miter;" x="272.132548" xlink:href="#m36c4a4b884" y="480.653641"/>
     <use style="fill:#ff0000;stroke:#ff0000;stroke-linejoin:miter;" x="282.024723" xlink:href="#m36c4a4b884" y="478.446054"/>
     <use style="fill:#ff0000;stroke:#ff0000;stroke-linejoin:miter;" x="292.064034" xlink:href="#m36c4a4b884" y="479.392163"/>
     <use style="fill:#ff0000;stroke:#ff0000;stroke-linejoin:miter;" x="302.427049" xlink:href="#m36c4a4b884" y="467.408119"/>
     <use style="fill:#ff0000;stroke:#ff0000;stroke-linejoin:miter;" x="312.387133" xlink:href="#m36c4a4b884" y="472.138662"/>
     <use style="fill:#ff0000;stroke:#ff0000;stroke-linejoin:miter;" x="325.037948" xlink:href="#m36c4a4b884" y="463.308314"/>
     <use style="fill:#ff0000;stroke:#ff0000;stroke-linejoin:miter;" x="335.032741" xlink:href="#m36c4a4b884" y="476.080782"/>
     <use style="fill:#ff0000;stroke:#ff0000;stroke-linejoin:miter;" x="345.474229" xlink:href="#m36c4a4b884" y="486.487978"/>
     <use style="fill:#ff0000;stroke:#ff0000;stroke-linejoin:miter;" x="355.948163" xlink:href="#m36c4a4b884" y="484.753445"/>
     <use style="fill:#ff0000;stroke:#ff0000;stroke-linejoin:miter;" x="365.805627" xlink:href="#m36c4a4b884" y="486.014924"/>
     <use style="fill:#ff0000;stroke:#ff0000;stroke-linejoin:miter;" x="376.042632" xlink:href="#m36c4a4b884" y="484.438076"/>
     <use style="fill:#ff0000;stroke:#ff0000;stroke-linejoin:miter;" x="386.398101" xlink:href="#m36c4a4b884" y="468.984967"/>
     <use style="fill:#ff0000;stroke:#ff0000;stroke-linejoin:miter;" x="396.263111" xlink:href="#m36c4a4b884" y="89.28"/>
     <use style="fill:#ff0000;stroke:#ff0000;stroke-linejoin:miter;" x="406.479742" xlink:href="#m36c4a4b884" y="489.957043"/>
     <use style="fill:#ff0000;stroke:#ff0000;stroke-linejoin:miter;" x="416.850302" xlink:href="#m36c4a4b884" y="470.08876"/>
     <use style="fill:#ff0000;stroke:#ff0000;stroke-linejoin:miter;" x="426.713804" xlink:href="#m36c4a4b884" y="487.591772"/>
     <use style="fill:#ff0000;stroke:#ff0000;stroke-linejoin:miter;" x="436.919871" xlink:href="#m36c4a4b884" y="480.969011"/>
     <use style="fill:#ff0000;stroke:#ff0000;stroke-linejoin:miter;" x="447.315331" xlink:href="#m36c4a4b884" y="479.707532"/>
     <use style="fill:#ff0000;stroke:#ff0000;stroke-linejoin:miter;" x="457.197696" xlink:href="#m36c4a4b884" y="463.781369"/>
     <use style="fill:#ff0000;stroke:#ff0000;stroke-linejoin:miter;" x="467.46111" xlink:href="#m36c4a4b884" y="477.65763"/>
     <use style="fill:#ff0000;stroke:#ff0000;stroke-linejoin:miter;" x="478.094254" xlink:href="#m36c4a4b884" y="490.430098"/>
     <use style="fill:#ff0000;stroke:#ff0000;stroke-linejoin:miter;" x="488.00001" xlink:href="#m36c4a4b884" y="482.703543"/>
     <use style="fill:#ff0000;stroke:#ff0000;stroke-linejoin:miter;" x="498.41358" xlink:href="#m36c4a4b884" y="423.571748"/>
     <use style="fill:#ff0000;stroke:#ff0000;stroke-linejoin:miter;" x="508.413655" xlink:href="#m36c4a4b884" y="477.815315"/>
     <use style="fill:#ff0000;stroke:#ff0000;stroke-linejoin:miter;" x="518.376002" xlink:href="#m36c4a4b884" y="481.442065"/>
     <use style="fill:#ff0000;stroke:#ff0000;stroke-linejoin:miter;" x="529.090638" xlink:href="#m36c4a4b884" y="489.483989"/>
     <use style="fill:#ff0000;stroke:#ff0000;stroke-linejoin:miter;" x="539.237096" xlink:href="#m36c4a4b884" y="474.503934"/>
     <use style="fill:#ff0000;stroke:#ff0000;stroke-linejoin:miter;" x="551.948275" xlink:href="#m36c4a4b884" y="474.661619"/>
     <use style="fill:#ff0000;stroke:#ff0000;stroke-linejoin:miter;" x="563.86793" xlink:href="#m36c4a4b884" y="486.803348"/>
     <use style="fill:#ff0000;stroke:#ff0000;stroke-linejoin:miter;" x="574.695749" xlink:href="#m36c4a4b884" y="474.03088"/>
     <use style="fill:#ff0000;stroke:#ff0000;stroke-linejoin:miter;" x="584.705633" xlink:href="#m36c4a4b884" y="472.138662"/>
     <use style="fill:#ff0000;stroke:#ff0000;stroke-linejoin:miter;" x="594.587998" xlink:href="#m36c4a4b884" y="487.118717"/>
     <use style="fill:#ff0000;stroke:#ff0000;stroke-linejoin:miter;" x="605.149459" xlink:href="#m36c4a4b884" y="480.022902"/>
     <use style="fill:#ff0000;stroke:#ff0000;stroke-linejoin:miter;" x="615.146516" xlink:href="#m36c4a4b884" y="468.038858"/>
     <use style="fill:#ff0000;stroke:#ff0000;stroke-linejoin:miter;" x="625.136782" xlink:href="#m36c4a4b884" y="472.138662"/>
     <use style="fill:#ff0000;stroke:#ff0000;stroke-linejoin:miter;" x="635.565443" xlink:href="#m36c4a4b884" y="481.442065"/>
     <use style="fill:#ff0000;stroke:#ff0000;stroke-linejoin:miter;" x="645.652291" xlink:href="#m36c4a4b884" y="483.176598"/>
     <use style="fill:#ff0000;stroke:#ff0000;stroke-linejoin:miter;" x="655.645575" xlink:href="#m36c4a4b884" y="482.388174"/>
     <use style="fill:#ff0000;stroke:#ff0000;stroke-linejoin:miter;" x="666.240992" xlink:href="#m36c4a4b884" y="488.53788"/>
     <use style="fill:#ff0000;stroke:#ff0000;stroke-linejoin:miter;" x="676.145239" xlink:href="#m36c4a4b884" y="478.288369"/>
     <use style="fill:#ff0000;stroke:#ff0000;stroke-linejoin:miter;" x="686.007231" xlink:href="#m36c4a4b884" y="483.649652"/>
     <use style="fill:#ff0000;stroke:#ff0000;stroke-linejoin:miter;" x="696.680366" xlink:href="#m36c4a4b884" y="487.276402"/>
     <use style="fill:#ff0000;stroke:#ff0000;stroke-linejoin:miter;" x="706.860779" xlink:href="#m36c4a4b884" y="484.280391"/>
     <use style="fill:#ff0000;stroke:#ff0000;stroke-linejoin:miter;" x="716.736353" xlink:href="#m36c4a4b884" y="480.495956"/>
     <use style="fill:#ff0000;stroke:#ff0000;stroke-linejoin:miter;" x="727.323469" xlink:href="#m36c4a4b884" y="489.957043"/>
     <use style="fill:#ff0000;stroke:#ff0000;stroke-linejoin:miter;" x="738.044896" xlink:href="#m36c4a4b884" y="483.965022"/>
     <use style="fill:#ff0000;stroke:#ff0000;stroke-linejoin:miter;" x="748.038934" xlink:href="#m36c4a4b884" y="477.815315"/>
     <use style="fill:#ff0000;stroke:#ff0000;stroke-linejoin:miter;" x="757.922054" xlink:href="#m36c4a4b884" y="488.222511"/>
     <use style="fill:#ff0000;stroke:#ff0000;stroke-linejoin:miter;" x="767.950802" xlink:href="#m36c4a4b884" y="483.807337"/>
     <use style="fill:#ff0000;stroke:#ff0000;stroke-linejoin:miter;" x="777.84524" xlink:href="#m36c4a4b884" y="483.334282"/>
     <use style="fill:#ff0000;stroke:#ff0000;stroke-linejoin:miter;" x="788.162981" xlink:href="#m36c4a4b884" y="485.541869"/>
     <use style="fill:#ff0000;stroke:#ff0000;stroke-linejoin:miter;" x="798.06421" xlink:href="#m36c4a4b884" y="483.176598"/>
     <use style="fill:#ff0000;stroke:#ff0000;stroke-linejoin:miter;" x="807.960911" xlink:href="#m36c4a4b884" y="486.330293"/>
     <use style="fill:#ff0000;stroke:#ff0000;stroke-linejoin:miter;" x="818.604619" xlink:href="#m36c4a4b884" y="458.420086"/>
     <use style="fill:#ff0000;stroke:#ff0000;stroke-linejoin:miter;" x="828.465102" xlink:href="#m36c4a4b884" y="483.807337"/>
     <use style="fill:#ff0000;stroke:#ff0000;stroke-linejoin:miter;" x="838.339167" xlink:href="#m36c4a4b884" y="484.595761"/>
     <use style="fill:#ff0000;stroke:#ff0000;stroke-linejoin:miter;" x="849.069648" xlink:href="#m36c4a4b884" y="479.707532"/>
     <use style="fill:#ff0000;stroke:#ff0000;stroke-linejoin:miter;" x="858.928622" xlink:href="#m36c4a4b884" y="484.438076"/>
     <use style="fill:#ff0000;stroke:#ff0000;stroke-linejoin:miter;" x="868.749114" xlink:href="#m36c4a4b884" y="486.330293"/>
     <use style="fill:#ff0000;stroke:#ff0000;stroke-linejoin:miter;" x="879.567123" xlink:href="#m36c4a4b884" y="441.390129"/>
     <use style="fill:#ff0000;stroke:#ff0000;stroke-linejoin:miter;" x="889.512116" xlink:href="#m36c4a4b884" y="490.430098"/>
     <use style="fill:#ff0000;stroke:#ff0000;stroke-linejoin:miter;" x="899.401272" xlink:href="#m36c4a4b884" y="486.803348"/>
     <use style="fill:#ff0000;stroke:#ff0000;stroke-linejoin:miter;" x="910.084216" xlink:href="#m36c4a4b884" y="390.930997"/>
     <use style="fill:#ff0000;stroke:#ff0000;stroke-linejoin:miter;" x="919.878299" xlink:href="#m36c4a4b884" y="483.018913"/>
     <use style="fill:#ff0000;stroke:#ff0000;stroke-linejoin:miter;" x="929.706336" xlink:href="#m36c4a4b884" y="484.595761"/>
     <use style="fill:#ff0000;stroke:#ff0000;stroke-linejoin:miter;" x="940.522081" xlink:href="#m36c4a4b884" y="482.230489"/>
     <use style="fill:#ff0000;stroke:#ff0000;stroke-linejoin:miter;" x="950.323709" xlink:href="#m36c4a4b884" y="481.915119"/>
     <use style="fill:#ff0000;stroke:#ff0000;stroke-linejoin:miter;" x="960.166083" xlink:href="#m36c4a4b884" y="489.326304"/>
     <use style="fill:#ff0000;stroke:#ff0000;stroke-linejoin:miter;" x="971.010501" xlink:href="#m36c4a4b884" y="460.785358"/>
     <use style="fill:#ff0000;stroke:#ff0000;stroke-linejoin:miter;" x="980.818166" xlink:href="#m36c4a4b884" y="426.725444"/>
     <use style="fill:#ff0000;stroke:#ff0000;stroke-linejoin:miter;" x="990.65073" xlink:href="#m36c4a4b884" y="488.53788"/>
     <use style="fill:#ff0000;stroke:#ff0000;stroke-linejoin:miter;" x="1001.458176" xlink:href="#m36c4a4b884" y="467.092749"/>
     <use style="fill:#ff0000;stroke:#ff0000;stroke-linejoin:miter;" x="1011.270367" xlink:href="#m36c4a4b884" y="492.48"/>
     <use style="fill:#ff0000;stroke:#ff0000;stroke-linejoin:miter;" x="1021.08935" xlink:href="#m36c4a4b884" y="486.645663"/>
     <use style="fill:#ff0000;stroke:#ff0000;stroke-linejoin:miter;" x="1031.97376" xlink:href="#m36c4a4b884" y="480.653641"/>
     <use style="fill:#ff0000;stroke:#ff0000;stroke-linejoin:miter;" x="1041.783688" xlink:href="#m36c4a4b884" y="487.591772"/>
     <use style="fill:#ff0000;stroke:#ff0000;stroke-linejoin:miter;" x="1051.613234" xlink:href="#m36c4a4b884" y="486.645663"/>
     <use style="fill:#ff0000;stroke:#ff0000;stroke-linejoin:miter;" x="1062.439543" xlink:href="#m36c4a4b884" y="481.59975"/>
     <use style="fill:#ff0000;stroke:#ff0000;stroke-linejoin:miter;" x="1072.247208" xlink:href="#m36c4a4b884" y="485.2265"/>
     <use style="fill:#ff0000;stroke:#ff0000;stroke-linejoin:miter;" x="1082.088072" xlink:href="#m36c4a4b884" y="483.807337"/>
     <use style="fill:#ff0000;stroke:#ff0000;stroke-linejoin:miter;" x="1092.895518" xlink:href="#m36c4a4b884" y="457.158608"/>
     <use style="fill:#ff0000;stroke:#ff0000;stroke-linejoin:miter;" x="1102.715255" xlink:href="#m36c4a4b884" y="492.48"/>
     <use style="fill:#ff0000;stroke:#ff0000;stroke-linejoin:miter;" x="1112.562911" xlink:href="#m36c4a4b884" y="488.85325"/>
     <use style="fill:#ff0000;stroke:#ff0000;stroke-linejoin:miter;" x="1123.384693" xlink:href="#m36c4a4b884" y="478.130684"/>
     <use style="fill:#ff0000;stroke:#ff0000;stroke-linejoin:miter;" x="1133.19613" xlink:href="#m36c4a4b884" y="488.222511"/>
     <use style="fill:#ff0000;stroke:#ff0000;stroke-linejoin:miter;" x="1143.050576" xlink:href="#m36c4a4b884" y="487.749456"/>
     <use style="fill:#ff0000;stroke:#ff0000;stroke-linejoin:miter;" x="1153.881413" xlink:href="#m36c4a4b884" y="485.699554"/>
     <use style="fill:#ff0000;stroke:#ff0000;stroke-linejoin:miter;" x="1163.729823" xlink:href="#m36c4a4b884" y="485.857239"/>
     <use style="fill:#ff0000;stroke:#ff0000;stroke-linejoin:miter;" x="1173.554842" xlink:href="#m36c4a4b884" y="484.438076"/>
     <use style="fill:#ff0000;stroke:#ff0000;stroke-linejoin:miter;" x="1184.354742" xlink:href="#m36c4a4b884" y="483.491967"/>
     <use style="fill:#ff0000;stroke:#ff0000;stroke-linejoin:miter;" x="1194.204661" xlink:href="#m36c4a4b884" y="486.961032"/>
     <use style="fill:#ff0000;stroke:#ff0000;stroke-linejoin:miter;" x="1204.02138" xlink:href="#m36c4a4b884" y="485.068815"/>
     <use style="fill:#ff0000;stroke:#ff0000;stroke-linejoin:miter;" x="1214.797134" xlink:href="#m36c4a4b884" y="441.390129"/>
     <use style="fill:#ff0000;stroke:#ff0000;stroke-linejoin:miter;" x="1224.64479" xlink:href="#m36c4a4b884" y="488.695565"/>
     <use style="fill:#ff0000;stroke:#ff0000;stroke-linejoin:miter;" x="1234.4683" xlink:href="#m36c4a4b884" y="480.811326"/>
     <use style="fill:#ff0000;stroke:#ff0000;stroke-linejoin:miter;" x="1245.272727" xlink:href="#m36c4a4b884" y="479.865217"/>
    </g>
   </g>
   <g id="line2d_16">
    <path clip-path="url(#p4c72c777c2)" d="M 230.727273 475.134673 
L 241.392862 471.192554 
L 251.318237 476.080782 
L 261.582405 465.673586 
L 272.132548 480.653641 
L 282.024723 478.446054 
L 292.064034 479.392163 
L 302.427049 467.408119 
L 312.387133 472.138662 
L 325.037948 463.308314 
L 335.032741 476.080782 
L 345.474229 486.487978 
L 355.948163 484.753445 
L 365.805627 486.014924 
L 376.042632 484.438076 
L 386.398101 468.984967 
L 396.263111 89.28 
L 406.479742 489.957043 
L 416.850302 470.08876 
L 426.713804 487.591772 
L 436.919871 480.969011 
L 447.315331 479.707532 
L 457.197696 463.781369 
L 467.46111 477.65763 
L 478.094254 490.430098 
L 488.00001 482.703543 
L 498.41358 423.571748 
L 508.413655 477.815315 
L 518.376002 481.442065 
L 529.090638 489.483989 
L 539.237096 474.503934 
L 551.948275 474.661619 
L 563.86793 486.803348 
L 574.695749 474.03088 
L 584.705633 472.138662 
L 594.587998 487.118717 
L 605.149459 480.022902 
L 615.146516 468.038858 
L 625.136782 472.138662 
L 635.565443 481.442065 
L 645.652291 483.176598 
L 655.645575 482.388174 
L 666.240992 488.53788 
L 676.145239 478.288369 
L 686.007231 483.649652 
L 696.680366 487.276402 
L 706.860779 484.280391 
L 716.736353 480.495956 
L 727.323469 489.957043 
L 738.044896 483.965022 
L 748.038934 477.815315 
L 757.922054 488.222511 
L 767.950802 483.807337 
L 777.84524 483.334282 
L 788.162981 485.541869 
L 798.06421 483.176598 
L 807.960911 486.330293 
L 818.604619 458.420086 
L 828.465102 483.807337 
L 838.339167 484.595761 
L 849.069648 479.707532 
L 858.928622 484.438076 
L 868.749114 486.330293 
L 879.567123 441.390129 
L 889.512116 490.430098 
L 899.401272 486.803348 
L 910.084216 390.930997 
L 919.878299 483.018913 
L 929.706336 484.595761 
L 940.522081 482.230489 
L 950.323709 481.915119 
L 960.166083 489.326304 
L 971.010501 460.785358 
L 980.818166 426.725444 
L 990.65073 488.53788 
L 1001.458176 467.092749 
L 1011.270367 492.48 
L 1021.08935 486.645663 
L 1031.97376 480.653641 
L 1041.783688 487.591772 
L 1051.613234 486.645663 
L 1062.439543 481.59975 
L 1072.247208 485.2265 
L 1082.088072 483.807337 
L 1092.895518 457.158608 
L 1102.715255 492.48 
L 1112.562911 488.85325 
L 1123.384693 478.130684 
L 1133.19613 488.222511 
L 1143.050576 487.749456 
L 1153.881413 485.699554 
L 1163.729823 485.857239 
L 1173.554842 484.438076 
L 1184.354742 483.491967 
L 1194.204661 486.961032 
L 1204.02138 485.068815 
L 1214.797134 441.390129 
L 1224.64479 488.695565 
L 1234.4683 480.811326 
L 1245.272727 479.865217 
" style="fill:none;stroke:#800080;stroke-dasharray:9.6,2.4,1.5,2.4;stroke-dashoffset:0;stroke-width:1.5;"/>
    <defs>
     <path d="M -3 3 
L 3 -3 
M -3 -3 
L 3 3 
" id="mb35e94daf0" style="stroke:#800080;"/>
    </defs>
    <g clip-path="url(#p4c72c777c2)">
     <use style="fill:#800080;stroke:#800080;" x="230.727273" xlink:href="#mb35e94daf0" y="475.134673"/>
     <use style="fill:#800080;stroke:#800080;" x="241.392862" xlink:href="#mb35e94daf0" y="471.192554"/>
     <use style="fill:#800080;stroke:#800080;" x="251.318237" xlink:href="#mb35e94daf0" y="476.080782"/>
     <use style="fill:#800080;stroke:#800080;" x="261.582405" xlink:href="#mb35e94daf0" y="465.673586"/>
     <use style="fill:#800080;stroke:#800080;" x="272.132548" xlink:href="#mb35e94daf0" y="480.653641"/>
     <use style="fill:#800080;stroke:#800080;" x="282.024723" xlink:href="#mb35e94daf0" y="478.446054"/>
     <use style="fill:#800080;stroke:#800080;" x="292.064034" xlink:href="#mb35e94daf0" y="479.392163"/>
     <use style="fill:#800080;stroke:#800080;" x="302.427049" xlink:href="#mb35e94daf0" y="467.408119"/>
     <use style="fill:#800080;stroke:#800080;" x="312.387133" xlink:href="#mb35e94daf0" y="472.138662"/>
     <use style="fill:#800080;stroke:#800080;" x="325.037948" xlink:href="#mb35e94daf0" y="463.308314"/>
     <use style="fill:#800080;stroke:#800080;" x="335.032741" xlink:href="#mb35e94daf0" y="476.080782"/>
     <use style="fill:#800080;stroke:#800080;" x="345.474229" xlink:href="#mb35e94daf0" y="486.487978"/>
     <use style="fill:#800080;stroke:#800080;" x="355.948163" xlink:href="#mb35e94daf0" y="484.753445"/>
     <use style="fill:#800080;stroke:#800080;" x="365.805627" xlink:href="#mb35e94daf0" y="486.014924"/>
     <use style="fill:#800080;stroke:#800080;" x="376.042632" xlink:href="#mb35e94daf0" y="484.438076"/>
     <use style="fill:#800080;stroke:#800080;" x="386.398101" xlink:href="#mb35e94daf0" y="468.984967"/>
     <use style="fill:#800080;stroke:#800080;" x="396.263111" xlink:href="#mb35e94daf0" y="89.28"/>
     <use style="fill:#800080;stroke:#800080;" x="406.479742" xlink:href="#mb35e94daf0" y="489.957043"/>
     <use style="fill:#800080;stroke:#800080;" x="416.850302" xlink:href="#mb35e94daf0" y="470.08876"/>
     <use style="fill:#800080;stroke:#800080;" x="426.713804" xlink:href="#mb35e94daf0" y="487.591772"/>
     <use style="fill:#800080;stroke:#800080;" x="436.919871" xlink:href="#mb35e94daf0" y="480.969011"/>
     <use style="fill:#800080;stroke:#800080;" x="447.315331" xlink:href="#mb35e94daf0" y="479.707532"/>
     <use style="fill:#800080;stroke:#800080;" x="457.197696" xlink:href="#mb35e94daf0" y="463.781369"/>
     <use style="fill:#800080;stroke:#800080;" x="467.46111" xlink:href="#mb35e94daf0" y="477.65763"/>
     <use style="fill:#800080;stroke:#800080;" x="478.094254" xlink:href="#mb35e94daf0" y="490.430098"/>
     <use style="fill:#800080;stroke:#800080;" x="488.00001" xlink:href="#mb35e94daf0" y="482.703543"/>
     <use style="fill:#800080;stroke:#800080;" x="498.41358" xlink:href="#mb35e94daf0" y="423.571748"/>
     <use style="fill:#800080;stroke:#800080;" x="508.413655" xlink:href="#mb35e94daf0" y="477.815315"/>
     <use style="fill:#800080;stroke:#800080;" x="518.376002" xlink:href="#mb35e94daf0" y="481.442065"/>
     <use style="fill:#800080;stroke:#800080;" x="529.090638" xlink:href="#mb35e94daf0" y="489.483989"/>
     <use style="fill:#800080;stroke:#800080;" x="539.237096" xlink:href="#mb35e94daf0" y="474.503934"/>
     <use style="fill:#800080;stroke:#800080;" x="551.948275" xlink:href="#mb35e94daf0" y="474.661619"/>
     <use style="fill:#800080;stroke:#800080;" x="563.86793" xlink:href="#mb35e94daf0" y="486.803348"/>
     <use style="fill:#800080;stroke:#800080;" x="574.695749" xlink:href="#mb35e94daf0" y="474.03088"/>
     <use style="fill:#800080;stroke:#800080;" x="584.705633" xlink:href="#mb35e94daf0" y="472.138662"/>
     <use style="fill:#800080;stroke:#800080;" x="594.587998" xlink:href="#mb35e94daf0" y="487.118717"/>
     <use style="fill:#800080;stroke:#800080;" x="605.149459" xlink:href="#mb35e94daf0" y="480.022902"/>
     <use style="fill:#800080;stroke:#800080;" x="615.146516" xlink:href="#mb35e94daf0" y="468.038858"/>
     <use style="fill:#800080;stroke:#800080;" x="625.136782" xlink:href="#mb35e94daf0" y="472.138662"/>
     <use style="fill:#800080;stroke:#800080;" x="635.565443" xlink:href="#mb35e94daf0" y="481.442065"/>
     <use style="fill:#800080;stroke:#800080;" x="645.652291" xlink:href="#mb35e94daf0" y="483.176598"/>
     <use style="fill:#800080;stroke:#800080;" x="655.645575" xlink:href="#mb35e94daf0" y="482.388174"/>
     <use style="fill:#800080;stroke:#800080;" x="666.240992" xlink:href="#mb35e94daf0" y="488.53788"/>
     <use style="fill:#800080;stroke:#800080;" x="676.145239" xlink:href="#mb35e94daf0" y="478.288369"/>
     <use style="fill:#800080;stroke:#800080;" x="686.007231" xlink:href="#mb35e94daf0" y="483.649652"/>
     <use style="fill:#800080;stroke:#800080;" x="696.680366" xlink:href="#mb35e94daf0" y="487.276402"/>
     <use style="fill:#800080;stroke:#800080;" x="706.860779" xlink:href="#mb35e94daf0" y="484.280391"/>
     <use style="fill:#800080;stroke:#800080;" x="716.736353" xlink:href="#mb35e94daf0" y="480.495956"/>
     <use style="fill:#800080;stroke:#800080;" x="727.323469" xlink:href="#mb35e94daf0" y="489.957043"/>
     <use style="fill:#800080;stroke:#800080;" x="738.044896" xlink:href="#mb35e94daf0" y="483.965022"/>
     <use style="fill:#800080;stroke:#800080;" x="748.038934" xlink:href="#mb35e94daf0" y="477.815315"/>
     <use style="fill:#800080;stroke:#800080;" x="757.922054" xlink:href="#mb35e94daf0" y="488.222511"/>
     <use style="fill:#800080;stroke:#800080;" x="767.950802" xlink:href="#mb35e94daf0" y="483.807337"/>
     <use style="fill:#800080;stroke:#800080;" x="777.84524" xlink:href="#mb35e94daf0" y="483.334282"/>
     <use style="fill:#800080;stroke:#800080;" x="788.162981" xlink:href="#mb35e94daf0" y="485.541869"/>
     <use style="fill:#800080;stroke:#800080;" x="798.06421" xlink:href="#mb35e94daf0" y="483.176598"/>
     <use style="fill:#800080;stroke:#800080;" x="807.960911" xlink:href="#mb35e94daf0" y="486.330293"/>
     <use style="fill:#800080;stroke:#800080;" x="818.604619" xlink:href="#mb35e94daf0" y="458.420086"/>
     <use style="fill:#800080;stroke:#800080;" x="828.465102" xlink:href="#mb35e94daf0" y="483.807337"/>
     <use style="fill:#800080;stroke:#800080;" x="838.339167" xlink:href="#mb35e94daf0" y="484.595761"/>
     <use style="fill:#800080;stroke:#800080;" x="849.069648" xlink:href="#mb35e94daf0" y="479.707532"/>
     <use style="fill:#800080;stroke:#800080;" x="858.928622" xlink:href="#mb35e94daf0" y="484.438076"/>
     <use style="fill:#800080;stroke:#800080;" x="868.749114" xlink:href="#mb35e94daf0" y="486.330293"/>
     <use style="fill:#800080;stroke:#800080;" x="879.567123" xlink:href="#mb35e94daf0" y="441.390129"/>
     <use style="fill:#800080;stroke:#800080;" x="889.512116" xlink:href="#mb35e94daf0" y="490.430098"/>
     <use style="fill:#800080;stroke:#800080;" x="899.401272" xlink:href="#mb35e94daf0" y="486.803348"/>
     <use style="fill:#800080;stroke:#800080;" x="910.084216" xlink:href="#mb35e94daf0" y="390.930997"/>
     <use style="fill:#800080;stroke:#800080;" x="919.878299" xlink:href="#mb35e94daf0" y="483.018913"/>
     <use style="fill:#800080;stroke:#800080;" x="929.706336" xlink:href="#mb35e94daf0" y="484.595761"/>
     <use style="fill:#800080;stroke:#800080;" x="940.522081" xlink:href="#mb35e94daf0" y="482.230489"/>
     <use style="fill:#800080;stroke:#800080;" x="950.323709" xlink:href="#mb35e94daf0" y="481.915119"/>
     <use style="fill:#800080;stroke:#800080;" x="960.166083" xlink:href="#mb35e94daf0" y="489.326304"/>
     <use style="fill:#800080;stroke:#800080;" x="971.010501" xlink:href="#mb35e94daf0" y="460.785358"/>
     <use style="fill:#800080;stroke:#800080;" x="980.818166" xlink:href="#mb35e94daf0" y="426.725444"/>
     <use style="fill:#800080;stroke:#800080;" x="990.65073" xlink:href="#mb35e94daf0" y="488.53788"/>
     <use style="fill:#800080;stroke:#800080;" x="1001.458176" xlink:href="#mb35e94daf0" y="467.092749"/>
     <use style="fill:#800080;stroke:#800080;" x="1011.270367" xlink:href="#mb35e94daf0" y="492.48"/>
     <use style="fill:#800080;stroke:#800080;" x="1021.08935" xlink:href="#mb35e94daf0" y="486.645663"/>
     <use style="fill:#800080;stroke:#800080;" x="1031.97376" xlink:href="#mb35e94daf0" y="480.653641"/>
     <use style="fill:#800080;stroke:#800080;" x="1041.783688" xlink:href="#mb35e94daf0" y="487.591772"/>
     <use style="fill:#800080;stroke:#800080;" x="1051.613234" xlink:href="#mb35e94daf0" y="486.645663"/>
     <use style="fill:#800080;stroke:#800080;" x="1062.439543" xlink:href="#mb35e94daf0" y="481.59975"/>
     <use style="fill:#800080;stroke:#800080;" x="1072.247208" xlink:href="#mb35e94daf0" y="485.2265"/>
     <use style="fill:#800080;stroke:#800080;" x="1082.088072" xlink:href="#mb35e94daf0" y="483.807337"/>
     <use style="fill:#800080;stroke:#800080;" x="1092.895518" xlink:href="#mb35e94daf0" y="457.158608"/>
     <use style="fill:#800080;stroke:#800080;" x="1102.715255" xlink:href="#mb35e94daf0" y="492.48"/>
     <use style="fill:#800080;stroke:#800080;" x="1112.562911" xlink:href="#mb35e94daf0" y="488.85325"/>
     <use style="fill:#800080;stroke:#800080;" x="1123.384693" xlink:href="#mb35e94daf0" y="478.130684"/>
     <use style="fill:#800080;stroke:#800080;" x="1133.19613" xlink:href="#mb35e94daf0" y="488.222511"/>
     <use style="fill:#800080;stroke:#800080;" x="1143.050576" xlink:href="#mb35e94daf0" y="487.749456"/>
     <use style="fill:#800080;stroke:#800080;" x="1153.881413" xlink:href="#mb35e94daf0" y="485.699554"/>
     <use style="fill:#800080;stroke:#800080;" x="1163.729823" xlink:href="#mb35e94daf0" y="485.857239"/>
     <use style="fill:#800080;stroke:#800080;" x="1173.554842" xlink:href="#mb35e94daf0" y="484.438076"/>
     <use style="fill:#800080;stroke:#800080;" x="1184.354742" xlink:href="#mb35e94daf0" y="483.491967"/>
     <use style="fill:#800080;stroke:#800080;" x="1194.204661" xlink:href="#mb35e94daf0" y="486.961032"/>
     <use style="fill:#800080;stroke:#800080;" x="1204.02138" xlink:href="#mb35e94daf0" y="485.068815"/>
     <use style="fill:#800080;stroke:#800080;" x="1214.797134" xlink:href="#mb35e94daf0" y="441.390129"/>
     <use style="fill:#800080;stroke:#800080;" x="1224.64479" xlink:href="#mb35e94daf0" y="488.695565"/>
     <use style="fill:#800080;stroke:#800080;" x="1234.4683" xlink:href="#mb35e94daf0" y="480.811326"/>
     <use style="fill:#800080;stroke:#800080;" x="1245.272727" xlink:href="#mb35e94daf0" y="479.865217"/>
    </g>
   </g>
   <g id="line2d_17">
    <path clip-path="url(#p4c72c777c2)" d="M 230.727273 464.671347 
L 241.392862 464.873412 
L 251.318237 465.061453 
L 261.582405 465.255913 
L 272.132548 465.455791 
L 282.024723 465.643203 
L 292.064034 465.833403 
L 302.427049 466.029736 
L 312.387133 466.218435 
L 325.037948 466.458111 
L 335.032741 466.647467 
L 345.474229 466.845286 
L 355.948163 467.04372 
L 365.805627 467.230475 
L 376.042632 467.42442 
L 386.398101 467.62061 
L 396.263111 467.807508 
L 406.479742 468.001067 
L 416.850302 468.197542 
L 426.713804 468.384411 
L 436.919871 468.577771 
L 447.315331 468.774718 
L 457.197696 468.961944 
L 467.46111 469.15639 
L 478.094254 469.35784 
L 488.00001 469.54551 
L 498.41358 469.7428 
L 508.413655 469.932257 
L 518.376002 470.120998 
L 529.090638 470.323993 
L 539.237096 470.516222 
L 551.948275 470.757042 
L 563.86793 470.982866 
L 574.695749 471.188005 
L 584.705633 471.377647 
L 594.587998 471.564873 
L 605.149459 471.764966 
L 615.146516 471.954365 
L 625.136782 472.143636 
L 635.565443 472.341212 
L 645.652291 472.532312 
L 655.645575 472.72164 
L 666.240992 472.922376 
L 676.145239 473.110017 
L 686.007231 473.296857 
L 696.680366 473.499065 
L 706.860779 473.691938 
L 716.736353 473.879036 
L 727.323469 474.079614 
L 738.044896 474.282737 
L 748.038934 474.472079 
L 757.922054 474.65932 
L 767.950802 474.84932 
L 777.84524 475.036775 
L 788.162981 475.23225 
L 798.06421 475.419834 
L 807.960911 475.607332 
L 818.604619 475.808982 
L 828.465102 475.995794 
L 838.339167 476.182863 
L 849.069648 476.386158 
L 858.928622 476.572941 
L 868.749114 476.758995 
L 879.567123 476.963948 
L 889.512116 477.152361 
L 899.401272 477.339716 
L 910.084216 477.54211 
L 919.878299 477.727663 
L 929.706336 477.913861 
L 940.522081 478.11877 
L 950.323709 478.304467 
L 960.166083 478.490936 
L 971.010501 478.696389 
L 980.818166 478.8822 
L 990.65073 479.068483 
L 1001.458176 479.273236 
L 1011.270367 479.459133 
L 1021.08935 479.645158 
L 1031.97376 479.851369 
L 1041.783688 480.037223 
L 1051.613234 480.223449 
L 1062.439543 480.428559 
L 1072.247208 480.61437 
L 1082.088072 480.80081 
L 1092.895518 481.005563 
L 1102.715255 481.191603 
L 1112.562911 481.378171 
L 1123.384693 481.583196 
L 1133.19613 481.769078 
L 1143.050576 481.955776 
L 1153.881413 482.160971 
L 1163.729823 482.347555 
L 1173.554842 482.533695 
L 1184.354742 482.738304 
L 1194.204661 482.924916 
L 1204.02138 483.110899 
L 1214.797134 483.315051 
L 1224.64479 483.50162 
L 1234.4683 483.687731 
L 1245.272727 483.892426 
" style="fill:none;stroke:#0000ff;stroke-linecap:square;stroke-width:1.5;"/>
   </g>
   <g id="line2d_18">
    <path clip-path="url(#p4c72c777c2)" d="M 230.727273 464.353808 
L 241.392862 464.564337 
L 251.318237 464.760255 
L 261.582405 464.96286 
L 272.132548 465.171111 
L 282.024723 465.366374 
L 292.064034 465.564541 
L 302.427049 465.769097 
L 312.387133 465.965701 
L 325.037948 466.215416 
L 335.032741 466.412705 
L 345.474229 466.61881 
L 355.948163 466.825557 
L 365.805627 467.020134 
L 376.042632 467.222204 
L 386.398101 467.426611 
L 396.263111 467.621338 
L 406.479742 467.823005 
L 416.850302 468.027711 
L 426.713804 468.222407 
L 436.919871 468.423866 
L 447.315331 468.629063 
L 457.197696 468.824132 
L 467.46111 469.026723 
L 478.094254 469.236612 
L 488.00001 469.432143 
L 498.41358 469.637697 
L 508.413655 469.83509 
L 518.376002 470.031738 
L 529.090638 470.243235 
L 539.237096 470.443517 
L 551.948275 470.694425 
L 563.86793 470.929708 
L 574.695749 471.143439 
L 584.705633 471.341026 
L 594.587998 471.536095 
L 605.149459 471.744569 
L 615.146516 471.941902 
L 625.136782 472.139101 
L 635.565443 472.344953 
L 645.652291 472.544059 
L 655.645575 472.741317 
L 666.240992 472.950461 
L 676.145239 473.145962 
L 686.007231 473.340629 
L 696.680366 473.551307 
L 706.860779 473.75226 
L 716.736353 473.947195 
L 727.323469 474.156175 
L 738.044896 474.367806 
L 748.038934 474.56508 
L 757.922054 474.760164 
L 767.950802 474.958122 
L 777.84524 475.15343 
L 788.162981 475.357093 
L 798.06421 475.552534 
L 807.960911 475.747886 
L 818.604619 475.957984 
L 828.465102 476.152621 
L 838.339167 476.347526 
L 849.069648 476.559336 
L 858.928622 476.753944 
L 868.749114 476.947791 
L 879.567123 477.161329 
L 889.512116 477.357635 
L 899.401272 477.552838 
L 910.084216 477.76371 
L 919.878299 477.957036 
L 929.706336 478.151033 
L 940.522081 478.364526 
L 950.323709 478.558001 
L 960.166083 478.752281 
L 971.010501 478.96634 
L 980.818166 479.159935 
L 990.65073 479.354021 
L 1001.458176 479.56735 
L 1011.270367 479.761034 
L 1021.08935 479.954852 
L 1031.97376 480.169701 
L 1041.783688 480.36334 
L 1051.613234 480.557367 
L 1062.439543 480.771068 
L 1072.247208 480.964663 
L 1082.088072 481.158913 
L 1092.895518 481.372242 
L 1102.715255 481.566075 
L 1112.562911 481.760459 
L 1123.384693 481.974071 
L 1133.19613 482.167741 
L 1143.050576 482.362259 
L 1153.881413 482.57605 
L 1163.729823 482.770448 
L 1173.554842 482.964386 
L 1184.354742 483.177566 
L 1194.204661 483.371995 
L 1204.02138 483.565768 
L 1214.797134 483.778472 
L 1224.64479 483.972856 
L 1234.4683 484.166763 
L 1245.272727 484.380033 
" style="fill:none;stroke:#008000;stroke-linecap:square;stroke-width:1.5;"/>
    <defs>
     <path d="M 0 3 
C 0.795609 3 1.55874 2.683901 2.12132 2.12132 
C 2.683901 1.55874 3 0.795609 3 0 
C 3 -0.795609 2.683901 -1.55874 2.12132 -2.12132 
C 1.55874 -2.683901 0.795609 -3 0 -3 
C -0.795609 -3 -1.55874 -2.683901 -2.12132 -2.12132 
C -2.683901 -1.55874 -3 -0.795609 -3 0 
C -3 0.795609 -2.683901 1.55874 -2.12132 2.12132 
C -1.55874 2.683901 -0.795609 3 0 3 
z
" id="ma58aa6cdab" style="stroke:#008000;"/>
    </defs>
    <g clip-path="url(#p4c72c777c2)">
     <use style="fill:#008000;stroke:#008000;" x="230.727273" xlink:href="#ma58aa6cdab" y="464.353808"/>
     <use style="fill:#008000;stroke:#008000;" x="241.392862" xlink:href="#ma58aa6cdab" y="464.564337"/>
     <use style="fill:#008000;stroke:#008000;" x="251.318237" xlink:href="#ma58aa6cdab" y="464.760255"/>
     <use style="fill:#008000;stroke:#008000;" x="261.582405" xlink:href="#ma58aa6cdab" y="464.96286"/>
     <use style="fill:#008000;stroke:#008000;" x="272.132548" xlink:href="#ma58aa6cdab" y="465.171111"/>
     <use style="fill:#008000;stroke:#008000;" x="282.024723" xlink:href="#ma58aa6cdab" y="465.366374"/>
     <use style="fill:#008000;stroke:#008000;" x="292.064034" xlink:href="#ma58aa6cdab" y="465.564541"/>
     <use style="fill:#008000;stroke:#008000;" x="302.427049" xlink:href="#ma58aa6cdab" y="465.769097"/>
     <use style="fill:#008000;stroke:#008000;" x="312.387133" xlink:href="#ma58aa6cdab" y="465.965701"/>
     <use style="fill:#008000;stroke:#008000;" x="325.037948" xlink:href="#ma58aa6cdab" y="466.215416"/>
     <use style="fill:#008000;stroke:#008000;" x="335.032741" xlink:href="#ma58aa6cdab" y="466.412705"/>
     <use style="fill:#008000;stroke:#008000;" x="345.474229" xlink:href="#ma58aa6cdab" y="466.61881"/>
     <use style="fill:#008000;stroke:#008000;" x="355.948163" xlink:href="#ma58aa6cdab" y="466.825557"/>
     <use style="fill:#008000;stroke:#008000;" x="365.805627" xlink:href="#ma58aa6cdab" y="467.020134"/>
     <use style="fill:#008000;stroke:#008000;" x="376.042632" xlink:href="#ma58aa6cdab" y="467.222204"/>
     <use style="fill:#008000;stroke:#008000;" x="386.398101" xlink:href="#ma58aa6cdab" y="467.426611"/>
     <use style="fill:#008000;stroke:#008000;" x="396.263111" xlink:href="#ma58aa6cdab" y="467.621338"/>
     <use style="fill:#008000;stroke:#008000;" x="406.479742" xlink:href="#ma58aa6cdab" y="467.823005"/>
     <use style="fill:#008000;stroke:#008000;" x="416.850302" xlink:href="#ma58aa6cdab" y="468.027711"/>
     <use style="fill:#008000;stroke:#008000;" x="426.713804" xlink:href="#ma58aa6cdab" y="468.222407"/>
     <use style="fill:#008000;stroke:#008000;" x="436.919871" xlink:href="#ma58aa6cdab" y="468.423866"/>
     <use style="fill:#008000;stroke:#008000;" x="447.315331" xlink:href="#ma58aa6cdab" y="468.629063"/>
     <use style="fill:#008000;stroke:#008000;" x="457.197696" xlink:href="#ma58aa6cdab" y="468.824132"/>
     <use style="fill:#008000;stroke:#008000;" x="467.46111" xlink:href="#ma58aa6cdab" y="469.026723"/>
     <use style="fill:#008000;stroke:#008000;" x="478.094254" xlink:href="#ma58aa6cdab" y="469.236612"/>
     <use style="fill:#008000;stroke:#008000;" x="488.00001" xlink:href="#ma58aa6cdab" y="469.432143"/>
     <use style="fill:#008000;stroke:#008000;" x="498.41358" xlink:href="#ma58aa6cdab" y="469.637697"/>
     <use style="fill:#008000;stroke:#008000;" x="508.413655" xlink:href="#ma58aa6cdab" y="469.83509"/>
     <use style="fill:#008000;stroke:#008000;" x="518.376002" xlink:href="#ma58aa6cdab" y="470.031738"/>
     <use style="fill:#008000;stroke:#008000;" x="529.090638" xlink:href="#ma58aa6cdab" y="470.243235"/>
     <use style="fill:#008000;stroke:#008000;" x="539.237096" xlink:href="#ma58aa6cdab" y="470.443517"/>
     <use style="fill:#008000;stroke:#008000;" x="551.948275" xlink:href="#ma58aa6cdab" y="470.694425"/>
     <use style="fill:#008000;stroke:#008000;" x="563.86793" xlink:href="#ma58aa6cdab" y="470.929708"/>
     <use style="fill:#008000;stroke:#008000;" x="574.695749" xlink:href="#ma58aa6cdab" y="471.143439"/>
     <use style="fill:#008000;stroke:#008000;" x="584.705633" xlink:href="#ma58aa6cdab" y="471.341026"/>
     <use style="fill:#008000;stroke:#008000;" x="594.587998" xlink:href="#ma58aa6cdab" y="471.536095"/>
     <use style="fill:#008000;stroke:#008000;" x="605.149459" xlink:href="#ma58aa6cdab" y="471.744569"/>
     <use style="fill:#008000;stroke:#008000;" x="615.146516" xlink:href="#ma58aa6cdab" y="471.941902"/>
     <use style="fill:#008000;stroke:#008000;" x="625.136782" xlink:href="#ma58aa6cdab" y="472.139101"/>
     <use style="fill:#008000;stroke:#008000;" x="635.565443" xlink:href="#ma58aa6cdab" y="472.344953"/>
     <use style="fill:#008000;stroke:#008000;" x="645.652291" xlink:href="#ma58aa6cdab" y="472.544059"/>
     <use style="fill:#008000;stroke:#008000;" x="655.645575" xlink:href="#ma58aa6cdab" y="472.741317"/>
     <use style="fill:#008000;stroke:#008000;" x="666.240992" xlink:href="#ma58aa6cdab" y="472.950461"/>
     <use style="fill:#008000;stroke:#008000;" x="676.145239" xlink:href="#ma58aa6cdab" y="473.145962"/>
     <use style="fill:#008000;stroke:#008000;" x="686.007231" xlink:href="#ma58aa6cdab" y="473.340629"/>
     <use style="fill:#008000;stroke:#008000;" x="696.680366" xlink:href="#ma58aa6cdab" y="473.551307"/>
     <use style="fill:#008000;stroke:#008000;" x="706.860779" xlink:href="#ma58aa6cdab" y="473.75226"/>
     <use style="fill:#008000;stroke:#008000;" x="716.736353" xlink:href="#ma58aa6cdab" y="473.947195"/>
     <use style="fill:#008000;stroke:#008000;" x="727.323469" xlink:href="#ma58aa6cdab" y="474.156175"/>
     <use style="fill:#008000;stroke:#008000;" x="738.044896" xlink:href="#ma58aa6cdab" y="474.367806"/>
     <use style="fill:#008000;stroke:#008000;" x="748.038934" xlink:href="#ma58aa6cdab" y="474.56508"/>
     <use style="fill:#008000;stroke:#008000;" x="757.922054" xlink:href="#ma58aa6cdab" y="474.760164"/>
     <use style="fill:#008000;stroke:#008000;" x="767.950802" xlink:href="#ma58aa6cdab" y="474.958122"/>
     <use style="fill:#008000;stroke:#008000;" x="777.84524" xlink:href="#ma58aa6cdab" y="475.15343"/>
     <use style="fill:#008000;stroke:#008000;" x="788.162981" xlink:href="#ma58aa6cdab" y="475.357093"/>
     <use style="fill:#008000;stroke:#008000;" x="798.06421" xlink:href="#ma58aa6cdab" y="475.552534"/>
     <use style="fill:#008000;stroke:#008000;" x="807.960911" xlink:href="#ma58aa6cdab" y="475.747886"/>
     <use style="fill:#008000;stroke:#008000;" x="818.604619" xlink:href="#ma58aa6cdab" y="475.957984"/>
     <use style="fill:#008000;stroke:#008000;" x="828.465102" xlink:href="#ma58aa6cdab" y="476.152621"/>
     <use style="fill:#008000;stroke:#008000;" x="838.339167" xlink:href="#ma58aa6cdab" y="476.347526"/>
     <use style="fill:#008000;stroke:#008000;" x="849.069648" xlink:href="#ma58aa6cdab" y="476.559336"/>
     <use style="fill:#008000;stroke:#008000;" x="858.928622" xlink:href="#ma58aa6cdab" y="476.753944"/>
     <use style="fill:#008000;stroke:#008000;" x="868.749114" xlink:href="#ma58aa6cdab" y="476.947791"/>
     <use style="fill:#008000;stroke:#008000;" x="879.567123" xlink:href="#ma58aa6cdab" y="477.161329"/>
     <use style="fill:#008000;stroke:#008000;" x="889.512116" xlink:href="#ma58aa6cdab" y="477.357635"/>
     <use style="fill:#008000;stroke:#008000;" x="899.401272" xlink:href="#ma58aa6cdab" y="477.552838"/>
     <use style="fill:#008000;stroke:#008000;" x="910.084216" xlink:href="#ma58aa6cdab" y="477.76371"/>
     <use style="fill:#008000;stroke:#008000;" x="919.878299" xlink:href="#ma58aa6cdab" y="477.957036"/>
     <use style="fill:#008000;stroke:#008000;" x="929.706336" xlink:href="#ma58aa6cdab" y="478.151033"/>
     <use style="fill:#008000;stroke:#008000;" x="940.522081" xlink:href="#ma58aa6cdab" y="478.364526"/>
     <use style="fill:#008000;stroke:#008000;" x="950.323709" xlink:href="#ma58aa6cdab" y="478.558001"/>
     <use style="fill:#008000;stroke:#008000;" x="960.166083" xlink:href="#ma58aa6cdab" y="478.752281"/>
     <use style="fill:#008000;stroke:#008000;" x="971.010501" xlink:href="#ma58aa6cdab" y="478.96634"/>
     <use style="fill:#008000;stroke:#008000;" x="980.818166" xlink:href="#ma58aa6cdab" y="479.159935"/>
     <use style="fill:#008000;stroke:#008000;" x="990.65073" xlink:href="#ma58aa6cdab" y="479.354021"/>
     <use style="fill:#008000;stroke:#008000;" x="1001.458176" xlink:href="#ma58aa6cdab" y="479.56735"/>
     <use style="fill:#008000;stroke:#008000;" x="1011.270367" xlink:href="#ma58aa6cdab" y="479.761034"/>
     <use style="fill:#008000;stroke:#008000;" x="1021.08935" xlink:href="#ma58aa6cdab" y="479.954852"/>
     <use style="fill:#008000;stroke:#008000;" x="1031.97376" xlink:href="#ma58aa6cdab" y="480.169701"/>
     <use style="fill:#008000;stroke:#008000;" x="1041.783688" xlink:href="#ma58aa6cdab" y="480.36334"/>
     <use style="fill:#008000;stroke:#008000;" x="1051.613234" xlink:href="#ma58aa6cdab" y="480.557367"/>
     <use style="fill:#008000;stroke:#008000;" x="1062.439543" xlink:href="#ma58aa6cdab" y="480.771068"/>
     <use style="fill:#008000;stroke:#008000;" x="1072.247208" xlink:href="#ma58aa6cdab" y="480.964663"/>
     <use style="fill:#008000;stroke:#008000;" x="1082.088072" xlink:href="#ma58aa6cdab" y="481.158913"/>
     <use style="fill:#008000;stroke:#008000;" x="1092.895518" xlink:href="#ma58aa6cdab" y="481.372242"/>
     <use style="fill:#008000;stroke:#008000;" x="1102.715255" xlink:href="#ma58aa6cdab" y="481.566075"/>
     <use style="fill:#008000;stroke:#008000;" x="1112.562911" xlink:href="#ma58aa6cdab" y="481.760459"/>
     <use style="fill:#008000;stroke:#008000;" x="1123.384693" xlink:href="#ma58aa6cdab" y="481.974071"/>
     <use style="fill:#008000;stroke:#008000;" x="1133.19613" xlink:href="#ma58aa6cdab" y="482.167741"/>
     <use style="fill:#008000;stroke:#008000;" x="1143.050576" xlink:href="#ma58aa6cdab" y="482.362259"/>
     <use style="fill:#008000;stroke:#008000;" x="1153.881413" xlink:href="#ma58aa6cdab" y="482.57605"/>
     <use style="fill:#008000;stroke:#008000;" x="1163.729823" xlink:href="#ma58aa6cdab" y="482.770448"/>
     <use style="fill:#008000;stroke:#008000;" x="1173.554842" xlink:href="#ma58aa6cdab" y="482.964386"/>
     <use style="fill:#008000;stroke:#008000;" x="1184.354742" xlink:href="#ma58aa6cdab" y="483.177566"/>
     <use style="fill:#008000;stroke:#008000;" x="1194.204661" xlink:href="#ma58aa6cdab" y="483.371995"/>
     <use style="fill:#008000;stroke:#008000;" x="1204.02138" xlink:href="#ma58aa6cdab" y="483.565768"/>
     <use style="fill:#008000;stroke:#008000;" x="1214.797134" xlink:href="#ma58aa6cdab" y="483.778472"/>
     <use style="fill:#008000;stroke:#008000;" x="1224.64479" xlink:href="#ma58aa6cdab" y="483.972856"/>
     <use style="fill:#008000;stroke:#008000;" x="1234.4683" xlink:href="#ma58aa6cdab" y="484.166763"/>
     <use style="fill:#008000;stroke:#008000;" x="1245.272727" xlink:href="#ma58aa6cdab" y="484.380033"/>
    </g>
   </g>
   <g id="patch_3">
    <path d="M 180 512.64 
L 180 69.12 
" style="fill:none;stroke:#000000;stroke-linecap:square;stroke-linejoin:miter;stroke-width:0.8;"/>
   </g>
   <g id="patch_4">
    <path d="M 1296 512.64 
L 1296 69.12 
" style="fill:none;stroke:#000000;stroke-linecap:square;stroke-linejoin:miter;stroke-width:0.8;"/>
   </g>
   <g id="patch_5">
    <path d="M 180 512.64 
L 1296 512.64 
" style="fill:none;stroke:#000000;stroke-linecap:square;stroke-linejoin:miter;stroke-width:0.8;"/>
   </g>
   <g id="patch_6">
    <path d="M 180 69.12 
L 1296 69.12 
" style="fill:none;stroke:#000000;stroke-linecap:square;stroke-linejoin:miter;stroke-width:0.8;"/>
   </g>
   <g id="text_15">
    <!-- 500000.0 bit/s -->
    <defs>
     <path id="DejaVuSans-20"/>
     <path d="M 48.6875 27.296875 
Q 48.6875 37.203125 44.609375 42.84375 
Q 40.53125 48.484375 33.40625 48.484375 
Q 26.265625 48.484375 22.1875 42.84375 
Q 18.109375 37.203125 18.109375 27.296875 
Q 18.109375 17.390625 22.1875 11.75 
Q 26.265625 6.109375 33.40625 6.109375 
Q 40.53125 6.109375 44.609375 11.75 
Q 48.6875 17.390625 48.6875 27.296875 
z
M 18.109375 46.390625 
Q 20.953125 51.265625 25.265625 53.625 
Q 29.59375 56 35.59375 56 
Q 45.5625 56 51.78125 48.09375 
Q 58.015625 40.1875 58.015625 27.296875 
Q 58.015625 14.40625 51.78125 6.484375 
Q 45.5625 -1.421875 35.59375 -1.421875 
Q 29.59375 -1.421875 25.265625 0.953125 
Q 20.953125 3.328125 18.109375 8.203125 
L 18.109375 0 
L 9.078125 0 
L 9.078125 75.984375 
L 18.109375 75.984375 
z
" id="DejaVuSans-62"/>
     <path d="M 9.421875 54.6875 
L 18.40625 54.6875 
L 18.40625 0 
L 9.421875 0 
z
M 9.421875 75.984375 
L 18.40625 75.984375 
L 18.40625 64.59375 
L 9.421875 64.59375 
z
" id="DejaVuSans-69"/>
     <path d="M 18.3125 70.21875 
L 18.3125 54.6875 
L 36.8125 54.6875 
L 36.8125 47.703125 
L 18.3125 47.703125 
L 18.3125 18.015625 
Q 18.3125 11.328125 20.140625 9.421875 
Q 21.96875 7.515625 27.59375 7.515625 
L 36.8125 7.515625 
L 36.8125 0 
L 27.59375 0 
Q 17.1875 0 13.234375 3.875 
Q 9.28125 7.765625 9.28125 18.015625 
L 9.28125 47.703125 
L 2.6875 47.703125 
L 2.6875 54.6875 
L 9.28125 54.6875 
L 9.28125 70.21875 
z
" id="DejaVuSans-74"/>
     <path d="M 25.390625 72.90625 
L 33.6875 72.90625 
L 8.296875 -9.28125 
L 0 -9.28125 
z
" id="DejaVuSans-2f"/>
     <path d="M 44.28125 53.078125 
L 44.28125 44.578125 
Q 40.484375 46.53125 36.375 47.5 
Q 32.28125 48.484375 27.875 48.484375 
Q 21.1875 48.484375 17.84375 46.4375 
Q 14.5 44.390625 14.5 40.28125 
Q 14.5 37.15625 16.890625 35.375 
Q 19.28125 33.59375 26.515625 31.984375 
L 29.59375 31.296875 
Q 39.15625 29.25 43.1875 25.515625 
Q 47.21875 21.78125 47.21875 15.09375 
Q 47.21875 7.46875 41.1875 3.015625 
Q 35.15625 -1.421875 24.609375 -1.421875 
Q 20.21875 -1.421875 15.453125 -0.5625 
Q 10.6875 0.296875 5.421875 2 
L 5.421875 11.28125 
Q 10.40625 8.6875 15.234375 7.390625 
Q 20.0625 6.109375 24.8125 6.109375 
Q 31.15625 6.109375 34.5625 8.28125 
Q 37.984375 10.453125 37.984375 14.40625 
Q 37.984375 18.0625 35.515625 20.015625 
Q 33.0625 21.96875 24.703125 23.78125 
L 21.578125 24.515625 
Q 13.234375 26.265625 9.515625 29.90625 
Q 5.8125 33.546875 5.8125 39.890625 
Q 5.8125 47.609375 11.28125 51.796875 
Q 16.75 56 26.8125 56 
Q 31.78125 56 36.171875 55.265625 
Q 40.578125 54.546875 44.28125 53.078125 
z
" id="DejaVuSans-73"/>
    </defs>
    <g transform="translate(694.48875 63.12)scale(0.12 -0.12)">
     <use xlink:href="#DejaVuSans-35"/>
     <use x="63.623047" xlink:href="#DejaVuSans-30"/>
     <use x="127.246094" xlink:href="#DejaVuSans-30"/>
     <use x="190.869141" xlink:href="#DejaVuSans-30"/>
     <use x="254.492188" xlink:href="#DejaVuSans-30"/>
     <use x="318.115234" xlink:href="#DejaVuSans-30"/>
     <use x="381.738281" xlink:href="#DejaVuSans-2e"/>
     <use x="413.525391" xlink:href="#DejaVuSans-30"/>
     <use x="477.148438" xlink:href="#DejaVuSans-20"/>
     <use x="508.935547" xlink:href="#DejaVuSans-62"/>
     <use x="572.412109" xlink:href="#DejaVuSans-69"/>
     <use x="600.195312" xlink:href="#DejaVuSans-74"/>
     <use x="639.404297" xlink:href="#DejaVuSans-2f"/>
     <use x="673.095703" xlink:href="#DejaVuSans-73"/>
    </g>
   </g>
   <g id="legend_1">
    <g id="patch_7">
     <path d="M 1173.520313 135.8325 
L 1289 135.8325 
Q 1291 135.8325 1291 133.8325 
L 1291 76.12 
Q 1291 74.12 1289 74.12 
L 1173.520313 74.12 
Q 1171.520313 74.12 1171.520313 76.12 
L 1171.520313 133.8325 
Q 1171.520313 135.8325 1173.520313 135.8325 
z
" style="fill:#ffffff;opacity:0.8;stroke:#cccccc;stroke-linejoin:miter;"/>
    </g>
    <g id="line2d_19">
     <path d="M 1175.520313 82.218437 
L 1195.520313 82.218437 
" style="fill:none;stroke:#ff0000;stroke-dasharray:5.55,2.4;stroke-dashoffset:0;stroke-width:1.5;"/>
    </g>
    <g id="line2d_20">
     <g>
      <use style="fill:#ff0000;stroke:#ff0000;stroke-linejoin:miter;" x="1185.520313" xlink:href="#m36c4a4b884" y="82.218437"/>
     </g>
    </g>
    <g id="text_16">
     <!-- tcpdump -->
     <defs>
      <path d="M 48.78125 52.59375 
L 48.78125 44.1875 
Q 44.96875 46.296875 41.140625 47.34375 
Q 37.3125 48.390625 33.40625 48.390625 
Q 24.65625 48.390625 19.8125 42.84375 
Q 14.984375 37.3125 14.984375 27.296875 
Q 14.984375 17.28125 19.8125 11.734375 
Q 24.65625 6.203125 33.40625 6.203125 
Q 37.3125 6.203125 41.140625 7.25 
Q 44.96875 8.296875 48.78125 10.40625 
L 48.78125 2.09375 
Q 45.015625 0.34375 40.984375 -0.53125 
Q 36.96875 -1.421875 32.421875 -1.421875 
Q 20.0625 -1.421875 12.78125 6.34375 
Q 5.515625 14.109375 5.515625 27.296875 
Q 5.515625 40.671875 12.859375 48.328125 
Q 20.21875 56 33.015625 56 
Q 37.15625 56 41.109375 55.140625 
Q 45.0625 54.296875 48.78125 52.59375 
z
" id="DejaVuSans-63"/>
      <path d="M 18.109375 8.203125 
L 18.109375 -20.796875 
L 9.078125 -20.796875 
L 9.078125 54.6875 
L 18.109375 54.6875 
L 18.109375 46.390625 
Q 20.953125 51.265625 25.265625 53.625 
Q 29.59375 56 35.59375 56 
Q 45.5625 56 51.78125 48.09375 
Q 58.015625 40.1875 58.015625 27.296875 
Q 58.015625 14.40625 51.78125 6.484375 
Q 45.5625 -1.421875 35.59375 -1.421875 
Q 29.59375 -1.421875 25.265625 0.953125 
Q 20.953125 3.328125 18.109375 8.203125 
z
M 48.6875 27.296875 
Q 48.6875 37.203125 44.609375 42.84375 
Q 40.53125 48.484375 33.40625 48.484375 
Q 26.265625 48.484375 22.1875 42.84375 
Q 18.109375 37.203125 18.109375 27.296875 
Q 18.109375 17.390625 22.1875 11.75 
Q 26.265625 6.109375 33.40625 6.109375 
Q 40.53125 6.109375 44.609375 11.75 
Q 48.6875 17.390625 48.6875 27.296875 
z
" id="DejaVuSans-70"/>
      <path d="M 45.40625 46.390625 
L 45.40625 75.984375 
L 54.390625 75.984375 
L 54.390625 0 
L 45.40625 0 
L 45.40625 8.203125 
Q 42.578125 3.328125 38.25 0.953125 
Q 33.9375 -1.421875 27.875 -1.421875 
Q 17.96875 -1.421875 11.734375 6.484375 
Q 5.515625 14.40625 5.515625 27.296875 
Q 5.515625 40.1875 11.734375 48.09375 
Q 17.96875 56 27.875 56 
Q 33.9375 56 38.25 53.625 
Q 42.578125 51.265625 45.40625 46.390625 
z
M 14.796875 27.296875 
Q 14.796875 17.390625 18.875 11.75 
Q 22.953125 6.109375 30.078125 6.109375 
Q 37.203125 6.109375 41.296875 11.75 
Q 45.40625 17.390625 45.40625 27.296875 
Q 45.40625 37.203125 41.296875 42.84375 
Q 37.203125 48.484375 30.078125 48.484375 
Q 22.953125 48.484375 18.875 42.84375 
Q 14.796875 37.203125 14.796875 27.296875 
z
" id="DejaVuSans-64"/>
      <path d="M 8.5 21.578125 
L 8.5 54.6875 
L 17.484375 54.6875 
L 17.484375 21.921875 
Q 17.484375 14.15625 20.5 10.265625 
Q 23.53125 6.390625 29.59375 6.390625 
Q 36.859375 6.390625 41.078125 11.03125 
Q 45.3125 15.671875 45.3125 23.6875 
L 45.3125 54.6875 
L 54.296875 54.6875 
L 54.296875 0 
L 45.3125 0 
L 45.3125 8.40625 
Q 42.046875 3.421875 37.71875 1 
Q 33.40625 -1.421875 27.6875 -1.421875 
Q 18.265625 -1.421875 13.375 4.4375 
Q 8.5 10.296875 8.5 21.578125 
z
M 31.109375 56 
z
" id="DejaVuSans-75"/>
      <path d="M 52 44.1875 
Q 55.375 50.25 60.0625 53.125 
Q 64.75 56 71.09375 56 
Q 79.640625 56 84.28125 50.015625 
Q 88.921875 44.046875 88.921875 33.015625 
L 88.921875 0 
L 79.890625 0 
L 79.890625 32.71875 
Q 79.890625 40.578125 77.09375 44.375 
Q 74.3125 48.1875 68.609375 48.1875 
Q 61.625 48.1875 57.5625 43.546875 
Q 53.515625 38.921875 53.515625 30.90625 
L 53.515625 0 
L 44.484375 0 
L 44.484375 32.71875 
Q 44.484375 40.625 41.703125 44.40625 
Q 38.921875 48.1875 33.109375 48.1875 
Q 26.21875 48.1875 22.15625 43.53125 
Q 18.109375 38.875 18.109375 30.90625 
L 18.109375 0 
L 9.078125 0 
L 9.078125 54.6875 
L 18.109375 54.6875 
L 18.109375 46.1875 
Q 21.1875 51.21875 25.484375 53.609375 
Q 29.78125 56 35.6875 56 
Q 41.65625 56 45.828125 52.96875 
Q 50 49.953125 52 44.1875 
z
" id="DejaVuSans-6d"/>
     </defs>
     <g transform="translate(1203.520313 85.718437)scale(0.1 -0.1)">
      <use xlink:href="#DejaVuSans-74"/>
      <use x="39.208984" xlink:href="#DejaVuSans-63"/>
      <use x="94.189453" xlink:href="#DejaVuSans-70"/>
      <use x="157.666016" xlink:href="#DejaVuSans-64"/>
      <use x="221.142578" xlink:href="#DejaVuSans-75"/>
      <use x="284.521484" xlink:href="#DejaVuSans-6d"/>
      <use x="381.933594" xlink:href="#DejaVuSans-70"/>
     </g>
    </g>
    <g id="line2d_21">
     <path d="M 1175.520313 96.896563 
L 1195.520313 96.896563 
" style="fill:none;stroke:#800080;stroke-dasharray:9.6,2.4,1.5,2.4;stroke-dashoffset:0;stroke-width:1.5;"/>
    </g>
    <g id="line2d_22">
     <g>
      <use style="fill:#800080;stroke:#800080;" x="1185.520313" xlink:href="#mb35e94daf0" y="96.896563"/>
     </g>
    </g>
    <g id="text_17">
     <!-- filtered tcpdump -->
     <defs>
      <path d="M 37.109375 75.984375 
L 37.109375 68.5 
L 28.515625 68.5 
Q 23.6875 68.5 21.796875 66.546875 
Q 19.921875 64.59375 19.921875 59.515625 
L 19.921875 54.6875 
L 34.71875 54.6875 
L 34.71875 47.703125 
L 19.921875 47.703125 
L 19.921875 0 
L 10.890625 0 
L 10.890625 47.703125 
L 2.296875 47.703125 
L 2.296875 54.6875 
L 10.890625 54.6875 
L 10.890625 58.5 
Q 10.890625 67.625 15.140625 71.796875 
Q 19.390625 75.984375 28.609375 75.984375 
z
" id="DejaVuSans-66"/>
      <path d="M 9.421875 75.984375 
L 18.40625 75.984375 
L 18.40625 0 
L 9.421875 0 
z
" id="DejaVuSans-6c"/>
      <path d="M 56.203125 29.59375 
L 56.203125 25.203125 
L 14.890625 25.203125 
Q 15.484375 15.921875 20.484375 11.0625 
Q 25.484375 6.203125 34.421875 6.203125 
Q 39.59375 6.203125 44.453125 7.46875 
Q 49.3125 8.734375 54.109375 11.28125 
L 54.109375 2.78125 
Q 49.265625 0.734375 44.1875 -0.34375 
Q 39.109375 -1.421875 33.890625 -1.421875 
Q 20.796875 -1.421875 13.15625 6.1875 
Q 5.515625 13.8125 5.515625 26.8125 
Q 5.515625 40.234375 12.765625 48.109375 
Q 20.015625 56 32.328125 56 
Q 43.359375 56 49.78125 48.890625 
Q 56.203125 41.796875 56.203125 29.59375 
z
M 47.21875 32.234375 
Q 47.125 39.59375 43.09375 43.984375 
Q 39.0625 48.390625 32.421875 48.390625 
Q 24.90625 48.390625 20.390625 44.140625 
Q 15.875 39.890625 15.1875 32.171875 
z
" id="DejaVuSans-65"/>
      <path d="M 41.109375 46.296875 
Q 39.59375 47.171875 37.8125 47.578125 
Q 36.03125 48 33.890625 48 
Q 26.265625 48 22.1875 43.046875 
Q 18.109375 38.09375 18.109375 28.8125 
L 18.109375 0 
L 9.078125 0 
L 9.078125 54.6875 
L 18.109375 54.6875 
L 18.109375 46.1875 
Q 20.953125 51.171875 25.484375 53.578125 
Q 30.03125 56 36.53125 56 
Q 37.453125 56 38.578125 55.875 
Q 39.703125 55.765625 41.0625 55.515625 
z
" id="DejaVuSans-72"/>
     </defs>
     <g transform="translate(1203.520313 100.396563)scale(0.1 -0.1)">
      <use xlink:href="#DejaVuSans-66"/>
      <use x="35.205078" xlink:href="#DejaVuSans-69"/>
      <use x="62.988281" xlink:href="#DejaVuSans-6c"/>
      <use x="90.771484" xlink:href="#DejaVuSans-74"/>
      <use x="129.980469" xlink:href="#DejaVuSans-65"/>
      <use x="191.503906" xlink:href="#DejaVuSans-72"/>
      <use x="232.585938" xlink:href="#DejaVuSans-65"/>
      <use x="294.109375" xlink:href="#DejaVuSans-64"/>
      <use x="357.585938" xlink:href="#DejaVuSans-20"/>
      <use x="389.373047" xlink:href="#DejaVuSans-74"/>
      <use x="428.582031" xlink:href="#DejaVuSans-63"/>
      <use x="483.5625" xlink:href="#DejaVuSans-70"/>
      <use x="547.039062" xlink:href="#DejaVuSans-64"/>
      <use x="610.515625" xlink:href="#DejaVuSans-75"/>
      <use x="673.894531" xlink:href="#DejaVuSans-6d"/>
      <use x="771.306641" xlink:href="#DejaVuSans-70"/>
     </g>
    </g>
    <g id="line2d_23">
     <path d="M 1175.520313 111.574687 
L 1195.520313 111.574687 
" style="fill:none;stroke:#0000ff;stroke-linecap:square;stroke-width:1.5;"/>
    </g>
    <g id="line2d_24"/>
    <g id="text_18">
     <!-- OLS -->
     <defs>
      <path d="M 39.40625 66.21875 
Q 28.65625 66.21875 22.328125 58.203125 
Q 16.015625 50.203125 16.015625 36.375 
Q 16.015625 22.609375 22.328125 14.59375 
Q 28.65625 6.59375 39.40625 6.59375 
Q 50.140625 6.59375 56.421875 14.59375 
Q 62.703125 22.609375 62.703125 36.375 
Q 62.703125 50.203125 56.421875 58.203125 
Q 50.140625 66.21875 39.40625 66.21875 
z
M 39.40625 74.21875 
Q 54.734375 74.21875 63.90625 63.9375 
Q 73.09375 53.65625 73.09375 36.375 
Q 73.09375 19.140625 63.90625 8.859375 
Q 54.734375 -1.421875 39.40625 -1.421875 
Q 24.03125 -1.421875 14.8125 8.828125 
Q 5.609375 19.09375 5.609375 36.375 
Q 5.609375 53.65625 14.8125 63.9375 
Q 24.03125 74.21875 39.40625 74.21875 
z
" id="DejaVuSans-4f"/>
      <path d="M 9.8125 72.90625 
L 19.671875 72.90625 
L 19.671875 8.296875 
L 55.171875 8.296875 
L 55.171875 0 
L 9.8125 0 
z
" id="DejaVuSans-4c"/>
      <path d="M 53.515625 70.515625 
L 53.515625 60.890625 
Q 47.90625 63.578125 42.921875 64.890625 
Q 37.9375 66.21875 33.296875 66.21875 
Q 25.25 66.21875 20.875 63.09375 
Q 16.5 59.96875 16.5 54.203125 
Q 16.5 49.359375 19.40625 46.890625 
Q 22.3125 44.4375 30.421875 42.921875 
L 36.375 41.703125 
Q 47.40625 39.59375 52.65625 34.296875 
Q 57.90625 29 57.90625 20.125 
Q 57.90625 9.515625 50.796875 4.046875 
Q 43.703125 -1.421875 29.984375 -1.421875 
Q 24.8125 -1.421875 18.96875 -0.25 
Q 13.140625 0.921875 6.890625 3.21875 
L 6.890625 13.375 
Q 12.890625 10.015625 18.65625 8.296875 
Q 24.421875 6.59375 29.984375 6.59375 
Q 38.421875 6.59375 43.015625 9.90625 
Q 47.609375 13.234375 47.609375 19.390625 
Q 47.609375 24.75 44.3125 27.78125 
Q 41.015625 30.8125 33.5 32.328125 
L 27.484375 33.5 
Q 16.453125 35.6875 11.515625 40.375 
Q 6.59375 45.0625 6.59375 53.421875 
Q 6.59375 63.09375 13.40625 68.65625 
Q 20.21875 74.21875 32.171875 74.21875 
Q 37.3125 74.21875 42.625 73.28125 
Q 47.953125 72.359375 53.515625 70.515625 
z
" id="DejaVuSans-53"/>
     </defs>
     <g transform="translate(1203.520313 115.074687)scale(0.1 -0.1)">
      <use xlink:href="#DejaVuSans-4f"/>
      <use x="78.710938" xlink:href="#DejaVuSans-4c"/>
      <use x="134.423828" xlink:href="#DejaVuSans-53"/>
     </g>
    </g>
    <g id="line2d_25">
     <path d="M 1175.520313 126.252813 
L 1195.520313 126.252813 
" style="fill:none;stroke:#008000;stroke-linecap:square;stroke-width:1.5;"/>
    </g>
    <g id="line2d_26">
     <g>
      <use style="fill:#008000;stroke:#008000;" x="1185.520313" xlink:href="#ma58aa6cdab" y="126.252813"/>
     </g>
    </g>
    <g id="text_19">
     <!-- IRLS -->
     <defs>
      <path d="M 9.8125 72.90625 
L 19.671875 72.90625 
L 19.671875 0 
L 9.8125 0 
z
" id="DejaVuSans-49"/>
      <path d="M 44.390625 34.1875 
Q 47.5625 33.109375 50.5625 29.59375 
Q 53.5625 26.078125 56.59375 19.921875 
L 66.609375 0 
L 56 0 
L 46.6875 18.703125 
Q 43.0625 26.03125 39.671875 28.421875 
Q 36.28125 30.8125 30.421875 30.8125 
L 19.671875 30.8125 
L 19.671875 0 
L 9.8125 0 
L 9.8125 72.90625 
L 32.078125 72.90625 
Q 44.578125 72.90625 50.734375 67.671875 
Q 56.890625 62.453125 56.890625 51.90625 
Q 56.890625 45.015625 53.6875 40.46875 
Q 50.484375 35.9375 44.390625 34.1875 
z
M 19.671875 64.796875 
L 19.671875 38.921875 
L 32.078125 38.921875 
Q 39.203125 38.921875 42.84375 42.21875 
Q 46.484375 45.515625 46.484375 51.90625 
Q 46.484375 58.296875 42.84375 61.546875 
Q 39.203125 64.796875 32.078125 64.796875 
z
" id="DejaVuSans-52"/>
     </defs>
     <g transform="translate(1203.520313 129.752813)scale(0.1 -0.1)">
      <use xlink:href="#DejaVuSans-49"/>
      <use x="29.492188" xlink:href="#DejaVuSans-52"/>
      <use x="98.974609" xlink:href="#DejaVuSans-4c"/>
      <use x="154.6875" xlink:href="#DejaVuSans-53"/>
     </g>
    </g>
   </g>
  </g>
 </g>
 <defs>
  <clipPath id="p4c72c777c2">
   <rect height="443.52" width="1116" x="180" y="69.12"/>
  </clipPath>
 </defs>
</svg>
