<?xml version="1.0" encoding="utf-8" standalone="no"?>
<!DOCTYPE svg PUBLIC "-//W3C//DTD SVG 1.1//EN"
  "http://www.w3.org/Graphics/SVG/1.1/DTD/svg11.dtd">
<!-- Created with matplotlib (http://matplotlib.org/) -->
<svg height="576pt" version="1.1" viewBox="0 0 1440 576" width="1440pt" xmlns="http://www.w3.org/2000/svg" xmlns:xlink="http://www.w3.org/1999/xlink">
 <defs>
  <style type="text/css">
*{stroke-linecap:butt;stroke-linejoin:round;}
  </style>
 </defs>
 <g id="figure_1">
  <g id="patch_1">
   <path d="M 0 576 
L 1440 576 
L 1440 0 
L 0 0 
z
" style="fill:#ffffff;"/>
  </g>
  <g id="axes_1">
   <g id="patch_2">
    <path d="M 180 512.64 
L 1296 512.64 
L 1296 69.12 
L 180 69.12 
z
" style="fill:#ffffff;"/>
   </g>
   <g id="matplotlib.axis_1">
    <g id="xtick_1">
     <g id="line2d_1">
      <defs>
       <path d="M 0 0 
L 0 3.5 
" id="ma564ca7d53" style="stroke:#000000;stroke-width:0.8;"/>
      </defs>
      <g>
       <use style="stroke:#000000;stroke-width:0.8;" x="230.727273" xlink:href="#ma564ca7d53" y="512.64"/>
      </g>
     </g>
     <g id="text_1">
      <!-- 0.0 -->
      <defs>
       <path d="M 31.78125 66.40625 
Q 24.171875 66.40625 20.328125 58.90625 
Q 16.5 51.421875 16.5 36.375 
Q 16.5 21.390625 20.328125 13.890625 
Q 24.171875 6.390625 31.78125 6.390625 
Q 39.453125 6.390625 43.28125 13.890625 
Q 47.125 21.390625 47.125 36.375 
Q 47.125 51.421875 43.28125 58.90625 
Q 39.453125 66.40625 31.78125 66.40625 
z
M 31.78125 74.21875 
Q 44.046875 74.21875 50.515625 64.515625 
Q 56.984375 54.828125 56.984375 36.375 
Q 56.984375 17.96875 50.515625 8.265625 
Q 44.046875 -1.421875 31.78125 -1.421875 
Q 19.53125 -1.421875 13.0625 8.265625 
Q 6.59375 17.96875 6.59375 36.375 
Q 6.59375 54.828125 13.0625 64.515625 
Q 19.53125 74.21875 31.78125 74.21875 
z
" id="DejaVuSans-30"/>
       <path d="M 10.6875 12.40625 
L 21 12.40625 
L 21 0 
L 10.6875 0 
z
" id="DejaVuSans-2e"/>
      </defs>
      <g transform="translate(222.77571 527.238438)scale(0.1 -0.1)">
       <use xlink:href="#DejaVuSans-30"/>
       <use x="63.623047" xlink:href="#DejaVuSans-2e"/>
       <use x="95.410156" xlink:href="#DejaVuSans-30"/>
      </g>
     </g>
    </g>
    <g id="xtick_2">
     <g id="line2d_2">
      <g>
       <use style="stroke:#000000;stroke-width:0.8;" x="379.696422" xlink:href="#ma564ca7d53" y="512.64"/>
      </g>
     </g>
     <g id="text_2">
      <!-- 0.2 -->
      <defs>
       <path d="M 19.1875 8.296875 
L 53.609375 8.296875 
L 53.609375 0 
L 7.328125 0 
L 7.328125 8.296875 
Q 12.9375 14.109375 22.625 23.890625 
Q 32.328125 33.6875 34.8125 36.53125 
Q 39.546875 41.84375 41.421875 45.53125 
Q 43.3125 49.21875 43.3125 52.78125 
Q 43.3125 58.59375 39.234375 62.25 
Q 35.15625 65.921875 28.609375 65.921875 
Q 23.96875 65.921875 18.8125 64.3125 
Q 13.671875 62.703125 7.8125 59.421875 
L 7.8125 69.390625 
Q 13.765625 71.78125 18.9375 73 
Q 24.125 74.21875 28.421875 74.21875 
Q 39.75 74.21875 46.484375 68.546875 
Q 53.21875 62.890625 53.21875 53.421875 
Q 53.21875 48.921875 51.53125 44.890625 
Q 49.859375 40.875 45.40625 35.40625 
Q 44.1875 33.984375 37.640625 27.21875 
Q 31.109375 20.453125 19.1875 8.296875 
z
" id="DejaVuSans-32"/>
      </defs>
      <g transform="translate(371.74486 527.238438)scale(0.1 -0.1)">
       <use xlink:href="#DejaVuSans-30"/>
       <use x="63.623047" xlink:href="#DejaVuSans-2e"/>
       <use x="95.410156" xlink:href="#DejaVuSans-32"/>
      </g>
     </g>
    </g>
    <g id="xtick_3">
     <g id="line2d_3">
      <g>
       <use style="stroke:#000000;stroke-width:0.8;" x="528.665572" xlink:href="#ma564ca7d53" y="512.64"/>
      </g>
     </g>
     <g id="text_3">
      <!-- 0.4 -->
      <defs>
       <path d="M 37.796875 64.3125 
L 12.890625 25.390625 
L 37.796875 25.390625 
z
M 35.203125 72.90625 
L 47.609375 72.90625 
L 47.609375 25.390625 
L 58.015625 25.390625 
L 58.015625 17.1875 
L 47.609375 17.1875 
L 47.609375 0 
L 37.796875 0 
L 37.796875 17.1875 
L 4.890625 17.1875 
L 4.890625 26.703125 
z
" id="DejaVuSans-34"/>
      </defs>
      <g transform="translate(520.714009 527.238438)scale(0.1 -0.1)">
       <use xlink:href="#DejaVuSans-30"/>
       <use x="63.623047" xlink:href="#DejaVuSans-2e"/>
       <use x="95.410156" xlink:href="#DejaVuSans-34"/>
      </g>
     </g>
    </g>
    <g id="xtick_4">
     <g id="line2d_4">
      <g>
       <use style="stroke:#000000;stroke-width:0.8;" x="677.634721" xlink:href="#ma564ca7d53" y="512.64"/>
      </g>
     </g>
     <g id="text_4">
      <!-- 0.6 -->
      <defs>
       <path d="M 33.015625 40.375 
Q 26.375 40.375 22.484375 35.828125 
Q 18.609375 31.296875 18.609375 23.390625 
Q 18.609375 15.53125 22.484375 10.953125 
Q 26.375 6.390625 33.015625 6.390625 
Q 39.65625 6.390625 43.53125 10.953125 
Q 47.40625 15.53125 47.40625 23.390625 
Q 47.40625 31.296875 43.53125 35.828125 
Q 39.65625 40.375 33.015625 40.375 
z
M 52.59375 71.296875 
L 52.59375 62.3125 
Q 48.875 64.0625 45.09375 64.984375 
Q 41.3125 65.921875 37.59375 65.921875 
Q 27.828125 65.921875 22.671875 59.328125 
Q 17.53125 52.734375 16.796875 39.40625 
Q 19.671875 43.65625 24.015625 45.921875 
Q 28.375 48.1875 33.59375 48.1875 
Q 44.578125 48.1875 50.953125 41.515625 
Q 57.328125 34.859375 57.328125 23.390625 
Q 57.328125 12.15625 50.6875 5.359375 
Q 44.046875 -1.421875 33.015625 -1.421875 
Q 20.359375 -1.421875 13.671875 8.265625 
Q 6.984375 17.96875 6.984375 36.375 
Q 6.984375 53.65625 15.1875 63.9375 
Q 23.390625 74.21875 37.203125 74.21875 
Q 40.921875 74.21875 44.703125 73.484375 
Q 48.484375 72.75 52.59375 71.296875 
z
" id="DejaVuSans-36"/>
      </defs>
      <g transform="translate(669.683159 527.238438)scale(0.1 -0.1)">
       <use xlink:href="#DejaVuSans-30"/>
       <use x="63.623047" xlink:href="#DejaVuSans-2e"/>
       <use x="95.410156" xlink:href="#DejaVuSans-36"/>
      </g>
     </g>
    </g>
    <g id="xtick_5">
     <g id="line2d_5">
      <g>
       <use style="stroke:#000000;stroke-width:0.8;" x="826.603871" xlink:href="#ma564ca7d53" y="512.64"/>
      </g>
     </g>
     <g id="text_5">
      <!-- 0.8 -->
      <defs>
       <path d="M 31.78125 34.625 
Q 24.75 34.625 20.71875 30.859375 
Q 16.703125 27.09375 16.703125 20.515625 
Q 16.703125 13.921875 20.71875 10.15625 
Q 24.75 6.390625 31.78125 6.390625 
Q 38.8125 6.390625 42.859375 10.171875 
Q 46.921875 13.96875 46.921875 20.515625 
Q 46.921875 27.09375 42.890625 30.859375 
Q 38.875 34.625 31.78125 34.625 
z
M 21.921875 38.8125 
Q 15.578125 40.375 12.03125 44.71875 
Q 8.5 49.078125 8.5 55.328125 
Q 8.5 64.0625 14.71875 69.140625 
Q 20.953125 74.21875 31.78125 74.21875 
Q 42.671875 74.21875 48.875 69.140625 
Q 55.078125 64.0625 55.078125 55.328125 
Q 55.078125 49.078125 51.53125 44.71875 
Q 48 40.375 41.703125 38.8125 
Q 48.828125 37.15625 52.796875 32.3125 
Q 56.78125 27.484375 56.78125 20.515625 
Q 56.78125 9.90625 50.3125 4.234375 
Q 43.84375 -1.421875 31.78125 -1.421875 
Q 19.734375 -1.421875 13.25 4.234375 
Q 6.78125 9.90625 6.78125 20.515625 
Q 6.78125 27.484375 10.78125 32.3125 
Q 14.796875 37.15625 21.921875 38.8125 
z
M 18.3125 54.390625 
Q 18.3125 48.734375 21.84375 45.5625 
Q 25.390625 42.390625 31.78125 42.390625 
Q 38.140625 42.390625 41.71875 45.5625 
Q 45.3125 48.734375 45.3125 54.390625 
Q 45.3125 60.0625 41.71875 63.234375 
Q 38.140625 66.40625 31.78125 66.40625 
Q 25.390625 66.40625 21.84375 63.234375 
Q 18.3125 60.0625 18.3125 54.390625 
z
" id="DejaVuSans-38"/>
      </defs>
      <g transform="translate(818.652308 527.238438)scale(0.1 -0.1)">
       <use xlink:href="#DejaVuSans-30"/>
       <use x="63.623047" xlink:href="#DejaVuSans-2e"/>
       <use x="95.410156" xlink:href="#DejaVuSans-38"/>
      </g>
     </g>
    </g>
    <g id="xtick_6">
     <g id="line2d_6">
      <g>
       <use style="stroke:#000000;stroke-width:0.8;" x="975.57302" xlink:href="#ma564ca7d53" y="512.64"/>
      </g>
     </g>
     <g id="text_6">
      <!-- 1.0 -->
      <defs>
       <path d="M 12.40625 8.296875 
L 28.515625 8.296875 
L 28.515625 63.921875 
L 10.984375 60.40625 
L 10.984375 69.390625 
L 28.421875 72.90625 
L 38.28125 72.90625 
L 38.28125 8.296875 
L 54.390625 8.296875 
L 54.390625 0 
L 12.40625 0 
z
" id="DejaVuSans-31"/>
      </defs>
      <g transform="translate(967.621458 527.238438)scale(0.1 -0.1)">
       <use xlink:href="#DejaVuSans-31"/>
       <use x="63.623047" xlink:href="#DejaVuSans-2e"/>
       <use x="95.410156" xlink:href="#DejaVuSans-30"/>
      </g>
     </g>
    </g>
    <g id="xtick_7">
     <g id="line2d_7">
      <g>
       <use style="stroke:#000000;stroke-width:0.8;" x="1124.54217" xlink:href="#ma564ca7d53" y="512.64"/>
      </g>
     </g>
     <g id="text_7">
      <!-- 1.2 -->
      <g transform="translate(1116.590607 527.238438)scale(0.1 -0.1)">
       <use xlink:href="#DejaVuSans-31"/>
       <use x="63.623047" xlink:href="#DejaVuSans-2e"/>
       <use x="95.410156" xlink:href="#DejaVuSans-32"/>
      </g>
     </g>
    </g>
    <g id="xtick_8">
     <g id="line2d_8">
      <g>
       <use style="stroke:#000000;stroke-width:0.8;" x="1273.511319" xlink:href="#ma564ca7d53" y="512.64"/>
      </g>
     </g>
     <g id="text_8">
      <!-- 1.4 -->
      <g transform="translate(1265.559757 527.238438)scale(0.1 -0.1)">
       <use xlink:href="#DejaVuSans-31"/>
       <use x="63.623047" xlink:href="#DejaVuSans-2e"/>
       <use x="95.410156" xlink:href="#DejaVuSans-34"/>
      </g>
     </g>
    </g>
   </g>
   <g id="matplotlib.axis_2">
    <g id="ytick_1">
     <g id="line2d_9">
      <defs>
       <path d="M 0 0 
L -3.5 0 
" id="ma148cb780b" style="stroke:#000000;stroke-width:0.8;"/>
      </defs>
      <g>
       <use style="stroke:#000000;stroke-width:0.8;" x="180" xlink:href="#ma148cb780b" y="467.028706"/>
      </g>
     </g>
     <g id="text_9">
      <!-- 0.4 -->
      <g transform="translate(157.096875 470.827925)scale(0.1 -0.1)">
       <use xlink:href="#DejaVuSans-30"/>
       <use x="63.623047" xlink:href="#DejaVuSans-2e"/>
       <use x="95.410156" xlink:href="#DejaVuSans-34"/>
      </g>
     </g>
    </g>
    <g id="ytick_2">
     <g id="line2d_10">
      <g>
       <use style="stroke:#000000;stroke-width:0.8;" x="180" xlink:href="#ma148cb780b" y="397.692357"/>
      </g>
     </g>
     <g id="text_10">
      <!-- 0.5 -->
      <defs>
       <path d="M 10.796875 72.90625 
L 49.515625 72.90625 
L 49.515625 64.59375 
L 19.828125 64.59375 
L 19.828125 46.734375 
Q 21.96875 47.46875 24.109375 47.828125 
Q 26.265625 48.1875 28.421875 48.1875 
Q 40.625 48.1875 47.75 41.5 
Q 54.890625 34.8125 54.890625 23.390625 
Q 54.890625 11.625 47.5625 5.09375 
Q 40.234375 -1.421875 26.90625 -1.421875 
Q 22.3125 -1.421875 17.546875 -0.640625 
Q 12.796875 0.140625 7.71875 1.703125 
L 7.71875 11.625 
Q 12.109375 9.234375 16.796875 8.0625 
Q 21.484375 6.890625 26.703125 6.890625 
Q 35.15625 6.890625 40.078125 11.328125 
Q 45.015625 15.765625 45.015625 23.390625 
Q 45.015625 31 40.078125 35.4375 
Q 35.15625 39.890625 26.703125 39.890625 
Q 22.75 39.890625 18.8125 39.015625 
Q 14.890625 38.140625 10.796875 36.28125 
z
" id="DejaVuSans-35"/>
      </defs>
      <g transform="translate(157.096875 401.491575)scale(0.1 -0.1)">
       <use xlink:href="#DejaVuSans-30"/>
       <use x="63.623047" xlink:href="#DejaVuSans-2e"/>
       <use x="95.410156" xlink:href="#DejaVuSans-35"/>
      </g>
     </g>
    </g>
    <g id="ytick_3">
     <g id="line2d_11">
      <g>
       <use style="stroke:#000000;stroke-width:0.8;" x="180" xlink:href="#ma148cb780b" y="328.356007"/>
      </g>
     </g>
     <g id="text_11">
      <!-- 0.6 -->
      <g transform="translate(157.096875 332.155226)scale(0.1 -0.1)">
       <use xlink:href="#DejaVuSans-30"/>
       <use x="63.623047" xlink:href="#DejaVuSans-2e"/>
       <use x="95.410156" xlink:href="#DejaVuSans-36"/>
      </g>
     </g>
    </g>
    <g id="ytick_4">
     <g id="line2d_12">
      <g>
       <use style="stroke:#000000;stroke-width:0.8;" x="180" xlink:href="#ma148cb780b" y="259.019657"/>
      </g>
     </g>
     <g id="text_12">
      <!-- 0.7 -->
      <defs>
       <path d="M 8.203125 72.90625 
L 55.078125 72.90625 
L 55.078125 68.703125 
L 28.609375 0 
L 18.3125 0 
L 43.21875 64.59375 
L 8.203125 64.59375 
z
" id="DejaVuSans-37"/>
      </defs>
      <g transform="translate(157.096875 262.818876)scale(0.1 -0.1)">
       <use xlink:href="#DejaVuSans-30"/>
       <use x="63.623047" xlink:href="#DejaVuSans-2e"/>
       <use x="95.410156" xlink:href="#DejaVuSans-37"/>
      </g>
     </g>
    </g>
    <g id="ytick_5">
     <g id="line2d_13">
      <g>
       <use style="stroke:#000000;stroke-width:0.8;" x="180" xlink:href="#ma148cb780b" y="189.683308"/>
      </g>
     </g>
     <g id="text_13">
      <!-- 0.8 -->
      <g transform="translate(157.096875 193.482526)scale(0.1 -0.1)">
       <use xlink:href="#DejaVuSans-30"/>
       <use x="63.623047" xlink:href="#DejaVuSans-2e"/>
       <use x="95.410156" xlink:href="#DejaVuSans-38"/>
      </g>
     </g>
    </g>
    <g id="ytick_6">
     <g id="line2d_14">
      <g>
       <use style="stroke:#000000;stroke-width:0.8;" x="180" xlink:href="#ma148cb780b" y="120.346958"/>
      </g>
     </g>
     <g id="text_14">
      <!-- 0.9 -->
      <defs>
       <path d="M 10.984375 1.515625 
L 10.984375 10.5 
Q 14.703125 8.734375 18.5 7.8125 
Q 22.3125 6.890625 25.984375 6.890625 
Q 35.75 6.890625 40.890625 13.453125 
Q 46.046875 20.015625 46.78125 33.40625 
Q 43.953125 29.203125 39.59375 26.953125 
Q 35.25 24.703125 29.984375 24.703125 
Q 19.046875 24.703125 12.671875 31.3125 
Q 6.296875 37.9375 6.296875 49.421875 
Q 6.296875 60.640625 12.9375 67.421875 
Q 19.578125 74.21875 30.609375 74.21875 
Q 43.265625 74.21875 49.921875 64.515625 
Q 56.59375 54.828125 56.59375 36.375 
Q 56.59375 19.140625 48.40625 8.859375 
Q 40.234375 -1.421875 26.421875 -1.421875 
Q 22.703125 -1.421875 18.890625 -0.6875 
Q 15.09375 0.046875 10.984375 1.515625 
z
M 30.609375 32.421875 
Q 37.25 32.421875 41.125 36.953125 
Q 45.015625 41.5 45.015625 49.421875 
Q 45.015625 57.28125 41.125 61.84375 
Q 37.25 66.40625 30.609375 66.40625 
Q 23.96875 66.40625 20.09375 61.84375 
Q 16.21875 57.28125 16.21875 49.421875 
Q 16.21875 41.5 20.09375 36.953125 
Q 23.96875 32.421875 30.609375 32.421875 
z
" id="DejaVuSans-39"/>
      </defs>
      <g transform="translate(157.096875 124.146177)scale(0.1 -0.1)">
       <use xlink:href="#DejaVuSans-30"/>
       <use x="63.623047" xlink:href="#DejaVuSans-2e"/>
       <use x="95.410156" xlink:href="#DejaVuSans-39"/>
      </g>
     </g>
    </g>
   </g>
   <g id="line2d_15">
    <path clip-path="url(#p9151b6abd4)" d="M 230.727273 474.419961 
L 240.582327 475.313013 
L 251.9375 477.560204 
L 261.706897 478.29309 
L 271.487467 479.041922 
L 282.11716 480.586736 
L 291.906668 481.341115 
L 301.640312 482.05112 
L 312.240212 483.566119 
L 322.043127 484.336446 
L 331.764109 485.029116 
L 342.248557 486.438724 
L 352.008271 487.120994 
L 361.692756 487.817824 
L 372.305318 489.324503 
L 382.013637 490.03104 
L 391.85156 490.831875 
L 402.590746 492.48 
L 412.387702 459.642305 
L 422.122836 426.782422 
L 432.841911 394.822525 
L 442.582259 395.533916 
L 452.296537 362.634511 
L 462.868878 364.119003 
L 472.585391 331.218905 
L 482.228908 331.845012 
L 492.781138 316.484931 
L 502.421677 317.130452 
L 513.388041 301.955498 
L 523.050924 302.59686 
L 532.720512 303.22782 
L 542.465329 303.960706 
L 552.931156 305.35506 
L 562.631283 306.029009 
L 572.390996 306.757734 
L 582.994621 308.28036 
L 594.276799 310.4284 
L 605.630483 312.64023 
L 615.343271 313.329433 
L 625.063508 314.022797 
L 635.676815 315.552357 
L 645.43057 316.279002 
L 655.142614 316.956418 
L 665.959264 318.673186 
L 676.380401 320.023164 
L 688.003719 305.692034 
L 697.721721 306.390251 
L 707.464304 290.304218 
L 718.482062 292.208194 
L 729.642086 277.447179 
L 740.990556 279.652075 
L 750.783043 263.617351 
L 760.561378 264.37381 
L 771.089027 265.8167 
L 780.868107 249.769495 
L 790.598027 233.675141 
L 801.231445 235.216489 
L 810.997118 235.962548 
L 820.706182 236.616389 
L 831.530281 221.568321 
L 841.293719 222.306754 
L 851.013211 206.198533 
L 861.538626 207.651129 
L 871.342286 208.42423 
L 881.078909 192.33473 
L 891.588683 193.769299 
L 901.369252 169.324075 
L 911.137904 170.070135 
L 921.657361 171.509557 
L 931.396964 172.224415 
L 941.114221 156.116194 
L 951.707418 157.62842 
L 961.509588 158.39944 
L 974.767097 145.588856 
L 984.450837 146.251018 
L 994.136811 146.913874 
L 1004.344922 148.06139 
L 1014.151561 148.835184 
L 1023.918723 149.57639 
L 1035.365513 151.87905 
L 1045.233974 152.710393 
L 1057.102346 155.402723 
L 1066.924627 156.193158 
L 1076.720093 156.959324 
L 1087.352766 158.502751 
L 1098.590999 160.610576 
L 1109.872433 162.760003 
L 1119.659706 163.514383 
L 1129.483476 164.306204 
L 1140.027513 165.764347 
L 1149.777544 149.688021 
L 1162.050367 152.766555 
L 1171.844344 153.527175 
L 1181.581712 120.602116 
L 1192.647141 122.576815 
L 1202.441117 123.351996 
L 1212.234349 124.119549 
L 1222.7836 108.776108 
L 1233.247938 110.177396 
L 1245.272727 112.986905 
" style="fill:none;stroke:#ff0000;stroke-dasharray:5.55,2.4;stroke-dashoffset:0;stroke-width:1.5;"/>
    <defs>
     <path d="M -3 3 
L 3 3 
L 3 -3 
L -3 -3 
z
" id="m740d3f02de" style="stroke:#ff0000;stroke-linejoin:miter;"/>
    </defs>
    <g clip-path="url(#p9151b6abd4)">
     <use style="fill:#ff0000;stroke:#ff0000;stroke-linejoin:miter;" x="230.727273" xlink:href="#m740d3f02de" y="474.419961"/>
     <use style="fill:#ff0000;stroke:#ff0000;stroke-linejoin:miter;" x="240.582327" xlink:href="#m740d3f02de" y="475.313013"/>
     <use style="fill:#ff0000;stroke:#ff0000;stroke-linejoin:miter;" x="251.9375" xlink:href="#m740d3f02de" y="477.560204"/>
     <use style="fill:#ff0000;stroke:#ff0000;stroke-linejoin:miter;" x="261.706897" xlink:href="#m740d3f02de" y="478.29309"/>
     <use style="fill:#ff0000;stroke:#ff0000;stroke-linejoin:miter;" x="271.487467" xlink:href="#m740d3f02de" y="479.041922"/>
     <use style="fill:#ff0000;stroke:#ff0000;stroke-linejoin:miter;" x="282.11716" xlink:href="#m740d3f02de" y="480.586736"/>
     <use style="fill:#ff0000;stroke:#ff0000;stroke-linejoin:miter;" x="291.906668" xlink:href="#m740d3f02de" y="481.341115"/>
     <use style="fill:#ff0000;stroke:#ff0000;stroke-linejoin:miter;" x="301.640312" xlink:href="#m740d3f02de" y="482.05112"/>
     <use style="fill:#ff0000;stroke:#ff0000;stroke-linejoin:miter;" x="312.240212" xlink:href="#m740d3f02de" y="483.566119"/>
     <use style="fill:#ff0000;stroke:#ff0000;stroke-linejoin:miter;" x="322.043127" xlink:href="#m740d3f02de" y="484.336446"/>
     <use style="fill:#ff0000;stroke:#ff0000;stroke-linejoin:miter;" x="331.764109" xlink:href="#m740d3f02de" y="485.029116"/>
     <use style="fill:#ff0000;stroke:#ff0000;stroke-linejoin:miter;" x="342.248557" xlink:href="#m740d3f02de" y="486.438724"/>
     <use style="fill:#ff0000;stroke:#ff0000;stroke-linejoin:miter;" x="352.008271" xlink:href="#m740d3f02de" y="487.120994"/>
     <use style="fill:#ff0000;stroke:#ff0000;stroke-linejoin:miter;" x="361.692756" xlink:href="#m740d3f02de" y="487.817824"/>
     <use style="fill:#ff0000;stroke:#ff0000;stroke-linejoin:miter;" x="372.305318" xlink:href="#m740d3f02de" y="489.324503"/>
     <use style="fill:#ff0000;stroke:#ff0000;stroke-linejoin:miter;" x="382.013637" xlink:href="#m740d3f02de" y="490.03104"/>
     <use style="fill:#ff0000;stroke:#ff0000;stroke-linejoin:miter;" x="391.85156" xlink:href="#m740d3f02de" y="490.831875"/>
     <use style="fill:#ff0000;stroke:#ff0000;stroke-linejoin:miter;" x="402.590746" xlink:href="#m740d3f02de" y="492.48"/>
     <use style="fill:#ff0000;stroke:#ff0000;stroke-linejoin:miter;" x="412.387702" xlink:href="#m740d3f02de" y="459.642305"/>
     <use style="fill:#ff0000;stroke:#ff0000;stroke-linejoin:miter;" x="422.122836" xlink:href="#m740d3f02de" y="426.782422"/>
     <use style="fill:#ff0000;stroke:#ff0000;stroke-linejoin:miter;" x="432.841911" xlink:href="#m740d3f02de" y="394.822525"/>
     <use style="fill:#ff0000;stroke:#ff0000;stroke-linejoin:miter;" x="442.582259" xlink:href="#m740d3f02de" y="395.533916"/>
     <use style="fill:#ff0000;stroke:#ff0000;stroke-linejoin:miter;" x="452.296537" xlink:href="#m740d3f02de" y="362.634511"/>
     <use style="fill:#ff0000;stroke:#ff0000;stroke-linejoin:miter;" x="462.868878" xlink:href="#m740d3f02de" y="364.119003"/>
     <use style="fill:#ff0000;stroke:#ff0000;stroke-linejoin:miter;" x="472.585391" xlink:href="#m740d3f02de" y="331.218905"/>
     <use style="fill:#ff0000;stroke:#ff0000;stroke-linejoin:miter;" x="482.228908" xlink:href="#m740d3f02de" y="331.845012"/>
     <use style="fill:#ff0000;stroke:#ff0000;stroke-linejoin:miter;" x="492.781138" xlink:href="#m740d3f02de" y="316.484931"/>
     <use style="fill:#ff0000;stroke:#ff0000;stroke-linejoin:miter;" x="502.421677" xlink:href="#m740d3f02de" y="317.130452"/>
     <use style="fill:#ff0000;stroke:#ff0000;stroke-linejoin:miter;" x="513.388041" xlink:href="#m740d3f02de" y="301.955498"/>
     <use style="fill:#ff0000;stroke:#ff0000;stroke-linejoin:miter;" x="523.050924" xlink:href="#m740d3f02de" y="302.59686"/>
     <use style="fill:#ff0000;stroke:#ff0000;stroke-linejoin:miter;" x="532.720512" xlink:href="#m740d3f02de" y="303.22782"/>
     <use style="fill:#ff0000;stroke:#ff0000;stroke-linejoin:miter;" x="542.465329" xlink:href="#m740d3f02de" y="303.960706"/>
     <use style="fill:#ff0000;stroke:#ff0000;stroke-linejoin:miter;" x="552.931156" xlink:href="#m740d3f02de" y="305.35506"/>
     <use style="fill:#ff0000;stroke:#ff0000;stroke-linejoin:miter;" x="562.631283" xlink:href="#m740d3f02de" y="306.029009"/>
     <use style="fill:#ff0000;stroke:#ff0000;stroke-linejoin:miter;" x="572.390996" xlink:href="#m740d3f02de" y="306.757734"/>
     <use style="fill:#ff0000;stroke:#ff0000;stroke-linejoin:miter;" x="582.994621" xlink:href="#m740d3f02de" y="308.28036"/>
     <use style="fill:#ff0000;stroke:#ff0000;stroke-linejoin:miter;" x="594.276799" xlink:href="#m740d3f02de" y="310.4284"/>
     <use style="fill:#ff0000;stroke:#ff0000;stroke-linejoin:miter;" x="605.630483" xlink:href="#m740d3f02de" y="312.64023"/>
     <use style="fill:#ff0000;stroke:#ff0000;stroke-linejoin:miter;" x="615.343271" xlink:href="#m740d3f02de" y="313.329433"/>
     <use style="fill:#ff0000;stroke:#ff0000;stroke-linejoin:miter;" x="625.063508" xlink:href="#m740d3f02de" y="314.022797"/>
     <use style="fill:#ff0000;stroke:#ff0000;stroke-linejoin:miter;" x="635.676815" xlink:href="#m740d3f02de" y="315.552357"/>
     <use style="fill:#ff0000;stroke:#ff0000;stroke-linejoin:miter;" x="645.43057" xlink:href="#m740d3f02de" y="316.279002"/>
     <use style="fill:#ff0000;stroke:#ff0000;stroke-linejoin:miter;" x="655.142614" xlink:href="#m740d3f02de" y="316.956418"/>
     <use style="fill:#ff0000;stroke:#ff0000;stroke-linejoin:miter;" x="665.959264" xlink:href="#m740d3f02de" y="318.673186"/>
     <use style="fill:#ff0000;stroke:#ff0000;stroke-linejoin:miter;" x="676.380401" xlink:href="#m740d3f02de" y="320.023164"/>
     <use style="fill:#ff0000;stroke:#ff0000;stroke-linejoin:miter;" x="688.003719" xlink:href="#m740d3f02de" y="305.692034"/>
     <use style="fill:#ff0000;stroke:#ff0000;stroke-linejoin:miter;" x="697.721721" xlink:href="#m740d3f02de" y="306.390251"/>
     <use style="fill:#ff0000;stroke:#ff0000;stroke-linejoin:miter;" x="707.464304" xlink:href="#m740d3f02de" y="290.304218"/>
     <use style="fill:#ff0000;stroke:#ff0000;stroke-linejoin:miter;" x="718.482062" xlink:href="#m740d3f02de" y="292.208194"/>
     <use style="fill:#ff0000;stroke:#ff0000;stroke-linejoin:miter;" x="729.642086" xlink:href="#m740d3f02de" y="277.447179"/>
     <use style="fill:#ff0000;stroke:#ff0000;stroke-linejoin:miter;" x="740.990556" xlink:href="#m740d3f02de" y="279.652075"/>
     <use style="fill:#ff0000;stroke:#ff0000;stroke-linejoin:miter;" x="750.783043" xlink:href="#m740d3f02de" y="263.617351"/>
     <use style="fill:#ff0000;stroke:#ff0000;stroke-linejoin:miter;" x="760.561378" xlink:href="#m740d3f02de" y="264.37381"/>
     <use style="fill:#ff0000;stroke:#ff0000;stroke-linejoin:miter;" x="771.089027" xlink:href="#m740d3f02de" y="265.8167"/>
     <use style="fill:#ff0000;stroke:#ff0000;stroke-linejoin:miter;" x="780.868107" xlink:href="#m740d3f02de" y="249.769495"/>
     <use style="fill:#ff0000;stroke:#ff0000;stroke-linejoin:miter;" x="790.598027" xlink:href="#m740d3f02de" y="233.675141"/>
     <use style="fill:#ff0000;stroke:#ff0000;stroke-linejoin:miter;" x="801.231445" xlink:href="#m740d3f02de" y="235.216489"/>
     <use style="fill:#ff0000;stroke:#ff0000;stroke-linejoin:miter;" x="810.997118" xlink:href="#m740d3f02de" y="235.962548"/>
     <use style="fill:#ff0000;stroke:#ff0000;stroke-linejoin:miter;" x="820.706182" xlink:href="#m740d3f02de" y="236.616389"/>
     <use style="fill:#ff0000;stroke:#ff0000;stroke-linejoin:miter;" x="831.530281" xlink:href="#m740d3f02de" y="221.568321"/>
     <use style="fill:#ff0000;stroke:#ff0000;stroke-linejoin:miter;" x="841.293719" xlink:href="#m740d3f02de" y="222.306754"/>
     <use style="fill:#ff0000;stroke:#ff0000;stroke-linejoin:miter;" x="851.013211" xlink:href="#m740d3f02de" y="206.198533"/>
     <use style="fill:#ff0000;stroke:#ff0000;stroke-linejoin:miter;" x="861.538626" xlink:href="#m740d3f02de" y="207.651129"/>
     <use style="fill:#ff0000;stroke:#ff0000;stroke-linejoin:miter;" x="871.342286" xlink:href="#m740d3f02de" y="208.42423"/>
     <use style="fill:#ff0000;stroke:#ff0000;stroke-linejoin:miter;" x="881.078909" xlink:href="#m740d3f02de" y="192.33473"/>
     <use style="fill:#ff0000;stroke:#ff0000;stroke-linejoin:miter;" x="891.588683" xlink:href="#m740d3f02de" y="193.769299"/>
     <use style="fill:#ff0000;stroke:#ff0000;stroke-linejoin:miter;" x="901.369252" xlink:href="#m740d3f02de" y="169.324075"/>
     <use style="fill:#ff0000;stroke:#ff0000;stroke-linejoin:miter;" x="911.137904" xlink:href="#m740d3f02de" y="170.070135"/>
     <use style="fill:#ff0000;stroke:#ff0000;stroke-linejoin:miter;" x="921.657361" xlink:href="#m740d3f02de" y="171.509557"/>
     <use style="fill:#ff0000;stroke:#ff0000;stroke-linejoin:miter;" x="931.396964" xlink:href="#m740d3f02de" y="172.224415"/>
     <use style="fill:#ff0000;stroke:#ff0000;stroke-linejoin:miter;" x="941.114221" xlink:href="#m740d3f02de" y="156.116194"/>
     <use style="fill:#ff0000;stroke:#ff0000;stroke-linejoin:miter;" x="951.707418" xlink:href="#m740d3f02de" y="157.62842"/>
     <use style="fill:#ff0000;stroke:#ff0000;stroke-linejoin:miter;" x="961.509588" xlink:href="#m740d3f02de" y="158.39944"/>
     <use style="fill:#ff0000;stroke:#ff0000;stroke-linejoin:miter;" x="974.767097" xlink:href="#m740d3f02de" y="145.588856"/>
     <use style="fill:#ff0000;stroke:#ff0000;stroke-linejoin:miter;" x="984.450837" xlink:href="#m740d3f02de" y="146.251018"/>
     <use style="fill:#ff0000;stroke:#ff0000;stroke-linejoin:miter;" x="994.136811" xlink:href="#m740d3f02de" y="146.913874"/>
     <use style="fill:#ff0000;stroke:#ff0000;stroke-linejoin:miter;" x="1004.344922" xlink:href="#m740d3f02de" y="148.06139"/>
     <use style="fill:#ff0000;stroke:#ff0000;stroke-linejoin:miter;" x="1014.151561" xlink:href="#m740d3f02de" y="148.835184"/>
     <use style="fill:#ff0000;stroke:#ff0000;stroke-linejoin:miter;" x="1023.918723" xlink:href="#m740d3f02de" y="149.57639"/>
     <use style="fill:#ff0000;stroke:#ff0000;stroke-linejoin:miter;" x="1035.365513" xlink:href="#m740d3f02de" y="151.87905"/>
     <use style="fill:#ff0000;stroke:#ff0000;stroke-linejoin:miter;" x="1045.233974" xlink:href="#m740d3f02de" y="152.710393"/>
     <use style="fill:#ff0000;stroke:#ff0000;stroke-linejoin:miter;" x="1057.102346" xlink:href="#m740d3f02de" y="155.402723"/>
     <use style="fill:#ff0000;stroke:#ff0000;stroke-linejoin:miter;" x="1066.924627" xlink:href="#m740d3f02de" y="156.193158"/>
     <use style="fill:#ff0000;stroke:#ff0000;stroke-linejoin:miter;" x="1076.720093" xlink:href="#m740d3f02de" y="156.959324"/>
     <use style="fill:#ff0000;stroke:#ff0000;stroke-linejoin:miter;" x="1087.352766" xlink:href="#m740d3f02de" y="158.502751"/>
     <use style="fill:#ff0000;stroke:#ff0000;stroke-linejoin:miter;" x="1098.590999" xlink:href="#m740d3f02de" y="160.610576"/>
     <use style="fill:#ff0000;stroke:#ff0000;stroke-linejoin:miter;" x="1109.872433" xlink:href="#m740d3f02de" y="162.760003"/>
     <use style="fill:#ff0000;stroke:#ff0000;stroke-linejoin:miter;" x="1119.659706" xlink:href="#m740d3f02de" y="163.514383"/>
     <use style="fill:#ff0000;stroke:#ff0000;stroke-linejoin:miter;" x="1129.483476" xlink:href="#m740d3f02de" y="164.306204"/>
     <use style="fill:#ff0000;stroke:#ff0000;stroke-linejoin:miter;" x="1140.027513" xlink:href="#m740d3f02de" y="165.764347"/>
     <use style="fill:#ff0000;stroke:#ff0000;stroke-linejoin:miter;" x="1149.777544" xlink:href="#m740d3f02de" y="149.688021"/>
     <use style="fill:#ff0000;stroke:#ff0000;stroke-linejoin:miter;" x="1162.050367" xlink:href="#m740d3f02de" y="152.766555"/>
     <use style="fill:#ff0000;stroke:#ff0000;stroke-linejoin:miter;" x="1171.844344" xlink:href="#m740d3f02de" y="153.527175"/>
     <use style="fill:#ff0000;stroke:#ff0000;stroke-linejoin:miter;" x="1181.581712" xlink:href="#m740d3f02de" y="120.602116"/>
     <use style="fill:#ff0000;stroke:#ff0000;stroke-linejoin:miter;" x="1192.647141" xlink:href="#m740d3f02de" y="122.576815"/>
     <use style="fill:#ff0000;stroke:#ff0000;stroke-linejoin:miter;" x="1202.441117" xlink:href="#m740d3f02de" y="123.351996"/>
     <use style="fill:#ff0000;stroke:#ff0000;stroke-linejoin:miter;" x="1212.234349" xlink:href="#m740d3f02de" y="124.119549"/>
     <use style="fill:#ff0000;stroke:#ff0000;stroke-linejoin:miter;" x="1222.7836" xlink:href="#m740d3f02de" y="108.776108"/>
     <use style="fill:#ff0000;stroke:#ff0000;stroke-linejoin:miter;" x="1233.247938" xlink:href="#m740d3f02de" y="110.177396"/>
     <use style="fill:#ff0000;stroke:#ff0000;stroke-linejoin:miter;" x="1245.272727" xlink:href="#m740d3f02de" y="112.986905"/>
    </g>
   </g>
   <g id="line2d_16">
    <path clip-path="url(#p9151b6abd4)" d="M 402.590746 492.48 
L 412.387702 459.642305 
L 422.122836 426.782422 
L 432.841911 394.822525 
L 442.582259 395.533916 
L 452.296537 362.634511 
L 462.868878 364.119003 
L 472.585391 331.218905 
L 482.228908 331.845012 
L 492.781138 316.484931 
L 502.421677 317.130452 
L 676.380401 320.023164 
L 688.003719 305.692034 
L 697.721721 306.390251 
L 707.464304 290.304218 
L 718.482062 292.208194 
L 729.642086 277.447179 
L 740.990556 279.652075 
L 750.783043 263.617351 
L 760.561378 264.37381 
L 771.089027 265.8167 
L 780.868107 249.769495 
L 790.598027 233.675141 
L 801.231445 235.216489 
L 810.997118 235.962548 
L 820.706182 236.616389 
L 831.530281 221.568321 
L 841.293719 222.306754 
L 851.013211 206.198533 
L 861.538626 207.651129 
L 871.342286 208.42423 
L 881.078909 192.33473 
L 891.588683 193.769299 
L 901.369252 169.324075 
L 911.137904 170.070135 
L 921.657361 171.509557 
L 931.396964 172.224415 
L 941.114221 156.116194 
L 951.707418 157.62842 
L 961.509588 158.39944 
L 1140.027513 165.764347 
L 1149.777544 149.688021 
L 1162.050367 152.766555 
L 1171.844344 153.527175 
L 1181.581712 120.602116 
L 1192.647141 122.576815 
L 1202.441117 123.351996 
L 1212.234349 124.119549 
L 1222.7836 108.776108 
L 1233.247938 110.177396 
L 1245.272727 112.986905 
" style="fill:none;stroke:#800080;stroke-dasharray:9.6,2.4,1.5,2.4;stroke-dashoffset:0;stroke-width:1.5;"/>
    <defs>
     <path d="M -3 3 
L 3 -3 
M -3 -3 
L 3 3 
" id="mcb2790d60c" style="stroke:#800080;"/>
    </defs>
    <g clip-path="url(#p9151b6abd4)">
     <use style="fill:#800080;stroke:#800080;" x="402.590746" xlink:href="#mcb2790d60c" y="492.48"/>
     <use style="fill:#800080;stroke:#800080;" x="412.387702" xlink:href="#mcb2790d60c" y="459.642305"/>
     <use style="fill:#800080;stroke:#800080;" x="422.122836" xlink:href="#mcb2790d60c" y="426.782422"/>
     <use style="fill:#800080;stroke:#800080;" x="432.841911" xlink:href="#mcb2790d60c" y="394.822525"/>
     <use style="fill:#800080;stroke:#800080;" x="442.582259" xlink:href="#mcb2790d60c" y="395.533916"/>
     <use style="fill:#800080;stroke:#800080;" x="452.296537" xlink:href="#mcb2790d60c" y="362.634511"/>
     <use style="fill:#800080;stroke:#800080;" x="462.868878" xlink:href="#mcb2790d60c" y="364.119003"/>
     <use style="fill:#800080;stroke:#800080;" x="472.585391" xlink:href="#mcb2790d60c" y="331.218905"/>
     <use style="fill:#800080;stroke:#800080;" x="482.228908" xlink:href="#mcb2790d60c" y="331.845012"/>
     <use style="fill:#800080;stroke:#800080;" x="492.781138" xlink:href="#mcb2790d60c" y="316.484931"/>
     <use style="fill:#800080;stroke:#800080;" x="502.421677" xlink:href="#mcb2790d60c" y="317.130452"/>
     <use style="fill:#800080;stroke:#800080;" x="676.380401" xlink:href="#mcb2790d60c" y="320.023164"/>
     <use style="fill:#800080;stroke:#800080;" x="688.003719" xlink:href="#mcb2790d60c" y="305.692034"/>
     <use style="fill:#800080;stroke:#800080;" x="697.721721" xlink:href="#mcb2790d60c" y="306.390251"/>
     <use style="fill:#800080;stroke:#800080;" x="707.464304" xlink:href="#mcb2790d60c" y="290.304218"/>
     <use style="fill:#800080;stroke:#800080;" x="718.482062" xlink:href="#mcb2790d60c" y="292.208194"/>
     <use style="fill:#800080;stroke:#800080;" x="729.642086" xlink:href="#mcb2790d60c" y="277.447179"/>
     <use style="fill:#800080;stroke:#800080;" x="740.990556" xlink:href="#mcb2790d60c" y="279.652075"/>
     <use style="fill:#800080;stroke:#800080;" x="750.783043" xlink:href="#mcb2790d60c" y="263.617351"/>
     <use style="fill:#800080;stroke:#800080;" x="760.561378" xlink:href="#mcb2790d60c" y="264.37381"/>
     <use style="fill:#800080;stroke:#800080;" x="771.089027" xlink:href="#mcb2790d60c" y="265.8167"/>
     <use style="fill:#800080;stroke:#800080;" x="780.868107" xlink:href="#mcb2790d60c" y="249.769495"/>
     <use style="fill:#800080;stroke:#800080;" x="790.598027" xlink:href="#mcb2790d60c" y="233.675141"/>
     <use style="fill:#800080;stroke:#800080;" x="801.231445" xlink:href="#mcb2790d60c" y="235.216489"/>
     <use style="fill:#800080;stroke:#800080;" x="810.997118" xlink:href="#mcb2790d60c" y="235.962548"/>
     <use style="fill:#800080;stroke:#800080;" x="820.706182" xlink:href="#mcb2790d60c" y="236.616389"/>
     <use style="fill:#800080;stroke:#800080;" x="831.530281" xlink:href="#mcb2790d60c" y="221.568321"/>
     <use style="fill:#800080;stroke:#800080;" x="841.293719" xlink:href="#mcb2790d60c" y="222.306754"/>
     <use style="fill:#800080;stroke:#800080;" x="851.013211" xlink:href="#mcb2790d60c" y="206.198533"/>
     <use style="fill:#800080;stroke:#800080;" x="861.538626" xlink:href="#mcb2790d60c" y="207.651129"/>
     <use style="fill:#800080;stroke:#800080;" x="871.342286" xlink:href="#mcb2790d60c" y="208.42423"/>
     <use style="fill:#800080;stroke:#800080;" x="881.078909" xlink:href="#mcb2790d60c" y="192.33473"/>
     <use style="fill:#800080;stroke:#800080;" x="891.588683" xlink:href="#mcb2790d60c" y="193.769299"/>
     <use style="fill:#800080;stroke:#800080;" x="901.369252" xlink:href="#mcb2790d60c" y="169.324075"/>
     <use style="fill:#800080;stroke:#800080;" x="911.137904" xlink:href="#mcb2790d60c" y="170.070135"/>
     <use style="fill:#800080;stroke:#800080;" x="921.657361" xlink:href="#mcb2790d60c" y="171.509557"/>
     <use style="fill:#800080;stroke:#800080;" x="931.396964" xlink:href="#mcb2790d60c" y="172.224415"/>
     <use style="fill:#800080;stroke:#800080;" x="941.114221" xlink:href="#mcb2790d60c" y="156.116194"/>
     <use style="fill:#800080;stroke:#800080;" x="951.707418" xlink:href="#mcb2790d60c" y="157.62842"/>
     <use style="fill:#800080;stroke:#800080;" x="961.509588" xlink:href="#mcb2790d60c" y="158.39944"/>
     <use style="fill:#800080;stroke:#800080;" x="1140.027513" xlink:href="#mcb2790d60c" y="165.764347"/>
     <use style="fill:#800080;stroke:#800080;" x="1149.777544" xlink:href="#mcb2790d60c" y="149.688021"/>
     <use style="fill:#800080;stroke:#800080;" x="1162.050367" xlink:href="#mcb2790d60c" y="152.766555"/>
     <use style="fill:#800080;stroke:#800080;" x="1171.844344" xlink:href="#mcb2790d60c" y="153.527175"/>
     <use style="fill:#800080;stroke:#800080;" x="1181.581712" xlink:href="#mcb2790d60c" y="120.602116"/>
     <use style="fill:#800080;stroke:#800080;" x="1192.647141" xlink:href="#mcb2790d60c" y="122.576815"/>
     <use style="fill:#800080;stroke:#800080;" x="1202.441117" xlink:href="#mcb2790d60c" y="123.351996"/>
     <use style="fill:#800080;stroke:#800080;" x="1212.234349" xlink:href="#mcb2790d60c" y="124.119549"/>
     <use style="fill:#800080;stroke:#800080;" x="1222.7836" xlink:href="#mcb2790d60c" y="108.776108"/>
     <use style="fill:#800080;stroke:#800080;" x="1233.247938" xlink:href="#mcb2790d60c" y="110.177396"/>
     <use style="fill:#800080;stroke:#800080;" x="1245.272727" xlink:href="#mcb2790d60c" y="112.986905"/>
    </g>
   </g>
   <g id="line2d_17">
    <path clip-path="url(#p9151b6abd4)" d="M 402.590746 391.240282 
L 412.387702 387.729715 
L 422.122836 384.241301 
L 432.841911 380.400309 
L 442.582259 376.910026 
L 452.296537 373.429085 
L 462.868878 369.640673 
L 472.585391 366.158931 
L 482.228908 362.703346 
L 492.781138 358.92214 
L 502.421677 355.467622 
L 676.380401 293.13257 
L 688.003719 288.967558 
L 697.721721 285.485283 
L 707.464304 281.994199 
L 718.482062 278.046179 
L 729.642086 274.047181 
L 740.990556 269.980656 
L 750.783043 266.47169 
L 760.561378 262.967796 
L 771.089027 259.195397 
L 780.868107 255.691236 
L 790.598027 252.20469 
L 801.231445 248.394392 
L 810.997118 244.895034 
L 820.706182 241.415962 
L 831.530281 237.537336 
L 841.293719 234.03878 
L 851.013211 230.555971 
L 861.538626 226.784373 
L 871.342286 223.271404 
L 881.078909 219.782456 
L 891.588683 216.016463 
L 901.369252 212.511768 
L 911.137904 209.011343 
L 921.657361 205.241881 
L 931.396964 201.751865 
L 941.114221 198.269857 
L 951.707418 194.473971 
L 961.509588 190.961535 
L 1140.027513 126.992773 
L 1149.777544 123.499021 
L 1162.050367 119.101271 
L 1171.844344 115.591771 
L 1181.581712 112.102556 
L 1192.647141 108.137454 
L 1202.441117 104.627955 
L 1212.234349 101.118722 
L 1222.7836 97.338584 
L 1233.247938 93.588872 
L 1245.272727 89.28 
" style="fill:none;stroke:#0000ff;stroke-linecap:square;stroke-width:1.5;"/>
   </g>
   <g id="line2d_18">
    <path clip-path="url(#p9151b6abd4)" d="M 402.590746 483.281631 
L 412.387702 483.228104 
L 422.122836 483.174914 
L 432.841911 483.116349 
L 442.582259 483.063132 
L 452.296537 483.010056 
L 462.868878 482.952293 
L 472.585391 482.899205 
L 482.228908 482.846517 
L 492.781138 482.788863 
L 502.421677 482.736191 
L 676.380401 481.785744 
L 688.003719 481.722238 
L 697.721721 481.669143 
L 707.464304 481.615913 
L 718.482062 481.555716 
L 729.642086 481.494741 
L 740.990556 481.432738 
L 750.783043 481.379235 
L 760.561378 481.32581 
L 771.089027 481.26829 
L 780.868107 481.214861 
L 790.598027 481.1617 
L 801.231445 481.103603 
L 810.997118 481.050247 
L 820.706182 480.9972 
L 831.530281 480.938062 
L 841.293719 480.884718 
L 851.013211 480.831614 
L 861.538626 480.774107 
L 871.342286 480.720543 
L 881.078909 480.667346 
L 891.588683 480.609924 
L 901.369252 480.556487 
L 911.137904 480.503115 
L 921.657361 480.44564 
L 931.396964 480.392426 
L 941.114221 480.339335 
L 951.707418 480.281458 
L 961.509588 480.227902 
L 1140.027513 479.252545 
L 1149.777544 479.199275 
L 1162.050367 479.13222 
L 1171.844344 479.07871 
L 1181.581712 479.025508 
L 1192.647141 478.965051 
L 1202.441117 478.91154 
L 1212.234349 478.858033 
L 1222.7836 478.800396 
L 1233.247938 478.743223 
L 1245.272727 478.677524 
" style="fill:none;stroke:#008000;stroke-linecap:square;stroke-width:1.5;"/>
    <defs>
     <path d="M 0 3 
C 0.795609 3 1.55874 2.683901 2.12132 2.12132 
C 2.683901 1.55874 3 0.795609 3 0 
C 3 -0.795609 2.683901 -1.55874 2.12132 -2.12132 
C 1.55874 -2.683901 0.795609 -3 0 -3 
C -0.795609 -3 -1.55874 -2.683901 -2.12132 -2.12132 
C -2.683901 -1.55874 -3 -0.795609 -3 0 
C -3 0.795609 -2.683901 1.55874 -2.12132 2.12132 
C -1.55874 2.683901 -0.795609 3 0 3 
z
" id="md4c585d87b" style="stroke:#008000;"/>
    </defs>
    <g clip-path="url(#p9151b6abd4)">
     <use style="fill:#008000;stroke:#008000;" x="402.590746" xlink:href="#md4c585d87b" y="483.281631"/>
     <use style="fill:#008000;stroke:#008000;" x="412.387702" xlink:href="#md4c585d87b" y="483.228104"/>
     <use style="fill:#008000;stroke:#008000;" x="422.122836" xlink:href="#md4c585d87b" y="483.174914"/>
     <use style="fill:#008000;stroke:#008000;" x="432.841911" xlink:href="#md4c585d87b" y="483.116349"/>
     <use style="fill:#008000;stroke:#008000;" x="442.582259" xlink:href="#md4c585d87b" y="483.063132"/>
     <use style="fill:#008000;stroke:#008000;" x="452.296537" xlink:href="#md4c585d87b" y="483.010056"/>
     <use style="fill:#008000;stroke:#008000;" x="462.868878" xlink:href="#md4c585d87b" y="482.952293"/>
     <use style="fill:#008000;stroke:#008000;" x="472.585391" xlink:href="#md4c585d87b" y="482.899205"/>
     <use style="fill:#008000;stroke:#008000;" x="482.228908" xlink:href="#md4c585d87b" y="482.846517"/>
     <use style="fill:#008000;stroke:#008000;" x="492.781138" xlink:href="#md4c585d87b" y="482.788863"/>
     <use style="fill:#008000;stroke:#008000;" x="502.421677" xlink:href="#md4c585d87b" y="482.736191"/>
     <use style="fill:#008000;stroke:#008000;" x="676.380401" xlink:href="#md4c585d87b" y="481.785744"/>
     <use style="fill:#008000;stroke:#008000;" x="688.003719" xlink:href="#md4c585d87b" y="481.722238"/>
     <use style="fill:#008000;stroke:#008000;" x="697.721721" xlink:href="#md4c585d87b" y="481.669143"/>
     <use style="fill:#008000;stroke:#008000;" x="707.464304" xlink:href="#md4c585d87b" y="481.615913"/>
     <use style="fill:#008000;stroke:#008000;" x="718.482062" xlink:href="#md4c585d87b" y="481.555716"/>
     <use style="fill:#008000;stroke:#008000;" x="729.642086" xlink:href="#md4c585d87b" y="481.494741"/>
     <use style="fill:#008000;stroke:#008000;" x="740.990556" xlink:href="#md4c585d87b" y="481.432738"/>
     <use style="fill:#008000;stroke:#008000;" x="750.783043" xlink:href="#md4c585d87b" y="481.379235"/>
     <use style="fill:#008000;stroke:#008000;" x="760.561378" xlink:href="#md4c585d87b" y="481.32581"/>
     <use style="fill:#008000;stroke:#008000;" x="771.089027" xlink:href="#md4c585d87b" y="481.26829"/>
     <use style="fill:#008000;stroke:#008000;" x="780.868107" xlink:href="#md4c585d87b" y="481.214861"/>
     <use style="fill:#008000;stroke:#008000;" x="790.598027" xlink:href="#md4c585d87b" y="481.1617"/>
     <use style="fill:#008000;stroke:#008000;" x="801.231445" xlink:href="#md4c585d87b" y="481.103603"/>
     <use style="fill:#008000;stroke:#008000;" x="810.997118" xlink:href="#md4c585d87b" y="481.050247"/>
     <use style="fill:#008000;stroke:#008000;" x="820.706182" xlink:href="#md4c585d87b" y="480.9972"/>
     <use style="fill:#008000;stroke:#008000;" x="831.530281" xlink:href="#md4c585d87b" y="480.938062"/>
     <use style="fill:#008000;stroke:#008000;" x="841.293719" xlink:href="#md4c585d87b" y="480.884718"/>
     <use style="fill:#008000;stroke:#008000;" x="851.013211" xlink:href="#md4c585d87b" y="480.831614"/>
     <use style="fill:#008000;stroke:#008000;" x="861.538626" xlink:href="#md4c585d87b" y="480.774107"/>
     <use style="fill:#008000;stroke:#008000;" x="871.342286" xlink:href="#md4c585d87b" y="480.720543"/>
     <use style="fill:#008000;stroke:#008000;" x="881.078909" xlink:href="#md4c585d87b" y="480.667346"/>
     <use style="fill:#008000;stroke:#008000;" x="891.588683" xlink:href="#md4c585d87b" y="480.609924"/>
     <use style="fill:#008000;stroke:#008000;" x="901.369252" xlink:href="#md4c585d87b" y="480.556487"/>
     <use style="fill:#008000;stroke:#008000;" x="911.137904" xlink:href="#md4c585d87b" y="480.503115"/>
     <use style="fill:#008000;stroke:#008000;" x="921.657361" xlink:href="#md4c585d87b" y="480.44564"/>
     <use style="fill:#008000;stroke:#008000;" x="931.396964" xlink:href="#md4c585d87b" y="480.392426"/>
     <use style="fill:#008000;stroke:#008000;" x="941.114221" xlink:href="#md4c585d87b" y="480.339335"/>
     <use style="fill:#008000;stroke:#008000;" x="951.707418" xlink:href="#md4c585d87b" y="480.281458"/>
     <use style="fill:#008000;stroke:#008000;" x="961.509588" xlink:href="#md4c585d87b" y="480.227902"/>
     <use style="fill:#008000;stroke:#008000;" x="1140.027513" xlink:href="#md4c585d87b" y="479.252545"/>
     <use style="fill:#008000;stroke:#008000;" x="1149.777544" xlink:href="#md4c585d87b" y="479.199275"/>
     <use style="fill:#008000;stroke:#008000;" x="1162.050367" xlink:href="#md4c585d87b" y="479.13222"/>
     <use style="fill:#008000;stroke:#008000;" x="1171.844344" xlink:href="#md4c585d87b" y="479.07871"/>
     <use style="fill:#008000;stroke:#008000;" x="1181.581712" xlink:href="#md4c585d87b" y="479.025508"/>
     <use style="fill:#008000;stroke:#008000;" x="1192.647141" xlink:href="#md4c585d87b" y="478.965051"/>
     <use style="fill:#008000;stroke:#008000;" x="1202.441117" xlink:href="#md4c585d87b" y="478.91154"/>
     <use style="fill:#008000;stroke:#008000;" x="1212.234349" xlink:href="#md4c585d87b" y="478.858033"/>
     <use style="fill:#008000;stroke:#008000;" x="1222.7836" xlink:href="#md4c585d87b" y="478.800396"/>
     <use style="fill:#008000;stroke:#008000;" x="1233.247938" xlink:href="#md4c585d87b" y="478.743223"/>
     <use style="fill:#008000;stroke:#008000;" x="1245.272727" xlink:href="#md4c585d87b" y="478.677524"/>
    </g>
   </g>
   <g id="patch_3">
    <path d="M 180 512.64 
L 180 69.12 
" style="fill:none;stroke:#000000;stroke-linecap:square;stroke-linejoin:miter;stroke-width:0.8;"/>
   </g>
   <g id="patch_4">
    <path d="M 1296 512.64 
L 1296 69.12 
" style="fill:none;stroke:#000000;stroke-linecap:square;stroke-linejoin:miter;stroke-width:0.8;"/>
   </g>
   <g id="patch_5">
    <path d="M 180 512.64 
L 1296 512.64 
" style="fill:none;stroke:#000000;stroke-linecap:square;stroke-linejoin:miter;stroke-width:0.8;"/>
   </g>
   <g id="patch_6">
    <path d="M 180 69.12 
L 1296 69.12 
" style="fill:none;stroke:#000000;stroke-linecap:square;stroke-linejoin:miter;stroke-width:0.8;"/>
   </g>
   <g id="text_15">
    <!-- 500000.0 bit/s -->
    <defs>
     <path id="DejaVuSans-20"/>
     <path d="M 48.6875 27.296875 
Q 48.6875 37.203125 44.609375 42.84375 
Q 40.53125 48.484375 33.40625 48.484375 
Q 26.265625 48.484375 22.1875 42.84375 
Q 18.109375 37.203125 18.109375 27.296875 
Q 18.109375 17.390625 22.1875 11.75 
Q 26.265625 6.109375 33.40625 6.109375 
Q 40.53125 6.109375 44.609375 11.75 
Q 48.6875 17.390625 48.6875 27.296875 
z
M 18.109375 46.390625 
Q 20.953125 51.265625 25.265625 53.625 
Q 29.59375 56 35.59375 56 
Q 45.5625 56 51.78125 48.09375 
Q 58.015625 40.1875 58.015625 27.296875 
Q 58.015625 14.40625 51.78125 6.484375 
Q 45.5625 -1.421875 35.59375 -1.421875 
Q 29.59375 -1.421875 25.265625 0.953125 
Q 20.953125 3.328125 18.109375 8.203125 
L 18.109375 0 
L 9.078125 0 
L 9.078125 75.984375 
L 18.109375 75.984375 
z
" id="DejaVuSans-62"/>
     <path d="M 9.421875 54.6875 
L 18.40625 54.6875 
L 18.40625 0 
L 9.421875 0 
z
M 9.421875 75.984375 
L 18.40625 75.984375 
L 18.40625 64.59375 
L 9.421875 64.59375 
z
" id="DejaVuSans-69"/>
     <path d="M 18.3125 70.21875 
L 18.3125 54.6875 
L 36.8125 54.6875 
L 36.8125 47.703125 
L 18.3125 47.703125 
L 18.3125 18.015625 
Q 18.3125 11.328125 20.140625 9.421875 
Q 21.96875 7.515625 27.59375 7.515625 
L 36.8125 7.515625 
L 36.8125 0 
L 27.59375 0 
Q 17.1875 0 13.234375 3.875 
Q 9.28125 7.765625 9.28125 18.015625 
L 9.28125 47.703125 
L 2.6875 47.703125 
L 2.6875 54.6875 
L 9.28125 54.6875 
L 9.28125 70.21875 
z
" id="DejaVuSans-74"/>
     <path d="M 25.390625 72.90625 
L 33.6875 72.90625 
L 8.296875 -9.28125 
L 0 -9.28125 
z
" id="DejaVuSans-2f"/>
     <path d="M 44.28125 53.078125 
L 44.28125 44.578125 
Q 40.484375 46.53125 36.375 47.5 
Q 32.28125 48.484375 27.875 48.484375 
Q 21.1875 48.484375 17.84375 46.4375 
Q 14.5 44.390625 14.5 40.28125 
Q 14.5 37.15625 16.890625 35.375 
Q 19.28125 33.59375 26.515625 31.984375 
L 29.59375 31.296875 
Q 39.15625 29.25 43.1875 25.515625 
Q 47.21875 21.78125 47.21875 15.09375 
Q 47.21875 7.46875 41.1875 3.015625 
Q 35.15625 -1.421875 24.609375 -1.421875 
Q 20.21875 -1.421875 15.453125 -0.5625 
Q 10.6875 0.296875 5.421875 2 
L 5.421875 11.28125 
Q 10.40625 8.6875 15.234375 7.390625 
Q 20.0625 6.109375 24.8125 6.109375 
Q 31.15625 6.109375 34.5625 8.28125 
Q 37.984375 10.453125 37.984375 14.40625 
Q 37.984375 18.0625 35.515625 20.015625 
Q 33.0625 21.96875 24.703125 23.78125 
L 21.578125 24.515625 
Q 13.234375 26.265625 9.515625 29.90625 
Q 5.8125 33.546875 5.8125 39.890625 
Q 5.8125 47.609375 11.28125 51.796875 
Q 16.75 56 26.8125 56 
Q 31.78125 56 36.171875 55.265625 
Q 40.578125 54.546875 44.28125 53.078125 
z
" id="DejaVuSans-73"/>
    </defs>
    <g transform="translate(694.48875 63.12)scale(0.12 -0.12)">
     <use xlink:href="#DejaVuSans-35"/>
     <use x="63.623047" xlink:href="#DejaVuSans-30"/>
     <use x="127.246094" xlink:href="#DejaVuSans-30"/>
     <use x="190.869141" xlink:href="#DejaVuSans-30"/>
     <use x="254.492188" xlink:href="#DejaVuSans-30"/>
     <use x="318.115234" xlink:href="#DejaVuSans-30"/>
     <use x="381.738281" xlink:href="#DejaVuSans-2e"/>
     <use x="413.525391" xlink:href="#DejaVuSans-30"/>
     <use x="477.148438" xlink:href="#DejaVuSans-20"/>
     <use x="508.935547" xlink:href="#DejaVuSans-62"/>
     <use x="572.412109" xlink:href="#DejaVuSans-69"/>
     <use x="600.195312" xlink:href="#DejaVuSans-74"/>
     <use x="639.404297" xlink:href="#DejaVuSans-2f"/>
     <use x="673.095703" xlink:href="#DejaVuSans-73"/>
    </g>
   </g>
   <g id="legend_1">
    <g id="patch_7">
     <path d="M 1173.520313 135.8325 
L 1289 135.8325 
Q 1291 135.8325 1291 133.8325 
L 1291 76.12 
Q 1291 74.12 1289 74.12 
L 1173.520313 74.12 
Q 1171.520313 74.12 1171.520313 76.12 
L 1171.520313 133.8325 
Q 1171.520313 135.8325 1173.520313 135.8325 
z
" style="fill:#ffffff;opacity:0.8;stroke:#cccccc;stroke-linejoin:miter;"/>
    </g>
    <g id="line2d_19">
     <path d="M 1175.520313 82.218437 
L 1195.520313 82.218437 
" style="fill:none;stroke:#ff0000;stroke-dasharray:5.55,2.4;stroke-dashoffset:0;stroke-width:1.5;"/>
    </g>
    <g id="line2d_20">
     <g>
      <use style="fill:#ff0000;stroke:#ff0000;stroke-linejoin:miter;" x="1185.520313" xlink:href="#m740d3f02de" y="82.218437"/>
     </g>
    </g>
    <g id="text_16">
     <!-- tcpdump -->
     <defs>
      <path d="M 48.78125 52.59375 
L 48.78125 44.1875 
Q 44.96875 46.296875 41.140625 47.34375 
Q 37.3125 48.390625 33.40625 48.390625 
Q 24.65625 48.390625 19.8125 42.84375 
Q 14.984375 37.3125 14.984375 27.296875 
Q 14.984375 17.28125 19.8125 11.734375 
Q 24.65625 6.203125 33.40625 6.203125 
Q 37.3125 6.203125 41.140625 7.25 
Q 44.96875 8.296875 48.78125 10.40625 
L 48.78125 2.09375 
Q 45.015625 0.34375 40.984375 -0.53125 
Q 36.96875 -1.421875 32.421875 -1.421875 
Q 20.0625 -1.421875 12.78125 6.34375 
Q 5.515625 14.109375 5.515625 27.296875 
Q 5.515625 40.671875 12.859375 48.328125 
Q 20.21875 56 33.015625 56 
Q 37.15625 56 41.109375 55.140625 
Q 45.0625 54.296875 48.78125 52.59375 
z
" id="DejaVuSans-63"/>
      <path d="M 18.109375 8.203125 
L 18.109375 -20.796875 
L 9.078125 -20.796875 
L 9.078125 54.6875 
L 18.109375 54.6875 
L 18.109375 46.390625 
Q 20.953125 51.265625 25.265625 53.625 
Q 29.59375 56 35.59375 56 
Q 45.5625 56 51.78125 48.09375 
Q 58.015625 40.1875 58.015625 27.296875 
Q 58.015625 14.40625 51.78125 6.484375 
Q 45.5625 -1.421875 35.59375 -1.421875 
Q 29.59375 -1.421875 25.265625 0.953125 
Q 20.953125 3.328125 18.109375 8.203125 
z
M 48.6875 27.296875 
Q 48.6875 37.203125 44.609375 42.84375 
Q 40.53125 48.484375 33.40625 48.484375 
Q 26.265625 48.484375 22.1875 42.84375 
Q 18.109375 37.203125 18.109375 27.296875 
Q 18.109375 17.390625 22.1875 11.75 
Q 26.265625 6.109375 33.40625 6.109375 
Q 40.53125 6.109375 44.609375 11.75 
Q 48.6875 17.390625 48.6875 27.296875 
z
" id="DejaVuSans-70"/>
      <path d="M 45.40625 46.390625 
L 45.40625 75.984375 
L 54.390625 75.984375 
L 54.390625 0 
L 45.40625 0 
L 45.40625 8.203125 
Q 42.578125 3.328125 38.25 0.953125 
Q 33.9375 -1.421875 27.875 -1.421875 
Q 17.96875 -1.421875 11.734375 6.484375 
Q 5.515625 14.40625 5.515625 27.296875 
Q 5.515625 40.1875 11.734375 48.09375 
Q 17.96875 56 27.875 56 
Q 33.9375 56 38.25 53.625 
Q 42.578125 51.265625 45.40625 46.390625 
z
M 14.796875 27.296875 
Q 14.796875 17.390625 18.875 11.75 
Q 22.953125 6.109375 30.078125 6.109375 
Q 37.203125 6.109375 41.296875 11.75 
Q 45.40625 17.390625 45.40625 27.296875 
Q 45.40625 37.203125 41.296875 42.84375 
Q 37.203125 48.484375 30.078125 48.484375 
Q 22.953125 48.484375 18.875 42.84375 
Q 14.796875 37.203125 14.796875 27.296875 
z
" id="DejaVuSans-64"/>
      <path d="M 8.5 21.578125 
L 8.5 54.6875 
L 17.484375 54.6875 
L 17.484375 21.921875 
Q 17.484375 14.15625 20.5 10.265625 
Q 23.53125 6.390625 29.59375 6.390625 
Q 36.859375 6.390625 41.078125 11.03125 
Q 45.3125 15.671875 45.3125 23.6875 
L 45.3125 54.6875 
L 54.296875 54.6875 
L 54.296875 0 
L 45.3125 0 
L 45.3125 8.40625 
Q 42.046875 3.421875 37.71875 1 
Q 33.40625 -1.421875 27.6875 -1.421875 
Q 18.265625 -1.421875 13.375 4.4375 
Q 8.5 10.296875 8.5 21.578125 
z
M 31.109375 56 
z
" id="DejaVuSans-75"/>
      <path d="M 52 44.1875 
Q 55.375 50.25 60.0625 53.125 
Q 64.75 56 71.09375 56 
Q 79.640625 56 84.28125 50.015625 
Q 88.921875 44.046875 88.921875 33.015625 
L 88.921875 0 
L 79.890625 0 
L 79.890625 32.71875 
Q 79.890625 40.578125 77.09375 44.375 
Q 74.3125 48.1875 68.609375 48.1875 
Q 61.625 48.1875 57.5625 43.546875 
Q 53.515625 38.921875 53.515625 30.90625 
L 53.515625 0 
L 44.484375 0 
L 44.484375 32.71875 
Q 44.484375 40.625 41.703125 44.40625 
Q 38.921875 48.1875 33.109375 48.1875 
Q 26.21875 48.1875 22.15625 43.53125 
Q 18.109375 38.875 18.109375 30.90625 
L 18.109375 0 
L 9.078125 0 
L 9.078125 54.6875 
L 18.109375 54.6875 
L 18.109375 46.1875 
Q 21.1875 51.21875 25.484375 53.609375 
Q 29.78125 56 35.6875 56 
Q 41.65625 56 45.828125 52.96875 
Q 50 49.953125 52 44.1875 
z
" id="DejaVuSans-6d"/>
     </defs>
     <g transform="translate(1203.520313 85.718437)scale(0.1 -0.1)">
      <use xlink:href="#DejaVuSans-74"/>
      <use x="39.208984" xlink:href="#DejaVuSans-63"/>
      <use x="94.189453" xlink:href="#DejaVuSans-70"/>
      <use x="157.666016" xlink:href="#DejaVuSans-64"/>
      <use x="221.142578" xlink:href="#DejaVuSans-75"/>
      <use x="284.521484" xlink:href="#DejaVuSans-6d"/>
      <use x="381.933594" xlink:href="#DejaVuSans-70"/>
     </g>
    </g>
    <g id="line2d_21">
     <path d="M 1175.520313 96.896563 
L 1195.520313 96.896563 
" style="fill:none;stroke:#800080;stroke-dasharray:9.6,2.4,1.5,2.4;stroke-dashoffset:0;stroke-width:1.5;"/>
    </g>
    <g id="line2d_22">
     <g>
      <use style="fill:#800080;stroke:#800080;" x="1185.520313" xlink:href="#mcb2790d60c" y="96.896563"/>
     </g>
    </g>
    <g id="text_17">
     <!-- filtered tcpdump -->
     <defs>
      <path d="M 37.109375 75.984375 
L 37.109375 68.5 
L 28.515625 68.5 
Q 23.6875 68.5 21.796875 66.546875 
Q 19.921875 64.59375 19.921875 59.515625 
L 19.921875 54.6875 
L 34.71875 54.6875 
L 34.71875 47.703125 
L 19.921875 47.703125 
L 19.921875 0 
L 10.890625 0 
L 10.890625 47.703125 
L 2.296875 47.703125 
L 2.296875 54.6875 
L 10.890625 54.6875 
L 10.890625 58.5 
Q 10.890625 67.625 15.140625 71.796875 
Q 19.390625 75.984375 28.609375 75.984375 
z
" id="DejaVuSans-66"/>
      <path d="M 9.421875 75.984375 
L 18.40625 75.984375 
L 18.40625 0 
L 9.421875 0 
z
" id="DejaVuSans-6c"/>
      <path d="M 56.203125 29.59375 
L 56.203125 25.203125 
L 14.890625 25.203125 
Q 15.484375 15.921875 20.484375 11.0625 
Q 25.484375 6.203125 34.421875 6.203125 
Q 39.59375 6.203125 44.453125 7.46875 
Q 49.3125 8.734375 54.109375 11.28125 
L 54.109375 2.78125 
Q 49.265625 0.734375 44.1875 -0.34375 
Q 39.109375 -1.421875 33.890625 -1.421875 
Q 20.796875 -1.421875 13.15625 6.1875 
Q 5.515625 13.8125 5.515625 26.8125 
Q 5.515625 40.234375 12.765625 48.109375 
Q 20.015625 56 32.328125 56 
Q 43.359375 56 49.78125 48.890625 
Q 56.203125 41.796875 56.203125 29.59375 
z
M 47.21875 32.234375 
Q 47.125 39.59375 43.09375 43.984375 
Q 39.0625 48.390625 32.421875 48.390625 
Q 24.90625 48.390625 20.390625 44.140625 
Q 15.875 39.890625 15.1875 32.171875 
z
" id="DejaVuSans-65"/>
      <path d="M 41.109375 46.296875 
Q 39.59375 47.171875 37.8125 47.578125 
Q 36.03125 48 33.890625 48 
Q 26.265625 48 22.1875 43.046875 
Q 18.109375 38.09375 18.109375 28.8125 
L 18.109375 0 
L 9.078125 0 
L 9.078125 54.6875 
L 18.109375 54.6875 
L 18.109375 46.1875 
Q 20.953125 51.171875 25.484375 53.578125 
Q 30.03125 56 36.53125 56 
Q 37.453125 56 38.578125 55.875 
Q 39.703125 55.765625 41.0625 55.515625 
z
" id="DejaVuSans-72"/>
     </defs>
     <g transform="translate(1203.520313 100.396563)scale(0.1 -0.1)">
      <use xlink:href="#DejaVuSans-66"/>
      <use x="35.205078" xlink:href="#DejaVuSans-69"/>
      <use x="62.988281" xlink:href="#DejaVuSans-6c"/>
      <use x="90.771484" xlink:href="#DejaVuSans-74"/>
      <use x="129.980469" xlink:href="#DejaVuSans-65"/>
      <use x="191.503906" xlink:href="#DejaVuSans-72"/>
      <use x="232.585938" xlink:href="#DejaVuSans-65"/>
      <use x="294.109375" xlink:href="#DejaVuSans-64"/>
      <use x="357.585938" xlink:href="#DejaVuSans-20"/>
      <use x="389.373047" xlink:href="#DejaVuSans-74"/>
      <use x="428.582031" xlink:href="#DejaVuSans-63"/>
      <use x="483.5625" xlink:href="#DejaVuSans-70"/>
      <use x="547.039062" xlink:href="#DejaVuSans-64"/>
      <use x="610.515625" xlink:href="#DejaVuSans-75"/>
      <use x="673.894531" xlink:href="#DejaVuSans-6d"/>
      <use x="771.306641" xlink:href="#DejaVuSans-70"/>
     </g>
    </g>
    <g id="line2d_23">
     <path d="M 1175.520313 111.574687 
L 1195.520313 111.574687 
" style="fill:none;stroke:#0000ff;stroke-linecap:square;stroke-width:1.5;"/>
    </g>
    <g id="line2d_24"/>
    <g id="text_18">
     <!-- OLS -->
     <defs>
      <path d="M 39.40625 66.21875 
Q 28.65625 66.21875 22.328125 58.203125 
Q 16.015625 50.203125 16.015625 36.375 
Q 16.015625 22.609375 22.328125 14.59375 
Q 28.65625 6.59375 39.40625 6.59375 
Q 50.140625 6.59375 56.421875 14.59375 
Q 62.703125 22.609375 62.703125 36.375 
Q 62.703125 50.203125 56.421875 58.203125 
Q 50.140625 66.21875 39.40625 66.21875 
z
M 39.40625 74.21875 
Q 54.734375 74.21875 63.90625 63.9375 
Q 73.09375 53.65625 73.09375 36.375 
Q 73.09375 19.140625 63.90625 8.859375 
Q 54.734375 -1.421875 39.40625 -1.421875 
Q 24.03125 -1.421875 14.8125 8.828125 
Q 5.609375 19.09375 5.609375 36.375 
Q 5.609375 53.65625 14.8125 63.9375 
Q 24.03125 74.21875 39.40625 74.21875 
z
" id="DejaVuSans-4f"/>
      <path d="M 9.8125 72.90625 
L 19.671875 72.90625 
L 19.671875 8.296875 
L 55.171875 8.296875 
L 55.171875 0 
L 9.8125 0 
z
" id="DejaVuSans-4c"/>
      <path d="M 53.515625 70.515625 
L 53.515625 60.890625 
Q 47.90625 63.578125 42.921875 64.890625 
Q 37.9375 66.21875 33.296875 66.21875 
Q 25.25 66.21875 20.875 63.09375 
Q 16.5 59.96875 16.5 54.203125 
Q 16.5 49.359375 19.40625 46.890625 
Q 22.3125 44.4375 30.421875 42.921875 
L 36.375 41.703125 
Q 47.40625 39.59375 52.65625 34.296875 
Q 57.90625 29 57.90625 20.125 
Q 57.90625 9.515625 50.796875 4.046875 
Q 43.703125 -1.421875 29.984375 -1.421875 
Q 24.8125 -1.421875 18.96875 -0.25 
Q 13.140625 0.921875 6.890625 3.21875 
L 6.890625 13.375 
Q 12.890625 10.015625 18.65625 8.296875 
Q 24.421875 6.59375 29.984375 6.59375 
Q 38.421875 6.59375 43.015625 9.90625 
Q 47.609375 13.234375 47.609375 19.390625 
Q 47.609375 24.75 44.3125 27.78125 
Q 41.015625 30.8125 33.5 32.328125 
L 27.484375 33.5 
Q 16.453125 35.6875 11.515625 40.375 
Q 6.59375 45.0625 6.59375 53.421875 
Q 6.59375 63.09375 13.40625 68.65625 
Q 20.21875 74.21875 32.171875 74.21875 
Q 37.3125 74.21875 42.625 73.28125 
Q 47.953125 72.359375 53.515625 70.515625 
z
" id="DejaVuSans-53"/>
     </defs>
     <g transform="translate(1203.520313 115.074687)scale(0.1 -0.1)">
      <use xlink:href="#DejaVuSans-4f"/>
      <use x="78.710938" xlink:href="#DejaVuSans-4c"/>
      <use x="134.423828" xlink:href="#DejaVuSans-53"/>
     </g>
    </g>
    <g id="line2d_25">
     <path d="M 1175.520313 126.252813 
L 1195.520313 126.252813 
" style="fill:none;stroke:#008000;stroke-linecap:square;stroke-width:1.5;"/>
    </g>
    <g id="line2d_26">
     <g>
      <use style="fill:#008000;stroke:#008000;" x="1185.520313" xlink:href="#md4c585d87b" y="126.252813"/>
     </g>
    </g>
    <g id="text_19">
     <!-- IRLS -->
     <defs>
      <path d="M 9.8125 72.90625 
L 19.671875 72.90625 
L 19.671875 0 
L 9.8125 0 
z
" id="DejaVuSans-49"/>
      <path d="M 44.390625 34.1875 
Q 47.5625 33.109375 50.5625 29.59375 
Q 53.5625 26.078125 56.59375 19.921875 
L 66.609375 0 
L 56 0 
L 46.6875 18.703125 
Q 43.0625 26.03125 39.671875 28.421875 
Q 36.28125 30.8125 30.421875 30.8125 
L 19.671875 30.8125 
L 19.671875 0 
L 9.8125 0 
L 9.8125 72.90625 
L 32.078125 72.90625 
Q 44.578125 72.90625 50.734375 67.671875 
Q 56.890625 62.453125 56.890625 51.90625 
Q 56.890625 45.015625 53.6875 40.46875 
Q 50.484375 35.9375 44.390625 34.1875 
z
M 19.671875 64.796875 
L 19.671875 38.921875 
L 32.078125 38.921875 
Q 39.203125 38.921875 42.84375 42.21875 
Q 46.484375 45.515625 46.484375 51.90625 
Q 46.484375 58.296875 42.84375 61.546875 
Q 39.203125 64.796875 32.078125 64.796875 
z
" id="DejaVuSans-52"/>
     </defs>
     <g transform="translate(1203.520313 129.752813)scale(0.1 -0.1)">
      <use xlink:href="#DejaVuSans-49"/>
      <use x="29.492188" xlink:href="#DejaVuSans-52"/>
      <use x="98.974609" xlink:href="#DejaVuSans-4c"/>
      <use x="154.6875" xlink:href="#DejaVuSans-53"/>
     </g>
    </g>
   </g>
  </g>
 </g>
 <defs>
  <clipPath id="p9151b6abd4">
   <rect height="443.52" width="1116" x="180" y="69.12"/>
  </clipPath>
 </defs>
</svg>
