<?xml version="1.0" encoding="utf-8" standalone="no"?>
<!DOCTYPE svg PUBLIC "-//W3C//DTD SVG 1.1//EN"
  "http://www.w3.org/Graphics/SVG/1.1/DTD/svg11.dtd">
<!-- Created with matplotlib (http://matplotlib.org/) -->
<svg height="576pt" version="1.1" viewBox="0 0 1440 576" width="1440pt" xmlns="http://www.w3.org/2000/svg" xmlns:xlink="http://www.w3.org/1999/xlink">
 <defs>
  <style type="text/css">
*{stroke-linecap:butt;stroke-linejoin:round;}
  </style>
 </defs>
 <g id="figure_1">
  <g id="patch_1">
   <path d="M 0 576 
L 1440 576 
L 1440 0 
L 0 0 
z
" style="fill:#ffffff;"/>
  </g>
  <g id="axes_1">
   <g id="patch_2">
    <path d="M 180 512.64 
L 1296 512.64 
L 1296 69.12 
L 180 69.12 
z
" style="fill:#ffffff;"/>
   </g>
   <g id="matplotlib.axis_1">
    <g id="xtick_1">
     <g id="line2d_1">
      <defs>
       <path d="M 0 0 
L 0 3.5 
" id="m5df27a9ea7" style="stroke:#000000;stroke-width:0.8;"/>
      </defs>
      <g>
       <use style="stroke:#000000;stroke-width:0.8;" x="230.727273" xlink:href="#m5df27a9ea7" y="512.64"/>
      </g>
     </g>
     <g id="text_1">
      <!-- 0.0 -->
      <defs>
       <path d="M 31.78125 66.40625 
Q 24.171875 66.40625 20.328125 58.90625 
Q 16.5 51.421875 16.5 36.375 
Q 16.5 21.390625 20.328125 13.890625 
Q 24.171875 6.390625 31.78125 6.390625 
Q 39.453125 6.390625 43.28125 13.890625 
Q 47.125 21.390625 47.125 36.375 
Q 47.125 51.421875 43.28125 58.90625 
Q 39.453125 66.40625 31.78125 66.40625 
z
M 31.78125 74.21875 
Q 44.046875 74.21875 50.515625 64.515625 
Q 56.984375 54.828125 56.984375 36.375 
Q 56.984375 17.96875 50.515625 8.265625 
Q 44.046875 -1.421875 31.78125 -1.421875 
Q 19.53125 -1.421875 13.0625 8.265625 
Q 6.59375 17.96875 6.59375 36.375 
Q 6.59375 54.828125 13.0625 64.515625 
Q 19.53125 74.21875 31.78125 74.21875 
z
" id="DejaVuSans-30"/>
       <path d="M 10.6875 12.40625 
L 21 12.40625 
L 21 0 
L 10.6875 0 
z
" id="DejaVuSans-2e"/>
      </defs>
      <g transform="translate(222.77571 527.238438)scale(0.1 -0.1)">
       <use xlink:href="#DejaVuSans-30"/>
       <use x="63.623047" xlink:href="#DejaVuSans-2e"/>
       <use x="95.410156" xlink:href="#DejaVuSans-30"/>
      </g>
     </g>
    </g>
    <g id="xtick_2">
     <g id="line2d_2">
      <g>
       <use style="stroke:#000000;stroke-width:0.8;" x="371.656231" xlink:href="#m5df27a9ea7" y="512.64"/>
      </g>
     </g>
     <g id="text_2">
      <!-- 0.2 -->
      <defs>
       <path d="M 19.1875 8.296875 
L 53.609375 8.296875 
L 53.609375 0 
L 7.328125 0 
L 7.328125 8.296875 
Q 12.9375 14.109375 22.625 23.890625 
Q 32.328125 33.6875 34.8125 36.53125 
Q 39.546875 41.84375 41.421875 45.53125 
Q 43.3125 49.21875 43.3125 52.78125 
Q 43.3125 58.59375 39.234375 62.25 
Q 35.15625 65.921875 28.609375 65.921875 
Q 23.96875 65.921875 18.8125 64.3125 
Q 13.671875 62.703125 7.8125 59.421875 
L 7.8125 69.390625 
Q 13.765625 71.78125 18.9375 73 
Q 24.125 74.21875 28.421875 74.21875 
Q 39.75 74.21875 46.484375 68.546875 
Q 53.21875 62.890625 53.21875 53.421875 
Q 53.21875 48.921875 51.53125 44.890625 
Q 49.859375 40.875 45.40625 35.40625 
Q 44.1875 33.984375 37.640625 27.21875 
Q 31.109375 20.453125 19.1875 8.296875 
z
" id="DejaVuSans-32"/>
      </defs>
      <g transform="translate(363.704668 527.238438)scale(0.1 -0.1)">
       <use xlink:href="#DejaVuSans-30"/>
       <use x="63.623047" xlink:href="#DejaVuSans-2e"/>
       <use x="95.410156" xlink:href="#DejaVuSans-32"/>
      </g>
     </g>
    </g>
    <g id="xtick_3">
     <g id="line2d_3">
      <g>
       <use style="stroke:#000000;stroke-width:0.8;" x="512.585189" xlink:href="#m5df27a9ea7" y="512.64"/>
      </g>
     </g>
     <g id="text_3">
      <!-- 0.4 -->
      <defs>
       <path d="M 37.796875 64.3125 
L 12.890625 25.390625 
L 37.796875 25.390625 
z
M 35.203125 72.90625 
L 47.609375 72.90625 
L 47.609375 25.390625 
L 58.015625 25.390625 
L 58.015625 17.1875 
L 47.609375 17.1875 
L 47.609375 0 
L 37.796875 0 
L 37.796875 17.1875 
L 4.890625 17.1875 
L 4.890625 26.703125 
z
" id="DejaVuSans-34"/>
      </defs>
      <g transform="translate(504.633626 527.238438)scale(0.1 -0.1)">
       <use xlink:href="#DejaVuSans-30"/>
       <use x="63.623047" xlink:href="#DejaVuSans-2e"/>
       <use x="95.410156" xlink:href="#DejaVuSans-34"/>
      </g>
     </g>
    </g>
    <g id="xtick_4">
     <g id="line2d_4">
      <g>
       <use style="stroke:#000000;stroke-width:0.8;" x="653.514147" xlink:href="#m5df27a9ea7" y="512.64"/>
      </g>
     </g>
     <g id="text_4">
      <!-- 0.6 -->
      <defs>
       <path d="M 33.015625 40.375 
Q 26.375 40.375 22.484375 35.828125 
Q 18.609375 31.296875 18.609375 23.390625 
Q 18.609375 15.53125 22.484375 10.953125 
Q 26.375 6.390625 33.015625 6.390625 
Q 39.65625 6.390625 43.53125 10.953125 
Q 47.40625 15.53125 47.40625 23.390625 
Q 47.40625 31.296875 43.53125 35.828125 
Q 39.65625 40.375 33.015625 40.375 
z
M 52.59375 71.296875 
L 52.59375 62.3125 
Q 48.875 64.0625 45.09375 64.984375 
Q 41.3125 65.921875 37.59375 65.921875 
Q 27.828125 65.921875 22.671875 59.328125 
Q 17.53125 52.734375 16.796875 39.40625 
Q 19.671875 43.65625 24.015625 45.921875 
Q 28.375 48.1875 33.59375 48.1875 
Q 44.578125 48.1875 50.953125 41.515625 
Q 57.328125 34.859375 57.328125 23.390625 
Q 57.328125 12.15625 50.6875 5.359375 
Q 44.046875 -1.421875 33.015625 -1.421875 
Q 20.359375 -1.421875 13.671875 8.265625 
Q 6.984375 17.96875 6.984375 36.375 
Q 6.984375 53.65625 15.1875 63.9375 
Q 23.390625 74.21875 37.203125 74.21875 
Q 40.921875 74.21875 44.703125 73.484375 
Q 48.484375 72.75 52.59375 71.296875 
z
" id="DejaVuSans-36"/>
      </defs>
      <g transform="translate(645.562584 527.238438)scale(0.1 -0.1)">
       <use xlink:href="#DejaVuSans-30"/>
       <use x="63.623047" xlink:href="#DejaVuSans-2e"/>
       <use x="95.410156" xlink:href="#DejaVuSans-36"/>
      </g>
     </g>
    </g>
    <g id="xtick_5">
     <g id="line2d_5">
      <g>
       <use style="stroke:#000000;stroke-width:0.8;" x="794.443105" xlink:href="#m5df27a9ea7" y="512.64"/>
      </g>
     </g>
     <g id="text_5">
      <!-- 0.8 -->
      <defs>
       <path d="M 31.78125 34.625 
Q 24.75 34.625 20.71875 30.859375 
Q 16.703125 27.09375 16.703125 20.515625 
Q 16.703125 13.921875 20.71875 10.15625 
Q 24.75 6.390625 31.78125 6.390625 
Q 38.8125 6.390625 42.859375 10.171875 
Q 46.921875 13.96875 46.921875 20.515625 
Q 46.921875 27.09375 42.890625 30.859375 
Q 38.875 34.625 31.78125 34.625 
z
M 21.921875 38.8125 
Q 15.578125 40.375 12.03125 44.71875 
Q 8.5 49.078125 8.5 55.328125 
Q 8.5 64.0625 14.71875 69.140625 
Q 20.953125 74.21875 31.78125 74.21875 
Q 42.671875 74.21875 48.875 69.140625 
Q 55.078125 64.0625 55.078125 55.328125 
Q 55.078125 49.078125 51.53125 44.71875 
Q 48 40.375 41.703125 38.8125 
Q 48.828125 37.15625 52.796875 32.3125 
Q 56.78125 27.484375 56.78125 20.515625 
Q 56.78125 9.90625 50.3125 4.234375 
Q 43.84375 -1.421875 31.78125 -1.421875 
Q 19.734375 -1.421875 13.25 4.234375 
Q 6.78125 9.90625 6.78125 20.515625 
Q 6.78125 27.484375 10.78125 32.3125 
Q 14.796875 37.15625 21.921875 38.8125 
z
M 18.3125 54.390625 
Q 18.3125 48.734375 21.84375 45.5625 
Q 25.390625 42.390625 31.78125 42.390625 
Q 38.140625 42.390625 41.71875 45.5625 
Q 45.3125 48.734375 45.3125 54.390625 
Q 45.3125 60.0625 41.71875 63.234375 
Q 38.140625 66.40625 31.78125 66.40625 
Q 25.390625 66.40625 21.84375 63.234375 
Q 18.3125 60.0625 18.3125 54.390625 
z
" id="DejaVuSans-38"/>
      </defs>
      <g transform="translate(786.491542 527.238438)scale(0.1 -0.1)">
       <use xlink:href="#DejaVuSans-30"/>
       <use x="63.623047" xlink:href="#DejaVuSans-2e"/>
       <use x="95.410156" xlink:href="#DejaVuSans-38"/>
      </g>
     </g>
    </g>
    <g id="xtick_6">
     <g id="line2d_6">
      <g>
       <use style="stroke:#000000;stroke-width:0.8;" x="935.372063" xlink:href="#m5df27a9ea7" y="512.64"/>
      </g>
     </g>
     <g id="text_6">
      <!-- 1.0 -->
      <defs>
       <path d="M 12.40625 8.296875 
L 28.515625 8.296875 
L 28.515625 63.921875 
L 10.984375 60.40625 
L 10.984375 69.390625 
L 28.421875 72.90625 
L 38.28125 72.90625 
L 38.28125 8.296875 
L 54.390625 8.296875 
L 54.390625 0 
L 12.40625 0 
z
" id="DejaVuSans-31"/>
      </defs>
      <g transform="translate(927.4205 527.238438)scale(0.1 -0.1)">
       <use xlink:href="#DejaVuSans-31"/>
       <use x="63.623047" xlink:href="#DejaVuSans-2e"/>
       <use x="95.410156" xlink:href="#DejaVuSans-30"/>
      </g>
     </g>
    </g>
    <g id="xtick_7">
     <g id="line2d_7">
      <g>
       <use style="stroke:#000000;stroke-width:0.8;" x="1076.301021" xlink:href="#m5df27a9ea7" y="512.64"/>
      </g>
     </g>
     <g id="text_7">
      <!-- 1.2 -->
      <g transform="translate(1068.349458 527.238438)scale(0.1 -0.1)">
       <use xlink:href="#DejaVuSans-31"/>
       <use x="63.623047" xlink:href="#DejaVuSans-2e"/>
       <use x="95.410156" xlink:href="#DejaVuSans-32"/>
      </g>
     </g>
    </g>
    <g id="xtick_8">
     <g id="line2d_8">
      <g>
       <use style="stroke:#000000;stroke-width:0.8;" x="1217.229979" xlink:href="#m5df27a9ea7" y="512.64"/>
      </g>
     </g>
     <g id="text_8">
      <!-- 1.4 -->
      <g transform="translate(1209.278416 527.238438)scale(0.1 -0.1)">
       <use xlink:href="#DejaVuSans-31"/>
       <use x="63.623047" xlink:href="#DejaVuSans-2e"/>
       <use x="95.410156" xlink:href="#DejaVuSans-34"/>
      </g>
     </g>
    </g>
   </g>
   <g id="matplotlib.axis_2">
    <g id="ytick_1">
     <g id="line2d_9">
      <defs>
       <path d="M 0 0 
L -3.5 0 
" id="mebd7ce242a" style="stroke:#000000;stroke-width:0.8;"/>
      </defs>
      <g>
       <use style="stroke:#000000;stroke-width:0.8;" x="180" xlink:href="#mebd7ce242a" y="509.956161"/>
      </g>
     </g>
     <g id="text_9">
      <!-- 0.30035 -->
      <defs>
       <path d="M 40.578125 39.3125 
Q 47.65625 37.796875 51.625 33 
Q 55.609375 28.21875 55.609375 21.1875 
Q 55.609375 10.40625 48.1875 4.484375 
Q 40.765625 -1.421875 27.09375 -1.421875 
Q 22.515625 -1.421875 17.65625 -0.515625 
Q 12.796875 0.390625 7.625 2.203125 
L 7.625 11.71875 
Q 11.71875 9.328125 16.59375 8.109375 
Q 21.484375 6.890625 26.8125 6.890625 
Q 36.078125 6.890625 40.9375 10.546875 
Q 45.796875 14.203125 45.796875 21.1875 
Q 45.796875 27.640625 41.28125 31.265625 
Q 36.765625 34.90625 28.71875 34.90625 
L 20.21875 34.90625 
L 20.21875 43.015625 
L 29.109375 43.015625 
Q 36.375 43.015625 40.234375 45.921875 
Q 44.09375 48.828125 44.09375 54.296875 
Q 44.09375 59.90625 40.109375 62.90625 
Q 36.140625 65.921875 28.71875 65.921875 
Q 24.65625 65.921875 20.015625 65.03125 
Q 15.375 64.15625 9.8125 62.3125 
L 9.8125 71.09375 
Q 15.4375 72.65625 20.34375 73.4375 
Q 25.25 74.21875 29.59375 74.21875 
Q 40.828125 74.21875 47.359375 69.109375 
Q 53.90625 64.015625 53.90625 55.328125 
Q 53.90625 49.265625 50.4375 45.09375 
Q 46.96875 40.921875 40.578125 39.3125 
z
" id="DejaVuSans-33"/>
       <path d="M 10.796875 72.90625 
L 49.515625 72.90625 
L 49.515625 64.59375 
L 19.828125 64.59375 
L 19.828125 46.734375 
Q 21.96875 47.46875 24.109375 47.828125 
Q 26.265625 48.1875 28.421875 48.1875 
Q 40.625 48.1875 47.75 41.5 
Q 54.890625 34.8125 54.890625 23.390625 
Q 54.890625 11.625 47.5625 5.09375 
Q 40.234375 -1.421875 26.90625 -1.421875 
Q 22.3125 -1.421875 17.546875 -0.640625 
Q 12.796875 0.140625 7.71875 1.703125 
L 7.71875 11.625 
Q 12.109375 9.234375 16.796875 8.0625 
Q 21.484375 6.890625 26.703125 6.890625 
Q 35.15625 6.890625 40.078125 11.328125 
Q 45.015625 15.765625 45.015625 23.390625 
Q 45.015625 31 40.078125 35.4375 
Q 35.15625 39.890625 26.703125 39.890625 
Q 22.75 39.890625 18.8125 39.015625 
Q 14.890625 38.140625 10.796875 36.28125 
z
" id="DejaVuSans-35"/>
      </defs>
      <g transform="translate(131.646875 513.75538)scale(0.1 -0.1)">
       <use xlink:href="#DejaVuSans-30"/>
       <use x="63.623047" xlink:href="#DejaVuSans-2e"/>
       <use x="95.410156" xlink:href="#DejaVuSans-33"/>
       <use x="159.033203" xlink:href="#DejaVuSans-30"/>
       <use x="222.65625" xlink:href="#DejaVuSans-30"/>
       <use x="286.279297" xlink:href="#DejaVuSans-33"/>
       <use x="349.902344" xlink:href="#DejaVuSans-35"/>
      </g>
     </g>
    </g>
    <g id="ytick_2">
     <g id="line2d_10">
      <g>
       <use style="stroke:#000000;stroke-width:0.8;" x="180" xlink:href="#mebd7ce242a" y="447.5413"/>
      </g>
     </g>
     <g id="text_10">
      <!-- 0.30040 -->
      <g transform="translate(131.646875 451.340519)scale(0.1 -0.1)">
       <use xlink:href="#DejaVuSans-30"/>
       <use x="63.623047" xlink:href="#DejaVuSans-2e"/>
       <use x="95.410156" xlink:href="#DejaVuSans-33"/>
       <use x="159.033203" xlink:href="#DejaVuSans-30"/>
       <use x="222.65625" xlink:href="#DejaVuSans-30"/>
       <use x="286.279297" xlink:href="#DejaVuSans-34"/>
       <use x="349.902344" xlink:href="#DejaVuSans-30"/>
      </g>
     </g>
    </g>
    <g id="ytick_3">
     <g id="line2d_11">
      <g>
       <use style="stroke:#000000;stroke-width:0.8;" x="180" xlink:href="#mebd7ce242a" y="385.12644"/>
      </g>
     </g>
     <g id="text_11">
      <!-- 0.30045 -->
      <g transform="translate(131.646875 388.925658)scale(0.1 -0.1)">
       <use xlink:href="#DejaVuSans-30"/>
       <use x="63.623047" xlink:href="#DejaVuSans-2e"/>
       <use x="95.410156" xlink:href="#DejaVuSans-33"/>
       <use x="159.033203" xlink:href="#DejaVuSans-30"/>
       <use x="222.65625" xlink:href="#DejaVuSans-30"/>
       <use x="286.279297" xlink:href="#DejaVuSans-34"/>
       <use x="349.902344" xlink:href="#DejaVuSans-35"/>
      </g>
     </g>
    </g>
    <g id="ytick_4">
     <g id="line2d_12">
      <g>
       <use style="stroke:#000000;stroke-width:0.8;" x="180" xlink:href="#mebd7ce242a" y="322.711579"/>
      </g>
     </g>
     <g id="text_12">
      <!-- 0.30050 -->
      <g transform="translate(131.646875 326.510798)scale(0.1 -0.1)">
       <use xlink:href="#DejaVuSans-30"/>
       <use x="63.623047" xlink:href="#DejaVuSans-2e"/>
       <use x="95.410156" xlink:href="#DejaVuSans-33"/>
       <use x="159.033203" xlink:href="#DejaVuSans-30"/>
       <use x="222.65625" xlink:href="#DejaVuSans-30"/>
       <use x="286.279297" xlink:href="#DejaVuSans-35"/>
       <use x="349.902344" xlink:href="#DejaVuSans-30"/>
      </g>
     </g>
    </g>
    <g id="ytick_5">
     <g id="line2d_13">
      <g>
       <use style="stroke:#000000;stroke-width:0.8;" x="180" xlink:href="#mebd7ce242a" y="260.296718"/>
      </g>
     </g>
     <g id="text_13">
      <!-- 0.30055 -->
      <g transform="translate(131.646875 264.095937)scale(0.1 -0.1)">
       <use xlink:href="#DejaVuSans-30"/>
       <use x="63.623047" xlink:href="#DejaVuSans-2e"/>
       <use x="95.410156" xlink:href="#DejaVuSans-33"/>
       <use x="159.033203" xlink:href="#DejaVuSans-30"/>
       <use x="222.65625" xlink:href="#DejaVuSans-30"/>
       <use x="286.279297" xlink:href="#DejaVuSans-35"/>
       <use x="349.902344" xlink:href="#DejaVuSans-35"/>
      </g>
     </g>
    </g>
    <g id="ytick_6">
     <g id="line2d_14">
      <g>
       <use style="stroke:#000000;stroke-width:0.8;" x="180" xlink:href="#mebd7ce242a" y="197.881858"/>
      </g>
     </g>
     <g id="text_14">
      <!-- 0.30060 -->
      <g transform="translate(131.646875 201.681076)scale(0.1 -0.1)">
       <use xlink:href="#DejaVuSans-30"/>
       <use x="63.623047" xlink:href="#DejaVuSans-2e"/>
       <use x="95.410156" xlink:href="#DejaVuSans-33"/>
       <use x="159.033203" xlink:href="#DejaVuSans-30"/>
       <use x="222.65625" xlink:href="#DejaVuSans-30"/>
       <use x="286.279297" xlink:href="#DejaVuSans-36"/>
       <use x="349.902344" xlink:href="#DejaVuSans-30"/>
      </g>
     </g>
    </g>
    <g id="ytick_7">
     <g id="line2d_15">
      <g>
       <use style="stroke:#000000;stroke-width:0.8;" x="180" xlink:href="#mebd7ce242a" y="135.466997"/>
      </g>
     </g>
     <g id="text_15">
      <!-- 0.30065 -->
      <g transform="translate(131.646875 139.266216)scale(0.1 -0.1)">
       <use xlink:href="#DejaVuSans-30"/>
       <use x="63.623047" xlink:href="#DejaVuSans-2e"/>
       <use x="95.410156" xlink:href="#DejaVuSans-33"/>
       <use x="159.033203" xlink:href="#DejaVuSans-30"/>
       <use x="222.65625" xlink:href="#DejaVuSans-30"/>
       <use x="286.279297" xlink:href="#DejaVuSans-36"/>
       <use x="349.902344" xlink:href="#DejaVuSans-35"/>
      </g>
     </g>
    </g>
    <g id="ytick_8">
     <g id="line2d_16">
      <g>
       <use style="stroke:#000000;stroke-width:0.8;" x="180" xlink:href="#mebd7ce242a" y="73.052136"/>
      </g>
     </g>
     <g id="text_16">
      <!-- 0.30070 -->
      <defs>
       <path d="M 8.203125 72.90625 
L 55.078125 72.90625 
L 55.078125 68.703125 
L 28.609375 0 
L 18.3125 0 
L 43.21875 64.59375 
L 8.203125 64.59375 
z
" id="DejaVuSans-37"/>
      </defs>
      <g transform="translate(131.646875 76.851355)scale(0.1 -0.1)">
       <use xlink:href="#DejaVuSans-30"/>
       <use x="63.623047" xlink:href="#DejaVuSans-2e"/>
       <use x="95.410156" xlink:href="#DejaVuSans-33"/>
       <use x="159.033203" xlink:href="#DejaVuSans-30"/>
       <use x="222.65625" xlink:href="#DejaVuSans-30"/>
       <use x="286.279297" xlink:href="#DejaVuSans-37"/>
       <use x="349.902344" xlink:href="#DejaVuSans-30"/>
      </g>
     </g>
    </g>
   </g>
   <g id="line2d_17">
    <path clip-path="url(#p0bd9676a75)" d="M 230.727273 391.367926 
L 240.132871 372.643467 
L 250.314284 455.031084 
L 259.531742 430.065139 
L 268.828121 401.354303 
L 278.759385 378.884954 
L 287.949362 456.279381 
L 297.13934 456.279381 
L 307.262971 405.099195 
L 316.499455 458.775975 
L 325.702821 468.762353 
L 335.763034 250.310341 
L 344.912847 447.5413 
L 354.039406 486.238514 
L 364.084822 457.527678 
L 373.188833 432.561734 
L 382.291435 479.997028 
L 392.525695 377.636656 
L 401.634639 462.520867 
L 410.729489 450.037895 
L 420.991231 473.755542 
L 430.09947 481.245325 
L 439.204185 468.762353 
L 449.480725 475.003839 
L 458.60517 438.80322 
L 467.734548 461.27257 
L 478.011792 478.748731 
L 487.13201 443.796409 
L 496.285345 471.258947 
L 506.465349 275.276285 
L 515.615161 456.279381 
L 524.73256 463.769164 
L 534.94991 421.327059 
L 544.09338 461.27257 
L 553.220644 475.003839 
L 563.478863 441.299814 
L 572.682934 457.527678 
L 581.816539 478.748731 
L 592.013454 272.77969 
L 601.194271 471.258947 
L 610.391295 473.755542 
L 620.603007 398.857709 
L 630.123463 423.823653 
L 639.274685 458.775975 
L 649.480055 271.531393 
L 658.598863 436.306625 
L 667.785318 438.80322 
L 677.955456 465.017461 
L 687.092585 433.810031 
L 696.240988 447.5413 
L 706.456928 310.228607 
L 715.613083 406.347492 
L 724.745279 451.286192 
L 734.871025 385.12644 
L 744.018723 432.561734 
L 753.136827 455.031084 
L 763.072319 443.796409 
L 772.460301 448.789598 
L 781.610818 451.286192 
L 791.459639 443.796409 
L 800.84903 435.058328 
L 809.974885 473.755542 
L 820.170391 295.24904 
L 829.435765 426.320248 
L 838.571485 466.265759 
L 848.884666 271.531393 
L 858.006293 442.548111 
L 867.134261 445.044706 
L 877.41221 492.48 
L 886.580343 443.796409 
L 895.759751 447.5413 
L 905.921434 397.609412 
L 915.095909 416.33387 
L 924.281658 375.140062 
L 934.440522 307.732012 
L 943.623453 420.078762 
L 952.970566 348.92582 
L 962.909581 385.12644 
L 972.098149 436.306625 
L 981.398756 435.058328 
L 991.29831 295.24904 
L 1000.48265 433.810031 
L 1009.661354 431.313437 
L 1019.78569 398.857709 
L 1028.992579 452.534489 
L 1038.202991 378.884954 
L 1048.198377 477.500433 
L 1057.38765 428.816842 
L 1066.607927 455.031084 
L 1148.353064 448.789598 
L 1157.669173 382.629845 
L 1168.968857 89.28 
L 1178.241982 418.830464 
L 1187.456622 427.568545 
L 1197.736685 436.306625 
L 1206.966123 413.837276 
L 1216.468962 420.078762 
L 1226.205744 451.286192 
L 1235.461253 406.347492 
L 1245.272727 436.306625 
" style="fill:none;stroke:#ff0000;stroke-dasharray:5.55,2.4;stroke-dashoffset:0;stroke-width:1.5;"/>
    <defs>
     <path d="M -3 3 
L 3 3 
L 3 -3 
L -3 -3 
z
" id="m294319a886" style="stroke:#ff0000;stroke-linejoin:miter;"/>
    </defs>
    <g clip-path="url(#p0bd9676a75)">
     <use style="fill:#ff0000;stroke:#ff0000;stroke-linejoin:miter;" x="230.727273" xlink:href="#m294319a886" y="391.367926"/>
     <use style="fill:#ff0000;stroke:#ff0000;stroke-linejoin:miter;" x="240.132871" xlink:href="#m294319a886" y="372.643467"/>
     <use style="fill:#ff0000;stroke:#ff0000;stroke-linejoin:miter;" x="250.314284" xlink:href="#m294319a886" y="455.031084"/>
     <use style="fill:#ff0000;stroke:#ff0000;stroke-linejoin:miter;" x="259.531742" xlink:href="#m294319a886" y="430.065139"/>
     <use style="fill:#ff0000;stroke:#ff0000;stroke-linejoin:miter;" x="268.828121" xlink:href="#m294319a886" y="401.354303"/>
     <use style="fill:#ff0000;stroke:#ff0000;stroke-linejoin:miter;" x="278.759385" xlink:href="#m294319a886" y="378.884954"/>
     <use style="fill:#ff0000;stroke:#ff0000;stroke-linejoin:miter;" x="287.949362" xlink:href="#m294319a886" y="456.279381"/>
     <use style="fill:#ff0000;stroke:#ff0000;stroke-linejoin:miter;" x="297.13934" xlink:href="#m294319a886" y="456.279381"/>
     <use style="fill:#ff0000;stroke:#ff0000;stroke-linejoin:miter;" x="307.262971" xlink:href="#m294319a886" y="405.099195"/>
     <use style="fill:#ff0000;stroke:#ff0000;stroke-linejoin:miter;" x="316.499455" xlink:href="#m294319a886" y="458.775975"/>
     <use style="fill:#ff0000;stroke:#ff0000;stroke-linejoin:miter;" x="325.702821" xlink:href="#m294319a886" y="468.762353"/>
     <use style="fill:#ff0000;stroke:#ff0000;stroke-linejoin:miter;" x="335.763034" xlink:href="#m294319a886" y="250.310341"/>
     <use style="fill:#ff0000;stroke:#ff0000;stroke-linejoin:miter;" x="344.912847" xlink:href="#m294319a886" y="447.5413"/>
     <use style="fill:#ff0000;stroke:#ff0000;stroke-linejoin:miter;" x="354.039406" xlink:href="#m294319a886" y="486.238514"/>
     <use style="fill:#ff0000;stroke:#ff0000;stroke-linejoin:miter;" x="364.084822" xlink:href="#m294319a886" y="457.527678"/>
     <use style="fill:#ff0000;stroke:#ff0000;stroke-linejoin:miter;" x="373.188833" xlink:href="#m294319a886" y="432.561734"/>
     <use style="fill:#ff0000;stroke:#ff0000;stroke-linejoin:miter;" x="382.291435" xlink:href="#m294319a886" y="479.997028"/>
     <use style="fill:#ff0000;stroke:#ff0000;stroke-linejoin:miter;" x="392.525695" xlink:href="#m294319a886" y="377.636656"/>
     <use style="fill:#ff0000;stroke:#ff0000;stroke-linejoin:miter;" x="401.634639" xlink:href="#m294319a886" y="462.520867"/>
     <use style="fill:#ff0000;stroke:#ff0000;stroke-linejoin:miter;" x="410.729489" xlink:href="#m294319a886" y="450.037895"/>
     <use style="fill:#ff0000;stroke:#ff0000;stroke-linejoin:miter;" x="420.991231" xlink:href="#m294319a886" y="473.755542"/>
     <use style="fill:#ff0000;stroke:#ff0000;stroke-linejoin:miter;" x="430.09947" xlink:href="#m294319a886" y="481.245325"/>
     <use style="fill:#ff0000;stroke:#ff0000;stroke-linejoin:miter;" x="439.204185" xlink:href="#m294319a886" y="468.762353"/>
     <use style="fill:#ff0000;stroke:#ff0000;stroke-linejoin:miter;" x="449.480725" xlink:href="#m294319a886" y="475.003839"/>
     <use style="fill:#ff0000;stroke:#ff0000;stroke-linejoin:miter;" x="458.60517" xlink:href="#m294319a886" y="438.80322"/>
     <use style="fill:#ff0000;stroke:#ff0000;stroke-linejoin:miter;" x="467.734548" xlink:href="#m294319a886" y="461.27257"/>
     <use style="fill:#ff0000;stroke:#ff0000;stroke-linejoin:miter;" x="478.011792" xlink:href="#m294319a886" y="478.748731"/>
     <use style="fill:#ff0000;stroke:#ff0000;stroke-linejoin:miter;" x="487.13201" xlink:href="#m294319a886" y="443.796409"/>
     <use style="fill:#ff0000;stroke:#ff0000;stroke-linejoin:miter;" x="496.285345" xlink:href="#m294319a886" y="471.258947"/>
     <use style="fill:#ff0000;stroke:#ff0000;stroke-linejoin:miter;" x="506.465349" xlink:href="#m294319a886" y="275.276285"/>
     <use style="fill:#ff0000;stroke:#ff0000;stroke-linejoin:miter;" x="515.615161" xlink:href="#m294319a886" y="456.279381"/>
     <use style="fill:#ff0000;stroke:#ff0000;stroke-linejoin:miter;" x="524.73256" xlink:href="#m294319a886" y="463.769164"/>
     <use style="fill:#ff0000;stroke:#ff0000;stroke-linejoin:miter;" x="534.94991" xlink:href="#m294319a886" y="421.327059"/>
     <use style="fill:#ff0000;stroke:#ff0000;stroke-linejoin:miter;" x="544.09338" xlink:href="#m294319a886" y="461.27257"/>
     <use style="fill:#ff0000;stroke:#ff0000;stroke-linejoin:miter;" x="553.220644" xlink:href="#m294319a886" y="475.003839"/>
     <use style="fill:#ff0000;stroke:#ff0000;stroke-linejoin:miter;" x="563.478863" xlink:href="#m294319a886" y="441.299814"/>
     <use style="fill:#ff0000;stroke:#ff0000;stroke-linejoin:miter;" x="572.682934" xlink:href="#m294319a886" y="457.527678"/>
     <use style="fill:#ff0000;stroke:#ff0000;stroke-linejoin:miter;" x="581.816539" xlink:href="#m294319a886" y="478.748731"/>
     <use style="fill:#ff0000;stroke:#ff0000;stroke-linejoin:miter;" x="592.013454" xlink:href="#m294319a886" y="272.77969"/>
     <use style="fill:#ff0000;stroke:#ff0000;stroke-linejoin:miter;" x="601.194271" xlink:href="#m294319a886" y="471.258947"/>
     <use style="fill:#ff0000;stroke:#ff0000;stroke-linejoin:miter;" x="610.391295" xlink:href="#m294319a886" y="473.755542"/>
     <use style="fill:#ff0000;stroke:#ff0000;stroke-linejoin:miter;" x="620.603007" xlink:href="#m294319a886" y="398.857709"/>
     <use style="fill:#ff0000;stroke:#ff0000;stroke-linejoin:miter;" x="630.123463" xlink:href="#m294319a886" y="423.823653"/>
     <use style="fill:#ff0000;stroke:#ff0000;stroke-linejoin:miter;" x="639.274685" xlink:href="#m294319a886" y="458.775975"/>
     <use style="fill:#ff0000;stroke:#ff0000;stroke-linejoin:miter;" x="649.480055" xlink:href="#m294319a886" y="271.531393"/>
     <use style="fill:#ff0000;stroke:#ff0000;stroke-linejoin:miter;" x="658.598863" xlink:href="#m294319a886" y="436.306625"/>
     <use style="fill:#ff0000;stroke:#ff0000;stroke-linejoin:miter;" x="667.785318" xlink:href="#m294319a886" y="438.80322"/>
     <use style="fill:#ff0000;stroke:#ff0000;stroke-linejoin:miter;" x="677.955456" xlink:href="#m294319a886" y="465.017461"/>
     <use style="fill:#ff0000;stroke:#ff0000;stroke-linejoin:miter;" x="687.092585" xlink:href="#m294319a886" y="433.810031"/>
     <use style="fill:#ff0000;stroke:#ff0000;stroke-linejoin:miter;" x="696.240988" xlink:href="#m294319a886" y="447.5413"/>
     <use style="fill:#ff0000;stroke:#ff0000;stroke-linejoin:miter;" x="706.456928" xlink:href="#m294319a886" y="310.228607"/>
     <use style="fill:#ff0000;stroke:#ff0000;stroke-linejoin:miter;" x="715.613083" xlink:href="#m294319a886" y="406.347492"/>
     <use style="fill:#ff0000;stroke:#ff0000;stroke-linejoin:miter;" x="724.745279" xlink:href="#m294319a886" y="451.286192"/>
     <use style="fill:#ff0000;stroke:#ff0000;stroke-linejoin:miter;" x="734.871025" xlink:href="#m294319a886" y="385.12644"/>
     <use style="fill:#ff0000;stroke:#ff0000;stroke-linejoin:miter;" x="744.018723" xlink:href="#m294319a886" y="432.561734"/>
     <use style="fill:#ff0000;stroke:#ff0000;stroke-linejoin:miter;" x="753.136827" xlink:href="#m294319a886" y="455.031084"/>
     <use style="fill:#ff0000;stroke:#ff0000;stroke-linejoin:miter;" x="763.072319" xlink:href="#m294319a886" y="443.796409"/>
     <use style="fill:#ff0000;stroke:#ff0000;stroke-linejoin:miter;" x="772.460301" xlink:href="#m294319a886" y="448.789598"/>
     <use style="fill:#ff0000;stroke:#ff0000;stroke-linejoin:miter;" x="781.610818" xlink:href="#m294319a886" y="451.286192"/>
     <use style="fill:#ff0000;stroke:#ff0000;stroke-linejoin:miter;" x="791.459639" xlink:href="#m294319a886" y="443.796409"/>
     <use style="fill:#ff0000;stroke:#ff0000;stroke-linejoin:miter;" x="800.84903" xlink:href="#m294319a886" y="435.058328"/>
     <use style="fill:#ff0000;stroke:#ff0000;stroke-linejoin:miter;" x="809.974885" xlink:href="#m294319a886" y="473.755542"/>
     <use style="fill:#ff0000;stroke:#ff0000;stroke-linejoin:miter;" x="820.170391" xlink:href="#m294319a886" y="295.24904"/>
     <use style="fill:#ff0000;stroke:#ff0000;stroke-linejoin:miter;" x="829.435765" xlink:href="#m294319a886" y="426.320248"/>
     <use style="fill:#ff0000;stroke:#ff0000;stroke-linejoin:miter;" x="838.571485" xlink:href="#m294319a886" y="466.265759"/>
     <use style="fill:#ff0000;stroke:#ff0000;stroke-linejoin:miter;" x="848.884666" xlink:href="#m294319a886" y="271.531393"/>
     <use style="fill:#ff0000;stroke:#ff0000;stroke-linejoin:miter;" x="858.006293" xlink:href="#m294319a886" y="442.548111"/>
     <use style="fill:#ff0000;stroke:#ff0000;stroke-linejoin:miter;" x="867.134261" xlink:href="#m294319a886" y="445.044706"/>
     <use style="fill:#ff0000;stroke:#ff0000;stroke-linejoin:miter;" x="877.41221" xlink:href="#m294319a886" y="492.48"/>
     <use style="fill:#ff0000;stroke:#ff0000;stroke-linejoin:miter;" x="886.580343" xlink:href="#m294319a886" y="443.796409"/>
     <use style="fill:#ff0000;stroke:#ff0000;stroke-linejoin:miter;" x="895.759751" xlink:href="#m294319a886" y="447.5413"/>
     <use style="fill:#ff0000;stroke:#ff0000;stroke-linejoin:miter;" x="905.921434" xlink:href="#m294319a886" y="397.609412"/>
     <use style="fill:#ff0000;stroke:#ff0000;stroke-linejoin:miter;" x="915.095909" xlink:href="#m294319a886" y="416.33387"/>
     <use style="fill:#ff0000;stroke:#ff0000;stroke-linejoin:miter;" x="924.281658" xlink:href="#m294319a886" y="375.140062"/>
     <use style="fill:#ff0000;stroke:#ff0000;stroke-linejoin:miter;" x="934.440522" xlink:href="#m294319a886" y="307.732012"/>
     <use style="fill:#ff0000;stroke:#ff0000;stroke-linejoin:miter;" x="943.623453" xlink:href="#m294319a886" y="420.078762"/>
     <use style="fill:#ff0000;stroke:#ff0000;stroke-linejoin:miter;" x="952.970566" xlink:href="#m294319a886" y="348.92582"/>
     <use style="fill:#ff0000;stroke:#ff0000;stroke-linejoin:miter;" x="962.909581" xlink:href="#m294319a886" y="385.12644"/>
     <use style="fill:#ff0000;stroke:#ff0000;stroke-linejoin:miter;" x="972.098149" xlink:href="#m294319a886" y="436.306625"/>
     <use style="fill:#ff0000;stroke:#ff0000;stroke-linejoin:miter;" x="981.398756" xlink:href="#m294319a886" y="435.058328"/>
     <use style="fill:#ff0000;stroke:#ff0000;stroke-linejoin:miter;" x="991.29831" xlink:href="#m294319a886" y="295.24904"/>
     <use style="fill:#ff0000;stroke:#ff0000;stroke-linejoin:miter;" x="1000.48265" xlink:href="#m294319a886" y="433.810031"/>
     <use style="fill:#ff0000;stroke:#ff0000;stroke-linejoin:miter;" x="1009.661354" xlink:href="#m294319a886" y="431.313437"/>
     <use style="fill:#ff0000;stroke:#ff0000;stroke-linejoin:miter;" x="1019.78569" xlink:href="#m294319a886" y="398.857709"/>
     <use style="fill:#ff0000;stroke:#ff0000;stroke-linejoin:miter;" x="1028.992579" xlink:href="#m294319a886" y="452.534489"/>
     <use style="fill:#ff0000;stroke:#ff0000;stroke-linejoin:miter;" x="1038.202991" xlink:href="#m294319a886" y="378.884954"/>
     <use style="fill:#ff0000;stroke:#ff0000;stroke-linejoin:miter;" x="1048.198377" xlink:href="#m294319a886" y="477.500433"/>
     <use style="fill:#ff0000;stroke:#ff0000;stroke-linejoin:miter;" x="1057.38765" xlink:href="#m294319a886" y="428.816842"/>
     <use style="fill:#ff0000;stroke:#ff0000;stroke-linejoin:miter;" x="1066.607927" xlink:href="#m294319a886" y="455.031084"/>
     <use style="fill:#ff0000;stroke:#ff0000;stroke-linejoin:miter;" x="1148.353064" xlink:href="#m294319a886" y="448.789598"/>
     <use style="fill:#ff0000;stroke:#ff0000;stroke-linejoin:miter;" x="1157.669173" xlink:href="#m294319a886" y="382.629845"/>
     <use style="fill:#ff0000;stroke:#ff0000;stroke-linejoin:miter;" x="1168.968857" xlink:href="#m294319a886" y="89.28"/>
     <use style="fill:#ff0000;stroke:#ff0000;stroke-linejoin:miter;" x="1178.241982" xlink:href="#m294319a886" y="418.830464"/>
     <use style="fill:#ff0000;stroke:#ff0000;stroke-linejoin:miter;" x="1187.456622" xlink:href="#m294319a886" y="427.568545"/>
     <use style="fill:#ff0000;stroke:#ff0000;stroke-linejoin:miter;" x="1197.736685" xlink:href="#m294319a886" y="436.306625"/>
     <use style="fill:#ff0000;stroke:#ff0000;stroke-linejoin:miter;" x="1206.966123" xlink:href="#m294319a886" y="413.837276"/>
     <use style="fill:#ff0000;stroke:#ff0000;stroke-linejoin:miter;" x="1216.468962" xlink:href="#m294319a886" y="420.078762"/>
     <use style="fill:#ff0000;stroke:#ff0000;stroke-linejoin:miter;" x="1226.205744" xlink:href="#m294319a886" y="451.286192"/>
     <use style="fill:#ff0000;stroke:#ff0000;stroke-linejoin:miter;" x="1235.461253" xlink:href="#m294319a886" y="406.347492"/>
     <use style="fill:#ff0000;stroke:#ff0000;stroke-linejoin:miter;" x="1245.272727" xlink:href="#m294319a886" y="436.306625"/>
    </g>
   </g>
   <g id="line2d_18">
    <path clip-path="url(#p0bd9676a75)" d="M 230.727273 391.367926 
L 240.132871 372.643467 
L 250.314284 455.031084 
L 259.531742 430.065139 
L 268.828121 401.354303 
L 278.759385 378.884954 
L 287.949362 456.279381 
L 297.13934 456.279381 
L 307.262971 405.099195 
L 316.499455 458.775975 
L 325.702821 468.762353 
L 335.763034 250.310341 
L 344.912847 447.5413 
L 354.039406 486.238514 
L 364.084822 457.527678 
L 373.188833 432.561734 
L 382.291435 479.997028 
L 392.525695 377.636656 
L 401.634639 462.520867 
L 410.729489 450.037895 
L 420.991231 473.755542 
L 430.09947 481.245325 
L 439.204185 468.762353 
L 449.480725 475.003839 
L 458.60517 438.80322 
L 467.734548 461.27257 
L 478.011792 478.748731 
L 487.13201 443.796409 
L 496.285345 471.258947 
L 506.465349 275.276285 
L 515.615161 456.279381 
L 524.73256 463.769164 
L 534.94991 421.327059 
L 544.09338 461.27257 
L 553.220644 475.003839 
L 563.478863 441.299814 
L 572.682934 457.527678 
L 581.816539 478.748731 
L 592.013454 272.77969 
L 601.194271 471.258947 
L 610.391295 473.755542 
L 620.603007 398.857709 
L 630.123463 423.823653 
L 639.274685 458.775975 
L 649.480055 271.531393 
L 658.598863 436.306625 
L 667.785318 438.80322 
L 677.955456 465.017461 
L 687.092585 433.810031 
L 696.240988 447.5413 
L 706.456928 310.228607 
L 715.613083 406.347492 
L 724.745279 451.286192 
L 734.871025 385.12644 
L 744.018723 432.561734 
L 753.136827 455.031084 
L 763.072319 443.796409 
L 772.460301 448.789598 
L 781.610818 451.286192 
L 791.459639 443.796409 
L 800.84903 435.058328 
L 809.974885 473.755542 
L 820.170391 295.24904 
L 829.435765 426.320248 
L 838.571485 466.265759 
L 848.884666 271.531393 
L 858.006293 442.548111 
L 867.134261 445.044706 
L 877.41221 492.48 
L 886.580343 443.796409 
L 895.759751 447.5413 
L 905.921434 397.609412 
L 915.095909 416.33387 
L 924.281658 375.140062 
L 934.440522 307.732012 
L 943.623453 420.078762 
L 952.970566 348.92582 
L 962.909581 385.12644 
L 972.098149 436.306625 
L 981.398756 435.058328 
L 991.29831 295.24904 
L 1000.48265 433.810031 
L 1009.661354 431.313437 
L 1019.78569 398.857709 
L 1028.992579 452.534489 
L 1038.202991 378.884954 
L 1048.198377 477.500433 
L 1057.38765 428.816842 
L 1066.607927 455.031084 
L 1148.353064 448.789598 
L 1157.669173 382.629845 
L 1168.968857 89.28 
L 1178.241982 418.830464 
L 1187.456622 427.568545 
L 1197.736685 436.306625 
L 1206.966123 413.837276 
L 1216.468962 420.078762 
L 1226.205744 451.286192 
L 1235.461253 406.347492 
L 1245.272727 436.306625 
" style="fill:none;stroke:#800080;stroke-dasharray:9.6,2.4,1.5,2.4;stroke-dashoffset:0;stroke-width:1.5;"/>
    <defs>
     <path d="M -3 3 
L 3 -3 
M -3 -3 
L 3 3 
" id="m7293ca06a0" style="stroke:#800080;"/>
    </defs>
    <g clip-path="url(#p0bd9676a75)">
     <use style="fill:#800080;stroke:#800080;" x="230.727273" xlink:href="#m7293ca06a0" y="391.367926"/>
     <use style="fill:#800080;stroke:#800080;" x="240.132871" xlink:href="#m7293ca06a0" y="372.643467"/>
     <use style="fill:#800080;stroke:#800080;" x="250.314284" xlink:href="#m7293ca06a0" y="455.031084"/>
     <use style="fill:#800080;stroke:#800080;" x="259.531742" xlink:href="#m7293ca06a0" y="430.065139"/>
     <use style="fill:#800080;stroke:#800080;" x="268.828121" xlink:href="#m7293ca06a0" y="401.354303"/>
     <use style="fill:#800080;stroke:#800080;" x="278.759385" xlink:href="#m7293ca06a0" y="378.884954"/>
     <use style="fill:#800080;stroke:#800080;" x="287.949362" xlink:href="#m7293ca06a0" y="456.279381"/>
     <use style="fill:#800080;stroke:#800080;" x="297.13934" xlink:href="#m7293ca06a0" y="456.279381"/>
     <use style="fill:#800080;stroke:#800080;" x="307.262971" xlink:href="#m7293ca06a0" y="405.099195"/>
     <use style="fill:#800080;stroke:#800080;" x="316.499455" xlink:href="#m7293ca06a0" y="458.775975"/>
     <use style="fill:#800080;stroke:#800080;" x="325.702821" xlink:href="#m7293ca06a0" y="468.762353"/>
     <use style="fill:#800080;stroke:#800080;" x="335.763034" xlink:href="#m7293ca06a0" y="250.310341"/>
     <use style="fill:#800080;stroke:#800080;" x="344.912847" xlink:href="#m7293ca06a0" y="447.5413"/>
     <use style="fill:#800080;stroke:#800080;" x="354.039406" xlink:href="#m7293ca06a0" y="486.238514"/>
     <use style="fill:#800080;stroke:#800080;" x="364.084822" xlink:href="#m7293ca06a0" y="457.527678"/>
     <use style="fill:#800080;stroke:#800080;" x="373.188833" xlink:href="#m7293ca06a0" y="432.561734"/>
     <use style="fill:#800080;stroke:#800080;" x="382.291435" xlink:href="#m7293ca06a0" y="479.997028"/>
     <use style="fill:#800080;stroke:#800080;" x="392.525695" xlink:href="#m7293ca06a0" y="377.636656"/>
     <use style="fill:#800080;stroke:#800080;" x="401.634639" xlink:href="#m7293ca06a0" y="462.520867"/>
     <use style="fill:#800080;stroke:#800080;" x="410.729489" xlink:href="#m7293ca06a0" y="450.037895"/>
     <use style="fill:#800080;stroke:#800080;" x="420.991231" xlink:href="#m7293ca06a0" y="473.755542"/>
     <use style="fill:#800080;stroke:#800080;" x="430.09947" xlink:href="#m7293ca06a0" y="481.245325"/>
     <use style="fill:#800080;stroke:#800080;" x="439.204185" xlink:href="#m7293ca06a0" y="468.762353"/>
     <use style="fill:#800080;stroke:#800080;" x="449.480725" xlink:href="#m7293ca06a0" y="475.003839"/>
     <use style="fill:#800080;stroke:#800080;" x="458.60517" xlink:href="#m7293ca06a0" y="438.80322"/>
     <use style="fill:#800080;stroke:#800080;" x="467.734548" xlink:href="#m7293ca06a0" y="461.27257"/>
     <use style="fill:#800080;stroke:#800080;" x="478.011792" xlink:href="#m7293ca06a0" y="478.748731"/>
     <use style="fill:#800080;stroke:#800080;" x="487.13201" xlink:href="#m7293ca06a0" y="443.796409"/>
     <use style="fill:#800080;stroke:#800080;" x="496.285345" xlink:href="#m7293ca06a0" y="471.258947"/>
     <use style="fill:#800080;stroke:#800080;" x="506.465349" xlink:href="#m7293ca06a0" y="275.276285"/>
     <use style="fill:#800080;stroke:#800080;" x="515.615161" xlink:href="#m7293ca06a0" y="456.279381"/>
     <use style="fill:#800080;stroke:#800080;" x="524.73256" xlink:href="#m7293ca06a0" y="463.769164"/>
     <use style="fill:#800080;stroke:#800080;" x="534.94991" xlink:href="#m7293ca06a0" y="421.327059"/>
     <use style="fill:#800080;stroke:#800080;" x="544.09338" xlink:href="#m7293ca06a0" y="461.27257"/>
     <use style="fill:#800080;stroke:#800080;" x="553.220644" xlink:href="#m7293ca06a0" y="475.003839"/>
     <use style="fill:#800080;stroke:#800080;" x="563.478863" xlink:href="#m7293ca06a0" y="441.299814"/>
     <use style="fill:#800080;stroke:#800080;" x="572.682934" xlink:href="#m7293ca06a0" y="457.527678"/>
     <use style="fill:#800080;stroke:#800080;" x="581.816539" xlink:href="#m7293ca06a0" y="478.748731"/>
     <use style="fill:#800080;stroke:#800080;" x="592.013454" xlink:href="#m7293ca06a0" y="272.77969"/>
     <use style="fill:#800080;stroke:#800080;" x="601.194271" xlink:href="#m7293ca06a0" y="471.258947"/>
     <use style="fill:#800080;stroke:#800080;" x="610.391295" xlink:href="#m7293ca06a0" y="473.755542"/>
     <use style="fill:#800080;stroke:#800080;" x="620.603007" xlink:href="#m7293ca06a0" y="398.857709"/>
     <use style="fill:#800080;stroke:#800080;" x="630.123463" xlink:href="#m7293ca06a0" y="423.823653"/>
     <use style="fill:#800080;stroke:#800080;" x="639.274685" xlink:href="#m7293ca06a0" y="458.775975"/>
     <use style="fill:#800080;stroke:#800080;" x="649.480055" xlink:href="#m7293ca06a0" y="271.531393"/>
     <use style="fill:#800080;stroke:#800080;" x="658.598863" xlink:href="#m7293ca06a0" y="436.306625"/>
     <use style="fill:#800080;stroke:#800080;" x="667.785318" xlink:href="#m7293ca06a0" y="438.80322"/>
     <use style="fill:#800080;stroke:#800080;" x="677.955456" xlink:href="#m7293ca06a0" y="465.017461"/>
     <use style="fill:#800080;stroke:#800080;" x="687.092585" xlink:href="#m7293ca06a0" y="433.810031"/>
     <use style="fill:#800080;stroke:#800080;" x="696.240988" xlink:href="#m7293ca06a0" y="447.5413"/>
     <use style="fill:#800080;stroke:#800080;" x="706.456928" xlink:href="#m7293ca06a0" y="310.228607"/>
     <use style="fill:#800080;stroke:#800080;" x="715.613083" xlink:href="#m7293ca06a0" y="406.347492"/>
     <use style="fill:#800080;stroke:#800080;" x="724.745279" xlink:href="#m7293ca06a0" y="451.286192"/>
     <use style="fill:#800080;stroke:#800080;" x="734.871025" xlink:href="#m7293ca06a0" y="385.12644"/>
     <use style="fill:#800080;stroke:#800080;" x="744.018723" xlink:href="#m7293ca06a0" y="432.561734"/>
     <use style="fill:#800080;stroke:#800080;" x="753.136827" xlink:href="#m7293ca06a0" y="455.031084"/>
     <use style="fill:#800080;stroke:#800080;" x="763.072319" xlink:href="#m7293ca06a0" y="443.796409"/>
     <use style="fill:#800080;stroke:#800080;" x="772.460301" xlink:href="#m7293ca06a0" y="448.789598"/>
     <use style="fill:#800080;stroke:#800080;" x="781.610818" xlink:href="#m7293ca06a0" y="451.286192"/>
     <use style="fill:#800080;stroke:#800080;" x="791.459639" xlink:href="#m7293ca06a0" y="443.796409"/>
     <use style="fill:#800080;stroke:#800080;" x="800.84903" xlink:href="#m7293ca06a0" y="435.058328"/>
     <use style="fill:#800080;stroke:#800080;" x="809.974885" xlink:href="#m7293ca06a0" y="473.755542"/>
     <use style="fill:#800080;stroke:#800080;" x="820.170391" xlink:href="#m7293ca06a0" y="295.24904"/>
     <use style="fill:#800080;stroke:#800080;" x="829.435765" xlink:href="#m7293ca06a0" y="426.320248"/>
     <use style="fill:#800080;stroke:#800080;" x="838.571485" xlink:href="#m7293ca06a0" y="466.265759"/>
     <use style="fill:#800080;stroke:#800080;" x="848.884666" xlink:href="#m7293ca06a0" y="271.531393"/>
     <use style="fill:#800080;stroke:#800080;" x="858.006293" xlink:href="#m7293ca06a0" y="442.548111"/>
     <use style="fill:#800080;stroke:#800080;" x="867.134261" xlink:href="#m7293ca06a0" y="445.044706"/>
     <use style="fill:#800080;stroke:#800080;" x="877.41221" xlink:href="#m7293ca06a0" y="492.48"/>
     <use style="fill:#800080;stroke:#800080;" x="886.580343" xlink:href="#m7293ca06a0" y="443.796409"/>
     <use style="fill:#800080;stroke:#800080;" x="895.759751" xlink:href="#m7293ca06a0" y="447.5413"/>
     <use style="fill:#800080;stroke:#800080;" x="905.921434" xlink:href="#m7293ca06a0" y="397.609412"/>
     <use style="fill:#800080;stroke:#800080;" x="915.095909" xlink:href="#m7293ca06a0" y="416.33387"/>
     <use style="fill:#800080;stroke:#800080;" x="924.281658" xlink:href="#m7293ca06a0" y="375.140062"/>
     <use style="fill:#800080;stroke:#800080;" x="934.440522" xlink:href="#m7293ca06a0" y="307.732012"/>
     <use style="fill:#800080;stroke:#800080;" x="943.623453" xlink:href="#m7293ca06a0" y="420.078762"/>
     <use style="fill:#800080;stroke:#800080;" x="952.970566" xlink:href="#m7293ca06a0" y="348.92582"/>
     <use style="fill:#800080;stroke:#800080;" x="962.909581" xlink:href="#m7293ca06a0" y="385.12644"/>
     <use style="fill:#800080;stroke:#800080;" x="972.098149" xlink:href="#m7293ca06a0" y="436.306625"/>
     <use style="fill:#800080;stroke:#800080;" x="981.398756" xlink:href="#m7293ca06a0" y="435.058328"/>
     <use style="fill:#800080;stroke:#800080;" x="991.29831" xlink:href="#m7293ca06a0" y="295.24904"/>
     <use style="fill:#800080;stroke:#800080;" x="1000.48265" xlink:href="#m7293ca06a0" y="433.810031"/>
     <use style="fill:#800080;stroke:#800080;" x="1009.661354" xlink:href="#m7293ca06a0" y="431.313437"/>
     <use style="fill:#800080;stroke:#800080;" x="1019.78569" xlink:href="#m7293ca06a0" y="398.857709"/>
     <use style="fill:#800080;stroke:#800080;" x="1028.992579" xlink:href="#m7293ca06a0" y="452.534489"/>
     <use style="fill:#800080;stroke:#800080;" x="1038.202991" xlink:href="#m7293ca06a0" y="378.884954"/>
     <use style="fill:#800080;stroke:#800080;" x="1048.198377" xlink:href="#m7293ca06a0" y="477.500433"/>
     <use style="fill:#800080;stroke:#800080;" x="1057.38765" xlink:href="#m7293ca06a0" y="428.816842"/>
     <use style="fill:#800080;stroke:#800080;" x="1066.607927" xlink:href="#m7293ca06a0" y="455.031084"/>
     <use style="fill:#800080;stroke:#800080;" x="1148.353064" xlink:href="#m7293ca06a0" y="448.789598"/>
     <use style="fill:#800080;stroke:#800080;" x="1157.669173" xlink:href="#m7293ca06a0" y="382.629845"/>
     <use style="fill:#800080;stroke:#800080;" x="1168.968857" xlink:href="#m7293ca06a0" y="89.28"/>
     <use style="fill:#800080;stroke:#800080;" x="1178.241982" xlink:href="#m7293ca06a0" y="418.830464"/>
     <use style="fill:#800080;stroke:#800080;" x="1187.456622" xlink:href="#m7293ca06a0" y="427.568545"/>
     <use style="fill:#800080;stroke:#800080;" x="1197.736685" xlink:href="#m7293ca06a0" y="436.306625"/>
     <use style="fill:#800080;stroke:#800080;" x="1206.966123" xlink:href="#m7293ca06a0" y="413.837276"/>
     <use style="fill:#800080;stroke:#800080;" x="1216.468962" xlink:href="#m7293ca06a0" y="420.078762"/>
     <use style="fill:#800080;stroke:#800080;" x="1226.205744" xlink:href="#m7293ca06a0" y="451.286192"/>
     <use style="fill:#800080;stroke:#800080;" x="1235.461253" xlink:href="#m7293ca06a0" y="406.347492"/>
     <use style="fill:#800080;stroke:#800080;" x="1245.272727" xlink:href="#m7293ca06a0" y="436.306625"/>
    </g>
   </g>
   <g id="line2d_19">
    <path clip-path="url(#p0bd9676a75)" d="M 230.727273 439.468417 
L 240.132871 439.106893 
L 250.314284 438.715549 
L 259.531742 438.361256 
L 268.828121 438.00393 
L 278.759385 437.622201 
L 287.949362 437.268965 
L 297.13934 436.915729 
L 307.262971 436.526605 
L 316.499455 436.171582 
L 325.702821 435.817831 
L 335.763034 435.431145 
L 344.912847 435.079453 
L 354.039406 434.728654 
L 364.084822 434.342537 
L 373.188833 433.992605 
L 382.291435 433.642728 
L 392.525695 433.249352 
L 401.634639 432.899231 
L 410.729489 432.549651 
L 420.991231 432.155219 
L 430.09947 431.805125 
L 439.204185 431.455166 
L 449.480725 431.060165 
L 458.60517 430.709448 
L 467.734548 430.358541 
L 478.011792 429.963513 
L 487.13201 429.612958 
L 496.285345 429.26113 
L 506.465349 428.86984 
L 515.615161 428.518148 
L 524.73256 428.167701 
L 534.94991 427.774976 
L 544.09338 427.423527 
L 553.220644 427.072702 
L 563.478863 426.678405 
L 572.682934 426.324627 
L 581.816539 425.973558 
L 592.013454 425.581618 
L 601.194271 425.228734 
L 610.391295 424.875227 
L 620.603007 424.482718 
L 630.123463 424.116779 
L 639.274685 423.765032 
L 649.480055 423.372767 
L 658.598863 423.022267 
L 667.785318 422.669166 
L 677.955456 422.278255 
L 687.092585 421.92705 
L 696.240988 421.575412 
L 706.456928 421.182741 
L 715.613083 420.830804 
L 724.745279 420.479789 
L 734.871025 420.090585 
L 744.018723 419.738973 
L 753.136827 419.3885 
L 763.072319 419.006608 
L 772.460301 418.645761 
L 781.610818 418.294042 
L 791.459639 417.915481 
L 800.84903 417.55458 
L 809.974885 417.203809 
L 820.170391 416.811923 
L 829.435765 416.455789 
L 838.571485 416.104638 
L 848.884666 415.708229 
L 858.006293 415.35762 
L 867.134261 415.006767 
L 877.41221 414.611712 
L 886.580343 414.259316 
L 895.759751 413.906486 
L 905.921434 413.5159 
L 915.095909 413.16326 
L 924.281658 412.810186 
L 934.440522 412.419708 
L 943.623453 412.066743 
L 952.970566 411.707467 
L 962.909581 411.32544 
L 972.098149 410.972258 
L 981.398756 410.614769 
L 991.29831 410.234259 
L 1000.48265 409.881239 
L 1009.661354 409.528436 
L 1019.78569 409.139286 
L 1028.992579 408.7854 
L 1038.202991 408.431378 
L 1048.198377 408.047184 
L 1057.38765 407.693975 
L 1066.607927 407.339574 
L 1148.353064 404.197527 
L 1157.669173 403.839443 
L 1168.968857 403.405115 
L 1178.241982 403.048683 
L 1187.456622 402.694499 
L 1197.736685 402.299363 
L 1206.966123 401.94461 
L 1216.468962 401.579348 
L 1226.205744 401.205094 
L 1235.461253 400.849339 
L 1245.272727 400.472215 
" style="fill:none;stroke:#0000ff;stroke-linecap:square;stroke-width:1.5;"/>
   </g>
   <g id="line2d_20">
    <path clip-path="url(#p0bd9676a75)" d="M 230.727273 456.097391 
L 240.132871 456.093474 
L 250.314284 456.089233 
L 259.531742 456.085394 
L 268.828121 456.081523 
L 278.759385 456.077386 
L 287.949362 456.073559 
L 297.13934 456.069732 
L 307.262971 456.065515 
L 316.499455 456.061669 
L 325.702821 456.057836 
L 335.763034 456.053646 
L 344.912847 456.049835 
L 354.039406 456.046034 
L 364.084822 456.04185 
L 373.188833 456.038059 
L 382.291435 456.034268 
L 392.525695 456.030005 
L 401.634639 456.026212 
L 410.729489 456.022424 
L 420.991231 456.01815 
L 430.09947 456.014357 
L 439.204185 456.010565 
L 449.480725 456.006285 
L 458.60517 456.002485 
L 467.734548 455.998682 
L 478.011792 455.994402 
L 487.13201 455.990604 
L 496.285345 455.986792 
L 506.465349 455.982552 
L 515.615161 455.978741 
L 524.73256 455.974944 
L 534.94991 455.970689 
L 544.09338 455.966881 
L 553.220644 455.963079 
L 563.478863 455.958807 
L 572.682934 455.954974 
L 581.816539 455.95117 
L 592.013454 455.946923 
L 601.194271 455.943099 
L 610.391295 455.939269 
L 620.603007 455.935016 
L 630.123463 455.931051 
L 639.274685 455.92724 
L 649.480055 455.922989 
L 658.598863 455.919192 
L 667.785318 455.915366 
L 677.955456 455.91113 
L 687.092585 455.907325 
L 696.240988 455.903515 
L 706.456928 455.89926 
L 715.613083 455.895446 
L 724.745279 455.891643 
L 734.871025 455.887426 
L 744.018723 455.883616 
L 753.136827 455.879819 
L 763.072319 455.875681 
L 772.460301 455.871771 
L 781.610818 455.86796 
L 791.459639 455.863858 
L 800.84903 455.859948 
L 809.974885 455.856147 
L 820.170391 455.851901 
L 829.435765 455.848042 
L 838.571485 455.844237 
L 848.884666 455.839942 
L 858.006293 455.836143 
L 867.134261 455.832341 
L 877.41221 455.828061 
L 886.580343 455.824242 
L 895.759751 455.820419 
L 905.921434 455.816187 
L 915.095909 455.812366 
L 924.281658 455.808541 
L 934.440522 455.80431 
L 943.623453 455.800485 
L 952.970566 455.796592 
L 962.909581 455.792453 
L 972.098149 455.788626 
L 981.398756 455.784753 
L 991.29831 455.78063 
L 1000.48265 455.776805 
L 1009.661354 455.772982 
L 1019.78569 455.768765 
L 1028.992579 455.764931 
L 1038.202991 455.761095 
L 1048.198377 455.756932 
L 1057.38765 455.753105 
L 1066.607927 455.749265 
L 1148.353064 455.71522 
L 1157.669173 455.71134 
L 1168.968857 455.706634 
L 1178.241982 455.702772 
L 1187.456622 455.698934 
L 1197.736685 455.694653 
L 1206.966123 455.690809 
L 1216.468962 455.686851 
L 1226.205744 455.682796 
L 1235.461253 455.678941 
L 1245.272727 455.674855 
" style="fill:none;stroke:#008000;stroke-linecap:square;stroke-width:1.5;"/>
    <defs>
     <path d="M 0 3 
C 0.795609 3 1.55874 2.683901 2.12132 2.12132 
C 2.683901 1.55874 3 0.795609 3 0 
C 3 -0.795609 2.683901 -1.55874 2.12132 -2.12132 
C 1.55874 -2.683901 0.795609 -3 0 -3 
C -0.795609 -3 -1.55874 -2.683901 -2.12132 -2.12132 
C -2.683901 -1.55874 -3 -0.795609 -3 0 
C -3 0.795609 -2.683901 1.55874 -2.12132 2.12132 
C -1.55874 2.683901 -0.795609 3 0 3 
z
" id="mdc2c426b1a" style="stroke:#008000;"/>
    </defs>
    <g clip-path="url(#p0bd9676a75)">
     <use style="fill:#008000;stroke:#008000;" x="230.727273" xlink:href="#mdc2c426b1a" y="456.097391"/>
     <use style="fill:#008000;stroke:#008000;" x="240.132871" xlink:href="#mdc2c426b1a" y="456.093474"/>
     <use style="fill:#008000;stroke:#008000;" x="250.314284" xlink:href="#mdc2c426b1a" y="456.089233"/>
     <use style="fill:#008000;stroke:#008000;" x="259.531742" xlink:href="#mdc2c426b1a" y="456.085394"/>
     <use style="fill:#008000;stroke:#008000;" x="268.828121" xlink:href="#mdc2c426b1a" y="456.081523"/>
     <use style="fill:#008000;stroke:#008000;" x="278.759385" xlink:href="#mdc2c426b1a" y="456.077386"/>
     <use style="fill:#008000;stroke:#008000;" x="287.949362" xlink:href="#mdc2c426b1a" y="456.073559"/>
     <use style="fill:#008000;stroke:#008000;" x="297.13934" xlink:href="#mdc2c426b1a" y="456.069732"/>
     <use style="fill:#008000;stroke:#008000;" x="307.262971" xlink:href="#mdc2c426b1a" y="456.065515"/>
     <use style="fill:#008000;stroke:#008000;" x="316.499455" xlink:href="#mdc2c426b1a" y="456.061669"/>
     <use style="fill:#008000;stroke:#008000;" x="325.702821" xlink:href="#mdc2c426b1a" y="456.057836"/>
     <use style="fill:#008000;stroke:#008000;" x="335.763034" xlink:href="#mdc2c426b1a" y="456.053646"/>
     <use style="fill:#008000;stroke:#008000;" x="344.912847" xlink:href="#mdc2c426b1a" y="456.049835"/>
     <use style="fill:#008000;stroke:#008000;" x="354.039406" xlink:href="#mdc2c426b1a" y="456.046034"/>
     <use style="fill:#008000;stroke:#008000;" x="364.084822" xlink:href="#mdc2c426b1a" y="456.04185"/>
     <use style="fill:#008000;stroke:#008000;" x="373.188833" xlink:href="#mdc2c426b1a" y="456.038059"/>
     <use style="fill:#008000;stroke:#008000;" x="382.291435" xlink:href="#mdc2c426b1a" y="456.034268"/>
     <use style="fill:#008000;stroke:#008000;" x="392.525695" xlink:href="#mdc2c426b1a" y="456.030005"/>
     <use style="fill:#008000;stroke:#008000;" x="401.634639" xlink:href="#mdc2c426b1a" y="456.026212"/>
     <use style="fill:#008000;stroke:#008000;" x="410.729489" xlink:href="#mdc2c426b1a" y="456.022424"/>
     <use style="fill:#008000;stroke:#008000;" x="420.991231" xlink:href="#mdc2c426b1a" y="456.01815"/>
     <use style="fill:#008000;stroke:#008000;" x="430.09947" xlink:href="#mdc2c426b1a" y="456.014357"/>
     <use style="fill:#008000;stroke:#008000;" x="439.204185" xlink:href="#mdc2c426b1a" y="456.010565"/>
     <use style="fill:#008000;stroke:#008000;" x="449.480725" xlink:href="#mdc2c426b1a" y="456.006285"/>
     <use style="fill:#008000;stroke:#008000;" x="458.60517" xlink:href="#mdc2c426b1a" y="456.002485"/>
     <use style="fill:#008000;stroke:#008000;" x="467.734548" xlink:href="#mdc2c426b1a" y="455.998682"/>
     <use style="fill:#008000;stroke:#008000;" x="478.011792" xlink:href="#mdc2c426b1a" y="455.994402"/>
     <use style="fill:#008000;stroke:#008000;" x="487.13201" xlink:href="#mdc2c426b1a" y="455.990604"/>
     <use style="fill:#008000;stroke:#008000;" x="496.285345" xlink:href="#mdc2c426b1a" y="455.986792"/>
     <use style="fill:#008000;stroke:#008000;" x="506.465349" xlink:href="#mdc2c426b1a" y="455.982552"/>
     <use style="fill:#008000;stroke:#008000;" x="515.615161" xlink:href="#mdc2c426b1a" y="455.978741"/>
     <use style="fill:#008000;stroke:#008000;" x="524.73256" xlink:href="#mdc2c426b1a" y="455.974944"/>
     <use style="fill:#008000;stroke:#008000;" x="534.94991" xlink:href="#mdc2c426b1a" y="455.970689"/>
     <use style="fill:#008000;stroke:#008000;" x="544.09338" xlink:href="#mdc2c426b1a" y="455.966881"/>
     <use style="fill:#008000;stroke:#008000;" x="553.220644" xlink:href="#mdc2c426b1a" y="455.963079"/>
     <use style="fill:#008000;stroke:#008000;" x="563.478863" xlink:href="#mdc2c426b1a" y="455.958807"/>
     <use style="fill:#008000;stroke:#008000;" x="572.682934" xlink:href="#mdc2c426b1a" y="455.954974"/>
     <use style="fill:#008000;stroke:#008000;" x="581.816539" xlink:href="#mdc2c426b1a" y="455.95117"/>
     <use style="fill:#008000;stroke:#008000;" x="592.013454" xlink:href="#mdc2c426b1a" y="455.946923"/>
     <use style="fill:#008000;stroke:#008000;" x="601.194271" xlink:href="#mdc2c426b1a" y="455.943099"/>
     <use style="fill:#008000;stroke:#008000;" x="610.391295" xlink:href="#mdc2c426b1a" y="455.939269"/>
     <use style="fill:#008000;stroke:#008000;" x="620.603007" xlink:href="#mdc2c426b1a" y="455.935016"/>
     <use style="fill:#008000;stroke:#008000;" x="630.123463" xlink:href="#mdc2c426b1a" y="455.931051"/>
     <use style="fill:#008000;stroke:#008000;" x="639.274685" xlink:href="#mdc2c426b1a" y="455.92724"/>
     <use style="fill:#008000;stroke:#008000;" x="649.480055" xlink:href="#mdc2c426b1a" y="455.922989"/>
     <use style="fill:#008000;stroke:#008000;" x="658.598863" xlink:href="#mdc2c426b1a" y="455.919192"/>
     <use style="fill:#008000;stroke:#008000;" x="667.785318" xlink:href="#mdc2c426b1a" y="455.915366"/>
     <use style="fill:#008000;stroke:#008000;" x="677.955456" xlink:href="#mdc2c426b1a" y="455.91113"/>
     <use style="fill:#008000;stroke:#008000;" x="687.092585" xlink:href="#mdc2c426b1a" y="455.907325"/>
     <use style="fill:#008000;stroke:#008000;" x="696.240988" xlink:href="#mdc2c426b1a" y="455.903515"/>
     <use style="fill:#008000;stroke:#008000;" x="706.456928" xlink:href="#mdc2c426b1a" y="455.89926"/>
     <use style="fill:#008000;stroke:#008000;" x="715.613083" xlink:href="#mdc2c426b1a" y="455.895446"/>
     <use style="fill:#008000;stroke:#008000;" x="724.745279" xlink:href="#mdc2c426b1a" y="455.891643"/>
     <use style="fill:#008000;stroke:#008000;" x="734.871025" xlink:href="#mdc2c426b1a" y="455.887426"/>
     <use style="fill:#008000;stroke:#008000;" x="744.018723" xlink:href="#mdc2c426b1a" y="455.883616"/>
     <use style="fill:#008000;stroke:#008000;" x="753.136827" xlink:href="#mdc2c426b1a" y="455.879819"/>
     <use style="fill:#008000;stroke:#008000;" x="763.072319" xlink:href="#mdc2c426b1a" y="455.875681"/>
     <use style="fill:#008000;stroke:#008000;" x="772.460301" xlink:href="#mdc2c426b1a" y="455.871771"/>
     <use style="fill:#008000;stroke:#008000;" x="781.610818" xlink:href="#mdc2c426b1a" y="455.86796"/>
     <use style="fill:#008000;stroke:#008000;" x="791.459639" xlink:href="#mdc2c426b1a" y="455.863858"/>
     <use style="fill:#008000;stroke:#008000;" x="800.84903" xlink:href="#mdc2c426b1a" y="455.859948"/>
     <use style="fill:#008000;stroke:#008000;" x="809.974885" xlink:href="#mdc2c426b1a" y="455.856147"/>
     <use style="fill:#008000;stroke:#008000;" x="820.170391" xlink:href="#mdc2c426b1a" y="455.851901"/>
     <use style="fill:#008000;stroke:#008000;" x="829.435765" xlink:href="#mdc2c426b1a" y="455.848042"/>
     <use style="fill:#008000;stroke:#008000;" x="838.571485" xlink:href="#mdc2c426b1a" y="455.844237"/>
     <use style="fill:#008000;stroke:#008000;" x="848.884666" xlink:href="#mdc2c426b1a" y="455.839942"/>
     <use style="fill:#008000;stroke:#008000;" x="858.006293" xlink:href="#mdc2c426b1a" y="455.836143"/>
     <use style="fill:#008000;stroke:#008000;" x="867.134261" xlink:href="#mdc2c426b1a" y="455.832341"/>
     <use style="fill:#008000;stroke:#008000;" x="877.41221" xlink:href="#mdc2c426b1a" y="455.828061"/>
     <use style="fill:#008000;stroke:#008000;" x="886.580343" xlink:href="#mdc2c426b1a" y="455.824242"/>
     <use style="fill:#008000;stroke:#008000;" x="895.759751" xlink:href="#mdc2c426b1a" y="455.820419"/>
     <use style="fill:#008000;stroke:#008000;" x="905.921434" xlink:href="#mdc2c426b1a" y="455.816187"/>
     <use style="fill:#008000;stroke:#008000;" x="915.095909" xlink:href="#mdc2c426b1a" y="455.812366"/>
     <use style="fill:#008000;stroke:#008000;" x="924.281658" xlink:href="#mdc2c426b1a" y="455.808541"/>
     <use style="fill:#008000;stroke:#008000;" x="934.440522" xlink:href="#mdc2c426b1a" y="455.80431"/>
     <use style="fill:#008000;stroke:#008000;" x="943.623453" xlink:href="#mdc2c426b1a" y="455.800485"/>
     <use style="fill:#008000;stroke:#008000;" x="952.970566" xlink:href="#mdc2c426b1a" y="455.796592"/>
     <use style="fill:#008000;stroke:#008000;" x="962.909581" xlink:href="#mdc2c426b1a" y="455.792453"/>
     <use style="fill:#008000;stroke:#008000;" x="972.098149" xlink:href="#mdc2c426b1a" y="455.788626"/>
     <use style="fill:#008000;stroke:#008000;" x="981.398756" xlink:href="#mdc2c426b1a" y="455.784753"/>
     <use style="fill:#008000;stroke:#008000;" x="991.29831" xlink:href="#mdc2c426b1a" y="455.78063"/>
     <use style="fill:#008000;stroke:#008000;" x="1000.48265" xlink:href="#mdc2c426b1a" y="455.776805"/>
     <use style="fill:#008000;stroke:#008000;" x="1009.661354" xlink:href="#mdc2c426b1a" y="455.772982"/>
     <use style="fill:#008000;stroke:#008000;" x="1019.78569" xlink:href="#mdc2c426b1a" y="455.768765"/>
     <use style="fill:#008000;stroke:#008000;" x="1028.992579" xlink:href="#mdc2c426b1a" y="455.764931"/>
     <use style="fill:#008000;stroke:#008000;" x="1038.202991" xlink:href="#mdc2c426b1a" y="455.761095"/>
     <use style="fill:#008000;stroke:#008000;" x="1048.198377" xlink:href="#mdc2c426b1a" y="455.756932"/>
     <use style="fill:#008000;stroke:#008000;" x="1057.38765" xlink:href="#mdc2c426b1a" y="455.753105"/>
     <use style="fill:#008000;stroke:#008000;" x="1066.607927" xlink:href="#mdc2c426b1a" y="455.749265"/>
     <use style="fill:#008000;stroke:#008000;" x="1148.353064" xlink:href="#mdc2c426b1a" y="455.71522"/>
     <use style="fill:#008000;stroke:#008000;" x="1157.669173" xlink:href="#mdc2c426b1a" y="455.71134"/>
     <use style="fill:#008000;stroke:#008000;" x="1168.968857" xlink:href="#mdc2c426b1a" y="455.706634"/>
     <use style="fill:#008000;stroke:#008000;" x="1178.241982" xlink:href="#mdc2c426b1a" y="455.702772"/>
     <use style="fill:#008000;stroke:#008000;" x="1187.456622" xlink:href="#mdc2c426b1a" y="455.698934"/>
     <use style="fill:#008000;stroke:#008000;" x="1197.736685" xlink:href="#mdc2c426b1a" y="455.694653"/>
     <use style="fill:#008000;stroke:#008000;" x="1206.966123" xlink:href="#mdc2c426b1a" y="455.690809"/>
     <use style="fill:#008000;stroke:#008000;" x="1216.468962" xlink:href="#mdc2c426b1a" y="455.686851"/>
     <use style="fill:#008000;stroke:#008000;" x="1226.205744" xlink:href="#mdc2c426b1a" y="455.682796"/>
     <use style="fill:#008000;stroke:#008000;" x="1235.461253" xlink:href="#mdc2c426b1a" y="455.678941"/>
     <use style="fill:#008000;stroke:#008000;" x="1245.272727" xlink:href="#mdc2c426b1a" y="455.674855"/>
    </g>
   </g>
   <g id="patch_3">
    <path d="M 180 512.64 
L 180 69.12 
" style="fill:none;stroke:#000000;stroke-linecap:square;stroke-linejoin:miter;stroke-width:0.8;"/>
   </g>
   <g id="patch_4">
    <path d="M 1296 512.64 
L 1296 69.12 
" style="fill:none;stroke:#000000;stroke-linecap:square;stroke-linejoin:miter;stroke-width:0.8;"/>
   </g>
   <g id="patch_5">
    <path d="M 180 512.64 
L 1296 512.64 
" style="fill:none;stroke:#000000;stroke-linecap:square;stroke-linejoin:miter;stroke-width:0.8;"/>
   </g>
   <g id="patch_6">
    <path d="M 180 69.12 
L 1296 69.12 
" style="fill:none;stroke:#000000;stroke-linecap:square;stroke-linejoin:miter;stroke-width:0.8;"/>
   </g>
   <g id="text_17">
    <!-- 500000.0 bit/s -->
    <defs>
     <path id="DejaVuSans-20"/>
     <path d="M 48.6875 27.296875 
Q 48.6875 37.203125 44.609375 42.84375 
Q 40.53125 48.484375 33.40625 48.484375 
Q 26.265625 48.484375 22.1875 42.84375 
Q 18.109375 37.203125 18.109375 27.296875 
Q 18.109375 17.390625 22.1875 11.75 
Q 26.265625 6.109375 33.40625 6.109375 
Q 40.53125 6.109375 44.609375 11.75 
Q 48.6875 17.390625 48.6875 27.296875 
z
M 18.109375 46.390625 
Q 20.953125 51.265625 25.265625 53.625 
Q 29.59375 56 35.59375 56 
Q 45.5625 56 51.78125 48.09375 
Q 58.015625 40.1875 58.015625 27.296875 
Q 58.015625 14.40625 51.78125 6.484375 
Q 45.5625 -1.421875 35.59375 -1.421875 
Q 29.59375 -1.421875 25.265625 0.953125 
Q 20.953125 3.328125 18.109375 8.203125 
L 18.109375 0 
L 9.078125 0 
L 9.078125 75.984375 
L 18.109375 75.984375 
z
" id="DejaVuSans-62"/>
     <path d="M 9.421875 54.6875 
L 18.40625 54.6875 
L 18.40625 0 
L 9.421875 0 
z
M 9.421875 75.984375 
L 18.40625 75.984375 
L 18.40625 64.59375 
L 9.421875 64.59375 
z
" id="DejaVuSans-69"/>
     <path d="M 18.3125 70.21875 
L 18.3125 54.6875 
L 36.8125 54.6875 
L 36.8125 47.703125 
L 18.3125 47.703125 
L 18.3125 18.015625 
Q 18.3125 11.328125 20.140625 9.421875 
Q 21.96875 7.515625 27.59375 7.515625 
L 36.8125 7.515625 
L 36.8125 0 
L 27.59375 0 
Q 17.1875 0 13.234375 3.875 
Q 9.28125 7.765625 9.28125 18.015625 
L 9.28125 47.703125 
L 2.6875 47.703125 
L 2.6875 54.6875 
L 9.28125 54.6875 
L 9.28125 70.21875 
z
" id="DejaVuSans-74"/>
     <path d="M 25.390625 72.90625 
L 33.6875 72.90625 
L 8.296875 -9.28125 
L 0 -9.28125 
z
" id="DejaVuSans-2f"/>
     <path d="M 44.28125 53.078125 
L 44.28125 44.578125 
Q 40.484375 46.53125 36.375 47.5 
Q 32.28125 48.484375 27.875 48.484375 
Q 21.1875 48.484375 17.84375 46.4375 
Q 14.5 44.390625 14.5 40.28125 
Q 14.5 37.15625 16.890625 35.375 
Q 19.28125 33.59375 26.515625 31.984375 
L 29.59375 31.296875 
Q 39.15625 29.25 43.1875 25.515625 
Q 47.21875 21.78125 47.21875 15.09375 
Q 47.21875 7.46875 41.1875 3.015625 
Q 35.15625 -1.421875 24.609375 -1.421875 
Q 20.21875 -1.421875 15.453125 -0.5625 
Q 10.6875 0.296875 5.421875 2 
L 5.421875 11.28125 
Q 10.40625 8.6875 15.234375 7.390625 
Q 20.0625 6.109375 24.8125 6.109375 
Q 31.15625 6.109375 34.5625 8.28125 
Q 37.984375 10.453125 37.984375 14.40625 
Q 37.984375 18.0625 35.515625 20.015625 
Q 33.0625 21.96875 24.703125 23.78125 
L 21.578125 24.515625 
Q 13.234375 26.265625 9.515625 29.90625 
Q 5.8125 33.546875 5.8125 39.890625 
Q 5.8125 47.609375 11.28125 51.796875 
Q 16.75 56 26.8125 56 
Q 31.78125 56 36.171875 55.265625 
Q 40.578125 54.546875 44.28125 53.078125 
z
" id="DejaVuSans-73"/>
    </defs>
    <g transform="translate(694.48875 63.12)scale(0.12 -0.12)">
     <use xlink:href="#DejaVuSans-35"/>
     <use x="63.623047" xlink:href="#DejaVuSans-30"/>
     <use x="127.246094" xlink:href="#DejaVuSans-30"/>
     <use x="190.869141" xlink:href="#DejaVuSans-30"/>
     <use x="254.492188" xlink:href="#DejaVuSans-30"/>
     <use x="318.115234" xlink:href="#DejaVuSans-30"/>
     <use x="381.738281" xlink:href="#DejaVuSans-2e"/>
     <use x="413.525391" xlink:href="#DejaVuSans-30"/>
     <use x="477.148438" xlink:href="#DejaVuSans-20"/>
     <use x="508.935547" xlink:href="#DejaVuSans-62"/>
     <use x="572.412109" xlink:href="#DejaVuSans-69"/>
     <use x="600.195312" xlink:href="#DejaVuSans-74"/>
     <use x="639.404297" xlink:href="#DejaVuSans-2f"/>
     <use x="673.095703" xlink:href="#DejaVuSans-73"/>
    </g>
   </g>
   <g id="legend_1">
    <g id="patch_7">
     <path d="M 1173.520313 135.8325 
L 1289 135.8325 
Q 1291 135.8325 1291 133.8325 
L 1291 76.12 
Q 1291 74.12 1289 74.12 
L 1173.520313 74.12 
Q 1171.520313 74.12 1171.520313 76.12 
L 1171.520313 133.8325 
Q 1171.520313 135.8325 1173.520313 135.8325 
z
" style="fill:#ffffff;opacity:0.8;stroke:#cccccc;stroke-linejoin:miter;"/>
    </g>
    <g id="line2d_21">
     <path d="M 1175.520313 82.218437 
L 1195.520313 82.218437 
" style="fill:none;stroke:#ff0000;stroke-dasharray:5.55,2.4;stroke-dashoffset:0;stroke-width:1.5;"/>
    </g>
    <g id="line2d_22">
     <g>
      <use style="fill:#ff0000;stroke:#ff0000;stroke-linejoin:miter;" x="1185.520313" xlink:href="#m294319a886" y="82.218437"/>
     </g>
    </g>
    <g id="text_18">
     <!-- tcpdump -->
     <defs>
      <path d="M 48.78125 52.59375 
L 48.78125 44.1875 
Q 44.96875 46.296875 41.140625 47.34375 
Q 37.3125 48.390625 33.40625 48.390625 
Q 24.65625 48.390625 19.8125 42.84375 
Q 14.984375 37.3125 14.984375 27.296875 
Q 14.984375 17.28125 19.8125 11.734375 
Q 24.65625 6.203125 33.40625 6.203125 
Q 37.3125 6.203125 41.140625 7.25 
Q 44.96875 8.296875 48.78125 10.40625 
L 48.78125 2.09375 
Q 45.015625 0.34375 40.984375 -0.53125 
Q 36.96875 -1.421875 32.421875 -1.421875 
Q 20.0625 -1.421875 12.78125 6.34375 
Q 5.515625 14.109375 5.515625 27.296875 
Q 5.515625 40.671875 12.859375 48.328125 
Q 20.21875 56 33.015625 56 
Q 37.15625 56 41.109375 55.140625 
Q 45.0625 54.296875 48.78125 52.59375 
z
" id="DejaVuSans-63"/>
      <path d="M 18.109375 8.203125 
L 18.109375 -20.796875 
L 9.078125 -20.796875 
L 9.078125 54.6875 
L 18.109375 54.6875 
L 18.109375 46.390625 
Q 20.953125 51.265625 25.265625 53.625 
Q 29.59375 56 35.59375 56 
Q 45.5625 56 51.78125 48.09375 
Q 58.015625 40.1875 58.015625 27.296875 
Q 58.015625 14.40625 51.78125 6.484375 
Q 45.5625 -1.421875 35.59375 -1.421875 
Q 29.59375 -1.421875 25.265625 0.953125 
Q 20.953125 3.328125 18.109375 8.203125 
z
M 48.6875 27.296875 
Q 48.6875 37.203125 44.609375 42.84375 
Q 40.53125 48.484375 33.40625 48.484375 
Q 26.265625 48.484375 22.1875 42.84375 
Q 18.109375 37.203125 18.109375 27.296875 
Q 18.109375 17.390625 22.1875 11.75 
Q 26.265625 6.109375 33.40625 6.109375 
Q 40.53125 6.109375 44.609375 11.75 
Q 48.6875 17.390625 48.6875 27.296875 
z
" id="DejaVuSans-70"/>
      <path d="M 45.40625 46.390625 
L 45.40625 75.984375 
L 54.390625 75.984375 
L 54.390625 0 
L 45.40625 0 
L 45.40625 8.203125 
Q 42.578125 3.328125 38.25 0.953125 
Q 33.9375 -1.421875 27.875 -1.421875 
Q 17.96875 -1.421875 11.734375 6.484375 
Q 5.515625 14.40625 5.515625 27.296875 
Q 5.515625 40.1875 11.734375 48.09375 
Q 17.96875 56 27.875 56 
Q 33.9375 56 38.25 53.625 
Q 42.578125 51.265625 45.40625 46.390625 
z
M 14.796875 27.296875 
Q 14.796875 17.390625 18.875 11.75 
Q 22.953125 6.109375 30.078125 6.109375 
Q 37.203125 6.109375 41.296875 11.75 
Q 45.40625 17.390625 45.40625 27.296875 
Q 45.40625 37.203125 41.296875 42.84375 
Q 37.203125 48.484375 30.078125 48.484375 
Q 22.953125 48.484375 18.875 42.84375 
Q 14.796875 37.203125 14.796875 27.296875 
z
" id="DejaVuSans-64"/>
      <path d="M 8.5 21.578125 
L 8.5 54.6875 
L 17.484375 54.6875 
L 17.484375 21.921875 
Q 17.484375 14.15625 20.5 10.265625 
Q 23.53125 6.390625 29.59375 6.390625 
Q 36.859375 6.390625 41.078125 11.03125 
Q 45.3125 15.671875 45.3125 23.6875 
L 45.3125 54.6875 
L 54.296875 54.6875 
L 54.296875 0 
L 45.3125 0 
L 45.3125 8.40625 
Q 42.046875 3.421875 37.71875 1 
Q 33.40625 -1.421875 27.6875 -1.421875 
Q 18.265625 -1.421875 13.375 4.4375 
Q 8.5 10.296875 8.5 21.578125 
z
M 31.109375 56 
z
" id="DejaVuSans-75"/>
      <path d="M 52 44.1875 
Q 55.375 50.25 60.0625 53.125 
Q 64.75 56 71.09375 56 
Q 79.640625 56 84.28125 50.015625 
Q 88.921875 44.046875 88.921875 33.015625 
L 88.921875 0 
L 79.890625 0 
L 79.890625 32.71875 
Q 79.890625 40.578125 77.09375 44.375 
Q 74.3125 48.1875 68.609375 48.1875 
Q 61.625 48.1875 57.5625 43.546875 
Q 53.515625 38.921875 53.515625 30.90625 
L 53.515625 0 
L 44.484375 0 
L 44.484375 32.71875 
Q 44.484375 40.625 41.703125 44.40625 
Q 38.921875 48.1875 33.109375 48.1875 
Q 26.21875 48.1875 22.15625 43.53125 
Q 18.109375 38.875 18.109375 30.90625 
L 18.109375 0 
L 9.078125 0 
L 9.078125 54.6875 
L 18.109375 54.6875 
L 18.109375 46.1875 
Q 21.1875 51.21875 25.484375 53.609375 
Q 29.78125 56 35.6875 56 
Q 41.65625 56 45.828125 52.96875 
Q 50 49.953125 52 44.1875 
z
" id="DejaVuSans-6d"/>
     </defs>
     <g transform="translate(1203.520313 85.718437)scale(0.1 -0.1)">
      <use xlink:href="#DejaVuSans-74"/>
      <use x="39.208984" xlink:href="#DejaVuSans-63"/>
      <use x="94.189453" xlink:href="#DejaVuSans-70"/>
      <use x="157.666016" xlink:href="#DejaVuSans-64"/>
      <use x="221.142578" xlink:href="#DejaVuSans-75"/>
      <use x="284.521484" xlink:href="#DejaVuSans-6d"/>
      <use x="381.933594" xlink:href="#DejaVuSans-70"/>
     </g>
    </g>
    <g id="line2d_23">
     <path d="M 1175.520313 96.896563 
L 1195.520313 96.896563 
" style="fill:none;stroke:#800080;stroke-dasharray:9.6,2.4,1.5,2.4;stroke-dashoffset:0;stroke-width:1.5;"/>
    </g>
    <g id="line2d_24">
     <g>
      <use style="fill:#800080;stroke:#800080;" x="1185.520313" xlink:href="#m7293ca06a0" y="96.896563"/>
     </g>
    </g>
    <g id="text_19">
     <!-- filtered tcpdump -->
     <defs>
      <path d="M 37.109375 75.984375 
L 37.109375 68.5 
L 28.515625 68.5 
Q 23.6875 68.5 21.796875 66.546875 
Q 19.921875 64.59375 19.921875 59.515625 
L 19.921875 54.6875 
L 34.71875 54.6875 
L 34.71875 47.703125 
L 19.921875 47.703125 
L 19.921875 0 
L 10.890625 0 
L 10.890625 47.703125 
L 2.296875 47.703125 
L 2.296875 54.6875 
L 10.890625 54.6875 
L 10.890625 58.5 
Q 10.890625 67.625 15.140625 71.796875 
Q 19.390625 75.984375 28.609375 75.984375 
z
" id="DejaVuSans-66"/>
      <path d="M 9.421875 75.984375 
L 18.40625 75.984375 
L 18.40625 0 
L 9.421875 0 
z
" id="DejaVuSans-6c"/>
      <path d="M 56.203125 29.59375 
L 56.203125 25.203125 
L 14.890625 25.203125 
Q 15.484375 15.921875 20.484375 11.0625 
Q 25.484375 6.203125 34.421875 6.203125 
Q 39.59375 6.203125 44.453125 7.46875 
Q 49.3125 8.734375 54.109375 11.28125 
L 54.109375 2.78125 
Q 49.265625 0.734375 44.1875 -0.34375 
Q 39.109375 -1.421875 33.890625 -1.421875 
Q 20.796875 -1.421875 13.15625 6.1875 
Q 5.515625 13.8125 5.515625 26.8125 
Q 5.515625 40.234375 12.765625 48.109375 
Q 20.015625 56 32.328125 56 
Q 43.359375 56 49.78125 48.890625 
Q 56.203125 41.796875 56.203125 29.59375 
z
M 47.21875 32.234375 
Q 47.125 39.59375 43.09375 43.984375 
Q 39.0625 48.390625 32.421875 48.390625 
Q 24.90625 48.390625 20.390625 44.140625 
Q 15.875 39.890625 15.1875 32.171875 
z
" id="DejaVuSans-65"/>
      <path d="M 41.109375 46.296875 
Q 39.59375 47.171875 37.8125 47.578125 
Q 36.03125 48 33.890625 48 
Q 26.265625 48 22.1875 43.046875 
Q 18.109375 38.09375 18.109375 28.8125 
L 18.109375 0 
L 9.078125 0 
L 9.078125 54.6875 
L 18.109375 54.6875 
L 18.109375 46.1875 
Q 20.953125 51.171875 25.484375 53.578125 
Q 30.03125 56 36.53125 56 
Q 37.453125 56 38.578125 55.875 
Q 39.703125 55.765625 41.0625 55.515625 
z
" id="DejaVuSans-72"/>
     </defs>
     <g transform="translate(1203.520313 100.396563)scale(0.1 -0.1)">
      <use xlink:href="#DejaVuSans-66"/>
      <use x="35.205078" xlink:href="#DejaVuSans-69"/>
      <use x="62.988281" xlink:href="#DejaVuSans-6c"/>
      <use x="90.771484" xlink:href="#DejaVuSans-74"/>
      <use x="129.980469" xlink:href="#DejaVuSans-65"/>
      <use x="191.503906" xlink:href="#DejaVuSans-72"/>
      <use x="232.585938" xlink:href="#DejaVuSans-65"/>
      <use x="294.109375" xlink:href="#DejaVuSans-64"/>
      <use x="357.585938" xlink:href="#DejaVuSans-20"/>
      <use x="389.373047" xlink:href="#DejaVuSans-74"/>
      <use x="428.582031" xlink:href="#DejaVuSans-63"/>
      <use x="483.5625" xlink:href="#DejaVuSans-70"/>
      <use x="547.039062" xlink:href="#DejaVuSans-64"/>
      <use x="610.515625" xlink:href="#DejaVuSans-75"/>
      <use x="673.894531" xlink:href="#DejaVuSans-6d"/>
      <use x="771.306641" xlink:href="#DejaVuSans-70"/>
     </g>
    </g>
    <g id="line2d_25">
     <path d="M 1175.520313 111.574687 
L 1195.520313 111.574687 
" style="fill:none;stroke:#0000ff;stroke-linecap:square;stroke-width:1.5;"/>
    </g>
    <g id="line2d_26"/>
    <g id="text_20">
     <!-- OLS -->
     <defs>
      <path d="M 39.40625 66.21875 
Q 28.65625 66.21875 22.328125 58.203125 
Q 16.015625 50.203125 16.015625 36.375 
Q 16.015625 22.609375 22.328125 14.59375 
Q 28.65625 6.59375 39.40625 6.59375 
Q 50.140625 6.59375 56.421875 14.59375 
Q 62.703125 22.609375 62.703125 36.375 
Q 62.703125 50.203125 56.421875 58.203125 
Q 50.140625 66.21875 39.40625 66.21875 
z
M 39.40625 74.21875 
Q 54.734375 74.21875 63.90625 63.9375 
Q 73.09375 53.65625 73.09375 36.375 
Q 73.09375 19.140625 63.90625 8.859375 
Q 54.734375 -1.421875 39.40625 -1.421875 
Q 24.03125 -1.421875 14.8125 8.828125 
Q 5.609375 19.09375 5.609375 36.375 
Q 5.609375 53.65625 14.8125 63.9375 
Q 24.03125 74.21875 39.40625 74.21875 
z
" id="DejaVuSans-4f"/>
      <path d="M 9.8125 72.90625 
L 19.671875 72.90625 
L 19.671875 8.296875 
L 55.171875 8.296875 
L 55.171875 0 
L 9.8125 0 
z
" id="DejaVuSans-4c"/>
      <path d="M 53.515625 70.515625 
L 53.515625 60.890625 
Q 47.90625 63.578125 42.921875 64.890625 
Q 37.9375 66.21875 33.296875 66.21875 
Q 25.25 66.21875 20.875 63.09375 
Q 16.5 59.96875 16.5 54.203125 
Q 16.5 49.359375 19.40625 46.890625 
Q 22.3125 44.4375 30.421875 42.921875 
L 36.375 41.703125 
Q 47.40625 39.59375 52.65625 34.296875 
Q 57.90625 29 57.90625 20.125 
Q 57.90625 9.515625 50.796875 4.046875 
Q 43.703125 -1.421875 29.984375 -1.421875 
Q 24.8125 -1.421875 18.96875 -0.25 
Q 13.140625 0.921875 6.890625 3.21875 
L 6.890625 13.375 
Q 12.890625 10.015625 18.65625 8.296875 
Q 24.421875 6.59375 29.984375 6.59375 
Q 38.421875 6.59375 43.015625 9.90625 
Q 47.609375 13.234375 47.609375 19.390625 
Q 47.609375 24.75 44.3125 27.78125 
Q 41.015625 30.8125 33.5 32.328125 
L 27.484375 33.5 
Q 16.453125 35.6875 11.515625 40.375 
Q 6.59375 45.0625 6.59375 53.421875 
Q 6.59375 63.09375 13.40625 68.65625 
Q 20.21875 74.21875 32.171875 74.21875 
Q 37.3125 74.21875 42.625 73.28125 
Q 47.953125 72.359375 53.515625 70.515625 
z
" id="DejaVuSans-53"/>
     </defs>
     <g transform="translate(1203.520313 115.074687)scale(0.1 -0.1)">
      <use xlink:href="#DejaVuSans-4f"/>
      <use x="78.710938" xlink:href="#DejaVuSans-4c"/>
      <use x="134.423828" xlink:href="#DejaVuSans-53"/>
     </g>
    </g>
    <g id="line2d_27">
     <path d="M 1175.520313 126.252813 
L 1195.520313 126.252813 
" style="fill:none;stroke:#008000;stroke-linecap:square;stroke-width:1.5;"/>
    </g>
    <g id="line2d_28">
     <g>
      <use style="fill:#008000;stroke:#008000;" x="1185.520313" xlink:href="#mdc2c426b1a" y="126.252813"/>
     </g>
    </g>
    <g id="text_21">
     <!-- IRLS -->
     <defs>
      <path d="M 9.8125 72.90625 
L 19.671875 72.90625 
L 19.671875 0 
L 9.8125 0 
z
" id="DejaVuSans-49"/>
      <path d="M 44.390625 34.1875 
Q 47.5625 33.109375 50.5625 29.59375 
Q 53.5625 26.078125 56.59375 19.921875 
L 66.609375 0 
L 56 0 
L 46.6875 18.703125 
Q 43.0625 26.03125 39.671875 28.421875 
Q 36.28125 30.8125 30.421875 30.8125 
L 19.671875 30.8125 
L 19.671875 0 
L 9.8125 0 
L 9.8125 72.90625 
L 32.078125 72.90625 
Q 44.578125 72.90625 50.734375 67.671875 
Q 56.890625 62.453125 56.890625 51.90625 
Q 56.890625 45.015625 53.6875 40.46875 
Q 50.484375 35.9375 44.390625 34.1875 
z
M 19.671875 64.796875 
L 19.671875 38.921875 
L 32.078125 38.921875 
Q 39.203125 38.921875 42.84375 42.21875 
Q 46.484375 45.515625 46.484375 51.90625 
Q 46.484375 58.296875 42.84375 61.546875 
Q 39.203125 64.796875 32.078125 64.796875 
z
" id="DejaVuSans-52"/>
     </defs>
     <g transform="translate(1203.520313 129.752813)scale(0.1 -0.1)">
      <use xlink:href="#DejaVuSans-49"/>
      <use x="29.492188" xlink:href="#DejaVuSans-52"/>
      <use x="98.974609" xlink:href="#DejaVuSans-4c"/>
      <use x="154.6875" xlink:href="#DejaVuSans-53"/>
     </g>
    </g>
   </g>
  </g>
 </g>
 <defs>
  <clipPath id="p0bd9676a75">
   <rect height="443.52" width="1116" x="180" y="69.12"/>
  </clipPath>
 </defs>
</svg>
