<?xml version="1.0" encoding="utf-8" standalone="no"?>
<!DOCTYPE svg PUBLIC "-//W3C//DTD SVG 1.1//EN"
  "http://www.w3.org/Graphics/SVG/1.1/DTD/svg11.dtd">
<!-- Created with matplotlib (http://matplotlib.org/) -->
<svg height="345.6pt" version="1.1" viewBox="0 0 460.8 345.6" width="460.8pt" xmlns="http://www.w3.org/2000/svg" xmlns:xlink="http://www.w3.org/1999/xlink">
 <defs>
  <style type="text/css">
*{stroke-linecap:butt;stroke-linejoin:round;}
  </style>
 </defs>
 <g id="figure_1">
  <g id="patch_1">
   <path d="M 0 345.6 
L 460.8 345.6 
L 460.8 0 
L 0 0 
z
" style="fill:#ffffff;"/>
  </g>
  <g id="axes_1">
   <g id="patch_2">
    <path d="M 57.6 307.584 
L 414.72 307.584 
L 414.72 41.472 
L 57.6 41.472 
z
" style="fill:#ffffff;"/>
   </g>
   <g id="matplotlib.axis_1">
    <g id="xtick_1">
     <g id="line2d_1">
      <defs>
       <path d="M 0 0 
L 0 3.5 
" id="m64dd3ed32c" style="stroke:#000000;stroke-width:0.8;"/>
      </defs>
      <g>
       <use style="stroke:#000000;stroke-width:0.8;" x="73.832727" xlink:href="#m64dd3ed32c" y="307.584"/>
      </g>
     </g>
     <g id="text_1">
      <!-- 0.0 -->
      <defs>
       <path d="M 31.78125 66.40625 
Q 24.171875 66.40625 20.328125 58.90625 
Q 16.5 51.421875 16.5 36.375 
Q 16.5 21.390625 20.328125 13.890625 
Q 24.171875 6.390625 31.78125 6.390625 
Q 39.453125 6.390625 43.28125 13.890625 
Q 47.125 21.390625 47.125 36.375 
Q 47.125 51.421875 43.28125 58.90625 
Q 39.453125 66.40625 31.78125 66.40625 
z
M 31.78125 74.21875 
Q 44.046875 74.21875 50.515625 64.515625 
Q 56.984375 54.828125 56.984375 36.375 
Q 56.984375 17.96875 50.515625 8.265625 
Q 44.046875 -1.421875 31.78125 -1.421875 
Q 19.53125 -1.421875 13.0625 8.265625 
Q 6.59375 17.96875 6.59375 36.375 
Q 6.59375 54.828125 13.0625 64.515625 
Q 19.53125 74.21875 31.78125 74.21875 
z
" id="DejaVuSans-30"/>
       <path d="M 10.6875 12.40625 
L 21 12.40625 
L 21 0 
L 10.6875 0 
z
" id="DejaVuSans-2e"/>
      </defs>
      <g transform="translate(65.881165 322.182437)scale(0.1 -0.1)">
       <use xlink:href="#DejaVuSans-30"/>
       <use x="63.623047" xlink:href="#DejaVuSans-2e"/>
       <use x="95.410156" xlink:href="#DejaVuSans-30"/>
      </g>
     </g>
    </g>
    <g id="xtick_2">
     <g id="line2d_2">
      <g>
       <use style="stroke:#000000;stroke-width:0.8;" x="133.55205" xlink:href="#m64dd3ed32c" y="307.584"/>
      </g>
     </g>
     <g id="text_2">
      <!-- 0.2 -->
      <defs>
       <path d="M 19.1875 8.296875 
L 53.609375 8.296875 
L 53.609375 0 
L 7.328125 0 
L 7.328125 8.296875 
Q 12.9375 14.109375 22.625 23.890625 
Q 32.328125 33.6875 34.8125 36.53125 
Q 39.546875 41.84375 41.421875 45.53125 
Q 43.3125 49.21875 43.3125 52.78125 
Q 43.3125 58.59375 39.234375 62.25 
Q 35.15625 65.921875 28.609375 65.921875 
Q 23.96875 65.921875 18.8125 64.3125 
Q 13.671875 62.703125 7.8125 59.421875 
L 7.8125 69.390625 
Q 13.765625 71.78125 18.9375 73 
Q 24.125 74.21875 28.421875 74.21875 
Q 39.75 74.21875 46.484375 68.546875 
Q 53.21875 62.890625 53.21875 53.421875 
Q 53.21875 48.921875 51.53125 44.890625 
Q 49.859375 40.875 45.40625 35.40625 
Q 44.1875 33.984375 37.640625 27.21875 
Q 31.109375 20.453125 19.1875 8.296875 
z
" id="DejaVuSans-32"/>
      </defs>
      <g transform="translate(125.600488 322.182437)scale(0.1 -0.1)">
       <use xlink:href="#DejaVuSans-30"/>
       <use x="63.623047" xlink:href="#DejaVuSans-2e"/>
       <use x="95.410156" xlink:href="#DejaVuSans-32"/>
      </g>
     </g>
    </g>
    <g id="xtick_3">
     <g id="line2d_3">
      <g>
       <use style="stroke:#000000;stroke-width:0.8;" x="193.271374" xlink:href="#m64dd3ed32c" y="307.584"/>
      </g>
     </g>
     <g id="text_3">
      <!-- 0.4 -->
      <defs>
       <path d="M 37.796875 64.3125 
L 12.890625 25.390625 
L 37.796875 25.390625 
z
M 35.203125 72.90625 
L 47.609375 72.90625 
L 47.609375 25.390625 
L 58.015625 25.390625 
L 58.015625 17.1875 
L 47.609375 17.1875 
L 47.609375 0 
L 37.796875 0 
L 37.796875 17.1875 
L 4.890625 17.1875 
L 4.890625 26.703125 
z
" id="DejaVuSans-34"/>
      </defs>
      <g transform="translate(185.319811 322.182437)scale(0.1 -0.1)">
       <use xlink:href="#DejaVuSans-30"/>
       <use x="63.623047" xlink:href="#DejaVuSans-2e"/>
       <use x="95.410156" xlink:href="#DejaVuSans-34"/>
      </g>
     </g>
    </g>
    <g id="xtick_4">
     <g id="line2d_4">
      <g>
       <use style="stroke:#000000;stroke-width:0.8;" x="252.990697" xlink:href="#m64dd3ed32c" y="307.584"/>
      </g>
     </g>
     <g id="text_4">
      <!-- 0.6 -->
      <defs>
       <path d="M 33.015625 40.375 
Q 26.375 40.375 22.484375 35.828125 
Q 18.609375 31.296875 18.609375 23.390625 
Q 18.609375 15.53125 22.484375 10.953125 
Q 26.375 6.390625 33.015625 6.390625 
Q 39.65625 6.390625 43.53125 10.953125 
Q 47.40625 15.53125 47.40625 23.390625 
Q 47.40625 31.296875 43.53125 35.828125 
Q 39.65625 40.375 33.015625 40.375 
z
M 52.59375 71.296875 
L 52.59375 62.3125 
Q 48.875 64.0625 45.09375 64.984375 
Q 41.3125 65.921875 37.59375 65.921875 
Q 27.828125 65.921875 22.671875 59.328125 
Q 17.53125 52.734375 16.796875 39.40625 
Q 19.671875 43.65625 24.015625 45.921875 
Q 28.375 48.1875 33.59375 48.1875 
Q 44.578125 48.1875 50.953125 41.515625 
Q 57.328125 34.859375 57.328125 23.390625 
Q 57.328125 12.15625 50.6875 5.359375 
Q 44.046875 -1.421875 33.015625 -1.421875 
Q 20.359375 -1.421875 13.671875 8.265625 
Q 6.984375 17.96875 6.984375 36.375 
Q 6.984375 53.65625 15.1875 63.9375 
Q 23.390625 74.21875 37.203125 74.21875 
Q 40.921875 74.21875 44.703125 73.484375 
Q 48.484375 72.75 52.59375 71.296875 
z
" id="DejaVuSans-36"/>
      </defs>
      <g transform="translate(245.039134 322.182437)scale(0.1 -0.1)">
       <use xlink:href="#DejaVuSans-30"/>
       <use x="63.623047" xlink:href="#DejaVuSans-2e"/>
       <use x="95.410156" xlink:href="#DejaVuSans-36"/>
      </g>
     </g>
    </g>
    <g id="xtick_5">
     <g id="line2d_5">
      <g>
       <use style="stroke:#000000;stroke-width:0.8;" x="312.71002" xlink:href="#m64dd3ed32c" y="307.584"/>
      </g>
     </g>
     <g id="text_5">
      <!-- 0.8 -->
      <defs>
       <path d="M 31.78125 34.625 
Q 24.75 34.625 20.71875 30.859375 
Q 16.703125 27.09375 16.703125 20.515625 
Q 16.703125 13.921875 20.71875 10.15625 
Q 24.75 6.390625 31.78125 6.390625 
Q 38.8125 6.390625 42.859375 10.171875 
Q 46.921875 13.96875 46.921875 20.515625 
Q 46.921875 27.09375 42.890625 30.859375 
Q 38.875 34.625 31.78125 34.625 
z
M 21.921875 38.8125 
Q 15.578125 40.375 12.03125 44.71875 
Q 8.5 49.078125 8.5 55.328125 
Q 8.5 64.0625 14.71875 69.140625 
Q 20.953125 74.21875 31.78125 74.21875 
Q 42.671875 74.21875 48.875 69.140625 
Q 55.078125 64.0625 55.078125 55.328125 
Q 55.078125 49.078125 51.53125 44.71875 
Q 48 40.375 41.703125 38.8125 
Q 48.828125 37.15625 52.796875 32.3125 
Q 56.78125 27.484375 56.78125 20.515625 
Q 56.78125 9.90625 50.3125 4.234375 
Q 43.84375 -1.421875 31.78125 -1.421875 
Q 19.734375 -1.421875 13.25 4.234375 
Q 6.78125 9.90625 6.78125 20.515625 
Q 6.78125 27.484375 10.78125 32.3125 
Q 14.796875 37.15625 21.921875 38.8125 
z
M 18.3125 54.390625 
Q 18.3125 48.734375 21.84375 45.5625 
Q 25.390625 42.390625 31.78125 42.390625 
Q 38.140625 42.390625 41.71875 45.5625 
Q 45.3125 48.734375 45.3125 54.390625 
Q 45.3125 60.0625 41.71875 63.234375 
Q 38.140625 66.40625 31.78125 66.40625 
Q 25.390625 66.40625 21.84375 63.234375 
Q 18.3125 60.0625 18.3125 54.390625 
z
" id="DejaVuSans-38"/>
      </defs>
      <g transform="translate(304.758458 322.182437)scale(0.1 -0.1)">
       <use xlink:href="#DejaVuSans-30"/>
       <use x="63.623047" xlink:href="#DejaVuSans-2e"/>
       <use x="95.410156" xlink:href="#DejaVuSans-38"/>
      </g>
     </g>
    </g>
    <g id="xtick_6">
     <g id="line2d_6">
      <g>
       <use style="stroke:#000000;stroke-width:0.8;" x="372.429343" xlink:href="#m64dd3ed32c" y="307.584"/>
      </g>
     </g>
     <g id="text_6">
      <!-- 1.0 -->
      <defs>
       <path d="M 12.40625 8.296875 
L 28.515625 8.296875 
L 28.515625 63.921875 
L 10.984375 60.40625 
L 10.984375 69.390625 
L 28.421875 72.90625 
L 38.28125 72.90625 
L 38.28125 8.296875 
L 54.390625 8.296875 
L 54.390625 0 
L 12.40625 0 
z
" id="DejaVuSans-31"/>
      </defs>
      <g transform="translate(364.477781 322.182437)scale(0.1 -0.1)">
       <use xlink:href="#DejaVuSans-31"/>
       <use x="63.623047" xlink:href="#DejaVuSans-2e"/>
       <use x="95.410156" xlink:href="#DejaVuSans-30"/>
      </g>
     </g>
    </g>
   </g>
   <g id="matplotlib.axis_2">
    <g id="ytick_1">
     <g id="line2d_7">
      <defs>
       <path d="M 0 0 
L -3.5 0 
" id="mb3ad997afd" style="stroke:#000000;stroke-width:0.8;"/>
      </defs>
      <g>
       <use style="stroke:#000000;stroke-width:0.8;" x="57.6" xlink:href="#mb3ad997afd" y="294.837677"/>
      </g>
     </g>
     <g id="text_7">
      <!-- 0.30030 -->
      <defs>
       <path d="M 40.578125 39.3125 
Q 47.65625 37.796875 51.625 33 
Q 55.609375 28.21875 55.609375 21.1875 
Q 55.609375 10.40625 48.1875 4.484375 
Q 40.765625 -1.421875 27.09375 -1.421875 
Q 22.515625 -1.421875 17.65625 -0.515625 
Q 12.796875 0.390625 7.625 2.203125 
L 7.625 11.71875 
Q 11.71875 9.328125 16.59375 8.109375 
Q 21.484375 6.890625 26.8125 6.890625 
Q 36.078125 6.890625 40.9375 10.546875 
Q 45.796875 14.203125 45.796875 21.1875 
Q 45.796875 27.640625 41.28125 31.265625 
Q 36.765625 34.90625 28.71875 34.90625 
L 20.21875 34.90625 
L 20.21875 43.015625 
L 29.109375 43.015625 
Q 36.375 43.015625 40.234375 45.921875 
Q 44.09375 48.828125 44.09375 54.296875 
Q 44.09375 59.90625 40.109375 62.90625 
Q 36.140625 65.921875 28.71875 65.921875 
Q 24.65625 65.921875 20.015625 65.03125 
Q 15.375 64.15625 9.8125 62.3125 
L 9.8125 71.09375 
Q 15.4375 72.65625 20.34375 73.4375 
Q 25.25 74.21875 29.59375 74.21875 
Q 40.828125 74.21875 47.359375 69.109375 
Q 53.90625 64.015625 53.90625 55.328125 
Q 53.90625 49.265625 50.4375 45.09375 
Q 46.96875 40.921875 40.578125 39.3125 
z
" id="DejaVuSans-33"/>
      </defs>
      <g transform="translate(9.246875 298.636896)scale(0.1 -0.1)">
       <use xlink:href="#DejaVuSans-30"/>
       <use x="63.623047" xlink:href="#DejaVuSans-2e"/>
       <use x="95.410156" xlink:href="#DejaVuSans-33"/>
       <use x="159.033203" xlink:href="#DejaVuSans-30"/>
       <use x="222.65625" xlink:href="#DejaVuSans-30"/>
       <use x="286.279297" xlink:href="#DejaVuSans-33"/>
       <use x="349.902344" xlink:href="#DejaVuSans-30"/>
      </g>
     </g>
    </g>
    <g id="ytick_2">
     <g id="line2d_8">
      <g>
       <use style="stroke:#000000;stroke-width:0.8;" x="57.6" xlink:href="#mb3ad997afd" y="262.321548"/>
      </g>
     </g>
     <g id="text_8">
      <!-- 0.30035 -->
      <defs>
       <path d="M 10.796875 72.90625 
L 49.515625 72.90625 
L 49.515625 64.59375 
L 19.828125 64.59375 
L 19.828125 46.734375 
Q 21.96875 47.46875 24.109375 47.828125 
Q 26.265625 48.1875 28.421875 48.1875 
Q 40.625 48.1875 47.75 41.5 
Q 54.890625 34.8125 54.890625 23.390625 
Q 54.890625 11.625 47.5625 5.09375 
Q 40.234375 -1.421875 26.90625 -1.421875 
Q 22.3125 -1.421875 17.546875 -0.640625 
Q 12.796875 0.140625 7.71875 1.703125 
L 7.71875 11.625 
Q 12.109375 9.234375 16.796875 8.0625 
Q 21.484375 6.890625 26.703125 6.890625 
Q 35.15625 6.890625 40.078125 11.328125 
Q 45.015625 15.765625 45.015625 23.390625 
Q 45.015625 31 40.078125 35.4375 
Q 35.15625 39.890625 26.703125 39.890625 
Q 22.75 39.890625 18.8125 39.015625 
Q 14.890625 38.140625 10.796875 36.28125 
z
" id="DejaVuSans-35"/>
      </defs>
      <g transform="translate(9.246875 266.120767)scale(0.1 -0.1)">
       <use xlink:href="#DejaVuSans-30"/>
       <use x="63.623047" xlink:href="#DejaVuSans-2e"/>
       <use x="95.410156" xlink:href="#DejaVuSans-33"/>
       <use x="159.033203" xlink:href="#DejaVuSans-30"/>
       <use x="222.65625" xlink:href="#DejaVuSans-30"/>
       <use x="286.279297" xlink:href="#DejaVuSans-33"/>
       <use x="349.902344" xlink:href="#DejaVuSans-35"/>
      </g>
     </g>
    </g>
    <g id="ytick_3">
     <g id="line2d_9">
      <g>
       <use style="stroke:#000000;stroke-width:0.8;" x="57.6" xlink:href="#mb3ad997afd" y="229.805419"/>
      </g>
     </g>
     <g id="text_9">
      <!-- 0.30040 -->
      <g transform="translate(9.246875 233.604638)scale(0.1 -0.1)">
       <use xlink:href="#DejaVuSans-30"/>
       <use x="63.623047" xlink:href="#DejaVuSans-2e"/>
       <use x="95.410156" xlink:href="#DejaVuSans-33"/>
       <use x="159.033203" xlink:href="#DejaVuSans-30"/>
       <use x="222.65625" xlink:href="#DejaVuSans-30"/>
       <use x="286.279297" xlink:href="#DejaVuSans-34"/>
       <use x="349.902344" xlink:href="#DejaVuSans-30"/>
      </g>
     </g>
    </g>
    <g id="ytick_4">
     <g id="line2d_10">
      <g>
       <use style="stroke:#000000;stroke-width:0.8;" x="57.6" xlink:href="#mb3ad997afd" y="197.28929"/>
      </g>
     </g>
     <g id="text_10">
      <!-- 0.30045 -->
      <g transform="translate(9.246875 201.088509)scale(0.1 -0.1)">
       <use xlink:href="#DejaVuSans-30"/>
       <use x="63.623047" xlink:href="#DejaVuSans-2e"/>
       <use x="95.410156" xlink:href="#DejaVuSans-33"/>
       <use x="159.033203" xlink:href="#DejaVuSans-30"/>
       <use x="222.65625" xlink:href="#DejaVuSans-30"/>
       <use x="286.279297" xlink:href="#DejaVuSans-34"/>
       <use x="349.902344" xlink:href="#DejaVuSans-35"/>
      </g>
     </g>
    </g>
    <g id="ytick_5">
     <g id="line2d_11">
      <g>
       <use style="stroke:#000000;stroke-width:0.8;" x="57.6" xlink:href="#mb3ad997afd" y="164.773161"/>
      </g>
     </g>
     <g id="text_11">
      <!-- 0.30050 -->
      <g transform="translate(9.246875 168.57238)scale(0.1 -0.1)">
       <use xlink:href="#DejaVuSans-30"/>
       <use x="63.623047" xlink:href="#DejaVuSans-2e"/>
       <use x="95.410156" xlink:href="#DejaVuSans-33"/>
       <use x="159.033203" xlink:href="#DejaVuSans-30"/>
       <use x="222.65625" xlink:href="#DejaVuSans-30"/>
       <use x="286.279297" xlink:href="#DejaVuSans-35"/>
       <use x="349.902344" xlink:href="#DejaVuSans-30"/>
      </g>
     </g>
    </g>
    <g id="ytick_6">
     <g id="line2d_12">
      <g>
       <use style="stroke:#000000;stroke-width:0.8;" x="57.6" xlink:href="#mb3ad997afd" y="132.257032"/>
      </g>
     </g>
     <g id="text_12">
      <!-- 0.30055 -->
      <g transform="translate(9.246875 136.056251)scale(0.1 -0.1)">
       <use xlink:href="#DejaVuSans-30"/>
       <use x="63.623047" xlink:href="#DejaVuSans-2e"/>
       <use x="95.410156" xlink:href="#DejaVuSans-33"/>
       <use x="159.033203" xlink:href="#DejaVuSans-30"/>
       <use x="222.65625" xlink:href="#DejaVuSans-30"/>
       <use x="286.279297" xlink:href="#DejaVuSans-35"/>
       <use x="349.902344" xlink:href="#DejaVuSans-35"/>
      </g>
     </g>
    </g>
    <g id="ytick_7">
     <g id="line2d_13">
      <g>
       <use style="stroke:#000000;stroke-width:0.8;" x="57.6" xlink:href="#mb3ad997afd" y="99.740903"/>
      </g>
     </g>
     <g id="text_13">
      <!-- 0.30060 -->
      <g transform="translate(9.246875 103.540122)scale(0.1 -0.1)">
       <use xlink:href="#DejaVuSans-30"/>
       <use x="63.623047" xlink:href="#DejaVuSans-2e"/>
       <use x="95.410156" xlink:href="#DejaVuSans-33"/>
       <use x="159.033203" xlink:href="#DejaVuSans-30"/>
       <use x="222.65625" xlink:href="#DejaVuSans-30"/>
       <use x="286.279297" xlink:href="#DejaVuSans-36"/>
       <use x="349.902344" xlink:href="#DejaVuSans-30"/>
      </g>
     </g>
    </g>
    <g id="ytick_8">
     <g id="line2d_14">
      <g>
       <use style="stroke:#000000;stroke-width:0.8;" x="57.6" xlink:href="#mb3ad997afd" y="67.224774"/>
      </g>
     </g>
     <g id="text_14">
      <!-- 0.30065 -->
      <g transform="translate(9.246875 71.023993)scale(0.1 -0.1)">
       <use xlink:href="#DejaVuSans-30"/>
       <use x="63.623047" xlink:href="#DejaVuSans-2e"/>
       <use x="95.410156" xlink:href="#DejaVuSans-33"/>
       <use x="159.033203" xlink:href="#DejaVuSans-30"/>
       <use x="222.65625" xlink:href="#DejaVuSans-30"/>
       <use x="286.279297" xlink:href="#DejaVuSans-36"/>
       <use x="349.902344" xlink:href="#DejaVuSans-35"/>
      </g>
     </g>
    </g>
   </g>
   <g id="line2d_15">
    <path clip-path="url(#pe680940617)" d="M 73.832727 220.050581 
L 78.415588 214.197677 
L 82.823173 242.161548 
L 87.269575 208.995097 
L 91.674472 220.050581 
L 96.193433 235.008 
L 100.565187 229.155097 
L 104.94112 246.713806 
L 109.334671 216.148645 
L 113.810634 201.841548 
L 118.197018 210.946065 
L 122.595645 242.811871 
L 126.988001 244.762839 
L 131.36274 244.112516 
L 135.763158 134.208 
L 140.158799 253.867355 
L 144.585793 229.805419 
L 148.973371 242.161548 
L 153.56101 201.191226 
L 157.948887 226.553806 
L 162.485167 258.419613 
L 166.894244 240.210581 
L 171.456502 232.40671 
L 175.894245 225.253161 
L 180.607294 102.992516 
L 185.04653 262.971871 
L 189.644321 53.568 
L 194.072807 241.511226 
L 198.674778 181.031226 
L 203.076689 243.462194 
L 207.73629 274.027355 
L 212.183289 288.334452 
L 216.825869 255.168 
L 221.920525 263.622194 
L 226.323332 277.92929 
L 230.72166 266.223484 
L 235.242114 253.867355 
L 239.658358 240.860903 
L 244.291383 261.671226 
L 248.734202 256.468645 
L 253.170153 272.72671 
L 257.58162 295.488 
L 262.196729 229.155097 
L 266.591474 249.315097 
L 271.512645 222.651871 
L 276.059674 244.762839 
L 280.607898 280.530581 
L 285.010406 279.880258 
L 289.295268 216.798968 
L 293.542805 187.534452 
L 298.21405 207.044129 
L 302.600733 272.72671 
L 307.742268 248.014452 
L 312.463081 259.069935 
L 316.878429 272.72671 
L 321.276757 264.272516 
L 325.701959 189.485419 
L 330.123578 269.475097 
L 334.913664 244.112516 
L 339.313784 261.671226 
L 343.761679 216.148645 
L 348.157917 205.743484 
L 352.85962 262.971871 
L 357.238838 265.573161 
L 362.450842 252.56671 
L 366.916354 264.922839 
L 371.310203 257.76929 
L 375.701066 209.645419 
L 380.195543 265.573161 
L 384.586406 234.357677 
L 388.977269 274.027355 
L 393.358279 210.295742 
L 398.487273 265.573161 
" style="fill:none;stroke:#ff0000;stroke-dasharray:5.55,2.4;stroke-dashoffset:0;stroke-width:1.5;"/>
    <defs>
     <path d="M -3 3 
L 3 3 
L 3 -3 
L -3 -3 
z
" id="ma163aa5724" style="stroke:#ff0000;stroke-linejoin:miter;"/>
    </defs>
    <g clip-path="url(#pe680940617)">
     <use style="fill:#ff0000;stroke:#ff0000;stroke-linejoin:miter;" x="73.832727" xlink:href="#ma163aa5724" y="220.050581"/>
     <use style="fill:#ff0000;stroke:#ff0000;stroke-linejoin:miter;" x="78.415588" xlink:href="#ma163aa5724" y="214.197677"/>
     <use style="fill:#ff0000;stroke:#ff0000;stroke-linejoin:miter;" x="82.823173" xlink:href="#ma163aa5724" y="242.161548"/>
     <use style="fill:#ff0000;stroke:#ff0000;stroke-linejoin:miter;" x="87.269575" xlink:href="#ma163aa5724" y="208.995097"/>
     <use style="fill:#ff0000;stroke:#ff0000;stroke-linejoin:miter;" x="91.674472" xlink:href="#ma163aa5724" y="220.050581"/>
     <use style="fill:#ff0000;stroke:#ff0000;stroke-linejoin:miter;" x="96.193433" xlink:href="#ma163aa5724" y="235.008"/>
     <use style="fill:#ff0000;stroke:#ff0000;stroke-linejoin:miter;" x="100.565187" xlink:href="#ma163aa5724" y="229.155097"/>
     <use style="fill:#ff0000;stroke:#ff0000;stroke-linejoin:miter;" x="104.94112" xlink:href="#ma163aa5724" y="246.713806"/>
     <use style="fill:#ff0000;stroke:#ff0000;stroke-linejoin:miter;" x="109.334671" xlink:href="#ma163aa5724" y="216.148645"/>
     <use style="fill:#ff0000;stroke:#ff0000;stroke-linejoin:miter;" x="113.810634" xlink:href="#ma163aa5724" y="201.841548"/>
     <use style="fill:#ff0000;stroke:#ff0000;stroke-linejoin:miter;" x="118.197018" xlink:href="#ma163aa5724" y="210.946065"/>
     <use style="fill:#ff0000;stroke:#ff0000;stroke-linejoin:miter;" x="122.595645" xlink:href="#ma163aa5724" y="242.811871"/>
     <use style="fill:#ff0000;stroke:#ff0000;stroke-linejoin:miter;" x="126.988001" xlink:href="#ma163aa5724" y="244.762839"/>
     <use style="fill:#ff0000;stroke:#ff0000;stroke-linejoin:miter;" x="131.36274" xlink:href="#ma163aa5724" y="244.112516"/>
     <use style="fill:#ff0000;stroke:#ff0000;stroke-linejoin:miter;" x="135.763158" xlink:href="#ma163aa5724" y="134.208"/>
     <use style="fill:#ff0000;stroke:#ff0000;stroke-linejoin:miter;" x="140.158799" xlink:href="#ma163aa5724" y="253.867355"/>
     <use style="fill:#ff0000;stroke:#ff0000;stroke-linejoin:miter;" x="144.585793" xlink:href="#ma163aa5724" y="229.805419"/>
     <use style="fill:#ff0000;stroke:#ff0000;stroke-linejoin:miter;" x="148.973371" xlink:href="#ma163aa5724" y="242.161548"/>
     <use style="fill:#ff0000;stroke:#ff0000;stroke-linejoin:miter;" x="153.56101" xlink:href="#ma163aa5724" y="201.191226"/>
     <use style="fill:#ff0000;stroke:#ff0000;stroke-linejoin:miter;" x="157.948887" xlink:href="#ma163aa5724" y="226.553806"/>
     <use style="fill:#ff0000;stroke:#ff0000;stroke-linejoin:miter;" x="162.485167" xlink:href="#ma163aa5724" y="258.419613"/>
     <use style="fill:#ff0000;stroke:#ff0000;stroke-linejoin:miter;" x="166.894244" xlink:href="#ma163aa5724" y="240.210581"/>
     <use style="fill:#ff0000;stroke:#ff0000;stroke-linejoin:miter;" x="171.456502" xlink:href="#ma163aa5724" y="232.40671"/>
     <use style="fill:#ff0000;stroke:#ff0000;stroke-linejoin:miter;" x="175.894245" xlink:href="#ma163aa5724" y="225.253161"/>
     <use style="fill:#ff0000;stroke:#ff0000;stroke-linejoin:miter;" x="180.607294" xlink:href="#ma163aa5724" y="102.992516"/>
     <use style="fill:#ff0000;stroke:#ff0000;stroke-linejoin:miter;" x="185.04653" xlink:href="#ma163aa5724" y="262.971871"/>
     <use style="fill:#ff0000;stroke:#ff0000;stroke-linejoin:miter;" x="189.644321" xlink:href="#ma163aa5724" y="53.568"/>
     <use style="fill:#ff0000;stroke:#ff0000;stroke-linejoin:miter;" x="194.072807" xlink:href="#ma163aa5724" y="241.511226"/>
     <use style="fill:#ff0000;stroke:#ff0000;stroke-linejoin:miter;" x="198.674778" xlink:href="#ma163aa5724" y="181.031226"/>
     <use style="fill:#ff0000;stroke:#ff0000;stroke-linejoin:miter;" x="203.076689" xlink:href="#ma163aa5724" y="243.462194"/>
     <use style="fill:#ff0000;stroke:#ff0000;stroke-linejoin:miter;" x="207.73629" xlink:href="#ma163aa5724" y="274.027355"/>
     <use style="fill:#ff0000;stroke:#ff0000;stroke-linejoin:miter;" x="212.183289" xlink:href="#ma163aa5724" y="288.334452"/>
     <use style="fill:#ff0000;stroke:#ff0000;stroke-linejoin:miter;" x="216.825869" xlink:href="#ma163aa5724" y="255.168"/>
     <use style="fill:#ff0000;stroke:#ff0000;stroke-linejoin:miter;" x="221.920525" xlink:href="#ma163aa5724" y="263.622194"/>
     <use style="fill:#ff0000;stroke:#ff0000;stroke-linejoin:miter;" x="226.323332" xlink:href="#ma163aa5724" y="277.92929"/>
     <use style="fill:#ff0000;stroke:#ff0000;stroke-linejoin:miter;" x="230.72166" xlink:href="#ma163aa5724" y="266.223484"/>
     <use style="fill:#ff0000;stroke:#ff0000;stroke-linejoin:miter;" x="235.242114" xlink:href="#ma163aa5724" y="253.867355"/>
     <use style="fill:#ff0000;stroke:#ff0000;stroke-linejoin:miter;" x="239.658358" xlink:href="#ma163aa5724" y="240.860903"/>
     <use style="fill:#ff0000;stroke:#ff0000;stroke-linejoin:miter;" x="244.291383" xlink:href="#ma163aa5724" y="261.671226"/>
     <use style="fill:#ff0000;stroke:#ff0000;stroke-linejoin:miter;" x="248.734202" xlink:href="#ma163aa5724" y="256.468645"/>
     <use style="fill:#ff0000;stroke:#ff0000;stroke-linejoin:miter;" x="253.170153" xlink:href="#ma163aa5724" y="272.72671"/>
     <use style="fill:#ff0000;stroke:#ff0000;stroke-linejoin:miter;" x="257.58162" xlink:href="#ma163aa5724" y="295.488"/>
     <use style="fill:#ff0000;stroke:#ff0000;stroke-linejoin:miter;" x="262.196729" xlink:href="#ma163aa5724" y="229.155097"/>
     <use style="fill:#ff0000;stroke:#ff0000;stroke-linejoin:miter;" x="266.591474" xlink:href="#ma163aa5724" y="249.315097"/>
     <use style="fill:#ff0000;stroke:#ff0000;stroke-linejoin:miter;" x="271.512645" xlink:href="#ma163aa5724" y="222.651871"/>
     <use style="fill:#ff0000;stroke:#ff0000;stroke-linejoin:miter;" x="276.059674" xlink:href="#ma163aa5724" y="244.762839"/>
     <use style="fill:#ff0000;stroke:#ff0000;stroke-linejoin:miter;" x="280.607898" xlink:href="#ma163aa5724" y="280.530581"/>
     <use style="fill:#ff0000;stroke:#ff0000;stroke-linejoin:miter;" x="285.010406" xlink:href="#ma163aa5724" y="279.880258"/>
     <use style="fill:#ff0000;stroke:#ff0000;stroke-linejoin:miter;" x="289.295268" xlink:href="#ma163aa5724" y="216.798968"/>
     <use style="fill:#ff0000;stroke:#ff0000;stroke-linejoin:miter;" x="293.542805" xlink:href="#ma163aa5724" y="187.534452"/>
     <use style="fill:#ff0000;stroke:#ff0000;stroke-linejoin:miter;" x="298.21405" xlink:href="#ma163aa5724" y="207.044129"/>
     <use style="fill:#ff0000;stroke:#ff0000;stroke-linejoin:miter;" x="302.600733" xlink:href="#ma163aa5724" y="272.72671"/>
     <use style="fill:#ff0000;stroke:#ff0000;stroke-linejoin:miter;" x="307.742268" xlink:href="#ma163aa5724" y="248.014452"/>
     <use style="fill:#ff0000;stroke:#ff0000;stroke-linejoin:miter;" x="312.463081" xlink:href="#ma163aa5724" y="259.069935"/>
     <use style="fill:#ff0000;stroke:#ff0000;stroke-linejoin:miter;" x="316.878429" xlink:href="#ma163aa5724" y="272.72671"/>
     <use style="fill:#ff0000;stroke:#ff0000;stroke-linejoin:miter;" x="321.276757" xlink:href="#ma163aa5724" y="264.272516"/>
     <use style="fill:#ff0000;stroke:#ff0000;stroke-linejoin:miter;" x="325.701959" xlink:href="#ma163aa5724" y="189.485419"/>
     <use style="fill:#ff0000;stroke:#ff0000;stroke-linejoin:miter;" x="330.123578" xlink:href="#ma163aa5724" y="269.475097"/>
     <use style="fill:#ff0000;stroke:#ff0000;stroke-linejoin:miter;" x="334.913664" xlink:href="#ma163aa5724" y="244.112516"/>
     <use style="fill:#ff0000;stroke:#ff0000;stroke-linejoin:miter;" x="339.313784" xlink:href="#ma163aa5724" y="261.671226"/>
     <use style="fill:#ff0000;stroke:#ff0000;stroke-linejoin:miter;" x="343.761679" xlink:href="#ma163aa5724" y="216.148645"/>
     <use style="fill:#ff0000;stroke:#ff0000;stroke-linejoin:miter;" x="348.157917" xlink:href="#ma163aa5724" y="205.743484"/>
     <use style="fill:#ff0000;stroke:#ff0000;stroke-linejoin:miter;" x="352.85962" xlink:href="#ma163aa5724" y="262.971871"/>
     <use style="fill:#ff0000;stroke:#ff0000;stroke-linejoin:miter;" x="357.238838" xlink:href="#ma163aa5724" y="265.573161"/>
     <use style="fill:#ff0000;stroke:#ff0000;stroke-linejoin:miter;" x="362.450842" xlink:href="#ma163aa5724" y="252.56671"/>
     <use style="fill:#ff0000;stroke:#ff0000;stroke-linejoin:miter;" x="366.916354" xlink:href="#ma163aa5724" y="264.922839"/>
     <use style="fill:#ff0000;stroke:#ff0000;stroke-linejoin:miter;" x="371.310203" xlink:href="#ma163aa5724" y="257.76929"/>
     <use style="fill:#ff0000;stroke:#ff0000;stroke-linejoin:miter;" x="375.701066" xlink:href="#ma163aa5724" y="209.645419"/>
     <use style="fill:#ff0000;stroke:#ff0000;stroke-linejoin:miter;" x="380.195543" xlink:href="#ma163aa5724" y="265.573161"/>
     <use style="fill:#ff0000;stroke:#ff0000;stroke-linejoin:miter;" x="384.586406" xlink:href="#ma163aa5724" y="234.357677"/>
     <use style="fill:#ff0000;stroke:#ff0000;stroke-linejoin:miter;" x="388.977269" xlink:href="#ma163aa5724" y="274.027355"/>
     <use style="fill:#ff0000;stroke:#ff0000;stroke-linejoin:miter;" x="393.358279" xlink:href="#ma163aa5724" y="210.295742"/>
     <use style="fill:#ff0000;stroke:#ff0000;stroke-linejoin:miter;" x="398.487273" xlink:href="#ma163aa5724" y="265.573161"/>
    </g>
   </g>
   <g id="line2d_16">
    <path clip-path="url(#pe680940617)" d="M 78.415588 214.197677 
L 82.823173 242.161548 
L 87.269575 208.995097 
L 91.674472 220.050581 
L 96.193433 235.008 
L 100.565187 229.155097 
L 104.94112 246.713806 
L 109.334671 216.148645 
L 113.810634 201.841548 
L 118.197018 210.946065 
L 122.595645 242.811871 
L 126.988001 244.762839 
L 131.36274 244.112516 
L 175.894245 225.253161 
L 185.04653 262.971871 
L 221.920525 263.622194 
L 226.323332 277.92929 
L 230.72166 266.223484 
L 235.242114 253.867355 
L 239.658358 240.860903 
L 244.291383 261.671226 
L 248.734202 256.468645 
L 253.170153 272.72671 
L 257.58162 295.488 
L 266.591474 249.315097 
L 271.512645 222.651871 
L 276.059674 244.762839 
L 280.607898 280.530581 
L 285.010406 279.880258 
L 293.542805 187.534452 
L 298.21405 207.044129 
L 302.600733 272.72671 
L 307.742268 248.014452 
L 312.463081 259.069935 
L 316.878429 272.72671 
L 321.276757 264.272516 
L 348.157917 205.743484 
L 352.85962 262.971871 
L 357.238838 265.573161 
L 362.450842 252.56671 
L 366.916354 264.922839 
L 371.310203 257.76929 
L 398.487273 265.573161 
" style="fill:none;stroke:#800080;stroke-dasharray:9.6,2.4,1.5,2.4;stroke-dashoffset:0;stroke-width:1.5;"/>
    <defs>
     <path d="M -3 3 
L 3 -3 
M -3 -3 
L 3 3 
" id="mfe5d3cd5d9" style="stroke:#800080;"/>
    </defs>
    <g clip-path="url(#pe680940617)">
     <use style="fill:#800080;stroke:#800080;" x="78.415588" xlink:href="#mfe5d3cd5d9" y="214.197677"/>
     <use style="fill:#800080;stroke:#800080;" x="82.823173" xlink:href="#mfe5d3cd5d9" y="242.161548"/>
     <use style="fill:#800080;stroke:#800080;" x="87.269575" xlink:href="#mfe5d3cd5d9" y="208.995097"/>
     <use style="fill:#800080;stroke:#800080;" x="91.674472" xlink:href="#mfe5d3cd5d9" y="220.050581"/>
     <use style="fill:#800080;stroke:#800080;" x="96.193433" xlink:href="#mfe5d3cd5d9" y="235.008"/>
     <use style="fill:#800080;stroke:#800080;" x="100.565187" xlink:href="#mfe5d3cd5d9" y="229.155097"/>
     <use style="fill:#800080;stroke:#800080;" x="104.94112" xlink:href="#mfe5d3cd5d9" y="246.713806"/>
     <use style="fill:#800080;stroke:#800080;" x="109.334671" xlink:href="#mfe5d3cd5d9" y="216.148645"/>
     <use style="fill:#800080;stroke:#800080;" x="113.810634" xlink:href="#mfe5d3cd5d9" y="201.841548"/>
     <use style="fill:#800080;stroke:#800080;" x="118.197018" xlink:href="#mfe5d3cd5d9" y="210.946065"/>
     <use style="fill:#800080;stroke:#800080;" x="122.595645" xlink:href="#mfe5d3cd5d9" y="242.811871"/>
     <use style="fill:#800080;stroke:#800080;" x="126.988001" xlink:href="#mfe5d3cd5d9" y="244.762839"/>
     <use style="fill:#800080;stroke:#800080;" x="131.36274" xlink:href="#mfe5d3cd5d9" y="244.112516"/>
     <use style="fill:#800080;stroke:#800080;" x="175.894245" xlink:href="#mfe5d3cd5d9" y="225.253161"/>
     <use style="fill:#800080;stroke:#800080;" x="185.04653" xlink:href="#mfe5d3cd5d9" y="262.971871"/>
     <use style="fill:#800080;stroke:#800080;" x="221.920525" xlink:href="#mfe5d3cd5d9" y="263.622194"/>
     <use style="fill:#800080;stroke:#800080;" x="226.323332" xlink:href="#mfe5d3cd5d9" y="277.92929"/>
     <use style="fill:#800080;stroke:#800080;" x="230.72166" xlink:href="#mfe5d3cd5d9" y="266.223484"/>
     <use style="fill:#800080;stroke:#800080;" x="235.242114" xlink:href="#mfe5d3cd5d9" y="253.867355"/>
     <use style="fill:#800080;stroke:#800080;" x="239.658358" xlink:href="#mfe5d3cd5d9" y="240.860903"/>
     <use style="fill:#800080;stroke:#800080;" x="244.291383" xlink:href="#mfe5d3cd5d9" y="261.671226"/>
     <use style="fill:#800080;stroke:#800080;" x="248.734202" xlink:href="#mfe5d3cd5d9" y="256.468645"/>
     <use style="fill:#800080;stroke:#800080;" x="253.170153" xlink:href="#mfe5d3cd5d9" y="272.72671"/>
     <use style="fill:#800080;stroke:#800080;" x="257.58162" xlink:href="#mfe5d3cd5d9" y="295.488"/>
     <use style="fill:#800080;stroke:#800080;" x="266.591474" xlink:href="#mfe5d3cd5d9" y="249.315097"/>
     <use style="fill:#800080;stroke:#800080;" x="271.512645" xlink:href="#mfe5d3cd5d9" y="222.651871"/>
     <use style="fill:#800080;stroke:#800080;" x="276.059674" xlink:href="#mfe5d3cd5d9" y="244.762839"/>
     <use style="fill:#800080;stroke:#800080;" x="280.607898" xlink:href="#mfe5d3cd5d9" y="280.530581"/>
     <use style="fill:#800080;stroke:#800080;" x="285.010406" xlink:href="#mfe5d3cd5d9" y="279.880258"/>
     <use style="fill:#800080;stroke:#800080;" x="293.542805" xlink:href="#mfe5d3cd5d9" y="187.534452"/>
     <use style="fill:#800080;stroke:#800080;" x="298.21405" xlink:href="#mfe5d3cd5d9" y="207.044129"/>
     <use style="fill:#800080;stroke:#800080;" x="302.600733" xlink:href="#mfe5d3cd5d9" y="272.72671"/>
     <use style="fill:#800080;stroke:#800080;" x="307.742268" xlink:href="#mfe5d3cd5d9" y="248.014452"/>
     <use style="fill:#800080;stroke:#800080;" x="312.463081" xlink:href="#mfe5d3cd5d9" y="259.069935"/>
     <use style="fill:#800080;stroke:#800080;" x="316.878429" xlink:href="#mfe5d3cd5d9" y="272.72671"/>
     <use style="fill:#800080;stroke:#800080;" x="321.276757" xlink:href="#mfe5d3cd5d9" y="264.272516"/>
     <use style="fill:#800080;stroke:#800080;" x="348.157917" xlink:href="#mfe5d3cd5d9" y="205.743484"/>
     <use style="fill:#800080;stroke:#800080;" x="352.85962" xlink:href="#mfe5d3cd5d9" y="262.971871"/>
     <use style="fill:#800080;stroke:#800080;" x="357.238838" xlink:href="#mfe5d3cd5d9" y="265.573161"/>
     <use style="fill:#800080;stroke:#800080;" x="362.450842" xlink:href="#mfe5d3cd5d9" y="252.56671"/>
     <use style="fill:#800080;stroke:#800080;" x="366.916354" xlink:href="#mfe5d3cd5d9" y="264.922839"/>
     <use style="fill:#800080;stroke:#800080;" x="371.310203" xlink:href="#mfe5d3cd5d9" y="257.76929"/>
     <use style="fill:#800080;stroke:#800080;" x="398.487273" xlink:href="#mfe5d3cd5d9" y="265.573161"/>
    </g>
   </g>
   <g id="line2d_17">
    <path clip-path="url(#pe680940617)" d="M 78.415588 228.928837 
L 82.823173 229.432107 
L 87.269575 229.939809 
L 91.674472 230.442773 
L 96.193433 230.95876 
L 100.565187 231.457939 
L 104.94112 231.957595 
L 109.334671 232.459263 
L 113.810634 232.97034 
L 118.197018 233.47119 
L 122.595645 233.973437 
L 126.988001 234.474968 
L 131.36274 234.974488 
L 175.894245 240.059218 
L 185.04653 241.104251 
L 221.920525 245.314625 
L 226.323332 245.817349 
L 230.72166 246.319563 
L 235.242114 246.835721 
L 239.658358 247.339979 
L 244.291383 247.868991 
L 248.734202 248.376284 
L 253.170153 248.882793 
L 257.58162 249.386507 
L 266.591474 250.415277 
L 271.512645 250.977189 
L 276.059674 251.496382 
L 280.607898 252.01571 
L 285.010406 252.518401 
L 293.542805 253.492654 
L 298.21405 254.026029 
L 302.600733 254.526913 
L 307.742268 255.113987 
L 312.463081 255.653023 
L 316.878429 256.157179 
L 321.276757 256.659392 
L 348.157917 259.728757 
L 352.85962 260.265611 
L 357.238838 260.765642 
L 362.450842 261.360763 
L 366.916354 261.870647 
L 371.310203 262.372349 
L 398.487273 265.475501 
" style="fill:none;stroke:#0000ff;stroke-linecap:square;stroke-width:1.5;"/>
   </g>
   <g id="line2d_18">
    <path clip-path="url(#pe680940617)" d="M 78.415588 228.491242 
L 82.823173 229.001939 
L 87.269575 229.517133 
L 91.674472 230.027518 
L 96.193433 230.551119 
L 100.565187 231.057664 
L 104.94112 231.564693 
L 109.334671 232.073763 
L 113.810634 232.592382 
L 118.197018 233.100622 
L 122.595645 233.610281 
L 126.988001 234.119212 
L 131.36274 234.626103 
L 175.894245 239.785863 
L 185.04653 240.846317 
L 221.920525 245.118819 
L 226.323332 245.628962 
L 230.72166 246.138586 
L 235.242114 246.66236 
L 239.658358 247.17406 
L 244.291383 247.710877 
L 248.734202 248.225656 
L 253.170153 248.739639 
L 257.58162 249.250786 
L 266.591474 250.294736 
L 271.512645 250.86494 
L 276.059674 251.391794 
L 280.607898 251.918786 
L 285.010406 252.428894 
L 293.542805 253.417523 
L 298.21405 253.958769 
L 302.600733 254.467044 
L 307.742268 255.062781 
L 312.463081 255.60977 
L 316.878429 256.121366 
L 321.276757 256.63099 
L 348.157917 259.745647 
L 352.85962 260.290422 
L 357.238838 260.797831 
L 362.450842 261.401734 
L 366.916354 261.919142 
L 371.310203 262.428247 
L 398.487273 265.57719 
" style="fill:none;stroke:#008000;stroke-linecap:square;stroke-width:1.5;"/>
    <defs>
     <path d="M 0 3 
C 0.795609 3 1.55874 2.683901 2.12132 2.12132 
C 2.683901 1.55874 3 0.795609 3 0 
C 3 -0.795609 2.683901 -1.55874 2.12132 -2.12132 
C 1.55874 -2.683901 0.795609 -3 0 -3 
C -0.795609 -3 -1.55874 -2.683901 -2.12132 -2.12132 
C -2.683901 -1.55874 -3 -0.795609 -3 0 
C -3 0.795609 -2.683901 1.55874 -2.12132 2.12132 
C -1.55874 2.683901 -0.795609 3 0 3 
z
" id="ma0f76743c3" style="stroke:#008000;"/>
    </defs>
    <g clip-path="url(#pe680940617)">
     <use style="fill:#008000;stroke:#008000;" x="78.415588" xlink:href="#ma0f76743c3" y="228.491242"/>
     <use style="fill:#008000;stroke:#008000;" x="82.823173" xlink:href="#ma0f76743c3" y="229.001939"/>
     <use style="fill:#008000;stroke:#008000;" x="87.269575" xlink:href="#ma0f76743c3" y="229.517133"/>
     <use style="fill:#008000;stroke:#008000;" x="91.674472" xlink:href="#ma0f76743c3" y="230.027518"/>
     <use style="fill:#008000;stroke:#008000;" x="96.193433" xlink:href="#ma0f76743c3" y="230.551119"/>
     <use style="fill:#008000;stroke:#008000;" x="100.565187" xlink:href="#ma0f76743c3" y="231.057664"/>
     <use style="fill:#008000;stroke:#008000;" x="104.94112" xlink:href="#ma0f76743c3" y="231.564693"/>
     <use style="fill:#008000;stroke:#008000;" x="109.334671" xlink:href="#ma0f76743c3" y="232.073763"/>
     <use style="fill:#008000;stroke:#008000;" x="113.810634" xlink:href="#ma0f76743c3" y="232.592382"/>
     <use style="fill:#008000;stroke:#008000;" x="118.197018" xlink:href="#ma0f76743c3" y="233.100622"/>
     <use style="fill:#008000;stroke:#008000;" x="122.595645" xlink:href="#ma0f76743c3" y="233.610281"/>
     <use style="fill:#008000;stroke:#008000;" x="126.988001" xlink:href="#ma0f76743c3" y="234.119212"/>
     <use style="fill:#008000;stroke:#008000;" x="131.36274" xlink:href="#ma0f76743c3" y="234.626103"/>
     <use style="fill:#008000;stroke:#008000;" x="175.894245" xlink:href="#ma0f76743c3" y="239.785863"/>
     <use style="fill:#008000;stroke:#008000;" x="185.04653" xlink:href="#ma0f76743c3" y="240.846317"/>
     <use style="fill:#008000;stroke:#008000;" x="221.920525" xlink:href="#ma0f76743c3" y="245.118819"/>
     <use style="fill:#008000;stroke:#008000;" x="226.323332" xlink:href="#ma0f76743c3" y="245.628962"/>
     <use style="fill:#008000;stroke:#008000;" x="230.72166" xlink:href="#ma0f76743c3" y="246.138586"/>
     <use style="fill:#008000;stroke:#008000;" x="235.242114" xlink:href="#ma0f76743c3" y="246.66236"/>
     <use style="fill:#008000;stroke:#008000;" x="239.658358" xlink:href="#ma0f76743c3" y="247.17406"/>
     <use style="fill:#008000;stroke:#008000;" x="244.291383" xlink:href="#ma0f76743c3" y="247.710877"/>
     <use style="fill:#008000;stroke:#008000;" x="248.734202" xlink:href="#ma0f76743c3" y="248.225656"/>
     <use style="fill:#008000;stroke:#008000;" x="253.170153" xlink:href="#ma0f76743c3" y="248.739639"/>
     <use style="fill:#008000;stroke:#008000;" x="257.58162" xlink:href="#ma0f76743c3" y="249.250786"/>
     <use style="fill:#008000;stroke:#008000;" x="266.591474" xlink:href="#ma0f76743c3" y="250.294736"/>
     <use style="fill:#008000;stroke:#008000;" x="271.512645" xlink:href="#ma0f76743c3" y="250.86494"/>
     <use style="fill:#008000;stroke:#008000;" x="276.059674" xlink:href="#ma0f76743c3" y="251.391794"/>
     <use style="fill:#008000;stroke:#008000;" x="280.607898" xlink:href="#ma0f76743c3" y="251.918786"/>
     <use style="fill:#008000;stroke:#008000;" x="285.010406" xlink:href="#ma0f76743c3" y="252.428894"/>
     <use style="fill:#008000;stroke:#008000;" x="293.542805" xlink:href="#ma0f76743c3" y="253.417523"/>
     <use style="fill:#008000;stroke:#008000;" x="298.21405" xlink:href="#ma0f76743c3" y="253.958769"/>
     <use style="fill:#008000;stroke:#008000;" x="302.600733" xlink:href="#ma0f76743c3" y="254.467044"/>
     <use style="fill:#008000;stroke:#008000;" x="307.742268" xlink:href="#ma0f76743c3" y="255.062781"/>
     <use style="fill:#008000;stroke:#008000;" x="312.463081" xlink:href="#ma0f76743c3" y="255.60977"/>
     <use style="fill:#008000;stroke:#008000;" x="316.878429" xlink:href="#ma0f76743c3" y="256.121366"/>
     <use style="fill:#008000;stroke:#008000;" x="321.276757" xlink:href="#ma0f76743c3" y="256.63099"/>
     <use style="fill:#008000;stroke:#008000;" x="348.157917" xlink:href="#ma0f76743c3" y="259.745647"/>
     <use style="fill:#008000;stroke:#008000;" x="352.85962" xlink:href="#ma0f76743c3" y="260.290422"/>
     <use style="fill:#008000;stroke:#008000;" x="357.238838" xlink:href="#ma0f76743c3" y="260.797831"/>
     <use style="fill:#008000;stroke:#008000;" x="362.450842" xlink:href="#ma0f76743c3" y="261.401734"/>
     <use style="fill:#008000;stroke:#008000;" x="366.916354" xlink:href="#ma0f76743c3" y="261.919142"/>
     <use style="fill:#008000;stroke:#008000;" x="371.310203" xlink:href="#ma0f76743c3" y="262.428247"/>
     <use style="fill:#008000;stroke:#008000;" x="398.487273" xlink:href="#ma0f76743c3" y="265.57719"/>
    </g>
   </g>
   <g id="patch_3">
    <path d="M 57.6 307.584 
L 57.6 41.472 
" style="fill:none;stroke:#000000;stroke-linecap:square;stroke-linejoin:miter;stroke-width:0.8;"/>
   </g>
   <g id="patch_4">
    <path d="M 414.72 307.584 
L 414.72 41.472 
" style="fill:none;stroke:#000000;stroke-linecap:square;stroke-linejoin:miter;stroke-width:0.8;"/>
   </g>
   <g id="patch_5">
    <path d="M 57.6 307.584 
L 414.72 307.584 
" style="fill:none;stroke:#000000;stroke-linecap:square;stroke-linejoin:miter;stroke-width:0.8;"/>
   </g>
   <g id="patch_6">
    <path d="M 57.6 41.472 
L 414.72 41.472 
" style="fill:none;stroke:#000000;stroke-linecap:square;stroke-linejoin:miter;stroke-width:0.8;"/>
   </g>
   <g id="text_15">
    <!-- 875000.0 bit/s -->
    <defs>
     <path d="M 8.203125 72.90625 
L 55.078125 72.90625 
L 55.078125 68.703125 
L 28.609375 0 
L 18.3125 0 
L 43.21875 64.59375 
L 8.203125 64.59375 
z
" id="DejaVuSans-37"/>
     <path id="DejaVuSans-20"/>
     <path d="M 48.6875 27.296875 
Q 48.6875 37.203125 44.609375 42.84375 
Q 40.53125 48.484375 33.40625 48.484375 
Q 26.265625 48.484375 22.1875 42.84375 
Q 18.109375 37.203125 18.109375 27.296875 
Q 18.109375 17.390625 22.1875 11.75 
Q 26.265625 6.109375 33.40625 6.109375 
Q 40.53125 6.109375 44.609375 11.75 
Q 48.6875 17.390625 48.6875 27.296875 
z
M 18.109375 46.390625 
Q 20.953125 51.265625 25.265625 53.625 
Q 29.59375 56 35.59375 56 
Q 45.5625 56 51.78125 48.09375 
Q 58.015625 40.1875 58.015625 27.296875 
Q 58.015625 14.40625 51.78125 6.484375 
Q 45.5625 -1.421875 35.59375 -1.421875 
Q 29.59375 -1.421875 25.265625 0.953125 
Q 20.953125 3.328125 18.109375 8.203125 
L 18.109375 0 
L 9.078125 0 
L 9.078125 75.984375 
L 18.109375 75.984375 
z
" id="DejaVuSans-62"/>
     <path d="M 9.421875 54.6875 
L 18.40625 54.6875 
L 18.40625 0 
L 9.421875 0 
z
M 9.421875 75.984375 
L 18.40625 75.984375 
L 18.40625 64.59375 
L 9.421875 64.59375 
z
" id="DejaVuSans-69"/>
     <path d="M 18.3125 70.21875 
L 18.3125 54.6875 
L 36.8125 54.6875 
L 36.8125 47.703125 
L 18.3125 47.703125 
L 18.3125 18.015625 
Q 18.3125 11.328125 20.140625 9.421875 
Q 21.96875 7.515625 27.59375 7.515625 
L 36.8125 7.515625 
L 36.8125 0 
L 27.59375 0 
Q 17.1875 0 13.234375 3.875 
Q 9.28125 7.765625 9.28125 18.015625 
L 9.28125 47.703125 
L 2.6875 47.703125 
L 2.6875 54.6875 
L 9.28125 54.6875 
L 9.28125 70.21875 
z
" id="DejaVuSans-74"/>
     <path d="M 25.390625 72.90625 
L 33.6875 72.90625 
L 8.296875 -9.28125 
L 0 -9.28125 
z
" id="DejaVuSans-2f"/>
     <path d="M 44.28125 53.078125 
L 44.28125 44.578125 
Q 40.484375 46.53125 36.375 47.5 
Q 32.28125 48.484375 27.875 48.484375 
Q 21.1875 48.484375 17.84375 46.4375 
Q 14.5 44.390625 14.5 40.28125 
Q 14.5 37.15625 16.890625 35.375 
Q 19.28125 33.59375 26.515625 31.984375 
L 29.59375 31.296875 
Q 39.15625 29.25 43.1875 25.515625 
Q 47.21875 21.78125 47.21875 15.09375 
Q 47.21875 7.46875 41.1875 3.015625 
Q 35.15625 -1.421875 24.609375 -1.421875 
Q 20.21875 -1.421875 15.453125 -0.5625 
Q 10.6875 0.296875 5.421875 2 
L 5.421875 11.28125 
Q 10.40625 8.6875 15.234375 7.390625 
Q 20.0625 6.109375 24.8125 6.109375 
Q 31.15625 6.109375 34.5625 8.28125 
Q 37.984375 10.453125 37.984375 14.40625 
Q 37.984375 18.0625 35.515625 20.015625 
Q 33.0625 21.96875 24.703125 23.78125 
L 21.578125 24.515625 
Q 13.234375 26.265625 9.515625 29.90625 
Q 5.8125 33.546875 5.8125 39.890625 
Q 5.8125 47.609375 11.28125 51.796875 
Q 16.75 56 26.8125 56 
Q 31.78125 56 36.171875 55.265625 
Q 40.578125 54.546875 44.28125 53.078125 
z
" id="DejaVuSans-73"/>
    </defs>
    <g transform="translate(192.64875 35.472)scale(0.12 -0.12)">
     <use xlink:href="#DejaVuSans-38"/>
     <use x="63.623047" xlink:href="#DejaVuSans-37"/>
     <use x="127.246094" xlink:href="#DejaVuSans-35"/>
     <use x="190.869141" xlink:href="#DejaVuSans-30"/>
     <use x="254.492188" xlink:href="#DejaVuSans-30"/>
     <use x="318.115234" xlink:href="#DejaVuSans-30"/>
     <use x="381.738281" xlink:href="#DejaVuSans-2e"/>
     <use x="413.525391" xlink:href="#DejaVuSans-30"/>
     <use x="477.148438" xlink:href="#DejaVuSans-20"/>
     <use x="508.935547" xlink:href="#DejaVuSans-62"/>
     <use x="572.412109" xlink:href="#DejaVuSans-69"/>
     <use x="600.195312" xlink:href="#DejaVuSans-74"/>
     <use x="639.404297" xlink:href="#DejaVuSans-2f"/>
     <use x="673.095703" xlink:href="#DejaVuSans-73"/>
    </g>
   </g>
   <g id="legend_1">
    <g id="patch_7">
     <path d="M 292.240313 108.1845 
L 407.72 108.1845 
Q 409.72 108.1845 409.72 106.1845 
L 409.72 48.472 
Q 409.72 46.472 407.72 46.472 
L 292.240313 46.472 
Q 290.240313 46.472 290.240313 48.472 
L 290.240313 106.1845 
Q 290.240313 108.1845 292.240313 108.1845 
z
" style="fill:#ffffff;opacity:0.8;stroke:#cccccc;stroke-linejoin:miter;"/>
    </g>
    <g id="line2d_19">
     <path d="M 294.240313 54.570438 
L 314.240313 54.570438 
" style="fill:none;stroke:#ff0000;stroke-dasharray:5.55,2.4;stroke-dashoffset:0;stroke-width:1.5;"/>
    </g>
    <g id="line2d_20">
     <g>
      <use style="fill:#ff0000;stroke:#ff0000;stroke-linejoin:miter;" x="304.240313" xlink:href="#ma163aa5724" y="54.570438"/>
     </g>
    </g>
    <g id="text_16">
     <!-- tcpdump -->
     <defs>
      <path d="M 48.78125 52.59375 
L 48.78125 44.1875 
Q 44.96875 46.296875 41.140625 47.34375 
Q 37.3125 48.390625 33.40625 48.390625 
Q 24.65625 48.390625 19.8125 42.84375 
Q 14.984375 37.3125 14.984375 27.296875 
Q 14.984375 17.28125 19.8125 11.734375 
Q 24.65625 6.203125 33.40625 6.203125 
Q 37.3125 6.203125 41.140625 7.25 
Q 44.96875 8.296875 48.78125 10.40625 
L 48.78125 2.09375 
Q 45.015625 0.34375 40.984375 -0.53125 
Q 36.96875 -1.421875 32.421875 -1.421875 
Q 20.0625 -1.421875 12.78125 6.34375 
Q 5.515625 14.109375 5.515625 27.296875 
Q 5.515625 40.671875 12.859375 48.328125 
Q 20.21875 56 33.015625 56 
Q 37.15625 56 41.109375 55.140625 
Q 45.0625 54.296875 48.78125 52.59375 
z
" id="DejaVuSans-63"/>
      <path d="M 18.109375 8.203125 
L 18.109375 -20.796875 
L 9.078125 -20.796875 
L 9.078125 54.6875 
L 18.109375 54.6875 
L 18.109375 46.390625 
Q 20.953125 51.265625 25.265625 53.625 
Q 29.59375 56 35.59375 56 
Q 45.5625 56 51.78125 48.09375 
Q 58.015625 40.1875 58.015625 27.296875 
Q 58.015625 14.40625 51.78125 6.484375 
Q 45.5625 -1.421875 35.59375 -1.421875 
Q 29.59375 -1.421875 25.265625 0.953125 
Q 20.953125 3.328125 18.109375 8.203125 
z
M 48.6875 27.296875 
Q 48.6875 37.203125 44.609375 42.84375 
Q 40.53125 48.484375 33.40625 48.484375 
Q 26.265625 48.484375 22.1875 42.84375 
Q 18.109375 37.203125 18.109375 27.296875 
Q 18.109375 17.390625 22.1875 11.75 
Q 26.265625 6.109375 33.40625 6.109375 
Q 40.53125 6.109375 44.609375 11.75 
Q 48.6875 17.390625 48.6875 27.296875 
z
" id="DejaVuSans-70"/>
      <path d="M 45.40625 46.390625 
L 45.40625 75.984375 
L 54.390625 75.984375 
L 54.390625 0 
L 45.40625 0 
L 45.40625 8.203125 
Q 42.578125 3.328125 38.25 0.953125 
Q 33.9375 -1.421875 27.875 -1.421875 
Q 17.96875 -1.421875 11.734375 6.484375 
Q 5.515625 14.40625 5.515625 27.296875 
Q 5.515625 40.1875 11.734375 48.09375 
Q 17.96875 56 27.875 56 
Q 33.9375 56 38.25 53.625 
Q 42.578125 51.265625 45.40625 46.390625 
z
M 14.796875 27.296875 
Q 14.796875 17.390625 18.875 11.75 
Q 22.953125 6.109375 30.078125 6.109375 
Q 37.203125 6.109375 41.296875 11.75 
Q 45.40625 17.390625 45.40625 27.296875 
Q 45.40625 37.203125 41.296875 42.84375 
Q 37.203125 48.484375 30.078125 48.484375 
Q 22.953125 48.484375 18.875 42.84375 
Q 14.796875 37.203125 14.796875 27.296875 
z
" id="DejaVuSans-64"/>
      <path d="M 8.5 21.578125 
L 8.5 54.6875 
L 17.484375 54.6875 
L 17.484375 21.921875 
Q 17.484375 14.15625 20.5 10.265625 
Q 23.53125 6.390625 29.59375 6.390625 
Q 36.859375 6.390625 41.078125 11.03125 
Q 45.3125 15.671875 45.3125 23.6875 
L 45.3125 54.6875 
L 54.296875 54.6875 
L 54.296875 0 
L 45.3125 0 
L 45.3125 8.40625 
Q 42.046875 3.421875 37.71875 1 
Q 33.40625 -1.421875 27.6875 -1.421875 
Q 18.265625 -1.421875 13.375 4.4375 
Q 8.5 10.296875 8.5 21.578125 
z
M 31.109375 56 
z
" id="DejaVuSans-75"/>
      <path d="M 52 44.1875 
Q 55.375 50.25 60.0625 53.125 
Q 64.75 56 71.09375 56 
Q 79.640625 56 84.28125 50.015625 
Q 88.921875 44.046875 88.921875 33.015625 
L 88.921875 0 
L 79.890625 0 
L 79.890625 32.71875 
Q 79.890625 40.578125 77.09375 44.375 
Q 74.3125 48.1875 68.609375 48.1875 
Q 61.625 48.1875 57.5625 43.546875 
Q 53.515625 38.921875 53.515625 30.90625 
L 53.515625 0 
L 44.484375 0 
L 44.484375 32.71875 
Q 44.484375 40.625 41.703125 44.40625 
Q 38.921875 48.1875 33.109375 48.1875 
Q 26.21875 48.1875 22.15625 43.53125 
Q 18.109375 38.875 18.109375 30.90625 
L 18.109375 0 
L 9.078125 0 
L 9.078125 54.6875 
L 18.109375 54.6875 
L 18.109375 46.1875 
Q 21.1875 51.21875 25.484375 53.609375 
Q 29.78125 56 35.6875 56 
Q 41.65625 56 45.828125 52.96875 
Q 50 49.953125 52 44.1875 
z
" id="DejaVuSans-6d"/>
     </defs>
     <g transform="translate(322.240313 58.070438)scale(0.1 -0.1)">
      <use xlink:href="#DejaVuSans-74"/>
      <use x="39.208984" xlink:href="#DejaVuSans-63"/>
      <use x="94.189453" xlink:href="#DejaVuSans-70"/>
      <use x="157.666016" xlink:href="#DejaVuSans-64"/>
      <use x="221.142578" xlink:href="#DejaVuSans-75"/>
      <use x="284.521484" xlink:href="#DejaVuSans-6d"/>
      <use x="381.933594" xlink:href="#DejaVuSans-70"/>
     </g>
    </g>
    <g id="line2d_21">
     <path d="M 294.240313 69.248563 
L 314.240313 69.248563 
" style="fill:none;stroke:#800080;stroke-dasharray:9.6,2.4,1.5,2.4;stroke-dashoffset:0;stroke-width:1.5;"/>
    </g>
    <g id="line2d_22">
     <g>
      <use style="fill:#800080;stroke:#800080;" x="304.240313" xlink:href="#mfe5d3cd5d9" y="69.248563"/>
     </g>
    </g>
    <g id="text_17">
     <!-- filtered tcpdump -->
     <defs>
      <path d="M 37.109375 75.984375 
L 37.109375 68.5 
L 28.515625 68.5 
Q 23.6875 68.5 21.796875 66.546875 
Q 19.921875 64.59375 19.921875 59.515625 
L 19.921875 54.6875 
L 34.71875 54.6875 
L 34.71875 47.703125 
L 19.921875 47.703125 
L 19.921875 0 
L 10.890625 0 
L 10.890625 47.703125 
L 2.296875 47.703125 
L 2.296875 54.6875 
L 10.890625 54.6875 
L 10.890625 58.5 
Q 10.890625 67.625 15.140625 71.796875 
Q 19.390625 75.984375 28.609375 75.984375 
z
" id="DejaVuSans-66"/>
      <path d="M 9.421875 75.984375 
L 18.40625 75.984375 
L 18.40625 0 
L 9.421875 0 
z
" id="DejaVuSans-6c"/>
      <path d="M 56.203125 29.59375 
L 56.203125 25.203125 
L 14.890625 25.203125 
Q 15.484375 15.921875 20.484375 11.0625 
Q 25.484375 6.203125 34.421875 6.203125 
Q 39.59375 6.203125 44.453125 7.46875 
Q 49.3125 8.734375 54.109375 11.28125 
L 54.109375 2.78125 
Q 49.265625 0.734375 44.1875 -0.34375 
Q 39.109375 -1.421875 33.890625 -1.421875 
Q 20.796875 -1.421875 13.15625 6.1875 
Q 5.515625 13.8125 5.515625 26.8125 
Q 5.515625 40.234375 12.765625 48.109375 
Q 20.015625 56 32.328125 56 
Q 43.359375 56 49.78125 48.890625 
Q 56.203125 41.796875 56.203125 29.59375 
z
M 47.21875 32.234375 
Q 47.125 39.59375 43.09375 43.984375 
Q 39.0625 48.390625 32.421875 48.390625 
Q 24.90625 48.390625 20.390625 44.140625 
Q 15.875 39.890625 15.1875 32.171875 
z
" id="DejaVuSans-65"/>
      <path d="M 41.109375 46.296875 
Q 39.59375 47.171875 37.8125 47.578125 
Q 36.03125 48 33.890625 48 
Q 26.265625 48 22.1875 43.046875 
Q 18.109375 38.09375 18.109375 28.8125 
L 18.109375 0 
L 9.078125 0 
L 9.078125 54.6875 
L 18.109375 54.6875 
L 18.109375 46.1875 
Q 20.953125 51.171875 25.484375 53.578125 
Q 30.03125 56 36.53125 56 
Q 37.453125 56 38.578125 55.875 
Q 39.703125 55.765625 41.0625 55.515625 
z
" id="DejaVuSans-72"/>
     </defs>
     <g transform="translate(322.240313 72.748563)scale(0.1 -0.1)">
      <use xlink:href="#DejaVuSans-66"/>
      <use x="35.205078" xlink:href="#DejaVuSans-69"/>
      <use x="62.988281" xlink:href="#DejaVuSans-6c"/>
      <use x="90.771484" xlink:href="#DejaVuSans-74"/>
      <use x="129.980469" xlink:href="#DejaVuSans-65"/>
      <use x="191.503906" xlink:href="#DejaVuSans-72"/>
      <use x="232.585938" xlink:href="#DejaVuSans-65"/>
      <use x="294.109375" xlink:href="#DejaVuSans-64"/>
      <use x="357.585938" xlink:href="#DejaVuSans-20"/>
      <use x="389.373047" xlink:href="#DejaVuSans-74"/>
      <use x="428.582031" xlink:href="#DejaVuSans-63"/>
      <use x="483.5625" xlink:href="#DejaVuSans-70"/>
      <use x="547.039062" xlink:href="#DejaVuSans-64"/>
      <use x="610.515625" xlink:href="#DejaVuSans-75"/>
      <use x="673.894531" xlink:href="#DejaVuSans-6d"/>
      <use x="771.306641" xlink:href="#DejaVuSans-70"/>
     </g>
    </g>
    <g id="line2d_23">
     <path d="M 294.240313 83.926688 
L 314.240313 83.926688 
" style="fill:none;stroke:#0000ff;stroke-linecap:square;stroke-width:1.5;"/>
    </g>
    <g id="line2d_24"/>
    <g id="text_18">
     <!-- OLS -->
     <defs>
      <path d="M 39.40625 66.21875 
Q 28.65625 66.21875 22.328125 58.203125 
Q 16.015625 50.203125 16.015625 36.375 
Q 16.015625 22.609375 22.328125 14.59375 
Q 28.65625 6.59375 39.40625 6.59375 
Q 50.140625 6.59375 56.421875 14.59375 
Q 62.703125 22.609375 62.703125 36.375 
Q 62.703125 50.203125 56.421875 58.203125 
Q 50.140625 66.21875 39.40625 66.21875 
z
M 39.40625 74.21875 
Q 54.734375 74.21875 63.90625 63.9375 
Q 73.09375 53.65625 73.09375 36.375 
Q 73.09375 19.140625 63.90625 8.859375 
Q 54.734375 -1.421875 39.40625 -1.421875 
Q 24.03125 -1.421875 14.8125 8.828125 
Q 5.609375 19.09375 5.609375 36.375 
Q 5.609375 53.65625 14.8125 63.9375 
Q 24.03125 74.21875 39.40625 74.21875 
z
" id="DejaVuSans-4f"/>
      <path d="M 9.8125 72.90625 
L 19.671875 72.90625 
L 19.671875 8.296875 
L 55.171875 8.296875 
L 55.171875 0 
L 9.8125 0 
z
" id="DejaVuSans-4c"/>
      <path d="M 53.515625 70.515625 
L 53.515625 60.890625 
Q 47.90625 63.578125 42.921875 64.890625 
Q 37.9375 66.21875 33.296875 66.21875 
Q 25.25 66.21875 20.875 63.09375 
Q 16.5 59.96875 16.5 54.203125 
Q 16.5 49.359375 19.40625 46.890625 
Q 22.3125 44.4375 30.421875 42.921875 
L 36.375 41.703125 
Q 47.40625 39.59375 52.65625 34.296875 
Q 57.90625 29 57.90625 20.125 
Q 57.90625 9.515625 50.796875 4.046875 
Q 43.703125 -1.421875 29.984375 -1.421875 
Q 24.8125 -1.421875 18.96875 -0.25 
Q 13.140625 0.921875 6.890625 3.21875 
L 6.890625 13.375 
Q 12.890625 10.015625 18.65625 8.296875 
Q 24.421875 6.59375 29.984375 6.59375 
Q 38.421875 6.59375 43.015625 9.90625 
Q 47.609375 13.234375 47.609375 19.390625 
Q 47.609375 24.75 44.3125 27.78125 
Q 41.015625 30.8125 33.5 32.328125 
L 27.484375 33.5 
Q 16.453125 35.6875 11.515625 40.375 
Q 6.59375 45.0625 6.59375 53.421875 
Q 6.59375 63.09375 13.40625 68.65625 
Q 20.21875 74.21875 32.171875 74.21875 
Q 37.3125 74.21875 42.625 73.28125 
Q 47.953125 72.359375 53.515625 70.515625 
z
" id="DejaVuSans-53"/>
     </defs>
     <g transform="translate(322.240313 87.426688)scale(0.1 -0.1)">
      <use xlink:href="#DejaVuSans-4f"/>
      <use x="78.710938" xlink:href="#DejaVuSans-4c"/>
      <use x="134.423828" xlink:href="#DejaVuSans-53"/>
     </g>
    </g>
    <g id="line2d_25">
     <path d="M 294.240313 98.604813 
L 314.240313 98.604813 
" style="fill:none;stroke:#008000;stroke-linecap:square;stroke-width:1.5;"/>
    </g>
    <g id="line2d_26">
     <g>
      <use style="fill:#008000;stroke:#008000;" x="304.240313" xlink:href="#ma0f76743c3" y="98.604813"/>
     </g>
    </g>
    <g id="text_19">
     <!-- IRLS -->
     <defs>
      <path d="M 9.8125 72.90625 
L 19.671875 72.90625 
L 19.671875 0 
L 9.8125 0 
z
" id="DejaVuSans-49"/>
      <path d="M 44.390625 34.1875 
Q 47.5625 33.109375 50.5625 29.59375 
Q 53.5625 26.078125 56.59375 19.921875 
L 66.609375 0 
L 56 0 
L 46.6875 18.703125 
Q 43.0625 26.03125 39.671875 28.421875 
Q 36.28125 30.8125 30.421875 30.8125 
L 19.671875 30.8125 
L 19.671875 0 
L 9.8125 0 
L 9.8125 72.90625 
L 32.078125 72.90625 
Q 44.578125 72.90625 50.734375 67.671875 
Q 56.890625 62.453125 56.890625 51.90625 
Q 56.890625 45.015625 53.6875 40.46875 
Q 50.484375 35.9375 44.390625 34.1875 
z
M 19.671875 64.796875 
L 19.671875 38.921875 
L 32.078125 38.921875 
Q 39.203125 38.921875 42.84375 42.21875 
Q 46.484375 45.515625 46.484375 51.90625 
Q 46.484375 58.296875 42.84375 61.546875 
Q 39.203125 64.796875 32.078125 64.796875 
z
" id="DejaVuSans-52"/>
     </defs>
     <g transform="translate(322.240313 102.104813)scale(0.1 -0.1)">
      <use xlink:href="#DejaVuSans-49"/>
      <use x="29.492188" xlink:href="#DejaVuSans-52"/>
      <use x="98.974609" xlink:href="#DejaVuSans-4c"/>
      <use x="154.6875" xlink:href="#DejaVuSans-53"/>
     </g>
    </g>
   </g>
  </g>
 </g>
 <defs>
  <clipPath id="pe680940617">
   <rect height="266.112" width="357.12" x="57.6" y="41.472"/>
  </clipPath>
 </defs>
</svg>
