<?xml version="1.0" encoding="utf-8" standalone="no"?>
<!DOCTYPE svg PUBLIC "-//W3C//DTD SVG 1.1//EN"
  "http://www.w3.org/Graphics/SVG/1.1/DTD/svg11.dtd">
<!-- Created with matplotlib (http://matplotlib.org/) -->
<svg height="576pt" version="1.1" viewBox="0 0 1440 576" width="1440pt" xmlns="http://www.w3.org/2000/svg" xmlns:xlink="http://www.w3.org/1999/xlink">
 <defs>
  <style type="text/css">
*{stroke-linecap:butt;stroke-linejoin:round;}
  </style>
 </defs>
 <g id="figure_1">
  <g id="patch_1">
   <path d="M 0 576 
L 1440 576 
L 1440 0 
L 0 0 
z
" style="fill:#ffffff;"/>
  </g>
  <g id="axes_1">
   <g id="patch_2">
    <path d="M 180 512.64 
L 1296 512.64 
L 1296 69.12 
L 180 69.12 
z
" style="fill:#ffffff;"/>
   </g>
   <g id="matplotlib.axis_1">
    <g id="xtick_1">
     <g id="line2d_1">
      <defs>
       <path d="M 0 0 
L 0 3.5 
" id="mcf49ec4e13" style="stroke:#000000;stroke-width:0.8;"/>
      </defs>
      <g>
       <use style="stroke:#000000;stroke-width:0.8;" x="230.727273" xlink:href="#mcf49ec4e13" y="512.64"/>
      </g>
     </g>
     <g id="text_1">
      <!-- 0.00 -->
      <defs>
       <path d="M 31.78125 66.40625 
Q 24.171875 66.40625 20.328125 58.90625 
Q 16.5 51.421875 16.5 36.375 
Q 16.5 21.390625 20.328125 13.890625 
Q 24.171875 6.390625 31.78125 6.390625 
Q 39.453125 6.390625 43.28125 13.890625 
Q 47.125 21.390625 47.125 36.375 
Q 47.125 51.421875 43.28125 58.90625 
Q 39.453125 66.40625 31.78125 66.40625 
z
M 31.78125 74.21875 
Q 44.046875 74.21875 50.515625 64.515625 
Q 56.984375 54.828125 56.984375 36.375 
Q 56.984375 17.96875 50.515625 8.265625 
Q 44.046875 -1.421875 31.78125 -1.421875 
Q 19.53125 -1.421875 13.0625 8.265625 
Q 6.59375 17.96875 6.59375 36.375 
Q 6.59375 54.828125 13.0625 64.515625 
Q 19.53125 74.21875 31.78125 74.21875 
z
" id="DejaVuSans-30"/>
       <path d="M 10.6875 12.40625 
L 21 12.40625 
L 21 0 
L 10.6875 0 
z
" id="DejaVuSans-2e"/>
      </defs>
      <g transform="translate(219.59446 527.238438)scale(0.1 -0.1)">
       <use xlink:href="#DejaVuSans-30"/>
       <use x="63.623047" xlink:href="#DejaVuSans-2e"/>
       <use x="95.410156" xlink:href="#DejaVuSans-30"/>
       <use x="159.033203" xlink:href="#DejaVuSans-30"/>
      </g>
     </g>
    </g>
    <g id="xtick_2">
     <g id="line2d_2">
      <g>
       <use style="stroke:#000000;stroke-width:0.8;" x="432.337991" xlink:href="#mcf49ec4e13" y="512.64"/>
      </g>
     </g>
     <g id="text_2">
      <!-- 0.05 -->
      <defs>
       <path d="M 10.796875 72.90625 
L 49.515625 72.90625 
L 49.515625 64.59375 
L 19.828125 64.59375 
L 19.828125 46.734375 
Q 21.96875 47.46875 24.109375 47.828125 
Q 26.265625 48.1875 28.421875 48.1875 
Q 40.625 48.1875 47.75 41.5 
Q 54.890625 34.8125 54.890625 23.390625 
Q 54.890625 11.625 47.5625 5.09375 
Q 40.234375 -1.421875 26.90625 -1.421875 
Q 22.3125 -1.421875 17.546875 -0.640625 
Q 12.796875 0.140625 7.71875 1.703125 
L 7.71875 11.625 
Q 12.109375 9.234375 16.796875 8.0625 
Q 21.484375 6.890625 26.703125 6.890625 
Q 35.15625 6.890625 40.078125 11.328125 
Q 45.015625 15.765625 45.015625 23.390625 
Q 45.015625 31 40.078125 35.4375 
Q 35.15625 39.890625 26.703125 39.890625 
Q 22.75 39.890625 18.8125 39.015625 
Q 14.890625 38.140625 10.796875 36.28125 
z
" id="DejaVuSans-35"/>
      </defs>
      <g transform="translate(421.205178 527.238438)scale(0.1 -0.1)">
       <use xlink:href="#DejaVuSans-30"/>
       <use x="63.623047" xlink:href="#DejaVuSans-2e"/>
       <use x="95.410156" xlink:href="#DejaVuSans-30"/>
       <use x="159.033203" xlink:href="#DejaVuSans-35"/>
      </g>
     </g>
    </g>
    <g id="xtick_3">
     <g id="line2d_3">
      <g>
       <use style="stroke:#000000;stroke-width:0.8;" x="633.948708" xlink:href="#mcf49ec4e13" y="512.64"/>
      </g>
     </g>
     <g id="text_3">
      <!-- 0.10 -->
      <defs>
       <path d="M 12.40625 8.296875 
L 28.515625 8.296875 
L 28.515625 63.921875 
L 10.984375 60.40625 
L 10.984375 69.390625 
L 28.421875 72.90625 
L 38.28125 72.90625 
L 38.28125 8.296875 
L 54.390625 8.296875 
L 54.390625 0 
L 12.40625 0 
z
" id="DejaVuSans-31"/>
      </defs>
      <g transform="translate(622.815896 527.238438)scale(0.1 -0.1)">
       <use xlink:href="#DejaVuSans-30"/>
       <use x="63.623047" xlink:href="#DejaVuSans-2e"/>
       <use x="95.410156" xlink:href="#DejaVuSans-31"/>
       <use x="159.033203" xlink:href="#DejaVuSans-30"/>
      </g>
     </g>
    </g>
    <g id="xtick_4">
     <g id="line2d_4">
      <g>
       <use style="stroke:#000000;stroke-width:0.8;" x="835.559426" xlink:href="#mcf49ec4e13" y="512.64"/>
      </g>
     </g>
     <g id="text_4">
      <!-- 0.15 -->
      <g transform="translate(824.426614 527.238438)scale(0.1 -0.1)">
       <use xlink:href="#DejaVuSans-30"/>
       <use x="63.623047" xlink:href="#DejaVuSans-2e"/>
       <use x="95.410156" xlink:href="#DejaVuSans-31"/>
       <use x="159.033203" xlink:href="#DejaVuSans-35"/>
      </g>
     </g>
    </g>
    <g id="xtick_5">
     <g id="line2d_5">
      <g>
       <use style="stroke:#000000;stroke-width:0.8;" x="1037.170144" xlink:href="#mcf49ec4e13" y="512.64"/>
      </g>
     </g>
     <g id="text_5">
      <!-- 0.20 -->
      <defs>
       <path d="M 19.1875 8.296875 
L 53.609375 8.296875 
L 53.609375 0 
L 7.328125 0 
L 7.328125 8.296875 
Q 12.9375 14.109375 22.625 23.890625 
Q 32.328125 33.6875 34.8125 36.53125 
Q 39.546875 41.84375 41.421875 45.53125 
Q 43.3125 49.21875 43.3125 52.78125 
Q 43.3125 58.59375 39.234375 62.25 
Q 35.15625 65.921875 28.609375 65.921875 
Q 23.96875 65.921875 18.8125 64.3125 
Q 13.671875 62.703125 7.8125 59.421875 
L 7.8125 69.390625 
Q 13.765625 71.78125 18.9375 73 
Q 24.125 74.21875 28.421875 74.21875 
Q 39.75 74.21875 46.484375 68.546875 
Q 53.21875 62.890625 53.21875 53.421875 
Q 53.21875 48.921875 51.53125 44.890625 
Q 49.859375 40.875 45.40625 35.40625 
Q 44.1875 33.984375 37.640625 27.21875 
Q 31.109375 20.453125 19.1875 8.296875 
z
" id="DejaVuSans-32"/>
      </defs>
      <g transform="translate(1026.037332 527.238438)scale(0.1 -0.1)">
       <use xlink:href="#DejaVuSans-30"/>
       <use x="63.623047" xlink:href="#DejaVuSans-2e"/>
       <use x="95.410156" xlink:href="#DejaVuSans-32"/>
       <use x="159.033203" xlink:href="#DejaVuSans-30"/>
      </g>
     </g>
    </g>
    <g id="xtick_6">
     <g id="line2d_6">
      <g>
       <use style="stroke:#000000;stroke-width:0.8;" x="1238.780862" xlink:href="#mcf49ec4e13" y="512.64"/>
      </g>
     </g>
     <g id="text_6">
      <!-- 0.25 -->
      <g transform="translate(1227.64805 527.238438)scale(0.1 -0.1)">
       <use xlink:href="#DejaVuSans-30"/>
       <use x="63.623047" xlink:href="#DejaVuSans-2e"/>
       <use x="95.410156" xlink:href="#DejaVuSans-32"/>
       <use x="159.033203" xlink:href="#DejaVuSans-35"/>
      </g>
     </g>
    </g>
   </g>
   <g id="matplotlib.axis_2">
    <g id="ytick_1">
     <g id="line2d_7">
      <defs>
       <path d="M 0 0 
L -3.5 0 
" id="m5fb101f0dc" style="stroke:#000000;stroke-width:0.8;"/>
      </defs>
      <g>
       <use style="stroke:#000000;stroke-width:0.8;" x="180" xlink:href="#m5fb101f0dc" y="489.985823"/>
      </g>
     </g>
     <g id="text_7">
      <!-- 0.0 -->
      <g transform="translate(157.096875 493.785042)scale(0.1 -0.1)">
       <use xlink:href="#DejaVuSans-30"/>
       <use x="63.623047" xlink:href="#DejaVuSans-2e"/>
       <use x="95.410156" xlink:href="#DejaVuSans-30"/>
      </g>
     </g>
    </g>
    <g id="ytick_2">
     <g id="line2d_8">
      <g>
       <use style="stroke:#000000;stroke-width:0.8;" x="180" xlink:href="#m5fb101f0dc" y="408.358658"/>
      </g>
     </g>
     <g id="text_8">
      <!-- 0.5 -->
      <g transform="translate(157.096875 412.157877)scale(0.1 -0.1)">
       <use xlink:href="#DejaVuSans-30"/>
       <use x="63.623047" xlink:href="#DejaVuSans-2e"/>
       <use x="95.410156" xlink:href="#DejaVuSans-35"/>
      </g>
     </g>
    </g>
    <g id="ytick_3">
     <g id="line2d_9">
      <g>
       <use style="stroke:#000000;stroke-width:0.8;" x="180" xlink:href="#m5fb101f0dc" y="326.731493"/>
      </g>
     </g>
     <g id="text_9">
      <!-- 1.0 -->
      <g transform="translate(157.096875 330.530712)scale(0.1 -0.1)">
       <use xlink:href="#DejaVuSans-31"/>
       <use x="63.623047" xlink:href="#DejaVuSans-2e"/>
       <use x="95.410156" xlink:href="#DejaVuSans-30"/>
      </g>
     </g>
    </g>
    <g id="ytick_4">
     <g id="line2d_10">
      <g>
       <use style="stroke:#000000;stroke-width:0.8;" x="180" xlink:href="#m5fb101f0dc" y="245.104327"/>
      </g>
     </g>
     <g id="text_10">
      <!-- 1.5 -->
      <g transform="translate(157.096875 248.903546)scale(0.1 -0.1)">
       <use xlink:href="#DejaVuSans-31"/>
       <use x="63.623047" xlink:href="#DejaVuSans-2e"/>
       <use x="95.410156" xlink:href="#DejaVuSans-35"/>
      </g>
     </g>
    </g>
    <g id="ytick_5">
     <g id="line2d_11">
      <g>
       <use style="stroke:#000000;stroke-width:0.8;" x="180" xlink:href="#m5fb101f0dc" y="163.477162"/>
      </g>
     </g>
     <g id="text_11">
      <!-- 2.0 -->
      <g transform="translate(157.096875 167.276381)scale(0.1 -0.1)">
       <use xlink:href="#DejaVuSans-32"/>
       <use x="63.623047" xlink:href="#DejaVuSans-2e"/>
       <use x="95.410156" xlink:href="#DejaVuSans-30"/>
      </g>
     </g>
    </g>
    <g id="ytick_6">
     <g id="line2d_12">
      <g>
       <use style="stroke:#000000;stroke-width:0.8;" x="180" xlink:href="#m5fb101f0dc" y="81.849997"/>
      </g>
     </g>
     <g id="text_12">
      <!-- 2.5 -->
      <g transform="translate(157.096875 85.649216)scale(0.1 -0.1)">
       <use xlink:href="#DejaVuSans-32"/>
       <use x="63.623047" xlink:href="#DejaVuSans-2e"/>
       <use x="95.410156" xlink:href="#DejaVuSans-35"/>
      </g>
     </g>
    </g>
   </g>
   <g id="line2d_13">
    <path clip-path="url(#p7b1c8cd4fe)" d="M 230.727273 432.108082 
L 244.638412 430.712584 
L 255.81571 429.190074 
L 269.501046 427.78625 
L 277.710634 426.150605 
L 286.085544 424.523939 
L 294.762869 422.906741 
L 309.407871 421.532466 
L 317.734394 419.903678 
L 326.331075 418.284848 
L 334.939853 416.666018 
L 349.669532 415.295661 
L 358.000087 413.666709 
L 366.935474 412.06094 
L 375.52409 410.439824 
L 390.423122 409.079589 
L 398.741581 407.446393 
L 407.668903 405.845031 
L 416.25752 404.223752 
L 431.023489 402.855028 
L 439.25727 401.223138 
L 448.176529 399.616715 
L 456.624018 397.992824 
L 471.821434 396.63863 
L 480.156021 395.010168 
L 488.942216 393.400643 
L 497.155836 391.766141 
L 511.945999 390.395947 
L 520.236231 388.765363 
L 529.276456 387.164654 
L 537.518302 385.533417 
L 552.502011 384.173019 
L 560.925306 382.547822 
L 570.034079 380.947113 
L 578.275925 379.314243 
L 593.227376 377.954335 
L 601.505512 376.322445 
L 610.517511 374.721409 
L 618.759357 373.085601 
L 633.880161 371.73059 
L 642.126039 370.099353 
L 651.166264 368.498481 
L 659.597624 366.872631 
L 674.726492 365.517783 
L 682.932049 363.883607 
L 692.101304 362.288449 
L 700.456052 360.660314 
L 715.605081 359.306935 
L 724.092893 357.6788 
L 733.000054 356.075806 
L 741.463672 354.452241 
L 756.653024 353.101149 
L 765.35051 351.48689 
L 773.785902 349.858428 
L 782.447099 348.241394 
L 797.567903 346.889811 
L 806.329905 345.278001 
L 814.632234 343.646927 
L 823.559556 342.037403 
L 838.301332 340.669658 
L 846.906078 339.052297 
L 855.264858 337.423019 
L 863.579284 335.793904 
L 878.893634 157.409488 
L 887.405639 155.791638 
L 895.836999 154.163503 
L 904.248198 152.539775 
L 919.405292 151.187213 
L 927.776169 149.558751 
L 936.75591 147.95543 
L 944.98566 146.320601 
L 960.122592 144.967713 
L 968.606371 143.342679 
L 977.388534 141.733318 
L 985.642477 140.099958 
L 1001.101987 138.756212 
L 1009.839795 137.145381 
L 1018.992922 135.549734 
L 1027.488798 133.927475 
L 1041.807191 132.537365 
L 1050.411936 130.918371 
L 1058.944102 129.298725 
L 1067.399655 127.673365 
L 1082.593039 126.322599 
L 1091.314719 124.708993 
L 1099.588823 123.07645 
L 1107.911313 121.446682 
L 1123.245824 120.10016 
L 1131.612669 118.47431 
L 1140.310155 116.858419 
L 1148.705226 115.227508 
L 1163.938931 113.879843 
L 1172.305776 112.253014 
L 1181.027456 110.638429 
L 1189.382204 109.010783 
L 1204.442525 107.652344 
L 1212.801305 106.024535 
L 1221.680241 104.413541 
L 1230.030957 102.784426 
L 1245.272727 101.437251 
" style="fill:none;stroke:#ff0000;stroke-dasharray:5.55,2.4;stroke-dashoffset:0;stroke-width:1.5;"/>
    <defs>
     <path d="M -3 3 
L 3 3 
L 3 -3 
L -3 -3 
z
" id="m2cba0cc57f" style="stroke:#ff0000;stroke-linejoin:miter;"/>
    </defs>
    <g clip-path="url(#p7b1c8cd4fe)">
     <use style="fill:#ff0000;stroke:#ff0000;stroke-linejoin:miter;" x="230.727273" xlink:href="#m2cba0cc57f" y="432.108082"/>
     <use style="fill:#ff0000;stroke:#ff0000;stroke-linejoin:miter;" x="244.638412" xlink:href="#m2cba0cc57f" y="430.712584"/>
     <use style="fill:#ff0000;stroke:#ff0000;stroke-linejoin:miter;" x="255.81571" xlink:href="#m2cba0cc57f" y="429.190074"/>
     <use style="fill:#ff0000;stroke:#ff0000;stroke-linejoin:miter;" x="269.501046" xlink:href="#m2cba0cc57f" y="427.78625"/>
     <use style="fill:#ff0000;stroke:#ff0000;stroke-linejoin:miter;" x="277.710634" xlink:href="#m2cba0cc57f" y="426.150605"/>
     <use style="fill:#ff0000;stroke:#ff0000;stroke-linejoin:miter;" x="286.085544" xlink:href="#m2cba0cc57f" y="424.523939"/>
     <use style="fill:#ff0000;stroke:#ff0000;stroke-linejoin:miter;" x="294.762869" xlink:href="#m2cba0cc57f" y="422.906741"/>
     <use style="fill:#ff0000;stroke:#ff0000;stroke-linejoin:miter;" x="309.407871" xlink:href="#m2cba0cc57f" y="421.532466"/>
     <use style="fill:#ff0000;stroke:#ff0000;stroke-linejoin:miter;" x="317.734394" xlink:href="#m2cba0cc57f" y="419.903678"/>
     <use style="fill:#ff0000;stroke:#ff0000;stroke-linejoin:miter;" x="326.331075" xlink:href="#m2cba0cc57f" y="418.284848"/>
     <use style="fill:#ff0000;stroke:#ff0000;stroke-linejoin:miter;" x="334.939853" xlink:href="#m2cba0cc57f" y="416.666018"/>
     <use style="fill:#ff0000;stroke:#ff0000;stroke-linejoin:miter;" x="349.669532" xlink:href="#m2cba0cc57f" y="415.295661"/>
     <use style="fill:#ff0000;stroke:#ff0000;stroke-linejoin:miter;" x="358.000087" xlink:href="#m2cba0cc57f" y="413.666709"/>
     <use style="fill:#ff0000;stroke:#ff0000;stroke-linejoin:miter;" x="366.935474" xlink:href="#m2cba0cc57f" y="412.06094"/>
     <use style="fill:#ff0000;stroke:#ff0000;stroke-linejoin:miter;" x="375.52409" xlink:href="#m2cba0cc57f" y="410.439824"/>
     <use style="fill:#ff0000;stroke:#ff0000;stroke-linejoin:miter;" x="390.423122" xlink:href="#m2cba0cc57f" y="409.079589"/>
     <use style="fill:#ff0000;stroke:#ff0000;stroke-linejoin:miter;" x="398.741581" xlink:href="#m2cba0cc57f" y="407.446393"/>
     <use style="fill:#ff0000;stroke:#ff0000;stroke-linejoin:miter;" x="407.668903" xlink:href="#m2cba0cc57f" y="405.845031"/>
     <use style="fill:#ff0000;stroke:#ff0000;stroke-linejoin:miter;" x="416.25752" xlink:href="#m2cba0cc57f" y="404.223752"/>
     <use style="fill:#ff0000;stroke:#ff0000;stroke-linejoin:miter;" x="431.023489" xlink:href="#m2cba0cc57f" y="402.855028"/>
     <use style="fill:#ff0000;stroke:#ff0000;stroke-linejoin:miter;" x="439.25727" xlink:href="#m2cba0cc57f" y="401.223138"/>
     <use style="fill:#ff0000;stroke:#ff0000;stroke-linejoin:miter;" x="448.176529" xlink:href="#m2cba0cc57f" y="399.616715"/>
     <use style="fill:#ff0000;stroke:#ff0000;stroke-linejoin:miter;" x="456.624018" xlink:href="#m2cba0cc57f" y="397.992824"/>
     <use style="fill:#ff0000;stroke:#ff0000;stroke-linejoin:miter;" x="471.821434" xlink:href="#m2cba0cc57f" y="396.63863"/>
     <use style="fill:#ff0000;stroke:#ff0000;stroke-linejoin:miter;" x="480.156021" xlink:href="#m2cba0cc57f" y="395.010168"/>
     <use style="fill:#ff0000;stroke:#ff0000;stroke-linejoin:miter;" x="488.942216" xlink:href="#m2cba0cc57f" y="393.400643"/>
     <use style="fill:#ff0000;stroke:#ff0000;stroke-linejoin:miter;" x="497.155836" xlink:href="#m2cba0cc57f" y="391.766141"/>
     <use style="fill:#ff0000;stroke:#ff0000;stroke-linejoin:miter;" x="511.945999" xlink:href="#m2cba0cc57f" y="390.395947"/>
     <use style="fill:#ff0000;stroke:#ff0000;stroke-linejoin:miter;" x="520.236231" xlink:href="#m2cba0cc57f" y="388.765363"/>
     <use style="fill:#ff0000;stroke:#ff0000;stroke-linejoin:miter;" x="529.276456" xlink:href="#m2cba0cc57f" y="387.164654"/>
     <use style="fill:#ff0000;stroke:#ff0000;stroke-linejoin:miter;" x="537.518302" xlink:href="#m2cba0cc57f" y="385.533417"/>
     <use style="fill:#ff0000;stroke:#ff0000;stroke-linejoin:miter;" x="552.502011" xlink:href="#m2cba0cc57f" y="384.173019"/>
     <use style="fill:#ff0000;stroke:#ff0000;stroke-linejoin:miter;" x="560.925306" xlink:href="#m2cba0cc57f" y="382.547822"/>
     <use style="fill:#ff0000;stroke:#ff0000;stroke-linejoin:miter;" x="570.034079" xlink:href="#m2cba0cc57f" y="380.947113"/>
     <use style="fill:#ff0000;stroke:#ff0000;stroke-linejoin:miter;" x="578.275925" xlink:href="#m2cba0cc57f" y="379.314243"/>
     <use style="fill:#ff0000;stroke:#ff0000;stroke-linejoin:miter;" x="593.227376" xlink:href="#m2cba0cc57f" y="377.954335"/>
     <use style="fill:#ff0000;stroke:#ff0000;stroke-linejoin:miter;" x="601.505512" xlink:href="#m2cba0cc57f" y="376.322445"/>
     <use style="fill:#ff0000;stroke:#ff0000;stroke-linejoin:miter;" x="610.517511" xlink:href="#m2cba0cc57f" y="374.721409"/>
     <use style="fill:#ff0000;stroke:#ff0000;stroke-linejoin:miter;" x="618.759357" xlink:href="#m2cba0cc57f" y="373.085601"/>
     <use style="fill:#ff0000;stroke:#ff0000;stroke-linejoin:miter;" x="633.880161" xlink:href="#m2cba0cc57f" y="371.73059"/>
     <use style="fill:#ff0000;stroke:#ff0000;stroke-linejoin:miter;" x="642.126039" xlink:href="#m2cba0cc57f" y="370.099353"/>
     <use style="fill:#ff0000;stroke:#ff0000;stroke-linejoin:miter;" x="651.166264" xlink:href="#m2cba0cc57f" y="368.498481"/>
     <use style="fill:#ff0000;stroke:#ff0000;stroke-linejoin:miter;" x="659.597624" xlink:href="#m2cba0cc57f" y="366.872631"/>
     <use style="fill:#ff0000;stroke:#ff0000;stroke-linejoin:miter;" x="674.726492" xlink:href="#m2cba0cc57f" y="365.517783"/>
     <use style="fill:#ff0000;stroke:#ff0000;stroke-linejoin:miter;" x="682.932049" xlink:href="#m2cba0cc57f" y="363.883607"/>
     <use style="fill:#ff0000;stroke:#ff0000;stroke-linejoin:miter;" x="692.101304" xlink:href="#m2cba0cc57f" y="362.288449"/>
     <use style="fill:#ff0000;stroke:#ff0000;stroke-linejoin:miter;" x="700.456052" xlink:href="#m2cba0cc57f" y="360.660314"/>
     <use style="fill:#ff0000;stroke:#ff0000;stroke-linejoin:miter;" x="715.605081" xlink:href="#m2cba0cc57f" y="359.306935"/>
     <use style="fill:#ff0000;stroke:#ff0000;stroke-linejoin:miter;" x="724.092893" xlink:href="#m2cba0cc57f" y="357.6788"/>
     <use style="fill:#ff0000;stroke:#ff0000;stroke-linejoin:miter;" x="733.000054" xlink:href="#m2cba0cc57f" y="356.075806"/>
     <use style="fill:#ff0000;stroke:#ff0000;stroke-linejoin:miter;" x="741.463672" xlink:href="#m2cba0cc57f" y="354.452241"/>
     <use style="fill:#ff0000;stroke:#ff0000;stroke-linejoin:miter;" x="756.653024" xlink:href="#m2cba0cc57f" y="353.101149"/>
     <use style="fill:#ff0000;stroke:#ff0000;stroke-linejoin:miter;" x="765.35051" xlink:href="#m2cba0cc57f" y="351.48689"/>
     <use style="fill:#ff0000;stroke:#ff0000;stroke-linejoin:miter;" x="773.785902" xlink:href="#m2cba0cc57f" y="349.858428"/>
     <use style="fill:#ff0000;stroke:#ff0000;stroke-linejoin:miter;" x="782.447099" xlink:href="#m2cba0cc57f" y="348.241394"/>
     <use style="fill:#ff0000;stroke:#ff0000;stroke-linejoin:miter;" x="797.567903" xlink:href="#m2cba0cc57f" y="346.889811"/>
     <use style="fill:#ff0000;stroke:#ff0000;stroke-linejoin:miter;" x="806.329905" xlink:href="#m2cba0cc57f" y="345.278001"/>
     <use style="fill:#ff0000;stroke:#ff0000;stroke-linejoin:miter;" x="814.632234" xlink:href="#m2cba0cc57f" y="343.646927"/>
     <use style="fill:#ff0000;stroke:#ff0000;stroke-linejoin:miter;" x="823.559556" xlink:href="#m2cba0cc57f" y="342.037403"/>
     <use style="fill:#ff0000;stroke:#ff0000;stroke-linejoin:miter;" x="838.301332" xlink:href="#m2cba0cc57f" y="340.669658"/>
     <use style="fill:#ff0000;stroke:#ff0000;stroke-linejoin:miter;" x="846.906078" xlink:href="#m2cba0cc57f" y="339.052297"/>
     <use style="fill:#ff0000;stroke:#ff0000;stroke-linejoin:miter;" x="855.264858" xlink:href="#m2cba0cc57f" y="337.423019"/>
     <use style="fill:#ff0000;stroke:#ff0000;stroke-linejoin:miter;" x="863.579284" xlink:href="#m2cba0cc57f" y="335.793904"/>
     <use style="fill:#ff0000;stroke:#ff0000;stroke-linejoin:miter;" x="878.893634" xlink:href="#m2cba0cc57f" y="157.409488"/>
     <use style="fill:#ff0000;stroke:#ff0000;stroke-linejoin:miter;" x="887.405639" xlink:href="#m2cba0cc57f" y="155.791638"/>
     <use style="fill:#ff0000;stroke:#ff0000;stroke-linejoin:miter;" x="895.836999" xlink:href="#m2cba0cc57f" y="154.163503"/>
     <use style="fill:#ff0000;stroke:#ff0000;stroke-linejoin:miter;" x="904.248198" xlink:href="#m2cba0cc57f" y="152.539775"/>
     <use style="fill:#ff0000;stroke:#ff0000;stroke-linejoin:miter;" x="919.405292" xlink:href="#m2cba0cc57f" y="151.187213"/>
     <use style="fill:#ff0000;stroke:#ff0000;stroke-linejoin:miter;" x="927.776169" xlink:href="#m2cba0cc57f" y="149.558751"/>
     <use style="fill:#ff0000;stroke:#ff0000;stroke-linejoin:miter;" x="936.75591" xlink:href="#m2cba0cc57f" y="147.95543"/>
     <use style="fill:#ff0000;stroke:#ff0000;stroke-linejoin:miter;" x="944.98566" xlink:href="#m2cba0cc57f" y="146.320601"/>
     <use style="fill:#ff0000;stroke:#ff0000;stroke-linejoin:miter;" x="960.122592" xlink:href="#m2cba0cc57f" y="144.967713"/>
     <use style="fill:#ff0000;stroke:#ff0000;stroke-linejoin:miter;" x="968.606371" xlink:href="#m2cba0cc57f" y="143.342679"/>
     <use style="fill:#ff0000;stroke:#ff0000;stroke-linejoin:miter;" x="977.388534" xlink:href="#m2cba0cc57f" y="141.733318"/>
     <use style="fill:#ff0000;stroke:#ff0000;stroke-linejoin:miter;" x="985.642477" xlink:href="#m2cba0cc57f" y="140.099958"/>
     <use style="fill:#ff0000;stroke:#ff0000;stroke-linejoin:miter;" x="1001.101987" xlink:href="#m2cba0cc57f" y="138.756212"/>
     <use style="fill:#ff0000;stroke:#ff0000;stroke-linejoin:miter;" x="1009.839795" xlink:href="#m2cba0cc57f" y="137.145381"/>
     <use style="fill:#ff0000;stroke:#ff0000;stroke-linejoin:miter;" x="1018.992922" xlink:href="#m2cba0cc57f" y="135.549734"/>
     <use style="fill:#ff0000;stroke:#ff0000;stroke-linejoin:miter;" x="1027.488798" xlink:href="#m2cba0cc57f" y="133.927475"/>
     <use style="fill:#ff0000;stroke:#ff0000;stroke-linejoin:miter;" x="1041.807191" xlink:href="#m2cba0cc57f" y="132.537365"/>
     <use style="fill:#ff0000;stroke:#ff0000;stroke-linejoin:miter;" x="1050.411936" xlink:href="#m2cba0cc57f" y="130.918371"/>
     <use style="fill:#ff0000;stroke:#ff0000;stroke-linejoin:miter;" x="1058.944102" xlink:href="#m2cba0cc57f" y="129.298725"/>
     <use style="fill:#ff0000;stroke:#ff0000;stroke-linejoin:miter;" x="1067.399655" xlink:href="#m2cba0cc57f" y="127.673365"/>
     <use style="fill:#ff0000;stroke:#ff0000;stroke-linejoin:miter;" x="1082.593039" xlink:href="#m2cba0cc57f" y="126.322599"/>
     <use style="fill:#ff0000;stroke:#ff0000;stroke-linejoin:miter;" x="1091.314719" xlink:href="#m2cba0cc57f" y="124.708993"/>
     <use style="fill:#ff0000;stroke:#ff0000;stroke-linejoin:miter;" x="1099.588823" xlink:href="#m2cba0cc57f" y="123.07645"/>
     <use style="fill:#ff0000;stroke:#ff0000;stroke-linejoin:miter;" x="1107.911313" xlink:href="#m2cba0cc57f" y="121.446682"/>
     <use style="fill:#ff0000;stroke:#ff0000;stroke-linejoin:miter;" x="1123.245824" xlink:href="#m2cba0cc57f" y="120.10016"/>
     <use style="fill:#ff0000;stroke:#ff0000;stroke-linejoin:miter;" x="1131.612669" xlink:href="#m2cba0cc57f" y="118.47431"/>
     <use style="fill:#ff0000;stroke:#ff0000;stroke-linejoin:miter;" x="1140.310155" xlink:href="#m2cba0cc57f" y="116.858419"/>
     <use style="fill:#ff0000;stroke:#ff0000;stroke-linejoin:miter;" x="1148.705226" xlink:href="#m2cba0cc57f" y="115.227508"/>
     <use style="fill:#ff0000;stroke:#ff0000;stroke-linejoin:miter;" x="1163.938931" xlink:href="#m2cba0cc57f" y="113.879843"/>
     <use style="fill:#ff0000;stroke:#ff0000;stroke-linejoin:miter;" x="1172.305776" xlink:href="#m2cba0cc57f" y="112.253014"/>
     <use style="fill:#ff0000;stroke:#ff0000;stroke-linejoin:miter;" x="1181.027456" xlink:href="#m2cba0cc57f" y="110.638429"/>
     <use style="fill:#ff0000;stroke:#ff0000;stroke-linejoin:miter;" x="1189.382204" xlink:href="#m2cba0cc57f" y="109.010783"/>
     <use style="fill:#ff0000;stroke:#ff0000;stroke-linejoin:miter;" x="1204.442525" xlink:href="#m2cba0cc57f" y="107.652344"/>
     <use style="fill:#ff0000;stroke:#ff0000;stroke-linejoin:miter;" x="1212.801305" xlink:href="#m2cba0cc57f" y="106.024535"/>
     <use style="fill:#ff0000;stroke:#ff0000;stroke-linejoin:miter;" x="1221.680241" xlink:href="#m2cba0cc57f" y="104.413541"/>
     <use style="fill:#ff0000;stroke:#ff0000;stroke-linejoin:miter;" x="1230.030957" xlink:href="#m2cba0cc57f" y="102.784426"/>
     <use style="fill:#ff0000;stroke:#ff0000;stroke-linejoin:miter;" x="1245.272727" xlink:href="#m2cba0cc57f" y="101.437251"/>
    </g>
   </g>
   <g id="line2d_14">
    <path clip-path="url(#p7b1c8cd4fe)" d="M 230.727273 432.108082 
L 244.638412 430.712584 
L 255.81571 429.190074 
L 269.501046 427.78625 
L 277.710634 426.150605 
L 286.085544 424.523939 
L 294.762869 422.906741 
L 309.407871 421.532466 
L 317.734394 419.903678 
L 326.331075 418.284848 
L 334.939853 416.666018 
L 349.669532 415.295661 
L 358.000087 413.666709 
L 366.935474 412.06094 
L 375.52409 410.439824 
L 390.423122 409.079589 
L 398.741581 407.446393 
L 407.668903 405.845031 
L 416.25752 404.223752 
L 431.023489 402.855028 
L 439.25727 401.223138 
L 448.176529 399.616715 
L 456.624018 397.992824 
L 471.821434 396.63863 
L 480.156021 395.010168 
L 488.942216 393.400643 
L 497.155836 391.766141 
L 511.945999 390.395947 
L 520.236231 388.765363 
L 529.276456 387.164654 
L 537.518302 385.533417 
L 552.502011 384.173019 
L 560.925306 382.547822 
L 570.034079 380.947113 
L 578.275925 379.314243 
L 593.227376 377.954335 
L 601.505512 376.322445 
L 610.517511 374.721409 
L 618.759357 373.085601 
L 633.880161 371.73059 
L 642.126039 370.099353 
L 651.166264 368.498481 
L 659.597624 366.872631 
L 674.726492 365.517783 
L 682.932049 363.883607 
L 692.101304 362.288449 
L 700.456052 360.660314 
L 715.605081 359.306935 
L 724.092893 357.6788 
L 733.000054 356.075806 
L 741.463672 354.452241 
L 756.653024 353.101149 
L 765.35051 351.48689 
L 773.785902 349.858428 
L 782.447099 348.241394 
L 797.567903 346.889811 
L 806.329905 345.278001 
L 814.632234 343.646927 
L 823.559556 342.037403 
L 838.301332 340.669658 
L 846.906078 339.052297 
L 855.264858 337.423019 
L 863.579284 335.793904 
L 878.893634 157.409488 
L 887.405639 155.791638 
L 895.836999 154.163503 
L 904.248198 152.539775 
L 919.405292 151.187213 
L 927.776169 149.558751 
L 936.75591 147.95543 
L 944.98566 146.320601 
L 960.122592 144.967713 
L 968.606371 143.342679 
L 977.388534 141.733318 
L 985.642477 140.099958 
L 1001.101987 138.756212 
L 1009.839795 137.145381 
L 1018.992922 135.549734 
L 1027.488798 133.927475 
L 1041.807191 132.537365 
L 1050.411936 130.918371 
L 1058.944102 129.298725 
L 1067.399655 127.673365 
L 1082.593039 126.322599 
L 1091.314719 124.708993 
L 1099.588823 123.07645 
L 1107.911313 121.446682 
L 1123.245824 120.10016 
L 1131.612669 118.47431 
L 1140.310155 116.858419 
L 1148.705226 115.227508 
L 1163.938931 113.879843 
L 1172.305776 112.253014 
L 1181.027456 110.638429 
L 1189.382204 109.010783 
L 1204.442525 107.652344 
L 1212.801305 106.024535 
L 1221.680241 104.413541 
L 1230.030957 102.784426 
L 1245.272727 101.437251 
" style="fill:none;stroke:#800080;stroke-dasharray:9.6,2.4,1.5,2.4;stroke-dashoffset:0;stroke-width:1.5;"/>
    <defs>
     <path d="M -3 3 
L 3 -3 
M -3 -3 
L 3 3 
" id="mdc5b341f64" style="stroke:#800080;"/>
    </defs>
    <g clip-path="url(#p7b1c8cd4fe)">
     <use style="fill:#800080;stroke:#800080;" x="230.727273" xlink:href="#mdc5b341f64" y="432.108082"/>
     <use style="fill:#800080;stroke:#800080;" x="244.638412" xlink:href="#mdc5b341f64" y="430.712584"/>
     <use style="fill:#800080;stroke:#800080;" x="255.81571" xlink:href="#mdc5b341f64" y="429.190074"/>
     <use style="fill:#800080;stroke:#800080;" x="269.501046" xlink:href="#mdc5b341f64" y="427.78625"/>
     <use style="fill:#800080;stroke:#800080;" x="277.710634" xlink:href="#mdc5b341f64" y="426.150605"/>
     <use style="fill:#800080;stroke:#800080;" x="286.085544" xlink:href="#mdc5b341f64" y="424.523939"/>
     <use style="fill:#800080;stroke:#800080;" x="294.762869" xlink:href="#mdc5b341f64" y="422.906741"/>
     <use style="fill:#800080;stroke:#800080;" x="309.407871" xlink:href="#mdc5b341f64" y="421.532466"/>
     <use style="fill:#800080;stroke:#800080;" x="317.734394" xlink:href="#mdc5b341f64" y="419.903678"/>
     <use style="fill:#800080;stroke:#800080;" x="326.331075" xlink:href="#mdc5b341f64" y="418.284848"/>
     <use style="fill:#800080;stroke:#800080;" x="334.939853" xlink:href="#mdc5b341f64" y="416.666018"/>
     <use style="fill:#800080;stroke:#800080;" x="349.669532" xlink:href="#mdc5b341f64" y="415.295661"/>
     <use style="fill:#800080;stroke:#800080;" x="358.000087" xlink:href="#mdc5b341f64" y="413.666709"/>
     <use style="fill:#800080;stroke:#800080;" x="366.935474" xlink:href="#mdc5b341f64" y="412.06094"/>
     <use style="fill:#800080;stroke:#800080;" x="375.52409" xlink:href="#mdc5b341f64" y="410.439824"/>
     <use style="fill:#800080;stroke:#800080;" x="390.423122" xlink:href="#mdc5b341f64" y="409.079589"/>
     <use style="fill:#800080;stroke:#800080;" x="398.741581" xlink:href="#mdc5b341f64" y="407.446393"/>
     <use style="fill:#800080;stroke:#800080;" x="407.668903" xlink:href="#mdc5b341f64" y="405.845031"/>
     <use style="fill:#800080;stroke:#800080;" x="416.25752" xlink:href="#mdc5b341f64" y="404.223752"/>
     <use style="fill:#800080;stroke:#800080;" x="431.023489" xlink:href="#mdc5b341f64" y="402.855028"/>
     <use style="fill:#800080;stroke:#800080;" x="439.25727" xlink:href="#mdc5b341f64" y="401.223138"/>
     <use style="fill:#800080;stroke:#800080;" x="448.176529" xlink:href="#mdc5b341f64" y="399.616715"/>
     <use style="fill:#800080;stroke:#800080;" x="456.624018" xlink:href="#mdc5b341f64" y="397.992824"/>
     <use style="fill:#800080;stroke:#800080;" x="471.821434" xlink:href="#mdc5b341f64" y="396.63863"/>
     <use style="fill:#800080;stroke:#800080;" x="480.156021" xlink:href="#mdc5b341f64" y="395.010168"/>
     <use style="fill:#800080;stroke:#800080;" x="488.942216" xlink:href="#mdc5b341f64" y="393.400643"/>
     <use style="fill:#800080;stroke:#800080;" x="497.155836" xlink:href="#mdc5b341f64" y="391.766141"/>
     <use style="fill:#800080;stroke:#800080;" x="511.945999" xlink:href="#mdc5b341f64" y="390.395947"/>
     <use style="fill:#800080;stroke:#800080;" x="520.236231" xlink:href="#mdc5b341f64" y="388.765363"/>
     <use style="fill:#800080;stroke:#800080;" x="529.276456" xlink:href="#mdc5b341f64" y="387.164654"/>
     <use style="fill:#800080;stroke:#800080;" x="537.518302" xlink:href="#mdc5b341f64" y="385.533417"/>
     <use style="fill:#800080;stroke:#800080;" x="552.502011" xlink:href="#mdc5b341f64" y="384.173019"/>
     <use style="fill:#800080;stroke:#800080;" x="560.925306" xlink:href="#mdc5b341f64" y="382.547822"/>
     <use style="fill:#800080;stroke:#800080;" x="570.034079" xlink:href="#mdc5b341f64" y="380.947113"/>
     <use style="fill:#800080;stroke:#800080;" x="578.275925" xlink:href="#mdc5b341f64" y="379.314243"/>
     <use style="fill:#800080;stroke:#800080;" x="593.227376" xlink:href="#mdc5b341f64" y="377.954335"/>
     <use style="fill:#800080;stroke:#800080;" x="601.505512" xlink:href="#mdc5b341f64" y="376.322445"/>
     <use style="fill:#800080;stroke:#800080;" x="610.517511" xlink:href="#mdc5b341f64" y="374.721409"/>
     <use style="fill:#800080;stroke:#800080;" x="618.759357" xlink:href="#mdc5b341f64" y="373.085601"/>
     <use style="fill:#800080;stroke:#800080;" x="633.880161" xlink:href="#mdc5b341f64" y="371.73059"/>
     <use style="fill:#800080;stroke:#800080;" x="642.126039" xlink:href="#mdc5b341f64" y="370.099353"/>
     <use style="fill:#800080;stroke:#800080;" x="651.166264" xlink:href="#mdc5b341f64" y="368.498481"/>
     <use style="fill:#800080;stroke:#800080;" x="659.597624" xlink:href="#mdc5b341f64" y="366.872631"/>
     <use style="fill:#800080;stroke:#800080;" x="674.726492" xlink:href="#mdc5b341f64" y="365.517783"/>
     <use style="fill:#800080;stroke:#800080;" x="682.932049" xlink:href="#mdc5b341f64" y="363.883607"/>
     <use style="fill:#800080;stroke:#800080;" x="692.101304" xlink:href="#mdc5b341f64" y="362.288449"/>
     <use style="fill:#800080;stroke:#800080;" x="700.456052" xlink:href="#mdc5b341f64" y="360.660314"/>
     <use style="fill:#800080;stroke:#800080;" x="715.605081" xlink:href="#mdc5b341f64" y="359.306935"/>
     <use style="fill:#800080;stroke:#800080;" x="724.092893" xlink:href="#mdc5b341f64" y="357.6788"/>
     <use style="fill:#800080;stroke:#800080;" x="733.000054" xlink:href="#mdc5b341f64" y="356.075806"/>
     <use style="fill:#800080;stroke:#800080;" x="741.463672" xlink:href="#mdc5b341f64" y="354.452241"/>
     <use style="fill:#800080;stroke:#800080;" x="756.653024" xlink:href="#mdc5b341f64" y="353.101149"/>
     <use style="fill:#800080;stroke:#800080;" x="765.35051" xlink:href="#mdc5b341f64" y="351.48689"/>
     <use style="fill:#800080;stroke:#800080;" x="773.785902" xlink:href="#mdc5b341f64" y="349.858428"/>
     <use style="fill:#800080;stroke:#800080;" x="782.447099" xlink:href="#mdc5b341f64" y="348.241394"/>
     <use style="fill:#800080;stroke:#800080;" x="797.567903" xlink:href="#mdc5b341f64" y="346.889811"/>
     <use style="fill:#800080;stroke:#800080;" x="806.329905" xlink:href="#mdc5b341f64" y="345.278001"/>
     <use style="fill:#800080;stroke:#800080;" x="814.632234" xlink:href="#mdc5b341f64" y="343.646927"/>
     <use style="fill:#800080;stroke:#800080;" x="823.559556" xlink:href="#mdc5b341f64" y="342.037403"/>
     <use style="fill:#800080;stroke:#800080;" x="838.301332" xlink:href="#mdc5b341f64" y="340.669658"/>
     <use style="fill:#800080;stroke:#800080;" x="846.906078" xlink:href="#mdc5b341f64" y="339.052297"/>
     <use style="fill:#800080;stroke:#800080;" x="855.264858" xlink:href="#mdc5b341f64" y="337.423019"/>
     <use style="fill:#800080;stroke:#800080;" x="863.579284" xlink:href="#mdc5b341f64" y="335.793904"/>
     <use style="fill:#800080;stroke:#800080;" x="878.893634" xlink:href="#mdc5b341f64" y="157.409488"/>
     <use style="fill:#800080;stroke:#800080;" x="887.405639" xlink:href="#mdc5b341f64" y="155.791638"/>
     <use style="fill:#800080;stroke:#800080;" x="895.836999" xlink:href="#mdc5b341f64" y="154.163503"/>
     <use style="fill:#800080;stroke:#800080;" x="904.248198" xlink:href="#mdc5b341f64" y="152.539775"/>
     <use style="fill:#800080;stroke:#800080;" x="919.405292" xlink:href="#mdc5b341f64" y="151.187213"/>
     <use style="fill:#800080;stroke:#800080;" x="927.776169" xlink:href="#mdc5b341f64" y="149.558751"/>
     <use style="fill:#800080;stroke:#800080;" x="936.75591" xlink:href="#mdc5b341f64" y="147.95543"/>
     <use style="fill:#800080;stroke:#800080;" x="944.98566" xlink:href="#mdc5b341f64" y="146.320601"/>
     <use style="fill:#800080;stroke:#800080;" x="960.122592" xlink:href="#mdc5b341f64" y="144.967713"/>
     <use style="fill:#800080;stroke:#800080;" x="968.606371" xlink:href="#mdc5b341f64" y="143.342679"/>
     <use style="fill:#800080;stroke:#800080;" x="977.388534" xlink:href="#mdc5b341f64" y="141.733318"/>
     <use style="fill:#800080;stroke:#800080;" x="985.642477" xlink:href="#mdc5b341f64" y="140.099958"/>
     <use style="fill:#800080;stroke:#800080;" x="1001.101987" xlink:href="#mdc5b341f64" y="138.756212"/>
     <use style="fill:#800080;stroke:#800080;" x="1009.839795" xlink:href="#mdc5b341f64" y="137.145381"/>
     <use style="fill:#800080;stroke:#800080;" x="1018.992922" xlink:href="#mdc5b341f64" y="135.549734"/>
     <use style="fill:#800080;stroke:#800080;" x="1027.488798" xlink:href="#mdc5b341f64" y="133.927475"/>
     <use style="fill:#800080;stroke:#800080;" x="1041.807191" xlink:href="#mdc5b341f64" y="132.537365"/>
     <use style="fill:#800080;stroke:#800080;" x="1050.411936" xlink:href="#mdc5b341f64" y="130.918371"/>
     <use style="fill:#800080;stroke:#800080;" x="1058.944102" xlink:href="#mdc5b341f64" y="129.298725"/>
     <use style="fill:#800080;stroke:#800080;" x="1067.399655" xlink:href="#mdc5b341f64" y="127.673365"/>
     <use style="fill:#800080;stroke:#800080;" x="1082.593039" xlink:href="#mdc5b341f64" y="126.322599"/>
     <use style="fill:#800080;stroke:#800080;" x="1091.314719" xlink:href="#mdc5b341f64" y="124.708993"/>
     <use style="fill:#800080;stroke:#800080;" x="1099.588823" xlink:href="#mdc5b341f64" y="123.07645"/>
     <use style="fill:#800080;stroke:#800080;" x="1107.911313" xlink:href="#mdc5b341f64" y="121.446682"/>
     <use style="fill:#800080;stroke:#800080;" x="1123.245824" xlink:href="#mdc5b341f64" y="120.10016"/>
     <use style="fill:#800080;stroke:#800080;" x="1131.612669" xlink:href="#mdc5b341f64" y="118.47431"/>
     <use style="fill:#800080;stroke:#800080;" x="1140.310155" xlink:href="#mdc5b341f64" y="116.858419"/>
     <use style="fill:#800080;stroke:#800080;" x="1148.705226" xlink:href="#mdc5b341f64" y="115.227508"/>
     <use style="fill:#800080;stroke:#800080;" x="1163.938931" xlink:href="#mdc5b341f64" y="113.879843"/>
     <use style="fill:#800080;stroke:#800080;" x="1172.305776" xlink:href="#mdc5b341f64" y="112.253014"/>
     <use style="fill:#800080;stroke:#800080;" x="1181.027456" xlink:href="#mdc5b341f64" y="110.638429"/>
     <use style="fill:#800080;stroke:#800080;" x="1189.382204" xlink:href="#mdc5b341f64" y="109.010783"/>
     <use style="fill:#800080;stroke:#800080;" x="1204.442525" xlink:href="#mdc5b341f64" y="107.652344"/>
     <use style="fill:#800080;stroke:#800080;" x="1212.801305" xlink:href="#mdc5b341f64" y="106.024535"/>
     <use style="fill:#800080;stroke:#800080;" x="1221.680241" xlink:href="#mdc5b341f64" y="104.413541"/>
     <use style="fill:#800080;stroke:#800080;" x="1230.030957" xlink:href="#mdc5b341f64" y="102.784426"/>
     <use style="fill:#800080;stroke:#800080;" x="1245.272727" xlink:href="#mdc5b341f64" y="101.437251"/>
    </g>
   </g>
   <g id="line2d_15">
    <path clip-path="url(#p7b1c8cd4fe)" d="M 230.727273 491.120294 
L 244.638412 485.610382 
L 255.81571 481.183287 
L 269.501046 475.762811 
L 277.710634 472.511164 
L 286.085544 469.194037 
L 294.762869 465.75713 
L 309.407871 459.95655 
L 317.734394 456.658588 
L 326.331075 453.253622 
L 334.939853 449.843864 
L 349.669532 444.009746 
L 358.000087 440.710187 
L 366.935474 437.171066 
L 375.52409 433.769294 
L 390.423122 427.868099 
L 398.741581 424.573331 
L 407.668903 421.037405 
L 416.25752 417.635633 
L 431.023489 411.78714 
L 439.25727 408.525911 
L 448.176529 404.993179 
L 456.624018 401.647305 
L 471.821434 395.627925 
L 480.156021 392.326769 
L 488.942216 388.846741 
L 497.155836 385.593497 
L 511.945999 379.735422 
L 520.236231 376.451834 
L 529.276456 372.871189 
L 537.518302 369.606766 
L 552.502011 363.672031 
L 560.925306 360.33574 
L 570.034079 356.727945 
L 578.275925 353.463522 
L 593.227376 347.541564 
L 601.505512 344.262767 
L 610.517511 340.693302 
L 618.759357 337.428879 
L 633.880161 331.439844 
L 642.126039 328.173823 
L 651.166264 324.593179 
L 659.597624 321.253693 
L 674.726492 315.261464 
L 682.932049 312.011414 
L 692.101304 308.379663 
L 700.456052 305.070522 
L 715.605081 299.070307 
L 724.092893 295.708462 
L 733.000054 292.180521 
L 741.463672 288.828259 
L 756.653024 282.812073 
L 765.35051 279.36718 
L 773.785902 276.026097 
L 782.447099 272.595578 
L 797.567903 266.606543 
L 806.329905 263.136097 
L 814.632234 259.847717 
L 823.559556 256.311791 
L 838.301332 250.472881 
L 846.906078 247.064721 
L 855.264858 243.753983 
L 863.579284 240.460812 
L 878.893634 234.395117 
L 887.405639 231.02369 
L 895.836999 227.684204 
L 904.248198 224.352703 
L 919.405292 218.349294 
L 927.776169 215.033765 
L 936.75591 211.477076 
L 944.98566 208.217444 
L 960.122592 202.222021 
L 968.606371 198.861773 
L 977.388534 195.383342 
L 985.642477 192.114127 
L 1001.101987 185.990938 
L 1009.839795 182.530074 
L 1018.992922 178.904711 
L 1027.488798 175.539672 
L 1041.807191 169.868455 
L 1050.411936 166.460295 
L 1058.944102 163.080882 
L 1067.399655 159.731814 
L 1082.593039 153.714031 
L 1091.314719 150.259556 
L 1099.588823 146.982356 
L 1107.911313 143.685991 
L 1123.245824 137.612311 
L 1131.612669 134.298378 
L 1140.310155 130.853486 
L 1148.705226 127.528373 
L 1163.938931 121.49462 
L 1172.305776 118.180687 
L 1181.027456 114.726212 
L 1189.382204 111.417071 
L 1204.442525 105.451992 
L 1212.801305 102.141253 
L 1221.680241 98.624492 
L 1230.030957 95.316947 
L 1245.272727 89.28 
" style="fill:none;stroke:#0000ff;stroke-linecap:square;stroke-width:1.5;"/>
   </g>
   <g id="line2d_16">
    <path clip-path="url(#p7b1c8cd4fe)" d="M 230.727273 492.48 
L 244.638412 492.46606 
L 255.81571 492.45486 
L 269.501046 492.441147 
L 277.710634 492.432921 
L 286.085544 492.424529 
L 294.762869 492.415834 
L 309.407871 492.401159 
L 317.734394 492.392815 
L 326.331075 492.384201 
L 334.939853 492.375575 
L 349.669532 492.360815 
L 358.000087 492.352467 
L 366.935474 492.343514 
L 375.52409 492.334907 
L 390.423122 492.319978 
L 398.741581 492.311643 
L 407.668903 492.302697 
L 416.25752 492.294091 
L 431.023489 492.279295 
L 439.25727 492.271044 
L 448.176529 492.262107 
L 456.624018 492.253642 
L 471.821434 492.238413 
L 480.156021 492.230062 
L 488.942216 492.221258 
L 497.155836 492.213027 
L 511.945999 492.198207 
L 520.236231 492.1899 
L 529.276456 492.180841 
L 537.518302 492.172582 
L 552.502011 492.157568 
L 560.925306 492.149128 
L 570.034079 492.14 
L 578.275925 492.131742 
L 593.227376 492.11676 
L 601.505512 492.108464 
L 610.517511 492.099434 
L 618.759357 492.091175 
L 633.880161 492.076024 
L 642.126039 492.067761 
L 651.166264 492.058702 
L 659.597624 492.050254 
L 674.726492 492.035094 
L 682.932049 492.026872 
L 692.101304 492.017684 
L 700.456052 492.009312 
L 715.605081 491.994132 
L 724.092893 491.985627 
L 733.000054 491.976701 
L 741.463672 491.96822 
L 756.653024 491.953 
L 765.35051 491.944285 
L 773.785902 491.935832 
L 782.447099 491.927153 
L 797.567903 491.912002 
L 806.329905 491.903222 
L 814.632234 491.894902 
L 823.559556 491.885957 
L 838.301332 491.871185 
L 846.906078 491.862563 
L 855.264858 491.854187 
L 863.579284 491.845855 
L 878.893634 491.83051 
L 887.405639 491.82198 
L 895.836999 491.813532 
L 904.248198 491.805103 
L 919.405292 491.789915 
L 927.776169 491.781527 
L 936.75591 491.772529 
L 944.98566 491.764283 
L 960.122592 491.749115 
L 968.606371 491.740614 
L 977.388534 491.731814 
L 985.642477 491.723543 
L 1001.101987 491.708052 
L 1009.839795 491.699296 
L 1018.992922 491.690124 
L 1027.488798 491.681611 
L 1041.807191 491.667264 
L 1050.411936 491.658641 
L 1058.944102 491.650092 
L 1067.399655 491.641619 
L 1082.593039 491.626394 
L 1091.314719 491.617655 
L 1099.588823 491.609364 
L 1107.911313 491.601024 
L 1123.245824 491.585659 
L 1131.612669 491.577275 
L 1140.310155 491.568559 
L 1148.705226 491.560147 
L 1163.938931 491.544882 
L 1172.305776 491.536498 
L 1181.027456 491.527759 
L 1189.382204 491.519387 
L 1204.442525 491.504296 
L 1212.801305 491.49592 
L 1221.680241 491.487023 
L 1230.030957 491.478655 
L 1245.272727 491.463382 
" style="fill:none;stroke:#008000;stroke-linecap:square;stroke-width:1.5;"/>
    <defs>
     <path d="M 0 3 
C 0.795609 3 1.55874 2.683901 2.12132 2.12132 
C 2.683901 1.55874 3 0.795609 3 0 
C 3 -0.795609 2.683901 -1.55874 2.12132 -2.12132 
C 1.55874 -2.683901 0.795609 -3 0 -3 
C -0.795609 -3 -1.55874 -2.683901 -2.12132 -2.12132 
C -2.683901 -1.55874 -3 -0.795609 -3 0 
C -3 0.795609 -2.683901 1.55874 -2.12132 2.12132 
C -1.55874 2.683901 -0.795609 3 0 3 
z
" id="m3a39e4cd1c" style="stroke:#008000;"/>
    </defs>
    <g clip-path="url(#p7b1c8cd4fe)">
     <use style="fill:#008000;stroke:#008000;" x="230.727273" xlink:href="#m3a39e4cd1c" y="492.48"/>
     <use style="fill:#008000;stroke:#008000;" x="244.638412" xlink:href="#m3a39e4cd1c" y="492.46606"/>
     <use style="fill:#008000;stroke:#008000;" x="255.81571" xlink:href="#m3a39e4cd1c" y="492.45486"/>
     <use style="fill:#008000;stroke:#008000;" x="269.501046" xlink:href="#m3a39e4cd1c" y="492.441147"/>
     <use style="fill:#008000;stroke:#008000;" x="277.710634" xlink:href="#m3a39e4cd1c" y="492.432921"/>
     <use style="fill:#008000;stroke:#008000;" x="286.085544" xlink:href="#m3a39e4cd1c" y="492.424529"/>
     <use style="fill:#008000;stroke:#008000;" x="294.762869" xlink:href="#m3a39e4cd1c" y="492.415834"/>
     <use style="fill:#008000;stroke:#008000;" x="309.407871" xlink:href="#m3a39e4cd1c" y="492.401159"/>
     <use style="fill:#008000;stroke:#008000;" x="317.734394" xlink:href="#m3a39e4cd1c" y="492.392815"/>
     <use style="fill:#008000;stroke:#008000;" x="326.331075" xlink:href="#m3a39e4cd1c" y="492.384201"/>
     <use style="fill:#008000;stroke:#008000;" x="334.939853" xlink:href="#m3a39e4cd1c" y="492.375575"/>
     <use style="fill:#008000;stroke:#008000;" x="349.669532" xlink:href="#m3a39e4cd1c" y="492.360815"/>
     <use style="fill:#008000;stroke:#008000;" x="358.000087" xlink:href="#m3a39e4cd1c" y="492.352467"/>
     <use style="fill:#008000;stroke:#008000;" x="366.935474" xlink:href="#m3a39e4cd1c" y="492.343514"/>
     <use style="fill:#008000;stroke:#008000;" x="375.52409" xlink:href="#m3a39e4cd1c" y="492.334907"/>
     <use style="fill:#008000;stroke:#008000;" x="390.423122" xlink:href="#m3a39e4cd1c" y="492.319978"/>
     <use style="fill:#008000;stroke:#008000;" x="398.741581" xlink:href="#m3a39e4cd1c" y="492.311643"/>
     <use style="fill:#008000;stroke:#008000;" x="407.668903" xlink:href="#m3a39e4cd1c" y="492.302697"/>
     <use style="fill:#008000;stroke:#008000;" x="416.25752" xlink:href="#m3a39e4cd1c" y="492.294091"/>
     <use style="fill:#008000;stroke:#008000;" x="431.023489" xlink:href="#m3a39e4cd1c" y="492.279295"/>
     <use style="fill:#008000;stroke:#008000;" x="439.25727" xlink:href="#m3a39e4cd1c" y="492.271044"/>
     <use style="fill:#008000;stroke:#008000;" x="448.176529" xlink:href="#m3a39e4cd1c" y="492.262107"/>
     <use style="fill:#008000;stroke:#008000;" x="456.624018" xlink:href="#m3a39e4cd1c" y="492.253642"/>
     <use style="fill:#008000;stroke:#008000;" x="471.821434" xlink:href="#m3a39e4cd1c" y="492.238413"/>
     <use style="fill:#008000;stroke:#008000;" x="480.156021" xlink:href="#m3a39e4cd1c" y="492.230062"/>
     <use style="fill:#008000;stroke:#008000;" x="488.942216" xlink:href="#m3a39e4cd1c" y="492.221258"/>
     <use style="fill:#008000;stroke:#008000;" x="497.155836" xlink:href="#m3a39e4cd1c" y="492.213027"/>
     <use style="fill:#008000;stroke:#008000;" x="511.945999" xlink:href="#m3a39e4cd1c" y="492.198207"/>
     <use style="fill:#008000;stroke:#008000;" x="520.236231" xlink:href="#m3a39e4cd1c" y="492.1899"/>
     <use style="fill:#008000;stroke:#008000;" x="529.276456" xlink:href="#m3a39e4cd1c" y="492.180841"/>
     <use style="fill:#008000;stroke:#008000;" x="537.518302" xlink:href="#m3a39e4cd1c" y="492.172582"/>
     <use style="fill:#008000;stroke:#008000;" x="552.502011" xlink:href="#m3a39e4cd1c" y="492.157568"/>
     <use style="fill:#008000;stroke:#008000;" x="560.925306" xlink:href="#m3a39e4cd1c" y="492.149128"/>
     <use style="fill:#008000;stroke:#008000;" x="570.034079" xlink:href="#m3a39e4cd1c" y="492.14"/>
     <use style="fill:#008000;stroke:#008000;" x="578.275925" xlink:href="#m3a39e4cd1c" y="492.131742"/>
     <use style="fill:#008000;stroke:#008000;" x="593.227376" xlink:href="#m3a39e4cd1c" y="492.11676"/>
     <use style="fill:#008000;stroke:#008000;" x="601.505512" xlink:href="#m3a39e4cd1c" y="492.108464"/>
     <use style="fill:#008000;stroke:#008000;" x="610.517511" xlink:href="#m3a39e4cd1c" y="492.099434"/>
     <use style="fill:#008000;stroke:#008000;" x="618.759357" xlink:href="#m3a39e4cd1c" y="492.091175"/>
     <use style="fill:#008000;stroke:#008000;" x="633.880161" xlink:href="#m3a39e4cd1c" y="492.076024"/>
     <use style="fill:#008000;stroke:#008000;" x="642.126039" xlink:href="#m3a39e4cd1c" y="492.067761"/>
     <use style="fill:#008000;stroke:#008000;" x="651.166264" xlink:href="#m3a39e4cd1c" y="492.058702"/>
     <use style="fill:#008000;stroke:#008000;" x="659.597624" xlink:href="#m3a39e4cd1c" y="492.050254"/>
     <use style="fill:#008000;stroke:#008000;" x="674.726492" xlink:href="#m3a39e4cd1c" y="492.035094"/>
     <use style="fill:#008000;stroke:#008000;" x="682.932049" xlink:href="#m3a39e4cd1c" y="492.026872"/>
     <use style="fill:#008000;stroke:#008000;" x="692.101304" xlink:href="#m3a39e4cd1c" y="492.017684"/>
     <use style="fill:#008000;stroke:#008000;" x="700.456052" xlink:href="#m3a39e4cd1c" y="492.009312"/>
     <use style="fill:#008000;stroke:#008000;" x="715.605081" xlink:href="#m3a39e4cd1c" y="491.994132"/>
     <use style="fill:#008000;stroke:#008000;" x="724.092893" xlink:href="#m3a39e4cd1c" y="491.985627"/>
     <use style="fill:#008000;stroke:#008000;" x="733.000054" xlink:href="#m3a39e4cd1c" y="491.976701"/>
     <use style="fill:#008000;stroke:#008000;" x="741.463672" xlink:href="#m3a39e4cd1c" y="491.96822"/>
     <use style="fill:#008000;stroke:#008000;" x="756.653024" xlink:href="#m3a39e4cd1c" y="491.953"/>
     <use style="fill:#008000;stroke:#008000;" x="765.35051" xlink:href="#m3a39e4cd1c" y="491.944285"/>
     <use style="fill:#008000;stroke:#008000;" x="773.785902" xlink:href="#m3a39e4cd1c" y="491.935832"/>
     <use style="fill:#008000;stroke:#008000;" x="782.447099" xlink:href="#m3a39e4cd1c" y="491.927153"/>
     <use style="fill:#008000;stroke:#008000;" x="797.567903" xlink:href="#m3a39e4cd1c" y="491.912002"/>
     <use style="fill:#008000;stroke:#008000;" x="806.329905" xlink:href="#m3a39e4cd1c" y="491.903222"/>
     <use style="fill:#008000;stroke:#008000;" x="814.632234" xlink:href="#m3a39e4cd1c" y="491.894902"/>
     <use style="fill:#008000;stroke:#008000;" x="823.559556" xlink:href="#m3a39e4cd1c" y="491.885957"/>
     <use style="fill:#008000;stroke:#008000;" x="838.301332" xlink:href="#m3a39e4cd1c" y="491.871185"/>
     <use style="fill:#008000;stroke:#008000;" x="846.906078" xlink:href="#m3a39e4cd1c" y="491.862563"/>
     <use style="fill:#008000;stroke:#008000;" x="855.264858" xlink:href="#m3a39e4cd1c" y="491.854187"/>
     <use style="fill:#008000;stroke:#008000;" x="863.579284" xlink:href="#m3a39e4cd1c" y="491.845855"/>
     <use style="fill:#008000;stroke:#008000;" x="878.893634" xlink:href="#m3a39e4cd1c" y="491.83051"/>
     <use style="fill:#008000;stroke:#008000;" x="887.405639" xlink:href="#m3a39e4cd1c" y="491.82198"/>
     <use style="fill:#008000;stroke:#008000;" x="895.836999" xlink:href="#m3a39e4cd1c" y="491.813532"/>
     <use style="fill:#008000;stroke:#008000;" x="904.248198" xlink:href="#m3a39e4cd1c" y="491.805103"/>
     <use style="fill:#008000;stroke:#008000;" x="919.405292" xlink:href="#m3a39e4cd1c" y="491.789915"/>
     <use style="fill:#008000;stroke:#008000;" x="927.776169" xlink:href="#m3a39e4cd1c" y="491.781527"/>
     <use style="fill:#008000;stroke:#008000;" x="936.75591" xlink:href="#m3a39e4cd1c" y="491.772529"/>
     <use style="fill:#008000;stroke:#008000;" x="944.98566" xlink:href="#m3a39e4cd1c" y="491.764283"/>
     <use style="fill:#008000;stroke:#008000;" x="960.122592" xlink:href="#m3a39e4cd1c" y="491.749115"/>
     <use style="fill:#008000;stroke:#008000;" x="968.606371" xlink:href="#m3a39e4cd1c" y="491.740614"/>
     <use style="fill:#008000;stroke:#008000;" x="977.388534" xlink:href="#m3a39e4cd1c" y="491.731814"/>
     <use style="fill:#008000;stroke:#008000;" x="985.642477" xlink:href="#m3a39e4cd1c" y="491.723543"/>
     <use style="fill:#008000;stroke:#008000;" x="1001.101987" xlink:href="#m3a39e4cd1c" y="491.708052"/>
     <use style="fill:#008000;stroke:#008000;" x="1009.839795" xlink:href="#m3a39e4cd1c" y="491.699296"/>
     <use style="fill:#008000;stroke:#008000;" x="1018.992922" xlink:href="#m3a39e4cd1c" y="491.690124"/>
     <use style="fill:#008000;stroke:#008000;" x="1027.488798" xlink:href="#m3a39e4cd1c" y="491.681611"/>
     <use style="fill:#008000;stroke:#008000;" x="1041.807191" xlink:href="#m3a39e4cd1c" y="491.667264"/>
     <use style="fill:#008000;stroke:#008000;" x="1050.411936" xlink:href="#m3a39e4cd1c" y="491.658641"/>
     <use style="fill:#008000;stroke:#008000;" x="1058.944102" xlink:href="#m3a39e4cd1c" y="491.650092"/>
     <use style="fill:#008000;stroke:#008000;" x="1067.399655" xlink:href="#m3a39e4cd1c" y="491.641619"/>
     <use style="fill:#008000;stroke:#008000;" x="1082.593039" xlink:href="#m3a39e4cd1c" y="491.626394"/>
     <use style="fill:#008000;stroke:#008000;" x="1091.314719" xlink:href="#m3a39e4cd1c" y="491.617655"/>
     <use style="fill:#008000;stroke:#008000;" x="1099.588823" xlink:href="#m3a39e4cd1c" y="491.609364"/>
     <use style="fill:#008000;stroke:#008000;" x="1107.911313" xlink:href="#m3a39e4cd1c" y="491.601024"/>
     <use style="fill:#008000;stroke:#008000;" x="1123.245824" xlink:href="#m3a39e4cd1c" y="491.585659"/>
     <use style="fill:#008000;stroke:#008000;" x="1131.612669" xlink:href="#m3a39e4cd1c" y="491.577275"/>
     <use style="fill:#008000;stroke:#008000;" x="1140.310155" xlink:href="#m3a39e4cd1c" y="491.568559"/>
     <use style="fill:#008000;stroke:#008000;" x="1148.705226" xlink:href="#m3a39e4cd1c" y="491.560147"/>
     <use style="fill:#008000;stroke:#008000;" x="1163.938931" xlink:href="#m3a39e4cd1c" y="491.544882"/>
     <use style="fill:#008000;stroke:#008000;" x="1172.305776" xlink:href="#m3a39e4cd1c" y="491.536498"/>
     <use style="fill:#008000;stroke:#008000;" x="1181.027456" xlink:href="#m3a39e4cd1c" y="491.527759"/>
     <use style="fill:#008000;stroke:#008000;" x="1189.382204" xlink:href="#m3a39e4cd1c" y="491.519387"/>
     <use style="fill:#008000;stroke:#008000;" x="1204.442525" xlink:href="#m3a39e4cd1c" y="491.504296"/>
     <use style="fill:#008000;stroke:#008000;" x="1212.801305" xlink:href="#m3a39e4cd1c" y="491.49592"/>
     <use style="fill:#008000;stroke:#008000;" x="1221.680241" xlink:href="#m3a39e4cd1c" y="491.487023"/>
     <use style="fill:#008000;stroke:#008000;" x="1230.030957" xlink:href="#m3a39e4cd1c" y="491.478655"/>
     <use style="fill:#008000;stroke:#008000;" x="1245.272727" xlink:href="#m3a39e4cd1c" y="491.463382"/>
    </g>
   </g>
   <g id="patch_3">
    <path d="M 180 512.64 
L 180 69.12 
" style="fill:none;stroke:#000000;stroke-linecap:square;stroke-linejoin:miter;stroke-width:0.8;"/>
   </g>
   <g id="patch_4">
    <path d="M 1296 512.64 
L 1296 69.12 
" style="fill:none;stroke:#000000;stroke-linecap:square;stroke-linejoin:miter;stroke-width:0.8;"/>
   </g>
   <g id="patch_5">
    <path d="M 180 512.64 
L 1296 512.64 
" style="fill:none;stroke:#000000;stroke-linecap:square;stroke-linejoin:miter;stroke-width:0.8;"/>
   </g>
   <g id="patch_6">
    <path d="M 180 69.12 
L 1296 69.12 
" style="fill:none;stroke:#000000;stroke-linecap:square;stroke-linejoin:miter;stroke-width:0.8;"/>
   </g>
   <g id="text_13">
    <!-- 5000000.0 bit/s -->
    <defs>
     <path id="DejaVuSans-20"/>
     <path d="M 48.6875 27.296875 
Q 48.6875 37.203125 44.609375 42.84375 
Q 40.53125 48.484375 33.40625 48.484375 
Q 26.265625 48.484375 22.1875 42.84375 
Q 18.109375 37.203125 18.109375 27.296875 
Q 18.109375 17.390625 22.1875 11.75 
Q 26.265625 6.109375 33.40625 6.109375 
Q 40.53125 6.109375 44.609375 11.75 
Q 48.6875 17.390625 48.6875 27.296875 
z
M 18.109375 46.390625 
Q 20.953125 51.265625 25.265625 53.625 
Q 29.59375 56 35.59375 56 
Q 45.5625 56 51.78125 48.09375 
Q 58.015625 40.1875 58.015625 27.296875 
Q 58.015625 14.40625 51.78125 6.484375 
Q 45.5625 -1.421875 35.59375 -1.421875 
Q 29.59375 -1.421875 25.265625 0.953125 
Q 20.953125 3.328125 18.109375 8.203125 
L 18.109375 0 
L 9.078125 0 
L 9.078125 75.984375 
L 18.109375 75.984375 
z
" id="DejaVuSans-62"/>
     <path d="M 9.421875 54.6875 
L 18.40625 54.6875 
L 18.40625 0 
L 9.421875 0 
z
M 9.421875 75.984375 
L 18.40625 75.984375 
L 18.40625 64.59375 
L 9.421875 64.59375 
z
" id="DejaVuSans-69"/>
     <path d="M 18.3125 70.21875 
L 18.3125 54.6875 
L 36.8125 54.6875 
L 36.8125 47.703125 
L 18.3125 47.703125 
L 18.3125 18.015625 
Q 18.3125 11.328125 20.140625 9.421875 
Q 21.96875 7.515625 27.59375 7.515625 
L 36.8125 7.515625 
L 36.8125 0 
L 27.59375 0 
Q 17.1875 0 13.234375 3.875 
Q 9.28125 7.765625 9.28125 18.015625 
L 9.28125 47.703125 
L 2.6875 47.703125 
L 2.6875 54.6875 
L 9.28125 54.6875 
L 9.28125 70.21875 
z
" id="DejaVuSans-74"/>
     <path d="M 25.390625 72.90625 
L 33.6875 72.90625 
L 8.296875 -9.28125 
L 0 -9.28125 
z
" id="DejaVuSans-2f"/>
     <path d="M 44.28125 53.078125 
L 44.28125 44.578125 
Q 40.484375 46.53125 36.375 47.5 
Q 32.28125 48.484375 27.875 48.484375 
Q 21.1875 48.484375 17.84375 46.4375 
Q 14.5 44.390625 14.5 40.28125 
Q 14.5 37.15625 16.890625 35.375 
Q 19.28125 33.59375 26.515625 31.984375 
L 29.59375 31.296875 
Q 39.15625 29.25 43.1875 25.515625 
Q 47.21875 21.78125 47.21875 15.09375 
Q 47.21875 7.46875 41.1875 3.015625 
Q 35.15625 -1.421875 24.609375 -1.421875 
Q 20.21875 -1.421875 15.453125 -0.5625 
Q 10.6875 0.296875 5.421875 2 
L 5.421875 11.28125 
Q 10.40625 8.6875 15.234375 7.390625 
Q 20.0625 6.109375 24.8125 6.109375 
Q 31.15625 6.109375 34.5625 8.28125 
Q 37.984375 10.453125 37.984375 14.40625 
Q 37.984375 18.0625 35.515625 20.015625 
Q 33.0625 21.96875 24.703125 23.78125 
L 21.578125 24.515625 
Q 13.234375 26.265625 9.515625 29.90625 
Q 5.8125 33.546875 5.8125 39.890625 
Q 5.8125 47.609375 11.28125 51.796875 
Q 16.75 56 26.8125 56 
Q 31.78125 56 36.171875 55.265625 
Q 40.578125 54.546875 44.28125 53.078125 
z
" id="DejaVuSans-73"/>
    </defs>
    <g transform="translate(690.67125 63.12)scale(0.12 -0.12)">
     <use xlink:href="#DejaVuSans-35"/>
     <use x="63.623047" xlink:href="#DejaVuSans-30"/>
     <use x="127.246094" xlink:href="#DejaVuSans-30"/>
     <use x="190.869141" xlink:href="#DejaVuSans-30"/>
     <use x="254.492188" xlink:href="#DejaVuSans-30"/>
     <use x="318.115234" xlink:href="#DejaVuSans-30"/>
     <use x="381.738281" xlink:href="#DejaVuSans-30"/>
     <use x="445.361328" xlink:href="#DejaVuSans-2e"/>
     <use x="477.148438" xlink:href="#DejaVuSans-30"/>
     <use x="540.771484" xlink:href="#DejaVuSans-20"/>
     <use x="572.558594" xlink:href="#DejaVuSans-62"/>
     <use x="636.035156" xlink:href="#DejaVuSans-69"/>
     <use x="663.818359" xlink:href="#DejaVuSans-74"/>
     <use x="703.027344" xlink:href="#DejaVuSans-2f"/>
     <use x="736.71875" xlink:href="#DejaVuSans-73"/>
    </g>
   </g>
   <g id="legend_1">
    <g id="patch_7">
     <path d="M 1173.520313 135.8325 
L 1289 135.8325 
Q 1291 135.8325 1291 133.8325 
L 1291 76.12 
Q 1291 74.12 1289 74.12 
L 1173.520313 74.12 
Q 1171.520313 74.12 1171.520313 76.12 
L 1171.520313 133.8325 
Q 1171.520313 135.8325 1173.520313 135.8325 
z
" style="fill:#ffffff;opacity:0.8;stroke:#cccccc;stroke-linejoin:miter;"/>
    </g>
    <g id="line2d_17">
     <path d="M 1175.520313 82.218437 
L 1195.520313 82.218437 
" style="fill:none;stroke:#ff0000;stroke-dasharray:5.55,2.4;stroke-dashoffset:0;stroke-width:1.5;"/>
    </g>
    <g id="line2d_18">
     <g>
      <use style="fill:#ff0000;stroke:#ff0000;stroke-linejoin:miter;" x="1185.520313" xlink:href="#m2cba0cc57f" y="82.218437"/>
     </g>
    </g>
    <g id="text_14">
     <!-- tcpdump -->
     <defs>
      <path d="M 48.78125 52.59375 
L 48.78125 44.1875 
Q 44.96875 46.296875 41.140625 47.34375 
Q 37.3125 48.390625 33.40625 48.390625 
Q 24.65625 48.390625 19.8125 42.84375 
Q 14.984375 37.3125 14.984375 27.296875 
Q 14.984375 17.28125 19.8125 11.734375 
Q 24.65625 6.203125 33.40625 6.203125 
Q 37.3125 6.203125 41.140625 7.25 
Q 44.96875 8.296875 48.78125 10.40625 
L 48.78125 2.09375 
Q 45.015625 0.34375 40.984375 -0.53125 
Q 36.96875 -1.421875 32.421875 -1.421875 
Q 20.0625 -1.421875 12.78125 6.34375 
Q 5.515625 14.109375 5.515625 27.296875 
Q 5.515625 40.671875 12.859375 48.328125 
Q 20.21875 56 33.015625 56 
Q 37.15625 56 41.109375 55.140625 
Q 45.0625 54.296875 48.78125 52.59375 
z
" id="DejaVuSans-63"/>
      <path d="M 18.109375 8.203125 
L 18.109375 -20.796875 
L 9.078125 -20.796875 
L 9.078125 54.6875 
L 18.109375 54.6875 
L 18.109375 46.390625 
Q 20.953125 51.265625 25.265625 53.625 
Q 29.59375 56 35.59375 56 
Q 45.5625 56 51.78125 48.09375 
Q 58.015625 40.1875 58.015625 27.296875 
Q 58.015625 14.40625 51.78125 6.484375 
Q 45.5625 -1.421875 35.59375 -1.421875 
Q 29.59375 -1.421875 25.265625 0.953125 
Q 20.953125 3.328125 18.109375 8.203125 
z
M 48.6875 27.296875 
Q 48.6875 37.203125 44.609375 42.84375 
Q 40.53125 48.484375 33.40625 48.484375 
Q 26.265625 48.484375 22.1875 42.84375 
Q 18.109375 37.203125 18.109375 27.296875 
Q 18.109375 17.390625 22.1875 11.75 
Q 26.265625 6.109375 33.40625 6.109375 
Q 40.53125 6.109375 44.609375 11.75 
Q 48.6875 17.390625 48.6875 27.296875 
z
" id="DejaVuSans-70"/>
      <path d="M 45.40625 46.390625 
L 45.40625 75.984375 
L 54.390625 75.984375 
L 54.390625 0 
L 45.40625 0 
L 45.40625 8.203125 
Q 42.578125 3.328125 38.25 0.953125 
Q 33.9375 -1.421875 27.875 -1.421875 
Q 17.96875 -1.421875 11.734375 6.484375 
Q 5.515625 14.40625 5.515625 27.296875 
Q 5.515625 40.1875 11.734375 48.09375 
Q 17.96875 56 27.875 56 
Q 33.9375 56 38.25 53.625 
Q 42.578125 51.265625 45.40625 46.390625 
z
M 14.796875 27.296875 
Q 14.796875 17.390625 18.875 11.75 
Q 22.953125 6.109375 30.078125 6.109375 
Q 37.203125 6.109375 41.296875 11.75 
Q 45.40625 17.390625 45.40625 27.296875 
Q 45.40625 37.203125 41.296875 42.84375 
Q 37.203125 48.484375 30.078125 48.484375 
Q 22.953125 48.484375 18.875 42.84375 
Q 14.796875 37.203125 14.796875 27.296875 
z
" id="DejaVuSans-64"/>
      <path d="M 8.5 21.578125 
L 8.5 54.6875 
L 17.484375 54.6875 
L 17.484375 21.921875 
Q 17.484375 14.15625 20.5 10.265625 
Q 23.53125 6.390625 29.59375 6.390625 
Q 36.859375 6.390625 41.078125 11.03125 
Q 45.3125 15.671875 45.3125 23.6875 
L 45.3125 54.6875 
L 54.296875 54.6875 
L 54.296875 0 
L 45.3125 0 
L 45.3125 8.40625 
Q 42.046875 3.421875 37.71875 1 
Q 33.40625 -1.421875 27.6875 -1.421875 
Q 18.265625 -1.421875 13.375 4.4375 
Q 8.5 10.296875 8.5 21.578125 
z
M 31.109375 56 
z
" id="DejaVuSans-75"/>
      <path d="M 52 44.1875 
Q 55.375 50.25 60.0625 53.125 
Q 64.75 56 71.09375 56 
Q 79.640625 56 84.28125 50.015625 
Q 88.921875 44.046875 88.921875 33.015625 
L 88.921875 0 
L 79.890625 0 
L 79.890625 32.71875 
Q 79.890625 40.578125 77.09375 44.375 
Q 74.3125 48.1875 68.609375 48.1875 
Q 61.625 48.1875 57.5625 43.546875 
Q 53.515625 38.921875 53.515625 30.90625 
L 53.515625 0 
L 44.484375 0 
L 44.484375 32.71875 
Q 44.484375 40.625 41.703125 44.40625 
Q 38.921875 48.1875 33.109375 48.1875 
Q 26.21875 48.1875 22.15625 43.53125 
Q 18.109375 38.875 18.109375 30.90625 
L 18.109375 0 
L 9.078125 0 
L 9.078125 54.6875 
L 18.109375 54.6875 
L 18.109375 46.1875 
Q 21.1875 51.21875 25.484375 53.609375 
Q 29.78125 56 35.6875 56 
Q 41.65625 56 45.828125 52.96875 
Q 50 49.953125 52 44.1875 
z
" id="DejaVuSans-6d"/>
     </defs>
     <g transform="translate(1203.520313 85.718437)scale(0.1 -0.1)">
      <use xlink:href="#DejaVuSans-74"/>
      <use x="39.208984" xlink:href="#DejaVuSans-63"/>
      <use x="94.189453" xlink:href="#DejaVuSans-70"/>
      <use x="157.666016" xlink:href="#DejaVuSans-64"/>
      <use x="221.142578" xlink:href="#DejaVuSans-75"/>
      <use x="284.521484" xlink:href="#DejaVuSans-6d"/>
      <use x="381.933594" xlink:href="#DejaVuSans-70"/>
     </g>
    </g>
    <g id="line2d_19">
     <path d="M 1175.520313 96.896563 
L 1195.520313 96.896563 
" style="fill:none;stroke:#800080;stroke-dasharray:9.6,2.4,1.5,2.4;stroke-dashoffset:0;stroke-width:1.5;"/>
    </g>
    <g id="line2d_20">
     <g>
      <use style="fill:#800080;stroke:#800080;" x="1185.520313" xlink:href="#mdc5b341f64" y="96.896563"/>
     </g>
    </g>
    <g id="text_15">
     <!-- filtered tcpdump -->
     <defs>
      <path d="M 37.109375 75.984375 
L 37.109375 68.5 
L 28.515625 68.5 
Q 23.6875 68.5 21.796875 66.546875 
Q 19.921875 64.59375 19.921875 59.515625 
L 19.921875 54.6875 
L 34.71875 54.6875 
L 34.71875 47.703125 
L 19.921875 47.703125 
L 19.921875 0 
L 10.890625 0 
L 10.890625 47.703125 
L 2.296875 47.703125 
L 2.296875 54.6875 
L 10.890625 54.6875 
L 10.890625 58.5 
Q 10.890625 67.625 15.140625 71.796875 
Q 19.390625 75.984375 28.609375 75.984375 
z
" id="DejaVuSans-66"/>
      <path d="M 9.421875 75.984375 
L 18.40625 75.984375 
L 18.40625 0 
L 9.421875 0 
z
" id="DejaVuSans-6c"/>
      <path d="M 56.203125 29.59375 
L 56.203125 25.203125 
L 14.890625 25.203125 
Q 15.484375 15.921875 20.484375 11.0625 
Q 25.484375 6.203125 34.421875 6.203125 
Q 39.59375 6.203125 44.453125 7.46875 
Q 49.3125 8.734375 54.109375 11.28125 
L 54.109375 2.78125 
Q 49.265625 0.734375 44.1875 -0.34375 
Q 39.109375 -1.421875 33.890625 -1.421875 
Q 20.796875 -1.421875 13.15625 6.1875 
Q 5.515625 13.8125 5.515625 26.8125 
Q 5.515625 40.234375 12.765625 48.109375 
Q 20.015625 56 32.328125 56 
Q 43.359375 56 49.78125 48.890625 
Q 56.203125 41.796875 56.203125 29.59375 
z
M 47.21875 32.234375 
Q 47.125 39.59375 43.09375 43.984375 
Q 39.0625 48.390625 32.421875 48.390625 
Q 24.90625 48.390625 20.390625 44.140625 
Q 15.875 39.890625 15.1875 32.171875 
z
" id="DejaVuSans-65"/>
      <path d="M 41.109375 46.296875 
Q 39.59375 47.171875 37.8125 47.578125 
Q 36.03125 48 33.890625 48 
Q 26.265625 48 22.1875 43.046875 
Q 18.109375 38.09375 18.109375 28.8125 
L 18.109375 0 
L 9.078125 0 
L 9.078125 54.6875 
L 18.109375 54.6875 
L 18.109375 46.1875 
Q 20.953125 51.171875 25.484375 53.578125 
Q 30.03125 56 36.53125 56 
Q 37.453125 56 38.578125 55.875 
Q 39.703125 55.765625 41.0625 55.515625 
z
" id="DejaVuSans-72"/>
     </defs>
     <g transform="translate(1203.520313 100.396563)scale(0.1 -0.1)">
      <use xlink:href="#DejaVuSans-66"/>
      <use x="35.205078" xlink:href="#DejaVuSans-69"/>
      <use x="62.988281" xlink:href="#DejaVuSans-6c"/>
      <use x="90.771484" xlink:href="#DejaVuSans-74"/>
      <use x="129.980469" xlink:href="#DejaVuSans-65"/>
      <use x="191.503906" xlink:href="#DejaVuSans-72"/>
      <use x="232.585938" xlink:href="#DejaVuSans-65"/>
      <use x="294.109375" xlink:href="#DejaVuSans-64"/>
      <use x="357.585938" xlink:href="#DejaVuSans-20"/>
      <use x="389.373047" xlink:href="#DejaVuSans-74"/>
      <use x="428.582031" xlink:href="#DejaVuSans-63"/>
      <use x="483.5625" xlink:href="#DejaVuSans-70"/>
      <use x="547.039062" xlink:href="#DejaVuSans-64"/>
      <use x="610.515625" xlink:href="#DejaVuSans-75"/>
      <use x="673.894531" xlink:href="#DejaVuSans-6d"/>
      <use x="771.306641" xlink:href="#DejaVuSans-70"/>
     </g>
    </g>
    <g id="line2d_21">
     <path d="M 1175.520313 111.574687 
L 1195.520313 111.574687 
" style="fill:none;stroke:#0000ff;stroke-linecap:square;stroke-width:1.5;"/>
    </g>
    <g id="line2d_22"/>
    <g id="text_16">
     <!-- OLS -->
     <defs>
      <path d="M 39.40625 66.21875 
Q 28.65625 66.21875 22.328125 58.203125 
Q 16.015625 50.203125 16.015625 36.375 
Q 16.015625 22.609375 22.328125 14.59375 
Q 28.65625 6.59375 39.40625 6.59375 
Q 50.140625 6.59375 56.421875 14.59375 
Q 62.703125 22.609375 62.703125 36.375 
Q 62.703125 50.203125 56.421875 58.203125 
Q 50.140625 66.21875 39.40625 66.21875 
z
M 39.40625 74.21875 
Q 54.734375 74.21875 63.90625 63.9375 
Q 73.09375 53.65625 73.09375 36.375 
Q 73.09375 19.140625 63.90625 8.859375 
Q 54.734375 -1.421875 39.40625 -1.421875 
Q 24.03125 -1.421875 14.8125 8.828125 
Q 5.609375 19.09375 5.609375 36.375 
Q 5.609375 53.65625 14.8125 63.9375 
Q 24.03125 74.21875 39.40625 74.21875 
z
" id="DejaVuSans-4f"/>
      <path d="M 9.8125 72.90625 
L 19.671875 72.90625 
L 19.671875 8.296875 
L 55.171875 8.296875 
L 55.171875 0 
L 9.8125 0 
z
" id="DejaVuSans-4c"/>
      <path d="M 53.515625 70.515625 
L 53.515625 60.890625 
Q 47.90625 63.578125 42.921875 64.890625 
Q 37.9375 66.21875 33.296875 66.21875 
Q 25.25 66.21875 20.875 63.09375 
Q 16.5 59.96875 16.5 54.203125 
Q 16.5 49.359375 19.40625 46.890625 
Q 22.3125 44.4375 30.421875 42.921875 
L 36.375 41.703125 
Q 47.40625 39.59375 52.65625 34.296875 
Q 57.90625 29 57.90625 20.125 
Q 57.90625 9.515625 50.796875 4.046875 
Q 43.703125 -1.421875 29.984375 -1.421875 
Q 24.8125 -1.421875 18.96875 -0.25 
Q 13.140625 0.921875 6.890625 3.21875 
L 6.890625 13.375 
Q 12.890625 10.015625 18.65625 8.296875 
Q 24.421875 6.59375 29.984375 6.59375 
Q 38.421875 6.59375 43.015625 9.90625 
Q 47.609375 13.234375 47.609375 19.390625 
Q 47.609375 24.75 44.3125 27.78125 
Q 41.015625 30.8125 33.5 32.328125 
L 27.484375 33.5 
Q 16.453125 35.6875 11.515625 40.375 
Q 6.59375 45.0625 6.59375 53.421875 
Q 6.59375 63.09375 13.40625 68.65625 
Q 20.21875 74.21875 32.171875 74.21875 
Q 37.3125 74.21875 42.625 73.28125 
Q 47.953125 72.359375 53.515625 70.515625 
z
" id="DejaVuSans-53"/>
     </defs>
     <g transform="translate(1203.520313 115.074687)scale(0.1 -0.1)">
      <use xlink:href="#DejaVuSans-4f"/>
      <use x="78.710938" xlink:href="#DejaVuSans-4c"/>
      <use x="134.423828" xlink:href="#DejaVuSans-53"/>
     </g>
    </g>
    <g id="line2d_23">
     <path d="M 1175.520313 126.252813 
L 1195.520313 126.252813 
" style="fill:none;stroke:#008000;stroke-linecap:square;stroke-width:1.5;"/>
    </g>
    <g id="line2d_24">
     <g>
      <use style="fill:#008000;stroke:#008000;" x="1185.520313" xlink:href="#m3a39e4cd1c" y="126.252813"/>
     </g>
    </g>
    <g id="text_17">
     <!-- IRLS -->
     <defs>
      <path d="M 9.8125 72.90625 
L 19.671875 72.90625 
L 19.671875 0 
L 9.8125 0 
z
" id="DejaVuSans-49"/>
      <path d="M 44.390625 34.1875 
Q 47.5625 33.109375 50.5625 29.59375 
Q 53.5625 26.078125 56.59375 19.921875 
L 66.609375 0 
L 56 0 
L 46.6875 18.703125 
Q 43.0625 26.03125 39.671875 28.421875 
Q 36.28125 30.8125 30.421875 30.8125 
L 19.671875 30.8125 
L 19.671875 0 
L 9.8125 0 
L 9.8125 72.90625 
L 32.078125 72.90625 
Q 44.578125 72.90625 50.734375 67.671875 
Q 56.890625 62.453125 56.890625 51.90625 
Q 56.890625 45.015625 53.6875 40.46875 
Q 50.484375 35.9375 44.390625 34.1875 
z
M 19.671875 64.796875 
L 19.671875 38.921875 
L 32.078125 38.921875 
Q 39.203125 38.921875 42.84375 42.21875 
Q 46.484375 45.515625 46.484375 51.90625 
Q 46.484375 58.296875 42.84375 61.546875 
Q 39.203125 64.796875 32.078125 64.796875 
z
" id="DejaVuSans-52"/>
     </defs>
     <g transform="translate(1203.520313 129.752813)scale(0.1 -0.1)">
      <use xlink:href="#DejaVuSans-49"/>
      <use x="29.492188" xlink:href="#DejaVuSans-52"/>
      <use x="98.974609" xlink:href="#DejaVuSans-4c"/>
      <use x="154.6875" xlink:href="#DejaVuSans-53"/>
     </g>
    </g>
   </g>
  </g>
 </g>
 <defs>
  <clipPath id="p7b1c8cd4fe">
   <rect height="443.52" width="1116" x="180" y="69.12"/>
  </clipPath>
 </defs>
</svg>
