<?xml version="1.0" encoding="utf-8" standalone="no"?>
<!DOCTYPE svg PUBLIC "-//W3C//DTD SVG 1.1//EN"
  "http://www.w3.org/Graphics/SVG/1.1/DTD/svg11.dtd">
<!-- Created with matplotlib (http://matplotlib.org/) -->
<svg height="576pt" version="1.1" viewBox="0 0 1440 576" width="1440pt" xmlns="http://www.w3.org/2000/svg" xmlns:xlink="http://www.w3.org/1999/xlink">
 <defs>
  <style type="text/css">
*{stroke-linecap:butt;stroke-linejoin:round;}
  </style>
 </defs>
 <g id="figure_1">
  <g id="patch_1">
   <path d="M 0 576 
L 1440 576 
L 1440 0 
L 0 0 
z
" style="fill:#ffffff;"/>
  </g>
  <g id="axes_1">
   <g id="patch_2">
    <path d="M 180 512.64 
L 1296 512.64 
L 1296 69.12 
L 180 69.12 
z
" style="fill:#ffffff;"/>
   </g>
   <g id="matplotlib.axis_1">
    <g id="xtick_1">
     <g id="line2d_1">
      <defs>
       <path d="M 0 0 
L 0 3.5 
" id="maaa1292522" style="stroke:#000000;stroke-width:0.8;"/>
      </defs>
      <g>
       <use style="stroke:#000000;stroke-width:0.8;" x="230.727273" xlink:href="#maaa1292522" y="512.64"/>
      </g>
     </g>
     <g id="text_1">
      <!-- 0.0 -->
      <defs>
       <path d="M 31.78125 66.40625 
Q 24.171875 66.40625 20.328125 58.90625 
Q 16.5 51.421875 16.5 36.375 
Q 16.5 21.390625 20.328125 13.890625 
Q 24.171875 6.390625 31.78125 6.390625 
Q 39.453125 6.390625 43.28125 13.890625 
Q 47.125 21.390625 47.125 36.375 
Q 47.125 51.421875 43.28125 58.90625 
Q 39.453125 66.40625 31.78125 66.40625 
z
M 31.78125 74.21875 
Q 44.046875 74.21875 50.515625 64.515625 
Q 56.984375 54.828125 56.984375 36.375 
Q 56.984375 17.96875 50.515625 8.265625 
Q 44.046875 -1.421875 31.78125 -1.421875 
Q 19.53125 -1.421875 13.0625 8.265625 
Q 6.59375 17.96875 6.59375 36.375 
Q 6.59375 54.828125 13.0625 64.515625 
Q 19.53125 74.21875 31.78125 74.21875 
z
" id="DejaVuSans-30"/>
       <path d="M 10.6875 12.40625 
L 21 12.40625 
L 21 0 
L 10.6875 0 
z
" id="DejaVuSans-2e"/>
      </defs>
      <g transform="translate(222.77571 527.238438)scale(0.1 -0.1)">
       <use xlink:href="#DejaVuSans-30"/>
       <use x="63.623047" xlink:href="#DejaVuSans-2e"/>
       <use x="95.410156" xlink:href="#DejaVuSans-30"/>
      </g>
     </g>
    </g>
    <g id="xtick_2">
     <g id="line2d_2">
      <g>
       <use style="stroke:#000000;stroke-width:0.8;" x="382.841818" xlink:href="#maaa1292522" y="512.64"/>
      </g>
     </g>
     <g id="text_2">
      <!-- 0.2 -->
      <defs>
       <path d="M 19.1875 8.296875 
L 53.609375 8.296875 
L 53.609375 0 
L 7.328125 0 
L 7.328125 8.296875 
Q 12.9375 14.109375 22.625 23.890625 
Q 32.328125 33.6875 34.8125 36.53125 
Q 39.546875 41.84375 41.421875 45.53125 
Q 43.3125 49.21875 43.3125 52.78125 
Q 43.3125 58.59375 39.234375 62.25 
Q 35.15625 65.921875 28.609375 65.921875 
Q 23.96875 65.921875 18.8125 64.3125 
Q 13.671875 62.703125 7.8125 59.421875 
L 7.8125 69.390625 
Q 13.765625 71.78125 18.9375 73 
Q 24.125 74.21875 28.421875 74.21875 
Q 39.75 74.21875 46.484375 68.546875 
Q 53.21875 62.890625 53.21875 53.421875 
Q 53.21875 48.921875 51.53125 44.890625 
Q 49.859375 40.875 45.40625 35.40625 
Q 44.1875 33.984375 37.640625 27.21875 
Q 31.109375 20.453125 19.1875 8.296875 
z
" id="DejaVuSans-32"/>
      </defs>
      <g transform="translate(374.890256 527.238438)scale(0.1 -0.1)">
       <use xlink:href="#DejaVuSans-30"/>
       <use x="63.623047" xlink:href="#DejaVuSans-2e"/>
       <use x="95.410156" xlink:href="#DejaVuSans-32"/>
      </g>
     </g>
    </g>
    <g id="xtick_3">
     <g id="line2d_3">
      <g>
       <use style="stroke:#000000;stroke-width:0.8;" x="534.956364" xlink:href="#maaa1292522" y="512.64"/>
      </g>
     </g>
     <g id="text_3">
      <!-- 0.4 -->
      <defs>
       <path d="M 37.796875 64.3125 
L 12.890625 25.390625 
L 37.796875 25.390625 
z
M 35.203125 72.90625 
L 47.609375 72.90625 
L 47.609375 25.390625 
L 58.015625 25.390625 
L 58.015625 17.1875 
L 47.609375 17.1875 
L 47.609375 0 
L 37.796875 0 
L 37.796875 17.1875 
L 4.890625 17.1875 
L 4.890625 26.703125 
z
" id="DejaVuSans-34"/>
      </defs>
      <g transform="translate(527.004801 527.238438)scale(0.1 -0.1)">
       <use xlink:href="#DejaVuSans-30"/>
       <use x="63.623047" xlink:href="#DejaVuSans-2e"/>
       <use x="95.410156" xlink:href="#DejaVuSans-34"/>
      </g>
     </g>
    </g>
    <g id="xtick_4">
     <g id="line2d_4">
      <g>
       <use style="stroke:#000000;stroke-width:0.8;" x="687.070909" xlink:href="#maaa1292522" y="512.64"/>
      </g>
     </g>
     <g id="text_4">
      <!-- 0.6 -->
      <defs>
       <path d="M 33.015625 40.375 
Q 26.375 40.375 22.484375 35.828125 
Q 18.609375 31.296875 18.609375 23.390625 
Q 18.609375 15.53125 22.484375 10.953125 
Q 26.375 6.390625 33.015625 6.390625 
Q 39.65625 6.390625 43.53125 10.953125 
Q 47.40625 15.53125 47.40625 23.390625 
Q 47.40625 31.296875 43.53125 35.828125 
Q 39.65625 40.375 33.015625 40.375 
z
M 52.59375 71.296875 
L 52.59375 62.3125 
Q 48.875 64.0625 45.09375 64.984375 
Q 41.3125 65.921875 37.59375 65.921875 
Q 27.828125 65.921875 22.671875 59.328125 
Q 17.53125 52.734375 16.796875 39.40625 
Q 19.671875 43.65625 24.015625 45.921875 
Q 28.375 48.1875 33.59375 48.1875 
Q 44.578125 48.1875 50.953125 41.515625 
Q 57.328125 34.859375 57.328125 23.390625 
Q 57.328125 12.15625 50.6875 5.359375 
Q 44.046875 -1.421875 33.015625 -1.421875 
Q 20.359375 -1.421875 13.671875 8.265625 
Q 6.984375 17.96875 6.984375 36.375 
Q 6.984375 53.65625 15.1875 63.9375 
Q 23.390625 74.21875 37.203125 74.21875 
Q 40.921875 74.21875 44.703125 73.484375 
Q 48.484375 72.75 52.59375 71.296875 
z
" id="DejaVuSans-36"/>
      </defs>
      <g transform="translate(679.119347 527.238438)scale(0.1 -0.1)">
       <use xlink:href="#DejaVuSans-30"/>
       <use x="63.623047" xlink:href="#DejaVuSans-2e"/>
       <use x="95.410156" xlink:href="#DejaVuSans-36"/>
      </g>
     </g>
    </g>
    <g id="xtick_5">
     <g id="line2d_5">
      <g>
       <use style="stroke:#000000;stroke-width:0.8;" x="839.185455" xlink:href="#maaa1292522" y="512.64"/>
      </g>
     </g>
     <g id="text_5">
      <!-- 0.8 -->
      <defs>
       <path d="M 31.78125 34.625 
Q 24.75 34.625 20.71875 30.859375 
Q 16.703125 27.09375 16.703125 20.515625 
Q 16.703125 13.921875 20.71875 10.15625 
Q 24.75 6.390625 31.78125 6.390625 
Q 38.8125 6.390625 42.859375 10.171875 
Q 46.921875 13.96875 46.921875 20.515625 
Q 46.921875 27.09375 42.890625 30.859375 
Q 38.875 34.625 31.78125 34.625 
z
M 21.921875 38.8125 
Q 15.578125 40.375 12.03125 44.71875 
Q 8.5 49.078125 8.5 55.328125 
Q 8.5 64.0625 14.71875 69.140625 
Q 20.953125 74.21875 31.78125 74.21875 
Q 42.671875 74.21875 48.875 69.140625 
Q 55.078125 64.0625 55.078125 55.328125 
Q 55.078125 49.078125 51.53125 44.71875 
Q 48 40.375 41.703125 38.8125 
Q 48.828125 37.15625 52.796875 32.3125 
Q 56.78125 27.484375 56.78125 20.515625 
Q 56.78125 9.90625 50.3125 4.234375 
Q 43.84375 -1.421875 31.78125 -1.421875 
Q 19.734375 -1.421875 13.25 4.234375 
Q 6.78125 9.90625 6.78125 20.515625 
Q 6.78125 27.484375 10.78125 32.3125 
Q 14.796875 37.15625 21.921875 38.8125 
z
M 18.3125 54.390625 
Q 18.3125 48.734375 21.84375 45.5625 
Q 25.390625 42.390625 31.78125 42.390625 
Q 38.140625 42.390625 41.71875 45.5625 
Q 45.3125 48.734375 45.3125 54.390625 
Q 45.3125 60.0625 41.71875 63.234375 
Q 38.140625 66.40625 31.78125 66.40625 
Q 25.390625 66.40625 21.84375 63.234375 
Q 18.3125 60.0625 18.3125 54.390625 
z
" id="DejaVuSans-38"/>
      </defs>
      <g transform="translate(831.233892 527.238438)scale(0.1 -0.1)">
       <use xlink:href="#DejaVuSans-30"/>
       <use x="63.623047" xlink:href="#DejaVuSans-2e"/>
       <use x="95.410156" xlink:href="#DejaVuSans-38"/>
      </g>
     </g>
    </g>
    <g id="xtick_6">
     <g id="line2d_6">
      <g>
       <use style="stroke:#000000;stroke-width:0.8;" x="991.3" xlink:href="#maaa1292522" y="512.64"/>
      </g>
     </g>
     <g id="text_6">
      <!-- 1.0 -->
      <defs>
       <path d="M 12.40625 8.296875 
L 28.515625 8.296875 
L 28.515625 63.921875 
L 10.984375 60.40625 
L 10.984375 69.390625 
L 28.421875 72.90625 
L 38.28125 72.90625 
L 38.28125 8.296875 
L 54.390625 8.296875 
L 54.390625 0 
L 12.40625 0 
z
" id="DejaVuSans-31"/>
      </defs>
      <g transform="translate(983.348438 527.238438)scale(0.1 -0.1)">
       <use xlink:href="#DejaVuSans-31"/>
       <use x="63.623047" xlink:href="#DejaVuSans-2e"/>
       <use x="95.410156" xlink:href="#DejaVuSans-30"/>
      </g>
     </g>
    </g>
    <g id="xtick_7">
     <g id="line2d_7">
      <g>
       <use style="stroke:#000000;stroke-width:0.8;" x="1143.414546" xlink:href="#maaa1292522" y="512.64"/>
      </g>
     </g>
     <g id="text_7">
      <!-- 1.2 -->
      <g transform="translate(1135.462983 527.238438)scale(0.1 -0.1)">
       <use xlink:href="#DejaVuSans-31"/>
       <use x="63.623047" xlink:href="#DejaVuSans-2e"/>
       <use x="95.410156" xlink:href="#DejaVuSans-32"/>
      </g>
     </g>
    </g>
    <g id="xtick_8">
     <g id="line2d_8">
      <g>
       <use style="stroke:#000000;stroke-width:0.8;" x="1295.529091" xlink:href="#maaa1292522" y="512.64"/>
      </g>
     </g>
     <g id="text_8">
      <!-- 1.4 -->
      <g transform="translate(1287.577529 527.238438)scale(0.1 -0.1)">
       <use xlink:href="#DejaVuSans-31"/>
       <use x="63.623047" xlink:href="#DejaVuSans-2e"/>
       <use x="95.410156" xlink:href="#DejaVuSans-34"/>
      </g>
     </g>
    </g>
   </g>
   <g id="matplotlib.axis_2">
    <g id="ytick_1">
     <g id="line2d_9">
      <defs>
       <path d="M 0 0 
L -3.5 0 
" id="mb0a8a819ad" style="stroke:#000000;stroke-width:0.8;"/>
      </defs>
      <g>
       <use style="stroke:#000000;stroke-width:0.8;" x="180" xlink:href="#mb0a8a819ad" y="486.227755"/>
      </g>
     </g>
     <g id="text_9">
      <!-- 0.2 -->
      <g transform="translate(157.096875 490.026974)scale(0.1 -0.1)">
       <use xlink:href="#DejaVuSans-30"/>
       <use x="63.623047" xlink:href="#DejaVuSans-2e"/>
       <use x="95.410156" xlink:href="#DejaVuSans-32"/>
      </g>
     </g>
    </g>
    <g id="ytick_2">
     <g id="line2d_10">
      <g>
       <use style="stroke:#000000;stroke-width:0.8;" x="180" xlink:href="#mb0a8a819ad" y="418.584923"/>
      </g>
     </g>
     <g id="text_10">
      <!-- 0.4 -->
      <g transform="translate(157.096875 422.384142)scale(0.1 -0.1)">
       <use xlink:href="#DejaVuSans-30"/>
       <use x="63.623047" xlink:href="#DejaVuSans-2e"/>
       <use x="95.410156" xlink:href="#DejaVuSans-34"/>
      </g>
     </g>
    </g>
    <g id="ytick_3">
     <g id="line2d_11">
      <g>
       <use style="stroke:#000000;stroke-width:0.8;" x="180" xlink:href="#mb0a8a819ad" y="350.942091"/>
      </g>
     </g>
     <g id="text_11">
      <!-- 0.6 -->
      <g transform="translate(157.096875 354.74131)scale(0.1 -0.1)">
       <use xlink:href="#DejaVuSans-30"/>
       <use x="63.623047" xlink:href="#DejaVuSans-2e"/>
       <use x="95.410156" xlink:href="#DejaVuSans-36"/>
      </g>
     </g>
    </g>
    <g id="ytick_4">
     <g id="line2d_12">
      <g>
       <use style="stroke:#000000;stroke-width:0.8;" x="180" xlink:href="#mb0a8a819ad" y="283.299259"/>
      </g>
     </g>
     <g id="text_12">
      <!-- 0.8 -->
      <g transform="translate(157.096875 287.098478)scale(0.1 -0.1)">
       <use xlink:href="#DejaVuSans-30"/>
       <use x="63.623047" xlink:href="#DejaVuSans-2e"/>
       <use x="95.410156" xlink:href="#DejaVuSans-38"/>
      </g>
     </g>
    </g>
    <g id="ytick_5">
     <g id="line2d_13">
      <g>
       <use style="stroke:#000000;stroke-width:0.8;" x="180" xlink:href="#mb0a8a819ad" y="215.656427"/>
      </g>
     </g>
     <g id="text_13">
      <!-- 1.0 -->
      <g transform="translate(157.096875 219.455646)scale(0.1 -0.1)">
       <use xlink:href="#DejaVuSans-31"/>
       <use x="63.623047" xlink:href="#DejaVuSans-2e"/>
       <use x="95.410156" xlink:href="#DejaVuSans-30"/>
      </g>
     </g>
    </g>
    <g id="ytick_6">
     <g id="line2d_14">
      <g>
       <use style="stroke:#000000;stroke-width:0.8;" x="180" xlink:href="#mb0a8a819ad" y="148.013595"/>
      </g>
     </g>
     <g id="text_14">
      <!-- 1.2 -->
      <g transform="translate(157.096875 151.812813)scale(0.1 -0.1)">
       <use xlink:href="#DejaVuSans-31"/>
       <use x="63.623047" xlink:href="#DejaVuSans-2e"/>
       <use x="95.410156" xlink:href="#DejaVuSans-32"/>
      </g>
     </g>
    </g>
    <g id="ytick_7">
     <g id="line2d_15">
      <g>
       <use style="stroke:#000000;stroke-width:0.8;" x="180" xlink:href="#mb0a8a819ad" y="80.370763"/>
      </g>
     </g>
     <g id="text_15">
      <!-- 1.4 -->
      <g transform="translate(157.096875 84.169981)scale(0.1 -0.1)">
       <use xlink:href="#DejaVuSans-31"/>
       <use x="63.623047" xlink:href="#DejaVuSans-2e"/>
       <use x="95.410156" xlink:href="#DejaVuSans-34"/>
      </g>
     </g>
    </g>
   </g>
   <g id="line2d_16">
    <path clip-path="url(#p10444c8d89)" d="M 230.727273 452.229115 
L 240.943286 452.241967 
L 250.964592 452.239938 
L 260.946348 452.257525 
L 271.858285 452.260231 
L 281.855253 452.241291 
L 291.821038 452.259892 
L 302.472859 452.146591 
L 312.401375 452.261922 
L 322.32761 452.259892 
L 333.112531 452.228438 
L 343.077555 452.263274 
L 353.166552 452.26226 
L 363.873895 452.177368 
L 373.832834 452.257863 
L 383.778844 452.269701 
L 394.616245 452.236894 
L 404.528789 452.258201 
L 414.447418 452.26226 
L 425.508427 452.258878 
L 435.443789 452.261583 
L 445.367742 452.260231 
L 456.149621 452.235203 
L 466.133659 452.254143 
L 476.061415 452.260231 
L 486.907942 452.20544 
L 496.884375 452.259216 
L 506.810609 452.258201 
L 517.722546 452.227424 
L 527.667795 235.709821 
L 537.584143 235.992568 
L 548.570616 236.862455 
L 558.533358 237.214536 
L 568.458071 237.557147 
L 579.265049 238.293439 
L 589.230834 238.630976 
L 599.165435 89.28 
L 609.961764 90.048423 
L 619.948084 90.398474 
L 629.896376 90.764422 
L 640.71248 91.497332 
L 650.643279 91.836561 
L 660.580161 92.150085 
L 671.365082 92.894495 
L 681.295881 93.251311 
L 691.311863 93.608127 
L 702.115798 94.334272 
L 712.03747 94.679589 
L 722.033677 95.051625 
L 732.80719 95.761874 
L 742.717452 96.100765 
L 752.699209 96.437964 
L 763.645372 97.220254 
L 773.663635 97.630508 
L 783.664406 98.003896 
L 794.433356 98.722939 
L 804.409027 99.082461 
L 814.3596 99.417969 
L 825.028154 100.08459 
L 835.012192 100.466433 
L 844.956681 100.823588 
L 855.777349 101.562924 
L 865.69902 101.515235 
L 875.67241 102.258292 
L 886.486994 102.989173 
L 896.411707 103.330093 
L 906.391182 103.686232 
L 917.194357 104.42523 
L 927.166226 104.687346 
L 937.097024 105.114849 
L 948.507136 106.125433 
L 958.459231 106.465 
L 968.421973 106.816742 
L 978.781734 107.364988 
L 988.714053 107.698805 
L 998.703415 108.049871 
L 1008.92171 108.529797 
L 1019.288316 109.065867 
L 1029.280721 109.440608 
L 1039.661017 109.963149 
L 1049.967538 110.444428 
L 1059.976675 110.785009 
L 1070.335676 111.390751 
L 1080.303742 108.466551 
L 1090.281696 108.843322 
L 1101.049124 109.46665 
L 1111.106938 109.946914 
L 1121.036975 110.288511 
L 1131.856883 111.032582 
L 1142.217404 111.545991 
L 1152.168738 111.899763 
L 1162.985603 112.646878 
L 1172.949867 113.002679 
L 1182.883707 113.345967 
L 1193.769784 114.093082 
L 1203.73709 114.359933 
L 1213.65724 114.754967 
L 1224.425429 115.500053 
L 1234.362311 115.832179 
L 1245.272727 116.595867 
" style="fill:none;stroke:#ff0000;stroke-dasharray:5.55,2.4;stroke-dashoffset:0;stroke-width:1.5;"/>
    <defs>
     <path d="M -3 3 
L 3 3 
L 3 -3 
L -3 -3 
z
" id="m25ce32f8e6" style="stroke:#ff0000;stroke-linejoin:miter;"/>
    </defs>
    <g clip-path="url(#p10444c8d89)">
     <use style="fill:#ff0000;stroke:#ff0000;stroke-linejoin:miter;" x="230.727273" xlink:href="#m25ce32f8e6" y="452.229115"/>
     <use style="fill:#ff0000;stroke:#ff0000;stroke-linejoin:miter;" x="240.943286" xlink:href="#m25ce32f8e6" y="452.241967"/>
     <use style="fill:#ff0000;stroke:#ff0000;stroke-linejoin:miter;" x="250.964592" xlink:href="#m25ce32f8e6" y="452.239938"/>
     <use style="fill:#ff0000;stroke:#ff0000;stroke-linejoin:miter;" x="260.946348" xlink:href="#m25ce32f8e6" y="452.257525"/>
     <use style="fill:#ff0000;stroke:#ff0000;stroke-linejoin:miter;" x="271.858285" xlink:href="#m25ce32f8e6" y="452.260231"/>
     <use style="fill:#ff0000;stroke:#ff0000;stroke-linejoin:miter;" x="281.855253" xlink:href="#m25ce32f8e6" y="452.241291"/>
     <use style="fill:#ff0000;stroke:#ff0000;stroke-linejoin:miter;" x="291.821038" xlink:href="#m25ce32f8e6" y="452.259892"/>
     <use style="fill:#ff0000;stroke:#ff0000;stroke-linejoin:miter;" x="302.472859" xlink:href="#m25ce32f8e6" y="452.146591"/>
     <use style="fill:#ff0000;stroke:#ff0000;stroke-linejoin:miter;" x="312.401375" xlink:href="#m25ce32f8e6" y="452.261922"/>
     <use style="fill:#ff0000;stroke:#ff0000;stroke-linejoin:miter;" x="322.32761" xlink:href="#m25ce32f8e6" y="452.259892"/>
     <use style="fill:#ff0000;stroke:#ff0000;stroke-linejoin:miter;" x="333.112531" xlink:href="#m25ce32f8e6" y="452.228438"/>
     <use style="fill:#ff0000;stroke:#ff0000;stroke-linejoin:miter;" x="343.077555" xlink:href="#m25ce32f8e6" y="452.263274"/>
     <use style="fill:#ff0000;stroke:#ff0000;stroke-linejoin:miter;" x="353.166552" xlink:href="#m25ce32f8e6" y="452.26226"/>
     <use style="fill:#ff0000;stroke:#ff0000;stroke-linejoin:miter;" x="363.873895" xlink:href="#m25ce32f8e6" y="452.177368"/>
     <use style="fill:#ff0000;stroke:#ff0000;stroke-linejoin:miter;" x="373.832834" xlink:href="#m25ce32f8e6" y="452.257863"/>
     <use style="fill:#ff0000;stroke:#ff0000;stroke-linejoin:miter;" x="383.778844" xlink:href="#m25ce32f8e6" y="452.269701"/>
     <use style="fill:#ff0000;stroke:#ff0000;stroke-linejoin:miter;" x="394.616245" xlink:href="#m25ce32f8e6" y="452.236894"/>
     <use style="fill:#ff0000;stroke:#ff0000;stroke-linejoin:miter;" x="404.528789" xlink:href="#m25ce32f8e6" y="452.258201"/>
     <use style="fill:#ff0000;stroke:#ff0000;stroke-linejoin:miter;" x="414.447418" xlink:href="#m25ce32f8e6" y="452.26226"/>
     <use style="fill:#ff0000;stroke:#ff0000;stroke-linejoin:miter;" x="425.508427" xlink:href="#m25ce32f8e6" y="452.258878"/>
     <use style="fill:#ff0000;stroke:#ff0000;stroke-linejoin:miter;" x="435.443789" xlink:href="#m25ce32f8e6" y="452.261583"/>
     <use style="fill:#ff0000;stroke:#ff0000;stroke-linejoin:miter;" x="445.367742" xlink:href="#m25ce32f8e6" y="452.260231"/>
     <use style="fill:#ff0000;stroke:#ff0000;stroke-linejoin:miter;" x="456.149621" xlink:href="#m25ce32f8e6" y="452.235203"/>
     <use style="fill:#ff0000;stroke:#ff0000;stroke-linejoin:miter;" x="466.133659" xlink:href="#m25ce32f8e6" y="452.254143"/>
     <use style="fill:#ff0000;stroke:#ff0000;stroke-linejoin:miter;" x="476.061415" xlink:href="#m25ce32f8e6" y="452.260231"/>
     <use style="fill:#ff0000;stroke:#ff0000;stroke-linejoin:miter;" x="486.907942" xlink:href="#m25ce32f8e6" y="452.20544"/>
     <use style="fill:#ff0000;stroke:#ff0000;stroke-linejoin:miter;" x="496.884375" xlink:href="#m25ce32f8e6" y="452.259216"/>
     <use style="fill:#ff0000;stroke:#ff0000;stroke-linejoin:miter;" x="506.810609" xlink:href="#m25ce32f8e6" y="452.258201"/>
     <use style="fill:#ff0000;stroke:#ff0000;stroke-linejoin:miter;" x="517.722546" xlink:href="#m25ce32f8e6" y="452.227424"/>
     <use style="fill:#ff0000;stroke:#ff0000;stroke-linejoin:miter;" x="527.667795" xlink:href="#m25ce32f8e6" y="235.709821"/>
     <use style="fill:#ff0000;stroke:#ff0000;stroke-linejoin:miter;" x="537.584143" xlink:href="#m25ce32f8e6" y="235.992568"/>
     <use style="fill:#ff0000;stroke:#ff0000;stroke-linejoin:miter;" x="548.570616" xlink:href="#m25ce32f8e6" y="236.862455"/>
     <use style="fill:#ff0000;stroke:#ff0000;stroke-linejoin:miter;" x="558.533358" xlink:href="#m25ce32f8e6" y="237.214536"/>
     <use style="fill:#ff0000;stroke:#ff0000;stroke-linejoin:miter;" x="568.458071" xlink:href="#m25ce32f8e6" y="237.557147"/>
     <use style="fill:#ff0000;stroke:#ff0000;stroke-linejoin:miter;" x="579.265049" xlink:href="#m25ce32f8e6" y="238.293439"/>
     <use style="fill:#ff0000;stroke:#ff0000;stroke-linejoin:miter;" x="589.230834" xlink:href="#m25ce32f8e6" y="238.630976"/>
     <use style="fill:#ff0000;stroke:#ff0000;stroke-linejoin:miter;" x="599.165435" xlink:href="#m25ce32f8e6" y="89.28"/>
     <use style="fill:#ff0000;stroke:#ff0000;stroke-linejoin:miter;" x="609.961764" xlink:href="#m25ce32f8e6" y="90.048423"/>
     <use style="fill:#ff0000;stroke:#ff0000;stroke-linejoin:miter;" x="619.948084" xlink:href="#m25ce32f8e6" y="90.398474"/>
     <use style="fill:#ff0000;stroke:#ff0000;stroke-linejoin:miter;" x="629.896376" xlink:href="#m25ce32f8e6" y="90.764422"/>
     <use style="fill:#ff0000;stroke:#ff0000;stroke-linejoin:miter;" x="640.71248" xlink:href="#m25ce32f8e6" y="91.497332"/>
     <use style="fill:#ff0000;stroke:#ff0000;stroke-linejoin:miter;" x="650.643279" xlink:href="#m25ce32f8e6" y="91.836561"/>
     <use style="fill:#ff0000;stroke:#ff0000;stroke-linejoin:miter;" x="660.580161" xlink:href="#m25ce32f8e6" y="92.150085"/>
     <use style="fill:#ff0000;stroke:#ff0000;stroke-linejoin:miter;" x="671.365082" xlink:href="#m25ce32f8e6" y="92.894495"/>
     <use style="fill:#ff0000;stroke:#ff0000;stroke-linejoin:miter;" x="681.295881" xlink:href="#m25ce32f8e6" y="93.251311"/>
     <use style="fill:#ff0000;stroke:#ff0000;stroke-linejoin:miter;" x="691.311863" xlink:href="#m25ce32f8e6" y="93.608127"/>
     <use style="fill:#ff0000;stroke:#ff0000;stroke-linejoin:miter;" x="702.115798" xlink:href="#m25ce32f8e6" y="94.334272"/>
     <use style="fill:#ff0000;stroke:#ff0000;stroke-linejoin:miter;" x="712.03747" xlink:href="#m25ce32f8e6" y="94.679589"/>
     <use style="fill:#ff0000;stroke:#ff0000;stroke-linejoin:miter;" x="722.033677" xlink:href="#m25ce32f8e6" y="95.051625"/>
     <use style="fill:#ff0000;stroke:#ff0000;stroke-linejoin:miter;" x="732.80719" xlink:href="#m25ce32f8e6" y="95.761874"/>
     <use style="fill:#ff0000;stroke:#ff0000;stroke-linejoin:miter;" x="742.717452" xlink:href="#m25ce32f8e6" y="96.100765"/>
     <use style="fill:#ff0000;stroke:#ff0000;stroke-linejoin:miter;" x="752.699209" xlink:href="#m25ce32f8e6" y="96.437964"/>
     <use style="fill:#ff0000;stroke:#ff0000;stroke-linejoin:miter;" x="763.645372" xlink:href="#m25ce32f8e6" y="97.220254"/>
     <use style="fill:#ff0000;stroke:#ff0000;stroke-linejoin:miter;" x="773.663635" xlink:href="#m25ce32f8e6" y="97.630508"/>
     <use style="fill:#ff0000;stroke:#ff0000;stroke-linejoin:miter;" x="783.664406" xlink:href="#m25ce32f8e6" y="98.003896"/>
     <use style="fill:#ff0000;stroke:#ff0000;stroke-linejoin:miter;" x="794.433356" xlink:href="#m25ce32f8e6" y="98.722939"/>
     <use style="fill:#ff0000;stroke:#ff0000;stroke-linejoin:miter;" x="804.409027" xlink:href="#m25ce32f8e6" y="99.082461"/>
     <use style="fill:#ff0000;stroke:#ff0000;stroke-linejoin:miter;" x="814.3596" xlink:href="#m25ce32f8e6" y="99.417969"/>
     <use style="fill:#ff0000;stroke:#ff0000;stroke-linejoin:miter;" x="825.028154" xlink:href="#m25ce32f8e6" y="100.08459"/>
     <use style="fill:#ff0000;stroke:#ff0000;stroke-linejoin:miter;" x="835.012192" xlink:href="#m25ce32f8e6" y="100.466433"/>
     <use style="fill:#ff0000;stroke:#ff0000;stroke-linejoin:miter;" x="844.956681" xlink:href="#m25ce32f8e6" y="100.823588"/>
     <use style="fill:#ff0000;stroke:#ff0000;stroke-linejoin:miter;" x="855.777349" xlink:href="#m25ce32f8e6" y="101.562924"/>
     <use style="fill:#ff0000;stroke:#ff0000;stroke-linejoin:miter;" x="865.69902" xlink:href="#m25ce32f8e6" y="101.515235"/>
     <use style="fill:#ff0000;stroke:#ff0000;stroke-linejoin:miter;" x="875.67241" xlink:href="#m25ce32f8e6" y="102.258292"/>
     <use style="fill:#ff0000;stroke:#ff0000;stroke-linejoin:miter;" x="886.486994" xlink:href="#m25ce32f8e6" y="102.989173"/>
     <use style="fill:#ff0000;stroke:#ff0000;stroke-linejoin:miter;" x="896.411707" xlink:href="#m25ce32f8e6" y="103.330093"/>
     <use style="fill:#ff0000;stroke:#ff0000;stroke-linejoin:miter;" x="906.391182" xlink:href="#m25ce32f8e6" y="103.686232"/>
     <use style="fill:#ff0000;stroke:#ff0000;stroke-linejoin:miter;" x="917.194357" xlink:href="#m25ce32f8e6" y="104.42523"/>
     <use style="fill:#ff0000;stroke:#ff0000;stroke-linejoin:miter;" x="927.166226" xlink:href="#m25ce32f8e6" y="104.687346"/>
     <use style="fill:#ff0000;stroke:#ff0000;stroke-linejoin:miter;" x="937.097024" xlink:href="#m25ce32f8e6" y="105.114849"/>
     <use style="fill:#ff0000;stroke:#ff0000;stroke-linejoin:miter;" x="948.507136" xlink:href="#m25ce32f8e6" y="106.125433"/>
     <use style="fill:#ff0000;stroke:#ff0000;stroke-linejoin:miter;" x="958.459231" xlink:href="#m25ce32f8e6" y="106.465"/>
     <use style="fill:#ff0000;stroke:#ff0000;stroke-linejoin:miter;" x="968.421973" xlink:href="#m25ce32f8e6" y="106.816742"/>
     <use style="fill:#ff0000;stroke:#ff0000;stroke-linejoin:miter;" x="978.781734" xlink:href="#m25ce32f8e6" y="107.364988"/>
     <use style="fill:#ff0000;stroke:#ff0000;stroke-linejoin:miter;" x="988.714053" xlink:href="#m25ce32f8e6" y="107.698805"/>
     <use style="fill:#ff0000;stroke:#ff0000;stroke-linejoin:miter;" x="998.703415" xlink:href="#m25ce32f8e6" y="108.049871"/>
     <use style="fill:#ff0000;stroke:#ff0000;stroke-linejoin:miter;" x="1008.92171" xlink:href="#m25ce32f8e6" y="108.529797"/>
     <use style="fill:#ff0000;stroke:#ff0000;stroke-linejoin:miter;" x="1019.288316" xlink:href="#m25ce32f8e6" y="109.065867"/>
     <use style="fill:#ff0000;stroke:#ff0000;stroke-linejoin:miter;" x="1029.280721" xlink:href="#m25ce32f8e6" y="109.440608"/>
     <use style="fill:#ff0000;stroke:#ff0000;stroke-linejoin:miter;" x="1039.661017" xlink:href="#m25ce32f8e6" y="109.963149"/>
     <use style="fill:#ff0000;stroke:#ff0000;stroke-linejoin:miter;" x="1049.967538" xlink:href="#m25ce32f8e6" y="110.444428"/>
     <use style="fill:#ff0000;stroke:#ff0000;stroke-linejoin:miter;" x="1059.976675" xlink:href="#m25ce32f8e6" y="110.785009"/>
     <use style="fill:#ff0000;stroke:#ff0000;stroke-linejoin:miter;" x="1070.335676" xlink:href="#m25ce32f8e6" y="111.390751"/>
     <use style="fill:#ff0000;stroke:#ff0000;stroke-linejoin:miter;" x="1080.303742" xlink:href="#m25ce32f8e6" y="108.466551"/>
     <use style="fill:#ff0000;stroke:#ff0000;stroke-linejoin:miter;" x="1090.281696" xlink:href="#m25ce32f8e6" y="108.843322"/>
     <use style="fill:#ff0000;stroke:#ff0000;stroke-linejoin:miter;" x="1101.049124" xlink:href="#m25ce32f8e6" y="109.46665"/>
     <use style="fill:#ff0000;stroke:#ff0000;stroke-linejoin:miter;" x="1111.106938" xlink:href="#m25ce32f8e6" y="109.946914"/>
     <use style="fill:#ff0000;stroke:#ff0000;stroke-linejoin:miter;" x="1121.036975" xlink:href="#m25ce32f8e6" y="110.288511"/>
     <use style="fill:#ff0000;stroke:#ff0000;stroke-linejoin:miter;" x="1131.856883" xlink:href="#m25ce32f8e6" y="111.032582"/>
     <use style="fill:#ff0000;stroke:#ff0000;stroke-linejoin:miter;" x="1142.217404" xlink:href="#m25ce32f8e6" y="111.545991"/>
     <use style="fill:#ff0000;stroke:#ff0000;stroke-linejoin:miter;" x="1152.168738" xlink:href="#m25ce32f8e6" y="111.899763"/>
     <use style="fill:#ff0000;stroke:#ff0000;stroke-linejoin:miter;" x="1162.985603" xlink:href="#m25ce32f8e6" y="112.646878"/>
     <use style="fill:#ff0000;stroke:#ff0000;stroke-linejoin:miter;" x="1172.949867" xlink:href="#m25ce32f8e6" y="113.002679"/>
     <use style="fill:#ff0000;stroke:#ff0000;stroke-linejoin:miter;" x="1182.883707" xlink:href="#m25ce32f8e6" y="113.345967"/>
     <use style="fill:#ff0000;stroke:#ff0000;stroke-linejoin:miter;" x="1193.769784" xlink:href="#m25ce32f8e6" y="114.093082"/>
     <use style="fill:#ff0000;stroke:#ff0000;stroke-linejoin:miter;" x="1203.73709" xlink:href="#m25ce32f8e6" y="114.359933"/>
     <use style="fill:#ff0000;stroke:#ff0000;stroke-linejoin:miter;" x="1213.65724" xlink:href="#m25ce32f8e6" y="114.754967"/>
     <use style="fill:#ff0000;stroke:#ff0000;stroke-linejoin:miter;" x="1224.425429" xlink:href="#m25ce32f8e6" y="115.500053"/>
     <use style="fill:#ff0000;stroke:#ff0000;stroke-linejoin:miter;" x="1234.362311" xlink:href="#m25ce32f8e6" y="115.832179"/>
     <use style="fill:#ff0000;stroke:#ff0000;stroke-linejoin:miter;" x="1245.272727" xlink:href="#m25ce32f8e6" y="116.595867"/>
    </g>
   </g>
   <g id="line2d_17">
    <path clip-path="url(#p10444c8d89)" d="M 230.727273 452.229115 
L 240.943286 452.241967 
L 250.964592 452.239938 
L 260.946348 452.257525 
L 271.858285 452.260231 
L 281.855253 452.241291 
L 291.821038 452.259892 
L 302.472859 452.146591 
L 312.401375 452.261922 
L 322.32761 452.259892 
L 333.112531 452.228438 
L 343.077555 452.263274 
L 353.166552 452.26226 
L 363.873895 452.177368 
L 373.832834 452.257863 
L 383.778844 452.269701 
L 394.616245 452.236894 
L 404.528789 452.258201 
L 414.447418 452.26226 
L 425.508427 452.258878 
L 435.443789 452.261583 
L 445.367742 452.260231 
L 456.149621 452.235203 
L 466.133659 452.254143 
L 476.061415 452.260231 
L 486.907942 452.20544 
L 496.884375 452.259216 
L 506.810609 452.258201 
L 517.722546 452.227424 
L 1245.272727 116.595867 
" style="fill:none;stroke:#800080;stroke-dasharray:9.6,2.4,1.5,2.4;stroke-dashoffset:0;stroke-width:1.5;"/>
    <defs>
     <path d="M -3 3 
L 3 -3 
M -3 -3 
L 3 3 
" id="m7c0dc37a6d" style="stroke:#800080;"/>
    </defs>
    <g clip-path="url(#p10444c8d89)">
     <use style="fill:#800080;stroke:#800080;" x="230.727273" xlink:href="#m7c0dc37a6d" y="452.229115"/>
     <use style="fill:#800080;stroke:#800080;" x="240.943286" xlink:href="#m7c0dc37a6d" y="452.241967"/>
     <use style="fill:#800080;stroke:#800080;" x="250.964592" xlink:href="#m7c0dc37a6d" y="452.239938"/>
     <use style="fill:#800080;stroke:#800080;" x="260.946348" xlink:href="#m7c0dc37a6d" y="452.257525"/>
     <use style="fill:#800080;stroke:#800080;" x="271.858285" xlink:href="#m7c0dc37a6d" y="452.260231"/>
     <use style="fill:#800080;stroke:#800080;" x="281.855253" xlink:href="#m7c0dc37a6d" y="452.241291"/>
     <use style="fill:#800080;stroke:#800080;" x="291.821038" xlink:href="#m7c0dc37a6d" y="452.259892"/>
     <use style="fill:#800080;stroke:#800080;" x="302.472859" xlink:href="#m7c0dc37a6d" y="452.146591"/>
     <use style="fill:#800080;stroke:#800080;" x="312.401375" xlink:href="#m7c0dc37a6d" y="452.261922"/>
     <use style="fill:#800080;stroke:#800080;" x="322.32761" xlink:href="#m7c0dc37a6d" y="452.259892"/>
     <use style="fill:#800080;stroke:#800080;" x="333.112531" xlink:href="#m7c0dc37a6d" y="452.228438"/>
     <use style="fill:#800080;stroke:#800080;" x="343.077555" xlink:href="#m7c0dc37a6d" y="452.263274"/>
     <use style="fill:#800080;stroke:#800080;" x="353.166552" xlink:href="#m7c0dc37a6d" y="452.26226"/>
     <use style="fill:#800080;stroke:#800080;" x="363.873895" xlink:href="#m7c0dc37a6d" y="452.177368"/>
     <use style="fill:#800080;stroke:#800080;" x="373.832834" xlink:href="#m7c0dc37a6d" y="452.257863"/>
     <use style="fill:#800080;stroke:#800080;" x="383.778844" xlink:href="#m7c0dc37a6d" y="452.269701"/>
     <use style="fill:#800080;stroke:#800080;" x="394.616245" xlink:href="#m7c0dc37a6d" y="452.236894"/>
     <use style="fill:#800080;stroke:#800080;" x="404.528789" xlink:href="#m7c0dc37a6d" y="452.258201"/>
     <use style="fill:#800080;stroke:#800080;" x="414.447418" xlink:href="#m7c0dc37a6d" y="452.26226"/>
     <use style="fill:#800080;stroke:#800080;" x="425.508427" xlink:href="#m7c0dc37a6d" y="452.258878"/>
     <use style="fill:#800080;stroke:#800080;" x="435.443789" xlink:href="#m7c0dc37a6d" y="452.261583"/>
     <use style="fill:#800080;stroke:#800080;" x="445.367742" xlink:href="#m7c0dc37a6d" y="452.260231"/>
     <use style="fill:#800080;stroke:#800080;" x="456.149621" xlink:href="#m7c0dc37a6d" y="452.235203"/>
     <use style="fill:#800080;stroke:#800080;" x="466.133659" xlink:href="#m7c0dc37a6d" y="452.254143"/>
     <use style="fill:#800080;stroke:#800080;" x="476.061415" xlink:href="#m7c0dc37a6d" y="452.260231"/>
     <use style="fill:#800080;stroke:#800080;" x="486.907942" xlink:href="#m7c0dc37a6d" y="452.20544"/>
     <use style="fill:#800080;stroke:#800080;" x="496.884375" xlink:href="#m7c0dc37a6d" y="452.259216"/>
     <use style="fill:#800080;stroke:#800080;" x="506.810609" xlink:href="#m7c0dc37a6d" y="452.258201"/>
     <use style="fill:#800080;stroke:#800080;" x="517.722546" xlink:href="#m7c0dc37a6d" y="452.227424"/>
     <use style="fill:#800080;stroke:#800080;" x="1245.272727" xlink:href="#m7c0dc37a6d" y="116.595867"/>
    </g>
   </g>
   <g id="line2d_18">
    <path clip-path="url(#p10444c8d89)" d="M 230.727273 492.48 
L 240.943286 489.429926 
L 250.964592 486.437983 
L 260.946348 483.457848 
L 271.858285 480.2 
L 281.855253 477.215324 
L 291.821038 474.239957 
L 302.472859 471.059769 
L 312.401375 468.095529 
L 322.32761 465.131971 
L 333.112531 461.912044 
L 343.077555 458.936905 
L 353.166552 455.924753 
L 363.873895 452.727988 
L 373.832834 449.754665 
L 383.778844 446.785203 
L 394.616245 443.549608 
L 404.528789 440.590137 
L 414.447418 437.628849 
L 425.508427 434.326495 
L 435.443789 431.360211 
L 445.367742 428.397334 
L 456.149621 425.178316 
L 466.133659 422.1975 
L 476.061415 419.233487 
L 486.907942 415.995168 
L 496.884375 413.016622 
L 506.810609 410.053064 
L 517.722546 406.795216 
L 1245.272727 189.579164 
" style="fill:none;stroke:#0000ff;stroke-linecap:square;stroke-width:1.5;"/>
   </g>
   <g id="patch_3">
    <path d="M 180 512.64 
L 180 69.12 
" style="fill:none;stroke:#000000;stroke-linecap:square;stroke-linejoin:miter;stroke-width:0.8;"/>
   </g>
   <g id="patch_4">
    <path d="M 1296 512.64 
L 1296 69.12 
" style="fill:none;stroke:#000000;stroke-linecap:square;stroke-linejoin:miter;stroke-width:0.8;"/>
   </g>
   <g id="patch_5">
    <path d="M 180 512.64 
L 1296 512.64 
" style="fill:none;stroke:#000000;stroke-linecap:square;stroke-linejoin:miter;stroke-width:0.8;"/>
   </g>
   <g id="patch_6">
    <path d="M 180 69.12 
L 1296 69.12 
" style="fill:none;stroke:#000000;stroke-linecap:square;stroke-linejoin:miter;stroke-width:0.8;"/>
   </g>
   <g id="text_16">
    <!-- 500000.0 bit/s -->
    <defs>
     <path d="M 10.796875 72.90625 
L 49.515625 72.90625 
L 49.515625 64.59375 
L 19.828125 64.59375 
L 19.828125 46.734375 
Q 21.96875 47.46875 24.109375 47.828125 
Q 26.265625 48.1875 28.421875 48.1875 
Q 40.625 48.1875 47.75 41.5 
Q 54.890625 34.8125 54.890625 23.390625 
Q 54.890625 11.625 47.5625 5.09375 
Q 40.234375 -1.421875 26.90625 -1.421875 
Q 22.3125 -1.421875 17.546875 -0.640625 
Q 12.796875 0.140625 7.71875 1.703125 
L 7.71875 11.625 
Q 12.109375 9.234375 16.796875 8.0625 
Q 21.484375 6.890625 26.703125 6.890625 
Q 35.15625 6.890625 40.078125 11.328125 
Q 45.015625 15.765625 45.015625 23.390625 
Q 45.015625 31 40.078125 35.4375 
Q 35.15625 39.890625 26.703125 39.890625 
Q 22.75 39.890625 18.8125 39.015625 
Q 14.890625 38.140625 10.796875 36.28125 
z
" id="DejaVuSans-35"/>
     <path id="DejaVuSans-20"/>
     <path d="M 48.6875 27.296875 
Q 48.6875 37.203125 44.609375 42.84375 
Q 40.53125 48.484375 33.40625 48.484375 
Q 26.265625 48.484375 22.1875 42.84375 
Q 18.109375 37.203125 18.109375 27.296875 
Q 18.109375 17.390625 22.1875 11.75 
Q 26.265625 6.109375 33.40625 6.109375 
Q 40.53125 6.109375 44.609375 11.75 
Q 48.6875 17.390625 48.6875 27.296875 
z
M 18.109375 46.390625 
Q 20.953125 51.265625 25.265625 53.625 
Q 29.59375 56 35.59375 56 
Q 45.5625 56 51.78125 48.09375 
Q 58.015625 40.1875 58.015625 27.296875 
Q 58.015625 14.40625 51.78125 6.484375 
Q 45.5625 -1.421875 35.59375 -1.421875 
Q 29.59375 -1.421875 25.265625 0.953125 
Q 20.953125 3.328125 18.109375 8.203125 
L 18.109375 0 
L 9.078125 0 
L 9.078125 75.984375 
L 18.109375 75.984375 
z
" id="DejaVuSans-62"/>
     <path d="M 9.421875 54.6875 
L 18.40625 54.6875 
L 18.40625 0 
L 9.421875 0 
z
M 9.421875 75.984375 
L 18.40625 75.984375 
L 18.40625 64.59375 
L 9.421875 64.59375 
z
" id="DejaVuSans-69"/>
     <path d="M 18.3125 70.21875 
L 18.3125 54.6875 
L 36.8125 54.6875 
L 36.8125 47.703125 
L 18.3125 47.703125 
L 18.3125 18.015625 
Q 18.3125 11.328125 20.140625 9.421875 
Q 21.96875 7.515625 27.59375 7.515625 
L 36.8125 7.515625 
L 36.8125 0 
L 27.59375 0 
Q 17.1875 0 13.234375 3.875 
Q 9.28125 7.765625 9.28125 18.015625 
L 9.28125 47.703125 
L 2.6875 47.703125 
L 2.6875 54.6875 
L 9.28125 54.6875 
L 9.28125 70.21875 
z
" id="DejaVuSans-74"/>
     <path d="M 25.390625 72.90625 
L 33.6875 72.90625 
L 8.296875 -9.28125 
L 0 -9.28125 
z
" id="DejaVuSans-2f"/>
     <path d="M 44.28125 53.078125 
L 44.28125 44.578125 
Q 40.484375 46.53125 36.375 47.5 
Q 32.28125 48.484375 27.875 48.484375 
Q 21.1875 48.484375 17.84375 46.4375 
Q 14.5 44.390625 14.5 40.28125 
Q 14.5 37.15625 16.890625 35.375 
Q 19.28125 33.59375 26.515625 31.984375 
L 29.59375 31.296875 
Q 39.15625 29.25 43.1875 25.515625 
Q 47.21875 21.78125 47.21875 15.09375 
Q 47.21875 7.46875 41.1875 3.015625 
Q 35.15625 -1.421875 24.609375 -1.421875 
Q 20.21875 -1.421875 15.453125 -0.5625 
Q 10.6875 0.296875 5.421875 2 
L 5.421875 11.28125 
Q 10.40625 8.6875 15.234375 7.390625 
Q 20.0625 6.109375 24.8125 6.109375 
Q 31.15625 6.109375 34.5625 8.28125 
Q 37.984375 10.453125 37.984375 14.40625 
Q 37.984375 18.0625 35.515625 20.015625 
Q 33.0625 21.96875 24.703125 23.78125 
L 21.578125 24.515625 
Q 13.234375 26.265625 9.515625 29.90625 
Q 5.8125 33.546875 5.8125 39.890625 
Q 5.8125 47.609375 11.28125 51.796875 
Q 16.75 56 26.8125 56 
Q 31.78125 56 36.171875 55.265625 
Q 40.578125 54.546875 44.28125 53.078125 
z
" id="DejaVuSans-73"/>
    </defs>
    <g transform="translate(694.48875 63.12)scale(0.12 -0.12)">
     <use xlink:href="#DejaVuSans-35"/>
     <use x="63.623047" xlink:href="#DejaVuSans-30"/>
     <use x="127.246094" xlink:href="#DejaVuSans-30"/>
     <use x="190.869141" xlink:href="#DejaVuSans-30"/>
     <use x="254.492188" xlink:href="#DejaVuSans-30"/>
     <use x="318.115234" xlink:href="#DejaVuSans-30"/>
     <use x="381.738281" xlink:href="#DejaVuSans-2e"/>
     <use x="413.525391" xlink:href="#DejaVuSans-30"/>
     <use x="477.148438" xlink:href="#DejaVuSans-20"/>
     <use x="508.935547" xlink:href="#DejaVuSans-62"/>
     <use x="572.412109" xlink:href="#DejaVuSans-69"/>
     <use x="600.195312" xlink:href="#DejaVuSans-74"/>
     <use x="639.404297" xlink:href="#DejaVuSans-2f"/>
     <use x="673.095703" xlink:href="#DejaVuSans-73"/>
    </g>
   </g>
   <g id="legend_1">
    <g id="patch_7">
     <path d="M 1173.520313 121.154375 
L 1289 121.154375 
Q 1291 121.154375 1291 119.154375 
L 1291 76.12 
Q 1291 74.12 1289 74.12 
L 1173.520313 74.12 
Q 1171.520313 74.12 1171.520313 76.12 
L 1171.520313 119.154375 
Q 1171.520313 121.154375 1173.520313 121.154375 
z
" style="fill:#ffffff;opacity:0.8;stroke:#cccccc;stroke-linejoin:miter;"/>
    </g>
    <g id="line2d_19">
     <path d="M 1175.520313 82.218438 
L 1195.520313 82.218438 
" style="fill:none;stroke:#ff0000;stroke-dasharray:5.55,2.4;stroke-dashoffset:0;stroke-width:1.5;"/>
    </g>
    <g id="line2d_20">
     <g>
      <use style="fill:#ff0000;stroke:#ff0000;stroke-linejoin:miter;" x="1185.520313" xlink:href="#m25ce32f8e6" y="82.218438"/>
     </g>
    </g>
    <g id="text_17">
     <!-- tcpdump -->
     <defs>
      <path d="M 48.78125 52.59375 
L 48.78125 44.1875 
Q 44.96875 46.296875 41.140625 47.34375 
Q 37.3125 48.390625 33.40625 48.390625 
Q 24.65625 48.390625 19.8125 42.84375 
Q 14.984375 37.3125 14.984375 27.296875 
Q 14.984375 17.28125 19.8125 11.734375 
Q 24.65625 6.203125 33.40625 6.203125 
Q 37.3125 6.203125 41.140625 7.25 
Q 44.96875 8.296875 48.78125 10.40625 
L 48.78125 2.09375 
Q 45.015625 0.34375 40.984375 -0.53125 
Q 36.96875 -1.421875 32.421875 -1.421875 
Q 20.0625 -1.421875 12.78125 6.34375 
Q 5.515625 14.109375 5.515625 27.296875 
Q 5.515625 40.671875 12.859375 48.328125 
Q 20.21875 56 33.015625 56 
Q 37.15625 56 41.109375 55.140625 
Q 45.0625 54.296875 48.78125 52.59375 
z
" id="DejaVuSans-63"/>
      <path d="M 18.109375 8.203125 
L 18.109375 -20.796875 
L 9.078125 -20.796875 
L 9.078125 54.6875 
L 18.109375 54.6875 
L 18.109375 46.390625 
Q 20.953125 51.265625 25.265625 53.625 
Q 29.59375 56 35.59375 56 
Q 45.5625 56 51.78125 48.09375 
Q 58.015625 40.1875 58.015625 27.296875 
Q 58.015625 14.40625 51.78125 6.484375 
Q 45.5625 -1.421875 35.59375 -1.421875 
Q 29.59375 -1.421875 25.265625 0.953125 
Q 20.953125 3.328125 18.109375 8.203125 
z
M 48.6875 27.296875 
Q 48.6875 37.203125 44.609375 42.84375 
Q 40.53125 48.484375 33.40625 48.484375 
Q 26.265625 48.484375 22.1875 42.84375 
Q 18.109375 37.203125 18.109375 27.296875 
Q 18.109375 17.390625 22.1875 11.75 
Q 26.265625 6.109375 33.40625 6.109375 
Q 40.53125 6.109375 44.609375 11.75 
Q 48.6875 17.390625 48.6875 27.296875 
z
" id="DejaVuSans-70"/>
      <path d="M 45.40625 46.390625 
L 45.40625 75.984375 
L 54.390625 75.984375 
L 54.390625 0 
L 45.40625 0 
L 45.40625 8.203125 
Q 42.578125 3.328125 38.25 0.953125 
Q 33.9375 -1.421875 27.875 -1.421875 
Q 17.96875 -1.421875 11.734375 6.484375 
Q 5.515625 14.40625 5.515625 27.296875 
Q 5.515625 40.1875 11.734375 48.09375 
Q 17.96875 56 27.875 56 
Q 33.9375 56 38.25 53.625 
Q 42.578125 51.265625 45.40625 46.390625 
z
M 14.796875 27.296875 
Q 14.796875 17.390625 18.875 11.75 
Q 22.953125 6.109375 30.078125 6.109375 
Q 37.203125 6.109375 41.296875 11.75 
Q 45.40625 17.390625 45.40625 27.296875 
Q 45.40625 37.203125 41.296875 42.84375 
Q 37.203125 48.484375 30.078125 48.484375 
Q 22.953125 48.484375 18.875 42.84375 
Q 14.796875 37.203125 14.796875 27.296875 
z
" id="DejaVuSans-64"/>
      <path d="M 8.5 21.578125 
L 8.5 54.6875 
L 17.484375 54.6875 
L 17.484375 21.921875 
Q 17.484375 14.15625 20.5 10.265625 
Q 23.53125 6.390625 29.59375 6.390625 
Q 36.859375 6.390625 41.078125 11.03125 
Q 45.3125 15.671875 45.3125 23.6875 
L 45.3125 54.6875 
L 54.296875 54.6875 
L 54.296875 0 
L 45.3125 0 
L 45.3125 8.40625 
Q 42.046875 3.421875 37.71875 1 
Q 33.40625 -1.421875 27.6875 -1.421875 
Q 18.265625 -1.421875 13.375 4.4375 
Q 8.5 10.296875 8.5 21.578125 
z
M 31.109375 56 
z
" id="DejaVuSans-75"/>
      <path d="M 52 44.1875 
Q 55.375 50.25 60.0625 53.125 
Q 64.75 56 71.09375 56 
Q 79.640625 56 84.28125 50.015625 
Q 88.921875 44.046875 88.921875 33.015625 
L 88.921875 0 
L 79.890625 0 
L 79.890625 32.71875 
Q 79.890625 40.578125 77.09375 44.375 
Q 74.3125 48.1875 68.609375 48.1875 
Q 61.625 48.1875 57.5625 43.546875 
Q 53.515625 38.921875 53.515625 30.90625 
L 53.515625 0 
L 44.484375 0 
L 44.484375 32.71875 
Q 44.484375 40.625 41.703125 44.40625 
Q 38.921875 48.1875 33.109375 48.1875 
Q 26.21875 48.1875 22.15625 43.53125 
Q 18.109375 38.875 18.109375 30.90625 
L 18.109375 0 
L 9.078125 0 
L 9.078125 54.6875 
L 18.109375 54.6875 
L 18.109375 46.1875 
Q 21.1875 51.21875 25.484375 53.609375 
Q 29.78125 56 35.6875 56 
Q 41.65625 56 45.828125 52.96875 
Q 50 49.953125 52 44.1875 
z
" id="DejaVuSans-6d"/>
     </defs>
     <g transform="translate(1203.520313 85.718438)scale(0.1 -0.1)">
      <use xlink:href="#DejaVuSans-74"/>
      <use x="39.208984" xlink:href="#DejaVuSans-63"/>
      <use x="94.189453" xlink:href="#DejaVuSans-70"/>
      <use x="157.666016" xlink:href="#DejaVuSans-64"/>
      <use x="221.142578" xlink:href="#DejaVuSans-75"/>
      <use x="284.521484" xlink:href="#DejaVuSans-6d"/>
      <use x="381.933594" xlink:href="#DejaVuSans-70"/>
     </g>
    </g>
    <g id="line2d_21">
     <path d="M 1175.520313 96.896563 
L 1195.520313 96.896563 
" style="fill:none;stroke:#800080;stroke-dasharray:9.6,2.4,1.5,2.4;stroke-dashoffset:0;stroke-width:1.5;"/>
    </g>
    <g id="line2d_22">
     <g>
      <use style="fill:#800080;stroke:#800080;" x="1185.520313" xlink:href="#m7c0dc37a6d" y="96.896563"/>
     </g>
    </g>
    <g id="text_18">
     <!-- filtered tcpdump -->
     <defs>
      <path d="M 37.109375 75.984375 
L 37.109375 68.5 
L 28.515625 68.5 
Q 23.6875 68.5 21.796875 66.546875 
Q 19.921875 64.59375 19.921875 59.515625 
L 19.921875 54.6875 
L 34.71875 54.6875 
L 34.71875 47.703125 
L 19.921875 47.703125 
L 19.921875 0 
L 10.890625 0 
L 10.890625 47.703125 
L 2.296875 47.703125 
L 2.296875 54.6875 
L 10.890625 54.6875 
L 10.890625 58.5 
Q 10.890625 67.625 15.140625 71.796875 
Q 19.390625 75.984375 28.609375 75.984375 
z
" id="DejaVuSans-66"/>
      <path d="M 9.421875 75.984375 
L 18.40625 75.984375 
L 18.40625 0 
L 9.421875 0 
z
" id="DejaVuSans-6c"/>
      <path d="M 56.203125 29.59375 
L 56.203125 25.203125 
L 14.890625 25.203125 
Q 15.484375 15.921875 20.484375 11.0625 
Q 25.484375 6.203125 34.421875 6.203125 
Q 39.59375 6.203125 44.453125 7.46875 
Q 49.3125 8.734375 54.109375 11.28125 
L 54.109375 2.78125 
Q 49.265625 0.734375 44.1875 -0.34375 
Q 39.109375 -1.421875 33.890625 -1.421875 
Q 20.796875 -1.421875 13.15625 6.1875 
Q 5.515625 13.8125 5.515625 26.8125 
Q 5.515625 40.234375 12.765625 48.109375 
Q 20.015625 56 32.328125 56 
Q 43.359375 56 49.78125 48.890625 
Q 56.203125 41.796875 56.203125 29.59375 
z
M 47.21875 32.234375 
Q 47.125 39.59375 43.09375 43.984375 
Q 39.0625 48.390625 32.421875 48.390625 
Q 24.90625 48.390625 20.390625 44.140625 
Q 15.875 39.890625 15.1875 32.171875 
z
" id="DejaVuSans-65"/>
      <path d="M 41.109375 46.296875 
Q 39.59375 47.171875 37.8125 47.578125 
Q 36.03125 48 33.890625 48 
Q 26.265625 48 22.1875 43.046875 
Q 18.109375 38.09375 18.109375 28.8125 
L 18.109375 0 
L 9.078125 0 
L 9.078125 54.6875 
L 18.109375 54.6875 
L 18.109375 46.1875 
Q 20.953125 51.171875 25.484375 53.578125 
Q 30.03125 56 36.53125 56 
Q 37.453125 56 38.578125 55.875 
Q 39.703125 55.765625 41.0625 55.515625 
z
" id="DejaVuSans-72"/>
     </defs>
     <g transform="translate(1203.520313 100.396563)scale(0.1 -0.1)">
      <use xlink:href="#DejaVuSans-66"/>
      <use x="35.205078" xlink:href="#DejaVuSans-69"/>
      <use x="62.988281" xlink:href="#DejaVuSans-6c"/>
      <use x="90.771484" xlink:href="#DejaVuSans-74"/>
      <use x="129.980469" xlink:href="#DejaVuSans-65"/>
      <use x="191.503906" xlink:href="#DejaVuSans-72"/>
      <use x="232.585938" xlink:href="#DejaVuSans-65"/>
      <use x="294.109375" xlink:href="#DejaVuSans-64"/>
      <use x="357.585938" xlink:href="#DejaVuSans-20"/>
      <use x="389.373047" xlink:href="#DejaVuSans-74"/>
      <use x="428.582031" xlink:href="#DejaVuSans-63"/>
      <use x="483.5625" xlink:href="#DejaVuSans-70"/>
      <use x="547.039062" xlink:href="#DejaVuSans-64"/>
      <use x="610.515625" xlink:href="#DejaVuSans-75"/>
      <use x="673.894531" xlink:href="#DejaVuSans-6d"/>
      <use x="771.306641" xlink:href="#DejaVuSans-70"/>
     </g>
    </g>
    <g id="line2d_23">
     <path d="M 1175.520313 111.574688 
L 1195.520313 111.574688 
" style="fill:none;stroke:#0000ff;stroke-linecap:square;stroke-width:1.5;"/>
    </g>
    <g id="line2d_24"/>
    <g id="text_19">
     <!-- OLS -->
     <defs>
      <path d="M 39.40625 66.21875 
Q 28.65625 66.21875 22.328125 58.203125 
Q 16.015625 50.203125 16.015625 36.375 
Q 16.015625 22.609375 22.328125 14.59375 
Q 28.65625 6.59375 39.40625 6.59375 
Q 50.140625 6.59375 56.421875 14.59375 
Q 62.703125 22.609375 62.703125 36.375 
Q 62.703125 50.203125 56.421875 58.203125 
Q 50.140625 66.21875 39.40625 66.21875 
z
M 39.40625 74.21875 
Q 54.734375 74.21875 63.90625 63.9375 
Q 73.09375 53.65625 73.09375 36.375 
Q 73.09375 19.140625 63.90625 8.859375 
Q 54.734375 -1.421875 39.40625 -1.421875 
Q 24.03125 -1.421875 14.8125 8.828125 
Q 5.609375 19.09375 5.609375 36.375 
Q 5.609375 53.65625 14.8125 63.9375 
Q 24.03125 74.21875 39.40625 74.21875 
z
" id="DejaVuSans-4f"/>
      <path d="M 9.8125 72.90625 
L 19.671875 72.90625 
L 19.671875 8.296875 
L 55.171875 8.296875 
L 55.171875 0 
L 9.8125 0 
z
" id="DejaVuSans-4c"/>
      <path d="M 53.515625 70.515625 
L 53.515625 60.890625 
Q 47.90625 63.578125 42.921875 64.890625 
Q 37.9375 66.21875 33.296875 66.21875 
Q 25.25 66.21875 20.875 63.09375 
Q 16.5 59.96875 16.5 54.203125 
Q 16.5 49.359375 19.40625 46.890625 
Q 22.3125 44.4375 30.421875 42.921875 
L 36.375 41.703125 
Q 47.40625 39.59375 52.65625 34.296875 
Q 57.90625 29 57.90625 20.125 
Q 57.90625 9.515625 50.796875 4.046875 
Q 43.703125 -1.421875 29.984375 -1.421875 
Q 24.8125 -1.421875 18.96875 -0.25 
Q 13.140625 0.921875 6.890625 3.21875 
L 6.890625 13.375 
Q 12.890625 10.015625 18.65625 8.296875 
Q 24.421875 6.59375 29.984375 6.59375 
Q 38.421875 6.59375 43.015625 9.90625 
Q 47.609375 13.234375 47.609375 19.390625 
Q 47.609375 24.75 44.3125 27.78125 
Q 41.015625 30.8125 33.5 32.328125 
L 27.484375 33.5 
Q 16.453125 35.6875 11.515625 40.375 
Q 6.59375 45.0625 6.59375 53.421875 
Q 6.59375 63.09375 13.40625 68.65625 
Q 20.21875 74.21875 32.171875 74.21875 
Q 37.3125 74.21875 42.625 73.28125 
Q 47.953125 72.359375 53.515625 70.515625 
z
" id="DejaVuSans-53"/>
     </defs>
     <g transform="translate(1203.520313 115.074688)scale(0.1 -0.1)">
      <use xlink:href="#DejaVuSans-4f"/>
      <use x="78.710938" xlink:href="#DejaVuSans-4c"/>
      <use x="134.423828" xlink:href="#DejaVuSans-53"/>
     </g>
    </g>
   </g>
  </g>
 </g>
 <defs>
  <clipPath id="p10444c8d89">
   <rect height="443.52" width="1116" x="180" y="69.12"/>
  </clipPath>
 </defs>
</svg>
