<?xml version="1.0" encoding="utf-8" standalone="no"?>
<!DOCTYPE svg PUBLIC "-//W3C//DTD SVG 1.1//EN"
  "http://www.w3.org/Graphics/SVG/1.1/DTD/svg11.dtd">
<!-- Created with matplotlib (http://matplotlib.org/) -->
<svg height="576pt" version="1.1" viewBox="0 0 1440 576" width="1440pt" xmlns="http://www.w3.org/2000/svg" xmlns:xlink="http://www.w3.org/1999/xlink">
 <defs>
  <style type="text/css">
*{stroke-linecap:butt;stroke-linejoin:round;}
  </style>
 </defs>
 <g id="figure_1">
  <g id="patch_1">
   <path d="M 0 576 
L 1440 576 
L 1440 0 
L 0 0 
z
" style="fill:#ffffff;"/>
  </g>
  <g id="axes_1">
   <g id="patch_2">
    <path d="M 180 512.64 
L 1296 512.64 
L 1296 69.12 
L 180 69.12 
z
" style="fill:#ffffff;"/>
   </g>
   <g id="matplotlib.axis_1">
    <g id="xtick_1">
     <g id="line2d_1">
      <defs>
       <path d="M 0 0 
L 0 3.5 
" id="m648fa955f9" style="stroke:#000000;stroke-width:0.8;"/>
      </defs>
      <g>
       <use style="stroke:#000000;stroke-width:0.8;" x="230.727273" xlink:href="#m648fa955f9" y="512.64"/>
      </g>
     </g>
     <g id="text_1">
      <!-- 0.00 -->
      <defs>
       <path d="M 31.78125 66.40625 
Q 24.171875 66.40625 20.328125 58.90625 
Q 16.5 51.421875 16.5 36.375 
Q 16.5 21.390625 20.328125 13.890625 
Q 24.171875 6.390625 31.78125 6.390625 
Q 39.453125 6.390625 43.28125 13.890625 
Q 47.125 21.390625 47.125 36.375 
Q 47.125 51.421875 43.28125 58.90625 
Q 39.453125 66.40625 31.78125 66.40625 
z
M 31.78125 74.21875 
Q 44.046875 74.21875 50.515625 64.515625 
Q 56.984375 54.828125 56.984375 36.375 
Q 56.984375 17.96875 50.515625 8.265625 
Q 44.046875 -1.421875 31.78125 -1.421875 
Q 19.53125 -1.421875 13.0625 8.265625 
Q 6.59375 17.96875 6.59375 36.375 
Q 6.59375 54.828125 13.0625 64.515625 
Q 19.53125 74.21875 31.78125 74.21875 
z
" id="DejaVuSans-30"/>
       <path d="M 10.6875 12.40625 
L 21 12.40625 
L 21 0 
L 10.6875 0 
z
" id="DejaVuSans-2e"/>
      </defs>
      <g transform="translate(219.59446 527.238438)scale(0.1 -0.1)">
       <use xlink:href="#DejaVuSans-30"/>
       <use x="63.623047" xlink:href="#DejaVuSans-2e"/>
       <use x="95.410156" xlink:href="#DejaVuSans-30"/>
       <use x="159.033203" xlink:href="#DejaVuSans-30"/>
      </g>
     </g>
    </g>
    <g id="xtick_2">
     <g id="line2d_2">
      <g>
       <use style="stroke:#000000;stroke-width:0.8;" x="430.955705" xlink:href="#m648fa955f9" y="512.64"/>
      </g>
     </g>
     <g id="text_2">
      <!-- 0.05 -->
      <defs>
       <path d="M 10.796875 72.90625 
L 49.515625 72.90625 
L 49.515625 64.59375 
L 19.828125 64.59375 
L 19.828125 46.734375 
Q 21.96875 47.46875 24.109375 47.828125 
Q 26.265625 48.1875 28.421875 48.1875 
Q 40.625 48.1875 47.75 41.5 
Q 54.890625 34.8125 54.890625 23.390625 
Q 54.890625 11.625 47.5625 5.09375 
Q 40.234375 -1.421875 26.90625 -1.421875 
Q 22.3125 -1.421875 17.546875 -0.640625 
Q 12.796875 0.140625 7.71875 1.703125 
L 7.71875 11.625 
Q 12.109375 9.234375 16.796875 8.0625 
Q 21.484375 6.890625 26.703125 6.890625 
Q 35.15625 6.890625 40.078125 11.328125 
Q 45.015625 15.765625 45.015625 23.390625 
Q 45.015625 31 40.078125 35.4375 
Q 35.15625 39.890625 26.703125 39.890625 
Q 22.75 39.890625 18.8125 39.015625 
Q 14.890625 38.140625 10.796875 36.28125 
z
" id="DejaVuSans-35"/>
      </defs>
      <g transform="translate(419.822893 527.238438)scale(0.1 -0.1)">
       <use xlink:href="#DejaVuSans-30"/>
       <use x="63.623047" xlink:href="#DejaVuSans-2e"/>
       <use x="95.410156" xlink:href="#DejaVuSans-30"/>
       <use x="159.033203" xlink:href="#DejaVuSans-35"/>
      </g>
     </g>
    </g>
    <g id="xtick_3">
     <g id="line2d_3">
      <g>
       <use style="stroke:#000000;stroke-width:0.8;" x="631.184138" xlink:href="#m648fa955f9" y="512.64"/>
      </g>
     </g>
     <g id="text_3">
      <!-- 0.10 -->
      <defs>
       <path d="M 12.40625 8.296875 
L 28.515625 8.296875 
L 28.515625 63.921875 
L 10.984375 60.40625 
L 10.984375 69.390625 
L 28.421875 72.90625 
L 38.28125 72.90625 
L 38.28125 8.296875 
L 54.390625 8.296875 
L 54.390625 0 
L 12.40625 0 
z
" id="DejaVuSans-31"/>
      </defs>
      <g transform="translate(620.051326 527.238438)scale(0.1 -0.1)">
       <use xlink:href="#DejaVuSans-30"/>
       <use x="63.623047" xlink:href="#DejaVuSans-2e"/>
       <use x="95.410156" xlink:href="#DejaVuSans-31"/>
       <use x="159.033203" xlink:href="#DejaVuSans-30"/>
      </g>
     </g>
    </g>
    <g id="xtick_4">
     <g id="line2d_4">
      <g>
       <use style="stroke:#000000;stroke-width:0.8;" x="831.412571" xlink:href="#m648fa955f9" y="512.64"/>
      </g>
     </g>
     <g id="text_4">
      <!-- 0.15 -->
      <g transform="translate(820.279758 527.238438)scale(0.1 -0.1)">
       <use xlink:href="#DejaVuSans-30"/>
       <use x="63.623047" xlink:href="#DejaVuSans-2e"/>
       <use x="95.410156" xlink:href="#DejaVuSans-31"/>
       <use x="159.033203" xlink:href="#DejaVuSans-35"/>
      </g>
     </g>
    </g>
    <g id="xtick_5">
     <g id="line2d_5">
      <g>
       <use style="stroke:#000000;stroke-width:0.8;" x="1031.641003" xlink:href="#m648fa955f9" y="512.64"/>
      </g>
     </g>
     <g id="text_5">
      <!-- 0.20 -->
      <defs>
       <path d="M 19.1875 8.296875 
L 53.609375 8.296875 
L 53.609375 0 
L 7.328125 0 
L 7.328125 8.296875 
Q 12.9375 14.109375 22.625 23.890625 
Q 32.328125 33.6875 34.8125 36.53125 
Q 39.546875 41.84375 41.421875 45.53125 
Q 43.3125 49.21875 43.3125 52.78125 
Q 43.3125 58.59375 39.234375 62.25 
Q 35.15625 65.921875 28.609375 65.921875 
Q 23.96875 65.921875 18.8125 64.3125 
Q 13.671875 62.703125 7.8125 59.421875 
L 7.8125 69.390625 
Q 13.765625 71.78125 18.9375 73 
Q 24.125 74.21875 28.421875 74.21875 
Q 39.75 74.21875 46.484375 68.546875 
Q 53.21875 62.890625 53.21875 53.421875 
Q 53.21875 48.921875 51.53125 44.890625 
Q 49.859375 40.875 45.40625 35.40625 
Q 44.1875 33.984375 37.640625 27.21875 
Q 31.109375 20.453125 19.1875 8.296875 
z
" id="DejaVuSans-32"/>
      </defs>
      <g transform="translate(1020.508191 527.238438)scale(0.1 -0.1)">
       <use xlink:href="#DejaVuSans-30"/>
       <use x="63.623047" xlink:href="#DejaVuSans-2e"/>
       <use x="95.410156" xlink:href="#DejaVuSans-32"/>
       <use x="159.033203" xlink:href="#DejaVuSans-30"/>
      </g>
     </g>
    </g>
    <g id="xtick_6">
     <g id="line2d_6">
      <g>
       <use style="stroke:#000000;stroke-width:0.8;" x="1231.869436" xlink:href="#m648fa955f9" y="512.64"/>
      </g>
     </g>
     <g id="text_6">
      <!-- 0.25 -->
      <g transform="translate(1220.736623 527.238438)scale(0.1 -0.1)">
       <use xlink:href="#DejaVuSans-30"/>
       <use x="63.623047" xlink:href="#DejaVuSans-2e"/>
       <use x="95.410156" xlink:href="#DejaVuSans-32"/>
       <use x="159.033203" xlink:href="#DejaVuSans-35"/>
      </g>
     </g>
    </g>
   </g>
   <g id="matplotlib.axis_2">
    <g id="ytick_1">
     <g id="line2d_7">
      <defs>
       <path d="M 0 0 
L -3.5 0 
" id="m2dfe4580b8" style="stroke:#000000;stroke-width:0.8;"/>
      </defs>
      <g>
       <use style="stroke:#000000;stroke-width:0.8;" x="180" xlink:href="#m2dfe4580b8" y="483.676468"/>
      </g>
     </g>
     <g id="text_7">
      <!-- 0.25 -->
      <g transform="translate(150.734375 487.475687)scale(0.1 -0.1)">
       <use xlink:href="#DejaVuSans-30"/>
       <use x="63.623047" xlink:href="#DejaVuSans-2e"/>
       <use x="95.410156" xlink:href="#DejaVuSans-32"/>
       <use x="159.033203" xlink:href="#DejaVuSans-35"/>
      </g>
     </g>
    </g>
    <g id="ytick_2">
     <g id="line2d_8">
      <g>
       <use style="stroke:#000000;stroke-width:0.8;" x="180" xlink:href="#m2dfe4580b8" y="423.246494"/>
      </g>
     </g>
     <g id="text_8">
      <!-- 0.50 -->
      <g transform="translate(150.734375 427.045713)scale(0.1 -0.1)">
       <use xlink:href="#DejaVuSans-30"/>
       <use x="63.623047" xlink:href="#DejaVuSans-2e"/>
       <use x="95.410156" xlink:href="#DejaVuSans-35"/>
       <use x="159.033203" xlink:href="#DejaVuSans-30"/>
      </g>
     </g>
    </g>
    <g id="ytick_3">
     <g id="line2d_9">
      <g>
       <use style="stroke:#000000;stroke-width:0.8;" x="180" xlink:href="#m2dfe4580b8" y="362.81652"/>
      </g>
     </g>
     <g id="text_9">
      <!-- 0.75 -->
      <defs>
       <path d="M 8.203125 72.90625 
L 55.078125 72.90625 
L 55.078125 68.703125 
L 28.609375 0 
L 18.3125 0 
L 43.21875 64.59375 
L 8.203125 64.59375 
z
" id="DejaVuSans-37"/>
      </defs>
      <g transform="translate(150.734375 366.615738)scale(0.1 -0.1)">
       <use xlink:href="#DejaVuSans-30"/>
       <use x="63.623047" xlink:href="#DejaVuSans-2e"/>
       <use x="95.410156" xlink:href="#DejaVuSans-37"/>
       <use x="159.033203" xlink:href="#DejaVuSans-35"/>
      </g>
     </g>
    </g>
    <g id="ytick_4">
     <g id="line2d_10">
      <g>
       <use style="stroke:#000000;stroke-width:0.8;" x="180" xlink:href="#m2dfe4580b8" y="302.386546"/>
      </g>
     </g>
     <g id="text_10">
      <!-- 1.00 -->
      <g transform="translate(150.734375 306.185764)scale(0.1 -0.1)">
       <use xlink:href="#DejaVuSans-31"/>
       <use x="63.623047" xlink:href="#DejaVuSans-2e"/>
       <use x="95.410156" xlink:href="#DejaVuSans-30"/>
       <use x="159.033203" xlink:href="#DejaVuSans-30"/>
      </g>
     </g>
    </g>
    <g id="ytick_5">
     <g id="line2d_11">
      <g>
       <use style="stroke:#000000;stroke-width:0.8;" x="180" xlink:href="#m2dfe4580b8" y="241.956571"/>
      </g>
     </g>
     <g id="text_11">
      <!-- 1.25 -->
      <g transform="translate(150.734375 245.75579)scale(0.1 -0.1)">
       <use xlink:href="#DejaVuSans-31"/>
       <use x="63.623047" xlink:href="#DejaVuSans-2e"/>
       <use x="95.410156" xlink:href="#DejaVuSans-32"/>
       <use x="159.033203" xlink:href="#DejaVuSans-35"/>
      </g>
     </g>
    </g>
    <g id="ytick_6">
     <g id="line2d_12">
      <g>
       <use style="stroke:#000000;stroke-width:0.8;" x="180" xlink:href="#m2dfe4580b8" y="181.526597"/>
      </g>
     </g>
     <g id="text_12">
      <!-- 1.50 -->
      <g transform="translate(150.734375 185.325816)scale(0.1 -0.1)">
       <use xlink:href="#DejaVuSans-31"/>
       <use x="63.623047" xlink:href="#DejaVuSans-2e"/>
       <use x="95.410156" xlink:href="#DejaVuSans-35"/>
       <use x="159.033203" xlink:href="#DejaVuSans-30"/>
      </g>
     </g>
    </g>
    <g id="ytick_7">
     <g id="line2d_13">
      <g>
       <use style="stroke:#000000;stroke-width:0.8;" x="180" xlink:href="#m2dfe4580b8" y="121.096623"/>
      </g>
     </g>
     <g id="text_13">
      <!-- 1.75 -->
      <g transform="translate(150.734375 124.895842)scale(0.1 -0.1)">
       <use xlink:href="#DejaVuSans-31"/>
       <use x="63.623047" xlink:href="#DejaVuSans-2e"/>
       <use x="95.410156" xlink:href="#DejaVuSans-37"/>
       <use x="159.033203" xlink:href="#DejaVuSans-35"/>
      </g>
     </g>
    </g>
   </g>
   <g id="line2d_14">
    <path clip-path="url(#p03f5389f55)" d="M 230.727273 471.490885 
L 250.674029 471.471064 
L 263.408558 470.716172 
L 273.203732 468.402671 
L 287.70828 466.371741 
L 296.858719 464.005061 
L 304.979985 461.583753 
L 312.933058 459.13368 
L 327.201336 457.103233 
L 335.110359 454.635998 
L 343.660113 452.276087 
L 352.025657 449.868798 
L 359.970721 447.434679 
L 370.254454 445.143899 
L 379.601117 442.769243 
L 387.6503 440.349869 
L 395.77557 437.951524 
L 410.600483 435.923736 
L 419.839023 433.580019 
L 427.916238 431.120278 
L 435.921371 428.720724 
L 450.722256 426.677708 
L 459.976814 383.353767 
L 469.707916 381.037366 
L 479.290849 378.700418 
L 491.77309 376.506326 
L 500.95957 374.198384 
L 509.229004 371.743477 
L 517.546493 369.357944 
L 532.091087 367.323629 
L 541.441755 364.970727 
L 549.647116 362.568757 
L 557.812431 360.109257 
L 572.713431 358.131988 
L 581.931948 355.776911 
L 590.037195 353.316444 
L 598.146447 350.919308 
L 613.083488 348.920285 
L 622.414133 346.572217 
L 630.531393 344.141724 
L 638.684695 341.729601 
L 653.841987 339.690935 
L 662.724121 337.354954 
L 671.50614 334.968937 
L 679.727519 332.555364 
L 693.987788 330.506063 
L 703.15825 328.094182 
L 711.275511 313.915859 
L 719.564968 311.598733 
L 735.138736 297.915936 
L 743.664462 295.48786 
L 751.777718 281.379636 
L 759.951043 278.963646 
L 775.308564 265.257644 
L 784.090583 262.885405 
L 792.119743 248.749626 
L 800.156912 246.324933 
L 815.682625 238.485715 
L 824.736955 236.128221 
L 833.342773 222.018789 
L 841.552139 219.592405 
L 856.557257 217.604017 
L 865.25518 215.200838 
L 880.500573 213.22236 
L 896.258551 211.172576 
L 905.437022 208.816048 
L 913.750507 206.412869 
L 921.991909 203.97875 
L 937.005037 201.989395 
L 945.955248 199.614981 
L 954.212668 197.181828 
L 962.389998 194.727163 
L 977.82761 192.782526 
L 986.50551 190.418505 
L 994.610757 187.990429 
L 1002.792091 185.551717 
L 1017.781191 183.499032 
L 1026.911608 181.195441 
L 1035.321202 178.786219 
L 1043.502536 176.370712 
L 1058.45159 174.372897 
L 1067.405806 172.008151 
L 1075.607163 169.579108 
L 1083.89662 167.161909 
L 1098.941784 165.152733 
L 1107.851949 162.781461 
L 1116.089347 154.406833 
L 1124.302717 152.103243 
L 1139.379918 138.389506 
L 1148.362166 136.006631 
L 1157.488578 133.652763 
L 1165.970254 131.258044 
L 1180.354665 129.203183 
L 1188.768264 120.953283 
L 1196.921565 118.539952 
L 1205.178986 110.259595 
L 1220.632616 108.278459 
L 1229.238434 105.860051 
L 1237.283613 103.466299 
L 1245.272727 89.28 
" style="fill:none;stroke:#ff0000;stroke-dasharray:5.55,2.4;stroke-dashoffset:0;stroke-width:1.5;"/>
    <defs>
     <path d="M -3 3 
L 3 3 
L 3 -3 
L -3 -3 
z
" id="m30f8d99b5e" style="stroke:#ff0000;stroke-linejoin:miter;"/>
    </defs>
    <g clip-path="url(#p03f5389f55)">
     <use style="fill:#ff0000;stroke:#ff0000;stroke-linejoin:miter;" x="230.727273" xlink:href="#m30f8d99b5e" y="471.490885"/>
     <use style="fill:#ff0000;stroke:#ff0000;stroke-linejoin:miter;" x="250.674029" xlink:href="#m30f8d99b5e" y="471.471064"/>
     <use style="fill:#ff0000;stroke:#ff0000;stroke-linejoin:miter;" x="263.408558" xlink:href="#m30f8d99b5e" y="470.716172"/>
     <use style="fill:#ff0000;stroke:#ff0000;stroke-linejoin:miter;" x="273.203732" xlink:href="#m30f8d99b5e" y="468.402671"/>
     <use style="fill:#ff0000;stroke:#ff0000;stroke-linejoin:miter;" x="287.70828" xlink:href="#m30f8d99b5e" y="466.371741"/>
     <use style="fill:#ff0000;stroke:#ff0000;stroke-linejoin:miter;" x="296.858719" xlink:href="#m30f8d99b5e" y="464.005061"/>
     <use style="fill:#ff0000;stroke:#ff0000;stroke-linejoin:miter;" x="304.979985" xlink:href="#m30f8d99b5e" y="461.583753"/>
     <use style="fill:#ff0000;stroke:#ff0000;stroke-linejoin:miter;" x="312.933058" xlink:href="#m30f8d99b5e" y="459.13368"/>
     <use style="fill:#ff0000;stroke:#ff0000;stroke-linejoin:miter;" x="327.201336" xlink:href="#m30f8d99b5e" y="457.103233"/>
     <use style="fill:#ff0000;stroke:#ff0000;stroke-linejoin:miter;" x="335.110359" xlink:href="#m30f8d99b5e" y="454.635998"/>
     <use style="fill:#ff0000;stroke:#ff0000;stroke-linejoin:miter;" x="343.660113" xlink:href="#m30f8d99b5e" y="452.276087"/>
     <use style="fill:#ff0000;stroke:#ff0000;stroke-linejoin:miter;" x="352.025657" xlink:href="#m30f8d99b5e" y="449.868798"/>
     <use style="fill:#ff0000;stroke:#ff0000;stroke-linejoin:miter;" x="359.970721" xlink:href="#m30f8d99b5e" y="447.434679"/>
     <use style="fill:#ff0000;stroke:#ff0000;stroke-linejoin:miter;" x="370.254454" xlink:href="#m30f8d99b5e" y="445.143899"/>
     <use style="fill:#ff0000;stroke:#ff0000;stroke-linejoin:miter;" x="379.601117" xlink:href="#m30f8d99b5e" y="442.769243"/>
     <use style="fill:#ff0000;stroke:#ff0000;stroke-linejoin:miter;" x="387.6503" xlink:href="#m30f8d99b5e" y="440.349869"/>
     <use style="fill:#ff0000;stroke:#ff0000;stroke-linejoin:miter;" x="395.77557" xlink:href="#m30f8d99b5e" y="437.951524"/>
     <use style="fill:#ff0000;stroke:#ff0000;stroke-linejoin:miter;" x="410.600483" xlink:href="#m30f8d99b5e" y="435.923736"/>
     <use style="fill:#ff0000;stroke:#ff0000;stroke-linejoin:miter;" x="419.839023" xlink:href="#m30f8d99b5e" y="433.580019"/>
     <use style="fill:#ff0000;stroke:#ff0000;stroke-linejoin:miter;" x="427.916238" xlink:href="#m30f8d99b5e" y="431.120278"/>
     <use style="fill:#ff0000;stroke:#ff0000;stroke-linejoin:miter;" x="435.921371" xlink:href="#m30f8d99b5e" y="428.720724"/>
     <use style="fill:#ff0000;stroke:#ff0000;stroke-linejoin:miter;" x="450.722256" xlink:href="#m30f8d99b5e" y="426.677708"/>
     <use style="fill:#ff0000;stroke:#ff0000;stroke-linejoin:miter;" x="459.976814" xlink:href="#m30f8d99b5e" y="383.353767"/>
     <use style="fill:#ff0000;stroke:#ff0000;stroke-linejoin:miter;" x="469.707916" xlink:href="#m30f8d99b5e" y="381.037366"/>
     <use style="fill:#ff0000;stroke:#ff0000;stroke-linejoin:miter;" x="479.290849" xlink:href="#m30f8d99b5e" y="378.700418"/>
     <use style="fill:#ff0000;stroke:#ff0000;stroke-linejoin:miter;" x="491.77309" xlink:href="#m30f8d99b5e" y="376.506326"/>
     <use style="fill:#ff0000;stroke:#ff0000;stroke-linejoin:miter;" x="500.95957" xlink:href="#m30f8d99b5e" y="374.198384"/>
     <use style="fill:#ff0000;stroke:#ff0000;stroke-linejoin:miter;" x="509.229004" xlink:href="#m30f8d99b5e" y="371.743477"/>
     <use style="fill:#ff0000;stroke:#ff0000;stroke-linejoin:miter;" x="517.546493" xlink:href="#m30f8d99b5e" y="369.357944"/>
     <use style="fill:#ff0000;stroke:#ff0000;stroke-linejoin:miter;" x="532.091087" xlink:href="#m30f8d99b5e" y="367.323629"/>
     <use style="fill:#ff0000;stroke:#ff0000;stroke-linejoin:miter;" x="541.441755" xlink:href="#m30f8d99b5e" y="364.970727"/>
     <use style="fill:#ff0000;stroke:#ff0000;stroke-linejoin:miter;" x="549.647116" xlink:href="#m30f8d99b5e" y="362.568757"/>
     <use style="fill:#ff0000;stroke:#ff0000;stroke-linejoin:miter;" x="557.812431" xlink:href="#m30f8d99b5e" y="360.109257"/>
     <use style="fill:#ff0000;stroke:#ff0000;stroke-linejoin:miter;" x="572.713431" xlink:href="#m30f8d99b5e" y="358.131988"/>
     <use style="fill:#ff0000;stroke:#ff0000;stroke-linejoin:miter;" x="581.931948" xlink:href="#m30f8d99b5e" y="355.776911"/>
     <use style="fill:#ff0000;stroke:#ff0000;stroke-linejoin:miter;" x="590.037195" xlink:href="#m30f8d99b5e" y="353.316444"/>
     <use style="fill:#ff0000;stroke:#ff0000;stroke-linejoin:miter;" x="598.146447" xlink:href="#m30f8d99b5e" y="350.919308"/>
     <use style="fill:#ff0000;stroke:#ff0000;stroke-linejoin:miter;" x="613.083488" xlink:href="#m30f8d99b5e" y="348.920285"/>
     <use style="fill:#ff0000;stroke:#ff0000;stroke-linejoin:miter;" x="622.414133" xlink:href="#m30f8d99b5e" y="346.572217"/>
     <use style="fill:#ff0000;stroke:#ff0000;stroke-linejoin:miter;" x="630.531393" xlink:href="#m30f8d99b5e" y="344.141724"/>
     <use style="fill:#ff0000;stroke:#ff0000;stroke-linejoin:miter;" x="638.684695" xlink:href="#m30f8d99b5e" y="341.729601"/>
     <use style="fill:#ff0000;stroke:#ff0000;stroke-linejoin:miter;" x="653.841987" xlink:href="#m30f8d99b5e" y="339.690935"/>
     <use style="fill:#ff0000;stroke:#ff0000;stroke-linejoin:miter;" x="662.724121" xlink:href="#m30f8d99b5e" y="337.354954"/>
     <use style="fill:#ff0000;stroke:#ff0000;stroke-linejoin:miter;" x="671.50614" xlink:href="#m30f8d99b5e" y="334.968937"/>
     <use style="fill:#ff0000;stroke:#ff0000;stroke-linejoin:miter;" x="679.727519" xlink:href="#m30f8d99b5e" y="332.555364"/>
     <use style="fill:#ff0000;stroke:#ff0000;stroke-linejoin:miter;" x="693.987788" xlink:href="#m30f8d99b5e" y="330.506063"/>
     <use style="fill:#ff0000;stroke:#ff0000;stroke-linejoin:miter;" x="703.15825" xlink:href="#m30f8d99b5e" y="328.094182"/>
     <use style="fill:#ff0000;stroke:#ff0000;stroke-linejoin:miter;" x="711.275511" xlink:href="#m30f8d99b5e" y="313.915859"/>
     <use style="fill:#ff0000;stroke:#ff0000;stroke-linejoin:miter;" x="719.564968" xlink:href="#m30f8d99b5e" y="311.598733"/>
     <use style="fill:#ff0000;stroke:#ff0000;stroke-linejoin:miter;" x="735.138736" xlink:href="#m30f8d99b5e" y="297.915936"/>
     <use style="fill:#ff0000;stroke:#ff0000;stroke-linejoin:miter;" x="743.664462" xlink:href="#m30f8d99b5e" y="295.48786"/>
     <use style="fill:#ff0000;stroke:#ff0000;stroke-linejoin:miter;" x="751.777718" xlink:href="#m30f8d99b5e" y="281.379636"/>
     <use style="fill:#ff0000;stroke:#ff0000;stroke-linejoin:miter;" x="759.951043" xlink:href="#m30f8d99b5e" y="278.963646"/>
     <use style="fill:#ff0000;stroke:#ff0000;stroke-linejoin:miter;" x="775.308564" xlink:href="#m30f8d99b5e" y="265.257644"/>
     <use style="fill:#ff0000;stroke:#ff0000;stroke-linejoin:miter;" x="784.090583" xlink:href="#m30f8d99b5e" y="262.885405"/>
     <use style="fill:#ff0000;stroke:#ff0000;stroke-linejoin:miter;" x="792.119743" xlink:href="#m30f8d99b5e" y="248.749626"/>
     <use style="fill:#ff0000;stroke:#ff0000;stroke-linejoin:miter;" x="800.156912" xlink:href="#m30f8d99b5e" y="246.324933"/>
     <use style="fill:#ff0000;stroke:#ff0000;stroke-linejoin:miter;" x="815.682625" xlink:href="#m30f8d99b5e" y="238.485715"/>
     <use style="fill:#ff0000;stroke:#ff0000;stroke-linejoin:miter;" x="824.736955" xlink:href="#m30f8d99b5e" y="236.128221"/>
     <use style="fill:#ff0000;stroke:#ff0000;stroke-linejoin:miter;" x="833.342773" xlink:href="#m30f8d99b5e" y="222.018789"/>
     <use style="fill:#ff0000;stroke:#ff0000;stroke-linejoin:miter;" x="841.552139" xlink:href="#m30f8d99b5e" y="219.592405"/>
     <use style="fill:#ff0000;stroke:#ff0000;stroke-linejoin:miter;" x="856.557257" xlink:href="#m30f8d99b5e" y="217.604017"/>
     <use style="fill:#ff0000;stroke:#ff0000;stroke-linejoin:miter;" x="865.25518" xlink:href="#m30f8d99b5e" y="215.200838"/>
     <use style="fill:#ff0000;stroke:#ff0000;stroke-linejoin:miter;" x="880.500573" xlink:href="#m30f8d99b5e" y="213.22236"/>
     <use style="fill:#ff0000;stroke:#ff0000;stroke-linejoin:miter;" x="896.258551" xlink:href="#m30f8d99b5e" y="211.172576"/>
     <use style="fill:#ff0000;stroke:#ff0000;stroke-linejoin:miter;" x="905.437022" xlink:href="#m30f8d99b5e" y="208.816048"/>
     <use style="fill:#ff0000;stroke:#ff0000;stroke-linejoin:miter;" x="913.750507" xlink:href="#m30f8d99b5e" y="206.412869"/>
     <use style="fill:#ff0000;stroke:#ff0000;stroke-linejoin:miter;" x="921.991909" xlink:href="#m30f8d99b5e" y="203.97875"/>
     <use style="fill:#ff0000;stroke:#ff0000;stroke-linejoin:miter;" x="937.005037" xlink:href="#m30f8d99b5e" y="201.989395"/>
     <use style="fill:#ff0000;stroke:#ff0000;stroke-linejoin:miter;" x="945.955248" xlink:href="#m30f8d99b5e" y="199.614981"/>
     <use style="fill:#ff0000;stroke:#ff0000;stroke-linejoin:miter;" x="954.212668" xlink:href="#m30f8d99b5e" y="197.181828"/>
     <use style="fill:#ff0000;stroke:#ff0000;stroke-linejoin:miter;" x="962.389998" xlink:href="#m30f8d99b5e" y="194.727163"/>
     <use style="fill:#ff0000;stroke:#ff0000;stroke-linejoin:miter;" x="977.82761" xlink:href="#m30f8d99b5e" y="192.782526"/>
     <use style="fill:#ff0000;stroke:#ff0000;stroke-linejoin:miter;" x="986.50551" xlink:href="#m30f8d99b5e" y="190.418505"/>
     <use style="fill:#ff0000;stroke:#ff0000;stroke-linejoin:miter;" x="994.610757" xlink:href="#m30f8d99b5e" y="187.990429"/>
     <use style="fill:#ff0000;stroke:#ff0000;stroke-linejoin:miter;" x="1002.792091" xlink:href="#m30f8d99b5e" y="185.551717"/>
     <use style="fill:#ff0000;stroke:#ff0000;stroke-linejoin:miter;" x="1017.781191" xlink:href="#m30f8d99b5e" y="183.499032"/>
     <use style="fill:#ff0000;stroke:#ff0000;stroke-linejoin:miter;" x="1026.911608" xlink:href="#m30f8d99b5e" y="181.195441"/>
     <use style="fill:#ff0000;stroke:#ff0000;stroke-linejoin:miter;" x="1035.321202" xlink:href="#m30f8d99b5e" y="178.786219"/>
     <use style="fill:#ff0000;stroke:#ff0000;stroke-linejoin:miter;" x="1043.502536" xlink:href="#m30f8d99b5e" y="176.370712"/>
     <use style="fill:#ff0000;stroke:#ff0000;stroke-linejoin:miter;" x="1058.45159" xlink:href="#m30f8d99b5e" y="174.372897"/>
     <use style="fill:#ff0000;stroke:#ff0000;stroke-linejoin:miter;" x="1067.405806" xlink:href="#m30f8d99b5e" y="172.008151"/>
     <use style="fill:#ff0000;stroke:#ff0000;stroke-linejoin:miter;" x="1075.607163" xlink:href="#m30f8d99b5e" y="169.579108"/>
     <use style="fill:#ff0000;stroke:#ff0000;stroke-linejoin:miter;" x="1083.89662" xlink:href="#m30f8d99b5e" y="167.161909"/>
     <use style="fill:#ff0000;stroke:#ff0000;stroke-linejoin:miter;" x="1098.941784" xlink:href="#m30f8d99b5e" y="165.152733"/>
     <use style="fill:#ff0000;stroke:#ff0000;stroke-linejoin:miter;" x="1107.851949" xlink:href="#m30f8d99b5e" y="162.781461"/>
     <use style="fill:#ff0000;stroke:#ff0000;stroke-linejoin:miter;" x="1116.089347" xlink:href="#m30f8d99b5e" y="154.406833"/>
     <use style="fill:#ff0000;stroke:#ff0000;stroke-linejoin:miter;" x="1124.302717" xlink:href="#m30f8d99b5e" y="152.103243"/>
     <use style="fill:#ff0000;stroke:#ff0000;stroke-linejoin:miter;" x="1139.379918" xlink:href="#m30f8d99b5e" y="138.389506"/>
     <use style="fill:#ff0000;stroke:#ff0000;stroke-linejoin:miter;" x="1148.362166" xlink:href="#m30f8d99b5e" y="136.006631"/>
     <use style="fill:#ff0000;stroke:#ff0000;stroke-linejoin:miter;" x="1157.488578" xlink:href="#m30f8d99b5e" y="133.652763"/>
     <use style="fill:#ff0000;stroke:#ff0000;stroke-linejoin:miter;" x="1165.970254" xlink:href="#m30f8d99b5e" y="131.258044"/>
     <use style="fill:#ff0000;stroke:#ff0000;stroke-linejoin:miter;" x="1180.354665" xlink:href="#m30f8d99b5e" y="129.203183"/>
     <use style="fill:#ff0000;stroke:#ff0000;stroke-linejoin:miter;" x="1188.768264" xlink:href="#m30f8d99b5e" y="120.953283"/>
     <use style="fill:#ff0000;stroke:#ff0000;stroke-linejoin:miter;" x="1196.921565" xlink:href="#m30f8d99b5e" y="118.539952"/>
     <use style="fill:#ff0000;stroke:#ff0000;stroke-linejoin:miter;" x="1205.178986" xlink:href="#m30f8d99b5e" y="110.259595"/>
     <use style="fill:#ff0000;stroke:#ff0000;stroke-linejoin:miter;" x="1220.632616" xlink:href="#m30f8d99b5e" y="108.278459"/>
     <use style="fill:#ff0000;stroke:#ff0000;stroke-linejoin:miter;" x="1229.238434" xlink:href="#m30f8d99b5e" y="105.860051"/>
     <use style="fill:#ff0000;stroke:#ff0000;stroke-linejoin:miter;" x="1237.283613" xlink:href="#m30f8d99b5e" y="103.466299"/>
     <use style="fill:#ff0000;stroke:#ff0000;stroke-linejoin:miter;" x="1245.272727" xlink:href="#m30f8d99b5e" y="89.28"/>
    </g>
   </g>
   <g id="line2d_15">
    <path clip-path="url(#p03f5389f55)" d="M 230.727273 471.490885 
L 250.674029 471.471064 
L 263.408558 470.716172 
L 273.203732 468.402671 
L 287.70828 466.371741 
L 296.858719 464.005061 
L 304.979985 461.583753 
L 312.933058 459.13368 
L 327.201336 457.103233 
L 335.110359 454.635998 
L 343.660113 452.276087 
L 352.025657 449.868798 
L 359.970721 447.434679 
L 370.254454 445.143899 
L 379.601117 442.769243 
L 387.6503 440.349869 
L 395.77557 437.951524 
L 410.600483 435.923736 
L 419.839023 433.580019 
L 427.916238 431.120278 
L 435.921371 428.720724 
L 450.722256 426.677708 
L 459.976814 383.353767 
L 469.707916 381.037366 
L 479.290849 378.700418 
L 491.77309 376.506326 
L 500.95957 374.198384 
L 509.229004 371.743477 
L 517.546493 369.357944 
L 532.091087 367.323629 
L 541.441755 364.970727 
L 549.647116 362.568757 
L 557.812431 360.109257 
L 572.713431 358.131988 
L 581.931948 355.776911 
L 590.037195 353.316444 
L 598.146447 350.919308 
L 613.083488 348.920285 
L 622.414133 346.572217 
L 630.531393 344.141724 
L 638.684695 341.729601 
L 653.841987 339.690935 
L 662.724121 337.354954 
L 671.50614 334.968937 
L 679.727519 332.555364 
L 693.987788 330.506063 
L 703.15825 328.094182 
L 711.275511 313.915859 
L 719.564968 311.598733 
L 735.138736 297.915936 
L 743.664462 295.48786 
L 751.777718 281.379636 
L 759.951043 278.963646 
L 775.308564 265.257644 
L 784.090583 262.885405 
L 792.119743 248.749626 
L 800.156912 246.324933 
L 815.682625 238.485715 
L 824.736955 236.128221 
L 833.342773 222.018789 
L 841.552139 219.592405 
L 856.557257 217.604017 
L 865.25518 215.200838 
L 880.500573 213.22236 
L 896.258551 211.172576 
L 905.437022 208.816048 
L 913.750507 206.412869 
L 921.991909 203.97875 
L 937.005037 201.989395 
L 945.955248 199.614981 
L 954.212668 197.181828 
L 962.389998 194.727163 
L 977.82761 192.782526 
L 986.50551 190.418505 
L 994.610757 187.990429 
L 1002.792091 185.551717 
L 1017.781191 183.499032 
L 1026.911608 181.195441 
L 1035.321202 178.786219 
L 1043.502536 176.370712 
L 1058.45159 174.372897 
L 1067.405806 172.008151 
L 1075.607163 169.579108 
L 1083.89662 167.161909 
L 1098.941784 165.152733 
L 1107.851949 162.781461 
L 1116.089347 154.406833 
L 1124.302717 152.103243 
L 1139.379918 138.389506 
L 1148.362166 136.006631 
L 1157.488578 133.652763 
L 1165.970254 131.258044 
L 1180.354665 129.203183 
L 1188.768264 120.953283 
L 1196.921565 118.539952 
L 1205.178986 110.259595 
L 1220.632616 108.278459 
L 1229.238434 105.860051 
L 1237.283613 103.466299 
L 1245.272727 89.28 
" style="fill:none;stroke:#800080;stroke-dasharray:9.6,2.4,1.5,2.4;stroke-dashoffset:0;stroke-width:1.5;"/>
    <defs>
     <path d="M -3 3 
L 3 -3 
M -3 -3 
L 3 3 
" id="m940d99bfef" style="stroke:#800080;"/>
    </defs>
    <g clip-path="url(#p03f5389f55)">
     <use style="fill:#800080;stroke:#800080;" x="230.727273" xlink:href="#m940d99bfef" y="471.490885"/>
     <use style="fill:#800080;stroke:#800080;" x="250.674029" xlink:href="#m940d99bfef" y="471.471064"/>
     <use style="fill:#800080;stroke:#800080;" x="263.408558" xlink:href="#m940d99bfef" y="470.716172"/>
     <use style="fill:#800080;stroke:#800080;" x="273.203732" xlink:href="#m940d99bfef" y="468.402671"/>
     <use style="fill:#800080;stroke:#800080;" x="287.70828" xlink:href="#m940d99bfef" y="466.371741"/>
     <use style="fill:#800080;stroke:#800080;" x="296.858719" xlink:href="#m940d99bfef" y="464.005061"/>
     <use style="fill:#800080;stroke:#800080;" x="304.979985" xlink:href="#m940d99bfef" y="461.583753"/>
     <use style="fill:#800080;stroke:#800080;" x="312.933058" xlink:href="#m940d99bfef" y="459.13368"/>
     <use style="fill:#800080;stroke:#800080;" x="327.201336" xlink:href="#m940d99bfef" y="457.103233"/>
     <use style="fill:#800080;stroke:#800080;" x="335.110359" xlink:href="#m940d99bfef" y="454.635998"/>
     <use style="fill:#800080;stroke:#800080;" x="343.660113" xlink:href="#m940d99bfef" y="452.276087"/>
     <use style="fill:#800080;stroke:#800080;" x="352.025657" xlink:href="#m940d99bfef" y="449.868798"/>
     <use style="fill:#800080;stroke:#800080;" x="359.970721" xlink:href="#m940d99bfef" y="447.434679"/>
     <use style="fill:#800080;stroke:#800080;" x="370.254454" xlink:href="#m940d99bfef" y="445.143899"/>
     <use style="fill:#800080;stroke:#800080;" x="379.601117" xlink:href="#m940d99bfef" y="442.769243"/>
     <use style="fill:#800080;stroke:#800080;" x="387.6503" xlink:href="#m940d99bfef" y="440.349869"/>
     <use style="fill:#800080;stroke:#800080;" x="395.77557" xlink:href="#m940d99bfef" y="437.951524"/>
     <use style="fill:#800080;stroke:#800080;" x="410.600483" xlink:href="#m940d99bfef" y="435.923736"/>
     <use style="fill:#800080;stroke:#800080;" x="419.839023" xlink:href="#m940d99bfef" y="433.580019"/>
     <use style="fill:#800080;stroke:#800080;" x="427.916238" xlink:href="#m940d99bfef" y="431.120278"/>
     <use style="fill:#800080;stroke:#800080;" x="435.921371" xlink:href="#m940d99bfef" y="428.720724"/>
     <use style="fill:#800080;stroke:#800080;" x="450.722256" xlink:href="#m940d99bfef" y="426.677708"/>
     <use style="fill:#800080;stroke:#800080;" x="459.976814" xlink:href="#m940d99bfef" y="383.353767"/>
     <use style="fill:#800080;stroke:#800080;" x="469.707916" xlink:href="#m940d99bfef" y="381.037366"/>
     <use style="fill:#800080;stroke:#800080;" x="479.290849" xlink:href="#m940d99bfef" y="378.700418"/>
     <use style="fill:#800080;stroke:#800080;" x="491.77309" xlink:href="#m940d99bfef" y="376.506326"/>
     <use style="fill:#800080;stroke:#800080;" x="500.95957" xlink:href="#m940d99bfef" y="374.198384"/>
     <use style="fill:#800080;stroke:#800080;" x="509.229004" xlink:href="#m940d99bfef" y="371.743477"/>
     <use style="fill:#800080;stroke:#800080;" x="517.546493" xlink:href="#m940d99bfef" y="369.357944"/>
     <use style="fill:#800080;stroke:#800080;" x="532.091087" xlink:href="#m940d99bfef" y="367.323629"/>
     <use style="fill:#800080;stroke:#800080;" x="541.441755" xlink:href="#m940d99bfef" y="364.970727"/>
     <use style="fill:#800080;stroke:#800080;" x="549.647116" xlink:href="#m940d99bfef" y="362.568757"/>
     <use style="fill:#800080;stroke:#800080;" x="557.812431" xlink:href="#m940d99bfef" y="360.109257"/>
     <use style="fill:#800080;stroke:#800080;" x="572.713431" xlink:href="#m940d99bfef" y="358.131988"/>
     <use style="fill:#800080;stroke:#800080;" x="581.931948" xlink:href="#m940d99bfef" y="355.776911"/>
     <use style="fill:#800080;stroke:#800080;" x="590.037195" xlink:href="#m940d99bfef" y="353.316444"/>
     <use style="fill:#800080;stroke:#800080;" x="598.146447" xlink:href="#m940d99bfef" y="350.919308"/>
     <use style="fill:#800080;stroke:#800080;" x="613.083488" xlink:href="#m940d99bfef" y="348.920285"/>
     <use style="fill:#800080;stroke:#800080;" x="622.414133" xlink:href="#m940d99bfef" y="346.572217"/>
     <use style="fill:#800080;stroke:#800080;" x="630.531393" xlink:href="#m940d99bfef" y="344.141724"/>
     <use style="fill:#800080;stroke:#800080;" x="638.684695" xlink:href="#m940d99bfef" y="341.729601"/>
     <use style="fill:#800080;stroke:#800080;" x="653.841987" xlink:href="#m940d99bfef" y="339.690935"/>
     <use style="fill:#800080;stroke:#800080;" x="662.724121" xlink:href="#m940d99bfef" y="337.354954"/>
     <use style="fill:#800080;stroke:#800080;" x="671.50614" xlink:href="#m940d99bfef" y="334.968937"/>
     <use style="fill:#800080;stroke:#800080;" x="679.727519" xlink:href="#m940d99bfef" y="332.555364"/>
     <use style="fill:#800080;stroke:#800080;" x="693.987788" xlink:href="#m940d99bfef" y="330.506063"/>
     <use style="fill:#800080;stroke:#800080;" x="703.15825" xlink:href="#m940d99bfef" y="328.094182"/>
     <use style="fill:#800080;stroke:#800080;" x="711.275511" xlink:href="#m940d99bfef" y="313.915859"/>
     <use style="fill:#800080;stroke:#800080;" x="719.564968" xlink:href="#m940d99bfef" y="311.598733"/>
     <use style="fill:#800080;stroke:#800080;" x="735.138736" xlink:href="#m940d99bfef" y="297.915936"/>
     <use style="fill:#800080;stroke:#800080;" x="743.664462" xlink:href="#m940d99bfef" y="295.48786"/>
     <use style="fill:#800080;stroke:#800080;" x="751.777718" xlink:href="#m940d99bfef" y="281.379636"/>
     <use style="fill:#800080;stroke:#800080;" x="759.951043" xlink:href="#m940d99bfef" y="278.963646"/>
     <use style="fill:#800080;stroke:#800080;" x="775.308564" xlink:href="#m940d99bfef" y="265.257644"/>
     <use style="fill:#800080;stroke:#800080;" x="784.090583" xlink:href="#m940d99bfef" y="262.885405"/>
     <use style="fill:#800080;stroke:#800080;" x="792.119743" xlink:href="#m940d99bfef" y="248.749626"/>
     <use style="fill:#800080;stroke:#800080;" x="800.156912" xlink:href="#m940d99bfef" y="246.324933"/>
     <use style="fill:#800080;stroke:#800080;" x="815.682625" xlink:href="#m940d99bfef" y="238.485715"/>
     <use style="fill:#800080;stroke:#800080;" x="824.736955" xlink:href="#m940d99bfef" y="236.128221"/>
     <use style="fill:#800080;stroke:#800080;" x="833.342773" xlink:href="#m940d99bfef" y="222.018789"/>
     <use style="fill:#800080;stroke:#800080;" x="841.552139" xlink:href="#m940d99bfef" y="219.592405"/>
     <use style="fill:#800080;stroke:#800080;" x="856.557257" xlink:href="#m940d99bfef" y="217.604017"/>
     <use style="fill:#800080;stroke:#800080;" x="865.25518" xlink:href="#m940d99bfef" y="215.200838"/>
     <use style="fill:#800080;stroke:#800080;" x="880.500573" xlink:href="#m940d99bfef" y="213.22236"/>
     <use style="fill:#800080;stroke:#800080;" x="896.258551" xlink:href="#m940d99bfef" y="211.172576"/>
     <use style="fill:#800080;stroke:#800080;" x="905.437022" xlink:href="#m940d99bfef" y="208.816048"/>
     <use style="fill:#800080;stroke:#800080;" x="913.750507" xlink:href="#m940d99bfef" y="206.412869"/>
     <use style="fill:#800080;stroke:#800080;" x="921.991909" xlink:href="#m940d99bfef" y="203.97875"/>
     <use style="fill:#800080;stroke:#800080;" x="937.005037" xlink:href="#m940d99bfef" y="201.989395"/>
     <use style="fill:#800080;stroke:#800080;" x="945.955248" xlink:href="#m940d99bfef" y="199.614981"/>
     <use style="fill:#800080;stroke:#800080;" x="954.212668" xlink:href="#m940d99bfef" y="197.181828"/>
     <use style="fill:#800080;stroke:#800080;" x="962.389998" xlink:href="#m940d99bfef" y="194.727163"/>
     <use style="fill:#800080;stroke:#800080;" x="977.82761" xlink:href="#m940d99bfef" y="192.782526"/>
     <use style="fill:#800080;stroke:#800080;" x="986.50551" xlink:href="#m940d99bfef" y="190.418505"/>
     <use style="fill:#800080;stroke:#800080;" x="994.610757" xlink:href="#m940d99bfef" y="187.990429"/>
     <use style="fill:#800080;stroke:#800080;" x="1002.792091" xlink:href="#m940d99bfef" y="185.551717"/>
     <use style="fill:#800080;stroke:#800080;" x="1017.781191" xlink:href="#m940d99bfef" y="183.499032"/>
     <use style="fill:#800080;stroke:#800080;" x="1026.911608" xlink:href="#m940d99bfef" y="181.195441"/>
     <use style="fill:#800080;stroke:#800080;" x="1035.321202" xlink:href="#m940d99bfef" y="178.786219"/>
     <use style="fill:#800080;stroke:#800080;" x="1043.502536" xlink:href="#m940d99bfef" y="176.370712"/>
     <use style="fill:#800080;stroke:#800080;" x="1058.45159" xlink:href="#m940d99bfef" y="174.372897"/>
     <use style="fill:#800080;stroke:#800080;" x="1067.405806" xlink:href="#m940d99bfef" y="172.008151"/>
     <use style="fill:#800080;stroke:#800080;" x="1075.607163" xlink:href="#m940d99bfef" y="169.579108"/>
     <use style="fill:#800080;stroke:#800080;" x="1083.89662" xlink:href="#m940d99bfef" y="167.161909"/>
     <use style="fill:#800080;stroke:#800080;" x="1098.941784" xlink:href="#m940d99bfef" y="165.152733"/>
     <use style="fill:#800080;stroke:#800080;" x="1107.851949" xlink:href="#m940d99bfef" y="162.781461"/>
     <use style="fill:#800080;stroke:#800080;" x="1116.089347" xlink:href="#m940d99bfef" y="154.406833"/>
     <use style="fill:#800080;stroke:#800080;" x="1124.302717" xlink:href="#m940d99bfef" y="152.103243"/>
     <use style="fill:#800080;stroke:#800080;" x="1139.379918" xlink:href="#m940d99bfef" y="138.389506"/>
     <use style="fill:#800080;stroke:#800080;" x="1148.362166" xlink:href="#m940d99bfef" y="136.006631"/>
     <use style="fill:#800080;stroke:#800080;" x="1157.488578" xlink:href="#m940d99bfef" y="133.652763"/>
     <use style="fill:#800080;stroke:#800080;" x="1165.970254" xlink:href="#m940d99bfef" y="131.258044"/>
     <use style="fill:#800080;stroke:#800080;" x="1180.354665" xlink:href="#m940d99bfef" y="129.203183"/>
     <use style="fill:#800080;stroke:#800080;" x="1188.768264" xlink:href="#m940d99bfef" y="120.953283"/>
     <use style="fill:#800080;stroke:#800080;" x="1196.921565" xlink:href="#m940d99bfef" y="118.539952"/>
     <use style="fill:#800080;stroke:#800080;" x="1205.178986" xlink:href="#m940d99bfef" y="110.259595"/>
     <use style="fill:#800080;stroke:#800080;" x="1220.632616" xlink:href="#m940d99bfef" y="108.278459"/>
     <use style="fill:#800080;stroke:#800080;" x="1229.238434" xlink:href="#m940d99bfef" y="105.860051"/>
     <use style="fill:#800080;stroke:#800080;" x="1237.283613" xlink:href="#m940d99bfef" y="103.466299"/>
     <use style="fill:#800080;stroke:#800080;" x="1245.272727" xlink:href="#m940d99bfef" y="89.28"/>
    </g>
   </g>
   <g id="line2d_16">
    <path clip-path="url(#p03f5389f55)" d="M 230.727273 490.774174 
L 250.674029 482.947753 
L 263.408558 477.951163 
L 273.203732 474.107873 
L 287.70828 468.416788 
L 296.858719 464.82647 
L 304.979985 461.639965 
L 312.933058 458.519453 
L 327.201336 452.921072 
L 335.110359 449.817843 
L 343.660113 446.463214 
L 352.025657 443.180863 
L 359.970721 440.063493 
L 370.254454 436.02851 
L 379.601117 432.361201 
L 387.6503 429.202979 
L 395.77557 426.014903 
L 410.600483 420.198117 
L 419.839023 416.573232 
L 427.916238 413.404011 
L 435.921371 410.263072 
L 450.722256 404.455714 
L 459.976814 400.824544 
L 469.707916 397.006394 
L 479.290849 393.246381 
L 491.77309 388.34878 
L 500.95957 384.744321 
L 509.229004 381.499679 
L 517.546493 378.236183 
L 532.091087 372.529385 
L 541.441755 368.860505 
L 549.647116 365.641004 
L 557.812431 362.437215 
L 572.713431 356.590575 
L 581.931948 352.973546 
L 590.037195 349.793326 
L 598.146447 346.611535 
L 613.083488 340.750754 
L 622.414133 337.08973 
L 630.531393 333.904797 
L 638.684695 330.705722 
L 653.841987 324.758522 
L 662.724121 321.273478 
L 671.50614 317.827716 
L 679.727519 314.60193 
L 693.987788 309.006691 
L 703.15825 305.408517 
L 711.275511 302.223584 
L 719.564968 298.971086 
L 735.138736 292.860476 
L 743.664462 289.515274 
L 751.777718 286.331911 
L 759.951043 283.12498 
L 775.308564 277.099218 
L 784.090583 273.653455 
L 792.119743 270.503089 
L 800.156912 267.349581 
L 815.682625 261.257825 
L 824.736955 257.705218 
L 833.342773 254.328591 
L 841.552139 251.107519 
L 856.557257 245.220026 
L 865.25518 241.807261 
L 880.500573 235.825493 
L 896.258551 229.642605 
L 905.437022 226.041289 
L 913.750507 222.779364 
L 921.991909 219.545721 
L 937.005037 213.655086 
L 945.955248 210.143332 
L 954.212668 206.903404 
L 962.389998 203.694901 
L 977.82761 197.637714 
L 986.50551 194.232804 
L 994.610757 191.052584 
L 1002.792091 187.842511 
L 1017.781191 181.961303 
L 1026.911608 178.378842 
L 1035.321202 175.079207 
L 1043.502536 171.869133 
L 1058.45159 166.003638 
L 1067.405806 162.490312 
L 1075.607163 159.272382 
L 1083.89662 156.019885 
L 1098.941784 150.11668 
L 1107.851949 146.620638 
L 1116.089347 143.388566 
L 1124.302717 140.165922 
L 1139.379918 134.250148 
L 1148.362166 130.725823 
L 1157.488578 127.144933 
L 1165.970254 123.817015 
L 1180.354665 118.173067 
L 1188.768264 114.871861 
L 1196.921565 111.672786 
L 1205.178986 108.432858 
L 1220.632616 102.369385 
L 1229.238434 98.992759 
L 1237.283613 95.836107 
L 1245.272727 92.701454 
" style="fill:none;stroke:#0000ff;stroke-linecap:square;stroke-width:1.5;"/>
   </g>
   <g id="line2d_17">
    <path clip-path="url(#p03f5389f55)" d="M 230.727273 492.48 
L 250.674029 492.460078 
L 263.408558 492.44736 
L 273.203732 492.437577 
L 287.70828 492.423091 
L 296.858719 492.413952 
L 304.979985 492.405841 
L 312.933058 492.397898 
L 327.201336 492.383648 
L 335.110359 492.375749 
L 343.660113 492.36721 
L 352.025657 492.358855 
L 359.970721 492.35092 
L 370.254454 492.340649 
L 379.601117 492.331315 
L 387.6503 492.323276 
L 395.77557 492.315161 
L 410.600483 492.300355 
L 419.839023 492.291128 
L 427.916238 492.283061 
L 435.921371 492.275066 
L 450.722256 492.260284 
L 459.976814 492.251041 
L 469.707916 492.241322 
L 479.290849 492.231751 
L 491.77309 492.219285 
L 500.95957 492.21011 
L 509.229004 492.201851 
L 517.546493 492.193544 
L 532.091087 492.179018 
L 541.441755 492.169679 
L 549.647116 492.161484 
L 557.812431 492.153329 
L 572.713431 492.138447 
L 581.931948 492.12924 
L 590.037195 492.121145 
L 598.146447 492.113046 
L 613.083488 492.098128 
L 622.414133 492.088809 
L 630.531393 492.080702 
L 638.684695 492.072559 
L 653.841987 492.057421 
L 662.724121 492.04855 
L 671.50614 492.039779 
L 679.727519 492.031568 
L 693.987788 492.017326 
L 703.15825 492.008167 
L 711.275511 492.00006 
L 719.564968 491.991781 
L 735.138736 491.976227 
L 743.664462 491.967712 
L 751.777718 491.959609 
L 759.951043 491.951446 
L 775.308564 491.936108 
L 784.090583 491.927337 
L 792.119743 491.919318 
L 800.156912 491.911291 
L 815.682625 491.895785 
L 824.736955 491.886742 
L 833.342773 491.878147 
L 841.552139 491.869948 
L 856.557257 491.854962 
L 865.25518 491.846275 
L 880.500573 491.831049 
L 896.258551 491.815311 
L 905.437022 491.806144 
L 913.750507 491.797842 
L 921.991909 491.789611 
L 937.005037 491.774616 
L 945.955248 491.765678 
L 954.212668 491.757431 
L 962.389998 491.749264 
L 977.82761 491.733846 
L 986.50551 491.725179 
L 994.610757 491.717084 
L 1002.792091 491.708913 
L 1017.781191 491.693943 
L 1026.911608 491.684824 
L 1035.321202 491.676425 
L 1043.502536 491.668254 
L 1058.45159 491.653324 
L 1067.405806 491.644381 
L 1075.607163 491.63619 
L 1083.89662 491.627911 
L 1098.941784 491.612885 
L 1107.851949 491.603986 
L 1116.089347 491.595759 
L 1124.302717 491.587556 
L 1139.379918 491.572498 
L 1148.362166 491.563527 
L 1157.488578 491.554412 
L 1165.970254 491.545941 
L 1180.354665 491.531575 
L 1188.768264 491.523172 
L 1196.921565 491.515029 
L 1205.178986 491.506782 
L 1220.632616 491.491348 
L 1229.238434 491.482753 
L 1237.283613 491.474718 
L 1245.272727 491.466739 
" style="fill:none;stroke:#008000;stroke-linecap:square;stroke-width:1.5;"/>
    <defs>
     <path d="M 0 3 
C 0.795609 3 1.55874 2.683901 2.12132 2.12132 
C 2.683901 1.55874 3 0.795609 3 0 
C 3 -0.795609 2.683901 -1.55874 2.12132 -2.12132 
C 1.55874 -2.683901 0.795609 -3 0 -3 
C -0.795609 -3 -1.55874 -2.683901 -2.12132 -2.12132 
C -2.683901 -1.55874 -3 -0.795609 -3 0 
C -3 0.795609 -2.683901 1.55874 -2.12132 2.12132 
C -1.55874 2.683901 -0.795609 3 0 3 
z
" id="mf068f2dd66" style="stroke:#008000;"/>
    </defs>
    <g clip-path="url(#p03f5389f55)">
     <use style="fill:#008000;stroke:#008000;" x="230.727273" xlink:href="#mf068f2dd66" y="492.48"/>
     <use style="fill:#008000;stroke:#008000;" x="250.674029" xlink:href="#mf068f2dd66" y="492.460078"/>
     <use style="fill:#008000;stroke:#008000;" x="263.408558" xlink:href="#mf068f2dd66" y="492.44736"/>
     <use style="fill:#008000;stroke:#008000;" x="273.203732" xlink:href="#mf068f2dd66" y="492.437577"/>
     <use style="fill:#008000;stroke:#008000;" x="287.70828" xlink:href="#mf068f2dd66" y="492.423091"/>
     <use style="fill:#008000;stroke:#008000;" x="296.858719" xlink:href="#mf068f2dd66" y="492.413952"/>
     <use style="fill:#008000;stroke:#008000;" x="304.979985" xlink:href="#mf068f2dd66" y="492.405841"/>
     <use style="fill:#008000;stroke:#008000;" x="312.933058" xlink:href="#mf068f2dd66" y="492.397898"/>
     <use style="fill:#008000;stroke:#008000;" x="327.201336" xlink:href="#mf068f2dd66" y="492.383648"/>
     <use style="fill:#008000;stroke:#008000;" x="335.110359" xlink:href="#mf068f2dd66" y="492.375749"/>
     <use style="fill:#008000;stroke:#008000;" x="343.660113" xlink:href="#mf068f2dd66" y="492.36721"/>
     <use style="fill:#008000;stroke:#008000;" x="352.025657" xlink:href="#mf068f2dd66" y="492.358855"/>
     <use style="fill:#008000;stroke:#008000;" x="359.970721" xlink:href="#mf068f2dd66" y="492.35092"/>
     <use style="fill:#008000;stroke:#008000;" x="370.254454" xlink:href="#mf068f2dd66" y="492.340649"/>
     <use style="fill:#008000;stroke:#008000;" x="379.601117" xlink:href="#mf068f2dd66" y="492.331315"/>
     <use style="fill:#008000;stroke:#008000;" x="387.6503" xlink:href="#mf068f2dd66" y="492.323276"/>
     <use style="fill:#008000;stroke:#008000;" x="395.77557" xlink:href="#mf068f2dd66" y="492.315161"/>
     <use style="fill:#008000;stroke:#008000;" x="410.600483" xlink:href="#mf068f2dd66" y="492.300355"/>
     <use style="fill:#008000;stroke:#008000;" x="419.839023" xlink:href="#mf068f2dd66" y="492.291128"/>
     <use style="fill:#008000;stroke:#008000;" x="427.916238" xlink:href="#mf068f2dd66" y="492.283061"/>
     <use style="fill:#008000;stroke:#008000;" x="435.921371" xlink:href="#mf068f2dd66" y="492.275066"/>
     <use style="fill:#008000;stroke:#008000;" x="450.722256" xlink:href="#mf068f2dd66" y="492.260284"/>
     <use style="fill:#008000;stroke:#008000;" x="459.976814" xlink:href="#mf068f2dd66" y="492.251041"/>
     <use style="fill:#008000;stroke:#008000;" x="469.707916" xlink:href="#mf068f2dd66" y="492.241322"/>
     <use style="fill:#008000;stroke:#008000;" x="479.290849" xlink:href="#mf068f2dd66" y="492.231751"/>
     <use style="fill:#008000;stroke:#008000;" x="491.77309" xlink:href="#mf068f2dd66" y="492.219285"/>
     <use style="fill:#008000;stroke:#008000;" x="500.95957" xlink:href="#mf068f2dd66" y="492.21011"/>
     <use style="fill:#008000;stroke:#008000;" x="509.229004" xlink:href="#mf068f2dd66" y="492.201851"/>
     <use style="fill:#008000;stroke:#008000;" x="517.546493" xlink:href="#mf068f2dd66" y="492.193544"/>
     <use style="fill:#008000;stroke:#008000;" x="532.091087" xlink:href="#mf068f2dd66" y="492.179018"/>
     <use style="fill:#008000;stroke:#008000;" x="541.441755" xlink:href="#mf068f2dd66" y="492.169679"/>
     <use style="fill:#008000;stroke:#008000;" x="549.647116" xlink:href="#mf068f2dd66" y="492.161484"/>
     <use style="fill:#008000;stroke:#008000;" x="557.812431" xlink:href="#mf068f2dd66" y="492.153329"/>
     <use style="fill:#008000;stroke:#008000;" x="572.713431" xlink:href="#mf068f2dd66" y="492.138447"/>
     <use style="fill:#008000;stroke:#008000;" x="581.931948" xlink:href="#mf068f2dd66" y="492.12924"/>
     <use style="fill:#008000;stroke:#008000;" x="590.037195" xlink:href="#mf068f2dd66" y="492.121145"/>
     <use style="fill:#008000;stroke:#008000;" x="598.146447" xlink:href="#mf068f2dd66" y="492.113046"/>
     <use style="fill:#008000;stroke:#008000;" x="613.083488" xlink:href="#mf068f2dd66" y="492.098128"/>
     <use style="fill:#008000;stroke:#008000;" x="622.414133" xlink:href="#mf068f2dd66" y="492.088809"/>
     <use style="fill:#008000;stroke:#008000;" x="630.531393" xlink:href="#mf068f2dd66" y="492.080702"/>
     <use style="fill:#008000;stroke:#008000;" x="638.684695" xlink:href="#mf068f2dd66" y="492.072559"/>
     <use style="fill:#008000;stroke:#008000;" x="653.841987" xlink:href="#mf068f2dd66" y="492.057421"/>
     <use style="fill:#008000;stroke:#008000;" x="662.724121" xlink:href="#mf068f2dd66" y="492.04855"/>
     <use style="fill:#008000;stroke:#008000;" x="671.50614" xlink:href="#mf068f2dd66" y="492.039779"/>
     <use style="fill:#008000;stroke:#008000;" x="679.727519" xlink:href="#mf068f2dd66" y="492.031568"/>
     <use style="fill:#008000;stroke:#008000;" x="693.987788" xlink:href="#mf068f2dd66" y="492.017326"/>
     <use style="fill:#008000;stroke:#008000;" x="703.15825" xlink:href="#mf068f2dd66" y="492.008167"/>
     <use style="fill:#008000;stroke:#008000;" x="711.275511" xlink:href="#mf068f2dd66" y="492.00006"/>
     <use style="fill:#008000;stroke:#008000;" x="719.564968" xlink:href="#mf068f2dd66" y="491.991781"/>
     <use style="fill:#008000;stroke:#008000;" x="735.138736" xlink:href="#mf068f2dd66" y="491.976227"/>
     <use style="fill:#008000;stroke:#008000;" x="743.664462" xlink:href="#mf068f2dd66" y="491.967712"/>
     <use style="fill:#008000;stroke:#008000;" x="751.777718" xlink:href="#mf068f2dd66" y="491.959609"/>
     <use style="fill:#008000;stroke:#008000;" x="759.951043" xlink:href="#mf068f2dd66" y="491.951446"/>
     <use style="fill:#008000;stroke:#008000;" x="775.308564" xlink:href="#mf068f2dd66" y="491.936108"/>
     <use style="fill:#008000;stroke:#008000;" x="784.090583" xlink:href="#mf068f2dd66" y="491.927337"/>
     <use style="fill:#008000;stroke:#008000;" x="792.119743" xlink:href="#mf068f2dd66" y="491.919318"/>
     <use style="fill:#008000;stroke:#008000;" x="800.156912" xlink:href="#mf068f2dd66" y="491.911291"/>
     <use style="fill:#008000;stroke:#008000;" x="815.682625" xlink:href="#mf068f2dd66" y="491.895785"/>
     <use style="fill:#008000;stroke:#008000;" x="824.736955" xlink:href="#mf068f2dd66" y="491.886742"/>
     <use style="fill:#008000;stroke:#008000;" x="833.342773" xlink:href="#mf068f2dd66" y="491.878147"/>
     <use style="fill:#008000;stroke:#008000;" x="841.552139" xlink:href="#mf068f2dd66" y="491.869948"/>
     <use style="fill:#008000;stroke:#008000;" x="856.557257" xlink:href="#mf068f2dd66" y="491.854962"/>
     <use style="fill:#008000;stroke:#008000;" x="865.25518" xlink:href="#mf068f2dd66" y="491.846275"/>
     <use style="fill:#008000;stroke:#008000;" x="880.500573" xlink:href="#mf068f2dd66" y="491.831049"/>
     <use style="fill:#008000;stroke:#008000;" x="896.258551" xlink:href="#mf068f2dd66" y="491.815311"/>
     <use style="fill:#008000;stroke:#008000;" x="905.437022" xlink:href="#mf068f2dd66" y="491.806144"/>
     <use style="fill:#008000;stroke:#008000;" x="913.750507" xlink:href="#mf068f2dd66" y="491.797842"/>
     <use style="fill:#008000;stroke:#008000;" x="921.991909" xlink:href="#mf068f2dd66" y="491.789611"/>
     <use style="fill:#008000;stroke:#008000;" x="937.005037" xlink:href="#mf068f2dd66" y="491.774616"/>
     <use style="fill:#008000;stroke:#008000;" x="945.955248" xlink:href="#mf068f2dd66" y="491.765678"/>
     <use style="fill:#008000;stroke:#008000;" x="954.212668" xlink:href="#mf068f2dd66" y="491.757431"/>
     <use style="fill:#008000;stroke:#008000;" x="962.389998" xlink:href="#mf068f2dd66" y="491.749264"/>
     <use style="fill:#008000;stroke:#008000;" x="977.82761" xlink:href="#mf068f2dd66" y="491.733846"/>
     <use style="fill:#008000;stroke:#008000;" x="986.50551" xlink:href="#mf068f2dd66" y="491.725179"/>
     <use style="fill:#008000;stroke:#008000;" x="994.610757" xlink:href="#mf068f2dd66" y="491.717084"/>
     <use style="fill:#008000;stroke:#008000;" x="1002.792091" xlink:href="#mf068f2dd66" y="491.708913"/>
     <use style="fill:#008000;stroke:#008000;" x="1017.781191" xlink:href="#mf068f2dd66" y="491.693943"/>
     <use style="fill:#008000;stroke:#008000;" x="1026.911608" xlink:href="#mf068f2dd66" y="491.684824"/>
     <use style="fill:#008000;stroke:#008000;" x="1035.321202" xlink:href="#mf068f2dd66" y="491.676425"/>
     <use style="fill:#008000;stroke:#008000;" x="1043.502536" xlink:href="#mf068f2dd66" y="491.668254"/>
     <use style="fill:#008000;stroke:#008000;" x="1058.45159" xlink:href="#mf068f2dd66" y="491.653324"/>
     <use style="fill:#008000;stroke:#008000;" x="1067.405806" xlink:href="#mf068f2dd66" y="491.644381"/>
     <use style="fill:#008000;stroke:#008000;" x="1075.607163" xlink:href="#mf068f2dd66" y="491.63619"/>
     <use style="fill:#008000;stroke:#008000;" x="1083.89662" xlink:href="#mf068f2dd66" y="491.627911"/>
     <use style="fill:#008000;stroke:#008000;" x="1098.941784" xlink:href="#mf068f2dd66" y="491.612885"/>
     <use style="fill:#008000;stroke:#008000;" x="1107.851949" xlink:href="#mf068f2dd66" y="491.603986"/>
     <use style="fill:#008000;stroke:#008000;" x="1116.089347" xlink:href="#mf068f2dd66" y="491.595759"/>
     <use style="fill:#008000;stroke:#008000;" x="1124.302717" xlink:href="#mf068f2dd66" y="491.587556"/>
     <use style="fill:#008000;stroke:#008000;" x="1139.379918" xlink:href="#mf068f2dd66" y="491.572498"/>
     <use style="fill:#008000;stroke:#008000;" x="1148.362166" xlink:href="#mf068f2dd66" y="491.563527"/>
     <use style="fill:#008000;stroke:#008000;" x="1157.488578" xlink:href="#mf068f2dd66" y="491.554412"/>
     <use style="fill:#008000;stroke:#008000;" x="1165.970254" xlink:href="#mf068f2dd66" y="491.545941"/>
     <use style="fill:#008000;stroke:#008000;" x="1180.354665" xlink:href="#mf068f2dd66" y="491.531575"/>
     <use style="fill:#008000;stroke:#008000;" x="1188.768264" xlink:href="#mf068f2dd66" y="491.523172"/>
     <use style="fill:#008000;stroke:#008000;" x="1196.921565" xlink:href="#mf068f2dd66" y="491.515029"/>
     <use style="fill:#008000;stroke:#008000;" x="1205.178986" xlink:href="#mf068f2dd66" y="491.506782"/>
     <use style="fill:#008000;stroke:#008000;" x="1220.632616" xlink:href="#mf068f2dd66" y="491.491348"/>
     <use style="fill:#008000;stroke:#008000;" x="1229.238434" xlink:href="#mf068f2dd66" y="491.482753"/>
     <use style="fill:#008000;stroke:#008000;" x="1237.283613" xlink:href="#mf068f2dd66" y="491.474718"/>
     <use style="fill:#008000;stroke:#008000;" x="1245.272727" xlink:href="#mf068f2dd66" y="491.466739"/>
    </g>
   </g>
   <g id="patch_3">
    <path d="M 180 512.64 
L 180 69.12 
" style="fill:none;stroke:#000000;stroke-linecap:square;stroke-linejoin:miter;stroke-width:0.8;"/>
   </g>
   <g id="patch_4">
    <path d="M 1296 512.64 
L 1296 69.12 
" style="fill:none;stroke:#000000;stroke-linecap:square;stroke-linejoin:miter;stroke-width:0.8;"/>
   </g>
   <g id="patch_5">
    <path d="M 180 512.64 
L 1296 512.64 
" style="fill:none;stroke:#000000;stroke-linecap:square;stroke-linejoin:miter;stroke-width:0.8;"/>
   </g>
   <g id="patch_6">
    <path d="M 180 69.12 
L 1296 69.12 
" style="fill:none;stroke:#000000;stroke-linecap:square;stroke-linejoin:miter;stroke-width:0.8;"/>
   </g>
   <g id="text_14">
    <!-- 5000000.0 bit/s -->
    <defs>
     <path id="DejaVuSans-20"/>
     <path d="M 48.6875 27.296875 
Q 48.6875 37.203125 44.609375 42.84375 
Q 40.53125 48.484375 33.40625 48.484375 
Q 26.265625 48.484375 22.1875 42.84375 
Q 18.109375 37.203125 18.109375 27.296875 
Q 18.109375 17.390625 22.1875 11.75 
Q 26.265625 6.109375 33.40625 6.109375 
Q 40.53125 6.109375 44.609375 11.75 
Q 48.6875 17.390625 48.6875 27.296875 
z
M 18.109375 46.390625 
Q 20.953125 51.265625 25.265625 53.625 
Q 29.59375 56 35.59375 56 
Q 45.5625 56 51.78125 48.09375 
Q 58.015625 40.1875 58.015625 27.296875 
Q 58.015625 14.40625 51.78125 6.484375 
Q 45.5625 -1.421875 35.59375 -1.421875 
Q 29.59375 -1.421875 25.265625 0.953125 
Q 20.953125 3.328125 18.109375 8.203125 
L 18.109375 0 
L 9.078125 0 
L 9.078125 75.984375 
L 18.109375 75.984375 
z
" id="DejaVuSans-62"/>
     <path d="M 9.421875 54.6875 
L 18.40625 54.6875 
L 18.40625 0 
L 9.421875 0 
z
M 9.421875 75.984375 
L 18.40625 75.984375 
L 18.40625 64.59375 
L 9.421875 64.59375 
z
" id="DejaVuSans-69"/>
     <path d="M 18.3125 70.21875 
L 18.3125 54.6875 
L 36.8125 54.6875 
L 36.8125 47.703125 
L 18.3125 47.703125 
L 18.3125 18.015625 
Q 18.3125 11.328125 20.140625 9.421875 
Q 21.96875 7.515625 27.59375 7.515625 
L 36.8125 7.515625 
L 36.8125 0 
L 27.59375 0 
Q 17.1875 0 13.234375 3.875 
Q 9.28125 7.765625 9.28125 18.015625 
L 9.28125 47.703125 
L 2.6875 47.703125 
L 2.6875 54.6875 
L 9.28125 54.6875 
L 9.28125 70.21875 
z
" id="DejaVuSans-74"/>
     <path d="M 25.390625 72.90625 
L 33.6875 72.90625 
L 8.296875 -9.28125 
L 0 -9.28125 
z
" id="DejaVuSans-2f"/>
     <path d="M 44.28125 53.078125 
L 44.28125 44.578125 
Q 40.484375 46.53125 36.375 47.5 
Q 32.28125 48.484375 27.875 48.484375 
Q 21.1875 48.484375 17.84375 46.4375 
Q 14.5 44.390625 14.5 40.28125 
Q 14.5 37.15625 16.890625 35.375 
Q 19.28125 33.59375 26.515625 31.984375 
L 29.59375 31.296875 
Q 39.15625 29.25 43.1875 25.515625 
Q 47.21875 21.78125 47.21875 15.09375 
Q 47.21875 7.46875 41.1875 3.015625 
Q 35.15625 -1.421875 24.609375 -1.421875 
Q 20.21875 -1.421875 15.453125 -0.5625 
Q 10.6875 0.296875 5.421875 2 
L 5.421875 11.28125 
Q 10.40625 8.6875 15.234375 7.390625 
Q 20.0625 6.109375 24.8125 6.109375 
Q 31.15625 6.109375 34.5625 8.28125 
Q 37.984375 10.453125 37.984375 14.40625 
Q 37.984375 18.0625 35.515625 20.015625 
Q 33.0625 21.96875 24.703125 23.78125 
L 21.578125 24.515625 
Q 13.234375 26.265625 9.515625 29.90625 
Q 5.8125 33.546875 5.8125 39.890625 
Q 5.8125 47.609375 11.28125 51.796875 
Q 16.75 56 26.8125 56 
Q 31.78125 56 36.171875 55.265625 
Q 40.578125 54.546875 44.28125 53.078125 
z
" id="DejaVuSans-73"/>
    </defs>
    <g transform="translate(690.67125 63.12)scale(0.12 -0.12)">
     <use xlink:href="#DejaVuSans-35"/>
     <use x="63.623047" xlink:href="#DejaVuSans-30"/>
     <use x="127.246094" xlink:href="#DejaVuSans-30"/>
     <use x="190.869141" xlink:href="#DejaVuSans-30"/>
     <use x="254.492188" xlink:href="#DejaVuSans-30"/>
     <use x="318.115234" xlink:href="#DejaVuSans-30"/>
     <use x="381.738281" xlink:href="#DejaVuSans-30"/>
     <use x="445.361328" xlink:href="#DejaVuSans-2e"/>
     <use x="477.148438" xlink:href="#DejaVuSans-30"/>
     <use x="540.771484" xlink:href="#DejaVuSans-20"/>
     <use x="572.558594" xlink:href="#DejaVuSans-62"/>
     <use x="636.035156" xlink:href="#DejaVuSans-69"/>
     <use x="663.818359" xlink:href="#DejaVuSans-74"/>
     <use x="703.027344" xlink:href="#DejaVuSans-2f"/>
     <use x="736.71875" xlink:href="#DejaVuSans-73"/>
    </g>
   </g>
   <g id="legend_1">
    <g id="patch_7">
     <path d="M 1173.520313 135.8325 
L 1289 135.8325 
Q 1291 135.8325 1291 133.8325 
L 1291 76.12 
Q 1291 74.12 1289 74.12 
L 1173.520313 74.12 
Q 1171.520313 74.12 1171.520313 76.12 
L 1171.520313 133.8325 
Q 1171.520313 135.8325 1173.520313 135.8325 
z
" style="fill:#ffffff;opacity:0.8;stroke:#cccccc;stroke-linejoin:miter;"/>
    </g>
    <g id="line2d_18">
     <path d="M 1175.520313 82.218437 
L 1195.520313 82.218437 
" style="fill:none;stroke:#ff0000;stroke-dasharray:5.55,2.4;stroke-dashoffset:0;stroke-width:1.5;"/>
    </g>
    <g id="line2d_19">
     <g>
      <use style="fill:#ff0000;stroke:#ff0000;stroke-linejoin:miter;" x="1185.520313" xlink:href="#m30f8d99b5e" y="82.218437"/>
     </g>
    </g>
    <g id="text_15">
     <!-- tcpdump -->
     <defs>
      <path d="M 48.78125 52.59375 
L 48.78125 44.1875 
Q 44.96875 46.296875 41.140625 47.34375 
Q 37.3125 48.390625 33.40625 48.390625 
Q 24.65625 48.390625 19.8125 42.84375 
Q 14.984375 37.3125 14.984375 27.296875 
Q 14.984375 17.28125 19.8125 11.734375 
Q 24.65625 6.203125 33.40625 6.203125 
Q 37.3125 6.203125 41.140625 7.25 
Q 44.96875 8.296875 48.78125 10.40625 
L 48.78125 2.09375 
Q 45.015625 0.34375 40.984375 -0.53125 
Q 36.96875 -1.421875 32.421875 -1.421875 
Q 20.0625 -1.421875 12.78125 6.34375 
Q 5.515625 14.109375 5.515625 27.296875 
Q 5.515625 40.671875 12.859375 48.328125 
Q 20.21875 56 33.015625 56 
Q 37.15625 56 41.109375 55.140625 
Q 45.0625 54.296875 48.78125 52.59375 
z
" id="DejaVuSans-63"/>
      <path d="M 18.109375 8.203125 
L 18.109375 -20.796875 
L 9.078125 -20.796875 
L 9.078125 54.6875 
L 18.109375 54.6875 
L 18.109375 46.390625 
Q 20.953125 51.265625 25.265625 53.625 
Q 29.59375 56 35.59375 56 
Q 45.5625 56 51.78125 48.09375 
Q 58.015625 40.1875 58.015625 27.296875 
Q 58.015625 14.40625 51.78125 6.484375 
Q 45.5625 -1.421875 35.59375 -1.421875 
Q 29.59375 -1.421875 25.265625 0.953125 
Q 20.953125 3.328125 18.109375 8.203125 
z
M 48.6875 27.296875 
Q 48.6875 37.203125 44.609375 42.84375 
Q 40.53125 48.484375 33.40625 48.484375 
Q 26.265625 48.484375 22.1875 42.84375 
Q 18.109375 37.203125 18.109375 27.296875 
Q 18.109375 17.390625 22.1875 11.75 
Q 26.265625 6.109375 33.40625 6.109375 
Q 40.53125 6.109375 44.609375 11.75 
Q 48.6875 17.390625 48.6875 27.296875 
z
" id="DejaVuSans-70"/>
      <path d="M 45.40625 46.390625 
L 45.40625 75.984375 
L 54.390625 75.984375 
L 54.390625 0 
L 45.40625 0 
L 45.40625 8.203125 
Q 42.578125 3.328125 38.25 0.953125 
Q 33.9375 -1.421875 27.875 -1.421875 
Q 17.96875 -1.421875 11.734375 6.484375 
Q 5.515625 14.40625 5.515625 27.296875 
Q 5.515625 40.1875 11.734375 48.09375 
Q 17.96875 56 27.875 56 
Q 33.9375 56 38.25 53.625 
Q 42.578125 51.265625 45.40625 46.390625 
z
M 14.796875 27.296875 
Q 14.796875 17.390625 18.875 11.75 
Q 22.953125 6.109375 30.078125 6.109375 
Q 37.203125 6.109375 41.296875 11.75 
Q 45.40625 17.390625 45.40625 27.296875 
Q 45.40625 37.203125 41.296875 42.84375 
Q 37.203125 48.484375 30.078125 48.484375 
Q 22.953125 48.484375 18.875 42.84375 
Q 14.796875 37.203125 14.796875 27.296875 
z
" id="DejaVuSans-64"/>
      <path d="M 8.5 21.578125 
L 8.5 54.6875 
L 17.484375 54.6875 
L 17.484375 21.921875 
Q 17.484375 14.15625 20.5 10.265625 
Q 23.53125 6.390625 29.59375 6.390625 
Q 36.859375 6.390625 41.078125 11.03125 
Q 45.3125 15.671875 45.3125 23.6875 
L 45.3125 54.6875 
L 54.296875 54.6875 
L 54.296875 0 
L 45.3125 0 
L 45.3125 8.40625 
Q 42.046875 3.421875 37.71875 1 
Q 33.40625 -1.421875 27.6875 -1.421875 
Q 18.265625 -1.421875 13.375 4.4375 
Q 8.5 10.296875 8.5 21.578125 
z
M 31.109375 56 
z
" id="DejaVuSans-75"/>
      <path d="M 52 44.1875 
Q 55.375 50.25 60.0625 53.125 
Q 64.75 56 71.09375 56 
Q 79.640625 56 84.28125 50.015625 
Q 88.921875 44.046875 88.921875 33.015625 
L 88.921875 0 
L 79.890625 0 
L 79.890625 32.71875 
Q 79.890625 40.578125 77.09375 44.375 
Q 74.3125 48.1875 68.609375 48.1875 
Q 61.625 48.1875 57.5625 43.546875 
Q 53.515625 38.921875 53.515625 30.90625 
L 53.515625 0 
L 44.484375 0 
L 44.484375 32.71875 
Q 44.484375 40.625 41.703125 44.40625 
Q 38.921875 48.1875 33.109375 48.1875 
Q 26.21875 48.1875 22.15625 43.53125 
Q 18.109375 38.875 18.109375 30.90625 
L 18.109375 0 
L 9.078125 0 
L 9.078125 54.6875 
L 18.109375 54.6875 
L 18.109375 46.1875 
Q 21.1875 51.21875 25.484375 53.609375 
Q 29.78125 56 35.6875 56 
Q 41.65625 56 45.828125 52.96875 
Q 50 49.953125 52 44.1875 
z
" id="DejaVuSans-6d"/>
     </defs>
     <g transform="translate(1203.520313 85.718437)scale(0.1 -0.1)">
      <use xlink:href="#DejaVuSans-74"/>
      <use x="39.208984" xlink:href="#DejaVuSans-63"/>
      <use x="94.189453" xlink:href="#DejaVuSans-70"/>
      <use x="157.666016" xlink:href="#DejaVuSans-64"/>
      <use x="221.142578" xlink:href="#DejaVuSans-75"/>
      <use x="284.521484" xlink:href="#DejaVuSans-6d"/>
      <use x="381.933594" xlink:href="#DejaVuSans-70"/>
     </g>
    </g>
    <g id="line2d_20">
     <path d="M 1175.520313 96.896563 
L 1195.520313 96.896563 
" style="fill:none;stroke:#800080;stroke-dasharray:9.6,2.4,1.5,2.4;stroke-dashoffset:0;stroke-width:1.5;"/>
    </g>
    <g id="line2d_21">
     <g>
      <use style="fill:#800080;stroke:#800080;" x="1185.520313" xlink:href="#m940d99bfef" y="96.896563"/>
     </g>
    </g>
    <g id="text_16">
     <!-- filtered tcpdump -->
     <defs>
      <path d="M 37.109375 75.984375 
L 37.109375 68.5 
L 28.515625 68.5 
Q 23.6875 68.5 21.796875 66.546875 
Q 19.921875 64.59375 19.921875 59.515625 
L 19.921875 54.6875 
L 34.71875 54.6875 
L 34.71875 47.703125 
L 19.921875 47.703125 
L 19.921875 0 
L 10.890625 0 
L 10.890625 47.703125 
L 2.296875 47.703125 
L 2.296875 54.6875 
L 10.890625 54.6875 
L 10.890625 58.5 
Q 10.890625 67.625 15.140625 71.796875 
Q 19.390625 75.984375 28.609375 75.984375 
z
" id="DejaVuSans-66"/>
      <path d="M 9.421875 75.984375 
L 18.40625 75.984375 
L 18.40625 0 
L 9.421875 0 
z
" id="DejaVuSans-6c"/>
      <path d="M 56.203125 29.59375 
L 56.203125 25.203125 
L 14.890625 25.203125 
Q 15.484375 15.921875 20.484375 11.0625 
Q 25.484375 6.203125 34.421875 6.203125 
Q 39.59375 6.203125 44.453125 7.46875 
Q 49.3125 8.734375 54.109375 11.28125 
L 54.109375 2.78125 
Q 49.265625 0.734375 44.1875 -0.34375 
Q 39.109375 -1.421875 33.890625 -1.421875 
Q 20.796875 -1.421875 13.15625 6.1875 
Q 5.515625 13.8125 5.515625 26.8125 
Q 5.515625 40.234375 12.765625 48.109375 
Q 20.015625 56 32.328125 56 
Q 43.359375 56 49.78125 48.890625 
Q 56.203125 41.796875 56.203125 29.59375 
z
M 47.21875 32.234375 
Q 47.125 39.59375 43.09375 43.984375 
Q 39.0625 48.390625 32.421875 48.390625 
Q 24.90625 48.390625 20.390625 44.140625 
Q 15.875 39.890625 15.1875 32.171875 
z
" id="DejaVuSans-65"/>
      <path d="M 41.109375 46.296875 
Q 39.59375 47.171875 37.8125 47.578125 
Q 36.03125 48 33.890625 48 
Q 26.265625 48 22.1875 43.046875 
Q 18.109375 38.09375 18.109375 28.8125 
L 18.109375 0 
L 9.078125 0 
L 9.078125 54.6875 
L 18.109375 54.6875 
L 18.109375 46.1875 
Q 20.953125 51.171875 25.484375 53.578125 
Q 30.03125 56 36.53125 56 
Q 37.453125 56 38.578125 55.875 
Q 39.703125 55.765625 41.0625 55.515625 
z
" id="DejaVuSans-72"/>
     </defs>
     <g transform="translate(1203.520313 100.396563)scale(0.1 -0.1)">
      <use xlink:href="#DejaVuSans-66"/>
      <use x="35.205078" xlink:href="#DejaVuSans-69"/>
      <use x="62.988281" xlink:href="#DejaVuSans-6c"/>
      <use x="90.771484" xlink:href="#DejaVuSans-74"/>
      <use x="129.980469" xlink:href="#DejaVuSans-65"/>
      <use x="191.503906" xlink:href="#DejaVuSans-72"/>
      <use x="232.585938" xlink:href="#DejaVuSans-65"/>
      <use x="294.109375" xlink:href="#DejaVuSans-64"/>
      <use x="357.585938" xlink:href="#DejaVuSans-20"/>
      <use x="389.373047" xlink:href="#DejaVuSans-74"/>
      <use x="428.582031" xlink:href="#DejaVuSans-63"/>
      <use x="483.5625" xlink:href="#DejaVuSans-70"/>
      <use x="547.039062" xlink:href="#DejaVuSans-64"/>
      <use x="610.515625" xlink:href="#DejaVuSans-75"/>
      <use x="673.894531" xlink:href="#DejaVuSans-6d"/>
      <use x="771.306641" xlink:href="#DejaVuSans-70"/>
     </g>
    </g>
    <g id="line2d_22">
     <path d="M 1175.520313 111.574687 
L 1195.520313 111.574687 
" style="fill:none;stroke:#0000ff;stroke-linecap:square;stroke-width:1.5;"/>
    </g>
    <g id="line2d_23"/>
    <g id="text_17">
     <!-- OLS -->
     <defs>
      <path d="M 39.40625 66.21875 
Q 28.65625 66.21875 22.328125 58.203125 
Q 16.015625 50.203125 16.015625 36.375 
Q 16.015625 22.609375 22.328125 14.59375 
Q 28.65625 6.59375 39.40625 6.59375 
Q 50.140625 6.59375 56.421875 14.59375 
Q 62.703125 22.609375 62.703125 36.375 
Q 62.703125 50.203125 56.421875 58.203125 
Q 50.140625 66.21875 39.40625 66.21875 
z
M 39.40625 74.21875 
Q 54.734375 74.21875 63.90625 63.9375 
Q 73.09375 53.65625 73.09375 36.375 
Q 73.09375 19.140625 63.90625 8.859375 
Q 54.734375 -1.421875 39.40625 -1.421875 
Q 24.03125 -1.421875 14.8125 8.828125 
Q 5.609375 19.09375 5.609375 36.375 
Q 5.609375 53.65625 14.8125 63.9375 
Q 24.03125 74.21875 39.40625 74.21875 
z
" id="DejaVuSans-4f"/>
      <path d="M 9.8125 72.90625 
L 19.671875 72.90625 
L 19.671875 8.296875 
L 55.171875 8.296875 
L 55.171875 0 
L 9.8125 0 
z
" id="DejaVuSans-4c"/>
      <path d="M 53.515625 70.515625 
L 53.515625 60.890625 
Q 47.90625 63.578125 42.921875 64.890625 
Q 37.9375 66.21875 33.296875 66.21875 
Q 25.25 66.21875 20.875 63.09375 
Q 16.5 59.96875 16.5 54.203125 
Q 16.5 49.359375 19.40625 46.890625 
Q 22.3125 44.4375 30.421875 42.921875 
L 36.375 41.703125 
Q 47.40625 39.59375 52.65625 34.296875 
Q 57.90625 29 57.90625 20.125 
Q 57.90625 9.515625 50.796875 4.046875 
Q 43.703125 -1.421875 29.984375 -1.421875 
Q 24.8125 -1.421875 18.96875 -0.25 
Q 13.140625 0.921875 6.890625 3.21875 
L 6.890625 13.375 
Q 12.890625 10.015625 18.65625 8.296875 
Q 24.421875 6.59375 29.984375 6.59375 
Q 38.421875 6.59375 43.015625 9.90625 
Q 47.609375 13.234375 47.609375 19.390625 
Q 47.609375 24.75 44.3125 27.78125 
Q 41.015625 30.8125 33.5 32.328125 
L 27.484375 33.5 
Q 16.453125 35.6875 11.515625 40.375 
Q 6.59375 45.0625 6.59375 53.421875 
Q 6.59375 63.09375 13.40625 68.65625 
Q 20.21875 74.21875 32.171875 74.21875 
Q 37.3125 74.21875 42.625 73.28125 
Q 47.953125 72.359375 53.515625 70.515625 
z
" id="DejaVuSans-53"/>
     </defs>
     <g transform="translate(1203.520313 115.074687)scale(0.1 -0.1)">
      <use xlink:href="#DejaVuSans-4f"/>
      <use x="78.710938" xlink:href="#DejaVuSans-4c"/>
      <use x="134.423828" xlink:href="#DejaVuSans-53"/>
     </g>
    </g>
    <g id="line2d_24">
     <path d="M 1175.520313 126.252813 
L 1195.520313 126.252813 
" style="fill:none;stroke:#008000;stroke-linecap:square;stroke-width:1.5;"/>
    </g>
    <g id="line2d_25">
     <g>
      <use style="fill:#008000;stroke:#008000;" x="1185.520313" xlink:href="#mf068f2dd66" y="126.252813"/>
     </g>
    </g>
    <g id="text_18">
     <!-- IRLS -->
     <defs>
      <path d="M 9.8125 72.90625 
L 19.671875 72.90625 
L 19.671875 0 
L 9.8125 0 
z
" id="DejaVuSans-49"/>
      <path d="M 44.390625 34.1875 
Q 47.5625 33.109375 50.5625 29.59375 
Q 53.5625 26.078125 56.59375 19.921875 
L 66.609375 0 
L 56 0 
L 46.6875 18.703125 
Q 43.0625 26.03125 39.671875 28.421875 
Q 36.28125 30.8125 30.421875 30.8125 
L 19.671875 30.8125 
L 19.671875 0 
L 9.8125 0 
L 9.8125 72.90625 
L 32.078125 72.90625 
Q 44.578125 72.90625 50.734375 67.671875 
Q 56.890625 62.453125 56.890625 51.90625 
Q 56.890625 45.015625 53.6875 40.46875 
Q 50.484375 35.9375 44.390625 34.1875 
z
M 19.671875 64.796875 
L 19.671875 38.921875 
L 32.078125 38.921875 
Q 39.203125 38.921875 42.84375 42.21875 
Q 46.484375 45.515625 46.484375 51.90625 
Q 46.484375 58.296875 42.84375 61.546875 
Q 39.203125 64.796875 32.078125 64.796875 
z
" id="DejaVuSans-52"/>
     </defs>
     <g transform="translate(1203.520313 129.752813)scale(0.1 -0.1)">
      <use xlink:href="#DejaVuSans-49"/>
      <use x="29.492188" xlink:href="#DejaVuSans-52"/>
      <use x="98.974609" xlink:href="#DejaVuSans-4c"/>
      <use x="154.6875" xlink:href="#DejaVuSans-53"/>
     </g>
    </g>
   </g>
  </g>
 </g>
 <defs>
  <clipPath id="p03f5389f55">
   <rect height="443.52" width="1116" x="180" y="69.12"/>
  </clipPath>
 </defs>
</svg>
