<?xml version="1.0" encoding="utf-8" standalone="no"?>
<!DOCTYPE svg PUBLIC "-//W3C//DTD SVG 1.1//EN"
  "http://www.w3.org/Graphics/SVG/1.1/DTD/svg11.dtd">
<!-- Created with matplotlib (http://matplotlib.org/) -->
<svg height="576pt" version="1.1" viewBox="0 0 1440 576" width="1440pt" xmlns="http://www.w3.org/2000/svg" xmlns:xlink="http://www.w3.org/1999/xlink">
 <defs>
  <style type="text/css">
*{stroke-linecap:butt;stroke-linejoin:round;}
  </style>
 </defs>
 <g id="figure_1">
  <g id="patch_1">
   <path d="M 0 576 
L 1440 576 
L 1440 0 
L 0 0 
z
" style="fill:#ffffff;"/>
  </g>
  <g id="axes_1">
   <g id="patch_2">
    <path d="M 180 512.64 
L 1296 512.64 
L 1296 69.12 
L 180 69.12 
z
" style="fill:#ffffff;"/>
   </g>
   <g id="matplotlib.axis_1">
    <g id="xtick_1">
     <g id="line2d_1">
      <defs>
       <path d="M 0 0 
L 0 3.5 
" id="m42515342ec" style="stroke:#000000;stroke-width:0.8;"/>
      </defs>
      <g>
       <use style="stroke:#000000;stroke-width:0.8;" x="230.727273" xlink:href="#m42515342ec" y="512.64"/>
      </g>
     </g>
     <g id="text_1">
      <!-- 0.00 -->
      <defs>
       <path d="M 31.78125 66.40625 
Q 24.171875 66.40625 20.328125 58.90625 
Q 16.5 51.421875 16.5 36.375 
Q 16.5 21.390625 20.328125 13.890625 
Q 24.171875 6.390625 31.78125 6.390625 
Q 39.453125 6.390625 43.28125 13.890625 
Q 47.125 21.390625 47.125 36.375 
Q 47.125 51.421875 43.28125 58.90625 
Q 39.453125 66.40625 31.78125 66.40625 
z
M 31.78125 74.21875 
Q 44.046875 74.21875 50.515625 64.515625 
Q 56.984375 54.828125 56.984375 36.375 
Q 56.984375 17.96875 50.515625 8.265625 
Q 44.046875 -1.421875 31.78125 -1.421875 
Q 19.53125 -1.421875 13.0625 8.265625 
Q 6.59375 17.96875 6.59375 36.375 
Q 6.59375 54.828125 13.0625 64.515625 
Q 19.53125 74.21875 31.78125 74.21875 
z
" id="DejaVuSans-30"/>
       <path d="M 10.6875 12.40625 
L 21 12.40625 
L 21 0 
L 10.6875 0 
z
" id="DejaVuSans-2e"/>
      </defs>
      <g transform="translate(219.59446 527.238438)scale(0.1 -0.1)">
       <use xlink:href="#DejaVuSans-30"/>
       <use x="63.623047" xlink:href="#DejaVuSans-2e"/>
       <use x="95.410156" xlink:href="#DejaVuSans-30"/>
       <use x="159.033203" xlink:href="#DejaVuSans-30"/>
      </g>
     </g>
    </g>
    <g id="xtick_2">
     <g id="line2d_2">
      <g>
       <use style="stroke:#000000;stroke-width:0.8;" x="430.543213" xlink:href="#m42515342ec" y="512.64"/>
      </g>
     </g>
     <g id="text_2">
      <!-- 0.05 -->
      <defs>
       <path d="M 10.796875 72.90625 
L 49.515625 72.90625 
L 49.515625 64.59375 
L 19.828125 64.59375 
L 19.828125 46.734375 
Q 21.96875 47.46875 24.109375 47.828125 
Q 26.265625 48.1875 28.421875 48.1875 
Q 40.625 48.1875 47.75 41.5 
Q 54.890625 34.8125 54.890625 23.390625 
Q 54.890625 11.625 47.5625 5.09375 
Q 40.234375 -1.421875 26.90625 -1.421875 
Q 22.3125 -1.421875 17.546875 -0.640625 
Q 12.796875 0.140625 7.71875 1.703125 
L 7.71875 11.625 
Q 12.109375 9.234375 16.796875 8.0625 
Q 21.484375 6.890625 26.703125 6.890625 
Q 35.15625 6.890625 40.078125 11.328125 
Q 45.015625 15.765625 45.015625 23.390625 
Q 45.015625 31 40.078125 35.4375 
Q 35.15625 39.890625 26.703125 39.890625 
Q 22.75 39.890625 18.8125 39.015625 
Q 14.890625 38.140625 10.796875 36.28125 
z
" id="DejaVuSans-35"/>
      </defs>
      <g transform="translate(419.4104 527.238438)scale(0.1 -0.1)">
       <use xlink:href="#DejaVuSans-30"/>
       <use x="63.623047" xlink:href="#DejaVuSans-2e"/>
       <use x="95.410156" xlink:href="#DejaVuSans-30"/>
       <use x="159.033203" xlink:href="#DejaVuSans-35"/>
      </g>
     </g>
    </g>
    <g id="xtick_3">
     <g id="line2d_3">
      <g>
       <use style="stroke:#000000;stroke-width:0.8;" x="630.359153" xlink:href="#m42515342ec" y="512.64"/>
      </g>
     </g>
     <g id="text_3">
      <!-- 0.10 -->
      <defs>
       <path d="M 12.40625 8.296875 
L 28.515625 8.296875 
L 28.515625 63.921875 
L 10.984375 60.40625 
L 10.984375 69.390625 
L 28.421875 72.90625 
L 38.28125 72.90625 
L 38.28125 8.296875 
L 54.390625 8.296875 
L 54.390625 0 
L 12.40625 0 
z
" id="DejaVuSans-31"/>
      </defs>
      <g transform="translate(619.226341 527.238438)scale(0.1 -0.1)">
       <use xlink:href="#DejaVuSans-30"/>
       <use x="63.623047" xlink:href="#DejaVuSans-2e"/>
       <use x="95.410156" xlink:href="#DejaVuSans-31"/>
       <use x="159.033203" xlink:href="#DejaVuSans-30"/>
      </g>
     </g>
    </g>
    <g id="xtick_4">
     <g id="line2d_4">
      <g>
       <use style="stroke:#000000;stroke-width:0.8;" x="830.175093" xlink:href="#m42515342ec" y="512.64"/>
      </g>
     </g>
     <g id="text_4">
      <!-- 0.15 -->
      <g transform="translate(819.042281 527.238438)scale(0.1 -0.1)">
       <use xlink:href="#DejaVuSans-30"/>
       <use x="63.623047" xlink:href="#DejaVuSans-2e"/>
       <use x="95.410156" xlink:href="#DejaVuSans-31"/>
       <use x="159.033203" xlink:href="#DejaVuSans-35"/>
      </g>
     </g>
    </g>
    <g id="xtick_5">
     <g id="line2d_5">
      <g>
       <use style="stroke:#000000;stroke-width:0.8;" x="1029.991033" xlink:href="#m42515342ec" y="512.64"/>
      </g>
     </g>
     <g id="text_5">
      <!-- 0.20 -->
      <defs>
       <path d="M 19.1875 8.296875 
L 53.609375 8.296875 
L 53.609375 0 
L 7.328125 0 
L 7.328125 8.296875 
Q 12.9375 14.109375 22.625 23.890625 
Q 32.328125 33.6875 34.8125 36.53125 
Q 39.546875 41.84375 41.421875 45.53125 
Q 43.3125 49.21875 43.3125 52.78125 
Q 43.3125 58.59375 39.234375 62.25 
Q 35.15625 65.921875 28.609375 65.921875 
Q 23.96875 65.921875 18.8125 64.3125 
Q 13.671875 62.703125 7.8125 59.421875 
L 7.8125 69.390625 
Q 13.765625 71.78125 18.9375 73 
Q 24.125 74.21875 28.421875 74.21875 
Q 39.75 74.21875 46.484375 68.546875 
Q 53.21875 62.890625 53.21875 53.421875 
Q 53.21875 48.921875 51.53125 44.890625 
Q 49.859375 40.875 45.40625 35.40625 
Q 44.1875 33.984375 37.640625 27.21875 
Q 31.109375 20.453125 19.1875 8.296875 
z
" id="DejaVuSans-32"/>
      </defs>
      <g transform="translate(1018.858221 527.238438)scale(0.1 -0.1)">
       <use xlink:href="#DejaVuSans-30"/>
       <use x="63.623047" xlink:href="#DejaVuSans-2e"/>
       <use x="95.410156" xlink:href="#DejaVuSans-32"/>
       <use x="159.033203" xlink:href="#DejaVuSans-30"/>
      </g>
     </g>
    </g>
    <g id="xtick_6">
     <g id="line2d_6">
      <g>
       <use style="stroke:#000000;stroke-width:0.8;" x="1229.806974" xlink:href="#m42515342ec" y="512.64"/>
      </g>
     </g>
     <g id="text_6">
      <!-- 0.25 -->
      <g transform="translate(1218.674161 527.238438)scale(0.1 -0.1)">
       <use xlink:href="#DejaVuSans-30"/>
       <use x="63.623047" xlink:href="#DejaVuSans-2e"/>
       <use x="95.410156" xlink:href="#DejaVuSans-32"/>
       <use x="159.033203" xlink:href="#DejaVuSans-35"/>
      </g>
     </g>
    </g>
   </g>
   <g id="matplotlib.axis_2">
    <g id="ytick_1">
     <g id="line2d_7">
      <defs>
       <path d="M 0 0 
L -3.5 0 
" id="mc4ec0de972" style="stroke:#000000;stroke-width:0.8;"/>
      </defs>
      <g>
       <use style="stroke:#000000;stroke-width:0.8;" x="180" xlink:href="#mc4ec0de972" y="507.558079"/>
      </g>
     </g>
     <g id="text_7">
      <!-- 0.5 -->
      <g transform="translate(157.096875 511.357297)scale(0.1 -0.1)">
       <use xlink:href="#DejaVuSans-30"/>
       <use x="63.623047" xlink:href="#DejaVuSans-2e"/>
       <use x="95.410156" xlink:href="#DejaVuSans-35"/>
      </g>
     </g>
    </g>
    <g id="ytick_2">
     <g id="line2d_8">
      <g>
       <use style="stroke:#000000;stroke-width:0.8;" x="180" xlink:href="#mc4ec0de972" y="423.511883"/>
      </g>
     </g>
     <g id="text_8">
      <!-- 1.0 -->
      <g transform="translate(157.096875 427.311102)scale(0.1 -0.1)">
       <use xlink:href="#DejaVuSans-31"/>
       <use x="63.623047" xlink:href="#DejaVuSans-2e"/>
       <use x="95.410156" xlink:href="#DejaVuSans-30"/>
      </g>
     </g>
    </g>
    <g id="ytick_3">
     <g id="line2d_9">
      <g>
       <use style="stroke:#000000;stroke-width:0.8;" x="180" xlink:href="#mc4ec0de972" y="339.465688"/>
      </g>
     </g>
     <g id="text_9">
      <!-- 1.5 -->
      <g transform="translate(157.096875 343.264907)scale(0.1 -0.1)">
       <use xlink:href="#DejaVuSans-31"/>
       <use x="63.623047" xlink:href="#DejaVuSans-2e"/>
       <use x="95.410156" xlink:href="#DejaVuSans-35"/>
      </g>
     </g>
    </g>
    <g id="ytick_4">
     <g id="line2d_10">
      <g>
       <use style="stroke:#000000;stroke-width:0.8;" x="180" xlink:href="#mc4ec0de972" y="255.419493"/>
      </g>
     </g>
     <g id="text_10">
      <!-- 2.0 -->
      <g transform="translate(157.096875 259.218712)scale(0.1 -0.1)">
       <use xlink:href="#DejaVuSans-32"/>
       <use x="63.623047" xlink:href="#DejaVuSans-2e"/>
       <use x="95.410156" xlink:href="#DejaVuSans-30"/>
      </g>
     </g>
    </g>
    <g id="ytick_5">
     <g id="line2d_11">
      <g>
       <use style="stroke:#000000;stroke-width:0.8;" x="180" xlink:href="#mc4ec0de972" y="171.373298"/>
      </g>
     </g>
     <g id="text_11">
      <!-- 2.5 -->
      <g transform="translate(157.096875 175.172517)scale(0.1 -0.1)">
       <use xlink:href="#DejaVuSans-32"/>
       <use x="63.623047" xlink:href="#DejaVuSans-2e"/>
       <use x="95.410156" xlink:href="#DejaVuSans-35"/>
      </g>
     </g>
    </g>
    <g id="ytick_6">
     <g id="line2d_12">
      <g>
       <use style="stroke:#000000;stroke-width:0.8;" x="180" xlink:href="#mc4ec0de972" y="87.327103"/>
      </g>
     </g>
     <g id="text_12">
      <!-- 3.0 -->
      <defs>
       <path d="M 40.578125 39.3125 
Q 47.65625 37.796875 51.625 33 
Q 55.609375 28.21875 55.609375 21.1875 
Q 55.609375 10.40625 48.1875 4.484375 
Q 40.765625 -1.421875 27.09375 -1.421875 
Q 22.515625 -1.421875 17.65625 -0.515625 
Q 12.796875 0.390625 7.625 2.203125 
L 7.625 11.71875 
Q 11.71875 9.328125 16.59375 8.109375 
Q 21.484375 6.890625 26.8125 6.890625 
Q 36.078125 6.890625 40.9375 10.546875 
Q 45.796875 14.203125 45.796875 21.1875 
Q 45.796875 27.640625 41.28125 31.265625 
Q 36.765625 34.90625 28.71875 34.90625 
L 20.21875 34.90625 
L 20.21875 43.015625 
L 29.109375 43.015625 
Q 36.375 43.015625 40.234375 45.921875 
Q 44.09375 48.828125 44.09375 54.296875 
Q 44.09375 59.90625 40.109375 62.90625 
Q 36.140625 65.921875 28.71875 65.921875 
Q 24.65625 65.921875 20.015625 65.03125 
Q 15.375 64.15625 9.8125 62.3125 
L 9.8125 71.09375 
Q 15.4375 72.65625 20.34375 73.4375 
Q 25.25 74.21875 29.59375 74.21875 
Q 40.828125 74.21875 47.359375 69.109375 
Q 53.90625 64.015625 53.90625 55.328125 
Q 53.90625 49.265625 50.4375 45.09375 
Q 46.96875 40.921875 40.578125 39.3125 
z
" id="DejaVuSans-33"/>
      </defs>
      <g transform="translate(157.096875 91.126321)scale(0.1 -0.1)">
       <use xlink:href="#DejaVuSans-33"/>
       <use x="63.623047" xlink:href="#DejaVuSans-2e"/>
       <use x="95.410156" xlink:href="#DejaVuSans-30"/>
      </g>
     </g>
    </g>
   </g>
   <g id="line2d_13">
    <path clip-path="url(#pf3ea68e78a)" d="M 230.727273 429.265686 
L 258.385795 428.427241 
L 267.813111 426.799603 
L 276.253337 425.1291 
L 284.405827 423.439772 
L 300.506995 422.097218 
L 309.007165 420.43159 
L 317.323505 418.756045 
L 325.555922 417.074281 
L 340.797882 415.692898 
L 349.334018 414.026094 
L 357.642365 412.351557 
L 365.786863 410.668952 
L 381.120738 409.287905 
L 389.628901 407.618076 
L 398.117082 405.952112 
L 406.445411 404.278248 
L 421.531514 402.887451 
L 429.971739 401.217622 
L 438.172185 399.53737 
L 446.372632 397.855774 
L 462.529749 396.509186 
L 471.101852 394.846584 
L 479.382225 393.169694 
L 487.63862 391.492468 
L 502.221187 390.079484 
L 510.733346 388.413184 
L 518.95777 386.733941 
L 527.050316 385.049319 
L 542.416161 383.670457 
L 550.848394 381.998946 
L 559.052837 380.319703 
L 567.161367 378.635586 
L 582.659092 377.262607 
L 591.071343 375.591264 
L 599.187866 373.906138 
L 607.388313 372.226895 
L 622.96996 370.856942 
L 631.282303 369.181901 
L 639.518716 367.502827 
L 647.651224 365.818709 
L 664.31987 364.495149 
L 673.543374 362.857089 
L 682.267338 361.200202 
L 690.715556 359.5297 
L 704.007312 358.063094 
L 712.467519 356.393264 
L 721.071594 354.731335 
L 729.483845 353.059488 
L 744.406099 351.66264 
L 753.182015 350.004409 
L 761.682185 348.337941 
L 769.946573 346.661219 
L 784.932768 345.265548 
L 793.404964 343.597735 
L 801.737289 341.921182 
L 810.021657 340.245637 
L 825.447448 338.869296 
L 833.831725 337.196441 
L 842.263958 335.525771 
L 850.540334 333.848041 
L 865.834246 332.465144 
L 874.474287 330.80456 
L 882.714696 329.125317 
L 890.959102 327.448763 
L 906.193069 326.059816 
L 914.613313 324.392844 
L 923.836817 322.739991 
L 932.205109 321.082096 
L 946.527915 319.658353 
L 955.064052 317.993062 
L 963.232528 316.311298 
L 971.265129 314.621801 
L 986.83079 313.254201 
L 995.1791 129.388693 
L 1003.323598 127.707769 
L 1011.448114 126.024997 
L 1027.169632 124.660254 
L 1035.481975 122.986558 
L 1043.614484 121.302945 
L 1051.731008 119.620508 
L 1068.031992 118.276778 
L 1076.668037 116.619051 
L 1084.988373 114.942161 
L 1093.164841 113.263086 
L 1107.759397 111.848589 
L 1116.107707 110.177078 
L 1124.324139 108.493969 
L 1132.548563 106.815398 
L 1148.058276 105.443764 
L 1156.470527 103.771917 
L 1164.718929 102.093683 
L 1172.855434 100.408557 
L 1188.433085 99.041797 
L 1196.945244 97.373985 
L 1205.137698 95.693061 
L 1213.330151 94.01012 
L 1228.70399 92.632435 
L 1237.132226 90.962437 
L 1245.272727 89.28 
" style="fill:none;stroke:#ff0000;stroke-dasharray:5.55,2.4;stroke-dashoffset:0;stroke-width:1.5;"/>
    <defs>
     <path d="M -3 3 
L 3 3 
L 3 -3 
L -3 -3 
z
" id="m9706496a97" style="stroke:#ff0000;stroke-linejoin:miter;"/>
    </defs>
    <g clip-path="url(#pf3ea68e78a)">
     <use style="fill:#ff0000;stroke:#ff0000;stroke-linejoin:miter;" x="230.727273" xlink:href="#m9706496a97" y="429.265686"/>
     <use style="fill:#ff0000;stroke:#ff0000;stroke-linejoin:miter;" x="258.385795" xlink:href="#m9706496a97" y="428.427241"/>
     <use style="fill:#ff0000;stroke:#ff0000;stroke-linejoin:miter;" x="267.813111" xlink:href="#m9706496a97" y="426.799603"/>
     <use style="fill:#ff0000;stroke:#ff0000;stroke-linejoin:miter;" x="276.253337" xlink:href="#m9706496a97" y="425.1291"/>
     <use style="fill:#ff0000;stroke:#ff0000;stroke-linejoin:miter;" x="284.405827" xlink:href="#m9706496a97" y="423.439772"/>
     <use style="fill:#ff0000;stroke:#ff0000;stroke-linejoin:miter;" x="300.506995" xlink:href="#m9706496a97" y="422.097218"/>
     <use style="fill:#ff0000;stroke:#ff0000;stroke-linejoin:miter;" x="309.007165" xlink:href="#m9706496a97" y="420.43159"/>
     <use style="fill:#ff0000;stroke:#ff0000;stroke-linejoin:miter;" x="317.323505" xlink:href="#m9706496a97" y="418.756045"/>
     <use style="fill:#ff0000;stroke:#ff0000;stroke-linejoin:miter;" x="325.555922" xlink:href="#m9706496a97" y="417.074281"/>
     <use style="fill:#ff0000;stroke:#ff0000;stroke-linejoin:miter;" x="340.797882" xlink:href="#m9706496a97" y="415.692898"/>
     <use style="fill:#ff0000;stroke:#ff0000;stroke-linejoin:miter;" x="349.334018" xlink:href="#m9706496a97" y="414.026094"/>
     <use style="fill:#ff0000;stroke:#ff0000;stroke-linejoin:miter;" x="357.642365" xlink:href="#m9706496a97" y="412.351557"/>
     <use style="fill:#ff0000;stroke:#ff0000;stroke-linejoin:miter;" x="365.786863" xlink:href="#m9706496a97" y="410.668952"/>
     <use style="fill:#ff0000;stroke:#ff0000;stroke-linejoin:miter;" x="381.120738" xlink:href="#m9706496a97" y="409.287905"/>
     <use style="fill:#ff0000;stroke:#ff0000;stroke-linejoin:miter;" x="389.628901" xlink:href="#m9706496a97" y="407.618076"/>
     <use style="fill:#ff0000;stroke:#ff0000;stroke-linejoin:miter;" x="398.117082" xlink:href="#m9706496a97" y="405.952112"/>
     <use style="fill:#ff0000;stroke:#ff0000;stroke-linejoin:miter;" x="406.445411" xlink:href="#m9706496a97" y="404.278248"/>
     <use style="fill:#ff0000;stroke:#ff0000;stroke-linejoin:miter;" x="421.531514" xlink:href="#m9706496a97" y="402.887451"/>
     <use style="fill:#ff0000;stroke:#ff0000;stroke-linejoin:miter;" x="429.971739" xlink:href="#m9706496a97" y="401.217622"/>
     <use style="fill:#ff0000;stroke:#ff0000;stroke-linejoin:miter;" x="438.172185" xlink:href="#m9706496a97" y="399.53737"/>
     <use style="fill:#ff0000;stroke:#ff0000;stroke-linejoin:miter;" x="446.372632" xlink:href="#m9706496a97" y="397.855774"/>
     <use style="fill:#ff0000;stroke:#ff0000;stroke-linejoin:miter;" x="462.529749" xlink:href="#m9706496a97" y="396.509186"/>
     <use style="fill:#ff0000;stroke:#ff0000;stroke-linejoin:miter;" x="471.101852" xlink:href="#m9706496a97" y="394.846584"/>
     <use style="fill:#ff0000;stroke:#ff0000;stroke-linejoin:miter;" x="479.382225" xlink:href="#m9706496a97" y="393.169694"/>
     <use style="fill:#ff0000;stroke:#ff0000;stroke-linejoin:miter;" x="487.63862" xlink:href="#m9706496a97" y="391.492468"/>
     <use style="fill:#ff0000;stroke:#ff0000;stroke-linejoin:miter;" x="502.221187" xlink:href="#m9706496a97" y="390.079484"/>
     <use style="fill:#ff0000;stroke:#ff0000;stroke-linejoin:miter;" x="510.733346" xlink:href="#m9706496a97" y="388.413184"/>
     <use style="fill:#ff0000;stroke:#ff0000;stroke-linejoin:miter;" x="518.95777" xlink:href="#m9706496a97" y="386.733941"/>
     <use style="fill:#ff0000;stroke:#ff0000;stroke-linejoin:miter;" x="527.050316" xlink:href="#m9706496a97" y="385.049319"/>
     <use style="fill:#ff0000;stroke:#ff0000;stroke-linejoin:miter;" x="542.416161" xlink:href="#m9706496a97" y="383.670457"/>
     <use style="fill:#ff0000;stroke:#ff0000;stroke-linejoin:miter;" x="550.848394" xlink:href="#m9706496a97" y="381.998946"/>
     <use style="fill:#ff0000;stroke:#ff0000;stroke-linejoin:miter;" x="559.052837" xlink:href="#m9706496a97" y="380.319703"/>
     <use style="fill:#ff0000;stroke:#ff0000;stroke-linejoin:miter;" x="567.161367" xlink:href="#m9706496a97" y="378.635586"/>
     <use style="fill:#ff0000;stroke:#ff0000;stroke-linejoin:miter;" x="582.659092" xlink:href="#m9706496a97" y="377.262607"/>
     <use style="fill:#ff0000;stroke:#ff0000;stroke-linejoin:miter;" x="591.071343" xlink:href="#m9706496a97" y="375.591264"/>
     <use style="fill:#ff0000;stroke:#ff0000;stroke-linejoin:miter;" x="599.187866" xlink:href="#m9706496a97" y="373.906138"/>
     <use style="fill:#ff0000;stroke:#ff0000;stroke-linejoin:miter;" x="607.388313" xlink:href="#m9706496a97" y="372.226895"/>
     <use style="fill:#ff0000;stroke:#ff0000;stroke-linejoin:miter;" x="622.96996" xlink:href="#m9706496a97" y="370.856942"/>
     <use style="fill:#ff0000;stroke:#ff0000;stroke-linejoin:miter;" x="631.282303" xlink:href="#m9706496a97" y="369.181901"/>
     <use style="fill:#ff0000;stroke:#ff0000;stroke-linejoin:miter;" x="639.518716" xlink:href="#m9706496a97" y="367.502827"/>
     <use style="fill:#ff0000;stroke:#ff0000;stroke-linejoin:miter;" x="647.651224" xlink:href="#m9706496a97" y="365.818709"/>
     <use style="fill:#ff0000;stroke:#ff0000;stroke-linejoin:miter;" x="664.31987" xlink:href="#m9706496a97" y="364.495149"/>
     <use style="fill:#ff0000;stroke:#ff0000;stroke-linejoin:miter;" x="673.543374" xlink:href="#m9706496a97" y="362.857089"/>
     <use style="fill:#ff0000;stroke:#ff0000;stroke-linejoin:miter;" x="682.267338" xlink:href="#m9706496a97" y="361.200202"/>
     <use style="fill:#ff0000;stroke:#ff0000;stroke-linejoin:miter;" x="690.715556" xlink:href="#m9706496a97" y="359.5297"/>
     <use style="fill:#ff0000;stroke:#ff0000;stroke-linejoin:miter;" x="704.007312" xlink:href="#m9706496a97" y="358.063094"/>
     <use style="fill:#ff0000;stroke:#ff0000;stroke-linejoin:miter;" x="712.467519" xlink:href="#m9706496a97" y="356.393264"/>
     <use style="fill:#ff0000;stroke:#ff0000;stroke-linejoin:miter;" x="721.071594" xlink:href="#m9706496a97" y="354.731335"/>
     <use style="fill:#ff0000;stroke:#ff0000;stroke-linejoin:miter;" x="729.483845" xlink:href="#m9706496a97" y="353.059488"/>
     <use style="fill:#ff0000;stroke:#ff0000;stroke-linejoin:miter;" x="744.406099" xlink:href="#m9706496a97" y="351.66264"/>
     <use style="fill:#ff0000;stroke:#ff0000;stroke-linejoin:miter;" x="753.182015" xlink:href="#m9706496a97" y="350.004409"/>
     <use style="fill:#ff0000;stroke:#ff0000;stroke-linejoin:miter;" x="761.682185" xlink:href="#m9706496a97" y="348.337941"/>
     <use style="fill:#ff0000;stroke:#ff0000;stroke-linejoin:miter;" x="769.946573" xlink:href="#m9706496a97" y="346.661219"/>
     <use style="fill:#ff0000;stroke:#ff0000;stroke-linejoin:miter;" x="784.932768" xlink:href="#m9706496a97" y="345.265548"/>
     <use style="fill:#ff0000;stroke:#ff0000;stroke-linejoin:miter;" x="793.404964" xlink:href="#m9706496a97" y="343.597735"/>
     <use style="fill:#ff0000;stroke:#ff0000;stroke-linejoin:miter;" x="801.737289" xlink:href="#m9706496a97" y="341.921182"/>
     <use style="fill:#ff0000;stroke:#ff0000;stroke-linejoin:miter;" x="810.021657" xlink:href="#m9706496a97" y="340.245637"/>
     <use style="fill:#ff0000;stroke:#ff0000;stroke-linejoin:miter;" x="825.447448" xlink:href="#m9706496a97" y="338.869296"/>
     <use style="fill:#ff0000;stroke:#ff0000;stroke-linejoin:miter;" x="833.831725" xlink:href="#m9706496a97" y="337.196441"/>
     <use style="fill:#ff0000;stroke:#ff0000;stroke-linejoin:miter;" x="842.263958" xlink:href="#m9706496a97" y="335.525771"/>
     <use style="fill:#ff0000;stroke:#ff0000;stroke-linejoin:miter;" x="850.540334" xlink:href="#m9706496a97" y="333.848041"/>
     <use style="fill:#ff0000;stroke:#ff0000;stroke-linejoin:miter;" x="865.834246" xlink:href="#m9706496a97" y="332.465144"/>
     <use style="fill:#ff0000;stroke:#ff0000;stroke-linejoin:miter;" x="874.474287" xlink:href="#m9706496a97" y="330.80456"/>
     <use style="fill:#ff0000;stroke:#ff0000;stroke-linejoin:miter;" x="882.714696" xlink:href="#m9706496a97" y="329.125317"/>
     <use style="fill:#ff0000;stroke:#ff0000;stroke-linejoin:miter;" x="890.959102" xlink:href="#m9706496a97" y="327.448763"/>
     <use style="fill:#ff0000;stroke:#ff0000;stroke-linejoin:miter;" x="906.193069" xlink:href="#m9706496a97" y="326.059816"/>
     <use style="fill:#ff0000;stroke:#ff0000;stroke-linejoin:miter;" x="914.613313" xlink:href="#m9706496a97" y="324.392844"/>
     <use style="fill:#ff0000;stroke:#ff0000;stroke-linejoin:miter;" x="923.836817" xlink:href="#m9706496a97" y="322.739991"/>
     <use style="fill:#ff0000;stroke:#ff0000;stroke-linejoin:miter;" x="932.205109" xlink:href="#m9706496a97" y="321.082096"/>
     <use style="fill:#ff0000;stroke:#ff0000;stroke-linejoin:miter;" x="946.527915" xlink:href="#m9706496a97" y="319.658353"/>
     <use style="fill:#ff0000;stroke:#ff0000;stroke-linejoin:miter;" x="955.064052" xlink:href="#m9706496a97" y="317.993062"/>
     <use style="fill:#ff0000;stroke:#ff0000;stroke-linejoin:miter;" x="963.232528" xlink:href="#m9706496a97" y="316.311298"/>
     <use style="fill:#ff0000;stroke:#ff0000;stroke-linejoin:miter;" x="971.265129" xlink:href="#m9706496a97" y="314.621801"/>
     <use style="fill:#ff0000;stroke:#ff0000;stroke-linejoin:miter;" x="986.83079" xlink:href="#m9706496a97" y="313.254201"/>
     <use style="fill:#ff0000;stroke:#ff0000;stroke-linejoin:miter;" x="995.1791" xlink:href="#m9706496a97" y="129.388693"/>
     <use style="fill:#ff0000;stroke:#ff0000;stroke-linejoin:miter;" x="1003.323598" xlink:href="#m9706496a97" y="127.707769"/>
     <use style="fill:#ff0000;stroke:#ff0000;stroke-linejoin:miter;" x="1011.448114" xlink:href="#m9706496a97" y="126.024997"/>
     <use style="fill:#ff0000;stroke:#ff0000;stroke-linejoin:miter;" x="1027.169632" xlink:href="#m9706496a97" y="124.660254"/>
     <use style="fill:#ff0000;stroke:#ff0000;stroke-linejoin:miter;" x="1035.481975" xlink:href="#m9706496a97" y="122.986558"/>
     <use style="fill:#ff0000;stroke:#ff0000;stroke-linejoin:miter;" x="1043.614484" xlink:href="#m9706496a97" y="121.302945"/>
     <use style="fill:#ff0000;stroke:#ff0000;stroke-linejoin:miter;" x="1051.731008" xlink:href="#m9706496a97" y="119.620508"/>
     <use style="fill:#ff0000;stroke:#ff0000;stroke-linejoin:miter;" x="1068.031992" xlink:href="#m9706496a97" y="118.276778"/>
     <use style="fill:#ff0000;stroke:#ff0000;stroke-linejoin:miter;" x="1076.668037" xlink:href="#m9706496a97" y="116.619051"/>
     <use style="fill:#ff0000;stroke:#ff0000;stroke-linejoin:miter;" x="1084.988373" xlink:href="#m9706496a97" y="114.942161"/>
     <use style="fill:#ff0000;stroke:#ff0000;stroke-linejoin:miter;" x="1093.164841" xlink:href="#m9706496a97" y="113.263086"/>
     <use style="fill:#ff0000;stroke:#ff0000;stroke-linejoin:miter;" x="1107.759397" xlink:href="#m9706496a97" y="111.848589"/>
     <use style="fill:#ff0000;stroke:#ff0000;stroke-linejoin:miter;" x="1116.107707" xlink:href="#m9706496a97" y="110.177078"/>
     <use style="fill:#ff0000;stroke:#ff0000;stroke-linejoin:miter;" x="1124.324139" xlink:href="#m9706496a97" y="108.493969"/>
     <use style="fill:#ff0000;stroke:#ff0000;stroke-linejoin:miter;" x="1132.548563" xlink:href="#m9706496a97" y="106.815398"/>
     <use style="fill:#ff0000;stroke:#ff0000;stroke-linejoin:miter;" x="1148.058276" xlink:href="#m9706496a97" y="105.443764"/>
     <use style="fill:#ff0000;stroke:#ff0000;stroke-linejoin:miter;" x="1156.470527" xlink:href="#m9706496a97" y="103.771917"/>
     <use style="fill:#ff0000;stroke:#ff0000;stroke-linejoin:miter;" x="1164.718929" xlink:href="#m9706496a97" y="102.093683"/>
     <use style="fill:#ff0000;stroke:#ff0000;stroke-linejoin:miter;" x="1172.855434" xlink:href="#m9706496a97" y="100.408557"/>
     <use style="fill:#ff0000;stroke:#ff0000;stroke-linejoin:miter;" x="1188.433085" xlink:href="#m9706496a97" y="99.041797"/>
     <use style="fill:#ff0000;stroke:#ff0000;stroke-linejoin:miter;" x="1196.945244" xlink:href="#m9706496a97" y="97.373985"/>
     <use style="fill:#ff0000;stroke:#ff0000;stroke-linejoin:miter;" x="1205.137698" xlink:href="#m9706496a97" y="95.693061"/>
     <use style="fill:#ff0000;stroke:#ff0000;stroke-linejoin:miter;" x="1213.330151" xlink:href="#m9706496a97" y="94.01012"/>
     <use style="fill:#ff0000;stroke:#ff0000;stroke-linejoin:miter;" x="1228.70399" xlink:href="#m9706496a97" y="92.632435"/>
     <use style="fill:#ff0000;stroke:#ff0000;stroke-linejoin:miter;" x="1237.132226" xlink:href="#m9706496a97" y="90.962437"/>
     <use style="fill:#ff0000;stroke:#ff0000;stroke-linejoin:miter;" x="1245.272727" xlink:href="#m9706496a97" y="89.28"/>
    </g>
   </g>
   <g id="line2d_14">
    <path clip-path="url(#pf3ea68e78a)" d="M 230.727273 429.265686 
L 258.385795 428.427241 
L 267.813111 426.799603 
L 276.253337 425.1291 
L 284.405827 423.439772 
L 300.506995 422.097218 
L 309.007165 420.43159 
L 317.323505 418.756045 
L 325.555922 417.074281 
L 340.797882 415.692898 
L 349.334018 414.026094 
L 357.642365 412.351557 
L 365.786863 410.668952 
L 381.120738 409.287905 
L 389.628901 407.618076 
L 398.117082 405.952112 
L 406.445411 404.278248 
L 421.531514 402.887451 
L 429.971739 401.217622 
L 438.172185 399.53737 
L 446.372632 397.855774 
L 462.529749 396.509186 
L 471.101852 394.846584 
L 479.382225 393.169694 
L 487.63862 391.492468 
L 502.221187 390.079484 
L 510.733346 388.413184 
L 518.95777 386.733941 
L 527.050316 385.049319 
L 542.416161 383.670457 
L 550.848394 381.998946 
L 559.052837 380.319703 
L 567.161367 378.635586 
L 582.659092 377.262607 
L 591.071343 375.591264 
L 599.187866 373.906138 
L 607.388313 372.226895 
L 622.96996 370.856942 
L 631.282303 369.181901 
L 639.518716 367.502827 
L 647.651224 365.818709 
L 664.31987 364.495149 
L 673.543374 362.857089 
L 682.267338 361.200202 
L 690.715556 359.5297 
L 704.007312 358.063094 
L 712.467519 356.393264 
L 721.071594 354.731335 
L 729.483845 353.059488 
L 744.406099 351.66264 
L 753.182015 350.004409 
L 761.682185 348.337941 
L 769.946573 346.661219 
L 784.932768 345.265548 
L 793.404964 343.597735 
L 801.737289 341.921182 
L 810.021657 340.245637 
L 825.447448 338.869296 
L 833.831725 337.196441 
L 842.263958 335.525771 
L 850.540334 333.848041 
L 865.834246 332.465144 
L 874.474287 330.80456 
L 882.714696 329.125317 
L 890.959102 327.448763 
L 906.193069 326.059816 
L 914.613313 324.392844 
L 923.836817 322.739991 
L 932.205109 321.082096 
L 946.527915 319.658353 
L 955.064052 317.993062 
L 963.232528 316.311298 
L 971.265129 314.621801 
L 986.83079 313.254201 
L 995.1791 129.388693 
L 1003.323598 127.707769 
L 1011.448114 126.024997 
L 1027.169632 124.660254 
L 1035.481975 122.986558 
L 1043.614484 121.302945 
L 1051.731008 119.620508 
L 1068.031992 118.276778 
L 1076.668037 116.619051 
L 1084.988373 114.942161 
L 1093.164841 113.263086 
L 1107.759397 111.848589 
L 1116.107707 110.177078 
L 1124.324139 108.493969 
L 1132.548563 106.815398 
L 1148.058276 105.443764 
L 1156.470527 103.771917 
L 1164.718929 102.093683 
L 1172.855434 100.408557 
L 1188.433085 99.041797 
L 1196.945244 97.373985 
L 1205.137698 95.693061 
L 1213.330151 94.01012 
L 1228.70399 92.632435 
L 1237.132226 90.962437 
L 1245.272727 89.28 
" style="fill:none;stroke:#800080;stroke-dasharray:9.6,2.4,1.5,2.4;stroke-dashoffset:0;stroke-width:1.5;"/>
    <defs>
     <path d="M -3 3 
L 3 -3 
M -3 -3 
L 3 3 
" id="m941ae960e0" style="stroke:#800080;"/>
    </defs>
    <g clip-path="url(#pf3ea68e78a)">
     <use style="fill:#800080;stroke:#800080;" x="230.727273" xlink:href="#m941ae960e0" y="429.265686"/>
     <use style="fill:#800080;stroke:#800080;" x="258.385795" xlink:href="#m941ae960e0" y="428.427241"/>
     <use style="fill:#800080;stroke:#800080;" x="267.813111" xlink:href="#m941ae960e0" y="426.799603"/>
     <use style="fill:#800080;stroke:#800080;" x="276.253337" xlink:href="#m941ae960e0" y="425.1291"/>
     <use style="fill:#800080;stroke:#800080;" x="284.405827" xlink:href="#m941ae960e0" y="423.439772"/>
     <use style="fill:#800080;stroke:#800080;" x="300.506995" xlink:href="#m941ae960e0" y="422.097218"/>
     <use style="fill:#800080;stroke:#800080;" x="309.007165" xlink:href="#m941ae960e0" y="420.43159"/>
     <use style="fill:#800080;stroke:#800080;" x="317.323505" xlink:href="#m941ae960e0" y="418.756045"/>
     <use style="fill:#800080;stroke:#800080;" x="325.555922" xlink:href="#m941ae960e0" y="417.074281"/>
     <use style="fill:#800080;stroke:#800080;" x="340.797882" xlink:href="#m941ae960e0" y="415.692898"/>
     <use style="fill:#800080;stroke:#800080;" x="349.334018" xlink:href="#m941ae960e0" y="414.026094"/>
     <use style="fill:#800080;stroke:#800080;" x="357.642365" xlink:href="#m941ae960e0" y="412.351557"/>
     <use style="fill:#800080;stroke:#800080;" x="365.786863" xlink:href="#m941ae960e0" y="410.668952"/>
     <use style="fill:#800080;stroke:#800080;" x="381.120738" xlink:href="#m941ae960e0" y="409.287905"/>
     <use style="fill:#800080;stroke:#800080;" x="389.628901" xlink:href="#m941ae960e0" y="407.618076"/>
     <use style="fill:#800080;stroke:#800080;" x="398.117082" xlink:href="#m941ae960e0" y="405.952112"/>
     <use style="fill:#800080;stroke:#800080;" x="406.445411" xlink:href="#m941ae960e0" y="404.278248"/>
     <use style="fill:#800080;stroke:#800080;" x="421.531514" xlink:href="#m941ae960e0" y="402.887451"/>
     <use style="fill:#800080;stroke:#800080;" x="429.971739" xlink:href="#m941ae960e0" y="401.217622"/>
     <use style="fill:#800080;stroke:#800080;" x="438.172185" xlink:href="#m941ae960e0" y="399.53737"/>
     <use style="fill:#800080;stroke:#800080;" x="446.372632" xlink:href="#m941ae960e0" y="397.855774"/>
     <use style="fill:#800080;stroke:#800080;" x="462.529749" xlink:href="#m941ae960e0" y="396.509186"/>
     <use style="fill:#800080;stroke:#800080;" x="471.101852" xlink:href="#m941ae960e0" y="394.846584"/>
     <use style="fill:#800080;stroke:#800080;" x="479.382225" xlink:href="#m941ae960e0" y="393.169694"/>
     <use style="fill:#800080;stroke:#800080;" x="487.63862" xlink:href="#m941ae960e0" y="391.492468"/>
     <use style="fill:#800080;stroke:#800080;" x="502.221187" xlink:href="#m941ae960e0" y="390.079484"/>
     <use style="fill:#800080;stroke:#800080;" x="510.733346" xlink:href="#m941ae960e0" y="388.413184"/>
     <use style="fill:#800080;stroke:#800080;" x="518.95777" xlink:href="#m941ae960e0" y="386.733941"/>
     <use style="fill:#800080;stroke:#800080;" x="527.050316" xlink:href="#m941ae960e0" y="385.049319"/>
     <use style="fill:#800080;stroke:#800080;" x="542.416161" xlink:href="#m941ae960e0" y="383.670457"/>
     <use style="fill:#800080;stroke:#800080;" x="550.848394" xlink:href="#m941ae960e0" y="381.998946"/>
     <use style="fill:#800080;stroke:#800080;" x="559.052837" xlink:href="#m941ae960e0" y="380.319703"/>
     <use style="fill:#800080;stroke:#800080;" x="567.161367" xlink:href="#m941ae960e0" y="378.635586"/>
     <use style="fill:#800080;stroke:#800080;" x="582.659092" xlink:href="#m941ae960e0" y="377.262607"/>
     <use style="fill:#800080;stroke:#800080;" x="591.071343" xlink:href="#m941ae960e0" y="375.591264"/>
     <use style="fill:#800080;stroke:#800080;" x="599.187866" xlink:href="#m941ae960e0" y="373.906138"/>
     <use style="fill:#800080;stroke:#800080;" x="607.388313" xlink:href="#m941ae960e0" y="372.226895"/>
     <use style="fill:#800080;stroke:#800080;" x="622.96996" xlink:href="#m941ae960e0" y="370.856942"/>
     <use style="fill:#800080;stroke:#800080;" x="631.282303" xlink:href="#m941ae960e0" y="369.181901"/>
     <use style="fill:#800080;stroke:#800080;" x="639.518716" xlink:href="#m941ae960e0" y="367.502827"/>
     <use style="fill:#800080;stroke:#800080;" x="647.651224" xlink:href="#m941ae960e0" y="365.818709"/>
     <use style="fill:#800080;stroke:#800080;" x="664.31987" xlink:href="#m941ae960e0" y="364.495149"/>
     <use style="fill:#800080;stroke:#800080;" x="673.543374" xlink:href="#m941ae960e0" y="362.857089"/>
     <use style="fill:#800080;stroke:#800080;" x="682.267338" xlink:href="#m941ae960e0" y="361.200202"/>
     <use style="fill:#800080;stroke:#800080;" x="690.715556" xlink:href="#m941ae960e0" y="359.5297"/>
     <use style="fill:#800080;stroke:#800080;" x="704.007312" xlink:href="#m941ae960e0" y="358.063094"/>
     <use style="fill:#800080;stroke:#800080;" x="712.467519" xlink:href="#m941ae960e0" y="356.393264"/>
     <use style="fill:#800080;stroke:#800080;" x="721.071594" xlink:href="#m941ae960e0" y="354.731335"/>
     <use style="fill:#800080;stroke:#800080;" x="729.483845" xlink:href="#m941ae960e0" y="353.059488"/>
     <use style="fill:#800080;stroke:#800080;" x="744.406099" xlink:href="#m941ae960e0" y="351.66264"/>
     <use style="fill:#800080;stroke:#800080;" x="753.182015" xlink:href="#m941ae960e0" y="350.004409"/>
     <use style="fill:#800080;stroke:#800080;" x="761.682185" xlink:href="#m941ae960e0" y="348.337941"/>
     <use style="fill:#800080;stroke:#800080;" x="769.946573" xlink:href="#m941ae960e0" y="346.661219"/>
     <use style="fill:#800080;stroke:#800080;" x="784.932768" xlink:href="#m941ae960e0" y="345.265548"/>
     <use style="fill:#800080;stroke:#800080;" x="793.404964" xlink:href="#m941ae960e0" y="343.597735"/>
     <use style="fill:#800080;stroke:#800080;" x="801.737289" xlink:href="#m941ae960e0" y="341.921182"/>
     <use style="fill:#800080;stroke:#800080;" x="810.021657" xlink:href="#m941ae960e0" y="340.245637"/>
     <use style="fill:#800080;stroke:#800080;" x="825.447448" xlink:href="#m941ae960e0" y="338.869296"/>
     <use style="fill:#800080;stroke:#800080;" x="833.831725" xlink:href="#m941ae960e0" y="337.196441"/>
     <use style="fill:#800080;stroke:#800080;" x="842.263958" xlink:href="#m941ae960e0" y="335.525771"/>
     <use style="fill:#800080;stroke:#800080;" x="850.540334" xlink:href="#m941ae960e0" y="333.848041"/>
     <use style="fill:#800080;stroke:#800080;" x="865.834246" xlink:href="#m941ae960e0" y="332.465144"/>
     <use style="fill:#800080;stroke:#800080;" x="874.474287" xlink:href="#m941ae960e0" y="330.80456"/>
     <use style="fill:#800080;stroke:#800080;" x="882.714696" xlink:href="#m941ae960e0" y="329.125317"/>
     <use style="fill:#800080;stroke:#800080;" x="890.959102" xlink:href="#m941ae960e0" y="327.448763"/>
     <use style="fill:#800080;stroke:#800080;" x="906.193069" xlink:href="#m941ae960e0" y="326.059816"/>
     <use style="fill:#800080;stroke:#800080;" x="914.613313" xlink:href="#m941ae960e0" y="324.392844"/>
     <use style="fill:#800080;stroke:#800080;" x="923.836817" xlink:href="#m941ae960e0" y="322.739991"/>
     <use style="fill:#800080;stroke:#800080;" x="932.205109" xlink:href="#m941ae960e0" y="321.082096"/>
     <use style="fill:#800080;stroke:#800080;" x="946.527915" xlink:href="#m941ae960e0" y="319.658353"/>
     <use style="fill:#800080;stroke:#800080;" x="955.064052" xlink:href="#m941ae960e0" y="317.993062"/>
     <use style="fill:#800080;stroke:#800080;" x="963.232528" xlink:href="#m941ae960e0" y="316.311298"/>
     <use style="fill:#800080;stroke:#800080;" x="971.265129" xlink:href="#m941ae960e0" y="314.621801"/>
     <use style="fill:#800080;stroke:#800080;" x="986.83079" xlink:href="#m941ae960e0" y="313.254201"/>
     <use style="fill:#800080;stroke:#800080;" x="995.1791" xlink:href="#m941ae960e0" y="129.388693"/>
     <use style="fill:#800080;stroke:#800080;" x="1003.323598" xlink:href="#m941ae960e0" y="127.707769"/>
     <use style="fill:#800080;stroke:#800080;" x="1011.448114" xlink:href="#m941ae960e0" y="126.024997"/>
     <use style="fill:#800080;stroke:#800080;" x="1027.169632" xlink:href="#m941ae960e0" y="124.660254"/>
     <use style="fill:#800080;stroke:#800080;" x="1035.481975" xlink:href="#m941ae960e0" y="122.986558"/>
     <use style="fill:#800080;stroke:#800080;" x="1043.614484" xlink:href="#m941ae960e0" y="121.302945"/>
     <use style="fill:#800080;stroke:#800080;" x="1051.731008" xlink:href="#m941ae960e0" y="119.620508"/>
     <use style="fill:#800080;stroke:#800080;" x="1068.031992" xlink:href="#m941ae960e0" y="118.276778"/>
     <use style="fill:#800080;stroke:#800080;" x="1076.668037" xlink:href="#m941ae960e0" y="116.619051"/>
     <use style="fill:#800080;stroke:#800080;" x="1084.988373" xlink:href="#m941ae960e0" y="114.942161"/>
     <use style="fill:#800080;stroke:#800080;" x="1093.164841" xlink:href="#m941ae960e0" y="113.263086"/>
     <use style="fill:#800080;stroke:#800080;" x="1107.759397" xlink:href="#m941ae960e0" y="111.848589"/>
     <use style="fill:#800080;stroke:#800080;" x="1116.107707" xlink:href="#m941ae960e0" y="110.177078"/>
     <use style="fill:#800080;stroke:#800080;" x="1124.324139" xlink:href="#m941ae960e0" y="108.493969"/>
     <use style="fill:#800080;stroke:#800080;" x="1132.548563" xlink:href="#m941ae960e0" y="106.815398"/>
     <use style="fill:#800080;stroke:#800080;" x="1148.058276" xlink:href="#m941ae960e0" y="105.443764"/>
     <use style="fill:#800080;stroke:#800080;" x="1156.470527" xlink:href="#m941ae960e0" y="103.771917"/>
     <use style="fill:#800080;stroke:#800080;" x="1164.718929" xlink:href="#m941ae960e0" y="102.093683"/>
     <use style="fill:#800080;stroke:#800080;" x="1172.855434" xlink:href="#m941ae960e0" y="100.408557"/>
     <use style="fill:#800080;stroke:#800080;" x="1188.433085" xlink:href="#m941ae960e0" y="99.041797"/>
     <use style="fill:#800080;stroke:#800080;" x="1196.945244" xlink:href="#m941ae960e0" y="97.373985"/>
     <use style="fill:#800080;stroke:#800080;" x="1205.137698" xlink:href="#m941ae960e0" y="95.693061"/>
     <use style="fill:#800080;stroke:#800080;" x="1213.330151" xlink:href="#m941ae960e0" y="94.01012"/>
     <use style="fill:#800080;stroke:#800080;" x="1228.70399" xlink:href="#m941ae960e0" y="92.632435"/>
     <use style="fill:#800080;stroke:#800080;" x="1237.132226" xlink:href="#m941ae960e0" y="90.962437"/>
     <use style="fill:#800080;stroke:#800080;" x="1245.272727" xlink:href="#m941ae960e0" y="89.28"/>
    </g>
   </g>
   <g id="line2d_15">
    <path clip-path="url(#pf3ea68e78a)" d="M 230.727273 492.48 
L 258.385795 482.346946 
L 267.813111 478.893128 
L 276.253337 475.800943 
L 284.405827 472.814173 
L 300.506995 466.915304 
L 309.007165 463.801158 
L 317.323505 460.75436 
L 325.555922 457.738309 
L 340.797882 452.154221 
L 349.334018 449.026898 
L 357.642365 445.983029 
L 365.786863 442.999188 
L 381.120738 437.381426 
L 389.628901 434.264351 
L 398.117082 431.154597 
L 406.445411 428.103407 
L 421.531514 422.57642 
L 429.971739 419.484235 
L 438.172185 416.479897 
L 446.372632 413.475558 
L 462.529749 407.556191 
L 471.101852 404.415691 
L 479.382225 401.38207 
L 487.63862 398.357234 
L 502.221187 393.014724 
L 510.733346 389.896185 
L 518.95777 386.883062 
L 527.050316 383.918254 
L 542.416161 378.288779 
L 550.848394 375.199523 
L 559.052837 372.19372 
L 567.161367 369.223056 
L 582.659092 363.545266 
L 591.071343 360.46333 
L 599.187866 357.489737 
L 607.388313 354.485399 
L 622.96996 348.776863 
L 631.282303 345.731529 
L 639.518716 342.714014 
L 647.651224 339.734565 
L 664.31987 333.627793 
L 673.543374 330.248644 
L 682.267338 327.052508 
L 690.715556 323.957395 
L 704.007312 319.08779 
L 712.467519 315.988284 
L 721.071594 312.836071 
L 729.483845 309.754135 
L 744.406099 304.287176 
L 753.182015 301.072007 
L 761.682185 297.95786 
L 769.946573 294.930096 
L 784.932768 289.439711 
L 793.404964 286.335814 
L 801.737289 283.28316 
L 810.021657 280.248075 
L 825.447448 274.596639 
L 833.831725 271.524952 
L 842.263958 268.435695 
L 850.540334 265.403538 
L 865.834246 259.800418 
L 874.474287 256.635028 
L 882.714696 253.616048 
L 890.959102 250.595604 
L 906.193069 245.014445 
L 914.613313 241.929581 
L 923.836817 238.550432 
L 932.205109 235.484601 
L 946.527915 230.237257 
L 955.064052 227.109934 
L 963.232528 224.117308 
L 971.265129 221.174462 
L 986.83079 215.471782 
L 995.1791 212.413272 
L 1003.323598 209.429431 
L 1011.448114 206.45291 
L 1027.169632 200.69313 
L 1035.481975 197.647797 
L 1043.614484 194.668348 
L 1051.731008 191.694756 
L 1068.031992 185.722681 
L 1076.668037 182.558755 
L 1084.988373 179.510494 
L 1093.164841 176.51494 
L 1107.759397 171.168037 
L 1116.107707 168.109526 
L 1124.324139 165.099331 
L 1132.548563 162.086208 
L 1148.058276 156.404026 
L 1156.470527 153.32209 
L 1164.718929 150.300182 
L 1172.855434 147.319269 
L 1188.433085 141.612197 
L 1196.945244 138.493658 
L 1205.137698 135.492248 
L 1213.330151 132.490838 
L 1228.70399 126.858435 
L 1237.132226 123.770642 
L 1245.272727 120.788265 
" style="fill:none;stroke:#0000ff;stroke-linecap:square;stroke-width:1.5;"/>
   </g>
   <g id="line2d_16">
    <path clip-path="url(#pf3ea68e78a)" d="M 230.727273 490.101995 
L 258.385795 490.076289 
L 267.813111 490.067527 
L 276.253337 490.059682 
L 284.405827 490.052105 
L 300.506995 490.03714 
L 309.007165 490.02924 
L 317.323505 490.021511 
L 325.555922 490.013859 
L 340.797882 489.999693 
L 349.334018 489.99176 
L 357.642365 489.984038 
L 365.786863 489.976468 
L 381.120738 489.962216 
L 389.628901 489.954309 
L 398.117082 489.94642 
L 406.445411 489.938679 
L 421.531514 489.924658 
L 429.971739 489.916813 
L 438.172185 489.909192 
L 446.372632 489.90157 
L 462.529749 489.886553 
L 471.101852 489.878586 
L 479.382225 489.87089 
L 487.63862 489.863217 
L 502.221187 489.849663 
L 510.733346 489.841752 
L 518.95777 489.834108 
L 527.050316 489.826587 
L 542.416161 489.812305 
L 550.848394 489.804468 
L 559.052837 489.796843 
L 567.161367 489.789307 
L 582.659092 489.774903 
L 591.071343 489.767084 
L 599.187866 489.759541 
L 607.388313 489.751919 
L 622.96996 489.737437 
L 631.282303 489.729711 
L 639.518716 489.722056 
L 647.651224 489.714498 
L 664.31987 489.699006 
L 673.543374 489.690433 
L 682.267338 489.682325 
L 690.715556 489.674473 
L 704.007312 489.662119 
L 712.467519 489.654256 
L 721.071594 489.646259 
L 729.483845 489.638441 
L 744.406099 489.624572 
L 753.182015 489.616415 
L 761.682185 489.608515 
L 769.946573 489.600834 
L 784.932768 489.586906 
L 793.404964 489.579031 
L 801.737289 489.571287 
L 810.021657 489.563587 
L 825.447448 489.54925 
L 833.831725 489.541458 
L 842.263958 489.533621 
L 850.540334 489.525929 
L 865.834246 489.511714 
L 874.474287 489.503684 
L 882.714696 489.496025 
L 890.959102 489.488363 
L 906.193069 489.474204 
L 914.613313 489.466378 
L 923.836817 489.457805 
L 932.205109 489.450028 
L 946.527915 489.436716 
L 955.064052 489.428782 
L 963.232528 489.42119 
L 971.265129 489.413725 
L 986.83079 489.399258 
L 995.1791 489.391499 
L 1003.323598 489.383929 
L 1011.448114 489.376378 
L 1027.169632 489.361766 
L 1035.481975 489.35404 
L 1043.614484 489.346482 
L 1051.731008 489.338938 
L 1068.031992 489.323788 
L 1076.668037 489.315761 
L 1084.988373 489.308028 
L 1093.164841 489.300429 
L 1107.759397 489.286864 
L 1116.107707 489.279105 
L 1124.324139 489.271469 
L 1132.548563 489.263825 
L 1148.058276 489.24941 
L 1156.470527 489.241591 
L 1164.718929 489.233925 
L 1172.855434 489.226363 
L 1188.433085 489.211884 
L 1196.945244 489.203973 
L 1205.137698 489.196359 
L 1213.330151 489.188745 
L 1228.70399 489.174456 
L 1237.132226 489.166623 
L 1245.272727 489.159057 
" style="fill:none;stroke:#008000;stroke-linecap:square;stroke-width:1.5;"/>
    <defs>
     <path d="M 0 3 
C 0.795609 3 1.55874 2.683901 2.12132 2.12132 
C 2.683901 1.55874 3 0.795609 3 0 
C 3 -0.795609 2.683901 -1.55874 2.12132 -2.12132 
C 1.55874 -2.683901 0.795609 -3 0 -3 
C -0.795609 -3 -1.55874 -2.683901 -2.12132 -2.12132 
C -2.683901 -1.55874 -3 -0.795609 -3 0 
C -3 0.795609 -2.683901 1.55874 -2.12132 2.12132 
C -1.55874 2.683901 -0.795609 3 0 3 
z
" id="mfe70694d75" style="stroke:#008000;"/>
    </defs>
    <g clip-path="url(#pf3ea68e78a)">
     <use style="fill:#008000;stroke:#008000;" x="230.727273" xlink:href="#mfe70694d75" y="490.101995"/>
     <use style="fill:#008000;stroke:#008000;" x="258.385795" xlink:href="#mfe70694d75" y="490.076289"/>
     <use style="fill:#008000;stroke:#008000;" x="267.813111" xlink:href="#mfe70694d75" y="490.067527"/>
     <use style="fill:#008000;stroke:#008000;" x="276.253337" xlink:href="#mfe70694d75" y="490.059682"/>
     <use style="fill:#008000;stroke:#008000;" x="284.405827" xlink:href="#mfe70694d75" y="490.052105"/>
     <use style="fill:#008000;stroke:#008000;" x="300.506995" xlink:href="#mfe70694d75" y="490.03714"/>
     <use style="fill:#008000;stroke:#008000;" x="309.007165" xlink:href="#mfe70694d75" y="490.02924"/>
     <use style="fill:#008000;stroke:#008000;" x="317.323505" xlink:href="#mfe70694d75" y="490.021511"/>
     <use style="fill:#008000;stroke:#008000;" x="325.555922" xlink:href="#mfe70694d75" y="490.013859"/>
     <use style="fill:#008000;stroke:#008000;" x="340.797882" xlink:href="#mfe70694d75" y="489.999693"/>
     <use style="fill:#008000;stroke:#008000;" x="349.334018" xlink:href="#mfe70694d75" y="489.99176"/>
     <use style="fill:#008000;stroke:#008000;" x="357.642365" xlink:href="#mfe70694d75" y="489.984038"/>
     <use style="fill:#008000;stroke:#008000;" x="365.786863" xlink:href="#mfe70694d75" y="489.976468"/>
     <use style="fill:#008000;stroke:#008000;" x="381.120738" xlink:href="#mfe70694d75" y="489.962216"/>
     <use style="fill:#008000;stroke:#008000;" x="389.628901" xlink:href="#mfe70694d75" y="489.954309"/>
     <use style="fill:#008000;stroke:#008000;" x="398.117082" xlink:href="#mfe70694d75" y="489.94642"/>
     <use style="fill:#008000;stroke:#008000;" x="406.445411" xlink:href="#mfe70694d75" y="489.938679"/>
     <use style="fill:#008000;stroke:#008000;" x="421.531514" xlink:href="#mfe70694d75" y="489.924658"/>
     <use style="fill:#008000;stroke:#008000;" x="429.971739" xlink:href="#mfe70694d75" y="489.916813"/>
     <use style="fill:#008000;stroke:#008000;" x="438.172185" xlink:href="#mfe70694d75" y="489.909192"/>
     <use style="fill:#008000;stroke:#008000;" x="446.372632" xlink:href="#mfe70694d75" y="489.90157"/>
     <use style="fill:#008000;stroke:#008000;" x="462.529749" xlink:href="#mfe70694d75" y="489.886553"/>
     <use style="fill:#008000;stroke:#008000;" x="471.101852" xlink:href="#mfe70694d75" y="489.878586"/>
     <use style="fill:#008000;stroke:#008000;" x="479.382225" xlink:href="#mfe70694d75" y="489.87089"/>
     <use style="fill:#008000;stroke:#008000;" x="487.63862" xlink:href="#mfe70694d75" y="489.863217"/>
     <use style="fill:#008000;stroke:#008000;" x="502.221187" xlink:href="#mfe70694d75" y="489.849663"/>
     <use style="fill:#008000;stroke:#008000;" x="510.733346" xlink:href="#mfe70694d75" y="489.841752"/>
     <use style="fill:#008000;stroke:#008000;" x="518.95777" xlink:href="#mfe70694d75" y="489.834108"/>
     <use style="fill:#008000;stroke:#008000;" x="527.050316" xlink:href="#mfe70694d75" y="489.826587"/>
     <use style="fill:#008000;stroke:#008000;" x="542.416161" xlink:href="#mfe70694d75" y="489.812305"/>
     <use style="fill:#008000;stroke:#008000;" x="550.848394" xlink:href="#mfe70694d75" y="489.804468"/>
     <use style="fill:#008000;stroke:#008000;" x="559.052837" xlink:href="#mfe70694d75" y="489.796843"/>
     <use style="fill:#008000;stroke:#008000;" x="567.161367" xlink:href="#mfe70694d75" y="489.789307"/>
     <use style="fill:#008000;stroke:#008000;" x="582.659092" xlink:href="#mfe70694d75" y="489.774903"/>
     <use style="fill:#008000;stroke:#008000;" x="591.071343" xlink:href="#mfe70694d75" y="489.767084"/>
     <use style="fill:#008000;stroke:#008000;" x="599.187866" xlink:href="#mfe70694d75" y="489.759541"/>
     <use style="fill:#008000;stroke:#008000;" x="607.388313" xlink:href="#mfe70694d75" y="489.751919"/>
     <use style="fill:#008000;stroke:#008000;" x="622.96996" xlink:href="#mfe70694d75" y="489.737437"/>
     <use style="fill:#008000;stroke:#008000;" x="631.282303" xlink:href="#mfe70694d75" y="489.729711"/>
     <use style="fill:#008000;stroke:#008000;" x="639.518716" xlink:href="#mfe70694d75" y="489.722056"/>
     <use style="fill:#008000;stroke:#008000;" x="647.651224" xlink:href="#mfe70694d75" y="489.714498"/>
     <use style="fill:#008000;stroke:#008000;" x="664.31987" xlink:href="#mfe70694d75" y="489.699006"/>
     <use style="fill:#008000;stroke:#008000;" x="673.543374" xlink:href="#mfe70694d75" y="489.690433"/>
     <use style="fill:#008000;stroke:#008000;" x="682.267338" xlink:href="#mfe70694d75" y="489.682325"/>
     <use style="fill:#008000;stroke:#008000;" x="690.715556" xlink:href="#mfe70694d75" y="489.674473"/>
     <use style="fill:#008000;stroke:#008000;" x="704.007312" xlink:href="#mfe70694d75" y="489.662119"/>
     <use style="fill:#008000;stroke:#008000;" x="712.467519" xlink:href="#mfe70694d75" y="489.654256"/>
     <use style="fill:#008000;stroke:#008000;" x="721.071594" xlink:href="#mfe70694d75" y="489.646259"/>
     <use style="fill:#008000;stroke:#008000;" x="729.483845" xlink:href="#mfe70694d75" y="489.638441"/>
     <use style="fill:#008000;stroke:#008000;" x="744.406099" xlink:href="#mfe70694d75" y="489.624572"/>
     <use style="fill:#008000;stroke:#008000;" x="753.182015" xlink:href="#mfe70694d75" y="489.616415"/>
     <use style="fill:#008000;stroke:#008000;" x="761.682185" xlink:href="#mfe70694d75" y="489.608515"/>
     <use style="fill:#008000;stroke:#008000;" x="769.946573" xlink:href="#mfe70694d75" y="489.600834"/>
     <use style="fill:#008000;stroke:#008000;" x="784.932768" xlink:href="#mfe70694d75" y="489.586906"/>
     <use style="fill:#008000;stroke:#008000;" x="793.404964" xlink:href="#mfe70694d75" y="489.579031"/>
     <use style="fill:#008000;stroke:#008000;" x="801.737289" xlink:href="#mfe70694d75" y="489.571287"/>
     <use style="fill:#008000;stroke:#008000;" x="810.021657" xlink:href="#mfe70694d75" y="489.563587"/>
     <use style="fill:#008000;stroke:#008000;" x="825.447448" xlink:href="#mfe70694d75" y="489.54925"/>
     <use style="fill:#008000;stroke:#008000;" x="833.831725" xlink:href="#mfe70694d75" y="489.541458"/>
     <use style="fill:#008000;stroke:#008000;" x="842.263958" xlink:href="#mfe70694d75" y="489.533621"/>
     <use style="fill:#008000;stroke:#008000;" x="850.540334" xlink:href="#mfe70694d75" y="489.525929"/>
     <use style="fill:#008000;stroke:#008000;" x="865.834246" xlink:href="#mfe70694d75" y="489.511714"/>
     <use style="fill:#008000;stroke:#008000;" x="874.474287" xlink:href="#mfe70694d75" y="489.503684"/>
     <use style="fill:#008000;stroke:#008000;" x="882.714696" xlink:href="#mfe70694d75" y="489.496025"/>
     <use style="fill:#008000;stroke:#008000;" x="890.959102" xlink:href="#mfe70694d75" y="489.488363"/>
     <use style="fill:#008000;stroke:#008000;" x="906.193069" xlink:href="#mfe70694d75" y="489.474204"/>
     <use style="fill:#008000;stroke:#008000;" x="914.613313" xlink:href="#mfe70694d75" y="489.466378"/>
     <use style="fill:#008000;stroke:#008000;" x="923.836817" xlink:href="#mfe70694d75" y="489.457805"/>
     <use style="fill:#008000;stroke:#008000;" x="932.205109" xlink:href="#mfe70694d75" y="489.450028"/>
     <use style="fill:#008000;stroke:#008000;" x="946.527915" xlink:href="#mfe70694d75" y="489.436716"/>
     <use style="fill:#008000;stroke:#008000;" x="955.064052" xlink:href="#mfe70694d75" y="489.428782"/>
     <use style="fill:#008000;stroke:#008000;" x="963.232528" xlink:href="#mfe70694d75" y="489.42119"/>
     <use style="fill:#008000;stroke:#008000;" x="971.265129" xlink:href="#mfe70694d75" y="489.413725"/>
     <use style="fill:#008000;stroke:#008000;" x="986.83079" xlink:href="#mfe70694d75" y="489.399258"/>
     <use style="fill:#008000;stroke:#008000;" x="995.1791" xlink:href="#mfe70694d75" y="489.391499"/>
     <use style="fill:#008000;stroke:#008000;" x="1003.323598" xlink:href="#mfe70694d75" y="489.383929"/>
     <use style="fill:#008000;stroke:#008000;" x="1011.448114" xlink:href="#mfe70694d75" y="489.376378"/>
     <use style="fill:#008000;stroke:#008000;" x="1027.169632" xlink:href="#mfe70694d75" y="489.361766"/>
     <use style="fill:#008000;stroke:#008000;" x="1035.481975" xlink:href="#mfe70694d75" y="489.35404"/>
     <use style="fill:#008000;stroke:#008000;" x="1043.614484" xlink:href="#mfe70694d75" y="489.346482"/>
     <use style="fill:#008000;stroke:#008000;" x="1051.731008" xlink:href="#mfe70694d75" y="489.338938"/>
     <use style="fill:#008000;stroke:#008000;" x="1068.031992" xlink:href="#mfe70694d75" y="489.323788"/>
     <use style="fill:#008000;stroke:#008000;" x="1076.668037" xlink:href="#mfe70694d75" y="489.315761"/>
     <use style="fill:#008000;stroke:#008000;" x="1084.988373" xlink:href="#mfe70694d75" y="489.308028"/>
     <use style="fill:#008000;stroke:#008000;" x="1093.164841" xlink:href="#mfe70694d75" y="489.300429"/>
     <use style="fill:#008000;stroke:#008000;" x="1107.759397" xlink:href="#mfe70694d75" y="489.286864"/>
     <use style="fill:#008000;stroke:#008000;" x="1116.107707" xlink:href="#mfe70694d75" y="489.279105"/>
     <use style="fill:#008000;stroke:#008000;" x="1124.324139" xlink:href="#mfe70694d75" y="489.271469"/>
     <use style="fill:#008000;stroke:#008000;" x="1132.548563" xlink:href="#mfe70694d75" y="489.263825"/>
     <use style="fill:#008000;stroke:#008000;" x="1148.058276" xlink:href="#mfe70694d75" y="489.24941"/>
     <use style="fill:#008000;stroke:#008000;" x="1156.470527" xlink:href="#mfe70694d75" y="489.241591"/>
     <use style="fill:#008000;stroke:#008000;" x="1164.718929" xlink:href="#mfe70694d75" y="489.233925"/>
     <use style="fill:#008000;stroke:#008000;" x="1172.855434" xlink:href="#mfe70694d75" y="489.226363"/>
     <use style="fill:#008000;stroke:#008000;" x="1188.433085" xlink:href="#mfe70694d75" y="489.211884"/>
     <use style="fill:#008000;stroke:#008000;" x="1196.945244" xlink:href="#mfe70694d75" y="489.203973"/>
     <use style="fill:#008000;stroke:#008000;" x="1205.137698" xlink:href="#mfe70694d75" y="489.196359"/>
     <use style="fill:#008000;stroke:#008000;" x="1213.330151" xlink:href="#mfe70694d75" y="489.188745"/>
     <use style="fill:#008000;stroke:#008000;" x="1228.70399" xlink:href="#mfe70694d75" y="489.174456"/>
     <use style="fill:#008000;stroke:#008000;" x="1237.132226" xlink:href="#mfe70694d75" y="489.166623"/>
     <use style="fill:#008000;stroke:#008000;" x="1245.272727" xlink:href="#mfe70694d75" y="489.159057"/>
    </g>
   </g>
   <g id="patch_3">
    <path d="M 180 512.64 
L 180 69.12 
" style="fill:none;stroke:#000000;stroke-linecap:square;stroke-linejoin:miter;stroke-width:0.8;"/>
   </g>
   <g id="patch_4">
    <path d="M 1296 512.64 
L 1296 69.12 
" style="fill:none;stroke:#000000;stroke-linecap:square;stroke-linejoin:miter;stroke-width:0.8;"/>
   </g>
   <g id="patch_5">
    <path d="M 180 512.64 
L 1296 512.64 
" style="fill:none;stroke:#000000;stroke-linecap:square;stroke-linejoin:miter;stroke-width:0.8;"/>
   </g>
   <g id="patch_6">
    <path d="M 180 69.12 
L 1296 69.12 
" style="fill:none;stroke:#000000;stroke-linecap:square;stroke-linejoin:miter;stroke-width:0.8;"/>
   </g>
   <g id="text_13">
    <!-- 5000000.0 bit/s -->
    <defs>
     <path id="DejaVuSans-20"/>
     <path d="M 48.6875 27.296875 
Q 48.6875 37.203125 44.609375 42.84375 
Q 40.53125 48.484375 33.40625 48.484375 
Q 26.265625 48.484375 22.1875 42.84375 
Q 18.109375 37.203125 18.109375 27.296875 
Q 18.109375 17.390625 22.1875 11.75 
Q 26.265625 6.109375 33.40625 6.109375 
Q 40.53125 6.109375 44.609375 11.75 
Q 48.6875 17.390625 48.6875 27.296875 
z
M 18.109375 46.390625 
Q 20.953125 51.265625 25.265625 53.625 
Q 29.59375 56 35.59375 56 
Q 45.5625 56 51.78125 48.09375 
Q 58.015625 40.1875 58.015625 27.296875 
Q 58.015625 14.40625 51.78125 6.484375 
Q 45.5625 -1.421875 35.59375 -1.421875 
Q 29.59375 -1.421875 25.265625 0.953125 
Q 20.953125 3.328125 18.109375 8.203125 
L 18.109375 0 
L 9.078125 0 
L 9.078125 75.984375 
L 18.109375 75.984375 
z
" id="DejaVuSans-62"/>
     <path d="M 9.421875 54.6875 
L 18.40625 54.6875 
L 18.40625 0 
L 9.421875 0 
z
M 9.421875 75.984375 
L 18.40625 75.984375 
L 18.40625 64.59375 
L 9.421875 64.59375 
z
" id="DejaVuSans-69"/>
     <path d="M 18.3125 70.21875 
L 18.3125 54.6875 
L 36.8125 54.6875 
L 36.8125 47.703125 
L 18.3125 47.703125 
L 18.3125 18.015625 
Q 18.3125 11.328125 20.140625 9.421875 
Q 21.96875 7.515625 27.59375 7.515625 
L 36.8125 7.515625 
L 36.8125 0 
L 27.59375 0 
Q 17.1875 0 13.234375 3.875 
Q 9.28125 7.765625 9.28125 18.015625 
L 9.28125 47.703125 
L 2.6875 47.703125 
L 2.6875 54.6875 
L 9.28125 54.6875 
L 9.28125 70.21875 
z
" id="DejaVuSans-74"/>
     <path d="M 25.390625 72.90625 
L 33.6875 72.90625 
L 8.296875 -9.28125 
L 0 -9.28125 
z
" id="DejaVuSans-2f"/>
     <path d="M 44.28125 53.078125 
L 44.28125 44.578125 
Q 40.484375 46.53125 36.375 47.5 
Q 32.28125 48.484375 27.875 48.484375 
Q 21.1875 48.484375 17.84375 46.4375 
Q 14.5 44.390625 14.5 40.28125 
Q 14.5 37.15625 16.890625 35.375 
Q 19.28125 33.59375 26.515625 31.984375 
L 29.59375 31.296875 
Q 39.15625 29.25 43.1875 25.515625 
Q 47.21875 21.78125 47.21875 15.09375 
Q 47.21875 7.46875 41.1875 3.015625 
Q 35.15625 -1.421875 24.609375 -1.421875 
Q 20.21875 -1.421875 15.453125 -0.5625 
Q 10.6875 0.296875 5.421875 2 
L 5.421875 11.28125 
Q 10.40625 8.6875 15.234375 7.390625 
Q 20.0625 6.109375 24.8125 6.109375 
Q 31.15625 6.109375 34.5625 8.28125 
Q 37.984375 10.453125 37.984375 14.40625 
Q 37.984375 18.0625 35.515625 20.015625 
Q 33.0625 21.96875 24.703125 23.78125 
L 21.578125 24.515625 
Q 13.234375 26.265625 9.515625 29.90625 
Q 5.8125 33.546875 5.8125 39.890625 
Q 5.8125 47.609375 11.28125 51.796875 
Q 16.75 56 26.8125 56 
Q 31.78125 56 36.171875 55.265625 
Q 40.578125 54.546875 44.28125 53.078125 
z
" id="DejaVuSans-73"/>
    </defs>
    <g transform="translate(690.67125 63.12)scale(0.12 -0.12)">
     <use xlink:href="#DejaVuSans-35"/>
     <use x="63.623047" xlink:href="#DejaVuSans-30"/>
     <use x="127.246094" xlink:href="#DejaVuSans-30"/>
     <use x="190.869141" xlink:href="#DejaVuSans-30"/>
     <use x="254.492188" xlink:href="#DejaVuSans-30"/>
     <use x="318.115234" xlink:href="#DejaVuSans-30"/>
     <use x="381.738281" xlink:href="#DejaVuSans-30"/>
     <use x="445.361328" xlink:href="#DejaVuSans-2e"/>
     <use x="477.148438" xlink:href="#DejaVuSans-30"/>
     <use x="540.771484" xlink:href="#DejaVuSans-20"/>
     <use x="572.558594" xlink:href="#DejaVuSans-62"/>
     <use x="636.035156" xlink:href="#DejaVuSans-69"/>
     <use x="663.818359" xlink:href="#DejaVuSans-74"/>
     <use x="703.027344" xlink:href="#DejaVuSans-2f"/>
     <use x="736.71875" xlink:href="#DejaVuSans-73"/>
    </g>
   </g>
   <g id="legend_1">
    <g id="patch_7">
     <path d="M 1173.520313 135.8325 
L 1289 135.8325 
Q 1291 135.8325 1291 133.8325 
L 1291 76.12 
Q 1291 74.12 1289 74.12 
L 1173.520313 74.12 
Q 1171.520313 74.12 1171.520313 76.12 
L 1171.520313 133.8325 
Q 1171.520313 135.8325 1173.520313 135.8325 
z
" style="fill:#ffffff;opacity:0.8;stroke:#cccccc;stroke-linejoin:miter;"/>
    </g>
    <g id="line2d_17">
     <path d="M 1175.520313 82.218437 
L 1195.520313 82.218437 
" style="fill:none;stroke:#ff0000;stroke-dasharray:5.55,2.4;stroke-dashoffset:0;stroke-width:1.5;"/>
    </g>
    <g id="line2d_18">
     <g>
      <use style="fill:#ff0000;stroke:#ff0000;stroke-linejoin:miter;" x="1185.520313" xlink:href="#m9706496a97" y="82.218437"/>
     </g>
    </g>
    <g id="text_14">
     <!-- tcpdump -->
     <defs>
      <path d="M 48.78125 52.59375 
L 48.78125 44.1875 
Q 44.96875 46.296875 41.140625 47.34375 
Q 37.3125 48.390625 33.40625 48.390625 
Q 24.65625 48.390625 19.8125 42.84375 
Q 14.984375 37.3125 14.984375 27.296875 
Q 14.984375 17.28125 19.8125 11.734375 
Q 24.65625 6.203125 33.40625 6.203125 
Q 37.3125 6.203125 41.140625 7.25 
Q 44.96875 8.296875 48.78125 10.40625 
L 48.78125 2.09375 
Q 45.015625 0.34375 40.984375 -0.53125 
Q 36.96875 -1.421875 32.421875 -1.421875 
Q 20.0625 -1.421875 12.78125 6.34375 
Q 5.515625 14.109375 5.515625 27.296875 
Q 5.515625 40.671875 12.859375 48.328125 
Q 20.21875 56 33.015625 56 
Q 37.15625 56 41.109375 55.140625 
Q 45.0625 54.296875 48.78125 52.59375 
z
" id="DejaVuSans-63"/>
      <path d="M 18.109375 8.203125 
L 18.109375 -20.796875 
L 9.078125 -20.796875 
L 9.078125 54.6875 
L 18.109375 54.6875 
L 18.109375 46.390625 
Q 20.953125 51.265625 25.265625 53.625 
Q 29.59375 56 35.59375 56 
Q 45.5625 56 51.78125 48.09375 
Q 58.015625 40.1875 58.015625 27.296875 
Q 58.015625 14.40625 51.78125 6.484375 
Q 45.5625 -1.421875 35.59375 -1.421875 
Q 29.59375 -1.421875 25.265625 0.953125 
Q 20.953125 3.328125 18.109375 8.203125 
z
M 48.6875 27.296875 
Q 48.6875 37.203125 44.609375 42.84375 
Q 40.53125 48.484375 33.40625 48.484375 
Q 26.265625 48.484375 22.1875 42.84375 
Q 18.109375 37.203125 18.109375 27.296875 
Q 18.109375 17.390625 22.1875 11.75 
Q 26.265625 6.109375 33.40625 6.109375 
Q 40.53125 6.109375 44.609375 11.75 
Q 48.6875 17.390625 48.6875 27.296875 
z
" id="DejaVuSans-70"/>
      <path d="M 45.40625 46.390625 
L 45.40625 75.984375 
L 54.390625 75.984375 
L 54.390625 0 
L 45.40625 0 
L 45.40625 8.203125 
Q 42.578125 3.328125 38.25 0.953125 
Q 33.9375 -1.421875 27.875 -1.421875 
Q 17.96875 -1.421875 11.734375 6.484375 
Q 5.515625 14.40625 5.515625 27.296875 
Q 5.515625 40.1875 11.734375 48.09375 
Q 17.96875 56 27.875 56 
Q 33.9375 56 38.25 53.625 
Q 42.578125 51.265625 45.40625 46.390625 
z
M 14.796875 27.296875 
Q 14.796875 17.390625 18.875 11.75 
Q 22.953125 6.109375 30.078125 6.109375 
Q 37.203125 6.109375 41.296875 11.75 
Q 45.40625 17.390625 45.40625 27.296875 
Q 45.40625 37.203125 41.296875 42.84375 
Q 37.203125 48.484375 30.078125 48.484375 
Q 22.953125 48.484375 18.875 42.84375 
Q 14.796875 37.203125 14.796875 27.296875 
z
" id="DejaVuSans-64"/>
      <path d="M 8.5 21.578125 
L 8.5 54.6875 
L 17.484375 54.6875 
L 17.484375 21.921875 
Q 17.484375 14.15625 20.5 10.265625 
Q 23.53125 6.390625 29.59375 6.390625 
Q 36.859375 6.390625 41.078125 11.03125 
Q 45.3125 15.671875 45.3125 23.6875 
L 45.3125 54.6875 
L 54.296875 54.6875 
L 54.296875 0 
L 45.3125 0 
L 45.3125 8.40625 
Q 42.046875 3.421875 37.71875 1 
Q 33.40625 -1.421875 27.6875 -1.421875 
Q 18.265625 -1.421875 13.375 4.4375 
Q 8.5 10.296875 8.5 21.578125 
z
M 31.109375 56 
z
" id="DejaVuSans-75"/>
      <path d="M 52 44.1875 
Q 55.375 50.25 60.0625 53.125 
Q 64.75 56 71.09375 56 
Q 79.640625 56 84.28125 50.015625 
Q 88.921875 44.046875 88.921875 33.015625 
L 88.921875 0 
L 79.890625 0 
L 79.890625 32.71875 
Q 79.890625 40.578125 77.09375 44.375 
Q 74.3125 48.1875 68.609375 48.1875 
Q 61.625 48.1875 57.5625 43.546875 
Q 53.515625 38.921875 53.515625 30.90625 
L 53.515625 0 
L 44.484375 0 
L 44.484375 32.71875 
Q 44.484375 40.625 41.703125 44.40625 
Q 38.921875 48.1875 33.109375 48.1875 
Q 26.21875 48.1875 22.15625 43.53125 
Q 18.109375 38.875 18.109375 30.90625 
L 18.109375 0 
L 9.078125 0 
L 9.078125 54.6875 
L 18.109375 54.6875 
L 18.109375 46.1875 
Q 21.1875 51.21875 25.484375 53.609375 
Q 29.78125 56 35.6875 56 
Q 41.65625 56 45.828125 52.96875 
Q 50 49.953125 52 44.1875 
z
" id="DejaVuSans-6d"/>
     </defs>
     <g transform="translate(1203.520313 85.718437)scale(0.1 -0.1)">
      <use xlink:href="#DejaVuSans-74"/>
      <use x="39.208984" xlink:href="#DejaVuSans-63"/>
      <use x="94.189453" xlink:href="#DejaVuSans-70"/>
      <use x="157.666016" xlink:href="#DejaVuSans-64"/>
      <use x="221.142578" xlink:href="#DejaVuSans-75"/>
      <use x="284.521484" xlink:href="#DejaVuSans-6d"/>
      <use x="381.933594" xlink:href="#DejaVuSans-70"/>
     </g>
    </g>
    <g id="line2d_19">
     <path d="M 1175.520313 96.896563 
L 1195.520313 96.896563 
" style="fill:none;stroke:#800080;stroke-dasharray:9.6,2.4,1.5,2.4;stroke-dashoffset:0;stroke-width:1.5;"/>
    </g>
    <g id="line2d_20">
     <g>
      <use style="fill:#800080;stroke:#800080;" x="1185.520313" xlink:href="#m941ae960e0" y="96.896563"/>
     </g>
    </g>
    <g id="text_15">
     <!-- filtered tcpdump -->
     <defs>
      <path d="M 37.109375 75.984375 
L 37.109375 68.5 
L 28.515625 68.5 
Q 23.6875 68.5 21.796875 66.546875 
Q 19.921875 64.59375 19.921875 59.515625 
L 19.921875 54.6875 
L 34.71875 54.6875 
L 34.71875 47.703125 
L 19.921875 47.703125 
L 19.921875 0 
L 10.890625 0 
L 10.890625 47.703125 
L 2.296875 47.703125 
L 2.296875 54.6875 
L 10.890625 54.6875 
L 10.890625 58.5 
Q 10.890625 67.625 15.140625 71.796875 
Q 19.390625 75.984375 28.609375 75.984375 
z
" id="DejaVuSans-66"/>
      <path d="M 9.421875 75.984375 
L 18.40625 75.984375 
L 18.40625 0 
L 9.421875 0 
z
" id="DejaVuSans-6c"/>
      <path d="M 56.203125 29.59375 
L 56.203125 25.203125 
L 14.890625 25.203125 
Q 15.484375 15.921875 20.484375 11.0625 
Q 25.484375 6.203125 34.421875 6.203125 
Q 39.59375 6.203125 44.453125 7.46875 
Q 49.3125 8.734375 54.109375 11.28125 
L 54.109375 2.78125 
Q 49.265625 0.734375 44.1875 -0.34375 
Q 39.109375 -1.421875 33.890625 -1.421875 
Q 20.796875 -1.421875 13.15625 6.1875 
Q 5.515625 13.8125 5.515625 26.8125 
Q 5.515625 40.234375 12.765625 48.109375 
Q 20.015625 56 32.328125 56 
Q 43.359375 56 49.78125 48.890625 
Q 56.203125 41.796875 56.203125 29.59375 
z
M 47.21875 32.234375 
Q 47.125 39.59375 43.09375 43.984375 
Q 39.0625 48.390625 32.421875 48.390625 
Q 24.90625 48.390625 20.390625 44.140625 
Q 15.875 39.890625 15.1875 32.171875 
z
" id="DejaVuSans-65"/>
      <path d="M 41.109375 46.296875 
Q 39.59375 47.171875 37.8125 47.578125 
Q 36.03125 48 33.890625 48 
Q 26.265625 48 22.1875 43.046875 
Q 18.109375 38.09375 18.109375 28.8125 
L 18.109375 0 
L 9.078125 0 
L 9.078125 54.6875 
L 18.109375 54.6875 
L 18.109375 46.1875 
Q 20.953125 51.171875 25.484375 53.578125 
Q 30.03125 56 36.53125 56 
Q 37.453125 56 38.578125 55.875 
Q 39.703125 55.765625 41.0625 55.515625 
z
" id="DejaVuSans-72"/>
     </defs>
     <g transform="translate(1203.520313 100.396563)scale(0.1 -0.1)">
      <use xlink:href="#DejaVuSans-66"/>
      <use x="35.205078" xlink:href="#DejaVuSans-69"/>
      <use x="62.988281" xlink:href="#DejaVuSans-6c"/>
      <use x="90.771484" xlink:href="#DejaVuSans-74"/>
      <use x="129.980469" xlink:href="#DejaVuSans-65"/>
      <use x="191.503906" xlink:href="#DejaVuSans-72"/>
      <use x="232.585938" xlink:href="#DejaVuSans-65"/>
      <use x="294.109375" xlink:href="#DejaVuSans-64"/>
      <use x="357.585938" xlink:href="#DejaVuSans-20"/>
      <use x="389.373047" xlink:href="#DejaVuSans-74"/>
      <use x="428.582031" xlink:href="#DejaVuSans-63"/>
      <use x="483.5625" xlink:href="#DejaVuSans-70"/>
      <use x="547.039062" xlink:href="#DejaVuSans-64"/>
      <use x="610.515625" xlink:href="#DejaVuSans-75"/>
      <use x="673.894531" xlink:href="#DejaVuSans-6d"/>
      <use x="771.306641" xlink:href="#DejaVuSans-70"/>
     </g>
    </g>
    <g id="line2d_21">
     <path d="M 1175.520313 111.574687 
L 1195.520313 111.574687 
" style="fill:none;stroke:#0000ff;stroke-linecap:square;stroke-width:1.5;"/>
    </g>
    <g id="line2d_22"/>
    <g id="text_16">
     <!-- OLS -->
     <defs>
      <path d="M 39.40625 66.21875 
Q 28.65625 66.21875 22.328125 58.203125 
Q 16.015625 50.203125 16.015625 36.375 
Q 16.015625 22.609375 22.328125 14.59375 
Q 28.65625 6.59375 39.40625 6.59375 
Q 50.140625 6.59375 56.421875 14.59375 
Q 62.703125 22.609375 62.703125 36.375 
Q 62.703125 50.203125 56.421875 58.203125 
Q 50.140625 66.21875 39.40625 66.21875 
z
M 39.40625 74.21875 
Q 54.734375 74.21875 63.90625 63.9375 
Q 73.09375 53.65625 73.09375 36.375 
Q 73.09375 19.140625 63.90625 8.859375 
Q 54.734375 -1.421875 39.40625 -1.421875 
Q 24.03125 -1.421875 14.8125 8.828125 
Q 5.609375 19.09375 5.609375 36.375 
Q 5.609375 53.65625 14.8125 63.9375 
Q 24.03125 74.21875 39.40625 74.21875 
z
" id="DejaVuSans-4f"/>
      <path d="M 9.8125 72.90625 
L 19.671875 72.90625 
L 19.671875 8.296875 
L 55.171875 8.296875 
L 55.171875 0 
L 9.8125 0 
z
" id="DejaVuSans-4c"/>
      <path d="M 53.515625 70.515625 
L 53.515625 60.890625 
Q 47.90625 63.578125 42.921875 64.890625 
Q 37.9375 66.21875 33.296875 66.21875 
Q 25.25 66.21875 20.875 63.09375 
Q 16.5 59.96875 16.5 54.203125 
Q 16.5 49.359375 19.40625 46.890625 
Q 22.3125 44.4375 30.421875 42.921875 
L 36.375 41.703125 
Q 47.40625 39.59375 52.65625 34.296875 
Q 57.90625 29 57.90625 20.125 
Q 57.90625 9.515625 50.796875 4.046875 
Q 43.703125 -1.421875 29.984375 -1.421875 
Q 24.8125 -1.421875 18.96875 -0.25 
Q 13.140625 0.921875 6.890625 3.21875 
L 6.890625 13.375 
Q 12.890625 10.015625 18.65625 8.296875 
Q 24.421875 6.59375 29.984375 6.59375 
Q 38.421875 6.59375 43.015625 9.90625 
Q 47.609375 13.234375 47.609375 19.390625 
Q 47.609375 24.75 44.3125 27.78125 
Q 41.015625 30.8125 33.5 32.328125 
L 27.484375 33.5 
Q 16.453125 35.6875 11.515625 40.375 
Q 6.59375 45.0625 6.59375 53.421875 
Q 6.59375 63.09375 13.40625 68.65625 
Q 20.21875 74.21875 32.171875 74.21875 
Q 37.3125 74.21875 42.625 73.28125 
Q 47.953125 72.359375 53.515625 70.515625 
z
" id="DejaVuSans-53"/>
     </defs>
     <g transform="translate(1203.520313 115.074687)scale(0.1 -0.1)">
      <use xlink:href="#DejaVuSans-4f"/>
      <use x="78.710938" xlink:href="#DejaVuSans-4c"/>
      <use x="134.423828" xlink:href="#DejaVuSans-53"/>
     </g>
    </g>
    <g id="line2d_23">
     <path d="M 1175.520313 126.252813 
L 1195.520313 126.252813 
" style="fill:none;stroke:#008000;stroke-linecap:square;stroke-width:1.5;"/>
    </g>
    <g id="line2d_24">
     <g>
      <use style="fill:#008000;stroke:#008000;" x="1185.520313" xlink:href="#mfe70694d75" y="126.252813"/>
     </g>
    </g>
    <g id="text_17">
     <!-- IRLS -->
     <defs>
      <path d="M 9.8125 72.90625 
L 19.671875 72.90625 
L 19.671875 0 
L 9.8125 0 
z
" id="DejaVuSans-49"/>
      <path d="M 44.390625 34.1875 
Q 47.5625 33.109375 50.5625 29.59375 
Q 53.5625 26.078125 56.59375 19.921875 
L 66.609375 0 
L 56 0 
L 46.6875 18.703125 
Q 43.0625 26.03125 39.671875 28.421875 
Q 36.28125 30.8125 30.421875 30.8125 
L 19.671875 30.8125 
L 19.671875 0 
L 9.8125 0 
L 9.8125 72.90625 
L 32.078125 72.90625 
Q 44.578125 72.90625 50.734375 67.671875 
Q 56.890625 62.453125 56.890625 51.90625 
Q 56.890625 45.015625 53.6875 40.46875 
Q 50.484375 35.9375 44.390625 34.1875 
z
M 19.671875 64.796875 
L 19.671875 38.921875 
L 32.078125 38.921875 
Q 39.203125 38.921875 42.84375 42.21875 
Q 46.484375 45.515625 46.484375 51.90625 
Q 46.484375 58.296875 42.84375 61.546875 
Q 39.203125 64.796875 32.078125 64.796875 
z
" id="DejaVuSans-52"/>
     </defs>
     <g transform="translate(1203.520313 129.752813)scale(0.1 -0.1)">
      <use xlink:href="#DejaVuSans-49"/>
      <use x="29.492188" xlink:href="#DejaVuSans-52"/>
      <use x="98.974609" xlink:href="#DejaVuSans-4c"/>
      <use x="154.6875" xlink:href="#DejaVuSans-53"/>
     </g>
    </g>
   </g>
  </g>
 </g>
 <defs>
  <clipPath id="pf3ea68e78a">
   <rect height="443.52" width="1116" x="180" y="69.12"/>
  </clipPath>
 </defs>
</svg>
