<?xml version="1.0" encoding="utf-8" standalone="no"?>
<!DOCTYPE svg PUBLIC "-//W3C//DTD SVG 1.1//EN"
  "http://www.w3.org/Graphics/SVG/1.1/DTD/svg11.dtd">
<!-- Created with matplotlib (http://matplotlib.org/) -->
<svg height="576pt" version="1.1" viewBox="0 0 1440 576" width="1440pt" xmlns="http://www.w3.org/2000/svg" xmlns:xlink="http://www.w3.org/1999/xlink">
 <defs>
  <style type="text/css">
*{stroke-linecap:butt;stroke-linejoin:round;}
  </style>
 </defs>
 <g id="figure_1">
  <g id="patch_1">
   <path d="M 0 576 
L 1440 576 
L 1440 0 
L 0 0 
z
" style="fill:#ffffff;"/>
  </g>
  <g id="axes_1">
   <g id="patch_2">
    <path d="M 180 512.64 
L 1296 512.64 
L 1296 69.12 
L 180 69.12 
z
" style="fill:#ffffff;"/>
   </g>
   <g id="matplotlib.axis_1">
    <g id="xtick_1">
     <g id="line2d_1">
      <defs>
       <path d="M 0 0 
L 0 3.5 
" id="madbcfd7777" style="stroke:#000000;stroke-width:0.8;"/>
      </defs>
      <g>
       <use style="stroke:#000000;stroke-width:0.8;" x="230.727273" xlink:href="#madbcfd7777" y="512.64"/>
      </g>
     </g>
     <g id="text_1">
      <!-- 0.0 -->
      <defs>
       <path d="M 31.78125 66.40625 
Q 24.171875 66.40625 20.328125 58.90625 
Q 16.5 51.421875 16.5 36.375 
Q 16.5 21.390625 20.328125 13.890625 
Q 24.171875 6.390625 31.78125 6.390625 
Q 39.453125 6.390625 43.28125 13.890625 
Q 47.125 21.390625 47.125 36.375 
Q 47.125 51.421875 43.28125 58.90625 
Q 39.453125 66.40625 31.78125 66.40625 
z
M 31.78125 74.21875 
Q 44.046875 74.21875 50.515625 64.515625 
Q 56.984375 54.828125 56.984375 36.375 
Q 56.984375 17.96875 50.515625 8.265625 
Q 44.046875 -1.421875 31.78125 -1.421875 
Q 19.53125 -1.421875 13.0625 8.265625 
Q 6.59375 17.96875 6.59375 36.375 
Q 6.59375 54.828125 13.0625 64.515625 
Q 19.53125 74.21875 31.78125 74.21875 
z
" id="DejaVuSans-30"/>
       <path d="M 10.6875 12.40625 
L 21 12.40625 
L 21 0 
L 10.6875 0 
z
" id="DejaVuSans-2e"/>
      </defs>
      <g transform="translate(222.77571 527.238438)scale(0.1 -0.1)">
       <use xlink:href="#DejaVuSans-30"/>
       <use x="63.623047" xlink:href="#DejaVuSans-2e"/>
       <use x="95.410156" xlink:href="#DejaVuSans-30"/>
      </g>
     </g>
    </g>
    <g id="xtick_2">
     <g id="line2d_2">
      <g>
       <use style="stroke:#000000;stroke-width:0.8;" x="384.63225" xlink:href="#madbcfd7777" y="512.64"/>
      </g>
     </g>
     <g id="text_2">
      <!-- 0.2 -->
      <defs>
       <path d="M 19.1875 8.296875 
L 53.609375 8.296875 
L 53.609375 0 
L 7.328125 0 
L 7.328125 8.296875 
Q 12.9375 14.109375 22.625 23.890625 
Q 32.328125 33.6875 34.8125 36.53125 
Q 39.546875 41.84375 41.421875 45.53125 
Q 43.3125 49.21875 43.3125 52.78125 
Q 43.3125 58.59375 39.234375 62.25 
Q 35.15625 65.921875 28.609375 65.921875 
Q 23.96875 65.921875 18.8125 64.3125 
Q 13.671875 62.703125 7.8125 59.421875 
L 7.8125 69.390625 
Q 13.765625 71.78125 18.9375 73 
Q 24.125 74.21875 28.421875 74.21875 
Q 39.75 74.21875 46.484375 68.546875 
Q 53.21875 62.890625 53.21875 53.421875 
Q 53.21875 48.921875 51.53125 44.890625 
Q 49.859375 40.875 45.40625 35.40625 
Q 44.1875 33.984375 37.640625 27.21875 
Q 31.109375 20.453125 19.1875 8.296875 
z
" id="DejaVuSans-32"/>
      </defs>
      <g transform="translate(376.680687 527.238438)scale(0.1 -0.1)">
       <use xlink:href="#DejaVuSans-30"/>
       <use x="63.623047" xlink:href="#DejaVuSans-2e"/>
       <use x="95.410156" xlink:href="#DejaVuSans-32"/>
      </g>
     </g>
    </g>
    <g id="xtick_3">
     <g id="line2d_3">
      <g>
       <use style="stroke:#000000;stroke-width:0.8;" x="538.537226" xlink:href="#madbcfd7777" y="512.64"/>
      </g>
     </g>
     <g id="text_3">
      <!-- 0.4 -->
      <defs>
       <path d="M 37.796875 64.3125 
L 12.890625 25.390625 
L 37.796875 25.390625 
z
M 35.203125 72.90625 
L 47.609375 72.90625 
L 47.609375 25.390625 
L 58.015625 25.390625 
L 58.015625 17.1875 
L 47.609375 17.1875 
L 47.609375 0 
L 37.796875 0 
L 37.796875 17.1875 
L 4.890625 17.1875 
L 4.890625 26.703125 
z
" id="DejaVuSans-34"/>
      </defs>
      <g transform="translate(530.585664 527.238438)scale(0.1 -0.1)">
       <use xlink:href="#DejaVuSans-30"/>
       <use x="63.623047" xlink:href="#DejaVuSans-2e"/>
       <use x="95.410156" xlink:href="#DejaVuSans-34"/>
      </g>
     </g>
    </g>
    <g id="xtick_4">
     <g id="line2d_4">
      <g>
       <use style="stroke:#000000;stroke-width:0.8;" x="692.442203" xlink:href="#madbcfd7777" y="512.64"/>
      </g>
     </g>
     <g id="text_4">
      <!-- 0.6 -->
      <defs>
       <path d="M 33.015625 40.375 
Q 26.375 40.375 22.484375 35.828125 
Q 18.609375 31.296875 18.609375 23.390625 
Q 18.609375 15.53125 22.484375 10.953125 
Q 26.375 6.390625 33.015625 6.390625 
Q 39.65625 6.390625 43.53125 10.953125 
Q 47.40625 15.53125 47.40625 23.390625 
Q 47.40625 31.296875 43.53125 35.828125 
Q 39.65625 40.375 33.015625 40.375 
z
M 52.59375 71.296875 
L 52.59375 62.3125 
Q 48.875 64.0625 45.09375 64.984375 
Q 41.3125 65.921875 37.59375 65.921875 
Q 27.828125 65.921875 22.671875 59.328125 
Q 17.53125 52.734375 16.796875 39.40625 
Q 19.671875 43.65625 24.015625 45.921875 
Q 28.375 48.1875 33.59375 48.1875 
Q 44.578125 48.1875 50.953125 41.515625 
Q 57.328125 34.859375 57.328125 23.390625 
Q 57.328125 12.15625 50.6875 5.359375 
Q 44.046875 -1.421875 33.015625 -1.421875 
Q 20.359375 -1.421875 13.671875 8.265625 
Q 6.984375 17.96875 6.984375 36.375 
Q 6.984375 53.65625 15.1875 63.9375 
Q 23.390625 74.21875 37.203125 74.21875 
Q 40.921875 74.21875 44.703125 73.484375 
Q 48.484375 72.75 52.59375 71.296875 
z
" id="DejaVuSans-36"/>
      </defs>
      <g transform="translate(684.490641 527.238438)scale(0.1 -0.1)">
       <use xlink:href="#DejaVuSans-30"/>
       <use x="63.623047" xlink:href="#DejaVuSans-2e"/>
       <use x="95.410156" xlink:href="#DejaVuSans-36"/>
      </g>
     </g>
    </g>
    <g id="xtick_5">
     <g id="line2d_5">
      <g>
       <use style="stroke:#000000;stroke-width:0.8;" x="846.34718" xlink:href="#madbcfd7777" y="512.64"/>
      </g>
     </g>
     <g id="text_5">
      <!-- 0.8 -->
      <defs>
       <path d="M 31.78125 34.625 
Q 24.75 34.625 20.71875 30.859375 
Q 16.703125 27.09375 16.703125 20.515625 
Q 16.703125 13.921875 20.71875 10.15625 
Q 24.75 6.390625 31.78125 6.390625 
Q 38.8125 6.390625 42.859375 10.171875 
Q 46.921875 13.96875 46.921875 20.515625 
Q 46.921875 27.09375 42.890625 30.859375 
Q 38.875 34.625 31.78125 34.625 
z
M 21.921875 38.8125 
Q 15.578125 40.375 12.03125 44.71875 
Q 8.5 49.078125 8.5 55.328125 
Q 8.5 64.0625 14.71875 69.140625 
Q 20.953125 74.21875 31.78125 74.21875 
Q 42.671875 74.21875 48.875 69.140625 
Q 55.078125 64.0625 55.078125 55.328125 
Q 55.078125 49.078125 51.53125 44.71875 
Q 48 40.375 41.703125 38.8125 
Q 48.828125 37.15625 52.796875 32.3125 
Q 56.78125 27.484375 56.78125 20.515625 
Q 56.78125 9.90625 50.3125 4.234375 
Q 43.84375 -1.421875 31.78125 -1.421875 
Q 19.734375 -1.421875 13.25 4.234375 
Q 6.78125 9.90625 6.78125 20.515625 
Q 6.78125 27.484375 10.78125 32.3125 
Q 14.796875 37.15625 21.921875 38.8125 
z
M 18.3125 54.390625 
Q 18.3125 48.734375 21.84375 45.5625 
Q 25.390625 42.390625 31.78125 42.390625 
Q 38.140625 42.390625 41.71875 45.5625 
Q 45.3125 48.734375 45.3125 54.390625 
Q 45.3125 60.0625 41.71875 63.234375 
Q 38.140625 66.40625 31.78125 66.40625 
Q 25.390625 66.40625 21.84375 63.234375 
Q 18.3125 60.0625 18.3125 54.390625 
z
" id="DejaVuSans-38"/>
      </defs>
      <g transform="translate(838.395617 527.238438)scale(0.1 -0.1)">
       <use xlink:href="#DejaVuSans-30"/>
       <use x="63.623047" xlink:href="#DejaVuSans-2e"/>
       <use x="95.410156" xlink:href="#DejaVuSans-38"/>
      </g>
     </g>
    </g>
    <g id="xtick_6">
     <g id="line2d_6">
      <g>
       <use style="stroke:#000000;stroke-width:0.8;" x="1000.252157" xlink:href="#madbcfd7777" y="512.64"/>
      </g>
     </g>
     <g id="text_6">
      <!-- 1.0 -->
      <defs>
       <path d="M 12.40625 8.296875 
L 28.515625 8.296875 
L 28.515625 63.921875 
L 10.984375 60.40625 
L 10.984375 69.390625 
L 28.421875 72.90625 
L 38.28125 72.90625 
L 38.28125 8.296875 
L 54.390625 8.296875 
L 54.390625 0 
L 12.40625 0 
z
" id="DejaVuSans-31"/>
      </defs>
      <g transform="translate(992.300594 527.238438)scale(0.1 -0.1)">
       <use xlink:href="#DejaVuSans-31"/>
       <use x="63.623047" xlink:href="#DejaVuSans-2e"/>
       <use x="95.410156" xlink:href="#DejaVuSans-30"/>
      </g>
     </g>
    </g>
    <g id="xtick_7">
     <g id="line2d_7">
      <g>
       <use style="stroke:#000000;stroke-width:0.8;" x="1154.157133" xlink:href="#madbcfd7777" y="512.64"/>
      </g>
     </g>
     <g id="text_7">
      <!-- 1.2 -->
      <g transform="translate(1146.205571 527.238438)scale(0.1 -0.1)">
       <use xlink:href="#DejaVuSans-31"/>
       <use x="63.623047" xlink:href="#DejaVuSans-2e"/>
       <use x="95.410156" xlink:href="#DejaVuSans-32"/>
      </g>
     </g>
    </g>
   </g>
   <g id="matplotlib.axis_2">
    <g id="ytick_1">
     <g id="line2d_8">
      <defs>
       <path d="M 0 0 
L -3.5 0 
" id="m97afe83a1f" style="stroke:#000000;stroke-width:0.8;"/>
      </defs>
      <g>
       <use style="stroke:#000000;stroke-width:0.8;" x="180" xlink:href="#m97afe83a1f" y="487.736471"/>
      </g>
     </g>
     <g id="text_8">
      <!-- 0.300325 -->
      <defs>
       <path d="M 40.578125 39.3125 
Q 47.65625 37.796875 51.625 33 
Q 55.609375 28.21875 55.609375 21.1875 
Q 55.609375 10.40625 48.1875 4.484375 
Q 40.765625 -1.421875 27.09375 -1.421875 
Q 22.515625 -1.421875 17.65625 -0.515625 
Q 12.796875 0.390625 7.625 2.203125 
L 7.625 11.71875 
Q 11.71875 9.328125 16.59375 8.109375 
Q 21.484375 6.890625 26.8125 6.890625 
Q 36.078125 6.890625 40.9375 10.546875 
Q 45.796875 14.203125 45.796875 21.1875 
Q 45.796875 27.640625 41.28125 31.265625 
Q 36.765625 34.90625 28.71875 34.90625 
L 20.21875 34.90625 
L 20.21875 43.015625 
L 29.109375 43.015625 
Q 36.375 43.015625 40.234375 45.921875 
Q 44.09375 48.828125 44.09375 54.296875 
Q 44.09375 59.90625 40.109375 62.90625 
Q 36.140625 65.921875 28.71875 65.921875 
Q 24.65625 65.921875 20.015625 65.03125 
Q 15.375 64.15625 9.8125 62.3125 
L 9.8125 71.09375 
Q 15.4375 72.65625 20.34375 73.4375 
Q 25.25 74.21875 29.59375 74.21875 
Q 40.828125 74.21875 47.359375 69.109375 
Q 53.90625 64.015625 53.90625 55.328125 
Q 53.90625 49.265625 50.4375 45.09375 
Q 46.96875 40.921875 40.578125 39.3125 
z
" id="DejaVuSans-33"/>
       <path d="M 10.796875 72.90625 
L 49.515625 72.90625 
L 49.515625 64.59375 
L 19.828125 64.59375 
L 19.828125 46.734375 
Q 21.96875 47.46875 24.109375 47.828125 
Q 26.265625 48.1875 28.421875 48.1875 
Q 40.625 48.1875 47.75 41.5 
Q 54.890625 34.8125 54.890625 23.390625 
Q 54.890625 11.625 47.5625 5.09375 
Q 40.234375 -1.421875 26.90625 -1.421875 
Q 22.3125 -1.421875 17.546875 -0.640625 
Q 12.796875 0.140625 7.71875 1.703125 
L 7.71875 11.625 
Q 12.109375 9.234375 16.796875 8.0625 
Q 21.484375 6.890625 26.703125 6.890625 
Q 35.15625 6.890625 40.078125 11.328125 
Q 45.015625 15.765625 45.015625 23.390625 
Q 45.015625 31 40.078125 35.4375 
Q 35.15625 39.890625 26.703125 39.890625 
Q 22.75 39.890625 18.8125 39.015625 
Q 14.890625 38.140625 10.796875 36.28125 
z
" id="DejaVuSans-35"/>
      </defs>
      <g transform="translate(125.284375 491.535689)scale(0.1 -0.1)">
       <use xlink:href="#DejaVuSans-30"/>
       <use x="63.623047" xlink:href="#DejaVuSans-2e"/>
       <use x="95.410156" xlink:href="#DejaVuSans-33"/>
       <use x="159.033203" xlink:href="#DejaVuSans-30"/>
       <use x="222.65625" xlink:href="#DejaVuSans-30"/>
       <use x="286.279297" xlink:href="#DejaVuSans-33"/>
       <use x="349.902344" xlink:href="#DejaVuSans-32"/>
       <use x="413.525391" xlink:href="#DejaVuSans-35"/>
      </g>
     </g>
    </g>
    <g id="ytick_2">
     <g id="line2d_9">
      <g>
       <use style="stroke:#000000;stroke-width:0.8;" x="180" xlink:href="#m97afe83a1f" y="428.442353"/>
      </g>
     </g>
     <g id="text_9">
      <!-- 0.300350 -->
      <g transform="translate(125.284375 432.241572)scale(0.1 -0.1)">
       <use xlink:href="#DejaVuSans-30"/>
       <use x="63.623047" xlink:href="#DejaVuSans-2e"/>
       <use x="95.410156" xlink:href="#DejaVuSans-33"/>
       <use x="159.033203" xlink:href="#DejaVuSans-30"/>
       <use x="222.65625" xlink:href="#DejaVuSans-30"/>
       <use x="286.279297" xlink:href="#DejaVuSans-33"/>
       <use x="349.902344" xlink:href="#DejaVuSans-35"/>
       <use x="413.525391" xlink:href="#DejaVuSans-30"/>
      </g>
     </g>
    </g>
    <g id="ytick_3">
     <g id="line2d_10">
      <g>
       <use style="stroke:#000000;stroke-width:0.8;" x="180" xlink:href="#m97afe83a1f" y="369.148235"/>
      </g>
     </g>
     <g id="text_10">
      <!-- 0.300375 -->
      <defs>
       <path d="M 8.203125 72.90625 
L 55.078125 72.90625 
L 55.078125 68.703125 
L 28.609375 0 
L 18.3125 0 
L 43.21875 64.59375 
L 8.203125 64.59375 
z
" id="DejaVuSans-37"/>
      </defs>
      <g transform="translate(125.284375 372.947454)scale(0.1 -0.1)">
       <use xlink:href="#DejaVuSans-30"/>
       <use x="63.623047" xlink:href="#DejaVuSans-2e"/>
       <use x="95.410156" xlink:href="#DejaVuSans-33"/>
       <use x="159.033203" xlink:href="#DejaVuSans-30"/>
       <use x="222.65625" xlink:href="#DejaVuSans-30"/>
       <use x="286.279297" xlink:href="#DejaVuSans-33"/>
       <use x="349.902344" xlink:href="#DejaVuSans-37"/>
       <use x="413.525391" xlink:href="#DejaVuSans-35"/>
      </g>
     </g>
    </g>
    <g id="ytick_4">
     <g id="line2d_11">
      <g>
       <use style="stroke:#000000;stroke-width:0.8;" x="180" xlink:href="#m97afe83a1f" y="309.854118"/>
      </g>
     </g>
     <g id="text_11">
      <!-- 0.300400 -->
      <g transform="translate(125.284375 313.653336)scale(0.1 -0.1)">
       <use xlink:href="#DejaVuSans-30"/>
       <use x="63.623047" xlink:href="#DejaVuSans-2e"/>
       <use x="95.410156" xlink:href="#DejaVuSans-33"/>
       <use x="159.033203" xlink:href="#DejaVuSans-30"/>
       <use x="222.65625" xlink:href="#DejaVuSans-30"/>
       <use x="286.279297" xlink:href="#DejaVuSans-34"/>
       <use x="349.902344" xlink:href="#DejaVuSans-30"/>
       <use x="413.525391" xlink:href="#DejaVuSans-30"/>
      </g>
     </g>
    </g>
    <g id="ytick_5">
     <g id="line2d_12">
      <g>
       <use style="stroke:#000000;stroke-width:0.8;" x="180" xlink:href="#m97afe83a1f" y="250.56"/>
      </g>
     </g>
     <g id="text_12">
      <!-- 0.300425 -->
      <g transform="translate(125.284375 254.359219)scale(0.1 -0.1)">
       <use xlink:href="#DejaVuSans-30"/>
       <use x="63.623047" xlink:href="#DejaVuSans-2e"/>
       <use x="95.410156" xlink:href="#DejaVuSans-33"/>
       <use x="159.033203" xlink:href="#DejaVuSans-30"/>
       <use x="222.65625" xlink:href="#DejaVuSans-30"/>
       <use x="286.279297" xlink:href="#DejaVuSans-34"/>
       <use x="349.902344" xlink:href="#DejaVuSans-32"/>
       <use x="413.525391" xlink:href="#DejaVuSans-35"/>
      </g>
     </g>
    </g>
    <g id="ytick_6">
     <g id="line2d_13">
      <g>
       <use style="stroke:#000000;stroke-width:0.8;" x="180" xlink:href="#m97afe83a1f" y="191.265882"/>
      </g>
     </g>
     <g id="text_13">
      <!-- 0.300450 -->
      <g transform="translate(125.284375 195.065101)scale(0.1 -0.1)">
       <use xlink:href="#DejaVuSans-30"/>
       <use x="63.623047" xlink:href="#DejaVuSans-2e"/>
       <use x="95.410156" xlink:href="#DejaVuSans-33"/>
       <use x="159.033203" xlink:href="#DejaVuSans-30"/>
       <use x="222.65625" xlink:href="#DejaVuSans-30"/>
       <use x="286.279297" xlink:href="#DejaVuSans-34"/>
       <use x="349.902344" xlink:href="#DejaVuSans-35"/>
       <use x="413.525391" xlink:href="#DejaVuSans-30"/>
      </g>
     </g>
    </g>
    <g id="ytick_7">
     <g id="line2d_14">
      <g>
       <use style="stroke:#000000;stroke-width:0.8;" x="180" xlink:href="#m97afe83a1f" y="131.971765"/>
      </g>
     </g>
     <g id="text_14">
      <!-- 0.300475 -->
      <g transform="translate(125.284375 135.770983)scale(0.1 -0.1)">
       <use xlink:href="#DejaVuSans-30"/>
       <use x="63.623047" xlink:href="#DejaVuSans-2e"/>
       <use x="95.410156" xlink:href="#DejaVuSans-33"/>
       <use x="159.033203" xlink:href="#DejaVuSans-30"/>
       <use x="222.65625" xlink:href="#DejaVuSans-30"/>
       <use x="286.279297" xlink:href="#DejaVuSans-34"/>
       <use x="349.902344" xlink:href="#DejaVuSans-37"/>
       <use x="413.525391" xlink:href="#DejaVuSans-35"/>
      </g>
     </g>
    </g>
    <g id="ytick_8">
     <g id="line2d_15">
      <g>
       <use style="stroke:#000000;stroke-width:0.8;" x="180" xlink:href="#m97afe83a1f" y="72.677647"/>
      </g>
     </g>
     <g id="text_15">
      <!-- 0.300500 -->
      <g transform="translate(125.284375 76.476866)scale(0.1 -0.1)">
       <use xlink:href="#DejaVuSans-30"/>
       <use x="63.623047" xlink:href="#DejaVuSans-2e"/>
       <use x="95.410156" xlink:href="#DejaVuSans-33"/>
       <use x="159.033203" xlink:href="#DejaVuSans-30"/>
       <use x="222.65625" xlink:href="#DejaVuSans-30"/>
       <use x="286.279297" xlink:href="#DejaVuSans-35"/>
       <use x="349.902344" xlink:href="#DejaVuSans-30"/>
       <use x="413.525391" xlink:href="#DejaVuSans-30"/>
      </g>
     </g>
    </g>
   </g>
   <g id="line2d_16">
    <path clip-path="url(#pd1b86f2ab0)" d="M 230.727273 193.637647 
L 242.516394 369.148235 
L 252.373238 404.724706 
L 262.264711 345.430588 
L 272.377038 421.327059 
L 282.390865 492.48 
L 292.523969 423.698824 
L 302.657072 350.174118 
L 313.178786 407.096471 
L 323.157985 421.327059 
L 333.174121 357.289412 
L 343.733541 399.981176 
L 353.697349 381.007059 
L 363.728876 350.174118 
L 373.736547 430.814118 
L 383.720363 143.830588 
L 393.7011 210.24 
L 403.685686 390.494118 
L 414.144298 219.727059 
L 424.10195 407.096471 
L 434.147328 373.891765 
L 444.86681 212.611765 
L 454.90911 433.185882 
L 464.994503 416.583529 
L 476.224179 378.635294 
L 486.155667 440.301176 
L 496.182577 233.957647 
L 506.391094 369.148235 
L 516.758903 442.672941 
L 526.925096 381.007059 
L 536.968165 442.672941 
L 547.095113 169.92 
L 557.068925 392.865882 
L 567.039658 381.007059 
L 577.108122 388.122353 
L 587.475161 392.865882 
L 597.833736 392.865882 
L 607.906816 376.263529 
L 618.157657 345.430588 
L 628.655516 378.635294 
L 638.717823 321.712941 
L 648.727033 243.444706 
L 658.750865 399.981176 
L 668.75161 390.494118 
L 678.759281 366.776471 
L 688.767722 312.225882 
L 698.92622 383.378824 
L 709.408688 312.225882 
L 719.731864 442.672941 
L 730.034263 418.955294 
L 740.213538 404.724706 
L 750.731404 426.070588 
L 761.08767 350.174118 
L 771.086107 302.738824 
L 781.52856 269.534118 
L 791.929458 257.675294 
L 801.926356 397.609412 
L 811.919406 409.468235 
L 824.290288 252.931765 
L 834.315658 428.442353 
L 844.341028 331.2 
L 854.331001 233.957647 
L 864.304813 445.044706 
L 874.354038 395.237647 
L 884.248589 426.070588 
L 894.474805 440.301176 
L 904.863391 418.955294 
L 915.836046 191.265882 
L 926.445486 371.52 
L 936.631687 205.496471 
L 946.640127 331.2 
L 956.697818 127.228235 
L 967.406526 89.28 
L 977.40881 316.969412 
L 987.511133 248.188235 
L 997.978211 418.955294 
L 1008.032823 250.56 
L 1018.345995 188.894118 
L 1028.853088 388.122353 
L 1038.87538 385.750588 
L 1049.317063 131.971765 
L 1059.842625 366.776471 
L 1069.812589 359.661176 
L 1080.284284 426.070588 
L 1090.994531 392.865882 
L 1100.999893 414.211765 
L 1111.378476 381.007059 
L 1121.927892 407.096471 
L 1131.94172 352.545882 
L 1142.327997 207.868235 
L 1152.869718 200.752941 
L 1162.886624 357.289412 
L 1173.417572 162.804706 
L 1183.983148 373.891765 
L 1193.986972 378.635294 
L 1204.276289 290.88 
L 1214.937287 383.378824 
L 1224.949575 350.174118 
L 1235.054976 335.943529 
L 1245.272727 357.289412 
" style="fill:none;stroke:#ff0000;stroke-dasharray:5.55,2.4;stroke-dashoffset:0;stroke-width:1.5;"/>
    <defs>
     <path d="M -3 3 
L 3 3 
L 3 -3 
L -3 -3 
z
" id="mf3bea55498" style="stroke:#ff0000;stroke-linejoin:miter;"/>
    </defs>
    <g clip-path="url(#pd1b86f2ab0)">
     <use style="fill:#ff0000;stroke:#ff0000;stroke-linejoin:miter;" x="230.727273" xlink:href="#mf3bea55498" y="193.637647"/>
     <use style="fill:#ff0000;stroke:#ff0000;stroke-linejoin:miter;" x="242.516394" xlink:href="#mf3bea55498" y="369.148235"/>
     <use style="fill:#ff0000;stroke:#ff0000;stroke-linejoin:miter;" x="252.373238" xlink:href="#mf3bea55498" y="404.724706"/>
     <use style="fill:#ff0000;stroke:#ff0000;stroke-linejoin:miter;" x="262.264711" xlink:href="#mf3bea55498" y="345.430588"/>
     <use style="fill:#ff0000;stroke:#ff0000;stroke-linejoin:miter;" x="272.377038" xlink:href="#mf3bea55498" y="421.327059"/>
     <use style="fill:#ff0000;stroke:#ff0000;stroke-linejoin:miter;" x="282.390865" xlink:href="#mf3bea55498" y="492.48"/>
     <use style="fill:#ff0000;stroke:#ff0000;stroke-linejoin:miter;" x="292.523969" xlink:href="#mf3bea55498" y="423.698824"/>
     <use style="fill:#ff0000;stroke:#ff0000;stroke-linejoin:miter;" x="302.657072" xlink:href="#mf3bea55498" y="350.174118"/>
     <use style="fill:#ff0000;stroke:#ff0000;stroke-linejoin:miter;" x="313.178786" xlink:href="#mf3bea55498" y="407.096471"/>
     <use style="fill:#ff0000;stroke:#ff0000;stroke-linejoin:miter;" x="323.157985" xlink:href="#mf3bea55498" y="421.327059"/>
     <use style="fill:#ff0000;stroke:#ff0000;stroke-linejoin:miter;" x="333.174121" xlink:href="#mf3bea55498" y="357.289412"/>
     <use style="fill:#ff0000;stroke:#ff0000;stroke-linejoin:miter;" x="343.733541" xlink:href="#mf3bea55498" y="399.981176"/>
     <use style="fill:#ff0000;stroke:#ff0000;stroke-linejoin:miter;" x="353.697349" xlink:href="#mf3bea55498" y="381.007059"/>
     <use style="fill:#ff0000;stroke:#ff0000;stroke-linejoin:miter;" x="363.728876" xlink:href="#mf3bea55498" y="350.174118"/>
     <use style="fill:#ff0000;stroke:#ff0000;stroke-linejoin:miter;" x="373.736547" xlink:href="#mf3bea55498" y="430.814118"/>
     <use style="fill:#ff0000;stroke:#ff0000;stroke-linejoin:miter;" x="383.720363" xlink:href="#mf3bea55498" y="143.830588"/>
     <use style="fill:#ff0000;stroke:#ff0000;stroke-linejoin:miter;" x="393.7011" xlink:href="#mf3bea55498" y="210.24"/>
     <use style="fill:#ff0000;stroke:#ff0000;stroke-linejoin:miter;" x="403.685686" xlink:href="#mf3bea55498" y="390.494118"/>
     <use style="fill:#ff0000;stroke:#ff0000;stroke-linejoin:miter;" x="414.144298" xlink:href="#mf3bea55498" y="219.727059"/>
     <use style="fill:#ff0000;stroke:#ff0000;stroke-linejoin:miter;" x="424.10195" xlink:href="#mf3bea55498" y="407.096471"/>
     <use style="fill:#ff0000;stroke:#ff0000;stroke-linejoin:miter;" x="434.147328" xlink:href="#mf3bea55498" y="373.891765"/>
     <use style="fill:#ff0000;stroke:#ff0000;stroke-linejoin:miter;" x="444.86681" xlink:href="#mf3bea55498" y="212.611765"/>
     <use style="fill:#ff0000;stroke:#ff0000;stroke-linejoin:miter;" x="454.90911" xlink:href="#mf3bea55498" y="433.185882"/>
     <use style="fill:#ff0000;stroke:#ff0000;stroke-linejoin:miter;" x="464.994503" xlink:href="#mf3bea55498" y="416.583529"/>
     <use style="fill:#ff0000;stroke:#ff0000;stroke-linejoin:miter;" x="476.224179" xlink:href="#mf3bea55498" y="378.635294"/>
     <use style="fill:#ff0000;stroke:#ff0000;stroke-linejoin:miter;" x="486.155667" xlink:href="#mf3bea55498" y="440.301176"/>
     <use style="fill:#ff0000;stroke:#ff0000;stroke-linejoin:miter;" x="496.182577" xlink:href="#mf3bea55498" y="233.957647"/>
     <use style="fill:#ff0000;stroke:#ff0000;stroke-linejoin:miter;" x="506.391094" xlink:href="#mf3bea55498" y="369.148235"/>
     <use style="fill:#ff0000;stroke:#ff0000;stroke-linejoin:miter;" x="516.758903" xlink:href="#mf3bea55498" y="442.672941"/>
     <use style="fill:#ff0000;stroke:#ff0000;stroke-linejoin:miter;" x="526.925096" xlink:href="#mf3bea55498" y="381.007059"/>
     <use style="fill:#ff0000;stroke:#ff0000;stroke-linejoin:miter;" x="536.968165" xlink:href="#mf3bea55498" y="442.672941"/>
     <use style="fill:#ff0000;stroke:#ff0000;stroke-linejoin:miter;" x="547.095113" xlink:href="#mf3bea55498" y="169.92"/>
     <use style="fill:#ff0000;stroke:#ff0000;stroke-linejoin:miter;" x="557.068925" xlink:href="#mf3bea55498" y="392.865882"/>
     <use style="fill:#ff0000;stroke:#ff0000;stroke-linejoin:miter;" x="567.039658" xlink:href="#mf3bea55498" y="381.007059"/>
     <use style="fill:#ff0000;stroke:#ff0000;stroke-linejoin:miter;" x="577.108122" xlink:href="#mf3bea55498" y="388.122353"/>
     <use style="fill:#ff0000;stroke:#ff0000;stroke-linejoin:miter;" x="587.475161" xlink:href="#mf3bea55498" y="392.865882"/>
     <use style="fill:#ff0000;stroke:#ff0000;stroke-linejoin:miter;" x="597.833736" xlink:href="#mf3bea55498" y="392.865882"/>
     <use style="fill:#ff0000;stroke:#ff0000;stroke-linejoin:miter;" x="607.906816" xlink:href="#mf3bea55498" y="376.263529"/>
     <use style="fill:#ff0000;stroke:#ff0000;stroke-linejoin:miter;" x="618.157657" xlink:href="#mf3bea55498" y="345.430588"/>
     <use style="fill:#ff0000;stroke:#ff0000;stroke-linejoin:miter;" x="628.655516" xlink:href="#mf3bea55498" y="378.635294"/>
     <use style="fill:#ff0000;stroke:#ff0000;stroke-linejoin:miter;" x="638.717823" xlink:href="#mf3bea55498" y="321.712941"/>
     <use style="fill:#ff0000;stroke:#ff0000;stroke-linejoin:miter;" x="648.727033" xlink:href="#mf3bea55498" y="243.444706"/>
     <use style="fill:#ff0000;stroke:#ff0000;stroke-linejoin:miter;" x="658.750865" xlink:href="#mf3bea55498" y="399.981176"/>
     <use style="fill:#ff0000;stroke:#ff0000;stroke-linejoin:miter;" x="668.75161" xlink:href="#mf3bea55498" y="390.494118"/>
     <use style="fill:#ff0000;stroke:#ff0000;stroke-linejoin:miter;" x="678.759281" xlink:href="#mf3bea55498" y="366.776471"/>
     <use style="fill:#ff0000;stroke:#ff0000;stroke-linejoin:miter;" x="688.767722" xlink:href="#mf3bea55498" y="312.225882"/>
     <use style="fill:#ff0000;stroke:#ff0000;stroke-linejoin:miter;" x="698.92622" xlink:href="#mf3bea55498" y="383.378824"/>
     <use style="fill:#ff0000;stroke:#ff0000;stroke-linejoin:miter;" x="709.408688" xlink:href="#mf3bea55498" y="312.225882"/>
     <use style="fill:#ff0000;stroke:#ff0000;stroke-linejoin:miter;" x="719.731864" xlink:href="#mf3bea55498" y="442.672941"/>
     <use style="fill:#ff0000;stroke:#ff0000;stroke-linejoin:miter;" x="730.034263" xlink:href="#mf3bea55498" y="418.955294"/>
     <use style="fill:#ff0000;stroke:#ff0000;stroke-linejoin:miter;" x="740.213538" xlink:href="#mf3bea55498" y="404.724706"/>
     <use style="fill:#ff0000;stroke:#ff0000;stroke-linejoin:miter;" x="750.731404" xlink:href="#mf3bea55498" y="426.070588"/>
     <use style="fill:#ff0000;stroke:#ff0000;stroke-linejoin:miter;" x="761.08767" xlink:href="#mf3bea55498" y="350.174118"/>
     <use style="fill:#ff0000;stroke:#ff0000;stroke-linejoin:miter;" x="771.086107" xlink:href="#mf3bea55498" y="302.738824"/>
     <use style="fill:#ff0000;stroke:#ff0000;stroke-linejoin:miter;" x="781.52856" xlink:href="#mf3bea55498" y="269.534118"/>
     <use style="fill:#ff0000;stroke:#ff0000;stroke-linejoin:miter;" x="791.929458" xlink:href="#mf3bea55498" y="257.675294"/>
     <use style="fill:#ff0000;stroke:#ff0000;stroke-linejoin:miter;" x="801.926356" xlink:href="#mf3bea55498" y="397.609412"/>
     <use style="fill:#ff0000;stroke:#ff0000;stroke-linejoin:miter;" x="811.919406" xlink:href="#mf3bea55498" y="409.468235"/>
     <use style="fill:#ff0000;stroke:#ff0000;stroke-linejoin:miter;" x="824.290288" xlink:href="#mf3bea55498" y="252.931765"/>
     <use style="fill:#ff0000;stroke:#ff0000;stroke-linejoin:miter;" x="834.315658" xlink:href="#mf3bea55498" y="428.442353"/>
     <use style="fill:#ff0000;stroke:#ff0000;stroke-linejoin:miter;" x="844.341028" xlink:href="#mf3bea55498" y="331.2"/>
     <use style="fill:#ff0000;stroke:#ff0000;stroke-linejoin:miter;" x="854.331001" xlink:href="#mf3bea55498" y="233.957647"/>
     <use style="fill:#ff0000;stroke:#ff0000;stroke-linejoin:miter;" x="864.304813" xlink:href="#mf3bea55498" y="445.044706"/>
     <use style="fill:#ff0000;stroke:#ff0000;stroke-linejoin:miter;" x="874.354038" xlink:href="#mf3bea55498" y="395.237647"/>
     <use style="fill:#ff0000;stroke:#ff0000;stroke-linejoin:miter;" x="884.248589" xlink:href="#mf3bea55498" y="426.070588"/>
     <use style="fill:#ff0000;stroke:#ff0000;stroke-linejoin:miter;" x="894.474805" xlink:href="#mf3bea55498" y="440.301176"/>
     <use style="fill:#ff0000;stroke:#ff0000;stroke-linejoin:miter;" x="904.863391" xlink:href="#mf3bea55498" y="418.955294"/>
     <use style="fill:#ff0000;stroke:#ff0000;stroke-linejoin:miter;" x="915.836046" xlink:href="#mf3bea55498" y="191.265882"/>
     <use style="fill:#ff0000;stroke:#ff0000;stroke-linejoin:miter;" x="926.445486" xlink:href="#mf3bea55498" y="371.52"/>
     <use style="fill:#ff0000;stroke:#ff0000;stroke-linejoin:miter;" x="936.631687" xlink:href="#mf3bea55498" y="205.496471"/>
     <use style="fill:#ff0000;stroke:#ff0000;stroke-linejoin:miter;" x="946.640127" xlink:href="#mf3bea55498" y="331.2"/>
     <use style="fill:#ff0000;stroke:#ff0000;stroke-linejoin:miter;" x="956.697818" xlink:href="#mf3bea55498" y="127.228235"/>
     <use style="fill:#ff0000;stroke:#ff0000;stroke-linejoin:miter;" x="967.406526" xlink:href="#mf3bea55498" y="89.28"/>
     <use style="fill:#ff0000;stroke:#ff0000;stroke-linejoin:miter;" x="977.40881" xlink:href="#mf3bea55498" y="316.969412"/>
     <use style="fill:#ff0000;stroke:#ff0000;stroke-linejoin:miter;" x="987.511133" xlink:href="#mf3bea55498" y="248.188235"/>
     <use style="fill:#ff0000;stroke:#ff0000;stroke-linejoin:miter;" x="997.978211" xlink:href="#mf3bea55498" y="418.955294"/>
     <use style="fill:#ff0000;stroke:#ff0000;stroke-linejoin:miter;" x="1008.032823" xlink:href="#mf3bea55498" y="250.56"/>
     <use style="fill:#ff0000;stroke:#ff0000;stroke-linejoin:miter;" x="1018.345995" xlink:href="#mf3bea55498" y="188.894118"/>
     <use style="fill:#ff0000;stroke:#ff0000;stroke-linejoin:miter;" x="1028.853088" xlink:href="#mf3bea55498" y="388.122353"/>
     <use style="fill:#ff0000;stroke:#ff0000;stroke-linejoin:miter;" x="1038.87538" xlink:href="#mf3bea55498" y="385.750588"/>
     <use style="fill:#ff0000;stroke:#ff0000;stroke-linejoin:miter;" x="1049.317063" xlink:href="#mf3bea55498" y="131.971765"/>
     <use style="fill:#ff0000;stroke:#ff0000;stroke-linejoin:miter;" x="1059.842625" xlink:href="#mf3bea55498" y="366.776471"/>
     <use style="fill:#ff0000;stroke:#ff0000;stroke-linejoin:miter;" x="1069.812589" xlink:href="#mf3bea55498" y="359.661176"/>
     <use style="fill:#ff0000;stroke:#ff0000;stroke-linejoin:miter;" x="1080.284284" xlink:href="#mf3bea55498" y="426.070588"/>
     <use style="fill:#ff0000;stroke:#ff0000;stroke-linejoin:miter;" x="1090.994531" xlink:href="#mf3bea55498" y="392.865882"/>
     <use style="fill:#ff0000;stroke:#ff0000;stroke-linejoin:miter;" x="1100.999893" xlink:href="#mf3bea55498" y="414.211765"/>
     <use style="fill:#ff0000;stroke:#ff0000;stroke-linejoin:miter;" x="1111.378476" xlink:href="#mf3bea55498" y="381.007059"/>
     <use style="fill:#ff0000;stroke:#ff0000;stroke-linejoin:miter;" x="1121.927892" xlink:href="#mf3bea55498" y="407.096471"/>
     <use style="fill:#ff0000;stroke:#ff0000;stroke-linejoin:miter;" x="1131.94172" xlink:href="#mf3bea55498" y="352.545882"/>
     <use style="fill:#ff0000;stroke:#ff0000;stroke-linejoin:miter;" x="1142.327997" xlink:href="#mf3bea55498" y="207.868235"/>
     <use style="fill:#ff0000;stroke:#ff0000;stroke-linejoin:miter;" x="1152.869718" xlink:href="#mf3bea55498" y="200.752941"/>
     <use style="fill:#ff0000;stroke:#ff0000;stroke-linejoin:miter;" x="1162.886624" xlink:href="#mf3bea55498" y="357.289412"/>
     <use style="fill:#ff0000;stroke:#ff0000;stroke-linejoin:miter;" x="1173.417572" xlink:href="#mf3bea55498" y="162.804706"/>
     <use style="fill:#ff0000;stroke:#ff0000;stroke-linejoin:miter;" x="1183.983148" xlink:href="#mf3bea55498" y="373.891765"/>
     <use style="fill:#ff0000;stroke:#ff0000;stroke-linejoin:miter;" x="1193.986972" xlink:href="#mf3bea55498" y="378.635294"/>
     <use style="fill:#ff0000;stroke:#ff0000;stroke-linejoin:miter;" x="1204.276289" xlink:href="#mf3bea55498" y="290.88"/>
     <use style="fill:#ff0000;stroke:#ff0000;stroke-linejoin:miter;" x="1214.937287" xlink:href="#mf3bea55498" y="383.378824"/>
     <use style="fill:#ff0000;stroke:#ff0000;stroke-linejoin:miter;" x="1224.949575" xlink:href="#mf3bea55498" y="350.174118"/>
     <use style="fill:#ff0000;stroke:#ff0000;stroke-linejoin:miter;" x="1235.054976" xlink:href="#mf3bea55498" y="335.943529"/>
     <use style="fill:#ff0000;stroke:#ff0000;stroke-linejoin:miter;" x="1245.272727" xlink:href="#mf3bea55498" y="357.289412"/>
    </g>
   </g>
   <g id="line2d_17">
    <path clip-path="url(#pd1b86f2ab0)" d="M 230.727273 193.637647 
L 242.516394 369.148235 
L 252.373238 404.724706 
L 262.264711 345.430588 
L 272.377038 421.327059 
L 282.390865 492.48 
L 292.523969 423.698824 
L 302.657072 350.174118 
L 313.178786 407.096471 
L 323.157985 421.327059 
L 333.174121 357.289412 
L 343.733541 399.981176 
L 353.697349 381.007059 
L 363.728876 350.174118 
L 373.736547 430.814118 
L 383.720363 143.830588 
L 393.7011 210.24 
L 403.685686 390.494118 
L 414.144298 219.727059 
L 424.10195 407.096471 
L 434.147328 373.891765 
L 444.86681 212.611765 
L 454.90911 433.185882 
L 464.994503 416.583529 
L 476.224179 378.635294 
L 486.155667 440.301176 
L 496.182577 233.957647 
L 506.391094 369.148235 
L 516.758903 442.672941 
L 526.925096 381.007059 
L 536.968165 442.672941 
L 547.095113 169.92 
L 557.068925 392.865882 
L 567.039658 381.007059 
L 577.108122 388.122353 
L 587.475161 392.865882 
L 597.833736 392.865882 
L 607.906816 376.263529 
L 618.157657 345.430588 
L 628.655516 378.635294 
L 638.717823 321.712941 
L 648.727033 243.444706 
L 658.750865 399.981176 
L 668.75161 390.494118 
L 678.759281 366.776471 
L 688.767722 312.225882 
L 698.92622 383.378824 
L 709.408688 312.225882 
L 719.731864 442.672941 
L 730.034263 418.955294 
L 740.213538 404.724706 
L 750.731404 426.070588 
L 761.08767 350.174118 
L 771.086107 302.738824 
L 781.52856 269.534118 
L 791.929458 257.675294 
L 801.926356 397.609412 
L 811.919406 409.468235 
L 824.290288 252.931765 
L 834.315658 428.442353 
L 844.341028 331.2 
L 854.331001 233.957647 
L 864.304813 445.044706 
L 874.354038 395.237647 
L 884.248589 426.070588 
L 894.474805 440.301176 
L 904.863391 418.955294 
L 915.836046 191.265882 
L 926.445486 371.52 
L 936.631687 205.496471 
L 946.640127 331.2 
L 956.697818 127.228235 
L 967.406526 89.28 
L 977.40881 316.969412 
L 987.511133 248.188235 
L 997.978211 418.955294 
L 1008.032823 250.56 
L 1018.345995 188.894118 
L 1028.853088 388.122353 
L 1038.87538 385.750588 
L 1049.317063 131.971765 
L 1059.842625 366.776471 
L 1069.812589 359.661176 
L 1080.284284 426.070588 
L 1090.994531 392.865882 
L 1100.999893 414.211765 
L 1111.378476 381.007059 
L 1121.927892 407.096471 
L 1131.94172 352.545882 
L 1142.327997 207.868235 
L 1152.869718 200.752941 
L 1162.886624 357.289412 
L 1173.417572 162.804706 
L 1183.983148 373.891765 
L 1193.986972 378.635294 
L 1204.276289 290.88 
L 1214.937287 383.378824 
L 1224.949575 350.174118 
L 1235.054976 335.943529 
L 1245.272727 357.289412 
" style="fill:none;stroke:#800080;stroke-dasharray:9.6,2.4,1.5,2.4;stroke-dashoffset:0;stroke-width:1.5;"/>
    <defs>
     <path d="M -3 3 
L 3 -3 
M -3 -3 
L 3 3 
" id="m07881e0590" style="stroke:#800080;"/>
    </defs>
    <g clip-path="url(#pd1b86f2ab0)">
     <use style="fill:#800080;stroke:#800080;" x="230.727273" xlink:href="#m07881e0590" y="193.637647"/>
     <use style="fill:#800080;stroke:#800080;" x="242.516394" xlink:href="#m07881e0590" y="369.148235"/>
     <use style="fill:#800080;stroke:#800080;" x="252.373238" xlink:href="#m07881e0590" y="404.724706"/>
     <use style="fill:#800080;stroke:#800080;" x="262.264711" xlink:href="#m07881e0590" y="345.430588"/>
     <use style="fill:#800080;stroke:#800080;" x="272.377038" xlink:href="#m07881e0590" y="421.327059"/>
     <use style="fill:#800080;stroke:#800080;" x="282.390865" xlink:href="#m07881e0590" y="492.48"/>
     <use style="fill:#800080;stroke:#800080;" x="292.523969" xlink:href="#m07881e0590" y="423.698824"/>
     <use style="fill:#800080;stroke:#800080;" x="302.657072" xlink:href="#m07881e0590" y="350.174118"/>
     <use style="fill:#800080;stroke:#800080;" x="313.178786" xlink:href="#m07881e0590" y="407.096471"/>
     <use style="fill:#800080;stroke:#800080;" x="323.157985" xlink:href="#m07881e0590" y="421.327059"/>
     <use style="fill:#800080;stroke:#800080;" x="333.174121" xlink:href="#m07881e0590" y="357.289412"/>
     <use style="fill:#800080;stroke:#800080;" x="343.733541" xlink:href="#m07881e0590" y="399.981176"/>
     <use style="fill:#800080;stroke:#800080;" x="353.697349" xlink:href="#m07881e0590" y="381.007059"/>
     <use style="fill:#800080;stroke:#800080;" x="363.728876" xlink:href="#m07881e0590" y="350.174118"/>
     <use style="fill:#800080;stroke:#800080;" x="373.736547" xlink:href="#m07881e0590" y="430.814118"/>
     <use style="fill:#800080;stroke:#800080;" x="383.720363" xlink:href="#m07881e0590" y="143.830588"/>
     <use style="fill:#800080;stroke:#800080;" x="393.7011" xlink:href="#m07881e0590" y="210.24"/>
     <use style="fill:#800080;stroke:#800080;" x="403.685686" xlink:href="#m07881e0590" y="390.494118"/>
     <use style="fill:#800080;stroke:#800080;" x="414.144298" xlink:href="#m07881e0590" y="219.727059"/>
     <use style="fill:#800080;stroke:#800080;" x="424.10195" xlink:href="#m07881e0590" y="407.096471"/>
     <use style="fill:#800080;stroke:#800080;" x="434.147328" xlink:href="#m07881e0590" y="373.891765"/>
     <use style="fill:#800080;stroke:#800080;" x="444.86681" xlink:href="#m07881e0590" y="212.611765"/>
     <use style="fill:#800080;stroke:#800080;" x="454.90911" xlink:href="#m07881e0590" y="433.185882"/>
     <use style="fill:#800080;stroke:#800080;" x="464.994503" xlink:href="#m07881e0590" y="416.583529"/>
     <use style="fill:#800080;stroke:#800080;" x="476.224179" xlink:href="#m07881e0590" y="378.635294"/>
     <use style="fill:#800080;stroke:#800080;" x="486.155667" xlink:href="#m07881e0590" y="440.301176"/>
     <use style="fill:#800080;stroke:#800080;" x="496.182577" xlink:href="#m07881e0590" y="233.957647"/>
     <use style="fill:#800080;stroke:#800080;" x="506.391094" xlink:href="#m07881e0590" y="369.148235"/>
     <use style="fill:#800080;stroke:#800080;" x="516.758903" xlink:href="#m07881e0590" y="442.672941"/>
     <use style="fill:#800080;stroke:#800080;" x="526.925096" xlink:href="#m07881e0590" y="381.007059"/>
     <use style="fill:#800080;stroke:#800080;" x="536.968165" xlink:href="#m07881e0590" y="442.672941"/>
     <use style="fill:#800080;stroke:#800080;" x="547.095113" xlink:href="#m07881e0590" y="169.92"/>
     <use style="fill:#800080;stroke:#800080;" x="557.068925" xlink:href="#m07881e0590" y="392.865882"/>
     <use style="fill:#800080;stroke:#800080;" x="567.039658" xlink:href="#m07881e0590" y="381.007059"/>
     <use style="fill:#800080;stroke:#800080;" x="577.108122" xlink:href="#m07881e0590" y="388.122353"/>
     <use style="fill:#800080;stroke:#800080;" x="587.475161" xlink:href="#m07881e0590" y="392.865882"/>
     <use style="fill:#800080;stroke:#800080;" x="597.833736" xlink:href="#m07881e0590" y="392.865882"/>
     <use style="fill:#800080;stroke:#800080;" x="607.906816" xlink:href="#m07881e0590" y="376.263529"/>
     <use style="fill:#800080;stroke:#800080;" x="618.157657" xlink:href="#m07881e0590" y="345.430588"/>
     <use style="fill:#800080;stroke:#800080;" x="628.655516" xlink:href="#m07881e0590" y="378.635294"/>
     <use style="fill:#800080;stroke:#800080;" x="638.717823" xlink:href="#m07881e0590" y="321.712941"/>
     <use style="fill:#800080;stroke:#800080;" x="648.727033" xlink:href="#m07881e0590" y="243.444706"/>
     <use style="fill:#800080;stroke:#800080;" x="658.750865" xlink:href="#m07881e0590" y="399.981176"/>
     <use style="fill:#800080;stroke:#800080;" x="668.75161" xlink:href="#m07881e0590" y="390.494118"/>
     <use style="fill:#800080;stroke:#800080;" x="678.759281" xlink:href="#m07881e0590" y="366.776471"/>
     <use style="fill:#800080;stroke:#800080;" x="688.767722" xlink:href="#m07881e0590" y="312.225882"/>
     <use style="fill:#800080;stroke:#800080;" x="698.92622" xlink:href="#m07881e0590" y="383.378824"/>
     <use style="fill:#800080;stroke:#800080;" x="709.408688" xlink:href="#m07881e0590" y="312.225882"/>
     <use style="fill:#800080;stroke:#800080;" x="719.731864" xlink:href="#m07881e0590" y="442.672941"/>
     <use style="fill:#800080;stroke:#800080;" x="730.034263" xlink:href="#m07881e0590" y="418.955294"/>
     <use style="fill:#800080;stroke:#800080;" x="740.213538" xlink:href="#m07881e0590" y="404.724706"/>
     <use style="fill:#800080;stroke:#800080;" x="750.731404" xlink:href="#m07881e0590" y="426.070588"/>
     <use style="fill:#800080;stroke:#800080;" x="761.08767" xlink:href="#m07881e0590" y="350.174118"/>
     <use style="fill:#800080;stroke:#800080;" x="771.086107" xlink:href="#m07881e0590" y="302.738824"/>
     <use style="fill:#800080;stroke:#800080;" x="781.52856" xlink:href="#m07881e0590" y="269.534118"/>
     <use style="fill:#800080;stroke:#800080;" x="791.929458" xlink:href="#m07881e0590" y="257.675294"/>
     <use style="fill:#800080;stroke:#800080;" x="801.926356" xlink:href="#m07881e0590" y="397.609412"/>
     <use style="fill:#800080;stroke:#800080;" x="811.919406" xlink:href="#m07881e0590" y="409.468235"/>
     <use style="fill:#800080;stroke:#800080;" x="824.290288" xlink:href="#m07881e0590" y="252.931765"/>
     <use style="fill:#800080;stroke:#800080;" x="834.315658" xlink:href="#m07881e0590" y="428.442353"/>
     <use style="fill:#800080;stroke:#800080;" x="844.341028" xlink:href="#m07881e0590" y="331.2"/>
     <use style="fill:#800080;stroke:#800080;" x="854.331001" xlink:href="#m07881e0590" y="233.957647"/>
     <use style="fill:#800080;stroke:#800080;" x="864.304813" xlink:href="#m07881e0590" y="445.044706"/>
     <use style="fill:#800080;stroke:#800080;" x="874.354038" xlink:href="#m07881e0590" y="395.237647"/>
     <use style="fill:#800080;stroke:#800080;" x="884.248589" xlink:href="#m07881e0590" y="426.070588"/>
     <use style="fill:#800080;stroke:#800080;" x="894.474805" xlink:href="#m07881e0590" y="440.301176"/>
     <use style="fill:#800080;stroke:#800080;" x="904.863391" xlink:href="#m07881e0590" y="418.955294"/>
     <use style="fill:#800080;stroke:#800080;" x="915.836046" xlink:href="#m07881e0590" y="191.265882"/>
     <use style="fill:#800080;stroke:#800080;" x="926.445486" xlink:href="#m07881e0590" y="371.52"/>
     <use style="fill:#800080;stroke:#800080;" x="936.631687" xlink:href="#m07881e0590" y="205.496471"/>
     <use style="fill:#800080;stroke:#800080;" x="946.640127" xlink:href="#m07881e0590" y="331.2"/>
     <use style="fill:#800080;stroke:#800080;" x="956.697818" xlink:href="#m07881e0590" y="127.228235"/>
     <use style="fill:#800080;stroke:#800080;" x="967.406526" xlink:href="#m07881e0590" y="89.28"/>
     <use style="fill:#800080;stroke:#800080;" x="977.40881" xlink:href="#m07881e0590" y="316.969412"/>
     <use style="fill:#800080;stroke:#800080;" x="987.511133" xlink:href="#m07881e0590" y="248.188235"/>
     <use style="fill:#800080;stroke:#800080;" x="997.978211" xlink:href="#m07881e0590" y="418.955294"/>
     <use style="fill:#800080;stroke:#800080;" x="1008.032823" xlink:href="#m07881e0590" y="250.56"/>
     <use style="fill:#800080;stroke:#800080;" x="1018.345995" xlink:href="#m07881e0590" y="188.894118"/>
     <use style="fill:#800080;stroke:#800080;" x="1028.853088" xlink:href="#m07881e0590" y="388.122353"/>
     <use style="fill:#800080;stroke:#800080;" x="1038.87538" xlink:href="#m07881e0590" y="385.750588"/>
     <use style="fill:#800080;stroke:#800080;" x="1049.317063" xlink:href="#m07881e0590" y="131.971765"/>
     <use style="fill:#800080;stroke:#800080;" x="1059.842625" xlink:href="#m07881e0590" y="366.776471"/>
     <use style="fill:#800080;stroke:#800080;" x="1069.812589" xlink:href="#m07881e0590" y="359.661176"/>
     <use style="fill:#800080;stroke:#800080;" x="1080.284284" xlink:href="#m07881e0590" y="426.070588"/>
     <use style="fill:#800080;stroke:#800080;" x="1090.994531" xlink:href="#m07881e0590" y="392.865882"/>
     <use style="fill:#800080;stroke:#800080;" x="1100.999893" xlink:href="#m07881e0590" y="414.211765"/>
     <use style="fill:#800080;stroke:#800080;" x="1111.378476" xlink:href="#m07881e0590" y="381.007059"/>
     <use style="fill:#800080;stroke:#800080;" x="1121.927892" xlink:href="#m07881e0590" y="407.096471"/>
     <use style="fill:#800080;stroke:#800080;" x="1131.94172" xlink:href="#m07881e0590" y="352.545882"/>
     <use style="fill:#800080;stroke:#800080;" x="1142.327997" xlink:href="#m07881e0590" y="207.868235"/>
     <use style="fill:#800080;stroke:#800080;" x="1152.869718" xlink:href="#m07881e0590" y="200.752941"/>
     <use style="fill:#800080;stroke:#800080;" x="1162.886624" xlink:href="#m07881e0590" y="357.289412"/>
     <use style="fill:#800080;stroke:#800080;" x="1173.417572" xlink:href="#m07881e0590" y="162.804706"/>
     <use style="fill:#800080;stroke:#800080;" x="1183.983148" xlink:href="#m07881e0590" y="373.891765"/>
     <use style="fill:#800080;stroke:#800080;" x="1193.986972" xlink:href="#m07881e0590" y="378.635294"/>
     <use style="fill:#800080;stroke:#800080;" x="1204.276289" xlink:href="#m07881e0590" y="290.88"/>
     <use style="fill:#800080;stroke:#800080;" x="1214.937287" xlink:href="#m07881e0590" y="383.378824"/>
     <use style="fill:#800080;stroke:#800080;" x="1224.949575" xlink:href="#m07881e0590" y="350.174118"/>
     <use style="fill:#800080;stroke:#800080;" x="1235.054976" xlink:href="#m07881e0590" y="335.943529"/>
     <use style="fill:#800080;stroke:#800080;" x="1245.272727" xlink:href="#m07881e0590" y="357.289412"/>
    </g>
   </g>
   <g id="line2d_18">
    <path clip-path="url(#pd1b86f2ab0)" d="M 230.727273 371.425868 
L 242.516394 370.784413 
L 252.373238 370.248095 
L 262.264711 369.709893 
L 272.377038 369.159674 
L 282.390865 368.614814 
L 292.523969 368.063465 
L 302.657072 367.512115 
L 313.178786 366.939621 
L 323.157985 366.396646 
L 333.174121 365.851661 
L 343.733541 365.277115 
L 353.697349 364.734977 
L 363.728876 364.189154 
L 373.736547 363.64463 
L 383.720363 363.101403 
L 393.7011 362.558344 
L 403.685686 362.015075 
L 414.144298 361.446015 
L 424.10195 360.904212 
L 434.147328 360.357635 
L 444.86681 359.774381 
L 454.90911 359.227972 
L 464.994503 358.679218 
L 476.224179 358.068204 
L 486.155667 357.527824 
L 496.182577 356.982253 
L 506.391094 356.4268 
L 516.758903 355.86268 
L 526.925096 355.30953 
L 536.968165 354.763079 
L 547.095113 354.212065 
L 557.068925 353.669383 
L 567.039658 353.126868 
L 577.108122 352.579035 
L 587.475161 352.014957 
L 597.833736 351.45134 
L 607.906816 350.903256 
L 618.157657 350.3455 
L 628.655516 349.774304 
L 638.717823 349.226807 
L 648.727033 348.682199 
L 658.750865 348.136795 
L 668.75161 347.592647 
L 678.759281 347.048122 
L 688.767722 346.503556 
L 698.92622 345.950825 
L 709.408688 345.380466 
L 719.731864 344.818774 
L 730.034263 344.258213 
L 740.213538 343.704352 
L 750.731404 343.132067 
L 761.08767 342.568575 
L 771.086107 342.024553 
L 781.52856 341.456372 
L 791.929458 340.890451 
L 801.926356 340.346513 
L 811.919406 339.802784 
L 824.290288 339.129675 
L 834.315658 338.584187 
L 844.341028 338.0387 
L 854.331001 337.495138 
L 864.304813 336.952456 
L 874.354038 336.40567 
L 884.248589 335.8673 
L 894.474805 335.310885 
L 904.863391 334.745634 
L 915.836046 334.148604 
L 926.445486 333.571337 
L 936.631687 333.017098 
L 946.640127 332.472532 
L 956.697818 331.925286 
L 967.406526 331.342617 
L 977.40881 330.798385 
L 987.511133 330.248711 
L 997.978211 329.67919 
L 1008.032823 329.132111 
L 1018.345995 328.570964 
L 1028.853088 327.999265 
L 1038.87538 327.453945 
L 1049.317063 326.885805 
L 1059.842625 326.313102 
L 1069.812589 325.770629 
L 1080.284284 325.200857 
L 1090.994531 324.618104 
L 1100.999893 324.073705 
L 1111.378476 323.508999 
L 1121.927892 322.934998 
L 1131.94172 322.390138 
L 1142.327997 321.825013 
L 1152.869718 321.251431 
L 1162.886624 320.706404 
L 1173.417572 320.133407 
L 1183.983148 319.558526 
L 1193.986972 319.014211 
L 1204.276289 318.454362 
L 1214.937287 317.874289 
L 1224.949575 317.329514 
L 1235.054976 316.779671 
L 1245.272727 316.223716 
" style="fill:none;stroke:#0000ff;stroke-linecap:square;stroke-width:1.5;"/>
   </g>
   <g id="line2d_19">
    <path clip-path="url(#pd1b86f2ab0)" d="M 230.727273 370.272869 
L 242.516394 369.642734 
L 252.373238 369.11588 
L 262.264711 368.587175 
L 272.377038 368.046665 
L 282.390865 367.51142 
L 292.523969 366.9698 
L 302.657072 366.428179 
L 313.178786 365.865787 
L 323.157985 365.332393 
L 333.174121 364.797025 
L 343.733541 364.232618 
L 353.697349 363.700046 
L 363.728876 363.163856 
L 373.736547 362.62894 
L 383.720363 362.095299 
L 393.7011 361.561822 
L 403.685686 361.028141 
L 414.144298 360.469122 
L 424.10195 359.936879 
L 434.147328 359.399948 
L 444.86681 358.826985 
L 454.90911 358.290218 
L 464.994503 357.751148 
L 476.224179 357.150915 
L 486.155667 356.620072 
L 496.182577 356.084127 
L 506.391094 355.538476 
L 516.758903 354.984311 
L 526.925096 354.440922 
L 536.968165 353.904114 
L 547.095113 353.362822 
L 557.068925 352.829716 
L 567.039658 352.296775 
L 577.108122 351.758609 
L 587.475161 351.204485 
L 597.833736 350.650813 
L 607.906816 350.112401 
L 618.157657 349.564488 
L 628.655516 349.003371 
L 638.717823 348.465535 
L 648.727033 347.930537 
L 658.750865 347.394757 
L 668.75161 346.860211 
L 678.759281 346.325295 
L 688.767722 345.790338 
L 698.92622 345.247361 
L 709.408688 344.687067 
L 719.731864 344.135287 
L 730.034263 343.584617 
L 740.213538 343.040529 
L 750.731404 342.478343 
L 761.08767 341.924795 
L 771.086107 341.390372 
L 781.52856 340.832217 
L 791.929458 340.276283 
L 801.926356 339.741943 
L 811.919406 339.207808 
L 824.290288 338.546578 
L 834.315658 338.010716 
L 844.341028 337.474854 
L 854.331001 336.940884 
L 864.304813 336.407778 
L 874.354038 335.870641 
L 884.248589 335.341771 
L 894.474805 334.795174 
L 904.863391 334.239898 
L 915.836046 333.653403 
L 926.445486 333.086322 
L 936.631687 332.541864 
L 946.640127 332.006907 
L 956.697818 331.469317 
L 967.406526 330.896931 
L 977.40881 330.362303 
L 987.511133 329.822328 
L 997.978211 329.262856 
L 1008.032823 328.725431 
L 1018.345995 328.174186 
L 1028.853088 327.612576 
L 1038.87538 327.076878 
L 1049.317063 326.518764 
L 1059.842625 325.956167 
L 1069.812589 325.423266 
L 1080.284284 324.863548 
L 1090.994531 324.291079 
L 1100.999893 323.756287 
L 1111.378476 323.201545 
L 1121.927892 322.637673 
L 1131.94172 322.102428 
L 1142.327997 321.547275 
L 1152.869718 320.983814 
L 1162.886624 320.448405 
L 1173.417572 319.885519 
L 1183.983148 319.320783 
L 1193.986972 318.786073 
L 1204.276289 318.236103 
L 1214.937287 317.666266 
L 1224.949575 317.131103 
L 1235.054976 316.590964 
L 1245.272727 316.044819 
" style="fill:none;stroke:#008000;stroke-linecap:square;stroke-width:1.5;"/>
    <defs>
     <path d="M 0 3 
C 0.795609 3 1.55874 2.683901 2.12132 2.12132 
C 2.683901 1.55874 3 0.795609 3 0 
C 3 -0.795609 2.683901 -1.55874 2.12132 -2.12132 
C 1.55874 -2.683901 0.795609 -3 0 -3 
C -0.795609 -3 -1.55874 -2.683901 -2.12132 -2.12132 
C -2.683901 -1.55874 -3 -0.795609 -3 0 
C -3 0.795609 -2.683901 1.55874 -2.12132 2.12132 
C -1.55874 2.683901 -0.795609 3 0 3 
z
" id="m38caa95cc0" style="stroke:#008000;"/>
    </defs>
    <g clip-path="url(#pd1b86f2ab0)">
     <use style="fill:#008000;stroke:#008000;" x="230.727273" xlink:href="#m38caa95cc0" y="370.272869"/>
     <use style="fill:#008000;stroke:#008000;" x="242.516394" xlink:href="#m38caa95cc0" y="369.642734"/>
     <use style="fill:#008000;stroke:#008000;" x="252.373238" xlink:href="#m38caa95cc0" y="369.11588"/>
     <use style="fill:#008000;stroke:#008000;" x="262.264711" xlink:href="#m38caa95cc0" y="368.587175"/>
     <use style="fill:#008000;stroke:#008000;" x="272.377038" xlink:href="#m38caa95cc0" y="368.046665"/>
     <use style="fill:#008000;stroke:#008000;" x="282.390865" xlink:href="#m38caa95cc0" y="367.51142"/>
     <use style="fill:#008000;stroke:#008000;" x="292.523969" xlink:href="#m38caa95cc0" y="366.9698"/>
     <use style="fill:#008000;stroke:#008000;" x="302.657072" xlink:href="#m38caa95cc0" y="366.428179"/>
     <use style="fill:#008000;stroke:#008000;" x="313.178786" xlink:href="#m38caa95cc0" y="365.865787"/>
     <use style="fill:#008000;stroke:#008000;" x="323.157985" xlink:href="#m38caa95cc0" y="365.332393"/>
     <use style="fill:#008000;stroke:#008000;" x="333.174121" xlink:href="#m38caa95cc0" y="364.797025"/>
     <use style="fill:#008000;stroke:#008000;" x="343.733541" xlink:href="#m38caa95cc0" y="364.232618"/>
     <use style="fill:#008000;stroke:#008000;" x="353.697349" xlink:href="#m38caa95cc0" y="363.700046"/>
     <use style="fill:#008000;stroke:#008000;" x="363.728876" xlink:href="#m38caa95cc0" y="363.163856"/>
     <use style="fill:#008000;stroke:#008000;" x="373.736547" xlink:href="#m38caa95cc0" y="362.62894"/>
     <use style="fill:#008000;stroke:#008000;" x="383.720363" xlink:href="#m38caa95cc0" y="362.095299"/>
     <use style="fill:#008000;stroke:#008000;" x="393.7011" xlink:href="#m38caa95cc0" y="361.561822"/>
     <use style="fill:#008000;stroke:#008000;" x="403.685686" xlink:href="#m38caa95cc0" y="361.028141"/>
     <use style="fill:#008000;stroke:#008000;" x="414.144298" xlink:href="#m38caa95cc0" y="360.469122"/>
     <use style="fill:#008000;stroke:#008000;" x="424.10195" xlink:href="#m38caa95cc0" y="359.936879"/>
     <use style="fill:#008000;stroke:#008000;" x="434.147328" xlink:href="#m38caa95cc0" y="359.399948"/>
     <use style="fill:#008000;stroke:#008000;" x="444.86681" xlink:href="#m38caa95cc0" y="358.826985"/>
     <use style="fill:#008000;stroke:#008000;" x="454.90911" xlink:href="#m38caa95cc0" y="358.290218"/>
     <use style="fill:#008000;stroke:#008000;" x="464.994503" xlink:href="#m38caa95cc0" y="357.751148"/>
     <use style="fill:#008000;stroke:#008000;" x="476.224179" xlink:href="#m38caa95cc0" y="357.150915"/>
     <use style="fill:#008000;stroke:#008000;" x="486.155667" xlink:href="#m38caa95cc0" y="356.620072"/>
     <use style="fill:#008000;stroke:#008000;" x="496.182577" xlink:href="#m38caa95cc0" y="356.084127"/>
     <use style="fill:#008000;stroke:#008000;" x="506.391094" xlink:href="#m38caa95cc0" y="355.538476"/>
     <use style="fill:#008000;stroke:#008000;" x="516.758903" xlink:href="#m38caa95cc0" y="354.984311"/>
     <use style="fill:#008000;stroke:#008000;" x="526.925096" xlink:href="#m38caa95cc0" y="354.440922"/>
     <use style="fill:#008000;stroke:#008000;" x="536.968165" xlink:href="#m38caa95cc0" y="353.904114"/>
     <use style="fill:#008000;stroke:#008000;" x="547.095113" xlink:href="#m38caa95cc0" y="353.362822"/>
     <use style="fill:#008000;stroke:#008000;" x="557.068925" xlink:href="#m38caa95cc0" y="352.829716"/>
     <use style="fill:#008000;stroke:#008000;" x="567.039658" xlink:href="#m38caa95cc0" y="352.296775"/>
     <use style="fill:#008000;stroke:#008000;" x="577.108122" xlink:href="#m38caa95cc0" y="351.758609"/>
     <use style="fill:#008000;stroke:#008000;" x="587.475161" xlink:href="#m38caa95cc0" y="351.204485"/>
     <use style="fill:#008000;stroke:#008000;" x="597.833736" xlink:href="#m38caa95cc0" y="350.650813"/>
     <use style="fill:#008000;stroke:#008000;" x="607.906816" xlink:href="#m38caa95cc0" y="350.112401"/>
     <use style="fill:#008000;stroke:#008000;" x="618.157657" xlink:href="#m38caa95cc0" y="349.564488"/>
     <use style="fill:#008000;stroke:#008000;" x="628.655516" xlink:href="#m38caa95cc0" y="349.003371"/>
     <use style="fill:#008000;stroke:#008000;" x="638.717823" xlink:href="#m38caa95cc0" y="348.465535"/>
     <use style="fill:#008000;stroke:#008000;" x="648.727033" xlink:href="#m38caa95cc0" y="347.930537"/>
     <use style="fill:#008000;stroke:#008000;" x="658.750865" xlink:href="#m38caa95cc0" y="347.394757"/>
     <use style="fill:#008000;stroke:#008000;" x="668.75161" xlink:href="#m38caa95cc0" y="346.860211"/>
     <use style="fill:#008000;stroke:#008000;" x="678.759281" xlink:href="#m38caa95cc0" y="346.325295"/>
     <use style="fill:#008000;stroke:#008000;" x="688.767722" xlink:href="#m38caa95cc0" y="345.790338"/>
     <use style="fill:#008000;stroke:#008000;" x="698.92622" xlink:href="#m38caa95cc0" y="345.247361"/>
     <use style="fill:#008000;stroke:#008000;" x="709.408688" xlink:href="#m38caa95cc0" y="344.687067"/>
     <use style="fill:#008000;stroke:#008000;" x="719.731864" xlink:href="#m38caa95cc0" y="344.135287"/>
     <use style="fill:#008000;stroke:#008000;" x="730.034263" xlink:href="#m38caa95cc0" y="343.584617"/>
     <use style="fill:#008000;stroke:#008000;" x="740.213538" xlink:href="#m38caa95cc0" y="343.040529"/>
     <use style="fill:#008000;stroke:#008000;" x="750.731404" xlink:href="#m38caa95cc0" y="342.478343"/>
     <use style="fill:#008000;stroke:#008000;" x="761.08767" xlink:href="#m38caa95cc0" y="341.924795"/>
     <use style="fill:#008000;stroke:#008000;" x="771.086107" xlink:href="#m38caa95cc0" y="341.390372"/>
     <use style="fill:#008000;stroke:#008000;" x="781.52856" xlink:href="#m38caa95cc0" y="340.832217"/>
     <use style="fill:#008000;stroke:#008000;" x="791.929458" xlink:href="#m38caa95cc0" y="340.276283"/>
     <use style="fill:#008000;stroke:#008000;" x="801.926356" xlink:href="#m38caa95cc0" y="339.741943"/>
     <use style="fill:#008000;stroke:#008000;" x="811.919406" xlink:href="#m38caa95cc0" y="339.207808"/>
     <use style="fill:#008000;stroke:#008000;" x="824.290288" xlink:href="#m38caa95cc0" y="338.546578"/>
     <use style="fill:#008000;stroke:#008000;" x="834.315658" xlink:href="#m38caa95cc0" y="338.010716"/>
     <use style="fill:#008000;stroke:#008000;" x="844.341028" xlink:href="#m38caa95cc0" y="337.474854"/>
     <use style="fill:#008000;stroke:#008000;" x="854.331001" xlink:href="#m38caa95cc0" y="336.940884"/>
     <use style="fill:#008000;stroke:#008000;" x="864.304813" xlink:href="#m38caa95cc0" y="336.407778"/>
     <use style="fill:#008000;stroke:#008000;" x="874.354038" xlink:href="#m38caa95cc0" y="335.870641"/>
     <use style="fill:#008000;stroke:#008000;" x="884.248589" xlink:href="#m38caa95cc0" y="335.341771"/>
     <use style="fill:#008000;stroke:#008000;" x="894.474805" xlink:href="#m38caa95cc0" y="334.795174"/>
     <use style="fill:#008000;stroke:#008000;" x="904.863391" xlink:href="#m38caa95cc0" y="334.239898"/>
     <use style="fill:#008000;stroke:#008000;" x="915.836046" xlink:href="#m38caa95cc0" y="333.653403"/>
     <use style="fill:#008000;stroke:#008000;" x="926.445486" xlink:href="#m38caa95cc0" y="333.086322"/>
     <use style="fill:#008000;stroke:#008000;" x="936.631687" xlink:href="#m38caa95cc0" y="332.541864"/>
     <use style="fill:#008000;stroke:#008000;" x="946.640127" xlink:href="#m38caa95cc0" y="332.006907"/>
     <use style="fill:#008000;stroke:#008000;" x="956.697818" xlink:href="#m38caa95cc0" y="331.469317"/>
     <use style="fill:#008000;stroke:#008000;" x="967.406526" xlink:href="#m38caa95cc0" y="330.896931"/>
     <use style="fill:#008000;stroke:#008000;" x="977.40881" xlink:href="#m38caa95cc0" y="330.362303"/>
     <use style="fill:#008000;stroke:#008000;" x="987.511133" xlink:href="#m38caa95cc0" y="329.822328"/>
     <use style="fill:#008000;stroke:#008000;" x="997.978211" xlink:href="#m38caa95cc0" y="329.262856"/>
     <use style="fill:#008000;stroke:#008000;" x="1008.032823" xlink:href="#m38caa95cc0" y="328.725431"/>
     <use style="fill:#008000;stroke:#008000;" x="1018.345995" xlink:href="#m38caa95cc0" y="328.174186"/>
     <use style="fill:#008000;stroke:#008000;" x="1028.853088" xlink:href="#m38caa95cc0" y="327.612576"/>
     <use style="fill:#008000;stroke:#008000;" x="1038.87538" xlink:href="#m38caa95cc0" y="327.076878"/>
     <use style="fill:#008000;stroke:#008000;" x="1049.317063" xlink:href="#m38caa95cc0" y="326.518764"/>
     <use style="fill:#008000;stroke:#008000;" x="1059.842625" xlink:href="#m38caa95cc0" y="325.956167"/>
     <use style="fill:#008000;stroke:#008000;" x="1069.812589" xlink:href="#m38caa95cc0" y="325.423266"/>
     <use style="fill:#008000;stroke:#008000;" x="1080.284284" xlink:href="#m38caa95cc0" y="324.863548"/>
     <use style="fill:#008000;stroke:#008000;" x="1090.994531" xlink:href="#m38caa95cc0" y="324.291079"/>
     <use style="fill:#008000;stroke:#008000;" x="1100.999893" xlink:href="#m38caa95cc0" y="323.756287"/>
     <use style="fill:#008000;stroke:#008000;" x="1111.378476" xlink:href="#m38caa95cc0" y="323.201545"/>
     <use style="fill:#008000;stroke:#008000;" x="1121.927892" xlink:href="#m38caa95cc0" y="322.637673"/>
     <use style="fill:#008000;stroke:#008000;" x="1131.94172" xlink:href="#m38caa95cc0" y="322.102428"/>
     <use style="fill:#008000;stroke:#008000;" x="1142.327997" xlink:href="#m38caa95cc0" y="321.547275"/>
     <use style="fill:#008000;stroke:#008000;" x="1152.869718" xlink:href="#m38caa95cc0" y="320.983814"/>
     <use style="fill:#008000;stroke:#008000;" x="1162.886624" xlink:href="#m38caa95cc0" y="320.448405"/>
     <use style="fill:#008000;stroke:#008000;" x="1173.417572" xlink:href="#m38caa95cc0" y="319.885519"/>
     <use style="fill:#008000;stroke:#008000;" x="1183.983148" xlink:href="#m38caa95cc0" y="319.320783"/>
     <use style="fill:#008000;stroke:#008000;" x="1193.986972" xlink:href="#m38caa95cc0" y="318.786073"/>
     <use style="fill:#008000;stroke:#008000;" x="1204.276289" xlink:href="#m38caa95cc0" y="318.236103"/>
     <use style="fill:#008000;stroke:#008000;" x="1214.937287" xlink:href="#m38caa95cc0" y="317.666266"/>
     <use style="fill:#008000;stroke:#008000;" x="1224.949575" xlink:href="#m38caa95cc0" y="317.131103"/>
     <use style="fill:#008000;stroke:#008000;" x="1235.054976" xlink:href="#m38caa95cc0" y="316.590964"/>
     <use style="fill:#008000;stroke:#008000;" x="1245.272727" xlink:href="#m38caa95cc0" y="316.044819"/>
    </g>
   </g>
   <g id="patch_3">
    <path d="M 180 512.64 
L 180 69.12 
" style="fill:none;stroke:#000000;stroke-linecap:square;stroke-linejoin:miter;stroke-width:0.8;"/>
   </g>
   <g id="patch_4">
    <path d="M 1296 512.64 
L 1296 69.12 
" style="fill:none;stroke:#000000;stroke-linecap:square;stroke-linejoin:miter;stroke-width:0.8;"/>
   </g>
   <g id="patch_5">
    <path d="M 180 512.64 
L 1296 512.64 
" style="fill:none;stroke:#000000;stroke-linecap:square;stroke-linejoin:miter;stroke-width:0.8;"/>
   </g>
   <g id="patch_6">
    <path d="M 180 69.12 
L 1296 69.12 
" style="fill:none;stroke:#000000;stroke-linecap:square;stroke-linejoin:miter;stroke-width:0.8;"/>
   </g>
   <g id="text_16">
    <!-- 500000.0 bit/s -->
    <defs>
     <path id="DejaVuSans-20"/>
     <path d="M 48.6875 27.296875 
Q 48.6875 37.203125 44.609375 42.84375 
Q 40.53125 48.484375 33.40625 48.484375 
Q 26.265625 48.484375 22.1875 42.84375 
Q 18.109375 37.203125 18.109375 27.296875 
Q 18.109375 17.390625 22.1875 11.75 
Q 26.265625 6.109375 33.40625 6.109375 
Q 40.53125 6.109375 44.609375 11.75 
Q 48.6875 17.390625 48.6875 27.296875 
z
M 18.109375 46.390625 
Q 20.953125 51.265625 25.265625 53.625 
Q 29.59375 56 35.59375 56 
Q 45.5625 56 51.78125 48.09375 
Q 58.015625 40.1875 58.015625 27.296875 
Q 58.015625 14.40625 51.78125 6.484375 
Q 45.5625 -1.421875 35.59375 -1.421875 
Q 29.59375 -1.421875 25.265625 0.953125 
Q 20.953125 3.328125 18.109375 8.203125 
L 18.109375 0 
L 9.078125 0 
L 9.078125 75.984375 
L 18.109375 75.984375 
z
" id="DejaVuSans-62"/>
     <path d="M 9.421875 54.6875 
L 18.40625 54.6875 
L 18.40625 0 
L 9.421875 0 
z
M 9.421875 75.984375 
L 18.40625 75.984375 
L 18.40625 64.59375 
L 9.421875 64.59375 
z
" id="DejaVuSans-69"/>
     <path d="M 18.3125 70.21875 
L 18.3125 54.6875 
L 36.8125 54.6875 
L 36.8125 47.703125 
L 18.3125 47.703125 
L 18.3125 18.015625 
Q 18.3125 11.328125 20.140625 9.421875 
Q 21.96875 7.515625 27.59375 7.515625 
L 36.8125 7.515625 
L 36.8125 0 
L 27.59375 0 
Q 17.1875 0 13.234375 3.875 
Q 9.28125 7.765625 9.28125 18.015625 
L 9.28125 47.703125 
L 2.6875 47.703125 
L 2.6875 54.6875 
L 9.28125 54.6875 
L 9.28125 70.21875 
z
" id="DejaVuSans-74"/>
     <path d="M 25.390625 72.90625 
L 33.6875 72.90625 
L 8.296875 -9.28125 
L 0 -9.28125 
z
" id="DejaVuSans-2f"/>
     <path d="M 44.28125 53.078125 
L 44.28125 44.578125 
Q 40.484375 46.53125 36.375 47.5 
Q 32.28125 48.484375 27.875 48.484375 
Q 21.1875 48.484375 17.84375 46.4375 
Q 14.5 44.390625 14.5 40.28125 
Q 14.5 37.15625 16.890625 35.375 
Q 19.28125 33.59375 26.515625 31.984375 
L 29.59375 31.296875 
Q 39.15625 29.25 43.1875 25.515625 
Q 47.21875 21.78125 47.21875 15.09375 
Q 47.21875 7.46875 41.1875 3.015625 
Q 35.15625 -1.421875 24.609375 -1.421875 
Q 20.21875 -1.421875 15.453125 -0.5625 
Q 10.6875 0.296875 5.421875 2 
L 5.421875 11.28125 
Q 10.40625 8.6875 15.234375 7.390625 
Q 20.0625 6.109375 24.8125 6.109375 
Q 31.15625 6.109375 34.5625 8.28125 
Q 37.984375 10.453125 37.984375 14.40625 
Q 37.984375 18.0625 35.515625 20.015625 
Q 33.0625 21.96875 24.703125 23.78125 
L 21.578125 24.515625 
Q 13.234375 26.265625 9.515625 29.90625 
Q 5.8125 33.546875 5.8125 39.890625 
Q 5.8125 47.609375 11.28125 51.796875 
Q 16.75 56 26.8125 56 
Q 31.78125 56 36.171875 55.265625 
Q 40.578125 54.546875 44.28125 53.078125 
z
" id="DejaVuSans-73"/>
    </defs>
    <g transform="translate(694.48875 63.12)scale(0.12 -0.12)">
     <use xlink:href="#DejaVuSans-35"/>
     <use x="63.623047" xlink:href="#DejaVuSans-30"/>
     <use x="127.246094" xlink:href="#DejaVuSans-30"/>
     <use x="190.869141" xlink:href="#DejaVuSans-30"/>
     <use x="254.492188" xlink:href="#DejaVuSans-30"/>
     <use x="318.115234" xlink:href="#DejaVuSans-30"/>
     <use x="381.738281" xlink:href="#DejaVuSans-2e"/>
     <use x="413.525391" xlink:href="#DejaVuSans-30"/>
     <use x="477.148438" xlink:href="#DejaVuSans-20"/>
     <use x="508.935547" xlink:href="#DejaVuSans-62"/>
     <use x="572.412109" xlink:href="#DejaVuSans-69"/>
     <use x="600.195312" xlink:href="#DejaVuSans-74"/>
     <use x="639.404297" xlink:href="#DejaVuSans-2f"/>
     <use x="673.095703" xlink:href="#DejaVuSans-73"/>
    </g>
   </g>
   <g id="legend_1">
    <g id="patch_7">
     <path d="M 1173.520313 135.8325 
L 1289 135.8325 
Q 1291 135.8325 1291 133.8325 
L 1291 76.12 
Q 1291 74.12 1289 74.12 
L 1173.520313 74.12 
Q 1171.520313 74.12 1171.520313 76.12 
L 1171.520313 133.8325 
Q 1171.520313 135.8325 1173.520313 135.8325 
z
" style="fill:#ffffff;opacity:0.8;stroke:#cccccc;stroke-linejoin:miter;"/>
    </g>
    <g id="line2d_20">
     <path d="M 1175.520313 82.218437 
L 1195.520313 82.218437 
" style="fill:none;stroke:#ff0000;stroke-dasharray:5.55,2.4;stroke-dashoffset:0;stroke-width:1.5;"/>
    </g>
    <g id="line2d_21">
     <g>
      <use style="fill:#ff0000;stroke:#ff0000;stroke-linejoin:miter;" x="1185.520313" xlink:href="#mf3bea55498" y="82.218437"/>
     </g>
    </g>
    <g id="text_17">
     <!-- tcpdump -->
     <defs>
      <path d="M 48.78125 52.59375 
L 48.78125 44.1875 
Q 44.96875 46.296875 41.140625 47.34375 
Q 37.3125 48.390625 33.40625 48.390625 
Q 24.65625 48.390625 19.8125 42.84375 
Q 14.984375 37.3125 14.984375 27.296875 
Q 14.984375 17.28125 19.8125 11.734375 
Q 24.65625 6.203125 33.40625 6.203125 
Q 37.3125 6.203125 41.140625 7.25 
Q 44.96875 8.296875 48.78125 10.40625 
L 48.78125 2.09375 
Q 45.015625 0.34375 40.984375 -0.53125 
Q 36.96875 -1.421875 32.421875 -1.421875 
Q 20.0625 -1.421875 12.78125 6.34375 
Q 5.515625 14.109375 5.515625 27.296875 
Q 5.515625 40.671875 12.859375 48.328125 
Q 20.21875 56 33.015625 56 
Q 37.15625 56 41.109375 55.140625 
Q 45.0625 54.296875 48.78125 52.59375 
z
" id="DejaVuSans-63"/>
      <path d="M 18.109375 8.203125 
L 18.109375 -20.796875 
L 9.078125 -20.796875 
L 9.078125 54.6875 
L 18.109375 54.6875 
L 18.109375 46.390625 
Q 20.953125 51.265625 25.265625 53.625 
Q 29.59375 56 35.59375 56 
Q 45.5625 56 51.78125 48.09375 
Q 58.015625 40.1875 58.015625 27.296875 
Q 58.015625 14.40625 51.78125 6.484375 
Q 45.5625 -1.421875 35.59375 -1.421875 
Q 29.59375 -1.421875 25.265625 0.953125 
Q 20.953125 3.328125 18.109375 8.203125 
z
M 48.6875 27.296875 
Q 48.6875 37.203125 44.609375 42.84375 
Q 40.53125 48.484375 33.40625 48.484375 
Q 26.265625 48.484375 22.1875 42.84375 
Q 18.109375 37.203125 18.109375 27.296875 
Q 18.109375 17.390625 22.1875 11.75 
Q 26.265625 6.109375 33.40625 6.109375 
Q 40.53125 6.109375 44.609375 11.75 
Q 48.6875 17.390625 48.6875 27.296875 
z
" id="DejaVuSans-70"/>
      <path d="M 45.40625 46.390625 
L 45.40625 75.984375 
L 54.390625 75.984375 
L 54.390625 0 
L 45.40625 0 
L 45.40625 8.203125 
Q 42.578125 3.328125 38.25 0.953125 
Q 33.9375 -1.421875 27.875 -1.421875 
Q 17.96875 -1.421875 11.734375 6.484375 
Q 5.515625 14.40625 5.515625 27.296875 
Q 5.515625 40.1875 11.734375 48.09375 
Q 17.96875 56 27.875 56 
Q 33.9375 56 38.25 53.625 
Q 42.578125 51.265625 45.40625 46.390625 
z
M 14.796875 27.296875 
Q 14.796875 17.390625 18.875 11.75 
Q 22.953125 6.109375 30.078125 6.109375 
Q 37.203125 6.109375 41.296875 11.75 
Q 45.40625 17.390625 45.40625 27.296875 
Q 45.40625 37.203125 41.296875 42.84375 
Q 37.203125 48.484375 30.078125 48.484375 
Q 22.953125 48.484375 18.875 42.84375 
Q 14.796875 37.203125 14.796875 27.296875 
z
" id="DejaVuSans-64"/>
      <path d="M 8.5 21.578125 
L 8.5 54.6875 
L 17.484375 54.6875 
L 17.484375 21.921875 
Q 17.484375 14.15625 20.5 10.265625 
Q 23.53125 6.390625 29.59375 6.390625 
Q 36.859375 6.390625 41.078125 11.03125 
Q 45.3125 15.671875 45.3125 23.6875 
L 45.3125 54.6875 
L 54.296875 54.6875 
L 54.296875 0 
L 45.3125 0 
L 45.3125 8.40625 
Q 42.046875 3.421875 37.71875 1 
Q 33.40625 -1.421875 27.6875 -1.421875 
Q 18.265625 -1.421875 13.375 4.4375 
Q 8.5 10.296875 8.5 21.578125 
z
M 31.109375 56 
z
" id="DejaVuSans-75"/>
      <path d="M 52 44.1875 
Q 55.375 50.25 60.0625 53.125 
Q 64.75 56 71.09375 56 
Q 79.640625 56 84.28125 50.015625 
Q 88.921875 44.046875 88.921875 33.015625 
L 88.921875 0 
L 79.890625 0 
L 79.890625 32.71875 
Q 79.890625 40.578125 77.09375 44.375 
Q 74.3125 48.1875 68.609375 48.1875 
Q 61.625 48.1875 57.5625 43.546875 
Q 53.515625 38.921875 53.515625 30.90625 
L 53.515625 0 
L 44.484375 0 
L 44.484375 32.71875 
Q 44.484375 40.625 41.703125 44.40625 
Q 38.921875 48.1875 33.109375 48.1875 
Q 26.21875 48.1875 22.15625 43.53125 
Q 18.109375 38.875 18.109375 30.90625 
L 18.109375 0 
L 9.078125 0 
L 9.078125 54.6875 
L 18.109375 54.6875 
L 18.109375 46.1875 
Q 21.1875 51.21875 25.484375 53.609375 
Q 29.78125 56 35.6875 56 
Q 41.65625 56 45.828125 52.96875 
Q 50 49.953125 52 44.1875 
z
" id="DejaVuSans-6d"/>
     </defs>
     <g transform="translate(1203.520313 85.718437)scale(0.1 -0.1)">
      <use xlink:href="#DejaVuSans-74"/>
      <use x="39.208984" xlink:href="#DejaVuSans-63"/>
      <use x="94.189453" xlink:href="#DejaVuSans-70"/>
      <use x="157.666016" xlink:href="#DejaVuSans-64"/>
      <use x="221.142578" xlink:href="#DejaVuSans-75"/>
      <use x="284.521484" xlink:href="#DejaVuSans-6d"/>
      <use x="381.933594" xlink:href="#DejaVuSans-70"/>
     </g>
    </g>
    <g id="line2d_22">
     <path d="M 1175.520313 96.896563 
L 1195.520313 96.896563 
" style="fill:none;stroke:#800080;stroke-dasharray:9.6,2.4,1.5,2.4;stroke-dashoffset:0;stroke-width:1.5;"/>
    </g>
    <g id="line2d_23">
     <g>
      <use style="fill:#800080;stroke:#800080;" x="1185.520313" xlink:href="#m07881e0590" y="96.896563"/>
     </g>
    </g>
    <g id="text_18">
     <!-- filtered tcpdump -->
     <defs>
      <path d="M 37.109375 75.984375 
L 37.109375 68.5 
L 28.515625 68.5 
Q 23.6875 68.5 21.796875 66.546875 
Q 19.921875 64.59375 19.921875 59.515625 
L 19.921875 54.6875 
L 34.71875 54.6875 
L 34.71875 47.703125 
L 19.921875 47.703125 
L 19.921875 0 
L 10.890625 0 
L 10.890625 47.703125 
L 2.296875 47.703125 
L 2.296875 54.6875 
L 10.890625 54.6875 
L 10.890625 58.5 
Q 10.890625 67.625 15.140625 71.796875 
Q 19.390625 75.984375 28.609375 75.984375 
z
" id="DejaVuSans-66"/>
      <path d="M 9.421875 75.984375 
L 18.40625 75.984375 
L 18.40625 0 
L 9.421875 0 
z
" id="DejaVuSans-6c"/>
      <path d="M 56.203125 29.59375 
L 56.203125 25.203125 
L 14.890625 25.203125 
Q 15.484375 15.921875 20.484375 11.0625 
Q 25.484375 6.203125 34.421875 6.203125 
Q 39.59375 6.203125 44.453125 7.46875 
Q 49.3125 8.734375 54.109375 11.28125 
L 54.109375 2.78125 
Q 49.265625 0.734375 44.1875 -0.34375 
Q 39.109375 -1.421875 33.890625 -1.421875 
Q 20.796875 -1.421875 13.15625 6.1875 
Q 5.515625 13.8125 5.515625 26.8125 
Q 5.515625 40.234375 12.765625 48.109375 
Q 20.015625 56 32.328125 56 
Q 43.359375 56 49.78125 48.890625 
Q 56.203125 41.796875 56.203125 29.59375 
z
M 47.21875 32.234375 
Q 47.125 39.59375 43.09375 43.984375 
Q 39.0625 48.390625 32.421875 48.390625 
Q 24.90625 48.390625 20.390625 44.140625 
Q 15.875 39.890625 15.1875 32.171875 
z
" id="DejaVuSans-65"/>
      <path d="M 41.109375 46.296875 
Q 39.59375 47.171875 37.8125 47.578125 
Q 36.03125 48 33.890625 48 
Q 26.265625 48 22.1875 43.046875 
Q 18.109375 38.09375 18.109375 28.8125 
L 18.109375 0 
L 9.078125 0 
L 9.078125 54.6875 
L 18.109375 54.6875 
L 18.109375 46.1875 
Q 20.953125 51.171875 25.484375 53.578125 
Q 30.03125 56 36.53125 56 
Q 37.453125 56 38.578125 55.875 
Q 39.703125 55.765625 41.0625 55.515625 
z
" id="DejaVuSans-72"/>
     </defs>
     <g transform="translate(1203.520313 100.396563)scale(0.1 -0.1)">
      <use xlink:href="#DejaVuSans-66"/>
      <use x="35.205078" xlink:href="#DejaVuSans-69"/>
      <use x="62.988281" xlink:href="#DejaVuSans-6c"/>
      <use x="90.771484" xlink:href="#DejaVuSans-74"/>
      <use x="129.980469" xlink:href="#DejaVuSans-65"/>
      <use x="191.503906" xlink:href="#DejaVuSans-72"/>
      <use x="232.585938" xlink:href="#DejaVuSans-65"/>
      <use x="294.109375" xlink:href="#DejaVuSans-64"/>
      <use x="357.585938" xlink:href="#DejaVuSans-20"/>
      <use x="389.373047" xlink:href="#DejaVuSans-74"/>
      <use x="428.582031" xlink:href="#DejaVuSans-63"/>
      <use x="483.5625" xlink:href="#DejaVuSans-70"/>
      <use x="547.039062" xlink:href="#DejaVuSans-64"/>
      <use x="610.515625" xlink:href="#DejaVuSans-75"/>
      <use x="673.894531" xlink:href="#DejaVuSans-6d"/>
      <use x="771.306641" xlink:href="#DejaVuSans-70"/>
     </g>
    </g>
    <g id="line2d_24">
     <path d="M 1175.520313 111.574687 
L 1195.520313 111.574687 
" style="fill:none;stroke:#0000ff;stroke-linecap:square;stroke-width:1.5;"/>
    </g>
    <g id="line2d_25"/>
    <g id="text_19">
     <!-- OLS -->
     <defs>
      <path d="M 39.40625 66.21875 
Q 28.65625 66.21875 22.328125 58.203125 
Q 16.015625 50.203125 16.015625 36.375 
Q 16.015625 22.609375 22.328125 14.59375 
Q 28.65625 6.59375 39.40625 6.59375 
Q 50.140625 6.59375 56.421875 14.59375 
Q 62.703125 22.609375 62.703125 36.375 
Q 62.703125 50.203125 56.421875 58.203125 
Q 50.140625 66.21875 39.40625 66.21875 
z
M 39.40625 74.21875 
Q 54.734375 74.21875 63.90625 63.9375 
Q 73.09375 53.65625 73.09375 36.375 
Q 73.09375 19.140625 63.90625 8.859375 
Q 54.734375 -1.421875 39.40625 -1.421875 
Q 24.03125 -1.421875 14.8125 8.828125 
Q 5.609375 19.09375 5.609375 36.375 
Q 5.609375 53.65625 14.8125 63.9375 
Q 24.03125 74.21875 39.40625 74.21875 
z
" id="DejaVuSans-4f"/>
      <path d="M 9.8125 72.90625 
L 19.671875 72.90625 
L 19.671875 8.296875 
L 55.171875 8.296875 
L 55.171875 0 
L 9.8125 0 
z
" id="DejaVuSans-4c"/>
      <path d="M 53.515625 70.515625 
L 53.515625 60.890625 
Q 47.90625 63.578125 42.921875 64.890625 
Q 37.9375 66.21875 33.296875 66.21875 
Q 25.25 66.21875 20.875 63.09375 
Q 16.5 59.96875 16.5 54.203125 
Q 16.5 49.359375 19.40625 46.890625 
Q 22.3125 44.4375 30.421875 42.921875 
L 36.375 41.703125 
Q 47.40625 39.59375 52.65625 34.296875 
Q 57.90625 29 57.90625 20.125 
Q 57.90625 9.515625 50.796875 4.046875 
Q 43.703125 -1.421875 29.984375 -1.421875 
Q 24.8125 -1.421875 18.96875 -0.25 
Q 13.140625 0.921875 6.890625 3.21875 
L 6.890625 13.375 
Q 12.890625 10.015625 18.65625 8.296875 
Q 24.421875 6.59375 29.984375 6.59375 
Q 38.421875 6.59375 43.015625 9.90625 
Q 47.609375 13.234375 47.609375 19.390625 
Q 47.609375 24.75 44.3125 27.78125 
Q 41.015625 30.8125 33.5 32.328125 
L 27.484375 33.5 
Q 16.453125 35.6875 11.515625 40.375 
Q 6.59375 45.0625 6.59375 53.421875 
Q 6.59375 63.09375 13.40625 68.65625 
Q 20.21875 74.21875 32.171875 74.21875 
Q 37.3125 74.21875 42.625 73.28125 
Q 47.953125 72.359375 53.515625 70.515625 
z
" id="DejaVuSans-53"/>
     </defs>
     <g transform="translate(1203.520313 115.074687)scale(0.1 -0.1)">
      <use xlink:href="#DejaVuSans-4f"/>
      <use x="78.710938" xlink:href="#DejaVuSans-4c"/>
      <use x="134.423828" xlink:href="#DejaVuSans-53"/>
     </g>
    </g>
    <g id="line2d_26">
     <path d="M 1175.520313 126.252813 
L 1195.520313 126.252813 
" style="fill:none;stroke:#008000;stroke-linecap:square;stroke-width:1.5;"/>
    </g>
    <g id="line2d_27">
     <g>
      <use style="fill:#008000;stroke:#008000;" x="1185.520313" xlink:href="#m38caa95cc0" y="126.252813"/>
     </g>
    </g>
    <g id="text_20">
     <!-- IRLS -->
     <defs>
      <path d="M 9.8125 72.90625 
L 19.671875 72.90625 
L 19.671875 0 
L 9.8125 0 
z
" id="DejaVuSans-49"/>
      <path d="M 44.390625 34.1875 
Q 47.5625 33.109375 50.5625 29.59375 
Q 53.5625 26.078125 56.59375 19.921875 
L 66.609375 0 
L 56 0 
L 46.6875 18.703125 
Q 43.0625 26.03125 39.671875 28.421875 
Q 36.28125 30.8125 30.421875 30.8125 
L 19.671875 30.8125 
L 19.671875 0 
L 9.8125 0 
L 9.8125 72.90625 
L 32.078125 72.90625 
Q 44.578125 72.90625 50.734375 67.671875 
Q 56.890625 62.453125 56.890625 51.90625 
Q 56.890625 45.015625 53.6875 40.46875 
Q 50.484375 35.9375 44.390625 34.1875 
z
M 19.671875 64.796875 
L 19.671875 38.921875 
L 32.078125 38.921875 
Q 39.203125 38.921875 42.84375 42.21875 
Q 46.484375 45.515625 46.484375 51.90625 
Q 46.484375 58.296875 42.84375 61.546875 
Q 39.203125 64.796875 32.078125 64.796875 
z
" id="DejaVuSans-52"/>
     </defs>
     <g transform="translate(1203.520313 129.752813)scale(0.1 -0.1)">
      <use xlink:href="#DejaVuSans-49"/>
      <use x="29.492188" xlink:href="#DejaVuSans-52"/>
      <use x="98.974609" xlink:href="#DejaVuSans-4c"/>
      <use x="154.6875" xlink:href="#DejaVuSans-53"/>
     </g>
    </g>
   </g>
  </g>
 </g>
 <defs>
  <clipPath id="pd1b86f2ab0">
   <rect height="443.52" width="1116" x="180" y="69.12"/>
  </clipPath>
 </defs>
</svg>
