<?xml version="1.0" encoding="utf-8" standalone="no"?>
<!DOCTYPE svg PUBLIC "-//W3C//DTD SVG 1.1//EN"
  "http://www.w3.org/Graphics/SVG/1.1/DTD/svg11.dtd">
<!-- Created with matplotlib (http://matplotlib.org/) -->
<svg height="576pt" version="1.1" viewBox="0 0 1440 576" width="1440pt" xmlns="http://www.w3.org/2000/svg" xmlns:xlink="http://www.w3.org/1999/xlink">
 <defs>
  <style type="text/css">
*{stroke-linecap:butt;stroke-linejoin:round;}
  </style>
 </defs>
 <g id="figure_1">
  <g id="patch_1">
   <path d="M 0 576 
L 1440 576 
L 1440 0 
L 0 0 
z
" style="fill:#ffffff;"/>
  </g>
  <g id="axes_1">
   <g id="patch_2">
    <path d="M 180 512.64 
L 1296 512.64 
L 1296 69.12 
L 180 69.12 
z
" style="fill:#ffffff;"/>
   </g>
   <g id="matplotlib.axis_1">
    <g id="xtick_1">
     <g id="line2d_1">
      <defs>
       <path d="M 0 0 
L 0 3.5 
" id="m2b222b8dc9" style="stroke:#000000;stroke-width:0.8;"/>
      </defs>
      <g>
       <use style="stroke:#000000;stroke-width:0.8;" x="230.727273" xlink:href="#m2b222b8dc9" y="512.64"/>
      </g>
     </g>
     <g id="text_1">
      <!-- 0.0 -->
      <defs>
       <path d="M 31.78125 66.40625 
Q 24.171875 66.40625 20.328125 58.90625 
Q 16.5 51.421875 16.5 36.375 
Q 16.5 21.390625 20.328125 13.890625 
Q 24.171875 6.390625 31.78125 6.390625 
Q 39.453125 6.390625 43.28125 13.890625 
Q 47.125 21.390625 47.125 36.375 
Q 47.125 51.421875 43.28125 58.90625 
Q 39.453125 66.40625 31.78125 66.40625 
z
M 31.78125 74.21875 
Q 44.046875 74.21875 50.515625 64.515625 
Q 56.984375 54.828125 56.984375 36.375 
Q 56.984375 17.96875 50.515625 8.265625 
Q 44.046875 -1.421875 31.78125 -1.421875 
Q 19.53125 -1.421875 13.0625 8.265625 
Q 6.59375 17.96875 6.59375 36.375 
Q 6.59375 54.828125 13.0625 64.515625 
Q 19.53125 74.21875 31.78125 74.21875 
z
" id="DejaVuSans-30"/>
       <path d="M 10.6875 12.40625 
L 21 12.40625 
L 21 0 
L 10.6875 0 
z
" id="DejaVuSans-2e"/>
      </defs>
      <g transform="translate(222.77571 527.238438)scale(0.1 -0.1)">
       <use xlink:href="#DejaVuSans-30"/>
       <use x="63.623047" xlink:href="#DejaVuSans-2e"/>
       <use x="95.410156" xlink:href="#DejaVuSans-30"/>
      </g>
     </g>
    </g>
    <g id="xtick_2">
     <g id="line2d_2">
      <g>
       <use style="stroke:#000000;stroke-width:0.8;" x="385.733182" xlink:href="#m2b222b8dc9" y="512.64"/>
      </g>
     </g>
     <g id="text_2">
      <!-- 0.2 -->
      <defs>
       <path d="M 19.1875 8.296875 
L 53.609375 8.296875 
L 53.609375 0 
L 7.328125 0 
L 7.328125 8.296875 
Q 12.9375 14.109375 22.625 23.890625 
Q 32.328125 33.6875 34.8125 36.53125 
Q 39.546875 41.84375 41.421875 45.53125 
Q 43.3125 49.21875 43.3125 52.78125 
Q 43.3125 58.59375 39.234375 62.25 
Q 35.15625 65.921875 28.609375 65.921875 
Q 23.96875 65.921875 18.8125 64.3125 
Q 13.671875 62.703125 7.8125 59.421875 
L 7.8125 69.390625 
Q 13.765625 71.78125 18.9375 73 
Q 24.125 74.21875 28.421875 74.21875 
Q 39.75 74.21875 46.484375 68.546875 
Q 53.21875 62.890625 53.21875 53.421875 
Q 53.21875 48.921875 51.53125 44.890625 
Q 49.859375 40.875 45.40625 35.40625 
Q 44.1875 33.984375 37.640625 27.21875 
Q 31.109375 20.453125 19.1875 8.296875 
z
" id="DejaVuSans-32"/>
      </defs>
      <g transform="translate(377.78162 527.238438)scale(0.1 -0.1)">
       <use xlink:href="#DejaVuSans-30"/>
       <use x="63.623047" xlink:href="#DejaVuSans-2e"/>
       <use x="95.410156" xlink:href="#DejaVuSans-32"/>
      </g>
     </g>
    </g>
    <g id="xtick_3">
     <g id="line2d_3">
      <g>
       <use style="stroke:#000000;stroke-width:0.8;" x="540.739092" xlink:href="#m2b222b8dc9" y="512.64"/>
      </g>
     </g>
     <g id="text_3">
      <!-- 0.4 -->
      <defs>
       <path d="M 37.796875 64.3125 
L 12.890625 25.390625 
L 37.796875 25.390625 
z
M 35.203125 72.90625 
L 47.609375 72.90625 
L 47.609375 25.390625 
L 58.015625 25.390625 
L 58.015625 17.1875 
L 47.609375 17.1875 
L 47.609375 0 
L 37.796875 0 
L 37.796875 17.1875 
L 4.890625 17.1875 
L 4.890625 26.703125 
z
" id="DejaVuSans-34"/>
      </defs>
      <g transform="translate(532.787529 527.238438)scale(0.1 -0.1)">
       <use xlink:href="#DejaVuSans-30"/>
       <use x="63.623047" xlink:href="#DejaVuSans-2e"/>
       <use x="95.410156" xlink:href="#DejaVuSans-34"/>
      </g>
     </g>
    </g>
    <g id="xtick_4">
     <g id="line2d_4">
      <g>
       <use style="stroke:#000000;stroke-width:0.8;" x="695.745002" xlink:href="#m2b222b8dc9" y="512.64"/>
      </g>
     </g>
     <g id="text_4">
      <!-- 0.6 -->
      <defs>
       <path d="M 33.015625 40.375 
Q 26.375 40.375 22.484375 35.828125 
Q 18.609375 31.296875 18.609375 23.390625 
Q 18.609375 15.53125 22.484375 10.953125 
Q 26.375 6.390625 33.015625 6.390625 
Q 39.65625 6.390625 43.53125 10.953125 
Q 47.40625 15.53125 47.40625 23.390625 
Q 47.40625 31.296875 43.53125 35.828125 
Q 39.65625 40.375 33.015625 40.375 
z
M 52.59375 71.296875 
L 52.59375 62.3125 
Q 48.875 64.0625 45.09375 64.984375 
Q 41.3125 65.921875 37.59375 65.921875 
Q 27.828125 65.921875 22.671875 59.328125 
Q 17.53125 52.734375 16.796875 39.40625 
Q 19.671875 43.65625 24.015625 45.921875 
Q 28.375 48.1875 33.59375 48.1875 
Q 44.578125 48.1875 50.953125 41.515625 
Q 57.328125 34.859375 57.328125 23.390625 
Q 57.328125 12.15625 50.6875 5.359375 
Q 44.046875 -1.421875 33.015625 -1.421875 
Q 20.359375 -1.421875 13.671875 8.265625 
Q 6.984375 17.96875 6.984375 36.375 
Q 6.984375 53.65625 15.1875 63.9375 
Q 23.390625 74.21875 37.203125 74.21875 
Q 40.921875 74.21875 44.703125 73.484375 
Q 48.484375 72.75 52.59375 71.296875 
z
" id="DejaVuSans-36"/>
      </defs>
      <g transform="translate(687.793439 527.238438)scale(0.1 -0.1)">
       <use xlink:href="#DejaVuSans-30"/>
       <use x="63.623047" xlink:href="#DejaVuSans-2e"/>
       <use x="95.410156" xlink:href="#DejaVuSans-36"/>
      </g>
     </g>
    </g>
    <g id="xtick_5">
     <g id="line2d_5">
      <g>
       <use style="stroke:#000000;stroke-width:0.8;" x="850.750911" xlink:href="#m2b222b8dc9" y="512.64"/>
      </g>
     </g>
     <g id="text_5">
      <!-- 0.8 -->
      <defs>
       <path d="M 31.78125 34.625 
Q 24.75 34.625 20.71875 30.859375 
Q 16.703125 27.09375 16.703125 20.515625 
Q 16.703125 13.921875 20.71875 10.15625 
Q 24.75 6.390625 31.78125 6.390625 
Q 38.8125 6.390625 42.859375 10.171875 
Q 46.921875 13.96875 46.921875 20.515625 
Q 46.921875 27.09375 42.890625 30.859375 
Q 38.875 34.625 31.78125 34.625 
z
M 21.921875 38.8125 
Q 15.578125 40.375 12.03125 44.71875 
Q 8.5 49.078125 8.5 55.328125 
Q 8.5 64.0625 14.71875 69.140625 
Q 20.953125 74.21875 31.78125 74.21875 
Q 42.671875 74.21875 48.875 69.140625 
Q 55.078125 64.0625 55.078125 55.328125 
Q 55.078125 49.078125 51.53125 44.71875 
Q 48 40.375 41.703125 38.8125 
Q 48.828125 37.15625 52.796875 32.3125 
Q 56.78125 27.484375 56.78125 20.515625 
Q 56.78125 9.90625 50.3125 4.234375 
Q 43.84375 -1.421875 31.78125 -1.421875 
Q 19.734375 -1.421875 13.25 4.234375 
Q 6.78125 9.90625 6.78125 20.515625 
Q 6.78125 27.484375 10.78125 32.3125 
Q 14.796875 37.15625 21.921875 38.8125 
z
M 18.3125 54.390625 
Q 18.3125 48.734375 21.84375 45.5625 
Q 25.390625 42.390625 31.78125 42.390625 
Q 38.140625 42.390625 41.71875 45.5625 
Q 45.3125 48.734375 45.3125 54.390625 
Q 45.3125 60.0625 41.71875 63.234375 
Q 38.140625 66.40625 31.78125 66.40625 
Q 25.390625 66.40625 21.84375 63.234375 
Q 18.3125 60.0625 18.3125 54.390625 
z
" id="DejaVuSans-38"/>
      </defs>
      <g transform="translate(842.799349 527.238438)scale(0.1 -0.1)">
       <use xlink:href="#DejaVuSans-30"/>
       <use x="63.623047" xlink:href="#DejaVuSans-2e"/>
       <use x="95.410156" xlink:href="#DejaVuSans-38"/>
      </g>
     </g>
    </g>
    <g id="xtick_6">
     <g id="line2d_6">
      <g>
       <use style="stroke:#000000;stroke-width:0.8;" x="1005.756821" xlink:href="#m2b222b8dc9" y="512.64"/>
      </g>
     </g>
     <g id="text_6">
      <!-- 1.0 -->
      <defs>
       <path d="M 12.40625 8.296875 
L 28.515625 8.296875 
L 28.515625 63.921875 
L 10.984375 60.40625 
L 10.984375 69.390625 
L 28.421875 72.90625 
L 38.28125 72.90625 
L 38.28125 8.296875 
L 54.390625 8.296875 
L 54.390625 0 
L 12.40625 0 
z
" id="DejaVuSans-31"/>
      </defs>
      <g transform="translate(997.805258 527.238438)scale(0.1 -0.1)">
       <use xlink:href="#DejaVuSans-31"/>
       <use x="63.623047" xlink:href="#DejaVuSans-2e"/>
       <use x="95.410156" xlink:href="#DejaVuSans-30"/>
      </g>
     </g>
    </g>
    <g id="xtick_7">
     <g id="line2d_7">
      <g>
       <use style="stroke:#000000;stroke-width:0.8;" x="1160.76273" xlink:href="#m2b222b8dc9" y="512.64"/>
      </g>
     </g>
     <g id="text_7">
      <!-- 1.2 -->
      <g transform="translate(1152.811168 527.238438)scale(0.1 -0.1)">
       <use xlink:href="#DejaVuSans-31"/>
       <use x="63.623047" xlink:href="#DejaVuSans-2e"/>
       <use x="95.410156" xlink:href="#DejaVuSans-32"/>
      </g>
     </g>
    </g>
   </g>
   <g id="matplotlib.axis_2">
    <g id="ytick_1">
     <g id="line2d_8">
      <defs>
       <path d="M 0 0 
L -3.5 0 
" id="m52837c232a" style="stroke:#000000;stroke-width:0.8;"/>
      </defs>
      <g>
       <use style="stroke:#000000;stroke-width:0.8;" x="180" xlink:href="#m52837c232a" y="486.760851"/>
      </g>
     </g>
     <g id="text_8">
      <!-- 0.3002 -->
      <defs>
       <path d="M 40.578125 39.3125 
Q 47.65625 37.796875 51.625 33 
Q 55.609375 28.21875 55.609375 21.1875 
Q 55.609375 10.40625 48.1875 4.484375 
Q 40.765625 -1.421875 27.09375 -1.421875 
Q 22.515625 -1.421875 17.65625 -0.515625 
Q 12.796875 0.390625 7.625 2.203125 
L 7.625 11.71875 
Q 11.71875 9.328125 16.59375 8.109375 
Q 21.484375 6.890625 26.8125 6.890625 
Q 36.078125 6.890625 40.9375 10.546875 
Q 45.796875 14.203125 45.796875 21.1875 
Q 45.796875 27.640625 41.28125 31.265625 
Q 36.765625 34.90625 28.71875 34.90625 
L 20.21875 34.90625 
L 20.21875 43.015625 
L 29.109375 43.015625 
Q 36.375 43.015625 40.234375 45.921875 
Q 44.09375 48.828125 44.09375 54.296875 
Q 44.09375 59.90625 40.109375 62.90625 
Q 36.140625 65.921875 28.71875 65.921875 
Q 24.65625 65.921875 20.015625 65.03125 
Q 15.375 64.15625 9.8125 62.3125 
L 9.8125 71.09375 
Q 15.4375 72.65625 20.34375 73.4375 
Q 25.25 74.21875 29.59375 74.21875 
Q 40.828125 74.21875 47.359375 69.109375 
Q 53.90625 64.015625 53.90625 55.328125 
Q 53.90625 49.265625 50.4375 45.09375 
Q 46.96875 40.921875 40.578125 39.3125 
z
" id="DejaVuSans-33"/>
      </defs>
      <g transform="translate(138.009375 490.56007)scale(0.1 -0.1)">
       <use xlink:href="#DejaVuSans-30"/>
       <use x="63.623047" xlink:href="#DejaVuSans-2e"/>
       <use x="95.410156" xlink:href="#DejaVuSans-33"/>
       <use x="159.033203" xlink:href="#DejaVuSans-30"/>
       <use x="222.65625" xlink:href="#DejaVuSans-30"/>
       <use x="286.279297" xlink:href="#DejaVuSans-32"/>
      </g>
     </g>
    </g>
    <g id="ytick_2">
     <g id="line2d_9">
      <g>
       <use style="stroke:#000000;stroke-width:0.8;" x="180" xlink:href="#m52837c232a" y="415.271489"/>
      </g>
     </g>
     <g id="text_9">
      <!-- 0.3003 -->
      <g transform="translate(138.009375 419.070708)scale(0.1 -0.1)">
       <use xlink:href="#DejaVuSans-30"/>
       <use x="63.623047" xlink:href="#DejaVuSans-2e"/>
       <use x="95.410156" xlink:href="#DejaVuSans-33"/>
       <use x="159.033203" xlink:href="#DejaVuSans-30"/>
       <use x="222.65625" xlink:href="#DejaVuSans-30"/>
       <use x="286.279297" xlink:href="#DejaVuSans-33"/>
      </g>
     </g>
    </g>
    <g id="ytick_3">
     <g id="line2d_10">
      <g>
       <use style="stroke:#000000;stroke-width:0.8;" x="180" xlink:href="#m52837c232a" y="343.782128"/>
      </g>
     </g>
     <g id="text_10">
      <!-- 0.3004 -->
      <g transform="translate(138.009375 347.581346)scale(0.1 -0.1)">
       <use xlink:href="#DejaVuSans-30"/>
       <use x="63.623047" xlink:href="#DejaVuSans-2e"/>
       <use x="95.410156" xlink:href="#DejaVuSans-33"/>
       <use x="159.033203" xlink:href="#DejaVuSans-30"/>
       <use x="222.65625" xlink:href="#DejaVuSans-30"/>
       <use x="286.279297" xlink:href="#DejaVuSans-34"/>
      </g>
     </g>
    </g>
    <g id="ytick_4">
     <g id="line2d_11">
      <g>
       <use style="stroke:#000000;stroke-width:0.8;" x="180" xlink:href="#m52837c232a" y="272.292766"/>
      </g>
     </g>
     <g id="text_11">
      <!-- 0.3005 -->
      <defs>
       <path d="M 10.796875 72.90625 
L 49.515625 72.90625 
L 49.515625 64.59375 
L 19.828125 64.59375 
L 19.828125 46.734375 
Q 21.96875 47.46875 24.109375 47.828125 
Q 26.265625 48.1875 28.421875 48.1875 
Q 40.625 48.1875 47.75 41.5 
Q 54.890625 34.8125 54.890625 23.390625 
Q 54.890625 11.625 47.5625 5.09375 
Q 40.234375 -1.421875 26.90625 -1.421875 
Q 22.3125 -1.421875 17.546875 -0.640625 
Q 12.796875 0.140625 7.71875 1.703125 
L 7.71875 11.625 
Q 12.109375 9.234375 16.796875 8.0625 
Q 21.484375 6.890625 26.703125 6.890625 
Q 35.15625 6.890625 40.078125 11.328125 
Q 45.015625 15.765625 45.015625 23.390625 
Q 45.015625 31 40.078125 35.4375 
Q 35.15625 39.890625 26.703125 39.890625 
Q 22.75 39.890625 18.8125 39.015625 
Q 14.890625 38.140625 10.796875 36.28125 
z
" id="DejaVuSans-35"/>
      </defs>
      <g transform="translate(138.009375 276.091985)scale(0.1 -0.1)">
       <use xlink:href="#DejaVuSans-30"/>
       <use x="63.623047" xlink:href="#DejaVuSans-2e"/>
       <use x="95.410156" xlink:href="#DejaVuSans-33"/>
       <use x="159.033203" xlink:href="#DejaVuSans-30"/>
       <use x="222.65625" xlink:href="#DejaVuSans-30"/>
       <use x="286.279297" xlink:href="#DejaVuSans-35"/>
      </g>
     </g>
    </g>
    <g id="ytick_5">
     <g id="line2d_12">
      <g>
       <use style="stroke:#000000;stroke-width:0.8;" x="180" xlink:href="#m52837c232a" y="200.803404"/>
      </g>
     </g>
     <g id="text_12">
      <!-- 0.3006 -->
      <g transform="translate(138.009375 204.602623)scale(0.1 -0.1)">
       <use xlink:href="#DejaVuSans-30"/>
       <use x="63.623047" xlink:href="#DejaVuSans-2e"/>
       <use x="95.410156" xlink:href="#DejaVuSans-33"/>
       <use x="159.033203" xlink:href="#DejaVuSans-30"/>
       <use x="222.65625" xlink:href="#DejaVuSans-30"/>
       <use x="286.279297" xlink:href="#DejaVuSans-36"/>
      </g>
     </g>
    </g>
    <g id="ytick_6">
     <g id="line2d_13">
      <g>
       <use style="stroke:#000000;stroke-width:0.8;" x="180" xlink:href="#m52837c232a" y="129.314043"/>
      </g>
     </g>
     <g id="text_13">
      <!-- 0.3007 -->
      <defs>
       <path d="M 8.203125 72.90625 
L 55.078125 72.90625 
L 55.078125 68.703125 
L 28.609375 0 
L 18.3125 0 
L 43.21875 64.59375 
L 8.203125 64.59375 
z
" id="DejaVuSans-37"/>
      </defs>
      <g transform="translate(138.009375 133.113261)scale(0.1 -0.1)">
       <use xlink:href="#DejaVuSans-30"/>
       <use x="63.623047" xlink:href="#DejaVuSans-2e"/>
       <use x="95.410156" xlink:href="#DejaVuSans-33"/>
       <use x="159.033203" xlink:href="#DejaVuSans-30"/>
       <use x="222.65625" xlink:href="#DejaVuSans-30"/>
       <use x="286.279297" xlink:href="#DejaVuSans-37"/>
      </g>
     </g>
    </g>
   </g>
   <g id="line2d_14">
    <path clip-path="url(#p464a22ea89)" d="M 230.727273 328.054468 
L 242.425569 338.777872 
L 252.586206 308.037447 
L 262.729018 326.624681 
L 273.812715 293.024681 
L 283.950877 339.492766 
L 294.213818 346.641702 
L 305.096008 362.369362 
L 315.219444 349.501277 
L 325.316529 355.220426 
L 336.35295 211.526809 
L 346.462435 328.054468 
L 356.610672 355.220426 
L 367.727696 333.773617 
L 377.824006 339.492766 
L 387.922641 368.088511 
L 399.083841 341.637447 
L 409.189452 344.497021 
L 419.286537 358.794894 
L 430.39426 320.190638 
L 440.524671 353.790638 
L 450.634932 360.224681 
L 461.677553 327.339574 
L 471.846715 359.509787 
L 482.212736 359.509787 
L 493.039123 365.228936 
L 503.17806 320.905532 
L 513.53168 344.497021 
L 524.406119 303.033191 
L 534.554356 326.624681 
L 544.897125 351.645957 
L 555.696387 363.084255 
L 565.869425 345.926809 
L 576.176543 300.888511 
L 587.043232 325.194894 
L 597.206195 347.356596 
L 607.512538 297.314043 
L 618.471455 302.318298 
L 628.654569 338.777872 
L 639.030664 329.484255 
L 649.899679 366.658723 
L 660.057991 346.641702 
L 670.53329 123.594894 
L 681.227148 338.777872 
L 691.37461 369.518298 
L 701.834409 185.790638 
L 712.539117 361.654468 
L 722.764082 385.245957 
L 733.305259 334.488511 
L 744.036318 372.377872 
L 754.209355 394.539574 
L 764.598627 306.60766 
L 775.327361 403.118298 
L 785.494973 401.688511 
L 795.871069 325.194894 
L 806.660255 441.00766 
L 816.822443 452.445957 
L 827.175287 413.841702 
L 837.899371 420.275745 
L 848.105735 474.60766 
L 858.408978 478.182128 
L 869.170263 434.573617 
L 879.329351 492.48 
L 889.711647 466.74383 
L 900.509358 490.335319 
L 910.628919 155.765106 
L 920.407467 492.48 
L 930.130212 200.803404 
L 939.790956 207.95234 
L 949.47185 174.35234 
L 959.163594 458.88 
L 968.832088 89.28 
L 978.59126 141.467234 
L 988.364383 244.411915 
L 998.216558 473.177872 
L 1007.971855 392.394894 
L 1017.623298 375.95234 
L 1027.292567 378.811915 
L 1037.004462 425.28 
L 1046.64738 365.228936 
L 1056.346099 403.118298 
L 1066.003743 316.61617 
L 1075.710213 405.977872 
L 1085.403507 276.582128 
L 1095.065026 375.237447 
L 1104.75522 140.75234 
L 1114.434564 358.08 
L 1124.213887 254.420426 
L 1134.022661 312.326809 
L 1143.943039 364.514043 
L 1153.978122 379.526809 
L 1164.196886 364.514043 
L 1174.251345 360.224681 
L 1184.343004 335.918298 
L 1194.409863 318.045957 
L 1204.725506 290.88 
L 1214.804766 350.21617 
L 1224.887125 324.48 
L 1235.044662 313.041702 
L 1245.272727 292.309787 
" style="fill:none;stroke:#ff0000;stroke-dasharray:5.55,2.4;stroke-dashoffset:0;stroke-width:1.5;"/>
    <defs>
     <path d="M -3 3 
L 3 3 
L 3 -3 
L -3 -3 
z
" id="mcc7a731fc7" style="stroke:#ff0000;stroke-linejoin:miter;"/>
    </defs>
    <g clip-path="url(#p464a22ea89)">
     <use style="fill:#ff0000;stroke:#ff0000;stroke-linejoin:miter;" x="230.727273" xlink:href="#mcc7a731fc7" y="328.054468"/>
     <use style="fill:#ff0000;stroke:#ff0000;stroke-linejoin:miter;" x="242.425569" xlink:href="#mcc7a731fc7" y="338.777872"/>
     <use style="fill:#ff0000;stroke:#ff0000;stroke-linejoin:miter;" x="252.586206" xlink:href="#mcc7a731fc7" y="308.037447"/>
     <use style="fill:#ff0000;stroke:#ff0000;stroke-linejoin:miter;" x="262.729018" xlink:href="#mcc7a731fc7" y="326.624681"/>
     <use style="fill:#ff0000;stroke:#ff0000;stroke-linejoin:miter;" x="273.812715" xlink:href="#mcc7a731fc7" y="293.024681"/>
     <use style="fill:#ff0000;stroke:#ff0000;stroke-linejoin:miter;" x="283.950877" xlink:href="#mcc7a731fc7" y="339.492766"/>
     <use style="fill:#ff0000;stroke:#ff0000;stroke-linejoin:miter;" x="294.213818" xlink:href="#mcc7a731fc7" y="346.641702"/>
     <use style="fill:#ff0000;stroke:#ff0000;stroke-linejoin:miter;" x="305.096008" xlink:href="#mcc7a731fc7" y="362.369362"/>
     <use style="fill:#ff0000;stroke:#ff0000;stroke-linejoin:miter;" x="315.219444" xlink:href="#mcc7a731fc7" y="349.501277"/>
     <use style="fill:#ff0000;stroke:#ff0000;stroke-linejoin:miter;" x="325.316529" xlink:href="#mcc7a731fc7" y="355.220426"/>
     <use style="fill:#ff0000;stroke:#ff0000;stroke-linejoin:miter;" x="336.35295" xlink:href="#mcc7a731fc7" y="211.526809"/>
     <use style="fill:#ff0000;stroke:#ff0000;stroke-linejoin:miter;" x="346.462435" xlink:href="#mcc7a731fc7" y="328.054468"/>
     <use style="fill:#ff0000;stroke:#ff0000;stroke-linejoin:miter;" x="356.610672" xlink:href="#mcc7a731fc7" y="355.220426"/>
     <use style="fill:#ff0000;stroke:#ff0000;stroke-linejoin:miter;" x="367.727696" xlink:href="#mcc7a731fc7" y="333.773617"/>
     <use style="fill:#ff0000;stroke:#ff0000;stroke-linejoin:miter;" x="377.824006" xlink:href="#mcc7a731fc7" y="339.492766"/>
     <use style="fill:#ff0000;stroke:#ff0000;stroke-linejoin:miter;" x="387.922641" xlink:href="#mcc7a731fc7" y="368.088511"/>
     <use style="fill:#ff0000;stroke:#ff0000;stroke-linejoin:miter;" x="399.083841" xlink:href="#mcc7a731fc7" y="341.637447"/>
     <use style="fill:#ff0000;stroke:#ff0000;stroke-linejoin:miter;" x="409.189452" xlink:href="#mcc7a731fc7" y="344.497021"/>
     <use style="fill:#ff0000;stroke:#ff0000;stroke-linejoin:miter;" x="419.286537" xlink:href="#mcc7a731fc7" y="358.794894"/>
     <use style="fill:#ff0000;stroke:#ff0000;stroke-linejoin:miter;" x="430.39426" xlink:href="#mcc7a731fc7" y="320.190638"/>
     <use style="fill:#ff0000;stroke:#ff0000;stroke-linejoin:miter;" x="440.524671" xlink:href="#mcc7a731fc7" y="353.790638"/>
     <use style="fill:#ff0000;stroke:#ff0000;stroke-linejoin:miter;" x="450.634932" xlink:href="#mcc7a731fc7" y="360.224681"/>
     <use style="fill:#ff0000;stroke:#ff0000;stroke-linejoin:miter;" x="461.677553" xlink:href="#mcc7a731fc7" y="327.339574"/>
     <use style="fill:#ff0000;stroke:#ff0000;stroke-linejoin:miter;" x="471.846715" xlink:href="#mcc7a731fc7" y="359.509787"/>
     <use style="fill:#ff0000;stroke:#ff0000;stroke-linejoin:miter;" x="482.212736" xlink:href="#mcc7a731fc7" y="359.509787"/>
     <use style="fill:#ff0000;stroke:#ff0000;stroke-linejoin:miter;" x="493.039123" xlink:href="#mcc7a731fc7" y="365.228936"/>
     <use style="fill:#ff0000;stroke:#ff0000;stroke-linejoin:miter;" x="503.17806" xlink:href="#mcc7a731fc7" y="320.905532"/>
     <use style="fill:#ff0000;stroke:#ff0000;stroke-linejoin:miter;" x="513.53168" xlink:href="#mcc7a731fc7" y="344.497021"/>
     <use style="fill:#ff0000;stroke:#ff0000;stroke-linejoin:miter;" x="524.406119" xlink:href="#mcc7a731fc7" y="303.033191"/>
     <use style="fill:#ff0000;stroke:#ff0000;stroke-linejoin:miter;" x="534.554356" xlink:href="#mcc7a731fc7" y="326.624681"/>
     <use style="fill:#ff0000;stroke:#ff0000;stroke-linejoin:miter;" x="544.897125" xlink:href="#mcc7a731fc7" y="351.645957"/>
     <use style="fill:#ff0000;stroke:#ff0000;stroke-linejoin:miter;" x="555.696387" xlink:href="#mcc7a731fc7" y="363.084255"/>
     <use style="fill:#ff0000;stroke:#ff0000;stroke-linejoin:miter;" x="565.869425" xlink:href="#mcc7a731fc7" y="345.926809"/>
     <use style="fill:#ff0000;stroke:#ff0000;stroke-linejoin:miter;" x="576.176543" xlink:href="#mcc7a731fc7" y="300.888511"/>
     <use style="fill:#ff0000;stroke:#ff0000;stroke-linejoin:miter;" x="587.043232" xlink:href="#mcc7a731fc7" y="325.194894"/>
     <use style="fill:#ff0000;stroke:#ff0000;stroke-linejoin:miter;" x="597.206195" xlink:href="#mcc7a731fc7" y="347.356596"/>
     <use style="fill:#ff0000;stroke:#ff0000;stroke-linejoin:miter;" x="607.512538" xlink:href="#mcc7a731fc7" y="297.314043"/>
     <use style="fill:#ff0000;stroke:#ff0000;stroke-linejoin:miter;" x="618.471455" xlink:href="#mcc7a731fc7" y="302.318298"/>
     <use style="fill:#ff0000;stroke:#ff0000;stroke-linejoin:miter;" x="628.654569" xlink:href="#mcc7a731fc7" y="338.777872"/>
     <use style="fill:#ff0000;stroke:#ff0000;stroke-linejoin:miter;" x="639.030664" xlink:href="#mcc7a731fc7" y="329.484255"/>
     <use style="fill:#ff0000;stroke:#ff0000;stroke-linejoin:miter;" x="649.899679" xlink:href="#mcc7a731fc7" y="366.658723"/>
     <use style="fill:#ff0000;stroke:#ff0000;stroke-linejoin:miter;" x="660.057991" xlink:href="#mcc7a731fc7" y="346.641702"/>
     <use style="fill:#ff0000;stroke:#ff0000;stroke-linejoin:miter;" x="670.53329" xlink:href="#mcc7a731fc7" y="123.594894"/>
     <use style="fill:#ff0000;stroke:#ff0000;stroke-linejoin:miter;" x="681.227148" xlink:href="#mcc7a731fc7" y="338.777872"/>
     <use style="fill:#ff0000;stroke:#ff0000;stroke-linejoin:miter;" x="691.37461" xlink:href="#mcc7a731fc7" y="369.518298"/>
     <use style="fill:#ff0000;stroke:#ff0000;stroke-linejoin:miter;" x="701.834409" xlink:href="#mcc7a731fc7" y="185.790638"/>
     <use style="fill:#ff0000;stroke:#ff0000;stroke-linejoin:miter;" x="712.539117" xlink:href="#mcc7a731fc7" y="361.654468"/>
     <use style="fill:#ff0000;stroke:#ff0000;stroke-linejoin:miter;" x="722.764082" xlink:href="#mcc7a731fc7" y="385.245957"/>
     <use style="fill:#ff0000;stroke:#ff0000;stroke-linejoin:miter;" x="733.305259" xlink:href="#mcc7a731fc7" y="334.488511"/>
     <use style="fill:#ff0000;stroke:#ff0000;stroke-linejoin:miter;" x="744.036318" xlink:href="#mcc7a731fc7" y="372.377872"/>
     <use style="fill:#ff0000;stroke:#ff0000;stroke-linejoin:miter;" x="754.209355" xlink:href="#mcc7a731fc7" y="394.539574"/>
     <use style="fill:#ff0000;stroke:#ff0000;stroke-linejoin:miter;" x="764.598627" xlink:href="#mcc7a731fc7" y="306.60766"/>
     <use style="fill:#ff0000;stroke:#ff0000;stroke-linejoin:miter;" x="775.327361" xlink:href="#mcc7a731fc7" y="403.118298"/>
     <use style="fill:#ff0000;stroke:#ff0000;stroke-linejoin:miter;" x="785.494973" xlink:href="#mcc7a731fc7" y="401.688511"/>
     <use style="fill:#ff0000;stroke:#ff0000;stroke-linejoin:miter;" x="795.871069" xlink:href="#mcc7a731fc7" y="325.194894"/>
     <use style="fill:#ff0000;stroke:#ff0000;stroke-linejoin:miter;" x="806.660255" xlink:href="#mcc7a731fc7" y="441.00766"/>
     <use style="fill:#ff0000;stroke:#ff0000;stroke-linejoin:miter;" x="816.822443" xlink:href="#mcc7a731fc7" y="452.445957"/>
     <use style="fill:#ff0000;stroke:#ff0000;stroke-linejoin:miter;" x="827.175287" xlink:href="#mcc7a731fc7" y="413.841702"/>
     <use style="fill:#ff0000;stroke:#ff0000;stroke-linejoin:miter;" x="837.899371" xlink:href="#mcc7a731fc7" y="420.275745"/>
     <use style="fill:#ff0000;stroke:#ff0000;stroke-linejoin:miter;" x="848.105735" xlink:href="#mcc7a731fc7" y="474.60766"/>
     <use style="fill:#ff0000;stroke:#ff0000;stroke-linejoin:miter;" x="858.408978" xlink:href="#mcc7a731fc7" y="478.182128"/>
     <use style="fill:#ff0000;stroke:#ff0000;stroke-linejoin:miter;" x="869.170263" xlink:href="#mcc7a731fc7" y="434.573617"/>
     <use style="fill:#ff0000;stroke:#ff0000;stroke-linejoin:miter;" x="879.329351" xlink:href="#mcc7a731fc7" y="492.48"/>
     <use style="fill:#ff0000;stroke:#ff0000;stroke-linejoin:miter;" x="889.711647" xlink:href="#mcc7a731fc7" y="466.74383"/>
     <use style="fill:#ff0000;stroke:#ff0000;stroke-linejoin:miter;" x="900.509358" xlink:href="#mcc7a731fc7" y="490.335319"/>
     <use style="fill:#ff0000;stroke:#ff0000;stroke-linejoin:miter;" x="910.628919" xlink:href="#mcc7a731fc7" y="155.765106"/>
     <use style="fill:#ff0000;stroke:#ff0000;stroke-linejoin:miter;" x="920.407467" xlink:href="#mcc7a731fc7" y="492.48"/>
     <use style="fill:#ff0000;stroke:#ff0000;stroke-linejoin:miter;" x="930.130212" xlink:href="#mcc7a731fc7" y="200.803404"/>
     <use style="fill:#ff0000;stroke:#ff0000;stroke-linejoin:miter;" x="939.790956" xlink:href="#mcc7a731fc7" y="207.95234"/>
     <use style="fill:#ff0000;stroke:#ff0000;stroke-linejoin:miter;" x="949.47185" xlink:href="#mcc7a731fc7" y="174.35234"/>
     <use style="fill:#ff0000;stroke:#ff0000;stroke-linejoin:miter;" x="959.163594" xlink:href="#mcc7a731fc7" y="458.88"/>
     <use style="fill:#ff0000;stroke:#ff0000;stroke-linejoin:miter;" x="968.832088" xlink:href="#mcc7a731fc7" y="89.28"/>
     <use style="fill:#ff0000;stroke:#ff0000;stroke-linejoin:miter;" x="978.59126" xlink:href="#mcc7a731fc7" y="141.467234"/>
     <use style="fill:#ff0000;stroke:#ff0000;stroke-linejoin:miter;" x="988.364383" xlink:href="#mcc7a731fc7" y="244.411915"/>
     <use style="fill:#ff0000;stroke:#ff0000;stroke-linejoin:miter;" x="998.216558" xlink:href="#mcc7a731fc7" y="473.177872"/>
     <use style="fill:#ff0000;stroke:#ff0000;stroke-linejoin:miter;" x="1007.971855" xlink:href="#mcc7a731fc7" y="392.394894"/>
     <use style="fill:#ff0000;stroke:#ff0000;stroke-linejoin:miter;" x="1017.623298" xlink:href="#mcc7a731fc7" y="375.95234"/>
     <use style="fill:#ff0000;stroke:#ff0000;stroke-linejoin:miter;" x="1027.292567" xlink:href="#mcc7a731fc7" y="378.811915"/>
     <use style="fill:#ff0000;stroke:#ff0000;stroke-linejoin:miter;" x="1037.004462" xlink:href="#mcc7a731fc7" y="425.28"/>
     <use style="fill:#ff0000;stroke:#ff0000;stroke-linejoin:miter;" x="1046.64738" xlink:href="#mcc7a731fc7" y="365.228936"/>
     <use style="fill:#ff0000;stroke:#ff0000;stroke-linejoin:miter;" x="1056.346099" xlink:href="#mcc7a731fc7" y="403.118298"/>
     <use style="fill:#ff0000;stroke:#ff0000;stroke-linejoin:miter;" x="1066.003743" xlink:href="#mcc7a731fc7" y="316.61617"/>
     <use style="fill:#ff0000;stroke:#ff0000;stroke-linejoin:miter;" x="1075.710213" xlink:href="#mcc7a731fc7" y="405.977872"/>
     <use style="fill:#ff0000;stroke:#ff0000;stroke-linejoin:miter;" x="1085.403507" xlink:href="#mcc7a731fc7" y="276.582128"/>
     <use style="fill:#ff0000;stroke:#ff0000;stroke-linejoin:miter;" x="1095.065026" xlink:href="#mcc7a731fc7" y="375.237447"/>
     <use style="fill:#ff0000;stroke:#ff0000;stroke-linejoin:miter;" x="1104.75522" xlink:href="#mcc7a731fc7" y="140.75234"/>
     <use style="fill:#ff0000;stroke:#ff0000;stroke-linejoin:miter;" x="1114.434564" xlink:href="#mcc7a731fc7" y="358.08"/>
     <use style="fill:#ff0000;stroke:#ff0000;stroke-linejoin:miter;" x="1124.213887" xlink:href="#mcc7a731fc7" y="254.420426"/>
     <use style="fill:#ff0000;stroke:#ff0000;stroke-linejoin:miter;" x="1134.022661" xlink:href="#mcc7a731fc7" y="312.326809"/>
     <use style="fill:#ff0000;stroke:#ff0000;stroke-linejoin:miter;" x="1143.943039" xlink:href="#mcc7a731fc7" y="364.514043"/>
     <use style="fill:#ff0000;stroke:#ff0000;stroke-linejoin:miter;" x="1153.978122" xlink:href="#mcc7a731fc7" y="379.526809"/>
     <use style="fill:#ff0000;stroke:#ff0000;stroke-linejoin:miter;" x="1164.196886" xlink:href="#mcc7a731fc7" y="364.514043"/>
     <use style="fill:#ff0000;stroke:#ff0000;stroke-linejoin:miter;" x="1174.251345" xlink:href="#mcc7a731fc7" y="360.224681"/>
     <use style="fill:#ff0000;stroke:#ff0000;stroke-linejoin:miter;" x="1184.343004" xlink:href="#mcc7a731fc7" y="335.918298"/>
     <use style="fill:#ff0000;stroke:#ff0000;stroke-linejoin:miter;" x="1194.409863" xlink:href="#mcc7a731fc7" y="318.045957"/>
     <use style="fill:#ff0000;stroke:#ff0000;stroke-linejoin:miter;" x="1204.725506" xlink:href="#mcc7a731fc7" y="290.88"/>
     <use style="fill:#ff0000;stroke:#ff0000;stroke-linejoin:miter;" x="1214.804766" xlink:href="#mcc7a731fc7" y="350.21617"/>
     <use style="fill:#ff0000;stroke:#ff0000;stroke-linejoin:miter;" x="1224.887125" xlink:href="#mcc7a731fc7" y="324.48"/>
     <use style="fill:#ff0000;stroke:#ff0000;stroke-linejoin:miter;" x="1235.044662" xlink:href="#mcc7a731fc7" y="313.041702"/>
     <use style="fill:#ff0000;stroke:#ff0000;stroke-linejoin:miter;" x="1245.272727" xlink:href="#mcc7a731fc7" y="292.309787"/>
    </g>
   </g>
   <g id="line2d_15">
    <path clip-path="url(#p464a22ea89)" d="M 230.727273 328.054468 
L 242.425569 338.777872 
L 252.586206 308.037447 
L 262.729018 326.624681 
L 273.812715 293.024681 
L 283.950877 339.492766 
L 294.213818 346.641702 
L 305.096008 362.369362 
L 315.219444 349.501277 
L 325.316529 355.220426 
L 336.35295 211.526809 
L 346.462435 328.054468 
L 356.610672 355.220426 
L 367.727696 333.773617 
L 377.824006 339.492766 
L 387.922641 368.088511 
L 399.083841 341.637447 
L 409.189452 344.497021 
L 419.286537 358.794894 
L 430.39426 320.190638 
L 440.524671 353.790638 
L 450.634932 360.224681 
L 461.677553 327.339574 
L 471.846715 359.509787 
L 482.212736 359.509787 
L 493.039123 365.228936 
L 503.17806 320.905532 
L 513.53168 344.497021 
L 524.406119 303.033191 
L 534.554356 326.624681 
L 544.897125 351.645957 
L 555.696387 363.084255 
L 565.869425 345.926809 
L 576.176543 300.888511 
L 587.043232 325.194894 
L 597.206195 347.356596 
L 607.512538 297.314043 
L 618.471455 302.318298 
L 628.654569 338.777872 
L 639.030664 329.484255 
L 649.899679 366.658723 
L 660.057991 346.641702 
L 670.53329 123.594894 
L 681.227148 338.777872 
L 691.37461 369.518298 
L 701.834409 185.790638 
L 712.539117 361.654468 
L 722.764082 385.245957 
L 733.305259 334.488511 
L 744.036318 372.377872 
L 754.209355 394.539574 
L 764.598627 306.60766 
L 775.327361 403.118298 
L 785.494973 401.688511 
L 795.871069 325.194894 
L 806.660255 441.00766 
L 816.822443 452.445957 
L 827.175287 413.841702 
L 837.899371 420.275745 
L 848.105735 474.60766 
L 858.408978 478.182128 
L 869.170263 434.573617 
L 879.329351 492.48 
L 889.711647 466.74383 
L 900.509358 490.335319 
L 910.628919 155.765106 
L 920.407467 492.48 
L 930.130212 200.803404 
L 939.790956 207.95234 
L 949.47185 174.35234 
L 959.163594 458.88 
L 968.832088 89.28 
L 978.59126 141.467234 
L 988.364383 244.411915 
L 998.216558 473.177872 
L 1007.971855 392.394894 
L 1017.623298 375.95234 
L 1027.292567 378.811915 
L 1037.004462 425.28 
L 1046.64738 365.228936 
L 1056.346099 403.118298 
L 1066.003743 316.61617 
L 1075.710213 405.977872 
L 1085.403507 276.582128 
L 1095.065026 375.237447 
L 1104.75522 140.75234 
L 1114.434564 358.08 
L 1124.213887 254.420426 
L 1134.022661 312.326809 
L 1143.943039 364.514043 
L 1153.978122 379.526809 
L 1164.196886 364.514043 
L 1174.251345 360.224681 
L 1184.343004 335.918298 
L 1194.409863 318.045957 
L 1204.725506 290.88 
L 1214.804766 350.21617 
L 1224.887125 324.48 
L 1235.044662 313.041702 
L 1245.272727 292.309787 
" style="fill:none;stroke:#800080;stroke-dasharray:9.6,2.4,1.5,2.4;stroke-dashoffset:0;stroke-width:1.5;"/>
    <defs>
     <path d="M -3 3 
L 3 -3 
M -3 -3 
L 3 3 
" id="me89d985593" style="stroke:#800080;"/>
    </defs>
    <g clip-path="url(#p464a22ea89)">
     <use style="fill:#800080;stroke:#800080;" x="230.727273" xlink:href="#me89d985593" y="328.054468"/>
     <use style="fill:#800080;stroke:#800080;" x="242.425569" xlink:href="#me89d985593" y="338.777872"/>
     <use style="fill:#800080;stroke:#800080;" x="252.586206" xlink:href="#me89d985593" y="308.037447"/>
     <use style="fill:#800080;stroke:#800080;" x="262.729018" xlink:href="#me89d985593" y="326.624681"/>
     <use style="fill:#800080;stroke:#800080;" x="273.812715" xlink:href="#me89d985593" y="293.024681"/>
     <use style="fill:#800080;stroke:#800080;" x="283.950877" xlink:href="#me89d985593" y="339.492766"/>
     <use style="fill:#800080;stroke:#800080;" x="294.213818" xlink:href="#me89d985593" y="346.641702"/>
     <use style="fill:#800080;stroke:#800080;" x="305.096008" xlink:href="#me89d985593" y="362.369362"/>
     <use style="fill:#800080;stroke:#800080;" x="315.219444" xlink:href="#me89d985593" y="349.501277"/>
     <use style="fill:#800080;stroke:#800080;" x="325.316529" xlink:href="#me89d985593" y="355.220426"/>
     <use style="fill:#800080;stroke:#800080;" x="336.35295" xlink:href="#me89d985593" y="211.526809"/>
     <use style="fill:#800080;stroke:#800080;" x="346.462435" xlink:href="#me89d985593" y="328.054468"/>
     <use style="fill:#800080;stroke:#800080;" x="356.610672" xlink:href="#me89d985593" y="355.220426"/>
     <use style="fill:#800080;stroke:#800080;" x="367.727696" xlink:href="#me89d985593" y="333.773617"/>
     <use style="fill:#800080;stroke:#800080;" x="377.824006" xlink:href="#me89d985593" y="339.492766"/>
     <use style="fill:#800080;stroke:#800080;" x="387.922641" xlink:href="#me89d985593" y="368.088511"/>
     <use style="fill:#800080;stroke:#800080;" x="399.083841" xlink:href="#me89d985593" y="341.637447"/>
     <use style="fill:#800080;stroke:#800080;" x="409.189452" xlink:href="#me89d985593" y="344.497021"/>
     <use style="fill:#800080;stroke:#800080;" x="419.286537" xlink:href="#me89d985593" y="358.794894"/>
     <use style="fill:#800080;stroke:#800080;" x="430.39426" xlink:href="#me89d985593" y="320.190638"/>
     <use style="fill:#800080;stroke:#800080;" x="440.524671" xlink:href="#me89d985593" y="353.790638"/>
     <use style="fill:#800080;stroke:#800080;" x="450.634932" xlink:href="#me89d985593" y="360.224681"/>
     <use style="fill:#800080;stroke:#800080;" x="461.677553" xlink:href="#me89d985593" y="327.339574"/>
     <use style="fill:#800080;stroke:#800080;" x="471.846715" xlink:href="#me89d985593" y="359.509787"/>
     <use style="fill:#800080;stroke:#800080;" x="482.212736" xlink:href="#me89d985593" y="359.509787"/>
     <use style="fill:#800080;stroke:#800080;" x="493.039123" xlink:href="#me89d985593" y="365.228936"/>
     <use style="fill:#800080;stroke:#800080;" x="503.17806" xlink:href="#me89d985593" y="320.905532"/>
     <use style="fill:#800080;stroke:#800080;" x="513.53168" xlink:href="#me89d985593" y="344.497021"/>
     <use style="fill:#800080;stroke:#800080;" x="524.406119" xlink:href="#me89d985593" y="303.033191"/>
     <use style="fill:#800080;stroke:#800080;" x="534.554356" xlink:href="#me89d985593" y="326.624681"/>
     <use style="fill:#800080;stroke:#800080;" x="544.897125" xlink:href="#me89d985593" y="351.645957"/>
     <use style="fill:#800080;stroke:#800080;" x="555.696387" xlink:href="#me89d985593" y="363.084255"/>
     <use style="fill:#800080;stroke:#800080;" x="565.869425" xlink:href="#me89d985593" y="345.926809"/>
     <use style="fill:#800080;stroke:#800080;" x="576.176543" xlink:href="#me89d985593" y="300.888511"/>
     <use style="fill:#800080;stroke:#800080;" x="587.043232" xlink:href="#me89d985593" y="325.194894"/>
     <use style="fill:#800080;stroke:#800080;" x="597.206195" xlink:href="#me89d985593" y="347.356596"/>
     <use style="fill:#800080;stroke:#800080;" x="607.512538" xlink:href="#me89d985593" y="297.314043"/>
     <use style="fill:#800080;stroke:#800080;" x="618.471455" xlink:href="#me89d985593" y="302.318298"/>
     <use style="fill:#800080;stroke:#800080;" x="628.654569" xlink:href="#me89d985593" y="338.777872"/>
     <use style="fill:#800080;stroke:#800080;" x="639.030664" xlink:href="#me89d985593" y="329.484255"/>
     <use style="fill:#800080;stroke:#800080;" x="649.899679" xlink:href="#me89d985593" y="366.658723"/>
     <use style="fill:#800080;stroke:#800080;" x="660.057991" xlink:href="#me89d985593" y="346.641702"/>
     <use style="fill:#800080;stroke:#800080;" x="670.53329" xlink:href="#me89d985593" y="123.594894"/>
     <use style="fill:#800080;stroke:#800080;" x="681.227148" xlink:href="#me89d985593" y="338.777872"/>
     <use style="fill:#800080;stroke:#800080;" x="691.37461" xlink:href="#me89d985593" y="369.518298"/>
     <use style="fill:#800080;stroke:#800080;" x="701.834409" xlink:href="#me89d985593" y="185.790638"/>
     <use style="fill:#800080;stroke:#800080;" x="712.539117" xlink:href="#me89d985593" y="361.654468"/>
     <use style="fill:#800080;stroke:#800080;" x="722.764082" xlink:href="#me89d985593" y="385.245957"/>
     <use style="fill:#800080;stroke:#800080;" x="733.305259" xlink:href="#me89d985593" y="334.488511"/>
     <use style="fill:#800080;stroke:#800080;" x="744.036318" xlink:href="#me89d985593" y="372.377872"/>
     <use style="fill:#800080;stroke:#800080;" x="754.209355" xlink:href="#me89d985593" y="394.539574"/>
     <use style="fill:#800080;stroke:#800080;" x="764.598627" xlink:href="#me89d985593" y="306.60766"/>
     <use style="fill:#800080;stroke:#800080;" x="775.327361" xlink:href="#me89d985593" y="403.118298"/>
     <use style="fill:#800080;stroke:#800080;" x="785.494973" xlink:href="#me89d985593" y="401.688511"/>
     <use style="fill:#800080;stroke:#800080;" x="795.871069" xlink:href="#me89d985593" y="325.194894"/>
     <use style="fill:#800080;stroke:#800080;" x="806.660255" xlink:href="#me89d985593" y="441.00766"/>
     <use style="fill:#800080;stroke:#800080;" x="816.822443" xlink:href="#me89d985593" y="452.445957"/>
     <use style="fill:#800080;stroke:#800080;" x="827.175287" xlink:href="#me89d985593" y="413.841702"/>
     <use style="fill:#800080;stroke:#800080;" x="837.899371" xlink:href="#me89d985593" y="420.275745"/>
     <use style="fill:#800080;stroke:#800080;" x="848.105735" xlink:href="#me89d985593" y="474.60766"/>
     <use style="fill:#800080;stroke:#800080;" x="858.408978" xlink:href="#me89d985593" y="478.182128"/>
     <use style="fill:#800080;stroke:#800080;" x="869.170263" xlink:href="#me89d985593" y="434.573617"/>
     <use style="fill:#800080;stroke:#800080;" x="879.329351" xlink:href="#me89d985593" y="492.48"/>
     <use style="fill:#800080;stroke:#800080;" x="889.711647" xlink:href="#me89d985593" y="466.74383"/>
     <use style="fill:#800080;stroke:#800080;" x="900.509358" xlink:href="#me89d985593" y="490.335319"/>
     <use style="fill:#800080;stroke:#800080;" x="910.628919" xlink:href="#me89d985593" y="155.765106"/>
     <use style="fill:#800080;stroke:#800080;" x="920.407467" xlink:href="#me89d985593" y="492.48"/>
     <use style="fill:#800080;stroke:#800080;" x="930.130212" xlink:href="#me89d985593" y="200.803404"/>
     <use style="fill:#800080;stroke:#800080;" x="939.790956" xlink:href="#me89d985593" y="207.95234"/>
     <use style="fill:#800080;stroke:#800080;" x="949.47185" xlink:href="#me89d985593" y="174.35234"/>
     <use style="fill:#800080;stroke:#800080;" x="959.163594" xlink:href="#me89d985593" y="458.88"/>
     <use style="fill:#800080;stroke:#800080;" x="968.832088" xlink:href="#me89d985593" y="89.28"/>
     <use style="fill:#800080;stroke:#800080;" x="978.59126" xlink:href="#me89d985593" y="141.467234"/>
     <use style="fill:#800080;stroke:#800080;" x="988.364383" xlink:href="#me89d985593" y="244.411915"/>
     <use style="fill:#800080;stroke:#800080;" x="998.216558" xlink:href="#me89d985593" y="473.177872"/>
     <use style="fill:#800080;stroke:#800080;" x="1007.971855" xlink:href="#me89d985593" y="392.394894"/>
     <use style="fill:#800080;stroke:#800080;" x="1017.623298" xlink:href="#me89d985593" y="375.95234"/>
     <use style="fill:#800080;stroke:#800080;" x="1027.292567" xlink:href="#me89d985593" y="378.811915"/>
     <use style="fill:#800080;stroke:#800080;" x="1037.004462" xlink:href="#me89d985593" y="425.28"/>
     <use style="fill:#800080;stroke:#800080;" x="1046.64738" xlink:href="#me89d985593" y="365.228936"/>
     <use style="fill:#800080;stroke:#800080;" x="1056.346099" xlink:href="#me89d985593" y="403.118298"/>
     <use style="fill:#800080;stroke:#800080;" x="1066.003743" xlink:href="#me89d985593" y="316.61617"/>
     <use style="fill:#800080;stroke:#800080;" x="1075.710213" xlink:href="#me89d985593" y="405.977872"/>
     <use style="fill:#800080;stroke:#800080;" x="1085.403507" xlink:href="#me89d985593" y="276.582128"/>
     <use style="fill:#800080;stroke:#800080;" x="1095.065026" xlink:href="#me89d985593" y="375.237447"/>
     <use style="fill:#800080;stroke:#800080;" x="1104.75522" xlink:href="#me89d985593" y="140.75234"/>
     <use style="fill:#800080;stroke:#800080;" x="1114.434564" xlink:href="#me89d985593" y="358.08"/>
     <use style="fill:#800080;stroke:#800080;" x="1124.213887" xlink:href="#me89d985593" y="254.420426"/>
     <use style="fill:#800080;stroke:#800080;" x="1134.022661" xlink:href="#me89d985593" y="312.326809"/>
     <use style="fill:#800080;stroke:#800080;" x="1143.943039" xlink:href="#me89d985593" y="364.514043"/>
     <use style="fill:#800080;stroke:#800080;" x="1153.978122" xlink:href="#me89d985593" y="379.526809"/>
     <use style="fill:#800080;stroke:#800080;" x="1164.196886" xlink:href="#me89d985593" y="364.514043"/>
     <use style="fill:#800080;stroke:#800080;" x="1174.251345" xlink:href="#me89d985593" y="360.224681"/>
     <use style="fill:#800080;stroke:#800080;" x="1184.343004" xlink:href="#me89d985593" y="335.918298"/>
     <use style="fill:#800080;stroke:#800080;" x="1194.409863" xlink:href="#me89d985593" y="318.045957"/>
     <use style="fill:#800080;stroke:#800080;" x="1204.725506" xlink:href="#me89d985593" y="290.88"/>
     <use style="fill:#800080;stroke:#800080;" x="1214.804766" xlink:href="#me89d985593" y="350.21617"/>
     <use style="fill:#800080;stroke:#800080;" x="1224.887125" xlink:href="#me89d985593" y="324.48"/>
     <use style="fill:#800080;stroke:#800080;" x="1235.044662" xlink:href="#me89d985593" y="313.041702"/>
     <use style="fill:#800080;stroke:#800080;" x="1245.272727" xlink:href="#me89d985593" y="292.309787"/>
    </g>
   </g>
   <g id="line2d_16">
    <path clip-path="url(#p464a22ea89)" d="M 230.727273 339.292704 
L 242.425569 339.32362 
L 252.586206 339.350472 
L 262.729018 339.377276 
L 273.812715 339.406568 
L 283.950877 339.43336 
L 294.213818 339.460483 
L 305.096008 339.489241 
L 315.219444 339.515995 
L 325.316529 339.542679 
L 336.35295 339.571845 
L 346.462435 339.598562 
L 356.610672 339.625381 
L 367.727696 339.654761 
L 377.824006 339.681443 
L 387.922641 339.708131 
L 399.083841 339.737627 
L 409.189452 339.764334 
L 419.286537 339.791018 
L 430.39426 339.820372 
L 440.524671 339.847145 
L 450.634932 339.873863 
L 461.677553 339.903046 
L 471.846715 339.929921 
L 482.212736 339.957315 
L 493.039123 339.985927 
L 503.17806 340.012721 
L 513.53168 340.040083 
L 524.406119 340.068822 
L 534.554356 340.095641 
L 544.897125 340.122974 
L 555.696387 340.151514 
L 565.869425 340.178398 
L 576.176543 340.205638 
L 587.043232 340.234355 
L 597.206195 340.261214 
L 607.512538 340.288451 
L 618.471455 340.317412 
L 628.654569 340.344323 
L 639.030664 340.371745 
L 649.899679 340.400469 
L 660.057991 340.427315 
L 670.53329 340.454998 
L 681.227148 340.483259 
L 691.37461 340.510076 
L 701.834409 340.537719 
L 712.539117 340.566009 
L 722.764082 340.593031 
L 733.305259 340.620888 
L 744.036318 340.649248 
L 754.209355 340.676132 
L 764.598627 340.703589 
L 775.327361 340.731942 
L 785.494973 340.758812 
L 795.871069 340.786234 
L 806.660255 340.814747 
L 816.822443 340.841603 
L 827.175287 340.868963 
L 837.899371 340.897304 
L 848.105735 340.924276 
L 858.408978 340.951505 
L 869.170263 340.979945 
L 879.329351 341.006792 
L 889.711647 341.03423 
L 900.509358 341.062766 
L 910.628919 341.089509 
L 920.407467 341.115351 
L 930.130212 341.141046 
L 939.790956 341.166577 
L 949.47185 341.192161 
L 959.163594 341.217774 
L 968.832088 341.243325 
L 978.59126 341.269116 
L 988.364383 341.294944 
L 998.216558 341.320981 
L 1007.971855 341.346761 
L 1017.623298 341.372268 
L 1027.292567 341.397821 
L 1037.004462 341.423487 
L 1046.64738 341.448971 
L 1056.346099 341.474602 
L 1066.003743 341.500125 
L 1075.710213 341.525777 
L 1085.403507 341.551393 
L 1095.065026 341.576926 
L 1104.75522 341.602535 
L 1114.434564 341.628115 
L 1124.213887 341.653959 
L 1134.022661 341.679881 
L 1143.943039 341.706098 
L 1153.978122 341.732618 
L 1164.196886 341.759624 
L 1174.251345 341.786195 
L 1184.343004 341.812865 
L 1194.409863 341.839469 
L 1204.725506 341.866731 
L 1214.804766 341.893368 
L 1224.887125 341.920013 
L 1235.044662 341.946856 
L 1245.272727 341.973887 
" style="fill:none;stroke:#0000ff;stroke-linecap:square;stroke-width:1.5;"/>
   </g>
   <g id="line2d_17">
    <path clip-path="url(#p464a22ea89)" d="M 230.727273 339.423315 
L 242.425569 339.435666 
L 252.586206 339.446394 
L 262.729018 339.457103 
L 273.812715 339.468806 
L 283.950877 339.47951 
L 294.213818 339.490345 
L 305.096008 339.501835 
L 315.219444 339.512523 
L 325.316529 339.523184 
L 336.35295 339.534836 
L 346.462435 339.54551 
L 356.610672 339.556225 
L 367.727696 339.567962 
L 377.824006 339.578622 
L 387.922641 339.589285 
L 399.083841 339.601069 
L 409.189452 339.611738 
L 419.286537 339.622399 
L 430.39426 339.634127 
L 440.524671 339.644823 
L 450.634932 339.655497 
L 461.677553 339.667156 
L 471.846715 339.677893 
L 482.212736 339.688837 
L 493.039123 339.700268 
L 503.17806 339.710973 
L 513.53168 339.721904 
L 524.406119 339.733386 
L 534.554356 339.744101 
L 544.897125 339.755021 
L 555.696387 339.766423 
L 565.869425 339.777163 
L 576.176543 339.788046 
L 587.043232 339.799519 
L 597.206195 339.810249 
L 607.512538 339.821131 
L 618.471455 339.832701 
L 628.654569 339.843453 
L 639.030664 339.854408 
L 649.899679 339.865884 
L 660.057991 339.876609 
L 670.53329 339.887669 
L 681.227148 339.89896 
L 691.37461 339.909674 
L 701.834409 339.920717 
L 712.539117 339.93202 
L 722.764082 339.942815 
L 733.305259 339.953945 
L 744.036318 339.965275 
L 754.209355 339.976016 
L 764.598627 339.986985 
L 775.327361 339.998312 
L 785.494973 340.009047 
L 795.871069 340.020003 
L 806.660255 340.031394 
L 816.822443 340.042124 
L 827.175287 340.053054 
L 837.899371 340.064377 
L 848.105735 340.075153 
L 858.408978 340.086031 
L 869.170263 340.097393 
L 879.329351 340.108119 
L 889.711647 340.119081 
L 900.509358 340.130481 
L 910.628919 340.141166 
L 920.407467 340.15149 
L 930.130212 340.161756 
L 939.790956 340.171956 
L 949.47185 340.182177 
L 959.163594 340.192409 
L 968.832088 340.202618 
L 978.59126 340.212921 
L 988.364383 340.22324 
L 998.216558 340.233642 
L 1007.971855 340.243942 
L 1017.623298 340.254132 
L 1027.292567 340.264341 
L 1037.004462 340.274595 
L 1046.64738 340.284776 
L 1056.346099 340.295016 
L 1066.003743 340.305213 
L 1075.710213 340.315461 
L 1085.403507 340.325696 
L 1095.065026 340.335896 
L 1104.75522 340.346127 
L 1114.434564 340.356347 
L 1124.213887 340.366672 
L 1134.022661 340.377028 
L 1143.943039 340.387502 
L 1153.978122 340.398098 
L 1164.196886 340.408887 
L 1174.251345 340.419502 
L 1184.343004 340.430157 
L 1194.409863 340.440786 
L 1204.725506 340.451678 
L 1214.804766 340.462319 
L 1224.887125 340.472964 
L 1235.044662 340.483689 
L 1245.272727 340.494488 
" style="fill:none;stroke:#008000;stroke-linecap:square;stroke-width:1.5;"/>
    <defs>
     <path d="M 0 3 
C 0.795609 3 1.55874 2.683901 2.12132 2.12132 
C 2.683901 1.55874 3 0.795609 3 0 
C 3 -0.795609 2.683901 -1.55874 2.12132 -2.12132 
C 1.55874 -2.683901 0.795609 -3 0 -3 
C -0.795609 -3 -1.55874 -2.683901 -2.12132 -2.12132 
C -2.683901 -1.55874 -3 -0.795609 -3 0 
C -3 0.795609 -2.683901 1.55874 -2.12132 2.12132 
C -1.55874 2.683901 -0.795609 3 0 3 
z
" id="m52c97ee915" style="stroke:#008000;"/>
    </defs>
    <g clip-path="url(#p464a22ea89)">
     <use style="fill:#008000;stroke:#008000;" x="230.727273" xlink:href="#m52c97ee915" y="339.423315"/>
     <use style="fill:#008000;stroke:#008000;" x="242.425569" xlink:href="#m52c97ee915" y="339.435666"/>
     <use style="fill:#008000;stroke:#008000;" x="252.586206" xlink:href="#m52c97ee915" y="339.446394"/>
     <use style="fill:#008000;stroke:#008000;" x="262.729018" xlink:href="#m52c97ee915" y="339.457103"/>
     <use style="fill:#008000;stroke:#008000;" x="273.812715" xlink:href="#m52c97ee915" y="339.468806"/>
     <use style="fill:#008000;stroke:#008000;" x="283.950877" xlink:href="#m52c97ee915" y="339.47951"/>
     <use style="fill:#008000;stroke:#008000;" x="294.213818" xlink:href="#m52c97ee915" y="339.490345"/>
     <use style="fill:#008000;stroke:#008000;" x="305.096008" xlink:href="#m52c97ee915" y="339.501835"/>
     <use style="fill:#008000;stroke:#008000;" x="315.219444" xlink:href="#m52c97ee915" y="339.512523"/>
     <use style="fill:#008000;stroke:#008000;" x="325.316529" xlink:href="#m52c97ee915" y="339.523184"/>
     <use style="fill:#008000;stroke:#008000;" x="336.35295" xlink:href="#m52c97ee915" y="339.534836"/>
     <use style="fill:#008000;stroke:#008000;" x="346.462435" xlink:href="#m52c97ee915" y="339.54551"/>
     <use style="fill:#008000;stroke:#008000;" x="356.610672" xlink:href="#m52c97ee915" y="339.556225"/>
     <use style="fill:#008000;stroke:#008000;" x="367.727696" xlink:href="#m52c97ee915" y="339.567962"/>
     <use style="fill:#008000;stroke:#008000;" x="377.824006" xlink:href="#m52c97ee915" y="339.578622"/>
     <use style="fill:#008000;stroke:#008000;" x="387.922641" xlink:href="#m52c97ee915" y="339.589285"/>
     <use style="fill:#008000;stroke:#008000;" x="399.083841" xlink:href="#m52c97ee915" y="339.601069"/>
     <use style="fill:#008000;stroke:#008000;" x="409.189452" xlink:href="#m52c97ee915" y="339.611738"/>
     <use style="fill:#008000;stroke:#008000;" x="419.286537" xlink:href="#m52c97ee915" y="339.622399"/>
     <use style="fill:#008000;stroke:#008000;" x="430.39426" xlink:href="#m52c97ee915" y="339.634127"/>
     <use style="fill:#008000;stroke:#008000;" x="440.524671" xlink:href="#m52c97ee915" y="339.644823"/>
     <use style="fill:#008000;stroke:#008000;" x="450.634932" xlink:href="#m52c97ee915" y="339.655497"/>
     <use style="fill:#008000;stroke:#008000;" x="461.677553" xlink:href="#m52c97ee915" y="339.667156"/>
     <use style="fill:#008000;stroke:#008000;" x="471.846715" xlink:href="#m52c97ee915" y="339.677893"/>
     <use style="fill:#008000;stroke:#008000;" x="482.212736" xlink:href="#m52c97ee915" y="339.688837"/>
     <use style="fill:#008000;stroke:#008000;" x="493.039123" xlink:href="#m52c97ee915" y="339.700268"/>
     <use style="fill:#008000;stroke:#008000;" x="503.17806" xlink:href="#m52c97ee915" y="339.710973"/>
     <use style="fill:#008000;stroke:#008000;" x="513.53168" xlink:href="#m52c97ee915" y="339.721904"/>
     <use style="fill:#008000;stroke:#008000;" x="524.406119" xlink:href="#m52c97ee915" y="339.733386"/>
     <use style="fill:#008000;stroke:#008000;" x="534.554356" xlink:href="#m52c97ee915" y="339.744101"/>
     <use style="fill:#008000;stroke:#008000;" x="544.897125" xlink:href="#m52c97ee915" y="339.755021"/>
     <use style="fill:#008000;stroke:#008000;" x="555.696387" xlink:href="#m52c97ee915" y="339.766423"/>
     <use style="fill:#008000;stroke:#008000;" x="565.869425" xlink:href="#m52c97ee915" y="339.777163"/>
     <use style="fill:#008000;stroke:#008000;" x="576.176543" xlink:href="#m52c97ee915" y="339.788046"/>
     <use style="fill:#008000;stroke:#008000;" x="587.043232" xlink:href="#m52c97ee915" y="339.799519"/>
     <use style="fill:#008000;stroke:#008000;" x="597.206195" xlink:href="#m52c97ee915" y="339.810249"/>
     <use style="fill:#008000;stroke:#008000;" x="607.512538" xlink:href="#m52c97ee915" y="339.821131"/>
     <use style="fill:#008000;stroke:#008000;" x="618.471455" xlink:href="#m52c97ee915" y="339.832701"/>
     <use style="fill:#008000;stroke:#008000;" x="628.654569" xlink:href="#m52c97ee915" y="339.843453"/>
     <use style="fill:#008000;stroke:#008000;" x="639.030664" xlink:href="#m52c97ee915" y="339.854408"/>
     <use style="fill:#008000;stroke:#008000;" x="649.899679" xlink:href="#m52c97ee915" y="339.865884"/>
     <use style="fill:#008000;stroke:#008000;" x="660.057991" xlink:href="#m52c97ee915" y="339.876609"/>
     <use style="fill:#008000;stroke:#008000;" x="670.53329" xlink:href="#m52c97ee915" y="339.887669"/>
     <use style="fill:#008000;stroke:#008000;" x="681.227148" xlink:href="#m52c97ee915" y="339.89896"/>
     <use style="fill:#008000;stroke:#008000;" x="691.37461" xlink:href="#m52c97ee915" y="339.909674"/>
     <use style="fill:#008000;stroke:#008000;" x="701.834409" xlink:href="#m52c97ee915" y="339.920717"/>
     <use style="fill:#008000;stroke:#008000;" x="712.539117" xlink:href="#m52c97ee915" y="339.93202"/>
     <use style="fill:#008000;stroke:#008000;" x="722.764082" xlink:href="#m52c97ee915" y="339.942815"/>
     <use style="fill:#008000;stroke:#008000;" x="733.305259" xlink:href="#m52c97ee915" y="339.953945"/>
     <use style="fill:#008000;stroke:#008000;" x="744.036318" xlink:href="#m52c97ee915" y="339.965275"/>
     <use style="fill:#008000;stroke:#008000;" x="754.209355" xlink:href="#m52c97ee915" y="339.976016"/>
     <use style="fill:#008000;stroke:#008000;" x="764.598627" xlink:href="#m52c97ee915" y="339.986985"/>
     <use style="fill:#008000;stroke:#008000;" x="775.327361" xlink:href="#m52c97ee915" y="339.998312"/>
     <use style="fill:#008000;stroke:#008000;" x="785.494973" xlink:href="#m52c97ee915" y="340.009047"/>
     <use style="fill:#008000;stroke:#008000;" x="795.871069" xlink:href="#m52c97ee915" y="340.020003"/>
     <use style="fill:#008000;stroke:#008000;" x="806.660255" xlink:href="#m52c97ee915" y="340.031394"/>
     <use style="fill:#008000;stroke:#008000;" x="816.822443" xlink:href="#m52c97ee915" y="340.042124"/>
     <use style="fill:#008000;stroke:#008000;" x="827.175287" xlink:href="#m52c97ee915" y="340.053054"/>
     <use style="fill:#008000;stroke:#008000;" x="837.899371" xlink:href="#m52c97ee915" y="340.064377"/>
     <use style="fill:#008000;stroke:#008000;" x="848.105735" xlink:href="#m52c97ee915" y="340.075153"/>
     <use style="fill:#008000;stroke:#008000;" x="858.408978" xlink:href="#m52c97ee915" y="340.086031"/>
     <use style="fill:#008000;stroke:#008000;" x="869.170263" xlink:href="#m52c97ee915" y="340.097393"/>
     <use style="fill:#008000;stroke:#008000;" x="879.329351" xlink:href="#m52c97ee915" y="340.108119"/>
     <use style="fill:#008000;stroke:#008000;" x="889.711647" xlink:href="#m52c97ee915" y="340.119081"/>
     <use style="fill:#008000;stroke:#008000;" x="900.509358" xlink:href="#m52c97ee915" y="340.130481"/>
     <use style="fill:#008000;stroke:#008000;" x="910.628919" xlink:href="#m52c97ee915" y="340.141166"/>
     <use style="fill:#008000;stroke:#008000;" x="920.407467" xlink:href="#m52c97ee915" y="340.15149"/>
     <use style="fill:#008000;stroke:#008000;" x="930.130212" xlink:href="#m52c97ee915" y="340.161756"/>
     <use style="fill:#008000;stroke:#008000;" x="939.790956" xlink:href="#m52c97ee915" y="340.171956"/>
     <use style="fill:#008000;stroke:#008000;" x="949.47185" xlink:href="#m52c97ee915" y="340.182177"/>
     <use style="fill:#008000;stroke:#008000;" x="959.163594" xlink:href="#m52c97ee915" y="340.192409"/>
     <use style="fill:#008000;stroke:#008000;" x="968.832088" xlink:href="#m52c97ee915" y="340.202618"/>
     <use style="fill:#008000;stroke:#008000;" x="978.59126" xlink:href="#m52c97ee915" y="340.212921"/>
     <use style="fill:#008000;stroke:#008000;" x="988.364383" xlink:href="#m52c97ee915" y="340.22324"/>
     <use style="fill:#008000;stroke:#008000;" x="998.216558" xlink:href="#m52c97ee915" y="340.233642"/>
     <use style="fill:#008000;stroke:#008000;" x="1007.971855" xlink:href="#m52c97ee915" y="340.243942"/>
     <use style="fill:#008000;stroke:#008000;" x="1017.623298" xlink:href="#m52c97ee915" y="340.254132"/>
     <use style="fill:#008000;stroke:#008000;" x="1027.292567" xlink:href="#m52c97ee915" y="340.264341"/>
     <use style="fill:#008000;stroke:#008000;" x="1037.004462" xlink:href="#m52c97ee915" y="340.274595"/>
     <use style="fill:#008000;stroke:#008000;" x="1046.64738" xlink:href="#m52c97ee915" y="340.284776"/>
     <use style="fill:#008000;stroke:#008000;" x="1056.346099" xlink:href="#m52c97ee915" y="340.295016"/>
     <use style="fill:#008000;stroke:#008000;" x="1066.003743" xlink:href="#m52c97ee915" y="340.305213"/>
     <use style="fill:#008000;stroke:#008000;" x="1075.710213" xlink:href="#m52c97ee915" y="340.315461"/>
     <use style="fill:#008000;stroke:#008000;" x="1085.403507" xlink:href="#m52c97ee915" y="340.325696"/>
     <use style="fill:#008000;stroke:#008000;" x="1095.065026" xlink:href="#m52c97ee915" y="340.335896"/>
     <use style="fill:#008000;stroke:#008000;" x="1104.75522" xlink:href="#m52c97ee915" y="340.346127"/>
     <use style="fill:#008000;stroke:#008000;" x="1114.434564" xlink:href="#m52c97ee915" y="340.356347"/>
     <use style="fill:#008000;stroke:#008000;" x="1124.213887" xlink:href="#m52c97ee915" y="340.366672"/>
     <use style="fill:#008000;stroke:#008000;" x="1134.022661" xlink:href="#m52c97ee915" y="340.377028"/>
     <use style="fill:#008000;stroke:#008000;" x="1143.943039" xlink:href="#m52c97ee915" y="340.387502"/>
     <use style="fill:#008000;stroke:#008000;" x="1153.978122" xlink:href="#m52c97ee915" y="340.398098"/>
     <use style="fill:#008000;stroke:#008000;" x="1164.196886" xlink:href="#m52c97ee915" y="340.408887"/>
     <use style="fill:#008000;stroke:#008000;" x="1174.251345" xlink:href="#m52c97ee915" y="340.419502"/>
     <use style="fill:#008000;stroke:#008000;" x="1184.343004" xlink:href="#m52c97ee915" y="340.430157"/>
     <use style="fill:#008000;stroke:#008000;" x="1194.409863" xlink:href="#m52c97ee915" y="340.440786"/>
     <use style="fill:#008000;stroke:#008000;" x="1204.725506" xlink:href="#m52c97ee915" y="340.451678"/>
     <use style="fill:#008000;stroke:#008000;" x="1214.804766" xlink:href="#m52c97ee915" y="340.462319"/>
     <use style="fill:#008000;stroke:#008000;" x="1224.887125" xlink:href="#m52c97ee915" y="340.472964"/>
     <use style="fill:#008000;stroke:#008000;" x="1235.044662" xlink:href="#m52c97ee915" y="340.483689"/>
     <use style="fill:#008000;stroke:#008000;" x="1245.272727" xlink:href="#m52c97ee915" y="340.494488"/>
    </g>
   </g>
   <g id="patch_3">
    <path d="M 180 512.64 
L 180 69.12 
" style="fill:none;stroke:#000000;stroke-linecap:square;stroke-linejoin:miter;stroke-width:0.8;"/>
   </g>
   <g id="patch_4">
    <path d="M 1296 512.64 
L 1296 69.12 
" style="fill:none;stroke:#000000;stroke-linecap:square;stroke-linejoin:miter;stroke-width:0.8;"/>
   </g>
   <g id="patch_5">
    <path d="M 180 512.64 
L 1296 512.64 
" style="fill:none;stroke:#000000;stroke-linecap:square;stroke-linejoin:miter;stroke-width:0.8;"/>
   </g>
   <g id="patch_6">
    <path d="M 180 69.12 
L 1296 69.12 
" style="fill:none;stroke:#000000;stroke-linecap:square;stroke-linejoin:miter;stroke-width:0.8;"/>
   </g>
   <g id="text_14">
    <!-- 500000.0 bit/s -->
    <defs>
     <path id="DejaVuSans-20"/>
     <path d="M 48.6875 27.296875 
Q 48.6875 37.203125 44.609375 42.84375 
Q 40.53125 48.484375 33.40625 48.484375 
Q 26.265625 48.484375 22.1875 42.84375 
Q 18.109375 37.203125 18.109375 27.296875 
Q 18.109375 17.390625 22.1875 11.75 
Q 26.265625 6.109375 33.40625 6.109375 
Q 40.53125 6.109375 44.609375 11.75 
Q 48.6875 17.390625 48.6875 27.296875 
z
M 18.109375 46.390625 
Q 20.953125 51.265625 25.265625 53.625 
Q 29.59375 56 35.59375 56 
Q 45.5625 56 51.78125 48.09375 
Q 58.015625 40.1875 58.015625 27.296875 
Q 58.015625 14.40625 51.78125 6.484375 
Q 45.5625 -1.421875 35.59375 -1.421875 
Q 29.59375 -1.421875 25.265625 0.953125 
Q 20.953125 3.328125 18.109375 8.203125 
L 18.109375 0 
L 9.078125 0 
L 9.078125 75.984375 
L 18.109375 75.984375 
z
" id="DejaVuSans-62"/>
     <path d="M 9.421875 54.6875 
L 18.40625 54.6875 
L 18.40625 0 
L 9.421875 0 
z
M 9.421875 75.984375 
L 18.40625 75.984375 
L 18.40625 64.59375 
L 9.421875 64.59375 
z
" id="DejaVuSans-69"/>
     <path d="M 18.3125 70.21875 
L 18.3125 54.6875 
L 36.8125 54.6875 
L 36.8125 47.703125 
L 18.3125 47.703125 
L 18.3125 18.015625 
Q 18.3125 11.328125 20.140625 9.421875 
Q 21.96875 7.515625 27.59375 7.515625 
L 36.8125 7.515625 
L 36.8125 0 
L 27.59375 0 
Q 17.1875 0 13.234375 3.875 
Q 9.28125 7.765625 9.28125 18.015625 
L 9.28125 47.703125 
L 2.6875 47.703125 
L 2.6875 54.6875 
L 9.28125 54.6875 
L 9.28125 70.21875 
z
" id="DejaVuSans-74"/>
     <path d="M 25.390625 72.90625 
L 33.6875 72.90625 
L 8.296875 -9.28125 
L 0 -9.28125 
z
" id="DejaVuSans-2f"/>
     <path d="M 44.28125 53.078125 
L 44.28125 44.578125 
Q 40.484375 46.53125 36.375 47.5 
Q 32.28125 48.484375 27.875 48.484375 
Q 21.1875 48.484375 17.84375 46.4375 
Q 14.5 44.390625 14.5 40.28125 
Q 14.5 37.15625 16.890625 35.375 
Q 19.28125 33.59375 26.515625 31.984375 
L 29.59375 31.296875 
Q 39.15625 29.25 43.1875 25.515625 
Q 47.21875 21.78125 47.21875 15.09375 
Q 47.21875 7.46875 41.1875 3.015625 
Q 35.15625 -1.421875 24.609375 -1.421875 
Q 20.21875 -1.421875 15.453125 -0.5625 
Q 10.6875 0.296875 5.421875 2 
L 5.421875 11.28125 
Q 10.40625 8.6875 15.234375 7.390625 
Q 20.0625 6.109375 24.8125 6.109375 
Q 31.15625 6.109375 34.5625 8.28125 
Q 37.984375 10.453125 37.984375 14.40625 
Q 37.984375 18.0625 35.515625 20.015625 
Q 33.0625 21.96875 24.703125 23.78125 
L 21.578125 24.515625 
Q 13.234375 26.265625 9.515625 29.90625 
Q 5.8125 33.546875 5.8125 39.890625 
Q 5.8125 47.609375 11.28125 51.796875 
Q 16.75 56 26.8125 56 
Q 31.78125 56 36.171875 55.265625 
Q 40.578125 54.546875 44.28125 53.078125 
z
" id="DejaVuSans-73"/>
    </defs>
    <g transform="translate(694.48875 63.12)scale(0.12 -0.12)">
     <use xlink:href="#DejaVuSans-35"/>
     <use x="63.623047" xlink:href="#DejaVuSans-30"/>
     <use x="127.246094" xlink:href="#DejaVuSans-30"/>
     <use x="190.869141" xlink:href="#DejaVuSans-30"/>
     <use x="254.492188" xlink:href="#DejaVuSans-30"/>
     <use x="318.115234" xlink:href="#DejaVuSans-30"/>
     <use x="381.738281" xlink:href="#DejaVuSans-2e"/>
     <use x="413.525391" xlink:href="#DejaVuSans-30"/>
     <use x="477.148438" xlink:href="#DejaVuSans-20"/>
     <use x="508.935547" xlink:href="#DejaVuSans-62"/>
     <use x="572.412109" xlink:href="#DejaVuSans-69"/>
     <use x="600.195312" xlink:href="#DejaVuSans-74"/>
     <use x="639.404297" xlink:href="#DejaVuSans-2f"/>
     <use x="673.095703" xlink:href="#DejaVuSans-73"/>
    </g>
   </g>
   <g id="legend_1">
    <g id="patch_7">
     <path d="M 1173.520313 135.8325 
L 1289 135.8325 
Q 1291 135.8325 1291 133.8325 
L 1291 76.12 
Q 1291 74.12 1289 74.12 
L 1173.520313 74.12 
Q 1171.520313 74.12 1171.520313 76.12 
L 1171.520313 133.8325 
Q 1171.520313 135.8325 1173.520313 135.8325 
z
" style="fill:#ffffff;opacity:0.8;stroke:#cccccc;stroke-linejoin:miter;"/>
    </g>
    <g id="line2d_18">
     <path d="M 1175.520313 82.218437 
L 1195.520313 82.218437 
" style="fill:none;stroke:#ff0000;stroke-dasharray:5.55,2.4;stroke-dashoffset:0;stroke-width:1.5;"/>
    </g>
    <g id="line2d_19">
     <g>
      <use style="fill:#ff0000;stroke:#ff0000;stroke-linejoin:miter;" x="1185.520313" xlink:href="#mcc7a731fc7" y="82.218437"/>
     </g>
    </g>
    <g id="text_15">
     <!-- tcpdump -->
     <defs>
      <path d="M 48.78125 52.59375 
L 48.78125 44.1875 
Q 44.96875 46.296875 41.140625 47.34375 
Q 37.3125 48.390625 33.40625 48.390625 
Q 24.65625 48.390625 19.8125 42.84375 
Q 14.984375 37.3125 14.984375 27.296875 
Q 14.984375 17.28125 19.8125 11.734375 
Q 24.65625 6.203125 33.40625 6.203125 
Q 37.3125 6.203125 41.140625 7.25 
Q 44.96875 8.296875 48.78125 10.40625 
L 48.78125 2.09375 
Q 45.015625 0.34375 40.984375 -0.53125 
Q 36.96875 -1.421875 32.421875 -1.421875 
Q 20.0625 -1.421875 12.78125 6.34375 
Q 5.515625 14.109375 5.515625 27.296875 
Q 5.515625 40.671875 12.859375 48.328125 
Q 20.21875 56 33.015625 56 
Q 37.15625 56 41.109375 55.140625 
Q 45.0625 54.296875 48.78125 52.59375 
z
" id="DejaVuSans-63"/>
      <path d="M 18.109375 8.203125 
L 18.109375 -20.796875 
L 9.078125 -20.796875 
L 9.078125 54.6875 
L 18.109375 54.6875 
L 18.109375 46.390625 
Q 20.953125 51.265625 25.265625 53.625 
Q 29.59375 56 35.59375 56 
Q 45.5625 56 51.78125 48.09375 
Q 58.015625 40.1875 58.015625 27.296875 
Q 58.015625 14.40625 51.78125 6.484375 
Q 45.5625 -1.421875 35.59375 -1.421875 
Q 29.59375 -1.421875 25.265625 0.953125 
Q 20.953125 3.328125 18.109375 8.203125 
z
M 48.6875 27.296875 
Q 48.6875 37.203125 44.609375 42.84375 
Q 40.53125 48.484375 33.40625 48.484375 
Q 26.265625 48.484375 22.1875 42.84375 
Q 18.109375 37.203125 18.109375 27.296875 
Q 18.109375 17.390625 22.1875 11.75 
Q 26.265625 6.109375 33.40625 6.109375 
Q 40.53125 6.109375 44.609375 11.75 
Q 48.6875 17.390625 48.6875 27.296875 
z
" id="DejaVuSans-70"/>
      <path d="M 45.40625 46.390625 
L 45.40625 75.984375 
L 54.390625 75.984375 
L 54.390625 0 
L 45.40625 0 
L 45.40625 8.203125 
Q 42.578125 3.328125 38.25 0.953125 
Q 33.9375 -1.421875 27.875 -1.421875 
Q 17.96875 -1.421875 11.734375 6.484375 
Q 5.515625 14.40625 5.515625 27.296875 
Q 5.515625 40.1875 11.734375 48.09375 
Q 17.96875 56 27.875 56 
Q 33.9375 56 38.25 53.625 
Q 42.578125 51.265625 45.40625 46.390625 
z
M 14.796875 27.296875 
Q 14.796875 17.390625 18.875 11.75 
Q 22.953125 6.109375 30.078125 6.109375 
Q 37.203125 6.109375 41.296875 11.75 
Q 45.40625 17.390625 45.40625 27.296875 
Q 45.40625 37.203125 41.296875 42.84375 
Q 37.203125 48.484375 30.078125 48.484375 
Q 22.953125 48.484375 18.875 42.84375 
Q 14.796875 37.203125 14.796875 27.296875 
z
" id="DejaVuSans-64"/>
      <path d="M 8.5 21.578125 
L 8.5 54.6875 
L 17.484375 54.6875 
L 17.484375 21.921875 
Q 17.484375 14.15625 20.5 10.265625 
Q 23.53125 6.390625 29.59375 6.390625 
Q 36.859375 6.390625 41.078125 11.03125 
Q 45.3125 15.671875 45.3125 23.6875 
L 45.3125 54.6875 
L 54.296875 54.6875 
L 54.296875 0 
L 45.3125 0 
L 45.3125 8.40625 
Q 42.046875 3.421875 37.71875 1 
Q 33.40625 -1.421875 27.6875 -1.421875 
Q 18.265625 -1.421875 13.375 4.4375 
Q 8.5 10.296875 8.5 21.578125 
z
M 31.109375 56 
z
" id="DejaVuSans-75"/>
      <path d="M 52 44.1875 
Q 55.375 50.25 60.0625 53.125 
Q 64.75 56 71.09375 56 
Q 79.640625 56 84.28125 50.015625 
Q 88.921875 44.046875 88.921875 33.015625 
L 88.921875 0 
L 79.890625 0 
L 79.890625 32.71875 
Q 79.890625 40.578125 77.09375 44.375 
Q 74.3125 48.1875 68.609375 48.1875 
Q 61.625 48.1875 57.5625 43.546875 
Q 53.515625 38.921875 53.515625 30.90625 
L 53.515625 0 
L 44.484375 0 
L 44.484375 32.71875 
Q 44.484375 40.625 41.703125 44.40625 
Q 38.921875 48.1875 33.109375 48.1875 
Q 26.21875 48.1875 22.15625 43.53125 
Q 18.109375 38.875 18.109375 30.90625 
L 18.109375 0 
L 9.078125 0 
L 9.078125 54.6875 
L 18.109375 54.6875 
L 18.109375 46.1875 
Q 21.1875 51.21875 25.484375 53.609375 
Q 29.78125 56 35.6875 56 
Q 41.65625 56 45.828125 52.96875 
Q 50 49.953125 52 44.1875 
z
" id="DejaVuSans-6d"/>
     </defs>
     <g transform="translate(1203.520313 85.718437)scale(0.1 -0.1)">
      <use xlink:href="#DejaVuSans-74"/>
      <use x="39.208984" xlink:href="#DejaVuSans-63"/>
      <use x="94.189453" xlink:href="#DejaVuSans-70"/>
      <use x="157.666016" xlink:href="#DejaVuSans-64"/>
      <use x="221.142578" xlink:href="#DejaVuSans-75"/>
      <use x="284.521484" xlink:href="#DejaVuSans-6d"/>
      <use x="381.933594" xlink:href="#DejaVuSans-70"/>
     </g>
    </g>
    <g id="line2d_20">
     <path d="M 1175.520313 96.896563 
L 1195.520313 96.896563 
" style="fill:none;stroke:#800080;stroke-dasharray:9.6,2.4,1.5,2.4;stroke-dashoffset:0;stroke-width:1.5;"/>
    </g>
    <g id="line2d_21">
     <g>
      <use style="fill:#800080;stroke:#800080;" x="1185.520313" xlink:href="#me89d985593" y="96.896563"/>
     </g>
    </g>
    <g id="text_16">
     <!-- filtered tcpdump -->
     <defs>
      <path d="M 37.109375 75.984375 
L 37.109375 68.5 
L 28.515625 68.5 
Q 23.6875 68.5 21.796875 66.546875 
Q 19.921875 64.59375 19.921875 59.515625 
L 19.921875 54.6875 
L 34.71875 54.6875 
L 34.71875 47.703125 
L 19.921875 47.703125 
L 19.921875 0 
L 10.890625 0 
L 10.890625 47.703125 
L 2.296875 47.703125 
L 2.296875 54.6875 
L 10.890625 54.6875 
L 10.890625 58.5 
Q 10.890625 67.625 15.140625 71.796875 
Q 19.390625 75.984375 28.609375 75.984375 
z
" id="DejaVuSans-66"/>
      <path d="M 9.421875 75.984375 
L 18.40625 75.984375 
L 18.40625 0 
L 9.421875 0 
z
" id="DejaVuSans-6c"/>
      <path d="M 56.203125 29.59375 
L 56.203125 25.203125 
L 14.890625 25.203125 
Q 15.484375 15.921875 20.484375 11.0625 
Q 25.484375 6.203125 34.421875 6.203125 
Q 39.59375 6.203125 44.453125 7.46875 
Q 49.3125 8.734375 54.109375 11.28125 
L 54.109375 2.78125 
Q 49.265625 0.734375 44.1875 -0.34375 
Q 39.109375 -1.421875 33.890625 -1.421875 
Q 20.796875 -1.421875 13.15625 6.1875 
Q 5.515625 13.8125 5.515625 26.8125 
Q 5.515625 40.234375 12.765625 48.109375 
Q 20.015625 56 32.328125 56 
Q 43.359375 56 49.78125 48.890625 
Q 56.203125 41.796875 56.203125 29.59375 
z
M 47.21875 32.234375 
Q 47.125 39.59375 43.09375 43.984375 
Q 39.0625 48.390625 32.421875 48.390625 
Q 24.90625 48.390625 20.390625 44.140625 
Q 15.875 39.890625 15.1875 32.171875 
z
" id="DejaVuSans-65"/>
      <path d="M 41.109375 46.296875 
Q 39.59375 47.171875 37.8125 47.578125 
Q 36.03125 48 33.890625 48 
Q 26.265625 48 22.1875 43.046875 
Q 18.109375 38.09375 18.109375 28.8125 
L 18.109375 0 
L 9.078125 0 
L 9.078125 54.6875 
L 18.109375 54.6875 
L 18.109375 46.1875 
Q 20.953125 51.171875 25.484375 53.578125 
Q 30.03125 56 36.53125 56 
Q 37.453125 56 38.578125 55.875 
Q 39.703125 55.765625 41.0625 55.515625 
z
" id="DejaVuSans-72"/>
     </defs>
     <g transform="translate(1203.520313 100.396563)scale(0.1 -0.1)">
      <use xlink:href="#DejaVuSans-66"/>
      <use x="35.205078" xlink:href="#DejaVuSans-69"/>
      <use x="62.988281" xlink:href="#DejaVuSans-6c"/>
      <use x="90.771484" xlink:href="#DejaVuSans-74"/>
      <use x="129.980469" xlink:href="#DejaVuSans-65"/>
      <use x="191.503906" xlink:href="#DejaVuSans-72"/>
      <use x="232.585938" xlink:href="#DejaVuSans-65"/>
      <use x="294.109375" xlink:href="#DejaVuSans-64"/>
      <use x="357.585938" xlink:href="#DejaVuSans-20"/>
      <use x="389.373047" xlink:href="#DejaVuSans-74"/>
      <use x="428.582031" xlink:href="#DejaVuSans-63"/>
      <use x="483.5625" xlink:href="#DejaVuSans-70"/>
      <use x="547.039062" xlink:href="#DejaVuSans-64"/>
      <use x="610.515625" xlink:href="#DejaVuSans-75"/>
      <use x="673.894531" xlink:href="#DejaVuSans-6d"/>
      <use x="771.306641" xlink:href="#DejaVuSans-70"/>
     </g>
    </g>
    <g id="line2d_22">
     <path d="M 1175.520313 111.574687 
L 1195.520313 111.574687 
" style="fill:none;stroke:#0000ff;stroke-linecap:square;stroke-width:1.5;"/>
    </g>
    <g id="line2d_23"/>
    <g id="text_17">
     <!-- OLS -->
     <defs>
      <path d="M 39.40625 66.21875 
Q 28.65625 66.21875 22.328125 58.203125 
Q 16.015625 50.203125 16.015625 36.375 
Q 16.015625 22.609375 22.328125 14.59375 
Q 28.65625 6.59375 39.40625 6.59375 
Q 50.140625 6.59375 56.421875 14.59375 
Q 62.703125 22.609375 62.703125 36.375 
Q 62.703125 50.203125 56.421875 58.203125 
Q 50.140625 66.21875 39.40625 66.21875 
z
M 39.40625 74.21875 
Q 54.734375 74.21875 63.90625 63.9375 
Q 73.09375 53.65625 73.09375 36.375 
Q 73.09375 19.140625 63.90625 8.859375 
Q 54.734375 -1.421875 39.40625 -1.421875 
Q 24.03125 -1.421875 14.8125 8.828125 
Q 5.609375 19.09375 5.609375 36.375 
Q 5.609375 53.65625 14.8125 63.9375 
Q 24.03125 74.21875 39.40625 74.21875 
z
" id="DejaVuSans-4f"/>
      <path d="M 9.8125 72.90625 
L 19.671875 72.90625 
L 19.671875 8.296875 
L 55.171875 8.296875 
L 55.171875 0 
L 9.8125 0 
z
" id="DejaVuSans-4c"/>
      <path d="M 53.515625 70.515625 
L 53.515625 60.890625 
Q 47.90625 63.578125 42.921875 64.890625 
Q 37.9375 66.21875 33.296875 66.21875 
Q 25.25 66.21875 20.875 63.09375 
Q 16.5 59.96875 16.5 54.203125 
Q 16.5 49.359375 19.40625 46.890625 
Q 22.3125 44.4375 30.421875 42.921875 
L 36.375 41.703125 
Q 47.40625 39.59375 52.65625 34.296875 
Q 57.90625 29 57.90625 20.125 
Q 57.90625 9.515625 50.796875 4.046875 
Q 43.703125 -1.421875 29.984375 -1.421875 
Q 24.8125 -1.421875 18.96875 -0.25 
Q 13.140625 0.921875 6.890625 3.21875 
L 6.890625 13.375 
Q 12.890625 10.015625 18.65625 8.296875 
Q 24.421875 6.59375 29.984375 6.59375 
Q 38.421875 6.59375 43.015625 9.90625 
Q 47.609375 13.234375 47.609375 19.390625 
Q 47.609375 24.75 44.3125 27.78125 
Q 41.015625 30.8125 33.5 32.328125 
L 27.484375 33.5 
Q 16.453125 35.6875 11.515625 40.375 
Q 6.59375 45.0625 6.59375 53.421875 
Q 6.59375 63.09375 13.40625 68.65625 
Q 20.21875 74.21875 32.171875 74.21875 
Q 37.3125 74.21875 42.625 73.28125 
Q 47.953125 72.359375 53.515625 70.515625 
z
" id="DejaVuSans-53"/>
     </defs>
     <g transform="translate(1203.520313 115.074687)scale(0.1 -0.1)">
      <use xlink:href="#DejaVuSans-4f"/>
      <use x="78.710938" xlink:href="#DejaVuSans-4c"/>
      <use x="134.423828" xlink:href="#DejaVuSans-53"/>
     </g>
    </g>
    <g id="line2d_24">
     <path d="M 1175.520313 126.252813 
L 1195.520313 126.252813 
" style="fill:none;stroke:#008000;stroke-linecap:square;stroke-width:1.5;"/>
    </g>
    <g id="line2d_25">
     <g>
      <use style="fill:#008000;stroke:#008000;" x="1185.520313" xlink:href="#m52c97ee915" y="126.252813"/>
     </g>
    </g>
    <g id="text_18">
     <!-- IRLS -->
     <defs>
      <path d="M 9.8125 72.90625 
L 19.671875 72.90625 
L 19.671875 0 
L 9.8125 0 
z
" id="DejaVuSans-49"/>
      <path d="M 44.390625 34.1875 
Q 47.5625 33.109375 50.5625 29.59375 
Q 53.5625 26.078125 56.59375 19.921875 
L 66.609375 0 
L 56 0 
L 46.6875 18.703125 
Q 43.0625 26.03125 39.671875 28.421875 
Q 36.28125 30.8125 30.421875 30.8125 
L 19.671875 30.8125 
L 19.671875 0 
L 9.8125 0 
L 9.8125 72.90625 
L 32.078125 72.90625 
Q 44.578125 72.90625 50.734375 67.671875 
Q 56.890625 62.453125 56.890625 51.90625 
Q 56.890625 45.015625 53.6875 40.46875 
Q 50.484375 35.9375 44.390625 34.1875 
z
M 19.671875 64.796875 
L 19.671875 38.921875 
L 32.078125 38.921875 
Q 39.203125 38.921875 42.84375 42.21875 
Q 46.484375 45.515625 46.484375 51.90625 
Q 46.484375 58.296875 42.84375 61.546875 
Q 39.203125 64.796875 32.078125 64.796875 
z
" id="DejaVuSans-52"/>
     </defs>
     <g transform="translate(1203.520313 129.752813)scale(0.1 -0.1)">
      <use xlink:href="#DejaVuSans-49"/>
      <use x="29.492188" xlink:href="#DejaVuSans-52"/>
      <use x="98.974609" xlink:href="#DejaVuSans-4c"/>
      <use x="154.6875" xlink:href="#DejaVuSans-53"/>
     </g>
    </g>
   </g>
  </g>
 </g>
 <defs>
  <clipPath id="p464a22ea89">
   <rect height="443.52" width="1116" x="180" y="69.12"/>
  </clipPath>
 </defs>
</svg>
