<?xml version="1.0" encoding="utf-8" standalone="no"?>
<!DOCTYPE svg PUBLIC "-//W3C//DTD SVG 1.1//EN"
  "http://www.w3.org/Graphics/SVG/1.1/DTD/svg11.dtd">
<!-- Created with matplotlib (http://matplotlib.org/) -->
<svg height="576pt" version="1.1" viewBox="0 0 1440 576" width="1440pt" xmlns="http://www.w3.org/2000/svg" xmlns:xlink="http://www.w3.org/1999/xlink">
 <defs>
  <style type="text/css">
*{stroke-linecap:butt;stroke-linejoin:round;}
  </style>
 </defs>
 <g id="figure_1">
  <g id="patch_1">
   <path d="M 0 576 
L 1440 576 
L 1440 0 
L 0 0 
z
" style="fill:#ffffff;"/>
  </g>
  <g id="axes_1">
   <g id="patch_2">
    <path d="M 180 512.64 
L 1296 512.64 
L 1296 69.12 
L 180 69.12 
z
" style="fill:#ffffff;"/>
   </g>
   <g id="matplotlib.axis_1">
    <g id="xtick_1">
     <g id="line2d_1">
      <defs>
       <path d="M 0 0 
L 0 3.5 
" id="mf24e613c67" style="stroke:#000000;stroke-width:0.8;"/>
      </defs>
      <g>
       <use style="stroke:#000000;stroke-width:0.8;" x="230.727273" xlink:href="#mf24e613c67" y="512.64"/>
      </g>
     </g>
     <g id="text_1">
      <!-- 0.0 -->
      <defs>
       <path d="M 31.78125 66.40625 
Q 24.171875 66.40625 20.328125 58.90625 
Q 16.5 51.421875 16.5 36.375 
Q 16.5 21.390625 20.328125 13.890625 
Q 24.171875 6.390625 31.78125 6.390625 
Q 39.453125 6.390625 43.28125 13.890625 
Q 47.125 21.390625 47.125 36.375 
Q 47.125 51.421875 43.28125 58.90625 
Q 39.453125 66.40625 31.78125 66.40625 
z
M 31.78125 74.21875 
Q 44.046875 74.21875 50.515625 64.515625 
Q 56.984375 54.828125 56.984375 36.375 
Q 56.984375 17.96875 50.515625 8.265625 
Q 44.046875 -1.421875 31.78125 -1.421875 
Q 19.53125 -1.421875 13.0625 8.265625 
Q 6.59375 17.96875 6.59375 36.375 
Q 6.59375 54.828125 13.0625 64.515625 
Q 19.53125 74.21875 31.78125 74.21875 
z
" id="DejaVuSans-30"/>
       <path d="M 10.6875 12.40625 
L 21 12.40625 
L 21 0 
L 10.6875 0 
z
" id="DejaVuSans-2e"/>
      </defs>
      <g transform="translate(222.77571 527.238438)scale(0.1 -0.1)">
       <use xlink:href="#DejaVuSans-30"/>
       <use x="63.623047" xlink:href="#DejaVuSans-2e"/>
       <use x="95.410156" xlink:href="#DejaVuSans-30"/>
      </g>
     </g>
    </g>
    <g id="xtick_2">
     <g id="line2d_2">
      <g>
       <use style="stroke:#000000;stroke-width:0.8;" x="385.913734" xlink:href="#mf24e613c67" y="512.64"/>
      </g>
     </g>
     <g id="text_2">
      <!-- 0.2 -->
      <defs>
       <path d="M 19.1875 8.296875 
L 53.609375 8.296875 
L 53.609375 0 
L 7.328125 0 
L 7.328125 8.296875 
Q 12.9375 14.109375 22.625 23.890625 
Q 32.328125 33.6875 34.8125 36.53125 
Q 39.546875 41.84375 41.421875 45.53125 
Q 43.3125 49.21875 43.3125 52.78125 
Q 43.3125 58.59375 39.234375 62.25 
Q 35.15625 65.921875 28.609375 65.921875 
Q 23.96875 65.921875 18.8125 64.3125 
Q 13.671875 62.703125 7.8125 59.421875 
L 7.8125 69.390625 
Q 13.765625 71.78125 18.9375 73 
Q 24.125 74.21875 28.421875 74.21875 
Q 39.75 74.21875 46.484375 68.546875 
Q 53.21875 62.890625 53.21875 53.421875 
Q 53.21875 48.921875 51.53125 44.890625 
Q 49.859375 40.875 45.40625 35.40625 
Q 44.1875 33.984375 37.640625 27.21875 
Q 31.109375 20.453125 19.1875 8.296875 
z
" id="DejaVuSans-32"/>
      </defs>
      <g transform="translate(377.962171 527.238438)scale(0.1 -0.1)">
       <use xlink:href="#DejaVuSans-30"/>
       <use x="63.623047" xlink:href="#DejaVuSans-2e"/>
       <use x="95.410156" xlink:href="#DejaVuSans-32"/>
      </g>
     </g>
    </g>
    <g id="xtick_3">
     <g id="line2d_3">
      <g>
       <use style="stroke:#000000;stroke-width:0.8;" x="541.100194" xlink:href="#mf24e613c67" y="512.64"/>
      </g>
     </g>
     <g id="text_3">
      <!-- 0.4 -->
      <defs>
       <path d="M 37.796875 64.3125 
L 12.890625 25.390625 
L 37.796875 25.390625 
z
M 35.203125 72.90625 
L 47.609375 72.90625 
L 47.609375 25.390625 
L 58.015625 25.390625 
L 58.015625 17.1875 
L 47.609375 17.1875 
L 47.609375 0 
L 37.796875 0 
L 37.796875 17.1875 
L 4.890625 17.1875 
L 4.890625 26.703125 
z
" id="DejaVuSans-34"/>
      </defs>
      <g transform="translate(533.148632 527.238438)scale(0.1 -0.1)">
       <use xlink:href="#DejaVuSans-30"/>
       <use x="63.623047" xlink:href="#DejaVuSans-2e"/>
       <use x="95.410156" xlink:href="#DejaVuSans-34"/>
      </g>
     </g>
    </g>
    <g id="xtick_4">
     <g id="line2d_4">
      <g>
       <use style="stroke:#000000;stroke-width:0.8;" x="696.286655" xlink:href="#mf24e613c67" y="512.64"/>
      </g>
     </g>
     <g id="text_4">
      <!-- 0.6 -->
      <defs>
       <path d="M 33.015625 40.375 
Q 26.375 40.375 22.484375 35.828125 
Q 18.609375 31.296875 18.609375 23.390625 
Q 18.609375 15.53125 22.484375 10.953125 
Q 26.375 6.390625 33.015625 6.390625 
Q 39.65625 6.390625 43.53125 10.953125 
Q 47.40625 15.53125 47.40625 23.390625 
Q 47.40625 31.296875 43.53125 35.828125 
Q 39.65625 40.375 33.015625 40.375 
z
M 52.59375 71.296875 
L 52.59375 62.3125 
Q 48.875 64.0625 45.09375 64.984375 
Q 41.3125 65.921875 37.59375 65.921875 
Q 27.828125 65.921875 22.671875 59.328125 
Q 17.53125 52.734375 16.796875 39.40625 
Q 19.671875 43.65625 24.015625 45.921875 
Q 28.375 48.1875 33.59375 48.1875 
Q 44.578125 48.1875 50.953125 41.515625 
Q 57.328125 34.859375 57.328125 23.390625 
Q 57.328125 12.15625 50.6875 5.359375 
Q 44.046875 -1.421875 33.015625 -1.421875 
Q 20.359375 -1.421875 13.671875 8.265625 
Q 6.984375 17.96875 6.984375 36.375 
Q 6.984375 53.65625 15.1875 63.9375 
Q 23.390625 74.21875 37.203125 74.21875 
Q 40.921875 74.21875 44.703125 73.484375 
Q 48.484375 72.75 52.59375 71.296875 
z
" id="DejaVuSans-36"/>
      </defs>
      <g transform="translate(688.335093 527.238438)scale(0.1 -0.1)">
       <use xlink:href="#DejaVuSans-30"/>
       <use x="63.623047" xlink:href="#DejaVuSans-2e"/>
       <use x="95.410156" xlink:href="#DejaVuSans-36"/>
      </g>
     </g>
    </g>
    <g id="xtick_5">
     <g id="line2d_5">
      <g>
       <use style="stroke:#000000;stroke-width:0.8;" x="851.473116" xlink:href="#mf24e613c67" y="512.64"/>
      </g>
     </g>
     <g id="text_5">
      <!-- 0.8 -->
      <defs>
       <path d="M 31.78125 34.625 
Q 24.75 34.625 20.71875 30.859375 
Q 16.703125 27.09375 16.703125 20.515625 
Q 16.703125 13.921875 20.71875 10.15625 
Q 24.75 6.390625 31.78125 6.390625 
Q 38.8125 6.390625 42.859375 10.171875 
Q 46.921875 13.96875 46.921875 20.515625 
Q 46.921875 27.09375 42.890625 30.859375 
Q 38.875 34.625 31.78125 34.625 
z
M 21.921875 38.8125 
Q 15.578125 40.375 12.03125 44.71875 
Q 8.5 49.078125 8.5 55.328125 
Q 8.5 64.0625 14.71875 69.140625 
Q 20.953125 74.21875 31.78125 74.21875 
Q 42.671875 74.21875 48.875 69.140625 
Q 55.078125 64.0625 55.078125 55.328125 
Q 55.078125 49.078125 51.53125 44.71875 
Q 48 40.375 41.703125 38.8125 
Q 48.828125 37.15625 52.796875 32.3125 
Q 56.78125 27.484375 56.78125 20.515625 
Q 56.78125 9.90625 50.3125 4.234375 
Q 43.84375 -1.421875 31.78125 -1.421875 
Q 19.734375 -1.421875 13.25 4.234375 
Q 6.78125 9.90625 6.78125 20.515625 
Q 6.78125 27.484375 10.78125 32.3125 
Q 14.796875 37.15625 21.921875 38.8125 
z
M 18.3125 54.390625 
Q 18.3125 48.734375 21.84375 45.5625 
Q 25.390625 42.390625 31.78125 42.390625 
Q 38.140625 42.390625 41.71875 45.5625 
Q 45.3125 48.734375 45.3125 54.390625 
Q 45.3125 60.0625 41.71875 63.234375 
Q 38.140625 66.40625 31.78125 66.40625 
Q 25.390625 66.40625 21.84375 63.234375 
Q 18.3125 60.0625 18.3125 54.390625 
z
" id="DejaVuSans-38"/>
      </defs>
      <g transform="translate(843.521554 527.238438)scale(0.1 -0.1)">
       <use xlink:href="#DejaVuSans-30"/>
       <use x="63.623047" xlink:href="#DejaVuSans-2e"/>
       <use x="95.410156" xlink:href="#DejaVuSans-38"/>
      </g>
     </g>
    </g>
    <g id="xtick_6">
     <g id="line2d_6">
      <g>
       <use style="stroke:#000000;stroke-width:0.8;" x="1006.659577" xlink:href="#mf24e613c67" y="512.64"/>
      </g>
     </g>
     <g id="text_6">
      <!-- 1.0 -->
      <defs>
       <path d="M 12.40625 8.296875 
L 28.515625 8.296875 
L 28.515625 63.921875 
L 10.984375 60.40625 
L 10.984375 69.390625 
L 28.421875 72.90625 
L 38.28125 72.90625 
L 38.28125 8.296875 
L 54.390625 8.296875 
L 54.390625 0 
L 12.40625 0 
z
" id="DejaVuSans-31"/>
      </defs>
      <g transform="translate(998.708014 527.238438)scale(0.1 -0.1)">
       <use xlink:href="#DejaVuSans-31"/>
       <use x="63.623047" xlink:href="#DejaVuSans-2e"/>
       <use x="95.410156" xlink:href="#DejaVuSans-30"/>
      </g>
     </g>
    </g>
    <g id="xtick_7">
     <g id="line2d_7">
      <g>
       <use style="stroke:#000000;stroke-width:0.8;" x="1161.846038" xlink:href="#mf24e613c67" y="512.64"/>
      </g>
     </g>
     <g id="text_7">
      <!-- 1.2 -->
      <g transform="translate(1153.894475 527.238438)scale(0.1 -0.1)">
       <use xlink:href="#DejaVuSans-31"/>
       <use x="63.623047" xlink:href="#DejaVuSans-2e"/>
       <use x="95.410156" xlink:href="#DejaVuSans-32"/>
      </g>
     </g>
    </g>
   </g>
   <g id="matplotlib.axis_2">
    <g id="ytick_1">
     <g id="line2d_8">
      <defs>
       <path d="M 0 0 
L -3.5 0 
" id="m22dfc3f92d" style="stroke:#000000;stroke-width:0.8;"/>
      </defs>
      <g>
       <use style="stroke:#000000;stroke-width:0.8;" x="180" xlink:href="#m22dfc3f92d" y="511.171391"/>
      </g>
     </g>
     <g id="text_8">
      <!-- 0.30028 -->
      <defs>
       <path d="M 40.578125 39.3125 
Q 47.65625 37.796875 51.625 33 
Q 55.609375 28.21875 55.609375 21.1875 
Q 55.609375 10.40625 48.1875 4.484375 
Q 40.765625 -1.421875 27.09375 -1.421875 
Q 22.515625 -1.421875 17.65625 -0.515625 
Q 12.796875 0.390625 7.625 2.203125 
L 7.625 11.71875 
Q 11.71875 9.328125 16.59375 8.109375 
Q 21.484375 6.890625 26.8125 6.890625 
Q 36.078125 6.890625 40.9375 10.546875 
Q 45.796875 14.203125 45.796875 21.1875 
Q 45.796875 27.640625 41.28125 31.265625 
Q 36.765625 34.90625 28.71875 34.90625 
L 20.21875 34.90625 
L 20.21875 43.015625 
L 29.109375 43.015625 
Q 36.375 43.015625 40.234375 45.921875 
Q 44.09375 48.828125 44.09375 54.296875 
Q 44.09375 59.90625 40.109375 62.90625 
Q 36.140625 65.921875 28.71875 65.921875 
Q 24.65625 65.921875 20.015625 65.03125 
Q 15.375 64.15625 9.8125 62.3125 
L 9.8125 71.09375 
Q 15.4375 72.65625 20.34375 73.4375 
Q 25.25 74.21875 29.59375 74.21875 
Q 40.828125 74.21875 47.359375 69.109375 
Q 53.90625 64.015625 53.90625 55.328125 
Q 53.90625 49.265625 50.4375 45.09375 
Q 46.96875 40.921875 40.578125 39.3125 
z
" id="DejaVuSans-33"/>
      </defs>
      <g transform="translate(131.646875 514.970609)scale(0.1 -0.1)">
       <use xlink:href="#DejaVuSans-30"/>
       <use x="63.623047" xlink:href="#DejaVuSans-2e"/>
       <use x="95.410156" xlink:href="#DejaVuSans-33"/>
       <use x="159.033203" xlink:href="#DejaVuSans-30"/>
       <use x="222.65625" xlink:href="#DejaVuSans-30"/>
       <use x="286.279297" xlink:href="#DejaVuSans-32"/>
       <use x="349.902344" xlink:href="#DejaVuSans-38"/>
      </g>
     </g>
    </g>
    <g id="ytick_2">
     <g id="line2d_9">
      <g>
       <use style="stroke:#000000;stroke-width:0.8;" x="180" xlink:href="#m22dfc3f92d" y="457.767417"/>
      </g>
     </g>
     <g id="text_9">
      <!-- 0.30030 -->
      <g transform="translate(131.646875 461.566636)scale(0.1 -0.1)">
       <use xlink:href="#DejaVuSans-30"/>
       <use x="63.623047" xlink:href="#DejaVuSans-2e"/>
       <use x="95.410156" xlink:href="#DejaVuSans-33"/>
       <use x="159.033203" xlink:href="#DejaVuSans-30"/>
       <use x="222.65625" xlink:href="#DejaVuSans-30"/>
       <use x="286.279297" xlink:href="#DejaVuSans-33"/>
       <use x="349.902344" xlink:href="#DejaVuSans-30"/>
      </g>
     </g>
    </g>
    <g id="ytick_3">
     <g id="line2d_10">
      <g>
       <use style="stroke:#000000;stroke-width:0.8;" x="180" xlink:href="#m22dfc3f92d" y="404.363444"/>
      </g>
     </g>
     <g id="text_10">
      <!-- 0.30032 -->
      <g transform="translate(131.646875 408.162662)scale(0.1 -0.1)">
       <use xlink:href="#DejaVuSans-30"/>
       <use x="63.623047" xlink:href="#DejaVuSans-2e"/>
       <use x="95.410156" xlink:href="#DejaVuSans-33"/>
       <use x="159.033203" xlink:href="#DejaVuSans-30"/>
       <use x="222.65625" xlink:href="#DejaVuSans-30"/>
       <use x="286.279297" xlink:href="#DejaVuSans-33"/>
       <use x="349.902344" xlink:href="#DejaVuSans-32"/>
      </g>
     </g>
    </g>
    <g id="ytick_4">
     <g id="line2d_11">
      <g>
       <use style="stroke:#000000;stroke-width:0.8;" x="180" xlink:href="#m22dfc3f92d" y="350.95947"/>
      </g>
     </g>
     <g id="text_11">
      <!-- 0.30034 -->
      <g transform="translate(131.646875 354.758689)scale(0.1 -0.1)">
       <use xlink:href="#DejaVuSans-30"/>
       <use x="63.623047" xlink:href="#DejaVuSans-2e"/>
       <use x="95.410156" xlink:href="#DejaVuSans-33"/>
       <use x="159.033203" xlink:href="#DejaVuSans-30"/>
       <use x="222.65625" xlink:href="#DejaVuSans-30"/>
       <use x="286.279297" xlink:href="#DejaVuSans-33"/>
       <use x="349.902344" xlink:href="#DejaVuSans-34"/>
      </g>
     </g>
    </g>
    <g id="ytick_5">
     <g id="line2d_12">
      <g>
       <use style="stroke:#000000;stroke-width:0.8;" x="180" xlink:href="#m22dfc3f92d" y="297.555497"/>
      </g>
     </g>
     <g id="text_12">
      <!-- 0.30036 -->
      <g transform="translate(131.646875 301.354715)scale(0.1 -0.1)">
       <use xlink:href="#DejaVuSans-30"/>
       <use x="63.623047" xlink:href="#DejaVuSans-2e"/>
       <use x="95.410156" xlink:href="#DejaVuSans-33"/>
       <use x="159.033203" xlink:href="#DejaVuSans-30"/>
       <use x="222.65625" xlink:href="#DejaVuSans-30"/>
       <use x="286.279297" xlink:href="#DejaVuSans-33"/>
       <use x="349.902344" xlink:href="#DejaVuSans-36"/>
      </g>
     </g>
    </g>
    <g id="ytick_6">
     <g id="line2d_13">
      <g>
       <use style="stroke:#000000;stroke-width:0.8;" x="180" xlink:href="#m22dfc3f92d" y="244.151523"/>
      </g>
     </g>
     <g id="text_13">
      <!-- 0.30038 -->
      <g transform="translate(131.646875 247.950742)scale(0.1 -0.1)">
       <use xlink:href="#DejaVuSans-30"/>
       <use x="63.623047" xlink:href="#DejaVuSans-2e"/>
       <use x="95.410156" xlink:href="#DejaVuSans-33"/>
       <use x="159.033203" xlink:href="#DejaVuSans-30"/>
       <use x="222.65625" xlink:href="#DejaVuSans-30"/>
       <use x="286.279297" xlink:href="#DejaVuSans-33"/>
       <use x="349.902344" xlink:href="#DejaVuSans-38"/>
      </g>
     </g>
    </g>
    <g id="ytick_7">
     <g id="line2d_14">
      <g>
       <use style="stroke:#000000;stroke-width:0.8;" x="180" xlink:href="#m22dfc3f92d" y="190.74755"/>
      </g>
     </g>
     <g id="text_14">
      <!-- 0.30040 -->
      <g transform="translate(131.646875 194.546768)scale(0.1 -0.1)">
       <use xlink:href="#DejaVuSans-30"/>
       <use x="63.623047" xlink:href="#DejaVuSans-2e"/>
       <use x="95.410156" xlink:href="#DejaVuSans-33"/>
       <use x="159.033203" xlink:href="#DejaVuSans-30"/>
       <use x="222.65625" xlink:href="#DejaVuSans-30"/>
       <use x="286.279297" xlink:href="#DejaVuSans-34"/>
       <use x="349.902344" xlink:href="#DejaVuSans-30"/>
      </g>
     </g>
    </g>
    <g id="ytick_8">
     <g id="line2d_15">
      <g>
       <use style="stroke:#000000;stroke-width:0.8;" x="180" xlink:href="#m22dfc3f92d" y="137.343576"/>
      </g>
     </g>
     <g id="text_15">
      <!-- 0.30042 -->
      <g transform="translate(131.646875 141.142795)scale(0.1 -0.1)">
       <use xlink:href="#DejaVuSans-30"/>
       <use x="63.623047" xlink:href="#DejaVuSans-2e"/>
       <use x="95.410156" xlink:href="#DejaVuSans-33"/>
       <use x="159.033203" xlink:href="#DejaVuSans-30"/>
       <use x="222.65625" xlink:href="#DejaVuSans-30"/>
       <use x="286.279297" xlink:href="#DejaVuSans-34"/>
       <use x="349.902344" xlink:href="#DejaVuSans-32"/>
      </g>
     </g>
    </g>
    <g id="ytick_9">
     <g id="line2d_16">
      <g>
       <use style="stroke:#000000;stroke-width:0.8;" x="180" xlink:href="#m22dfc3f92d" y="83.939603"/>
      </g>
     </g>
     <g id="text_16">
      <!-- 0.30044 -->
      <g transform="translate(131.646875 87.738821)scale(0.1 -0.1)">
       <use xlink:href="#DejaVuSans-30"/>
       <use x="63.623047" xlink:href="#DejaVuSans-2e"/>
       <use x="95.410156" xlink:href="#DejaVuSans-33"/>
       <use x="159.033203" xlink:href="#DejaVuSans-30"/>
       <use x="222.65625" xlink:href="#DejaVuSans-30"/>
       <use x="286.279297" xlink:href="#DejaVuSans-34"/>
       <use x="349.902344" xlink:href="#DejaVuSans-34"/>
      </g>
     </g>
    </g>
   </g>
   <g id="line2d_17">
    <path clip-path="url(#pa4d637b649)" d="M 230.727273 318.917086 
L 240.836895 236.140927 
L 250.726928 172.056159 
L 260.738782 345.619073 
L 270.8034 177.396556 
L 281.410395 399.023046 
L 291.425353 374.991258 
L 301.53032 404.363444 
L 311.537518 372.32106 
L 321.566444 428.395232 
L 331.641149 391.01245 
L 341.692576 145.354172 
L 352.204906 409.703841 
L 362.227624 393.682649 
L 372.429582 220.119735 
L 382.969846 324.257483 
L 393.029033 396.352848 
L 403.046319 308.236291 
L 413.245949 356.299868 
L 423.258579 401.693245 
L 433.268106 452.42702 
L 443.31643 428.395232 
L 453.886179 217.449536 
L 463.930623 412.37404 
L 476.093362 417.714437 
L 486.563792 305.566093 
L 496.619875 340.278675 
L 506.655008 305.566093 
L 518.118631 391.01245 
L 528.20032 401.693245 
L 538.225365 310.90649 
L 548.244979 334.938278 
L 558.291751 385.672053 
L 568.436289 358.970066 
L 579.046388 415.044238 
L 589.099367 366.980662 
L 599.374262 420.384636 
L 609.427241 366.980662 
L 619.477116 396.352848 
L 629.513801 356.299868 
L 639.578419 396.352848 
L 649.843227 409.703841 
L 659.893102 439.076026 
L 670.127649 348.289272 
L 680.730764 89.28 
L 690.761241 369.650861 
L 701.001996 366.980662 
L 711.056527 364.310464 
L 721.835778 366.980662 
L 731.8616 399.023046 
L 741.903715 334.938278 
L 753.55977 286.874702 
L 763.830786 431.06543 
L 773.865143 372.32106 
L 784.295225 369.650861 
L 794.341221 399.023046 
L 804.395751 340.278675 
L 815.604093 364.310464 
L 825.701301 356.299868 
L 835.724794 326.927682 
L 845.737425 417.714437 
L 855.767901 310.90649 
L 865.939598 407.033642 
L 876.499261 393.682649 
L 886.538273 377.661457 
L 896.758077 377.661457 
L 906.806401 441.746225 
L 917.116213 431.06543 
L 927.14669 383.001854 
L 937.187254 305.566093 
L 947.84546 396.352848 
L 957.877489 492.48 
L 967.908742 404.363444 
L 978.143289 399.023046 
L 989.358614 356.299868 
L 999.590058 276.193907 
L 1010.142737 254.832318 
L 1020.531695 415.044238 
L 1030.480699 441.746225 
L 1040.504192 449.756821 
L 1050.549412 431.06543 
L 1060.624893 383.001854 
L 1070.833834 428.395232 
L 1080.751801 412.37404 
L 1091.461994 436.405828 
L 1103.142103 222.789934 
L 1113.776256 262.842914 
L 1124.234271 385.672053 
L 1134.2663 340.278675 
L 1144.326262 361.640265 
L 1154.387001 423.054834 
L 1164.467913 396.352848 
L 1174.736601 396.352848 
L 1184.946318 212.109139 
L 1195.235957 471.118411 
L 1205.14694 431.06543 
L 1215.330276 348.289272 
L 1225.473263 369.650861 
L 1235.340018 366.980662 
L 1245.272727 417.714437 
" style="fill:none;stroke:#ff0000;stroke-dasharray:5.55,2.4;stroke-dashoffset:0;stroke-width:1.5;"/>
    <defs>
     <path d="M -3 3 
L 3 3 
L 3 -3 
L -3 -3 
z
" id="m4e5a7f3273" style="stroke:#ff0000;stroke-linejoin:miter;"/>
    </defs>
    <g clip-path="url(#pa4d637b649)">
     <use style="fill:#ff0000;stroke:#ff0000;stroke-linejoin:miter;" x="230.727273" xlink:href="#m4e5a7f3273" y="318.917086"/>
     <use style="fill:#ff0000;stroke:#ff0000;stroke-linejoin:miter;" x="240.836895" xlink:href="#m4e5a7f3273" y="236.140927"/>
     <use style="fill:#ff0000;stroke:#ff0000;stroke-linejoin:miter;" x="250.726928" xlink:href="#m4e5a7f3273" y="172.056159"/>
     <use style="fill:#ff0000;stroke:#ff0000;stroke-linejoin:miter;" x="260.738782" xlink:href="#m4e5a7f3273" y="345.619073"/>
     <use style="fill:#ff0000;stroke:#ff0000;stroke-linejoin:miter;" x="270.8034" xlink:href="#m4e5a7f3273" y="177.396556"/>
     <use style="fill:#ff0000;stroke:#ff0000;stroke-linejoin:miter;" x="281.410395" xlink:href="#m4e5a7f3273" y="399.023046"/>
     <use style="fill:#ff0000;stroke:#ff0000;stroke-linejoin:miter;" x="291.425353" xlink:href="#m4e5a7f3273" y="374.991258"/>
     <use style="fill:#ff0000;stroke:#ff0000;stroke-linejoin:miter;" x="301.53032" xlink:href="#m4e5a7f3273" y="404.363444"/>
     <use style="fill:#ff0000;stroke:#ff0000;stroke-linejoin:miter;" x="311.537518" xlink:href="#m4e5a7f3273" y="372.32106"/>
     <use style="fill:#ff0000;stroke:#ff0000;stroke-linejoin:miter;" x="321.566444" xlink:href="#m4e5a7f3273" y="428.395232"/>
     <use style="fill:#ff0000;stroke:#ff0000;stroke-linejoin:miter;" x="331.641149" xlink:href="#m4e5a7f3273" y="391.01245"/>
     <use style="fill:#ff0000;stroke:#ff0000;stroke-linejoin:miter;" x="341.692576" xlink:href="#m4e5a7f3273" y="145.354172"/>
     <use style="fill:#ff0000;stroke:#ff0000;stroke-linejoin:miter;" x="352.204906" xlink:href="#m4e5a7f3273" y="409.703841"/>
     <use style="fill:#ff0000;stroke:#ff0000;stroke-linejoin:miter;" x="362.227624" xlink:href="#m4e5a7f3273" y="393.682649"/>
     <use style="fill:#ff0000;stroke:#ff0000;stroke-linejoin:miter;" x="372.429582" xlink:href="#m4e5a7f3273" y="220.119735"/>
     <use style="fill:#ff0000;stroke:#ff0000;stroke-linejoin:miter;" x="382.969846" xlink:href="#m4e5a7f3273" y="324.257483"/>
     <use style="fill:#ff0000;stroke:#ff0000;stroke-linejoin:miter;" x="393.029033" xlink:href="#m4e5a7f3273" y="396.352848"/>
     <use style="fill:#ff0000;stroke:#ff0000;stroke-linejoin:miter;" x="403.046319" xlink:href="#m4e5a7f3273" y="308.236291"/>
     <use style="fill:#ff0000;stroke:#ff0000;stroke-linejoin:miter;" x="413.245949" xlink:href="#m4e5a7f3273" y="356.299868"/>
     <use style="fill:#ff0000;stroke:#ff0000;stroke-linejoin:miter;" x="423.258579" xlink:href="#m4e5a7f3273" y="401.693245"/>
     <use style="fill:#ff0000;stroke:#ff0000;stroke-linejoin:miter;" x="433.268106" xlink:href="#m4e5a7f3273" y="452.42702"/>
     <use style="fill:#ff0000;stroke:#ff0000;stroke-linejoin:miter;" x="443.31643" xlink:href="#m4e5a7f3273" y="428.395232"/>
     <use style="fill:#ff0000;stroke:#ff0000;stroke-linejoin:miter;" x="453.886179" xlink:href="#m4e5a7f3273" y="217.449536"/>
     <use style="fill:#ff0000;stroke:#ff0000;stroke-linejoin:miter;" x="463.930623" xlink:href="#m4e5a7f3273" y="412.37404"/>
     <use style="fill:#ff0000;stroke:#ff0000;stroke-linejoin:miter;" x="476.093362" xlink:href="#m4e5a7f3273" y="417.714437"/>
     <use style="fill:#ff0000;stroke:#ff0000;stroke-linejoin:miter;" x="486.563792" xlink:href="#m4e5a7f3273" y="305.566093"/>
     <use style="fill:#ff0000;stroke:#ff0000;stroke-linejoin:miter;" x="496.619875" xlink:href="#m4e5a7f3273" y="340.278675"/>
     <use style="fill:#ff0000;stroke:#ff0000;stroke-linejoin:miter;" x="506.655008" xlink:href="#m4e5a7f3273" y="305.566093"/>
     <use style="fill:#ff0000;stroke:#ff0000;stroke-linejoin:miter;" x="518.118631" xlink:href="#m4e5a7f3273" y="391.01245"/>
     <use style="fill:#ff0000;stroke:#ff0000;stroke-linejoin:miter;" x="528.20032" xlink:href="#m4e5a7f3273" y="401.693245"/>
     <use style="fill:#ff0000;stroke:#ff0000;stroke-linejoin:miter;" x="538.225365" xlink:href="#m4e5a7f3273" y="310.90649"/>
     <use style="fill:#ff0000;stroke:#ff0000;stroke-linejoin:miter;" x="548.244979" xlink:href="#m4e5a7f3273" y="334.938278"/>
     <use style="fill:#ff0000;stroke:#ff0000;stroke-linejoin:miter;" x="558.291751" xlink:href="#m4e5a7f3273" y="385.672053"/>
     <use style="fill:#ff0000;stroke:#ff0000;stroke-linejoin:miter;" x="568.436289" xlink:href="#m4e5a7f3273" y="358.970066"/>
     <use style="fill:#ff0000;stroke:#ff0000;stroke-linejoin:miter;" x="579.046388" xlink:href="#m4e5a7f3273" y="415.044238"/>
     <use style="fill:#ff0000;stroke:#ff0000;stroke-linejoin:miter;" x="589.099367" xlink:href="#m4e5a7f3273" y="366.980662"/>
     <use style="fill:#ff0000;stroke:#ff0000;stroke-linejoin:miter;" x="599.374262" xlink:href="#m4e5a7f3273" y="420.384636"/>
     <use style="fill:#ff0000;stroke:#ff0000;stroke-linejoin:miter;" x="609.427241" xlink:href="#m4e5a7f3273" y="366.980662"/>
     <use style="fill:#ff0000;stroke:#ff0000;stroke-linejoin:miter;" x="619.477116" xlink:href="#m4e5a7f3273" y="396.352848"/>
     <use style="fill:#ff0000;stroke:#ff0000;stroke-linejoin:miter;" x="629.513801" xlink:href="#m4e5a7f3273" y="356.299868"/>
     <use style="fill:#ff0000;stroke:#ff0000;stroke-linejoin:miter;" x="639.578419" xlink:href="#m4e5a7f3273" y="396.352848"/>
     <use style="fill:#ff0000;stroke:#ff0000;stroke-linejoin:miter;" x="649.843227" xlink:href="#m4e5a7f3273" y="409.703841"/>
     <use style="fill:#ff0000;stroke:#ff0000;stroke-linejoin:miter;" x="659.893102" xlink:href="#m4e5a7f3273" y="439.076026"/>
     <use style="fill:#ff0000;stroke:#ff0000;stroke-linejoin:miter;" x="670.127649" xlink:href="#m4e5a7f3273" y="348.289272"/>
     <use style="fill:#ff0000;stroke:#ff0000;stroke-linejoin:miter;" x="680.730764" xlink:href="#m4e5a7f3273" y="89.28"/>
     <use style="fill:#ff0000;stroke:#ff0000;stroke-linejoin:miter;" x="690.761241" xlink:href="#m4e5a7f3273" y="369.650861"/>
     <use style="fill:#ff0000;stroke:#ff0000;stroke-linejoin:miter;" x="701.001996" xlink:href="#m4e5a7f3273" y="366.980662"/>
     <use style="fill:#ff0000;stroke:#ff0000;stroke-linejoin:miter;" x="711.056527" xlink:href="#m4e5a7f3273" y="364.310464"/>
     <use style="fill:#ff0000;stroke:#ff0000;stroke-linejoin:miter;" x="721.835778" xlink:href="#m4e5a7f3273" y="366.980662"/>
     <use style="fill:#ff0000;stroke:#ff0000;stroke-linejoin:miter;" x="731.8616" xlink:href="#m4e5a7f3273" y="399.023046"/>
     <use style="fill:#ff0000;stroke:#ff0000;stroke-linejoin:miter;" x="741.903715" xlink:href="#m4e5a7f3273" y="334.938278"/>
     <use style="fill:#ff0000;stroke:#ff0000;stroke-linejoin:miter;" x="753.55977" xlink:href="#m4e5a7f3273" y="286.874702"/>
     <use style="fill:#ff0000;stroke:#ff0000;stroke-linejoin:miter;" x="763.830786" xlink:href="#m4e5a7f3273" y="431.06543"/>
     <use style="fill:#ff0000;stroke:#ff0000;stroke-linejoin:miter;" x="773.865143" xlink:href="#m4e5a7f3273" y="372.32106"/>
     <use style="fill:#ff0000;stroke:#ff0000;stroke-linejoin:miter;" x="784.295225" xlink:href="#m4e5a7f3273" y="369.650861"/>
     <use style="fill:#ff0000;stroke:#ff0000;stroke-linejoin:miter;" x="794.341221" xlink:href="#m4e5a7f3273" y="399.023046"/>
     <use style="fill:#ff0000;stroke:#ff0000;stroke-linejoin:miter;" x="804.395751" xlink:href="#m4e5a7f3273" y="340.278675"/>
     <use style="fill:#ff0000;stroke:#ff0000;stroke-linejoin:miter;" x="815.604093" xlink:href="#m4e5a7f3273" y="364.310464"/>
     <use style="fill:#ff0000;stroke:#ff0000;stroke-linejoin:miter;" x="825.701301" xlink:href="#m4e5a7f3273" y="356.299868"/>
     <use style="fill:#ff0000;stroke:#ff0000;stroke-linejoin:miter;" x="835.724794" xlink:href="#m4e5a7f3273" y="326.927682"/>
     <use style="fill:#ff0000;stroke:#ff0000;stroke-linejoin:miter;" x="845.737425" xlink:href="#m4e5a7f3273" y="417.714437"/>
     <use style="fill:#ff0000;stroke:#ff0000;stroke-linejoin:miter;" x="855.767901" xlink:href="#m4e5a7f3273" y="310.90649"/>
     <use style="fill:#ff0000;stroke:#ff0000;stroke-linejoin:miter;" x="865.939598" xlink:href="#m4e5a7f3273" y="407.033642"/>
     <use style="fill:#ff0000;stroke:#ff0000;stroke-linejoin:miter;" x="876.499261" xlink:href="#m4e5a7f3273" y="393.682649"/>
     <use style="fill:#ff0000;stroke:#ff0000;stroke-linejoin:miter;" x="886.538273" xlink:href="#m4e5a7f3273" y="377.661457"/>
     <use style="fill:#ff0000;stroke:#ff0000;stroke-linejoin:miter;" x="896.758077" xlink:href="#m4e5a7f3273" y="377.661457"/>
     <use style="fill:#ff0000;stroke:#ff0000;stroke-linejoin:miter;" x="906.806401" xlink:href="#m4e5a7f3273" y="441.746225"/>
     <use style="fill:#ff0000;stroke:#ff0000;stroke-linejoin:miter;" x="917.116213" xlink:href="#m4e5a7f3273" y="431.06543"/>
     <use style="fill:#ff0000;stroke:#ff0000;stroke-linejoin:miter;" x="927.14669" xlink:href="#m4e5a7f3273" y="383.001854"/>
     <use style="fill:#ff0000;stroke:#ff0000;stroke-linejoin:miter;" x="937.187254" xlink:href="#m4e5a7f3273" y="305.566093"/>
     <use style="fill:#ff0000;stroke:#ff0000;stroke-linejoin:miter;" x="947.84546" xlink:href="#m4e5a7f3273" y="396.352848"/>
     <use style="fill:#ff0000;stroke:#ff0000;stroke-linejoin:miter;" x="957.877489" xlink:href="#m4e5a7f3273" y="492.48"/>
     <use style="fill:#ff0000;stroke:#ff0000;stroke-linejoin:miter;" x="967.908742" xlink:href="#m4e5a7f3273" y="404.363444"/>
     <use style="fill:#ff0000;stroke:#ff0000;stroke-linejoin:miter;" x="978.143289" xlink:href="#m4e5a7f3273" y="399.023046"/>
     <use style="fill:#ff0000;stroke:#ff0000;stroke-linejoin:miter;" x="989.358614" xlink:href="#m4e5a7f3273" y="356.299868"/>
     <use style="fill:#ff0000;stroke:#ff0000;stroke-linejoin:miter;" x="999.590058" xlink:href="#m4e5a7f3273" y="276.193907"/>
     <use style="fill:#ff0000;stroke:#ff0000;stroke-linejoin:miter;" x="1010.142737" xlink:href="#m4e5a7f3273" y="254.832318"/>
     <use style="fill:#ff0000;stroke:#ff0000;stroke-linejoin:miter;" x="1020.531695" xlink:href="#m4e5a7f3273" y="415.044238"/>
     <use style="fill:#ff0000;stroke:#ff0000;stroke-linejoin:miter;" x="1030.480699" xlink:href="#m4e5a7f3273" y="441.746225"/>
     <use style="fill:#ff0000;stroke:#ff0000;stroke-linejoin:miter;" x="1040.504192" xlink:href="#m4e5a7f3273" y="449.756821"/>
     <use style="fill:#ff0000;stroke:#ff0000;stroke-linejoin:miter;" x="1050.549412" xlink:href="#m4e5a7f3273" y="431.06543"/>
     <use style="fill:#ff0000;stroke:#ff0000;stroke-linejoin:miter;" x="1060.624893" xlink:href="#m4e5a7f3273" y="383.001854"/>
     <use style="fill:#ff0000;stroke:#ff0000;stroke-linejoin:miter;" x="1070.833834" xlink:href="#m4e5a7f3273" y="428.395232"/>
     <use style="fill:#ff0000;stroke:#ff0000;stroke-linejoin:miter;" x="1080.751801" xlink:href="#m4e5a7f3273" y="412.37404"/>
     <use style="fill:#ff0000;stroke:#ff0000;stroke-linejoin:miter;" x="1091.461994" xlink:href="#m4e5a7f3273" y="436.405828"/>
     <use style="fill:#ff0000;stroke:#ff0000;stroke-linejoin:miter;" x="1103.142103" xlink:href="#m4e5a7f3273" y="222.789934"/>
     <use style="fill:#ff0000;stroke:#ff0000;stroke-linejoin:miter;" x="1113.776256" xlink:href="#m4e5a7f3273" y="262.842914"/>
     <use style="fill:#ff0000;stroke:#ff0000;stroke-linejoin:miter;" x="1124.234271" xlink:href="#m4e5a7f3273" y="385.672053"/>
     <use style="fill:#ff0000;stroke:#ff0000;stroke-linejoin:miter;" x="1134.2663" xlink:href="#m4e5a7f3273" y="340.278675"/>
     <use style="fill:#ff0000;stroke:#ff0000;stroke-linejoin:miter;" x="1144.326262" xlink:href="#m4e5a7f3273" y="361.640265"/>
     <use style="fill:#ff0000;stroke:#ff0000;stroke-linejoin:miter;" x="1154.387001" xlink:href="#m4e5a7f3273" y="423.054834"/>
     <use style="fill:#ff0000;stroke:#ff0000;stroke-linejoin:miter;" x="1164.467913" xlink:href="#m4e5a7f3273" y="396.352848"/>
     <use style="fill:#ff0000;stroke:#ff0000;stroke-linejoin:miter;" x="1174.736601" xlink:href="#m4e5a7f3273" y="396.352848"/>
     <use style="fill:#ff0000;stroke:#ff0000;stroke-linejoin:miter;" x="1184.946318" xlink:href="#m4e5a7f3273" y="212.109139"/>
     <use style="fill:#ff0000;stroke:#ff0000;stroke-linejoin:miter;" x="1195.235957" xlink:href="#m4e5a7f3273" y="471.118411"/>
     <use style="fill:#ff0000;stroke:#ff0000;stroke-linejoin:miter;" x="1205.14694" xlink:href="#m4e5a7f3273" y="431.06543"/>
     <use style="fill:#ff0000;stroke:#ff0000;stroke-linejoin:miter;" x="1215.330276" xlink:href="#m4e5a7f3273" y="348.289272"/>
     <use style="fill:#ff0000;stroke:#ff0000;stroke-linejoin:miter;" x="1225.473263" xlink:href="#m4e5a7f3273" y="369.650861"/>
     <use style="fill:#ff0000;stroke:#ff0000;stroke-linejoin:miter;" x="1235.340018" xlink:href="#m4e5a7f3273" y="366.980662"/>
     <use style="fill:#ff0000;stroke:#ff0000;stroke-linejoin:miter;" x="1245.272727" xlink:href="#m4e5a7f3273" y="417.714437"/>
    </g>
   </g>
   <g id="line2d_18">
    <path clip-path="url(#pa4d637b649)" d="M 230.727273 318.917086 
L 240.836895 236.140927 
L 250.726928 172.056159 
L 260.738782 345.619073 
L 270.8034 177.396556 
L 281.410395 399.023046 
L 291.425353 374.991258 
L 301.53032 404.363444 
L 311.537518 372.32106 
L 321.566444 428.395232 
L 331.641149 391.01245 
L 341.692576 145.354172 
L 352.204906 409.703841 
L 362.227624 393.682649 
L 372.429582 220.119735 
L 382.969846 324.257483 
L 393.029033 396.352848 
L 403.046319 308.236291 
L 413.245949 356.299868 
L 423.258579 401.693245 
L 433.268106 452.42702 
L 443.31643 428.395232 
L 453.886179 217.449536 
L 463.930623 412.37404 
L 476.093362 417.714437 
L 486.563792 305.566093 
L 496.619875 340.278675 
L 506.655008 305.566093 
L 518.118631 391.01245 
L 528.20032 401.693245 
L 538.225365 310.90649 
L 548.244979 334.938278 
L 558.291751 385.672053 
L 568.436289 358.970066 
L 579.046388 415.044238 
L 589.099367 366.980662 
L 599.374262 420.384636 
L 609.427241 366.980662 
L 619.477116 396.352848 
L 629.513801 356.299868 
L 639.578419 396.352848 
L 649.843227 409.703841 
L 659.893102 439.076026 
L 670.127649 348.289272 
L 680.730764 89.28 
L 690.761241 369.650861 
L 701.001996 366.980662 
L 711.056527 364.310464 
L 721.835778 366.980662 
L 731.8616 399.023046 
L 741.903715 334.938278 
L 753.55977 286.874702 
L 763.830786 431.06543 
L 773.865143 372.32106 
L 784.295225 369.650861 
L 794.341221 399.023046 
L 804.395751 340.278675 
L 815.604093 364.310464 
L 825.701301 356.299868 
L 835.724794 326.927682 
L 845.737425 417.714437 
L 855.767901 310.90649 
L 865.939598 407.033642 
L 876.499261 393.682649 
L 886.538273 377.661457 
L 896.758077 377.661457 
L 906.806401 441.746225 
L 917.116213 431.06543 
L 927.14669 383.001854 
L 937.187254 305.566093 
L 947.84546 396.352848 
L 957.877489 492.48 
L 967.908742 404.363444 
L 978.143289 399.023046 
L 989.358614 356.299868 
L 999.590058 276.193907 
L 1010.142737 254.832318 
L 1020.531695 415.044238 
L 1030.480699 441.746225 
L 1040.504192 449.756821 
L 1050.549412 431.06543 
L 1060.624893 383.001854 
L 1070.833834 428.395232 
L 1080.751801 412.37404 
L 1091.461994 436.405828 
L 1103.142103 222.789934 
L 1113.776256 262.842914 
L 1124.234271 385.672053 
L 1134.2663 340.278675 
L 1144.326262 361.640265 
L 1154.387001 423.054834 
L 1164.467913 396.352848 
L 1174.736601 396.352848 
L 1184.946318 212.109139 
L 1195.235957 471.118411 
L 1205.14694 431.06543 
L 1215.330276 348.289272 
L 1225.473263 369.650861 
L 1235.340018 366.980662 
L 1245.272727 417.714437 
" style="fill:none;stroke:#800080;stroke-dasharray:9.6,2.4,1.5,2.4;stroke-dashoffset:0;stroke-width:1.5;"/>
    <defs>
     <path d="M -3 3 
L 3 -3 
M -3 -3 
L 3 3 
" id="m0a901b9417" style="stroke:#800080;"/>
    </defs>
    <g clip-path="url(#pa4d637b649)">
     <use style="fill:#800080;stroke:#800080;" x="230.727273" xlink:href="#m0a901b9417" y="318.917086"/>
     <use style="fill:#800080;stroke:#800080;" x="240.836895" xlink:href="#m0a901b9417" y="236.140927"/>
     <use style="fill:#800080;stroke:#800080;" x="250.726928" xlink:href="#m0a901b9417" y="172.056159"/>
     <use style="fill:#800080;stroke:#800080;" x="260.738782" xlink:href="#m0a901b9417" y="345.619073"/>
     <use style="fill:#800080;stroke:#800080;" x="270.8034" xlink:href="#m0a901b9417" y="177.396556"/>
     <use style="fill:#800080;stroke:#800080;" x="281.410395" xlink:href="#m0a901b9417" y="399.023046"/>
     <use style="fill:#800080;stroke:#800080;" x="291.425353" xlink:href="#m0a901b9417" y="374.991258"/>
     <use style="fill:#800080;stroke:#800080;" x="301.53032" xlink:href="#m0a901b9417" y="404.363444"/>
     <use style="fill:#800080;stroke:#800080;" x="311.537518" xlink:href="#m0a901b9417" y="372.32106"/>
     <use style="fill:#800080;stroke:#800080;" x="321.566444" xlink:href="#m0a901b9417" y="428.395232"/>
     <use style="fill:#800080;stroke:#800080;" x="331.641149" xlink:href="#m0a901b9417" y="391.01245"/>
     <use style="fill:#800080;stroke:#800080;" x="341.692576" xlink:href="#m0a901b9417" y="145.354172"/>
     <use style="fill:#800080;stroke:#800080;" x="352.204906" xlink:href="#m0a901b9417" y="409.703841"/>
     <use style="fill:#800080;stroke:#800080;" x="362.227624" xlink:href="#m0a901b9417" y="393.682649"/>
     <use style="fill:#800080;stroke:#800080;" x="372.429582" xlink:href="#m0a901b9417" y="220.119735"/>
     <use style="fill:#800080;stroke:#800080;" x="382.969846" xlink:href="#m0a901b9417" y="324.257483"/>
     <use style="fill:#800080;stroke:#800080;" x="393.029033" xlink:href="#m0a901b9417" y="396.352848"/>
     <use style="fill:#800080;stroke:#800080;" x="403.046319" xlink:href="#m0a901b9417" y="308.236291"/>
     <use style="fill:#800080;stroke:#800080;" x="413.245949" xlink:href="#m0a901b9417" y="356.299868"/>
     <use style="fill:#800080;stroke:#800080;" x="423.258579" xlink:href="#m0a901b9417" y="401.693245"/>
     <use style="fill:#800080;stroke:#800080;" x="433.268106" xlink:href="#m0a901b9417" y="452.42702"/>
     <use style="fill:#800080;stroke:#800080;" x="443.31643" xlink:href="#m0a901b9417" y="428.395232"/>
     <use style="fill:#800080;stroke:#800080;" x="453.886179" xlink:href="#m0a901b9417" y="217.449536"/>
     <use style="fill:#800080;stroke:#800080;" x="463.930623" xlink:href="#m0a901b9417" y="412.37404"/>
     <use style="fill:#800080;stroke:#800080;" x="476.093362" xlink:href="#m0a901b9417" y="417.714437"/>
     <use style="fill:#800080;stroke:#800080;" x="486.563792" xlink:href="#m0a901b9417" y="305.566093"/>
     <use style="fill:#800080;stroke:#800080;" x="496.619875" xlink:href="#m0a901b9417" y="340.278675"/>
     <use style="fill:#800080;stroke:#800080;" x="506.655008" xlink:href="#m0a901b9417" y="305.566093"/>
     <use style="fill:#800080;stroke:#800080;" x="518.118631" xlink:href="#m0a901b9417" y="391.01245"/>
     <use style="fill:#800080;stroke:#800080;" x="528.20032" xlink:href="#m0a901b9417" y="401.693245"/>
     <use style="fill:#800080;stroke:#800080;" x="538.225365" xlink:href="#m0a901b9417" y="310.90649"/>
     <use style="fill:#800080;stroke:#800080;" x="548.244979" xlink:href="#m0a901b9417" y="334.938278"/>
     <use style="fill:#800080;stroke:#800080;" x="558.291751" xlink:href="#m0a901b9417" y="385.672053"/>
     <use style="fill:#800080;stroke:#800080;" x="568.436289" xlink:href="#m0a901b9417" y="358.970066"/>
     <use style="fill:#800080;stroke:#800080;" x="579.046388" xlink:href="#m0a901b9417" y="415.044238"/>
     <use style="fill:#800080;stroke:#800080;" x="589.099367" xlink:href="#m0a901b9417" y="366.980662"/>
     <use style="fill:#800080;stroke:#800080;" x="599.374262" xlink:href="#m0a901b9417" y="420.384636"/>
     <use style="fill:#800080;stroke:#800080;" x="609.427241" xlink:href="#m0a901b9417" y="366.980662"/>
     <use style="fill:#800080;stroke:#800080;" x="619.477116" xlink:href="#m0a901b9417" y="396.352848"/>
     <use style="fill:#800080;stroke:#800080;" x="629.513801" xlink:href="#m0a901b9417" y="356.299868"/>
     <use style="fill:#800080;stroke:#800080;" x="639.578419" xlink:href="#m0a901b9417" y="396.352848"/>
     <use style="fill:#800080;stroke:#800080;" x="649.843227" xlink:href="#m0a901b9417" y="409.703841"/>
     <use style="fill:#800080;stroke:#800080;" x="659.893102" xlink:href="#m0a901b9417" y="439.076026"/>
     <use style="fill:#800080;stroke:#800080;" x="670.127649" xlink:href="#m0a901b9417" y="348.289272"/>
     <use style="fill:#800080;stroke:#800080;" x="680.730764" xlink:href="#m0a901b9417" y="89.28"/>
     <use style="fill:#800080;stroke:#800080;" x="690.761241" xlink:href="#m0a901b9417" y="369.650861"/>
     <use style="fill:#800080;stroke:#800080;" x="701.001996" xlink:href="#m0a901b9417" y="366.980662"/>
     <use style="fill:#800080;stroke:#800080;" x="711.056527" xlink:href="#m0a901b9417" y="364.310464"/>
     <use style="fill:#800080;stroke:#800080;" x="721.835778" xlink:href="#m0a901b9417" y="366.980662"/>
     <use style="fill:#800080;stroke:#800080;" x="731.8616" xlink:href="#m0a901b9417" y="399.023046"/>
     <use style="fill:#800080;stroke:#800080;" x="741.903715" xlink:href="#m0a901b9417" y="334.938278"/>
     <use style="fill:#800080;stroke:#800080;" x="753.55977" xlink:href="#m0a901b9417" y="286.874702"/>
     <use style="fill:#800080;stroke:#800080;" x="763.830786" xlink:href="#m0a901b9417" y="431.06543"/>
     <use style="fill:#800080;stroke:#800080;" x="773.865143" xlink:href="#m0a901b9417" y="372.32106"/>
     <use style="fill:#800080;stroke:#800080;" x="784.295225" xlink:href="#m0a901b9417" y="369.650861"/>
     <use style="fill:#800080;stroke:#800080;" x="794.341221" xlink:href="#m0a901b9417" y="399.023046"/>
     <use style="fill:#800080;stroke:#800080;" x="804.395751" xlink:href="#m0a901b9417" y="340.278675"/>
     <use style="fill:#800080;stroke:#800080;" x="815.604093" xlink:href="#m0a901b9417" y="364.310464"/>
     <use style="fill:#800080;stroke:#800080;" x="825.701301" xlink:href="#m0a901b9417" y="356.299868"/>
     <use style="fill:#800080;stroke:#800080;" x="835.724794" xlink:href="#m0a901b9417" y="326.927682"/>
     <use style="fill:#800080;stroke:#800080;" x="845.737425" xlink:href="#m0a901b9417" y="417.714437"/>
     <use style="fill:#800080;stroke:#800080;" x="855.767901" xlink:href="#m0a901b9417" y="310.90649"/>
     <use style="fill:#800080;stroke:#800080;" x="865.939598" xlink:href="#m0a901b9417" y="407.033642"/>
     <use style="fill:#800080;stroke:#800080;" x="876.499261" xlink:href="#m0a901b9417" y="393.682649"/>
     <use style="fill:#800080;stroke:#800080;" x="886.538273" xlink:href="#m0a901b9417" y="377.661457"/>
     <use style="fill:#800080;stroke:#800080;" x="896.758077" xlink:href="#m0a901b9417" y="377.661457"/>
     <use style="fill:#800080;stroke:#800080;" x="906.806401" xlink:href="#m0a901b9417" y="441.746225"/>
     <use style="fill:#800080;stroke:#800080;" x="917.116213" xlink:href="#m0a901b9417" y="431.06543"/>
     <use style="fill:#800080;stroke:#800080;" x="927.14669" xlink:href="#m0a901b9417" y="383.001854"/>
     <use style="fill:#800080;stroke:#800080;" x="937.187254" xlink:href="#m0a901b9417" y="305.566093"/>
     <use style="fill:#800080;stroke:#800080;" x="947.84546" xlink:href="#m0a901b9417" y="396.352848"/>
     <use style="fill:#800080;stroke:#800080;" x="957.877489" xlink:href="#m0a901b9417" y="492.48"/>
     <use style="fill:#800080;stroke:#800080;" x="967.908742" xlink:href="#m0a901b9417" y="404.363444"/>
     <use style="fill:#800080;stroke:#800080;" x="978.143289" xlink:href="#m0a901b9417" y="399.023046"/>
     <use style="fill:#800080;stroke:#800080;" x="989.358614" xlink:href="#m0a901b9417" y="356.299868"/>
     <use style="fill:#800080;stroke:#800080;" x="999.590058" xlink:href="#m0a901b9417" y="276.193907"/>
     <use style="fill:#800080;stroke:#800080;" x="1010.142737" xlink:href="#m0a901b9417" y="254.832318"/>
     <use style="fill:#800080;stroke:#800080;" x="1020.531695" xlink:href="#m0a901b9417" y="415.044238"/>
     <use style="fill:#800080;stroke:#800080;" x="1030.480699" xlink:href="#m0a901b9417" y="441.746225"/>
     <use style="fill:#800080;stroke:#800080;" x="1040.504192" xlink:href="#m0a901b9417" y="449.756821"/>
     <use style="fill:#800080;stroke:#800080;" x="1050.549412" xlink:href="#m0a901b9417" y="431.06543"/>
     <use style="fill:#800080;stroke:#800080;" x="1060.624893" xlink:href="#m0a901b9417" y="383.001854"/>
     <use style="fill:#800080;stroke:#800080;" x="1070.833834" xlink:href="#m0a901b9417" y="428.395232"/>
     <use style="fill:#800080;stroke:#800080;" x="1080.751801" xlink:href="#m0a901b9417" y="412.37404"/>
     <use style="fill:#800080;stroke:#800080;" x="1091.461994" xlink:href="#m0a901b9417" y="436.405828"/>
     <use style="fill:#800080;stroke:#800080;" x="1103.142103" xlink:href="#m0a901b9417" y="222.789934"/>
     <use style="fill:#800080;stroke:#800080;" x="1113.776256" xlink:href="#m0a901b9417" y="262.842914"/>
     <use style="fill:#800080;stroke:#800080;" x="1124.234271" xlink:href="#m0a901b9417" y="385.672053"/>
     <use style="fill:#800080;stroke:#800080;" x="1134.2663" xlink:href="#m0a901b9417" y="340.278675"/>
     <use style="fill:#800080;stroke:#800080;" x="1144.326262" xlink:href="#m0a901b9417" y="361.640265"/>
     <use style="fill:#800080;stroke:#800080;" x="1154.387001" xlink:href="#m0a901b9417" y="423.054834"/>
     <use style="fill:#800080;stroke:#800080;" x="1164.467913" xlink:href="#m0a901b9417" y="396.352848"/>
     <use style="fill:#800080;stroke:#800080;" x="1174.736601" xlink:href="#m0a901b9417" y="396.352848"/>
     <use style="fill:#800080;stroke:#800080;" x="1184.946318" xlink:href="#m0a901b9417" y="212.109139"/>
     <use style="fill:#800080;stroke:#800080;" x="1195.235957" xlink:href="#m0a901b9417" y="471.118411"/>
     <use style="fill:#800080;stroke:#800080;" x="1205.14694" xlink:href="#m0a901b9417" y="431.06543"/>
     <use style="fill:#800080;stroke:#800080;" x="1215.330276" xlink:href="#m0a901b9417" y="348.289272"/>
     <use style="fill:#800080;stroke:#800080;" x="1225.473263" xlink:href="#m0a901b9417" y="369.650861"/>
     <use style="fill:#800080;stroke:#800080;" x="1235.340018" xlink:href="#m0a901b9417" y="366.980662"/>
     <use style="fill:#800080;stroke:#800080;" x="1245.272727" xlink:href="#m0a901b9417" y="417.714437"/>
    </g>
   </g>
   <g id="line2d_19">
    <path clip-path="url(#pa4d637b649)" d="M 230.727273 335.513537 
L 240.836895 336.066005 
L 250.726928 336.606473 
L 260.738782 337.153598 
L 270.8034 337.703607 
L 281.410395 338.283255 
L 291.425353 338.83055 
L 301.53032 339.382763 
L 311.537518 339.929634 
L 321.566444 340.477692 
L 331.641149 341.028252 
L 341.692576 341.57754 
L 352.204906 342.152015 
L 362.227624 342.699734 
L 372.429582 343.257248 
L 382.969846 343.83325 
L 393.029033 344.382961 
L 403.046319 344.930383 
L 413.245949 345.48777 
L 423.258579 346.034938 
L 433.268106 346.581936 
L 443.31643 347.131054 
L 453.886179 347.708667 
L 463.930623 348.257573 
L 476.093362 348.922239 
L 486.563792 349.494424 
L 496.619875 350.043967 
L 506.655008 350.592364 
L 518.118631 351.218825 
L 528.20032 351.769767 
L 538.225365 352.317613 
L 548.244979 352.865162 
L 558.291751 353.414195 
L 568.436289 353.968571 
L 579.046388 354.548389 
L 589.099367 355.097762 
L 599.374262 355.659262 
L 609.427241 356.208634 
L 619.477116 356.757837 
L 629.513801 357.306319 
L 639.578419 357.856328 
L 649.843227 358.417277 
L 659.893102 358.966479 
L 670.127649 359.525774 
L 680.730764 360.105211 
L 690.761241 360.653353 
L 701.001996 361.212988 
L 711.056527 361.762445 
L 721.835778 362.351507 
L 731.8616 362.899395 
L 741.903715 363.448174 
L 753.55977 364.085151 
L 763.830786 364.646439 
L 773.865143 365.194794 
L 784.295225 365.764774 
L 794.341221 366.313765 
L 804.395751 366.863223 
L 815.604093 367.475733 
L 825.701301 368.027523 
L 835.724794 368.575284 
L 845.737425 369.122452 
L 855.767901 369.670594 
L 865.939598 370.226455 
L 876.499261 370.803516 
L 886.538273 371.352126 
L 896.758077 371.910615 
L 906.806401 372.459733 
L 917.116213 373.023141 
L 927.14669 373.571284 
L 937.187254 374.119978 
L 947.84546 374.702425 
L 957.877489 375.250653 
L 967.908742 375.798838 
L 978.143289 376.358133 
L 989.358614 376.971025 
L 999.590058 377.53015 
L 1010.142737 378.10683 
L 1020.531695 378.674563 
L 1030.480699 379.218254 
L 1040.504192 379.766015 
L 1050.549412 380.314964 
L 1060.624893 380.865566 
L 1070.833834 381.423462 
L 1080.751801 381.965456 
L 1091.461994 382.550744 
L 1103.142103 383.189035 
L 1113.776256 383.770168 
L 1124.234271 384.341675 
L 1134.2663 384.889902 
L 1144.326262 385.439657 
L 1154.387001 385.989453 
L 1164.467913 386.540352 
L 1174.736601 387.101513 
L 1184.946318 387.659451 
L 1195.235957 388.221756 
L 1205.14694 388.763369 
L 1215.330276 389.319865 
L 1225.473263 389.874157 
L 1235.340018 390.413353 
L 1245.272727 390.956153 
" style="fill:none;stroke:#0000ff;stroke-linecap:square;stroke-width:1.5;"/>
   </g>
   <g id="line2d_20">
    <path clip-path="url(#pa4d637b649)" d="M 230.727273 334.736552 
L 240.836895 335.31987 
L 250.726928 335.890517 
L 260.738782 336.468194 
L 270.8034 337.048914 
L 281.410395 337.66093 
L 291.425353 338.238786 
L 301.53032 338.821834 
L 311.537518 339.399242 
L 321.566444 339.977904 
L 331.641149 340.559206 
L 341.692576 341.139166 
L 352.204906 341.74572 
L 362.227624 342.324023 
L 372.429582 342.912668 
L 382.969846 343.520833 
L 393.029033 344.101241 
L 403.046319 344.67923 
L 413.245949 345.267741 
L 423.258579 345.845463 
L 433.268106 346.423005 
L 443.31643 347.002785 
L 453.886179 347.612652 
L 463.930623 348.192209 
L 476.093362 348.893989 
L 486.563792 349.498125 
L 496.619875 350.078354 
L 506.655008 350.657373 
L 518.118631 351.318816 
L 528.20032 351.900521 
L 538.225365 352.478959 
L 548.244979 353.057083 
L 558.291751 353.636774 
L 568.436289 354.222106 
L 579.046388 354.834301 
L 589.099367 355.41435 
L 599.374262 356.007204 
L 609.427241 356.587253 
L 619.477116 357.167123 
L 629.513801 357.746232 
L 639.578419 358.326953 
L 649.843227 358.919225 
L 659.893102 359.499095 
L 670.127649 360.08962 
L 680.730764 360.701412 
L 690.761241 361.280163 
L 701.001996 361.871047 
L 711.056527 362.451186 
L 721.835778 363.07314 
L 731.8616 363.651623 
L 741.903715 364.231045 
L 753.55977 364.903591 
L 763.830786 365.49622 
L 773.865143 366.075195 
L 784.295225 366.677003 
L 794.341221 367.256649 
L 804.395751 367.836788 
L 815.604093 368.483501 
L 825.701301 369.066102 
L 835.724794 369.64445 
L 845.737425 370.222171 
L 855.767901 370.800922 
L 865.939598 371.387821 
L 876.499261 371.997106 
L 886.538273 372.576349 
L 896.758077 373.166024 
L 906.806401 373.745805 
L 917.116213 374.340673 
L 927.14669 374.919424 
L 937.187254 375.498757 
L 947.84546 376.113727 
L 957.877489 376.692568 
L 967.908742 377.271363 
L 978.143289 377.861889 
L 989.358614 378.509005 
L 999.590058 379.099351 
L 1010.142737 379.708233 
L 1020.531695 380.307668 
L 1030.480699 380.881718 
L 1040.504192 381.460066 
L 1050.549412 382.039667 
L 1060.624893 382.621015 
L 1070.833834 383.210063 
L 1080.751801 383.782322 
L 1091.461994 384.400292 
L 1103.142103 385.074226 
L 1113.776256 385.687808 
L 1124.234271 386.291228 
L 1134.2663 386.870068 
L 1144.326262 387.45052 
L 1154.387001 388.031017 
L 1164.467913 388.612678 
L 1174.736601 389.205174 
L 1184.946318 389.794267 
L 1195.235957 390.387971 
L 1205.14694 390.959827 
L 1215.330276 391.547398 
L 1225.473263 392.132641 
L 1235.340018 392.701945 
L 1245.272727 393.275055 
" style="fill:none;stroke:#008000;stroke-linecap:square;stroke-width:1.5;"/>
    <defs>
     <path d="M 0 3 
C 0.795609 3 1.55874 2.683901 2.12132 2.12132 
C 2.683901 1.55874 3 0.795609 3 0 
C 3 -0.795609 2.683901 -1.55874 2.12132 -2.12132 
C 1.55874 -2.683901 0.795609 -3 0 -3 
C -0.795609 -3 -1.55874 -2.683901 -2.12132 -2.12132 
C -2.683901 -1.55874 -3 -0.795609 -3 0 
C -3 0.795609 -2.683901 1.55874 -2.12132 2.12132 
C -1.55874 2.683901 -0.795609 3 0 3 
z
" id="mc830c6bafd" style="stroke:#008000;"/>
    </defs>
    <g clip-path="url(#pa4d637b649)">
     <use style="fill:#008000;stroke:#008000;" x="230.727273" xlink:href="#mc830c6bafd" y="334.736552"/>
     <use style="fill:#008000;stroke:#008000;" x="240.836895" xlink:href="#mc830c6bafd" y="335.31987"/>
     <use style="fill:#008000;stroke:#008000;" x="250.726928" xlink:href="#mc830c6bafd" y="335.890517"/>
     <use style="fill:#008000;stroke:#008000;" x="260.738782" xlink:href="#mc830c6bafd" y="336.468194"/>
     <use style="fill:#008000;stroke:#008000;" x="270.8034" xlink:href="#mc830c6bafd" y="337.048914"/>
     <use style="fill:#008000;stroke:#008000;" x="281.410395" xlink:href="#mc830c6bafd" y="337.66093"/>
     <use style="fill:#008000;stroke:#008000;" x="291.425353" xlink:href="#mc830c6bafd" y="338.238786"/>
     <use style="fill:#008000;stroke:#008000;" x="301.53032" xlink:href="#mc830c6bafd" y="338.821834"/>
     <use style="fill:#008000;stroke:#008000;" x="311.537518" xlink:href="#mc830c6bafd" y="339.399242"/>
     <use style="fill:#008000;stroke:#008000;" x="321.566444" xlink:href="#mc830c6bafd" y="339.977904"/>
     <use style="fill:#008000;stroke:#008000;" x="331.641149" xlink:href="#mc830c6bafd" y="340.559206"/>
     <use style="fill:#008000;stroke:#008000;" x="341.692576" xlink:href="#mc830c6bafd" y="341.139166"/>
     <use style="fill:#008000;stroke:#008000;" x="352.204906" xlink:href="#mc830c6bafd" y="341.74572"/>
     <use style="fill:#008000;stroke:#008000;" x="362.227624" xlink:href="#mc830c6bafd" y="342.324023"/>
     <use style="fill:#008000;stroke:#008000;" x="372.429582" xlink:href="#mc830c6bafd" y="342.912668"/>
     <use style="fill:#008000;stroke:#008000;" x="382.969846" xlink:href="#mc830c6bafd" y="343.520833"/>
     <use style="fill:#008000;stroke:#008000;" x="393.029033" xlink:href="#mc830c6bafd" y="344.101241"/>
     <use style="fill:#008000;stroke:#008000;" x="403.046319" xlink:href="#mc830c6bafd" y="344.67923"/>
     <use style="fill:#008000;stroke:#008000;" x="413.245949" xlink:href="#mc830c6bafd" y="345.267741"/>
     <use style="fill:#008000;stroke:#008000;" x="423.258579" xlink:href="#mc830c6bafd" y="345.845463"/>
     <use style="fill:#008000;stroke:#008000;" x="433.268106" xlink:href="#mc830c6bafd" y="346.423005"/>
     <use style="fill:#008000;stroke:#008000;" x="443.31643" xlink:href="#mc830c6bafd" y="347.002785"/>
     <use style="fill:#008000;stroke:#008000;" x="453.886179" xlink:href="#mc830c6bafd" y="347.612652"/>
     <use style="fill:#008000;stroke:#008000;" x="463.930623" xlink:href="#mc830c6bafd" y="348.192209"/>
     <use style="fill:#008000;stroke:#008000;" x="476.093362" xlink:href="#mc830c6bafd" y="348.893989"/>
     <use style="fill:#008000;stroke:#008000;" x="486.563792" xlink:href="#mc830c6bafd" y="349.498125"/>
     <use style="fill:#008000;stroke:#008000;" x="496.619875" xlink:href="#mc830c6bafd" y="350.078354"/>
     <use style="fill:#008000;stroke:#008000;" x="506.655008" xlink:href="#mc830c6bafd" y="350.657373"/>
     <use style="fill:#008000;stroke:#008000;" x="518.118631" xlink:href="#mc830c6bafd" y="351.318816"/>
     <use style="fill:#008000;stroke:#008000;" x="528.20032" xlink:href="#mc830c6bafd" y="351.900521"/>
     <use style="fill:#008000;stroke:#008000;" x="538.225365" xlink:href="#mc830c6bafd" y="352.478959"/>
     <use style="fill:#008000;stroke:#008000;" x="548.244979" xlink:href="#mc830c6bafd" y="353.057083"/>
     <use style="fill:#008000;stroke:#008000;" x="558.291751" xlink:href="#mc830c6bafd" y="353.636774"/>
     <use style="fill:#008000;stroke:#008000;" x="568.436289" xlink:href="#mc830c6bafd" y="354.222106"/>
     <use style="fill:#008000;stroke:#008000;" x="579.046388" xlink:href="#mc830c6bafd" y="354.834301"/>
     <use style="fill:#008000;stroke:#008000;" x="589.099367" xlink:href="#mc830c6bafd" y="355.41435"/>
     <use style="fill:#008000;stroke:#008000;" x="599.374262" xlink:href="#mc830c6bafd" y="356.007204"/>
     <use style="fill:#008000;stroke:#008000;" x="609.427241" xlink:href="#mc830c6bafd" y="356.587253"/>
     <use style="fill:#008000;stroke:#008000;" x="619.477116" xlink:href="#mc830c6bafd" y="357.167123"/>
     <use style="fill:#008000;stroke:#008000;" x="629.513801" xlink:href="#mc830c6bafd" y="357.746232"/>
     <use style="fill:#008000;stroke:#008000;" x="639.578419" xlink:href="#mc830c6bafd" y="358.326953"/>
     <use style="fill:#008000;stroke:#008000;" x="649.843227" xlink:href="#mc830c6bafd" y="358.919225"/>
     <use style="fill:#008000;stroke:#008000;" x="659.893102" xlink:href="#mc830c6bafd" y="359.499095"/>
     <use style="fill:#008000;stroke:#008000;" x="670.127649" xlink:href="#mc830c6bafd" y="360.08962"/>
     <use style="fill:#008000;stroke:#008000;" x="680.730764" xlink:href="#mc830c6bafd" y="360.701412"/>
     <use style="fill:#008000;stroke:#008000;" x="690.761241" xlink:href="#mc830c6bafd" y="361.280163"/>
     <use style="fill:#008000;stroke:#008000;" x="701.001996" xlink:href="#mc830c6bafd" y="361.871047"/>
     <use style="fill:#008000;stroke:#008000;" x="711.056527" xlink:href="#mc830c6bafd" y="362.451186"/>
     <use style="fill:#008000;stroke:#008000;" x="721.835778" xlink:href="#mc830c6bafd" y="363.07314"/>
     <use style="fill:#008000;stroke:#008000;" x="731.8616" xlink:href="#mc830c6bafd" y="363.651623"/>
     <use style="fill:#008000;stroke:#008000;" x="741.903715" xlink:href="#mc830c6bafd" y="364.231045"/>
     <use style="fill:#008000;stroke:#008000;" x="753.55977" xlink:href="#mc830c6bafd" y="364.903591"/>
     <use style="fill:#008000;stroke:#008000;" x="763.830786" xlink:href="#mc830c6bafd" y="365.49622"/>
     <use style="fill:#008000;stroke:#008000;" x="773.865143" xlink:href="#mc830c6bafd" y="366.075195"/>
     <use style="fill:#008000;stroke:#008000;" x="784.295225" xlink:href="#mc830c6bafd" y="366.677003"/>
     <use style="fill:#008000;stroke:#008000;" x="794.341221" xlink:href="#mc830c6bafd" y="367.256649"/>
     <use style="fill:#008000;stroke:#008000;" x="804.395751" xlink:href="#mc830c6bafd" y="367.836788"/>
     <use style="fill:#008000;stroke:#008000;" x="815.604093" xlink:href="#mc830c6bafd" y="368.483501"/>
     <use style="fill:#008000;stroke:#008000;" x="825.701301" xlink:href="#mc830c6bafd" y="369.066102"/>
     <use style="fill:#008000;stroke:#008000;" x="835.724794" xlink:href="#mc830c6bafd" y="369.64445"/>
     <use style="fill:#008000;stroke:#008000;" x="845.737425" xlink:href="#mc830c6bafd" y="370.222171"/>
     <use style="fill:#008000;stroke:#008000;" x="855.767901" xlink:href="#mc830c6bafd" y="370.800922"/>
     <use style="fill:#008000;stroke:#008000;" x="865.939598" xlink:href="#mc830c6bafd" y="371.387821"/>
     <use style="fill:#008000;stroke:#008000;" x="876.499261" xlink:href="#mc830c6bafd" y="371.997106"/>
     <use style="fill:#008000;stroke:#008000;" x="886.538273" xlink:href="#mc830c6bafd" y="372.576349"/>
     <use style="fill:#008000;stroke:#008000;" x="896.758077" xlink:href="#mc830c6bafd" y="373.166024"/>
     <use style="fill:#008000;stroke:#008000;" x="906.806401" xlink:href="#mc830c6bafd" y="373.745805"/>
     <use style="fill:#008000;stroke:#008000;" x="917.116213" xlink:href="#mc830c6bafd" y="374.340673"/>
     <use style="fill:#008000;stroke:#008000;" x="927.14669" xlink:href="#mc830c6bafd" y="374.919424"/>
     <use style="fill:#008000;stroke:#008000;" x="937.187254" xlink:href="#mc830c6bafd" y="375.498757"/>
     <use style="fill:#008000;stroke:#008000;" x="947.84546" xlink:href="#mc830c6bafd" y="376.113727"/>
     <use style="fill:#008000;stroke:#008000;" x="957.877489" xlink:href="#mc830c6bafd" y="376.692568"/>
     <use style="fill:#008000;stroke:#008000;" x="967.908742" xlink:href="#mc830c6bafd" y="377.271363"/>
     <use style="fill:#008000;stroke:#008000;" x="978.143289" xlink:href="#mc830c6bafd" y="377.861889"/>
     <use style="fill:#008000;stroke:#008000;" x="989.358614" xlink:href="#mc830c6bafd" y="378.509005"/>
     <use style="fill:#008000;stroke:#008000;" x="999.590058" xlink:href="#mc830c6bafd" y="379.099351"/>
     <use style="fill:#008000;stroke:#008000;" x="1010.142737" xlink:href="#mc830c6bafd" y="379.708233"/>
     <use style="fill:#008000;stroke:#008000;" x="1020.531695" xlink:href="#mc830c6bafd" y="380.307668"/>
     <use style="fill:#008000;stroke:#008000;" x="1030.480699" xlink:href="#mc830c6bafd" y="380.881718"/>
     <use style="fill:#008000;stroke:#008000;" x="1040.504192" xlink:href="#mc830c6bafd" y="381.460066"/>
     <use style="fill:#008000;stroke:#008000;" x="1050.549412" xlink:href="#mc830c6bafd" y="382.039667"/>
     <use style="fill:#008000;stroke:#008000;" x="1060.624893" xlink:href="#mc830c6bafd" y="382.621015"/>
     <use style="fill:#008000;stroke:#008000;" x="1070.833834" xlink:href="#mc830c6bafd" y="383.210063"/>
     <use style="fill:#008000;stroke:#008000;" x="1080.751801" xlink:href="#mc830c6bafd" y="383.782322"/>
     <use style="fill:#008000;stroke:#008000;" x="1091.461994" xlink:href="#mc830c6bafd" y="384.400292"/>
     <use style="fill:#008000;stroke:#008000;" x="1103.142103" xlink:href="#mc830c6bafd" y="385.074226"/>
     <use style="fill:#008000;stroke:#008000;" x="1113.776256" xlink:href="#mc830c6bafd" y="385.687808"/>
     <use style="fill:#008000;stroke:#008000;" x="1124.234271" xlink:href="#mc830c6bafd" y="386.291228"/>
     <use style="fill:#008000;stroke:#008000;" x="1134.2663" xlink:href="#mc830c6bafd" y="386.870068"/>
     <use style="fill:#008000;stroke:#008000;" x="1144.326262" xlink:href="#mc830c6bafd" y="387.45052"/>
     <use style="fill:#008000;stroke:#008000;" x="1154.387001" xlink:href="#mc830c6bafd" y="388.031017"/>
     <use style="fill:#008000;stroke:#008000;" x="1164.467913" xlink:href="#mc830c6bafd" y="388.612678"/>
     <use style="fill:#008000;stroke:#008000;" x="1174.736601" xlink:href="#mc830c6bafd" y="389.205174"/>
     <use style="fill:#008000;stroke:#008000;" x="1184.946318" xlink:href="#mc830c6bafd" y="389.794267"/>
     <use style="fill:#008000;stroke:#008000;" x="1195.235957" xlink:href="#mc830c6bafd" y="390.387971"/>
     <use style="fill:#008000;stroke:#008000;" x="1205.14694" xlink:href="#mc830c6bafd" y="390.959827"/>
     <use style="fill:#008000;stroke:#008000;" x="1215.330276" xlink:href="#mc830c6bafd" y="391.547398"/>
     <use style="fill:#008000;stroke:#008000;" x="1225.473263" xlink:href="#mc830c6bafd" y="392.132641"/>
     <use style="fill:#008000;stroke:#008000;" x="1235.340018" xlink:href="#mc830c6bafd" y="392.701945"/>
     <use style="fill:#008000;stroke:#008000;" x="1245.272727" xlink:href="#mc830c6bafd" y="393.275055"/>
    </g>
   </g>
   <g id="patch_3">
    <path d="M 180 512.64 
L 180 69.12 
" style="fill:none;stroke:#000000;stroke-linecap:square;stroke-linejoin:miter;stroke-width:0.8;"/>
   </g>
   <g id="patch_4">
    <path d="M 1296 512.64 
L 1296 69.12 
" style="fill:none;stroke:#000000;stroke-linecap:square;stroke-linejoin:miter;stroke-width:0.8;"/>
   </g>
   <g id="patch_5">
    <path d="M 180 512.64 
L 1296 512.64 
" style="fill:none;stroke:#000000;stroke-linecap:square;stroke-linejoin:miter;stroke-width:0.8;"/>
   </g>
   <g id="patch_6">
    <path d="M 180 69.12 
L 1296 69.12 
" style="fill:none;stroke:#000000;stroke-linecap:square;stroke-linejoin:miter;stroke-width:0.8;"/>
   </g>
   <g id="text_17">
    <!-- 500000.0 bit/s -->
    <defs>
     <path d="M 10.796875 72.90625 
L 49.515625 72.90625 
L 49.515625 64.59375 
L 19.828125 64.59375 
L 19.828125 46.734375 
Q 21.96875 47.46875 24.109375 47.828125 
Q 26.265625 48.1875 28.421875 48.1875 
Q 40.625 48.1875 47.75 41.5 
Q 54.890625 34.8125 54.890625 23.390625 
Q 54.890625 11.625 47.5625 5.09375 
Q 40.234375 -1.421875 26.90625 -1.421875 
Q 22.3125 -1.421875 17.546875 -0.640625 
Q 12.796875 0.140625 7.71875 1.703125 
L 7.71875 11.625 
Q 12.109375 9.234375 16.796875 8.0625 
Q 21.484375 6.890625 26.703125 6.890625 
Q 35.15625 6.890625 40.078125 11.328125 
Q 45.015625 15.765625 45.015625 23.390625 
Q 45.015625 31 40.078125 35.4375 
Q 35.15625 39.890625 26.703125 39.890625 
Q 22.75 39.890625 18.8125 39.015625 
Q 14.890625 38.140625 10.796875 36.28125 
z
" id="DejaVuSans-35"/>
     <path id="DejaVuSans-20"/>
     <path d="M 48.6875 27.296875 
Q 48.6875 37.203125 44.609375 42.84375 
Q 40.53125 48.484375 33.40625 48.484375 
Q 26.265625 48.484375 22.1875 42.84375 
Q 18.109375 37.203125 18.109375 27.296875 
Q 18.109375 17.390625 22.1875 11.75 
Q 26.265625 6.109375 33.40625 6.109375 
Q 40.53125 6.109375 44.609375 11.75 
Q 48.6875 17.390625 48.6875 27.296875 
z
M 18.109375 46.390625 
Q 20.953125 51.265625 25.265625 53.625 
Q 29.59375 56 35.59375 56 
Q 45.5625 56 51.78125 48.09375 
Q 58.015625 40.1875 58.015625 27.296875 
Q 58.015625 14.40625 51.78125 6.484375 
Q 45.5625 -1.421875 35.59375 -1.421875 
Q 29.59375 -1.421875 25.265625 0.953125 
Q 20.953125 3.328125 18.109375 8.203125 
L 18.109375 0 
L 9.078125 0 
L 9.078125 75.984375 
L 18.109375 75.984375 
z
" id="DejaVuSans-62"/>
     <path d="M 9.421875 54.6875 
L 18.40625 54.6875 
L 18.40625 0 
L 9.421875 0 
z
M 9.421875 75.984375 
L 18.40625 75.984375 
L 18.40625 64.59375 
L 9.421875 64.59375 
z
" id="DejaVuSans-69"/>
     <path d="M 18.3125 70.21875 
L 18.3125 54.6875 
L 36.8125 54.6875 
L 36.8125 47.703125 
L 18.3125 47.703125 
L 18.3125 18.015625 
Q 18.3125 11.328125 20.140625 9.421875 
Q 21.96875 7.515625 27.59375 7.515625 
L 36.8125 7.515625 
L 36.8125 0 
L 27.59375 0 
Q 17.1875 0 13.234375 3.875 
Q 9.28125 7.765625 9.28125 18.015625 
L 9.28125 47.703125 
L 2.6875 47.703125 
L 2.6875 54.6875 
L 9.28125 54.6875 
L 9.28125 70.21875 
z
" id="DejaVuSans-74"/>
     <path d="M 25.390625 72.90625 
L 33.6875 72.90625 
L 8.296875 -9.28125 
L 0 -9.28125 
z
" id="DejaVuSans-2f"/>
     <path d="M 44.28125 53.078125 
L 44.28125 44.578125 
Q 40.484375 46.53125 36.375 47.5 
Q 32.28125 48.484375 27.875 48.484375 
Q 21.1875 48.484375 17.84375 46.4375 
Q 14.5 44.390625 14.5 40.28125 
Q 14.5 37.15625 16.890625 35.375 
Q 19.28125 33.59375 26.515625 31.984375 
L 29.59375 31.296875 
Q 39.15625 29.25 43.1875 25.515625 
Q 47.21875 21.78125 47.21875 15.09375 
Q 47.21875 7.46875 41.1875 3.015625 
Q 35.15625 -1.421875 24.609375 -1.421875 
Q 20.21875 -1.421875 15.453125 -0.5625 
Q 10.6875 0.296875 5.421875 2 
L 5.421875 11.28125 
Q 10.40625 8.6875 15.234375 7.390625 
Q 20.0625 6.109375 24.8125 6.109375 
Q 31.15625 6.109375 34.5625 8.28125 
Q 37.984375 10.453125 37.984375 14.40625 
Q 37.984375 18.0625 35.515625 20.015625 
Q 33.0625 21.96875 24.703125 23.78125 
L 21.578125 24.515625 
Q 13.234375 26.265625 9.515625 29.90625 
Q 5.8125 33.546875 5.8125 39.890625 
Q 5.8125 47.609375 11.28125 51.796875 
Q 16.75 56 26.8125 56 
Q 31.78125 56 36.171875 55.265625 
Q 40.578125 54.546875 44.28125 53.078125 
z
" id="DejaVuSans-73"/>
    </defs>
    <g transform="translate(694.48875 63.12)scale(0.12 -0.12)">
     <use xlink:href="#DejaVuSans-35"/>
     <use x="63.623047" xlink:href="#DejaVuSans-30"/>
     <use x="127.246094" xlink:href="#DejaVuSans-30"/>
     <use x="190.869141" xlink:href="#DejaVuSans-30"/>
     <use x="254.492188" xlink:href="#DejaVuSans-30"/>
     <use x="318.115234" xlink:href="#DejaVuSans-30"/>
     <use x="381.738281" xlink:href="#DejaVuSans-2e"/>
     <use x="413.525391" xlink:href="#DejaVuSans-30"/>
     <use x="477.148438" xlink:href="#DejaVuSans-20"/>
     <use x="508.935547" xlink:href="#DejaVuSans-62"/>
     <use x="572.412109" xlink:href="#DejaVuSans-69"/>
     <use x="600.195312" xlink:href="#DejaVuSans-74"/>
     <use x="639.404297" xlink:href="#DejaVuSans-2f"/>
     <use x="673.095703" xlink:href="#DejaVuSans-73"/>
    </g>
   </g>
   <g id="legend_1">
    <g id="patch_7">
     <path d="M 1173.520313 135.8325 
L 1289 135.8325 
Q 1291 135.8325 1291 133.8325 
L 1291 76.12 
Q 1291 74.12 1289 74.12 
L 1173.520313 74.12 
Q 1171.520313 74.12 1171.520313 76.12 
L 1171.520313 133.8325 
Q 1171.520313 135.8325 1173.520313 135.8325 
z
" style="fill:#ffffff;opacity:0.8;stroke:#cccccc;stroke-linejoin:miter;"/>
    </g>
    <g id="line2d_21">
     <path d="M 1175.520313 82.218437 
L 1195.520313 82.218437 
" style="fill:none;stroke:#ff0000;stroke-dasharray:5.55,2.4;stroke-dashoffset:0;stroke-width:1.5;"/>
    </g>
    <g id="line2d_22">
     <g>
      <use style="fill:#ff0000;stroke:#ff0000;stroke-linejoin:miter;" x="1185.520313" xlink:href="#m4e5a7f3273" y="82.218437"/>
     </g>
    </g>
    <g id="text_18">
     <!-- tcpdump -->
     <defs>
      <path d="M 48.78125 52.59375 
L 48.78125 44.1875 
Q 44.96875 46.296875 41.140625 47.34375 
Q 37.3125 48.390625 33.40625 48.390625 
Q 24.65625 48.390625 19.8125 42.84375 
Q 14.984375 37.3125 14.984375 27.296875 
Q 14.984375 17.28125 19.8125 11.734375 
Q 24.65625 6.203125 33.40625 6.203125 
Q 37.3125 6.203125 41.140625 7.25 
Q 44.96875 8.296875 48.78125 10.40625 
L 48.78125 2.09375 
Q 45.015625 0.34375 40.984375 -0.53125 
Q 36.96875 -1.421875 32.421875 -1.421875 
Q 20.0625 -1.421875 12.78125 6.34375 
Q 5.515625 14.109375 5.515625 27.296875 
Q 5.515625 40.671875 12.859375 48.328125 
Q 20.21875 56 33.015625 56 
Q 37.15625 56 41.109375 55.140625 
Q 45.0625 54.296875 48.78125 52.59375 
z
" id="DejaVuSans-63"/>
      <path d="M 18.109375 8.203125 
L 18.109375 -20.796875 
L 9.078125 -20.796875 
L 9.078125 54.6875 
L 18.109375 54.6875 
L 18.109375 46.390625 
Q 20.953125 51.265625 25.265625 53.625 
Q 29.59375 56 35.59375 56 
Q 45.5625 56 51.78125 48.09375 
Q 58.015625 40.1875 58.015625 27.296875 
Q 58.015625 14.40625 51.78125 6.484375 
Q 45.5625 -1.421875 35.59375 -1.421875 
Q 29.59375 -1.421875 25.265625 0.953125 
Q 20.953125 3.328125 18.109375 8.203125 
z
M 48.6875 27.296875 
Q 48.6875 37.203125 44.609375 42.84375 
Q 40.53125 48.484375 33.40625 48.484375 
Q 26.265625 48.484375 22.1875 42.84375 
Q 18.109375 37.203125 18.109375 27.296875 
Q 18.109375 17.390625 22.1875 11.75 
Q 26.265625 6.109375 33.40625 6.109375 
Q 40.53125 6.109375 44.609375 11.75 
Q 48.6875 17.390625 48.6875 27.296875 
z
" id="DejaVuSans-70"/>
      <path d="M 45.40625 46.390625 
L 45.40625 75.984375 
L 54.390625 75.984375 
L 54.390625 0 
L 45.40625 0 
L 45.40625 8.203125 
Q 42.578125 3.328125 38.25 0.953125 
Q 33.9375 -1.421875 27.875 -1.421875 
Q 17.96875 -1.421875 11.734375 6.484375 
Q 5.515625 14.40625 5.515625 27.296875 
Q 5.515625 40.1875 11.734375 48.09375 
Q 17.96875 56 27.875 56 
Q 33.9375 56 38.25 53.625 
Q 42.578125 51.265625 45.40625 46.390625 
z
M 14.796875 27.296875 
Q 14.796875 17.390625 18.875 11.75 
Q 22.953125 6.109375 30.078125 6.109375 
Q 37.203125 6.109375 41.296875 11.75 
Q 45.40625 17.390625 45.40625 27.296875 
Q 45.40625 37.203125 41.296875 42.84375 
Q 37.203125 48.484375 30.078125 48.484375 
Q 22.953125 48.484375 18.875 42.84375 
Q 14.796875 37.203125 14.796875 27.296875 
z
" id="DejaVuSans-64"/>
      <path d="M 8.5 21.578125 
L 8.5 54.6875 
L 17.484375 54.6875 
L 17.484375 21.921875 
Q 17.484375 14.15625 20.5 10.265625 
Q 23.53125 6.390625 29.59375 6.390625 
Q 36.859375 6.390625 41.078125 11.03125 
Q 45.3125 15.671875 45.3125 23.6875 
L 45.3125 54.6875 
L 54.296875 54.6875 
L 54.296875 0 
L 45.3125 0 
L 45.3125 8.40625 
Q 42.046875 3.421875 37.71875 1 
Q 33.40625 -1.421875 27.6875 -1.421875 
Q 18.265625 -1.421875 13.375 4.4375 
Q 8.5 10.296875 8.5 21.578125 
z
M 31.109375 56 
z
" id="DejaVuSans-75"/>
      <path d="M 52 44.1875 
Q 55.375 50.25 60.0625 53.125 
Q 64.75 56 71.09375 56 
Q 79.640625 56 84.28125 50.015625 
Q 88.921875 44.046875 88.921875 33.015625 
L 88.921875 0 
L 79.890625 0 
L 79.890625 32.71875 
Q 79.890625 40.578125 77.09375 44.375 
Q 74.3125 48.1875 68.609375 48.1875 
Q 61.625 48.1875 57.5625 43.546875 
Q 53.515625 38.921875 53.515625 30.90625 
L 53.515625 0 
L 44.484375 0 
L 44.484375 32.71875 
Q 44.484375 40.625 41.703125 44.40625 
Q 38.921875 48.1875 33.109375 48.1875 
Q 26.21875 48.1875 22.15625 43.53125 
Q 18.109375 38.875 18.109375 30.90625 
L 18.109375 0 
L 9.078125 0 
L 9.078125 54.6875 
L 18.109375 54.6875 
L 18.109375 46.1875 
Q 21.1875 51.21875 25.484375 53.609375 
Q 29.78125 56 35.6875 56 
Q 41.65625 56 45.828125 52.96875 
Q 50 49.953125 52 44.1875 
z
" id="DejaVuSans-6d"/>
     </defs>
     <g transform="translate(1203.520313 85.718437)scale(0.1 -0.1)">
      <use xlink:href="#DejaVuSans-74"/>
      <use x="39.208984" xlink:href="#DejaVuSans-63"/>
      <use x="94.189453" xlink:href="#DejaVuSans-70"/>
      <use x="157.666016" xlink:href="#DejaVuSans-64"/>
      <use x="221.142578" xlink:href="#DejaVuSans-75"/>
      <use x="284.521484" xlink:href="#DejaVuSans-6d"/>
      <use x="381.933594" xlink:href="#DejaVuSans-70"/>
     </g>
    </g>
    <g id="line2d_23">
     <path d="M 1175.520313 96.896563 
L 1195.520313 96.896563 
" style="fill:none;stroke:#800080;stroke-dasharray:9.6,2.4,1.5,2.4;stroke-dashoffset:0;stroke-width:1.5;"/>
    </g>
    <g id="line2d_24">
     <g>
      <use style="fill:#800080;stroke:#800080;" x="1185.520313" xlink:href="#m0a901b9417" y="96.896563"/>
     </g>
    </g>
    <g id="text_19">
     <!-- filtered tcpdump -->
     <defs>
      <path d="M 37.109375 75.984375 
L 37.109375 68.5 
L 28.515625 68.5 
Q 23.6875 68.5 21.796875 66.546875 
Q 19.921875 64.59375 19.921875 59.515625 
L 19.921875 54.6875 
L 34.71875 54.6875 
L 34.71875 47.703125 
L 19.921875 47.703125 
L 19.921875 0 
L 10.890625 0 
L 10.890625 47.703125 
L 2.296875 47.703125 
L 2.296875 54.6875 
L 10.890625 54.6875 
L 10.890625 58.5 
Q 10.890625 67.625 15.140625 71.796875 
Q 19.390625 75.984375 28.609375 75.984375 
z
" id="DejaVuSans-66"/>
      <path d="M 9.421875 75.984375 
L 18.40625 75.984375 
L 18.40625 0 
L 9.421875 0 
z
" id="DejaVuSans-6c"/>
      <path d="M 56.203125 29.59375 
L 56.203125 25.203125 
L 14.890625 25.203125 
Q 15.484375 15.921875 20.484375 11.0625 
Q 25.484375 6.203125 34.421875 6.203125 
Q 39.59375 6.203125 44.453125 7.46875 
Q 49.3125 8.734375 54.109375 11.28125 
L 54.109375 2.78125 
Q 49.265625 0.734375 44.1875 -0.34375 
Q 39.109375 -1.421875 33.890625 -1.421875 
Q 20.796875 -1.421875 13.15625 6.1875 
Q 5.515625 13.8125 5.515625 26.8125 
Q 5.515625 40.234375 12.765625 48.109375 
Q 20.015625 56 32.328125 56 
Q 43.359375 56 49.78125 48.890625 
Q 56.203125 41.796875 56.203125 29.59375 
z
M 47.21875 32.234375 
Q 47.125 39.59375 43.09375 43.984375 
Q 39.0625 48.390625 32.421875 48.390625 
Q 24.90625 48.390625 20.390625 44.140625 
Q 15.875 39.890625 15.1875 32.171875 
z
" id="DejaVuSans-65"/>
      <path d="M 41.109375 46.296875 
Q 39.59375 47.171875 37.8125 47.578125 
Q 36.03125 48 33.890625 48 
Q 26.265625 48 22.1875 43.046875 
Q 18.109375 38.09375 18.109375 28.8125 
L 18.109375 0 
L 9.078125 0 
L 9.078125 54.6875 
L 18.109375 54.6875 
L 18.109375 46.1875 
Q 20.953125 51.171875 25.484375 53.578125 
Q 30.03125 56 36.53125 56 
Q 37.453125 56 38.578125 55.875 
Q 39.703125 55.765625 41.0625 55.515625 
z
" id="DejaVuSans-72"/>
     </defs>
     <g transform="translate(1203.520313 100.396563)scale(0.1 -0.1)">
      <use xlink:href="#DejaVuSans-66"/>
      <use x="35.205078" xlink:href="#DejaVuSans-69"/>
      <use x="62.988281" xlink:href="#DejaVuSans-6c"/>
      <use x="90.771484" xlink:href="#DejaVuSans-74"/>
      <use x="129.980469" xlink:href="#DejaVuSans-65"/>
      <use x="191.503906" xlink:href="#DejaVuSans-72"/>
      <use x="232.585938" xlink:href="#DejaVuSans-65"/>
      <use x="294.109375" xlink:href="#DejaVuSans-64"/>
      <use x="357.585938" xlink:href="#DejaVuSans-20"/>
      <use x="389.373047" xlink:href="#DejaVuSans-74"/>
      <use x="428.582031" xlink:href="#DejaVuSans-63"/>
      <use x="483.5625" xlink:href="#DejaVuSans-70"/>
      <use x="547.039062" xlink:href="#DejaVuSans-64"/>
      <use x="610.515625" xlink:href="#DejaVuSans-75"/>
      <use x="673.894531" xlink:href="#DejaVuSans-6d"/>
      <use x="771.306641" xlink:href="#DejaVuSans-70"/>
     </g>
    </g>
    <g id="line2d_25">
     <path d="M 1175.520313 111.574687 
L 1195.520313 111.574687 
" style="fill:none;stroke:#0000ff;stroke-linecap:square;stroke-width:1.5;"/>
    </g>
    <g id="line2d_26"/>
    <g id="text_20">
     <!-- OLS -->
     <defs>
      <path d="M 39.40625 66.21875 
Q 28.65625 66.21875 22.328125 58.203125 
Q 16.015625 50.203125 16.015625 36.375 
Q 16.015625 22.609375 22.328125 14.59375 
Q 28.65625 6.59375 39.40625 6.59375 
Q 50.140625 6.59375 56.421875 14.59375 
Q 62.703125 22.609375 62.703125 36.375 
Q 62.703125 50.203125 56.421875 58.203125 
Q 50.140625 66.21875 39.40625 66.21875 
z
M 39.40625 74.21875 
Q 54.734375 74.21875 63.90625 63.9375 
Q 73.09375 53.65625 73.09375 36.375 
Q 73.09375 19.140625 63.90625 8.859375 
Q 54.734375 -1.421875 39.40625 -1.421875 
Q 24.03125 -1.421875 14.8125 8.828125 
Q 5.609375 19.09375 5.609375 36.375 
Q 5.609375 53.65625 14.8125 63.9375 
Q 24.03125 74.21875 39.40625 74.21875 
z
" id="DejaVuSans-4f"/>
      <path d="M 9.8125 72.90625 
L 19.671875 72.90625 
L 19.671875 8.296875 
L 55.171875 8.296875 
L 55.171875 0 
L 9.8125 0 
z
" id="DejaVuSans-4c"/>
      <path d="M 53.515625 70.515625 
L 53.515625 60.890625 
Q 47.90625 63.578125 42.921875 64.890625 
Q 37.9375 66.21875 33.296875 66.21875 
Q 25.25 66.21875 20.875 63.09375 
Q 16.5 59.96875 16.5 54.203125 
Q 16.5 49.359375 19.40625 46.890625 
Q 22.3125 44.4375 30.421875 42.921875 
L 36.375 41.703125 
Q 47.40625 39.59375 52.65625 34.296875 
Q 57.90625 29 57.90625 20.125 
Q 57.90625 9.515625 50.796875 4.046875 
Q 43.703125 -1.421875 29.984375 -1.421875 
Q 24.8125 -1.421875 18.96875 -0.25 
Q 13.140625 0.921875 6.890625 3.21875 
L 6.890625 13.375 
Q 12.890625 10.015625 18.65625 8.296875 
Q 24.421875 6.59375 29.984375 6.59375 
Q 38.421875 6.59375 43.015625 9.90625 
Q 47.609375 13.234375 47.609375 19.390625 
Q 47.609375 24.75 44.3125 27.78125 
Q 41.015625 30.8125 33.5 32.328125 
L 27.484375 33.5 
Q 16.453125 35.6875 11.515625 40.375 
Q 6.59375 45.0625 6.59375 53.421875 
Q 6.59375 63.09375 13.40625 68.65625 
Q 20.21875 74.21875 32.171875 74.21875 
Q 37.3125 74.21875 42.625 73.28125 
Q 47.953125 72.359375 53.515625 70.515625 
z
" id="DejaVuSans-53"/>
     </defs>
     <g transform="translate(1203.520313 115.074687)scale(0.1 -0.1)">
      <use xlink:href="#DejaVuSans-4f"/>
      <use x="78.710938" xlink:href="#DejaVuSans-4c"/>
      <use x="134.423828" xlink:href="#DejaVuSans-53"/>
     </g>
    </g>
    <g id="line2d_27">
     <path d="M 1175.520313 126.252813 
L 1195.520313 126.252813 
" style="fill:none;stroke:#008000;stroke-linecap:square;stroke-width:1.5;"/>
    </g>
    <g id="line2d_28">
     <g>
      <use style="fill:#008000;stroke:#008000;" x="1185.520313" xlink:href="#mc830c6bafd" y="126.252813"/>
     </g>
    </g>
    <g id="text_21">
     <!-- IRLS -->
     <defs>
      <path d="M 9.8125 72.90625 
L 19.671875 72.90625 
L 19.671875 0 
L 9.8125 0 
z
" id="DejaVuSans-49"/>
      <path d="M 44.390625 34.1875 
Q 47.5625 33.109375 50.5625 29.59375 
Q 53.5625 26.078125 56.59375 19.921875 
L 66.609375 0 
L 56 0 
L 46.6875 18.703125 
Q 43.0625 26.03125 39.671875 28.421875 
Q 36.28125 30.8125 30.421875 30.8125 
L 19.671875 30.8125 
L 19.671875 0 
L 9.8125 0 
L 9.8125 72.90625 
L 32.078125 72.90625 
Q 44.578125 72.90625 50.734375 67.671875 
Q 56.890625 62.453125 56.890625 51.90625 
Q 56.890625 45.015625 53.6875 40.46875 
Q 50.484375 35.9375 44.390625 34.1875 
z
M 19.671875 64.796875 
L 19.671875 38.921875 
L 32.078125 38.921875 
Q 39.203125 38.921875 42.84375 42.21875 
Q 46.484375 45.515625 46.484375 51.90625 
Q 46.484375 58.296875 42.84375 61.546875 
Q 39.203125 64.796875 32.078125 64.796875 
z
" id="DejaVuSans-52"/>
     </defs>
     <g transform="translate(1203.520313 129.752813)scale(0.1 -0.1)">
      <use xlink:href="#DejaVuSans-49"/>
      <use x="29.492188" xlink:href="#DejaVuSans-52"/>
      <use x="98.974609" xlink:href="#DejaVuSans-4c"/>
      <use x="154.6875" xlink:href="#DejaVuSans-53"/>
     </g>
    </g>
   </g>
  </g>
 </g>
 <defs>
  <clipPath id="pa4d637b649">
   <rect height="443.52" width="1116" x="180" y="69.12"/>
  </clipPath>
 </defs>
</svg>
