<?xml version="1.0" encoding="utf-8" standalone="no"?>
<!DOCTYPE svg PUBLIC "-//W3C//DTD SVG 1.1//EN"
  "http://www.w3.org/Graphics/SVG/1.1/DTD/svg11.dtd">
<!-- Created with matplotlib (http://matplotlib.org/) -->
<svg height="576pt" version="1.1" viewBox="0 0 1440 576" width="1440pt" xmlns="http://www.w3.org/2000/svg" xmlns:xlink="http://www.w3.org/1999/xlink">
 <defs>
  <style type="text/css">
*{stroke-linecap:butt;stroke-linejoin:round;}
  </style>
 </defs>
 <g id="figure_1">
  <g id="patch_1">
   <path d="M 0 576 
L 1440 576 
L 1440 0 
L 0 0 
z
" style="fill:#ffffff;"/>
  </g>
  <g id="axes_1">
   <g id="patch_2">
    <path d="M 180 512.64 
L 1296 512.64 
L 1296 69.12 
L 180 69.12 
z
" style="fill:#ffffff;"/>
   </g>
   <g id="matplotlib.axis_1">
    <g id="xtick_1">
     <g id="line2d_1">
      <defs>
       <path d="M 0 0 
L 0 3.5 
" id="m68bdea3a33" style="stroke:#000000;stroke-width:0.8;"/>
      </defs>
      <g>
       <use style="stroke:#000000;stroke-width:0.8;" x="230.727273" xlink:href="#m68bdea3a33" y="512.64"/>
      </g>
     </g>
     <g id="text_1">
      <!-- 0.0 -->
      <defs>
       <path d="M 31.78125 66.40625 
Q 24.171875 66.40625 20.328125 58.90625 
Q 16.5 51.421875 16.5 36.375 
Q 16.5 21.390625 20.328125 13.890625 
Q 24.171875 6.390625 31.78125 6.390625 
Q 39.453125 6.390625 43.28125 13.890625 
Q 47.125 21.390625 47.125 36.375 
Q 47.125 51.421875 43.28125 58.90625 
Q 39.453125 66.40625 31.78125 66.40625 
z
M 31.78125 74.21875 
Q 44.046875 74.21875 50.515625 64.515625 
Q 56.984375 54.828125 56.984375 36.375 
Q 56.984375 17.96875 50.515625 8.265625 
Q 44.046875 -1.421875 31.78125 -1.421875 
Q 19.53125 -1.421875 13.0625 8.265625 
Q 6.59375 17.96875 6.59375 36.375 
Q 6.59375 54.828125 13.0625 64.515625 
Q 19.53125 74.21875 31.78125 74.21875 
z
" id="DejaVuSans-30"/>
       <path d="M 10.6875 12.40625 
L 21 12.40625 
L 21 0 
L 10.6875 0 
z
" id="DejaVuSans-2e"/>
      </defs>
      <g transform="translate(222.77571 527.238438)scale(0.1 -0.1)">
       <use xlink:href="#DejaVuSans-30"/>
       <use x="63.623047" xlink:href="#DejaVuSans-2e"/>
       <use x="95.410156" xlink:href="#DejaVuSans-30"/>
      </g>
     </g>
    </g>
    <g id="xtick_2">
     <g id="line2d_2">
      <g>
       <use style="stroke:#000000;stroke-width:0.8;" x="380.268529" xlink:href="#m68bdea3a33" y="512.64"/>
      </g>
     </g>
     <g id="text_2">
      <!-- 0.2 -->
      <defs>
       <path d="M 19.1875 8.296875 
L 53.609375 8.296875 
L 53.609375 0 
L 7.328125 0 
L 7.328125 8.296875 
Q 12.9375 14.109375 22.625 23.890625 
Q 32.328125 33.6875 34.8125 36.53125 
Q 39.546875 41.84375 41.421875 45.53125 
Q 43.3125 49.21875 43.3125 52.78125 
Q 43.3125 58.59375 39.234375 62.25 
Q 35.15625 65.921875 28.609375 65.921875 
Q 23.96875 65.921875 18.8125 64.3125 
Q 13.671875 62.703125 7.8125 59.421875 
L 7.8125 69.390625 
Q 13.765625 71.78125 18.9375 73 
Q 24.125 74.21875 28.421875 74.21875 
Q 39.75 74.21875 46.484375 68.546875 
Q 53.21875 62.890625 53.21875 53.421875 
Q 53.21875 48.921875 51.53125 44.890625 
Q 49.859375 40.875 45.40625 35.40625 
Q 44.1875 33.984375 37.640625 27.21875 
Q 31.109375 20.453125 19.1875 8.296875 
z
" id="DejaVuSans-32"/>
      </defs>
      <g transform="translate(372.316966 527.238438)scale(0.1 -0.1)">
       <use xlink:href="#DejaVuSans-30"/>
       <use x="63.623047" xlink:href="#DejaVuSans-2e"/>
       <use x="95.410156" xlink:href="#DejaVuSans-32"/>
      </g>
     </g>
    </g>
    <g id="xtick_3">
     <g id="line2d_3">
      <g>
       <use style="stroke:#000000;stroke-width:0.8;" x="529.809785" xlink:href="#m68bdea3a33" y="512.64"/>
      </g>
     </g>
     <g id="text_3">
      <!-- 0.4 -->
      <defs>
       <path d="M 37.796875 64.3125 
L 12.890625 25.390625 
L 37.796875 25.390625 
z
M 35.203125 72.90625 
L 47.609375 72.90625 
L 47.609375 25.390625 
L 58.015625 25.390625 
L 58.015625 17.1875 
L 47.609375 17.1875 
L 47.609375 0 
L 37.796875 0 
L 37.796875 17.1875 
L 4.890625 17.1875 
L 4.890625 26.703125 
z
" id="DejaVuSans-34"/>
      </defs>
      <g transform="translate(521.858222 527.238438)scale(0.1 -0.1)">
       <use xlink:href="#DejaVuSans-30"/>
       <use x="63.623047" xlink:href="#DejaVuSans-2e"/>
       <use x="95.410156" xlink:href="#DejaVuSans-34"/>
      </g>
     </g>
    </g>
    <g id="xtick_4">
     <g id="line2d_4">
      <g>
       <use style="stroke:#000000;stroke-width:0.8;" x="679.351041" xlink:href="#m68bdea3a33" y="512.64"/>
      </g>
     </g>
     <g id="text_4">
      <!-- 0.6 -->
      <defs>
       <path d="M 33.015625 40.375 
Q 26.375 40.375 22.484375 35.828125 
Q 18.609375 31.296875 18.609375 23.390625 
Q 18.609375 15.53125 22.484375 10.953125 
Q 26.375 6.390625 33.015625 6.390625 
Q 39.65625 6.390625 43.53125 10.953125 
Q 47.40625 15.53125 47.40625 23.390625 
Q 47.40625 31.296875 43.53125 35.828125 
Q 39.65625 40.375 33.015625 40.375 
z
M 52.59375 71.296875 
L 52.59375 62.3125 
Q 48.875 64.0625 45.09375 64.984375 
Q 41.3125 65.921875 37.59375 65.921875 
Q 27.828125 65.921875 22.671875 59.328125 
Q 17.53125 52.734375 16.796875 39.40625 
Q 19.671875 43.65625 24.015625 45.921875 
Q 28.375 48.1875 33.59375 48.1875 
Q 44.578125 48.1875 50.953125 41.515625 
Q 57.328125 34.859375 57.328125 23.390625 
Q 57.328125 12.15625 50.6875 5.359375 
Q 44.046875 -1.421875 33.015625 -1.421875 
Q 20.359375 -1.421875 13.671875 8.265625 
Q 6.984375 17.96875 6.984375 36.375 
Q 6.984375 53.65625 15.1875 63.9375 
Q 23.390625 74.21875 37.203125 74.21875 
Q 40.921875 74.21875 44.703125 73.484375 
Q 48.484375 72.75 52.59375 71.296875 
z
" id="DejaVuSans-36"/>
      </defs>
      <g transform="translate(671.399478 527.238438)scale(0.1 -0.1)">
       <use xlink:href="#DejaVuSans-30"/>
       <use x="63.623047" xlink:href="#DejaVuSans-2e"/>
       <use x="95.410156" xlink:href="#DejaVuSans-36"/>
      </g>
     </g>
    </g>
    <g id="xtick_5">
     <g id="line2d_5">
      <g>
       <use style="stroke:#000000;stroke-width:0.8;" x="828.892297" xlink:href="#m68bdea3a33" y="512.64"/>
      </g>
     </g>
     <g id="text_5">
      <!-- 0.8 -->
      <defs>
       <path d="M 31.78125 34.625 
Q 24.75 34.625 20.71875 30.859375 
Q 16.703125 27.09375 16.703125 20.515625 
Q 16.703125 13.921875 20.71875 10.15625 
Q 24.75 6.390625 31.78125 6.390625 
Q 38.8125 6.390625 42.859375 10.171875 
Q 46.921875 13.96875 46.921875 20.515625 
Q 46.921875 27.09375 42.890625 30.859375 
Q 38.875 34.625 31.78125 34.625 
z
M 21.921875 38.8125 
Q 15.578125 40.375 12.03125 44.71875 
Q 8.5 49.078125 8.5 55.328125 
Q 8.5 64.0625 14.71875 69.140625 
Q 20.953125 74.21875 31.78125 74.21875 
Q 42.671875 74.21875 48.875 69.140625 
Q 55.078125 64.0625 55.078125 55.328125 
Q 55.078125 49.078125 51.53125 44.71875 
Q 48 40.375 41.703125 38.8125 
Q 48.828125 37.15625 52.796875 32.3125 
Q 56.78125 27.484375 56.78125 20.515625 
Q 56.78125 9.90625 50.3125 4.234375 
Q 43.84375 -1.421875 31.78125 -1.421875 
Q 19.734375 -1.421875 13.25 4.234375 
Q 6.78125 9.90625 6.78125 20.515625 
Q 6.78125 27.484375 10.78125 32.3125 
Q 14.796875 37.15625 21.921875 38.8125 
z
M 18.3125 54.390625 
Q 18.3125 48.734375 21.84375 45.5625 
Q 25.390625 42.390625 31.78125 42.390625 
Q 38.140625 42.390625 41.71875 45.5625 
Q 45.3125 48.734375 45.3125 54.390625 
Q 45.3125 60.0625 41.71875 63.234375 
Q 38.140625 66.40625 31.78125 66.40625 
Q 25.390625 66.40625 21.84375 63.234375 
Q 18.3125 60.0625 18.3125 54.390625 
z
" id="DejaVuSans-38"/>
      </defs>
      <g transform="translate(820.940734 527.238438)scale(0.1 -0.1)">
       <use xlink:href="#DejaVuSans-30"/>
       <use x="63.623047" xlink:href="#DejaVuSans-2e"/>
       <use x="95.410156" xlink:href="#DejaVuSans-38"/>
      </g>
     </g>
    </g>
    <g id="xtick_6">
     <g id="line2d_6">
      <g>
       <use style="stroke:#000000;stroke-width:0.8;" x="978.433553" xlink:href="#m68bdea3a33" y="512.64"/>
      </g>
     </g>
     <g id="text_6">
      <!-- 1.0 -->
      <defs>
       <path d="M 12.40625 8.296875 
L 28.515625 8.296875 
L 28.515625 63.921875 
L 10.984375 60.40625 
L 10.984375 69.390625 
L 28.421875 72.90625 
L 38.28125 72.90625 
L 38.28125 8.296875 
L 54.390625 8.296875 
L 54.390625 0 
L 12.40625 0 
z
" id="DejaVuSans-31"/>
      </defs>
      <g transform="translate(970.481991 527.238438)scale(0.1 -0.1)">
       <use xlink:href="#DejaVuSans-31"/>
       <use x="63.623047" xlink:href="#DejaVuSans-2e"/>
       <use x="95.410156" xlink:href="#DejaVuSans-30"/>
      </g>
     </g>
    </g>
    <g id="xtick_7">
     <g id="line2d_7">
      <g>
       <use style="stroke:#000000;stroke-width:0.8;" x="1127.974809" xlink:href="#m68bdea3a33" y="512.64"/>
      </g>
     </g>
     <g id="text_7">
      <!-- 1.2 -->
      <g transform="translate(1120.023247 527.238438)scale(0.1 -0.1)">
       <use xlink:href="#DejaVuSans-31"/>
       <use x="63.623047" xlink:href="#DejaVuSans-2e"/>
       <use x="95.410156" xlink:href="#DejaVuSans-32"/>
      </g>
     </g>
    </g>
    <g id="xtick_8">
     <g id="line2d_8">
      <g>
       <use style="stroke:#000000;stroke-width:0.8;" x="1277.516065" xlink:href="#m68bdea3a33" y="512.64"/>
      </g>
     </g>
     <g id="text_8">
      <!-- 1.4 -->
      <g transform="translate(1269.564503 527.238438)scale(0.1 -0.1)">
       <use xlink:href="#DejaVuSans-31"/>
       <use x="63.623047" xlink:href="#DejaVuSans-2e"/>
       <use x="95.410156" xlink:href="#DejaVuSans-34"/>
      </g>
     </g>
    </g>
   </g>
   <g id="matplotlib.axis_2">
    <g id="ytick_1">
     <g id="line2d_9">
      <defs>
       <path d="M 0 0 
L -3.5 0 
" id="m5387428a8c" style="stroke:#000000;stroke-width:0.8;"/>
      </defs>
      <g>
       <use style="stroke:#000000;stroke-width:0.8;" x="180" xlink:href="#m5387428a8c" y="447.605507"/>
      </g>
     </g>
     <g id="text_9">
      <!-- 1.20 -->
      <g transform="translate(150.734375 451.404726)scale(0.1 -0.1)">
       <use xlink:href="#DejaVuSans-31"/>
       <use x="63.623047" xlink:href="#DejaVuSans-2e"/>
       <use x="95.410156" xlink:href="#DejaVuSans-32"/>
       <use x="159.033203" xlink:href="#DejaVuSans-30"/>
      </g>
     </g>
    </g>
    <g id="ytick_2">
     <g id="line2d_10">
      <g>
       <use style="stroke:#000000;stroke-width:0.8;" x="180" xlink:href="#m5387428a8c" y="367.791739"/>
      </g>
     </g>
     <g id="text_10">
      <!-- 1.25 -->
      <defs>
       <path d="M 10.796875 72.90625 
L 49.515625 72.90625 
L 49.515625 64.59375 
L 19.828125 64.59375 
L 19.828125 46.734375 
Q 21.96875 47.46875 24.109375 47.828125 
Q 26.265625 48.1875 28.421875 48.1875 
Q 40.625 48.1875 47.75 41.5 
Q 54.890625 34.8125 54.890625 23.390625 
Q 54.890625 11.625 47.5625 5.09375 
Q 40.234375 -1.421875 26.90625 -1.421875 
Q 22.3125 -1.421875 17.546875 -0.640625 
Q 12.796875 0.140625 7.71875 1.703125 
L 7.71875 11.625 
Q 12.109375 9.234375 16.796875 8.0625 
Q 21.484375 6.890625 26.703125 6.890625 
Q 35.15625 6.890625 40.078125 11.328125 
Q 45.015625 15.765625 45.015625 23.390625 
Q 45.015625 31 40.078125 35.4375 
Q 35.15625 39.890625 26.703125 39.890625 
Q 22.75 39.890625 18.8125 39.015625 
Q 14.890625 38.140625 10.796875 36.28125 
z
" id="DejaVuSans-35"/>
      </defs>
      <g transform="translate(150.734375 371.590958)scale(0.1 -0.1)">
       <use xlink:href="#DejaVuSans-31"/>
       <use x="63.623047" xlink:href="#DejaVuSans-2e"/>
       <use x="95.410156" xlink:href="#DejaVuSans-32"/>
       <use x="159.033203" xlink:href="#DejaVuSans-35"/>
      </g>
     </g>
    </g>
    <g id="ytick_3">
     <g id="line2d_11">
      <g>
       <use style="stroke:#000000;stroke-width:0.8;" x="180" xlink:href="#m5387428a8c" y="287.977971"/>
      </g>
     </g>
     <g id="text_11">
      <!-- 1.30 -->
      <defs>
       <path d="M 40.578125 39.3125 
Q 47.65625 37.796875 51.625 33 
Q 55.609375 28.21875 55.609375 21.1875 
Q 55.609375 10.40625 48.1875 4.484375 
Q 40.765625 -1.421875 27.09375 -1.421875 
Q 22.515625 -1.421875 17.65625 -0.515625 
Q 12.796875 0.390625 7.625 2.203125 
L 7.625 11.71875 
Q 11.71875 9.328125 16.59375 8.109375 
Q 21.484375 6.890625 26.8125 6.890625 
Q 36.078125 6.890625 40.9375 10.546875 
Q 45.796875 14.203125 45.796875 21.1875 
Q 45.796875 27.640625 41.28125 31.265625 
Q 36.765625 34.90625 28.71875 34.90625 
L 20.21875 34.90625 
L 20.21875 43.015625 
L 29.109375 43.015625 
Q 36.375 43.015625 40.234375 45.921875 
Q 44.09375 48.828125 44.09375 54.296875 
Q 44.09375 59.90625 40.109375 62.90625 
Q 36.140625 65.921875 28.71875 65.921875 
Q 24.65625 65.921875 20.015625 65.03125 
Q 15.375 64.15625 9.8125 62.3125 
L 9.8125 71.09375 
Q 15.4375 72.65625 20.34375 73.4375 
Q 25.25 74.21875 29.59375 74.21875 
Q 40.828125 74.21875 47.359375 69.109375 
Q 53.90625 64.015625 53.90625 55.328125 
Q 53.90625 49.265625 50.4375 45.09375 
Q 46.96875 40.921875 40.578125 39.3125 
z
" id="DejaVuSans-33"/>
      </defs>
      <g transform="translate(150.734375 291.77719)scale(0.1 -0.1)">
       <use xlink:href="#DejaVuSans-31"/>
       <use x="63.623047" xlink:href="#DejaVuSans-2e"/>
       <use x="95.410156" xlink:href="#DejaVuSans-33"/>
       <use x="159.033203" xlink:href="#DejaVuSans-30"/>
      </g>
     </g>
    </g>
    <g id="ytick_4">
     <g id="line2d_12">
      <g>
       <use style="stroke:#000000;stroke-width:0.8;" x="180" xlink:href="#m5387428a8c" y="208.164204"/>
      </g>
     </g>
     <g id="text_12">
      <!-- 1.35 -->
      <g transform="translate(150.734375 211.963422)scale(0.1 -0.1)">
       <use xlink:href="#DejaVuSans-31"/>
       <use x="63.623047" xlink:href="#DejaVuSans-2e"/>
       <use x="95.410156" xlink:href="#DejaVuSans-33"/>
       <use x="159.033203" xlink:href="#DejaVuSans-35"/>
      </g>
     </g>
    </g>
    <g id="ytick_5">
     <g id="line2d_13">
      <g>
       <use style="stroke:#000000;stroke-width:0.8;" x="180" xlink:href="#m5387428a8c" y="128.350436"/>
      </g>
     </g>
     <g id="text_13">
      <!-- 1.40 -->
      <g transform="translate(150.734375 132.149654)scale(0.1 -0.1)">
       <use xlink:href="#DejaVuSans-31"/>
       <use x="63.623047" xlink:href="#DejaVuSans-2e"/>
       <use x="95.410156" xlink:href="#DejaVuSans-34"/>
       <use x="159.033203" xlink:href="#DejaVuSans-30"/>
      </g>
     </g>
    </g>
   </g>
   <g id="line2d_14">
    <path clip-path="url(#p057932a2c9)" d="M 230.727273 489.978637 
L 240.865422 492.48 
L 251.982319 458.292571 
L 261.76456 459.95589 
L 271.54082 422.925494 
L 282.200868 426.45007 
L 291.995821 379.024729 
L 301.79825 380.723166 
L 312.368574 384.056189 
L 322.184462 385.773781 
L 332.001098 387.502547 
L 342.535531 390.765334 
L 352.340952 392.474945 
L 362.154596 394.178171 
L 372.732397 397.538331 
L 382.495198 399.152165 
L 392.263233 400.761211 
L 402.863465 404.162873 
L 412.395972 405.286651 
L 421.960631 406.469491 
L 432.616193 409.98449 
L 442.315439 411.457852 
L 452.070015 413.049338 
L 463.023912 417.193269 
L 472.747832 418.725693 
L 482.482968 417.040027 
L 493.202085 420.706671 
L 502.951428 383.586884 
L 512.693293 385.167197 
L 523.353341 339.57438 
L 533.083243 341.135537 
L 542.790714 342.626458 
L 553.561423 346.38409 
L 563.244967 347.833508 
L 572.940474 349.303678 
L 583.794178 353.243286 
L 593.556231 354.845946 
L 603.268188 356.351234 
L 613.994783 360.027456 
L 623.7359 361.598191 
L 633.435894 363.066764 
L 644.196135 366.774912 
L 653.887156 368.246678 
L 663.571448 369.700885 
L 674.372065 373.536734 
L 684.057852 374.98296 
L 693.733919 376.406837 
L 704.53977 380.244283 
L 714.213594 381.666565 
L 723.893399 383.101616 
L 734.712709 386.969391 
L 744.402983 388.423598 
L 754.095499 389.885786 
L 764.89836 393.716847 
L 774.747147 395.511061 
L 784.543594 397.191939 
L 795.40328 401.145913 
L 805.115237 402.643219 
L 814.688868 403.853196 
L 825.556779 407.821536 
L 835.364443 409.527955 
L 845.16089 411.210429 
L 855.856829 414.811626 
L 865.655519 416.4941 
L 875.438508 418.155823 
L 886.005841 421.488846 
L 895.813505 423.192072 
L 905.606214 424.866565 
L 916.23112 428.319308 
L 926.005136 429.952298 
L 935.770928 431.567729 
L 946.384619 434.994932 
L 956.205741 147.765933 
L 966.047051 149.552165 
L 976.596439 152.848474 
L 986.426533 154.597991 
L 996.258871 156.341124 
L 1006.786575 159.599122 
L 1016.580032 161.278404 
L 1026.410127 163.035903 
L 1036.978955 166.338597 
L 1046.889802 168.28286 
L 1056.769245 170.153695 
L 1069.029385 177.0943 
L 1078.829571 178.733675 
L 1090.075821 183.546445 
L 1099.923113 185.355025 
L 1113.073771 194.201583 
L 1123.176778 196.53853 
L 1135.334482 203.262042 
L 1146.621108 208.105141 
L 1158.484964 214.178969 
L 1168.385343 216.12004 
L 1180.719506 223.225062 
L 1191.1201 226.135071 
L 1203.466974 233.303944 
L 1213.306788 235.066232 
L 1225.349346 164.218743 
L 1235.486 89.28 
L 1245.272727 90.964071 
" style="fill:none;stroke:#ff0000;stroke-dasharray:5.55,2.4;stroke-dashoffset:0;stroke-width:1.5;"/>
    <defs>
     <path d="M -3 3 
L 3 3 
L 3 -3 
L -3 -3 
z
" id="m5119eca128" style="stroke:#ff0000;stroke-linejoin:miter;"/>
    </defs>
    <g clip-path="url(#p057932a2c9)">
     <use style="fill:#ff0000;stroke:#ff0000;stroke-linejoin:miter;" x="230.727273" xlink:href="#m5119eca128" y="489.978637"/>
     <use style="fill:#ff0000;stroke:#ff0000;stroke-linejoin:miter;" x="240.865422" xlink:href="#m5119eca128" y="492.48"/>
     <use style="fill:#ff0000;stroke:#ff0000;stroke-linejoin:miter;" x="251.982319" xlink:href="#m5119eca128" y="458.292571"/>
     <use style="fill:#ff0000;stroke:#ff0000;stroke-linejoin:miter;" x="261.76456" xlink:href="#m5119eca128" y="459.95589"/>
     <use style="fill:#ff0000;stroke:#ff0000;stroke-linejoin:miter;" x="271.54082" xlink:href="#m5119eca128" y="422.925494"/>
     <use style="fill:#ff0000;stroke:#ff0000;stroke-linejoin:miter;" x="282.200868" xlink:href="#m5119eca128" y="426.45007"/>
     <use style="fill:#ff0000;stroke:#ff0000;stroke-linejoin:miter;" x="291.995821" xlink:href="#m5119eca128" y="379.024729"/>
     <use style="fill:#ff0000;stroke:#ff0000;stroke-linejoin:miter;" x="301.79825" xlink:href="#m5119eca128" y="380.723166"/>
     <use style="fill:#ff0000;stroke:#ff0000;stroke-linejoin:miter;" x="312.368574" xlink:href="#m5119eca128" y="384.056189"/>
     <use style="fill:#ff0000;stroke:#ff0000;stroke-linejoin:miter;" x="322.184462" xlink:href="#m5119eca128" y="385.773781"/>
     <use style="fill:#ff0000;stroke:#ff0000;stroke-linejoin:miter;" x="332.001098" xlink:href="#m5119eca128" y="387.502547"/>
     <use style="fill:#ff0000;stroke:#ff0000;stroke-linejoin:miter;" x="342.535531" xlink:href="#m5119eca128" y="390.765334"/>
     <use style="fill:#ff0000;stroke:#ff0000;stroke-linejoin:miter;" x="352.340952" xlink:href="#m5119eca128" y="392.474945"/>
     <use style="fill:#ff0000;stroke:#ff0000;stroke-linejoin:miter;" x="362.154596" xlink:href="#m5119eca128" y="394.178171"/>
     <use style="fill:#ff0000;stroke:#ff0000;stroke-linejoin:miter;" x="372.732397" xlink:href="#m5119eca128" y="397.538331"/>
     <use style="fill:#ff0000;stroke:#ff0000;stroke-linejoin:miter;" x="382.495198" xlink:href="#m5119eca128" y="399.152165"/>
     <use style="fill:#ff0000;stroke:#ff0000;stroke-linejoin:miter;" x="392.263233" xlink:href="#m5119eca128" y="400.761211"/>
     <use style="fill:#ff0000;stroke:#ff0000;stroke-linejoin:miter;" x="402.863465" xlink:href="#m5119eca128" y="404.162873"/>
     <use style="fill:#ff0000;stroke:#ff0000;stroke-linejoin:miter;" x="412.395972" xlink:href="#m5119eca128" y="405.286651"/>
     <use style="fill:#ff0000;stroke:#ff0000;stroke-linejoin:miter;" x="421.960631" xlink:href="#m5119eca128" y="406.469491"/>
     <use style="fill:#ff0000;stroke:#ff0000;stroke-linejoin:miter;" x="432.616193" xlink:href="#m5119eca128" y="409.98449"/>
     <use style="fill:#ff0000;stroke:#ff0000;stroke-linejoin:miter;" x="442.315439" xlink:href="#m5119eca128" y="411.457852"/>
     <use style="fill:#ff0000;stroke:#ff0000;stroke-linejoin:miter;" x="452.070015" xlink:href="#m5119eca128" y="413.049338"/>
     <use style="fill:#ff0000;stroke:#ff0000;stroke-linejoin:miter;" x="463.023912" xlink:href="#m5119eca128" y="417.193269"/>
     <use style="fill:#ff0000;stroke:#ff0000;stroke-linejoin:miter;" x="472.747832" xlink:href="#m5119eca128" y="418.725693"/>
     <use style="fill:#ff0000;stroke:#ff0000;stroke-linejoin:miter;" x="482.482968" xlink:href="#m5119eca128" y="417.040027"/>
     <use style="fill:#ff0000;stroke:#ff0000;stroke-linejoin:miter;" x="493.202085" xlink:href="#m5119eca128" y="420.706671"/>
     <use style="fill:#ff0000;stroke:#ff0000;stroke-linejoin:miter;" x="502.951428" xlink:href="#m5119eca128" y="383.586884"/>
     <use style="fill:#ff0000;stroke:#ff0000;stroke-linejoin:miter;" x="512.693293" xlink:href="#m5119eca128" y="385.167197"/>
     <use style="fill:#ff0000;stroke:#ff0000;stroke-linejoin:miter;" x="523.353341" xlink:href="#m5119eca128" y="339.57438"/>
     <use style="fill:#ff0000;stroke:#ff0000;stroke-linejoin:miter;" x="533.083243" xlink:href="#m5119eca128" y="341.135537"/>
     <use style="fill:#ff0000;stroke:#ff0000;stroke-linejoin:miter;" x="542.790714" xlink:href="#m5119eca128" y="342.626458"/>
     <use style="fill:#ff0000;stroke:#ff0000;stroke-linejoin:miter;" x="553.561423" xlink:href="#m5119eca128" y="346.38409"/>
     <use style="fill:#ff0000;stroke:#ff0000;stroke-linejoin:miter;" x="563.244967" xlink:href="#m5119eca128" y="347.833508"/>
     <use style="fill:#ff0000;stroke:#ff0000;stroke-linejoin:miter;" x="572.940474" xlink:href="#m5119eca128" y="349.303678"/>
     <use style="fill:#ff0000;stroke:#ff0000;stroke-linejoin:miter;" x="583.794178" xlink:href="#m5119eca128" y="353.243286"/>
     <use style="fill:#ff0000;stroke:#ff0000;stroke-linejoin:miter;" x="593.556231" xlink:href="#m5119eca128" y="354.845946"/>
     <use style="fill:#ff0000;stroke:#ff0000;stroke-linejoin:miter;" x="603.268188" xlink:href="#m5119eca128" y="356.351234"/>
     <use style="fill:#ff0000;stroke:#ff0000;stroke-linejoin:miter;" x="613.994783" xlink:href="#m5119eca128" y="360.027456"/>
     <use style="fill:#ff0000;stroke:#ff0000;stroke-linejoin:miter;" x="623.7359" xlink:href="#m5119eca128" y="361.598191"/>
     <use style="fill:#ff0000;stroke:#ff0000;stroke-linejoin:miter;" x="633.435894" xlink:href="#m5119eca128" y="363.066764"/>
     <use style="fill:#ff0000;stroke:#ff0000;stroke-linejoin:miter;" x="644.196135" xlink:href="#m5119eca128" y="366.774912"/>
     <use style="fill:#ff0000;stroke:#ff0000;stroke-linejoin:miter;" x="653.887156" xlink:href="#m5119eca128" y="368.246678"/>
     <use style="fill:#ff0000;stroke:#ff0000;stroke-linejoin:miter;" x="663.571448" xlink:href="#m5119eca128" y="369.700885"/>
     <use style="fill:#ff0000;stroke:#ff0000;stroke-linejoin:miter;" x="674.372065" xlink:href="#m5119eca128" y="373.536734"/>
     <use style="fill:#ff0000;stroke:#ff0000;stroke-linejoin:miter;" x="684.057852" xlink:href="#m5119eca128" y="374.98296"/>
     <use style="fill:#ff0000;stroke:#ff0000;stroke-linejoin:miter;" x="693.733919" xlink:href="#m5119eca128" y="376.406837"/>
     <use style="fill:#ff0000;stroke:#ff0000;stroke-linejoin:miter;" x="704.53977" xlink:href="#m5119eca128" y="380.244283"/>
     <use style="fill:#ff0000;stroke:#ff0000;stroke-linejoin:miter;" x="714.213594" xlink:href="#m5119eca128" y="381.666565"/>
     <use style="fill:#ff0000;stroke:#ff0000;stroke-linejoin:miter;" x="723.893399" xlink:href="#m5119eca128" y="383.101616"/>
     <use style="fill:#ff0000;stroke:#ff0000;stroke-linejoin:miter;" x="734.712709" xlink:href="#m5119eca128" y="386.969391"/>
     <use style="fill:#ff0000;stroke:#ff0000;stroke-linejoin:miter;" x="744.402983" xlink:href="#m5119eca128" y="388.423598"/>
     <use style="fill:#ff0000;stroke:#ff0000;stroke-linejoin:miter;" x="754.095499" xlink:href="#m5119eca128" y="389.885786"/>
     <use style="fill:#ff0000;stroke:#ff0000;stroke-linejoin:miter;" x="764.89836" xlink:href="#m5119eca128" y="393.716847"/>
     <use style="fill:#ff0000;stroke:#ff0000;stroke-linejoin:miter;" x="774.747147" xlink:href="#m5119eca128" y="395.511061"/>
     <use style="fill:#ff0000;stroke:#ff0000;stroke-linejoin:miter;" x="784.543594" xlink:href="#m5119eca128" y="397.191939"/>
     <use style="fill:#ff0000;stroke:#ff0000;stroke-linejoin:miter;" x="795.40328" xlink:href="#m5119eca128" y="401.145913"/>
     <use style="fill:#ff0000;stroke:#ff0000;stroke-linejoin:miter;" x="805.115237" xlink:href="#m5119eca128" y="402.643219"/>
     <use style="fill:#ff0000;stroke:#ff0000;stroke-linejoin:miter;" x="814.688868" xlink:href="#m5119eca128" y="403.853196"/>
     <use style="fill:#ff0000;stroke:#ff0000;stroke-linejoin:miter;" x="825.556779" xlink:href="#m5119eca128" y="407.821536"/>
     <use style="fill:#ff0000;stroke:#ff0000;stroke-linejoin:miter;" x="835.364443" xlink:href="#m5119eca128" y="409.527955"/>
     <use style="fill:#ff0000;stroke:#ff0000;stroke-linejoin:miter;" x="845.16089" xlink:href="#m5119eca128" y="411.210429"/>
     <use style="fill:#ff0000;stroke:#ff0000;stroke-linejoin:miter;" x="855.856829" xlink:href="#m5119eca128" y="414.811626"/>
     <use style="fill:#ff0000;stroke:#ff0000;stroke-linejoin:miter;" x="865.655519" xlink:href="#m5119eca128" y="416.4941"/>
     <use style="fill:#ff0000;stroke:#ff0000;stroke-linejoin:miter;" x="875.438508" xlink:href="#m5119eca128" y="418.155823"/>
     <use style="fill:#ff0000;stroke:#ff0000;stroke-linejoin:miter;" x="886.005841" xlink:href="#m5119eca128" y="421.488846"/>
     <use style="fill:#ff0000;stroke:#ff0000;stroke-linejoin:miter;" x="895.813505" xlink:href="#m5119eca128" y="423.192072"/>
     <use style="fill:#ff0000;stroke:#ff0000;stroke-linejoin:miter;" x="905.606214" xlink:href="#m5119eca128" y="424.866565"/>
     <use style="fill:#ff0000;stroke:#ff0000;stroke-linejoin:miter;" x="916.23112" xlink:href="#m5119eca128" y="428.319308"/>
     <use style="fill:#ff0000;stroke:#ff0000;stroke-linejoin:miter;" x="926.005136" xlink:href="#m5119eca128" y="429.952298"/>
     <use style="fill:#ff0000;stroke:#ff0000;stroke-linejoin:miter;" x="935.770928" xlink:href="#m5119eca128" y="431.567729"/>
     <use style="fill:#ff0000;stroke:#ff0000;stroke-linejoin:miter;" x="946.384619" xlink:href="#m5119eca128" y="434.994932"/>
     <use style="fill:#ff0000;stroke:#ff0000;stroke-linejoin:miter;" x="956.205741" xlink:href="#m5119eca128" y="147.765933"/>
     <use style="fill:#ff0000;stroke:#ff0000;stroke-linejoin:miter;" x="966.047051" xlink:href="#m5119eca128" y="149.552165"/>
     <use style="fill:#ff0000;stroke:#ff0000;stroke-linejoin:miter;" x="976.596439" xlink:href="#m5119eca128" y="152.848474"/>
     <use style="fill:#ff0000;stroke:#ff0000;stroke-linejoin:miter;" x="986.426533" xlink:href="#m5119eca128" y="154.597991"/>
     <use style="fill:#ff0000;stroke:#ff0000;stroke-linejoin:miter;" x="996.258871" xlink:href="#m5119eca128" y="156.341124"/>
     <use style="fill:#ff0000;stroke:#ff0000;stroke-linejoin:miter;" x="1006.786575" xlink:href="#m5119eca128" y="159.599122"/>
     <use style="fill:#ff0000;stroke:#ff0000;stroke-linejoin:miter;" x="1016.580032" xlink:href="#m5119eca128" y="161.278404"/>
     <use style="fill:#ff0000;stroke:#ff0000;stroke-linejoin:miter;" x="1026.410127" xlink:href="#m5119eca128" y="163.035903"/>
     <use style="fill:#ff0000;stroke:#ff0000;stroke-linejoin:miter;" x="1036.978955" xlink:href="#m5119eca128" y="166.338597"/>
     <use style="fill:#ff0000;stroke:#ff0000;stroke-linejoin:miter;" x="1046.889802" xlink:href="#m5119eca128" y="168.28286"/>
     <use style="fill:#ff0000;stroke:#ff0000;stroke-linejoin:miter;" x="1056.769245" xlink:href="#m5119eca128" y="170.153695"/>
     <use style="fill:#ff0000;stroke:#ff0000;stroke-linejoin:miter;" x="1069.029385" xlink:href="#m5119eca128" y="177.0943"/>
     <use style="fill:#ff0000;stroke:#ff0000;stroke-linejoin:miter;" x="1078.829571" xlink:href="#m5119eca128" y="178.733675"/>
     <use style="fill:#ff0000;stroke:#ff0000;stroke-linejoin:miter;" x="1090.075821" xlink:href="#m5119eca128" y="183.546445"/>
     <use style="fill:#ff0000;stroke:#ff0000;stroke-linejoin:miter;" x="1099.923113" xlink:href="#m5119eca128" y="185.355025"/>
     <use style="fill:#ff0000;stroke:#ff0000;stroke-linejoin:miter;" x="1113.073771" xlink:href="#m5119eca128" y="194.201583"/>
     <use style="fill:#ff0000;stroke:#ff0000;stroke-linejoin:miter;" x="1123.176778" xlink:href="#m5119eca128" y="196.53853"/>
     <use style="fill:#ff0000;stroke:#ff0000;stroke-linejoin:miter;" x="1135.334482" xlink:href="#m5119eca128" y="203.262042"/>
     <use style="fill:#ff0000;stroke:#ff0000;stroke-linejoin:miter;" x="1146.621108" xlink:href="#m5119eca128" y="208.105141"/>
     <use style="fill:#ff0000;stroke:#ff0000;stroke-linejoin:miter;" x="1158.484964" xlink:href="#m5119eca128" y="214.178969"/>
     <use style="fill:#ff0000;stroke:#ff0000;stroke-linejoin:miter;" x="1168.385343" xlink:href="#m5119eca128" y="216.12004"/>
     <use style="fill:#ff0000;stroke:#ff0000;stroke-linejoin:miter;" x="1180.719506" xlink:href="#m5119eca128" y="223.225062"/>
     <use style="fill:#ff0000;stroke:#ff0000;stroke-linejoin:miter;" x="1191.1201" xlink:href="#m5119eca128" y="226.135071"/>
     <use style="fill:#ff0000;stroke:#ff0000;stroke-linejoin:miter;" x="1203.466974" xlink:href="#m5119eca128" y="233.303944"/>
     <use style="fill:#ff0000;stroke:#ff0000;stroke-linejoin:miter;" x="1213.306788" xlink:href="#m5119eca128" y="235.066232"/>
     <use style="fill:#ff0000;stroke:#ff0000;stroke-linejoin:miter;" x="1225.349346" xlink:href="#m5119eca128" y="164.218743"/>
     <use style="fill:#ff0000;stroke:#ff0000;stroke-linejoin:miter;" x="1235.486" xlink:href="#m5119eca128" y="89.28"/>
     <use style="fill:#ff0000;stroke:#ff0000;stroke-linejoin:miter;" x="1245.272727" xlink:href="#m5119eca128" y="90.964071"/>
    </g>
   </g>
   <g id="line2d_15">
    <path clip-path="url(#p057932a2c9)" d="M 230.727273 489.978637 
L 240.865422 492.48 
L 251.982319 458.292571 
L 261.76456 459.95589 
L 271.54082 422.925494 
L 282.200868 426.45007 
L 472.747832 418.725693 
L 482.482968 417.040027 
L 493.202085 420.706671 
L 502.951428 383.586884 
L 512.693293 385.167197 
L 946.384619 434.994932 
L 1213.306788 235.066232 
L 1225.349346 164.218743 
L 1235.486 89.28 
L 1245.272727 90.964071 
" style="fill:none;stroke:#800080;stroke-dasharray:9.6,2.4,1.5,2.4;stroke-dashoffset:0;stroke-width:1.5;"/>
    <defs>
     <path d="M -3 3 
L 3 -3 
M -3 -3 
L 3 3 
" id="m810ee74e8b" style="stroke:#800080;"/>
    </defs>
    <g clip-path="url(#p057932a2c9)">
     <use style="fill:#800080;stroke:#800080;" x="230.727273" xlink:href="#m810ee74e8b" y="489.978637"/>
     <use style="fill:#800080;stroke:#800080;" x="240.865422" xlink:href="#m810ee74e8b" y="492.48"/>
     <use style="fill:#800080;stroke:#800080;" x="251.982319" xlink:href="#m810ee74e8b" y="458.292571"/>
     <use style="fill:#800080;stroke:#800080;" x="261.76456" xlink:href="#m810ee74e8b" y="459.95589"/>
     <use style="fill:#800080;stroke:#800080;" x="271.54082" xlink:href="#m810ee74e8b" y="422.925494"/>
     <use style="fill:#800080;stroke:#800080;" x="282.200868" xlink:href="#m810ee74e8b" y="426.45007"/>
     <use style="fill:#800080;stroke:#800080;" x="472.747832" xlink:href="#m810ee74e8b" y="418.725693"/>
     <use style="fill:#800080;stroke:#800080;" x="482.482968" xlink:href="#m810ee74e8b" y="417.040027"/>
     <use style="fill:#800080;stroke:#800080;" x="493.202085" xlink:href="#m810ee74e8b" y="420.706671"/>
     <use style="fill:#800080;stroke:#800080;" x="502.951428" xlink:href="#m810ee74e8b" y="383.586884"/>
     <use style="fill:#800080;stroke:#800080;" x="512.693293" xlink:href="#m810ee74e8b" y="385.167197"/>
     <use style="fill:#800080;stroke:#800080;" x="946.384619" xlink:href="#m810ee74e8b" y="434.994932"/>
     <use style="fill:#800080;stroke:#800080;" x="1213.306788" xlink:href="#m810ee74e8b" y="235.066232"/>
     <use style="fill:#800080;stroke:#800080;" x="1225.349346" xlink:href="#m810ee74e8b" y="164.218743"/>
     <use style="fill:#800080;stroke:#800080;" x="1235.486" xlink:href="#m810ee74e8b" y="89.28"/>
     <use style="fill:#800080;stroke:#800080;" x="1245.272727" xlink:href="#m810ee74e8b" y="90.964071"/>
    </g>
   </g>
   <g id="line2d_16">
    <path clip-path="url(#p057932a2c9)" d="M 230.727273 479.004815 
L 240.865422 475.928827 
L 251.982319 472.555881 
L 261.76456 469.587878 
L 271.54082 466.621691 
L 282.200868 463.387355 
L 472.747832 405.574036 
L 482.482968 402.620326 
L 493.202085 399.368068 
L 502.951428 396.410048 
L 512.693293 393.454296 
L 946.384619 261.869228 
L 1213.306788 180.883122 
L 1225.349346 177.229323 
L 1235.486 174.15379 
L 1245.272727 171.184426 
" style="fill:none;stroke:#0000ff;stroke-linecap:square;stroke-width:1.5;"/>
   </g>
   <g id="line2d_17">
    <path clip-path="url(#p057932a2c9)" d="M 230.727273 467.886349 
L 240.865422 467.849672 
L 251.982319 467.809455 
L 261.76456 467.774065 
L 271.54082 467.738698 
L 282.200868 467.700133 
L 472.747832 467.010792 
L 482.482968 466.975573 
L 493.202085 466.936794 
L 502.951428 466.901524 
L 512.693293 466.866281 
L 946.384619 465.297317 
L 1213.306788 464.331673 
L 1225.349346 464.288107 
L 1235.486 464.251436 
L 1245.272727 464.21603 
" style="fill:none;stroke:#008000;stroke-linecap:square;stroke-width:1.5;"/>
    <defs>
     <path d="M 0 3 
C 0.795609 3 1.55874 2.683901 2.12132 2.12132 
C 2.683901 1.55874 3 0.795609 3 0 
C 3 -0.795609 2.683901 -1.55874 2.12132 -2.12132 
C 1.55874 -2.683901 0.795609 -3 0 -3 
C -0.795609 -3 -1.55874 -2.683901 -2.12132 -2.12132 
C -2.683901 -1.55874 -3 -0.795609 -3 0 
C -3 0.795609 -2.683901 1.55874 -2.12132 2.12132 
C -1.55874 2.683901 -0.795609 3 0 3 
z
" id="m1ed3fcdc92" style="stroke:#008000;"/>
    </defs>
    <g clip-path="url(#p057932a2c9)">
     <use style="fill:#008000;stroke:#008000;" x="230.727273" xlink:href="#m1ed3fcdc92" y="467.886349"/>
     <use style="fill:#008000;stroke:#008000;" x="240.865422" xlink:href="#m1ed3fcdc92" y="467.849672"/>
     <use style="fill:#008000;stroke:#008000;" x="251.982319" xlink:href="#m1ed3fcdc92" y="467.809455"/>
     <use style="fill:#008000;stroke:#008000;" x="261.76456" xlink:href="#m1ed3fcdc92" y="467.774065"/>
     <use style="fill:#008000;stroke:#008000;" x="271.54082" xlink:href="#m1ed3fcdc92" y="467.738698"/>
     <use style="fill:#008000;stroke:#008000;" x="282.200868" xlink:href="#m1ed3fcdc92" y="467.700133"/>
     <use style="fill:#008000;stroke:#008000;" x="472.747832" xlink:href="#m1ed3fcdc92" y="467.010792"/>
     <use style="fill:#008000;stroke:#008000;" x="482.482968" xlink:href="#m1ed3fcdc92" y="466.975573"/>
     <use style="fill:#008000;stroke:#008000;" x="493.202085" xlink:href="#m1ed3fcdc92" y="466.936794"/>
     <use style="fill:#008000;stroke:#008000;" x="502.951428" xlink:href="#m1ed3fcdc92" y="466.901524"/>
     <use style="fill:#008000;stroke:#008000;" x="512.693293" xlink:href="#m1ed3fcdc92" y="466.866281"/>
     <use style="fill:#008000;stroke:#008000;" x="946.384619" xlink:href="#m1ed3fcdc92" y="465.297317"/>
     <use style="fill:#008000;stroke:#008000;" x="1213.306788" xlink:href="#m1ed3fcdc92" y="464.331673"/>
     <use style="fill:#008000;stroke:#008000;" x="1225.349346" xlink:href="#m1ed3fcdc92" y="464.288107"/>
     <use style="fill:#008000;stroke:#008000;" x="1235.486" xlink:href="#m1ed3fcdc92" y="464.251436"/>
     <use style="fill:#008000;stroke:#008000;" x="1245.272727" xlink:href="#m1ed3fcdc92" y="464.21603"/>
    </g>
   </g>
   <g id="patch_3">
    <path d="M 180 512.64 
L 180 69.12 
" style="fill:none;stroke:#000000;stroke-linecap:square;stroke-linejoin:miter;stroke-width:0.8;"/>
   </g>
   <g id="patch_4">
    <path d="M 1296 512.64 
L 1296 69.12 
" style="fill:none;stroke:#000000;stroke-linecap:square;stroke-linejoin:miter;stroke-width:0.8;"/>
   </g>
   <g id="patch_5">
    <path d="M 180 512.64 
L 1296 512.64 
" style="fill:none;stroke:#000000;stroke-linecap:square;stroke-linejoin:miter;stroke-width:0.8;"/>
   </g>
   <g id="patch_6">
    <path d="M 180 69.12 
L 1296 69.12 
" style="fill:none;stroke:#000000;stroke-linecap:square;stroke-linejoin:miter;stroke-width:0.8;"/>
   </g>
   <g id="text_14">
    <!-- 500000.0 bit/s -->
    <defs>
     <path id="DejaVuSans-20"/>
     <path d="M 48.6875 27.296875 
Q 48.6875 37.203125 44.609375 42.84375 
Q 40.53125 48.484375 33.40625 48.484375 
Q 26.265625 48.484375 22.1875 42.84375 
Q 18.109375 37.203125 18.109375 27.296875 
Q 18.109375 17.390625 22.1875 11.75 
Q 26.265625 6.109375 33.40625 6.109375 
Q 40.53125 6.109375 44.609375 11.75 
Q 48.6875 17.390625 48.6875 27.296875 
z
M 18.109375 46.390625 
Q 20.953125 51.265625 25.265625 53.625 
Q 29.59375 56 35.59375 56 
Q 45.5625 56 51.78125 48.09375 
Q 58.015625 40.1875 58.015625 27.296875 
Q 58.015625 14.40625 51.78125 6.484375 
Q 45.5625 -1.421875 35.59375 -1.421875 
Q 29.59375 -1.421875 25.265625 0.953125 
Q 20.953125 3.328125 18.109375 8.203125 
L 18.109375 0 
L 9.078125 0 
L 9.078125 75.984375 
L 18.109375 75.984375 
z
" id="DejaVuSans-62"/>
     <path d="M 9.421875 54.6875 
L 18.40625 54.6875 
L 18.40625 0 
L 9.421875 0 
z
M 9.421875 75.984375 
L 18.40625 75.984375 
L 18.40625 64.59375 
L 9.421875 64.59375 
z
" id="DejaVuSans-69"/>
     <path d="M 18.3125 70.21875 
L 18.3125 54.6875 
L 36.8125 54.6875 
L 36.8125 47.703125 
L 18.3125 47.703125 
L 18.3125 18.015625 
Q 18.3125 11.328125 20.140625 9.421875 
Q 21.96875 7.515625 27.59375 7.515625 
L 36.8125 7.515625 
L 36.8125 0 
L 27.59375 0 
Q 17.1875 0 13.234375 3.875 
Q 9.28125 7.765625 9.28125 18.015625 
L 9.28125 47.703125 
L 2.6875 47.703125 
L 2.6875 54.6875 
L 9.28125 54.6875 
L 9.28125 70.21875 
z
" id="DejaVuSans-74"/>
     <path d="M 25.390625 72.90625 
L 33.6875 72.90625 
L 8.296875 -9.28125 
L 0 -9.28125 
z
" id="DejaVuSans-2f"/>
     <path d="M 44.28125 53.078125 
L 44.28125 44.578125 
Q 40.484375 46.53125 36.375 47.5 
Q 32.28125 48.484375 27.875 48.484375 
Q 21.1875 48.484375 17.84375 46.4375 
Q 14.5 44.390625 14.5 40.28125 
Q 14.5 37.15625 16.890625 35.375 
Q 19.28125 33.59375 26.515625 31.984375 
L 29.59375 31.296875 
Q 39.15625 29.25 43.1875 25.515625 
Q 47.21875 21.78125 47.21875 15.09375 
Q 47.21875 7.46875 41.1875 3.015625 
Q 35.15625 -1.421875 24.609375 -1.421875 
Q 20.21875 -1.421875 15.453125 -0.5625 
Q 10.6875 0.296875 5.421875 2 
L 5.421875 11.28125 
Q 10.40625 8.6875 15.234375 7.390625 
Q 20.0625 6.109375 24.8125 6.109375 
Q 31.15625 6.109375 34.5625 8.28125 
Q 37.984375 10.453125 37.984375 14.40625 
Q 37.984375 18.0625 35.515625 20.015625 
Q 33.0625 21.96875 24.703125 23.78125 
L 21.578125 24.515625 
Q 13.234375 26.265625 9.515625 29.90625 
Q 5.8125 33.546875 5.8125 39.890625 
Q 5.8125 47.609375 11.28125 51.796875 
Q 16.75 56 26.8125 56 
Q 31.78125 56 36.171875 55.265625 
Q 40.578125 54.546875 44.28125 53.078125 
z
" id="DejaVuSans-73"/>
    </defs>
    <g transform="translate(694.48875 63.12)scale(0.12 -0.12)">
     <use xlink:href="#DejaVuSans-35"/>
     <use x="63.623047" xlink:href="#DejaVuSans-30"/>
     <use x="127.246094" xlink:href="#DejaVuSans-30"/>
     <use x="190.869141" xlink:href="#DejaVuSans-30"/>
     <use x="254.492188" xlink:href="#DejaVuSans-30"/>
     <use x="318.115234" xlink:href="#DejaVuSans-30"/>
     <use x="381.738281" xlink:href="#DejaVuSans-2e"/>
     <use x="413.525391" xlink:href="#DejaVuSans-30"/>
     <use x="477.148438" xlink:href="#DejaVuSans-20"/>
     <use x="508.935547" xlink:href="#DejaVuSans-62"/>
     <use x="572.412109" xlink:href="#DejaVuSans-69"/>
     <use x="600.195312" xlink:href="#DejaVuSans-74"/>
     <use x="639.404297" xlink:href="#DejaVuSans-2f"/>
     <use x="673.095703" xlink:href="#DejaVuSans-73"/>
    </g>
   </g>
   <g id="legend_1">
    <g id="patch_7">
     <path d="M 1173.520313 135.8325 
L 1289 135.8325 
Q 1291 135.8325 1291 133.8325 
L 1291 76.12 
Q 1291 74.12 1289 74.12 
L 1173.520313 74.12 
Q 1171.520313 74.12 1171.520313 76.12 
L 1171.520313 133.8325 
Q 1171.520313 135.8325 1173.520313 135.8325 
z
" style="fill:#ffffff;opacity:0.8;stroke:#cccccc;stroke-linejoin:miter;"/>
    </g>
    <g id="line2d_18">
     <path d="M 1175.520313 82.218437 
L 1195.520313 82.218437 
" style="fill:none;stroke:#ff0000;stroke-dasharray:5.55,2.4;stroke-dashoffset:0;stroke-width:1.5;"/>
    </g>
    <g id="line2d_19">
     <g>
      <use style="fill:#ff0000;stroke:#ff0000;stroke-linejoin:miter;" x="1185.520313" xlink:href="#m5119eca128" y="82.218437"/>
     </g>
    </g>
    <g id="text_15">
     <!-- tcpdump -->
     <defs>
      <path d="M 48.78125 52.59375 
L 48.78125 44.1875 
Q 44.96875 46.296875 41.140625 47.34375 
Q 37.3125 48.390625 33.40625 48.390625 
Q 24.65625 48.390625 19.8125 42.84375 
Q 14.984375 37.3125 14.984375 27.296875 
Q 14.984375 17.28125 19.8125 11.734375 
Q 24.65625 6.203125 33.40625 6.203125 
Q 37.3125 6.203125 41.140625 7.25 
Q 44.96875 8.296875 48.78125 10.40625 
L 48.78125 2.09375 
Q 45.015625 0.34375 40.984375 -0.53125 
Q 36.96875 -1.421875 32.421875 -1.421875 
Q 20.0625 -1.421875 12.78125 6.34375 
Q 5.515625 14.109375 5.515625 27.296875 
Q 5.515625 40.671875 12.859375 48.328125 
Q 20.21875 56 33.015625 56 
Q 37.15625 56 41.109375 55.140625 
Q 45.0625 54.296875 48.78125 52.59375 
z
" id="DejaVuSans-63"/>
      <path d="M 18.109375 8.203125 
L 18.109375 -20.796875 
L 9.078125 -20.796875 
L 9.078125 54.6875 
L 18.109375 54.6875 
L 18.109375 46.390625 
Q 20.953125 51.265625 25.265625 53.625 
Q 29.59375 56 35.59375 56 
Q 45.5625 56 51.78125 48.09375 
Q 58.015625 40.1875 58.015625 27.296875 
Q 58.015625 14.40625 51.78125 6.484375 
Q 45.5625 -1.421875 35.59375 -1.421875 
Q 29.59375 -1.421875 25.265625 0.953125 
Q 20.953125 3.328125 18.109375 8.203125 
z
M 48.6875 27.296875 
Q 48.6875 37.203125 44.609375 42.84375 
Q 40.53125 48.484375 33.40625 48.484375 
Q 26.265625 48.484375 22.1875 42.84375 
Q 18.109375 37.203125 18.109375 27.296875 
Q 18.109375 17.390625 22.1875 11.75 
Q 26.265625 6.109375 33.40625 6.109375 
Q 40.53125 6.109375 44.609375 11.75 
Q 48.6875 17.390625 48.6875 27.296875 
z
" id="DejaVuSans-70"/>
      <path d="M 45.40625 46.390625 
L 45.40625 75.984375 
L 54.390625 75.984375 
L 54.390625 0 
L 45.40625 0 
L 45.40625 8.203125 
Q 42.578125 3.328125 38.25 0.953125 
Q 33.9375 -1.421875 27.875 -1.421875 
Q 17.96875 -1.421875 11.734375 6.484375 
Q 5.515625 14.40625 5.515625 27.296875 
Q 5.515625 40.1875 11.734375 48.09375 
Q 17.96875 56 27.875 56 
Q 33.9375 56 38.25 53.625 
Q 42.578125 51.265625 45.40625 46.390625 
z
M 14.796875 27.296875 
Q 14.796875 17.390625 18.875 11.75 
Q 22.953125 6.109375 30.078125 6.109375 
Q 37.203125 6.109375 41.296875 11.75 
Q 45.40625 17.390625 45.40625 27.296875 
Q 45.40625 37.203125 41.296875 42.84375 
Q 37.203125 48.484375 30.078125 48.484375 
Q 22.953125 48.484375 18.875 42.84375 
Q 14.796875 37.203125 14.796875 27.296875 
z
" id="DejaVuSans-64"/>
      <path d="M 8.5 21.578125 
L 8.5 54.6875 
L 17.484375 54.6875 
L 17.484375 21.921875 
Q 17.484375 14.15625 20.5 10.265625 
Q 23.53125 6.390625 29.59375 6.390625 
Q 36.859375 6.390625 41.078125 11.03125 
Q 45.3125 15.671875 45.3125 23.6875 
L 45.3125 54.6875 
L 54.296875 54.6875 
L 54.296875 0 
L 45.3125 0 
L 45.3125 8.40625 
Q 42.046875 3.421875 37.71875 1 
Q 33.40625 -1.421875 27.6875 -1.421875 
Q 18.265625 -1.421875 13.375 4.4375 
Q 8.5 10.296875 8.5 21.578125 
z
M 31.109375 56 
z
" id="DejaVuSans-75"/>
      <path d="M 52 44.1875 
Q 55.375 50.25 60.0625 53.125 
Q 64.75 56 71.09375 56 
Q 79.640625 56 84.28125 50.015625 
Q 88.921875 44.046875 88.921875 33.015625 
L 88.921875 0 
L 79.890625 0 
L 79.890625 32.71875 
Q 79.890625 40.578125 77.09375 44.375 
Q 74.3125 48.1875 68.609375 48.1875 
Q 61.625 48.1875 57.5625 43.546875 
Q 53.515625 38.921875 53.515625 30.90625 
L 53.515625 0 
L 44.484375 0 
L 44.484375 32.71875 
Q 44.484375 40.625 41.703125 44.40625 
Q 38.921875 48.1875 33.109375 48.1875 
Q 26.21875 48.1875 22.15625 43.53125 
Q 18.109375 38.875 18.109375 30.90625 
L 18.109375 0 
L 9.078125 0 
L 9.078125 54.6875 
L 18.109375 54.6875 
L 18.109375 46.1875 
Q 21.1875 51.21875 25.484375 53.609375 
Q 29.78125 56 35.6875 56 
Q 41.65625 56 45.828125 52.96875 
Q 50 49.953125 52 44.1875 
z
" id="DejaVuSans-6d"/>
     </defs>
     <g transform="translate(1203.520313 85.718437)scale(0.1 -0.1)">
      <use xlink:href="#DejaVuSans-74"/>
      <use x="39.208984" xlink:href="#DejaVuSans-63"/>
      <use x="94.189453" xlink:href="#DejaVuSans-70"/>
      <use x="157.666016" xlink:href="#DejaVuSans-64"/>
      <use x="221.142578" xlink:href="#DejaVuSans-75"/>
      <use x="284.521484" xlink:href="#DejaVuSans-6d"/>
      <use x="381.933594" xlink:href="#DejaVuSans-70"/>
     </g>
    </g>
    <g id="line2d_20">
     <path d="M 1175.520313 96.896563 
L 1195.520313 96.896563 
" style="fill:none;stroke:#800080;stroke-dasharray:9.6,2.4,1.5,2.4;stroke-dashoffset:0;stroke-width:1.5;"/>
    </g>
    <g id="line2d_21">
     <g>
      <use style="fill:#800080;stroke:#800080;" x="1185.520313" xlink:href="#m810ee74e8b" y="96.896563"/>
     </g>
    </g>
    <g id="text_16">
     <!-- filtered tcpdump -->
     <defs>
      <path d="M 37.109375 75.984375 
L 37.109375 68.5 
L 28.515625 68.5 
Q 23.6875 68.5 21.796875 66.546875 
Q 19.921875 64.59375 19.921875 59.515625 
L 19.921875 54.6875 
L 34.71875 54.6875 
L 34.71875 47.703125 
L 19.921875 47.703125 
L 19.921875 0 
L 10.890625 0 
L 10.890625 47.703125 
L 2.296875 47.703125 
L 2.296875 54.6875 
L 10.890625 54.6875 
L 10.890625 58.5 
Q 10.890625 67.625 15.140625 71.796875 
Q 19.390625 75.984375 28.609375 75.984375 
z
" id="DejaVuSans-66"/>
      <path d="M 9.421875 75.984375 
L 18.40625 75.984375 
L 18.40625 0 
L 9.421875 0 
z
" id="DejaVuSans-6c"/>
      <path d="M 56.203125 29.59375 
L 56.203125 25.203125 
L 14.890625 25.203125 
Q 15.484375 15.921875 20.484375 11.0625 
Q 25.484375 6.203125 34.421875 6.203125 
Q 39.59375 6.203125 44.453125 7.46875 
Q 49.3125 8.734375 54.109375 11.28125 
L 54.109375 2.78125 
Q 49.265625 0.734375 44.1875 -0.34375 
Q 39.109375 -1.421875 33.890625 -1.421875 
Q 20.796875 -1.421875 13.15625 6.1875 
Q 5.515625 13.8125 5.515625 26.8125 
Q 5.515625 40.234375 12.765625 48.109375 
Q 20.015625 56 32.328125 56 
Q 43.359375 56 49.78125 48.890625 
Q 56.203125 41.796875 56.203125 29.59375 
z
M 47.21875 32.234375 
Q 47.125 39.59375 43.09375 43.984375 
Q 39.0625 48.390625 32.421875 48.390625 
Q 24.90625 48.390625 20.390625 44.140625 
Q 15.875 39.890625 15.1875 32.171875 
z
" id="DejaVuSans-65"/>
      <path d="M 41.109375 46.296875 
Q 39.59375 47.171875 37.8125 47.578125 
Q 36.03125 48 33.890625 48 
Q 26.265625 48 22.1875 43.046875 
Q 18.109375 38.09375 18.109375 28.8125 
L 18.109375 0 
L 9.078125 0 
L 9.078125 54.6875 
L 18.109375 54.6875 
L 18.109375 46.1875 
Q 20.953125 51.171875 25.484375 53.578125 
Q 30.03125 56 36.53125 56 
Q 37.453125 56 38.578125 55.875 
Q 39.703125 55.765625 41.0625 55.515625 
z
" id="DejaVuSans-72"/>
     </defs>
     <g transform="translate(1203.520313 100.396563)scale(0.1 -0.1)">
      <use xlink:href="#DejaVuSans-66"/>
      <use x="35.205078" xlink:href="#DejaVuSans-69"/>
      <use x="62.988281" xlink:href="#DejaVuSans-6c"/>
      <use x="90.771484" xlink:href="#DejaVuSans-74"/>
      <use x="129.980469" xlink:href="#DejaVuSans-65"/>
      <use x="191.503906" xlink:href="#DejaVuSans-72"/>
      <use x="232.585938" xlink:href="#DejaVuSans-65"/>
      <use x="294.109375" xlink:href="#DejaVuSans-64"/>
      <use x="357.585938" xlink:href="#DejaVuSans-20"/>
      <use x="389.373047" xlink:href="#DejaVuSans-74"/>
      <use x="428.582031" xlink:href="#DejaVuSans-63"/>
      <use x="483.5625" xlink:href="#DejaVuSans-70"/>
      <use x="547.039062" xlink:href="#DejaVuSans-64"/>
      <use x="610.515625" xlink:href="#DejaVuSans-75"/>
      <use x="673.894531" xlink:href="#DejaVuSans-6d"/>
      <use x="771.306641" xlink:href="#DejaVuSans-70"/>
     </g>
    </g>
    <g id="line2d_22">
     <path d="M 1175.520313 111.574687 
L 1195.520313 111.574687 
" style="fill:none;stroke:#0000ff;stroke-linecap:square;stroke-width:1.5;"/>
    </g>
    <g id="line2d_23"/>
    <g id="text_17">
     <!-- OLS -->
     <defs>
      <path d="M 39.40625 66.21875 
Q 28.65625 66.21875 22.328125 58.203125 
Q 16.015625 50.203125 16.015625 36.375 
Q 16.015625 22.609375 22.328125 14.59375 
Q 28.65625 6.59375 39.40625 6.59375 
Q 50.140625 6.59375 56.421875 14.59375 
Q 62.703125 22.609375 62.703125 36.375 
Q 62.703125 50.203125 56.421875 58.203125 
Q 50.140625 66.21875 39.40625 66.21875 
z
M 39.40625 74.21875 
Q 54.734375 74.21875 63.90625 63.9375 
Q 73.09375 53.65625 73.09375 36.375 
Q 73.09375 19.140625 63.90625 8.859375 
Q 54.734375 -1.421875 39.40625 -1.421875 
Q 24.03125 -1.421875 14.8125 8.828125 
Q 5.609375 19.09375 5.609375 36.375 
Q 5.609375 53.65625 14.8125 63.9375 
Q 24.03125 74.21875 39.40625 74.21875 
z
" id="DejaVuSans-4f"/>
      <path d="M 9.8125 72.90625 
L 19.671875 72.90625 
L 19.671875 8.296875 
L 55.171875 8.296875 
L 55.171875 0 
L 9.8125 0 
z
" id="DejaVuSans-4c"/>
      <path d="M 53.515625 70.515625 
L 53.515625 60.890625 
Q 47.90625 63.578125 42.921875 64.890625 
Q 37.9375 66.21875 33.296875 66.21875 
Q 25.25 66.21875 20.875 63.09375 
Q 16.5 59.96875 16.5 54.203125 
Q 16.5 49.359375 19.40625 46.890625 
Q 22.3125 44.4375 30.421875 42.921875 
L 36.375 41.703125 
Q 47.40625 39.59375 52.65625 34.296875 
Q 57.90625 29 57.90625 20.125 
Q 57.90625 9.515625 50.796875 4.046875 
Q 43.703125 -1.421875 29.984375 -1.421875 
Q 24.8125 -1.421875 18.96875 -0.25 
Q 13.140625 0.921875 6.890625 3.21875 
L 6.890625 13.375 
Q 12.890625 10.015625 18.65625 8.296875 
Q 24.421875 6.59375 29.984375 6.59375 
Q 38.421875 6.59375 43.015625 9.90625 
Q 47.609375 13.234375 47.609375 19.390625 
Q 47.609375 24.75 44.3125 27.78125 
Q 41.015625 30.8125 33.5 32.328125 
L 27.484375 33.5 
Q 16.453125 35.6875 11.515625 40.375 
Q 6.59375 45.0625 6.59375 53.421875 
Q 6.59375 63.09375 13.40625 68.65625 
Q 20.21875 74.21875 32.171875 74.21875 
Q 37.3125 74.21875 42.625 73.28125 
Q 47.953125 72.359375 53.515625 70.515625 
z
" id="DejaVuSans-53"/>
     </defs>
     <g transform="translate(1203.520313 115.074687)scale(0.1 -0.1)">
      <use xlink:href="#DejaVuSans-4f"/>
      <use x="78.710938" xlink:href="#DejaVuSans-4c"/>
      <use x="134.423828" xlink:href="#DejaVuSans-53"/>
     </g>
    </g>
    <g id="line2d_24">
     <path d="M 1175.520313 126.252813 
L 1195.520313 126.252813 
" style="fill:none;stroke:#008000;stroke-linecap:square;stroke-width:1.5;"/>
    </g>
    <g id="line2d_25">
     <g>
      <use style="fill:#008000;stroke:#008000;" x="1185.520313" xlink:href="#m1ed3fcdc92" y="126.252813"/>
     </g>
    </g>
    <g id="text_18">
     <!-- IRLS -->
     <defs>
      <path d="M 9.8125 72.90625 
L 19.671875 72.90625 
L 19.671875 0 
L 9.8125 0 
z
" id="DejaVuSans-49"/>
      <path d="M 44.390625 34.1875 
Q 47.5625 33.109375 50.5625 29.59375 
Q 53.5625 26.078125 56.59375 19.921875 
L 66.609375 0 
L 56 0 
L 46.6875 18.703125 
Q 43.0625 26.03125 39.671875 28.421875 
Q 36.28125 30.8125 30.421875 30.8125 
L 19.671875 30.8125 
L 19.671875 0 
L 9.8125 0 
L 9.8125 72.90625 
L 32.078125 72.90625 
Q 44.578125 72.90625 50.734375 67.671875 
Q 56.890625 62.453125 56.890625 51.90625 
Q 56.890625 45.015625 53.6875 40.46875 
Q 50.484375 35.9375 44.390625 34.1875 
z
M 19.671875 64.796875 
L 19.671875 38.921875 
L 32.078125 38.921875 
Q 39.203125 38.921875 42.84375 42.21875 
Q 46.484375 45.515625 46.484375 51.90625 
Q 46.484375 58.296875 42.84375 61.546875 
Q 39.203125 64.796875 32.078125 64.796875 
z
" id="DejaVuSans-52"/>
     </defs>
     <g transform="translate(1203.520313 129.752813)scale(0.1 -0.1)">
      <use xlink:href="#DejaVuSans-49"/>
      <use x="29.492188" xlink:href="#DejaVuSans-52"/>
      <use x="98.974609" xlink:href="#DejaVuSans-4c"/>
      <use x="154.6875" xlink:href="#DejaVuSans-53"/>
     </g>
    </g>
   </g>
  </g>
 </g>
 <defs>
  <clipPath id="p057932a2c9">
   <rect height="443.52" width="1116" x="180" y="69.12"/>
  </clipPath>
 </defs>
</svg>
