<?xml version="1.0" encoding="utf-8" standalone="no"?>
<!DOCTYPE svg PUBLIC "-//W3C//DTD SVG 1.1//EN"
  "http://www.w3.org/Graphics/SVG/1.1/DTD/svg11.dtd">
<!-- Created with matplotlib (http://matplotlib.org/) -->
<svg height="576pt" version="1.1" viewBox="0 0 1440 576" width="1440pt" xmlns="http://www.w3.org/2000/svg" xmlns:xlink="http://www.w3.org/1999/xlink">
 <defs>
  <style type="text/css">
*{stroke-linecap:butt;stroke-linejoin:round;}
  </style>
 </defs>
 <g id="figure_1">
  <g id="patch_1">
   <path d="M 0 576 
L 1440 576 
L 1440 0 
L 0 0 
z
" style="fill:#ffffff;"/>
  </g>
  <g id="axes_1">
   <g id="patch_2">
    <path d="M 180 512.64 
L 1296 512.64 
L 1296 69.12 
L 180 69.12 
z
" style="fill:#ffffff;"/>
   </g>
   <g id="matplotlib.axis_1">
    <g id="xtick_1">
     <g id="line2d_1">
      <defs>
       <path d="M 0 0 
L 0 3.5 
" id="m260f9b218b" style="stroke:#000000;stroke-width:0.8;"/>
      </defs>
      <g>
       <use style="stroke:#000000;stroke-width:0.8;" x="230.727273" xlink:href="#m260f9b218b" y="512.64"/>
      </g>
     </g>
     <g id="text_1">
      <!-- 0.00 -->
      <defs>
       <path d="M 31.78125 66.40625 
Q 24.171875 66.40625 20.328125 58.90625 
Q 16.5 51.421875 16.5 36.375 
Q 16.5 21.390625 20.328125 13.890625 
Q 24.171875 6.390625 31.78125 6.390625 
Q 39.453125 6.390625 43.28125 13.890625 
Q 47.125 21.390625 47.125 36.375 
Q 47.125 51.421875 43.28125 58.90625 
Q 39.453125 66.40625 31.78125 66.40625 
z
M 31.78125 74.21875 
Q 44.046875 74.21875 50.515625 64.515625 
Q 56.984375 54.828125 56.984375 36.375 
Q 56.984375 17.96875 50.515625 8.265625 
Q 44.046875 -1.421875 31.78125 -1.421875 
Q 19.53125 -1.421875 13.0625 8.265625 
Q 6.59375 17.96875 6.59375 36.375 
Q 6.59375 54.828125 13.0625 64.515625 
Q 19.53125 74.21875 31.78125 74.21875 
z
" id="DejaVuSans-30"/>
       <path d="M 10.6875 12.40625 
L 21 12.40625 
L 21 0 
L 10.6875 0 
z
" id="DejaVuSans-2e"/>
      </defs>
      <g transform="translate(219.59446 527.238438)scale(0.1 -0.1)">
       <use xlink:href="#DejaVuSans-30"/>
       <use x="63.623047" xlink:href="#DejaVuSans-2e"/>
       <use x="95.410156" xlink:href="#DejaVuSans-30"/>
       <use x="159.033203" xlink:href="#DejaVuSans-30"/>
      </g>
     </g>
    </g>
    <g id="xtick_2">
     <g id="line2d_2">
      <g>
       <use style="stroke:#000000;stroke-width:0.8;" x="431.76351" xlink:href="#m260f9b218b" y="512.64"/>
      </g>
     </g>
     <g id="text_2">
      <!-- 0.05 -->
      <defs>
       <path d="M 10.796875 72.90625 
L 49.515625 72.90625 
L 49.515625 64.59375 
L 19.828125 64.59375 
L 19.828125 46.734375 
Q 21.96875 47.46875 24.109375 47.828125 
Q 26.265625 48.1875 28.421875 48.1875 
Q 40.625 48.1875 47.75 41.5 
Q 54.890625 34.8125 54.890625 23.390625 
Q 54.890625 11.625 47.5625 5.09375 
Q 40.234375 -1.421875 26.90625 -1.421875 
Q 22.3125 -1.421875 17.546875 -0.640625 
Q 12.796875 0.140625 7.71875 1.703125 
L 7.71875 11.625 
Q 12.109375 9.234375 16.796875 8.0625 
Q 21.484375 6.890625 26.703125 6.890625 
Q 35.15625 6.890625 40.078125 11.328125 
Q 45.015625 15.765625 45.015625 23.390625 
Q 45.015625 31 40.078125 35.4375 
Q 35.15625 39.890625 26.703125 39.890625 
Q 22.75 39.890625 18.8125 39.015625 
Q 14.890625 38.140625 10.796875 36.28125 
z
" id="DejaVuSans-35"/>
      </defs>
      <g transform="translate(420.630698 527.238438)scale(0.1 -0.1)">
       <use xlink:href="#DejaVuSans-30"/>
       <use x="63.623047" xlink:href="#DejaVuSans-2e"/>
       <use x="95.410156" xlink:href="#DejaVuSans-30"/>
       <use x="159.033203" xlink:href="#DejaVuSans-35"/>
      </g>
     </g>
    </g>
    <g id="xtick_3">
     <g id="line2d_3">
      <g>
       <use style="stroke:#000000;stroke-width:0.8;" x="632.799747" xlink:href="#m260f9b218b" y="512.64"/>
      </g>
     </g>
     <g id="text_3">
      <!-- 0.10 -->
      <defs>
       <path d="M 12.40625 8.296875 
L 28.515625 8.296875 
L 28.515625 63.921875 
L 10.984375 60.40625 
L 10.984375 69.390625 
L 28.421875 72.90625 
L 38.28125 72.90625 
L 38.28125 8.296875 
L 54.390625 8.296875 
L 54.390625 0 
L 12.40625 0 
z
" id="DejaVuSans-31"/>
      </defs>
      <g transform="translate(621.666935 527.238438)scale(0.1 -0.1)">
       <use xlink:href="#DejaVuSans-30"/>
       <use x="63.623047" xlink:href="#DejaVuSans-2e"/>
       <use x="95.410156" xlink:href="#DejaVuSans-31"/>
       <use x="159.033203" xlink:href="#DejaVuSans-30"/>
      </g>
     </g>
    </g>
    <g id="xtick_4">
     <g id="line2d_4">
      <g>
       <use style="stroke:#000000;stroke-width:0.8;" x="833.835985" xlink:href="#m260f9b218b" y="512.64"/>
      </g>
     </g>
     <g id="text_4">
      <!-- 0.15 -->
      <g transform="translate(822.703172 527.238438)scale(0.1 -0.1)">
       <use xlink:href="#DejaVuSans-30"/>
       <use x="63.623047" xlink:href="#DejaVuSans-2e"/>
       <use x="95.410156" xlink:href="#DejaVuSans-31"/>
       <use x="159.033203" xlink:href="#DejaVuSans-35"/>
      </g>
     </g>
    </g>
    <g id="xtick_5">
     <g id="line2d_5">
      <g>
       <use style="stroke:#000000;stroke-width:0.8;" x="1034.872222" xlink:href="#m260f9b218b" y="512.64"/>
      </g>
     </g>
     <g id="text_5">
      <!-- 0.20 -->
      <defs>
       <path d="M 19.1875 8.296875 
L 53.609375 8.296875 
L 53.609375 0 
L 7.328125 0 
L 7.328125 8.296875 
Q 12.9375 14.109375 22.625 23.890625 
Q 32.328125 33.6875 34.8125 36.53125 
Q 39.546875 41.84375 41.421875 45.53125 
Q 43.3125 49.21875 43.3125 52.78125 
Q 43.3125 58.59375 39.234375 62.25 
Q 35.15625 65.921875 28.609375 65.921875 
Q 23.96875 65.921875 18.8125 64.3125 
Q 13.671875 62.703125 7.8125 59.421875 
L 7.8125 69.390625 
Q 13.765625 71.78125 18.9375 73 
Q 24.125 74.21875 28.421875 74.21875 
Q 39.75 74.21875 46.484375 68.546875 
Q 53.21875 62.890625 53.21875 53.421875 
Q 53.21875 48.921875 51.53125 44.890625 
Q 49.859375 40.875 45.40625 35.40625 
Q 44.1875 33.984375 37.640625 27.21875 
Q 31.109375 20.453125 19.1875 8.296875 
z
" id="DejaVuSans-32"/>
      </defs>
      <g transform="translate(1023.73941 527.238438)scale(0.1 -0.1)">
       <use xlink:href="#DejaVuSans-30"/>
       <use x="63.623047" xlink:href="#DejaVuSans-2e"/>
       <use x="95.410156" xlink:href="#DejaVuSans-32"/>
       <use x="159.033203" xlink:href="#DejaVuSans-30"/>
      </g>
     </g>
    </g>
    <g id="xtick_6">
     <g id="line2d_6">
      <g>
       <use style="stroke:#000000;stroke-width:0.8;" x="1235.908459" xlink:href="#m260f9b218b" y="512.64"/>
      </g>
     </g>
     <g id="text_6">
      <!-- 0.25 -->
      <g transform="translate(1224.775647 527.238438)scale(0.1 -0.1)">
       <use xlink:href="#DejaVuSans-30"/>
       <use x="63.623047" xlink:href="#DejaVuSans-2e"/>
       <use x="95.410156" xlink:href="#DejaVuSans-32"/>
       <use x="159.033203" xlink:href="#DejaVuSans-35"/>
      </g>
     </g>
    </g>
   </g>
   <g id="matplotlib.axis_2">
    <g id="ytick_1">
     <g id="line2d_7">
      <defs>
       <path d="M 0 0 
L -3.5 0 
" id="m0304cd1820" style="stroke:#000000;stroke-width:0.8;"/>
      </defs>
      <g>
       <use style="stroke:#000000;stroke-width:0.8;" x="180" xlink:href="#m0304cd1820" y="450.58115"/>
      </g>
     </g>
     <g id="text_7">
      <!-- 1.2 -->
      <g transform="translate(157.096875 454.380369)scale(0.1 -0.1)">
       <use xlink:href="#DejaVuSans-31"/>
       <use x="63.623047" xlink:href="#DejaVuSans-2e"/>
       <use x="95.410156" xlink:href="#DejaVuSans-32"/>
      </g>
     </g>
    </g>
    <g id="ytick_2">
     <g id="line2d_8">
      <g>
       <use style="stroke:#000000;stroke-width:0.8;" x="180" xlink:href="#m0304cd1820" y="366.850857"/>
      </g>
     </g>
     <g id="text_8">
      <!-- 1.4 -->
      <defs>
       <path d="M 37.796875 64.3125 
L 12.890625 25.390625 
L 37.796875 25.390625 
z
M 35.203125 72.90625 
L 47.609375 72.90625 
L 47.609375 25.390625 
L 58.015625 25.390625 
L 58.015625 17.1875 
L 47.609375 17.1875 
L 47.609375 0 
L 37.796875 0 
L 37.796875 17.1875 
L 4.890625 17.1875 
L 4.890625 26.703125 
z
" id="DejaVuSans-34"/>
      </defs>
      <g transform="translate(157.096875 370.650076)scale(0.1 -0.1)">
       <use xlink:href="#DejaVuSans-31"/>
       <use x="63.623047" xlink:href="#DejaVuSans-2e"/>
       <use x="95.410156" xlink:href="#DejaVuSans-34"/>
      </g>
     </g>
    </g>
    <g id="ytick_3">
     <g id="line2d_9">
      <g>
       <use style="stroke:#000000;stroke-width:0.8;" x="180" xlink:href="#m0304cd1820" y="283.120564"/>
      </g>
     </g>
     <g id="text_9">
      <!-- 1.6 -->
      <defs>
       <path d="M 33.015625 40.375 
Q 26.375 40.375 22.484375 35.828125 
Q 18.609375 31.296875 18.609375 23.390625 
Q 18.609375 15.53125 22.484375 10.953125 
Q 26.375 6.390625 33.015625 6.390625 
Q 39.65625 6.390625 43.53125 10.953125 
Q 47.40625 15.53125 47.40625 23.390625 
Q 47.40625 31.296875 43.53125 35.828125 
Q 39.65625 40.375 33.015625 40.375 
z
M 52.59375 71.296875 
L 52.59375 62.3125 
Q 48.875 64.0625 45.09375 64.984375 
Q 41.3125 65.921875 37.59375 65.921875 
Q 27.828125 65.921875 22.671875 59.328125 
Q 17.53125 52.734375 16.796875 39.40625 
Q 19.671875 43.65625 24.015625 45.921875 
Q 28.375 48.1875 33.59375 48.1875 
Q 44.578125 48.1875 50.953125 41.515625 
Q 57.328125 34.859375 57.328125 23.390625 
Q 57.328125 12.15625 50.6875 5.359375 
Q 44.046875 -1.421875 33.015625 -1.421875 
Q 20.359375 -1.421875 13.671875 8.265625 
Q 6.984375 17.96875 6.984375 36.375 
Q 6.984375 53.65625 15.1875 63.9375 
Q 23.390625 74.21875 37.203125 74.21875 
Q 40.921875 74.21875 44.703125 73.484375 
Q 48.484375 72.75 52.59375 71.296875 
z
" id="DejaVuSans-36"/>
      </defs>
      <g transform="translate(157.096875 286.919783)scale(0.1 -0.1)">
       <use xlink:href="#DejaVuSans-31"/>
       <use x="63.623047" xlink:href="#DejaVuSans-2e"/>
       <use x="95.410156" xlink:href="#DejaVuSans-36"/>
      </g>
     </g>
    </g>
    <g id="ytick_4">
     <g id="line2d_10">
      <g>
       <use style="stroke:#000000;stroke-width:0.8;" x="180" xlink:href="#m0304cd1820" y="199.390272"/>
      </g>
     </g>
     <g id="text_10">
      <!-- 1.8 -->
      <defs>
       <path d="M 31.78125 34.625 
Q 24.75 34.625 20.71875 30.859375 
Q 16.703125 27.09375 16.703125 20.515625 
Q 16.703125 13.921875 20.71875 10.15625 
Q 24.75 6.390625 31.78125 6.390625 
Q 38.8125 6.390625 42.859375 10.171875 
Q 46.921875 13.96875 46.921875 20.515625 
Q 46.921875 27.09375 42.890625 30.859375 
Q 38.875 34.625 31.78125 34.625 
z
M 21.921875 38.8125 
Q 15.578125 40.375 12.03125 44.71875 
Q 8.5 49.078125 8.5 55.328125 
Q 8.5 64.0625 14.71875 69.140625 
Q 20.953125 74.21875 31.78125 74.21875 
Q 42.671875 74.21875 48.875 69.140625 
Q 55.078125 64.0625 55.078125 55.328125 
Q 55.078125 49.078125 51.53125 44.71875 
Q 48 40.375 41.703125 38.8125 
Q 48.828125 37.15625 52.796875 32.3125 
Q 56.78125 27.484375 56.78125 20.515625 
Q 56.78125 9.90625 50.3125 4.234375 
Q 43.84375 -1.421875 31.78125 -1.421875 
Q 19.734375 -1.421875 13.25 4.234375 
Q 6.78125 9.90625 6.78125 20.515625 
Q 6.78125 27.484375 10.78125 32.3125 
Q 14.796875 37.15625 21.921875 38.8125 
z
M 18.3125 54.390625 
Q 18.3125 48.734375 21.84375 45.5625 
Q 25.390625 42.390625 31.78125 42.390625 
Q 38.140625 42.390625 41.71875 45.5625 
Q 45.3125 48.734375 45.3125 54.390625 
Q 45.3125 60.0625 41.71875 63.234375 
Q 38.140625 66.40625 31.78125 66.40625 
Q 25.390625 66.40625 21.84375 63.234375 
Q 18.3125 60.0625 18.3125 54.390625 
z
" id="DejaVuSans-38"/>
      </defs>
      <g transform="translate(157.096875 203.18949)scale(0.1 -0.1)">
       <use xlink:href="#DejaVuSans-31"/>
       <use x="63.623047" xlink:href="#DejaVuSans-2e"/>
       <use x="95.410156" xlink:href="#DejaVuSans-38"/>
      </g>
     </g>
    </g>
    <g id="ytick_5">
     <g id="line2d_11">
      <g>
       <use style="stroke:#000000;stroke-width:0.8;" x="180" xlink:href="#m0304cd1820" y="115.659979"/>
      </g>
     </g>
     <g id="text_11">
      <!-- 2.0 -->
      <g transform="translate(157.096875 119.459197)scale(0.1 -0.1)">
       <use xlink:href="#DejaVuSans-32"/>
       <use x="63.623047" xlink:href="#DejaVuSans-2e"/>
       <use x="95.410156" xlink:href="#DejaVuSans-30"/>
      </g>
     </g>
    </g>
   </g>
   <g id="line2d_12">
    <path clip-path="url(#pa5cce8abda)" d="M 230.727273 488.725741 
L 240.280515 484.688685 
L 248.543104 480.506776 
L 256.757445 476.317749 
L 272.253318 472.8869 
L 280.294767 468.678616 
L 288.247761 464.464889 
L 296.096216 460.237765 
L 311.471467 456.789333 
L 319.47673 452.572675 
L 327.502097 448.376113 
L 335.362614 444.151501 
L 353.009574 440.944631 
L 361.332475 436.759372 
L 369.530732 432.570764 
L 377.548058 428.367504 
L 393.827972 425.019548 
L 402.211183 420.847686 
L 410.23655 416.639401 
L 418.410683 412.447026 
L 434.622245 409.091116 
L 443.041643 404.925952 
L 451.058968 400.706783 
L 459.007941 396.49473 
L 475.416519 393.162683 
L 483.638901 388.972401 
L 491.591894 384.755325 
L 499.532826 380.535318 
L 516.158522 377.221691 
L 524.618127 373.067413 
L 532.67968 368.864571 
L 540.520094 364.634098 
L 556.301438 361.236323 
L 564.371033 357.034318 
L 572.143094 352.800077 
L 579.802574 348.552858 
L 597.115815 345.31124 
L 605.141182 341.103792 
L 612.909222 336.869133 
L 620.580765 332.623588 
L 638.038752 329.396204 
L 646.108346 325.188757 
L 653.904532 320.96247 
L 661.668551 316.726973 
L 678.13744 313.397438 
L 686.142703 309.180781 
L 693.926826 304.950726 
L 701.6627 300.714392 
L 718.517578 297.426304 
L 726.526862 293.215926 
L 734.290881 288.979592 
L 742.288103 284.765027 
L 759.038442 281.469403 
L 767.011539 277.255676 
L 774.823808 273.025203 
L 782.595869 268.790544 
L 799.498995 265.504548 
L 807.480134 261.293333 
L 815.207967 257.054068 
L 822.976007 252.817734 
L 840.63503 249.612957 
L 848.616169 245.39923 
L 856.408333 241.167501 
L 864.180394 236.929911 
L 880.512578 233.586142 
L 888.537945 229.379951 
L 896.330109 225.147384 
L 904.065984 220.899747 
L 921.194271 217.639289 
L 929.074892 213.42305 
L 936.838911 209.177924 
L 944.691387 204.954568 
L 962.330306 201.749791 
L 970.596916 197.566626 
L 978.650428 193.361272 
L 986.900955 189.175595 
L 1002.995916 185.807543 
L 1011.543977 181.657033 
L 1019.585427 177.449167 
L 1027.775643 173.26014 
L 1044.200303 169.923907 
L 1052.555369 165.754557 
L 1060.962705 161.585207 
L 1068.774973 157.356409 
L 1083.933105 153.892486 
L 1092.11528 149.700529 
L 1099.915486 145.467544 
L 1107.900646 141.254655 
L 1124.341389 137.920933 
L 1132.322528 133.708881 
L 1140.239335 129.491386 
L 1148.003354 125.255889 
L 1164.922564 121.97115 
L 1173.16907 117.784635 
L 1181.053712 113.562954 
L 1188.97856 109.345459 
L 1207.059759 106.182128 
L 1215.623903 102.024501 
L 1223.814119 97.837567 
L 1245.272727 95.028416 
" style="fill:none;stroke:#ff0000;stroke-dasharray:5.55,2.4;stroke-dashoffset:0;stroke-width:1.5;"/>
    <defs>
     <path d="M -3 3 
L 3 3 
L 3 -3 
L -3 -3 
z
" id="mefcb97bad2" style="stroke:#ff0000;stroke-linejoin:miter;"/>
    </defs>
    <g clip-path="url(#pa5cce8abda)">
     <use style="fill:#ff0000;stroke:#ff0000;stroke-linejoin:miter;" x="230.727273" xlink:href="#mefcb97bad2" y="488.725741"/>
     <use style="fill:#ff0000;stroke:#ff0000;stroke-linejoin:miter;" x="240.280515" xlink:href="#mefcb97bad2" y="484.688685"/>
     <use style="fill:#ff0000;stroke:#ff0000;stroke-linejoin:miter;" x="248.543104" xlink:href="#mefcb97bad2" y="480.506776"/>
     <use style="fill:#ff0000;stroke:#ff0000;stroke-linejoin:miter;" x="256.757445" xlink:href="#mefcb97bad2" y="476.317749"/>
     <use style="fill:#ff0000;stroke:#ff0000;stroke-linejoin:miter;" x="272.253318" xlink:href="#mefcb97bad2" y="472.8869"/>
     <use style="fill:#ff0000;stroke:#ff0000;stroke-linejoin:miter;" x="280.294767" xlink:href="#mefcb97bad2" y="468.678616"/>
     <use style="fill:#ff0000;stroke:#ff0000;stroke-linejoin:miter;" x="288.247761" xlink:href="#mefcb97bad2" y="464.464889"/>
     <use style="fill:#ff0000;stroke:#ff0000;stroke-linejoin:miter;" x="296.096216" xlink:href="#mefcb97bad2" y="460.237765"/>
     <use style="fill:#ff0000;stroke:#ff0000;stroke-linejoin:miter;" x="311.471467" xlink:href="#mefcb97bad2" y="456.789333"/>
     <use style="fill:#ff0000;stroke:#ff0000;stroke-linejoin:miter;" x="319.47673" xlink:href="#mefcb97bad2" y="452.572675"/>
     <use style="fill:#ff0000;stroke:#ff0000;stroke-linejoin:miter;" x="327.502097" xlink:href="#mefcb97bad2" y="448.376113"/>
     <use style="fill:#ff0000;stroke:#ff0000;stroke-linejoin:miter;" x="335.362614" xlink:href="#mefcb97bad2" y="444.151501"/>
     <use style="fill:#ff0000;stroke:#ff0000;stroke-linejoin:miter;" x="353.009574" xlink:href="#mefcb97bad2" y="440.944631"/>
     <use style="fill:#ff0000;stroke:#ff0000;stroke-linejoin:miter;" x="361.332475" xlink:href="#mefcb97bad2" y="436.759372"/>
     <use style="fill:#ff0000;stroke:#ff0000;stroke-linejoin:miter;" x="369.530732" xlink:href="#mefcb97bad2" y="432.570764"/>
     <use style="fill:#ff0000;stroke:#ff0000;stroke-linejoin:miter;" x="377.548058" xlink:href="#mefcb97bad2" y="428.367504"/>
     <use style="fill:#ff0000;stroke:#ff0000;stroke-linejoin:miter;" x="393.827972" xlink:href="#mefcb97bad2" y="425.019548"/>
     <use style="fill:#ff0000;stroke:#ff0000;stroke-linejoin:miter;" x="402.211183" xlink:href="#mefcb97bad2" y="420.847686"/>
     <use style="fill:#ff0000;stroke:#ff0000;stroke-linejoin:miter;" x="410.23655" xlink:href="#mefcb97bad2" y="416.639401"/>
     <use style="fill:#ff0000;stroke:#ff0000;stroke-linejoin:miter;" x="418.410683" xlink:href="#mefcb97bad2" y="412.447026"/>
     <use style="fill:#ff0000;stroke:#ff0000;stroke-linejoin:miter;" x="434.622245" xlink:href="#mefcb97bad2" y="409.091116"/>
     <use style="fill:#ff0000;stroke:#ff0000;stroke-linejoin:miter;" x="443.041643" xlink:href="#mefcb97bad2" y="404.925952"/>
     <use style="fill:#ff0000;stroke:#ff0000;stroke-linejoin:miter;" x="451.058968" xlink:href="#mefcb97bad2" y="400.706783"/>
     <use style="fill:#ff0000;stroke:#ff0000;stroke-linejoin:miter;" x="459.007941" xlink:href="#mefcb97bad2" y="396.49473"/>
     <use style="fill:#ff0000;stroke:#ff0000;stroke-linejoin:miter;" x="475.416519" xlink:href="#mefcb97bad2" y="393.162683"/>
     <use style="fill:#ff0000;stroke:#ff0000;stroke-linejoin:miter;" x="483.638901" xlink:href="#mefcb97bad2" y="388.972401"/>
     <use style="fill:#ff0000;stroke:#ff0000;stroke-linejoin:miter;" x="491.591894" xlink:href="#mefcb97bad2" y="384.755325"/>
     <use style="fill:#ff0000;stroke:#ff0000;stroke-linejoin:miter;" x="499.532826" xlink:href="#mefcb97bad2" y="380.535318"/>
     <use style="fill:#ff0000;stroke:#ff0000;stroke-linejoin:miter;" x="516.158522" xlink:href="#mefcb97bad2" y="377.221691"/>
     <use style="fill:#ff0000;stroke:#ff0000;stroke-linejoin:miter;" x="524.618127" xlink:href="#mefcb97bad2" y="373.067413"/>
     <use style="fill:#ff0000;stroke:#ff0000;stroke-linejoin:miter;" x="532.67968" xlink:href="#mefcb97bad2" y="368.864571"/>
     <use style="fill:#ff0000;stroke:#ff0000;stroke-linejoin:miter;" x="540.520094" xlink:href="#mefcb97bad2" y="364.634098"/>
     <use style="fill:#ff0000;stroke:#ff0000;stroke-linejoin:miter;" x="556.301438" xlink:href="#mefcb97bad2" y="361.236323"/>
     <use style="fill:#ff0000;stroke:#ff0000;stroke-linejoin:miter;" x="564.371033" xlink:href="#mefcb97bad2" y="357.034318"/>
     <use style="fill:#ff0000;stroke:#ff0000;stroke-linejoin:miter;" x="572.143094" xlink:href="#mefcb97bad2" y="352.800077"/>
     <use style="fill:#ff0000;stroke:#ff0000;stroke-linejoin:miter;" x="579.802574" xlink:href="#mefcb97bad2" y="348.552858"/>
     <use style="fill:#ff0000;stroke:#ff0000;stroke-linejoin:miter;" x="597.115815" xlink:href="#mefcb97bad2" y="345.31124"/>
     <use style="fill:#ff0000;stroke:#ff0000;stroke-linejoin:miter;" x="605.141182" xlink:href="#mefcb97bad2" y="341.103792"/>
     <use style="fill:#ff0000;stroke:#ff0000;stroke-linejoin:miter;" x="612.909222" xlink:href="#mefcb97bad2" y="336.869133"/>
     <use style="fill:#ff0000;stroke:#ff0000;stroke-linejoin:miter;" x="620.580765" xlink:href="#mefcb97bad2" y="332.623588"/>
     <use style="fill:#ff0000;stroke:#ff0000;stroke-linejoin:miter;" x="638.038752" xlink:href="#mefcb97bad2" y="329.396204"/>
     <use style="fill:#ff0000;stroke:#ff0000;stroke-linejoin:miter;" x="646.108346" xlink:href="#mefcb97bad2" y="325.188757"/>
     <use style="fill:#ff0000;stroke:#ff0000;stroke-linejoin:miter;" x="653.904532" xlink:href="#mefcb97bad2" y="320.96247"/>
     <use style="fill:#ff0000;stroke:#ff0000;stroke-linejoin:miter;" x="661.668551" xlink:href="#mefcb97bad2" y="316.726973"/>
     <use style="fill:#ff0000;stroke:#ff0000;stroke-linejoin:miter;" x="678.13744" xlink:href="#mefcb97bad2" y="313.397438"/>
     <use style="fill:#ff0000;stroke:#ff0000;stroke-linejoin:miter;" x="686.142703" xlink:href="#mefcb97bad2" y="309.180781"/>
     <use style="fill:#ff0000;stroke:#ff0000;stroke-linejoin:miter;" x="693.926826" xlink:href="#mefcb97bad2" y="304.950726"/>
     <use style="fill:#ff0000;stroke:#ff0000;stroke-linejoin:miter;" x="701.6627" xlink:href="#mefcb97bad2" y="300.714392"/>
     <use style="fill:#ff0000;stroke:#ff0000;stroke-linejoin:miter;" x="718.517578" xlink:href="#mefcb97bad2" y="297.426304"/>
     <use style="fill:#ff0000;stroke:#ff0000;stroke-linejoin:miter;" x="726.526862" xlink:href="#mefcb97bad2" y="293.215926"/>
     <use style="fill:#ff0000;stroke:#ff0000;stroke-linejoin:miter;" x="734.290881" xlink:href="#mefcb97bad2" y="288.979592"/>
     <use style="fill:#ff0000;stroke:#ff0000;stroke-linejoin:miter;" x="742.288103" xlink:href="#mefcb97bad2" y="284.765027"/>
     <use style="fill:#ff0000;stroke:#ff0000;stroke-linejoin:miter;" x="759.038442" xlink:href="#mefcb97bad2" y="281.469403"/>
     <use style="fill:#ff0000;stroke:#ff0000;stroke-linejoin:miter;" x="767.011539" xlink:href="#mefcb97bad2" y="277.255676"/>
     <use style="fill:#ff0000;stroke:#ff0000;stroke-linejoin:miter;" x="774.823808" xlink:href="#mefcb97bad2" y="273.025203"/>
     <use style="fill:#ff0000;stroke:#ff0000;stroke-linejoin:miter;" x="782.595869" xlink:href="#mefcb97bad2" y="268.790544"/>
     <use style="fill:#ff0000;stroke:#ff0000;stroke-linejoin:miter;" x="799.498995" xlink:href="#mefcb97bad2" y="265.504548"/>
     <use style="fill:#ff0000;stroke:#ff0000;stroke-linejoin:miter;" x="807.480134" xlink:href="#mefcb97bad2" y="261.293333"/>
     <use style="fill:#ff0000;stroke:#ff0000;stroke-linejoin:miter;" x="815.207967" xlink:href="#mefcb97bad2" y="257.054068"/>
     <use style="fill:#ff0000;stroke:#ff0000;stroke-linejoin:miter;" x="822.976007" xlink:href="#mefcb97bad2" y="252.817734"/>
     <use style="fill:#ff0000;stroke:#ff0000;stroke-linejoin:miter;" x="840.63503" xlink:href="#mefcb97bad2" y="249.612957"/>
     <use style="fill:#ff0000;stroke:#ff0000;stroke-linejoin:miter;" x="848.616169" xlink:href="#mefcb97bad2" y="245.39923"/>
     <use style="fill:#ff0000;stroke:#ff0000;stroke-linejoin:miter;" x="856.408333" xlink:href="#mefcb97bad2" y="241.167501"/>
     <use style="fill:#ff0000;stroke:#ff0000;stroke-linejoin:miter;" x="864.180394" xlink:href="#mefcb97bad2" y="236.929911"/>
     <use style="fill:#ff0000;stroke:#ff0000;stroke-linejoin:miter;" x="880.512578" xlink:href="#mefcb97bad2" y="233.586142"/>
     <use style="fill:#ff0000;stroke:#ff0000;stroke-linejoin:miter;" x="888.537945" xlink:href="#mefcb97bad2" y="229.379951"/>
     <use style="fill:#ff0000;stroke:#ff0000;stroke-linejoin:miter;" x="896.330109" xlink:href="#mefcb97bad2" y="225.147384"/>
     <use style="fill:#ff0000;stroke:#ff0000;stroke-linejoin:miter;" x="904.065984" xlink:href="#mefcb97bad2" y="220.899747"/>
     <use style="fill:#ff0000;stroke:#ff0000;stroke-linejoin:miter;" x="921.194271" xlink:href="#mefcb97bad2" y="217.639289"/>
     <use style="fill:#ff0000;stroke:#ff0000;stroke-linejoin:miter;" x="929.074892" xlink:href="#mefcb97bad2" y="213.42305"/>
     <use style="fill:#ff0000;stroke:#ff0000;stroke-linejoin:miter;" x="936.838911" xlink:href="#mefcb97bad2" y="209.177924"/>
     <use style="fill:#ff0000;stroke:#ff0000;stroke-linejoin:miter;" x="944.691387" xlink:href="#mefcb97bad2" y="204.954568"/>
     <use style="fill:#ff0000;stroke:#ff0000;stroke-linejoin:miter;" x="962.330306" xlink:href="#mefcb97bad2" y="201.749791"/>
     <use style="fill:#ff0000;stroke:#ff0000;stroke-linejoin:miter;" x="970.596916" xlink:href="#mefcb97bad2" y="197.566626"/>
     <use style="fill:#ff0000;stroke:#ff0000;stroke-linejoin:miter;" x="978.650428" xlink:href="#mefcb97bad2" y="193.361272"/>
     <use style="fill:#ff0000;stroke:#ff0000;stroke-linejoin:miter;" x="986.900955" xlink:href="#mefcb97bad2" y="189.175595"/>
     <use style="fill:#ff0000;stroke:#ff0000;stroke-linejoin:miter;" x="1002.995916" xlink:href="#mefcb97bad2" y="185.807543"/>
     <use style="fill:#ff0000;stroke:#ff0000;stroke-linejoin:miter;" x="1011.543977" xlink:href="#mefcb97bad2" y="181.657033"/>
     <use style="fill:#ff0000;stroke:#ff0000;stroke-linejoin:miter;" x="1019.585427" xlink:href="#mefcb97bad2" y="177.449167"/>
     <use style="fill:#ff0000;stroke:#ff0000;stroke-linejoin:miter;" x="1027.775643" xlink:href="#mefcb97bad2" y="173.26014"/>
     <use style="fill:#ff0000;stroke:#ff0000;stroke-linejoin:miter;" x="1044.200303" xlink:href="#mefcb97bad2" y="169.923907"/>
     <use style="fill:#ff0000;stroke:#ff0000;stroke-linejoin:miter;" x="1052.555369" xlink:href="#mefcb97bad2" y="165.754557"/>
     <use style="fill:#ff0000;stroke:#ff0000;stroke-linejoin:miter;" x="1060.962705" xlink:href="#mefcb97bad2" y="161.585207"/>
     <use style="fill:#ff0000;stroke:#ff0000;stroke-linejoin:miter;" x="1068.774973" xlink:href="#mefcb97bad2" y="157.356409"/>
     <use style="fill:#ff0000;stroke:#ff0000;stroke-linejoin:miter;" x="1083.933105" xlink:href="#mefcb97bad2" y="153.892486"/>
     <use style="fill:#ff0000;stroke:#ff0000;stroke-linejoin:miter;" x="1092.11528" xlink:href="#mefcb97bad2" y="149.700529"/>
     <use style="fill:#ff0000;stroke:#ff0000;stroke-linejoin:miter;" x="1099.915486" xlink:href="#mefcb97bad2" y="145.467544"/>
     <use style="fill:#ff0000;stroke:#ff0000;stroke-linejoin:miter;" x="1107.900646" xlink:href="#mefcb97bad2" y="141.254655"/>
     <use style="fill:#ff0000;stroke:#ff0000;stroke-linejoin:miter;" x="1124.341389" xlink:href="#mefcb97bad2" y="137.920933"/>
     <use style="fill:#ff0000;stroke:#ff0000;stroke-linejoin:miter;" x="1132.322528" xlink:href="#mefcb97bad2" y="133.708881"/>
     <use style="fill:#ff0000;stroke:#ff0000;stroke-linejoin:miter;" x="1140.239335" xlink:href="#mefcb97bad2" y="129.491386"/>
     <use style="fill:#ff0000;stroke:#ff0000;stroke-linejoin:miter;" x="1148.003354" xlink:href="#mefcb97bad2" y="125.255889"/>
     <use style="fill:#ff0000;stroke:#ff0000;stroke-linejoin:miter;" x="1164.922564" xlink:href="#mefcb97bad2" y="121.97115"/>
     <use style="fill:#ff0000;stroke:#ff0000;stroke-linejoin:miter;" x="1173.16907" xlink:href="#mefcb97bad2" y="117.784635"/>
     <use style="fill:#ff0000;stroke:#ff0000;stroke-linejoin:miter;" x="1181.053712" xlink:href="#mefcb97bad2" y="113.562954"/>
     <use style="fill:#ff0000;stroke:#ff0000;stroke-linejoin:miter;" x="1188.97856" xlink:href="#mefcb97bad2" y="109.345459"/>
     <use style="fill:#ff0000;stroke:#ff0000;stroke-linejoin:miter;" x="1207.059759" xlink:href="#mefcb97bad2" y="106.182128"/>
     <use style="fill:#ff0000;stroke:#ff0000;stroke-linejoin:miter;" x="1215.623903" xlink:href="#mefcb97bad2" y="102.024501"/>
     <use style="fill:#ff0000;stroke:#ff0000;stroke-linejoin:miter;" x="1223.814119" xlink:href="#mefcb97bad2" y="97.837567"/>
     <use style="fill:#ff0000;stroke:#ff0000;stroke-linejoin:miter;" x="1245.272727" xlink:href="#mefcb97bad2" y="95.028416"/>
    </g>
   </g>
   <g id="line2d_13">
    <path clip-path="url(#pa5cce8abda)" d="M 230.727273 488.725741 
L 240.280515 484.688685 
L 248.543104 480.506776 
L 256.757445 476.317749 
L 272.253318 472.8869 
L 280.294767 468.678616 
L 288.247761 464.464889 
L 296.096216 460.237765 
L 311.471467 456.789333 
L 319.47673 452.572675 
L 327.502097 448.376113 
L 335.362614 444.151501 
L 353.009574 440.944631 
L 361.332475 436.759372 
L 369.530732 432.570764 
L 377.548058 428.367504 
L 393.827972 425.019548 
L 402.211183 420.847686 
L 410.23655 416.639401 
L 418.410683 412.447026 
L 434.622245 409.091116 
L 443.041643 404.925952 
L 451.058968 400.706783 
L 459.007941 396.49473 
L 475.416519 393.162683 
L 483.638901 388.972401 
L 491.591894 384.755325 
L 499.532826 380.535318 
L 516.158522 377.221691 
L 524.618127 373.067413 
L 532.67968 368.864571 
L 540.520094 364.634098 
L 556.301438 361.236323 
L 564.371033 357.034318 
L 572.143094 352.800077 
L 579.802574 348.552858 
L 597.115815 345.31124 
L 605.141182 341.103792 
L 612.909222 336.869133 
L 620.580765 332.623588 
L 638.038752 329.396204 
L 646.108346 325.188757 
L 653.904532 320.96247 
L 661.668551 316.726973 
L 678.13744 313.397438 
L 686.142703 309.180781 
L 693.926826 304.950726 
L 701.6627 300.714392 
L 718.517578 297.426304 
L 726.526862 293.215926 
L 734.290881 288.979592 
L 742.288103 284.765027 
L 759.038442 281.469403 
L 767.011539 277.255676 
L 774.823808 273.025203 
L 782.595869 268.790544 
L 799.498995 265.504548 
L 807.480134 261.293333 
L 815.207967 257.054068 
L 822.976007 252.817734 
L 840.63503 249.612957 
L 848.616169 245.39923 
L 856.408333 241.167501 
L 864.180394 236.929911 
L 880.512578 233.586142 
L 888.537945 229.379951 
L 896.330109 225.147384 
L 904.065984 220.899747 
L 921.194271 217.639289 
L 929.074892 213.42305 
L 936.838911 209.177924 
L 944.691387 204.954568 
L 962.330306 201.749791 
L 970.596916 197.566626 
L 978.650428 193.361272 
L 986.900955 189.175595 
L 1002.995916 185.807543 
L 1011.543977 181.657033 
L 1019.585427 177.449167 
L 1027.775643 173.26014 
L 1044.200303 169.923907 
L 1052.555369 165.754557 
L 1060.962705 161.585207 
L 1068.774973 157.356409 
L 1083.933105 153.892486 
L 1092.11528 149.700529 
L 1099.915486 145.467544 
L 1107.900646 141.254655 
L 1124.341389 137.920933 
L 1132.322528 133.708881 
L 1140.239335 129.491386 
L 1148.003354 125.255889 
L 1164.922564 121.97115 
L 1173.16907 117.784635 
L 1181.053712 113.562954 
L 1188.97856 109.345459 
L 1207.059759 106.182128 
L 1215.623903 102.024501 
L 1223.814119 97.837567 
L 1245.272727 95.028416 
" style="fill:none;stroke:#800080;stroke-dasharray:9.6,2.4,1.5,2.4;stroke-dashoffset:0;stroke-width:1.5;"/>
    <defs>
     <path d="M -3 3 
L 3 -3 
M -3 -3 
L 3 3 
" id="mfc44cdb4dd" style="stroke:#800080;"/>
    </defs>
    <g clip-path="url(#pa5cce8abda)">
     <use style="fill:#800080;stroke:#800080;" x="230.727273" xlink:href="#mfc44cdb4dd" y="488.725741"/>
     <use style="fill:#800080;stroke:#800080;" x="240.280515" xlink:href="#mfc44cdb4dd" y="484.688685"/>
     <use style="fill:#800080;stroke:#800080;" x="248.543104" xlink:href="#mfc44cdb4dd" y="480.506776"/>
     <use style="fill:#800080;stroke:#800080;" x="256.757445" xlink:href="#mfc44cdb4dd" y="476.317749"/>
     <use style="fill:#800080;stroke:#800080;" x="272.253318" xlink:href="#mfc44cdb4dd" y="472.8869"/>
     <use style="fill:#800080;stroke:#800080;" x="280.294767" xlink:href="#mfc44cdb4dd" y="468.678616"/>
     <use style="fill:#800080;stroke:#800080;" x="288.247761" xlink:href="#mfc44cdb4dd" y="464.464889"/>
     <use style="fill:#800080;stroke:#800080;" x="296.096216" xlink:href="#mfc44cdb4dd" y="460.237765"/>
     <use style="fill:#800080;stroke:#800080;" x="311.471467" xlink:href="#mfc44cdb4dd" y="456.789333"/>
     <use style="fill:#800080;stroke:#800080;" x="319.47673" xlink:href="#mfc44cdb4dd" y="452.572675"/>
     <use style="fill:#800080;stroke:#800080;" x="327.502097" xlink:href="#mfc44cdb4dd" y="448.376113"/>
     <use style="fill:#800080;stroke:#800080;" x="335.362614" xlink:href="#mfc44cdb4dd" y="444.151501"/>
     <use style="fill:#800080;stroke:#800080;" x="353.009574" xlink:href="#mfc44cdb4dd" y="440.944631"/>
     <use style="fill:#800080;stroke:#800080;" x="361.332475" xlink:href="#mfc44cdb4dd" y="436.759372"/>
     <use style="fill:#800080;stroke:#800080;" x="369.530732" xlink:href="#mfc44cdb4dd" y="432.570764"/>
     <use style="fill:#800080;stroke:#800080;" x="377.548058" xlink:href="#mfc44cdb4dd" y="428.367504"/>
     <use style="fill:#800080;stroke:#800080;" x="393.827972" xlink:href="#mfc44cdb4dd" y="425.019548"/>
     <use style="fill:#800080;stroke:#800080;" x="402.211183" xlink:href="#mfc44cdb4dd" y="420.847686"/>
     <use style="fill:#800080;stroke:#800080;" x="410.23655" xlink:href="#mfc44cdb4dd" y="416.639401"/>
     <use style="fill:#800080;stroke:#800080;" x="418.410683" xlink:href="#mfc44cdb4dd" y="412.447026"/>
     <use style="fill:#800080;stroke:#800080;" x="434.622245" xlink:href="#mfc44cdb4dd" y="409.091116"/>
     <use style="fill:#800080;stroke:#800080;" x="443.041643" xlink:href="#mfc44cdb4dd" y="404.925952"/>
     <use style="fill:#800080;stroke:#800080;" x="451.058968" xlink:href="#mfc44cdb4dd" y="400.706783"/>
     <use style="fill:#800080;stroke:#800080;" x="459.007941" xlink:href="#mfc44cdb4dd" y="396.49473"/>
     <use style="fill:#800080;stroke:#800080;" x="475.416519" xlink:href="#mfc44cdb4dd" y="393.162683"/>
     <use style="fill:#800080;stroke:#800080;" x="483.638901" xlink:href="#mfc44cdb4dd" y="388.972401"/>
     <use style="fill:#800080;stroke:#800080;" x="491.591894" xlink:href="#mfc44cdb4dd" y="384.755325"/>
     <use style="fill:#800080;stroke:#800080;" x="499.532826" xlink:href="#mfc44cdb4dd" y="380.535318"/>
     <use style="fill:#800080;stroke:#800080;" x="516.158522" xlink:href="#mfc44cdb4dd" y="377.221691"/>
     <use style="fill:#800080;stroke:#800080;" x="524.618127" xlink:href="#mfc44cdb4dd" y="373.067413"/>
     <use style="fill:#800080;stroke:#800080;" x="532.67968" xlink:href="#mfc44cdb4dd" y="368.864571"/>
     <use style="fill:#800080;stroke:#800080;" x="540.520094" xlink:href="#mfc44cdb4dd" y="364.634098"/>
     <use style="fill:#800080;stroke:#800080;" x="556.301438" xlink:href="#mfc44cdb4dd" y="361.236323"/>
     <use style="fill:#800080;stroke:#800080;" x="564.371033" xlink:href="#mfc44cdb4dd" y="357.034318"/>
     <use style="fill:#800080;stroke:#800080;" x="572.143094" xlink:href="#mfc44cdb4dd" y="352.800077"/>
     <use style="fill:#800080;stroke:#800080;" x="579.802574" xlink:href="#mfc44cdb4dd" y="348.552858"/>
     <use style="fill:#800080;stroke:#800080;" x="597.115815" xlink:href="#mfc44cdb4dd" y="345.31124"/>
     <use style="fill:#800080;stroke:#800080;" x="605.141182" xlink:href="#mfc44cdb4dd" y="341.103792"/>
     <use style="fill:#800080;stroke:#800080;" x="612.909222" xlink:href="#mfc44cdb4dd" y="336.869133"/>
     <use style="fill:#800080;stroke:#800080;" x="620.580765" xlink:href="#mfc44cdb4dd" y="332.623588"/>
     <use style="fill:#800080;stroke:#800080;" x="638.038752" xlink:href="#mfc44cdb4dd" y="329.396204"/>
     <use style="fill:#800080;stroke:#800080;" x="646.108346" xlink:href="#mfc44cdb4dd" y="325.188757"/>
     <use style="fill:#800080;stroke:#800080;" x="653.904532" xlink:href="#mfc44cdb4dd" y="320.96247"/>
     <use style="fill:#800080;stroke:#800080;" x="661.668551" xlink:href="#mfc44cdb4dd" y="316.726973"/>
     <use style="fill:#800080;stroke:#800080;" x="678.13744" xlink:href="#mfc44cdb4dd" y="313.397438"/>
     <use style="fill:#800080;stroke:#800080;" x="686.142703" xlink:href="#mfc44cdb4dd" y="309.180781"/>
     <use style="fill:#800080;stroke:#800080;" x="693.926826" xlink:href="#mfc44cdb4dd" y="304.950726"/>
     <use style="fill:#800080;stroke:#800080;" x="701.6627" xlink:href="#mfc44cdb4dd" y="300.714392"/>
     <use style="fill:#800080;stroke:#800080;" x="718.517578" xlink:href="#mfc44cdb4dd" y="297.426304"/>
     <use style="fill:#800080;stroke:#800080;" x="726.526862" xlink:href="#mfc44cdb4dd" y="293.215926"/>
     <use style="fill:#800080;stroke:#800080;" x="734.290881" xlink:href="#mfc44cdb4dd" y="288.979592"/>
     <use style="fill:#800080;stroke:#800080;" x="742.288103" xlink:href="#mfc44cdb4dd" y="284.765027"/>
     <use style="fill:#800080;stroke:#800080;" x="759.038442" xlink:href="#mfc44cdb4dd" y="281.469403"/>
     <use style="fill:#800080;stroke:#800080;" x="767.011539" xlink:href="#mfc44cdb4dd" y="277.255676"/>
     <use style="fill:#800080;stroke:#800080;" x="774.823808" xlink:href="#mfc44cdb4dd" y="273.025203"/>
     <use style="fill:#800080;stroke:#800080;" x="782.595869" xlink:href="#mfc44cdb4dd" y="268.790544"/>
     <use style="fill:#800080;stroke:#800080;" x="799.498995" xlink:href="#mfc44cdb4dd" y="265.504548"/>
     <use style="fill:#800080;stroke:#800080;" x="807.480134" xlink:href="#mfc44cdb4dd" y="261.293333"/>
     <use style="fill:#800080;stroke:#800080;" x="815.207967" xlink:href="#mfc44cdb4dd" y="257.054068"/>
     <use style="fill:#800080;stroke:#800080;" x="822.976007" xlink:href="#mfc44cdb4dd" y="252.817734"/>
     <use style="fill:#800080;stroke:#800080;" x="840.63503" xlink:href="#mfc44cdb4dd" y="249.612957"/>
     <use style="fill:#800080;stroke:#800080;" x="848.616169" xlink:href="#mfc44cdb4dd" y="245.39923"/>
     <use style="fill:#800080;stroke:#800080;" x="856.408333" xlink:href="#mfc44cdb4dd" y="241.167501"/>
     <use style="fill:#800080;stroke:#800080;" x="864.180394" xlink:href="#mfc44cdb4dd" y="236.929911"/>
     <use style="fill:#800080;stroke:#800080;" x="880.512578" xlink:href="#mfc44cdb4dd" y="233.586142"/>
     <use style="fill:#800080;stroke:#800080;" x="888.537945" xlink:href="#mfc44cdb4dd" y="229.379951"/>
     <use style="fill:#800080;stroke:#800080;" x="896.330109" xlink:href="#mfc44cdb4dd" y="225.147384"/>
     <use style="fill:#800080;stroke:#800080;" x="904.065984" xlink:href="#mfc44cdb4dd" y="220.899747"/>
     <use style="fill:#800080;stroke:#800080;" x="921.194271" xlink:href="#mfc44cdb4dd" y="217.639289"/>
     <use style="fill:#800080;stroke:#800080;" x="929.074892" xlink:href="#mfc44cdb4dd" y="213.42305"/>
     <use style="fill:#800080;stroke:#800080;" x="936.838911" xlink:href="#mfc44cdb4dd" y="209.177924"/>
     <use style="fill:#800080;stroke:#800080;" x="944.691387" xlink:href="#mfc44cdb4dd" y="204.954568"/>
     <use style="fill:#800080;stroke:#800080;" x="962.330306" xlink:href="#mfc44cdb4dd" y="201.749791"/>
     <use style="fill:#800080;stroke:#800080;" x="970.596916" xlink:href="#mfc44cdb4dd" y="197.566626"/>
     <use style="fill:#800080;stroke:#800080;" x="978.650428" xlink:href="#mfc44cdb4dd" y="193.361272"/>
     <use style="fill:#800080;stroke:#800080;" x="986.900955" xlink:href="#mfc44cdb4dd" y="189.175595"/>
     <use style="fill:#800080;stroke:#800080;" x="1002.995916" xlink:href="#mfc44cdb4dd" y="185.807543"/>
     <use style="fill:#800080;stroke:#800080;" x="1011.543977" xlink:href="#mfc44cdb4dd" y="181.657033"/>
     <use style="fill:#800080;stroke:#800080;" x="1019.585427" xlink:href="#mfc44cdb4dd" y="177.449167"/>
     <use style="fill:#800080;stroke:#800080;" x="1027.775643" xlink:href="#mfc44cdb4dd" y="173.26014"/>
     <use style="fill:#800080;stroke:#800080;" x="1044.200303" xlink:href="#mfc44cdb4dd" y="169.923907"/>
     <use style="fill:#800080;stroke:#800080;" x="1052.555369" xlink:href="#mfc44cdb4dd" y="165.754557"/>
     <use style="fill:#800080;stroke:#800080;" x="1060.962705" xlink:href="#mfc44cdb4dd" y="161.585207"/>
     <use style="fill:#800080;stroke:#800080;" x="1068.774973" xlink:href="#mfc44cdb4dd" y="157.356409"/>
     <use style="fill:#800080;stroke:#800080;" x="1083.933105" xlink:href="#mfc44cdb4dd" y="153.892486"/>
     <use style="fill:#800080;stroke:#800080;" x="1092.11528" xlink:href="#mfc44cdb4dd" y="149.700529"/>
     <use style="fill:#800080;stroke:#800080;" x="1099.915486" xlink:href="#mfc44cdb4dd" y="145.467544"/>
     <use style="fill:#800080;stroke:#800080;" x="1107.900646" xlink:href="#mfc44cdb4dd" y="141.254655"/>
     <use style="fill:#800080;stroke:#800080;" x="1124.341389" xlink:href="#mfc44cdb4dd" y="137.920933"/>
     <use style="fill:#800080;stroke:#800080;" x="1132.322528" xlink:href="#mfc44cdb4dd" y="133.708881"/>
     <use style="fill:#800080;stroke:#800080;" x="1140.239335" xlink:href="#mfc44cdb4dd" y="129.491386"/>
     <use style="fill:#800080;stroke:#800080;" x="1148.003354" xlink:href="#mfc44cdb4dd" y="125.255889"/>
     <use style="fill:#800080;stroke:#800080;" x="1164.922564" xlink:href="#mfc44cdb4dd" y="121.97115"/>
     <use style="fill:#800080;stroke:#800080;" x="1173.16907" xlink:href="#mfc44cdb4dd" y="117.784635"/>
     <use style="fill:#800080;stroke:#800080;" x="1181.053712" xlink:href="#mfc44cdb4dd" y="113.562954"/>
     <use style="fill:#800080;stroke:#800080;" x="1188.97856" xlink:href="#mfc44cdb4dd" y="109.345459"/>
     <use style="fill:#800080;stroke:#800080;" x="1207.059759" xlink:href="#mfc44cdb4dd" y="106.182128"/>
     <use style="fill:#800080;stroke:#800080;" x="1215.623903" xlink:href="#mfc44cdb4dd" y="102.024501"/>
     <use style="fill:#800080;stroke:#800080;" x="1223.814119" xlink:href="#mfc44cdb4dd" y="97.837567"/>
     <use style="fill:#800080;stroke:#800080;" x="1245.272727" xlink:href="#mfc44cdb4dd" y="95.028416"/>
    </g>
   </g>
   <g id="line2d_14">
    <path clip-path="url(#pa5cce8abda)" d="M 230.727273 487.435328 
L 240.280515 483.686187 
L 248.543104 480.443558 
L 256.757445 477.219865 
L 272.253318 471.138556 
L 280.294767 467.982713 
L 288.247761 464.861585 
L 296.096216 461.781482 
L 311.471467 455.747511 
L 319.47673 452.605869 
L 327.502097 449.456338 
L 335.362614 446.371502 
L 353.009574 439.446005 
L 361.332475 436.179707 
L 369.530732 432.962326 
L 377.548058 429.81595 
L 393.827972 423.426947 
L 402.211183 420.136981 
L 410.23655 416.987449 
L 418.410683 413.779535 
L 434.622245 407.417356 
L 443.041643 404.113189 
L 451.058968 400.966814 
L 459.007941 397.847263 
L 475.416519 391.407766 
L 483.638901 388.180916 
L 491.591894 385.059788 
L 499.532826 381.943393 
L 516.158522 375.418688 
L 524.618127 372.098742 
L 532.67968 368.935009 
L 540.520094 365.858062 
L 556.301438 359.664721 
L 564.371033 356.497833 
L 572.143094 353.447711 
L 579.802574 350.44177 
L 597.115815 343.647241 
L 605.141182 340.49771 
L 612.909222 337.449166 
L 620.580765 334.438492 
L 638.038752 327.587157 
L 646.108346 324.420269 
L 653.904532 321.360679 
L 661.668551 318.313713 
L 678.13744 311.850547 
L 686.142703 308.708905 
L 693.926826 305.654049 
L 701.6627 302.618129 
L 718.517578 296.003482 
L 726.526862 292.860263 
L 734.290881 289.813297 
L 742.288103 286.674811 
L 759.038442 280.10119 
L 767.011539 276.972172 
L 774.823808 273.906271 
L 782.595869 270.856149 
L 799.498995 264.222567 
L 807.480134 261.090393 
L 815.207967 258.057628 
L 822.976007 255.009084 
L 840.63503 248.078854 
L 848.616169 244.94668 
L 856.408333 241.888668 
L 864.180394 238.838546 
L 880.512578 232.429029 
L 888.537945 229.279498 
L 896.330109 226.221486 
L 904.065984 223.185566 
L 921.194271 216.46362 
L 929.074892 213.370894 
L 936.838911 210.323928 
L 944.691387 207.242248 
L 962.330306 200.319907 
L 970.596916 197.0757 
L 978.650428 193.915124 
L 986.900955 190.677229 
L 1002.995916 184.36081 
L 1011.543977 181.006149 
L 1019.585427 177.850306 
L 1027.775643 174.63608 
L 1044.200303 168.190271 
L 1052.555369 164.91135 
L 1060.962705 161.611917 
L 1068.774973 158.546016 
L 1083.933105 152.597252 
L 1092.11528 149.386182 
L 1099.915486 146.325014 
L 1107.900646 143.191262 
L 1124.341389 136.739142 
L 1132.322528 133.606968 
L 1140.239335 130.500041 
L 1148.003354 127.453074 
L 1164.922564 120.813181 
L 1173.16907 117.576864 
L 1181.053712 114.482561 
L 1188.97856 111.372477 
L 1207.059759 104.276565 
L 1215.623903 100.915592 
L 1223.814119 97.701366 
L 1245.272727 89.28 
" style="fill:none;stroke:#0000ff;stroke-linecap:square;stroke-width:1.5;"/>
   </g>
   <g id="line2d_15">
    <path clip-path="url(#pa5cce8abda)" d="M 230.727273 492.48 
L 240.280515 492.470527 
L 248.543104 492.462334 
L 256.757445 492.454188 
L 272.253318 492.438822 
L 280.294767 492.430848 
L 288.247761 492.422962 
L 296.096216 492.415179 
L 311.471467 492.399933 
L 319.47673 492.391995 
L 327.502097 492.384037 
L 335.362614 492.376242 
L 353.009574 492.358743 
L 361.332475 492.35049 
L 369.530732 492.342361 
L 377.548058 492.334411 
L 393.827972 492.318267 
L 402.211183 492.309954 
L 410.23655 492.301996 
L 418.410683 492.293891 
L 434.622245 492.277815 
L 443.041643 492.269466 
L 451.058968 492.261516 
L 459.007941 492.253634 
L 475.416519 492.237363 
L 483.638901 492.229209 
L 491.591894 492.221323 
L 499.532826 492.213449 
L 516.158522 492.196963 
L 524.618127 492.188574 
L 532.67968 492.18058 
L 540.520094 492.172805 
L 556.301438 492.157156 
L 564.371033 492.149154 
L 572.143094 492.141448 
L 579.802574 492.133852 
L 597.115815 492.116684 
L 605.141182 492.108726 
L 612.909222 492.101023 
L 620.580765 492.093416 
L 638.038752 492.076105 
L 646.108346 492.068103 
L 653.904532 492.060372 
L 661.668551 492.052673 
L 678.13744 492.036342 
L 686.142703 492.028404 
L 693.926826 492.020685 
L 701.6627 492.013014 
L 718.517578 491.996301 
L 726.526862 491.988359 
L 734.290881 491.98066 
L 742.288103 491.97273 
L 759.038442 491.95612 
L 767.011539 491.948213 
L 774.823808 491.940467 
L 782.595869 491.93276 
L 799.498995 491.915998 
L 807.480134 491.908084 
L 815.207967 491.900421 
L 822.976007 491.892718 
L 840.63503 491.875207 
L 848.616169 491.867293 
L 856.408333 491.859566 
L 864.180394 491.85186 
L 880.512578 491.835664 
L 888.537945 491.827706 
L 896.330109 491.819979 
L 904.065984 491.812308 
L 921.194271 491.795324 
L 929.074892 491.787509 
L 936.838911 491.77981 
L 944.691387 491.772024 
L 962.330306 491.754533 
L 970.596916 491.746336 
L 978.650428 491.73835 
L 986.900955 491.730168 
L 1002.995916 491.714208 
L 1011.543977 491.705732 
L 1019.585427 491.697758 
L 1027.775643 491.689636 
L 1044.200303 491.673349 
L 1052.555369 491.665064 
L 1060.962705 491.656728 
L 1068.774973 491.648981 
L 1083.933105 491.63395 
L 1092.11528 491.625836 
L 1099.915486 491.618102 
L 1107.900646 491.610183 
L 1124.341389 491.59388 
L 1132.322528 491.585966 
L 1140.239335 491.578116 
L 1148.003354 491.570417 
L 1164.922564 491.55364 
L 1173.16907 491.545462 
L 1181.053712 491.537644 
L 1188.97856 491.529785 
L 1207.059759 491.511856 
L 1215.623903 491.503364 
L 1223.814119 491.495242 
L 1245.272727 491.473963 
" style="fill:none;stroke:#008000;stroke-linecap:square;stroke-width:1.5;"/>
    <defs>
     <path d="M 0 3 
C 0.795609 3 1.55874 2.683901 2.12132 2.12132 
C 2.683901 1.55874 3 0.795609 3 0 
C 3 -0.795609 2.683901 -1.55874 2.12132 -2.12132 
C 1.55874 -2.683901 0.795609 -3 0 -3 
C -0.795609 -3 -1.55874 -2.683901 -2.12132 -2.12132 
C -2.683901 -1.55874 -3 -0.795609 -3 0 
C -3 0.795609 -2.683901 1.55874 -2.12132 2.12132 
C -1.55874 2.683901 -0.795609 3 0 3 
z
" id="m144dc41b1b" style="stroke:#008000;"/>
    </defs>
    <g clip-path="url(#pa5cce8abda)">
     <use style="fill:#008000;stroke:#008000;" x="230.727273" xlink:href="#m144dc41b1b" y="492.48"/>
     <use style="fill:#008000;stroke:#008000;" x="240.280515" xlink:href="#m144dc41b1b" y="492.470527"/>
     <use style="fill:#008000;stroke:#008000;" x="248.543104" xlink:href="#m144dc41b1b" y="492.462334"/>
     <use style="fill:#008000;stroke:#008000;" x="256.757445" xlink:href="#m144dc41b1b" y="492.454188"/>
     <use style="fill:#008000;stroke:#008000;" x="272.253318" xlink:href="#m144dc41b1b" y="492.438822"/>
     <use style="fill:#008000;stroke:#008000;" x="280.294767" xlink:href="#m144dc41b1b" y="492.430848"/>
     <use style="fill:#008000;stroke:#008000;" x="288.247761" xlink:href="#m144dc41b1b" y="492.422962"/>
     <use style="fill:#008000;stroke:#008000;" x="296.096216" xlink:href="#m144dc41b1b" y="492.415179"/>
     <use style="fill:#008000;stroke:#008000;" x="311.471467" xlink:href="#m144dc41b1b" y="492.399933"/>
     <use style="fill:#008000;stroke:#008000;" x="319.47673" xlink:href="#m144dc41b1b" y="492.391995"/>
     <use style="fill:#008000;stroke:#008000;" x="327.502097" xlink:href="#m144dc41b1b" y="492.384037"/>
     <use style="fill:#008000;stroke:#008000;" x="335.362614" xlink:href="#m144dc41b1b" y="492.376242"/>
     <use style="fill:#008000;stroke:#008000;" x="353.009574" xlink:href="#m144dc41b1b" y="492.358743"/>
     <use style="fill:#008000;stroke:#008000;" x="361.332475" xlink:href="#m144dc41b1b" y="492.35049"/>
     <use style="fill:#008000;stroke:#008000;" x="369.530732" xlink:href="#m144dc41b1b" y="492.342361"/>
     <use style="fill:#008000;stroke:#008000;" x="377.548058" xlink:href="#m144dc41b1b" y="492.334411"/>
     <use style="fill:#008000;stroke:#008000;" x="393.827972" xlink:href="#m144dc41b1b" y="492.318267"/>
     <use style="fill:#008000;stroke:#008000;" x="402.211183" xlink:href="#m144dc41b1b" y="492.309954"/>
     <use style="fill:#008000;stroke:#008000;" x="410.23655" xlink:href="#m144dc41b1b" y="492.301996"/>
     <use style="fill:#008000;stroke:#008000;" x="418.410683" xlink:href="#m144dc41b1b" y="492.293891"/>
     <use style="fill:#008000;stroke:#008000;" x="434.622245" xlink:href="#m144dc41b1b" y="492.277815"/>
     <use style="fill:#008000;stroke:#008000;" x="443.041643" xlink:href="#m144dc41b1b" y="492.269466"/>
     <use style="fill:#008000;stroke:#008000;" x="451.058968" xlink:href="#m144dc41b1b" y="492.261516"/>
     <use style="fill:#008000;stroke:#008000;" x="459.007941" xlink:href="#m144dc41b1b" y="492.253634"/>
     <use style="fill:#008000;stroke:#008000;" x="475.416519" xlink:href="#m144dc41b1b" y="492.237363"/>
     <use style="fill:#008000;stroke:#008000;" x="483.638901" xlink:href="#m144dc41b1b" y="492.229209"/>
     <use style="fill:#008000;stroke:#008000;" x="491.591894" xlink:href="#m144dc41b1b" y="492.221323"/>
     <use style="fill:#008000;stroke:#008000;" x="499.532826" xlink:href="#m144dc41b1b" y="492.213449"/>
     <use style="fill:#008000;stroke:#008000;" x="516.158522" xlink:href="#m144dc41b1b" y="492.196963"/>
     <use style="fill:#008000;stroke:#008000;" x="524.618127" xlink:href="#m144dc41b1b" y="492.188574"/>
     <use style="fill:#008000;stroke:#008000;" x="532.67968" xlink:href="#m144dc41b1b" y="492.18058"/>
     <use style="fill:#008000;stroke:#008000;" x="540.520094" xlink:href="#m144dc41b1b" y="492.172805"/>
     <use style="fill:#008000;stroke:#008000;" x="556.301438" xlink:href="#m144dc41b1b" y="492.157156"/>
     <use style="fill:#008000;stroke:#008000;" x="564.371033" xlink:href="#m144dc41b1b" y="492.149154"/>
     <use style="fill:#008000;stroke:#008000;" x="572.143094" xlink:href="#m144dc41b1b" y="492.141448"/>
     <use style="fill:#008000;stroke:#008000;" x="579.802574" xlink:href="#m144dc41b1b" y="492.133852"/>
     <use style="fill:#008000;stroke:#008000;" x="597.115815" xlink:href="#m144dc41b1b" y="492.116684"/>
     <use style="fill:#008000;stroke:#008000;" x="605.141182" xlink:href="#m144dc41b1b" y="492.108726"/>
     <use style="fill:#008000;stroke:#008000;" x="612.909222" xlink:href="#m144dc41b1b" y="492.101023"/>
     <use style="fill:#008000;stroke:#008000;" x="620.580765" xlink:href="#m144dc41b1b" y="492.093416"/>
     <use style="fill:#008000;stroke:#008000;" x="638.038752" xlink:href="#m144dc41b1b" y="492.076105"/>
     <use style="fill:#008000;stroke:#008000;" x="646.108346" xlink:href="#m144dc41b1b" y="492.068103"/>
     <use style="fill:#008000;stroke:#008000;" x="653.904532" xlink:href="#m144dc41b1b" y="492.060372"/>
     <use style="fill:#008000;stroke:#008000;" x="661.668551" xlink:href="#m144dc41b1b" y="492.052673"/>
     <use style="fill:#008000;stroke:#008000;" x="678.13744" xlink:href="#m144dc41b1b" y="492.036342"/>
     <use style="fill:#008000;stroke:#008000;" x="686.142703" xlink:href="#m144dc41b1b" y="492.028404"/>
     <use style="fill:#008000;stroke:#008000;" x="693.926826" xlink:href="#m144dc41b1b" y="492.020685"/>
     <use style="fill:#008000;stroke:#008000;" x="701.6627" xlink:href="#m144dc41b1b" y="492.013014"/>
     <use style="fill:#008000;stroke:#008000;" x="718.517578" xlink:href="#m144dc41b1b" y="491.996301"/>
     <use style="fill:#008000;stroke:#008000;" x="726.526862" xlink:href="#m144dc41b1b" y="491.988359"/>
     <use style="fill:#008000;stroke:#008000;" x="734.290881" xlink:href="#m144dc41b1b" y="491.98066"/>
     <use style="fill:#008000;stroke:#008000;" x="742.288103" xlink:href="#m144dc41b1b" y="491.97273"/>
     <use style="fill:#008000;stroke:#008000;" x="759.038442" xlink:href="#m144dc41b1b" y="491.95612"/>
     <use style="fill:#008000;stroke:#008000;" x="767.011539" xlink:href="#m144dc41b1b" y="491.948213"/>
     <use style="fill:#008000;stroke:#008000;" x="774.823808" xlink:href="#m144dc41b1b" y="491.940467"/>
     <use style="fill:#008000;stroke:#008000;" x="782.595869" xlink:href="#m144dc41b1b" y="491.93276"/>
     <use style="fill:#008000;stroke:#008000;" x="799.498995" xlink:href="#m144dc41b1b" y="491.915998"/>
     <use style="fill:#008000;stroke:#008000;" x="807.480134" xlink:href="#m144dc41b1b" y="491.908084"/>
     <use style="fill:#008000;stroke:#008000;" x="815.207967" xlink:href="#m144dc41b1b" y="491.900421"/>
     <use style="fill:#008000;stroke:#008000;" x="822.976007" xlink:href="#m144dc41b1b" y="491.892718"/>
     <use style="fill:#008000;stroke:#008000;" x="840.63503" xlink:href="#m144dc41b1b" y="491.875207"/>
     <use style="fill:#008000;stroke:#008000;" x="848.616169" xlink:href="#m144dc41b1b" y="491.867293"/>
     <use style="fill:#008000;stroke:#008000;" x="856.408333" xlink:href="#m144dc41b1b" y="491.859566"/>
     <use style="fill:#008000;stroke:#008000;" x="864.180394" xlink:href="#m144dc41b1b" y="491.85186"/>
     <use style="fill:#008000;stroke:#008000;" x="880.512578" xlink:href="#m144dc41b1b" y="491.835664"/>
     <use style="fill:#008000;stroke:#008000;" x="888.537945" xlink:href="#m144dc41b1b" y="491.827706"/>
     <use style="fill:#008000;stroke:#008000;" x="896.330109" xlink:href="#m144dc41b1b" y="491.819979"/>
     <use style="fill:#008000;stroke:#008000;" x="904.065984" xlink:href="#m144dc41b1b" y="491.812308"/>
     <use style="fill:#008000;stroke:#008000;" x="921.194271" xlink:href="#m144dc41b1b" y="491.795324"/>
     <use style="fill:#008000;stroke:#008000;" x="929.074892" xlink:href="#m144dc41b1b" y="491.787509"/>
     <use style="fill:#008000;stroke:#008000;" x="936.838911" xlink:href="#m144dc41b1b" y="491.77981"/>
     <use style="fill:#008000;stroke:#008000;" x="944.691387" xlink:href="#m144dc41b1b" y="491.772024"/>
     <use style="fill:#008000;stroke:#008000;" x="962.330306" xlink:href="#m144dc41b1b" y="491.754533"/>
     <use style="fill:#008000;stroke:#008000;" x="970.596916" xlink:href="#m144dc41b1b" y="491.746336"/>
     <use style="fill:#008000;stroke:#008000;" x="978.650428" xlink:href="#m144dc41b1b" y="491.73835"/>
     <use style="fill:#008000;stroke:#008000;" x="986.900955" xlink:href="#m144dc41b1b" y="491.730168"/>
     <use style="fill:#008000;stroke:#008000;" x="1002.995916" xlink:href="#m144dc41b1b" y="491.714208"/>
     <use style="fill:#008000;stroke:#008000;" x="1011.543977" xlink:href="#m144dc41b1b" y="491.705732"/>
     <use style="fill:#008000;stroke:#008000;" x="1019.585427" xlink:href="#m144dc41b1b" y="491.697758"/>
     <use style="fill:#008000;stroke:#008000;" x="1027.775643" xlink:href="#m144dc41b1b" y="491.689636"/>
     <use style="fill:#008000;stroke:#008000;" x="1044.200303" xlink:href="#m144dc41b1b" y="491.673349"/>
     <use style="fill:#008000;stroke:#008000;" x="1052.555369" xlink:href="#m144dc41b1b" y="491.665064"/>
     <use style="fill:#008000;stroke:#008000;" x="1060.962705" xlink:href="#m144dc41b1b" y="491.656728"/>
     <use style="fill:#008000;stroke:#008000;" x="1068.774973" xlink:href="#m144dc41b1b" y="491.648981"/>
     <use style="fill:#008000;stroke:#008000;" x="1083.933105" xlink:href="#m144dc41b1b" y="491.63395"/>
     <use style="fill:#008000;stroke:#008000;" x="1092.11528" xlink:href="#m144dc41b1b" y="491.625836"/>
     <use style="fill:#008000;stroke:#008000;" x="1099.915486" xlink:href="#m144dc41b1b" y="491.618102"/>
     <use style="fill:#008000;stroke:#008000;" x="1107.900646" xlink:href="#m144dc41b1b" y="491.610183"/>
     <use style="fill:#008000;stroke:#008000;" x="1124.341389" xlink:href="#m144dc41b1b" y="491.59388"/>
     <use style="fill:#008000;stroke:#008000;" x="1132.322528" xlink:href="#m144dc41b1b" y="491.585966"/>
     <use style="fill:#008000;stroke:#008000;" x="1140.239335" xlink:href="#m144dc41b1b" y="491.578116"/>
     <use style="fill:#008000;stroke:#008000;" x="1148.003354" xlink:href="#m144dc41b1b" y="491.570417"/>
     <use style="fill:#008000;stroke:#008000;" x="1164.922564" xlink:href="#m144dc41b1b" y="491.55364"/>
     <use style="fill:#008000;stroke:#008000;" x="1173.16907" xlink:href="#m144dc41b1b" y="491.545462"/>
     <use style="fill:#008000;stroke:#008000;" x="1181.053712" xlink:href="#m144dc41b1b" y="491.537644"/>
     <use style="fill:#008000;stroke:#008000;" x="1188.97856" xlink:href="#m144dc41b1b" y="491.529785"/>
     <use style="fill:#008000;stroke:#008000;" x="1207.059759" xlink:href="#m144dc41b1b" y="491.511856"/>
     <use style="fill:#008000;stroke:#008000;" x="1215.623903" xlink:href="#m144dc41b1b" y="491.503364"/>
     <use style="fill:#008000;stroke:#008000;" x="1223.814119" xlink:href="#m144dc41b1b" y="491.495242"/>
     <use style="fill:#008000;stroke:#008000;" x="1245.272727" xlink:href="#m144dc41b1b" y="491.473963"/>
    </g>
   </g>
   <g id="patch_3">
    <path d="M 180 512.64 
L 180 69.12 
" style="fill:none;stroke:#000000;stroke-linecap:square;stroke-linejoin:miter;stroke-width:0.8;"/>
   </g>
   <g id="patch_4">
    <path d="M 1296 512.64 
L 1296 69.12 
" style="fill:none;stroke:#000000;stroke-linecap:square;stroke-linejoin:miter;stroke-width:0.8;"/>
   </g>
   <g id="patch_5">
    <path d="M 180 512.64 
L 1296 512.64 
" style="fill:none;stroke:#000000;stroke-linecap:square;stroke-linejoin:miter;stroke-width:0.8;"/>
   </g>
   <g id="patch_6">
    <path d="M 180 69.12 
L 1296 69.12 
" style="fill:none;stroke:#000000;stroke-linecap:square;stroke-linejoin:miter;stroke-width:0.8;"/>
   </g>
   <g id="text_12">
    <!-- 5000000.0 bit/s -->
    <defs>
     <path id="DejaVuSans-20"/>
     <path d="M 48.6875 27.296875 
Q 48.6875 37.203125 44.609375 42.84375 
Q 40.53125 48.484375 33.40625 48.484375 
Q 26.265625 48.484375 22.1875 42.84375 
Q 18.109375 37.203125 18.109375 27.296875 
Q 18.109375 17.390625 22.1875 11.75 
Q 26.265625 6.109375 33.40625 6.109375 
Q 40.53125 6.109375 44.609375 11.75 
Q 48.6875 17.390625 48.6875 27.296875 
z
M 18.109375 46.390625 
Q 20.953125 51.265625 25.265625 53.625 
Q 29.59375 56 35.59375 56 
Q 45.5625 56 51.78125 48.09375 
Q 58.015625 40.1875 58.015625 27.296875 
Q 58.015625 14.40625 51.78125 6.484375 
Q 45.5625 -1.421875 35.59375 -1.421875 
Q 29.59375 -1.421875 25.265625 0.953125 
Q 20.953125 3.328125 18.109375 8.203125 
L 18.109375 0 
L 9.078125 0 
L 9.078125 75.984375 
L 18.109375 75.984375 
z
" id="DejaVuSans-62"/>
     <path d="M 9.421875 54.6875 
L 18.40625 54.6875 
L 18.40625 0 
L 9.421875 0 
z
M 9.421875 75.984375 
L 18.40625 75.984375 
L 18.40625 64.59375 
L 9.421875 64.59375 
z
" id="DejaVuSans-69"/>
     <path d="M 18.3125 70.21875 
L 18.3125 54.6875 
L 36.8125 54.6875 
L 36.8125 47.703125 
L 18.3125 47.703125 
L 18.3125 18.015625 
Q 18.3125 11.328125 20.140625 9.421875 
Q 21.96875 7.515625 27.59375 7.515625 
L 36.8125 7.515625 
L 36.8125 0 
L 27.59375 0 
Q 17.1875 0 13.234375 3.875 
Q 9.28125 7.765625 9.28125 18.015625 
L 9.28125 47.703125 
L 2.6875 47.703125 
L 2.6875 54.6875 
L 9.28125 54.6875 
L 9.28125 70.21875 
z
" id="DejaVuSans-74"/>
     <path d="M 25.390625 72.90625 
L 33.6875 72.90625 
L 8.296875 -9.28125 
L 0 -9.28125 
z
" id="DejaVuSans-2f"/>
     <path d="M 44.28125 53.078125 
L 44.28125 44.578125 
Q 40.484375 46.53125 36.375 47.5 
Q 32.28125 48.484375 27.875 48.484375 
Q 21.1875 48.484375 17.84375 46.4375 
Q 14.5 44.390625 14.5 40.28125 
Q 14.5 37.15625 16.890625 35.375 
Q 19.28125 33.59375 26.515625 31.984375 
L 29.59375 31.296875 
Q 39.15625 29.25 43.1875 25.515625 
Q 47.21875 21.78125 47.21875 15.09375 
Q 47.21875 7.46875 41.1875 3.015625 
Q 35.15625 -1.421875 24.609375 -1.421875 
Q 20.21875 -1.421875 15.453125 -0.5625 
Q 10.6875 0.296875 5.421875 2 
L 5.421875 11.28125 
Q 10.40625 8.6875 15.234375 7.390625 
Q 20.0625 6.109375 24.8125 6.109375 
Q 31.15625 6.109375 34.5625 8.28125 
Q 37.984375 10.453125 37.984375 14.40625 
Q 37.984375 18.0625 35.515625 20.015625 
Q 33.0625 21.96875 24.703125 23.78125 
L 21.578125 24.515625 
Q 13.234375 26.265625 9.515625 29.90625 
Q 5.8125 33.546875 5.8125 39.890625 
Q 5.8125 47.609375 11.28125 51.796875 
Q 16.75 56 26.8125 56 
Q 31.78125 56 36.171875 55.265625 
Q 40.578125 54.546875 44.28125 53.078125 
z
" id="DejaVuSans-73"/>
    </defs>
    <g transform="translate(690.67125 63.12)scale(0.12 -0.12)">
     <use xlink:href="#DejaVuSans-35"/>
     <use x="63.623047" xlink:href="#DejaVuSans-30"/>
     <use x="127.246094" xlink:href="#DejaVuSans-30"/>
     <use x="190.869141" xlink:href="#DejaVuSans-30"/>
     <use x="254.492188" xlink:href="#DejaVuSans-30"/>
     <use x="318.115234" xlink:href="#DejaVuSans-30"/>
     <use x="381.738281" xlink:href="#DejaVuSans-30"/>
     <use x="445.361328" xlink:href="#DejaVuSans-2e"/>
     <use x="477.148438" xlink:href="#DejaVuSans-30"/>
     <use x="540.771484" xlink:href="#DejaVuSans-20"/>
     <use x="572.558594" xlink:href="#DejaVuSans-62"/>
     <use x="636.035156" xlink:href="#DejaVuSans-69"/>
     <use x="663.818359" xlink:href="#DejaVuSans-74"/>
     <use x="703.027344" xlink:href="#DejaVuSans-2f"/>
     <use x="736.71875" xlink:href="#DejaVuSans-73"/>
    </g>
   </g>
   <g id="legend_1">
    <g id="patch_7">
     <path d="M 1173.520313 135.8325 
L 1289 135.8325 
Q 1291 135.8325 1291 133.8325 
L 1291 76.12 
Q 1291 74.12 1289 74.12 
L 1173.520313 74.12 
Q 1171.520313 74.12 1171.520313 76.12 
L 1171.520313 133.8325 
Q 1171.520313 135.8325 1173.520313 135.8325 
z
" style="fill:#ffffff;opacity:0.8;stroke:#cccccc;stroke-linejoin:miter;"/>
    </g>
    <g id="line2d_16">
     <path d="M 1175.520313 82.218437 
L 1195.520313 82.218437 
" style="fill:none;stroke:#ff0000;stroke-dasharray:5.55,2.4;stroke-dashoffset:0;stroke-width:1.5;"/>
    </g>
    <g id="line2d_17">
     <g>
      <use style="fill:#ff0000;stroke:#ff0000;stroke-linejoin:miter;" x="1185.520313" xlink:href="#mefcb97bad2" y="82.218437"/>
     </g>
    </g>
    <g id="text_13">
     <!-- tcpdump -->
     <defs>
      <path d="M 48.78125 52.59375 
L 48.78125 44.1875 
Q 44.96875 46.296875 41.140625 47.34375 
Q 37.3125 48.390625 33.40625 48.390625 
Q 24.65625 48.390625 19.8125 42.84375 
Q 14.984375 37.3125 14.984375 27.296875 
Q 14.984375 17.28125 19.8125 11.734375 
Q 24.65625 6.203125 33.40625 6.203125 
Q 37.3125 6.203125 41.140625 7.25 
Q 44.96875 8.296875 48.78125 10.40625 
L 48.78125 2.09375 
Q 45.015625 0.34375 40.984375 -0.53125 
Q 36.96875 -1.421875 32.421875 -1.421875 
Q 20.0625 -1.421875 12.78125 6.34375 
Q 5.515625 14.109375 5.515625 27.296875 
Q 5.515625 40.671875 12.859375 48.328125 
Q 20.21875 56 33.015625 56 
Q 37.15625 56 41.109375 55.140625 
Q 45.0625 54.296875 48.78125 52.59375 
z
" id="DejaVuSans-63"/>
      <path d="M 18.109375 8.203125 
L 18.109375 -20.796875 
L 9.078125 -20.796875 
L 9.078125 54.6875 
L 18.109375 54.6875 
L 18.109375 46.390625 
Q 20.953125 51.265625 25.265625 53.625 
Q 29.59375 56 35.59375 56 
Q 45.5625 56 51.78125 48.09375 
Q 58.015625 40.1875 58.015625 27.296875 
Q 58.015625 14.40625 51.78125 6.484375 
Q 45.5625 -1.421875 35.59375 -1.421875 
Q 29.59375 -1.421875 25.265625 0.953125 
Q 20.953125 3.328125 18.109375 8.203125 
z
M 48.6875 27.296875 
Q 48.6875 37.203125 44.609375 42.84375 
Q 40.53125 48.484375 33.40625 48.484375 
Q 26.265625 48.484375 22.1875 42.84375 
Q 18.109375 37.203125 18.109375 27.296875 
Q 18.109375 17.390625 22.1875 11.75 
Q 26.265625 6.109375 33.40625 6.109375 
Q 40.53125 6.109375 44.609375 11.75 
Q 48.6875 17.390625 48.6875 27.296875 
z
" id="DejaVuSans-70"/>
      <path d="M 45.40625 46.390625 
L 45.40625 75.984375 
L 54.390625 75.984375 
L 54.390625 0 
L 45.40625 0 
L 45.40625 8.203125 
Q 42.578125 3.328125 38.25 0.953125 
Q 33.9375 -1.421875 27.875 -1.421875 
Q 17.96875 -1.421875 11.734375 6.484375 
Q 5.515625 14.40625 5.515625 27.296875 
Q 5.515625 40.1875 11.734375 48.09375 
Q 17.96875 56 27.875 56 
Q 33.9375 56 38.25 53.625 
Q 42.578125 51.265625 45.40625 46.390625 
z
M 14.796875 27.296875 
Q 14.796875 17.390625 18.875 11.75 
Q 22.953125 6.109375 30.078125 6.109375 
Q 37.203125 6.109375 41.296875 11.75 
Q 45.40625 17.390625 45.40625 27.296875 
Q 45.40625 37.203125 41.296875 42.84375 
Q 37.203125 48.484375 30.078125 48.484375 
Q 22.953125 48.484375 18.875 42.84375 
Q 14.796875 37.203125 14.796875 27.296875 
z
" id="DejaVuSans-64"/>
      <path d="M 8.5 21.578125 
L 8.5 54.6875 
L 17.484375 54.6875 
L 17.484375 21.921875 
Q 17.484375 14.15625 20.5 10.265625 
Q 23.53125 6.390625 29.59375 6.390625 
Q 36.859375 6.390625 41.078125 11.03125 
Q 45.3125 15.671875 45.3125 23.6875 
L 45.3125 54.6875 
L 54.296875 54.6875 
L 54.296875 0 
L 45.3125 0 
L 45.3125 8.40625 
Q 42.046875 3.421875 37.71875 1 
Q 33.40625 -1.421875 27.6875 -1.421875 
Q 18.265625 -1.421875 13.375 4.4375 
Q 8.5 10.296875 8.5 21.578125 
z
M 31.109375 56 
z
" id="DejaVuSans-75"/>
      <path d="M 52 44.1875 
Q 55.375 50.25 60.0625 53.125 
Q 64.75 56 71.09375 56 
Q 79.640625 56 84.28125 50.015625 
Q 88.921875 44.046875 88.921875 33.015625 
L 88.921875 0 
L 79.890625 0 
L 79.890625 32.71875 
Q 79.890625 40.578125 77.09375 44.375 
Q 74.3125 48.1875 68.609375 48.1875 
Q 61.625 48.1875 57.5625 43.546875 
Q 53.515625 38.921875 53.515625 30.90625 
L 53.515625 0 
L 44.484375 0 
L 44.484375 32.71875 
Q 44.484375 40.625 41.703125 44.40625 
Q 38.921875 48.1875 33.109375 48.1875 
Q 26.21875 48.1875 22.15625 43.53125 
Q 18.109375 38.875 18.109375 30.90625 
L 18.109375 0 
L 9.078125 0 
L 9.078125 54.6875 
L 18.109375 54.6875 
L 18.109375 46.1875 
Q 21.1875 51.21875 25.484375 53.609375 
Q 29.78125 56 35.6875 56 
Q 41.65625 56 45.828125 52.96875 
Q 50 49.953125 52 44.1875 
z
" id="DejaVuSans-6d"/>
     </defs>
     <g transform="translate(1203.520313 85.718437)scale(0.1 -0.1)">
      <use xlink:href="#DejaVuSans-74"/>
      <use x="39.208984" xlink:href="#DejaVuSans-63"/>
      <use x="94.189453" xlink:href="#DejaVuSans-70"/>
      <use x="157.666016" xlink:href="#DejaVuSans-64"/>
      <use x="221.142578" xlink:href="#DejaVuSans-75"/>
      <use x="284.521484" xlink:href="#DejaVuSans-6d"/>
      <use x="381.933594" xlink:href="#DejaVuSans-70"/>
     </g>
    </g>
    <g id="line2d_18">
     <path d="M 1175.520313 96.896563 
L 1195.520313 96.896563 
" style="fill:none;stroke:#800080;stroke-dasharray:9.6,2.4,1.5,2.4;stroke-dashoffset:0;stroke-width:1.5;"/>
    </g>
    <g id="line2d_19">
     <g>
      <use style="fill:#800080;stroke:#800080;" x="1185.520313" xlink:href="#mfc44cdb4dd" y="96.896563"/>
     </g>
    </g>
    <g id="text_14">
     <!-- filtered tcpdump -->
     <defs>
      <path d="M 37.109375 75.984375 
L 37.109375 68.5 
L 28.515625 68.5 
Q 23.6875 68.5 21.796875 66.546875 
Q 19.921875 64.59375 19.921875 59.515625 
L 19.921875 54.6875 
L 34.71875 54.6875 
L 34.71875 47.703125 
L 19.921875 47.703125 
L 19.921875 0 
L 10.890625 0 
L 10.890625 47.703125 
L 2.296875 47.703125 
L 2.296875 54.6875 
L 10.890625 54.6875 
L 10.890625 58.5 
Q 10.890625 67.625 15.140625 71.796875 
Q 19.390625 75.984375 28.609375 75.984375 
z
" id="DejaVuSans-66"/>
      <path d="M 9.421875 75.984375 
L 18.40625 75.984375 
L 18.40625 0 
L 9.421875 0 
z
" id="DejaVuSans-6c"/>
      <path d="M 56.203125 29.59375 
L 56.203125 25.203125 
L 14.890625 25.203125 
Q 15.484375 15.921875 20.484375 11.0625 
Q 25.484375 6.203125 34.421875 6.203125 
Q 39.59375 6.203125 44.453125 7.46875 
Q 49.3125 8.734375 54.109375 11.28125 
L 54.109375 2.78125 
Q 49.265625 0.734375 44.1875 -0.34375 
Q 39.109375 -1.421875 33.890625 -1.421875 
Q 20.796875 -1.421875 13.15625 6.1875 
Q 5.515625 13.8125 5.515625 26.8125 
Q 5.515625 40.234375 12.765625 48.109375 
Q 20.015625 56 32.328125 56 
Q 43.359375 56 49.78125 48.890625 
Q 56.203125 41.796875 56.203125 29.59375 
z
M 47.21875 32.234375 
Q 47.125 39.59375 43.09375 43.984375 
Q 39.0625 48.390625 32.421875 48.390625 
Q 24.90625 48.390625 20.390625 44.140625 
Q 15.875 39.890625 15.1875 32.171875 
z
" id="DejaVuSans-65"/>
      <path d="M 41.109375 46.296875 
Q 39.59375 47.171875 37.8125 47.578125 
Q 36.03125 48 33.890625 48 
Q 26.265625 48 22.1875 43.046875 
Q 18.109375 38.09375 18.109375 28.8125 
L 18.109375 0 
L 9.078125 0 
L 9.078125 54.6875 
L 18.109375 54.6875 
L 18.109375 46.1875 
Q 20.953125 51.171875 25.484375 53.578125 
Q 30.03125 56 36.53125 56 
Q 37.453125 56 38.578125 55.875 
Q 39.703125 55.765625 41.0625 55.515625 
z
" id="DejaVuSans-72"/>
     </defs>
     <g transform="translate(1203.520313 100.396563)scale(0.1 -0.1)">
      <use xlink:href="#DejaVuSans-66"/>
      <use x="35.205078" xlink:href="#DejaVuSans-69"/>
      <use x="62.988281" xlink:href="#DejaVuSans-6c"/>
      <use x="90.771484" xlink:href="#DejaVuSans-74"/>
      <use x="129.980469" xlink:href="#DejaVuSans-65"/>
      <use x="191.503906" xlink:href="#DejaVuSans-72"/>
      <use x="232.585938" xlink:href="#DejaVuSans-65"/>
      <use x="294.109375" xlink:href="#DejaVuSans-64"/>
      <use x="357.585938" xlink:href="#DejaVuSans-20"/>
      <use x="389.373047" xlink:href="#DejaVuSans-74"/>
      <use x="428.582031" xlink:href="#DejaVuSans-63"/>
      <use x="483.5625" xlink:href="#DejaVuSans-70"/>
      <use x="547.039062" xlink:href="#DejaVuSans-64"/>
      <use x="610.515625" xlink:href="#DejaVuSans-75"/>
      <use x="673.894531" xlink:href="#DejaVuSans-6d"/>
      <use x="771.306641" xlink:href="#DejaVuSans-70"/>
     </g>
    </g>
    <g id="line2d_20">
     <path d="M 1175.520313 111.574687 
L 1195.520313 111.574687 
" style="fill:none;stroke:#0000ff;stroke-linecap:square;stroke-width:1.5;"/>
    </g>
    <g id="line2d_21"/>
    <g id="text_15">
     <!-- OLS -->
     <defs>
      <path d="M 39.40625 66.21875 
Q 28.65625 66.21875 22.328125 58.203125 
Q 16.015625 50.203125 16.015625 36.375 
Q 16.015625 22.609375 22.328125 14.59375 
Q 28.65625 6.59375 39.40625 6.59375 
Q 50.140625 6.59375 56.421875 14.59375 
Q 62.703125 22.609375 62.703125 36.375 
Q 62.703125 50.203125 56.421875 58.203125 
Q 50.140625 66.21875 39.40625 66.21875 
z
M 39.40625 74.21875 
Q 54.734375 74.21875 63.90625 63.9375 
Q 73.09375 53.65625 73.09375 36.375 
Q 73.09375 19.140625 63.90625 8.859375 
Q 54.734375 -1.421875 39.40625 -1.421875 
Q 24.03125 -1.421875 14.8125 8.828125 
Q 5.609375 19.09375 5.609375 36.375 
Q 5.609375 53.65625 14.8125 63.9375 
Q 24.03125 74.21875 39.40625 74.21875 
z
" id="DejaVuSans-4f"/>
      <path d="M 9.8125 72.90625 
L 19.671875 72.90625 
L 19.671875 8.296875 
L 55.171875 8.296875 
L 55.171875 0 
L 9.8125 0 
z
" id="DejaVuSans-4c"/>
      <path d="M 53.515625 70.515625 
L 53.515625 60.890625 
Q 47.90625 63.578125 42.921875 64.890625 
Q 37.9375 66.21875 33.296875 66.21875 
Q 25.25 66.21875 20.875 63.09375 
Q 16.5 59.96875 16.5 54.203125 
Q 16.5 49.359375 19.40625 46.890625 
Q 22.3125 44.4375 30.421875 42.921875 
L 36.375 41.703125 
Q 47.40625 39.59375 52.65625 34.296875 
Q 57.90625 29 57.90625 20.125 
Q 57.90625 9.515625 50.796875 4.046875 
Q 43.703125 -1.421875 29.984375 -1.421875 
Q 24.8125 -1.421875 18.96875 -0.25 
Q 13.140625 0.921875 6.890625 3.21875 
L 6.890625 13.375 
Q 12.890625 10.015625 18.65625 8.296875 
Q 24.421875 6.59375 29.984375 6.59375 
Q 38.421875 6.59375 43.015625 9.90625 
Q 47.609375 13.234375 47.609375 19.390625 
Q 47.609375 24.75 44.3125 27.78125 
Q 41.015625 30.8125 33.5 32.328125 
L 27.484375 33.5 
Q 16.453125 35.6875 11.515625 40.375 
Q 6.59375 45.0625 6.59375 53.421875 
Q 6.59375 63.09375 13.40625 68.65625 
Q 20.21875 74.21875 32.171875 74.21875 
Q 37.3125 74.21875 42.625 73.28125 
Q 47.953125 72.359375 53.515625 70.515625 
z
" id="DejaVuSans-53"/>
     </defs>
     <g transform="translate(1203.520313 115.074687)scale(0.1 -0.1)">
      <use xlink:href="#DejaVuSans-4f"/>
      <use x="78.710938" xlink:href="#DejaVuSans-4c"/>
      <use x="134.423828" xlink:href="#DejaVuSans-53"/>
     </g>
    </g>
    <g id="line2d_22">
     <path d="M 1175.520313 126.252813 
L 1195.520313 126.252813 
" style="fill:none;stroke:#008000;stroke-linecap:square;stroke-width:1.5;"/>
    </g>
    <g id="line2d_23">
     <g>
      <use style="fill:#008000;stroke:#008000;" x="1185.520313" xlink:href="#m144dc41b1b" y="126.252813"/>
     </g>
    </g>
    <g id="text_16">
     <!-- IRLS -->
     <defs>
      <path d="M 9.8125 72.90625 
L 19.671875 72.90625 
L 19.671875 0 
L 9.8125 0 
z
" id="DejaVuSans-49"/>
      <path d="M 44.390625 34.1875 
Q 47.5625 33.109375 50.5625 29.59375 
Q 53.5625 26.078125 56.59375 19.921875 
L 66.609375 0 
L 56 0 
L 46.6875 18.703125 
Q 43.0625 26.03125 39.671875 28.421875 
Q 36.28125 30.8125 30.421875 30.8125 
L 19.671875 30.8125 
L 19.671875 0 
L 9.8125 0 
L 9.8125 72.90625 
L 32.078125 72.90625 
Q 44.578125 72.90625 50.734375 67.671875 
Q 56.890625 62.453125 56.890625 51.90625 
Q 56.890625 45.015625 53.6875 40.46875 
Q 50.484375 35.9375 44.390625 34.1875 
z
M 19.671875 64.796875 
L 19.671875 38.921875 
L 32.078125 38.921875 
Q 39.203125 38.921875 42.84375 42.21875 
Q 46.484375 45.515625 46.484375 51.90625 
Q 46.484375 58.296875 42.84375 61.546875 
Q 39.203125 64.796875 32.078125 64.796875 
z
" id="DejaVuSans-52"/>
     </defs>
     <g transform="translate(1203.520313 129.752813)scale(0.1 -0.1)">
      <use xlink:href="#DejaVuSans-49"/>
      <use x="29.492188" xlink:href="#DejaVuSans-52"/>
      <use x="98.974609" xlink:href="#DejaVuSans-4c"/>
      <use x="154.6875" xlink:href="#DejaVuSans-53"/>
     </g>
    </g>
   </g>
  </g>
 </g>
 <defs>
  <clipPath id="pa5cce8abda">
   <rect height="443.52" width="1116" x="180" y="69.12"/>
  </clipPath>
 </defs>
</svg>
