<?xml version="1.0" encoding="utf-8" standalone="no"?>
<!DOCTYPE svg PUBLIC "-//W3C//DTD SVG 1.1//EN"
  "http://www.w3.org/Graphics/SVG/1.1/DTD/svg11.dtd">
<!-- Created with matplotlib (http://matplotlib.org/) -->
<svg height="576pt" version="1.1" viewBox="0 0 1440 576" width="1440pt" xmlns="http://www.w3.org/2000/svg" xmlns:xlink="http://www.w3.org/1999/xlink">
 <defs>
  <style type="text/css">
*{stroke-linecap:butt;stroke-linejoin:round;}
  </style>
 </defs>
 <g id="figure_1">
  <g id="patch_1">
   <path d="M 0 576 
L 1440 576 
L 1440 0 
L 0 0 
z
" style="fill:#ffffff;"/>
  </g>
  <g id="axes_1">
   <g id="patch_2">
    <path d="M 180 512.64 
L 1296 512.64 
L 1296 69.12 
L 180 69.12 
z
" style="fill:#ffffff;"/>
   </g>
   <g id="matplotlib.axis_1">
    <g id="xtick_1">
     <g id="line2d_1">
      <defs>
       <path d="M 0 0 
L 0 3.5 
" id="m5bbc18db24" style="stroke:#000000;stroke-width:0.8;"/>
      </defs>
      <g>
       <use style="stroke:#000000;stroke-width:0.8;" x="230.727273" xlink:href="#m5bbc18db24" y="512.64"/>
      </g>
     </g>
     <g id="text_1">
      <!-- 0.0 -->
      <defs>
       <path d="M 31.78125 66.40625 
Q 24.171875 66.40625 20.328125 58.90625 
Q 16.5 51.421875 16.5 36.375 
Q 16.5 21.390625 20.328125 13.890625 
Q 24.171875 6.390625 31.78125 6.390625 
Q 39.453125 6.390625 43.28125 13.890625 
Q 47.125 21.390625 47.125 36.375 
Q 47.125 51.421875 43.28125 58.90625 
Q 39.453125 66.40625 31.78125 66.40625 
z
M 31.78125 74.21875 
Q 44.046875 74.21875 50.515625 64.515625 
Q 56.984375 54.828125 56.984375 36.375 
Q 56.984375 17.96875 50.515625 8.265625 
Q 44.046875 -1.421875 31.78125 -1.421875 
Q 19.53125 -1.421875 13.0625 8.265625 
Q 6.59375 17.96875 6.59375 36.375 
Q 6.59375 54.828125 13.0625 64.515625 
Q 19.53125 74.21875 31.78125 74.21875 
z
" id="DejaVuSans-30"/>
       <path d="M 10.6875 12.40625 
L 21 12.40625 
L 21 0 
L 10.6875 0 
z
" id="DejaVuSans-2e"/>
      </defs>
      <g transform="translate(222.77571 527.238438)scale(0.1 -0.1)">
       <use xlink:href="#DejaVuSans-30"/>
       <use x="63.623047" xlink:href="#DejaVuSans-2e"/>
       <use x="95.410156" xlink:href="#DejaVuSans-30"/>
      </g>
     </g>
    </g>
    <g id="xtick_2">
     <g id="line2d_2">
      <g>
       <use style="stroke:#000000;stroke-width:0.8;" x="388.472979" xlink:href="#m5bbc18db24" y="512.64"/>
      </g>
     </g>
     <g id="text_2">
      <!-- 0.2 -->
      <defs>
       <path d="M 19.1875 8.296875 
L 53.609375 8.296875 
L 53.609375 0 
L 7.328125 0 
L 7.328125 8.296875 
Q 12.9375 14.109375 22.625 23.890625 
Q 32.328125 33.6875 34.8125 36.53125 
Q 39.546875 41.84375 41.421875 45.53125 
Q 43.3125 49.21875 43.3125 52.78125 
Q 43.3125 58.59375 39.234375 62.25 
Q 35.15625 65.921875 28.609375 65.921875 
Q 23.96875 65.921875 18.8125 64.3125 
Q 13.671875 62.703125 7.8125 59.421875 
L 7.8125 69.390625 
Q 13.765625 71.78125 18.9375 73 
Q 24.125 74.21875 28.421875 74.21875 
Q 39.75 74.21875 46.484375 68.546875 
Q 53.21875 62.890625 53.21875 53.421875 
Q 53.21875 48.921875 51.53125 44.890625 
Q 49.859375 40.875 45.40625 35.40625 
Q 44.1875 33.984375 37.640625 27.21875 
Q 31.109375 20.453125 19.1875 8.296875 
z
" id="DejaVuSans-32"/>
      </defs>
      <g transform="translate(380.521417 527.238438)scale(0.1 -0.1)">
       <use xlink:href="#DejaVuSans-30"/>
       <use x="63.623047" xlink:href="#DejaVuSans-2e"/>
       <use x="95.410156" xlink:href="#DejaVuSans-32"/>
      </g>
     </g>
    </g>
    <g id="xtick_3">
     <g id="line2d_3">
      <g>
       <use style="stroke:#000000;stroke-width:0.8;" x="546.218686" xlink:href="#m5bbc18db24" y="512.64"/>
      </g>
     </g>
     <g id="text_3">
      <!-- 0.4 -->
      <defs>
       <path d="M 37.796875 64.3125 
L 12.890625 25.390625 
L 37.796875 25.390625 
z
M 35.203125 72.90625 
L 47.609375 72.90625 
L 47.609375 25.390625 
L 58.015625 25.390625 
L 58.015625 17.1875 
L 47.609375 17.1875 
L 47.609375 0 
L 37.796875 0 
L 37.796875 17.1875 
L 4.890625 17.1875 
L 4.890625 26.703125 
z
" id="DejaVuSans-34"/>
      </defs>
      <g transform="translate(538.267123 527.238438)scale(0.1 -0.1)">
       <use xlink:href="#DejaVuSans-30"/>
       <use x="63.623047" xlink:href="#DejaVuSans-2e"/>
       <use x="95.410156" xlink:href="#DejaVuSans-34"/>
      </g>
     </g>
    </g>
    <g id="xtick_4">
     <g id="line2d_4">
      <g>
       <use style="stroke:#000000;stroke-width:0.8;" x="703.964392" xlink:href="#m5bbc18db24" y="512.64"/>
      </g>
     </g>
     <g id="text_4">
      <!-- 0.6 -->
      <defs>
       <path d="M 33.015625 40.375 
Q 26.375 40.375 22.484375 35.828125 
Q 18.609375 31.296875 18.609375 23.390625 
Q 18.609375 15.53125 22.484375 10.953125 
Q 26.375 6.390625 33.015625 6.390625 
Q 39.65625 6.390625 43.53125 10.953125 
Q 47.40625 15.53125 47.40625 23.390625 
Q 47.40625 31.296875 43.53125 35.828125 
Q 39.65625 40.375 33.015625 40.375 
z
M 52.59375 71.296875 
L 52.59375 62.3125 
Q 48.875 64.0625 45.09375 64.984375 
Q 41.3125 65.921875 37.59375 65.921875 
Q 27.828125 65.921875 22.671875 59.328125 
Q 17.53125 52.734375 16.796875 39.40625 
Q 19.671875 43.65625 24.015625 45.921875 
Q 28.375 48.1875 33.59375 48.1875 
Q 44.578125 48.1875 50.953125 41.515625 
Q 57.328125 34.859375 57.328125 23.390625 
Q 57.328125 12.15625 50.6875 5.359375 
Q 44.046875 -1.421875 33.015625 -1.421875 
Q 20.359375 -1.421875 13.671875 8.265625 
Q 6.984375 17.96875 6.984375 36.375 
Q 6.984375 53.65625 15.1875 63.9375 
Q 23.390625 74.21875 37.203125 74.21875 
Q 40.921875 74.21875 44.703125 73.484375 
Q 48.484375 72.75 52.59375 71.296875 
z
" id="DejaVuSans-36"/>
      </defs>
      <g transform="translate(696.01283 527.238438)scale(0.1 -0.1)">
       <use xlink:href="#DejaVuSans-30"/>
       <use x="63.623047" xlink:href="#DejaVuSans-2e"/>
       <use x="95.410156" xlink:href="#DejaVuSans-36"/>
      </g>
     </g>
    </g>
    <g id="xtick_5">
     <g id="line2d_5">
      <g>
       <use style="stroke:#000000;stroke-width:0.8;" x="861.710098" xlink:href="#m5bbc18db24" y="512.64"/>
      </g>
     </g>
     <g id="text_5">
      <!-- 0.8 -->
      <defs>
       <path d="M 31.78125 34.625 
Q 24.75 34.625 20.71875 30.859375 
Q 16.703125 27.09375 16.703125 20.515625 
Q 16.703125 13.921875 20.71875 10.15625 
Q 24.75 6.390625 31.78125 6.390625 
Q 38.8125 6.390625 42.859375 10.171875 
Q 46.921875 13.96875 46.921875 20.515625 
Q 46.921875 27.09375 42.890625 30.859375 
Q 38.875 34.625 31.78125 34.625 
z
M 21.921875 38.8125 
Q 15.578125 40.375 12.03125 44.71875 
Q 8.5 49.078125 8.5 55.328125 
Q 8.5 64.0625 14.71875 69.140625 
Q 20.953125 74.21875 31.78125 74.21875 
Q 42.671875 74.21875 48.875 69.140625 
Q 55.078125 64.0625 55.078125 55.328125 
Q 55.078125 49.078125 51.53125 44.71875 
Q 48 40.375 41.703125 38.8125 
Q 48.828125 37.15625 52.796875 32.3125 
Q 56.78125 27.484375 56.78125 20.515625 
Q 56.78125 9.90625 50.3125 4.234375 
Q 43.84375 -1.421875 31.78125 -1.421875 
Q 19.734375 -1.421875 13.25 4.234375 
Q 6.78125 9.90625 6.78125 20.515625 
Q 6.78125 27.484375 10.78125 32.3125 
Q 14.796875 37.15625 21.921875 38.8125 
z
M 18.3125 54.390625 
Q 18.3125 48.734375 21.84375 45.5625 
Q 25.390625 42.390625 31.78125 42.390625 
Q 38.140625 42.390625 41.71875 45.5625 
Q 45.3125 48.734375 45.3125 54.390625 
Q 45.3125 60.0625 41.71875 63.234375 
Q 38.140625 66.40625 31.78125 66.40625 
Q 25.390625 66.40625 21.84375 63.234375 
Q 18.3125 60.0625 18.3125 54.390625 
z
" id="DejaVuSans-38"/>
      </defs>
      <g transform="translate(853.758536 527.238438)scale(0.1 -0.1)">
       <use xlink:href="#DejaVuSans-30"/>
       <use x="63.623047" xlink:href="#DejaVuSans-2e"/>
       <use x="95.410156" xlink:href="#DejaVuSans-38"/>
      </g>
     </g>
    </g>
    <g id="xtick_6">
     <g id="line2d_6">
      <g>
       <use style="stroke:#000000;stroke-width:0.8;" x="1019.455805" xlink:href="#m5bbc18db24" y="512.64"/>
      </g>
     </g>
     <g id="text_6">
      <!-- 1.0 -->
      <defs>
       <path d="M 12.40625 8.296875 
L 28.515625 8.296875 
L 28.515625 63.921875 
L 10.984375 60.40625 
L 10.984375 69.390625 
L 28.421875 72.90625 
L 38.28125 72.90625 
L 38.28125 8.296875 
L 54.390625 8.296875 
L 54.390625 0 
L 12.40625 0 
z
" id="DejaVuSans-31"/>
      </defs>
      <g transform="translate(1011.504242 527.238438)scale(0.1 -0.1)">
       <use xlink:href="#DejaVuSans-31"/>
       <use x="63.623047" xlink:href="#DejaVuSans-2e"/>
       <use x="95.410156" xlink:href="#DejaVuSans-30"/>
      </g>
     </g>
    </g>
    <g id="xtick_7">
     <g id="line2d_7">
      <g>
       <use style="stroke:#000000;stroke-width:0.8;" x="1177.201511" xlink:href="#m5bbc18db24" y="512.64"/>
      </g>
     </g>
     <g id="text_7">
      <!-- 1.2 -->
      <g transform="translate(1169.249949 527.238438)scale(0.1 -0.1)">
       <use xlink:href="#DejaVuSans-31"/>
       <use x="63.623047" xlink:href="#DejaVuSans-2e"/>
       <use x="95.410156" xlink:href="#DejaVuSans-32"/>
      </g>
     </g>
    </g>
   </g>
   <g id="matplotlib.axis_2">
    <g id="ytick_1">
     <g id="line2d_8">
      <defs>
       <path d="M 0 0 
L -3.5 0 
" id="m31c916a0bc" style="stroke:#000000;stroke-width:0.8;"/>
      </defs>
      <g>
       <use style="stroke:#000000;stroke-width:0.8;" x="180" xlink:href="#m31c916a0bc" y="493.71904"/>
      </g>
     </g>
     <g id="text_8">
      <!-- 0.300 -->
      <defs>
       <path d="M 40.578125 39.3125 
Q 47.65625 37.796875 51.625 33 
Q 55.609375 28.21875 55.609375 21.1875 
Q 55.609375 10.40625 48.1875 4.484375 
Q 40.765625 -1.421875 27.09375 -1.421875 
Q 22.515625 -1.421875 17.65625 -0.515625 
Q 12.796875 0.390625 7.625 2.203125 
L 7.625 11.71875 
Q 11.71875 9.328125 16.59375 8.109375 
Q 21.484375 6.890625 26.8125 6.890625 
Q 36.078125 6.890625 40.9375 10.546875 
Q 45.796875 14.203125 45.796875 21.1875 
Q 45.796875 27.640625 41.28125 31.265625 
Q 36.765625 34.90625 28.71875 34.90625 
L 20.21875 34.90625 
L 20.21875 43.015625 
L 29.109375 43.015625 
Q 36.375 43.015625 40.234375 45.921875 
Q 44.09375 48.828125 44.09375 54.296875 
Q 44.09375 59.90625 40.109375 62.90625 
Q 36.140625 65.921875 28.71875 65.921875 
Q 24.65625 65.921875 20.015625 65.03125 
Q 15.375 64.15625 9.8125 62.3125 
L 9.8125 71.09375 
Q 15.4375 72.65625 20.34375 73.4375 
Q 25.25 74.21875 29.59375 74.21875 
Q 40.828125 74.21875 47.359375 69.109375 
Q 53.90625 64.015625 53.90625 55.328125 
Q 53.90625 49.265625 50.4375 45.09375 
Q 46.96875 40.921875 40.578125 39.3125 
z
" id="DejaVuSans-33"/>
      </defs>
      <g transform="translate(144.371875 497.518258)scale(0.1 -0.1)">
       <use xlink:href="#DejaVuSans-30"/>
       <use x="63.623047" xlink:href="#DejaVuSans-2e"/>
       <use x="95.410156" xlink:href="#DejaVuSans-33"/>
       <use x="159.033203" xlink:href="#DejaVuSans-30"/>
       <use x="222.65625" xlink:href="#DejaVuSans-30"/>
      </g>
     </g>
    </g>
    <g id="ytick_2">
     <g id="line2d_9">
      <g>
       <use style="stroke:#000000;stroke-width:0.8;" x="180" xlink:href="#m31c916a0bc" y="439.593208"/>
      </g>
     </g>
     <g id="text_9">
      <!-- 0.305 -->
      <defs>
       <path d="M 10.796875 72.90625 
L 49.515625 72.90625 
L 49.515625 64.59375 
L 19.828125 64.59375 
L 19.828125 46.734375 
Q 21.96875 47.46875 24.109375 47.828125 
Q 26.265625 48.1875 28.421875 48.1875 
Q 40.625 48.1875 47.75 41.5 
Q 54.890625 34.8125 54.890625 23.390625 
Q 54.890625 11.625 47.5625 5.09375 
Q 40.234375 -1.421875 26.90625 -1.421875 
Q 22.3125 -1.421875 17.546875 -0.640625 
Q 12.796875 0.140625 7.71875 1.703125 
L 7.71875 11.625 
Q 12.109375 9.234375 16.796875 8.0625 
Q 21.484375 6.890625 26.703125 6.890625 
Q 35.15625 6.890625 40.078125 11.328125 
Q 45.015625 15.765625 45.015625 23.390625 
Q 45.015625 31 40.078125 35.4375 
Q 35.15625 39.890625 26.703125 39.890625 
Q 22.75 39.890625 18.8125 39.015625 
Q 14.890625 38.140625 10.796875 36.28125 
z
" id="DejaVuSans-35"/>
      </defs>
      <g transform="translate(144.371875 443.392427)scale(0.1 -0.1)">
       <use xlink:href="#DejaVuSans-30"/>
       <use x="63.623047" xlink:href="#DejaVuSans-2e"/>
       <use x="95.410156" xlink:href="#DejaVuSans-33"/>
       <use x="159.033203" xlink:href="#DejaVuSans-30"/>
       <use x="222.65625" xlink:href="#DejaVuSans-35"/>
      </g>
     </g>
    </g>
    <g id="ytick_3">
     <g id="line2d_10">
      <g>
       <use style="stroke:#000000;stroke-width:0.8;" x="180" xlink:href="#m31c916a0bc" y="385.467376"/>
      </g>
     </g>
     <g id="text_10">
      <!-- 0.310 -->
      <g transform="translate(144.371875 389.266595)scale(0.1 -0.1)">
       <use xlink:href="#DejaVuSans-30"/>
       <use x="63.623047" xlink:href="#DejaVuSans-2e"/>
       <use x="95.410156" xlink:href="#DejaVuSans-33"/>
       <use x="159.033203" xlink:href="#DejaVuSans-31"/>
       <use x="222.65625" xlink:href="#DejaVuSans-30"/>
      </g>
     </g>
    </g>
    <g id="ytick_4">
     <g id="line2d_11">
      <g>
       <use style="stroke:#000000;stroke-width:0.8;" x="180" xlink:href="#m31c916a0bc" y="331.341544"/>
      </g>
     </g>
     <g id="text_11">
      <!-- 0.315 -->
      <g transform="translate(144.371875 335.140763)scale(0.1 -0.1)">
       <use xlink:href="#DejaVuSans-30"/>
       <use x="63.623047" xlink:href="#DejaVuSans-2e"/>
       <use x="95.410156" xlink:href="#DejaVuSans-33"/>
       <use x="159.033203" xlink:href="#DejaVuSans-31"/>
       <use x="222.65625" xlink:href="#DejaVuSans-35"/>
      </g>
     </g>
    </g>
    <g id="ytick_5">
     <g id="line2d_12">
      <g>
       <use style="stroke:#000000;stroke-width:0.8;" x="180" xlink:href="#m31c916a0bc" y="277.215713"/>
      </g>
     </g>
     <g id="text_12">
      <!-- 0.320 -->
      <g transform="translate(144.371875 281.014932)scale(0.1 -0.1)">
       <use xlink:href="#DejaVuSans-30"/>
       <use x="63.623047" xlink:href="#DejaVuSans-2e"/>
       <use x="95.410156" xlink:href="#DejaVuSans-33"/>
       <use x="159.033203" xlink:href="#DejaVuSans-32"/>
       <use x="222.65625" xlink:href="#DejaVuSans-30"/>
      </g>
     </g>
    </g>
    <g id="ytick_6">
     <g id="line2d_13">
      <g>
       <use style="stroke:#000000;stroke-width:0.8;" x="180" xlink:href="#m31c916a0bc" y="223.089881"/>
      </g>
     </g>
     <g id="text_13">
      <!-- 0.325 -->
      <g transform="translate(144.371875 226.8891)scale(0.1 -0.1)">
       <use xlink:href="#DejaVuSans-30"/>
       <use x="63.623047" xlink:href="#DejaVuSans-2e"/>
       <use x="95.410156" xlink:href="#DejaVuSans-33"/>
       <use x="159.033203" xlink:href="#DejaVuSans-32"/>
       <use x="222.65625" xlink:href="#DejaVuSans-35"/>
      </g>
     </g>
    </g>
    <g id="ytick_7">
     <g id="line2d_14">
      <g>
       <use style="stroke:#000000;stroke-width:0.8;" x="180" xlink:href="#m31c916a0bc" y="168.964049"/>
      </g>
     </g>
     <g id="text_14">
      <!-- 0.330 -->
      <g transform="translate(144.371875 172.763268)scale(0.1 -0.1)">
       <use xlink:href="#DejaVuSans-30"/>
       <use x="63.623047" xlink:href="#DejaVuSans-2e"/>
       <use x="95.410156" xlink:href="#DejaVuSans-33"/>
       <use x="159.033203" xlink:href="#DejaVuSans-33"/>
       <use x="222.65625" xlink:href="#DejaVuSans-30"/>
      </g>
     </g>
    </g>
    <g id="ytick_8">
     <g id="line2d_15">
      <g>
       <use style="stroke:#000000;stroke-width:0.8;" x="180" xlink:href="#m31c916a0bc" y="114.838218"/>
      </g>
     </g>
     <g id="text_15">
      <!-- 0.335 -->
      <g transform="translate(144.371875 118.637436)scale(0.1 -0.1)">
       <use xlink:href="#DejaVuSans-30"/>
       <use x="63.623047" xlink:href="#DejaVuSans-2e"/>
       <use x="95.410156" xlink:href="#DejaVuSans-33"/>
       <use x="159.033203" xlink:href="#DejaVuSans-33"/>
       <use x="222.65625" xlink:href="#DejaVuSans-35"/>
      </g>
     </g>
    </g>
   </g>
   <g id="line2d_16">
    <path clip-path="url(#p6584e716c1)" d="M 230.727273 89.28 
L 240.570605 105.138869 
L 250.34374 319.812742 
L 260.075861 423.571962 
L 269.799307 426.613833 
L 279.529062 429.460852 
L 289.261972 432.989856 
L 298.990938 435.663672 
L 308.719905 439.030299 
L 318.457547 442.267024 
L 328.207021 445.741902 
L 337.939142 448.935326 
L 347.66101 452.345254 
L 357.380512 455.159797 
L 367.114999 458.147543 
L 376.843177 461.395093 
L 386.566622 464.718419 
L 396.304265 467.965969 
L 406.056104 471.365071 
L 415.793747 474.536845 
L 425.517981 477.622017 
L 435.237483 480.577288 
L 445.501207 490.861196 
L 455.584313 490.731294 
L 465.780995 490.893671 
L 476.061283 490.644692 
L 486.306866 490.915321 
L 496.537464 490.80707 
L 506.780682 490.796245 
L 517.072011 490.926147 
L 527.368074 490.817895 
L 537.635742 491.110174 
L 548.241774 490.980272 
L 559.265833 490.82872 
L 569.860823 491.131825 
L 580.703474 491.294202 
L 591.093395 491.196776 
L 601.517232 491.434929 
L 611.933969 491.045223 
L 622.218989 491.413279 
L 632.518995 491.088524 
L 642.816635 491.81381 
L 653.139514 490.190035 
L 664.210897 491.380804 
L 674.492762 491.434929 
L 684.817218 491.81381 
L 695.341223 491.45658 
L 705.632553 491.586482 
L 715.973573 491.640608 
L 726.363494 491.932887 
L 737.079948 491.705559 
L 747.410714 491.781335 
L 757.701256 492.041139 
L 768.005205 492.171041 
L 778.335183 491.640608 
L 788.60364 492.041139 
L 799.173391 492.062789 
L 809.703705 492.084439 
L 819.999767 492.160216 
L 830.385745 492.181866 
L 841.420057 492.051964 
L 851.756344 492.030314 
L 862.015336 492.14939 
L 872.250667 492.12774 
L 882.438673 492.084439 
L 892.580933 492.12774 
L 903.119924 492.268467 
L 913.468831 492.030314 
L 923.864273 492.257642 
L 934.281011 492.095265 
L 944.462707 492.14939 
L 954.621531 492.160216 
L 964.755904 491.738034 
L 974.957319 492.246817 
L 985.232085 492.084439 
L 995.480824 492.171041 
L 1005.989054 491.49988 
L 1016.3632 491.846286 
L 1026.544108 492.214341 
L 1036.698988 492.279292 
L 1047.208007 492.10609 
L 1058.766035 492.268467 
L 1069.022661 492.235992 
L 1080.056184 491.965363 
L 1090.431908 492.279292 
L 1100.674337 492.084439 
L 1111.808029 492.235992 
L 1122.091471 492.333418 
L 1132.103591 492.311768 
L 1142.181176 492.214341 
L 1152.461463 492.181866 
L 1162.73623 492.030314 
L 1172.914772 492.192691 
L 1183.346495 491.846286 
L 1193.54791 492.203516 
L 1203.710677 492.290118 
L 1214.031979 491.987013 
L 1224.596998 492.160216 
L 1235.106805 492.073614 
L 1245.272727 492.181866 
" style="fill:none;stroke:#ff0000;stroke-dasharray:5.55,2.4;stroke-dashoffset:0;stroke-width:1.5;"/>
    <defs>
     <path d="M -3 3 
L 3 3 
L 3 -3 
L -3 -3 
z
" id="me4a7beafd9" style="stroke:#ff0000;stroke-linejoin:miter;"/>
    </defs>
    <g clip-path="url(#p6584e716c1)">
     <use style="fill:#ff0000;stroke:#ff0000;stroke-linejoin:miter;" x="230.727273" xlink:href="#me4a7beafd9" y="89.28"/>
     <use style="fill:#ff0000;stroke:#ff0000;stroke-linejoin:miter;" x="240.570605" xlink:href="#me4a7beafd9" y="105.138869"/>
     <use style="fill:#ff0000;stroke:#ff0000;stroke-linejoin:miter;" x="250.34374" xlink:href="#me4a7beafd9" y="319.812742"/>
     <use style="fill:#ff0000;stroke:#ff0000;stroke-linejoin:miter;" x="260.075861" xlink:href="#me4a7beafd9" y="423.571962"/>
     <use style="fill:#ff0000;stroke:#ff0000;stroke-linejoin:miter;" x="269.799307" xlink:href="#me4a7beafd9" y="426.613833"/>
     <use style="fill:#ff0000;stroke:#ff0000;stroke-linejoin:miter;" x="279.529062" xlink:href="#me4a7beafd9" y="429.460852"/>
     <use style="fill:#ff0000;stroke:#ff0000;stroke-linejoin:miter;" x="289.261972" xlink:href="#me4a7beafd9" y="432.989856"/>
     <use style="fill:#ff0000;stroke:#ff0000;stroke-linejoin:miter;" x="298.990938" xlink:href="#me4a7beafd9" y="435.663672"/>
     <use style="fill:#ff0000;stroke:#ff0000;stroke-linejoin:miter;" x="308.719905" xlink:href="#me4a7beafd9" y="439.030299"/>
     <use style="fill:#ff0000;stroke:#ff0000;stroke-linejoin:miter;" x="318.457547" xlink:href="#me4a7beafd9" y="442.267024"/>
     <use style="fill:#ff0000;stroke:#ff0000;stroke-linejoin:miter;" x="328.207021" xlink:href="#me4a7beafd9" y="445.741902"/>
     <use style="fill:#ff0000;stroke:#ff0000;stroke-linejoin:miter;" x="337.939142" xlink:href="#me4a7beafd9" y="448.935326"/>
     <use style="fill:#ff0000;stroke:#ff0000;stroke-linejoin:miter;" x="347.66101" xlink:href="#me4a7beafd9" y="452.345254"/>
     <use style="fill:#ff0000;stroke:#ff0000;stroke-linejoin:miter;" x="357.380512" xlink:href="#me4a7beafd9" y="455.159797"/>
     <use style="fill:#ff0000;stroke:#ff0000;stroke-linejoin:miter;" x="367.114999" xlink:href="#me4a7beafd9" y="458.147543"/>
     <use style="fill:#ff0000;stroke:#ff0000;stroke-linejoin:miter;" x="376.843177" xlink:href="#me4a7beafd9" y="461.395093"/>
     <use style="fill:#ff0000;stroke:#ff0000;stroke-linejoin:miter;" x="386.566622" xlink:href="#me4a7beafd9" y="464.718419"/>
     <use style="fill:#ff0000;stroke:#ff0000;stroke-linejoin:miter;" x="396.304265" xlink:href="#me4a7beafd9" y="467.965969"/>
     <use style="fill:#ff0000;stroke:#ff0000;stroke-linejoin:miter;" x="406.056104" xlink:href="#me4a7beafd9" y="471.365071"/>
     <use style="fill:#ff0000;stroke:#ff0000;stroke-linejoin:miter;" x="415.793747" xlink:href="#me4a7beafd9" y="474.536845"/>
     <use style="fill:#ff0000;stroke:#ff0000;stroke-linejoin:miter;" x="425.517981" xlink:href="#me4a7beafd9" y="477.622017"/>
     <use style="fill:#ff0000;stroke:#ff0000;stroke-linejoin:miter;" x="435.237483" xlink:href="#me4a7beafd9" y="480.577288"/>
     <use style="fill:#ff0000;stroke:#ff0000;stroke-linejoin:miter;" x="445.501207" xlink:href="#me4a7beafd9" y="490.861196"/>
     <use style="fill:#ff0000;stroke:#ff0000;stroke-linejoin:miter;" x="455.584313" xlink:href="#me4a7beafd9" y="490.731294"/>
     <use style="fill:#ff0000;stroke:#ff0000;stroke-linejoin:miter;" x="465.780995" xlink:href="#me4a7beafd9" y="490.893671"/>
     <use style="fill:#ff0000;stroke:#ff0000;stroke-linejoin:miter;" x="476.061283" xlink:href="#me4a7beafd9" y="490.644692"/>
     <use style="fill:#ff0000;stroke:#ff0000;stroke-linejoin:miter;" x="486.306866" xlink:href="#me4a7beafd9" y="490.915321"/>
     <use style="fill:#ff0000;stroke:#ff0000;stroke-linejoin:miter;" x="496.537464" xlink:href="#me4a7beafd9" y="490.80707"/>
     <use style="fill:#ff0000;stroke:#ff0000;stroke-linejoin:miter;" x="506.780682" xlink:href="#me4a7beafd9" y="490.796245"/>
     <use style="fill:#ff0000;stroke:#ff0000;stroke-linejoin:miter;" x="517.072011" xlink:href="#me4a7beafd9" y="490.926147"/>
     <use style="fill:#ff0000;stroke:#ff0000;stroke-linejoin:miter;" x="527.368074" xlink:href="#me4a7beafd9" y="490.817895"/>
     <use style="fill:#ff0000;stroke:#ff0000;stroke-linejoin:miter;" x="537.635742" xlink:href="#me4a7beafd9" y="491.110174"/>
     <use style="fill:#ff0000;stroke:#ff0000;stroke-linejoin:miter;" x="548.241774" xlink:href="#me4a7beafd9" y="490.980272"/>
     <use style="fill:#ff0000;stroke:#ff0000;stroke-linejoin:miter;" x="559.265833" xlink:href="#me4a7beafd9" y="490.82872"/>
     <use style="fill:#ff0000;stroke:#ff0000;stroke-linejoin:miter;" x="569.860823" xlink:href="#me4a7beafd9" y="491.131825"/>
     <use style="fill:#ff0000;stroke:#ff0000;stroke-linejoin:miter;" x="580.703474" xlink:href="#me4a7beafd9" y="491.294202"/>
     <use style="fill:#ff0000;stroke:#ff0000;stroke-linejoin:miter;" x="591.093395" xlink:href="#me4a7beafd9" y="491.196776"/>
     <use style="fill:#ff0000;stroke:#ff0000;stroke-linejoin:miter;" x="601.517232" xlink:href="#me4a7beafd9" y="491.434929"/>
     <use style="fill:#ff0000;stroke:#ff0000;stroke-linejoin:miter;" x="611.933969" xlink:href="#me4a7beafd9" y="491.045223"/>
     <use style="fill:#ff0000;stroke:#ff0000;stroke-linejoin:miter;" x="622.218989" xlink:href="#me4a7beafd9" y="491.413279"/>
     <use style="fill:#ff0000;stroke:#ff0000;stroke-linejoin:miter;" x="632.518995" xlink:href="#me4a7beafd9" y="491.088524"/>
     <use style="fill:#ff0000;stroke:#ff0000;stroke-linejoin:miter;" x="642.816635" xlink:href="#me4a7beafd9" y="491.81381"/>
     <use style="fill:#ff0000;stroke:#ff0000;stroke-linejoin:miter;" x="653.139514" xlink:href="#me4a7beafd9" y="490.190035"/>
     <use style="fill:#ff0000;stroke:#ff0000;stroke-linejoin:miter;" x="664.210897" xlink:href="#me4a7beafd9" y="491.380804"/>
     <use style="fill:#ff0000;stroke:#ff0000;stroke-linejoin:miter;" x="674.492762" xlink:href="#me4a7beafd9" y="491.434929"/>
     <use style="fill:#ff0000;stroke:#ff0000;stroke-linejoin:miter;" x="684.817218" xlink:href="#me4a7beafd9" y="491.81381"/>
     <use style="fill:#ff0000;stroke:#ff0000;stroke-linejoin:miter;" x="695.341223" xlink:href="#me4a7beafd9" y="491.45658"/>
     <use style="fill:#ff0000;stroke:#ff0000;stroke-linejoin:miter;" x="705.632553" xlink:href="#me4a7beafd9" y="491.586482"/>
     <use style="fill:#ff0000;stroke:#ff0000;stroke-linejoin:miter;" x="715.973573" xlink:href="#me4a7beafd9" y="491.640608"/>
     <use style="fill:#ff0000;stroke:#ff0000;stroke-linejoin:miter;" x="726.363494" xlink:href="#me4a7beafd9" y="491.932887"/>
     <use style="fill:#ff0000;stroke:#ff0000;stroke-linejoin:miter;" x="737.079948" xlink:href="#me4a7beafd9" y="491.705559"/>
     <use style="fill:#ff0000;stroke:#ff0000;stroke-linejoin:miter;" x="747.410714" xlink:href="#me4a7beafd9" y="491.781335"/>
     <use style="fill:#ff0000;stroke:#ff0000;stroke-linejoin:miter;" x="757.701256" xlink:href="#me4a7beafd9" y="492.041139"/>
     <use style="fill:#ff0000;stroke:#ff0000;stroke-linejoin:miter;" x="768.005205" xlink:href="#me4a7beafd9" y="492.171041"/>
     <use style="fill:#ff0000;stroke:#ff0000;stroke-linejoin:miter;" x="778.335183" xlink:href="#me4a7beafd9" y="491.640608"/>
     <use style="fill:#ff0000;stroke:#ff0000;stroke-linejoin:miter;" x="788.60364" xlink:href="#me4a7beafd9" y="492.041139"/>
     <use style="fill:#ff0000;stroke:#ff0000;stroke-linejoin:miter;" x="799.173391" xlink:href="#me4a7beafd9" y="492.062789"/>
     <use style="fill:#ff0000;stroke:#ff0000;stroke-linejoin:miter;" x="809.703705" xlink:href="#me4a7beafd9" y="492.084439"/>
     <use style="fill:#ff0000;stroke:#ff0000;stroke-linejoin:miter;" x="819.999767" xlink:href="#me4a7beafd9" y="492.160216"/>
     <use style="fill:#ff0000;stroke:#ff0000;stroke-linejoin:miter;" x="830.385745" xlink:href="#me4a7beafd9" y="492.181866"/>
     <use style="fill:#ff0000;stroke:#ff0000;stroke-linejoin:miter;" x="841.420057" xlink:href="#me4a7beafd9" y="492.051964"/>
     <use style="fill:#ff0000;stroke:#ff0000;stroke-linejoin:miter;" x="851.756344" xlink:href="#me4a7beafd9" y="492.030314"/>
     <use style="fill:#ff0000;stroke:#ff0000;stroke-linejoin:miter;" x="862.015336" xlink:href="#me4a7beafd9" y="492.14939"/>
     <use style="fill:#ff0000;stroke:#ff0000;stroke-linejoin:miter;" x="872.250667" xlink:href="#me4a7beafd9" y="492.12774"/>
     <use style="fill:#ff0000;stroke:#ff0000;stroke-linejoin:miter;" x="882.438673" xlink:href="#me4a7beafd9" y="492.084439"/>
     <use style="fill:#ff0000;stroke:#ff0000;stroke-linejoin:miter;" x="892.580933" xlink:href="#me4a7beafd9" y="492.12774"/>
     <use style="fill:#ff0000;stroke:#ff0000;stroke-linejoin:miter;" x="903.119924" xlink:href="#me4a7beafd9" y="492.268467"/>
     <use style="fill:#ff0000;stroke:#ff0000;stroke-linejoin:miter;" x="913.468831" xlink:href="#me4a7beafd9" y="492.030314"/>
     <use style="fill:#ff0000;stroke:#ff0000;stroke-linejoin:miter;" x="923.864273" xlink:href="#me4a7beafd9" y="492.257642"/>
     <use style="fill:#ff0000;stroke:#ff0000;stroke-linejoin:miter;" x="934.281011" xlink:href="#me4a7beafd9" y="492.095265"/>
     <use style="fill:#ff0000;stroke:#ff0000;stroke-linejoin:miter;" x="944.462707" xlink:href="#me4a7beafd9" y="492.14939"/>
     <use style="fill:#ff0000;stroke:#ff0000;stroke-linejoin:miter;" x="954.621531" xlink:href="#me4a7beafd9" y="492.160216"/>
     <use style="fill:#ff0000;stroke:#ff0000;stroke-linejoin:miter;" x="964.755904" xlink:href="#me4a7beafd9" y="491.738034"/>
     <use style="fill:#ff0000;stroke:#ff0000;stroke-linejoin:miter;" x="974.957319" xlink:href="#me4a7beafd9" y="492.246817"/>
     <use style="fill:#ff0000;stroke:#ff0000;stroke-linejoin:miter;" x="985.232085" xlink:href="#me4a7beafd9" y="492.084439"/>
     <use style="fill:#ff0000;stroke:#ff0000;stroke-linejoin:miter;" x="995.480824" xlink:href="#me4a7beafd9" y="492.171041"/>
     <use style="fill:#ff0000;stroke:#ff0000;stroke-linejoin:miter;" x="1005.989054" xlink:href="#me4a7beafd9" y="491.49988"/>
     <use style="fill:#ff0000;stroke:#ff0000;stroke-linejoin:miter;" x="1016.3632" xlink:href="#me4a7beafd9" y="491.846286"/>
     <use style="fill:#ff0000;stroke:#ff0000;stroke-linejoin:miter;" x="1026.544108" xlink:href="#me4a7beafd9" y="492.214341"/>
     <use style="fill:#ff0000;stroke:#ff0000;stroke-linejoin:miter;" x="1036.698988" xlink:href="#me4a7beafd9" y="492.279292"/>
     <use style="fill:#ff0000;stroke:#ff0000;stroke-linejoin:miter;" x="1047.208007" xlink:href="#me4a7beafd9" y="492.10609"/>
     <use style="fill:#ff0000;stroke:#ff0000;stroke-linejoin:miter;" x="1058.766035" xlink:href="#me4a7beafd9" y="492.268467"/>
     <use style="fill:#ff0000;stroke:#ff0000;stroke-linejoin:miter;" x="1069.022661" xlink:href="#me4a7beafd9" y="492.235992"/>
     <use style="fill:#ff0000;stroke:#ff0000;stroke-linejoin:miter;" x="1080.056184" xlink:href="#me4a7beafd9" y="491.965363"/>
     <use style="fill:#ff0000;stroke:#ff0000;stroke-linejoin:miter;" x="1090.431908" xlink:href="#me4a7beafd9" y="492.279292"/>
     <use style="fill:#ff0000;stroke:#ff0000;stroke-linejoin:miter;" x="1100.674337" xlink:href="#me4a7beafd9" y="492.084439"/>
     <use style="fill:#ff0000;stroke:#ff0000;stroke-linejoin:miter;" x="1111.808029" xlink:href="#me4a7beafd9" y="492.235992"/>
     <use style="fill:#ff0000;stroke:#ff0000;stroke-linejoin:miter;" x="1122.091471" xlink:href="#me4a7beafd9" y="492.333418"/>
     <use style="fill:#ff0000;stroke:#ff0000;stroke-linejoin:miter;" x="1132.103591" xlink:href="#me4a7beafd9" y="492.311768"/>
     <use style="fill:#ff0000;stroke:#ff0000;stroke-linejoin:miter;" x="1142.181176" xlink:href="#me4a7beafd9" y="492.214341"/>
     <use style="fill:#ff0000;stroke:#ff0000;stroke-linejoin:miter;" x="1152.461463" xlink:href="#me4a7beafd9" y="492.181866"/>
     <use style="fill:#ff0000;stroke:#ff0000;stroke-linejoin:miter;" x="1162.73623" xlink:href="#me4a7beafd9" y="492.030314"/>
     <use style="fill:#ff0000;stroke:#ff0000;stroke-linejoin:miter;" x="1172.914772" xlink:href="#me4a7beafd9" y="492.192691"/>
     <use style="fill:#ff0000;stroke:#ff0000;stroke-linejoin:miter;" x="1183.346495" xlink:href="#me4a7beafd9" y="491.846286"/>
     <use style="fill:#ff0000;stroke:#ff0000;stroke-linejoin:miter;" x="1193.54791" xlink:href="#me4a7beafd9" y="492.203516"/>
     <use style="fill:#ff0000;stroke:#ff0000;stroke-linejoin:miter;" x="1203.710677" xlink:href="#me4a7beafd9" y="492.290118"/>
     <use style="fill:#ff0000;stroke:#ff0000;stroke-linejoin:miter;" x="1214.031979" xlink:href="#me4a7beafd9" y="491.987013"/>
     <use style="fill:#ff0000;stroke:#ff0000;stroke-linejoin:miter;" x="1224.596998" xlink:href="#me4a7beafd9" y="492.160216"/>
     <use style="fill:#ff0000;stroke:#ff0000;stroke-linejoin:miter;" x="1235.106805" xlink:href="#me4a7beafd9" y="492.073614"/>
     <use style="fill:#ff0000;stroke:#ff0000;stroke-linejoin:miter;" x="1245.272727" xlink:href="#me4a7beafd9" y="492.181866"/>
    </g>
   </g>
   <g id="line2d_17">
    <path clip-path="url(#p6584e716c1)" d="M 455.584313 490.731294 
L 465.780995 490.893671 
L 476.061283 490.644692 
L 486.306866 490.915321 
L 496.537464 490.80707 
L 506.780682 490.796245 
L 517.072011 490.926147 
L 527.368074 490.817895 
L 537.635742 491.110174 
L 548.241774 490.980272 
L 559.265833 490.82872 
L 569.860823 491.131825 
L 580.703474 491.294202 
L 591.093395 491.196776 
L 601.517232 491.434929 
L 611.933969 491.045223 
L 622.218989 491.413279 
L 632.518995 491.088524 
L 642.816635 491.81381 
L 653.139514 490.190035 
L 664.210897 491.380804 
L 674.492762 491.434929 
L 684.817218 491.81381 
L 695.341223 491.45658 
L 705.632553 491.586482 
L 715.973573 491.640608 
L 726.363494 491.932887 
L 737.079948 491.705559 
L 747.410714 491.781335 
L 757.701256 492.041139 
L 768.005205 492.171041 
L 841.420057 492.051964 
L 851.756344 492.030314 
L 862.015336 492.14939 
L 872.250667 492.12774 
L 882.438673 492.084439 
L 892.580933 492.12774 
L 903.119924 492.268467 
L 913.468831 492.030314 
L 923.864273 492.257642 
L 934.281011 492.095265 
L 944.462707 492.14939 
L 954.621531 492.160216 
L 964.755904 491.738034 
L 974.957319 492.246817 
L 985.232085 492.084439 
L 995.480824 492.171041 
L 1005.989054 491.49988 
L 1016.3632 491.846286 
L 1026.544108 492.214341 
L 1036.698988 492.279292 
L 1047.208007 492.10609 
L 1058.766035 492.268467 
L 1069.022661 492.235992 
L 1080.056184 491.965363 
L 1090.431908 492.279292 
L 1100.674337 492.084439 
L 1111.808029 492.235992 
L 1122.091471 492.333418 
L 1132.103591 492.311768 
L 1142.181176 492.214341 
L 1152.461463 492.181866 
L 1162.73623 492.030314 
L 1172.914772 492.192691 
L 1183.346495 491.846286 
L 1193.54791 492.203516 
L 1203.710677 492.290118 
L 1214.031979 491.987013 
L 1224.596998 492.160216 
L 1235.106805 492.073614 
L 1245.272727 492.181866 
" style="fill:none;stroke:#800080;stroke-dasharray:9.6,2.4,1.5,2.4;stroke-dashoffset:0;stroke-width:1.5;"/>
    <defs>
     <path d="M -3 3 
L 3 -3 
M -3 -3 
L 3 3 
" id="md68a205139" style="stroke:#800080;"/>
    </defs>
    <g clip-path="url(#p6584e716c1)">
     <use style="fill:#800080;stroke:#800080;" x="455.584313" xlink:href="#md68a205139" y="490.731294"/>
     <use style="fill:#800080;stroke:#800080;" x="465.780995" xlink:href="#md68a205139" y="490.893671"/>
     <use style="fill:#800080;stroke:#800080;" x="476.061283" xlink:href="#md68a205139" y="490.644692"/>
     <use style="fill:#800080;stroke:#800080;" x="486.306866" xlink:href="#md68a205139" y="490.915321"/>
     <use style="fill:#800080;stroke:#800080;" x="496.537464" xlink:href="#md68a205139" y="490.80707"/>
     <use style="fill:#800080;stroke:#800080;" x="506.780682" xlink:href="#md68a205139" y="490.796245"/>
     <use style="fill:#800080;stroke:#800080;" x="517.072011" xlink:href="#md68a205139" y="490.926147"/>
     <use style="fill:#800080;stroke:#800080;" x="527.368074" xlink:href="#md68a205139" y="490.817895"/>
     <use style="fill:#800080;stroke:#800080;" x="537.635742" xlink:href="#md68a205139" y="491.110174"/>
     <use style="fill:#800080;stroke:#800080;" x="548.241774" xlink:href="#md68a205139" y="490.980272"/>
     <use style="fill:#800080;stroke:#800080;" x="559.265833" xlink:href="#md68a205139" y="490.82872"/>
     <use style="fill:#800080;stroke:#800080;" x="569.860823" xlink:href="#md68a205139" y="491.131825"/>
     <use style="fill:#800080;stroke:#800080;" x="580.703474" xlink:href="#md68a205139" y="491.294202"/>
     <use style="fill:#800080;stroke:#800080;" x="591.093395" xlink:href="#md68a205139" y="491.196776"/>
     <use style="fill:#800080;stroke:#800080;" x="601.517232" xlink:href="#md68a205139" y="491.434929"/>
     <use style="fill:#800080;stroke:#800080;" x="611.933969" xlink:href="#md68a205139" y="491.045223"/>
     <use style="fill:#800080;stroke:#800080;" x="622.218989" xlink:href="#md68a205139" y="491.413279"/>
     <use style="fill:#800080;stroke:#800080;" x="632.518995" xlink:href="#md68a205139" y="491.088524"/>
     <use style="fill:#800080;stroke:#800080;" x="642.816635" xlink:href="#md68a205139" y="491.81381"/>
     <use style="fill:#800080;stroke:#800080;" x="653.139514" xlink:href="#md68a205139" y="490.190035"/>
     <use style="fill:#800080;stroke:#800080;" x="664.210897" xlink:href="#md68a205139" y="491.380804"/>
     <use style="fill:#800080;stroke:#800080;" x="674.492762" xlink:href="#md68a205139" y="491.434929"/>
     <use style="fill:#800080;stroke:#800080;" x="684.817218" xlink:href="#md68a205139" y="491.81381"/>
     <use style="fill:#800080;stroke:#800080;" x="695.341223" xlink:href="#md68a205139" y="491.45658"/>
     <use style="fill:#800080;stroke:#800080;" x="705.632553" xlink:href="#md68a205139" y="491.586482"/>
     <use style="fill:#800080;stroke:#800080;" x="715.973573" xlink:href="#md68a205139" y="491.640608"/>
     <use style="fill:#800080;stroke:#800080;" x="726.363494" xlink:href="#md68a205139" y="491.932887"/>
     <use style="fill:#800080;stroke:#800080;" x="737.079948" xlink:href="#md68a205139" y="491.705559"/>
     <use style="fill:#800080;stroke:#800080;" x="747.410714" xlink:href="#md68a205139" y="491.781335"/>
     <use style="fill:#800080;stroke:#800080;" x="757.701256" xlink:href="#md68a205139" y="492.041139"/>
     <use style="fill:#800080;stroke:#800080;" x="768.005205" xlink:href="#md68a205139" y="492.171041"/>
     <use style="fill:#800080;stroke:#800080;" x="841.420057" xlink:href="#md68a205139" y="492.051964"/>
     <use style="fill:#800080;stroke:#800080;" x="851.756344" xlink:href="#md68a205139" y="492.030314"/>
     <use style="fill:#800080;stroke:#800080;" x="862.015336" xlink:href="#md68a205139" y="492.14939"/>
     <use style="fill:#800080;stroke:#800080;" x="872.250667" xlink:href="#md68a205139" y="492.12774"/>
     <use style="fill:#800080;stroke:#800080;" x="882.438673" xlink:href="#md68a205139" y="492.084439"/>
     <use style="fill:#800080;stroke:#800080;" x="892.580933" xlink:href="#md68a205139" y="492.12774"/>
     <use style="fill:#800080;stroke:#800080;" x="903.119924" xlink:href="#md68a205139" y="492.268467"/>
     <use style="fill:#800080;stroke:#800080;" x="913.468831" xlink:href="#md68a205139" y="492.030314"/>
     <use style="fill:#800080;stroke:#800080;" x="923.864273" xlink:href="#md68a205139" y="492.257642"/>
     <use style="fill:#800080;stroke:#800080;" x="934.281011" xlink:href="#md68a205139" y="492.095265"/>
     <use style="fill:#800080;stroke:#800080;" x="944.462707" xlink:href="#md68a205139" y="492.14939"/>
     <use style="fill:#800080;stroke:#800080;" x="954.621531" xlink:href="#md68a205139" y="492.160216"/>
     <use style="fill:#800080;stroke:#800080;" x="964.755904" xlink:href="#md68a205139" y="491.738034"/>
     <use style="fill:#800080;stroke:#800080;" x="974.957319" xlink:href="#md68a205139" y="492.246817"/>
     <use style="fill:#800080;stroke:#800080;" x="985.232085" xlink:href="#md68a205139" y="492.084439"/>
     <use style="fill:#800080;stroke:#800080;" x="995.480824" xlink:href="#md68a205139" y="492.171041"/>
     <use style="fill:#800080;stroke:#800080;" x="1005.989054" xlink:href="#md68a205139" y="491.49988"/>
     <use style="fill:#800080;stroke:#800080;" x="1016.3632" xlink:href="#md68a205139" y="491.846286"/>
     <use style="fill:#800080;stroke:#800080;" x="1026.544108" xlink:href="#md68a205139" y="492.214341"/>
     <use style="fill:#800080;stroke:#800080;" x="1036.698988" xlink:href="#md68a205139" y="492.279292"/>
     <use style="fill:#800080;stroke:#800080;" x="1047.208007" xlink:href="#md68a205139" y="492.10609"/>
     <use style="fill:#800080;stroke:#800080;" x="1058.766035" xlink:href="#md68a205139" y="492.268467"/>
     <use style="fill:#800080;stroke:#800080;" x="1069.022661" xlink:href="#md68a205139" y="492.235992"/>
     <use style="fill:#800080;stroke:#800080;" x="1080.056184" xlink:href="#md68a205139" y="491.965363"/>
     <use style="fill:#800080;stroke:#800080;" x="1090.431908" xlink:href="#md68a205139" y="492.279292"/>
     <use style="fill:#800080;stroke:#800080;" x="1100.674337" xlink:href="#md68a205139" y="492.084439"/>
     <use style="fill:#800080;stroke:#800080;" x="1111.808029" xlink:href="#md68a205139" y="492.235992"/>
     <use style="fill:#800080;stroke:#800080;" x="1122.091471" xlink:href="#md68a205139" y="492.333418"/>
     <use style="fill:#800080;stroke:#800080;" x="1132.103591" xlink:href="#md68a205139" y="492.311768"/>
     <use style="fill:#800080;stroke:#800080;" x="1142.181176" xlink:href="#md68a205139" y="492.214341"/>
     <use style="fill:#800080;stroke:#800080;" x="1152.461463" xlink:href="#md68a205139" y="492.181866"/>
     <use style="fill:#800080;stroke:#800080;" x="1162.73623" xlink:href="#md68a205139" y="492.030314"/>
     <use style="fill:#800080;stroke:#800080;" x="1172.914772" xlink:href="#md68a205139" y="492.192691"/>
     <use style="fill:#800080;stroke:#800080;" x="1183.346495" xlink:href="#md68a205139" y="491.846286"/>
     <use style="fill:#800080;stroke:#800080;" x="1193.54791" xlink:href="#md68a205139" y="492.203516"/>
     <use style="fill:#800080;stroke:#800080;" x="1203.710677" xlink:href="#md68a205139" y="492.290118"/>
     <use style="fill:#800080;stroke:#800080;" x="1214.031979" xlink:href="#md68a205139" y="491.987013"/>
     <use style="fill:#800080;stroke:#800080;" x="1224.596998" xlink:href="#md68a205139" y="492.160216"/>
     <use style="fill:#800080;stroke:#800080;" x="1235.106805" xlink:href="#md68a205139" y="492.073614"/>
     <use style="fill:#800080;stroke:#800080;" x="1245.272727" xlink:href="#md68a205139" y="492.181866"/>
    </g>
   </g>
   <g id="line2d_18">
    <path clip-path="url(#p6584e716c1)" d="M 455.584313 490.997767 
L 465.780995 491.016823 
L 476.061283 491.036036 
L 486.306866 491.055184 
L 496.537464 491.074304 
L 506.780682 491.093447 
L 517.072011 491.112681 
L 527.368074 491.131923 
L 537.635742 491.151112 
L 548.241774 491.170934 
L 559.265833 491.191537 
L 569.860823 491.211338 
L 580.703474 491.231601 
L 591.093395 491.251019 
L 601.517232 491.2705 
L 611.933969 491.289968 
L 622.218989 491.309189 
L 632.518995 491.328439 
L 642.816635 491.347684 
L 653.139514 491.366977 
L 664.210897 491.387668 
L 674.492762 491.406884 
L 684.817218 491.426179 
L 695.341223 491.445847 
L 705.632553 491.46508 
L 715.973573 491.484407 
L 726.363494 491.503824 
L 737.079948 491.523852 
L 747.410714 491.543159 
L 757.701256 491.562391 
L 768.005205 491.581648 
L 841.420057 491.718853 
L 851.756344 491.73817 
L 862.015336 491.757343 
L 872.250667 491.776472 
L 882.438673 491.795512 
L 892.580933 491.814467 
L 903.119924 491.834163 
L 913.468831 491.853504 
L 923.864273 491.872932 
L 934.281011 491.8924 
L 944.462707 491.911429 
L 954.621531 491.930414 
L 964.755904 491.949355 
L 974.957319 491.96842 
L 985.232085 491.987622 
L 995.480824 492.006776 
L 1005.989054 492.026415 
L 1016.3632 492.045803 
L 1026.544108 492.06483 
L 1036.698988 492.083809 
L 1047.208007 492.103449 
L 1058.766035 492.12505 
L 1069.022661 492.144218 
L 1080.056184 492.164839 
L 1090.431908 492.18423 
L 1100.674337 492.203372 
L 1111.808029 492.224179 
L 1122.091471 492.243398 
L 1132.103591 492.26211 
L 1142.181176 492.280944 
L 1152.461463 492.300156 
L 1162.73623 492.319359 
L 1172.914772 492.338381 
L 1183.346495 492.357877 
L 1193.54791 492.376943 
L 1203.710677 492.395936 
L 1214.031979 492.415225 
L 1224.596998 492.43497 
L 1235.106805 492.454612 
L 1245.272727 492.473611 
" style="fill:none;stroke:#0000ff;stroke-linecap:square;stroke-width:1.5;"/>
   </g>
   <g id="line2d_19">
    <path clip-path="url(#p6584e716c1)" d="M 455.584313 490.992241 
L 465.780995 491.011451 
L 476.061283 491.030819 
L 486.306866 491.050122 
L 496.537464 491.069396 
L 506.780682 491.088694 
L 517.072011 491.108083 
L 527.368074 491.12748 
L 537.635742 491.146824 
L 548.241774 491.166806 
L 559.265833 491.187575 
L 569.860823 491.207536 
L 580.703474 491.227963 
L 591.093395 491.247538 
L 601.517232 491.267176 
L 611.933969 491.286801 
L 622.218989 491.306178 
L 632.518995 491.325583 
L 642.816635 491.344983 
L 653.139514 491.364431 
L 664.210897 491.38529 
L 674.492762 491.404661 
L 684.817218 491.424112 
L 695.341223 491.443939 
L 705.632553 491.463327 
L 715.973573 491.48281 
L 726.363494 491.502384 
L 737.079948 491.522574 
L 747.410714 491.542037 
L 757.701256 491.561424 
L 768.005205 491.580836 
L 841.420057 491.719149 
L 851.756344 491.738622 
L 862.015336 491.75795 
L 872.250667 491.777233 
L 882.438673 491.796427 
L 892.580933 491.815535 
L 903.119924 491.83539 
L 913.468831 491.854887 
L 923.864273 491.874472 
L 934.281011 491.894097 
L 944.462707 491.913279 
L 954.621531 491.932418 
L 964.755904 491.951511 
L 974.957319 491.97073 
L 985.232085 491.990088 
L 995.480824 492.009396 
L 1005.989054 492.029194 
L 1016.3632 492.048738 
L 1026.544108 492.067919 
L 1036.698988 492.087051 
L 1047.208007 492.10685 
L 1058.766035 492.128625 
L 1069.022661 492.147948 
L 1080.056184 492.168735 
L 1090.431908 492.188283 
L 1100.674337 492.207579 
L 1111.808029 492.228555 
L 1122.091471 492.247929 
L 1132.103591 492.266791 
L 1142.181176 492.285777 
L 1152.461463 492.305145 
L 1162.73623 492.324503 
L 1172.914772 492.343679 
L 1183.346495 492.363332 
L 1193.54791 492.382551 
L 1203.710677 492.401698 
L 1214.031979 492.421143 
L 1224.596998 492.441047 
L 1235.106805 492.460848 
L 1245.272727 492.48 
" style="fill:none;stroke:#008000;stroke-linecap:square;stroke-width:1.5;"/>
    <defs>
     <path d="M 0 3 
C 0.795609 3 1.55874 2.683901 2.12132 2.12132 
C 2.683901 1.55874 3 0.795609 3 0 
C 3 -0.795609 2.683901 -1.55874 2.12132 -2.12132 
C 1.55874 -2.683901 0.795609 -3 0 -3 
C -0.795609 -3 -1.55874 -2.683901 -2.12132 -2.12132 
C -2.683901 -1.55874 -3 -0.795609 -3 0 
C -3 0.795609 -2.683901 1.55874 -2.12132 2.12132 
C -1.55874 2.683901 -0.795609 3 0 3 
z
" id="m61bd105613" style="stroke:#008000;"/>
    </defs>
    <g clip-path="url(#p6584e716c1)">
     <use style="fill:#008000;stroke:#008000;" x="455.584313" xlink:href="#m61bd105613" y="490.992241"/>
     <use style="fill:#008000;stroke:#008000;" x="465.780995" xlink:href="#m61bd105613" y="491.011451"/>
     <use style="fill:#008000;stroke:#008000;" x="476.061283" xlink:href="#m61bd105613" y="491.030819"/>
     <use style="fill:#008000;stroke:#008000;" x="486.306866" xlink:href="#m61bd105613" y="491.050122"/>
     <use style="fill:#008000;stroke:#008000;" x="496.537464" xlink:href="#m61bd105613" y="491.069396"/>
     <use style="fill:#008000;stroke:#008000;" x="506.780682" xlink:href="#m61bd105613" y="491.088694"/>
     <use style="fill:#008000;stroke:#008000;" x="517.072011" xlink:href="#m61bd105613" y="491.108083"/>
     <use style="fill:#008000;stroke:#008000;" x="527.368074" xlink:href="#m61bd105613" y="491.12748"/>
     <use style="fill:#008000;stroke:#008000;" x="537.635742" xlink:href="#m61bd105613" y="491.146824"/>
     <use style="fill:#008000;stroke:#008000;" x="548.241774" xlink:href="#m61bd105613" y="491.166806"/>
     <use style="fill:#008000;stroke:#008000;" x="559.265833" xlink:href="#m61bd105613" y="491.187575"/>
     <use style="fill:#008000;stroke:#008000;" x="569.860823" xlink:href="#m61bd105613" y="491.207536"/>
     <use style="fill:#008000;stroke:#008000;" x="580.703474" xlink:href="#m61bd105613" y="491.227963"/>
     <use style="fill:#008000;stroke:#008000;" x="591.093395" xlink:href="#m61bd105613" y="491.247538"/>
     <use style="fill:#008000;stroke:#008000;" x="601.517232" xlink:href="#m61bd105613" y="491.267176"/>
     <use style="fill:#008000;stroke:#008000;" x="611.933969" xlink:href="#m61bd105613" y="491.286801"/>
     <use style="fill:#008000;stroke:#008000;" x="622.218989" xlink:href="#m61bd105613" y="491.306178"/>
     <use style="fill:#008000;stroke:#008000;" x="632.518995" xlink:href="#m61bd105613" y="491.325583"/>
     <use style="fill:#008000;stroke:#008000;" x="642.816635" xlink:href="#m61bd105613" y="491.344983"/>
     <use style="fill:#008000;stroke:#008000;" x="653.139514" xlink:href="#m61bd105613" y="491.364431"/>
     <use style="fill:#008000;stroke:#008000;" x="664.210897" xlink:href="#m61bd105613" y="491.38529"/>
     <use style="fill:#008000;stroke:#008000;" x="674.492762" xlink:href="#m61bd105613" y="491.404661"/>
     <use style="fill:#008000;stroke:#008000;" x="684.817218" xlink:href="#m61bd105613" y="491.424112"/>
     <use style="fill:#008000;stroke:#008000;" x="695.341223" xlink:href="#m61bd105613" y="491.443939"/>
     <use style="fill:#008000;stroke:#008000;" x="705.632553" xlink:href="#m61bd105613" y="491.463327"/>
     <use style="fill:#008000;stroke:#008000;" x="715.973573" xlink:href="#m61bd105613" y="491.48281"/>
     <use style="fill:#008000;stroke:#008000;" x="726.363494" xlink:href="#m61bd105613" y="491.502384"/>
     <use style="fill:#008000;stroke:#008000;" x="737.079948" xlink:href="#m61bd105613" y="491.522574"/>
     <use style="fill:#008000;stroke:#008000;" x="747.410714" xlink:href="#m61bd105613" y="491.542037"/>
     <use style="fill:#008000;stroke:#008000;" x="757.701256" xlink:href="#m61bd105613" y="491.561424"/>
     <use style="fill:#008000;stroke:#008000;" x="768.005205" xlink:href="#m61bd105613" y="491.580836"/>
     <use style="fill:#008000;stroke:#008000;" x="841.420057" xlink:href="#m61bd105613" y="491.719149"/>
     <use style="fill:#008000;stroke:#008000;" x="851.756344" xlink:href="#m61bd105613" y="491.738622"/>
     <use style="fill:#008000;stroke:#008000;" x="862.015336" xlink:href="#m61bd105613" y="491.75795"/>
     <use style="fill:#008000;stroke:#008000;" x="872.250667" xlink:href="#m61bd105613" y="491.777233"/>
     <use style="fill:#008000;stroke:#008000;" x="882.438673" xlink:href="#m61bd105613" y="491.796427"/>
     <use style="fill:#008000;stroke:#008000;" x="892.580933" xlink:href="#m61bd105613" y="491.815535"/>
     <use style="fill:#008000;stroke:#008000;" x="903.119924" xlink:href="#m61bd105613" y="491.83539"/>
     <use style="fill:#008000;stroke:#008000;" x="913.468831" xlink:href="#m61bd105613" y="491.854887"/>
     <use style="fill:#008000;stroke:#008000;" x="923.864273" xlink:href="#m61bd105613" y="491.874472"/>
     <use style="fill:#008000;stroke:#008000;" x="934.281011" xlink:href="#m61bd105613" y="491.894097"/>
     <use style="fill:#008000;stroke:#008000;" x="944.462707" xlink:href="#m61bd105613" y="491.913279"/>
     <use style="fill:#008000;stroke:#008000;" x="954.621531" xlink:href="#m61bd105613" y="491.932418"/>
     <use style="fill:#008000;stroke:#008000;" x="964.755904" xlink:href="#m61bd105613" y="491.951511"/>
     <use style="fill:#008000;stroke:#008000;" x="974.957319" xlink:href="#m61bd105613" y="491.97073"/>
     <use style="fill:#008000;stroke:#008000;" x="985.232085" xlink:href="#m61bd105613" y="491.990088"/>
     <use style="fill:#008000;stroke:#008000;" x="995.480824" xlink:href="#m61bd105613" y="492.009396"/>
     <use style="fill:#008000;stroke:#008000;" x="1005.989054" xlink:href="#m61bd105613" y="492.029194"/>
     <use style="fill:#008000;stroke:#008000;" x="1016.3632" xlink:href="#m61bd105613" y="492.048738"/>
     <use style="fill:#008000;stroke:#008000;" x="1026.544108" xlink:href="#m61bd105613" y="492.067919"/>
     <use style="fill:#008000;stroke:#008000;" x="1036.698988" xlink:href="#m61bd105613" y="492.087051"/>
     <use style="fill:#008000;stroke:#008000;" x="1047.208007" xlink:href="#m61bd105613" y="492.10685"/>
     <use style="fill:#008000;stroke:#008000;" x="1058.766035" xlink:href="#m61bd105613" y="492.128625"/>
     <use style="fill:#008000;stroke:#008000;" x="1069.022661" xlink:href="#m61bd105613" y="492.147948"/>
     <use style="fill:#008000;stroke:#008000;" x="1080.056184" xlink:href="#m61bd105613" y="492.168735"/>
     <use style="fill:#008000;stroke:#008000;" x="1090.431908" xlink:href="#m61bd105613" y="492.188283"/>
     <use style="fill:#008000;stroke:#008000;" x="1100.674337" xlink:href="#m61bd105613" y="492.207579"/>
     <use style="fill:#008000;stroke:#008000;" x="1111.808029" xlink:href="#m61bd105613" y="492.228555"/>
     <use style="fill:#008000;stroke:#008000;" x="1122.091471" xlink:href="#m61bd105613" y="492.247929"/>
     <use style="fill:#008000;stroke:#008000;" x="1132.103591" xlink:href="#m61bd105613" y="492.266791"/>
     <use style="fill:#008000;stroke:#008000;" x="1142.181176" xlink:href="#m61bd105613" y="492.285777"/>
     <use style="fill:#008000;stroke:#008000;" x="1152.461463" xlink:href="#m61bd105613" y="492.305145"/>
     <use style="fill:#008000;stroke:#008000;" x="1162.73623" xlink:href="#m61bd105613" y="492.324503"/>
     <use style="fill:#008000;stroke:#008000;" x="1172.914772" xlink:href="#m61bd105613" y="492.343679"/>
     <use style="fill:#008000;stroke:#008000;" x="1183.346495" xlink:href="#m61bd105613" y="492.363332"/>
     <use style="fill:#008000;stroke:#008000;" x="1193.54791" xlink:href="#m61bd105613" y="492.382551"/>
     <use style="fill:#008000;stroke:#008000;" x="1203.710677" xlink:href="#m61bd105613" y="492.401698"/>
     <use style="fill:#008000;stroke:#008000;" x="1214.031979" xlink:href="#m61bd105613" y="492.421143"/>
     <use style="fill:#008000;stroke:#008000;" x="1224.596998" xlink:href="#m61bd105613" y="492.441047"/>
     <use style="fill:#008000;stroke:#008000;" x="1235.106805" xlink:href="#m61bd105613" y="492.460848"/>
     <use style="fill:#008000;stroke:#008000;" x="1245.272727" xlink:href="#m61bd105613" y="492.48"/>
    </g>
   </g>
   <g id="patch_3">
    <path d="M 180 512.64 
L 180 69.12 
" style="fill:none;stroke:#000000;stroke-linecap:square;stroke-linejoin:miter;stroke-width:0.8;"/>
   </g>
   <g id="patch_4">
    <path d="M 1296 512.64 
L 1296 69.12 
" style="fill:none;stroke:#000000;stroke-linecap:square;stroke-linejoin:miter;stroke-width:0.8;"/>
   </g>
   <g id="patch_5">
    <path d="M 180 512.64 
L 1296 512.64 
" style="fill:none;stroke:#000000;stroke-linecap:square;stroke-linejoin:miter;stroke-width:0.8;"/>
   </g>
   <g id="patch_6">
    <path d="M 180 69.12 
L 1296 69.12 
" style="fill:none;stroke:#000000;stroke-linecap:square;stroke-linejoin:miter;stroke-width:0.8;"/>
   </g>
   <g id="text_16">
    <!-- 500000.0 bit/s -->
    <defs>
     <path id="DejaVuSans-20"/>
     <path d="M 48.6875 27.296875 
Q 48.6875 37.203125 44.609375 42.84375 
Q 40.53125 48.484375 33.40625 48.484375 
Q 26.265625 48.484375 22.1875 42.84375 
Q 18.109375 37.203125 18.109375 27.296875 
Q 18.109375 17.390625 22.1875 11.75 
Q 26.265625 6.109375 33.40625 6.109375 
Q 40.53125 6.109375 44.609375 11.75 
Q 48.6875 17.390625 48.6875 27.296875 
z
M 18.109375 46.390625 
Q 20.953125 51.265625 25.265625 53.625 
Q 29.59375 56 35.59375 56 
Q 45.5625 56 51.78125 48.09375 
Q 58.015625 40.1875 58.015625 27.296875 
Q 58.015625 14.40625 51.78125 6.484375 
Q 45.5625 -1.421875 35.59375 -1.421875 
Q 29.59375 -1.421875 25.265625 0.953125 
Q 20.953125 3.328125 18.109375 8.203125 
L 18.109375 0 
L 9.078125 0 
L 9.078125 75.984375 
L 18.109375 75.984375 
z
" id="DejaVuSans-62"/>
     <path d="M 9.421875 54.6875 
L 18.40625 54.6875 
L 18.40625 0 
L 9.421875 0 
z
M 9.421875 75.984375 
L 18.40625 75.984375 
L 18.40625 64.59375 
L 9.421875 64.59375 
z
" id="DejaVuSans-69"/>
     <path d="M 18.3125 70.21875 
L 18.3125 54.6875 
L 36.8125 54.6875 
L 36.8125 47.703125 
L 18.3125 47.703125 
L 18.3125 18.015625 
Q 18.3125 11.328125 20.140625 9.421875 
Q 21.96875 7.515625 27.59375 7.515625 
L 36.8125 7.515625 
L 36.8125 0 
L 27.59375 0 
Q 17.1875 0 13.234375 3.875 
Q 9.28125 7.765625 9.28125 18.015625 
L 9.28125 47.703125 
L 2.6875 47.703125 
L 2.6875 54.6875 
L 9.28125 54.6875 
L 9.28125 70.21875 
z
" id="DejaVuSans-74"/>
     <path d="M 25.390625 72.90625 
L 33.6875 72.90625 
L 8.296875 -9.28125 
L 0 -9.28125 
z
" id="DejaVuSans-2f"/>
     <path d="M 44.28125 53.078125 
L 44.28125 44.578125 
Q 40.484375 46.53125 36.375 47.5 
Q 32.28125 48.484375 27.875 48.484375 
Q 21.1875 48.484375 17.84375 46.4375 
Q 14.5 44.390625 14.5 40.28125 
Q 14.5 37.15625 16.890625 35.375 
Q 19.28125 33.59375 26.515625 31.984375 
L 29.59375 31.296875 
Q 39.15625 29.25 43.1875 25.515625 
Q 47.21875 21.78125 47.21875 15.09375 
Q 47.21875 7.46875 41.1875 3.015625 
Q 35.15625 -1.421875 24.609375 -1.421875 
Q 20.21875 -1.421875 15.453125 -0.5625 
Q 10.6875 0.296875 5.421875 2 
L 5.421875 11.28125 
Q 10.40625 8.6875 15.234375 7.390625 
Q 20.0625 6.109375 24.8125 6.109375 
Q 31.15625 6.109375 34.5625 8.28125 
Q 37.984375 10.453125 37.984375 14.40625 
Q 37.984375 18.0625 35.515625 20.015625 
Q 33.0625 21.96875 24.703125 23.78125 
L 21.578125 24.515625 
Q 13.234375 26.265625 9.515625 29.90625 
Q 5.8125 33.546875 5.8125 39.890625 
Q 5.8125 47.609375 11.28125 51.796875 
Q 16.75 56 26.8125 56 
Q 31.78125 56 36.171875 55.265625 
Q 40.578125 54.546875 44.28125 53.078125 
z
" id="DejaVuSans-73"/>
    </defs>
    <g transform="translate(694.48875 63.12)scale(0.12 -0.12)">
     <use xlink:href="#DejaVuSans-35"/>
     <use x="63.623047" xlink:href="#DejaVuSans-30"/>
     <use x="127.246094" xlink:href="#DejaVuSans-30"/>
     <use x="190.869141" xlink:href="#DejaVuSans-30"/>
     <use x="254.492188" xlink:href="#DejaVuSans-30"/>
     <use x="318.115234" xlink:href="#DejaVuSans-30"/>
     <use x="381.738281" xlink:href="#DejaVuSans-2e"/>
     <use x="413.525391" xlink:href="#DejaVuSans-30"/>
     <use x="477.148438" xlink:href="#DejaVuSans-20"/>
     <use x="508.935547" xlink:href="#DejaVuSans-62"/>
     <use x="572.412109" xlink:href="#DejaVuSans-69"/>
     <use x="600.195312" xlink:href="#DejaVuSans-74"/>
     <use x="639.404297" xlink:href="#DejaVuSans-2f"/>
     <use x="673.095703" xlink:href="#DejaVuSans-73"/>
    </g>
   </g>
   <g id="legend_1">
    <g id="patch_7">
     <path d="M 1173.520313 135.8325 
L 1289 135.8325 
Q 1291 135.8325 1291 133.8325 
L 1291 76.12 
Q 1291 74.12 1289 74.12 
L 1173.520313 74.12 
Q 1171.520313 74.12 1171.520313 76.12 
L 1171.520313 133.8325 
Q 1171.520313 135.8325 1173.520313 135.8325 
z
" style="fill:#ffffff;opacity:0.8;stroke:#cccccc;stroke-linejoin:miter;"/>
    </g>
    <g id="line2d_20">
     <path d="M 1175.520313 82.218437 
L 1195.520313 82.218437 
" style="fill:none;stroke:#ff0000;stroke-dasharray:5.55,2.4;stroke-dashoffset:0;stroke-width:1.5;"/>
    </g>
    <g id="line2d_21">
     <g>
      <use style="fill:#ff0000;stroke:#ff0000;stroke-linejoin:miter;" x="1185.520313" xlink:href="#me4a7beafd9" y="82.218437"/>
     </g>
    </g>
    <g id="text_17">
     <!-- tcpdump -->
     <defs>
      <path d="M 48.78125 52.59375 
L 48.78125 44.1875 
Q 44.96875 46.296875 41.140625 47.34375 
Q 37.3125 48.390625 33.40625 48.390625 
Q 24.65625 48.390625 19.8125 42.84375 
Q 14.984375 37.3125 14.984375 27.296875 
Q 14.984375 17.28125 19.8125 11.734375 
Q 24.65625 6.203125 33.40625 6.203125 
Q 37.3125 6.203125 41.140625 7.25 
Q 44.96875 8.296875 48.78125 10.40625 
L 48.78125 2.09375 
Q 45.015625 0.34375 40.984375 -0.53125 
Q 36.96875 -1.421875 32.421875 -1.421875 
Q 20.0625 -1.421875 12.78125 6.34375 
Q 5.515625 14.109375 5.515625 27.296875 
Q 5.515625 40.671875 12.859375 48.328125 
Q 20.21875 56 33.015625 56 
Q 37.15625 56 41.109375 55.140625 
Q 45.0625 54.296875 48.78125 52.59375 
z
" id="DejaVuSans-63"/>
      <path d="M 18.109375 8.203125 
L 18.109375 -20.796875 
L 9.078125 -20.796875 
L 9.078125 54.6875 
L 18.109375 54.6875 
L 18.109375 46.390625 
Q 20.953125 51.265625 25.265625 53.625 
Q 29.59375 56 35.59375 56 
Q 45.5625 56 51.78125 48.09375 
Q 58.015625 40.1875 58.015625 27.296875 
Q 58.015625 14.40625 51.78125 6.484375 
Q 45.5625 -1.421875 35.59375 -1.421875 
Q 29.59375 -1.421875 25.265625 0.953125 
Q 20.953125 3.328125 18.109375 8.203125 
z
M 48.6875 27.296875 
Q 48.6875 37.203125 44.609375 42.84375 
Q 40.53125 48.484375 33.40625 48.484375 
Q 26.265625 48.484375 22.1875 42.84375 
Q 18.109375 37.203125 18.109375 27.296875 
Q 18.109375 17.390625 22.1875 11.75 
Q 26.265625 6.109375 33.40625 6.109375 
Q 40.53125 6.109375 44.609375 11.75 
Q 48.6875 17.390625 48.6875 27.296875 
z
" id="DejaVuSans-70"/>
      <path d="M 45.40625 46.390625 
L 45.40625 75.984375 
L 54.390625 75.984375 
L 54.390625 0 
L 45.40625 0 
L 45.40625 8.203125 
Q 42.578125 3.328125 38.25 0.953125 
Q 33.9375 -1.421875 27.875 -1.421875 
Q 17.96875 -1.421875 11.734375 6.484375 
Q 5.515625 14.40625 5.515625 27.296875 
Q 5.515625 40.1875 11.734375 48.09375 
Q 17.96875 56 27.875 56 
Q 33.9375 56 38.25 53.625 
Q 42.578125 51.265625 45.40625 46.390625 
z
M 14.796875 27.296875 
Q 14.796875 17.390625 18.875 11.75 
Q 22.953125 6.109375 30.078125 6.109375 
Q 37.203125 6.109375 41.296875 11.75 
Q 45.40625 17.390625 45.40625 27.296875 
Q 45.40625 37.203125 41.296875 42.84375 
Q 37.203125 48.484375 30.078125 48.484375 
Q 22.953125 48.484375 18.875 42.84375 
Q 14.796875 37.203125 14.796875 27.296875 
z
" id="DejaVuSans-64"/>
      <path d="M 8.5 21.578125 
L 8.5 54.6875 
L 17.484375 54.6875 
L 17.484375 21.921875 
Q 17.484375 14.15625 20.5 10.265625 
Q 23.53125 6.390625 29.59375 6.390625 
Q 36.859375 6.390625 41.078125 11.03125 
Q 45.3125 15.671875 45.3125 23.6875 
L 45.3125 54.6875 
L 54.296875 54.6875 
L 54.296875 0 
L 45.3125 0 
L 45.3125 8.40625 
Q 42.046875 3.421875 37.71875 1 
Q 33.40625 -1.421875 27.6875 -1.421875 
Q 18.265625 -1.421875 13.375 4.4375 
Q 8.5 10.296875 8.5 21.578125 
z
M 31.109375 56 
z
" id="DejaVuSans-75"/>
      <path d="M 52 44.1875 
Q 55.375 50.25 60.0625 53.125 
Q 64.75 56 71.09375 56 
Q 79.640625 56 84.28125 50.015625 
Q 88.921875 44.046875 88.921875 33.015625 
L 88.921875 0 
L 79.890625 0 
L 79.890625 32.71875 
Q 79.890625 40.578125 77.09375 44.375 
Q 74.3125 48.1875 68.609375 48.1875 
Q 61.625 48.1875 57.5625 43.546875 
Q 53.515625 38.921875 53.515625 30.90625 
L 53.515625 0 
L 44.484375 0 
L 44.484375 32.71875 
Q 44.484375 40.625 41.703125 44.40625 
Q 38.921875 48.1875 33.109375 48.1875 
Q 26.21875 48.1875 22.15625 43.53125 
Q 18.109375 38.875 18.109375 30.90625 
L 18.109375 0 
L 9.078125 0 
L 9.078125 54.6875 
L 18.109375 54.6875 
L 18.109375 46.1875 
Q 21.1875 51.21875 25.484375 53.609375 
Q 29.78125 56 35.6875 56 
Q 41.65625 56 45.828125 52.96875 
Q 50 49.953125 52 44.1875 
z
" id="DejaVuSans-6d"/>
     </defs>
     <g transform="translate(1203.520313 85.718437)scale(0.1 -0.1)">
      <use xlink:href="#DejaVuSans-74"/>
      <use x="39.208984" xlink:href="#DejaVuSans-63"/>
      <use x="94.189453" xlink:href="#DejaVuSans-70"/>
      <use x="157.666016" xlink:href="#DejaVuSans-64"/>
      <use x="221.142578" xlink:href="#DejaVuSans-75"/>
      <use x="284.521484" xlink:href="#DejaVuSans-6d"/>
      <use x="381.933594" xlink:href="#DejaVuSans-70"/>
     </g>
    </g>
    <g id="line2d_22">
     <path d="M 1175.520313 96.896563 
L 1195.520313 96.896563 
" style="fill:none;stroke:#800080;stroke-dasharray:9.6,2.4,1.5,2.4;stroke-dashoffset:0;stroke-width:1.5;"/>
    </g>
    <g id="line2d_23">
     <g>
      <use style="fill:#800080;stroke:#800080;" x="1185.520313" xlink:href="#md68a205139" y="96.896563"/>
     </g>
    </g>
    <g id="text_18">
     <!-- filtered tcpdump -->
     <defs>
      <path d="M 37.109375 75.984375 
L 37.109375 68.5 
L 28.515625 68.5 
Q 23.6875 68.5 21.796875 66.546875 
Q 19.921875 64.59375 19.921875 59.515625 
L 19.921875 54.6875 
L 34.71875 54.6875 
L 34.71875 47.703125 
L 19.921875 47.703125 
L 19.921875 0 
L 10.890625 0 
L 10.890625 47.703125 
L 2.296875 47.703125 
L 2.296875 54.6875 
L 10.890625 54.6875 
L 10.890625 58.5 
Q 10.890625 67.625 15.140625 71.796875 
Q 19.390625 75.984375 28.609375 75.984375 
z
" id="DejaVuSans-66"/>
      <path d="M 9.421875 75.984375 
L 18.40625 75.984375 
L 18.40625 0 
L 9.421875 0 
z
" id="DejaVuSans-6c"/>
      <path d="M 56.203125 29.59375 
L 56.203125 25.203125 
L 14.890625 25.203125 
Q 15.484375 15.921875 20.484375 11.0625 
Q 25.484375 6.203125 34.421875 6.203125 
Q 39.59375 6.203125 44.453125 7.46875 
Q 49.3125 8.734375 54.109375 11.28125 
L 54.109375 2.78125 
Q 49.265625 0.734375 44.1875 -0.34375 
Q 39.109375 -1.421875 33.890625 -1.421875 
Q 20.796875 -1.421875 13.15625 6.1875 
Q 5.515625 13.8125 5.515625 26.8125 
Q 5.515625 40.234375 12.765625 48.109375 
Q 20.015625 56 32.328125 56 
Q 43.359375 56 49.78125 48.890625 
Q 56.203125 41.796875 56.203125 29.59375 
z
M 47.21875 32.234375 
Q 47.125 39.59375 43.09375 43.984375 
Q 39.0625 48.390625 32.421875 48.390625 
Q 24.90625 48.390625 20.390625 44.140625 
Q 15.875 39.890625 15.1875 32.171875 
z
" id="DejaVuSans-65"/>
      <path d="M 41.109375 46.296875 
Q 39.59375 47.171875 37.8125 47.578125 
Q 36.03125 48 33.890625 48 
Q 26.265625 48 22.1875 43.046875 
Q 18.109375 38.09375 18.109375 28.8125 
L 18.109375 0 
L 9.078125 0 
L 9.078125 54.6875 
L 18.109375 54.6875 
L 18.109375 46.1875 
Q 20.953125 51.171875 25.484375 53.578125 
Q 30.03125 56 36.53125 56 
Q 37.453125 56 38.578125 55.875 
Q 39.703125 55.765625 41.0625 55.515625 
z
" id="DejaVuSans-72"/>
     </defs>
     <g transform="translate(1203.520313 100.396563)scale(0.1 -0.1)">
      <use xlink:href="#DejaVuSans-66"/>
      <use x="35.205078" xlink:href="#DejaVuSans-69"/>
      <use x="62.988281" xlink:href="#DejaVuSans-6c"/>
      <use x="90.771484" xlink:href="#DejaVuSans-74"/>
      <use x="129.980469" xlink:href="#DejaVuSans-65"/>
      <use x="191.503906" xlink:href="#DejaVuSans-72"/>
      <use x="232.585938" xlink:href="#DejaVuSans-65"/>
      <use x="294.109375" xlink:href="#DejaVuSans-64"/>
      <use x="357.585938" xlink:href="#DejaVuSans-20"/>
      <use x="389.373047" xlink:href="#DejaVuSans-74"/>
      <use x="428.582031" xlink:href="#DejaVuSans-63"/>
      <use x="483.5625" xlink:href="#DejaVuSans-70"/>
      <use x="547.039062" xlink:href="#DejaVuSans-64"/>
      <use x="610.515625" xlink:href="#DejaVuSans-75"/>
      <use x="673.894531" xlink:href="#DejaVuSans-6d"/>
      <use x="771.306641" xlink:href="#DejaVuSans-70"/>
     </g>
    </g>
    <g id="line2d_24">
     <path d="M 1175.520313 111.574687 
L 1195.520313 111.574687 
" style="fill:none;stroke:#0000ff;stroke-linecap:square;stroke-width:1.5;"/>
    </g>
    <g id="line2d_25"/>
    <g id="text_19">
     <!-- OLS -->
     <defs>
      <path d="M 39.40625 66.21875 
Q 28.65625 66.21875 22.328125 58.203125 
Q 16.015625 50.203125 16.015625 36.375 
Q 16.015625 22.609375 22.328125 14.59375 
Q 28.65625 6.59375 39.40625 6.59375 
Q 50.140625 6.59375 56.421875 14.59375 
Q 62.703125 22.609375 62.703125 36.375 
Q 62.703125 50.203125 56.421875 58.203125 
Q 50.140625 66.21875 39.40625 66.21875 
z
M 39.40625 74.21875 
Q 54.734375 74.21875 63.90625 63.9375 
Q 73.09375 53.65625 73.09375 36.375 
Q 73.09375 19.140625 63.90625 8.859375 
Q 54.734375 -1.421875 39.40625 -1.421875 
Q 24.03125 -1.421875 14.8125 8.828125 
Q 5.609375 19.09375 5.609375 36.375 
Q 5.609375 53.65625 14.8125 63.9375 
Q 24.03125 74.21875 39.40625 74.21875 
z
" id="DejaVuSans-4f"/>
      <path d="M 9.8125 72.90625 
L 19.671875 72.90625 
L 19.671875 8.296875 
L 55.171875 8.296875 
L 55.171875 0 
L 9.8125 0 
z
" id="DejaVuSans-4c"/>
      <path d="M 53.515625 70.515625 
L 53.515625 60.890625 
Q 47.90625 63.578125 42.921875 64.890625 
Q 37.9375 66.21875 33.296875 66.21875 
Q 25.25 66.21875 20.875 63.09375 
Q 16.5 59.96875 16.5 54.203125 
Q 16.5 49.359375 19.40625 46.890625 
Q 22.3125 44.4375 30.421875 42.921875 
L 36.375 41.703125 
Q 47.40625 39.59375 52.65625 34.296875 
Q 57.90625 29 57.90625 20.125 
Q 57.90625 9.515625 50.796875 4.046875 
Q 43.703125 -1.421875 29.984375 -1.421875 
Q 24.8125 -1.421875 18.96875 -0.25 
Q 13.140625 0.921875 6.890625 3.21875 
L 6.890625 13.375 
Q 12.890625 10.015625 18.65625 8.296875 
Q 24.421875 6.59375 29.984375 6.59375 
Q 38.421875 6.59375 43.015625 9.90625 
Q 47.609375 13.234375 47.609375 19.390625 
Q 47.609375 24.75 44.3125 27.78125 
Q 41.015625 30.8125 33.5 32.328125 
L 27.484375 33.5 
Q 16.453125 35.6875 11.515625 40.375 
Q 6.59375 45.0625 6.59375 53.421875 
Q 6.59375 63.09375 13.40625 68.65625 
Q 20.21875 74.21875 32.171875 74.21875 
Q 37.3125 74.21875 42.625 73.28125 
Q 47.953125 72.359375 53.515625 70.515625 
z
" id="DejaVuSans-53"/>
     </defs>
     <g transform="translate(1203.520313 115.074687)scale(0.1 -0.1)">
      <use xlink:href="#DejaVuSans-4f"/>
      <use x="78.710938" xlink:href="#DejaVuSans-4c"/>
      <use x="134.423828" xlink:href="#DejaVuSans-53"/>
     </g>
    </g>
    <g id="line2d_26">
     <path d="M 1175.520313 126.252813 
L 1195.520313 126.252813 
" style="fill:none;stroke:#008000;stroke-linecap:square;stroke-width:1.5;"/>
    </g>
    <g id="line2d_27">
     <g>
      <use style="fill:#008000;stroke:#008000;" x="1185.520313" xlink:href="#m61bd105613" y="126.252813"/>
     </g>
    </g>
    <g id="text_20">
     <!-- IRLS -->
     <defs>
      <path d="M 9.8125 72.90625 
L 19.671875 72.90625 
L 19.671875 0 
L 9.8125 0 
z
" id="DejaVuSans-49"/>
      <path d="M 44.390625 34.1875 
Q 47.5625 33.109375 50.5625 29.59375 
Q 53.5625 26.078125 56.59375 19.921875 
L 66.609375 0 
L 56 0 
L 46.6875 18.703125 
Q 43.0625 26.03125 39.671875 28.421875 
Q 36.28125 30.8125 30.421875 30.8125 
L 19.671875 30.8125 
L 19.671875 0 
L 9.8125 0 
L 9.8125 72.90625 
L 32.078125 72.90625 
Q 44.578125 72.90625 50.734375 67.671875 
Q 56.890625 62.453125 56.890625 51.90625 
Q 56.890625 45.015625 53.6875 40.46875 
Q 50.484375 35.9375 44.390625 34.1875 
z
M 19.671875 64.796875 
L 19.671875 38.921875 
L 32.078125 38.921875 
Q 39.203125 38.921875 42.84375 42.21875 
Q 46.484375 45.515625 46.484375 51.90625 
Q 46.484375 58.296875 42.84375 61.546875 
Q 39.203125 64.796875 32.078125 64.796875 
z
" id="DejaVuSans-52"/>
     </defs>
     <g transform="translate(1203.520313 129.752813)scale(0.1 -0.1)">
      <use xlink:href="#DejaVuSans-49"/>
      <use x="29.492188" xlink:href="#DejaVuSans-52"/>
      <use x="98.974609" xlink:href="#DejaVuSans-4c"/>
      <use x="154.6875" xlink:href="#DejaVuSans-53"/>
     </g>
    </g>
   </g>
  </g>
 </g>
 <defs>
  <clipPath id="p6584e716c1">
   <rect height="443.52" width="1116" x="180" y="69.12"/>
  </clipPath>
 </defs>
</svg>
