<?xml version="1.0" encoding="utf-8" standalone="no"?>
<!DOCTYPE svg PUBLIC "-//W3C//DTD SVG 1.1//EN"
  "http://www.w3.org/Graphics/SVG/1.1/DTD/svg11.dtd">
<!-- Created with matplotlib (http://matplotlib.org/) -->
<svg height="576pt" version="1.1" viewBox="0 0 1440 576" width="1440pt" xmlns="http://www.w3.org/2000/svg" xmlns:xlink="http://www.w3.org/1999/xlink">
 <defs>
  <style type="text/css">
*{stroke-linecap:butt;stroke-linejoin:round;}
  </style>
 </defs>
 <g id="figure_1">
  <g id="patch_1">
   <path d="M 0 576 
L 1440 576 
L 1440 0 
L 0 0 
z
" style="fill:#ffffff;"/>
  </g>
  <g id="axes_1">
   <g id="patch_2">
    <path d="M 180 512.64 
L 1296 512.64 
L 1296 69.12 
L 180 69.12 
z
" style="fill:#ffffff;"/>
   </g>
   <g id="matplotlib.axis_1">
    <g id="xtick_1">
     <g id="line2d_1">
      <defs>
       <path d="M 0 0 
L 0 3.5 
" id="mb69a850a11" style="stroke:#000000;stroke-width:0.8;"/>
      </defs>
      <g>
       <use style="stroke:#000000;stroke-width:0.8;" x="230.727273" xlink:href="#mb69a850a11" y="512.64"/>
      </g>
     </g>
     <g id="text_1">
      <!-- 0.0 -->
      <defs>
       <path d="M 31.78125 66.40625 
Q 24.171875 66.40625 20.328125 58.90625 
Q 16.5 51.421875 16.5 36.375 
Q 16.5 21.390625 20.328125 13.890625 
Q 24.171875 6.390625 31.78125 6.390625 
Q 39.453125 6.390625 43.28125 13.890625 
Q 47.125 21.390625 47.125 36.375 
Q 47.125 51.421875 43.28125 58.90625 
Q 39.453125 66.40625 31.78125 66.40625 
z
M 31.78125 74.21875 
Q 44.046875 74.21875 50.515625 64.515625 
Q 56.984375 54.828125 56.984375 36.375 
Q 56.984375 17.96875 50.515625 8.265625 
Q 44.046875 -1.421875 31.78125 -1.421875 
Q 19.53125 -1.421875 13.0625 8.265625 
Q 6.59375 17.96875 6.59375 36.375 
Q 6.59375 54.828125 13.0625 64.515625 
Q 19.53125 74.21875 31.78125 74.21875 
z
" id="DejaVuSans-30"/>
       <path d="M 10.6875 12.40625 
L 21 12.40625 
L 21 0 
L 10.6875 0 
z
" id="DejaVuSans-2e"/>
      </defs>
      <g transform="translate(222.77571 527.238438)scale(0.1 -0.1)">
       <use xlink:href="#DejaVuSans-30"/>
       <use x="63.623047" xlink:href="#DejaVuSans-2e"/>
       <use x="95.410156" xlink:href="#DejaVuSans-30"/>
      </g>
     </g>
    </g>
    <g id="xtick_2">
     <g id="line2d_2">
      <g>
       <use style="stroke:#000000;stroke-width:0.8;" x="378.471375" xlink:href="#mb69a850a11" y="512.64"/>
      </g>
     </g>
     <g id="text_2">
      <!-- 0.2 -->
      <defs>
       <path d="M 19.1875 8.296875 
L 53.609375 8.296875 
L 53.609375 0 
L 7.328125 0 
L 7.328125 8.296875 
Q 12.9375 14.109375 22.625 23.890625 
Q 32.328125 33.6875 34.8125 36.53125 
Q 39.546875 41.84375 41.421875 45.53125 
Q 43.3125 49.21875 43.3125 52.78125 
Q 43.3125 58.59375 39.234375 62.25 
Q 35.15625 65.921875 28.609375 65.921875 
Q 23.96875 65.921875 18.8125 64.3125 
Q 13.671875 62.703125 7.8125 59.421875 
L 7.8125 69.390625 
Q 13.765625 71.78125 18.9375 73 
Q 24.125 74.21875 28.421875 74.21875 
Q 39.75 74.21875 46.484375 68.546875 
Q 53.21875 62.890625 53.21875 53.421875 
Q 53.21875 48.921875 51.53125 44.890625 
Q 49.859375 40.875 45.40625 35.40625 
Q 44.1875 33.984375 37.640625 27.21875 
Q 31.109375 20.453125 19.1875 8.296875 
z
" id="DejaVuSans-32"/>
      </defs>
      <g transform="translate(370.519813 527.238438)scale(0.1 -0.1)">
       <use xlink:href="#DejaVuSans-30"/>
       <use x="63.623047" xlink:href="#DejaVuSans-2e"/>
       <use x="95.410156" xlink:href="#DejaVuSans-32"/>
      </g>
     </g>
    </g>
    <g id="xtick_3">
     <g id="line2d_3">
      <g>
       <use style="stroke:#000000;stroke-width:0.8;" x="526.215478" xlink:href="#mb69a850a11" y="512.64"/>
      </g>
     </g>
     <g id="text_3">
      <!-- 0.4 -->
      <defs>
       <path d="M 37.796875 64.3125 
L 12.890625 25.390625 
L 37.796875 25.390625 
z
M 35.203125 72.90625 
L 47.609375 72.90625 
L 47.609375 25.390625 
L 58.015625 25.390625 
L 58.015625 17.1875 
L 47.609375 17.1875 
L 47.609375 0 
L 37.796875 0 
L 37.796875 17.1875 
L 4.890625 17.1875 
L 4.890625 26.703125 
z
" id="DejaVuSans-34"/>
      </defs>
      <g transform="translate(518.263915 527.238438)scale(0.1 -0.1)">
       <use xlink:href="#DejaVuSans-30"/>
       <use x="63.623047" xlink:href="#DejaVuSans-2e"/>
       <use x="95.410156" xlink:href="#DejaVuSans-34"/>
      </g>
     </g>
    </g>
    <g id="xtick_4">
     <g id="line2d_4">
      <g>
       <use style="stroke:#000000;stroke-width:0.8;" x="673.95958" xlink:href="#mb69a850a11" y="512.64"/>
      </g>
     </g>
     <g id="text_4">
      <!-- 0.6 -->
      <defs>
       <path d="M 33.015625 40.375 
Q 26.375 40.375 22.484375 35.828125 
Q 18.609375 31.296875 18.609375 23.390625 
Q 18.609375 15.53125 22.484375 10.953125 
Q 26.375 6.390625 33.015625 6.390625 
Q 39.65625 6.390625 43.53125 10.953125 
Q 47.40625 15.53125 47.40625 23.390625 
Q 47.40625 31.296875 43.53125 35.828125 
Q 39.65625 40.375 33.015625 40.375 
z
M 52.59375 71.296875 
L 52.59375 62.3125 
Q 48.875 64.0625 45.09375 64.984375 
Q 41.3125 65.921875 37.59375 65.921875 
Q 27.828125 65.921875 22.671875 59.328125 
Q 17.53125 52.734375 16.796875 39.40625 
Q 19.671875 43.65625 24.015625 45.921875 
Q 28.375 48.1875 33.59375 48.1875 
Q 44.578125 48.1875 50.953125 41.515625 
Q 57.328125 34.859375 57.328125 23.390625 
Q 57.328125 12.15625 50.6875 5.359375 
Q 44.046875 -1.421875 33.015625 -1.421875 
Q 20.359375 -1.421875 13.671875 8.265625 
Q 6.984375 17.96875 6.984375 36.375 
Q 6.984375 53.65625 15.1875 63.9375 
Q 23.390625 74.21875 37.203125 74.21875 
Q 40.921875 74.21875 44.703125 73.484375 
Q 48.484375 72.75 52.59375 71.296875 
z
" id="DejaVuSans-36"/>
      </defs>
      <g transform="translate(666.008018 527.238438)scale(0.1 -0.1)">
       <use xlink:href="#DejaVuSans-30"/>
       <use x="63.623047" xlink:href="#DejaVuSans-2e"/>
       <use x="95.410156" xlink:href="#DejaVuSans-36"/>
      </g>
     </g>
    </g>
    <g id="xtick_5">
     <g id="line2d_5">
      <g>
       <use style="stroke:#000000;stroke-width:0.8;" x="821.703683" xlink:href="#mb69a850a11" y="512.64"/>
      </g>
     </g>
     <g id="text_5">
      <!-- 0.8 -->
      <defs>
       <path d="M 31.78125 34.625 
Q 24.75 34.625 20.71875 30.859375 
Q 16.703125 27.09375 16.703125 20.515625 
Q 16.703125 13.921875 20.71875 10.15625 
Q 24.75 6.390625 31.78125 6.390625 
Q 38.8125 6.390625 42.859375 10.171875 
Q 46.921875 13.96875 46.921875 20.515625 
Q 46.921875 27.09375 42.890625 30.859375 
Q 38.875 34.625 31.78125 34.625 
z
M 21.921875 38.8125 
Q 15.578125 40.375 12.03125 44.71875 
Q 8.5 49.078125 8.5 55.328125 
Q 8.5 64.0625 14.71875 69.140625 
Q 20.953125 74.21875 31.78125 74.21875 
Q 42.671875 74.21875 48.875 69.140625 
Q 55.078125 64.0625 55.078125 55.328125 
Q 55.078125 49.078125 51.53125 44.71875 
Q 48 40.375 41.703125 38.8125 
Q 48.828125 37.15625 52.796875 32.3125 
Q 56.78125 27.484375 56.78125 20.515625 
Q 56.78125 9.90625 50.3125 4.234375 
Q 43.84375 -1.421875 31.78125 -1.421875 
Q 19.734375 -1.421875 13.25 4.234375 
Q 6.78125 9.90625 6.78125 20.515625 
Q 6.78125 27.484375 10.78125 32.3125 
Q 14.796875 37.15625 21.921875 38.8125 
z
M 18.3125 54.390625 
Q 18.3125 48.734375 21.84375 45.5625 
Q 25.390625 42.390625 31.78125 42.390625 
Q 38.140625 42.390625 41.71875 45.5625 
Q 45.3125 48.734375 45.3125 54.390625 
Q 45.3125 60.0625 41.71875 63.234375 
Q 38.140625 66.40625 31.78125 66.40625 
Q 25.390625 66.40625 21.84375 63.234375 
Q 18.3125 60.0625 18.3125 54.390625 
z
" id="DejaVuSans-38"/>
      </defs>
      <g transform="translate(813.75212 527.238438)scale(0.1 -0.1)">
       <use xlink:href="#DejaVuSans-30"/>
       <use x="63.623047" xlink:href="#DejaVuSans-2e"/>
       <use x="95.410156" xlink:href="#DejaVuSans-38"/>
      </g>
     </g>
    </g>
    <g id="xtick_6">
     <g id="line2d_6">
      <g>
       <use style="stroke:#000000;stroke-width:0.8;" x="969.447785" xlink:href="#mb69a850a11" y="512.64"/>
      </g>
     </g>
     <g id="text_6">
      <!-- 1.0 -->
      <defs>
       <path d="M 12.40625 8.296875 
L 28.515625 8.296875 
L 28.515625 63.921875 
L 10.984375 60.40625 
L 10.984375 69.390625 
L 28.421875 72.90625 
L 38.28125 72.90625 
L 38.28125 8.296875 
L 54.390625 8.296875 
L 54.390625 0 
L 12.40625 0 
z
" id="DejaVuSans-31"/>
      </defs>
      <g transform="translate(961.496222 527.238438)scale(0.1 -0.1)">
       <use xlink:href="#DejaVuSans-31"/>
       <use x="63.623047" xlink:href="#DejaVuSans-2e"/>
       <use x="95.410156" xlink:href="#DejaVuSans-30"/>
      </g>
     </g>
    </g>
    <g id="xtick_7">
     <g id="line2d_7">
      <g>
       <use style="stroke:#000000;stroke-width:0.8;" x="1117.191887" xlink:href="#mb69a850a11" y="512.64"/>
      </g>
     </g>
     <g id="text_7">
      <!-- 1.2 -->
      <g transform="translate(1109.240325 527.238438)scale(0.1 -0.1)">
       <use xlink:href="#DejaVuSans-31"/>
       <use x="63.623047" xlink:href="#DejaVuSans-2e"/>
       <use x="95.410156" xlink:href="#DejaVuSans-32"/>
      </g>
     </g>
    </g>
    <g id="xtick_8">
     <g id="line2d_8">
      <g>
       <use style="stroke:#000000;stroke-width:0.8;" x="1264.93599" xlink:href="#mb69a850a11" y="512.64"/>
      </g>
     </g>
     <g id="text_8">
      <!-- 1.4 -->
      <g transform="translate(1256.984427 527.238438)scale(0.1 -0.1)">
       <use xlink:href="#DejaVuSans-31"/>
       <use x="63.623047" xlink:href="#DejaVuSans-2e"/>
       <use x="95.410156" xlink:href="#DejaVuSans-34"/>
      </g>
     </g>
    </g>
   </g>
   <g id="matplotlib.axis_2">
    <g id="ytick_1">
     <g id="line2d_9">
      <defs>
       <path d="M 0 0 
L -3.5 0 
" id="m3ee40da570" style="stroke:#000000;stroke-width:0.8;"/>
      </defs>
      <g>
       <use style="stroke:#000000;stroke-width:0.8;" x="180" xlink:href="#m3ee40da570" y="436.866207"/>
      </g>
     </g>
     <g id="text_9">
      <!-- 0.3004 -->
      <defs>
       <path d="M 40.578125 39.3125 
Q 47.65625 37.796875 51.625 33 
Q 55.609375 28.21875 55.609375 21.1875 
Q 55.609375 10.40625 48.1875 4.484375 
Q 40.765625 -1.421875 27.09375 -1.421875 
Q 22.515625 -1.421875 17.65625 -0.515625 
Q 12.796875 0.390625 7.625 2.203125 
L 7.625 11.71875 
Q 11.71875 9.328125 16.59375 8.109375 
Q 21.484375 6.890625 26.8125 6.890625 
Q 36.078125 6.890625 40.9375 10.546875 
Q 45.796875 14.203125 45.796875 21.1875 
Q 45.796875 27.640625 41.28125 31.265625 
Q 36.765625 34.90625 28.71875 34.90625 
L 20.21875 34.90625 
L 20.21875 43.015625 
L 29.109375 43.015625 
Q 36.375 43.015625 40.234375 45.921875 
Q 44.09375 48.828125 44.09375 54.296875 
Q 44.09375 59.90625 40.109375 62.90625 
Q 36.140625 65.921875 28.71875 65.921875 
Q 24.65625 65.921875 20.015625 65.03125 
Q 15.375 64.15625 9.8125 62.3125 
L 9.8125 71.09375 
Q 15.4375 72.65625 20.34375 73.4375 
Q 25.25 74.21875 29.59375 74.21875 
Q 40.828125 74.21875 47.359375 69.109375 
Q 53.90625 64.015625 53.90625 55.328125 
Q 53.90625 49.265625 50.4375 45.09375 
Q 46.96875 40.921875 40.578125 39.3125 
z
" id="DejaVuSans-33"/>
      </defs>
      <g transform="translate(138.009375 440.665426)scale(0.1 -0.1)">
       <use xlink:href="#DejaVuSans-30"/>
       <use x="63.623047" xlink:href="#DejaVuSans-2e"/>
       <use x="95.410156" xlink:href="#DejaVuSans-33"/>
       <use x="159.033203" xlink:href="#DejaVuSans-30"/>
       <use x="222.65625" xlink:href="#DejaVuSans-30"/>
       <use x="286.279297" xlink:href="#DejaVuSans-34"/>
      </g>
     </g>
    </g>
    <g id="ytick_2">
     <g id="line2d_10">
      <g>
       <use style="stroke:#000000;stroke-width:0.8;" x="180" xlink:href="#m3ee40da570" y="355.081217"/>
      </g>
     </g>
     <g id="text_10">
      <!-- 0.3005 -->
      <defs>
       <path d="M 10.796875 72.90625 
L 49.515625 72.90625 
L 49.515625 64.59375 
L 19.828125 64.59375 
L 19.828125 46.734375 
Q 21.96875 47.46875 24.109375 47.828125 
Q 26.265625 48.1875 28.421875 48.1875 
Q 40.625 48.1875 47.75 41.5 
Q 54.890625 34.8125 54.890625 23.390625 
Q 54.890625 11.625 47.5625 5.09375 
Q 40.234375 -1.421875 26.90625 -1.421875 
Q 22.3125 -1.421875 17.546875 -0.640625 
Q 12.796875 0.140625 7.71875 1.703125 
L 7.71875 11.625 
Q 12.109375 9.234375 16.796875 8.0625 
Q 21.484375 6.890625 26.703125 6.890625 
Q 35.15625 6.890625 40.078125 11.328125 
Q 45.015625 15.765625 45.015625 23.390625 
Q 45.015625 31 40.078125 35.4375 
Q 35.15625 39.890625 26.703125 39.890625 
Q 22.75 39.890625 18.8125 39.015625 
Q 14.890625 38.140625 10.796875 36.28125 
z
" id="DejaVuSans-35"/>
      </defs>
      <g transform="translate(138.009375 358.880436)scale(0.1 -0.1)">
       <use xlink:href="#DejaVuSans-30"/>
       <use x="63.623047" xlink:href="#DejaVuSans-2e"/>
       <use x="95.410156" xlink:href="#DejaVuSans-33"/>
       <use x="159.033203" xlink:href="#DejaVuSans-30"/>
       <use x="222.65625" xlink:href="#DejaVuSans-30"/>
       <use x="286.279297" xlink:href="#DejaVuSans-35"/>
      </g>
     </g>
    </g>
    <g id="ytick_3">
     <g id="line2d_11">
      <g>
       <use style="stroke:#000000;stroke-width:0.8;" x="180" xlink:href="#m3ee40da570" y="273.296227"/>
      </g>
     </g>
     <g id="text_11">
      <!-- 0.3006 -->
      <g transform="translate(138.009375 277.095446)scale(0.1 -0.1)">
       <use xlink:href="#DejaVuSans-30"/>
       <use x="63.623047" xlink:href="#DejaVuSans-2e"/>
       <use x="95.410156" xlink:href="#DejaVuSans-33"/>
       <use x="159.033203" xlink:href="#DejaVuSans-30"/>
       <use x="222.65625" xlink:href="#DejaVuSans-30"/>
       <use x="286.279297" xlink:href="#DejaVuSans-36"/>
      </g>
     </g>
    </g>
    <g id="ytick_4">
     <g id="line2d_12">
      <g>
       <use style="stroke:#000000;stroke-width:0.8;" x="180" xlink:href="#m3ee40da570" y="191.511237"/>
      </g>
     </g>
     <g id="text_12">
      <!-- 0.3007 -->
      <defs>
       <path d="M 8.203125 72.90625 
L 55.078125 72.90625 
L 55.078125 68.703125 
L 28.609375 0 
L 18.3125 0 
L 43.21875 64.59375 
L 8.203125 64.59375 
z
" id="DejaVuSans-37"/>
      </defs>
      <g transform="translate(138.009375 195.310456)scale(0.1 -0.1)">
       <use xlink:href="#DejaVuSans-30"/>
       <use x="63.623047" xlink:href="#DejaVuSans-2e"/>
       <use x="95.410156" xlink:href="#DejaVuSans-33"/>
       <use x="159.033203" xlink:href="#DejaVuSans-30"/>
       <use x="222.65625" xlink:href="#DejaVuSans-30"/>
       <use x="286.279297" xlink:href="#DejaVuSans-37"/>
      </g>
     </g>
    </g>
    <g id="ytick_5">
     <g id="line2d_13">
      <g>
       <use style="stroke:#000000;stroke-width:0.8;" x="180" xlink:href="#m3ee40da570" y="109.726247"/>
      </g>
     </g>
     <g id="text_13">
      <!-- 0.3008 -->
      <g transform="translate(138.009375 113.525466)scale(0.1 -0.1)">
       <use xlink:href="#DejaVuSans-30"/>
       <use x="63.623047" xlink:href="#DejaVuSans-2e"/>
       <use x="95.410156" xlink:href="#DejaVuSans-33"/>
       <use x="159.033203" xlink:href="#DejaVuSans-30"/>
       <use x="222.65625" xlink:href="#DejaVuSans-30"/>
       <use x="286.279297" xlink:href="#DejaVuSans-38"/>
      </g>
     </g>
    </g>
   </g>
   <g id="line2d_14">
    <path clip-path="url(#p57fc658986)" d="M 230.727273 339.542069 
L 240.38826 418.055659 
L 250.745121 454.041055 
L 260.741487 288.835375 
L 270.367015 453.223205 
L 280.696544 449.951805 
L 290.605003 409.05931 
L 300.218711 449.133955 
L 310.557105 305.192373 
L 320.441185 409.05931 
L 330.090353 414.78426 
L 340.891924 464.673103 
L 350.557343 367.348966 
L 361.239981 472.851602 
L 371.130709 410.69501 
L 380.800561 457.312454 
L 392.269936 490.02645 
L 402.411091 472.033753 
L 412.00707 461.401704 
L 422.467353 402.516511 
L 432.352172 436.048357 
L 441.934854 472.033753 
L 452.240744 477.758702 
L 462.27183 438.501907 
L 474.689722 445.862556 
L 484.819058 418.055659 
L 495.91464 478.576552 
L 505.663534 326.456471 
L 515.327476 457.312454 
L 526.52574 475.305152 
L 536.648427 419.691359 
L 546.293162 445.044706 
L 558.960742 400.880811 
L 568.574451 450.769655 
L 578.185204 399.245112 
L 588.480013 435.230507 
L 598.096677 457.312454 
L 607.708908 454.858905 
L 618.434391 431.959108 
L 628.043668 455.676755 
L 637.777049 449.951805 
L 648.401328 268.389128 
L 658.023162 462.219554 
L 667.603629 402.516511 
L 678.202052 458.130304 
L 687.849003 450.769655 
L 700.572725 453.223205 
L 710.178308 473.669452 
L 719.819349 401.698661 
L 730.421466 348.538418 
L 740.033698 454.858905 
L 752.372546 454.041055 
L 762.071208 467.944503 
L 771.78686 421.327059 
L 783.779249 487.572901 
L 794.010528 408.24146 
L 804.871936 462.219554 
L 814.508545 463.855254 
L 824.080885 436.048357 
L 834.710335 406.605761 
L 844.360241 458.130304 
L 853.960652 430.323408 
L 864.626299 477.758702 
L 874.267341 471.215903 
L 884.049478 427.869858 
L 894.481689 445.862556 
L 904.104262 436.048357 
L 913.708367 406.605761 
L 924.534317 378.798864 
L 934.24923 417.237809 
L 943.924253 439.319757 
L 954.821119 427.869858 
L 965.226736 407.423611 
L 977.494668 485.119351 
L 987.926879 454.041055 
L 999.728677 382.888114 
L 1010.118043 386.159513 
L 1021.149356 368.166815 
L 1030.791875 453.223205 
L 1040.412232 448.316105 
L 1051.096347 367.348966 
L 1060.715227 413.96641 
L 1070.362178 473.669452 
L 1080.927359 464.673103 
L 1090.541067 492.48 
L 1100.171767 479.394402 
L 1110.748767 346.084868 
L 1120.371341 409.05931 
L 1129.993914 468.762353 
L 1140.597508 292.924625 
L 1150.332367 467.126653 
L 1159.993354 382.888114 
L 1170.656046 484.301501 
L 1180.38204 418.055659 
L 1190.888862 378.798864 
L 1201.350622 452.405355 
L 1211.70379 388.613063 
L 1222.825227 336.270669 
L 1233.910467 89.28 
L 1245.272727 326.456471 
" style="fill:none;stroke:#ff0000;stroke-dasharray:5.55,2.4;stroke-dashoffset:0;stroke-width:1.5;"/>
    <defs>
     <path d="M -3 3 
L 3 3 
L 3 -3 
L -3 -3 
z
" id="m5390aadd56" style="stroke:#ff0000;stroke-linejoin:miter;"/>
    </defs>
    <g clip-path="url(#p57fc658986)">
     <use style="fill:#ff0000;stroke:#ff0000;stroke-linejoin:miter;" x="230.727273" xlink:href="#m5390aadd56" y="339.542069"/>
     <use style="fill:#ff0000;stroke:#ff0000;stroke-linejoin:miter;" x="240.38826" xlink:href="#m5390aadd56" y="418.055659"/>
     <use style="fill:#ff0000;stroke:#ff0000;stroke-linejoin:miter;" x="250.745121" xlink:href="#m5390aadd56" y="454.041055"/>
     <use style="fill:#ff0000;stroke:#ff0000;stroke-linejoin:miter;" x="260.741487" xlink:href="#m5390aadd56" y="288.835375"/>
     <use style="fill:#ff0000;stroke:#ff0000;stroke-linejoin:miter;" x="270.367015" xlink:href="#m5390aadd56" y="453.223205"/>
     <use style="fill:#ff0000;stroke:#ff0000;stroke-linejoin:miter;" x="280.696544" xlink:href="#m5390aadd56" y="449.951805"/>
     <use style="fill:#ff0000;stroke:#ff0000;stroke-linejoin:miter;" x="290.605003" xlink:href="#m5390aadd56" y="409.05931"/>
     <use style="fill:#ff0000;stroke:#ff0000;stroke-linejoin:miter;" x="300.218711" xlink:href="#m5390aadd56" y="449.133955"/>
     <use style="fill:#ff0000;stroke:#ff0000;stroke-linejoin:miter;" x="310.557105" xlink:href="#m5390aadd56" y="305.192373"/>
     <use style="fill:#ff0000;stroke:#ff0000;stroke-linejoin:miter;" x="320.441185" xlink:href="#m5390aadd56" y="409.05931"/>
     <use style="fill:#ff0000;stroke:#ff0000;stroke-linejoin:miter;" x="330.090353" xlink:href="#m5390aadd56" y="414.78426"/>
     <use style="fill:#ff0000;stroke:#ff0000;stroke-linejoin:miter;" x="340.891924" xlink:href="#m5390aadd56" y="464.673103"/>
     <use style="fill:#ff0000;stroke:#ff0000;stroke-linejoin:miter;" x="350.557343" xlink:href="#m5390aadd56" y="367.348966"/>
     <use style="fill:#ff0000;stroke:#ff0000;stroke-linejoin:miter;" x="361.239981" xlink:href="#m5390aadd56" y="472.851602"/>
     <use style="fill:#ff0000;stroke:#ff0000;stroke-linejoin:miter;" x="371.130709" xlink:href="#m5390aadd56" y="410.69501"/>
     <use style="fill:#ff0000;stroke:#ff0000;stroke-linejoin:miter;" x="380.800561" xlink:href="#m5390aadd56" y="457.312454"/>
     <use style="fill:#ff0000;stroke:#ff0000;stroke-linejoin:miter;" x="392.269936" xlink:href="#m5390aadd56" y="490.02645"/>
     <use style="fill:#ff0000;stroke:#ff0000;stroke-linejoin:miter;" x="402.411091" xlink:href="#m5390aadd56" y="472.033753"/>
     <use style="fill:#ff0000;stroke:#ff0000;stroke-linejoin:miter;" x="412.00707" xlink:href="#m5390aadd56" y="461.401704"/>
     <use style="fill:#ff0000;stroke:#ff0000;stroke-linejoin:miter;" x="422.467353" xlink:href="#m5390aadd56" y="402.516511"/>
     <use style="fill:#ff0000;stroke:#ff0000;stroke-linejoin:miter;" x="432.352172" xlink:href="#m5390aadd56" y="436.048357"/>
     <use style="fill:#ff0000;stroke:#ff0000;stroke-linejoin:miter;" x="441.934854" xlink:href="#m5390aadd56" y="472.033753"/>
     <use style="fill:#ff0000;stroke:#ff0000;stroke-linejoin:miter;" x="452.240744" xlink:href="#m5390aadd56" y="477.758702"/>
     <use style="fill:#ff0000;stroke:#ff0000;stroke-linejoin:miter;" x="462.27183" xlink:href="#m5390aadd56" y="438.501907"/>
     <use style="fill:#ff0000;stroke:#ff0000;stroke-linejoin:miter;" x="474.689722" xlink:href="#m5390aadd56" y="445.862556"/>
     <use style="fill:#ff0000;stroke:#ff0000;stroke-linejoin:miter;" x="484.819058" xlink:href="#m5390aadd56" y="418.055659"/>
     <use style="fill:#ff0000;stroke:#ff0000;stroke-linejoin:miter;" x="495.91464" xlink:href="#m5390aadd56" y="478.576552"/>
     <use style="fill:#ff0000;stroke:#ff0000;stroke-linejoin:miter;" x="505.663534" xlink:href="#m5390aadd56" y="326.456471"/>
     <use style="fill:#ff0000;stroke:#ff0000;stroke-linejoin:miter;" x="515.327476" xlink:href="#m5390aadd56" y="457.312454"/>
     <use style="fill:#ff0000;stroke:#ff0000;stroke-linejoin:miter;" x="526.52574" xlink:href="#m5390aadd56" y="475.305152"/>
     <use style="fill:#ff0000;stroke:#ff0000;stroke-linejoin:miter;" x="536.648427" xlink:href="#m5390aadd56" y="419.691359"/>
     <use style="fill:#ff0000;stroke:#ff0000;stroke-linejoin:miter;" x="546.293162" xlink:href="#m5390aadd56" y="445.044706"/>
     <use style="fill:#ff0000;stroke:#ff0000;stroke-linejoin:miter;" x="558.960742" xlink:href="#m5390aadd56" y="400.880811"/>
     <use style="fill:#ff0000;stroke:#ff0000;stroke-linejoin:miter;" x="568.574451" xlink:href="#m5390aadd56" y="450.769655"/>
     <use style="fill:#ff0000;stroke:#ff0000;stroke-linejoin:miter;" x="578.185204" xlink:href="#m5390aadd56" y="399.245112"/>
     <use style="fill:#ff0000;stroke:#ff0000;stroke-linejoin:miter;" x="588.480013" xlink:href="#m5390aadd56" y="435.230507"/>
     <use style="fill:#ff0000;stroke:#ff0000;stroke-linejoin:miter;" x="598.096677" xlink:href="#m5390aadd56" y="457.312454"/>
     <use style="fill:#ff0000;stroke:#ff0000;stroke-linejoin:miter;" x="607.708908" xlink:href="#m5390aadd56" y="454.858905"/>
     <use style="fill:#ff0000;stroke:#ff0000;stroke-linejoin:miter;" x="618.434391" xlink:href="#m5390aadd56" y="431.959108"/>
     <use style="fill:#ff0000;stroke:#ff0000;stroke-linejoin:miter;" x="628.043668" xlink:href="#m5390aadd56" y="455.676755"/>
     <use style="fill:#ff0000;stroke:#ff0000;stroke-linejoin:miter;" x="637.777049" xlink:href="#m5390aadd56" y="449.951805"/>
     <use style="fill:#ff0000;stroke:#ff0000;stroke-linejoin:miter;" x="648.401328" xlink:href="#m5390aadd56" y="268.389128"/>
     <use style="fill:#ff0000;stroke:#ff0000;stroke-linejoin:miter;" x="658.023162" xlink:href="#m5390aadd56" y="462.219554"/>
     <use style="fill:#ff0000;stroke:#ff0000;stroke-linejoin:miter;" x="667.603629" xlink:href="#m5390aadd56" y="402.516511"/>
     <use style="fill:#ff0000;stroke:#ff0000;stroke-linejoin:miter;" x="678.202052" xlink:href="#m5390aadd56" y="458.130304"/>
     <use style="fill:#ff0000;stroke:#ff0000;stroke-linejoin:miter;" x="687.849003" xlink:href="#m5390aadd56" y="450.769655"/>
     <use style="fill:#ff0000;stroke:#ff0000;stroke-linejoin:miter;" x="700.572725" xlink:href="#m5390aadd56" y="453.223205"/>
     <use style="fill:#ff0000;stroke:#ff0000;stroke-linejoin:miter;" x="710.178308" xlink:href="#m5390aadd56" y="473.669452"/>
     <use style="fill:#ff0000;stroke:#ff0000;stroke-linejoin:miter;" x="719.819349" xlink:href="#m5390aadd56" y="401.698661"/>
     <use style="fill:#ff0000;stroke:#ff0000;stroke-linejoin:miter;" x="730.421466" xlink:href="#m5390aadd56" y="348.538418"/>
     <use style="fill:#ff0000;stroke:#ff0000;stroke-linejoin:miter;" x="740.033698" xlink:href="#m5390aadd56" y="454.858905"/>
     <use style="fill:#ff0000;stroke:#ff0000;stroke-linejoin:miter;" x="752.372546" xlink:href="#m5390aadd56" y="454.041055"/>
     <use style="fill:#ff0000;stroke:#ff0000;stroke-linejoin:miter;" x="762.071208" xlink:href="#m5390aadd56" y="467.944503"/>
     <use style="fill:#ff0000;stroke:#ff0000;stroke-linejoin:miter;" x="771.78686" xlink:href="#m5390aadd56" y="421.327059"/>
     <use style="fill:#ff0000;stroke:#ff0000;stroke-linejoin:miter;" x="783.779249" xlink:href="#m5390aadd56" y="487.572901"/>
     <use style="fill:#ff0000;stroke:#ff0000;stroke-linejoin:miter;" x="794.010528" xlink:href="#m5390aadd56" y="408.24146"/>
     <use style="fill:#ff0000;stroke:#ff0000;stroke-linejoin:miter;" x="804.871936" xlink:href="#m5390aadd56" y="462.219554"/>
     <use style="fill:#ff0000;stroke:#ff0000;stroke-linejoin:miter;" x="814.508545" xlink:href="#m5390aadd56" y="463.855254"/>
     <use style="fill:#ff0000;stroke:#ff0000;stroke-linejoin:miter;" x="824.080885" xlink:href="#m5390aadd56" y="436.048357"/>
     <use style="fill:#ff0000;stroke:#ff0000;stroke-linejoin:miter;" x="834.710335" xlink:href="#m5390aadd56" y="406.605761"/>
     <use style="fill:#ff0000;stroke:#ff0000;stroke-linejoin:miter;" x="844.360241" xlink:href="#m5390aadd56" y="458.130304"/>
     <use style="fill:#ff0000;stroke:#ff0000;stroke-linejoin:miter;" x="853.960652" xlink:href="#m5390aadd56" y="430.323408"/>
     <use style="fill:#ff0000;stroke:#ff0000;stroke-linejoin:miter;" x="864.626299" xlink:href="#m5390aadd56" y="477.758702"/>
     <use style="fill:#ff0000;stroke:#ff0000;stroke-linejoin:miter;" x="874.267341" xlink:href="#m5390aadd56" y="471.215903"/>
     <use style="fill:#ff0000;stroke:#ff0000;stroke-linejoin:miter;" x="884.049478" xlink:href="#m5390aadd56" y="427.869858"/>
     <use style="fill:#ff0000;stroke:#ff0000;stroke-linejoin:miter;" x="894.481689" xlink:href="#m5390aadd56" y="445.862556"/>
     <use style="fill:#ff0000;stroke:#ff0000;stroke-linejoin:miter;" x="904.104262" xlink:href="#m5390aadd56" y="436.048357"/>
     <use style="fill:#ff0000;stroke:#ff0000;stroke-linejoin:miter;" x="913.708367" xlink:href="#m5390aadd56" y="406.605761"/>
     <use style="fill:#ff0000;stroke:#ff0000;stroke-linejoin:miter;" x="924.534317" xlink:href="#m5390aadd56" y="378.798864"/>
     <use style="fill:#ff0000;stroke:#ff0000;stroke-linejoin:miter;" x="934.24923" xlink:href="#m5390aadd56" y="417.237809"/>
     <use style="fill:#ff0000;stroke:#ff0000;stroke-linejoin:miter;" x="943.924253" xlink:href="#m5390aadd56" y="439.319757"/>
     <use style="fill:#ff0000;stroke:#ff0000;stroke-linejoin:miter;" x="954.821119" xlink:href="#m5390aadd56" y="427.869858"/>
     <use style="fill:#ff0000;stroke:#ff0000;stroke-linejoin:miter;" x="965.226736" xlink:href="#m5390aadd56" y="407.423611"/>
     <use style="fill:#ff0000;stroke:#ff0000;stroke-linejoin:miter;" x="977.494668" xlink:href="#m5390aadd56" y="485.119351"/>
     <use style="fill:#ff0000;stroke:#ff0000;stroke-linejoin:miter;" x="987.926879" xlink:href="#m5390aadd56" y="454.041055"/>
     <use style="fill:#ff0000;stroke:#ff0000;stroke-linejoin:miter;" x="999.728677" xlink:href="#m5390aadd56" y="382.888114"/>
     <use style="fill:#ff0000;stroke:#ff0000;stroke-linejoin:miter;" x="1010.118043" xlink:href="#m5390aadd56" y="386.159513"/>
     <use style="fill:#ff0000;stroke:#ff0000;stroke-linejoin:miter;" x="1021.149356" xlink:href="#m5390aadd56" y="368.166815"/>
     <use style="fill:#ff0000;stroke:#ff0000;stroke-linejoin:miter;" x="1030.791875" xlink:href="#m5390aadd56" y="453.223205"/>
     <use style="fill:#ff0000;stroke:#ff0000;stroke-linejoin:miter;" x="1040.412232" xlink:href="#m5390aadd56" y="448.316105"/>
     <use style="fill:#ff0000;stroke:#ff0000;stroke-linejoin:miter;" x="1051.096347" xlink:href="#m5390aadd56" y="367.348966"/>
     <use style="fill:#ff0000;stroke:#ff0000;stroke-linejoin:miter;" x="1060.715227" xlink:href="#m5390aadd56" y="413.96641"/>
     <use style="fill:#ff0000;stroke:#ff0000;stroke-linejoin:miter;" x="1070.362178" xlink:href="#m5390aadd56" y="473.669452"/>
     <use style="fill:#ff0000;stroke:#ff0000;stroke-linejoin:miter;" x="1080.927359" xlink:href="#m5390aadd56" y="464.673103"/>
     <use style="fill:#ff0000;stroke:#ff0000;stroke-linejoin:miter;" x="1090.541067" xlink:href="#m5390aadd56" y="492.48"/>
     <use style="fill:#ff0000;stroke:#ff0000;stroke-linejoin:miter;" x="1100.171767" xlink:href="#m5390aadd56" y="479.394402"/>
     <use style="fill:#ff0000;stroke:#ff0000;stroke-linejoin:miter;" x="1110.748767" xlink:href="#m5390aadd56" y="346.084868"/>
     <use style="fill:#ff0000;stroke:#ff0000;stroke-linejoin:miter;" x="1120.371341" xlink:href="#m5390aadd56" y="409.05931"/>
     <use style="fill:#ff0000;stroke:#ff0000;stroke-linejoin:miter;" x="1129.993914" xlink:href="#m5390aadd56" y="468.762353"/>
     <use style="fill:#ff0000;stroke:#ff0000;stroke-linejoin:miter;" x="1140.597508" xlink:href="#m5390aadd56" y="292.924625"/>
     <use style="fill:#ff0000;stroke:#ff0000;stroke-linejoin:miter;" x="1150.332367" xlink:href="#m5390aadd56" y="467.126653"/>
     <use style="fill:#ff0000;stroke:#ff0000;stroke-linejoin:miter;" x="1159.993354" xlink:href="#m5390aadd56" y="382.888114"/>
     <use style="fill:#ff0000;stroke:#ff0000;stroke-linejoin:miter;" x="1170.656046" xlink:href="#m5390aadd56" y="484.301501"/>
     <use style="fill:#ff0000;stroke:#ff0000;stroke-linejoin:miter;" x="1180.38204" xlink:href="#m5390aadd56" y="418.055659"/>
     <use style="fill:#ff0000;stroke:#ff0000;stroke-linejoin:miter;" x="1190.888862" xlink:href="#m5390aadd56" y="378.798864"/>
     <use style="fill:#ff0000;stroke:#ff0000;stroke-linejoin:miter;" x="1201.350622" xlink:href="#m5390aadd56" y="452.405355"/>
     <use style="fill:#ff0000;stroke:#ff0000;stroke-linejoin:miter;" x="1211.70379" xlink:href="#m5390aadd56" y="388.613063"/>
     <use style="fill:#ff0000;stroke:#ff0000;stroke-linejoin:miter;" x="1222.825227" xlink:href="#m5390aadd56" y="336.270669"/>
     <use style="fill:#ff0000;stroke:#ff0000;stroke-linejoin:miter;" x="1233.910467" xlink:href="#m5390aadd56" y="89.28"/>
     <use style="fill:#ff0000;stroke:#ff0000;stroke-linejoin:miter;" x="1245.272727" xlink:href="#m5390aadd56" y="326.456471"/>
    </g>
   </g>
   <g id="line2d_15">
    <path clip-path="url(#p57fc658986)" d="M 230.727273 339.542069 
L 240.38826 418.055659 
L 250.745121 454.041055 
L 260.741487 288.835375 
L 270.367015 453.223205 
L 280.696544 449.951805 
L 290.605003 409.05931 
L 300.218711 449.133955 
L 310.557105 305.192373 
L 320.441185 409.05931 
L 330.090353 414.78426 
L 340.891924 464.673103 
L 350.557343 367.348966 
L 361.239981 472.851602 
L 371.130709 410.69501 
L 380.800561 457.312454 
L 392.269936 490.02645 
L 402.411091 472.033753 
L 412.00707 461.401704 
L 422.467353 402.516511 
L 432.352172 436.048357 
L 441.934854 472.033753 
L 452.240744 477.758702 
L 462.27183 438.501907 
L 474.689722 445.862556 
L 484.819058 418.055659 
L 495.91464 478.576552 
L 505.663534 326.456471 
L 515.327476 457.312454 
L 526.52574 475.305152 
L 536.648427 419.691359 
L 546.293162 445.044706 
L 558.960742 400.880811 
L 568.574451 450.769655 
L 578.185204 399.245112 
L 588.480013 435.230507 
L 598.096677 457.312454 
L 607.708908 454.858905 
L 618.434391 431.959108 
L 628.043668 455.676755 
L 637.777049 449.951805 
L 648.401328 268.389128 
L 658.023162 462.219554 
L 667.603629 402.516511 
L 678.202052 458.130304 
L 687.849003 450.769655 
L 700.572725 453.223205 
L 710.178308 473.669452 
L 719.819349 401.698661 
L 730.421466 348.538418 
L 740.033698 454.858905 
L 752.372546 454.041055 
L 762.071208 467.944503 
L 771.78686 421.327059 
L 783.779249 487.572901 
L 794.010528 408.24146 
L 804.871936 462.219554 
L 814.508545 463.855254 
L 824.080885 436.048357 
L 834.710335 406.605761 
L 844.360241 458.130304 
L 853.960652 430.323408 
L 864.626299 477.758702 
L 874.267341 471.215903 
L 884.049478 427.869858 
L 894.481689 445.862556 
L 904.104262 436.048357 
L 913.708367 406.605761 
L 924.534317 378.798864 
L 934.24923 417.237809 
L 943.924253 439.319757 
L 954.821119 427.869858 
L 965.226736 407.423611 
L 977.494668 485.119351 
L 987.926879 454.041055 
L 999.728677 382.888114 
L 1010.118043 386.159513 
L 1021.149356 368.166815 
L 1030.791875 453.223205 
L 1040.412232 448.316105 
L 1051.096347 367.348966 
L 1060.715227 413.96641 
L 1070.362178 473.669452 
L 1080.927359 464.673103 
L 1090.541067 492.48 
L 1100.171767 479.394402 
L 1110.748767 346.084868 
L 1120.371341 409.05931 
L 1129.993914 468.762353 
L 1140.597508 292.924625 
L 1150.332367 467.126653 
L 1159.993354 382.888114 
L 1170.656046 484.301501 
L 1180.38204 418.055659 
L 1190.888862 378.798864 
L 1201.350622 452.405355 
L 1211.70379 388.613063 
L 1222.825227 336.270669 
L 1233.910467 89.28 
L 1245.272727 326.456471 
" style="fill:none;stroke:#800080;stroke-dasharray:9.6,2.4,1.5,2.4;stroke-dashoffset:0;stroke-width:1.5;"/>
    <defs>
     <path d="M -3 3 
L 3 -3 
M -3 -3 
L 3 3 
" id="m36281c3aec" style="stroke:#800080;"/>
    </defs>
    <g clip-path="url(#p57fc658986)">
     <use style="fill:#800080;stroke:#800080;" x="230.727273" xlink:href="#m36281c3aec" y="339.542069"/>
     <use style="fill:#800080;stroke:#800080;" x="240.38826" xlink:href="#m36281c3aec" y="418.055659"/>
     <use style="fill:#800080;stroke:#800080;" x="250.745121" xlink:href="#m36281c3aec" y="454.041055"/>
     <use style="fill:#800080;stroke:#800080;" x="260.741487" xlink:href="#m36281c3aec" y="288.835375"/>
     <use style="fill:#800080;stroke:#800080;" x="270.367015" xlink:href="#m36281c3aec" y="453.223205"/>
     <use style="fill:#800080;stroke:#800080;" x="280.696544" xlink:href="#m36281c3aec" y="449.951805"/>
     <use style="fill:#800080;stroke:#800080;" x="290.605003" xlink:href="#m36281c3aec" y="409.05931"/>
     <use style="fill:#800080;stroke:#800080;" x="300.218711" xlink:href="#m36281c3aec" y="449.133955"/>
     <use style="fill:#800080;stroke:#800080;" x="310.557105" xlink:href="#m36281c3aec" y="305.192373"/>
     <use style="fill:#800080;stroke:#800080;" x="320.441185" xlink:href="#m36281c3aec" y="409.05931"/>
     <use style="fill:#800080;stroke:#800080;" x="330.090353" xlink:href="#m36281c3aec" y="414.78426"/>
     <use style="fill:#800080;stroke:#800080;" x="340.891924" xlink:href="#m36281c3aec" y="464.673103"/>
     <use style="fill:#800080;stroke:#800080;" x="350.557343" xlink:href="#m36281c3aec" y="367.348966"/>
     <use style="fill:#800080;stroke:#800080;" x="361.239981" xlink:href="#m36281c3aec" y="472.851602"/>
     <use style="fill:#800080;stroke:#800080;" x="371.130709" xlink:href="#m36281c3aec" y="410.69501"/>
     <use style="fill:#800080;stroke:#800080;" x="380.800561" xlink:href="#m36281c3aec" y="457.312454"/>
     <use style="fill:#800080;stroke:#800080;" x="392.269936" xlink:href="#m36281c3aec" y="490.02645"/>
     <use style="fill:#800080;stroke:#800080;" x="402.411091" xlink:href="#m36281c3aec" y="472.033753"/>
     <use style="fill:#800080;stroke:#800080;" x="412.00707" xlink:href="#m36281c3aec" y="461.401704"/>
     <use style="fill:#800080;stroke:#800080;" x="422.467353" xlink:href="#m36281c3aec" y="402.516511"/>
     <use style="fill:#800080;stroke:#800080;" x="432.352172" xlink:href="#m36281c3aec" y="436.048357"/>
     <use style="fill:#800080;stroke:#800080;" x="441.934854" xlink:href="#m36281c3aec" y="472.033753"/>
     <use style="fill:#800080;stroke:#800080;" x="452.240744" xlink:href="#m36281c3aec" y="477.758702"/>
     <use style="fill:#800080;stroke:#800080;" x="462.27183" xlink:href="#m36281c3aec" y="438.501907"/>
     <use style="fill:#800080;stroke:#800080;" x="474.689722" xlink:href="#m36281c3aec" y="445.862556"/>
     <use style="fill:#800080;stroke:#800080;" x="484.819058" xlink:href="#m36281c3aec" y="418.055659"/>
     <use style="fill:#800080;stroke:#800080;" x="495.91464" xlink:href="#m36281c3aec" y="478.576552"/>
     <use style="fill:#800080;stroke:#800080;" x="505.663534" xlink:href="#m36281c3aec" y="326.456471"/>
     <use style="fill:#800080;stroke:#800080;" x="515.327476" xlink:href="#m36281c3aec" y="457.312454"/>
     <use style="fill:#800080;stroke:#800080;" x="526.52574" xlink:href="#m36281c3aec" y="475.305152"/>
     <use style="fill:#800080;stroke:#800080;" x="536.648427" xlink:href="#m36281c3aec" y="419.691359"/>
     <use style="fill:#800080;stroke:#800080;" x="546.293162" xlink:href="#m36281c3aec" y="445.044706"/>
     <use style="fill:#800080;stroke:#800080;" x="558.960742" xlink:href="#m36281c3aec" y="400.880811"/>
     <use style="fill:#800080;stroke:#800080;" x="568.574451" xlink:href="#m36281c3aec" y="450.769655"/>
     <use style="fill:#800080;stroke:#800080;" x="578.185204" xlink:href="#m36281c3aec" y="399.245112"/>
     <use style="fill:#800080;stroke:#800080;" x="588.480013" xlink:href="#m36281c3aec" y="435.230507"/>
     <use style="fill:#800080;stroke:#800080;" x="598.096677" xlink:href="#m36281c3aec" y="457.312454"/>
     <use style="fill:#800080;stroke:#800080;" x="607.708908" xlink:href="#m36281c3aec" y="454.858905"/>
     <use style="fill:#800080;stroke:#800080;" x="618.434391" xlink:href="#m36281c3aec" y="431.959108"/>
     <use style="fill:#800080;stroke:#800080;" x="628.043668" xlink:href="#m36281c3aec" y="455.676755"/>
     <use style="fill:#800080;stroke:#800080;" x="637.777049" xlink:href="#m36281c3aec" y="449.951805"/>
     <use style="fill:#800080;stroke:#800080;" x="648.401328" xlink:href="#m36281c3aec" y="268.389128"/>
     <use style="fill:#800080;stroke:#800080;" x="658.023162" xlink:href="#m36281c3aec" y="462.219554"/>
     <use style="fill:#800080;stroke:#800080;" x="667.603629" xlink:href="#m36281c3aec" y="402.516511"/>
     <use style="fill:#800080;stroke:#800080;" x="678.202052" xlink:href="#m36281c3aec" y="458.130304"/>
     <use style="fill:#800080;stroke:#800080;" x="687.849003" xlink:href="#m36281c3aec" y="450.769655"/>
     <use style="fill:#800080;stroke:#800080;" x="700.572725" xlink:href="#m36281c3aec" y="453.223205"/>
     <use style="fill:#800080;stroke:#800080;" x="710.178308" xlink:href="#m36281c3aec" y="473.669452"/>
     <use style="fill:#800080;stroke:#800080;" x="719.819349" xlink:href="#m36281c3aec" y="401.698661"/>
     <use style="fill:#800080;stroke:#800080;" x="730.421466" xlink:href="#m36281c3aec" y="348.538418"/>
     <use style="fill:#800080;stroke:#800080;" x="740.033698" xlink:href="#m36281c3aec" y="454.858905"/>
     <use style="fill:#800080;stroke:#800080;" x="752.372546" xlink:href="#m36281c3aec" y="454.041055"/>
     <use style="fill:#800080;stroke:#800080;" x="762.071208" xlink:href="#m36281c3aec" y="467.944503"/>
     <use style="fill:#800080;stroke:#800080;" x="771.78686" xlink:href="#m36281c3aec" y="421.327059"/>
     <use style="fill:#800080;stroke:#800080;" x="783.779249" xlink:href="#m36281c3aec" y="487.572901"/>
     <use style="fill:#800080;stroke:#800080;" x="794.010528" xlink:href="#m36281c3aec" y="408.24146"/>
     <use style="fill:#800080;stroke:#800080;" x="804.871936" xlink:href="#m36281c3aec" y="462.219554"/>
     <use style="fill:#800080;stroke:#800080;" x="814.508545" xlink:href="#m36281c3aec" y="463.855254"/>
     <use style="fill:#800080;stroke:#800080;" x="824.080885" xlink:href="#m36281c3aec" y="436.048357"/>
     <use style="fill:#800080;stroke:#800080;" x="834.710335" xlink:href="#m36281c3aec" y="406.605761"/>
     <use style="fill:#800080;stroke:#800080;" x="844.360241" xlink:href="#m36281c3aec" y="458.130304"/>
     <use style="fill:#800080;stroke:#800080;" x="853.960652" xlink:href="#m36281c3aec" y="430.323408"/>
     <use style="fill:#800080;stroke:#800080;" x="864.626299" xlink:href="#m36281c3aec" y="477.758702"/>
     <use style="fill:#800080;stroke:#800080;" x="874.267341" xlink:href="#m36281c3aec" y="471.215903"/>
     <use style="fill:#800080;stroke:#800080;" x="884.049478" xlink:href="#m36281c3aec" y="427.869858"/>
     <use style="fill:#800080;stroke:#800080;" x="894.481689" xlink:href="#m36281c3aec" y="445.862556"/>
     <use style="fill:#800080;stroke:#800080;" x="904.104262" xlink:href="#m36281c3aec" y="436.048357"/>
     <use style="fill:#800080;stroke:#800080;" x="913.708367" xlink:href="#m36281c3aec" y="406.605761"/>
     <use style="fill:#800080;stroke:#800080;" x="924.534317" xlink:href="#m36281c3aec" y="378.798864"/>
     <use style="fill:#800080;stroke:#800080;" x="934.24923" xlink:href="#m36281c3aec" y="417.237809"/>
     <use style="fill:#800080;stroke:#800080;" x="943.924253" xlink:href="#m36281c3aec" y="439.319757"/>
     <use style="fill:#800080;stroke:#800080;" x="954.821119" xlink:href="#m36281c3aec" y="427.869858"/>
     <use style="fill:#800080;stroke:#800080;" x="965.226736" xlink:href="#m36281c3aec" y="407.423611"/>
     <use style="fill:#800080;stroke:#800080;" x="977.494668" xlink:href="#m36281c3aec" y="485.119351"/>
     <use style="fill:#800080;stroke:#800080;" x="987.926879" xlink:href="#m36281c3aec" y="454.041055"/>
     <use style="fill:#800080;stroke:#800080;" x="999.728677" xlink:href="#m36281c3aec" y="382.888114"/>
     <use style="fill:#800080;stroke:#800080;" x="1010.118043" xlink:href="#m36281c3aec" y="386.159513"/>
     <use style="fill:#800080;stroke:#800080;" x="1021.149356" xlink:href="#m36281c3aec" y="368.166815"/>
     <use style="fill:#800080;stroke:#800080;" x="1030.791875" xlink:href="#m36281c3aec" y="453.223205"/>
     <use style="fill:#800080;stroke:#800080;" x="1040.412232" xlink:href="#m36281c3aec" y="448.316105"/>
     <use style="fill:#800080;stroke:#800080;" x="1051.096347" xlink:href="#m36281c3aec" y="367.348966"/>
     <use style="fill:#800080;stroke:#800080;" x="1060.715227" xlink:href="#m36281c3aec" y="413.96641"/>
     <use style="fill:#800080;stroke:#800080;" x="1070.362178" xlink:href="#m36281c3aec" y="473.669452"/>
     <use style="fill:#800080;stroke:#800080;" x="1080.927359" xlink:href="#m36281c3aec" y="464.673103"/>
     <use style="fill:#800080;stroke:#800080;" x="1090.541067" xlink:href="#m36281c3aec" y="492.48"/>
     <use style="fill:#800080;stroke:#800080;" x="1100.171767" xlink:href="#m36281c3aec" y="479.394402"/>
     <use style="fill:#800080;stroke:#800080;" x="1110.748767" xlink:href="#m36281c3aec" y="346.084868"/>
     <use style="fill:#800080;stroke:#800080;" x="1120.371341" xlink:href="#m36281c3aec" y="409.05931"/>
     <use style="fill:#800080;stroke:#800080;" x="1129.993914" xlink:href="#m36281c3aec" y="468.762353"/>
     <use style="fill:#800080;stroke:#800080;" x="1140.597508" xlink:href="#m36281c3aec" y="292.924625"/>
     <use style="fill:#800080;stroke:#800080;" x="1150.332367" xlink:href="#m36281c3aec" y="467.126653"/>
     <use style="fill:#800080;stroke:#800080;" x="1159.993354" xlink:href="#m36281c3aec" y="382.888114"/>
     <use style="fill:#800080;stroke:#800080;" x="1170.656046" xlink:href="#m36281c3aec" y="484.301501"/>
     <use style="fill:#800080;stroke:#800080;" x="1180.38204" xlink:href="#m36281c3aec" y="418.055659"/>
     <use style="fill:#800080;stroke:#800080;" x="1190.888862" xlink:href="#m36281c3aec" y="378.798864"/>
     <use style="fill:#800080;stroke:#800080;" x="1201.350622" xlink:href="#m36281c3aec" y="452.405355"/>
     <use style="fill:#800080;stroke:#800080;" x="1211.70379" xlink:href="#m36281c3aec" y="388.613063"/>
     <use style="fill:#800080;stroke:#800080;" x="1222.825227" xlink:href="#m36281c3aec" y="336.270669"/>
     <use style="fill:#800080;stroke:#800080;" x="1233.910467" xlink:href="#m36281c3aec" y="89.28"/>
     <use style="fill:#800080;stroke:#800080;" x="1245.272727" xlink:href="#m36281c3aec" y="326.456471"/>
    </g>
   </g>
   <g id="line2d_16">
    <path clip-path="url(#p57fc658986)" d="M 230.727273 437.819047 
L 240.38826 437.542073 
L 250.745121 437.245148 
L 260.741487 436.958558 
L 270.367015 436.682601 
L 280.696544 436.386459 
L 290.605003 436.10239 
L 300.218711 435.826771 
L 310.557105 435.530375 
L 320.441185 435.247005 
L 330.090353 434.970369 
L 340.891924 434.660695 
L 350.557343 434.383593 
L 361.239981 434.077329 
L 371.130709 433.793768 
L 380.800561 433.516539 
L 392.269936 433.187719 
L 402.411091 432.896978 
L 412.00707 432.621868 
L 422.467353 432.321978 
L 432.352172 432.038586 
L 441.934854 431.763857 
L 452.240744 431.468393 
L 462.27183 431.180808 
L 474.689722 430.824795 
L 484.819058 430.534393 
L 495.91464 430.21629 
L 505.663534 429.936795 
L 515.327476 429.659736 
L 526.52574 429.338688 
L 536.648427 429.048477 
L 546.293162 428.771968 
L 558.960742 428.408797 
L 568.574451 428.133178 
L 578.185204 427.857643 
L 588.480013 427.562498 
L 598.096677 427.286794 
L 607.708908 427.011217 
L 618.434391 426.703724 
L 628.043668 426.428232 
L 637.777049 426.149182 
L 648.401328 425.84459 
L 658.023162 425.568738 
L 667.603629 425.294072 
L 678.202052 424.990222 
L 687.849003 424.71365 
L 700.572725 424.348869 
L 710.178308 424.073483 
L 719.819349 423.79708 
L 730.421466 423.493124 
L 740.033698 423.217547 
L 752.372546 422.8638 
L 762.071208 422.585745 
L 771.78686 422.307204 
L 783.779249 421.963389 
L 794.010528 421.670065 
L 804.871936 421.358675 
L 814.508545 421.082399 
L 824.080885 420.807966 
L 834.710335 420.503226 
L 844.360241 420.22657 
L 853.960652 419.951332 
L 864.626299 419.645554 
L 874.267341 419.369152 
L 884.049478 419.088704 
L 894.481689 418.789619 
L 904.104262 418.513745 
L 913.708367 418.238402 
L 924.534317 417.928028 
L 934.24923 417.649508 
L 943.924253 417.372131 
L 954.821119 417.059724 
L 965.226736 416.761402 
L 977.494668 416.409688 
L 987.926879 416.110603 
L 999.728677 415.772253 
L 1010.118043 415.474396 
L 1021.149356 415.158135 
L 1030.791875 414.88169 
L 1040.412232 414.60588 
L 1051.096347 414.299573 
L 1060.715227 414.023806 
L 1070.362178 413.747234 
L 1080.927359 413.444337 
L 1090.541067 413.168717 
L 1100.171767 412.892611 
L 1110.748767 412.589375 
L 1120.371341 412.313502 
L 1129.993914 412.037629 
L 1140.597508 411.73363 
L 1150.332367 411.454538 
L 1159.993354 411.177563 
L 1170.656046 410.871871 
L 1180.38204 410.593032 
L 1190.888862 410.291808 
L 1201.350622 409.991876 
L 1211.70379 409.695057 
L 1222.825227 409.376212 
L 1233.910467 409.058405 
L 1245.272727 408.732656 
" style="fill:none;stroke:#0000ff;stroke-linecap:square;stroke-width:1.5;"/>
   </g>
   <g id="line2d_17">
    <path clip-path="url(#p57fc658986)" d="M 230.727273 442.997055 
L 240.38826 442.994509 
L 250.745121 442.991779 
L 260.741487 442.989145 
L 270.367015 442.986608 
L 280.696544 442.983886 
L 290.605003 442.981274 
L 300.218711 442.978741 
L 310.557105 442.976016 
L 320.441185 442.973411 
L 330.090353 442.970868 
L 340.891924 442.968022 
L 350.557343 442.965474 
L 361.239981 442.962659 
L 371.130709 442.960052 
L 380.800561 442.957504 
L 392.269936 442.954481 
L 402.411091 442.951808 
L 412.00707 442.949279 
L 422.467353 442.946523 
L 432.352172 442.943918 
L 441.934854 442.941392 
L 452.240744 442.938676 
L 462.27183 442.936032 
L 474.689722 442.93276 
L 484.819058 442.93009 
L 495.91464 442.927166 
L 505.663534 442.924597 
L 515.327476 442.92205 
L 526.52574 442.919099 
L 536.648427 442.916431 
L 546.293162 442.913889 
L 558.960742 442.910551 
L 568.574451 442.908017 
L 578.185204 442.905484 
L 588.480013 442.902771 
L 598.096677 442.900236 
L 607.708908 442.897703 
L 618.434391 442.894877 
L 628.043668 442.892344 
L 637.777049 442.889779 
L 648.401328 442.886979 
L 658.023162 442.884443 
L 667.603629 442.881918 
L 678.202052 442.879125 
L 687.849003 442.876583 
L 700.572725 442.873229 
L 710.178308 442.870698 
L 719.819349 442.868157 
L 730.421466 442.865363 
L 740.033698 442.86283 
L 752.372546 442.859578 
L 762.071208 442.857022 
L 771.78686 442.854461 
L 783.779249 442.851301 
L 794.010528 442.848604 
L 804.871936 442.845742 
L 814.508545 442.843202 
L 824.080885 442.840679 
L 834.710335 442.837878 
L 844.360241 442.835335 
L 853.960652 442.832805 
L 864.626299 442.829994 
L 874.267341 442.827453 
L 884.049478 442.824875 
L 894.481689 442.822126 
L 904.104262 442.81959 
L 913.708367 442.817059 
L 924.534317 442.814205 
L 934.24923 442.811645 
L 943.924253 442.809095 
L 954.821119 442.806223 
L 965.226736 442.803481 
L 977.494668 442.800248 
L 987.926879 442.797499 
L 999.728677 442.794388 
L 1010.118043 442.79165 
L 1021.149356 442.788743 
L 1030.791875 442.786202 
L 1040.412232 442.783666 
L 1051.096347 442.780851 
L 1060.715227 442.778316 
L 1070.362178 442.775773 
L 1080.927359 442.772989 
L 1090.541067 442.770455 
L 1100.171767 442.767917 
L 1110.748767 442.765129 
L 1120.371341 442.762593 
L 1129.993914 442.760057 
L 1140.597508 442.757263 
L 1150.332367 442.754697 
L 1159.993354 442.752151 
L 1170.656046 442.749341 
L 1180.38204 442.746778 
L 1190.888862 442.744009 
L 1201.350622 442.741252 
L 1211.70379 442.738523 
L 1222.825227 442.735592 
L 1233.910467 442.732671 
L 1245.272727 442.729676 
" style="fill:none;stroke:#008000;stroke-linecap:square;stroke-width:1.5;"/>
    <defs>
     <path d="M 0 3 
C 0.795609 3 1.55874 2.683901 2.12132 2.12132 
C 2.683901 1.55874 3 0.795609 3 0 
C 3 -0.795609 2.683901 -1.55874 2.12132 -2.12132 
C 1.55874 -2.683901 0.795609 -3 0 -3 
C -0.795609 -3 -1.55874 -2.683901 -2.12132 -2.12132 
C -2.683901 -1.55874 -3 -0.795609 -3 0 
C -3 0.795609 -2.683901 1.55874 -2.12132 2.12132 
C -1.55874 2.683901 -0.795609 3 0 3 
z
" id="m334351f925" style="stroke:#008000;"/>
    </defs>
    <g clip-path="url(#p57fc658986)">
     <use style="fill:#008000;stroke:#008000;" x="230.727273" xlink:href="#m334351f925" y="442.997055"/>
     <use style="fill:#008000;stroke:#008000;" x="240.38826" xlink:href="#m334351f925" y="442.994509"/>
     <use style="fill:#008000;stroke:#008000;" x="250.745121" xlink:href="#m334351f925" y="442.991779"/>
     <use style="fill:#008000;stroke:#008000;" x="260.741487" xlink:href="#m334351f925" y="442.989145"/>
     <use style="fill:#008000;stroke:#008000;" x="270.367015" xlink:href="#m334351f925" y="442.986608"/>
     <use style="fill:#008000;stroke:#008000;" x="280.696544" xlink:href="#m334351f925" y="442.983886"/>
     <use style="fill:#008000;stroke:#008000;" x="290.605003" xlink:href="#m334351f925" y="442.981274"/>
     <use style="fill:#008000;stroke:#008000;" x="300.218711" xlink:href="#m334351f925" y="442.978741"/>
     <use style="fill:#008000;stroke:#008000;" x="310.557105" xlink:href="#m334351f925" y="442.976016"/>
     <use style="fill:#008000;stroke:#008000;" x="320.441185" xlink:href="#m334351f925" y="442.973411"/>
     <use style="fill:#008000;stroke:#008000;" x="330.090353" xlink:href="#m334351f925" y="442.970868"/>
     <use style="fill:#008000;stroke:#008000;" x="340.891924" xlink:href="#m334351f925" y="442.968022"/>
     <use style="fill:#008000;stroke:#008000;" x="350.557343" xlink:href="#m334351f925" y="442.965474"/>
     <use style="fill:#008000;stroke:#008000;" x="361.239981" xlink:href="#m334351f925" y="442.962659"/>
     <use style="fill:#008000;stroke:#008000;" x="371.130709" xlink:href="#m334351f925" y="442.960052"/>
     <use style="fill:#008000;stroke:#008000;" x="380.800561" xlink:href="#m334351f925" y="442.957504"/>
     <use style="fill:#008000;stroke:#008000;" x="392.269936" xlink:href="#m334351f925" y="442.954481"/>
     <use style="fill:#008000;stroke:#008000;" x="402.411091" xlink:href="#m334351f925" y="442.951808"/>
     <use style="fill:#008000;stroke:#008000;" x="412.00707" xlink:href="#m334351f925" y="442.949279"/>
     <use style="fill:#008000;stroke:#008000;" x="422.467353" xlink:href="#m334351f925" y="442.946523"/>
     <use style="fill:#008000;stroke:#008000;" x="432.352172" xlink:href="#m334351f925" y="442.943918"/>
     <use style="fill:#008000;stroke:#008000;" x="441.934854" xlink:href="#m334351f925" y="442.941392"/>
     <use style="fill:#008000;stroke:#008000;" x="452.240744" xlink:href="#m334351f925" y="442.938676"/>
     <use style="fill:#008000;stroke:#008000;" x="462.27183" xlink:href="#m334351f925" y="442.936032"/>
     <use style="fill:#008000;stroke:#008000;" x="474.689722" xlink:href="#m334351f925" y="442.93276"/>
     <use style="fill:#008000;stroke:#008000;" x="484.819058" xlink:href="#m334351f925" y="442.93009"/>
     <use style="fill:#008000;stroke:#008000;" x="495.91464" xlink:href="#m334351f925" y="442.927166"/>
     <use style="fill:#008000;stroke:#008000;" x="505.663534" xlink:href="#m334351f925" y="442.924597"/>
     <use style="fill:#008000;stroke:#008000;" x="515.327476" xlink:href="#m334351f925" y="442.92205"/>
     <use style="fill:#008000;stroke:#008000;" x="526.52574" xlink:href="#m334351f925" y="442.919099"/>
     <use style="fill:#008000;stroke:#008000;" x="536.648427" xlink:href="#m334351f925" y="442.916431"/>
     <use style="fill:#008000;stroke:#008000;" x="546.293162" xlink:href="#m334351f925" y="442.913889"/>
     <use style="fill:#008000;stroke:#008000;" x="558.960742" xlink:href="#m334351f925" y="442.910551"/>
     <use style="fill:#008000;stroke:#008000;" x="568.574451" xlink:href="#m334351f925" y="442.908017"/>
     <use style="fill:#008000;stroke:#008000;" x="578.185204" xlink:href="#m334351f925" y="442.905484"/>
     <use style="fill:#008000;stroke:#008000;" x="588.480013" xlink:href="#m334351f925" y="442.902771"/>
     <use style="fill:#008000;stroke:#008000;" x="598.096677" xlink:href="#m334351f925" y="442.900236"/>
     <use style="fill:#008000;stroke:#008000;" x="607.708908" xlink:href="#m334351f925" y="442.897703"/>
     <use style="fill:#008000;stroke:#008000;" x="618.434391" xlink:href="#m334351f925" y="442.894877"/>
     <use style="fill:#008000;stroke:#008000;" x="628.043668" xlink:href="#m334351f925" y="442.892344"/>
     <use style="fill:#008000;stroke:#008000;" x="637.777049" xlink:href="#m334351f925" y="442.889779"/>
     <use style="fill:#008000;stroke:#008000;" x="648.401328" xlink:href="#m334351f925" y="442.886979"/>
     <use style="fill:#008000;stroke:#008000;" x="658.023162" xlink:href="#m334351f925" y="442.884443"/>
     <use style="fill:#008000;stroke:#008000;" x="667.603629" xlink:href="#m334351f925" y="442.881918"/>
     <use style="fill:#008000;stroke:#008000;" x="678.202052" xlink:href="#m334351f925" y="442.879125"/>
     <use style="fill:#008000;stroke:#008000;" x="687.849003" xlink:href="#m334351f925" y="442.876583"/>
     <use style="fill:#008000;stroke:#008000;" x="700.572725" xlink:href="#m334351f925" y="442.873229"/>
     <use style="fill:#008000;stroke:#008000;" x="710.178308" xlink:href="#m334351f925" y="442.870698"/>
     <use style="fill:#008000;stroke:#008000;" x="719.819349" xlink:href="#m334351f925" y="442.868157"/>
     <use style="fill:#008000;stroke:#008000;" x="730.421466" xlink:href="#m334351f925" y="442.865363"/>
     <use style="fill:#008000;stroke:#008000;" x="740.033698" xlink:href="#m334351f925" y="442.86283"/>
     <use style="fill:#008000;stroke:#008000;" x="752.372546" xlink:href="#m334351f925" y="442.859578"/>
     <use style="fill:#008000;stroke:#008000;" x="762.071208" xlink:href="#m334351f925" y="442.857022"/>
     <use style="fill:#008000;stroke:#008000;" x="771.78686" xlink:href="#m334351f925" y="442.854461"/>
     <use style="fill:#008000;stroke:#008000;" x="783.779249" xlink:href="#m334351f925" y="442.851301"/>
     <use style="fill:#008000;stroke:#008000;" x="794.010528" xlink:href="#m334351f925" y="442.848604"/>
     <use style="fill:#008000;stroke:#008000;" x="804.871936" xlink:href="#m334351f925" y="442.845742"/>
     <use style="fill:#008000;stroke:#008000;" x="814.508545" xlink:href="#m334351f925" y="442.843202"/>
     <use style="fill:#008000;stroke:#008000;" x="824.080885" xlink:href="#m334351f925" y="442.840679"/>
     <use style="fill:#008000;stroke:#008000;" x="834.710335" xlink:href="#m334351f925" y="442.837878"/>
     <use style="fill:#008000;stroke:#008000;" x="844.360241" xlink:href="#m334351f925" y="442.835335"/>
     <use style="fill:#008000;stroke:#008000;" x="853.960652" xlink:href="#m334351f925" y="442.832805"/>
     <use style="fill:#008000;stroke:#008000;" x="864.626299" xlink:href="#m334351f925" y="442.829994"/>
     <use style="fill:#008000;stroke:#008000;" x="874.267341" xlink:href="#m334351f925" y="442.827453"/>
     <use style="fill:#008000;stroke:#008000;" x="884.049478" xlink:href="#m334351f925" y="442.824875"/>
     <use style="fill:#008000;stroke:#008000;" x="894.481689" xlink:href="#m334351f925" y="442.822126"/>
     <use style="fill:#008000;stroke:#008000;" x="904.104262" xlink:href="#m334351f925" y="442.81959"/>
     <use style="fill:#008000;stroke:#008000;" x="913.708367" xlink:href="#m334351f925" y="442.817059"/>
     <use style="fill:#008000;stroke:#008000;" x="924.534317" xlink:href="#m334351f925" y="442.814205"/>
     <use style="fill:#008000;stroke:#008000;" x="934.24923" xlink:href="#m334351f925" y="442.811645"/>
     <use style="fill:#008000;stroke:#008000;" x="943.924253" xlink:href="#m334351f925" y="442.809095"/>
     <use style="fill:#008000;stroke:#008000;" x="954.821119" xlink:href="#m334351f925" y="442.806223"/>
     <use style="fill:#008000;stroke:#008000;" x="965.226736" xlink:href="#m334351f925" y="442.803481"/>
     <use style="fill:#008000;stroke:#008000;" x="977.494668" xlink:href="#m334351f925" y="442.800248"/>
     <use style="fill:#008000;stroke:#008000;" x="987.926879" xlink:href="#m334351f925" y="442.797499"/>
     <use style="fill:#008000;stroke:#008000;" x="999.728677" xlink:href="#m334351f925" y="442.794388"/>
     <use style="fill:#008000;stroke:#008000;" x="1010.118043" xlink:href="#m334351f925" y="442.79165"/>
     <use style="fill:#008000;stroke:#008000;" x="1021.149356" xlink:href="#m334351f925" y="442.788743"/>
     <use style="fill:#008000;stroke:#008000;" x="1030.791875" xlink:href="#m334351f925" y="442.786202"/>
     <use style="fill:#008000;stroke:#008000;" x="1040.412232" xlink:href="#m334351f925" y="442.783666"/>
     <use style="fill:#008000;stroke:#008000;" x="1051.096347" xlink:href="#m334351f925" y="442.780851"/>
     <use style="fill:#008000;stroke:#008000;" x="1060.715227" xlink:href="#m334351f925" y="442.778316"/>
     <use style="fill:#008000;stroke:#008000;" x="1070.362178" xlink:href="#m334351f925" y="442.775773"/>
     <use style="fill:#008000;stroke:#008000;" x="1080.927359" xlink:href="#m334351f925" y="442.772989"/>
     <use style="fill:#008000;stroke:#008000;" x="1090.541067" xlink:href="#m334351f925" y="442.770455"/>
     <use style="fill:#008000;stroke:#008000;" x="1100.171767" xlink:href="#m334351f925" y="442.767917"/>
     <use style="fill:#008000;stroke:#008000;" x="1110.748767" xlink:href="#m334351f925" y="442.765129"/>
     <use style="fill:#008000;stroke:#008000;" x="1120.371341" xlink:href="#m334351f925" y="442.762593"/>
     <use style="fill:#008000;stroke:#008000;" x="1129.993914" xlink:href="#m334351f925" y="442.760057"/>
     <use style="fill:#008000;stroke:#008000;" x="1140.597508" xlink:href="#m334351f925" y="442.757263"/>
     <use style="fill:#008000;stroke:#008000;" x="1150.332367" xlink:href="#m334351f925" y="442.754697"/>
     <use style="fill:#008000;stroke:#008000;" x="1159.993354" xlink:href="#m334351f925" y="442.752151"/>
     <use style="fill:#008000;stroke:#008000;" x="1170.656046" xlink:href="#m334351f925" y="442.749341"/>
     <use style="fill:#008000;stroke:#008000;" x="1180.38204" xlink:href="#m334351f925" y="442.746778"/>
     <use style="fill:#008000;stroke:#008000;" x="1190.888862" xlink:href="#m334351f925" y="442.744009"/>
     <use style="fill:#008000;stroke:#008000;" x="1201.350622" xlink:href="#m334351f925" y="442.741252"/>
     <use style="fill:#008000;stroke:#008000;" x="1211.70379" xlink:href="#m334351f925" y="442.738523"/>
     <use style="fill:#008000;stroke:#008000;" x="1222.825227" xlink:href="#m334351f925" y="442.735592"/>
     <use style="fill:#008000;stroke:#008000;" x="1233.910467" xlink:href="#m334351f925" y="442.732671"/>
     <use style="fill:#008000;stroke:#008000;" x="1245.272727" xlink:href="#m334351f925" y="442.729676"/>
    </g>
   </g>
   <g id="patch_3">
    <path d="M 180 512.64 
L 180 69.12 
" style="fill:none;stroke:#000000;stroke-linecap:square;stroke-linejoin:miter;stroke-width:0.8;"/>
   </g>
   <g id="patch_4">
    <path d="M 1296 512.64 
L 1296 69.12 
" style="fill:none;stroke:#000000;stroke-linecap:square;stroke-linejoin:miter;stroke-width:0.8;"/>
   </g>
   <g id="patch_5">
    <path d="M 180 512.64 
L 1296 512.64 
" style="fill:none;stroke:#000000;stroke-linecap:square;stroke-linejoin:miter;stroke-width:0.8;"/>
   </g>
   <g id="patch_6">
    <path d="M 180 69.12 
L 1296 69.12 
" style="fill:none;stroke:#000000;stroke-linecap:square;stroke-linejoin:miter;stroke-width:0.8;"/>
   </g>
   <g id="text_14">
    <!-- 500000.0 bit/s -->
    <defs>
     <path id="DejaVuSans-20"/>
     <path d="M 48.6875 27.296875 
Q 48.6875 37.203125 44.609375 42.84375 
Q 40.53125 48.484375 33.40625 48.484375 
Q 26.265625 48.484375 22.1875 42.84375 
Q 18.109375 37.203125 18.109375 27.296875 
Q 18.109375 17.390625 22.1875 11.75 
Q 26.265625 6.109375 33.40625 6.109375 
Q 40.53125 6.109375 44.609375 11.75 
Q 48.6875 17.390625 48.6875 27.296875 
z
M 18.109375 46.390625 
Q 20.953125 51.265625 25.265625 53.625 
Q 29.59375 56 35.59375 56 
Q 45.5625 56 51.78125 48.09375 
Q 58.015625 40.1875 58.015625 27.296875 
Q 58.015625 14.40625 51.78125 6.484375 
Q 45.5625 -1.421875 35.59375 -1.421875 
Q 29.59375 -1.421875 25.265625 0.953125 
Q 20.953125 3.328125 18.109375 8.203125 
L 18.109375 0 
L 9.078125 0 
L 9.078125 75.984375 
L 18.109375 75.984375 
z
" id="DejaVuSans-62"/>
     <path d="M 9.421875 54.6875 
L 18.40625 54.6875 
L 18.40625 0 
L 9.421875 0 
z
M 9.421875 75.984375 
L 18.40625 75.984375 
L 18.40625 64.59375 
L 9.421875 64.59375 
z
" id="DejaVuSans-69"/>
     <path d="M 18.3125 70.21875 
L 18.3125 54.6875 
L 36.8125 54.6875 
L 36.8125 47.703125 
L 18.3125 47.703125 
L 18.3125 18.015625 
Q 18.3125 11.328125 20.140625 9.421875 
Q 21.96875 7.515625 27.59375 7.515625 
L 36.8125 7.515625 
L 36.8125 0 
L 27.59375 0 
Q 17.1875 0 13.234375 3.875 
Q 9.28125 7.765625 9.28125 18.015625 
L 9.28125 47.703125 
L 2.6875 47.703125 
L 2.6875 54.6875 
L 9.28125 54.6875 
L 9.28125 70.21875 
z
" id="DejaVuSans-74"/>
     <path d="M 25.390625 72.90625 
L 33.6875 72.90625 
L 8.296875 -9.28125 
L 0 -9.28125 
z
" id="DejaVuSans-2f"/>
     <path d="M 44.28125 53.078125 
L 44.28125 44.578125 
Q 40.484375 46.53125 36.375 47.5 
Q 32.28125 48.484375 27.875 48.484375 
Q 21.1875 48.484375 17.84375 46.4375 
Q 14.5 44.390625 14.5 40.28125 
Q 14.5 37.15625 16.890625 35.375 
Q 19.28125 33.59375 26.515625 31.984375 
L 29.59375 31.296875 
Q 39.15625 29.25 43.1875 25.515625 
Q 47.21875 21.78125 47.21875 15.09375 
Q 47.21875 7.46875 41.1875 3.015625 
Q 35.15625 -1.421875 24.609375 -1.421875 
Q 20.21875 -1.421875 15.453125 -0.5625 
Q 10.6875 0.296875 5.421875 2 
L 5.421875 11.28125 
Q 10.40625 8.6875 15.234375 7.390625 
Q 20.0625 6.109375 24.8125 6.109375 
Q 31.15625 6.109375 34.5625 8.28125 
Q 37.984375 10.453125 37.984375 14.40625 
Q 37.984375 18.0625 35.515625 20.015625 
Q 33.0625 21.96875 24.703125 23.78125 
L 21.578125 24.515625 
Q 13.234375 26.265625 9.515625 29.90625 
Q 5.8125 33.546875 5.8125 39.890625 
Q 5.8125 47.609375 11.28125 51.796875 
Q 16.75 56 26.8125 56 
Q 31.78125 56 36.171875 55.265625 
Q 40.578125 54.546875 44.28125 53.078125 
z
" id="DejaVuSans-73"/>
    </defs>
    <g transform="translate(694.48875 63.12)scale(0.12 -0.12)">
     <use xlink:href="#DejaVuSans-35"/>
     <use x="63.623047" xlink:href="#DejaVuSans-30"/>
     <use x="127.246094" xlink:href="#DejaVuSans-30"/>
     <use x="190.869141" xlink:href="#DejaVuSans-30"/>
     <use x="254.492188" xlink:href="#DejaVuSans-30"/>
     <use x="318.115234" xlink:href="#DejaVuSans-30"/>
     <use x="381.738281" xlink:href="#DejaVuSans-2e"/>
     <use x="413.525391" xlink:href="#DejaVuSans-30"/>
     <use x="477.148438" xlink:href="#DejaVuSans-20"/>
     <use x="508.935547" xlink:href="#DejaVuSans-62"/>
     <use x="572.412109" xlink:href="#DejaVuSans-69"/>
     <use x="600.195312" xlink:href="#DejaVuSans-74"/>
     <use x="639.404297" xlink:href="#DejaVuSans-2f"/>
     <use x="673.095703" xlink:href="#DejaVuSans-73"/>
    </g>
   </g>
   <g id="legend_1">
    <g id="patch_7">
     <path d="M 1173.520313 135.8325 
L 1289 135.8325 
Q 1291 135.8325 1291 133.8325 
L 1291 76.12 
Q 1291 74.12 1289 74.12 
L 1173.520313 74.12 
Q 1171.520313 74.12 1171.520313 76.12 
L 1171.520313 133.8325 
Q 1171.520313 135.8325 1173.520313 135.8325 
z
" style="fill:#ffffff;opacity:0.8;stroke:#cccccc;stroke-linejoin:miter;"/>
    </g>
    <g id="line2d_18">
     <path d="M 1175.520313 82.218437 
L 1195.520313 82.218437 
" style="fill:none;stroke:#ff0000;stroke-dasharray:5.55,2.4;stroke-dashoffset:0;stroke-width:1.5;"/>
    </g>
    <g id="line2d_19">
     <g>
      <use style="fill:#ff0000;stroke:#ff0000;stroke-linejoin:miter;" x="1185.520313" xlink:href="#m5390aadd56" y="82.218437"/>
     </g>
    </g>
    <g id="text_15">
     <!-- tcpdump -->
     <defs>
      <path d="M 48.78125 52.59375 
L 48.78125 44.1875 
Q 44.96875 46.296875 41.140625 47.34375 
Q 37.3125 48.390625 33.40625 48.390625 
Q 24.65625 48.390625 19.8125 42.84375 
Q 14.984375 37.3125 14.984375 27.296875 
Q 14.984375 17.28125 19.8125 11.734375 
Q 24.65625 6.203125 33.40625 6.203125 
Q 37.3125 6.203125 41.140625 7.25 
Q 44.96875 8.296875 48.78125 10.40625 
L 48.78125 2.09375 
Q 45.015625 0.34375 40.984375 -0.53125 
Q 36.96875 -1.421875 32.421875 -1.421875 
Q 20.0625 -1.421875 12.78125 6.34375 
Q 5.515625 14.109375 5.515625 27.296875 
Q 5.515625 40.671875 12.859375 48.328125 
Q 20.21875 56 33.015625 56 
Q 37.15625 56 41.109375 55.140625 
Q 45.0625 54.296875 48.78125 52.59375 
z
" id="DejaVuSans-63"/>
      <path d="M 18.109375 8.203125 
L 18.109375 -20.796875 
L 9.078125 -20.796875 
L 9.078125 54.6875 
L 18.109375 54.6875 
L 18.109375 46.390625 
Q 20.953125 51.265625 25.265625 53.625 
Q 29.59375 56 35.59375 56 
Q 45.5625 56 51.78125 48.09375 
Q 58.015625 40.1875 58.015625 27.296875 
Q 58.015625 14.40625 51.78125 6.484375 
Q 45.5625 -1.421875 35.59375 -1.421875 
Q 29.59375 -1.421875 25.265625 0.953125 
Q 20.953125 3.328125 18.109375 8.203125 
z
M 48.6875 27.296875 
Q 48.6875 37.203125 44.609375 42.84375 
Q 40.53125 48.484375 33.40625 48.484375 
Q 26.265625 48.484375 22.1875 42.84375 
Q 18.109375 37.203125 18.109375 27.296875 
Q 18.109375 17.390625 22.1875 11.75 
Q 26.265625 6.109375 33.40625 6.109375 
Q 40.53125 6.109375 44.609375 11.75 
Q 48.6875 17.390625 48.6875 27.296875 
z
" id="DejaVuSans-70"/>
      <path d="M 45.40625 46.390625 
L 45.40625 75.984375 
L 54.390625 75.984375 
L 54.390625 0 
L 45.40625 0 
L 45.40625 8.203125 
Q 42.578125 3.328125 38.25 0.953125 
Q 33.9375 -1.421875 27.875 -1.421875 
Q 17.96875 -1.421875 11.734375 6.484375 
Q 5.515625 14.40625 5.515625 27.296875 
Q 5.515625 40.1875 11.734375 48.09375 
Q 17.96875 56 27.875 56 
Q 33.9375 56 38.25 53.625 
Q 42.578125 51.265625 45.40625 46.390625 
z
M 14.796875 27.296875 
Q 14.796875 17.390625 18.875 11.75 
Q 22.953125 6.109375 30.078125 6.109375 
Q 37.203125 6.109375 41.296875 11.75 
Q 45.40625 17.390625 45.40625 27.296875 
Q 45.40625 37.203125 41.296875 42.84375 
Q 37.203125 48.484375 30.078125 48.484375 
Q 22.953125 48.484375 18.875 42.84375 
Q 14.796875 37.203125 14.796875 27.296875 
z
" id="DejaVuSans-64"/>
      <path d="M 8.5 21.578125 
L 8.5 54.6875 
L 17.484375 54.6875 
L 17.484375 21.921875 
Q 17.484375 14.15625 20.5 10.265625 
Q 23.53125 6.390625 29.59375 6.390625 
Q 36.859375 6.390625 41.078125 11.03125 
Q 45.3125 15.671875 45.3125 23.6875 
L 45.3125 54.6875 
L 54.296875 54.6875 
L 54.296875 0 
L 45.3125 0 
L 45.3125 8.40625 
Q 42.046875 3.421875 37.71875 1 
Q 33.40625 -1.421875 27.6875 -1.421875 
Q 18.265625 -1.421875 13.375 4.4375 
Q 8.5 10.296875 8.5 21.578125 
z
M 31.109375 56 
z
" id="DejaVuSans-75"/>
      <path d="M 52 44.1875 
Q 55.375 50.25 60.0625 53.125 
Q 64.75 56 71.09375 56 
Q 79.640625 56 84.28125 50.015625 
Q 88.921875 44.046875 88.921875 33.015625 
L 88.921875 0 
L 79.890625 0 
L 79.890625 32.71875 
Q 79.890625 40.578125 77.09375 44.375 
Q 74.3125 48.1875 68.609375 48.1875 
Q 61.625 48.1875 57.5625 43.546875 
Q 53.515625 38.921875 53.515625 30.90625 
L 53.515625 0 
L 44.484375 0 
L 44.484375 32.71875 
Q 44.484375 40.625 41.703125 44.40625 
Q 38.921875 48.1875 33.109375 48.1875 
Q 26.21875 48.1875 22.15625 43.53125 
Q 18.109375 38.875 18.109375 30.90625 
L 18.109375 0 
L 9.078125 0 
L 9.078125 54.6875 
L 18.109375 54.6875 
L 18.109375 46.1875 
Q 21.1875 51.21875 25.484375 53.609375 
Q 29.78125 56 35.6875 56 
Q 41.65625 56 45.828125 52.96875 
Q 50 49.953125 52 44.1875 
z
" id="DejaVuSans-6d"/>
     </defs>
     <g transform="translate(1203.520313 85.718437)scale(0.1 -0.1)">
      <use xlink:href="#DejaVuSans-74"/>
      <use x="39.208984" xlink:href="#DejaVuSans-63"/>
      <use x="94.189453" xlink:href="#DejaVuSans-70"/>
      <use x="157.666016" xlink:href="#DejaVuSans-64"/>
      <use x="221.142578" xlink:href="#DejaVuSans-75"/>
      <use x="284.521484" xlink:href="#DejaVuSans-6d"/>
      <use x="381.933594" xlink:href="#DejaVuSans-70"/>
     </g>
    </g>
    <g id="line2d_20">
     <path d="M 1175.520313 96.896563 
L 1195.520313 96.896563 
" style="fill:none;stroke:#800080;stroke-dasharray:9.6,2.4,1.5,2.4;stroke-dashoffset:0;stroke-width:1.5;"/>
    </g>
    <g id="line2d_21">
     <g>
      <use style="fill:#800080;stroke:#800080;" x="1185.520313" xlink:href="#m36281c3aec" y="96.896563"/>
     </g>
    </g>
    <g id="text_16">
     <!-- filtered tcpdump -->
     <defs>
      <path d="M 37.109375 75.984375 
L 37.109375 68.5 
L 28.515625 68.5 
Q 23.6875 68.5 21.796875 66.546875 
Q 19.921875 64.59375 19.921875 59.515625 
L 19.921875 54.6875 
L 34.71875 54.6875 
L 34.71875 47.703125 
L 19.921875 47.703125 
L 19.921875 0 
L 10.890625 0 
L 10.890625 47.703125 
L 2.296875 47.703125 
L 2.296875 54.6875 
L 10.890625 54.6875 
L 10.890625 58.5 
Q 10.890625 67.625 15.140625 71.796875 
Q 19.390625 75.984375 28.609375 75.984375 
z
" id="DejaVuSans-66"/>
      <path d="M 9.421875 75.984375 
L 18.40625 75.984375 
L 18.40625 0 
L 9.421875 0 
z
" id="DejaVuSans-6c"/>
      <path d="M 56.203125 29.59375 
L 56.203125 25.203125 
L 14.890625 25.203125 
Q 15.484375 15.921875 20.484375 11.0625 
Q 25.484375 6.203125 34.421875 6.203125 
Q 39.59375 6.203125 44.453125 7.46875 
Q 49.3125 8.734375 54.109375 11.28125 
L 54.109375 2.78125 
Q 49.265625 0.734375 44.1875 -0.34375 
Q 39.109375 -1.421875 33.890625 -1.421875 
Q 20.796875 -1.421875 13.15625 6.1875 
Q 5.515625 13.8125 5.515625 26.8125 
Q 5.515625 40.234375 12.765625 48.109375 
Q 20.015625 56 32.328125 56 
Q 43.359375 56 49.78125 48.890625 
Q 56.203125 41.796875 56.203125 29.59375 
z
M 47.21875 32.234375 
Q 47.125 39.59375 43.09375 43.984375 
Q 39.0625 48.390625 32.421875 48.390625 
Q 24.90625 48.390625 20.390625 44.140625 
Q 15.875 39.890625 15.1875 32.171875 
z
" id="DejaVuSans-65"/>
      <path d="M 41.109375 46.296875 
Q 39.59375 47.171875 37.8125 47.578125 
Q 36.03125 48 33.890625 48 
Q 26.265625 48 22.1875 43.046875 
Q 18.109375 38.09375 18.109375 28.8125 
L 18.109375 0 
L 9.078125 0 
L 9.078125 54.6875 
L 18.109375 54.6875 
L 18.109375 46.1875 
Q 20.953125 51.171875 25.484375 53.578125 
Q 30.03125 56 36.53125 56 
Q 37.453125 56 38.578125 55.875 
Q 39.703125 55.765625 41.0625 55.515625 
z
" id="DejaVuSans-72"/>
     </defs>
     <g transform="translate(1203.520313 100.396563)scale(0.1 -0.1)">
      <use xlink:href="#DejaVuSans-66"/>
      <use x="35.205078" xlink:href="#DejaVuSans-69"/>
      <use x="62.988281" xlink:href="#DejaVuSans-6c"/>
      <use x="90.771484" xlink:href="#DejaVuSans-74"/>
      <use x="129.980469" xlink:href="#DejaVuSans-65"/>
      <use x="191.503906" xlink:href="#DejaVuSans-72"/>
      <use x="232.585938" xlink:href="#DejaVuSans-65"/>
      <use x="294.109375" xlink:href="#DejaVuSans-64"/>
      <use x="357.585938" xlink:href="#DejaVuSans-20"/>
      <use x="389.373047" xlink:href="#DejaVuSans-74"/>
      <use x="428.582031" xlink:href="#DejaVuSans-63"/>
      <use x="483.5625" xlink:href="#DejaVuSans-70"/>
      <use x="547.039062" xlink:href="#DejaVuSans-64"/>
      <use x="610.515625" xlink:href="#DejaVuSans-75"/>
      <use x="673.894531" xlink:href="#DejaVuSans-6d"/>
      <use x="771.306641" xlink:href="#DejaVuSans-70"/>
     </g>
    </g>
    <g id="line2d_22">
     <path d="M 1175.520313 111.574687 
L 1195.520313 111.574687 
" style="fill:none;stroke:#0000ff;stroke-linecap:square;stroke-width:1.5;"/>
    </g>
    <g id="line2d_23"/>
    <g id="text_17">
     <!-- OLS -->
     <defs>
      <path d="M 39.40625 66.21875 
Q 28.65625 66.21875 22.328125 58.203125 
Q 16.015625 50.203125 16.015625 36.375 
Q 16.015625 22.609375 22.328125 14.59375 
Q 28.65625 6.59375 39.40625 6.59375 
Q 50.140625 6.59375 56.421875 14.59375 
Q 62.703125 22.609375 62.703125 36.375 
Q 62.703125 50.203125 56.421875 58.203125 
Q 50.140625 66.21875 39.40625 66.21875 
z
M 39.40625 74.21875 
Q 54.734375 74.21875 63.90625 63.9375 
Q 73.09375 53.65625 73.09375 36.375 
Q 73.09375 19.140625 63.90625 8.859375 
Q 54.734375 -1.421875 39.40625 -1.421875 
Q 24.03125 -1.421875 14.8125 8.828125 
Q 5.609375 19.09375 5.609375 36.375 
Q 5.609375 53.65625 14.8125 63.9375 
Q 24.03125 74.21875 39.40625 74.21875 
z
" id="DejaVuSans-4f"/>
      <path d="M 9.8125 72.90625 
L 19.671875 72.90625 
L 19.671875 8.296875 
L 55.171875 8.296875 
L 55.171875 0 
L 9.8125 0 
z
" id="DejaVuSans-4c"/>
      <path d="M 53.515625 70.515625 
L 53.515625 60.890625 
Q 47.90625 63.578125 42.921875 64.890625 
Q 37.9375 66.21875 33.296875 66.21875 
Q 25.25 66.21875 20.875 63.09375 
Q 16.5 59.96875 16.5 54.203125 
Q 16.5 49.359375 19.40625 46.890625 
Q 22.3125 44.4375 30.421875 42.921875 
L 36.375 41.703125 
Q 47.40625 39.59375 52.65625 34.296875 
Q 57.90625 29 57.90625 20.125 
Q 57.90625 9.515625 50.796875 4.046875 
Q 43.703125 -1.421875 29.984375 -1.421875 
Q 24.8125 -1.421875 18.96875 -0.25 
Q 13.140625 0.921875 6.890625 3.21875 
L 6.890625 13.375 
Q 12.890625 10.015625 18.65625 8.296875 
Q 24.421875 6.59375 29.984375 6.59375 
Q 38.421875 6.59375 43.015625 9.90625 
Q 47.609375 13.234375 47.609375 19.390625 
Q 47.609375 24.75 44.3125 27.78125 
Q 41.015625 30.8125 33.5 32.328125 
L 27.484375 33.5 
Q 16.453125 35.6875 11.515625 40.375 
Q 6.59375 45.0625 6.59375 53.421875 
Q 6.59375 63.09375 13.40625 68.65625 
Q 20.21875 74.21875 32.171875 74.21875 
Q 37.3125 74.21875 42.625 73.28125 
Q 47.953125 72.359375 53.515625 70.515625 
z
" id="DejaVuSans-53"/>
     </defs>
     <g transform="translate(1203.520313 115.074687)scale(0.1 -0.1)">
      <use xlink:href="#DejaVuSans-4f"/>
      <use x="78.710938" xlink:href="#DejaVuSans-4c"/>
      <use x="134.423828" xlink:href="#DejaVuSans-53"/>
     </g>
    </g>
    <g id="line2d_24">
     <path d="M 1175.520313 126.252813 
L 1195.520313 126.252813 
" style="fill:none;stroke:#008000;stroke-linecap:square;stroke-width:1.5;"/>
    </g>
    <g id="line2d_25">
     <g>
      <use style="fill:#008000;stroke:#008000;" x="1185.520313" xlink:href="#m334351f925" y="126.252813"/>
     </g>
    </g>
    <g id="text_18">
     <!-- IRLS -->
     <defs>
      <path d="M 9.8125 72.90625 
L 19.671875 72.90625 
L 19.671875 0 
L 9.8125 0 
z
" id="DejaVuSans-49"/>
      <path d="M 44.390625 34.1875 
Q 47.5625 33.109375 50.5625 29.59375 
Q 53.5625 26.078125 56.59375 19.921875 
L 66.609375 0 
L 56 0 
L 46.6875 18.703125 
Q 43.0625 26.03125 39.671875 28.421875 
Q 36.28125 30.8125 30.421875 30.8125 
L 19.671875 30.8125 
L 19.671875 0 
L 9.8125 0 
L 9.8125 72.90625 
L 32.078125 72.90625 
Q 44.578125 72.90625 50.734375 67.671875 
Q 56.890625 62.453125 56.890625 51.90625 
Q 56.890625 45.015625 53.6875 40.46875 
Q 50.484375 35.9375 44.390625 34.1875 
z
M 19.671875 64.796875 
L 19.671875 38.921875 
L 32.078125 38.921875 
Q 39.203125 38.921875 42.84375 42.21875 
Q 46.484375 45.515625 46.484375 51.90625 
Q 46.484375 58.296875 42.84375 61.546875 
Q 39.203125 64.796875 32.078125 64.796875 
z
" id="DejaVuSans-52"/>
     </defs>
     <g transform="translate(1203.520313 129.752813)scale(0.1 -0.1)">
      <use xlink:href="#DejaVuSans-49"/>
      <use x="29.492188" xlink:href="#DejaVuSans-52"/>
      <use x="98.974609" xlink:href="#DejaVuSans-4c"/>
      <use x="154.6875" xlink:href="#DejaVuSans-53"/>
     </g>
    </g>
   </g>
  </g>
 </g>
 <defs>
  <clipPath id="p57fc658986">
   <rect height="443.52" width="1116" x="180" y="69.12"/>
  </clipPath>
 </defs>
</svg>
