<?xml version="1.0" encoding="utf-8" standalone="no"?>
<!DOCTYPE svg PUBLIC "-//W3C//DTD SVG 1.1//EN"
  "http://www.w3.org/Graphics/SVG/1.1/DTD/svg11.dtd">
<!-- Created with matplotlib (http://matplotlib.org/) -->
<svg height="576pt" version="1.1" viewBox="0 0 1440 576" width="1440pt" xmlns="http://www.w3.org/2000/svg" xmlns:xlink="http://www.w3.org/1999/xlink">
 <defs>
  <style type="text/css">
*{stroke-linecap:butt;stroke-linejoin:round;}
  </style>
 </defs>
 <g id="figure_1">
  <g id="patch_1">
   <path d="M 0 576 
L 1440 576 
L 1440 0 
L 0 0 
z
" style="fill:#ffffff;"/>
  </g>
  <g id="axes_1">
   <g id="patch_2">
    <path d="M 180 512.64 
L 1296 512.64 
L 1296 69.12 
L 180 69.12 
z
" style="fill:#ffffff;"/>
   </g>
   <g id="matplotlib.axis_1">
    <g id="xtick_1">
     <g id="line2d_1">
      <defs>
       <path d="M 0 0 
L 0 3.5 
" id="m3c8f7fa60e" style="stroke:#000000;stroke-width:0.8;"/>
      </defs>
      <g>
       <use style="stroke:#000000;stroke-width:0.8;" x="230.727273" xlink:href="#m3c8f7fa60e" y="512.64"/>
      </g>
     </g>
     <g id="text_1">
      <!-- 0.0 -->
      <defs>
       <path d="M 31.78125 66.40625 
Q 24.171875 66.40625 20.328125 58.90625 
Q 16.5 51.421875 16.5 36.375 
Q 16.5 21.390625 20.328125 13.890625 
Q 24.171875 6.390625 31.78125 6.390625 
Q 39.453125 6.390625 43.28125 13.890625 
Q 47.125 21.390625 47.125 36.375 
Q 47.125 51.421875 43.28125 58.90625 
Q 39.453125 66.40625 31.78125 66.40625 
z
M 31.78125 74.21875 
Q 44.046875 74.21875 50.515625 64.515625 
Q 56.984375 54.828125 56.984375 36.375 
Q 56.984375 17.96875 50.515625 8.265625 
Q 44.046875 -1.421875 31.78125 -1.421875 
Q 19.53125 -1.421875 13.0625 8.265625 
Q 6.59375 17.96875 6.59375 36.375 
Q 6.59375 54.828125 13.0625 64.515625 
Q 19.53125 74.21875 31.78125 74.21875 
z
" id="DejaVuSans-30"/>
       <path d="M 10.6875 12.40625 
L 21 12.40625 
L 21 0 
L 10.6875 0 
z
" id="DejaVuSans-2e"/>
      </defs>
      <g transform="translate(222.77571 527.238438)scale(0.1 -0.1)">
       <use xlink:href="#DejaVuSans-30"/>
       <use x="63.623047" xlink:href="#DejaVuSans-2e"/>
       <use x="95.410156" xlink:href="#DejaVuSans-30"/>
      </g>
     </g>
    </g>
    <g id="xtick_2">
     <g id="line2d_2">
      <g>
       <use style="stroke:#000000;stroke-width:0.8;" x="394.839429" xlink:href="#m3c8f7fa60e" y="512.64"/>
      </g>
     </g>
     <g id="text_2">
      <!-- 0.2 -->
      <defs>
       <path d="M 19.1875 8.296875 
L 53.609375 8.296875 
L 53.609375 0 
L 7.328125 0 
L 7.328125 8.296875 
Q 12.9375 14.109375 22.625 23.890625 
Q 32.328125 33.6875 34.8125 36.53125 
Q 39.546875 41.84375 41.421875 45.53125 
Q 43.3125 49.21875 43.3125 52.78125 
Q 43.3125 58.59375 39.234375 62.25 
Q 35.15625 65.921875 28.609375 65.921875 
Q 23.96875 65.921875 18.8125 64.3125 
Q 13.671875 62.703125 7.8125 59.421875 
L 7.8125 69.390625 
Q 13.765625 71.78125 18.9375 73 
Q 24.125 74.21875 28.421875 74.21875 
Q 39.75 74.21875 46.484375 68.546875 
Q 53.21875 62.890625 53.21875 53.421875 
Q 53.21875 48.921875 51.53125 44.890625 
Q 49.859375 40.875 45.40625 35.40625 
Q 44.1875 33.984375 37.640625 27.21875 
Q 31.109375 20.453125 19.1875 8.296875 
z
" id="DejaVuSans-32"/>
      </defs>
      <g transform="translate(386.887867 527.238438)scale(0.1 -0.1)">
       <use xlink:href="#DejaVuSans-30"/>
       <use x="63.623047" xlink:href="#DejaVuSans-2e"/>
       <use x="95.410156" xlink:href="#DejaVuSans-32"/>
      </g>
     </g>
    </g>
    <g id="xtick_3">
     <g id="line2d_3">
      <g>
       <use style="stroke:#000000;stroke-width:0.8;" x="558.951586" xlink:href="#m3c8f7fa60e" y="512.64"/>
      </g>
     </g>
     <g id="text_3">
      <!-- 0.4 -->
      <defs>
       <path d="M 37.796875 64.3125 
L 12.890625 25.390625 
L 37.796875 25.390625 
z
M 35.203125 72.90625 
L 47.609375 72.90625 
L 47.609375 25.390625 
L 58.015625 25.390625 
L 58.015625 17.1875 
L 47.609375 17.1875 
L 47.609375 0 
L 37.796875 0 
L 37.796875 17.1875 
L 4.890625 17.1875 
L 4.890625 26.703125 
z
" id="DejaVuSans-34"/>
      </defs>
      <g transform="translate(551.000023 527.238438)scale(0.1 -0.1)">
       <use xlink:href="#DejaVuSans-30"/>
       <use x="63.623047" xlink:href="#DejaVuSans-2e"/>
       <use x="95.410156" xlink:href="#DejaVuSans-34"/>
      </g>
     </g>
    </g>
    <g id="xtick_4">
     <g id="line2d_4">
      <g>
       <use style="stroke:#000000;stroke-width:0.8;" x="723.063742" xlink:href="#m3c8f7fa60e" y="512.64"/>
      </g>
     </g>
     <g id="text_4">
      <!-- 0.6 -->
      <defs>
       <path d="M 33.015625 40.375 
Q 26.375 40.375 22.484375 35.828125 
Q 18.609375 31.296875 18.609375 23.390625 
Q 18.609375 15.53125 22.484375 10.953125 
Q 26.375 6.390625 33.015625 6.390625 
Q 39.65625 6.390625 43.53125 10.953125 
Q 47.40625 15.53125 47.40625 23.390625 
Q 47.40625 31.296875 43.53125 35.828125 
Q 39.65625 40.375 33.015625 40.375 
z
M 52.59375 71.296875 
L 52.59375 62.3125 
Q 48.875 64.0625 45.09375 64.984375 
Q 41.3125 65.921875 37.59375 65.921875 
Q 27.828125 65.921875 22.671875 59.328125 
Q 17.53125 52.734375 16.796875 39.40625 
Q 19.671875 43.65625 24.015625 45.921875 
Q 28.375 48.1875 33.59375 48.1875 
Q 44.578125 48.1875 50.953125 41.515625 
Q 57.328125 34.859375 57.328125 23.390625 
Q 57.328125 12.15625 50.6875 5.359375 
Q 44.046875 -1.421875 33.015625 -1.421875 
Q 20.359375 -1.421875 13.671875 8.265625 
Q 6.984375 17.96875 6.984375 36.375 
Q 6.984375 53.65625 15.1875 63.9375 
Q 23.390625 74.21875 37.203125 74.21875 
Q 40.921875 74.21875 44.703125 73.484375 
Q 48.484375 72.75 52.59375 71.296875 
z
" id="DejaVuSans-36"/>
      </defs>
      <g transform="translate(715.11218 527.238438)scale(0.1 -0.1)">
       <use xlink:href="#DejaVuSans-30"/>
       <use x="63.623047" xlink:href="#DejaVuSans-2e"/>
       <use x="95.410156" xlink:href="#DejaVuSans-36"/>
      </g>
     </g>
    </g>
    <g id="xtick_5">
     <g id="line2d_5">
      <g>
       <use style="stroke:#000000;stroke-width:0.8;" x="887.175899" xlink:href="#m3c8f7fa60e" y="512.64"/>
      </g>
     </g>
     <g id="text_5">
      <!-- 0.8 -->
      <defs>
       <path d="M 31.78125 34.625 
Q 24.75 34.625 20.71875 30.859375 
Q 16.703125 27.09375 16.703125 20.515625 
Q 16.703125 13.921875 20.71875 10.15625 
Q 24.75 6.390625 31.78125 6.390625 
Q 38.8125 6.390625 42.859375 10.171875 
Q 46.921875 13.96875 46.921875 20.515625 
Q 46.921875 27.09375 42.890625 30.859375 
Q 38.875 34.625 31.78125 34.625 
z
M 21.921875 38.8125 
Q 15.578125 40.375 12.03125 44.71875 
Q 8.5 49.078125 8.5 55.328125 
Q 8.5 64.0625 14.71875 69.140625 
Q 20.953125 74.21875 31.78125 74.21875 
Q 42.671875 74.21875 48.875 69.140625 
Q 55.078125 64.0625 55.078125 55.328125 
Q 55.078125 49.078125 51.53125 44.71875 
Q 48 40.375 41.703125 38.8125 
Q 48.828125 37.15625 52.796875 32.3125 
Q 56.78125 27.484375 56.78125 20.515625 
Q 56.78125 9.90625 50.3125 4.234375 
Q 43.84375 -1.421875 31.78125 -1.421875 
Q 19.734375 -1.421875 13.25 4.234375 
Q 6.78125 9.90625 6.78125 20.515625 
Q 6.78125 27.484375 10.78125 32.3125 
Q 14.796875 37.15625 21.921875 38.8125 
z
M 18.3125 54.390625 
Q 18.3125 48.734375 21.84375 45.5625 
Q 25.390625 42.390625 31.78125 42.390625 
Q 38.140625 42.390625 41.71875 45.5625 
Q 45.3125 48.734375 45.3125 54.390625 
Q 45.3125 60.0625 41.71875 63.234375 
Q 38.140625 66.40625 31.78125 66.40625 
Q 25.390625 66.40625 21.84375 63.234375 
Q 18.3125 60.0625 18.3125 54.390625 
z
" id="DejaVuSans-38"/>
      </defs>
      <g transform="translate(879.224336 527.238438)scale(0.1 -0.1)">
       <use xlink:href="#DejaVuSans-30"/>
       <use x="63.623047" xlink:href="#DejaVuSans-2e"/>
       <use x="95.410156" xlink:href="#DejaVuSans-38"/>
      </g>
     </g>
    </g>
    <g id="xtick_6">
     <g id="line2d_6">
      <g>
       <use style="stroke:#000000;stroke-width:0.8;" x="1051.288055" xlink:href="#m3c8f7fa60e" y="512.64"/>
      </g>
     </g>
     <g id="text_6">
      <!-- 1.0 -->
      <defs>
       <path d="M 12.40625 8.296875 
L 28.515625 8.296875 
L 28.515625 63.921875 
L 10.984375 60.40625 
L 10.984375 69.390625 
L 28.421875 72.90625 
L 38.28125 72.90625 
L 38.28125 8.296875 
L 54.390625 8.296875 
L 54.390625 0 
L 12.40625 0 
z
" id="DejaVuSans-31"/>
      </defs>
      <g transform="translate(1043.336493 527.238438)scale(0.1 -0.1)">
       <use xlink:href="#DejaVuSans-31"/>
       <use x="63.623047" xlink:href="#DejaVuSans-2e"/>
       <use x="95.410156" xlink:href="#DejaVuSans-30"/>
      </g>
     </g>
    </g>
    <g id="xtick_7">
     <g id="line2d_7">
      <g>
       <use style="stroke:#000000;stroke-width:0.8;" x="1215.400212" xlink:href="#m3c8f7fa60e" y="512.64"/>
      </g>
     </g>
     <g id="text_7">
      <!-- 1.2 -->
      <g transform="translate(1207.448649 527.238438)scale(0.1 -0.1)">
       <use xlink:href="#DejaVuSans-31"/>
       <use x="63.623047" xlink:href="#DejaVuSans-2e"/>
       <use x="95.410156" xlink:href="#DejaVuSans-32"/>
      </g>
     </g>
    </g>
   </g>
   <g id="matplotlib.axis_2">
    <g id="ytick_1">
     <g id="line2d_8">
      <defs>
       <path d="M 0 0 
L -3.5 0 
" id="m9e62d61f9a" style="stroke:#000000;stroke-width:0.8;"/>
      </defs>
      <g>
       <use style="stroke:#000000;stroke-width:0.8;" x="180" xlink:href="#m9e62d61f9a" y="498.841708"/>
      </g>
     </g>
     <g id="text_8">
      <!-- 0.30010 -->
      <defs>
       <path d="M 40.578125 39.3125 
Q 47.65625 37.796875 51.625 33 
Q 55.609375 28.21875 55.609375 21.1875 
Q 55.609375 10.40625 48.1875 4.484375 
Q 40.765625 -1.421875 27.09375 -1.421875 
Q 22.515625 -1.421875 17.65625 -0.515625 
Q 12.796875 0.390625 7.625 2.203125 
L 7.625 11.71875 
Q 11.71875 9.328125 16.59375 8.109375 
Q 21.484375 6.890625 26.8125 6.890625 
Q 36.078125 6.890625 40.9375 10.546875 
Q 45.796875 14.203125 45.796875 21.1875 
Q 45.796875 27.640625 41.28125 31.265625 
Q 36.765625 34.90625 28.71875 34.90625 
L 20.21875 34.90625 
L 20.21875 43.015625 
L 29.109375 43.015625 
Q 36.375 43.015625 40.234375 45.921875 
Q 44.09375 48.828125 44.09375 54.296875 
Q 44.09375 59.90625 40.109375 62.90625 
Q 36.140625 65.921875 28.71875 65.921875 
Q 24.65625 65.921875 20.015625 65.03125 
Q 15.375 64.15625 9.8125 62.3125 
L 9.8125 71.09375 
Q 15.4375 72.65625 20.34375 73.4375 
Q 25.25 74.21875 29.59375 74.21875 
Q 40.828125 74.21875 47.359375 69.109375 
Q 53.90625 64.015625 53.90625 55.328125 
Q 53.90625 49.265625 50.4375 45.09375 
Q 46.96875 40.921875 40.578125 39.3125 
z
" id="DejaVuSans-33"/>
      </defs>
      <g transform="translate(131.646875 502.640927)scale(0.1 -0.1)">
       <use xlink:href="#DejaVuSans-30"/>
       <use x="63.623047" xlink:href="#DejaVuSans-2e"/>
       <use x="95.410156" xlink:href="#DejaVuSans-33"/>
       <use x="159.033203" xlink:href="#DejaVuSans-30"/>
       <use x="222.65625" xlink:href="#DejaVuSans-30"/>
       <use x="286.279297" xlink:href="#DejaVuSans-31"/>
       <use x="349.902344" xlink:href="#DejaVuSans-30"/>
      </g>
     </g>
    </g>
    <g id="ytick_2">
     <g id="line2d_9">
      <g>
       <use style="stroke:#000000;stroke-width:0.8;" x="180" xlink:href="#m9e62d61f9a" y="438.964265"/>
      </g>
     </g>
     <g id="text_9">
      <!-- 0.30015 -->
      <defs>
       <path d="M 10.796875 72.90625 
L 49.515625 72.90625 
L 49.515625 64.59375 
L 19.828125 64.59375 
L 19.828125 46.734375 
Q 21.96875 47.46875 24.109375 47.828125 
Q 26.265625 48.1875 28.421875 48.1875 
Q 40.625 48.1875 47.75 41.5 
Q 54.890625 34.8125 54.890625 23.390625 
Q 54.890625 11.625 47.5625 5.09375 
Q 40.234375 -1.421875 26.90625 -1.421875 
Q 22.3125 -1.421875 17.546875 -0.640625 
Q 12.796875 0.140625 7.71875 1.703125 
L 7.71875 11.625 
Q 12.109375 9.234375 16.796875 8.0625 
Q 21.484375 6.890625 26.703125 6.890625 
Q 35.15625 6.890625 40.078125 11.328125 
Q 45.015625 15.765625 45.015625 23.390625 
Q 45.015625 31 40.078125 35.4375 
Q 35.15625 39.890625 26.703125 39.890625 
Q 22.75 39.890625 18.8125 39.015625 
Q 14.890625 38.140625 10.796875 36.28125 
z
" id="DejaVuSans-35"/>
      </defs>
      <g transform="translate(131.646875 442.763484)scale(0.1 -0.1)">
       <use xlink:href="#DejaVuSans-30"/>
       <use x="63.623047" xlink:href="#DejaVuSans-2e"/>
       <use x="95.410156" xlink:href="#DejaVuSans-33"/>
       <use x="159.033203" xlink:href="#DejaVuSans-30"/>
       <use x="222.65625" xlink:href="#DejaVuSans-30"/>
       <use x="286.279297" xlink:href="#DejaVuSans-31"/>
       <use x="349.902344" xlink:href="#DejaVuSans-35"/>
      </g>
     </g>
    </g>
    <g id="ytick_3">
     <g id="line2d_10">
      <g>
       <use style="stroke:#000000;stroke-width:0.8;" x="180" xlink:href="#m9e62d61f9a" y="379.086823"/>
      </g>
     </g>
     <g id="text_10">
      <!-- 0.30020 -->
      <g transform="translate(131.646875 382.886041)scale(0.1 -0.1)">
       <use xlink:href="#DejaVuSans-30"/>
       <use x="63.623047" xlink:href="#DejaVuSans-2e"/>
       <use x="95.410156" xlink:href="#DejaVuSans-33"/>
       <use x="159.033203" xlink:href="#DejaVuSans-30"/>
       <use x="222.65625" xlink:href="#DejaVuSans-30"/>
       <use x="286.279297" xlink:href="#DejaVuSans-32"/>
       <use x="349.902344" xlink:href="#DejaVuSans-30"/>
      </g>
     </g>
    </g>
    <g id="ytick_4">
     <g id="line2d_11">
      <g>
       <use style="stroke:#000000;stroke-width:0.8;" x="180" xlink:href="#m9e62d61f9a" y="319.20938"/>
      </g>
     </g>
     <g id="text_11">
      <!-- 0.30025 -->
      <g transform="translate(131.646875 323.008599)scale(0.1 -0.1)">
       <use xlink:href="#DejaVuSans-30"/>
       <use x="63.623047" xlink:href="#DejaVuSans-2e"/>
       <use x="95.410156" xlink:href="#DejaVuSans-33"/>
       <use x="159.033203" xlink:href="#DejaVuSans-30"/>
       <use x="222.65625" xlink:href="#DejaVuSans-30"/>
       <use x="286.279297" xlink:href="#DejaVuSans-32"/>
       <use x="349.902344" xlink:href="#DejaVuSans-35"/>
      </g>
     </g>
    </g>
    <g id="ytick_5">
     <g id="line2d_12">
      <g>
       <use style="stroke:#000000;stroke-width:0.8;" x="180" xlink:href="#m9e62d61f9a" y="259.331937"/>
      </g>
     </g>
     <g id="text_12">
      <!-- 0.30030 -->
      <g transform="translate(131.646875 263.131156)scale(0.1 -0.1)">
       <use xlink:href="#DejaVuSans-30"/>
       <use x="63.623047" xlink:href="#DejaVuSans-2e"/>
       <use x="95.410156" xlink:href="#DejaVuSans-33"/>
       <use x="159.033203" xlink:href="#DejaVuSans-30"/>
       <use x="222.65625" xlink:href="#DejaVuSans-30"/>
       <use x="286.279297" xlink:href="#DejaVuSans-33"/>
       <use x="349.902344" xlink:href="#DejaVuSans-30"/>
      </g>
     </g>
    </g>
    <g id="ytick_6">
     <g id="line2d_13">
      <g>
       <use style="stroke:#000000;stroke-width:0.8;" x="180" xlink:href="#m9e62d61f9a" y="199.454495"/>
      </g>
     </g>
     <g id="text_13">
      <!-- 0.30035 -->
      <g transform="translate(131.646875 203.253713)scale(0.1 -0.1)">
       <use xlink:href="#DejaVuSans-30"/>
       <use x="63.623047" xlink:href="#DejaVuSans-2e"/>
       <use x="95.410156" xlink:href="#DejaVuSans-33"/>
       <use x="159.033203" xlink:href="#DejaVuSans-30"/>
       <use x="222.65625" xlink:href="#DejaVuSans-30"/>
       <use x="286.279297" xlink:href="#DejaVuSans-33"/>
       <use x="349.902344" xlink:href="#DejaVuSans-35"/>
      </g>
     </g>
    </g>
    <g id="ytick_7">
     <g id="line2d_14">
      <g>
       <use style="stroke:#000000;stroke-width:0.8;" x="180" xlink:href="#m9e62d61f9a" y="139.577052"/>
      </g>
     </g>
     <g id="text_14">
      <!-- 0.30040 -->
      <g transform="translate(131.646875 143.376271)scale(0.1 -0.1)">
       <use xlink:href="#DejaVuSans-30"/>
       <use x="63.623047" xlink:href="#DejaVuSans-2e"/>
       <use x="95.410156" xlink:href="#DejaVuSans-33"/>
       <use x="159.033203" xlink:href="#DejaVuSans-30"/>
       <use x="222.65625" xlink:href="#DejaVuSans-30"/>
       <use x="286.279297" xlink:href="#DejaVuSans-34"/>
       <use x="349.902344" xlink:href="#DejaVuSans-30"/>
      </g>
     </g>
    </g>
    <g id="ytick_8">
     <g id="line2d_15">
      <g>
       <use style="stroke:#000000;stroke-width:0.8;" x="180" xlink:href="#m9e62d61f9a" y="79.699609"/>
      </g>
     </g>
     <g id="text_15">
      <!-- 0.30045 -->
      <g transform="translate(131.646875 83.498828)scale(0.1 -0.1)">
       <use xlink:href="#DejaVuSans-30"/>
       <use x="63.623047" xlink:href="#DejaVuSans-2e"/>
       <use x="95.410156" xlink:href="#DejaVuSans-33"/>
       <use x="159.033203" xlink:href="#DejaVuSans-30"/>
       <use x="222.65625" xlink:href="#DejaVuSans-30"/>
       <use x="286.279297" xlink:href="#DejaVuSans-34"/>
       <use x="349.902344" xlink:href="#DejaVuSans-35"/>
      </g>
     </g>
    </g>
   </g>
   <g id="line2d_16">
    <path clip-path="url(#pe3c62e748a)" d="M 230.727273 128.799112 
L 241.443797 163.528029 
L 252.061033 174.305969 
L 263.057368 209.034885 
L 273.636858 292.863305 
L 284.240144 339.56771 
L 294.855739 355.135845 
L 305.453282 346.753003 
L 316.19114 388.667213 
L 326.831352 381.48192 
L 337.761221 347.950552 
L 348.564724 284.480463 
L 359.19591 417.408386 
L 369.828737 403.0378 
L 380.624034 424.593679 
L 391.405382 432.976521 
L 402.025901 442.556912 
L 412.29768 429.383874 
L 422.45212 471.298084 
L 432.598354 482.076024 
L 442.738024 467.705438 
L 452.881796 473.693182 
L 463.005875 477.285828 
L 473.158674 456.927498 
L 483.30819 467.705438 
L 493.44868 468.902987 
L 503.590811 442.556912 
L 513.738687 462.915242 
L 523.894767 450.939754 
L 534.046745 229.393216 
L 544.202006 444.952009 
L 554.452451 460.520145 
L 564.630687 441.359363 
L 574.984523 89.28 
L 585.278458 472.495633 
L 595.931799 478.483377 
L 606.237221 474.890731 
L 616.661626 485.66867 
L 626.883351 444.952009 
L 637.058305 484.471122 
L 647.202077 479.680926 
L 657.299078 424.593679 
L 667.467467 485.66867 
L 677.631753 470.100535 
L 687.800963 467.705438 
L 697.928324 468.902987 
L 708.06143 473.693182 
L 718.190432 444.952009 
L 728.319434 470.100535 
L 738.461565 468.902987 
L 748.599594 471.298084 
L 758.772086 430.581423 
L 768.905191 465.31034 
L 779.030091 473.693182 
L 789.159913 473.693182 
L 799.302045 471.298084 
L 809.434329 476.08828 
L 819.555126 473.693182 
L 829.694796 473.693182 
L 839.821336 476.08828 
L 849.965929 435.371619 
L 860.096573 474.890731 
L 870.246909 465.31034 
L 880.382476 473.693182 
L 890.516402 477.285828 
L 900.658533 464.112791 
L 910.789177 473.693182 
L 920.93459 473.693182 
L 931.064413 476.08828 
L 941.193415 470.100535 
L 951.332264 471.298084 
L 961.46619 473.693182 
L 971.599295 470.100535 
L 981.744709 478.483377 
L 991.915559 472.495633 
L 1002.040459 473.693182 
L 1012.168641 477.285828 
L 1022.327183 470.100535 
L 1032.458647 471.298084 
L 1042.594214 472.495633 
L 1052.717472 474.890731 
L 1062.851398 474.890731 
L 1072.989426 458.125047 
L 1083.113505 473.693182 
L 1093.248252 473.693182 
L 1103.389562 472.495633 
L 1113.532514 474.890731 
L 1123.664799 473.693182 
L 1133.79298 477.285828 
L 1143.93265 476.08828 
L 1154.054267 483.273573 
L 1164.187372 476.08828 
L 1174.316375 476.08828 
L 1184.437992 478.483377 
L 1194.583405 477.285828 
L 1204.714869 483.273573 
L 1214.869309 466.507889 
L 1225.003235 471.298084 
L 1235.130596 472.495633 
L 1245.272727 472.495633 
" style="fill:none;stroke:#ff0000;stroke-dasharray:5.55,2.4;stroke-dashoffset:0;stroke-width:1.5;"/>
    <defs>
     <path d="M -3 3 
L 3 3 
L 3 -3 
L -3 -3 
z
" id="m1765d7ecd5" style="stroke:#ff0000;stroke-linejoin:miter;"/>
    </defs>
    <g clip-path="url(#pe3c62e748a)">
     <use style="fill:#ff0000;stroke:#ff0000;stroke-linejoin:miter;" x="230.727273" xlink:href="#m1765d7ecd5" y="128.799112"/>
     <use style="fill:#ff0000;stroke:#ff0000;stroke-linejoin:miter;" x="241.443797" xlink:href="#m1765d7ecd5" y="163.528029"/>
     <use style="fill:#ff0000;stroke:#ff0000;stroke-linejoin:miter;" x="252.061033" xlink:href="#m1765d7ecd5" y="174.305969"/>
     <use style="fill:#ff0000;stroke:#ff0000;stroke-linejoin:miter;" x="263.057368" xlink:href="#m1765d7ecd5" y="209.034885"/>
     <use style="fill:#ff0000;stroke:#ff0000;stroke-linejoin:miter;" x="273.636858" xlink:href="#m1765d7ecd5" y="292.863305"/>
     <use style="fill:#ff0000;stroke:#ff0000;stroke-linejoin:miter;" x="284.240144" xlink:href="#m1765d7ecd5" y="339.56771"/>
     <use style="fill:#ff0000;stroke:#ff0000;stroke-linejoin:miter;" x="294.855739" xlink:href="#m1765d7ecd5" y="355.135845"/>
     <use style="fill:#ff0000;stroke:#ff0000;stroke-linejoin:miter;" x="305.453282" xlink:href="#m1765d7ecd5" y="346.753003"/>
     <use style="fill:#ff0000;stroke:#ff0000;stroke-linejoin:miter;" x="316.19114" xlink:href="#m1765d7ecd5" y="388.667213"/>
     <use style="fill:#ff0000;stroke:#ff0000;stroke-linejoin:miter;" x="326.831352" xlink:href="#m1765d7ecd5" y="381.48192"/>
     <use style="fill:#ff0000;stroke:#ff0000;stroke-linejoin:miter;" x="337.761221" xlink:href="#m1765d7ecd5" y="347.950552"/>
     <use style="fill:#ff0000;stroke:#ff0000;stroke-linejoin:miter;" x="348.564724" xlink:href="#m1765d7ecd5" y="284.480463"/>
     <use style="fill:#ff0000;stroke:#ff0000;stroke-linejoin:miter;" x="359.19591" xlink:href="#m1765d7ecd5" y="417.408386"/>
     <use style="fill:#ff0000;stroke:#ff0000;stroke-linejoin:miter;" x="369.828737" xlink:href="#m1765d7ecd5" y="403.0378"/>
     <use style="fill:#ff0000;stroke:#ff0000;stroke-linejoin:miter;" x="380.624034" xlink:href="#m1765d7ecd5" y="424.593679"/>
     <use style="fill:#ff0000;stroke:#ff0000;stroke-linejoin:miter;" x="391.405382" xlink:href="#m1765d7ecd5" y="432.976521"/>
     <use style="fill:#ff0000;stroke:#ff0000;stroke-linejoin:miter;" x="402.025901" xlink:href="#m1765d7ecd5" y="442.556912"/>
     <use style="fill:#ff0000;stroke:#ff0000;stroke-linejoin:miter;" x="412.29768" xlink:href="#m1765d7ecd5" y="429.383874"/>
     <use style="fill:#ff0000;stroke:#ff0000;stroke-linejoin:miter;" x="422.45212" xlink:href="#m1765d7ecd5" y="471.298084"/>
     <use style="fill:#ff0000;stroke:#ff0000;stroke-linejoin:miter;" x="432.598354" xlink:href="#m1765d7ecd5" y="482.076024"/>
     <use style="fill:#ff0000;stroke:#ff0000;stroke-linejoin:miter;" x="442.738024" xlink:href="#m1765d7ecd5" y="467.705438"/>
     <use style="fill:#ff0000;stroke:#ff0000;stroke-linejoin:miter;" x="452.881796" xlink:href="#m1765d7ecd5" y="473.693182"/>
     <use style="fill:#ff0000;stroke:#ff0000;stroke-linejoin:miter;" x="463.005875" xlink:href="#m1765d7ecd5" y="477.285828"/>
     <use style="fill:#ff0000;stroke:#ff0000;stroke-linejoin:miter;" x="473.158674" xlink:href="#m1765d7ecd5" y="456.927498"/>
     <use style="fill:#ff0000;stroke:#ff0000;stroke-linejoin:miter;" x="483.30819" xlink:href="#m1765d7ecd5" y="467.705438"/>
     <use style="fill:#ff0000;stroke:#ff0000;stroke-linejoin:miter;" x="493.44868" xlink:href="#m1765d7ecd5" y="468.902987"/>
     <use style="fill:#ff0000;stroke:#ff0000;stroke-linejoin:miter;" x="503.590811" xlink:href="#m1765d7ecd5" y="442.556912"/>
     <use style="fill:#ff0000;stroke:#ff0000;stroke-linejoin:miter;" x="513.738687" xlink:href="#m1765d7ecd5" y="462.915242"/>
     <use style="fill:#ff0000;stroke:#ff0000;stroke-linejoin:miter;" x="523.894767" xlink:href="#m1765d7ecd5" y="450.939754"/>
     <use style="fill:#ff0000;stroke:#ff0000;stroke-linejoin:miter;" x="534.046745" xlink:href="#m1765d7ecd5" y="229.393216"/>
     <use style="fill:#ff0000;stroke:#ff0000;stroke-linejoin:miter;" x="544.202006" xlink:href="#m1765d7ecd5" y="444.952009"/>
     <use style="fill:#ff0000;stroke:#ff0000;stroke-linejoin:miter;" x="554.452451" xlink:href="#m1765d7ecd5" y="460.520145"/>
     <use style="fill:#ff0000;stroke:#ff0000;stroke-linejoin:miter;" x="564.630687" xlink:href="#m1765d7ecd5" y="441.359363"/>
     <use style="fill:#ff0000;stroke:#ff0000;stroke-linejoin:miter;" x="574.984523" xlink:href="#m1765d7ecd5" y="89.28"/>
     <use style="fill:#ff0000;stroke:#ff0000;stroke-linejoin:miter;" x="585.278458" xlink:href="#m1765d7ecd5" y="472.495633"/>
     <use style="fill:#ff0000;stroke:#ff0000;stroke-linejoin:miter;" x="595.931799" xlink:href="#m1765d7ecd5" y="478.483377"/>
     <use style="fill:#ff0000;stroke:#ff0000;stroke-linejoin:miter;" x="606.237221" xlink:href="#m1765d7ecd5" y="474.890731"/>
     <use style="fill:#ff0000;stroke:#ff0000;stroke-linejoin:miter;" x="616.661626" xlink:href="#m1765d7ecd5" y="485.66867"/>
     <use style="fill:#ff0000;stroke:#ff0000;stroke-linejoin:miter;" x="626.883351" xlink:href="#m1765d7ecd5" y="444.952009"/>
     <use style="fill:#ff0000;stroke:#ff0000;stroke-linejoin:miter;" x="637.058305" xlink:href="#m1765d7ecd5" y="484.471122"/>
     <use style="fill:#ff0000;stroke:#ff0000;stroke-linejoin:miter;" x="647.202077" xlink:href="#m1765d7ecd5" y="479.680926"/>
     <use style="fill:#ff0000;stroke:#ff0000;stroke-linejoin:miter;" x="657.299078" xlink:href="#m1765d7ecd5" y="424.593679"/>
     <use style="fill:#ff0000;stroke:#ff0000;stroke-linejoin:miter;" x="667.467467" xlink:href="#m1765d7ecd5" y="485.66867"/>
     <use style="fill:#ff0000;stroke:#ff0000;stroke-linejoin:miter;" x="677.631753" xlink:href="#m1765d7ecd5" y="470.100535"/>
     <use style="fill:#ff0000;stroke:#ff0000;stroke-linejoin:miter;" x="687.800963" xlink:href="#m1765d7ecd5" y="467.705438"/>
     <use style="fill:#ff0000;stroke:#ff0000;stroke-linejoin:miter;" x="697.928324" xlink:href="#m1765d7ecd5" y="468.902987"/>
     <use style="fill:#ff0000;stroke:#ff0000;stroke-linejoin:miter;" x="708.06143" xlink:href="#m1765d7ecd5" y="473.693182"/>
     <use style="fill:#ff0000;stroke:#ff0000;stroke-linejoin:miter;" x="718.190432" xlink:href="#m1765d7ecd5" y="444.952009"/>
     <use style="fill:#ff0000;stroke:#ff0000;stroke-linejoin:miter;" x="728.319434" xlink:href="#m1765d7ecd5" y="470.100535"/>
     <use style="fill:#ff0000;stroke:#ff0000;stroke-linejoin:miter;" x="738.461565" xlink:href="#m1765d7ecd5" y="468.902987"/>
     <use style="fill:#ff0000;stroke:#ff0000;stroke-linejoin:miter;" x="748.599594" xlink:href="#m1765d7ecd5" y="471.298084"/>
     <use style="fill:#ff0000;stroke:#ff0000;stroke-linejoin:miter;" x="758.772086" xlink:href="#m1765d7ecd5" y="430.581423"/>
     <use style="fill:#ff0000;stroke:#ff0000;stroke-linejoin:miter;" x="768.905191" xlink:href="#m1765d7ecd5" y="465.31034"/>
     <use style="fill:#ff0000;stroke:#ff0000;stroke-linejoin:miter;" x="779.030091" xlink:href="#m1765d7ecd5" y="473.693182"/>
     <use style="fill:#ff0000;stroke:#ff0000;stroke-linejoin:miter;" x="789.159913" xlink:href="#m1765d7ecd5" y="473.693182"/>
     <use style="fill:#ff0000;stroke:#ff0000;stroke-linejoin:miter;" x="799.302045" xlink:href="#m1765d7ecd5" y="471.298084"/>
     <use style="fill:#ff0000;stroke:#ff0000;stroke-linejoin:miter;" x="809.434329" xlink:href="#m1765d7ecd5" y="476.08828"/>
     <use style="fill:#ff0000;stroke:#ff0000;stroke-linejoin:miter;" x="819.555126" xlink:href="#m1765d7ecd5" y="473.693182"/>
     <use style="fill:#ff0000;stroke:#ff0000;stroke-linejoin:miter;" x="829.694796" xlink:href="#m1765d7ecd5" y="473.693182"/>
     <use style="fill:#ff0000;stroke:#ff0000;stroke-linejoin:miter;" x="839.821336" xlink:href="#m1765d7ecd5" y="476.08828"/>
     <use style="fill:#ff0000;stroke:#ff0000;stroke-linejoin:miter;" x="849.965929" xlink:href="#m1765d7ecd5" y="435.371619"/>
     <use style="fill:#ff0000;stroke:#ff0000;stroke-linejoin:miter;" x="860.096573" xlink:href="#m1765d7ecd5" y="474.890731"/>
     <use style="fill:#ff0000;stroke:#ff0000;stroke-linejoin:miter;" x="870.246909" xlink:href="#m1765d7ecd5" y="465.31034"/>
     <use style="fill:#ff0000;stroke:#ff0000;stroke-linejoin:miter;" x="880.382476" xlink:href="#m1765d7ecd5" y="473.693182"/>
     <use style="fill:#ff0000;stroke:#ff0000;stroke-linejoin:miter;" x="890.516402" xlink:href="#m1765d7ecd5" y="477.285828"/>
     <use style="fill:#ff0000;stroke:#ff0000;stroke-linejoin:miter;" x="900.658533" xlink:href="#m1765d7ecd5" y="464.112791"/>
     <use style="fill:#ff0000;stroke:#ff0000;stroke-linejoin:miter;" x="910.789177" xlink:href="#m1765d7ecd5" y="473.693182"/>
     <use style="fill:#ff0000;stroke:#ff0000;stroke-linejoin:miter;" x="920.93459" xlink:href="#m1765d7ecd5" y="473.693182"/>
     <use style="fill:#ff0000;stroke:#ff0000;stroke-linejoin:miter;" x="931.064413" xlink:href="#m1765d7ecd5" y="476.08828"/>
     <use style="fill:#ff0000;stroke:#ff0000;stroke-linejoin:miter;" x="941.193415" xlink:href="#m1765d7ecd5" y="470.100535"/>
     <use style="fill:#ff0000;stroke:#ff0000;stroke-linejoin:miter;" x="951.332264" xlink:href="#m1765d7ecd5" y="471.298084"/>
     <use style="fill:#ff0000;stroke:#ff0000;stroke-linejoin:miter;" x="961.46619" xlink:href="#m1765d7ecd5" y="473.693182"/>
     <use style="fill:#ff0000;stroke:#ff0000;stroke-linejoin:miter;" x="971.599295" xlink:href="#m1765d7ecd5" y="470.100535"/>
     <use style="fill:#ff0000;stroke:#ff0000;stroke-linejoin:miter;" x="981.744709" xlink:href="#m1765d7ecd5" y="478.483377"/>
     <use style="fill:#ff0000;stroke:#ff0000;stroke-linejoin:miter;" x="991.915559" xlink:href="#m1765d7ecd5" y="472.495633"/>
     <use style="fill:#ff0000;stroke:#ff0000;stroke-linejoin:miter;" x="1002.040459" xlink:href="#m1765d7ecd5" y="473.693182"/>
     <use style="fill:#ff0000;stroke:#ff0000;stroke-linejoin:miter;" x="1012.168641" xlink:href="#m1765d7ecd5" y="477.285828"/>
     <use style="fill:#ff0000;stroke:#ff0000;stroke-linejoin:miter;" x="1022.327183" xlink:href="#m1765d7ecd5" y="470.100535"/>
     <use style="fill:#ff0000;stroke:#ff0000;stroke-linejoin:miter;" x="1032.458647" xlink:href="#m1765d7ecd5" y="471.298084"/>
     <use style="fill:#ff0000;stroke:#ff0000;stroke-linejoin:miter;" x="1042.594214" xlink:href="#m1765d7ecd5" y="472.495633"/>
     <use style="fill:#ff0000;stroke:#ff0000;stroke-linejoin:miter;" x="1052.717472" xlink:href="#m1765d7ecd5" y="474.890731"/>
     <use style="fill:#ff0000;stroke:#ff0000;stroke-linejoin:miter;" x="1062.851398" xlink:href="#m1765d7ecd5" y="474.890731"/>
     <use style="fill:#ff0000;stroke:#ff0000;stroke-linejoin:miter;" x="1072.989426" xlink:href="#m1765d7ecd5" y="458.125047"/>
     <use style="fill:#ff0000;stroke:#ff0000;stroke-linejoin:miter;" x="1083.113505" xlink:href="#m1765d7ecd5" y="473.693182"/>
     <use style="fill:#ff0000;stroke:#ff0000;stroke-linejoin:miter;" x="1093.248252" xlink:href="#m1765d7ecd5" y="473.693182"/>
     <use style="fill:#ff0000;stroke:#ff0000;stroke-linejoin:miter;" x="1103.389562" xlink:href="#m1765d7ecd5" y="472.495633"/>
     <use style="fill:#ff0000;stroke:#ff0000;stroke-linejoin:miter;" x="1113.532514" xlink:href="#m1765d7ecd5" y="474.890731"/>
     <use style="fill:#ff0000;stroke:#ff0000;stroke-linejoin:miter;" x="1123.664799" xlink:href="#m1765d7ecd5" y="473.693182"/>
     <use style="fill:#ff0000;stroke:#ff0000;stroke-linejoin:miter;" x="1133.79298" xlink:href="#m1765d7ecd5" y="477.285828"/>
     <use style="fill:#ff0000;stroke:#ff0000;stroke-linejoin:miter;" x="1143.93265" xlink:href="#m1765d7ecd5" y="476.08828"/>
     <use style="fill:#ff0000;stroke:#ff0000;stroke-linejoin:miter;" x="1154.054267" xlink:href="#m1765d7ecd5" y="483.273573"/>
     <use style="fill:#ff0000;stroke:#ff0000;stroke-linejoin:miter;" x="1164.187372" xlink:href="#m1765d7ecd5" y="476.08828"/>
     <use style="fill:#ff0000;stroke:#ff0000;stroke-linejoin:miter;" x="1174.316375" xlink:href="#m1765d7ecd5" y="476.08828"/>
     <use style="fill:#ff0000;stroke:#ff0000;stroke-linejoin:miter;" x="1184.437992" xlink:href="#m1765d7ecd5" y="478.483377"/>
     <use style="fill:#ff0000;stroke:#ff0000;stroke-linejoin:miter;" x="1194.583405" xlink:href="#m1765d7ecd5" y="477.285828"/>
     <use style="fill:#ff0000;stroke:#ff0000;stroke-linejoin:miter;" x="1204.714869" xlink:href="#m1765d7ecd5" y="483.273573"/>
     <use style="fill:#ff0000;stroke:#ff0000;stroke-linejoin:miter;" x="1214.869309" xlink:href="#m1765d7ecd5" y="466.507889"/>
     <use style="fill:#ff0000;stroke:#ff0000;stroke-linejoin:miter;" x="1225.003235" xlink:href="#m1765d7ecd5" y="471.298084"/>
     <use style="fill:#ff0000;stroke:#ff0000;stroke-linejoin:miter;" x="1235.130596" xlink:href="#m1765d7ecd5" y="472.495633"/>
     <use style="fill:#ff0000;stroke:#ff0000;stroke-linejoin:miter;" x="1245.272727" xlink:href="#m1765d7ecd5" y="472.495633"/>
    </g>
   </g>
   <g id="line2d_17">
    <path clip-path="url(#pe3c62e748a)" d="M 305.453282 346.753003 
L 316.19114 388.667213 
L 326.831352 381.48192 
L 337.761221 347.950552 
L 348.564724 284.480463 
L 359.19591 417.408386 
L 369.828737 403.0378 
L 380.624034 424.593679 
L 391.405382 432.976521 
L 402.025901 442.556912 
L 412.29768 429.383874 
L 422.45212 471.298084 
L 432.598354 482.076024 
L 442.738024 467.705438 
L 452.881796 473.693182 
L 463.005875 477.285828 
L 473.158674 456.927498 
L 483.30819 467.705438 
L 493.44868 468.902987 
L 503.590811 442.556912 
L 513.738687 462.915242 
L 523.894767 450.939754 
L 534.046745 229.393216 
L 544.202006 444.952009 
L 554.452451 460.520145 
L 564.630687 441.359363 
L 574.984523 89.28 
L 585.278458 472.495633 
L 595.931799 478.483377 
L 606.237221 474.890731 
L 616.661626 485.66867 
L 626.883351 444.952009 
L 637.058305 484.471122 
L 647.202077 479.680926 
L 657.299078 424.593679 
L 667.467467 485.66867 
L 677.631753 470.100535 
L 687.800963 467.705438 
L 697.928324 468.902987 
L 708.06143 473.693182 
L 718.190432 444.952009 
L 728.319434 470.100535 
L 738.461565 468.902987 
L 748.599594 471.298084 
L 758.772086 430.581423 
L 768.905191 465.31034 
L 779.030091 473.693182 
L 789.159913 473.693182 
L 799.302045 471.298084 
L 809.434329 476.08828 
L 819.555126 473.693182 
L 829.694796 473.693182 
L 839.821336 476.08828 
L 849.965929 435.371619 
L 860.096573 474.890731 
L 870.246909 465.31034 
L 880.382476 473.693182 
L 890.516402 477.285828 
L 900.658533 464.112791 
L 910.789177 473.693182 
L 920.93459 473.693182 
L 931.064413 476.08828 
L 941.193415 470.100535 
L 951.332264 471.298084 
L 961.46619 473.693182 
L 971.599295 470.100535 
L 981.744709 478.483377 
L 991.915559 472.495633 
L 1002.040459 473.693182 
L 1012.168641 477.285828 
L 1022.327183 470.100535 
L 1032.458647 471.298084 
L 1042.594214 472.495633 
L 1052.717472 474.890731 
L 1062.851398 474.890731 
L 1072.989426 458.125047 
L 1083.113505 473.693182 
L 1093.248252 473.693182 
L 1103.389562 472.495633 
L 1113.532514 474.890731 
L 1123.664799 473.693182 
L 1133.79298 477.285828 
L 1143.93265 476.08828 
L 1154.054267 483.273573 
L 1164.187372 476.08828 
L 1174.316375 476.08828 
L 1184.437992 478.483377 
L 1194.583405 477.285828 
L 1204.714869 483.273573 
L 1214.869309 466.507889 
L 1225.003235 471.298084 
L 1235.130596 472.495633 
L 1245.272727 472.495633 
" style="fill:none;stroke:#800080;stroke-dasharray:9.6,2.4,1.5,2.4;stroke-dashoffset:0;stroke-width:1.5;"/>
    <defs>
     <path d="M -3 3 
L 3 -3 
M -3 -3 
L 3 3 
" id="mec4f759d35" style="stroke:#800080;"/>
    </defs>
    <g clip-path="url(#pe3c62e748a)">
     <use style="fill:#800080;stroke:#800080;" x="305.453282" xlink:href="#mec4f759d35" y="346.753003"/>
     <use style="fill:#800080;stroke:#800080;" x="316.19114" xlink:href="#mec4f759d35" y="388.667213"/>
     <use style="fill:#800080;stroke:#800080;" x="326.831352" xlink:href="#mec4f759d35" y="381.48192"/>
     <use style="fill:#800080;stroke:#800080;" x="337.761221" xlink:href="#mec4f759d35" y="347.950552"/>
     <use style="fill:#800080;stroke:#800080;" x="348.564724" xlink:href="#mec4f759d35" y="284.480463"/>
     <use style="fill:#800080;stroke:#800080;" x="359.19591" xlink:href="#mec4f759d35" y="417.408386"/>
     <use style="fill:#800080;stroke:#800080;" x="369.828737" xlink:href="#mec4f759d35" y="403.0378"/>
     <use style="fill:#800080;stroke:#800080;" x="380.624034" xlink:href="#mec4f759d35" y="424.593679"/>
     <use style="fill:#800080;stroke:#800080;" x="391.405382" xlink:href="#mec4f759d35" y="432.976521"/>
     <use style="fill:#800080;stroke:#800080;" x="402.025901" xlink:href="#mec4f759d35" y="442.556912"/>
     <use style="fill:#800080;stroke:#800080;" x="412.29768" xlink:href="#mec4f759d35" y="429.383874"/>
     <use style="fill:#800080;stroke:#800080;" x="422.45212" xlink:href="#mec4f759d35" y="471.298084"/>
     <use style="fill:#800080;stroke:#800080;" x="432.598354" xlink:href="#mec4f759d35" y="482.076024"/>
     <use style="fill:#800080;stroke:#800080;" x="442.738024" xlink:href="#mec4f759d35" y="467.705438"/>
     <use style="fill:#800080;stroke:#800080;" x="452.881796" xlink:href="#mec4f759d35" y="473.693182"/>
     <use style="fill:#800080;stroke:#800080;" x="463.005875" xlink:href="#mec4f759d35" y="477.285828"/>
     <use style="fill:#800080;stroke:#800080;" x="473.158674" xlink:href="#mec4f759d35" y="456.927498"/>
     <use style="fill:#800080;stroke:#800080;" x="483.30819" xlink:href="#mec4f759d35" y="467.705438"/>
     <use style="fill:#800080;stroke:#800080;" x="493.44868" xlink:href="#mec4f759d35" y="468.902987"/>
     <use style="fill:#800080;stroke:#800080;" x="503.590811" xlink:href="#mec4f759d35" y="442.556912"/>
     <use style="fill:#800080;stroke:#800080;" x="513.738687" xlink:href="#mec4f759d35" y="462.915242"/>
     <use style="fill:#800080;stroke:#800080;" x="523.894767" xlink:href="#mec4f759d35" y="450.939754"/>
     <use style="fill:#800080;stroke:#800080;" x="534.046745" xlink:href="#mec4f759d35" y="229.393216"/>
     <use style="fill:#800080;stroke:#800080;" x="544.202006" xlink:href="#mec4f759d35" y="444.952009"/>
     <use style="fill:#800080;stroke:#800080;" x="554.452451" xlink:href="#mec4f759d35" y="460.520145"/>
     <use style="fill:#800080;stroke:#800080;" x="564.630687" xlink:href="#mec4f759d35" y="441.359363"/>
     <use style="fill:#800080;stroke:#800080;" x="574.984523" xlink:href="#mec4f759d35" y="89.28"/>
     <use style="fill:#800080;stroke:#800080;" x="585.278458" xlink:href="#mec4f759d35" y="472.495633"/>
     <use style="fill:#800080;stroke:#800080;" x="595.931799" xlink:href="#mec4f759d35" y="478.483377"/>
     <use style="fill:#800080;stroke:#800080;" x="606.237221" xlink:href="#mec4f759d35" y="474.890731"/>
     <use style="fill:#800080;stroke:#800080;" x="616.661626" xlink:href="#mec4f759d35" y="485.66867"/>
     <use style="fill:#800080;stroke:#800080;" x="626.883351" xlink:href="#mec4f759d35" y="444.952009"/>
     <use style="fill:#800080;stroke:#800080;" x="637.058305" xlink:href="#mec4f759d35" y="484.471122"/>
     <use style="fill:#800080;stroke:#800080;" x="647.202077" xlink:href="#mec4f759d35" y="479.680926"/>
     <use style="fill:#800080;stroke:#800080;" x="657.299078" xlink:href="#mec4f759d35" y="424.593679"/>
     <use style="fill:#800080;stroke:#800080;" x="667.467467" xlink:href="#mec4f759d35" y="485.66867"/>
     <use style="fill:#800080;stroke:#800080;" x="677.631753" xlink:href="#mec4f759d35" y="470.100535"/>
     <use style="fill:#800080;stroke:#800080;" x="687.800963" xlink:href="#mec4f759d35" y="467.705438"/>
     <use style="fill:#800080;stroke:#800080;" x="697.928324" xlink:href="#mec4f759d35" y="468.902987"/>
     <use style="fill:#800080;stroke:#800080;" x="708.06143" xlink:href="#mec4f759d35" y="473.693182"/>
     <use style="fill:#800080;stroke:#800080;" x="718.190432" xlink:href="#mec4f759d35" y="444.952009"/>
     <use style="fill:#800080;stroke:#800080;" x="728.319434" xlink:href="#mec4f759d35" y="470.100535"/>
     <use style="fill:#800080;stroke:#800080;" x="738.461565" xlink:href="#mec4f759d35" y="468.902987"/>
     <use style="fill:#800080;stroke:#800080;" x="748.599594" xlink:href="#mec4f759d35" y="471.298084"/>
     <use style="fill:#800080;stroke:#800080;" x="758.772086" xlink:href="#mec4f759d35" y="430.581423"/>
     <use style="fill:#800080;stroke:#800080;" x="768.905191" xlink:href="#mec4f759d35" y="465.31034"/>
     <use style="fill:#800080;stroke:#800080;" x="779.030091" xlink:href="#mec4f759d35" y="473.693182"/>
     <use style="fill:#800080;stroke:#800080;" x="789.159913" xlink:href="#mec4f759d35" y="473.693182"/>
     <use style="fill:#800080;stroke:#800080;" x="799.302045" xlink:href="#mec4f759d35" y="471.298084"/>
     <use style="fill:#800080;stroke:#800080;" x="809.434329" xlink:href="#mec4f759d35" y="476.08828"/>
     <use style="fill:#800080;stroke:#800080;" x="819.555126" xlink:href="#mec4f759d35" y="473.693182"/>
     <use style="fill:#800080;stroke:#800080;" x="829.694796" xlink:href="#mec4f759d35" y="473.693182"/>
     <use style="fill:#800080;stroke:#800080;" x="839.821336" xlink:href="#mec4f759d35" y="476.08828"/>
     <use style="fill:#800080;stroke:#800080;" x="849.965929" xlink:href="#mec4f759d35" y="435.371619"/>
     <use style="fill:#800080;stroke:#800080;" x="860.096573" xlink:href="#mec4f759d35" y="474.890731"/>
     <use style="fill:#800080;stroke:#800080;" x="870.246909" xlink:href="#mec4f759d35" y="465.31034"/>
     <use style="fill:#800080;stroke:#800080;" x="880.382476" xlink:href="#mec4f759d35" y="473.693182"/>
     <use style="fill:#800080;stroke:#800080;" x="890.516402" xlink:href="#mec4f759d35" y="477.285828"/>
     <use style="fill:#800080;stroke:#800080;" x="900.658533" xlink:href="#mec4f759d35" y="464.112791"/>
     <use style="fill:#800080;stroke:#800080;" x="910.789177" xlink:href="#mec4f759d35" y="473.693182"/>
     <use style="fill:#800080;stroke:#800080;" x="920.93459" xlink:href="#mec4f759d35" y="473.693182"/>
     <use style="fill:#800080;stroke:#800080;" x="931.064413" xlink:href="#mec4f759d35" y="476.08828"/>
     <use style="fill:#800080;stroke:#800080;" x="941.193415" xlink:href="#mec4f759d35" y="470.100535"/>
     <use style="fill:#800080;stroke:#800080;" x="951.332264" xlink:href="#mec4f759d35" y="471.298084"/>
     <use style="fill:#800080;stroke:#800080;" x="961.46619" xlink:href="#mec4f759d35" y="473.693182"/>
     <use style="fill:#800080;stroke:#800080;" x="971.599295" xlink:href="#mec4f759d35" y="470.100535"/>
     <use style="fill:#800080;stroke:#800080;" x="981.744709" xlink:href="#mec4f759d35" y="478.483377"/>
     <use style="fill:#800080;stroke:#800080;" x="991.915559" xlink:href="#mec4f759d35" y="472.495633"/>
     <use style="fill:#800080;stroke:#800080;" x="1002.040459" xlink:href="#mec4f759d35" y="473.693182"/>
     <use style="fill:#800080;stroke:#800080;" x="1012.168641" xlink:href="#mec4f759d35" y="477.285828"/>
     <use style="fill:#800080;stroke:#800080;" x="1022.327183" xlink:href="#mec4f759d35" y="470.100535"/>
     <use style="fill:#800080;stroke:#800080;" x="1032.458647" xlink:href="#mec4f759d35" y="471.298084"/>
     <use style="fill:#800080;stroke:#800080;" x="1042.594214" xlink:href="#mec4f759d35" y="472.495633"/>
     <use style="fill:#800080;stroke:#800080;" x="1052.717472" xlink:href="#mec4f759d35" y="474.890731"/>
     <use style="fill:#800080;stroke:#800080;" x="1062.851398" xlink:href="#mec4f759d35" y="474.890731"/>
     <use style="fill:#800080;stroke:#800080;" x="1072.989426" xlink:href="#mec4f759d35" y="458.125047"/>
     <use style="fill:#800080;stroke:#800080;" x="1083.113505" xlink:href="#mec4f759d35" y="473.693182"/>
     <use style="fill:#800080;stroke:#800080;" x="1093.248252" xlink:href="#mec4f759d35" y="473.693182"/>
     <use style="fill:#800080;stroke:#800080;" x="1103.389562" xlink:href="#mec4f759d35" y="472.495633"/>
     <use style="fill:#800080;stroke:#800080;" x="1113.532514" xlink:href="#mec4f759d35" y="474.890731"/>
     <use style="fill:#800080;stroke:#800080;" x="1123.664799" xlink:href="#mec4f759d35" y="473.693182"/>
     <use style="fill:#800080;stroke:#800080;" x="1133.79298" xlink:href="#mec4f759d35" y="477.285828"/>
     <use style="fill:#800080;stroke:#800080;" x="1143.93265" xlink:href="#mec4f759d35" y="476.08828"/>
     <use style="fill:#800080;stroke:#800080;" x="1154.054267" xlink:href="#mec4f759d35" y="483.273573"/>
     <use style="fill:#800080;stroke:#800080;" x="1164.187372" xlink:href="#mec4f759d35" y="476.08828"/>
     <use style="fill:#800080;stroke:#800080;" x="1174.316375" xlink:href="#mec4f759d35" y="476.08828"/>
     <use style="fill:#800080;stroke:#800080;" x="1184.437992" xlink:href="#mec4f759d35" y="478.483377"/>
     <use style="fill:#800080;stroke:#800080;" x="1194.583405" xlink:href="#mec4f759d35" y="477.285828"/>
     <use style="fill:#800080;stroke:#800080;" x="1204.714869" xlink:href="#mec4f759d35" y="483.273573"/>
     <use style="fill:#800080;stroke:#800080;" x="1214.869309" xlink:href="#mec4f759d35" y="466.507889"/>
     <use style="fill:#800080;stroke:#800080;" x="1225.003235" xlink:href="#mec4f759d35" y="471.298084"/>
     <use style="fill:#800080;stroke:#800080;" x="1235.130596" xlink:href="#mec4f759d35" y="472.495633"/>
     <use style="fill:#800080;stroke:#800080;" x="1245.272727" xlink:href="#mec4f759d35" y="472.495633"/>
    </g>
   </g>
   <g id="line2d_18">
    <path clip-path="url(#pe3c62e748a)" d="M 305.453282 413.923805 
L 316.19114 414.821344 
L 326.831352 415.710722 
L 337.761221 416.624311 
L 348.564724 417.527338 
L 359.19591 418.415961 
L 369.828737 419.304722 
L 380.624034 420.207063 
L 391.405382 421.108238 
L 402.025901 421.995969 
L 412.29768 422.854551 
L 422.45212 423.703325 
L 432.598354 424.551413 
L 442.738024 425.398952 
L 452.881796 426.246835 
L 463.005875 427.093071 
L 473.158674 427.941707 
L 483.30819 428.79007 
L 493.44868 429.637677 
L 503.590811 430.485422 
L 513.738687 431.333648 
L 523.894767 432.182559 
L 534.046745 433.031127 
L 544.202006 433.879969 
L 554.452451 434.736768 
L 564.630687 435.587531 
L 574.984523 436.452971 
L 585.278458 437.313405 
L 595.931799 438.20388 
L 606.237221 439.065274 
L 616.661626 439.936613 
L 626.883351 440.791011 
L 637.058305 441.6415 
L 647.202077 442.489382 
L 657.299078 443.333355 
L 667.467467 444.183295 
L 677.631753 445.032891 
L 687.800963 445.8829 
L 697.928324 446.72941 
L 708.06143 447.576401 
L 718.190432 448.423048 
L 728.319434 449.269696 
L 738.461565 450.117441 
L 748.599594 450.964843 
L 758.772086 451.815126 
L 768.905191 452.662116 
L 779.030091 453.508421 
L 789.159913 454.355137 
L 799.302045 455.202882 
L 809.434329 456.049804 
L 819.555126 456.895766 
L 829.694796 457.743305 
L 839.821336 458.589747 
L 849.965929 459.437698 
L 860.096573 460.284483 
L 870.246909 461.132914 
L 880.382476 461.98011 
L 890.516402 462.827169 
L 900.658533 463.674914 
L 910.789177 464.521699 
L 920.93459 465.369718 
L 931.064413 466.216434 
L 941.193415 467.063082 
L 951.332264 467.910553 
L 961.46619 468.757612 
L 971.599295 469.604602 
L 981.744709 470.452622 
L 991.915559 471.302767 
L 1002.040459 472.149072 
L 1012.168641 472.995651 
L 1022.327183 473.844768 
L 1032.458647 474.691621 
L 1042.594214 475.538817 
L 1052.717472 476.384985 
L 1062.851398 477.232044 
L 1072.989426 478.079446 
L 1083.113505 478.925682 
L 1093.248252 479.77281 
L 1103.389562 480.620486 
L 1113.532514 481.4683 
L 1123.664799 482.315222 
L 1133.79298 483.161801 
L 1143.93265 484.00934 
L 1154.054267 484.85537 
L 1164.187372 485.702361 
L 1174.316375 486.549009 
L 1184.437992 487.395039 
L 1194.583405 488.243058 
L 1204.714869 489.089912 
L 1214.869309 489.938685 
L 1225.003235 490.785745 
L 1235.130596 491.632255 
L 1245.272727 492.48 
" style="fill:none;stroke:#0000ff;stroke-linecap:square;stroke-width:1.5;"/>
   </g>
   <g id="line2d_19">
    <path clip-path="url(#pe3c62e748a)" d="M 305.453282 415.073213 
L 316.19114 415.955498 
L 326.831352 416.82976 
L 337.761221 417.727822 
L 348.564724 418.615502 
L 359.19591 419.489022 
L 369.828737 420.362677 
L 380.624034 421.249682 
L 391.405382 422.135541 
L 402.025901 423.008185 
L 412.29768 423.852174 
L 422.45212 424.686523 
L 432.598354 425.520197 
L 442.738024 426.353331 
L 452.881796 427.186803 
L 463.005875 428.018657 
L 473.158674 428.85287 
L 483.30819 429.686814 
L 493.44868 430.520016 
L 503.590811 431.353353 
L 513.738687 432.187161 
L 523.894767 433.021645 
L 534.046745 433.85579 
L 544.202006 434.690206 
L 554.452451 435.532443 
L 564.630687 436.368746 
L 574.984523 437.219478 
L 585.278458 438.065288 
L 595.931799 438.940629 
L 606.237221 439.787383 
L 616.661626 440.643913 
L 626.883351 441.48379 
L 637.058305 442.319823 
L 647.202077 443.153295 
L 657.299078 443.982924 
L 667.467467 444.818418 
L 677.631753 445.653575 
L 687.800963 446.489137 
L 697.928324 447.321261 
L 708.06143 448.153856 
L 718.190432 448.986114 
L 728.319434 449.818372 
L 738.461565 450.651709 
L 748.599594 451.484709 
L 758.772086 452.32054 
L 768.905191 453.153135 
L 779.030091 453.985057 
L 789.159913 454.817382 
L 799.302045 455.650719 
L 809.434329 456.483247 
L 819.555126 457.314831 
L 829.694796 458.147965 
L 839.821336 458.980021 
L 849.965929 459.81356 
L 860.096573 460.645953 
L 870.246909 461.479964 
L 880.382476 462.312762 
L 890.516402 463.145425 
L 900.658533 463.978762 
L 910.789177 464.811154 
L 920.93459 465.644761 
L 931.064413 466.477087 
L 941.193415 467.309345 
L 951.332264 468.142412 
L 961.46619 468.975075 
L 971.599295 469.80767 
L 981.744709 470.641276 
L 991.915559 471.476973 
L 1002.040459 472.308894 
L 1012.168641 473.141085 
L 1022.327183 473.97577 
L 1032.458647 474.808231 
L 1042.594214 475.641028 
L 1052.717472 476.472814 
L 1062.851398 477.305477 
L 1072.989426 478.138477 
L 1083.113505 478.97033 
L 1093.248252 479.80306 
L 1103.389562 480.63633 
L 1113.532514 481.469734 
L 1123.664799 482.302262 
L 1133.79298 483.134453 
L 1143.93265 483.967587 
L 1154.054267 484.799239 
L 1164.187372 485.631834 
L 1174.316375 486.464092 
L 1184.437992 487.295743 
L 1194.583405 488.12935 
L 1204.714869 488.96181 
L 1214.869309 489.796159 
L 1225.003235 490.628821 
L 1235.130596 491.460945 
L 1245.272727 492.294281 
" style="fill:none;stroke:#008000;stroke-linecap:square;stroke-width:1.5;"/>
    <defs>
     <path d="M 0 3 
C 0.795609 3 1.55874 2.683901 2.12132 2.12132 
C 2.683901 1.55874 3 0.795609 3 0 
C 3 -0.795609 2.683901 -1.55874 2.12132 -2.12132 
C 1.55874 -2.683901 0.795609 -3 0 -3 
C -0.795609 -3 -1.55874 -2.683901 -2.12132 -2.12132 
C -2.683901 -1.55874 -3 -0.795609 -3 0 
C -3 0.795609 -2.683901 1.55874 -2.12132 2.12132 
C -1.55874 2.683901 -0.795609 3 0 3 
z
" id="m23145552c8" style="stroke:#008000;"/>
    </defs>
    <g clip-path="url(#pe3c62e748a)">
     <use style="fill:#008000;stroke:#008000;" x="305.453282" xlink:href="#m23145552c8" y="415.073213"/>
     <use style="fill:#008000;stroke:#008000;" x="316.19114" xlink:href="#m23145552c8" y="415.955498"/>
     <use style="fill:#008000;stroke:#008000;" x="326.831352" xlink:href="#m23145552c8" y="416.82976"/>
     <use style="fill:#008000;stroke:#008000;" x="337.761221" xlink:href="#m23145552c8" y="417.727822"/>
     <use style="fill:#008000;stroke:#008000;" x="348.564724" xlink:href="#m23145552c8" y="418.615502"/>
     <use style="fill:#008000;stroke:#008000;" x="359.19591" xlink:href="#m23145552c8" y="419.489022"/>
     <use style="fill:#008000;stroke:#008000;" x="369.828737" xlink:href="#m23145552c8" y="420.362677"/>
     <use style="fill:#008000;stroke:#008000;" x="380.624034" xlink:href="#m23145552c8" y="421.249682"/>
     <use style="fill:#008000;stroke:#008000;" x="391.405382" xlink:href="#m23145552c8" y="422.135541"/>
     <use style="fill:#008000;stroke:#008000;" x="402.025901" xlink:href="#m23145552c8" y="423.008185"/>
     <use style="fill:#008000;stroke:#008000;" x="412.29768" xlink:href="#m23145552c8" y="423.852174"/>
     <use style="fill:#008000;stroke:#008000;" x="422.45212" xlink:href="#m23145552c8" y="424.686523"/>
     <use style="fill:#008000;stroke:#008000;" x="432.598354" xlink:href="#m23145552c8" y="425.520197"/>
     <use style="fill:#008000;stroke:#008000;" x="442.738024" xlink:href="#m23145552c8" y="426.353331"/>
     <use style="fill:#008000;stroke:#008000;" x="452.881796" xlink:href="#m23145552c8" y="427.186803"/>
     <use style="fill:#008000;stroke:#008000;" x="463.005875" xlink:href="#m23145552c8" y="428.018657"/>
     <use style="fill:#008000;stroke:#008000;" x="473.158674" xlink:href="#m23145552c8" y="428.85287"/>
     <use style="fill:#008000;stroke:#008000;" x="483.30819" xlink:href="#m23145552c8" y="429.686814"/>
     <use style="fill:#008000;stroke:#008000;" x="493.44868" xlink:href="#m23145552c8" y="430.520016"/>
     <use style="fill:#008000;stroke:#008000;" x="503.590811" xlink:href="#m23145552c8" y="431.353353"/>
     <use style="fill:#008000;stroke:#008000;" x="513.738687" xlink:href="#m23145552c8" y="432.187161"/>
     <use style="fill:#008000;stroke:#008000;" x="523.894767" xlink:href="#m23145552c8" y="433.021645"/>
     <use style="fill:#008000;stroke:#008000;" x="534.046745" xlink:href="#m23145552c8" y="433.85579"/>
     <use style="fill:#008000;stroke:#008000;" x="544.202006" xlink:href="#m23145552c8" y="434.690206"/>
     <use style="fill:#008000;stroke:#008000;" x="554.452451" xlink:href="#m23145552c8" y="435.532443"/>
     <use style="fill:#008000;stroke:#008000;" x="564.630687" xlink:href="#m23145552c8" y="436.368746"/>
     <use style="fill:#008000;stroke:#008000;" x="574.984523" xlink:href="#m23145552c8" y="437.219478"/>
     <use style="fill:#008000;stroke:#008000;" x="585.278458" xlink:href="#m23145552c8" y="438.065288"/>
     <use style="fill:#008000;stroke:#008000;" x="595.931799" xlink:href="#m23145552c8" y="438.940629"/>
     <use style="fill:#008000;stroke:#008000;" x="606.237221" xlink:href="#m23145552c8" y="439.787383"/>
     <use style="fill:#008000;stroke:#008000;" x="616.661626" xlink:href="#m23145552c8" y="440.643913"/>
     <use style="fill:#008000;stroke:#008000;" x="626.883351" xlink:href="#m23145552c8" y="441.48379"/>
     <use style="fill:#008000;stroke:#008000;" x="637.058305" xlink:href="#m23145552c8" y="442.319823"/>
     <use style="fill:#008000;stroke:#008000;" x="647.202077" xlink:href="#m23145552c8" y="443.153295"/>
     <use style="fill:#008000;stroke:#008000;" x="657.299078" xlink:href="#m23145552c8" y="443.982924"/>
     <use style="fill:#008000;stroke:#008000;" x="667.467467" xlink:href="#m23145552c8" y="444.818418"/>
     <use style="fill:#008000;stroke:#008000;" x="677.631753" xlink:href="#m23145552c8" y="445.653575"/>
     <use style="fill:#008000;stroke:#008000;" x="687.800963" xlink:href="#m23145552c8" y="446.489137"/>
     <use style="fill:#008000;stroke:#008000;" x="697.928324" xlink:href="#m23145552c8" y="447.321261"/>
     <use style="fill:#008000;stroke:#008000;" x="708.06143" xlink:href="#m23145552c8" y="448.153856"/>
     <use style="fill:#008000;stroke:#008000;" x="718.190432" xlink:href="#m23145552c8" y="448.986114"/>
     <use style="fill:#008000;stroke:#008000;" x="728.319434" xlink:href="#m23145552c8" y="449.818372"/>
     <use style="fill:#008000;stroke:#008000;" x="738.461565" xlink:href="#m23145552c8" y="450.651709"/>
     <use style="fill:#008000;stroke:#008000;" x="748.599594" xlink:href="#m23145552c8" y="451.484709"/>
     <use style="fill:#008000;stroke:#008000;" x="758.772086" xlink:href="#m23145552c8" y="452.32054"/>
     <use style="fill:#008000;stroke:#008000;" x="768.905191" xlink:href="#m23145552c8" y="453.153135"/>
     <use style="fill:#008000;stroke:#008000;" x="779.030091" xlink:href="#m23145552c8" y="453.985057"/>
     <use style="fill:#008000;stroke:#008000;" x="789.159913" xlink:href="#m23145552c8" y="454.817382"/>
     <use style="fill:#008000;stroke:#008000;" x="799.302045" xlink:href="#m23145552c8" y="455.650719"/>
     <use style="fill:#008000;stroke:#008000;" x="809.434329" xlink:href="#m23145552c8" y="456.483247"/>
     <use style="fill:#008000;stroke:#008000;" x="819.555126" xlink:href="#m23145552c8" y="457.314831"/>
     <use style="fill:#008000;stroke:#008000;" x="829.694796" xlink:href="#m23145552c8" y="458.147965"/>
     <use style="fill:#008000;stroke:#008000;" x="839.821336" xlink:href="#m23145552c8" y="458.980021"/>
     <use style="fill:#008000;stroke:#008000;" x="849.965929" xlink:href="#m23145552c8" y="459.81356"/>
     <use style="fill:#008000;stroke:#008000;" x="860.096573" xlink:href="#m23145552c8" y="460.645953"/>
     <use style="fill:#008000;stroke:#008000;" x="870.246909" xlink:href="#m23145552c8" y="461.479964"/>
     <use style="fill:#008000;stroke:#008000;" x="880.382476" xlink:href="#m23145552c8" y="462.312762"/>
     <use style="fill:#008000;stroke:#008000;" x="890.516402" xlink:href="#m23145552c8" y="463.145425"/>
     <use style="fill:#008000;stroke:#008000;" x="900.658533" xlink:href="#m23145552c8" y="463.978762"/>
     <use style="fill:#008000;stroke:#008000;" x="910.789177" xlink:href="#m23145552c8" y="464.811154"/>
     <use style="fill:#008000;stroke:#008000;" x="920.93459" xlink:href="#m23145552c8" y="465.644761"/>
     <use style="fill:#008000;stroke:#008000;" x="931.064413" xlink:href="#m23145552c8" y="466.477087"/>
     <use style="fill:#008000;stroke:#008000;" x="941.193415" xlink:href="#m23145552c8" y="467.309345"/>
     <use style="fill:#008000;stroke:#008000;" x="951.332264" xlink:href="#m23145552c8" y="468.142412"/>
     <use style="fill:#008000;stroke:#008000;" x="961.46619" xlink:href="#m23145552c8" y="468.975075"/>
     <use style="fill:#008000;stroke:#008000;" x="971.599295" xlink:href="#m23145552c8" y="469.80767"/>
     <use style="fill:#008000;stroke:#008000;" x="981.744709" xlink:href="#m23145552c8" y="470.641276"/>
     <use style="fill:#008000;stroke:#008000;" x="991.915559" xlink:href="#m23145552c8" y="471.476973"/>
     <use style="fill:#008000;stroke:#008000;" x="1002.040459" xlink:href="#m23145552c8" y="472.308894"/>
     <use style="fill:#008000;stroke:#008000;" x="1012.168641" xlink:href="#m23145552c8" y="473.141085"/>
     <use style="fill:#008000;stroke:#008000;" x="1022.327183" xlink:href="#m23145552c8" y="473.97577"/>
     <use style="fill:#008000;stroke:#008000;" x="1032.458647" xlink:href="#m23145552c8" y="474.808231"/>
     <use style="fill:#008000;stroke:#008000;" x="1042.594214" xlink:href="#m23145552c8" y="475.641028"/>
     <use style="fill:#008000;stroke:#008000;" x="1052.717472" xlink:href="#m23145552c8" y="476.472814"/>
     <use style="fill:#008000;stroke:#008000;" x="1062.851398" xlink:href="#m23145552c8" y="477.305477"/>
     <use style="fill:#008000;stroke:#008000;" x="1072.989426" xlink:href="#m23145552c8" y="478.138477"/>
     <use style="fill:#008000;stroke:#008000;" x="1083.113505" xlink:href="#m23145552c8" y="478.97033"/>
     <use style="fill:#008000;stroke:#008000;" x="1093.248252" xlink:href="#m23145552c8" y="479.80306"/>
     <use style="fill:#008000;stroke:#008000;" x="1103.389562" xlink:href="#m23145552c8" y="480.63633"/>
     <use style="fill:#008000;stroke:#008000;" x="1113.532514" xlink:href="#m23145552c8" y="481.469734"/>
     <use style="fill:#008000;stroke:#008000;" x="1123.664799" xlink:href="#m23145552c8" y="482.302262"/>
     <use style="fill:#008000;stroke:#008000;" x="1133.79298" xlink:href="#m23145552c8" y="483.134453"/>
     <use style="fill:#008000;stroke:#008000;" x="1143.93265" xlink:href="#m23145552c8" y="483.967587"/>
     <use style="fill:#008000;stroke:#008000;" x="1154.054267" xlink:href="#m23145552c8" y="484.799239"/>
     <use style="fill:#008000;stroke:#008000;" x="1164.187372" xlink:href="#m23145552c8" y="485.631834"/>
     <use style="fill:#008000;stroke:#008000;" x="1174.316375" xlink:href="#m23145552c8" y="486.464092"/>
     <use style="fill:#008000;stroke:#008000;" x="1184.437992" xlink:href="#m23145552c8" y="487.295743"/>
     <use style="fill:#008000;stroke:#008000;" x="1194.583405" xlink:href="#m23145552c8" y="488.12935"/>
     <use style="fill:#008000;stroke:#008000;" x="1204.714869" xlink:href="#m23145552c8" y="488.96181"/>
     <use style="fill:#008000;stroke:#008000;" x="1214.869309" xlink:href="#m23145552c8" y="489.796159"/>
     <use style="fill:#008000;stroke:#008000;" x="1225.003235" xlink:href="#m23145552c8" y="490.628821"/>
     <use style="fill:#008000;stroke:#008000;" x="1235.130596" xlink:href="#m23145552c8" y="491.460945"/>
     <use style="fill:#008000;stroke:#008000;" x="1245.272727" xlink:href="#m23145552c8" y="492.294281"/>
    </g>
   </g>
   <g id="patch_3">
    <path d="M 180 512.64 
L 180 69.12 
" style="fill:none;stroke:#000000;stroke-linecap:square;stroke-linejoin:miter;stroke-width:0.8;"/>
   </g>
   <g id="patch_4">
    <path d="M 1296 512.64 
L 1296 69.12 
" style="fill:none;stroke:#000000;stroke-linecap:square;stroke-linejoin:miter;stroke-width:0.8;"/>
   </g>
   <g id="patch_5">
    <path d="M 180 512.64 
L 1296 512.64 
" style="fill:none;stroke:#000000;stroke-linecap:square;stroke-linejoin:miter;stroke-width:0.8;"/>
   </g>
   <g id="patch_6">
    <path d="M 180 69.12 
L 1296 69.12 
" style="fill:none;stroke:#000000;stroke-linecap:square;stroke-linejoin:miter;stroke-width:0.8;"/>
   </g>
   <g id="text_16">
    <!-- 500000.0 bit/s -->
    <defs>
     <path id="DejaVuSans-20"/>
     <path d="M 48.6875 27.296875 
Q 48.6875 37.203125 44.609375 42.84375 
Q 40.53125 48.484375 33.40625 48.484375 
Q 26.265625 48.484375 22.1875 42.84375 
Q 18.109375 37.203125 18.109375 27.296875 
Q 18.109375 17.390625 22.1875 11.75 
Q 26.265625 6.109375 33.40625 6.109375 
Q 40.53125 6.109375 44.609375 11.75 
Q 48.6875 17.390625 48.6875 27.296875 
z
M 18.109375 46.390625 
Q 20.953125 51.265625 25.265625 53.625 
Q 29.59375 56 35.59375 56 
Q 45.5625 56 51.78125 48.09375 
Q 58.015625 40.1875 58.015625 27.296875 
Q 58.015625 14.40625 51.78125 6.484375 
Q 45.5625 -1.421875 35.59375 -1.421875 
Q 29.59375 -1.421875 25.265625 0.953125 
Q 20.953125 3.328125 18.109375 8.203125 
L 18.109375 0 
L 9.078125 0 
L 9.078125 75.984375 
L 18.109375 75.984375 
z
" id="DejaVuSans-62"/>
     <path d="M 9.421875 54.6875 
L 18.40625 54.6875 
L 18.40625 0 
L 9.421875 0 
z
M 9.421875 75.984375 
L 18.40625 75.984375 
L 18.40625 64.59375 
L 9.421875 64.59375 
z
" id="DejaVuSans-69"/>
     <path d="M 18.3125 70.21875 
L 18.3125 54.6875 
L 36.8125 54.6875 
L 36.8125 47.703125 
L 18.3125 47.703125 
L 18.3125 18.015625 
Q 18.3125 11.328125 20.140625 9.421875 
Q 21.96875 7.515625 27.59375 7.515625 
L 36.8125 7.515625 
L 36.8125 0 
L 27.59375 0 
Q 17.1875 0 13.234375 3.875 
Q 9.28125 7.765625 9.28125 18.015625 
L 9.28125 47.703125 
L 2.6875 47.703125 
L 2.6875 54.6875 
L 9.28125 54.6875 
L 9.28125 70.21875 
z
" id="DejaVuSans-74"/>
     <path d="M 25.390625 72.90625 
L 33.6875 72.90625 
L 8.296875 -9.28125 
L 0 -9.28125 
z
" id="DejaVuSans-2f"/>
     <path d="M 44.28125 53.078125 
L 44.28125 44.578125 
Q 40.484375 46.53125 36.375 47.5 
Q 32.28125 48.484375 27.875 48.484375 
Q 21.1875 48.484375 17.84375 46.4375 
Q 14.5 44.390625 14.5 40.28125 
Q 14.5 37.15625 16.890625 35.375 
Q 19.28125 33.59375 26.515625 31.984375 
L 29.59375 31.296875 
Q 39.15625 29.25 43.1875 25.515625 
Q 47.21875 21.78125 47.21875 15.09375 
Q 47.21875 7.46875 41.1875 3.015625 
Q 35.15625 -1.421875 24.609375 -1.421875 
Q 20.21875 -1.421875 15.453125 -0.5625 
Q 10.6875 0.296875 5.421875 2 
L 5.421875 11.28125 
Q 10.40625 8.6875 15.234375 7.390625 
Q 20.0625 6.109375 24.8125 6.109375 
Q 31.15625 6.109375 34.5625 8.28125 
Q 37.984375 10.453125 37.984375 14.40625 
Q 37.984375 18.0625 35.515625 20.015625 
Q 33.0625 21.96875 24.703125 23.78125 
L 21.578125 24.515625 
Q 13.234375 26.265625 9.515625 29.90625 
Q 5.8125 33.546875 5.8125 39.890625 
Q 5.8125 47.609375 11.28125 51.796875 
Q 16.75 56 26.8125 56 
Q 31.78125 56 36.171875 55.265625 
Q 40.578125 54.546875 44.28125 53.078125 
z
" id="DejaVuSans-73"/>
    </defs>
    <g transform="translate(694.48875 63.12)scale(0.12 -0.12)">
     <use xlink:href="#DejaVuSans-35"/>
     <use x="63.623047" xlink:href="#DejaVuSans-30"/>
     <use x="127.246094" xlink:href="#DejaVuSans-30"/>
     <use x="190.869141" xlink:href="#DejaVuSans-30"/>
     <use x="254.492188" xlink:href="#DejaVuSans-30"/>
     <use x="318.115234" xlink:href="#DejaVuSans-30"/>
     <use x="381.738281" xlink:href="#DejaVuSans-2e"/>
     <use x="413.525391" xlink:href="#DejaVuSans-30"/>
     <use x="477.148438" xlink:href="#DejaVuSans-20"/>
     <use x="508.935547" xlink:href="#DejaVuSans-62"/>
     <use x="572.412109" xlink:href="#DejaVuSans-69"/>
     <use x="600.195312" xlink:href="#DejaVuSans-74"/>
     <use x="639.404297" xlink:href="#DejaVuSans-2f"/>
     <use x="673.095703" xlink:href="#DejaVuSans-73"/>
    </g>
   </g>
   <g id="legend_1">
    <g id="patch_7">
     <path d="M 1173.520313 135.8325 
L 1289 135.8325 
Q 1291 135.8325 1291 133.8325 
L 1291 76.12 
Q 1291 74.12 1289 74.12 
L 1173.520313 74.12 
Q 1171.520313 74.12 1171.520313 76.12 
L 1171.520313 133.8325 
Q 1171.520313 135.8325 1173.520313 135.8325 
z
" style="fill:#ffffff;opacity:0.8;stroke:#cccccc;stroke-linejoin:miter;"/>
    </g>
    <g id="line2d_20">
     <path d="M 1175.520313 82.218437 
L 1195.520313 82.218437 
" style="fill:none;stroke:#ff0000;stroke-dasharray:5.55,2.4;stroke-dashoffset:0;stroke-width:1.5;"/>
    </g>
    <g id="line2d_21">
     <g>
      <use style="fill:#ff0000;stroke:#ff0000;stroke-linejoin:miter;" x="1185.520313" xlink:href="#m1765d7ecd5" y="82.218437"/>
     </g>
    </g>
    <g id="text_17">
     <!-- tcpdump -->
     <defs>
      <path d="M 48.78125 52.59375 
L 48.78125 44.1875 
Q 44.96875 46.296875 41.140625 47.34375 
Q 37.3125 48.390625 33.40625 48.390625 
Q 24.65625 48.390625 19.8125 42.84375 
Q 14.984375 37.3125 14.984375 27.296875 
Q 14.984375 17.28125 19.8125 11.734375 
Q 24.65625 6.203125 33.40625 6.203125 
Q 37.3125 6.203125 41.140625 7.25 
Q 44.96875 8.296875 48.78125 10.40625 
L 48.78125 2.09375 
Q 45.015625 0.34375 40.984375 -0.53125 
Q 36.96875 -1.421875 32.421875 -1.421875 
Q 20.0625 -1.421875 12.78125 6.34375 
Q 5.515625 14.109375 5.515625 27.296875 
Q 5.515625 40.671875 12.859375 48.328125 
Q 20.21875 56 33.015625 56 
Q 37.15625 56 41.109375 55.140625 
Q 45.0625 54.296875 48.78125 52.59375 
z
" id="DejaVuSans-63"/>
      <path d="M 18.109375 8.203125 
L 18.109375 -20.796875 
L 9.078125 -20.796875 
L 9.078125 54.6875 
L 18.109375 54.6875 
L 18.109375 46.390625 
Q 20.953125 51.265625 25.265625 53.625 
Q 29.59375 56 35.59375 56 
Q 45.5625 56 51.78125 48.09375 
Q 58.015625 40.1875 58.015625 27.296875 
Q 58.015625 14.40625 51.78125 6.484375 
Q 45.5625 -1.421875 35.59375 -1.421875 
Q 29.59375 -1.421875 25.265625 0.953125 
Q 20.953125 3.328125 18.109375 8.203125 
z
M 48.6875 27.296875 
Q 48.6875 37.203125 44.609375 42.84375 
Q 40.53125 48.484375 33.40625 48.484375 
Q 26.265625 48.484375 22.1875 42.84375 
Q 18.109375 37.203125 18.109375 27.296875 
Q 18.109375 17.390625 22.1875 11.75 
Q 26.265625 6.109375 33.40625 6.109375 
Q 40.53125 6.109375 44.609375 11.75 
Q 48.6875 17.390625 48.6875 27.296875 
z
" id="DejaVuSans-70"/>
      <path d="M 45.40625 46.390625 
L 45.40625 75.984375 
L 54.390625 75.984375 
L 54.390625 0 
L 45.40625 0 
L 45.40625 8.203125 
Q 42.578125 3.328125 38.25 0.953125 
Q 33.9375 -1.421875 27.875 -1.421875 
Q 17.96875 -1.421875 11.734375 6.484375 
Q 5.515625 14.40625 5.515625 27.296875 
Q 5.515625 40.1875 11.734375 48.09375 
Q 17.96875 56 27.875 56 
Q 33.9375 56 38.25 53.625 
Q 42.578125 51.265625 45.40625 46.390625 
z
M 14.796875 27.296875 
Q 14.796875 17.390625 18.875 11.75 
Q 22.953125 6.109375 30.078125 6.109375 
Q 37.203125 6.109375 41.296875 11.75 
Q 45.40625 17.390625 45.40625 27.296875 
Q 45.40625 37.203125 41.296875 42.84375 
Q 37.203125 48.484375 30.078125 48.484375 
Q 22.953125 48.484375 18.875 42.84375 
Q 14.796875 37.203125 14.796875 27.296875 
z
" id="DejaVuSans-64"/>
      <path d="M 8.5 21.578125 
L 8.5 54.6875 
L 17.484375 54.6875 
L 17.484375 21.921875 
Q 17.484375 14.15625 20.5 10.265625 
Q 23.53125 6.390625 29.59375 6.390625 
Q 36.859375 6.390625 41.078125 11.03125 
Q 45.3125 15.671875 45.3125 23.6875 
L 45.3125 54.6875 
L 54.296875 54.6875 
L 54.296875 0 
L 45.3125 0 
L 45.3125 8.40625 
Q 42.046875 3.421875 37.71875 1 
Q 33.40625 -1.421875 27.6875 -1.421875 
Q 18.265625 -1.421875 13.375 4.4375 
Q 8.5 10.296875 8.5 21.578125 
z
M 31.109375 56 
z
" id="DejaVuSans-75"/>
      <path d="M 52 44.1875 
Q 55.375 50.25 60.0625 53.125 
Q 64.75 56 71.09375 56 
Q 79.640625 56 84.28125 50.015625 
Q 88.921875 44.046875 88.921875 33.015625 
L 88.921875 0 
L 79.890625 0 
L 79.890625 32.71875 
Q 79.890625 40.578125 77.09375 44.375 
Q 74.3125 48.1875 68.609375 48.1875 
Q 61.625 48.1875 57.5625 43.546875 
Q 53.515625 38.921875 53.515625 30.90625 
L 53.515625 0 
L 44.484375 0 
L 44.484375 32.71875 
Q 44.484375 40.625 41.703125 44.40625 
Q 38.921875 48.1875 33.109375 48.1875 
Q 26.21875 48.1875 22.15625 43.53125 
Q 18.109375 38.875 18.109375 30.90625 
L 18.109375 0 
L 9.078125 0 
L 9.078125 54.6875 
L 18.109375 54.6875 
L 18.109375 46.1875 
Q 21.1875 51.21875 25.484375 53.609375 
Q 29.78125 56 35.6875 56 
Q 41.65625 56 45.828125 52.96875 
Q 50 49.953125 52 44.1875 
z
" id="DejaVuSans-6d"/>
     </defs>
     <g transform="translate(1203.520313 85.718437)scale(0.1 -0.1)">
      <use xlink:href="#DejaVuSans-74"/>
      <use x="39.208984" xlink:href="#DejaVuSans-63"/>
      <use x="94.189453" xlink:href="#DejaVuSans-70"/>
      <use x="157.666016" xlink:href="#DejaVuSans-64"/>
      <use x="221.142578" xlink:href="#DejaVuSans-75"/>
      <use x="284.521484" xlink:href="#DejaVuSans-6d"/>
      <use x="381.933594" xlink:href="#DejaVuSans-70"/>
     </g>
    </g>
    <g id="line2d_22">
     <path d="M 1175.520313 96.896563 
L 1195.520313 96.896563 
" style="fill:none;stroke:#800080;stroke-dasharray:9.6,2.4,1.5,2.4;stroke-dashoffset:0;stroke-width:1.5;"/>
    </g>
    <g id="line2d_23">
     <g>
      <use style="fill:#800080;stroke:#800080;" x="1185.520313" xlink:href="#mec4f759d35" y="96.896563"/>
     </g>
    </g>
    <g id="text_18">
     <!-- filtered tcpdump -->
     <defs>
      <path d="M 37.109375 75.984375 
L 37.109375 68.5 
L 28.515625 68.5 
Q 23.6875 68.5 21.796875 66.546875 
Q 19.921875 64.59375 19.921875 59.515625 
L 19.921875 54.6875 
L 34.71875 54.6875 
L 34.71875 47.703125 
L 19.921875 47.703125 
L 19.921875 0 
L 10.890625 0 
L 10.890625 47.703125 
L 2.296875 47.703125 
L 2.296875 54.6875 
L 10.890625 54.6875 
L 10.890625 58.5 
Q 10.890625 67.625 15.140625 71.796875 
Q 19.390625 75.984375 28.609375 75.984375 
z
" id="DejaVuSans-66"/>
      <path d="M 9.421875 75.984375 
L 18.40625 75.984375 
L 18.40625 0 
L 9.421875 0 
z
" id="DejaVuSans-6c"/>
      <path d="M 56.203125 29.59375 
L 56.203125 25.203125 
L 14.890625 25.203125 
Q 15.484375 15.921875 20.484375 11.0625 
Q 25.484375 6.203125 34.421875 6.203125 
Q 39.59375 6.203125 44.453125 7.46875 
Q 49.3125 8.734375 54.109375 11.28125 
L 54.109375 2.78125 
Q 49.265625 0.734375 44.1875 -0.34375 
Q 39.109375 -1.421875 33.890625 -1.421875 
Q 20.796875 -1.421875 13.15625 6.1875 
Q 5.515625 13.8125 5.515625 26.8125 
Q 5.515625 40.234375 12.765625 48.109375 
Q 20.015625 56 32.328125 56 
Q 43.359375 56 49.78125 48.890625 
Q 56.203125 41.796875 56.203125 29.59375 
z
M 47.21875 32.234375 
Q 47.125 39.59375 43.09375 43.984375 
Q 39.0625 48.390625 32.421875 48.390625 
Q 24.90625 48.390625 20.390625 44.140625 
Q 15.875 39.890625 15.1875 32.171875 
z
" id="DejaVuSans-65"/>
      <path d="M 41.109375 46.296875 
Q 39.59375 47.171875 37.8125 47.578125 
Q 36.03125 48 33.890625 48 
Q 26.265625 48 22.1875 43.046875 
Q 18.109375 38.09375 18.109375 28.8125 
L 18.109375 0 
L 9.078125 0 
L 9.078125 54.6875 
L 18.109375 54.6875 
L 18.109375 46.1875 
Q 20.953125 51.171875 25.484375 53.578125 
Q 30.03125 56 36.53125 56 
Q 37.453125 56 38.578125 55.875 
Q 39.703125 55.765625 41.0625 55.515625 
z
" id="DejaVuSans-72"/>
     </defs>
     <g transform="translate(1203.520313 100.396563)scale(0.1 -0.1)">
      <use xlink:href="#DejaVuSans-66"/>
      <use x="35.205078" xlink:href="#DejaVuSans-69"/>
      <use x="62.988281" xlink:href="#DejaVuSans-6c"/>
      <use x="90.771484" xlink:href="#DejaVuSans-74"/>
      <use x="129.980469" xlink:href="#DejaVuSans-65"/>
      <use x="191.503906" xlink:href="#DejaVuSans-72"/>
      <use x="232.585938" xlink:href="#DejaVuSans-65"/>
      <use x="294.109375" xlink:href="#DejaVuSans-64"/>
      <use x="357.585938" xlink:href="#DejaVuSans-20"/>
      <use x="389.373047" xlink:href="#DejaVuSans-74"/>
      <use x="428.582031" xlink:href="#DejaVuSans-63"/>
      <use x="483.5625" xlink:href="#DejaVuSans-70"/>
      <use x="547.039062" xlink:href="#DejaVuSans-64"/>
      <use x="610.515625" xlink:href="#DejaVuSans-75"/>
      <use x="673.894531" xlink:href="#DejaVuSans-6d"/>
      <use x="771.306641" xlink:href="#DejaVuSans-70"/>
     </g>
    </g>
    <g id="line2d_24">
     <path d="M 1175.520313 111.574687 
L 1195.520313 111.574687 
" style="fill:none;stroke:#0000ff;stroke-linecap:square;stroke-width:1.5;"/>
    </g>
    <g id="line2d_25"/>
    <g id="text_19">
     <!-- OLS -->
     <defs>
      <path d="M 39.40625 66.21875 
Q 28.65625 66.21875 22.328125 58.203125 
Q 16.015625 50.203125 16.015625 36.375 
Q 16.015625 22.609375 22.328125 14.59375 
Q 28.65625 6.59375 39.40625 6.59375 
Q 50.140625 6.59375 56.421875 14.59375 
Q 62.703125 22.609375 62.703125 36.375 
Q 62.703125 50.203125 56.421875 58.203125 
Q 50.140625 66.21875 39.40625 66.21875 
z
M 39.40625 74.21875 
Q 54.734375 74.21875 63.90625 63.9375 
Q 73.09375 53.65625 73.09375 36.375 
Q 73.09375 19.140625 63.90625 8.859375 
Q 54.734375 -1.421875 39.40625 -1.421875 
Q 24.03125 -1.421875 14.8125 8.828125 
Q 5.609375 19.09375 5.609375 36.375 
Q 5.609375 53.65625 14.8125 63.9375 
Q 24.03125 74.21875 39.40625 74.21875 
z
" id="DejaVuSans-4f"/>
      <path d="M 9.8125 72.90625 
L 19.671875 72.90625 
L 19.671875 8.296875 
L 55.171875 8.296875 
L 55.171875 0 
L 9.8125 0 
z
" id="DejaVuSans-4c"/>
      <path d="M 53.515625 70.515625 
L 53.515625 60.890625 
Q 47.90625 63.578125 42.921875 64.890625 
Q 37.9375 66.21875 33.296875 66.21875 
Q 25.25 66.21875 20.875 63.09375 
Q 16.5 59.96875 16.5 54.203125 
Q 16.5 49.359375 19.40625 46.890625 
Q 22.3125 44.4375 30.421875 42.921875 
L 36.375 41.703125 
Q 47.40625 39.59375 52.65625 34.296875 
Q 57.90625 29 57.90625 20.125 
Q 57.90625 9.515625 50.796875 4.046875 
Q 43.703125 -1.421875 29.984375 -1.421875 
Q 24.8125 -1.421875 18.96875 -0.25 
Q 13.140625 0.921875 6.890625 3.21875 
L 6.890625 13.375 
Q 12.890625 10.015625 18.65625 8.296875 
Q 24.421875 6.59375 29.984375 6.59375 
Q 38.421875 6.59375 43.015625 9.90625 
Q 47.609375 13.234375 47.609375 19.390625 
Q 47.609375 24.75 44.3125 27.78125 
Q 41.015625 30.8125 33.5 32.328125 
L 27.484375 33.5 
Q 16.453125 35.6875 11.515625 40.375 
Q 6.59375 45.0625 6.59375 53.421875 
Q 6.59375 63.09375 13.40625 68.65625 
Q 20.21875 74.21875 32.171875 74.21875 
Q 37.3125 74.21875 42.625 73.28125 
Q 47.953125 72.359375 53.515625 70.515625 
z
" id="DejaVuSans-53"/>
     </defs>
     <g transform="translate(1203.520313 115.074687)scale(0.1 -0.1)">
      <use xlink:href="#DejaVuSans-4f"/>
      <use x="78.710938" xlink:href="#DejaVuSans-4c"/>
      <use x="134.423828" xlink:href="#DejaVuSans-53"/>
     </g>
    </g>
    <g id="line2d_26">
     <path d="M 1175.520313 126.252813 
L 1195.520313 126.252813 
" style="fill:none;stroke:#008000;stroke-linecap:square;stroke-width:1.5;"/>
    </g>
    <g id="line2d_27">
     <g>
      <use style="fill:#008000;stroke:#008000;" x="1185.520313" xlink:href="#m23145552c8" y="126.252813"/>
     </g>
    </g>
    <g id="text_20">
     <!-- IRLS -->
     <defs>
      <path d="M 9.8125 72.90625 
L 19.671875 72.90625 
L 19.671875 0 
L 9.8125 0 
z
" id="DejaVuSans-49"/>
      <path d="M 44.390625 34.1875 
Q 47.5625 33.109375 50.5625 29.59375 
Q 53.5625 26.078125 56.59375 19.921875 
L 66.609375 0 
L 56 0 
L 46.6875 18.703125 
Q 43.0625 26.03125 39.671875 28.421875 
Q 36.28125 30.8125 30.421875 30.8125 
L 19.671875 30.8125 
L 19.671875 0 
L 9.8125 0 
L 9.8125 72.90625 
L 32.078125 72.90625 
Q 44.578125 72.90625 50.734375 67.671875 
Q 56.890625 62.453125 56.890625 51.90625 
Q 56.890625 45.015625 53.6875 40.46875 
Q 50.484375 35.9375 44.390625 34.1875 
z
M 19.671875 64.796875 
L 19.671875 38.921875 
L 32.078125 38.921875 
Q 39.203125 38.921875 42.84375 42.21875 
Q 46.484375 45.515625 46.484375 51.90625 
Q 46.484375 58.296875 42.84375 61.546875 
Q 39.203125 64.796875 32.078125 64.796875 
z
" id="DejaVuSans-52"/>
     </defs>
     <g transform="translate(1203.520313 129.752813)scale(0.1 -0.1)">
      <use xlink:href="#DejaVuSans-49"/>
      <use x="29.492188" xlink:href="#DejaVuSans-52"/>
      <use x="98.974609" xlink:href="#DejaVuSans-4c"/>
      <use x="154.6875" xlink:href="#DejaVuSans-53"/>
     </g>
    </g>
   </g>
  </g>
 </g>
 <defs>
  <clipPath id="pe3c62e748a">
   <rect height="443.52" width="1116" x="180" y="69.12"/>
  </clipPath>
 </defs>
</svg>
