<?xml version="1.0" encoding="utf-8" standalone="no"?>
<!DOCTYPE svg PUBLIC "-//W3C//DTD SVG 1.1//EN"
  "http://www.w3.org/Graphics/SVG/1.1/DTD/svg11.dtd">
<!-- Created with matplotlib (http://matplotlib.org/) -->
<svg height="576pt" version="1.1" viewBox="0 0 1440 576" width="1440pt" xmlns="http://www.w3.org/2000/svg" xmlns:xlink="http://www.w3.org/1999/xlink">
 <defs>
  <style type="text/css">
*{stroke-linecap:butt;stroke-linejoin:round;}
  </style>
 </defs>
 <g id="figure_1">
  <g id="patch_1">
   <path d="M 0 576 
L 1440 576 
L 1440 0 
L 0 0 
z
" style="fill:#ffffff;"/>
  </g>
  <g id="axes_1">
   <g id="patch_2">
    <path d="M 180 512.64 
L 1296 512.64 
L 1296 69.12 
L 180 69.12 
z
" style="fill:#ffffff;"/>
   </g>
   <g id="matplotlib.axis_1">
    <g id="xtick_1">
     <g id="line2d_1">
      <defs>
       <path d="M 0 0 
L 0 3.5 
" id="mfaa225c7bc" style="stroke:#000000;stroke-width:0.8;"/>
      </defs>
      <g>
       <use style="stroke:#000000;stroke-width:0.8;" x="230.727273" xlink:href="#mfaa225c7bc" y="512.64"/>
      </g>
     </g>
     <g id="text_1">
      <!-- 0.0 -->
      <defs>
       <path d="M 31.78125 66.40625 
Q 24.171875 66.40625 20.328125 58.90625 
Q 16.5 51.421875 16.5 36.375 
Q 16.5 21.390625 20.328125 13.890625 
Q 24.171875 6.390625 31.78125 6.390625 
Q 39.453125 6.390625 43.28125 13.890625 
Q 47.125 21.390625 47.125 36.375 
Q 47.125 51.421875 43.28125 58.90625 
Q 39.453125 66.40625 31.78125 66.40625 
z
M 31.78125 74.21875 
Q 44.046875 74.21875 50.515625 64.515625 
Q 56.984375 54.828125 56.984375 36.375 
Q 56.984375 17.96875 50.515625 8.265625 
Q 44.046875 -1.421875 31.78125 -1.421875 
Q 19.53125 -1.421875 13.0625 8.265625 
Q 6.59375 17.96875 6.59375 36.375 
Q 6.59375 54.828125 13.0625 64.515625 
Q 19.53125 74.21875 31.78125 74.21875 
z
" id="DejaVuSans-30"/>
       <path d="M 10.6875 12.40625 
L 21 12.40625 
L 21 0 
L 10.6875 0 
z
" id="DejaVuSans-2e"/>
      </defs>
      <g transform="translate(222.77571 527.238438)scale(0.1 -0.1)">
       <use xlink:href="#DejaVuSans-30"/>
       <use x="63.623047" xlink:href="#DejaVuSans-2e"/>
       <use x="95.410156" xlink:href="#DejaVuSans-30"/>
      </g>
     </g>
    </g>
    <g id="xtick_2">
     <g id="line2d_2">
      <g>
       <use style="stroke:#000000;stroke-width:0.8;" x="386.031561" xlink:href="#mfaa225c7bc" y="512.64"/>
      </g>
     </g>
     <g id="text_2">
      <!-- 0.2 -->
      <defs>
       <path d="M 19.1875 8.296875 
L 53.609375 8.296875 
L 53.609375 0 
L 7.328125 0 
L 7.328125 8.296875 
Q 12.9375 14.109375 22.625 23.890625 
Q 32.328125 33.6875 34.8125 36.53125 
Q 39.546875 41.84375 41.421875 45.53125 
Q 43.3125 49.21875 43.3125 52.78125 
Q 43.3125 58.59375 39.234375 62.25 
Q 35.15625 65.921875 28.609375 65.921875 
Q 23.96875 65.921875 18.8125 64.3125 
Q 13.671875 62.703125 7.8125 59.421875 
L 7.8125 69.390625 
Q 13.765625 71.78125 18.9375 73 
Q 24.125 74.21875 28.421875 74.21875 
Q 39.75 74.21875 46.484375 68.546875 
Q 53.21875 62.890625 53.21875 53.421875 
Q 53.21875 48.921875 51.53125 44.890625 
Q 49.859375 40.875 45.40625 35.40625 
Q 44.1875 33.984375 37.640625 27.21875 
Q 31.109375 20.453125 19.1875 8.296875 
z
" id="DejaVuSans-32"/>
      </defs>
      <g transform="translate(378.079999 527.238438)scale(0.1 -0.1)">
       <use xlink:href="#DejaVuSans-30"/>
       <use x="63.623047" xlink:href="#DejaVuSans-2e"/>
       <use x="95.410156" xlink:href="#DejaVuSans-32"/>
      </g>
     </g>
    </g>
    <g id="xtick_3">
     <g id="line2d_3">
      <g>
       <use style="stroke:#000000;stroke-width:0.8;" x="541.33585" xlink:href="#mfaa225c7bc" y="512.64"/>
      </g>
     </g>
     <g id="text_3">
      <!-- 0.4 -->
      <defs>
       <path d="M 37.796875 64.3125 
L 12.890625 25.390625 
L 37.796875 25.390625 
z
M 35.203125 72.90625 
L 47.609375 72.90625 
L 47.609375 25.390625 
L 58.015625 25.390625 
L 58.015625 17.1875 
L 47.609375 17.1875 
L 47.609375 0 
L 37.796875 0 
L 37.796875 17.1875 
L 4.890625 17.1875 
L 4.890625 26.703125 
z
" id="DejaVuSans-34"/>
      </defs>
      <g transform="translate(533.384287 527.238438)scale(0.1 -0.1)">
       <use xlink:href="#DejaVuSans-30"/>
       <use x="63.623047" xlink:href="#DejaVuSans-2e"/>
       <use x="95.410156" xlink:href="#DejaVuSans-34"/>
      </g>
     </g>
    </g>
    <g id="xtick_4">
     <g id="line2d_4">
      <g>
       <use style="stroke:#000000;stroke-width:0.8;" x="696.640138" xlink:href="#mfaa225c7bc" y="512.64"/>
      </g>
     </g>
     <g id="text_4">
      <!-- 0.6 -->
      <defs>
       <path d="M 33.015625 40.375 
Q 26.375 40.375 22.484375 35.828125 
Q 18.609375 31.296875 18.609375 23.390625 
Q 18.609375 15.53125 22.484375 10.953125 
Q 26.375 6.390625 33.015625 6.390625 
Q 39.65625 6.390625 43.53125 10.953125 
Q 47.40625 15.53125 47.40625 23.390625 
Q 47.40625 31.296875 43.53125 35.828125 
Q 39.65625 40.375 33.015625 40.375 
z
M 52.59375 71.296875 
L 52.59375 62.3125 
Q 48.875 64.0625 45.09375 64.984375 
Q 41.3125 65.921875 37.59375 65.921875 
Q 27.828125 65.921875 22.671875 59.328125 
Q 17.53125 52.734375 16.796875 39.40625 
Q 19.671875 43.65625 24.015625 45.921875 
Q 28.375 48.1875 33.59375 48.1875 
Q 44.578125 48.1875 50.953125 41.515625 
Q 57.328125 34.859375 57.328125 23.390625 
Q 57.328125 12.15625 50.6875 5.359375 
Q 44.046875 -1.421875 33.015625 -1.421875 
Q 20.359375 -1.421875 13.671875 8.265625 
Q 6.984375 17.96875 6.984375 36.375 
Q 6.984375 53.65625 15.1875 63.9375 
Q 23.390625 74.21875 37.203125 74.21875 
Q 40.921875 74.21875 44.703125 73.484375 
Q 48.484375 72.75 52.59375 71.296875 
z
" id="DejaVuSans-36"/>
      </defs>
      <g transform="translate(688.688576 527.238438)scale(0.1 -0.1)">
       <use xlink:href="#DejaVuSans-30"/>
       <use x="63.623047" xlink:href="#DejaVuSans-2e"/>
       <use x="95.410156" xlink:href="#DejaVuSans-36"/>
      </g>
     </g>
    </g>
    <g id="xtick_5">
     <g id="line2d_5">
      <g>
       <use style="stroke:#000000;stroke-width:0.8;" x="851.944427" xlink:href="#mfaa225c7bc" y="512.64"/>
      </g>
     </g>
     <g id="text_5">
      <!-- 0.8 -->
      <defs>
       <path d="M 31.78125 34.625 
Q 24.75 34.625 20.71875 30.859375 
Q 16.703125 27.09375 16.703125 20.515625 
Q 16.703125 13.921875 20.71875 10.15625 
Q 24.75 6.390625 31.78125 6.390625 
Q 38.8125 6.390625 42.859375 10.171875 
Q 46.921875 13.96875 46.921875 20.515625 
Q 46.921875 27.09375 42.890625 30.859375 
Q 38.875 34.625 31.78125 34.625 
z
M 21.921875 38.8125 
Q 15.578125 40.375 12.03125 44.71875 
Q 8.5 49.078125 8.5 55.328125 
Q 8.5 64.0625 14.71875 69.140625 
Q 20.953125 74.21875 31.78125 74.21875 
Q 42.671875 74.21875 48.875 69.140625 
Q 55.078125 64.0625 55.078125 55.328125 
Q 55.078125 49.078125 51.53125 44.71875 
Q 48 40.375 41.703125 38.8125 
Q 48.828125 37.15625 52.796875 32.3125 
Q 56.78125 27.484375 56.78125 20.515625 
Q 56.78125 9.90625 50.3125 4.234375 
Q 43.84375 -1.421875 31.78125 -1.421875 
Q 19.734375 -1.421875 13.25 4.234375 
Q 6.78125 9.90625 6.78125 20.515625 
Q 6.78125 27.484375 10.78125 32.3125 
Q 14.796875 37.15625 21.921875 38.8125 
z
M 18.3125 54.390625 
Q 18.3125 48.734375 21.84375 45.5625 
Q 25.390625 42.390625 31.78125 42.390625 
Q 38.140625 42.390625 41.71875 45.5625 
Q 45.3125 48.734375 45.3125 54.390625 
Q 45.3125 60.0625 41.71875 63.234375 
Q 38.140625 66.40625 31.78125 66.40625 
Q 25.390625 66.40625 21.84375 63.234375 
Q 18.3125 60.0625 18.3125 54.390625 
z
" id="DejaVuSans-38"/>
      </defs>
      <g transform="translate(843.992864 527.238438)scale(0.1 -0.1)">
       <use xlink:href="#DejaVuSans-30"/>
       <use x="63.623047" xlink:href="#DejaVuSans-2e"/>
       <use x="95.410156" xlink:href="#DejaVuSans-38"/>
      </g>
     </g>
    </g>
    <g id="xtick_6">
     <g id="line2d_6">
      <g>
       <use style="stroke:#000000;stroke-width:0.8;" x="1007.248716" xlink:href="#mfaa225c7bc" y="512.64"/>
      </g>
     </g>
     <g id="text_6">
      <!-- 1.0 -->
      <defs>
       <path d="M 12.40625 8.296875 
L 28.515625 8.296875 
L 28.515625 63.921875 
L 10.984375 60.40625 
L 10.984375 69.390625 
L 28.421875 72.90625 
L 38.28125 72.90625 
L 38.28125 8.296875 
L 54.390625 8.296875 
L 54.390625 0 
L 12.40625 0 
z
" id="DejaVuSans-31"/>
      </defs>
      <g transform="translate(999.297153 527.238438)scale(0.1 -0.1)">
       <use xlink:href="#DejaVuSans-31"/>
       <use x="63.623047" xlink:href="#DejaVuSans-2e"/>
       <use x="95.410156" xlink:href="#DejaVuSans-30"/>
      </g>
     </g>
    </g>
    <g id="xtick_7">
     <g id="line2d_7">
      <g>
       <use style="stroke:#000000;stroke-width:0.8;" x="1162.553004" xlink:href="#mfaa225c7bc" y="512.64"/>
      </g>
     </g>
     <g id="text_7">
      <!-- 1.2 -->
      <g transform="translate(1154.601442 527.238438)scale(0.1 -0.1)">
       <use xlink:href="#DejaVuSans-31"/>
       <use x="63.623047" xlink:href="#DejaVuSans-2e"/>
       <use x="95.410156" xlink:href="#DejaVuSans-32"/>
      </g>
     </g>
    </g>
   </g>
   <g id="matplotlib.axis_2">
    <g id="ytick_1">
     <g id="line2d_8">
      <defs>
       <path d="M 0 0 
L -3.5 0 
" id="m8ed599a76f" style="stroke:#000000;stroke-width:0.8;"/>
      </defs>
      <g>
       <use style="stroke:#000000;stroke-width:0.8;" x="180" xlink:href="#m8ed599a76f" y="494.171958"/>
      </g>
     </g>
     <g id="text_8">
      <!-- 0.30 -->
      <defs>
       <path d="M 40.578125 39.3125 
Q 47.65625 37.796875 51.625 33 
Q 55.609375 28.21875 55.609375 21.1875 
Q 55.609375 10.40625 48.1875 4.484375 
Q 40.765625 -1.421875 27.09375 -1.421875 
Q 22.515625 -1.421875 17.65625 -0.515625 
Q 12.796875 0.390625 7.625 2.203125 
L 7.625 11.71875 
Q 11.71875 9.328125 16.59375 8.109375 
Q 21.484375 6.890625 26.8125 6.890625 
Q 36.078125 6.890625 40.9375 10.546875 
Q 45.796875 14.203125 45.796875 21.1875 
Q 45.796875 27.640625 41.28125 31.265625 
Q 36.765625 34.90625 28.71875 34.90625 
L 20.21875 34.90625 
L 20.21875 43.015625 
L 29.109375 43.015625 
Q 36.375 43.015625 40.234375 45.921875 
Q 44.09375 48.828125 44.09375 54.296875 
Q 44.09375 59.90625 40.109375 62.90625 
Q 36.140625 65.921875 28.71875 65.921875 
Q 24.65625 65.921875 20.015625 65.03125 
Q 15.375 64.15625 9.8125 62.3125 
L 9.8125 71.09375 
Q 15.4375 72.65625 20.34375 73.4375 
Q 25.25 74.21875 29.59375 74.21875 
Q 40.828125 74.21875 47.359375 69.109375 
Q 53.90625 64.015625 53.90625 55.328125 
Q 53.90625 49.265625 50.4375 45.09375 
Q 46.96875 40.921875 40.578125 39.3125 
z
" id="DejaVuSans-33"/>
      </defs>
      <g transform="translate(150.734375 497.971177)scale(0.1 -0.1)">
       <use xlink:href="#DejaVuSans-30"/>
       <use x="63.623047" xlink:href="#DejaVuSans-2e"/>
       <use x="95.410156" xlink:href="#DejaVuSans-33"/>
       <use x="159.033203" xlink:href="#DejaVuSans-30"/>
      </g>
     </g>
    </g>
    <g id="ytick_2">
     <g id="line2d_9">
      <g>
       <use style="stroke:#000000;stroke-width:0.8;" x="180" xlink:href="#m8ed599a76f" y="415.108484"/>
      </g>
     </g>
     <g id="text_9">
      <!-- 0.31 -->
      <g transform="translate(150.734375 418.907703)scale(0.1 -0.1)">
       <use xlink:href="#DejaVuSans-30"/>
       <use x="63.623047" xlink:href="#DejaVuSans-2e"/>
       <use x="95.410156" xlink:href="#DejaVuSans-33"/>
       <use x="159.033203" xlink:href="#DejaVuSans-31"/>
      </g>
     </g>
    </g>
    <g id="ytick_3">
     <g id="line2d_10">
      <g>
       <use style="stroke:#000000;stroke-width:0.8;" x="180" xlink:href="#m8ed599a76f" y="336.04501"/>
      </g>
     </g>
     <g id="text_10">
      <!-- 0.32 -->
      <g transform="translate(150.734375 339.844228)scale(0.1 -0.1)">
       <use xlink:href="#DejaVuSans-30"/>
       <use x="63.623047" xlink:href="#DejaVuSans-2e"/>
       <use x="95.410156" xlink:href="#DejaVuSans-33"/>
       <use x="159.033203" xlink:href="#DejaVuSans-32"/>
      </g>
     </g>
    </g>
    <g id="ytick_4">
     <g id="line2d_11">
      <g>
       <use style="stroke:#000000;stroke-width:0.8;" x="180" xlink:href="#m8ed599a76f" y="256.981535"/>
      </g>
     </g>
     <g id="text_11">
      <!-- 0.33 -->
      <g transform="translate(150.734375 260.780754)scale(0.1 -0.1)">
       <use xlink:href="#DejaVuSans-30"/>
       <use x="63.623047" xlink:href="#DejaVuSans-2e"/>
       <use x="95.410156" xlink:href="#DejaVuSans-33"/>
       <use x="159.033203" xlink:href="#DejaVuSans-33"/>
      </g>
     </g>
    </g>
    <g id="ytick_5">
     <g id="line2d_12">
      <g>
       <use style="stroke:#000000;stroke-width:0.8;" x="180" xlink:href="#m8ed599a76f" y="177.918061"/>
      </g>
     </g>
     <g id="text_12">
      <!-- 0.34 -->
      <g transform="translate(150.734375 181.71728)scale(0.1 -0.1)">
       <use xlink:href="#DejaVuSans-30"/>
       <use x="63.623047" xlink:href="#DejaVuSans-2e"/>
       <use x="95.410156" xlink:href="#DejaVuSans-33"/>
       <use x="159.033203" xlink:href="#DejaVuSans-34"/>
      </g>
     </g>
    </g>
    <g id="ytick_6">
     <g id="line2d_13">
      <g>
       <use style="stroke:#000000;stroke-width:0.8;" x="180" xlink:href="#m8ed599a76f" y="98.854587"/>
      </g>
     </g>
     <g id="text_13">
      <!-- 0.35 -->
      <defs>
       <path d="M 10.796875 72.90625 
L 49.515625 72.90625 
L 49.515625 64.59375 
L 19.828125 64.59375 
L 19.828125 46.734375 
Q 21.96875 47.46875 24.109375 47.828125 
Q 26.265625 48.1875 28.421875 48.1875 
Q 40.625 48.1875 47.75 41.5 
Q 54.890625 34.8125 54.890625 23.390625 
Q 54.890625 11.625 47.5625 5.09375 
Q 40.234375 -1.421875 26.90625 -1.421875 
Q 22.3125 -1.421875 17.546875 -0.640625 
Q 12.796875 0.140625 7.71875 1.703125 
L 7.71875 11.625 
Q 12.109375 9.234375 16.796875 8.0625 
Q 21.484375 6.890625 26.703125 6.890625 
Q 35.15625 6.890625 40.078125 11.328125 
Q 45.015625 15.765625 45.015625 23.390625 
Q 45.015625 31 40.078125 35.4375 
Q 35.15625 39.890625 26.703125 39.890625 
Q 22.75 39.890625 18.8125 39.015625 
Q 14.890625 38.140625 10.796875 36.28125 
z
" id="DejaVuSans-35"/>
      </defs>
      <g transform="translate(150.734375 102.653805)scale(0.1 -0.1)">
       <use xlink:href="#DejaVuSans-30"/>
       <use x="63.623047" xlink:href="#DejaVuSans-2e"/>
       <use x="95.410156" xlink:href="#DejaVuSans-33"/>
       <use x="159.033203" xlink:href="#DejaVuSans-35"/>
      </g>
     </g>
    </g>
   </g>
   <g id="line2d_14">
    <path clip-path="url(#pcb3d5e5b25)" d="M 230.727273 89.28 
L 241.010746 297.098342 
L 251.16687 380.510308 
L 261.260872 467.914979 
L 271.312942 474.880471 
L 281.514881 483.458858 
L 291.631403 490.898731 
L 301.788303 492.06887 
L 312.266683 492.48 
L 322.303223 492.440468 
L 332.424403 492.337686 
L 342.453954 491.966087 
L 352.689284 492.037245 
L 362.787945 492.266529 
L 372.711889 492.037245 
L 382.719697 491.412643 
L 392.871939 491.056857 
L 403.618219 491.531238 
L 413.718433 491.57077 
L 423.738666 490.772229 
L 433.779088 491.270329 
L 443.846689 491.365205 
L 453.932149 491.048951 
L 463.984996 491.112202 
L 473.997463 491.523332 
L 484.019249 491.736803 
L 494.890549 490.218785 
L 505.724576 491.294048 
L 516.022027 491.578676 
L 527.204713 491.325673 
L 537.336764 491.515426 
L 547.379516 491.39683 
L 557.767044 491.270329 
L 567.833868 491.428456 
L 577.903798 490.57457 
L 587.947326 491.412643 
L 598.33563 491.705178 
L 608.402454 491.491707 
L 618.517422 491.736803 
L 628.58347 491.602395 
L 638.636316 491.365205 
L 649.242046 487.838974 
L 659.739063 491.278235 
L 669.788027 491.507519 
L 679.874264 491.491707 
L 689.945747 491.412643 
L 700.334051 491.594489 
L 710.389227 491.586583 
L 720.438968 491.673553 
L 730.576455 491.499613 
L 740.699189 491.57077 
L 751.697838 490.519226 
L 762.548172 491.736803 
L 772.655375 491.444268 
L 782.747048 491.24661 
L 793.37918 491.301954 
L 803.473958 491.902837 
L 813.434399 490.313661 
L 823.502 491.728897 
L 833.641817 491.554957 
L 844.324422 490.9857 
L 854.399011 490.827573 
L 864.340039 490.961981 
L 874.364931 491.665646 
L 884.775754 491.57077 
L 895.226179 490.867105 
L 905.248741 491.586583 
L 915.494165 490.519226 
L 925.52061 491.673553 
L 935.599859 491.467988 
L 945.579712 490.677353 
L 955.560342 491.74471 
L 966.012321 491.65774 
L 976.212706 491.167546 
L 986.786599 489.10399 
L 998.425879 491.262422 
L 1008.758273 490.803854 
L 1018.601459 491.467988 
L 1028.710992 489.467682 
L 1039.280225 491.578676 
L 1049.354814 491.665646 
L 1059.650712 491.578676 
L 1070.079395 491.641927 
L 1080.129912 491.420549 
L 1090.480943 491.467988 
L 1100.951558 491.467988 
L 1110.978779 491.128015 
L 1121.005224 491.531238 
L 1131.318206 491.412643 
L 1141.616433 491.254516 
L 1152.60887 491.460081 
L 1162.586394 491.222891 
L 1172.724658 491.507519 
L 1182.741785 491.39683 
L 1192.840446 491.610302 
L 1203.175947 491.39683 
L 1213.22724 491.649834 
L 1223.246697 491.594489 
L 1233.944056 491.143827 
L 1245.272727 491.531238 
" style="fill:none;stroke:#ff0000;stroke-dasharray:5.55,2.4;stroke-dashoffset:0;stroke-width:1.5;"/>
    <defs>
     <path d="M -3 3 
L 3 3 
L 3 -3 
L -3 -3 
z
" id="mbd609eb3a1" style="stroke:#ff0000;stroke-linejoin:miter;"/>
    </defs>
    <g clip-path="url(#pcb3d5e5b25)">
     <use style="fill:#ff0000;stroke:#ff0000;stroke-linejoin:miter;" x="230.727273" xlink:href="#mbd609eb3a1" y="89.28"/>
     <use style="fill:#ff0000;stroke:#ff0000;stroke-linejoin:miter;" x="241.010746" xlink:href="#mbd609eb3a1" y="297.098342"/>
     <use style="fill:#ff0000;stroke:#ff0000;stroke-linejoin:miter;" x="251.16687" xlink:href="#mbd609eb3a1" y="380.510308"/>
     <use style="fill:#ff0000;stroke:#ff0000;stroke-linejoin:miter;" x="261.260872" xlink:href="#mbd609eb3a1" y="467.914979"/>
     <use style="fill:#ff0000;stroke:#ff0000;stroke-linejoin:miter;" x="271.312942" xlink:href="#mbd609eb3a1" y="474.880471"/>
     <use style="fill:#ff0000;stroke:#ff0000;stroke-linejoin:miter;" x="281.514881" xlink:href="#mbd609eb3a1" y="483.458858"/>
     <use style="fill:#ff0000;stroke:#ff0000;stroke-linejoin:miter;" x="291.631403" xlink:href="#mbd609eb3a1" y="490.898731"/>
     <use style="fill:#ff0000;stroke:#ff0000;stroke-linejoin:miter;" x="301.788303" xlink:href="#mbd609eb3a1" y="492.06887"/>
     <use style="fill:#ff0000;stroke:#ff0000;stroke-linejoin:miter;" x="312.266683" xlink:href="#mbd609eb3a1" y="492.48"/>
     <use style="fill:#ff0000;stroke:#ff0000;stroke-linejoin:miter;" x="322.303223" xlink:href="#mbd609eb3a1" y="492.440468"/>
     <use style="fill:#ff0000;stroke:#ff0000;stroke-linejoin:miter;" x="332.424403" xlink:href="#mbd609eb3a1" y="492.337686"/>
     <use style="fill:#ff0000;stroke:#ff0000;stroke-linejoin:miter;" x="342.453954" xlink:href="#mbd609eb3a1" y="491.966087"/>
     <use style="fill:#ff0000;stroke:#ff0000;stroke-linejoin:miter;" x="352.689284" xlink:href="#mbd609eb3a1" y="492.037245"/>
     <use style="fill:#ff0000;stroke:#ff0000;stroke-linejoin:miter;" x="362.787945" xlink:href="#mbd609eb3a1" y="492.266529"/>
     <use style="fill:#ff0000;stroke:#ff0000;stroke-linejoin:miter;" x="372.711889" xlink:href="#mbd609eb3a1" y="492.037245"/>
     <use style="fill:#ff0000;stroke:#ff0000;stroke-linejoin:miter;" x="382.719697" xlink:href="#mbd609eb3a1" y="491.412643"/>
     <use style="fill:#ff0000;stroke:#ff0000;stroke-linejoin:miter;" x="392.871939" xlink:href="#mbd609eb3a1" y="491.056857"/>
     <use style="fill:#ff0000;stroke:#ff0000;stroke-linejoin:miter;" x="403.618219" xlink:href="#mbd609eb3a1" y="491.531238"/>
     <use style="fill:#ff0000;stroke:#ff0000;stroke-linejoin:miter;" x="413.718433" xlink:href="#mbd609eb3a1" y="491.57077"/>
     <use style="fill:#ff0000;stroke:#ff0000;stroke-linejoin:miter;" x="423.738666" xlink:href="#mbd609eb3a1" y="490.772229"/>
     <use style="fill:#ff0000;stroke:#ff0000;stroke-linejoin:miter;" x="433.779088" xlink:href="#mbd609eb3a1" y="491.270329"/>
     <use style="fill:#ff0000;stroke:#ff0000;stroke-linejoin:miter;" x="443.846689" xlink:href="#mbd609eb3a1" y="491.365205"/>
     <use style="fill:#ff0000;stroke:#ff0000;stroke-linejoin:miter;" x="453.932149" xlink:href="#mbd609eb3a1" y="491.048951"/>
     <use style="fill:#ff0000;stroke:#ff0000;stroke-linejoin:miter;" x="463.984996" xlink:href="#mbd609eb3a1" y="491.112202"/>
     <use style="fill:#ff0000;stroke:#ff0000;stroke-linejoin:miter;" x="473.997463" xlink:href="#mbd609eb3a1" y="491.523332"/>
     <use style="fill:#ff0000;stroke:#ff0000;stroke-linejoin:miter;" x="484.019249" xlink:href="#mbd609eb3a1" y="491.736803"/>
     <use style="fill:#ff0000;stroke:#ff0000;stroke-linejoin:miter;" x="494.890549" xlink:href="#mbd609eb3a1" y="490.218785"/>
     <use style="fill:#ff0000;stroke:#ff0000;stroke-linejoin:miter;" x="505.724576" xlink:href="#mbd609eb3a1" y="491.294048"/>
     <use style="fill:#ff0000;stroke:#ff0000;stroke-linejoin:miter;" x="516.022027" xlink:href="#mbd609eb3a1" y="491.578676"/>
     <use style="fill:#ff0000;stroke:#ff0000;stroke-linejoin:miter;" x="527.204713" xlink:href="#mbd609eb3a1" y="491.325673"/>
     <use style="fill:#ff0000;stroke:#ff0000;stroke-linejoin:miter;" x="537.336764" xlink:href="#mbd609eb3a1" y="491.515426"/>
     <use style="fill:#ff0000;stroke:#ff0000;stroke-linejoin:miter;" x="547.379516" xlink:href="#mbd609eb3a1" y="491.39683"/>
     <use style="fill:#ff0000;stroke:#ff0000;stroke-linejoin:miter;" x="557.767044" xlink:href="#mbd609eb3a1" y="491.270329"/>
     <use style="fill:#ff0000;stroke:#ff0000;stroke-linejoin:miter;" x="567.833868" xlink:href="#mbd609eb3a1" y="491.428456"/>
     <use style="fill:#ff0000;stroke:#ff0000;stroke-linejoin:miter;" x="577.903798" xlink:href="#mbd609eb3a1" y="490.57457"/>
     <use style="fill:#ff0000;stroke:#ff0000;stroke-linejoin:miter;" x="587.947326" xlink:href="#mbd609eb3a1" y="491.412643"/>
     <use style="fill:#ff0000;stroke:#ff0000;stroke-linejoin:miter;" x="598.33563" xlink:href="#mbd609eb3a1" y="491.705178"/>
     <use style="fill:#ff0000;stroke:#ff0000;stroke-linejoin:miter;" x="608.402454" xlink:href="#mbd609eb3a1" y="491.491707"/>
     <use style="fill:#ff0000;stroke:#ff0000;stroke-linejoin:miter;" x="618.517422" xlink:href="#mbd609eb3a1" y="491.736803"/>
     <use style="fill:#ff0000;stroke:#ff0000;stroke-linejoin:miter;" x="628.58347" xlink:href="#mbd609eb3a1" y="491.602395"/>
     <use style="fill:#ff0000;stroke:#ff0000;stroke-linejoin:miter;" x="638.636316" xlink:href="#mbd609eb3a1" y="491.365205"/>
     <use style="fill:#ff0000;stroke:#ff0000;stroke-linejoin:miter;" x="649.242046" xlink:href="#mbd609eb3a1" y="487.838974"/>
     <use style="fill:#ff0000;stroke:#ff0000;stroke-linejoin:miter;" x="659.739063" xlink:href="#mbd609eb3a1" y="491.278235"/>
     <use style="fill:#ff0000;stroke:#ff0000;stroke-linejoin:miter;" x="669.788027" xlink:href="#mbd609eb3a1" y="491.507519"/>
     <use style="fill:#ff0000;stroke:#ff0000;stroke-linejoin:miter;" x="679.874264" xlink:href="#mbd609eb3a1" y="491.491707"/>
     <use style="fill:#ff0000;stroke:#ff0000;stroke-linejoin:miter;" x="689.945747" xlink:href="#mbd609eb3a1" y="491.412643"/>
     <use style="fill:#ff0000;stroke:#ff0000;stroke-linejoin:miter;" x="700.334051" xlink:href="#mbd609eb3a1" y="491.594489"/>
     <use style="fill:#ff0000;stroke:#ff0000;stroke-linejoin:miter;" x="710.389227" xlink:href="#mbd609eb3a1" y="491.586583"/>
     <use style="fill:#ff0000;stroke:#ff0000;stroke-linejoin:miter;" x="720.438968" xlink:href="#mbd609eb3a1" y="491.673553"/>
     <use style="fill:#ff0000;stroke:#ff0000;stroke-linejoin:miter;" x="730.576455" xlink:href="#mbd609eb3a1" y="491.499613"/>
     <use style="fill:#ff0000;stroke:#ff0000;stroke-linejoin:miter;" x="740.699189" xlink:href="#mbd609eb3a1" y="491.57077"/>
     <use style="fill:#ff0000;stroke:#ff0000;stroke-linejoin:miter;" x="751.697838" xlink:href="#mbd609eb3a1" y="490.519226"/>
     <use style="fill:#ff0000;stroke:#ff0000;stroke-linejoin:miter;" x="762.548172" xlink:href="#mbd609eb3a1" y="491.736803"/>
     <use style="fill:#ff0000;stroke:#ff0000;stroke-linejoin:miter;" x="772.655375" xlink:href="#mbd609eb3a1" y="491.444268"/>
     <use style="fill:#ff0000;stroke:#ff0000;stroke-linejoin:miter;" x="782.747048" xlink:href="#mbd609eb3a1" y="491.24661"/>
     <use style="fill:#ff0000;stroke:#ff0000;stroke-linejoin:miter;" x="793.37918" xlink:href="#mbd609eb3a1" y="491.301954"/>
     <use style="fill:#ff0000;stroke:#ff0000;stroke-linejoin:miter;" x="803.473958" xlink:href="#mbd609eb3a1" y="491.902837"/>
     <use style="fill:#ff0000;stroke:#ff0000;stroke-linejoin:miter;" x="813.434399" xlink:href="#mbd609eb3a1" y="490.313661"/>
     <use style="fill:#ff0000;stroke:#ff0000;stroke-linejoin:miter;" x="823.502" xlink:href="#mbd609eb3a1" y="491.728897"/>
     <use style="fill:#ff0000;stroke:#ff0000;stroke-linejoin:miter;" x="833.641817" xlink:href="#mbd609eb3a1" y="491.554957"/>
     <use style="fill:#ff0000;stroke:#ff0000;stroke-linejoin:miter;" x="844.324422" xlink:href="#mbd609eb3a1" y="490.9857"/>
     <use style="fill:#ff0000;stroke:#ff0000;stroke-linejoin:miter;" x="854.399011" xlink:href="#mbd609eb3a1" y="490.827573"/>
     <use style="fill:#ff0000;stroke:#ff0000;stroke-linejoin:miter;" x="864.340039" xlink:href="#mbd609eb3a1" y="490.961981"/>
     <use style="fill:#ff0000;stroke:#ff0000;stroke-linejoin:miter;" x="874.364931" xlink:href="#mbd609eb3a1" y="491.665646"/>
     <use style="fill:#ff0000;stroke:#ff0000;stroke-linejoin:miter;" x="884.775754" xlink:href="#mbd609eb3a1" y="491.57077"/>
     <use style="fill:#ff0000;stroke:#ff0000;stroke-linejoin:miter;" x="895.226179" xlink:href="#mbd609eb3a1" y="490.867105"/>
     <use style="fill:#ff0000;stroke:#ff0000;stroke-linejoin:miter;" x="905.248741" xlink:href="#mbd609eb3a1" y="491.586583"/>
     <use style="fill:#ff0000;stroke:#ff0000;stroke-linejoin:miter;" x="915.494165" xlink:href="#mbd609eb3a1" y="490.519226"/>
     <use style="fill:#ff0000;stroke:#ff0000;stroke-linejoin:miter;" x="925.52061" xlink:href="#mbd609eb3a1" y="491.673553"/>
     <use style="fill:#ff0000;stroke:#ff0000;stroke-linejoin:miter;" x="935.599859" xlink:href="#mbd609eb3a1" y="491.467988"/>
     <use style="fill:#ff0000;stroke:#ff0000;stroke-linejoin:miter;" x="945.579712" xlink:href="#mbd609eb3a1" y="490.677353"/>
     <use style="fill:#ff0000;stroke:#ff0000;stroke-linejoin:miter;" x="955.560342" xlink:href="#mbd609eb3a1" y="491.74471"/>
     <use style="fill:#ff0000;stroke:#ff0000;stroke-linejoin:miter;" x="966.012321" xlink:href="#mbd609eb3a1" y="491.65774"/>
     <use style="fill:#ff0000;stroke:#ff0000;stroke-linejoin:miter;" x="976.212706" xlink:href="#mbd609eb3a1" y="491.167546"/>
     <use style="fill:#ff0000;stroke:#ff0000;stroke-linejoin:miter;" x="986.786599" xlink:href="#mbd609eb3a1" y="489.10399"/>
     <use style="fill:#ff0000;stroke:#ff0000;stroke-linejoin:miter;" x="998.425879" xlink:href="#mbd609eb3a1" y="491.262422"/>
     <use style="fill:#ff0000;stroke:#ff0000;stroke-linejoin:miter;" x="1008.758273" xlink:href="#mbd609eb3a1" y="490.803854"/>
     <use style="fill:#ff0000;stroke:#ff0000;stroke-linejoin:miter;" x="1018.601459" xlink:href="#mbd609eb3a1" y="491.467988"/>
     <use style="fill:#ff0000;stroke:#ff0000;stroke-linejoin:miter;" x="1028.710992" xlink:href="#mbd609eb3a1" y="489.467682"/>
     <use style="fill:#ff0000;stroke:#ff0000;stroke-linejoin:miter;" x="1039.280225" xlink:href="#mbd609eb3a1" y="491.578676"/>
     <use style="fill:#ff0000;stroke:#ff0000;stroke-linejoin:miter;" x="1049.354814" xlink:href="#mbd609eb3a1" y="491.665646"/>
     <use style="fill:#ff0000;stroke:#ff0000;stroke-linejoin:miter;" x="1059.650712" xlink:href="#mbd609eb3a1" y="491.578676"/>
     <use style="fill:#ff0000;stroke:#ff0000;stroke-linejoin:miter;" x="1070.079395" xlink:href="#mbd609eb3a1" y="491.641927"/>
     <use style="fill:#ff0000;stroke:#ff0000;stroke-linejoin:miter;" x="1080.129912" xlink:href="#mbd609eb3a1" y="491.420549"/>
     <use style="fill:#ff0000;stroke:#ff0000;stroke-linejoin:miter;" x="1090.480943" xlink:href="#mbd609eb3a1" y="491.467988"/>
     <use style="fill:#ff0000;stroke:#ff0000;stroke-linejoin:miter;" x="1100.951558" xlink:href="#mbd609eb3a1" y="491.467988"/>
     <use style="fill:#ff0000;stroke:#ff0000;stroke-linejoin:miter;" x="1110.978779" xlink:href="#mbd609eb3a1" y="491.128015"/>
     <use style="fill:#ff0000;stroke:#ff0000;stroke-linejoin:miter;" x="1121.005224" xlink:href="#mbd609eb3a1" y="491.531238"/>
     <use style="fill:#ff0000;stroke:#ff0000;stroke-linejoin:miter;" x="1131.318206" xlink:href="#mbd609eb3a1" y="491.412643"/>
     <use style="fill:#ff0000;stroke:#ff0000;stroke-linejoin:miter;" x="1141.616433" xlink:href="#mbd609eb3a1" y="491.254516"/>
     <use style="fill:#ff0000;stroke:#ff0000;stroke-linejoin:miter;" x="1152.60887" xlink:href="#mbd609eb3a1" y="491.460081"/>
     <use style="fill:#ff0000;stroke:#ff0000;stroke-linejoin:miter;" x="1162.586394" xlink:href="#mbd609eb3a1" y="491.222891"/>
     <use style="fill:#ff0000;stroke:#ff0000;stroke-linejoin:miter;" x="1172.724658" xlink:href="#mbd609eb3a1" y="491.507519"/>
     <use style="fill:#ff0000;stroke:#ff0000;stroke-linejoin:miter;" x="1182.741785" xlink:href="#mbd609eb3a1" y="491.39683"/>
     <use style="fill:#ff0000;stroke:#ff0000;stroke-linejoin:miter;" x="1192.840446" xlink:href="#mbd609eb3a1" y="491.610302"/>
     <use style="fill:#ff0000;stroke:#ff0000;stroke-linejoin:miter;" x="1203.175947" xlink:href="#mbd609eb3a1" y="491.39683"/>
     <use style="fill:#ff0000;stroke:#ff0000;stroke-linejoin:miter;" x="1213.22724" xlink:href="#mbd609eb3a1" y="491.649834"/>
     <use style="fill:#ff0000;stroke:#ff0000;stroke-linejoin:miter;" x="1223.246697" xlink:href="#mbd609eb3a1" y="491.594489"/>
     <use style="fill:#ff0000;stroke:#ff0000;stroke-linejoin:miter;" x="1233.944056" xlink:href="#mbd609eb3a1" y="491.143827"/>
     <use style="fill:#ff0000;stroke:#ff0000;stroke-linejoin:miter;" x="1245.272727" xlink:href="#mbd609eb3a1" y="491.531238"/>
    </g>
   </g>
   <g id="line2d_15">
    <path clip-path="url(#pcb3d5e5b25)" d="M 322.303223 492.440468 
L 332.424403 492.337686 
L 342.453954 491.966087 
L 352.689284 492.037245 
L 362.787945 492.266529 
L 372.711889 492.037245 
L 382.719697 491.412643 
L 392.871939 491.056857 
L 403.618219 491.531238 
L 413.718433 491.57077 
L 423.738666 490.772229 
L 433.779088 491.270329 
L 443.846689 491.365205 
L 453.932149 491.048951 
L 463.984996 491.112202 
L 473.997463 491.523332 
L 484.019249 491.736803 
L 494.890549 490.218785 
L 505.724576 491.294048 
L 516.022027 491.578676 
L 527.204713 491.325673 
L 537.336764 491.515426 
L 547.379516 491.39683 
L 557.767044 491.270329 
L 567.833868 491.428456 
L 577.903798 490.57457 
L 587.947326 491.412643 
L 598.33563 491.705178 
L 608.402454 491.491707 
L 618.517422 491.736803 
L 628.58347 491.602395 
L 638.636316 491.365205 
L 649.242046 487.838974 
L 659.739063 491.278235 
L 669.788027 491.507519 
L 679.874264 491.491707 
L 689.945747 491.412643 
L 700.334051 491.594489 
L 710.389227 491.586583 
L 720.438968 491.673553 
L 730.576455 491.499613 
L 740.699189 491.57077 
L 751.697838 490.519226 
L 762.548172 491.736803 
L 772.655375 491.444268 
L 782.747048 491.24661 
L 793.37918 491.301954 
L 803.473958 491.902837 
L 813.434399 490.313661 
L 823.502 491.728897 
L 833.641817 491.554957 
L 844.324422 490.9857 
L 854.399011 490.827573 
L 864.340039 490.961981 
L 874.364931 491.665646 
L 884.775754 491.57077 
L 895.226179 490.867105 
L 905.248741 491.586583 
L 915.494165 490.519226 
L 925.52061 491.673553 
L 935.599859 491.467988 
L 945.579712 490.677353 
L 955.560342 491.74471 
L 966.012321 491.65774 
L 976.212706 491.167546 
L 986.786599 489.10399 
L 998.425879 491.262422 
L 1008.758273 490.803854 
L 1018.601459 491.467988 
L 1028.710992 489.467682 
L 1039.280225 491.578676 
L 1049.354814 491.665646 
L 1059.650712 491.578676 
L 1070.079395 491.641927 
L 1080.129912 491.420549 
L 1090.480943 491.467988 
L 1100.951558 491.467988 
L 1110.978779 491.128015 
L 1121.005224 491.531238 
L 1131.318206 491.412643 
L 1141.616433 491.254516 
L 1152.60887 491.460081 
L 1162.586394 491.222891 
L 1172.724658 491.507519 
L 1182.741785 491.39683 
L 1192.840446 491.610302 
L 1203.175947 491.39683 
L 1213.22724 491.649834 
L 1223.246697 491.594489 
L 1233.944056 491.143827 
L 1245.272727 491.531238 
" style="fill:none;stroke:#800080;stroke-dasharray:9.6,2.4,1.5,2.4;stroke-dashoffset:0;stroke-width:1.5;"/>
    <defs>
     <path d="M -3 3 
L 3 -3 
M -3 -3 
L 3 3 
" id="m77dc795ce3" style="stroke:#800080;"/>
    </defs>
    <g clip-path="url(#pcb3d5e5b25)">
     <use style="fill:#800080;stroke:#800080;" x="322.303223" xlink:href="#m77dc795ce3" y="492.440468"/>
     <use style="fill:#800080;stroke:#800080;" x="332.424403" xlink:href="#m77dc795ce3" y="492.337686"/>
     <use style="fill:#800080;stroke:#800080;" x="342.453954" xlink:href="#m77dc795ce3" y="491.966087"/>
     <use style="fill:#800080;stroke:#800080;" x="352.689284" xlink:href="#m77dc795ce3" y="492.037245"/>
     <use style="fill:#800080;stroke:#800080;" x="362.787945" xlink:href="#m77dc795ce3" y="492.266529"/>
     <use style="fill:#800080;stroke:#800080;" x="372.711889" xlink:href="#m77dc795ce3" y="492.037245"/>
     <use style="fill:#800080;stroke:#800080;" x="382.719697" xlink:href="#m77dc795ce3" y="491.412643"/>
     <use style="fill:#800080;stroke:#800080;" x="392.871939" xlink:href="#m77dc795ce3" y="491.056857"/>
     <use style="fill:#800080;stroke:#800080;" x="403.618219" xlink:href="#m77dc795ce3" y="491.531238"/>
     <use style="fill:#800080;stroke:#800080;" x="413.718433" xlink:href="#m77dc795ce3" y="491.57077"/>
     <use style="fill:#800080;stroke:#800080;" x="423.738666" xlink:href="#m77dc795ce3" y="490.772229"/>
     <use style="fill:#800080;stroke:#800080;" x="433.779088" xlink:href="#m77dc795ce3" y="491.270329"/>
     <use style="fill:#800080;stroke:#800080;" x="443.846689" xlink:href="#m77dc795ce3" y="491.365205"/>
     <use style="fill:#800080;stroke:#800080;" x="453.932149" xlink:href="#m77dc795ce3" y="491.048951"/>
     <use style="fill:#800080;stroke:#800080;" x="463.984996" xlink:href="#m77dc795ce3" y="491.112202"/>
     <use style="fill:#800080;stroke:#800080;" x="473.997463" xlink:href="#m77dc795ce3" y="491.523332"/>
     <use style="fill:#800080;stroke:#800080;" x="484.019249" xlink:href="#m77dc795ce3" y="491.736803"/>
     <use style="fill:#800080;stroke:#800080;" x="494.890549" xlink:href="#m77dc795ce3" y="490.218785"/>
     <use style="fill:#800080;stroke:#800080;" x="505.724576" xlink:href="#m77dc795ce3" y="491.294048"/>
     <use style="fill:#800080;stroke:#800080;" x="516.022027" xlink:href="#m77dc795ce3" y="491.578676"/>
     <use style="fill:#800080;stroke:#800080;" x="527.204713" xlink:href="#m77dc795ce3" y="491.325673"/>
     <use style="fill:#800080;stroke:#800080;" x="537.336764" xlink:href="#m77dc795ce3" y="491.515426"/>
     <use style="fill:#800080;stroke:#800080;" x="547.379516" xlink:href="#m77dc795ce3" y="491.39683"/>
     <use style="fill:#800080;stroke:#800080;" x="557.767044" xlink:href="#m77dc795ce3" y="491.270329"/>
     <use style="fill:#800080;stroke:#800080;" x="567.833868" xlink:href="#m77dc795ce3" y="491.428456"/>
     <use style="fill:#800080;stroke:#800080;" x="577.903798" xlink:href="#m77dc795ce3" y="490.57457"/>
     <use style="fill:#800080;stroke:#800080;" x="587.947326" xlink:href="#m77dc795ce3" y="491.412643"/>
     <use style="fill:#800080;stroke:#800080;" x="598.33563" xlink:href="#m77dc795ce3" y="491.705178"/>
     <use style="fill:#800080;stroke:#800080;" x="608.402454" xlink:href="#m77dc795ce3" y="491.491707"/>
     <use style="fill:#800080;stroke:#800080;" x="618.517422" xlink:href="#m77dc795ce3" y="491.736803"/>
     <use style="fill:#800080;stroke:#800080;" x="628.58347" xlink:href="#m77dc795ce3" y="491.602395"/>
     <use style="fill:#800080;stroke:#800080;" x="638.636316" xlink:href="#m77dc795ce3" y="491.365205"/>
     <use style="fill:#800080;stroke:#800080;" x="649.242046" xlink:href="#m77dc795ce3" y="487.838974"/>
     <use style="fill:#800080;stroke:#800080;" x="659.739063" xlink:href="#m77dc795ce3" y="491.278235"/>
     <use style="fill:#800080;stroke:#800080;" x="669.788027" xlink:href="#m77dc795ce3" y="491.507519"/>
     <use style="fill:#800080;stroke:#800080;" x="679.874264" xlink:href="#m77dc795ce3" y="491.491707"/>
     <use style="fill:#800080;stroke:#800080;" x="689.945747" xlink:href="#m77dc795ce3" y="491.412643"/>
     <use style="fill:#800080;stroke:#800080;" x="700.334051" xlink:href="#m77dc795ce3" y="491.594489"/>
     <use style="fill:#800080;stroke:#800080;" x="710.389227" xlink:href="#m77dc795ce3" y="491.586583"/>
     <use style="fill:#800080;stroke:#800080;" x="720.438968" xlink:href="#m77dc795ce3" y="491.673553"/>
     <use style="fill:#800080;stroke:#800080;" x="730.576455" xlink:href="#m77dc795ce3" y="491.499613"/>
     <use style="fill:#800080;stroke:#800080;" x="740.699189" xlink:href="#m77dc795ce3" y="491.57077"/>
     <use style="fill:#800080;stroke:#800080;" x="751.697838" xlink:href="#m77dc795ce3" y="490.519226"/>
     <use style="fill:#800080;stroke:#800080;" x="762.548172" xlink:href="#m77dc795ce3" y="491.736803"/>
     <use style="fill:#800080;stroke:#800080;" x="772.655375" xlink:href="#m77dc795ce3" y="491.444268"/>
     <use style="fill:#800080;stroke:#800080;" x="782.747048" xlink:href="#m77dc795ce3" y="491.24661"/>
     <use style="fill:#800080;stroke:#800080;" x="793.37918" xlink:href="#m77dc795ce3" y="491.301954"/>
     <use style="fill:#800080;stroke:#800080;" x="803.473958" xlink:href="#m77dc795ce3" y="491.902837"/>
     <use style="fill:#800080;stroke:#800080;" x="813.434399" xlink:href="#m77dc795ce3" y="490.313661"/>
     <use style="fill:#800080;stroke:#800080;" x="823.502" xlink:href="#m77dc795ce3" y="491.728897"/>
     <use style="fill:#800080;stroke:#800080;" x="833.641817" xlink:href="#m77dc795ce3" y="491.554957"/>
     <use style="fill:#800080;stroke:#800080;" x="844.324422" xlink:href="#m77dc795ce3" y="490.9857"/>
     <use style="fill:#800080;stroke:#800080;" x="854.399011" xlink:href="#m77dc795ce3" y="490.827573"/>
     <use style="fill:#800080;stroke:#800080;" x="864.340039" xlink:href="#m77dc795ce3" y="490.961981"/>
     <use style="fill:#800080;stroke:#800080;" x="874.364931" xlink:href="#m77dc795ce3" y="491.665646"/>
     <use style="fill:#800080;stroke:#800080;" x="884.775754" xlink:href="#m77dc795ce3" y="491.57077"/>
     <use style="fill:#800080;stroke:#800080;" x="895.226179" xlink:href="#m77dc795ce3" y="490.867105"/>
     <use style="fill:#800080;stroke:#800080;" x="905.248741" xlink:href="#m77dc795ce3" y="491.586583"/>
     <use style="fill:#800080;stroke:#800080;" x="915.494165" xlink:href="#m77dc795ce3" y="490.519226"/>
     <use style="fill:#800080;stroke:#800080;" x="925.52061" xlink:href="#m77dc795ce3" y="491.673553"/>
     <use style="fill:#800080;stroke:#800080;" x="935.599859" xlink:href="#m77dc795ce3" y="491.467988"/>
     <use style="fill:#800080;stroke:#800080;" x="945.579712" xlink:href="#m77dc795ce3" y="490.677353"/>
     <use style="fill:#800080;stroke:#800080;" x="955.560342" xlink:href="#m77dc795ce3" y="491.74471"/>
     <use style="fill:#800080;stroke:#800080;" x="966.012321" xlink:href="#m77dc795ce3" y="491.65774"/>
     <use style="fill:#800080;stroke:#800080;" x="976.212706" xlink:href="#m77dc795ce3" y="491.167546"/>
     <use style="fill:#800080;stroke:#800080;" x="986.786599" xlink:href="#m77dc795ce3" y="489.10399"/>
     <use style="fill:#800080;stroke:#800080;" x="998.425879" xlink:href="#m77dc795ce3" y="491.262422"/>
     <use style="fill:#800080;stroke:#800080;" x="1008.758273" xlink:href="#m77dc795ce3" y="490.803854"/>
     <use style="fill:#800080;stroke:#800080;" x="1018.601459" xlink:href="#m77dc795ce3" y="491.467988"/>
     <use style="fill:#800080;stroke:#800080;" x="1028.710992" xlink:href="#m77dc795ce3" y="489.467682"/>
     <use style="fill:#800080;stroke:#800080;" x="1039.280225" xlink:href="#m77dc795ce3" y="491.578676"/>
     <use style="fill:#800080;stroke:#800080;" x="1049.354814" xlink:href="#m77dc795ce3" y="491.665646"/>
     <use style="fill:#800080;stroke:#800080;" x="1059.650712" xlink:href="#m77dc795ce3" y="491.578676"/>
     <use style="fill:#800080;stroke:#800080;" x="1070.079395" xlink:href="#m77dc795ce3" y="491.641927"/>
     <use style="fill:#800080;stroke:#800080;" x="1080.129912" xlink:href="#m77dc795ce3" y="491.420549"/>
     <use style="fill:#800080;stroke:#800080;" x="1090.480943" xlink:href="#m77dc795ce3" y="491.467988"/>
     <use style="fill:#800080;stroke:#800080;" x="1100.951558" xlink:href="#m77dc795ce3" y="491.467988"/>
     <use style="fill:#800080;stroke:#800080;" x="1110.978779" xlink:href="#m77dc795ce3" y="491.128015"/>
     <use style="fill:#800080;stroke:#800080;" x="1121.005224" xlink:href="#m77dc795ce3" y="491.531238"/>
     <use style="fill:#800080;stroke:#800080;" x="1131.318206" xlink:href="#m77dc795ce3" y="491.412643"/>
     <use style="fill:#800080;stroke:#800080;" x="1141.616433" xlink:href="#m77dc795ce3" y="491.254516"/>
     <use style="fill:#800080;stroke:#800080;" x="1152.60887" xlink:href="#m77dc795ce3" y="491.460081"/>
     <use style="fill:#800080;stroke:#800080;" x="1162.586394" xlink:href="#m77dc795ce3" y="491.222891"/>
     <use style="fill:#800080;stroke:#800080;" x="1172.724658" xlink:href="#m77dc795ce3" y="491.507519"/>
     <use style="fill:#800080;stroke:#800080;" x="1182.741785" xlink:href="#m77dc795ce3" y="491.39683"/>
     <use style="fill:#800080;stroke:#800080;" x="1192.840446" xlink:href="#m77dc795ce3" y="491.610302"/>
     <use style="fill:#800080;stroke:#800080;" x="1203.175947" xlink:href="#m77dc795ce3" y="491.39683"/>
     <use style="fill:#800080;stroke:#800080;" x="1213.22724" xlink:href="#m77dc795ce3" y="491.649834"/>
     <use style="fill:#800080;stroke:#800080;" x="1223.246697" xlink:href="#m77dc795ce3" y="491.594489"/>
     <use style="fill:#800080;stroke:#800080;" x="1233.944056" xlink:href="#m77dc795ce3" y="491.143827"/>
     <use style="fill:#800080;stroke:#800080;" x="1245.272727" xlink:href="#m77dc795ce3" y="491.531238"/>
    </g>
   </g>
   <g id="line2d_16">
    <path clip-path="url(#pcb3d5e5b25)" d="M 322.303223 491.4532 
L 332.424403 491.450423 
L 342.453954 491.447671 
L 352.689284 491.444862 
L 362.787945 491.442091 
L 372.711889 491.439368 
L 382.719697 491.436622 
L 392.871939 491.433836 
L 403.618219 491.430887 
L 413.718433 491.428116 
L 423.738666 491.425366 
L 433.779088 491.422611 
L 443.846689 491.419848 
L 453.932149 491.417081 
L 463.984996 491.414322 
L 473.997463 491.411575 
L 484.019249 491.408824 
L 494.890549 491.405841 
L 505.724576 491.402868 
L 516.022027 491.400043 
L 527.204713 491.396974 
L 537.336764 491.394194 
L 547.379516 491.391438 
L 557.767044 491.388588 
L 567.833868 491.385825 
L 577.903798 491.383062 
L 587.947326 491.380306 
L 598.33563 491.377455 
L 608.402454 491.374693 
L 618.517422 491.371917 
L 628.58347 491.369155 
L 638.636316 491.366397 
L 649.242046 491.363486 
L 659.739063 491.360606 
L 669.788027 491.357848 
L 679.874264 491.355081 
L 689.945747 491.352317 
L 700.334051 491.349466 
L 710.389227 491.346707 
L 720.438968 491.343949 
L 730.576455 491.341168 
L 740.699189 491.33839 
L 751.697838 491.335372 
L 762.548172 491.332394 
L 772.655375 491.329621 
L 782.747048 491.326852 
L 793.37918 491.323934 
L 803.473958 491.321164 
L 813.434399 491.318431 
L 823.502 491.315668 
L 833.641817 491.312886 
L 844.324422 491.309954 
L 854.399011 491.30719 
L 864.340039 491.304462 
L 874.364931 491.301711 
L 884.775754 491.298854 
L 895.226179 491.295986 
L 905.248741 491.293236 
L 915.494165 491.290425 
L 925.52061 491.287673 
L 935.599859 491.284908 
L 945.579712 491.282169 
L 955.560342 491.27943 
L 966.012321 491.276562 
L 976.212706 491.273763 
L 986.786599 491.270862 
L 998.425879 491.267668 
L 1008.758273 491.264833 
L 1018.601459 491.262131 
L 1028.710992 491.259357 
L 1039.280225 491.256457 
L 1049.354814 491.253693 
L 1059.650712 491.250867 
L 1070.079395 491.248006 
L 1080.129912 491.245248 
L 1090.480943 491.242407 
L 1100.951558 491.239534 
L 1110.978779 491.236783 
L 1121.005224 491.234031 
L 1131.318206 491.231201 
L 1141.616433 491.228375 
L 1152.60887 491.225359 
L 1162.586394 491.222621 
L 1172.724658 491.219839 
L 1182.741785 491.21709 
L 1192.840446 491.214319 
L 1203.175947 491.211483 
L 1213.22724 491.208725 
L 1223.246697 491.205975 
L 1233.944056 491.20304 
L 1245.272727 491.199931 
" style="fill:none;stroke:#0000ff;stroke-linecap:square;stroke-width:1.5;"/>
   </g>
   <g id="line2d_17">
    <path clip-path="url(#pcb3d5e5b25)" d="M 322.303223 491.451637 
L 332.424403 491.448881 
L 342.453954 491.446151 
L 352.689284 491.443365 
L 362.787945 491.440615 
L 372.711889 491.437914 
L 382.719697 491.435189 
L 392.871939 491.432426 
L 403.618219 491.4295 
L 413.718433 491.42675 
L 423.738666 491.424023 
L 433.779088 491.421289 
L 443.846689 491.418549 
L 453.932149 491.415803 
L 463.984996 491.413066 
L 473.997463 491.410341 
L 484.019249 491.407612 
L 494.890549 491.404653 
L 505.724576 491.401703 
L 516.022027 491.3989 
L 527.204713 491.395856 
L 537.336764 491.393098 
L 547.379516 491.390364 
L 557.767044 491.387536 
L 567.833868 491.384795 
L 577.903798 491.382054 
L 587.947326 491.37932 
L 598.33563 491.376492 
L 608.402454 491.373751 
L 618.517422 491.370998 
L 628.58347 491.368257 
L 638.636316 491.36552 
L 649.242046 491.362633 
L 659.739063 491.359776 
L 669.788027 491.35704 
L 679.874264 491.354294 
L 689.945747 491.351552 
L 700.334051 491.348724 
L 710.389227 491.345987 
L 720.438968 491.343251 
L 730.576455 491.340491 
L 740.699189 491.337736 
L 751.697838 491.334741 
L 762.548172 491.331788 
L 772.655375 491.329036 
L 782.747048 491.326289 
L 793.37918 491.323394 
L 803.473958 491.320646 
L 813.434399 491.317935 
L 823.502 491.315194 
L 833.641817 491.312434 
L 844.324422 491.309525 
L 854.399011 491.306783 
L 864.340039 491.304077 
L 874.364931 491.301347 
L 884.775754 491.298513 
L 895.226179 491.295668 
L 905.248741 491.29294 
L 915.494165 491.290151 
L 925.52061 491.287421 
L 935.599859 491.284677 
L 945.579712 491.281961 
L 955.560342 491.279243 
L 966.012321 491.276398 
L 976.212706 491.273621 
L 986.786599 491.270743 
L 998.425879 491.267574 
L 1008.758273 491.264761 
L 1018.601459 491.262082 
L 1028.710992 491.259329 
L 1039.280225 491.256452 
L 1049.354814 491.25371 
L 1059.650712 491.250907 
L 1070.079395 491.248068 
L 1080.129912 491.245332 
L 1090.480943 491.242514 
L 1100.951558 491.239663 
L 1110.978779 491.236934 
L 1121.005224 491.234204 
L 1131.318206 491.231396 
L 1141.616433 491.228593 
L 1152.60887 491.2256 
L 1162.586394 491.222884 
L 1172.724658 491.220124 
L 1182.741785 491.217397 
L 1192.840446 491.214648 
L 1203.175947 491.211834 
L 1213.22724 491.209098 
L 1223.246697 491.206371 
L 1233.944056 491.203458 
L 1245.272727 491.200374 
" style="fill:none;stroke:#008000;stroke-linecap:square;stroke-width:1.5;"/>
    <defs>
     <path d="M 0 3 
C 0.795609 3 1.55874 2.683901 2.12132 2.12132 
C 2.683901 1.55874 3 0.795609 3 0 
C 3 -0.795609 2.683901 -1.55874 2.12132 -2.12132 
C 1.55874 -2.683901 0.795609 -3 0 -3 
C -0.795609 -3 -1.55874 -2.683901 -2.12132 -2.12132 
C -2.683901 -1.55874 -3 -0.795609 -3 0 
C -3 0.795609 -2.683901 1.55874 -2.12132 2.12132 
C -1.55874 2.683901 -0.795609 3 0 3 
z
" id="m11e077bab9" style="stroke:#008000;"/>
    </defs>
    <g clip-path="url(#pcb3d5e5b25)">
     <use style="fill:#008000;stroke:#008000;" x="322.303223" xlink:href="#m11e077bab9" y="491.451637"/>
     <use style="fill:#008000;stroke:#008000;" x="332.424403" xlink:href="#m11e077bab9" y="491.448881"/>
     <use style="fill:#008000;stroke:#008000;" x="342.453954" xlink:href="#m11e077bab9" y="491.446151"/>
     <use style="fill:#008000;stroke:#008000;" x="352.689284" xlink:href="#m11e077bab9" y="491.443365"/>
     <use style="fill:#008000;stroke:#008000;" x="362.787945" xlink:href="#m11e077bab9" y="491.440615"/>
     <use style="fill:#008000;stroke:#008000;" x="372.711889" xlink:href="#m11e077bab9" y="491.437914"/>
     <use style="fill:#008000;stroke:#008000;" x="382.719697" xlink:href="#m11e077bab9" y="491.435189"/>
     <use style="fill:#008000;stroke:#008000;" x="392.871939" xlink:href="#m11e077bab9" y="491.432426"/>
     <use style="fill:#008000;stroke:#008000;" x="403.618219" xlink:href="#m11e077bab9" y="491.4295"/>
     <use style="fill:#008000;stroke:#008000;" x="413.718433" xlink:href="#m11e077bab9" y="491.42675"/>
     <use style="fill:#008000;stroke:#008000;" x="423.738666" xlink:href="#m11e077bab9" y="491.424023"/>
     <use style="fill:#008000;stroke:#008000;" x="433.779088" xlink:href="#m11e077bab9" y="491.421289"/>
     <use style="fill:#008000;stroke:#008000;" x="443.846689" xlink:href="#m11e077bab9" y="491.418549"/>
     <use style="fill:#008000;stroke:#008000;" x="453.932149" xlink:href="#m11e077bab9" y="491.415803"/>
     <use style="fill:#008000;stroke:#008000;" x="463.984996" xlink:href="#m11e077bab9" y="491.413066"/>
     <use style="fill:#008000;stroke:#008000;" x="473.997463" xlink:href="#m11e077bab9" y="491.410341"/>
     <use style="fill:#008000;stroke:#008000;" x="484.019249" xlink:href="#m11e077bab9" y="491.407612"/>
     <use style="fill:#008000;stroke:#008000;" x="494.890549" xlink:href="#m11e077bab9" y="491.404653"/>
     <use style="fill:#008000;stroke:#008000;" x="505.724576" xlink:href="#m11e077bab9" y="491.401703"/>
     <use style="fill:#008000;stroke:#008000;" x="516.022027" xlink:href="#m11e077bab9" y="491.3989"/>
     <use style="fill:#008000;stroke:#008000;" x="527.204713" xlink:href="#m11e077bab9" y="491.395856"/>
     <use style="fill:#008000;stroke:#008000;" x="537.336764" xlink:href="#m11e077bab9" y="491.393098"/>
     <use style="fill:#008000;stroke:#008000;" x="547.379516" xlink:href="#m11e077bab9" y="491.390364"/>
     <use style="fill:#008000;stroke:#008000;" x="557.767044" xlink:href="#m11e077bab9" y="491.387536"/>
     <use style="fill:#008000;stroke:#008000;" x="567.833868" xlink:href="#m11e077bab9" y="491.384795"/>
     <use style="fill:#008000;stroke:#008000;" x="577.903798" xlink:href="#m11e077bab9" y="491.382054"/>
     <use style="fill:#008000;stroke:#008000;" x="587.947326" xlink:href="#m11e077bab9" y="491.37932"/>
     <use style="fill:#008000;stroke:#008000;" x="598.33563" xlink:href="#m11e077bab9" y="491.376492"/>
     <use style="fill:#008000;stroke:#008000;" x="608.402454" xlink:href="#m11e077bab9" y="491.373751"/>
     <use style="fill:#008000;stroke:#008000;" x="618.517422" xlink:href="#m11e077bab9" y="491.370998"/>
     <use style="fill:#008000;stroke:#008000;" x="628.58347" xlink:href="#m11e077bab9" y="491.368257"/>
     <use style="fill:#008000;stroke:#008000;" x="638.636316" xlink:href="#m11e077bab9" y="491.36552"/>
     <use style="fill:#008000;stroke:#008000;" x="649.242046" xlink:href="#m11e077bab9" y="491.362633"/>
     <use style="fill:#008000;stroke:#008000;" x="659.739063" xlink:href="#m11e077bab9" y="491.359776"/>
     <use style="fill:#008000;stroke:#008000;" x="669.788027" xlink:href="#m11e077bab9" y="491.35704"/>
     <use style="fill:#008000;stroke:#008000;" x="679.874264" xlink:href="#m11e077bab9" y="491.354294"/>
     <use style="fill:#008000;stroke:#008000;" x="689.945747" xlink:href="#m11e077bab9" y="491.351552"/>
     <use style="fill:#008000;stroke:#008000;" x="700.334051" xlink:href="#m11e077bab9" y="491.348724"/>
     <use style="fill:#008000;stroke:#008000;" x="710.389227" xlink:href="#m11e077bab9" y="491.345987"/>
     <use style="fill:#008000;stroke:#008000;" x="720.438968" xlink:href="#m11e077bab9" y="491.343251"/>
     <use style="fill:#008000;stroke:#008000;" x="730.576455" xlink:href="#m11e077bab9" y="491.340491"/>
     <use style="fill:#008000;stroke:#008000;" x="740.699189" xlink:href="#m11e077bab9" y="491.337736"/>
     <use style="fill:#008000;stroke:#008000;" x="751.697838" xlink:href="#m11e077bab9" y="491.334741"/>
     <use style="fill:#008000;stroke:#008000;" x="762.548172" xlink:href="#m11e077bab9" y="491.331788"/>
     <use style="fill:#008000;stroke:#008000;" x="772.655375" xlink:href="#m11e077bab9" y="491.329036"/>
     <use style="fill:#008000;stroke:#008000;" x="782.747048" xlink:href="#m11e077bab9" y="491.326289"/>
     <use style="fill:#008000;stroke:#008000;" x="793.37918" xlink:href="#m11e077bab9" y="491.323394"/>
     <use style="fill:#008000;stroke:#008000;" x="803.473958" xlink:href="#m11e077bab9" y="491.320646"/>
     <use style="fill:#008000;stroke:#008000;" x="813.434399" xlink:href="#m11e077bab9" y="491.317935"/>
     <use style="fill:#008000;stroke:#008000;" x="823.502" xlink:href="#m11e077bab9" y="491.315194"/>
     <use style="fill:#008000;stroke:#008000;" x="833.641817" xlink:href="#m11e077bab9" y="491.312434"/>
     <use style="fill:#008000;stroke:#008000;" x="844.324422" xlink:href="#m11e077bab9" y="491.309525"/>
     <use style="fill:#008000;stroke:#008000;" x="854.399011" xlink:href="#m11e077bab9" y="491.306783"/>
     <use style="fill:#008000;stroke:#008000;" x="864.340039" xlink:href="#m11e077bab9" y="491.304077"/>
     <use style="fill:#008000;stroke:#008000;" x="874.364931" xlink:href="#m11e077bab9" y="491.301347"/>
     <use style="fill:#008000;stroke:#008000;" x="884.775754" xlink:href="#m11e077bab9" y="491.298513"/>
     <use style="fill:#008000;stroke:#008000;" x="895.226179" xlink:href="#m11e077bab9" y="491.295668"/>
     <use style="fill:#008000;stroke:#008000;" x="905.248741" xlink:href="#m11e077bab9" y="491.29294"/>
     <use style="fill:#008000;stroke:#008000;" x="915.494165" xlink:href="#m11e077bab9" y="491.290151"/>
     <use style="fill:#008000;stroke:#008000;" x="925.52061" xlink:href="#m11e077bab9" y="491.287421"/>
     <use style="fill:#008000;stroke:#008000;" x="935.599859" xlink:href="#m11e077bab9" y="491.284677"/>
     <use style="fill:#008000;stroke:#008000;" x="945.579712" xlink:href="#m11e077bab9" y="491.281961"/>
     <use style="fill:#008000;stroke:#008000;" x="955.560342" xlink:href="#m11e077bab9" y="491.279243"/>
     <use style="fill:#008000;stroke:#008000;" x="966.012321" xlink:href="#m11e077bab9" y="491.276398"/>
     <use style="fill:#008000;stroke:#008000;" x="976.212706" xlink:href="#m11e077bab9" y="491.273621"/>
     <use style="fill:#008000;stroke:#008000;" x="986.786599" xlink:href="#m11e077bab9" y="491.270743"/>
     <use style="fill:#008000;stroke:#008000;" x="998.425879" xlink:href="#m11e077bab9" y="491.267574"/>
     <use style="fill:#008000;stroke:#008000;" x="1008.758273" xlink:href="#m11e077bab9" y="491.264761"/>
     <use style="fill:#008000;stroke:#008000;" x="1018.601459" xlink:href="#m11e077bab9" y="491.262082"/>
     <use style="fill:#008000;stroke:#008000;" x="1028.710992" xlink:href="#m11e077bab9" y="491.259329"/>
     <use style="fill:#008000;stroke:#008000;" x="1039.280225" xlink:href="#m11e077bab9" y="491.256452"/>
     <use style="fill:#008000;stroke:#008000;" x="1049.354814" xlink:href="#m11e077bab9" y="491.25371"/>
     <use style="fill:#008000;stroke:#008000;" x="1059.650712" xlink:href="#m11e077bab9" y="491.250907"/>
     <use style="fill:#008000;stroke:#008000;" x="1070.079395" xlink:href="#m11e077bab9" y="491.248068"/>
     <use style="fill:#008000;stroke:#008000;" x="1080.129912" xlink:href="#m11e077bab9" y="491.245332"/>
     <use style="fill:#008000;stroke:#008000;" x="1090.480943" xlink:href="#m11e077bab9" y="491.242514"/>
     <use style="fill:#008000;stroke:#008000;" x="1100.951558" xlink:href="#m11e077bab9" y="491.239663"/>
     <use style="fill:#008000;stroke:#008000;" x="1110.978779" xlink:href="#m11e077bab9" y="491.236934"/>
     <use style="fill:#008000;stroke:#008000;" x="1121.005224" xlink:href="#m11e077bab9" y="491.234204"/>
     <use style="fill:#008000;stroke:#008000;" x="1131.318206" xlink:href="#m11e077bab9" y="491.231396"/>
     <use style="fill:#008000;stroke:#008000;" x="1141.616433" xlink:href="#m11e077bab9" y="491.228593"/>
     <use style="fill:#008000;stroke:#008000;" x="1152.60887" xlink:href="#m11e077bab9" y="491.2256"/>
     <use style="fill:#008000;stroke:#008000;" x="1162.586394" xlink:href="#m11e077bab9" y="491.222884"/>
     <use style="fill:#008000;stroke:#008000;" x="1172.724658" xlink:href="#m11e077bab9" y="491.220124"/>
     <use style="fill:#008000;stroke:#008000;" x="1182.741785" xlink:href="#m11e077bab9" y="491.217397"/>
     <use style="fill:#008000;stroke:#008000;" x="1192.840446" xlink:href="#m11e077bab9" y="491.214648"/>
     <use style="fill:#008000;stroke:#008000;" x="1203.175947" xlink:href="#m11e077bab9" y="491.211834"/>
     <use style="fill:#008000;stroke:#008000;" x="1213.22724" xlink:href="#m11e077bab9" y="491.209098"/>
     <use style="fill:#008000;stroke:#008000;" x="1223.246697" xlink:href="#m11e077bab9" y="491.206371"/>
     <use style="fill:#008000;stroke:#008000;" x="1233.944056" xlink:href="#m11e077bab9" y="491.203458"/>
     <use style="fill:#008000;stroke:#008000;" x="1245.272727" xlink:href="#m11e077bab9" y="491.200374"/>
    </g>
   </g>
   <g id="patch_3">
    <path d="M 180 512.64 
L 180 69.12 
" style="fill:none;stroke:#000000;stroke-linecap:square;stroke-linejoin:miter;stroke-width:0.8;"/>
   </g>
   <g id="patch_4">
    <path d="M 1296 512.64 
L 1296 69.12 
" style="fill:none;stroke:#000000;stroke-linecap:square;stroke-linejoin:miter;stroke-width:0.8;"/>
   </g>
   <g id="patch_5">
    <path d="M 180 512.64 
L 1296 512.64 
" style="fill:none;stroke:#000000;stroke-linecap:square;stroke-linejoin:miter;stroke-width:0.8;"/>
   </g>
   <g id="patch_6">
    <path d="M 180 69.12 
L 1296 69.12 
" style="fill:none;stroke:#000000;stroke-linecap:square;stroke-linejoin:miter;stroke-width:0.8;"/>
   </g>
   <g id="text_14">
    <!-- 500000.0 bit/s -->
    <defs>
     <path id="DejaVuSans-20"/>
     <path d="M 48.6875 27.296875 
Q 48.6875 37.203125 44.609375 42.84375 
Q 40.53125 48.484375 33.40625 48.484375 
Q 26.265625 48.484375 22.1875 42.84375 
Q 18.109375 37.203125 18.109375 27.296875 
Q 18.109375 17.390625 22.1875 11.75 
Q 26.265625 6.109375 33.40625 6.109375 
Q 40.53125 6.109375 44.609375 11.75 
Q 48.6875 17.390625 48.6875 27.296875 
z
M 18.109375 46.390625 
Q 20.953125 51.265625 25.265625 53.625 
Q 29.59375 56 35.59375 56 
Q 45.5625 56 51.78125 48.09375 
Q 58.015625 40.1875 58.015625 27.296875 
Q 58.015625 14.40625 51.78125 6.484375 
Q 45.5625 -1.421875 35.59375 -1.421875 
Q 29.59375 -1.421875 25.265625 0.953125 
Q 20.953125 3.328125 18.109375 8.203125 
L 18.109375 0 
L 9.078125 0 
L 9.078125 75.984375 
L 18.109375 75.984375 
z
" id="DejaVuSans-62"/>
     <path d="M 9.421875 54.6875 
L 18.40625 54.6875 
L 18.40625 0 
L 9.421875 0 
z
M 9.421875 75.984375 
L 18.40625 75.984375 
L 18.40625 64.59375 
L 9.421875 64.59375 
z
" id="DejaVuSans-69"/>
     <path d="M 18.3125 70.21875 
L 18.3125 54.6875 
L 36.8125 54.6875 
L 36.8125 47.703125 
L 18.3125 47.703125 
L 18.3125 18.015625 
Q 18.3125 11.328125 20.140625 9.421875 
Q 21.96875 7.515625 27.59375 7.515625 
L 36.8125 7.515625 
L 36.8125 0 
L 27.59375 0 
Q 17.1875 0 13.234375 3.875 
Q 9.28125 7.765625 9.28125 18.015625 
L 9.28125 47.703125 
L 2.6875 47.703125 
L 2.6875 54.6875 
L 9.28125 54.6875 
L 9.28125 70.21875 
z
" id="DejaVuSans-74"/>
     <path d="M 25.390625 72.90625 
L 33.6875 72.90625 
L 8.296875 -9.28125 
L 0 -9.28125 
z
" id="DejaVuSans-2f"/>
     <path d="M 44.28125 53.078125 
L 44.28125 44.578125 
Q 40.484375 46.53125 36.375 47.5 
Q 32.28125 48.484375 27.875 48.484375 
Q 21.1875 48.484375 17.84375 46.4375 
Q 14.5 44.390625 14.5 40.28125 
Q 14.5 37.15625 16.890625 35.375 
Q 19.28125 33.59375 26.515625 31.984375 
L 29.59375 31.296875 
Q 39.15625 29.25 43.1875 25.515625 
Q 47.21875 21.78125 47.21875 15.09375 
Q 47.21875 7.46875 41.1875 3.015625 
Q 35.15625 -1.421875 24.609375 -1.421875 
Q 20.21875 -1.421875 15.453125 -0.5625 
Q 10.6875 0.296875 5.421875 2 
L 5.421875 11.28125 
Q 10.40625 8.6875 15.234375 7.390625 
Q 20.0625 6.109375 24.8125 6.109375 
Q 31.15625 6.109375 34.5625 8.28125 
Q 37.984375 10.453125 37.984375 14.40625 
Q 37.984375 18.0625 35.515625 20.015625 
Q 33.0625 21.96875 24.703125 23.78125 
L 21.578125 24.515625 
Q 13.234375 26.265625 9.515625 29.90625 
Q 5.8125 33.546875 5.8125 39.890625 
Q 5.8125 47.609375 11.28125 51.796875 
Q 16.75 56 26.8125 56 
Q 31.78125 56 36.171875 55.265625 
Q 40.578125 54.546875 44.28125 53.078125 
z
" id="DejaVuSans-73"/>
    </defs>
    <g transform="translate(694.48875 63.12)scale(0.12 -0.12)">
     <use xlink:href="#DejaVuSans-35"/>
     <use x="63.623047" xlink:href="#DejaVuSans-30"/>
     <use x="127.246094" xlink:href="#DejaVuSans-30"/>
     <use x="190.869141" xlink:href="#DejaVuSans-30"/>
     <use x="254.492188" xlink:href="#DejaVuSans-30"/>
     <use x="318.115234" xlink:href="#DejaVuSans-30"/>
     <use x="381.738281" xlink:href="#DejaVuSans-2e"/>
     <use x="413.525391" xlink:href="#DejaVuSans-30"/>
     <use x="477.148438" xlink:href="#DejaVuSans-20"/>
     <use x="508.935547" xlink:href="#DejaVuSans-62"/>
     <use x="572.412109" xlink:href="#DejaVuSans-69"/>
     <use x="600.195312" xlink:href="#DejaVuSans-74"/>
     <use x="639.404297" xlink:href="#DejaVuSans-2f"/>
     <use x="673.095703" xlink:href="#DejaVuSans-73"/>
    </g>
   </g>
   <g id="legend_1">
    <g id="patch_7">
     <path d="M 1173.520313 135.8325 
L 1289 135.8325 
Q 1291 135.8325 1291 133.8325 
L 1291 76.12 
Q 1291 74.12 1289 74.12 
L 1173.520313 74.12 
Q 1171.520313 74.12 1171.520313 76.12 
L 1171.520313 133.8325 
Q 1171.520313 135.8325 1173.520313 135.8325 
z
" style="fill:#ffffff;opacity:0.8;stroke:#cccccc;stroke-linejoin:miter;"/>
    </g>
    <g id="line2d_18">
     <path d="M 1175.520313 82.218437 
L 1195.520313 82.218437 
" style="fill:none;stroke:#ff0000;stroke-dasharray:5.55,2.4;stroke-dashoffset:0;stroke-width:1.5;"/>
    </g>
    <g id="line2d_19">
     <g>
      <use style="fill:#ff0000;stroke:#ff0000;stroke-linejoin:miter;" x="1185.520313" xlink:href="#mbd609eb3a1" y="82.218437"/>
     </g>
    </g>
    <g id="text_15">
     <!-- tcpdump -->
     <defs>
      <path d="M 48.78125 52.59375 
L 48.78125 44.1875 
Q 44.96875 46.296875 41.140625 47.34375 
Q 37.3125 48.390625 33.40625 48.390625 
Q 24.65625 48.390625 19.8125 42.84375 
Q 14.984375 37.3125 14.984375 27.296875 
Q 14.984375 17.28125 19.8125 11.734375 
Q 24.65625 6.203125 33.40625 6.203125 
Q 37.3125 6.203125 41.140625 7.25 
Q 44.96875 8.296875 48.78125 10.40625 
L 48.78125 2.09375 
Q 45.015625 0.34375 40.984375 -0.53125 
Q 36.96875 -1.421875 32.421875 -1.421875 
Q 20.0625 -1.421875 12.78125 6.34375 
Q 5.515625 14.109375 5.515625 27.296875 
Q 5.515625 40.671875 12.859375 48.328125 
Q 20.21875 56 33.015625 56 
Q 37.15625 56 41.109375 55.140625 
Q 45.0625 54.296875 48.78125 52.59375 
z
" id="DejaVuSans-63"/>
      <path d="M 18.109375 8.203125 
L 18.109375 -20.796875 
L 9.078125 -20.796875 
L 9.078125 54.6875 
L 18.109375 54.6875 
L 18.109375 46.390625 
Q 20.953125 51.265625 25.265625 53.625 
Q 29.59375 56 35.59375 56 
Q 45.5625 56 51.78125 48.09375 
Q 58.015625 40.1875 58.015625 27.296875 
Q 58.015625 14.40625 51.78125 6.484375 
Q 45.5625 -1.421875 35.59375 -1.421875 
Q 29.59375 -1.421875 25.265625 0.953125 
Q 20.953125 3.328125 18.109375 8.203125 
z
M 48.6875 27.296875 
Q 48.6875 37.203125 44.609375 42.84375 
Q 40.53125 48.484375 33.40625 48.484375 
Q 26.265625 48.484375 22.1875 42.84375 
Q 18.109375 37.203125 18.109375 27.296875 
Q 18.109375 17.390625 22.1875 11.75 
Q 26.265625 6.109375 33.40625 6.109375 
Q 40.53125 6.109375 44.609375 11.75 
Q 48.6875 17.390625 48.6875 27.296875 
z
" id="DejaVuSans-70"/>
      <path d="M 45.40625 46.390625 
L 45.40625 75.984375 
L 54.390625 75.984375 
L 54.390625 0 
L 45.40625 0 
L 45.40625 8.203125 
Q 42.578125 3.328125 38.25 0.953125 
Q 33.9375 -1.421875 27.875 -1.421875 
Q 17.96875 -1.421875 11.734375 6.484375 
Q 5.515625 14.40625 5.515625 27.296875 
Q 5.515625 40.1875 11.734375 48.09375 
Q 17.96875 56 27.875 56 
Q 33.9375 56 38.25 53.625 
Q 42.578125 51.265625 45.40625 46.390625 
z
M 14.796875 27.296875 
Q 14.796875 17.390625 18.875 11.75 
Q 22.953125 6.109375 30.078125 6.109375 
Q 37.203125 6.109375 41.296875 11.75 
Q 45.40625 17.390625 45.40625 27.296875 
Q 45.40625 37.203125 41.296875 42.84375 
Q 37.203125 48.484375 30.078125 48.484375 
Q 22.953125 48.484375 18.875 42.84375 
Q 14.796875 37.203125 14.796875 27.296875 
z
" id="DejaVuSans-64"/>
      <path d="M 8.5 21.578125 
L 8.5 54.6875 
L 17.484375 54.6875 
L 17.484375 21.921875 
Q 17.484375 14.15625 20.5 10.265625 
Q 23.53125 6.390625 29.59375 6.390625 
Q 36.859375 6.390625 41.078125 11.03125 
Q 45.3125 15.671875 45.3125 23.6875 
L 45.3125 54.6875 
L 54.296875 54.6875 
L 54.296875 0 
L 45.3125 0 
L 45.3125 8.40625 
Q 42.046875 3.421875 37.71875 1 
Q 33.40625 -1.421875 27.6875 -1.421875 
Q 18.265625 -1.421875 13.375 4.4375 
Q 8.5 10.296875 8.5 21.578125 
z
M 31.109375 56 
z
" id="DejaVuSans-75"/>
      <path d="M 52 44.1875 
Q 55.375 50.25 60.0625 53.125 
Q 64.75 56 71.09375 56 
Q 79.640625 56 84.28125 50.015625 
Q 88.921875 44.046875 88.921875 33.015625 
L 88.921875 0 
L 79.890625 0 
L 79.890625 32.71875 
Q 79.890625 40.578125 77.09375 44.375 
Q 74.3125 48.1875 68.609375 48.1875 
Q 61.625 48.1875 57.5625 43.546875 
Q 53.515625 38.921875 53.515625 30.90625 
L 53.515625 0 
L 44.484375 0 
L 44.484375 32.71875 
Q 44.484375 40.625 41.703125 44.40625 
Q 38.921875 48.1875 33.109375 48.1875 
Q 26.21875 48.1875 22.15625 43.53125 
Q 18.109375 38.875 18.109375 30.90625 
L 18.109375 0 
L 9.078125 0 
L 9.078125 54.6875 
L 18.109375 54.6875 
L 18.109375 46.1875 
Q 21.1875 51.21875 25.484375 53.609375 
Q 29.78125 56 35.6875 56 
Q 41.65625 56 45.828125 52.96875 
Q 50 49.953125 52 44.1875 
z
" id="DejaVuSans-6d"/>
     </defs>
     <g transform="translate(1203.520313 85.718437)scale(0.1 -0.1)">
      <use xlink:href="#DejaVuSans-74"/>
      <use x="39.208984" xlink:href="#DejaVuSans-63"/>
      <use x="94.189453" xlink:href="#DejaVuSans-70"/>
      <use x="157.666016" xlink:href="#DejaVuSans-64"/>
      <use x="221.142578" xlink:href="#DejaVuSans-75"/>
      <use x="284.521484" xlink:href="#DejaVuSans-6d"/>
      <use x="381.933594" xlink:href="#DejaVuSans-70"/>
     </g>
    </g>
    <g id="line2d_20">
     <path d="M 1175.520313 96.896563 
L 1195.520313 96.896563 
" style="fill:none;stroke:#800080;stroke-dasharray:9.6,2.4,1.5,2.4;stroke-dashoffset:0;stroke-width:1.5;"/>
    </g>
    <g id="line2d_21">
     <g>
      <use style="fill:#800080;stroke:#800080;" x="1185.520313" xlink:href="#m77dc795ce3" y="96.896563"/>
     </g>
    </g>
    <g id="text_16">
     <!-- filtered tcpdump -->
     <defs>
      <path d="M 37.109375 75.984375 
L 37.109375 68.5 
L 28.515625 68.5 
Q 23.6875 68.5 21.796875 66.546875 
Q 19.921875 64.59375 19.921875 59.515625 
L 19.921875 54.6875 
L 34.71875 54.6875 
L 34.71875 47.703125 
L 19.921875 47.703125 
L 19.921875 0 
L 10.890625 0 
L 10.890625 47.703125 
L 2.296875 47.703125 
L 2.296875 54.6875 
L 10.890625 54.6875 
L 10.890625 58.5 
Q 10.890625 67.625 15.140625 71.796875 
Q 19.390625 75.984375 28.609375 75.984375 
z
" id="DejaVuSans-66"/>
      <path d="M 9.421875 75.984375 
L 18.40625 75.984375 
L 18.40625 0 
L 9.421875 0 
z
" id="DejaVuSans-6c"/>
      <path d="M 56.203125 29.59375 
L 56.203125 25.203125 
L 14.890625 25.203125 
Q 15.484375 15.921875 20.484375 11.0625 
Q 25.484375 6.203125 34.421875 6.203125 
Q 39.59375 6.203125 44.453125 7.46875 
Q 49.3125 8.734375 54.109375 11.28125 
L 54.109375 2.78125 
Q 49.265625 0.734375 44.1875 -0.34375 
Q 39.109375 -1.421875 33.890625 -1.421875 
Q 20.796875 -1.421875 13.15625 6.1875 
Q 5.515625 13.8125 5.515625 26.8125 
Q 5.515625 40.234375 12.765625 48.109375 
Q 20.015625 56 32.328125 56 
Q 43.359375 56 49.78125 48.890625 
Q 56.203125 41.796875 56.203125 29.59375 
z
M 47.21875 32.234375 
Q 47.125 39.59375 43.09375 43.984375 
Q 39.0625 48.390625 32.421875 48.390625 
Q 24.90625 48.390625 20.390625 44.140625 
Q 15.875 39.890625 15.1875 32.171875 
z
" id="DejaVuSans-65"/>
      <path d="M 41.109375 46.296875 
Q 39.59375 47.171875 37.8125 47.578125 
Q 36.03125 48 33.890625 48 
Q 26.265625 48 22.1875 43.046875 
Q 18.109375 38.09375 18.109375 28.8125 
L 18.109375 0 
L 9.078125 0 
L 9.078125 54.6875 
L 18.109375 54.6875 
L 18.109375 46.1875 
Q 20.953125 51.171875 25.484375 53.578125 
Q 30.03125 56 36.53125 56 
Q 37.453125 56 38.578125 55.875 
Q 39.703125 55.765625 41.0625 55.515625 
z
" id="DejaVuSans-72"/>
     </defs>
     <g transform="translate(1203.520313 100.396563)scale(0.1 -0.1)">
      <use xlink:href="#DejaVuSans-66"/>
      <use x="35.205078" xlink:href="#DejaVuSans-69"/>
      <use x="62.988281" xlink:href="#DejaVuSans-6c"/>
      <use x="90.771484" xlink:href="#DejaVuSans-74"/>
      <use x="129.980469" xlink:href="#DejaVuSans-65"/>
      <use x="191.503906" xlink:href="#DejaVuSans-72"/>
      <use x="232.585938" xlink:href="#DejaVuSans-65"/>
      <use x="294.109375" xlink:href="#DejaVuSans-64"/>
      <use x="357.585938" xlink:href="#DejaVuSans-20"/>
      <use x="389.373047" xlink:href="#DejaVuSans-74"/>
      <use x="428.582031" xlink:href="#DejaVuSans-63"/>
      <use x="483.5625" xlink:href="#DejaVuSans-70"/>
      <use x="547.039062" xlink:href="#DejaVuSans-64"/>
      <use x="610.515625" xlink:href="#DejaVuSans-75"/>
      <use x="673.894531" xlink:href="#DejaVuSans-6d"/>
      <use x="771.306641" xlink:href="#DejaVuSans-70"/>
     </g>
    </g>
    <g id="line2d_22">
     <path d="M 1175.520313 111.574687 
L 1195.520313 111.574687 
" style="fill:none;stroke:#0000ff;stroke-linecap:square;stroke-width:1.5;"/>
    </g>
    <g id="line2d_23"/>
    <g id="text_17">
     <!-- OLS -->
     <defs>
      <path d="M 39.40625 66.21875 
Q 28.65625 66.21875 22.328125 58.203125 
Q 16.015625 50.203125 16.015625 36.375 
Q 16.015625 22.609375 22.328125 14.59375 
Q 28.65625 6.59375 39.40625 6.59375 
Q 50.140625 6.59375 56.421875 14.59375 
Q 62.703125 22.609375 62.703125 36.375 
Q 62.703125 50.203125 56.421875 58.203125 
Q 50.140625 66.21875 39.40625 66.21875 
z
M 39.40625 74.21875 
Q 54.734375 74.21875 63.90625 63.9375 
Q 73.09375 53.65625 73.09375 36.375 
Q 73.09375 19.140625 63.90625 8.859375 
Q 54.734375 -1.421875 39.40625 -1.421875 
Q 24.03125 -1.421875 14.8125 8.828125 
Q 5.609375 19.09375 5.609375 36.375 
Q 5.609375 53.65625 14.8125 63.9375 
Q 24.03125 74.21875 39.40625 74.21875 
z
" id="DejaVuSans-4f"/>
      <path d="M 9.8125 72.90625 
L 19.671875 72.90625 
L 19.671875 8.296875 
L 55.171875 8.296875 
L 55.171875 0 
L 9.8125 0 
z
" id="DejaVuSans-4c"/>
      <path d="M 53.515625 70.515625 
L 53.515625 60.890625 
Q 47.90625 63.578125 42.921875 64.890625 
Q 37.9375 66.21875 33.296875 66.21875 
Q 25.25 66.21875 20.875 63.09375 
Q 16.5 59.96875 16.5 54.203125 
Q 16.5 49.359375 19.40625 46.890625 
Q 22.3125 44.4375 30.421875 42.921875 
L 36.375 41.703125 
Q 47.40625 39.59375 52.65625 34.296875 
Q 57.90625 29 57.90625 20.125 
Q 57.90625 9.515625 50.796875 4.046875 
Q 43.703125 -1.421875 29.984375 -1.421875 
Q 24.8125 -1.421875 18.96875 -0.25 
Q 13.140625 0.921875 6.890625 3.21875 
L 6.890625 13.375 
Q 12.890625 10.015625 18.65625 8.296875 
Q 24.421875 6.59375 29.984375 6.59375 
Q 38.421875 6.59375 43.015625 9.90625 
Q 47.609375 13.234375 47.609375 19.390625 
Q 47.609375 24.75 44.3125 27.78125 
Q 41.015625 30.8125 33.5 32.328125 
L 27.484375 33.5 
Q 16.453125 35.6875 11.515625 40.375 
Q 6.59375 45.0625 6.59375 53.421875 
Q 6.59375 63.09375 13.40625 68.65625 
Q 20.21875 74.21875 32.171875 74.21875 
Q 37.3125 74.21875 42.625 73.28125 
Q 47.953125 72.359375 53.515625 70.515625 
z
" id="DejaVuSans-53"/>
     </defs>
     <g transform="translate(1203.520313 115.074687)scale(0.1 -0.1)">
      <use xlink:href="#DejaVuSans-4f"/>
      <use x="78.710938" xlink:href="#DejaVuSans-4c"/>
      <use x="134.423828" xlink:href="#DejaVuSans-53"/>
     </g>
    </g>
    <g id="line2d_24">
     <path d="M 1175.520313 126.252813 
L 1195.520313 126.252813 
" style="fill:none;stroke:#008000;stroke-linecap:square;stroke-width:1.5;"/>
    </g>
    <g id="line2d_25">
     <g>
      <use style="fill:#008000;stroke:#008000;" x="1185.520313" xlink:href="#m11e077bab9" y="126.252813"/>
     </g>
    </g>
    <g id="text_18">
     <!-- IRLS -->
     <defs>
      <path d="M 9.8125 72.90625 
L 19.671875 72.90625 
L 19.671875 0 
L 9.8125 0 
z
" id="DejaVuSans-49"/>
      <path d="M 44.390625 34.1875 
Q 47.5625 33.109375 50.5625 29.59375 
Q 53.5625 26.078125 56.59375 19.921875 
L 66.609375 0 
L 56 0 
L 46.6875 18.703125 
Q 43.0625 26.03125 39.671875 28.421875 
Q 36.28125 30.8125 30.421875 30.8125 
L 19.671875 30.8125 
L 19.671875 0 
L 9.8125 0 
L 9.8125 72.90625 
L 32.078125 72.90625 
Q 44.578125 72.90625 50.734375 67.671875 
Q 56.890625 62.453125 56.890625 51.90625 
Q 56.890625 45.015625 53.6875 40.46875 
Q 50.484375 35.9375 44.390625 34.1875 
z
M 19.671875 64.796875 
L 19.671875 38.921875 
L 32.078125 38.921875 
Q 39.203125 38.921875 42.84375 42.21875 
Q 46.484375 45.515625 46.484375 51.90625 
Q 46.484375 58.296875 42.84375 61.546875 
Q 39.203125 64.796875 32.078125 64.796875 
z
" id="DejaVuSans-52"/>
     </defs>
     <g transform="translate(1203.520313 129.752813)scale(0.1 -0.1)">
      <use xlink:href="#DejaVuSans-49"/>
      <use x="29.492188" xlink:href="#DejaVuSans-52"/>
      <use x="98.974609" xlink:href="#DejaVuSans-4c"/>
      <use x="154.6875" xlink:href="#DejaVuSans-53"/>
     </g>
    </g>
   </g>
  </g>
 </g>
 <defs>
  <clipPath id="pcb3d5e5b25">
   <rect height="443.52" width="1116" x="180" y="69.12"/>
  </clipPath>
 </defs>
</svg>
