<?xml version="1.0" encoding="utf-8" standalone="no"?>
<!DOCTYPE svg PUBLIC "-//W3C//DTD SVG 1.1//EN"
  "http://www.w3.org/Graphics/SVG/1.1/DTD/svg11.dtd">
<!-- Created with matplotlib (http://matplotlib.org/) -->
<svg height="576pt" version="1.1" viewBox="0 0 1440 576" width="1440pt" xmlns="http://www.w3.org/2000/svg" xmlns:xlink="http://www.w3.org/1999/xlink">
 <defs>
  <style type="text/css">
*{stroke-linecap:butt;stroke-linejoin:round;}
  </style>
 </defs>
 <g id="figure_1">
  <g id="patch_1">
   <path d="M 0 576 
L 1440 576 
L 1440 0 
L 0 0 
z
" style="fill:#ffffff;"/>
  </g>
  <g id="axes_1">
   <g id="patch_2">
    <path d="M 180 512.64 
L 1296 512.64 
L 1296 69.12 
L 180 69.12 
z
" style="fill:#ffffff;"/>
   </g>
   <g id="matplotlib.axis_1">
    <g id="xtick_1">
     <g id="line2d_1">
      <defs>
       <path d="M 0 0 
L 0 3.5 
" id="m3780d73de3" style="stroke:#000000;stroke-width:0.8;"/>
      </defs>
      <g>
       <use style="stroke:#000000;stroke-width:0.8;" x="230.727273" xlink:href="#m3780d73de3" y="512.64"/>
      </g>
     </g>
     <g id="text_1">
      <!-- 0.00 -->
      <defs>
       <path d="M 31.78125 66.40625 
Q 24.171875 66.40625 20.328125 58.90625 
Q 16.5 51.421875 16.5 36.375 
Q 16.5 21.390625 20.328125 13.890625 
Q 24.171875 6.390625 31.78125 6.390625 
Q 39.453125 6.390625 43.28125 13.890625 
Q 47.125 21.390625 47.125 36.375 
Q 47.125 51.421875 43.28125 58.90625 
Q 39.453125 66.40625 31.78125 66.40625 
z
M 31.78125 74.21875 
Q 44.046875 74.21875 50.515625 64.515625 
Q 56.984375 54.828125 56.984375 36.375 
Q 56.984375 17.96875 50.515625 8.265625 
Q 44.046875 -1.421875 31.78125 -1.421875 
Q 19.53125 -1.421875 13.0625 8.265625 
Q 6.59375 17.96875 6.59375 36.375 
Q 6.59375 54.828125 13.0625 64.515625 
Q 19.53125 74.21875 31.78125 74.21875 
z
" id="DejaVuSans-30"/>
       <path d="M 10.6875 12.40625 
L 21 12.40625 
L 21 0 
L 10.6875 0 
z
" id="DejaVuSans-2e"/>
      </defs>
      <g transform="translate(219.59446 527.238438)scale(0.1 -0.1)">
       <use xlink:href="#DejaVuSans-30"/>
       <use x="63.623047" xlink:href="#DejaVuSans-2e"/>
       <use x="95.410156" xlink:href="#DejaVuSans-30"/>
       <use x="159.033203" xlink:href="#DejaVuSans-30"/>
      </g>
     </g>
    </g>
    <g id="xtick_2">
     <g id="line2d_2">
      <g>
       <use style="stroke:#000000;stroke-width:0.8;" x="465.114579" xlink:href="#m3780d73de3" y="512.64"/>
      </g>
     </g>
     <g id="text_2">
      <!-- 0.05 -->
      <defs>
       <path d="M 10.796875 72.90625 
L 49.515625 72.90625 
L 49.515625 64.59375 
L 19.828125 64.59375 
L 19.828125 46.734375 
Q 21.96875 47.46875 24.109375 47.828125 
Q 26.265625 48.1875 28.421875 48.1875 
Q 40.625 48.1875 47.75 41.5 
Q 54.890625 34.8125 54.890625 23.390625 
Q 54.890625 11.625 47.5625 5.09375 
Q 40.234375 -1.421875 26.90625 -1.421875 
Q 22.3125 -1.421875 17.546875 -0.640625 
Q 12.796875 0.140625 7.71875 1.703125 
L 7.71875 11.625 
Q 12.109375 9.234375 16.796875 8.0625 
Q 21.484375 6.890625 26.703125 6.890625 
Q 35.15625 6.890625 40.078125 11.328125 
Q 45.015625 15.765625 45.015625 23.390625 
Q 45.015625 31 40.078125 35.4375 
Q 35.15625 39.890625 26.703125 39.890625 
Q 22.75 39.890625 18.8125 39.015625 
Q 14.890625 38.140625 10.796875 36.28125 
z
" id="DejaVuSans-35"/>
      </defs>
      <g transform="translate(453.981766 527.238438)scale(0.1 -0.1)">
       <use xlink:href="#DejaVuSans-30"/>
       <use x="63.623047" xlink:href="#DejaVuSans-2e"/>
       <use x="95.410156" xlink:href="#DejaVuSans-30"/>
       <use x="159.033203" xlink:href="#DejaVuSans-35"/>
      </g>
     </g>
    </g>
    <g id="xtick_3">
     <g id="line2d_3">
      <g>
       <use style="stroke:#000000;stroke-width:0.8;" x="699.501885" xlink:href="#m3780d73de3" y="512.64"/>
      </g>
     </g>
     <g id="text_3">
      <!-- 0.10 -->
      <defs>
       <path d="M 12.40625 8.296875 
L 28.515625 8.296875 
L 28.515625 63.921875 
L 10.984375 60.40625 
L 10.984375 69.390625 
L 28.421875 72.90625 
L 38.28125 72.90625 
L 38.28125 8.296875 
L 54.390625 8.296875 
L 54.390625 0 
L 12.40625 0 
z
" id="DejaVuSans-31"/>
      </defs>
      <g transform="translate(688.369072 527.238438)scale(0.1 -0.1)">
       <use xlink:href="#DejaVuSans-30"/>
       <use x="63.623047" xlink:href="#DejaVuSans-2e"/>
       <use x="95.410156" xlink:href="#DejaVuSans-31"/>
       <use x="159.033203" xlink:href="#DejaVuSans-30"/>
      </g>
     </g>
    </g>
    <g id="xtick_4">
     <g id="line2d_4">
      <g>
       <use style="stroke:#000000;stroke-width:0.8;" x="933.889191" xlink:href="#m3780d73de3" y="512.64"/>
      </g>
     </g>
     <g id="text_4">
      <!-- 0.15 -->
      <g transform="translate(922.756379 527.238438)scale(0.1 -0.1)">
       <use xlink:href="#DejaVuSans-30"/>
       <use x="63.623047" xlink:href="#DejaVuSans-2e"/>
       <use x="95.410156" xlink:href="#DejaVuSans-31"/>
       <use x="159.033203" xlink:href="#DejaVuSans-35"/>
      </g>
     </g>
    </g>
    <g id="xtick_5">
     <g id="line2d_5">
      <g>
       <use style="stroke:#000000;stroke-width:0.8;" x="1168.276497" xlink:href="#m3780d73de3" y="512.64"/>
      </g>
     </g>
     <g id="text_5">
      <!-- 0.20 -->
      <defs>
       <path d="M 19.1875 8.296875 
L 53.609375 8.296875 
L 53.609375 0 
L 7.328125 0 
L 7.328125 8.296875 
Q 12.9375 14.109375 22.625 23.890625 
Q 32.328125 33.6875 34.8125 36.53125 
Q 39.546875 41.84375 41.421875 45.53125 
Q 43.3125 49.21875 43.3125 52.78125 
Q 43.3125 58.59375 39.234375 62.25 
Q 35.15625 65.921875 28.609375 65.921875 
Q 23.96875 65.921875 18.8125 64.3125 
Q 13.671875 62.703125 7.8125 59.421875 
L 7.8125 69.390625 
Q 13.765625 71.78125 18.9375 73 
Q 24.125 74.21875 28.421875 74.21875 
Q 39.75 74.21875 46.484375 68.546875 
Q 53.21875 62.890625 53.21875 53.421875 
Q 53.21875 48.921875 51.53125 44.890625 
Q 49.859375 40.875 45.40625 35.40625 
Q 44.1875 33.984375 37.640625 27.21875 
Q 31.109375 20.453125 19.1875 8.296875 
z
" id="DejaVuSans-32"/>
      </defs>
      <g transform="translate(1157.143685 527.238438)scale(0.1 -0.1)">
       <use xlink:href="#DejaVuSans-30"/>
       <use x="63.623047" xlink:href="#DejaVuSans-2e"/>
       <use x="95.410156" xlink:href="#DejaVuSans-32"/>
       <use x="159.033203" xlink:href="#DejaVuSans-30"/>
      </g>
     </g>
    </g>
   </g>
   <g id="matplotlib.axis_2">
    <g id="ytick_1">
     <g id="line2d_6">
      <defs>
       <path d="M 0 0 
L -3.5 0 
" id="m48ca91a632" style="stroke:#000000;stroke-width:0.8;"/>
      </defs>
      <g>
       <use style="stroke:#000000;stroke-width:0.8;" x="180" xlink:href="#m48ca91a632" y="497.805335"/>
      </g>
     </g>
     <g id="text_6">
      <!-- 0.5 -->
      <g transform="translate(157.096875 501.604554)scale(0.1 -0.1)">
       <use xlink:href="#DejaVuSans-30"/>
       <use x="63.623047" xlink:href="#DejaVuSans-2e"/>
       <use x="95.410156" xlink:href="#DejaVuSans-35"/>
      </g>
     </g>
    </g>
    <g id="ytick_2">
     <g id="line2d_7">
      <g>
       <use style="stroke:#000000;stroke-width:0.8;" x="180" xlink:href="#m48ca91a632" y="414.501705"/>
      </g>
     </g>
     <g id="text_7">
      <!-- 1.0 -->
      <g transform="translate(157.096875 418.300924)scale(0.1 -0.1)">
       <use xlink:href="#DejaVuSans-31"/>
       <use x="63.623047" xlink:href="#DejaVuSans-2e"/>
       <use x="95.410156" xlink:href="#DejaVuSans-30"/>
      </g>
     </g>
    </g>
    <g id="ytick_3">
     <g id="line2d_8">
      <g>
       <use style="stroke:#000000;stroke-width:0.8;" x="180" xlink:href="#m48ca91a632" y="331.198075"/>
      </g>
     </g>
     <g id="text_8">
      <!-- 1.5 -->
      <g transform="translate(157.096875 334.997293)scale(0.1 -0.1)">
       <use xlink:href="#DejaVuSans-31"/>
       <use x="63.623047" xlink:href="#DejaVuSans-2e"/>
       <use x="95.410156" xlink:href="#DejaVuSans-35"/>
      </g>
     </g>
    </g>
    <g id="ytick_4">
     <g id="line2d_9">
      <g>
       <use style="stroke:#000000;stroke-width:0.8;" x="180" xlink:href="#m48ca91a632" y="247.894444"/>
      </g>
     </g>
     <g id="text_9">
      <!-- 2.0 -->
      <g transform="translate(157.096875 251.693663)scale(0.1 -0.1)">
       <use xlink:href="#DejaVuSans-32"/>
       <use x="63.623047" xlink:href="#DejaVuSans-2e"/>
       <use x="95.410156" xlink:href="#DejaVuSans-30"/>
      </g>
     </g>
    </g>
    <g id="ytick_5">
     <g id="line2d_10">
      <g>
       <use style="stroke:#000000;stroke-width:0.8;" x="180" xlink:href="#m48ca91a632" y="164.590814"/>
      </g>
     </g>
     <g id="text_10">
      <!-- 2.5 -->
      <g transform="translate(157.096875 168.390032)scale(0.1 -0.1)">
       <use xlink:href="#DejaVuSans-32"/>
       <use x="63.623047" xlink:href="#DejaVuSans-2e"/>
       <use x="95.410156" xlink:href="#DejaVuSans-35"/>
      </g>
     </g>
    </g>
    <g id="ytick_6">
     <g id="line2d_11">
      <g>
       <use style="stroke:#000000;stroke-width:0.8;" x="180" xlink:href="#m48ca91a632" y="81.287183"/>
      </g>
     </g>
     <g id="text_11">
      <!-- 3.0 -->
      <defs>
       <path d="M 40.578125 39.3125 
Q 47.65625 37.796875 51.625 33 
Q 55.609375 28.21875 55.609375 21.1875 
Q 55.609375 10.40625 48.1875 4.484375 
Q 40.765625 -1.421875 27.09375 -1.421875 
Q 22.515625 -1.421875 17.65625 -0.515625 
Q 12.796875 0.390625 7.625 2.203125 
L 7.625 11.71875 
Q 11.71875 9.328125 16.59375 8.109375 
Q 21.484375 6.890625 26.8125 6.890625 
Q 36.078125 6.890625 40.9375 10.546875 
Q 45.796875 14.203125 45.796875 21.1875 
Q 45.796875 27.640625 41.28125 31.265625 
Q 36.765625 34.90625 28.71875 34.90625 
L 20.21875 34.90625 
L 20.21875 43.015625 
L 29.109375 43.015625 
Q 36.375 43.015625 40.234375 45.921875 
Q 44.09375 48.828125 44.09375 54.296875 
Q 44.09375 59.90625 40.109375 62.90625 
Q 36.140625 65.921875 28.71875 65.921875 
Q 24.65625 65.921875 20.015625 65.03125 
Q 15.375 64.15625 9.8125 62.3125 
L 9.8125 71.09375 
Q 15.4375 72.65625 20.34375 73.4375 
Q 25.25 74.21875 29.59375 74.21875 
Q 40.828125 74.21875 47.359375 69.109375 
Q 53.90625 64.015625 53.90625 55.328125 
Q 53.90625 49.265625 50.4375 45.09375 
Q 46.96875 40.921875 40.578125 39.3125 
z
" id="DejaVuSans-33"/>
      </defs>
      <g transform="translate(157.096875 85.086402)scale(0.1 -0.1)">
       <use xlink:href="#DejaVuSans-33"/>
       <use x="63.623047" xlink:href="#DejaVuSans-2e"/>
       <use x="95.410156" xlink:href="#DejaVuSans-30"/>
      </g>
     </g>
    </g>
   </g>
   <g id="line2d_12">
    <path clip-path="url(#p48a98121c7)" d="M 230.727273 432.511617 
L 247.546906 431.105618 
L 264.938444 429.719112 
L 274.412379 428.048541 
L 286.267689 426.46244 
L 295.465047 424.782706 
L 304.62959 423.101139 
L 314.75981 421.452726 
L 324.350938 419.78782 
L 334.429592 418.137075 
L 343.973844 416.470503 
L 353.583723 414.803431 
L 363.301421 413.142856 
L 372.775356 411.472952 
L 382.779006 409.818708 
L 392.267004 408.14947 
L 401.764378 406.480065 
L 411.350819 404.811827 
L 420.740374 403.141589 
L 430.533076 401.479681 
L 439.964821 399.808777 
L 449.382503 398.135207 
L 458.973631 396.469634 
L 468.363187 394.797564 
L 482.824884 393.303263 
L 492.336321 391.634359 
L 502.663425 389.992777 
L 512.292056 388.32937 
L 524.259872 386.746102 
L 533.677554 385.073864 
L 543.071797 383.401461 
L 552.65355 381.733555 
L 562.000916 380.058819 
L 571.685799 378.395246 
L 581.178485 376.727007 
L 590.666483 375.056936 
L 600.40762 373.393862 
L 610.055001 371.730622 
L 620.072715 370.079544 
L 629.574776 368.410473 
L 639.194031 366.745733 
L 648.883602 365.079494 
L 663.55156 363.592191 
L 673.288009 361.931783 
L 682.83226 360.265877 
L 692.784345 358.613299 
L 702.202027 356.939063 
L 713.658878 355.340466 
L 723.207817 353.671061 
L 732.83176 352.006988 
L 742.563521 350.344914 
L 752.21559 348.679341 
L 767.010117 347.196537 
L 776.929388 345.544126 
L 786.872097 343.890882 
L 796.30853 342.219311 
L 808.295097 340.636209 
L 817.844036 338.97047 
L 827.482042 337.303897 
L 837.166925 335.642656 
L 846.758054 333.974918 
L 856.635135 332.319341 
L 866.118445 330.647104 
L 875.526752 328.974701 
L 885.197572 327.312127 
L 894.563689 325.638723 
L 908.931631 324.141757 
L 918.382127 322.470353 
L 928.259208 320.813611 
L 937.962842 319.152203 
L 950.441623 317.586095 
L 959.948372 315.914024 
L 969.366054 314.244286 
L 978.929056 312.577047 
L 988.276422 130.326031 
L 998.017558 128.66529 
L 1008.293098 127.026541 
L 1017.902977 125.357969 
L 1027.620675 123.698728 
L 1037.103985 122.025491 
L 1051.879761 120.546518 
L 1061.461514 118.878113 
L 1071.615172 117.232533 
L 1081.131297 115.560629 
L 1093.131927 113.982359 
L 1102.835561 112.317286 
L 1112.286058 110.646048 
L 1121.966253 108.982641 
L 1131.473002 107.312737 
L 1141.354771 105.651996 
L 1150.950588 103.991421 
L 1160.396396 102.321183 
L 1170.10003 100.657776 
L 1179.559902 98.986039 
L 1194.073164 97.495071 
L 1203.673668 95.829998 
L 1213.592939 94.173255 
L 1223.104376 92.502851 
L 1235.644097 90.941741 
L 1245.272727 89.28 
" style="fill:none;stroke:#ff0000;stroke-dasharray:5.55,2.4;stroke-dashoffset:0;stroke-width:1.5;"/>
    <defs>
     <path d="M -3 3 
L 3 3 
L 3 -3 
L -3 -3 
z
" id="m870b785425" style="stroke:#ff0000;stroke-linejoin:miter;"/>
    </defs>
    <g clip-path="url(#p48a98121c7)">
     <use style="fill:#ff0000;stroke:#ff0000;stroke-linejoin:miter;" x="230.727273" xlink:href="#m870b785425" y="432.511617"/>
     <use style="fill:#ff0000;stroke:#ff0000;stroke-linejoin:miter;" x="247.546906" xlink:href="#m870b785425" y="431.105618"/>
     <use style="fill:#ff0000;stroke:#ff0000;stroke-linejoin:miter;" x="264.938444" xlink:href="#m870b785425" y="429.719112"/>
     <use style="fill:#ff0000;stroke:#ff0000;stroke-linejoin:miter;" x="274.412379" xlink:href="#m870b785425" y="428.048541"/>
     <use style="fill:#ff0000;stroke:#ff0000;stroke-linejoin:miter;" x="286.267689" xlink:href="#m870b785425" y="426.46244"/>
     <use style="fill:#ff0000;stroke:#ff0000;stroke-linejoin:miter;" x="295.465047" xlink:href="#m870b785425" y="424.782706"/>
     <use style="fill:#ff0000;stroke:#ff0000;stroke-linejoin:miter;" x="304.62959" xlink:href="#m870b785425" y="423.101139"/>
     <use style="fill:#ff0000;stroke:#ff0000;stroke-linejoin:miter;" x="314.75981" xlink:href="#m870b785425" y="421.452726"/>
     <use style="fill:#ff0000;stroke:#ff0000;stroke-linejoin:miter;" x="324.350938" xlink:href="#m870b785425" y="419.78782"/>
     <use style="fill:#ff0000;stroke:#ff0000;stroke-linejoin:miter;" x="334.429592" xlink:href="#m870b785425" y="418.137075"/>
     <use style="fill:#ff0000;stroke:#ff0000;stroke-linejoin:miter;" x="343.973844" xlink:href="#m870b785425" y="416.470503"/>
     <use style="fill:#ff0000;stroke:#ff0000;stroke-linejoin:miter;" x="353.583723" xlink:href="#m870b785425" y="414.803431"/>
     <use style="fill:#ff0000;stroke:#ff0000;stroke-linejoin:miter;" x="363.301421" xlink:href="#m870b785425" y="413.142856"/>
     <use style="fill:#ff0000;stroke:#ff0000;stroke-linejoin:miter;" x="372.775356" xlink:href="#m870b785425" y="411.472952"/>
     <use style="fill:#ff0000;stroke:#ff0000;stroke-linejoin:miter;" x="382.779006" xlink:href="#m870b785425" y="409.818708"/>
     <use style="fill:#ff0000;stroke:#ff0000;stroke-linejoin:miter;" x="392.267004" xlink:href="#m870b785425" y="408.14947"/>
     <use style="fill:#ff0000;stroke:#ff0000;stroke-linejoin:miter;" x="401.764378" xlink:href="#m870b785425" y="406.480065"/>
     <use style="fill:#ff0000;stroke:#ff0000;stroke-linejoin:miter;" x="411.350819" xlink:href="#m870b785425" y="404.811827"/>
     <use style="fill:#ff0000;stroke:#ff0000;stroke-linejoin:miter;" x="420.740374" xlink:href="#m870b785425" y="403.141589"/>
     <use style="fill:#ff0000;stroke:#ff0000;stroke-linejoin:miter;" x="430.533076" xlink:href="#m870b785425" y="401.479681"/>
     <use style="fill:#ff0000;stroke:#ff0000;stroke-linejoin:miter;" x="439.964821" xlink:href="#m870b785425" y="399.808777"/>
     <use style="fill:#ff0000;stroke:#ff0000;stroke-linejoin:miter;" x="449.382503" xlink:href="#m870b785425" y="398.135207"/>
     <use style="fill:#ff0000;stroke:#ff0000;stroke-linejoin:miter;" x="458.973631" xlink:href="#m870b785425" y="396.469634"/>
     <use style="fill:#ff0000;stroke:#ff0000;stroke-linejoin:miter;" x="468.363187" xlink:href="#m870b785425" y="394.797564"/>
     <use style="fill:#ff0000;stroke:#ff0000;stroke-linejoin:miter;" x="482.824884" xlink:href="#m870b785425" y="393.303263"/>
     <use style="fill:#ff0000;stroke:#ff0000;stroke-linejoin:miter;" x="492.336321" xlink:href="#m870b785425" y="391.634359"/>
     <use style="fill:#ff0000;stroke:#ff0000;stroke-linejoin:miter;" x="502.663425" xlink:href="#m870b785425" y="389.992777"/>
     <use style="fill:#ff0000;stroke:#ff0000;stroke-linejoin:miter;" x="512.292056" xlink:href="#m870b785425" y="388.32937"/>
     <use style="fill:#ff0000;stroke:#ff0000;stroke-linejoin:miter;" x="524.259872" xlink:href="#m870b785425" y="386.746102"/>
     <use style="fill:#ff0000;stroke:#ff0000;stroke-linejoin:miter;" x="533.677554" xlink:href="#m870b785425" y="385.073864"/>
     <use style="fill:#ff0000;stroke:#ff0000;stroke-linejoin:miter;" x="543.071797" xlink:href="#m870b785425" y="383.401461"/>
     <use style="fill:#ff0000;stroke:#ff0000;stroke-linejoin:miter;" x="552.65355" xlink:href="#m870b785425" y="381.733555"/>
     <use style="fill:#ff0000;stroke:#ff0000;stroke-linejoin:miter;" x="562.000916" xlink:href="#m870b785425" y="380.058819"/>
     <use style="fill:#ff0000;stroke:#ff0000;stroke-linejoin:miter;" x="571.685799" xlink:href="#m870b785425" y="378.395246"/>
     <use style="fill:#ff0000;stroke:#ff0000;stroke-linejoin:miter;" x="581.178485" xlink:href="#m870b785425" y="376.727007"/>
     <use style="fill:#ff0000;stroke:#ff0000;stroke-linejoin:miter;" x="590.666483" xlink:href="#m870b785425" y="375.056936"/>
     <use style="fill:#ff0000;stroke:#ff0000;stroke-linejoin:miter;" x="600.40762" xlink:href="#m870b785425" y="373.393862"/>
     <use style="fill:#ff0000;stroke:#ff0000;stroke-linejoin:miter;" x="610.055001" xlink:href="#m870b785425" y="371.730622"/>
     <use style="fill:#ff0000;stroke:#ff0000;stroke-linejoin:miter;" x="620.072715" xlink:href="#m870b785425" y="370.079544"/>
     <use style="fill:#ff0000;stroke:#ff0000;stroke-linejoin:miter;" x="629.574776" xlink:href="#m870b785425" y="368.410473"/>
     <use style="fill:#ff0000;stroke:#ff0000;stroke-linejoin:miter;" x="639.194031" xlink:href="#m870b785425" y="366.745733"/>
     <use style="fill:#ff0000;stroke:#ff0000;stroke-linejoin:miter;" x="648.883602" xlink:href="#m870b785425" y="365.079494"/>
     <use style="fill:#ff0000;stroke:#ff0000;stroke-linejoin:miter;" x="663.55156" xlink:href="#m870b785425" y="363.592191"/>
     <use style="fill:#ff0000;stroke:#ff0000;stroke-linejoin:miter;" x="673.288009" xlink:href="#m870b785425" y="361.931783"/>
     <use style="fill:#ff0000;stroke:#ff0000;stroke-linejoin:miter;" x="682.83226" xlink:href="#m870b785425" y="360.265877"/>
     <use style="fill:#ff0000;stroke:#ff0000;stroke-linejoin:miter;" x="692.784345" xlink:href="#m870b785425" y="358.613299"/>
     <use style="fill:#ff0000;stroke:#ff0000;stroke-linejoin:miter;" x="702.202027" xlink:href="#m870b785425" y="356.939063"/>
     <use style="fill:#ff0000;stroke:#ff0000;stroke-linejoin:miter;" x="713.658878" xlink:href="#m870b785425" y="355.340466"/>
     <use style="fill:#ff0000;stroke:#ff0000;stroke-linejoin:miter;" x="723.207817" xlink:href="#m870b785425" y="353.671061"/>
     <use style="fill:#ff0000;stroke:#ff0000;stroke-linejoin:miter;" x="732.83176" xlink:href="#m870b785425" y="352.006988"/>
     <use style="fill:#ff0000;stroke:#ff0000;stroke-linejoin:miter;" x="742.563521" xlink:href="#m870b785425" y="350.344914"/>
     <use style="fill:#ff0000;stroke:#ff0000;stroke-linejoin:miter;" x="752.21559" xlink:href="#m870b785425" y="348.679341"/>
     <use style="fill:#ff0000;stroke:#ff0000;stroke-linejoin:miter;" x="767.010117" xlink:href="#m870b785425" y="347.196537"/>
     <use style="fill:#ff0000;stroke:#ff0000;stroke-linejoin:miter;" x="776.929388" xlink:href="#m870b785425" y="345.544126"/>
     <use style="fill:#ff0000;stroke:#ff0000;stroke-linejoin:miter;" x="786.872097" xlink:href="#m870b785425" y="343.890882"/>
     <use style="fill:#ff0000;stroke:#ff0000;stroke-linejoin:miter;" x="796.30853" xlink:href="#m870b785425" y="342.219311"/>
     <use style="fill:#ff0000;stroke:#ff0000;stroke-linejoin:miter;" x="808.295097" xlink:href="#m870b785425" y="340.636209"/>
     <use style="fill:#ff0000;stroke:#ff0000;stroke-linejoin:miter;" x="817.844036" xlink:href="#m870b785425" y="338.97047"/>
     <use style="fill:#ff0000;stroke:#ff0000;stroke-linejoin:miter;" x="827.482042" xlink:href="#m870b785425" y="337.303897"/>
     <use style="fill:#ff0000;stroke:#ff0000;stroke-linejoin:miter;" x="837.166925" xlink:href="#m870b785425" y="335.642656"/>
     <use style="fill:#ff0000;stroke:#ff0000;stroke-linejoin:miter;" x="846.758054" xlink:href="#m870b785425" y="333.974918"/>
     <use style="fill:#ff0000;stroke:#ff0000;stroke-linejoin:miter;" x="856.635135" xlink:href="#m870b785425" y="332.319341"/>
     <use style="fill:#ff0000;stroke:#ff0000;stroke-linejoin:miter;" x="866.118445" xlink:href="#m870b785425" y="330.647104"/>
     <use style="fill:#ff0000;stroke:#ff0000;stroke-linejoin:miter;" x="875.526752" xlink:href="#m870b785425" y="328.974701"/>
     <use style="fill:#ff0000;stroke:#ff0000;stroke-linejoin:miter;" x="885.197572" xlink:href="#m870b785425" y="327.312127"/>
     <use style="fill:#ff0000;stroke:#ff0000;stroke-linejoin:miter;" x="894.563689" xlink:href="#m870b785425" y="325.638723"/>
     <use style="fill:#ff0000;stroke:#ff0000;stroke-linejoin:miter;" x="908.931631" xlink:href="#m870b785425" y="324.141757"/>
     <use style="fill:#ff0000;stroke:#ff0000;stroke-linejoin:miter;" x="918.382127" xlink:href="#m870b785425" y="322.470353"/>
     <use style="fill:#ff0000;stroke:#ff0000;stroke-linejoin:miter;" x="928.259208" xlink:href="#m870b785425" y="320.813611"/>
     <use style="fill:#ff0000;stroke:#ff0000;stroke-linejoin:miter;" x="937.962842" xlink:href="#m870b785425" y="319.152203"/>
     <use style="fill:#ff0000;stroke:#ff0000;stroke-linejoin:miter;" x="950.441623" xlink:href="#m870b785425" y="317.586095"/>
     <use style="fill:#ff0000;stroke:#ff0000;stroke-linejoin:miter;" x="959.948372" xlink:href="#m870b785425" y="315.914024"/>
     <use style="fill:#ff0000;stroke:#ff0000;stroke-linejoin:miter;" x="969.366054" xlink:href="#m870b785425" y="314.244286"/>
     <use style="fill:#ff0000;stroke:#ff0000;stroke-linejoin:miter;" x="978.929056" xlink:href="#m870b785425" y="312.577047"/>
     <use style="fill:#ff0000;stroke:#ff0000;stroke-linejoin:miter;" x="988.276422" xlink:href="#m870b785425" y="130.326031"/>
     <use style="fill:#ff0000;stroke:#ff0000;stroke-linejoin:miter;" x="998.017558" xlink:href="#m870b785425" y="128.66529"/>
     <use style="fill:#ff0000;stroke:#ff0000;stroke-linejoin:miter;" x="1008.293098" xlink:href="#m870b785425" y="127.026541"/>
     <use style="fill:#ff0000;stroke:#ff0000;stroke-linejoin:miter;" x="1017.902977" xlink:href="#m870b785425" y="125.357969"/>
     <use style="fill:#ff0000;stroke:#ff0000;stroke-linejoin:miter;" x="1027.620675" xlink:href="#m870b785425" y="123.698728"/>
     <use style="fill:#ff0000;stroke:#ff0000;stroke-linejoin:miter;" x="1037.103985" xlink:href="#m870b785425" y="122.025491"/>
     <use style="fill:#ff0000;stroke:#ff0000;stroke-linejoin:miter;" x="1051.879761" xlink:href="#m870b785425" y="120.546518"/>
     <use style="fill:#ff0000;stroke:#ff0000;stroke-linejoin:miter;" x="1061.461514" xlink:href="#m870b785425" y="118.878113"/>
     <use style="fill:#ff0000;stroke:#ff0000;stroke-linejoin:miter;" x="1071.615172" xlink:href="#m870b785425" y="117.232533"/>
     <use style="fill:#ff0000;stroke:#ff0000;stroke-linejoin:miter;" x="1081.131297" xlink:href="#m870b785425" y="115.560629"/>
     <use style="fill:#ff0000;stroke:#ff0000;stroke-linejoin:miter;" x="1093.131927" xlink:href="#m870b785425" y="113.982359"/>
     <use style="fill:#ff0000;stroke:#ff0000;stroke-linejoin:miter;" x="1102.835561" xlink:href="#m870b785425" y="112.317286"/>
     <use style="fill:#ff0000;stroke:#ff0000;stroke-linejoin:miter;" x="1112.286058" xlink:href="#m870b785425" y="110.646048"/>
     <use style="fill:#ff0000;stroke:#ff0000;stroke-linejoin:miter;" x="1121.966253" xlink:href="#m870b785425" y="108.982641"/>
     <use style="fill:#ff0000;stroke:#ff0000;stroke-linejoin:miter;" x="1131.473002" xlink:href="#m870b785425" y="107.312737"/>
     <use style="fill:#ff0000;stroke:#ff0000;stroke-linejoin:miter;" x="1141.354771" xlink:href="#m870b785425" y="105.651996"/>
     <use style="fill:#ff0000;stroke:#ff0000;stroke-linejoin:miter;" x="1150.950588" xlink:href="#m870b785425" y="103.991421"/>
     <use style="fill:#ff0000;stroke:#ff0000;stroke-linejoin:miter;" x="1160.396396" xlink:href="#m870b785425" y="102.321183"/>
     <use style="fill:#ff0000;stroke:#ff0000;stroke-linejoin:miter;" x="1170.10003" xlink:href="#m870b785425" y="100.657776"/>
     <use style="fill:#ff0000;stroke:#ff0000;stroke-linejoin:miter;" x="1179.559902" xlink:href="#m870b785425" y="98.986039"/>
     <use style="fill:#ff0000;stroke:#ff0000;stroke-linejoin:miter;" x="1194.073164" xlink:href="#m870b785425" y="97.495071"/>
     <use style="fill:#ff0000;stroke:#ff0000;stroke-linejoin:miter;" x="1203.673668" xlink:href="#m870b785425" y="95.829998"/>
     <use style="fill:#ff0000;stroke:#ff0000;stroke-linejoin:miter;" x="1213.592939" xlink:href="#m870b785425" y="94.173255"/>
     <use style="fill:#ff0000;stroke:#ff0000;stroke-linejoin:miter;" x="1223.104376" xlink:href="#m870b785425" y="92.502851"/>
     <use style="fill:#ff0000;stroke:#ff0000;stroke-linejoin:miter;" x="1235.644097" xlink:href="#m870b785425" y="90.941741"/>
     <use style="fill:#ff0000;stroke:#ff0000;stroke-linejoin:miter;" x="1245.272727" xlink:href="#m870b785425" y="89.28"/>
    </g>
   </g>
   <g id="line2d_13">
    <path clip-path="url(#p48a98121c7)" d="M 230.727273 432.511617 
L 247.546906 431.105618 
L 264.938444 429.719112 
L 274.412379 428.048541 
L 286.267689 426.46244 
L 295.465047 424.782706 
L 304.62959 423.101139 
L 314.75981 421.452726 
L 324.350938 419.78782 
L 334.429592 418.137075 
L 343.973844 416.470503 
L 353.583723 414.803431 
L 363.301421 413.142856 
L 372.775356 411.472952 
L 382.779006 409.818708 
L 392.267004 408.14947 
L 401.764378 406.480065 
L 411.350819 404.811827 
L 420.740374 403.141589 
L 430.533076 401.479681 
L 439.964821 399.808777 
L 449.382503 398.135207 
L 458.973631 396.469634 
L 468.363187 394.797564 
L 482.824884 393.303263 
L 492.336321 391.634359 
L 502.663425 389.992777 
L 512.292056 388.32937 
L 524.259872 386.746102 
L 533.677554 385.073864 
L 543.071797 383.401461 
L 552.65355 381.733555 
L 562.000916 380.058819 
L 571.685799 378.395246 
L 581.178485 376.727007 
L 590.666483 375.056936 
L 600.40762 373.393862 
L 610.055001 371.730622 
L 620.072715 370.079544 
L 629.574776 368.410473 
L 639.194031 366.745733 
L 648.883602 365.079494 
L 663.55156 363.592191 
L 673.288009 361.931783 
L 682.83226 360.265877 
L 692.784345 358.613299 
L 702.202027 356.939063 
L 713.658878 355.340466 
L 723.207817 353.671061 
L 732.83176 352.006988 
L 742.563521 350.344914 
L 752.21559 348.679341 
L 767.010117 347.196537 
L 776.929388 345.544126 
L 786.872097 343.890882 
L 796.30853 342.219311 
L 808.295097 340.636209 
L 817.844036 338.97047 
L 827.482042 337.303897 
L 837.166925 335.642656 
L 846.758054 333.974918 
L 856.635135 332.319341 
L 866.118445 330.647104 
L 875.526752 328.974701 
L 885.197572 327.312127 
L 894.563689 325.638723 
L 908.931631 324.141757 
L 918.382127 322.470353 
L 928.259208 320.813611 
L 937.962842 319.152203 
L 950.441623 317.586095 
L 959.948372 315.914024 
L 969.366054 314.244286 
L 978.929056 312.577047 
L 988.276422 130.326031 
L 998.017558 128.66529 
L 1008.293098 127.026541 
L 1017.902977 125.357969 
L 1027.620675 123.698728 
L 1037.103985 122.025491 
L 1051.879761 120.546518 
L 1061.461514 118.878113 
L 1071.615172 117.232533 
L 1081.131297 115.560629 
L 1093.131927 113.982359 
L 1102.835561 112.317286 
L 1112.286058 110.646048 
L 1121.966253 108.982641 
L 1131.473002 107.312737 
L 1141.354771 105.651996 
L 1150.950588 103.991421 
L 1160.396396 102.321183 
L 1170.10003 100.657776 
L 1179.559902 98.986039 
L 1194.073164 97.495071 
L 1203.673668 95.829998 
L 1213.592939 94.173255 
L 1223.104376 92.502851 
L 1235.644097 90.941741 
L 1245.272727 89.28 
" style="fill:none;stroke:#800080;stroke-dasharray:9.6,2.4,1.5,2.4;stroke-dashoffset:0;stroke-width:1.5;"/>
    <defs>
     <path d="M -3 3 
L 3 -3 
M -3 -3 
L 3 3 
" id="mef1e3e5291" style="stroke:#800080;"/>
    </defs>
    <g clip-path="url(#p48a98121c7)">
     <use style="fill:#800080;stroke:#800080;" x="230.727273" xlink:href="#mef1e3e5291" y="432.511617"/>
     <use style="fill:#800080;stroke:#800080;" x="247.546906" xlink:href="#mef1e3e5291" y="431.105618"/>
     <use style="fill:#800080;stroke:#800080;" x="264.938444" xlink:href="#mef1e3e5291" y="429.719112"/>
     <use style="fill:#800080;stroke:#800080;" x="274.412379" xlink:href="#mef1e3e5291" y="428.048541"/>
     <use style="fill:#800080;stroke:#800080;" x="286.267689" xlink:href="#mef1e3e5291" y="426.46244"/>
     <use style="fill:#800080;stroke:#800080;" x="295.465047" xlink:href="#mef1e3e5291" y="424.782706"/>
     <use style="fill:#800080;stroke:#800080;" x="304.62959" xlink:href="#mef1e3e5291" y="423.101139"/>
     <use style="fill:#800080;stroke:#800080;" x="314.75981" xlink:href="#mef1e3e5291" y="421.452726"/>
     <use style="fill:#800080;stroke:#800080;" x="324.350938" xlink:href="#mef1e3e5291" y="419.78782"/>
     <use style="fill:#800080;stroke:#800080;" x="334.429592" xlink:href="#mef1e3e5291" y="418.137075"/>
     <use style="fill:#800080;stroke:#800080;" x="343.973844" xlink:href="#mef1e3e5291" y="416.470503"/>
     <use style="fill:#800080;stroke:#800080;" x="353.583723" xlink:href="#mef1e3e5291" y="414.803431"/>
     <use style="fill:#800080;stroke:#800080;" x="363.301421" xlink:href="#mef1e3e5291" y="413.142856"/>
     <use style="fill:#800080;stroke:#800080;" x="372.775356" xlink:href="#mef1e3e5291" y="411.472952"/>
     <use style="fill:#800080;stroke:#800080;" x="382.779006" xlink:href="#mef1e3e5291" y="409.818708"/>
     <use style="fill:#800080;stroke:#800080;" x="392.267004" xlink:href="#mef1e3e5291" y="408.14947"/>
     <use style="fill:#800080;stroke:#800080;" x="401.764378" xlink:href="#mef1e3e5291" y="406.480065"/>
     <use style="fill:#800080;stroke:#800080;" x="411.350819" xlink:href="#mef1e3e5291" y="404.811827"/>
     <use style="fill:#800080;stroke:#800080;" x="420.740374" xlink:href="#mef1e3e5291" y="403.141589"/>
     <use style="fill:#800080;stroke:#800080;" x="430.533076" xlink:href="#mef1e3e5291" y="401.479681"/>
     <use style="fill:#800080;stroke:#800080;" x="439.964821" xlink:href="#mef1e3e5291" y="399.808777"/>
     <use style="fill:#800080;stroke:#800080;" x="449.382503" xlink:href="#mef1e3e5291" y="398.135207"/>
     <use style="fill:#800080;stroke:#800080;" x="458.973631" xlink:href="#mef1e3e5291" y="396.469634"/>
     <use style="fill:#800080;stroke:#800080;" x="468.363187" xlink:href="#mef1e3e5291" y="394.797564"/>
     <use style="fill:#800080;stroke:#800080;" x="482.824884" xlink:href="#mef1e3e5291" y="393.303263"/>
     <use style="fill:#800080;stroke:#800080;" x="492.336321" xlink:href="#mef1e3e5291" y="391.634359"/>
     <use style="fill:#800080;stroke:#800080;" x="502.663425" xlink:href="#mef1e3e5291" y="389.992777"/>
     <use style="fill:#800080;stroke:#800080;" x="512.292056" xlink:href="#mef1e3e5291" y="388.32937"/>
     <use style="fill:#800080;stroke:#800080;" x="524.259872" xlink:href="#mef1e3e5291" y="386.746102"/>
     <use style="fill:#800080;stroke:#800080;" x="533.677554" xlink:href="#mef1e3e5291" y="385.073864"/>
     <use style="fill:#800080;stroke:#800080;" x="543.071797" xlink:href="#mef1e3e5291" y="383.401461"/>
     <use style="fill:#800080;stroke:#800080;" x="552.65355" xlink:href="#mef1e3e5291" y="381.733555"/>
     <use style="fill:#800080;stroke:#800080;" x="562.000916" xlink:href="#mef1e3e5291" y="380.058819"/>
     <use style="fill:#800080;stroke:#800080;" x="571.685799" xlink:href="#mef1e3e5291" y="378.395246"/>
     <use style="fill:#800080;stroke:#800080;" x="581.178485" xlink:href="#mef1e3e5291" y="376.727007"/>
     <use style="fill:#800080;stroke:#800080;" x="590.666483" xlink:href="#mef1e3e5291" y="375.056936"/>
     <use style="fill:#800080;stroke:#800080;" x="600.40762" xlink:href="#mef1e3e5291" y="373.393862"/>
     <use style="fill:#800080;stroke:#800080;" x="610.055001" xlink:href="#mef1e3e5291" y="371.730622"/>
     <use style="fill:#800080;stroke:#800080;" x="620.072715" xlink:href="#mef1e3e5291" y="370.079544"/>
     <use style="fill:#800080;stroke:#800080;" x="629.574776" xlink:href="#mef1e3e5291" y="368.410473"/>
     <use style="fill:#800080;stroke:#800080;" x="639.194031" xlink:href="#mef1e3e5291" y="366.745733"/>
     <use style="fill:#800080;stroke:#800080;" x="648.883602" xlink:href="#mef1e3e5291" y="365.079494"/>
     <use style="fill:#800080;stroke:#800080;" x="663.55156" xlink:href="#mef1e3e5291" y="363.592191"/>
     <use style="fill:#800080;stroke:#800080;" x="673.288009" xlink:href="#mef1e3e5291" y="361.931783"/>
     <use style="fill:#800080;stroke:#800080;" x="682.83226" xlink:href="#mef1e3e5291" y="360.265877"/>
     <use style="fill:#800080;stroke:#800080;" x="692.784345" xlink:href="#mef1e3e5291" y="358.613299"/>
     <use style="fill:#800080;stroke:#800080;" x="702.202027" xlink:href="#mef1e3e5291" y="356.939063"/>
     <use style="fill:#800080;stroke:#800080;" x="713.658878" xlink:href="#mef1e3e5291" y="355.340466"/>
     <use style="fill:#800080;stroke:#800080;" x="723.207817" xlink:href="#mef1e3e5291" y="353.671061"/>
     <use style="fill:#800080;stroke:#800080;" x="732.83176" xlink:href="#mef1e3e5291" y="352.006988"/>
     <use style="fill:#800080;stroke:#800080;" x="742.563521" xlink:href="#mef1e3e5291" y="350.344914"/>
     <use style="fill:#800080;stroke:#800080;" x="752.21559" xlink:href="#mef1e3e5291" y="348.679341"/>
     <use style="fill:#800080;stroke:#800080;" x="767.010117" xlink:href="#mef1e3e5291" y="347.196537"/>
     <use style="fill:#800080;stroke:#800080;" x="776.929388" xlink:href="#mef1e3e5291" y="345.544126"/>
     <use style="fill:#800080;stroke:#800080;" x="786.872097" xlink:href="#mef1e3e5291" y="343.890882"/>
     <use style="fill:#800080;stroke:#800080;" x="796.30853" xlink:href="#mef1e3e5291" y="342.219311"/>
     <use style="fill:#800080;stroke:#800080;" x="808.295097" xlink:href="#mef1e3e5291" y="340.636209"/>
     <use style="fill:#800080;stroke:#800080;" x="817.844036" xlink:href="#mef1e3e5291" y="338.97047"/>
     <use style="fill:#800080;stroke:#800080;" x="827.482042" xlink:href="#mef1e3e5291" y="337.303897"/>
     <use style="fill:#800080;stroke:#800080;" x="837.166925" xlink:href="#mef1e3e5291" y="335.642656"/>
     <use style="fill:#800080;stroke:#800080;" x="846.758054" xlink:href="#mef1e3e5291" y="333.974918"/>
     <use style="fill:#800080;stroke:#800080;" x="856.635135" xlink:href="#mef1e3e5291" y="332.319341"/>
     <use style="fill:#800080;stroke:#800080;" x="866.118445" xlink:href="#mef1e3e5291" y="330.647104"/>
     <use style="fill:#800080;stroke:#800080;" x="875.526752" xlink:href="#mef1e3e5291" y="328.974701"/>
     <use style="fill:#800080;stroke:#800080;" x="885.197572" xlink:href="#mef1e3e5291" y="327.312127"/>
     <use style="fill:#800080;stroke:#800080;" x="894.563689" xlink:href="#mef1e3e5291" y="325.638723"/>
     <use style="fill:#800080;stroke:#800080;" x="908.931631" xlink:href="#mef1e3e5291" y="324.141757"/>
     <use style="fill:#800080;stroke:#800080;" x="918.382127" xlink:href="#mef1e3e5291" y="322.470353"/>
     <use style="fill:#800080;stroke:#800080;" x="928.259208" xlink:href="#mef1e3e5291" y="320.813611"/>
     <use style="fill:#800080;stroke:#800080;" x="937.962842" xlink:href="#mef1e3e5291" y="319.152203"/>
     <use style="fill:#800080;stroke:#800080;" x="950.441623" xlink:href="#mef1e3e5291" y="317.586095"/>
     <use style="fill:#800080;stroke:#800080;" x="959.948372" xlink:href="#mef1e3e5291" y="315.914024"/>
     <use style="fill:#800080;stroke:#800080;" x="969.366054" xlink:href="#mef1e3e5291" y="314.244286"/>
     <use style="fill:#800080;stroke:#800080;" x="978.929056" xlink:href="#mef1e3e5291" y="312.577047"/>
     <use style="fill:#800080;stroke:#800080;" x="988.276422" xlink:href="#mef1e3e5291" y="130.326031"/>
     <use style="fill:#800080;stroke:#800080;" x="998.017558" xlink:href="#mef1e3e5291" y="128.66529"/>
     <use style="fill:#800080;stroke:#800080;" x="1008.293098" xlink:href="#mef1e3e5291" y="127.026541"/>
     <use style="fill:#800080;stroke:#800080;" x="1017.902977" xlink:href="#mef1e3e5291" y="125.357969"/>
     <use style="fill:#800080;stroke:#800080;" x="1027.620675" xlink:href="#mef1e3e5291" y="123.698728"/>
     <use style="fill:#800080;stroke:#800080;" x="1037.103985" xlink:href="#mef1e3e5291" y="122.025491"/>
     <use style="fill:#800080;stroke:#800080;" x="1051.879761" xlink:href="#mef1e3e5291" y="120.546518"/>
     <use style="fill:#800080;stroke:#800080;" x="1061.461514" xlink:href="#mef1e3e5291" y="118.878113"/>
     <use style="fill:#800080;stroke:#800080;" x="1071.615172" xlink:href="#mef1e3e5291" y="117.232533"/>
     <use style="fill:#800080;stroke:#800080;" x="1081.131297" xlink:href="#mef1e3e5291" y="115.560629"/>
     <use style="fill:#800080;stroke:#800080;" x="1093.131927" xlink:href="#mef1e3e5291" y="113.982359"/>
     <use style="fill:#800080;stroke:#800080;" x="1102.835561" xlink:href="#mef1e3e5291" y="112.317286"/>
     <use style="fill:#800080;stroke:#800080;" x="1112.286058" xlink:href="#mef1e3e5291" y="110.646048"/>
     <use style="fill:#800080;stroke:#800080;" x="1121.966253" xlink:href="#mef1e3e5291" y="108.982641"/>
     <use style="fill:#800080;stroke:#800080;" x="1131.473002" xlink:href="#mef1e3e5291" y="107.312737"/>
     <use style="fill:#800080;stroke:#800080;" x="1141.354771" xlink:href="#mef1e3e5291" y="105.651996"/>
     <use style="fill:#800080;stroke:#800080;" x="1150.950588" xlink:href="#mef1e3e5291" y="103.991421"/>
     <use style="fill:#800080;stroke:#800080;" x="1160.396396" xlink:href="#mef1e3e5291" y="102.321183"/>
     <use style="fill:#800080;stroke:#800080;" x="1170.10003" xlink:href="#mef1e3e5291" y="100.657776"/>
     <use style="fill:#800080;stroke:#800080;" x="1179.559902" xlink:href="#mef1e3e5291" y="98.986039"/>
     <use style="fill:#800080;stroke:#800080;" x="1194.073164" xlink:href="#mef1e3e5291" y="97.495071"/>
     <use style="fill:#800080;stroke:#800080;" x="1203.673668" xlink:href="#mef1e3e5291" y="95.829998"/>
     <use style="fill:#800080;stroke:#800080;" x="1213.592939" xlink:href="#mef1e3e5291" y="94.173255"/>
     <use style="fill:#800080;stroke:#800080;" x="1223.104376" xlink:href="#mef1e3e5291" y="92.502851"/>
     <use style="fill:#800080;stroke:#800080;" x="1235.644097" xlink:href="#mef1e3e5291" y="90.941741"/>
     <use style="fill:#800080;stroke:#800080;" x="1245.272727" xlink:href="#mef1e3e5291" y="89.28"/>
    </g>
   </g>
   <g id="line2d_14">
    <path clip-path="url(#p48a98121c7)" d="M 230.727273 492.395711 
L 247.546906 486.191984 
L 264.938444 479.777316 
L 274.412379 476.282965 
L 286.267689 471.910271 
L 295.465047 468.517932 
L 304.62959 465.137696 
L 314.75981 461.401281 
L 324.350938 457.863705 
L 334.429592 454.14631 
L 343.973844 450.626023 
L 353.583723 447.08153 
L 363.301421 443.49727 
L 372.775356 440.002918 
L 382.779006 436.313188 
L 392.267004 432.813649 
L 401.764378 429.310653 
L 411.350819 425.774805 
L 420.740374 422.311576 
L 430.533076 418.699652 
L 439.964821 415.220861 
L 449.382503 411.747258 
L 458.973631 408.209682 
L 468.363187 404.746453 
L 482.824884 399.412423 
L 492.336321 395.90424 
L 502.663425 392.095207 
L 512.292056 388.543798 
L 524.259872 384.129607 
L 533.677554 380.656004 
L 543.071797 377.191046 
L 552.65355 373.656927 
L 562.000916 370.20926 
L 571.685799 366.637102 
L 581.178485 363.135835 
L 590.666483 359.636297 
L 600.40762 356.043391 
L 610.055001 352.485066 
L 620.072715 348.790148 
L 629.574776 345.285423 
L 639.194031 341.737472 
L 648.883602 338.163586 
L 663.55156 332.753479 
L 673.288009 329.162303 
L 682.83226 325.642016 
L 692.784345 321.971305 
L 702.202027 318.497702 
L 713.658878 314.271975 
L 723.207817 310.749959 
L 732.83176 307.200279 
L 742.563521 303.610831 
L 752.21559 300.050777 
L 767.010117 294.593987 
L 776.929388 290.935379 
L 786.872097 287.268126 
L 796.30853 283.787607 
L 808.295097 279.3665 
L 817.844036 275.844484 
L 827.482042 272.289617 
L 837.166925 268.71746 
L 846.758054 265.179883 
L 856.635135 261.536836 
L 866.118445 258.039027 
L 875.526752 254.568882 
L 885.197572 251.001912 
L 894.563689 247.547328 
L 908.931631 242.247879 
L 918.382127 238.762173 
L 928.259208 235.119125 
L 937.962842 231.540052 
L 950.441623 226.937398 
L 959.948372 223.430944 
L 969.366054 219.957341 
L 978.929056 216.430138 
L 988.276422 212.98247 
L 998.017558 209.389565 
L 1008.293098 205.599551 
L 1017.902977 202.055058 
L 1027.620675 198.470798 
L 1037.103985 194.972989 
L 1051.879761 189.523115 
L 1061.461514 185.988996 
L 1071.615172 182.243936 
L 1081.131297 178.734024 
L 1093.131927 174.30773 
L 1102.835561 170.728657 
L 1112.286058 167.242951 
L 1121.966253 163.672523 
L 1131.473002 160.166068 
L 1141.354771 156.521292 
L 1150.950588 152.981986 
L 1160.396396 149.498009 
L 1170.10003 145.918936 
L 1179.559902 142.429772 
L 1194.073164 137.076723 
L 1203.673668 133.535688 
L 1213.592939 129.87708 
L 1223.104376 126.368896 
L 1235.644097 121.743765 
L 1245.272727 118.192356 
" style="fill:none;stroke:#0000ff;stroke-linecap:square;stroke-width:1.5;"/>
   </g>
   <g id="line2d_15">
    <path clip-path="url(#p48a98121c7)" d="M 230.727273 492.48 
L 247.546906 492.466572 
L 264.938444 492.452687 
L 274.412379 492.445124 
L 286.267689 492.435659 
L 295.465047 492.428316 
L 304.62959 492.421 
L 314.75981 492.412912 
L 324.350938 492.405255 
L 334.429592 492.397209 
L 343.973844 492.389589 
L 353.583723 492.381917 
L 363.301421 492.374159 
L 372.775356 492.366595 
L 382.779006 492.358609 
L 392.267004 492.351034 
L 401.764378 492.343451 
L 411.350819 492.335798 
L 420.740374 492.328302 
L 430.533076 492.320484 
L 439.964821 492.312954 
L 449.382503 492.305435 
L 458.973631 492.297778 
L 468.363187 492.290282 
L 482.824884 492.278736 
L 492.336321 492.271143 
L 502.663425 492.262898 
L 512.292056 492.255211 
L 524.259872 492.245656 
L 533.677554 492.238138 
L 543.071797 492.230638 
L 552.65355 492.222988 
L 562.000916 492.215526 
L 571.685799 492.207794 
L 581.178485 492.200215 
L 590.666483 492.19264 
L 600.40762 492.184863 
L 610.055001 492.177161 
L 620.072715 492.169164 
L 629.574776 492.161578 
L 639.194031 492.153898 
L 648.883602 492.146162 
L 663.55156 492.134452 
L 673.288009 492.126679 
L 682.83226 492.119059 
L 692.784345 492.111114 
L 702.202027 492.103595 
L 713.658878 492.094449 
L 723.207817 492.086825 
L 732.83176 492.079142 
L 742.563521 492.071372 
L 752.21559 492.063667 
L 767.010117 492.051855 
L 776.929388 492.043936 
L 786.872097 492.035998 
L 796.30853 492.028465 
L 808.295097 492.018895 
L 817.844036 492.011272 
L 827.482042 492.003577 
L 837.166925 491.995845 
L 846.758054 491.988188 
L 856.635135 491.980303 
L 866.118445 491.972731 
L 875.526752 491.96522 
L 885.197572 491.9575 
L 894.563689 491.950022 
L 908.931631 491.938551 
L 918.382127 491.931006 
L 928.259208 491.923121 
L 937.962842 491.915374 
L 950.441623 491.905412 
L 959.948372 491.897822 
L 969.366054 491.890303 
L 978.929056 491.882668 
L 988.276422 491.875206 
L 998.017558 491.867429 
L 1008.293098 491.859225 
L 1017.902977 491.851553 
L 1027.620675 491.843795 
L 1037.103985 491.836224 
L 1051.879761 491.824428 
L 1061.461514 491.816778 
L 1071.615172 491.808672 
L 1081.131297 491.801075 
L 1093.131927 491.791494 
L 1102.835561 491.783747 
L 1112.286058 491.776202 
L 1121.966253 491.768474 
L 1131.473002 491.760884 
L 1141.354771 491.752995 
L 1150.950588 491.745334 
L 1160.396396 491.737793 
L 1170.10003 491.730046 
L 1179.559902 491.722494 
L 1194.073164 491.710907 
L 1203.673668 491.703242 
L 1213.592939 491.695323 
L 1223.104376 491.68773 
L 1235.644097 491.677718 
L 1245.272727 491.670031 
" style="fill:none;stroke:#008000;stroke-linecap:square;stroke-width:1.5;"/>
    <defs>
     <path d="M 0 3 
C 0.795609 3 1.55874 2.683901 2.12132 2.12132 
C 2.683901 1.55874 3 0.795609 3 0 
C 3 -0.795609 2.683901 -1.55874 2.12132 -2.12132 
C 1.55874 -2.683901 0.795609 -3 0 -3 
C -0.795609 -3 -1.55874 -2.683901 -2.12132 -2.12132 
C -2.683901 -1.55874 -3 -0.795609 -3 0 
C -3 0.795609 -2.683901 1.55874 -2.12132 2.12132 
C -1.55874 2.683901 -0.795609 3 0 3 
z
" id="m4242c97282" style="stroke:#008000;"/>
    </defs>
    <g clip-path="url(#p48a98121c7)">
     <use style="fill:#008000;stroke:#008000;" x="230.727273" xlink:href="#m4242c97282" y="492.48"/>
     <use style="fill:#008000;stroke:#008000;" x="247.546906" xlink:href="#m4242c97282" y="492.466572"/>
     <use style="fill:#008000;stroke:#008000;" x="264.938444" xlink:href="#m4242c97282" y="492.452687"/>
     <use style="fill:#008000;stroke:#008000;" x="274.412379" xlink:href="#m4242c97282" y="492.445124"/>
     <use style="fill:#008000;stroke:#008000;" x="286.267689" xlink:href="#m4242c97282" y="492.435659"/>
     <use style="fill:#008000;stroke:#008000;" x="295.465047" xlink:href="#m4242c97282" y="492.428316"/>
     <use style="fill:#008000;stroke:#008000;" x="304.62959" xlink:href="#m4242c97282" y="492.421"/>
     <use style="fill:#008000;stroke:#008000;" x="314.75981" xlink:href="#m4242c97282" y="492.412912"/>
     <use style="fill:#008000;stroke:#008000;" x="324.350938" xlink:href="#m4242c97282" y="492.405255"/>
     <use style="fill:#008000;stroke:#008000;" x="334.429592" xlink:href="#m4242c97282" y="492.397209"/>
     <use style="fill:#008000;stroke:#008000;" x="343.973844" xlink:href="#m4242c97282" y="492.389589"/>
     <use style="fill:#008000;stroke:#008000;" x="353.583723" xlink:href="#m4242c97282" y="492.381917"/>
     <use style="fill:#008000;stroke:#008000;" x="363.301421" xlink:href="#m4242c97282" y="492.374159"/>
     <use style="fill:#008000;stroke:#008000;" x="372.775356" xlink:href="#m4242c97282" y="492.366595"/>
     <use style="fill:#008000;stroke:#008000;" x="382.779006" xlink:href="#m4242c97282" y="492.358609"/>
     <use style="fill:#008000;stroke:#008000;" x="392.267004" xlink:href="#m4242c97282" y="492.351034"/>
     <use style="fill:#008000;stroke:#008000;" x="401.764378" xlink:href="#m4242c97282" y="492.343451"/>
     <use style="fill:#008000;stroke:#008000;" x="411.350819" xlink:href="#m4242c97282" y="492.335798"/>
     <use style="fill:#008000;stroke:#008000;" x="420.740374" xlink:href="#m4242c97282" y="492.328302"/>
     <use style="fill:#008000;stroke:#008000;" x="430.533076" xlink:href="#m4242c97282" y="492.320484"/>
     <use style="fill:#008000;stroke:#008000;" x="439.964821" xlink:href="#m4242c97282" y="492.312954"/>
     <use style="fill:#008000;stroke:#008000;" x="449.382503" xlink:href="#m4242c97282" y="492.305435"/>
     <use style="fill:#008000;stroke:#008000;" x="458.973631" xlink:href="#m4242c97282" y="492.297778"/>
     <use style="fill:#008000;stroke:#008000;" x="468.363187" xlink:href="#m4242c97282" y="492.290282"/>
     <use style="fill:#008000;stroke:#008000;" x="482.824884" xlink:href="#m4242c97282" y="492.278736"/>
     <use style="fill:#008000;stroke:#008000;" x="492.336321" xlink:href="#m4242c97282" y="492.271143"/>
     <use style="fill:#008000;stroke:#008000;" x="502.663425" xlink:href="#m4242c97282" y="492.262898"/>
     <use style="fill:#008000;stroke:#008000;" x="512.292056" xlink:href="#m4242c97282" y="492.255211"/>
     <use style="fill:#008000;stroke:#008000;" x="524.259872" xlink:href="#m4242c97282" y="492.245656"/>
     <use style="fill:#008000;stroke:#008000;" x="533.677554" xlink:href="#m4242c97282" y="492.238138"/>
     <use style="fill:#008000;stroke:#008000;" x="543.071797" xlink:href="#m4242c97282" y="492.230638"/>
     <use style="fill:#008000;stroke:#008000;" x="552.65355" xlink:href="#m4242c97282" y="492.222988"/>
     <use style="fill:#008000;stroke:#008000;" x="562.000916" xlink:href="#m4242c97282" y="492.215526"/>
     <use style="fill:#008000;stroke:#008000;" x="571.685799" xlink:href="#m4242c97282" y="492.207794"/>
     <use style="fill:#008000;stroke:#008000;" x="581.178485" xlink:href="#m4242c97282" y="492.200215"/>
     <use style="fill:#008000;stroke:#008000;" x="590.666483" xlink:href="#m4242c97282" y="492.19264"/>
     <use style="fill:#008000;stroke:#008000;" x="600.40762" xlink:href="#m4242c97282" y="492.184863"/>
     <use style="fill:#008000;stroke:#008000;" x="610.055001" xlink:href="#m4242c97282" y="492.177161"/>
     <use style="fill:#008000;stroke:#008000;" x="620.072715" xlink:href="#m4242c97282" y="492.169164"/>
     <use style="fill:#008000;stroke:#008000;" x="629.574776" xlink:href="#m4242c97282" y="492.161578"/>
     <use style="fill:#008000;stroke:#008000;" x="639.194031" xlink:href="#m4242c97282" y="492.153898"/>
     <use style="fill:#008000;stroke:#008000;" x="648.883602" xlink:href="#m4242c97282" y="492.146162"/>
     <use style="fill:#008000;stroke:#008000;" x="663.55156" xlink:href="#m4242c97282" y="492.134452"/>
     <use style="fill:#008000;stroke:#008000;" x="673.288009" xlink:href="#m4242c97282" y="492.126679"/>
     <use style="fill:#008000;stroke:#008000;" x="682.83226" xlink:href="#m4242c97282" y="492.119059"/>
     <use style="fill:#008000;stroke:#008000;" x="692.784345" xlink:href="#m4242c97282" y="492.111114"/>
     <use style="fill:#008000;stroke:#008000;" x="702.202027" xlink:href="#m4242c97282" y="492.103595"/>
     <use style="fill:#008000;stroke:#008000;" x="713.658878" xlink:href="#m4242c97282" y="492.094449"/>
     <use style="fill:#008000;stroke:#008000;" x="723.207817" xlink:href="#m4242c97282" y="492.086825"/>
     <use style="fill:#008000;stroke:#008000;" x="732.83176" xlink:href="#m4242c97282" y="492.079142"/>
     <use style="fill:#008000;stroke:#008000;" x="742.563521" xlink:href="#m4242c97282" y="492.071372"/>
     <use style="fill:#008000;stroke:#008000;" x="752.21559" xlink:href="#m4242c97282" y="492.063667"/>
     <use style="fill:#008000;stroke:#008000;" x="767.010117" xlink:href="#m4242c97282" y="492.051855"/>
     <use style="fill:#008000;stroke:#008000;" x="776.929388" xlink:href="#m4242c97282" y="492.043936"/>
     <use style="fill:#008000;stroke:#008000;" x="786.872097" xlink:href="#m4242c97282" y="492.035998"/>
     <use style="fill:#008000;stroke:#008000;" x="796.30853" xlink:href="#m4242c97282" y="492.028465"/>
     <use style="fill:#008000;stroke:#008000;" x="808.295097" xlink:href="#m4242c97282" y="492.018895"/>
     <use style="fill:#008000;stroke:#008000;" x="817.844036" xlink:href="#m4242c97282" y="492.011272"/>
     <use style="fill:#008000;stroke:#008000;" x="827.482042" xlink:href="#m4242c97282" y="492.003577"/>
     <use style="fill:#008000;stroke:#008000;" x="837.166925" xlink:href="#m4242c97282" y="491.995845"/>
     <use style="fill:#008000;stroke:#008000;" x="846.758054" xlink:href="#m4242c97282" y="491.988188"/>
     <use style="fill:#008000;stroke:#008000;" x="856.635135" xlink:href="#m4242c97282" y="491.980303"/>
     <use style="fill:#008000;stroke:#008000;" x="866.118445" xlink:href="#m4242c97282" y="491.972731"/>
     <use style="fill:#008000;stroke:#008000;" x="875.526752" xlink:href="#m4242c97282" y="491.96522"/>
     <use style="fill:#008000;stroke:#008000;" x="885.197572" xlink:href="#m4242c97282" y="491.9575"/>
     <use style="fill:#008000;stroke:#008000;" x="894.563689" xlink:href="#m4242c97282" y="491.950022"/>
     <use style="fill:#008000;stroke:#008000;" x="908.931631" xlink:href="#m4242c97282" y="491.938551"/>
     <use style="fill:#008000;stroke:#008000;" x="918.382127" xlink:href="#m4242c97282" y="491.931006"/>
     <use style="fill:#008000;stroke:#008000;" x="928.259208" xlink:href="#m4242c97282" y="491.923121"/>
     <use style="fill:#008000;stroke:#008000;" x="937.962842" xlink:href="#m4242c97282" y="491.915374"/>
     <use style="fill:#008000;stroke:#008000;" x="950.441623" xlink:href="#m4242c97282" y="491.905412"/>
     <use style="fill:#008000;stroke:#008000;" x="959.948372" xlink:href="#m4242c97282" y="491.897822"/>
     <use style="fill:#008000;stroke:#008000;" x="969.366054" xlink:href="#m4242c97282" y="491.890303"/>
     <use style="fill:#008000;stroke:#008000;" x="978.929056" xlink:href="#m4242c97282" y="491.882668"/>
     <use style="fill:#008000;stroke:#008000;" x="988.276422" xlink:href="#m4242c97282" y="491.875206"/>
     <use style="fill:#008000;stroke:#008000;" x="998.017558" xlink:href="#m4242c97282" y="491.867429"/>
     <use style="fill:#008000;stroke:#008000;" x="1008.293098" xlink:href="#m4242c97282" y="491.859225"/>
     <use style="fill:#008000;stroke:#008000;" x="1017.902977" xlink:href="#m4242c97282" y="491.851553"/>
     <use style="fill:#008000;stroke:#008000;" x="1027.620675" xlink:href="#m4242c97282" y="491.843795"/>
     <use style="fill:#008000;stroke:#008000;" x="1037.103985" xlink:href="#m4242c97282" y="491.836224"/>
     <use style="fill:#008000;stroke:#008000;" x="1051.879761" xlink:href="#m4242c97282" y="491.824428"/>
     <use style="fill:#008000;stroke:#008000;" x="1061.461514" xlink:href="#m4242c97282" y="491.816778"/>
     <use style="fill:#008000;stroke:#008000;" x="1071.615172" xlink:href="#m4242c97282" y="491.808672"/>
     <use style="fill:#008000;stroke:#008000;" x="1081.131297" xlink:href="#m4242c97282" y="491.801075"/>
     <use style="fill:#008000;stroke:#008000;" x="1093.131927" xlink:href="#m4242c97282" y="491.791494"/>
     <use style="fill:#008000;stroke:#008000;" x="1102.835561" xlink:href="#m4242c97282" y="491.783747"/>
     <use style="fill:#008000;stroke:#008000;" x="1112.286058" xlink:href="#m4242c97282" y="491.776202"/>
     <use style="fill:#008000;stroke:#008000;" x="1121.966253" xlink:href="#m4242c97282" y="491.768474"/>
     <use style="fill:#008000;stroke:#008000;" x="1131.473002" xlink:href="#m4242c97282" y="491.760884"/>
     <use style="fill:#008000;stroke:#008000;" x="1141.354771" xlink:href="#m4242c97282" y="491.752995"/>
     <use style="fill:#008000;stroke:#008000;" x="1150.950588" xlink:href="#m4242c97282" y="491.745334"/>
     <use style="fill:#008000;stroke:#008000;" x="1160.396396" xlink:href="#m4242c97282" y="491.737793"/>
     <use style="fill:#008000;stroke:#008000;" x="1170.10003" xlink:href="#m4242c97282" y="491.730046"/>
     <use style="fill:#008000;stroke:#008000;" x="1179.559902" xlink:href="#m4242c97282" y="491.722494"/>
     <use style="fill:#008000;stroke:#008000;" x="1194.073164" xlink:href="#m4242c97282" y="491.710907"/>
     <use style="fill:#008000;stroke:#008000;" x="1203.673668" xlink:href="#m4242c97282" y="491.703242"/>
     <use style="fill:#008000;stroke:#008000;" x="1213.592939" xlink:href="#m4242c97282" y="491.695323"/>
     <use style="fill:#008000;stroke:#008000;" x="1223.104376" xlink:href="#m4242c97282" y="491.68773"/>
     <use style="fill:#008000;stroke:#008000;" x="1235.644097" xlink:href="#m4242c97282" y="491.677718"/>
     <use style="fill:#008000;stroke:#008000;" x="1245.272727" xlink:href="#m4242c97282" y="491.670031"/>
    </g>
   </g>
   <g id="patch_3">
    <path d="M 180 512.64 
L 180 69.12 
" style="fill:none;stroke:#000000;stroke-linecap:square;stroke-linejoin:miter;stroke-width:0.8;"/>
   </g>
   <g id="patch_4">
    <path d="M 1296 512.64 
L 1296 69.12 
" style="fill:none;stroke:#000000;stroke-linecap:square;stroke-linejoin:miter;stroke-width:0.8;"/>
   </g>
   <g id="patch_5">
    <path d="M 180 512.64 
L 1296 512.64 
" style="fill:none;stroke:#000000;stroke-linecap:square;stroke-linejoin:miter;stroke-width:0.8;"/>
   </g>
   <g id="patch_6">
    <path d="M 180 69.12 
L 1296 69.12 
" style="fill:none;stroke:#000000;stroke-linecap:square;stroke-linejoin:miter;stroke-width:0.8;"/>
   </g>
   <g id="text_12">
    <!-- 5000000.0 bit/s -->
    <defs>
     <path id="DejaVuSans-20"/>
     <path d="M 48.6875 27.296875 
Q 48.6875 37.203125 44.609375 42.84375 
Q 40.53125 48.484375 33.40625 48.484375 
Q 26.265625 48.484375 22.1875 42.84375 
Q 18.109375 37.203125 18.109375 27.296875 
Q 18.109375 17.390625 22.1875 11.75 
Q 26.265625 6.109375 33.40625 6.109375 
Q 40.53125 6.109375 44.609375 11.75 
Q 48.6875 17.390625 48.6875 27.296875 
z
M 18.109375 46.390625 
Q 20.953125 51.265625 25.265625 53.625 
Q 29.59375 56 35.59375 56 
Q 45.5625 56 51.78125 48.09375 
Q 58.015625 40.1875 58.015625 27.296875 
Q 58.015625 14.40625 51.78125 6.484375 
Q 45.5625 -1.421875 35.59375 -1.421875 
Q 29.59375 -1.421875 25.265625 0.953125 
Q 20.953125 3.328125 18.109375 8.203125 
L 18.109375 0 
L 9.078125 0 
L 9.078125 75.984375 
L 18.109375 75.984375 
z
" id="DejaVuSans-62"/>
     <path d="M 9.421875 54.6875 
L 18.40625 54.6875 
L 18.40625 0 
L 9.421875 0 
z
M 9.421875 75.984375 
L 18.40625 75.984375 
L 18.40625 64.59375 
L 9.421875 64.59375 
z
" id="DejaVuSans-69"/>
     <path d="M 18.3125 70.21875 
L 18.3125 54.6875 
L 36.8125 54.6875 
L 36.8125 47.703125 
L 18.3125 47.703125 
L 18.3125 18.015625 
Q 18.3125 11.328125 20.140625 9.421875 
Q 21.96875 7.515625 27.59375 7.515625 
L 36.8125 7.515625 
L 36.8125 0 
L 27.59375 0 
Q 17.1875 0 13.234375 3.875 
Q 9.28125 7.765625 9.28125 18.015625 
L 9.28125 47.703125 
L 2.6875 47.703125 
L 2.6875 54.6875 
L 9.28125 54.6875 
L 9.28125 70.21875 
z
" id="DejaVuSans-74"/>
     <path d="M 25.390625 72.90625 
L 33.6875 72.90625 
L 8.296875 -9.28125 
L 0 -9.28125 
z
" id="DejaVuSans-2f"/>
     <path d="M 44.28125 53.078125 
L 44.28125 44.578125 
Q 40.484375 46.53125 36.375 47.5 
Q 32.28125 48.484375 27.875 48.484375 
Q 21.1875 48.484375 17.84375 46.4375 
Q 14.5 44.390625 14.5 40.28125 
Q 14.5 37.15625 16.890625 35.375 
Q 19.28125 33.59375 26.515625 31.984375 
L 29.59375 31.296875 
Q 39.15625 29.25 43.1875 25.515625 
Q 47.21875 21.78125 47.21875 15.09375 
Q 47.21875 7.46875 41.1875 3.015625 
Q 35.15625 -1.421875 24.609375 -1.421875 
Q 20.21875 -1.421875 15.453125 -0.5625 
Q 10.6875 0.296875 5.421875 2 
L 5.421875 11.28125 
Q 10.40625 8.6875 15.234375 7.390625 
Q 20.0625 6.109375 24.8125 6.109375 
Q 31.15625 6.109375 34.5625 8.28125 
Q 37.984375 10.453125 37.984375 14.40625 
Q 37.984375 18.0625 35.515625 20.015625 
Q 33.0625 21.96875 24.703125 23.78125 
L 21.578125 24.515625 
Q 13.234375 26.265625 9.515625 29.90625 
Q 5.8125 33.546875 5.8125 39.890625 
Q 5.8125 47.609375 11.28125 51.796875 
Q 16.75 56 26.8125 56 
Q 31.78125 56 36.171875 55.265625 
Q 40.578125 54.546875 44.28125 53.078125 
z
" id="DejaVuSans-73"/>
    </defs>
    <g transform="translate(690.67125 63.12)scale(0.12 -0.12)">
     <use xlink:href="#DejaVuSans-35"/>
     <use x="63.623047" xlink:href="#DejaVuSans-30"/>
     <use x="127.246094" xlink:href="#DejaVuSans-30"/>
     <use x="190.869141" xlink:href="#DejaVuSans-30"/>
     <use x="254.492188" xlink:href="#DejaVuSans-30"/>
     <use x="318.115234" xlink:href="#DejaVuSans-30"/>
     <use x="381.738281" xlink:href="#DejaVuSans-30"/>
     <use x="445.361328" xlink:href="#DejaVuSans-2e"/>
     <use x="477.148438" xlink:href="#DejaVuSans-30"/>
     <use x="540.771484" xlink:href="#DejaVuSans-20"/>
     <use x="572.558594" xlink:href="#DejaVuSans-62"/>
     <use x="636.035156" xlink:href="#DejaVuSans-69"/>
     <use x="663.818359" xlink:href="#DejaVuSans-74"/>
     <use x="703.027344" xlink:href="#DejaVuSans-2f"/>
     <use x="736.71875" xlink:href="#DejaVuSans-73"/>
    </g>
   </g>
   <g id="legend_1">
    <g id="patch_7">
     <path d="M 1173.520313 135.8325 
L 1289 135.8325 
Q 1291 135.8325 1291 133.8325 
L 1291 76.12 
Q 1291 74.12 1289 74.12 
L 1173.520313 74.12 
Q 1171.520313 74.12 1171.520313 76.12 
L 1171.520313 133.8325 
Q 1171.520313 135.8325 1173.520313 135.8325 
z
" style="fill:#ffffff;opacity:0.8;stroke:#cccccc;stroke-linejoin:miter;"/>
    </g>
    <g id="line2d_16">
     <path d="M 1175.520313 82.218437 
L 1195.520313 82.218437 
" style="fill:none;stroke:#ff0000;stroke-dasharray:5.55,2.4;stroke-dashoffset:0;stroke-width:1.5;"/>
    </g>
    <g id="line2d_17">
     <g>
      <use style="fill:#ff0000;stroke:#ff0000;stroke-linejoin:miter;" x="1185.520313" xlink:href="#m870b785425" y="82.218437"/>
     </g>
    </g>
    <g id="text_13">
     <!-- tcpdump -->
     <defs>
      <path d="M 48.78125 52.59375 
L 48.78125 44.1875 
Q 44.96875 46.296875 41.140625 47.34375 
Q 37.3125 48.390625 33.40625 48.390625 
Q 24.65625 48.390625 19.8125 42.84375 
Q 14.984375 37.3125 14.984375 27.296875 
Q 14.984375 17.28125 19.8125 11.734375 
Q 24.65625 6.203125 33.40625 6.203125 
Q 37.3125 6.203125 41.140625 7.25 
Q 44.96875 8.296875 48.78125 10.40625 
L 48.78125 2.09375 
Q 45.015625 0.34375 40.984375 -0.53125 
Q 36.96875 -1.421875 32.421875 -1.421875 
Q 20.0625 -1.421875 12.78125 6.34375 
Q 5.515625 14.109375 5.515625 27.296875 
Q 5.515625 40.671875 12.859375 48.328125 
Q 20.21875 56 33.015625 56 
Q 37.15625 56 41.109375 55.140625 
Q 45.0625 54.296875 48.78125 52.59375 
z
" id="DejaVuSans-63"/>
      <path d="M 18.109375 8.203125 
L 18.109375 -20.796875 
L 9.078125 -20.796875 
L 9.078125 54.6875 
L 18.109375 54.6875 
L 18.109375 46.390625 
Q 20.953125 51.265625 25.265625 53.625 
Q 29.59375 56 35.59375 56 
Q 45.5625 56 51.78125 48.09375 
Q 58.015625 40.1875 58.015625 27.296875 
Q 58.015625 14.40625 51.78125 6.484375 
Q 45.5625 -1.421875 35.59375 -1.421875 
Q 29.59375 -1.421875 25.265625 0.953125 
Q 20.953125 3.328125 18.109375 8.203125 
z
M 48.6875 27.296875 
Q 48.6875 37.203125 44.609375 42.84375 
Q 40.53125 48.484375 33.40625 48.484375 
Q 26.265625 48.484375 22.1875 42.84375 
Q 18.109375 37.203125 18.109375 27.296875 
Q 18.109375 17.390625 22.1875 11.75 
Q 26.265625 6.109375 33.40625 6.109375 
Q 40.53125 6.109375 44.609375 11.75 
Q 48.6875 17.390625 48.6875 27.296875 
z
" id="DejaVuSans-70"/>
      <path d="M 45.40625 46.390625 
L 45.40625 75.984375 
L 54.390625 75.984375 
L 54.390625 0 
L 45.40625 0 
L 45.40625 8.203125 
Q 42.578125 3.328125 38.25 0.953125 
Q 33.9375 -1.421875 27.875 -1.421875 
Q 17.96875 -1.421875 11.734375 6.484375 
Q 5.515625 14.40625 5.515625 27.296875 
Q 5.515625 40.1875 11.734375 48.09375 
Q 17.96875 56 27.875 56 
Q 33.9375 56 38.25 53.625 
Q 42.578125 51.265625 45.40625 46.390625 
z
M 14.796875 27.296875 
Q 14.796875 17.390625 18.875 11.75 
Q 22.953125 6.109375 30.078125 6.109375 
Q 37.203125 6.109375 41.296875 11.75 
Q 45.40625 17.390625 45.40625 27.296875 
Q 45.40625 37.203125 41.296875 42.84375 
Q 37.203125 48.484375 30.078125 48.484375 
Q 22.953125 48.484375 18.875 42.84375 
Q 14.796875 37.203125 14.796875 27.296875 
z
" id="DejaVuSans-64"/>
      <path d="M 8.5 21.578125 
L 8.5 54.6875 
L 17.484375 54.6875 
L 17.484375 21.921875 
Q 17.484375 14.15625 20.5 10.265625 
Q 23.53125 6.390625 29.59375 6.390625 
Q 36.859375 6.390625 41.078125 11.03125 
Q 45.3125 15.671875 45.3125 23.6875 
L 45.3125 54.6875 
L 54.296875 54.6875 
L 54.296875 0 
L 45.3125 0 
L 45.3125 8.40625 
Q 42.046875 3.421875 37.71875 1 
Q 33.40625 -1.421875 27.6875 -1.421875 
Q 18.265625 -1.421875 13.375 4.4375 
Q 8.5 10.296875 8.5 21.578125 
z
M 31.109375 56 
z
" id="DejaVuSans-75"/>
      <path d="M 52 44.1875 
Q 55.375 50.25 60.0625 53.125 
Q 64.75 56 71.09375 56 
Q 79.640625 56 84.28125 50.015625 
Q 88.921875 44.046875 88.921875 33.015625 
L 88.921875 0 
L 79.890625 0 
L 79.890625 32.71875 
Q 79.890625 40.578125 77.09375 44.375 
Q 74.3125 48.1875 68.609375 48.1875 
Q 61.625 48.1875 57.5625 43.546875 
Q 53.515625 38.921875 53.515625 30.90625 
L 53.515625 0 
L 44.484375 0 
L 44.484375 32.71875 
Q 44.484375 40.625 41.703125 44.40625 
Q 38.921875 48.1875 33.109375 48.1875 
Q 26.21875 48.1875 22.15625 43.53125 
Q 18.109375 38.875 18.109375 30.90625 
L 18.109375 0 
L 9.078125 0 
L 9.078125 54.6875 
L 18.109375 54.6875 
L 18.109375 46.1875 
Q 21.1875 51.21875 25.484375 53.609375 
Q 29.78125 56 35.6875 56 
Q 41.65625 56 45.828125 52.96875 
Q 50 49.953125 52 44.1875 
z
" id="DejaVuSans-6d"/>
     </defs>
     <g transform="translate(1203.520313 85.718437)scale(0.1 -0.1)">
      <use xlink:href="#DejaVuSans-74"/>
      <use x="39.208984" xlink:href="#DejaVuSans-63"/>
      <use x="94.189453" xlink:href="#DejaVuSans-70"/>
      <use x="157.666016" xlink:href="#DejaVuSans-64"/>
      <use x="221.142578" xlink:href="#DejaVuSans-75"/>
      <use x="284.521484" xlink:href="#DejaVuSans-6d"/>
      <use x="381.933594" xlink:href="#DejaVuSans-70"/>
     </g>
    </g>
    <g id="line2d_18">
     <path d="M 1175.520313 96.896563 
L 1195.520313 96.896563 
" style="fill:none;stroke:#800080;stroke-dasharray:9.6,2.4,1.5,2.4;stroke-dashoffset:0;stroke-width:1.5;"/>
    </g>
    <g id="line2d_19">
     <g>
      <use style="fill:#800080;stroke:#800080;" x="1185.520313" xlink:href="#mef1e3e5291" y="96.896563"/>
     </g>
    </g>
    <g id="text_14">
     <!-- filtered tcpdump -->
     <defs>
      <path d="M 37.109375 75.984375 
L 37.109375 68.5 
L 28.515625 68.5 
Q 23.6875 68.5 21.796875 66.546875 
Q 19.921875 64.59375 19.921875 59.515625 
L 19.921875 54.6875 
L 34.71875 54.6875 
L 34.71875 47.703125 
L 19.921875 47.703125 
L 19.921875 0 
L 10.890625 0 
L 10.890625 47.703125 
L 2.296875 47.703125 
L 2.296875 54.6875 
L 10.890625 54.6875 
L 10.890625 58.5 
Q 10.890625 67.625 15.140625 71.796875 
Q 19.390625 75.984375 28.609375 75.984375 
z
" id="DejaVuSans-66"/>
      <path d="M 9.421875 75.984375 
L 18.40625 75.984375 
L 18.40625 0 
L 9.421875 0 
z
" id="DejaVuSans-6c"/>
      <path d="M 56.203125 29.59375 
L 56.203125 25.203125 
L 14.890625 25.203125 
Q 15.484375 15.921875 20.484375 11.0625 
Q 25.484375 6.203125 34.421875 6.203125 
Q 39.59375 6.203125 44.453125 7.46875 
Q 49.3125 8.734375 54.109375 11.28125 
L 54.109375 2.78125 
Q 49.265625 0.734375 44.1875 -0.34375 
Q 39.109375 -1.421875 33.890625 -1.421875 
Q 20.796875 -1.421875 13.15625 6.1875 
Q 5.515625 13.8125 5.515625 26.8125 
Q 5.515625 40.234375 12.765625 48.109375 
Q 20.015625 56 32.328125 56 
Q 43.359375 56 49.78125 48.890625 
Q 56.203125 41.796875 56.203125 29.59375 
z
M 47.21875 32.234375 
Q 47.125 39.59375 43.09375 43.984375 
Q 39.0625 48.390625 32.421875 48.390625 
Q 24.90625 48.390625 20.390625 44.140625 
Q 15.875 39.890625 15.1875 32.171875 
z
" id="DejaVuSans-65"/>
      <path d="M 41.109375 46.296875 
Q 39.59375 47.171875 37.8125 47.578125 
Q 36.03125 48 33.890625 48 
Q 26.265625 48 22.1875 43.046875 
Q 18.109375 38.09375 18.109375 28.8125 
L 18.109375 0 
L 9.078125 0 
L 9.078125 54.6875 
L 18.109375 54.6875 
L 18.109375 46.1875 
Q 20.953125 51.171875 25.484375 53.578125 
Q 30.03125 56 36.53125 56 
Q 37.453125 56 38.578125 55.875 
Q 39.703125 55.765625 41.0625 55.515625 
z
" id="DejaVuSans-72"/>
     </defs>
     <g transform="translate(1203.520313 100.396563)scale(0.1 -0.1)">
      <use xlink:href="#DejaVuSans-66"/>
      <use x="35.205078" xlink:href="#DejaVuSans-69"/>
      <use x="62.988281" xlink:href="#DejaVuSans-6c"/>
      <use x="90.771484" xlink:href="#DejaVuSans-74"/>
      <use x="129.980469" xlink:href="#DejaVuSans-65"/>
      <use x="191.503906" xlink:href="#DejaVuSans-72"/>
      <use x="232.585938" xlink:href="#DejaVuSans-65"/>
      <use x="294.109375" xlink:href="#DejaVuSans-64"/>
      <use x="357.585938" xlink:href="#DejaVuSans-20"/>
      <use x="389.373047" xlink:href="#DejaVuSans-74"/>
      <use x="428.582031" xlink:href="#DejaVuSans-63"/>
      <use x="483.5625" xlink:href="#DejaVuSans-70"/>
      <use x="547.039062" xlink:href="#DejaVuSans-64"/>
      <use x="610.515625" xlink:href="#DejaVuSans-75"/>
      <use x="673.894531" xlink:href="#DejaVuSans-6d"/>
      <use x="771.306641" xlink:href="#DejaVuSans-70"/>
     </g>
    </g>
    <g id="line2d_20">
     <path d="M 1175.520313 111.574687 
L 1195.520313 111.574687 
" style="fill:none;stroke:#0000ff;stroke-linecap:square;stroke-width:1.5;"/>
    </g>
    <g id="line2d_21"/>
    <g id="text_15">
     <!-- OLS -->
     <defs>
      <path d="M 39.40625 66.21875 
Q 28.65625 66.21875 22.328125 58.203125 
Q 16.015625 50.203125 16.015625 36.375 
Q 16.015625 22.609375 22.328125 14.59375 
Q 28.65625 6.59375 39.40625 6.59375 
Q 50.140625 6.59375 56.421875 14.59375 
Q 62.703125 22.609375 62.703125 36.375 
Q 62.703125 50.203125 56.421875 58.203125 
Q 50.140625 66.21875 39.40625 66.21875 
z
M 39.40625 74.21875 
Q 54.734375 74.21875 63.90625 63.9375 
Q 73.09375 53.65625 73.09375 36.375 
Q 73.09375 19.140625 63.90625 8.859375 
Q 54.734375 -1.421875 39.40625 -1.421875 
Q 24.03125 -1.421875 14.8125 8.828125 
Q 5.609375 19.09375 5.609375 36.375 
Q 5.609375 53.65625 14.8125 63.9375 
Q 24.03125 74.21875 39.40625 74.21875 
z
" id="DejaVuSans-4f"/>
      <path d="M 9.8125 72.90625 
L 19.671875 72.90625 
L 19.671875 8.296875 
L 55.171875 8.296875 
L 55.171875 0 
L 9.8125 0 
z
" id="DejaVuSans-4c"/>
      <path d="M 53.515625 70.515625 
L 53.515625 60.890625 
Q 47.90625 63.578125 42.921875 64.890625 
Q 37.9375 66.21875 33.296875 66.21875 
Q 25.25 66.21875 20.875 63.09375 
Q 16.5 59.96875 16.5 54.203125 
Q 16.5 49.359375 19.40625 46.890625 
Q 22.3125 44.4375 30.421875 42.921875 
L 36.375 41.703125 
Q 47.40625 39.59375 52.65625 34.296875 
Q 57.90625 29 57.90625 20.125 
Q 57.90625 9.515625 50.796875 4.046875 
Q 43.703125 -1.421875 29.984375 -1.421875 
Q 24.8125 -1.421875 18.96875 -0.25 
Q 13.140625 0.921875 6.890625 3.21875 
L 6.890625 13.375 
Q 12.890625 10.015625 18.65625 8.296875 
Q 24.421875 6.59375 29.984375 6.59375 
Q 38.421875 6.59375 43.015625 9.90625 
Q 47.609375 13.234375 47.609375 19.390625 
Q 47.609375 24.75 44.3125 27.78125 
Q 41.015625 30.8125 33.5 32.328125 
L 27.484375 33.5 
Q 16.453125 35.6875 11.515625 40.375 
Q 6.59375 45.0625 6.59375 53.421875 
Q 6.59375 63.09375 13.40625 68.65625 
Q 20.21875 74.21875 32.171875 74.21875 
Q 37.3125 74.21875 42.625 73.28125 
Q 47.953125 72.359375 53.515625 70.515625 
z
" id="DejaVuSans-53"/>
     </defs>
     <g transform="translate(1203.520313 115.074687)scale(0.1 -0.1)">
      <use xlink:href="#DejaVuSans-4f"/>
      <use x="78.710938" xlink:href="#DejaVuSans-4c"/>
      <use x="134.423828" xlink:href="#DejaVuSans-53"/>
     </g>
    </g>
    <g id="line2d_22">
     <path d="M 1175.520313 126.252813 
L 1195.520313 126.252813 
" style="fill:none;stroke:#008000;stroke-linecap:square;stroke-width:1.5;"/>
    </g>
    <g id="line2d_23">
     <g>
      <use style="fill:#008000;stroke:#008000;" x="1185.520313" xlink:href="#m4242c97282" y="126.252813"/>
     </g>
    </g>
    <g id="text_16">
     <!-- IRLS -->
     <defs>
      <path d="M 9.8125 72.90625 
L 19.671875 72.90625 
L 19.671875 0 
L 9.8125 0 
z
" id="DejaVuSans-49"/>
      <path d="M 44.390625 34.1875 
Q 47.5625 33.109375 50.5625 29.59375 
Q 53.5625 26.078125 56.59375 19.921875 
L 66.609375 0 
L 56 0 
L 46.6875 18.703125 
Q 43.0625 26.03125 39.671875 28.421875 
Q 36.28125 30.8125 30.421875 30.8125 
L 19.671875 30.8125 
L 19.671875 0 
L 9.8125 0 
L 9.8125 72.90625 
L 32.078125 72.90625 
Q 44.578125 72.90625 50.734375 67.671875 
Q 56.890625 62.453125 56.890625 51.90625 
Q 56.890625 45.015625 53.6875 40.46875 
Q 50.484375 35.9375 44.390625 34.1875 
z
M 19.671875 64.796875 
L 19.671875 38.921875 
L 32.078125 38.921875 
Q 39.203125 38.921875 42.84375 42.21875 
Q 46.484375 45.515625 46.484375 51.90625 
Q 46.484375 58.296875 42.84375 61.546875 
Q 39.203125 64.796875 32.078125 64.796875 
z
" id="DejaVuSans-52"/>
     </defs>
     <g transform="translate(1203.520313 129.752813)scale(0.1 -0.1)">
      <use xlink:href="#DejaVuSans-49"/>
      <use x="29.492188" xlink:href="#DejaVuSans-52"/>
      <use x="98.974609" xlink:href="#DejaVuSans-4c"/>
      <use x="154.6875" xlink:href="#DejaVuSans-53"/>
     </g>
    </g>
   </g>
  </g>
 </g>
 <defs>
  <clipPath id="p48a98121c7">
   <rect height="443.52" width="1116" x="180" y="69.12"/>
  </clipPath>
 </defs>
</svg>
