<?xml version="1.0" encoding="utf-8" standalone="no"?>
<!DOCTYPE svg PUBLIC "-//W3C//DTD SVG 1.1//EN"
  "http://www.w3.org/Graphics/SVG/1.1/DTD/svg11.dtd">
<!-- Created with matplotlib (http://matplotlib.org/) -->
<svg height="576pt" version="1.1" viewBox="0 0 1440 576" width="1440pt" xmlns="http://www.w3.org/2000/svg" xmlns:xlink="http://www.w3.org/1999/xlink">
 <defs>
  <style type="text/css">
*{stroke-linecap:butt;stroke-linejoin:round;}
  </style>
 </defs>
 <g id="figure_1">
  <g id="patch_1">
   <path d="M 0 576 
L 1440 576 
L 1440 0 
L 0 0 
z
" style="fill:#ffffff;"/>
  </g>
  <g id="axes_1">
   <g id="patch_2">
    <path d="M 180 512.64 
L 1296 512.64 
L 1296 69.12 
L 180 69.12 
z
" style="fill:#ffffff;"/>
   </g>
   <g id="matplotlib.axis_1">
    <g id="xtick_1">
     <g id="line2d_1">
      <defs>
       <path d="M 0 0 
L 0 3.5 
" id="m2c7a9fa707" style="stroke:#000000;stroke-width:0.8;"/>
      </defs>
      <g>
       <use style="stroke:#000000;stroke-width:0.8;" x="230.727273" xlink:href="#m2c7a9fa707" y="512.64"/>
      </g>
     </g>
     <g id="text_1">
      <!-- 0.0 -->
      <defs>
       <path d="M 31.78125 66.40625 
Q 24.171875 66.40625 20.328125 58.90625 
Q 16.5 51.421875 16.5 36.375 
Q 16.5 21.390625 20.328125 13.890625 
Q 24.171875 6.390625 31.78125 6.390625 
Q 39.453125 6.390625 43.28125 13.890625 
Q 47.125 21.390625 47.125 36.375 
Q 47.125 51.421875 43.28125 58.90625 
Q 39.453125 66.40625 31.78125 66.40625 
z
M 31.78125 74.21875 
Q 44.046875 74.21875 50.515625 64.515625 
Q 56.984375 54.828125 56.984375 36.375 
Q 56.984375 17.96875 50.515625 8.265625 
Q 44.046875 -1.421875 31.78125 -1.421875 
Q 19.53125 -1.421875 13.0625 8.265625 
Q 6.59375 17.96875 6.59375 36.375 
Q 6.59375 54.828125 13.0625 64.515625 
Q 19.53125 74.21875 31.78125 74.21875 
z
" id="DejaVuSans-30"/>
       <path d="M 10.6875 12.40625 
L 21 12.40625 
L 21 0 
L 10.6875 0 
z
" id="DejaVuSans-2e"/>
      </defs>
      <g transform="translate(222.77571 527.238438)scale(0.1 -0.1)">
       <use xlink:href="#DejaVuSans-30"/>
       <use x="63.623047" xlink:href="#DejaVuSans-2e"/>
       <use x="95.410156" xlink:href="#DejaVuSans-30"/>
      </g>
     </g>
    </g>
    <g id="xtick_2">
     <g id="line2d_2">
      <g>
       <use style="stroke:#000000;stroke-width:0.8;" x="382.929448" xlink:href="#m2c7a9fa707" y="512.64"/>
      </g>
     </g>
     <g id="text_2">
      <!-- 0.2 -->
      <defs>
       <path d="M 19.1875 8.296875 
L 53.609375 8.296875 
L 53.609375 0 
L 7.328125 0 
L 7.328125 8.296875 
Q 12.9375 14.109375 22.625 23.890625 
Q 32.328125 33.6875 34.8125 36.53125 
Q 39.546875 41.84375 41.421875 45.53125 
Q 43.3125 49.21875 43.3125 52.78125 
Q 43.3125 58.59375 39.234375 62.25 
Q 35.15625 65.921875 28.609375 65.921875 
Q 23.96875 65.921875 18.8125 64.3125 
Q 13.671875 62.703125 7.8125 59.421875 
L 7.8125 69.390625 
Q 13.765625 71.78125 18.9375 73 
Q 24.125 74.21875 28.421875 74.21875 
Q 39.75 74.21875 46.484375 68.546875 
Q 53.21875 62.890625 53.21875 53.421875 
Q 53.21875 48.921875 51.53125 44.890625 
Q 49.859375 40.875 45.40625 35.40625 
Q 44.1875 33.984375 37.640625 27.21875 
Q 31.109375 20.453125 19.1875 8.296875 
z
" id="DejaVuSans-32"/>
      </defs>
      <g transform="translate(374.977885 527.238438)scale(0.1 -0.1)">
       <use xlink:href="#DejaVuSans-30"/>
       <use x="63.623047" xlink:href="#DejaVuSans-2e"/>
       <use x="95.410156" xlink:href="#DejaVuSans-32"/>
      </g>
     </g>
    </g>
    <g id="xtick_3">
     <g id="line2d_3">
      <g>
       <use style="stroke:#000000;stroke-width:0.8;" x="535.131623" xlink:href="#m2c7a9fa707" y="512.64"/>
      </g>
     </g>
     <g id="text_3">
      <!-- 0.4 -->
      <defs>
       <path d="M 37.796875 64.3125 
L 12.890625 25.390625 
L 37.796875 25.390625 
z
M 35.203125 72.90625 
L 47.609375 72.90625 
L 47.609375 25.390625 
L 58.015625 25.390625 
L 58.015625 17.1875 
L 47.609375 17.1875 
L 47.609375 0 
L 37.796875 0 
L 37.796875 17.1875 
L 4.890625 17.1875 
L 4.890625 26.703125 
z
" id="DejaVuSans-34"/>
      </defs>
      <g transform="translate(527.180061 527.238438)scale(0.1 -0.1)">
       <use xlink:href="#DejaVuSans-30"/>
       <use x="63.623047" xlink:href="#DejaVuSans-2e"/>
       <use x="95.410156" xlink:href="#DejaVuSans-34"/>
      </g>
     </g>
    </g>
    <g id="xtick_4">
     <g id="line2d_4">
      <g>
       <use style="stroke:#000000;stroke-width:0.8;" x="687.333798" xlink:href="#m2c7a9fa707" y="512.64"/>
      </g>
     </g>
     <g id="text_4">
      <!-- 0.6 -->
      <defs>
       <path d="M 33.015625 40.375 
Q 26.375 40.375 22.484375 35.828125 
Q 18.609375 31.296875 18.609375 23.390625 
Q 18.609375 15.53125 22.484375 10.953125 
Q 26.375 6.390625 33.015625 6.390625 
Q 39.65625 6.390625 43.53125 10.953125 
Q 47.40625 15.53125 47.40625 23.390625 
Q 47.40625 31.296875 43.53125 35.828125 
Q 39.65625 40.375 33.015625 40.375 
z
M 52.59375 71.296875 
L 52.59375 62.3125 
Q 48.875 64.0625 45.09375 64.984375 
Q 41.3125 65.921875 37.59375 65.921875 
Q 27.828125 65.921875 22.671875 59.328125 
Q 17.53125 52.734375 16.796875 39.40625 
Q 19.671875 43.65625 24.015625 45.921875 
Q 28.375 48.1875 33.59375 48.1875 
Q 44.578125 48.1875 50.953125 41.515625 
Q 57.328125 34.859375 57.328125 23.390625 
Q 57.328125 12.15625 50.6875 5.359375 
Q 44.046875 -1.421875 33.015625 -1.421875 
Q 20.359375 -1.421875 13.671875 8.265625 
Q 6.984375 17.96875 6.984375 36.375 
Q 6.984375 53.65625 15.1875 63.9375 
Q 23.390625 74.21875 37.203125 74.21875 
Q 40.921875 74.21875 44.703125 73.484375 
Q 48.484375 72.75 52.59375 71.296875 
z
" id="DejaVuSans-36"/>
      </defs>
      <g transform="translate(679.382236 527.238438)scale(0.1 -0.1)">
       <use xlink:href="#DejaVuSans-30"/>
       <use x="63.623047" xlink:href="#DejaVuSans-2e"/>
       <use x="95.410156" xlink:href="#DejaVuSans-36"/>
      </g>
     </g>
    </g>
    <g id="xtick_5">
     <g id="line2d_5">
      <g>
       <use style="stroke:#000000;stroke-width:0.8;" x="839.535974" xlink:href="#m2c7a9fa707" y="512.64"/>
      </g>
     </g>
     <g id="text_5">
      <!-- 0.8 -->
      <defs>
       <path d="M 31.78125 34.625 
Q 24.75 34.625 20.71875 30.859375 
Q 16.703125 27.09375 16.703125 20.515625 
Q 16.703125 13.921875 20.71875 10.15625 
Q 24.75 6.390625 31.78125 6.390625 
Q 38.8125 6.390625 42.859375 10.171875 
Q 46.921875 13.96875 46.921875 20.515625 
Q 46.921875 27.09375 42.890625 30.859375 
Q 38.875 34.625 31.78125 34.625 
z
M 21.921875 38.8125 
Q 15.578125 40.375 12.03125 44.71875 
Q 8.5 49.078125 8.5 55.328125 
Q 8.5 64.0625 14.71875 69.140625 
Q 20.953125 74.21875 31.78125 74.21875 
Q 42.671875 74.21875 48.875 69.140625 
Q 55.078125 64.0625 55.078125 55.328125 
Q 55.078125 49.078125 51.53125 44.71875 
Q 48 40.375 41.703125 38.8125 
Q 48.828125 37.15625 52.796875 32.3125 
Q 56.78125 27.484375 56.78125 20.515625 
Q 56.78125 9.90625 50.3125 4.234375 
Q 43.84375 -1.421875 31.78125 -1.421875 
Q 19.734375 -1.421875 13.25 4.234375 
Q 6.78125 9.90625 6.78125 20.515625 
Q 6.78125 27.484375 10.78125 32.3125 
Q 14.796875 37.15625 21.921875 38.8125 
z
M 18.3125 54.390625 
Q 18.3125 48.734375 21.84375 45.5625 
Q 25.390625 42.390625 31.78125 42.390625 
Q 38.140625 42.390625 41.71875 45.5625 
Q 45.3125 48.734375 45.3125 54.390625 
Q 45.3125 60.0625 41.71875 63.234375 
Q 38.140625 66.40625 31.78125 66.40625 
Q 25.390625 66.40625 21.84375 63.234375 
Q 18.3125 60.0625 18.3125 54.390625 
z
" id="DejaVuSans-38"/>
      </defs>
      <g transform="translate(831.584411 527.238438)scale(0.1 -0.1)">
       <use xlink:href="#DejaVuSans-30"/>
       <use x="63.623047" xlink:href="#DejaVuSans-2e"/>
       <use x="95.410156" xlink:href="#DejaVuSans-38"/>
      </g>
     </g>
    </g>
    <g id="xtick_6">
     <g id="line2d_6">
      <g>
       <use style="stroke:#000000;stroke-width:0.8;" x="991.738149" xlink:href="#m2c7a9fa707" y="512.64"/>
      </g>
     </g>
     <g id="text_6">
      <!-- 1.0 -->
      <defs>
       <path d="M 12.40625 8.296875 
L 28.515625 8.296875 
L 28.515625 63.921875 
L 10.984375 60.40625 
L 10.984375 69.390625 
L 28.421875 72.90625 
L 38.28125 72.90625 
L 38.28125 8.296875 
L 54.390625 8.296875 
L 54.390625 0 
L 12.40625 0 
z
" id="DejaVuSans-31"/>
      </defs>
      <g transform="translate(983.786586 527.238438)scale(0.1 -0.1)">
       <use xlink:href="#DejaVuSans-31"/>
       <use x="63.623047" xlink:href="#DejaVuSans-2e"/>
       <use x="95.410156" xlink:href="#DejaVuSans-30"/>
      </g>
     </g>
    </g>
    <g id="xtick_7">
     <g id="line2d_7">
      <g>
       <use style="stroke:#000000;stroke-width:0.8;" x="1143.940324" xlink:href="#m2c7a9fa707" y="512.64"/>
      </g>
     </g>
     <g id="text_7">
      <!-- 1.2 -->
      <g transform="translate(1135.988762 527.238438)scale(0.1 -0.1)">
       <use xlink:href="#DejaVuSans-31"/>
       <use x="63.623047" xlink:href="#DejaVuSans-2e"/>
       <use x="95.410156" xlink:href="#DejaVuSans-32"/>
      </g>
     </g>
    </g>
    <g id="xtick_8">
     <g id="line2d_8">
      <g>
       <use style="stroke:#000000;stroke-width:0.8;" x="1296.142499" xlink:href="#m2c7a9fa707" y="512.64"/>
      </g>
     </g>
     <g id="text_8">
      <!-- 1.4 -->
      <g transform="translate(1288.190937 527.238438)scale(0.1 -0.1)">
       <use xlink:href="#DejaVuSans-31"/>
       <use x="63.623047" xlink:href="#DejaVuSans-2e"/>
       <use x="95.410156" xlink:href="#DejaVuSans-34"/>
      </g>
     </g>
    </g>
   </g>
   <g id="matplotlib.axis_2">
    <g id="ytick_1">
     <g id="line2d_9">
      <defs>
       <path d="M 0 0 
L -3.5 0 
" id="m954f63a4d0" style="stroke:#000000;stroke-width:0.8;"/>
      </defs>
      <g>
       <use style="stroke:#000000;stroke-width:0.8;" x="180" xlink:href="#m954f63a4d0" y="512.202985"/>
      </g>
     </g>
     <g id="text_9">
      <!-- 0.0 -->
      <g transform="translate(157.096875 516.002204)scale(0.1 -0.1)">
       <use xlink:href="#DejaVuSans-30"/>
       <use x="63.623047" xlink:href="#DejaVuSans-2e"/>
       <use x="95.410156" xlink:href="#DejaVuSans-30"/>
      </g>
     </g>
    </g>
    <g id="ytick_2">
     <g id="line2d_10">
      <g>
       <use style="stroke:#000000;stroke-width:0.8;" x="180" xlink:href="#m954f63a4d0" y="450.133025"/>
      </g>
     </g>
     <g id="text_10">
      <!-- 0.2 -->
      <g transform="translate(157.096875 453.932244)scale(0.1 -0.1)">
       <use xlink:href="#DejaVuSans-30"/>
       <use x="63.623047" xlink:href="#DejaVuSans-2e"/>
       <use x="95.410156" xlink:href="#DejaVuSans-32"/>
      </g>
     </g>
    </g>
    <g id="ytick_3">
     <g id="line2d_11">
      <g>
       <use style="stroke:#000000;stroke-width:0.8;" x="180" xlink:href="#m954f63a4d0" y="388.063064"/>
      </g>
     </g>
     <g id="text_11">
      <!-- 0.4 -->
      <g transform="translate(157.096875 391.862283)scale(0.1 -0.1)">
       <use xlink:href="#DejaVuSans-30"/>
       <use x="63.623047" xlink:href="#DejaVuSans-2e"/>
       <use x="95.410156" xlink:href="#DejaVuSans-34"/>
      </g>
     </g>
    </g>
    <g id="ytick_4">
     <g id="line2d_12">
      <g>
       <use style="stroke:#000000;stroke-width:0.8;" x="180" xlink:href="#m954f63a4d0" y="325.993104"/>
      </g>
     </g>
     <g id="text_12">
      <!-- 0.6 -->
      <g transform="translate(157.096875 329.792323)scale(0.1 -0.1)">
       <use xlink:href="#DejaVuSans-30"/>
       <use x="63.623047" xlink:href="#DejaVuSans-2e"/>
       <use x="95.410156" xlink:href="#DejaVuSans-36"/>
      </g>
     </g>
    </g>
    <g id="ytick_5">
     <g id="line2d_13">
      <g>
       <use style="stroke:#000000;stroke-width:0.8;" x="180" xlink:href="#m954f63a4d0" y="263.923144"/>
      </g>
     </g>
     <g id="text_13">
      <!-- 0.8 -->
      <g transform="translate(157.096875 267.722363)scale(0.1 -0.1)">
       <use xlink:href="#DejaVuSans-30"/>
       <use x="63.623047" xlink:href="#DejaVuSans-2e"/>
       <use x="95.410156" xlink:href="#DejaVuSans-38"/>
      </g>
     </g>
    </g>
    <g id="ytick_6">
     <g id="line2d_14">
      <g>
       <use style="stroke:#000000;stroke-width:0.8;" x="180" xlink:href="#m954f63a4d0" y="201.853184"/>
      </g>
     </g>
     <g id="text_14">
      <!-- 1.0 -->
      <g transform="translate(157.096875 205.652402)scale(0.1 -0.1)">
       <use xlink:href="#DejaVuSans-31"/>
       <use x="63.623047" xlink:href="#DejaVuSans-2e"/>
       <use x="95.410156" xlink:href="#DejaVuSans-30"/>
      </g>
     </g>
    </g>
    <g id="ytick_7">
     <g id="line2d_15">
      <g>
       <use style="stroke:#000000;stroke-width:0.8;" x="180" xlink:href="#m954f63a4d0" y="139.783223"/>
      </g>
     </g>
     <g id="text_15">
      <!-- 1.2 -->
      <g transform="translate(157.096875 143.582442)scale(0.1 -0.1)">
       <use xlink:href="#DejaVuSans-31"/>
       <use x="63.623047" xlink:href="#DejaVuSans-2e"/>
       <use x="95.410156" xlink:href="#DejaVuSans-32"/>
      </g>
     </g>
    </g>
    <g id="ytick_8">
     <g id="line2d_16">
      <g>
       <use style="stroke:#000000;stroke-width:0.8;" x="180" xlink:href="#m954f63a4d0" y="77.713263"/>
      </g>
     </g>
     <g id="text_16">
      <!-- 1.4 -->
      <g transform="translate(157.096875 81.512482)scale(0.1 -0.1)">
       <use xlink:href="#DejaVuSans-31"/>
       <use x="63.623047" xlink:href="#DejaVuSans-2e"/>
       <use x="95.410156" xlink:href="#DejaVuSans-34"/>
      </g>
     </g>
    </g>
   </g>
   <g id="line2d_17">
    <path clip-path="url(#pe534ea0ccd)" d="M 230.727273 418.940697 
L 241.067128 419.033182 
L 251.286743 419.036906 
L 261.243048 419.04032 
L 271.119447 419.042802 
L 281.818499 419.04063 
L 291.786219 419.04063 
L 301.648159 419.042802 
L 312.349494 419.042492 
L 322.47931 419.037526 
L 332.322986 419.043113 
L 343.018994 419.042492 
L 353.219583 419.031319 
L 363.076196 419.035354 
L 373.765355 419.036595 
L 383.957574 419.042802 
L 393.830929 419.039389 
L 404.564987 419.04032 
L 414.753401 419.038147 
L 424.845927 419.042802 
L 435.567048 419.04063 
L 445.562926 419.040009 
L 455.465961 419.042802 
L 466.126201 419.037216 
L 476.309288 419.033182 
L 486.232108 419.042802 
L 496.90833 419.042492 
L 507.095221 419.041251 
L 516.986841 419.041871 
L 527.655452 419.039699 
L 537.873545 419.028526 
L 547.7918 419.036285 
L 558.458129 419.03194 
L 568.60697 419.041561 
L 578.531312 419.039389 
L 589.238735 419.042492 
L 599.396709 419.041251 
L 609.336272 419.042182 
L 620.096204 419.038457 
L 630.105781 419.04094 
L 639.992834 419.044044 
L 650.716999 419.038768 
L 660.811047 419.029147 
L 670.660811 419.044975 
L 681.34236 419.041561 
L 691.506421 419.043423 
L 701.356185 419.044044 
L 712.044583 419.039078 
L 722.277135 419.038147 
L 732.148207 419.042802 
L 742.774963 419.039699 
L 752.983924 419.042802 
L 762.870216 419.043113 
L 773.513714 419.042492 
L 783.72648 419.034423 
L 793.647779 419.044044 
L 804.414561 419.035354 
L 814.527634 419.039699 
L 824.420015 419.041561 
L 835.253765 419.038768 
L 845.331832 419.039078 
L 855.25237 419.04094 
L 866.073945 419.037837 
L 876.06754 280.49303 
L 885.974379 280.80338 
L 896.747249 281.459149 
L 906.781178 281.817603 
L 916.665187 139.237628 
L 927.438818 139.893708 
L 937.539715 125.236818 
L 947.446555 125.555237 
L 958.205727 114.916445 
L 968.49155 115.380729 
L 978.430352 108.157337 
L 988.972635 108.730243 
L 999.276723 94.153423 
L 1009.311412 94.513739 
L 1019.852174 89.28 
L 1030.096902 89.724111 
L 1040.053968 90.041288 
L 1050.441006 90.50464 
L 1060.775534 91.006786 
L 1070.658782 91.307205 
L 1081.186606 91.859628 
L 1091.508958 92.33229 
L 1101.370137 92.610674 
L 1111.919269 93.173028 
L 1122.241621 93.632656 
L 1132.073881 93.919109 
L 1142.645084 94.493566 
L 1152.987221 94.968712 
L 1162.820243 95.240268 
L 1173.374703 95.806346 
L 1183.758696 96.300423 
L 1193.604655 96.578186 
L 1204.231411 97.168782 
L 1214.476139 97.609789 
L 1224.341123 97.886621 
L 1234.967118 98.486837 
L 1245.272727 98.956707 
" style="fill:none;stroke:#ff0000;stroke-dasharray:5.55,2.4;stroke-dashoffset:0;stroke-width:1.5;"/>
    <defs>
     <path d="M -3 3 
L 3 3 
L 3 -3 
L -3 -3 
z
" id="m332ce5cc82" style="stroke:#ff0000;stroke-linejoin:miter;"/>
    </defs>
    <g clip-path="url(#pe534ea0ccd)">
     <use style="fill:#ff0000;stroke:#ff0000;stroke-linejoin:miter;" x="230.727273" xlink:href="#m332ce5cc82" y="418.940697"/>
     <use style="fill:#ff0000;stroke:#ff0000;stroke-linejoin:miter;" x="241.067128" xlink:href="#m332ce5cc82" y="419.033182"/>
     <use style="fill:#ff0000;stroke:#ff0000;stroke-linejoin:miter;" x="251.286743" xlink:href="#m332ce5cc82" y="419.036906"/>
     <use style="fill:#ff0000;stroke:#ff0000;stroke-linejoin:miter;" x="261.243048" xlink:href="#m332ce5cc82" y="419.04032"/>
     <use style="fill:#ff0000;stroke:#ff0000;stroke-linejoin:miter;" x="271.119447" xlink:href="#m332ce5cc82" y="419.042802"/>
     <use style="fill:#ff0000;stroke:#ff0000;stroke-linejoin:miter;" x="281.818499" xlink:href="#m332ce5cc82" y="419.04063"/>
     <use style="fill:#ff0000;stroke:#ff0000;stroke-linejoin:miter;" x="291.786219" xlink:href="#m332ce5cc82" y="419.04063"/>
     <use style="fill:#ff0000;stroke:#ff0000;stroke-linejoin:miter;" x="301.648159" xlink:href="#m332ce5cc82" y="419.042802"/>
     <use style="fill:#ff0000;stroke:#ff0000;stroke-linejoin:miter;" x="312.349494" xlink:href="#m332ce5cc82" y="419.042492"/>
     <use style="fill:#ff0000;stroke:#ff0000;stroke-linejoin:miter;" x="322.47931" xlink:href="#m332ce5cc82" y="419.037526"/>
     <use style="fill:#ff0000;stroke:#ff0000;stroke-linejoin:miter;" x="332.322986" xlink:href="#m332ce5cc82" y="419.043113"/>
     <use style="fill:#ff0000;stroke:#ff0000;stroke-linejoin:miter;" x="343.018994" xlink:href="#m332ce5cc82" y="419.042492"/>
     <use style="fill:#ff0000;stroke:#ff0000;stroke-linejoin:miter;" x="353.219583" xlink:href="#m332ce5cc82" y="419.031319"/>
     <use style="fill:#ff0000;stroke:#ff0000;stroke-linejoin:miter;" x="363.076196" xlink:href="#m332ce5cc82" y="419.035354"/>
     <use style="fill:#ff0000;stroke:#ff0000;stroke-linejoin:miter;" x="373.765355" xlink:href="#m332ce5cc82" y="419.036595"/>
     <use style="fill:#ff0000;stroke:#ff0000;stroke-linejoin:miter;" x="383.957574" xlink:href="#m332ce5cc82" y="419.042802"/>
     <use style="fill:#ff0000;stroke:#ff0000;stroke-linejoin:miter;" x="393.830929" xlink:href="#m332ce5cc82" y="419.039389"/>
     <use style="fill:#ff0000;stroke:#ff0000;stroke-linejoin:miter;" x="404.564987" xlink:href="#m332ce5cc82" y="419.04032"/>
     <use style="fill:#ff0000;stroke:#ff0000;stroke-linejoin:miter;" x="414.753401" xlink:href="#m332ce5cc82" y="419.038147"/>
     <use style="fill:#ff0000;stroke:#ff0000;stroke-linejoin:miter;" x="424.845927" xlink:href="#m332ce5cc82" y="419.042802"/>
     <use style="fill:#ff0000;stroke:#ff0000;stroke-linejoin:miter;" x="435.567048" xlink:href="#m332ce5cc82" y="419.04063"/>
     <use style="fill:#ff0000;stroke:#ff0000;stroke-linejoin:miter;" x="445.562926" xlink:href="#m332ce5cc82" y="419.040009"/>
     <use style="fill:#ff0000;stroke:#ff0000;stroke-linejoin:miter;" x="455.465961" xlink:href="#m332ce5cc82" y="419.042802"/>
     <use style="fill:#ff0000;stroke:#ff0000;stroke-linejoin:miter;" x="466.126201" xlink:href="#m332ce5cc82" y="419.037216"/>
     <use style="fill:#ff0000;stroke:#ff0000;stroke-linejoin:miter;" x="476.309288" xlink:href="#m332ce5cc82" y="419.033182"/>
     <use style="fill:#ff0000;stroke:#ff0000;stroke-linejoin:miter;" x="486.232108" xlink:href="#m332ce5cc82" y="419.042802"/>
     <use style="fill:#ff0000;stroke:#ff0000;stroke-linejoin:miter;" x="496.90833" xlink:href="#m332ce5cc82" y="419.042492"/>
     <use style="fill:#ff0000;stroke:#ff0000;stroke-linejoin:miter;" x="507.095221" xlink:href="#m332ce5cc82" y="419.041251"/>
     <use style="fill:#ff0000;stroke:#ff0000;stroke-linejoin:miter;" x="516.986841" xlink:href="#m332ce5cc82" y="419.041871"/>
     <use style="fill:#ff0000;stroke:#ff0000;stroke-linejoin:miter;" x="527.655452" xlink:href="#m332ce5cc82" y="419.039699"/>
     <use style="fill:#ff0000;stroke:#ff0000;stroke-linejoin:miter;" x="537.873545" xlink:href="#m332ce5cc82" y="419.028526"/>
     <use style="fill:#ff0000;stroke:#ff0000;stroke-linejoin:miter;" x="547.7918" xlink:href="#m332ce5cc82" y="419.036285"/>
     <use style="fill:#ff0000;stroke:#ff0000;stroke-linejoin:miter;" x="558.458129" xlink:href="#m332ce5cc82" y="419.03194"/>
     <use style="fill:#ff0000;stroke:#ff0000;stroke-linejoin:miter;" x="568.60697" xlink:href="#m332ce5cc82" y="419.041561"/>
     <use style="fill:#ff0000;stroke:#ff0000;stroke-linejoin:miter;" x="578.531312" xlink:href="#m332ce5cc82" y="419.039389"/>
     <use style="fill:#ff0000;stroke:#ff0000;stroke-linejoin:miter;" x="589.238735" xlink:href="#m332ce5cc82" y="419.042492"/>
     <use style="fill:#ff0000;stroke:#ff0000;stroke-linejoin:miter;" x="599.396709" xlink:href="#m332ce5cc82" y="419.041251"/>
     <use style="fill:#ff0000;stroke:#ff0000;stroke-linejoin:miter;" x="609.336272" xlink:href="#m332ce5cc82" y="419.042182"/>
     <use style="fill:#ff0000;stroke:#ff0000;stroke-linejoin:miter;" x="620.096204" xlink:href="#m332ce5cc82" y="419.038457"/>
     <use style="fill:#ff0000;stroke:#ff0000;stroke-linejoin:miter;" x="630.105781" xlink:href="#m332ce5cc82" y="419.04094"/>
     <use style="fill:#ff0000;stroke:#ff0000;stroke-linejoin:miter;" x="639.992834" xlink:href="#m332ce5cc82" y="419.044044"/>
     <use style="fill:#ff0000;stroke:#ff0000;stroke-linejoin:miter;" x="650.716999" xlink:href="#m332ce5cc82" y="419.038768"/>
     <use style="fill:#ff0000;stroke:#ff0000;stroke-linejoin:miter;" x="660.811047" xlink:href="#m332ce5cc82" y="419.029147"/>
     <use style="fill:#ff0000;stroke:#ff0000;stroke-linejoin:miter;" x="670.660811" xlink:href="#m332ce5cc82" y="419.044975"/>
     <use style="fill:#ff0000;stroke:#ff0000;stroke-linejoin:miter;" x="681.34236" xlink:href="#m332ce5cc82" y="419.041561"/>
     <use style="fill:#ff0000;stroke:#ff0000;stroke-linejoin:miter;" x="691.506421" xlink:href="#m332ce5cc82" y="419.043423"/>
     <use style="fill:#ff0000;stroke:#ff0000;stroke-linejoin:miter;" x="701.356185" xlink:href="#m332ce5cc82" y="419.044044"/>
     <use style="fill:#ff0000;stroke:#ff0000;stroke-linejoin:miter;" x="712.044583" xlink:href="#m332ce5cc82" y="419.039078"/>
     <use style="fill:#ff0000;stroke:#ff0000;stroke-linejoin:miter;" x="722.277135" xlink:href="#m332ce5cc82" y="419.038147"/>
     <use style="fill:#ff0000;stroke:#ff0000;stroke-linejoin:miter;" x="732.148207" xlink:href="#m332ce5cc82" y="419.042802"/>
     <use style="fill:#ff0000;stroke:#ff0000;stroke-linejoin:miter;" x="742.774963" xlink:href="#m332ce5cc82" y="419.039699"/>
     <use style="fill:#ff0000;stroke:#ff0000;stroke-linejoin:miter;" x="752.983924" xlink:href="#m332ce5cc82" y="419.042802"/>
     <use style="fill:#ff0000;stroke:#ff0000;stroke-linejoin:miter;" x="762.870216" xlink:href="#m332ce5cc82" y="419.043113"/>
     <use style="fill:#ff0000;stroke:#ff0000;stroke-linejoin:miter;" x="773.513714" xlink:href="#m332ce5cc82" y="419.042492"/>
     <use style="fill:#ff0000;stroke:#ff0000;stroke-linejoin:miter;" x="783.72648" xlink:href="#m332ce5cc82" y="419.034423"/>
     <use style="fill:#ff0000;stroke:#ff0000;stroke-linejoin:miter;" x="793.647779" xlink:href="#m332ce5cc82" y="419.044044"/>
     <use style="fill:#ff0000;stroke:#ff0000;stroke-linejoin:miter;" x="804.414561" xlink:href="#m332ce5cc82" y="419.035354"/>
     <use style="fill:#ff0000;stroke:#ff0000;stroke-linejoin:miter;" x="814.527634" xlink:href="#m332ce5cc82" y="419.039699"/>
     <use style="fill:#ff0000;stroke:#ff0000;stroke-linejoin:miter;" x="824.420015" xlink:href="#m332ce5cc82" y="419.041561"/>
     <use style="fill:#ff0000;stroke:#ff0000;stroke-linejoin:miter;" x="835.253765" xlink:href="#m332ce5cc82" y="419.038768"/>
     <use style="fill:#ff0000;stroke:#ff0000;stroke-linejoin:miter;" x="845.331832" xlink:href="#m332ce5cc82" y="419.039078"/>
     <use style="fill:#ff0000;stroke:#ff0000;stroke-linejoin:miter;" x="855.25237" xlink:href="#m332ce5cc82" y="419.04094"/>
     <use style="fill:#ff0000;stroke:#ff0000;stroke-linejoin:miter;" x="866.073945" xlink:href="#m332ce5cc82" y="419.037837"/>
     <use style="fill:#ff0000;stroke:#ff0000;stroke-linejoin:miter;" x="876.06754" xlink:href="#m332ce5cc82" y="280.49303"/>
     <use style="fill:#ff0000;stroke:#ff0000;stroke-linejoin:miter;" x="885.974379" xlink:href="#m332ce5cc82" y="280.80338"/>
     <use style="fill:#ff0000;stroke:#ff0000;stroke-linejoin:miter;" x="896.747249" xlink:href="#m332ce5cc82" y="281.459149"/>
     <use style="fill:#ff0000;stroke:#ff0000;stroke-linejoin:miter;" x="906.781178" xlink:href="#m332ce5cc82" y="281.817603"/>
     <use style="fill:#ff0000;stroke:#ff0000;stroke-linejoin:miter;" x="916.665187" xlink:href="#m332ce5cc82" y="139.237628"/>
     <use style="fill:#ff0000;stroke:#ff0000;stroke-linejoin:miter;" x="927.438818" xlink:href="#m332ce5cc82" y="139.893708"/>
     <use style="fill:#ff0000;stroke:#ff0000;stroke-linejoin:miter;" x="937.539715" xlink:href="#m332ce5cc82" y="125.236818"/>
     <use style="fill:#ff0000;stroke:#ff0000;stroke-linejoin:miter;" x="947.446555" xlink:href="#m332ce5cc82" y="125.555237"/>
     <use style="fill:#ff0000;stroke:#ff0000;stroke-linejoin:miter;" x="958.205727" xlink:href="#m332ce5cc82" y="114.916445"/>
     <use style="fill:#ff0000;stroke:#ff0000;stroke-linejoin:miter;" x="968.49155" xlink:href="#m332ce5cc82" y="115.380729"/>
     <use style="fill:#ff0000;stroke:#ff0000;stroke-linejoin:miter;" x="978.430352" xlink:href="#m332ce5cc82" y="108.157337"/>
     <use style="fill:#ff0000;stroke:#ff0000;stroke-linejoin:miter;" x="988.972635" xlink:href="#m332ce5cc82" y="108.730243"/>
     <use style="fill:#ff0000;stroke:#ff0000;stroke-linejoin:miter;" x="999.276723" xlink:href="#m332ce5cc82" y="94.153423"/>
     <use style="fill:#ff0000;stroke:#ff0000;stroke-linejoin:miter;" x="1009.311412" xlink:href="#m332ce5cc82" y="94.513739"/>
     <use style="fill:#ff0000;stroke:#ff0000;stroke-linejoin:miter;" x="1019.852174" xlink:href="#m332ce5cc82" y="89.28"/>
     <use style="fill:#ff0000;stroke:#ff0000;stroke-linejoin:miter;" x="1030.096902" xlink:href="#m332ce5cc82" y="89.724111"/>
     <use style="fill:#ff0000;stroke:#ff0000;stroke-linejoin:miter;" x="1040.053968" xlink:href="#m332ce5cc82" y="90.041288"/>
     <use style="fill:#ff0000;stroke:#ff0000;stroke-linejoin:miter;" x="1050.441006" xlink:href="#m332ce5cc82" y="90.50464"/>
     <use style="fill:#ff0000;stroke:#ff0000;stroke-linejoin:miter;" x="1060.775534" xlink:href="#m332ce5cc82" y="91.006786"/>
     <use style="fill:#ff0000;stroke:#ff0000;stroke-linejoin:miter;" x="1070.658782" xlink:href="#m332ce5cc82" y="91.307205"/>
     <use style="fill:#ff0000;stroke:#ff0000;stroke-linejoin:miter;" x="1081.186606" xlink:href="#m332ce5cc82" y="91.859628"/>
     <use style="fill:#ff0000;stroke:#ff0000;stroke-linejoin:miter;" x="1091.508958" xlink:href="#m332ce5cc82" y="92.33229"/>
     <use style="fill:#ff0000;stroke:#ff0000;stroke-linejoin:miter;" x="1101.370137" xlink:href="#m332ce5cc82" y="92.610674"/>
     <use style="fill:#ff0000;stroke:#ff0000;stroke-linejoin:miter;" x="1111.919269" xlink:href="#m332ce5cc82" y="93.173028"/>
     <use style="fill:#ff0000;stroke:#ff0000;stroke-linejoin:miter;" x="1122.241621" xlink:href="#m332ce5cc82" y="93.632656"/>
     <use style="fill:#ff0000;stroke:#ff0000;stroke-linejoin:miter;" x="1132.073881" xlink:href="#m332ce5cc82" y="93.919109"/>
     <use style="fill:#ff0000;stroke:#ff0000;stroke-linejoin:miter;" x="1142.645084" xlink:href="#m332ce5cc82" y="94.493566"/>
     <use style="fill:#ff0000;stroke:#ff0000;stroke-linejoin:miter;" x="1152.987221" xlink:href="#m332ce5cc82" y="94.968712"/>
     <use style="fill:#ff0000;stroke:#ff0000;stroke-linejoin:miter;" x="1162.820243" xlink:href="#m332ce5cc82" y="95.240268"/>
     <use style="fill:#ff0000;stroke:#ff0000;stroke-linejoin:miter;" x="1173.374703" xlink:href="#m332ce5cc82" y="95.806346"/>
     <use style="fill:#ff0000;stroke:#ff0000;stroke-linejoin:miter;" x="1183.758696" xlink:href="#m332ce5cc82" y="96.300423"/>
     <use style="fill:#ff0000;stroke:#ff0000;stroke-linejoin:miter;" x="1193.604655" xlink:href="#m332ce5cc82" y="96.578186"/>
     <use style="fill:#ff0000;stroke:#ff0000;stroke-linejoin:miter;" x="1204.231411" xlink:href="#m332ce5cc82" y="97.168782"/>
     <use style="fill:#ff0000;stroke:#ff0000;stroke-linejoin:miter;" x="1214.476139" xlink:href="#m332ce5cc82" y="97.609789"/>
     <use style="fill:#ff0000;stroke:#ff0000;stroke-linejoin:miter;" x="1224.341123" xlink:href="#m332ce5cc82" y="97.886621"/>
     <use style="fill:#ff0000;stroke:#ff0000;stroke-linejoin:miter;" x="1234.967118" xlink:href="#m332ce5cc82" y="98.486837"/>
     <use style="fill:#ff0000;stroke:#ff0000;stroke-linejoin:miter;" x="1245.272727" xlink:href="#m332ce5cc82" y="98.956707"/>
    </g>
   </g>
   <g id="line2d_18">
    <path clip-path="url(#pe534ea0ccd)" d="M 230.727273 418.940697 
L 241.067128 419.033182 
L 251.286743 419.036906 
L 261.243048 419.04032 
L 271.119447 419.042802 
L 281.818499 419.04063 
L 291.786219 419.04063 
L 301.648159 419.042802 
L 312.349494 419.042492 
L 322.47931 419.037526 
L 332.322986 419.043113 
L 343.018994 419.042492 
L 353.219583 419.031319 
L 363.076196 419.035354 
L 373.765355 419.036595 
L 383.957574 419.042802 
L 393.830929 419.039389 
L 404.564987 419.04032 
L 414.753401 419.038147 
L 424.845927 419.042802 
L 435.567048 419.04063 
L 445.562926 419.040009 
L 455.465961 419.042802 
L 466.126201 419.037216 
L 476.309288 419.033182 
L 486.232108 419.042802 
L 496.90833 419.042492 
L 507.095221 419.041251 
L 516.986841 419.041871 
L 527.655452 419.039699 
L 537.873545 419.028526 
L 547.7918 419.036285 
L 558.458129 419.03194 
L 568.60697 419.041561 
L 578.531312 419.039389 
L 589.238735 419.042492 
L 599.396709 419.041251 
L 609.336272 419.042182 
L 620.096204 419.038457 
L 630.105781 419.04094 
L 639.992834 419.044044 
L 650.716999 419.038768 
L 660.811047 419.029147 
L 670.660811 419.044975 
L 681.34236 419.041561 
L 691.506421 419.043423 
L 701.356185 419.044044 
L 712.044583 419.039078 
L 722.277135 419.038147 
L 732.148207 419.042802 
L 742.774963 419.039699 
L 752.983924 419.042802 
L 762.870216 419.043113 
L 773.513714 419.042492 
L 783.72648 419.034423 
L 793.647779 419.044044 
L 804.414561 419.035354 
L 814.527634 419.039699 
L 824.420015 419.041561 
L 835.253765 419.038768 
L 845.331832 419.039078 
L 855.25237 419.04094 
L 866.073945 419.037837 
L 876.06754 280.49303 
L 885.974379 280.80338 
L 896.747249 281.459149 
L 906.781178 281.817603 
L 916.665187 139.237628 
L 927.438818 139.893708 
L 937.539715 125.236818 
L 947.446555 125.555237 
L 958.205727 114.916445 
L 968.49155 115.380729 
L 978.430352 108.157337 
L 988.972635 108.730243 
L 999.276723 94.153423 
L 1009.311412 94.513739 
L 1245.272727 98.956707 
" style="fill:none;stroke:#800080;stroke-dasharray:9.6,2.4,1.5,2.4;stroke-dashoffset:0;stroke-width:1.5;"/>
    <defs>
     <path d="M -3 3 
L 3 -3 
M -3 -3 
L 3 3 
" id="m9650c76c4a" style="stroke:#800080;"/>
    </defs>
    <g clip-path="url(#pe534ea0ccd)">
     <use style="fill:#800080;stroke:#800080;" x="230.727273" xlink:href="#m9650c76c4a" y="418.940697"/>
     <use style="fill:#800080;stroke:#800080;" x="241.067128" xlink:href="#m9650c76c4a" y="419.033182"/>
     <use style="fill:#800080;stroke:#800080;" x="251.286743" xlink:href="#m9650c76c4a" y="419.036906"/>
     <use style="fill:#800080;stroke:#800080;" x="261.243048" xlink:href="#m9650c76c4a" y="419.04032"/>
     <use style="fill:#800080;stroke:#800080;" x="271.119447" xlink:href="#m9650c76c4a" y="419.042802"/>
     <use style="fill:#800080;stroke:#800080;" x="281.818499" xlink:href="#m9650c76c4a" y="419.04063"/>
     <use style="fill:#800080;stroke:#800080;" x="291.786219" xlink:href="#m9650c76c4a" y="419.04063"/>
     <use style="fill:#800080;stroke:#800080;" x="301.648159" xlink:href="#m9650c76c4a" y="419.042802"/>
     <use style="fill:#800080;stroke:#800080;" x="312.349494" xlink:href="#m9650c76c4a" y="419.042492"/>
     <use style="fill:#800080;stroke:#800080;" x="322.47931" xlink:href="#m9650c76c4a" y="419.037526"/>
     <use style="fill:#800080;stroke:#800080;" x="332.322986" xlink:href="#m9650c76c4a" y="419.043113"/>
     <use style="fill:#800080;stroke:#800080;" x="343.018994" xlink:href="#m9650c76c4a" y="419.042492"/>
     <use style="fill:#800080;stroke:#800080;" x="353.219583" xlink:href="#m9650c76c4a" y="419.031319"/>
     <use style="fill:#800080;stroke:#800080;" x="363.076196" xlink:href="#m9650c76c4a" y="419.035354"/>
     <use style="fill:#800080;stroke:#800080;" x="373.765355" xlink:href="#m9650c76c4a" y="419.036595"/>
     <use style="fill:#800080;stroke:#800080;" x="383.957574" xlink:href="#m9650c76c4a" y="419.042802"/>
     <use style="fill:#800080;stroke:#800080;" x="393.830929" xlink:href="#m9650c76c4a" y="419.039389"/>
     <use style="fill:#800080;stroke:#800080;" x="404.564987" xlink:href="#m9650c76c4a" y="419.04032"/>
     <use style="fill:#800080;stroke:#800080;" x="414.753401" xlink:href="#m9650c76c4a" y="419.038147"/>
     <use style="fill:#800080;stroke:#800080;" x="424.845927" xlink:href="#m9650c76c4a" y="419.042802"/>
     <use style="fill:#800080;stroke:#800080;" x="435.567048" xlink:href="#m9650c76c4a" y="419.04063"/>
     <use style="fill:#800080;stroke:#800080;" x="445.562926" xlink:href="#m9650c76c4a" y="419.040009"/>
     <use style="fill:#800080;stroke:#800080;" x="455.465961" xlink:href="#m9650c76c4a" y="419.042802"/>
     <use style="fill:#800080;stroke:#800080;" x="466.126201" xlink:href="#m9650c76c4a" y="419.037216"/>
     <use style="fill:#800080;stroke:#800080;" x="476.309288" xlink:href="#m9650c76c4a" y="419.033182"/>
     <use style="fill:#800080;stroke:#800080;" x="486.232108" xlink:href="#m9650c76c4a" y="419.042802"/>
     <use style="fill:#800080;stroke:#800080;" x="496.90833" xlink:href="#m9650c76c4a" y="419.042492"/>
     <use style="fill:#800080;stroke:#800080;" x="507.095221" xlink:href="#m9650c76c4a" y="419.041251"/>
     <use style="fill:#800080;stroke:#800080;" x="516.986841" xlink:href="#m9650c76c4a" y="419.041871"/>
     <use style="fill:#800080;stroke:#800080;" x="527.655452" xlink:href="#m9650c76c4a" y="419.039699"/>
     <use style="fill:#800080;stroke:#800080;" x="537.873545" xlink:href="#m9650c76c4a" y="419.028526"/>
     <use style="fill:#800080;stroke:#800080;" x="547.7918" xlink:href="#m9650c76c4a" y="419.036285"/>
     <use style="fill:#800080;stroke:#800080;" x="558.458129" xlink:href="#m9650c76c4a" y="419.03194"/>
     <use style="fill:#800080;stroke:#800080;" x="568.60697" xlink:href="#m9650c76c4a" y="419.041561"/>
     <use style="fill:#800080;stroke:#800080;" x="578.531312" xlink:href="#m9650c76c4a" y="419.039389"/>
     <use style="fill:#800080;stroke:#800080;" x="589.238735" xlink:href="#m9650c76c4a" y="419.042492"/>
     <use style="fill:#800080;stroke:#800080;" x="599.396709" xlink:href="#m9650c76c4a" y="419.041251"/>
     <use style="fill:#800080;stroke:#800080;" x="609.336272" xlink:href="#m9650c76c4a" y="419.042182"/>
     <use style="fill:#800080;stroke:#800080;" x="620.096204" xlink:href="#m9650c76c4a" y="419.038457"/>
     <use style="fill:#800080;stroke:#800080;" x="630.105781" xlink:href="#m9650c76c4a" y="419.04094"/>
     <use style="fill:#800080;stroke:#800080;" x="639.992834" xlink:href="#m9650c76c4a" y="419.044044"/>
     <use style="fill:#800080;stroke:#800080;" x="650.716999" xlink:href="#m9650c76c4a" y="419.038768"/>
     <use style="fill:#800080;stroke:#800080;" x="660.811047" xlink:href="#m9650c76c4a" y="419.029147"/>
     <use style="fill:#800080;stroke:#800080;" x="670.660811" xlink:href="#m9650c76c4a" y="419.044975"/>
     <use style="fill:#800080;stroke:#800080;" x="681.34236" xlink:href="#m9650c76c4a" y="419.041561"/>
     <use style="fill:#800080;stroke:#800080;" x="691.506421" xlink:href="#m9650c76c4a" y="419.043423"/>
     <use style="fill:#800080;stroke:#800080;" x="701.356185" xlink:href="#m9650c76c4a" y="419.044044"/>
     <use style="fill:#800080;stroke:#800080;" x="712.044583" xlink:href="#m9650c76c4a" y="419.039078"/>
     <use style="fill:#800080;stroke:#800080;" x="722.277135" xlink:href="#m9650c76c4a" y="419.038147"/>
     <use style="fill:#800080;stroke:#800080;" x="732.148207" xlink:href="#m9650c76c4a" y="419.042802"/>
     <use style="fill:#800080;stroke:#800080;" x="742.774963" xlink:href="#m9650c76c4a" y="419.039699"/>
     <use style="fill:#800080;stroke:#800080;" x="752.983924" xlink:href="#m9650c76c4a" y="419.042802"/>
     <use style="fill:#800080;stroke:#800080;" x="762.870216" xlink:href="#m9650c76c4a" y="419.043113"/>
     <use style="fill:#800080;stroke:#800080;" x="773.513714" xlink:href="#m9650c76c4a" y="419.042492"/>
     <use style="fill:#800080;stroke:#800080;" x="783.72648" xlink:href="#m9650c76c4a" y="419.034423"/>
     <use style="fill:#800080;stroke:#800080;" x="793.647779" xlink:href="#m9650c76c4a" y="419.044044"/>
     <use style="fill:#800080;stroke:#800080;" x="804.414561" xlink:href="#m9650c76c4a" y="419.035354"/>
     <use style="fill:#800080;stroke:#800080;" x="814.527634" xlink:href="#m9650c76c4a" y="419.039699"/>
     <use style="fill:#800080;stroke:#800080;" x="824.420015" xlink:href="#m9650c76c4a" y="419.041561"/>
     <use style="fill:#800080;stroke:#800080;" x="835.253765" xlink:href="#m9650c76c4a" y="419.038768"/>
     <use style="fill:#800080;stroke:#800080;" x="845.331832" xlink:href="#m9650c76c4a" y="419.039078"/>
     <use style="fill:#800080;stroke:#800080;" x="855.25237" xlink:href="#m9650c76c4a" y="419.04094"/>
     <use style="fill:#800080;stroke:#800080;" x="866.073945" xlink:href="#m9650c76c4a" y="419.037837"/>
     <use style="fill:#800080;stroke:#800080;" x="876.06754" xlink:href="#m9650c76c4a" y="280.49303"/>
     <use style="fill:#800080;stroke:#800080;" x="885.974379" xlink:href="#m9650c76c4a" y="280.80338"/>
     <use style="fill:#800080;stroke:#800080;" x="896.747249" xlink:href="#m9650c76c4a" y="281.459149"/>
     <use style="fill:#800080;stroke:#800080;" x="906.781178" xlink:href="#m9650c76c4a" y="281.817603"/>
     <use style="fill:#800080;stroke:#800080;" x="916.665187" xlink:href="#m9650c76c4a" y="139.237628"/>
     <use style="fill:#800080;stroke:#800080;" x="927.438818" xlink:href="#m9650c76c4a" y="139.893708"/>
     <use style="fill:#800080;stroke:#800080;" x="937.539715" xlink:href="#m9650c76c4a" y="125.236818"/>
     <use style="fill:#800080;stroke:#800080;" x="947.446555" xlink:href="#m9650c76c4a" y="125.555237"/>
     <use style="fill:#800080;stroke:#800080;" x="958.205727" xlink:href="#m9650c76c4a" y="114.916445"/>
     <use style="fill:#800080;stroke:#800080;" x="968.49155" xlink:href="#m9650c76c4a" y="115.380729"/>
     <use style="fill:#800080;stroke:#800080;" x="978.430352" xlink:href="#m9650c76c4a" y="108.157337"/>
     <use style="fill:#800080;stroke:#800080;" x="988.972635" xlink:href="#m9650c76c4a" y="108.730243"/>
     <use style="fill:#800080;stroke:#800080;" x="999.276723" xlink:href="#m9650c76c4a" y="94.153423"/>
     <use style="fill:#800080;stroke:#800080;" x="1009.311412" xlink:href="#m9650c76c4a" y="94.513739"/>
     <use style="fill:#800080;stroke:#800080;" x="1245.272727" xlink:href="#m9650c76c4a" y="98.956707"/>
    </g>
   </g>
   <g id="line2d_19">
    <path clip-path="url(#pe534ea0ccd)" d="M 230.727273 492.48 
L 241.067128 489.266597 
L 251.286743 486.090562 
L 261.243048 482.996358 
L 271.119447 479.926986 
L 281.818499 476.601953 
L 291.786219 473.504201 
L 301.648159 470.439323 
L 312.349494 467.11358 
L 322.47931 463.965453 
L 332.322986 460.906251 
L 343.018994 457.582163 
L 353.219583 454.412041 
L 363.076196 451.348819 
L 373.765355 448.02686 
L 383.957574 444.859339 
L 393.830929 441.790914 
L 404.564987 438.455001 
L 414.753401 435.288662 
L 424.845927 432.152124 
L 435.567048 428.820231 
L 445.562926 425.713729 
L 455.465961 422.63608 
L 466.126201 419.323108 
L 476.309288 416.158425 
L 486.232108 413.074627 
L 496.90833 409.756688 
L 507.095221 406.590823 
L 516.986841 403.516722 
L 527.655452 400.201148 
L 537.873545 397.025586 
L 547.7918 393.943207 
L 558.458129 390.628343 
L 568.60697 387.474303 
L 578.531312 384.390032 
L 589.238735 381.062397 
L 599.396709 377.905518 
L 609.336272 374.816517 
L 620.096204 371.472563 
L 630.105781 368.361803 
L 639.992834 365.289121 
L 650.716999 361.956283 
L 660.811047 358.819271 
L 670.660811 355.758178 
L 681.34236 352.438583 
L 691.506421 349.279813 
L 701.356185 346.21872 
L 712.044583 342.896997 
L 722.277135 339.716941 
L 732.148207 336.649226 
L 742.774963 333.34666 
L 752.983924 330.173936 
L 762.870216 327.10149 
L 773.513714 323.793721 
L 783.72648 320.619815 
L 793.647779 317.53649 
L 804.414561 314.190407 
L 814.527634 311.047483 
L 824.420015 307.973145 
L 835.253765 304.60625 
L 845.331832 301.474205 
L 855.25237 298.391116 
L 866.073945 295.028005 
L 876.06754 291.922212 
L 885.974379 288.843381 
L 896.747249 285.495406 
L 906.781178 282.377078 
L 916.665187 279.305342 
L 927.438818 275.95713 
L 937.539715 272.81799 
L 947.446555 269.739159 
L 958.205727 266.395441 
L 968.49155 263.19883 
L 978.430352 260.110065 
L 988.972635 256.833752 
L 999.276723 253.631464 
L 1009.311412 250.5129 
L 1245.272727 177.18123 
" style="fill:none;stroke:#0000ff;stroke-linecap:square;stroke-width:1.5;"/>
   </g>
   <g id="line2d_20">
    <path clip-path="url(#pe534ea0ccd)" d="M 230.727273 492.335971 
L 241.067128 489.116027 
L 251.286743 485.933526 
L 261.243048 482.833024 
L 271.119447 479.757405 
L 281.818499 476.425603 
L 291.786219 473.321546 
L 301.648159 470.25043 
L 312.349494 466.917917 
L 322.47931 463.763381 
L 332.322986 460.697953 
L 343.018994 457.367099 
L 353.219583 454.190524 
L 363.076196 451.121066 
L 373.765355 447.792345 
L 383.957574 444.618377 
L 393.830929 441.543706 
L 404.564987 438.201002 
L 414.753401 435.028219 
L 424.845927 431.885296 
L 435.567048 428.546621 
L 445.562926 425.433795 
L 455.465961 422.349882 
L 466.126201 419.030166 
L 476.309288 415.859042 
L 486.232108 412.768967 
L 496.90833 409.444274 
L 507.095221 406.271965 
L 516.986841 403.191606 
L 527.655452 399.869284 
L 537.873545 396.687258 
L 547.7918 393.598604 
L 558.458129 390.276993 
L 568.60697 387.116533 
L 578.531312 384.025984 
L 589.238735 380.691575 
L 599.396709 377.528271 
L 609.336272 374.432982 
L 620.096204 371.082221 
L 630.105781 367.965129 
L 639.992834 364.886193 
L 650.716999 361.54657 
L 660.811047 358.403173 
L 670.660811 355.335849 
L 681.34236 352.009498 
L 691.506421 348.844298 
L 701.356185 345.776973 
L 712.044583 342.448489 
L 722.277135 339.26196 
L 732.148207 336.188 
L 742.774963 332.878712 
L 752.983924 329.69953 
L 762.870216 326.62083 
L 773.513714 323.306328 
L 783.72648 320.125961 
L 793.647779 317.03636 
L 804.414561 313.683466 
L 814.527634 310.534144 
L 824.420015 307.453549 
L 835.253765 304.0798 
L 845.331832 300.94138 
L 855.25237 297.852016 
L 866.073945 294.482059 
L 876.06754 291.369944 
L 885.974379 288.284846 
L 896.747249 284.930056 
L 906.781178 281.805381 
L 916.665187 278.727392 
L 927.438818 275.372365 
L 937.539715 272.226835 
L 947.446555 269.141737 
L 958.205727 265.791213 
L 968.49155 262.588095 
L 978.430352 259.493043 
L 988.972635 256.210061 
L 999.276723 253.001255 
L 1009.311412 249.876343 
L 1245.272727 176.395405 
" style="fill:none;stroke:#008000;stroke-linecap:square;stroke-width:1.5;"/>
    <defs>
     <path d="M 0 3 
C 0.795609 3 1.55874 2.683901 2.12132 2.12132 
C 2.683901 1.55874 3 0.795609 3 0 
C 3 -0.795609 2.683901 -1.55874 2.12132 -2.12132 
C 1.55874 -2.683901 0.795609 -3 0 -3 
C -0.795609 -3 -1.55874 -2.683901 -2.12132 -2.12132 
C -2.683901 -1.55874 -3 -0.795609 -3 0 
C -3 0.795609 -2.683901 1.55874 -2.12132 2.12132 
C -1.55874 2.683901 -0.795609 3 0 3 
z
" id="ma9d9d4a094" style="stroke:#008000;"/>
    </defs>
    <g clip-path="url(#pe534ea0ccd)">
     <use style="fill:#008000;stroke:#008000;" x="230.727273" xlink:href="#ma9d9d4a094" y="492.335971"/>
     <use style="fill:#008000;stroke:#008000;" x="241.067128" xlink:href="#ma9d9d4a094" y="489.116027"/>
     <use style="fill:#008000;stroke:#008000;" x="251.286743" xlink:href="#ma9d9d4a094" y="485.933526"/>
     <use style="fill:#008000;stroke:#008000;" x="261.243048" xlink:href="#ma9d9d4a094" y="482.833024"/>
     <use style="fill:#008000;stroke:#008000;" x="271.119447" xlink:href="#ma9d9d4a094" y="479.757405"/>
     <use style="fill:#008000;stroke:#008000;" x="281.818499" xlink:href="#ma9d9d4a094" y="476.425603"/>
     <use style="fill:#008000;stroke:#008000;" x="291.786219" xlink:href="#ma9d9d4a094" y="473.321546"/>
     <use style="fill:#008000;stroke:#008000;" x="301.648159" xlink:href="#ma9d9d4a094" y="470.25043"/>
     <use style="fill:#008000;stroke:#008000;" x="312.349494" xlink:href="#ma9d9d4a094" y="466.917917"/>
     <use style="fill:#008000;stroke:#008000;" x="322.47931" xlink:href="#ma9d9d4a094" y="463.763381"/>
     <use style="fill:#008000;stroke:#008000;" x="332.322986" xlink:href="#ma9d9d4a094" y="460.697953"/>
     <use style="fill:#008000;stroke:#008000;" x="343.018994" xlink:href="#ma9d9d4a094" y="457.367099"/>
     <use style="fill:#008000;stroke:#008000;" x="353.219583" xlink:href="#ma9d9d4a094" y="454.190524"/>
     <use style="fill:#008000;stroke:#008000;" x="363.076196" xlink:href="#ma9d9d4a094" y="451.121066"/>
     <use style="fill:#008000;stroke:#008000;" x="373.765355" xlink:href="#ma9d9d4a094" y="447.792345"/>
     <use style="fill:#008000;stroke:#008000;" x="383.957574" xlink:href="#ma9d9d4a094" y="444.618377"/>
     <use style="fill:#008000;stroke:#008000;" x="393.830929" xlink:href="#ma9d9d4a094" y="441.543706"/>
     <use style="fill:#008000;stroke:#008000;" x="404.564987" xlink:href="#ma9d9d4a094" y="438.201002"/>
     <use style="fill:#008000;stroke:#008000;" x="414.753401" xlink:href="#ma9d9d4a094" y="435.028219"/>
     <use style="fill:#008000;stroke:#008000;" x="424.845927" xlink:href="#ma9d9d4a094" y="431.885296"/>
     <use style="fill:#008000;stroke:#008000;" x="435.567048" xlink:href="#ma9d9d4a094" y="428.546621"/>
     <use style="fill:#008000;stroke:#008000;" x="445.562926" xlink:href="#ma9d9d4a094" y="425.433795"/>
     <use style="fill:#008000;stroke:#008000;" x="455.465961" xlink:href="#ma9d9d4a094" y="422.349882"/>
     <use style="fill:#008000;stroke:#008000;" x="466.126201" xlink:href="#ma9d9d4a094" y="419.030166"/>
     <use style="fill:#008000;stroke:#008000;" x="476.309288" xlink:href="#ma9d9d4a094" y="415.859042"/>
     <use style="fill:#008000;stroke:#008000;" x="486.232108" xlink:href="#ma9d9d4a094" y="412.768967"/>
     <use style="fill:#008000;stroke:#008000;" x="496.90833" xlink:href="#ma9d9d4a094" y="409.444274"/>
     <use style="fill:#008000;stroke:#008000;" x="507.095221" xlink:href="#ma9d9d4a094" y="406.271965"/>
     <use style="fill:#008000;stroke:#008000;" x="516.986841" xlink:href="#ma9d9d4a094" y="403.191606"/>
     <use style="fill:#008000;stroke:#008000;" x="527.655452" xlink:href="#ma9d9d4a094" y="399.869284"/>
     <use style="fill:#008000;stroke:#008000;" x="537.873545" xlink:href="#ma9d9d4a094" y="396.687258"/>
     <use style="fill:#008000;stroke:#008000;" x="547.7918" xlink:href="#ma9d9d4a094" y="393.598604"/>
     <use style="fill:#008000;stroke:#008000;" x="558.458129" xlink:href="#ma9d9d4a094" y="390.276993"/>
     <use style="fill:#008000;stroke:#008000;" x="568.60697" xlink:href="#ma9d9d4a094" y="387.116533"/>
     <use style="fill:#008000;stroke:#008000;" x="578.531312" xlink:href="#ma9d9d4a094" y="384.025984"/>
     <use style="fill:#008000;stroke:#008000;" x="589.238735" xlink:href="#ma9d9d4a094" y="380.691575"/>
     <use style="fill:#008000;stroke:#008000;" x="599.396709" xlink:href="#ma9d9d4a094" y="377.528271"/>
     <use style="fill:#008000;stroke:#008000;" x="609.336272" xlink:href="#ma9d9d4a094" y="374.432982"/>
     <use style="fill:#008000;stroke:#008000;" x="620.096204" xlink:href="#ma9d9d4a094" y="371.082221"/>
     <use style="fill:#008000;stroke:#008000;" x="630.105781" xlink:href="#ma9d9d4a094" y="367.965129"/>
     <use style="fill:#008000;stroke:#008000;" x="639.992834" xlink:href="#ma9d9d4a094" y="364.886193"/>
     <use style="fill:#008000;stroke:#008000;" x="650.716999" xlink:href="#ma9d9d4a094" y="361.54657"/>
     <use style="fill:#008000;stroke:#008000;" x="660.811047" xlink:href="#ma9d9d4a094" y="358.403173"/>
     <use style="fill:#008000;stroke:#008000;" x="670.660811" xlink:href="#ma9d9d4a094" y="355.335849"/>
     <use style="fill:#008000;stroke:#008000;" x="681.34236" xlink:href="#ma9d9d4a094" y="352.009498"/>
     <use style="fill:#008000;stroke:#008000;" x="691.506421" xlink:href="#ma9d9d4a094" y="348.844298"/>
     <use style="fill:#008000;stroke:#008000;" x="701.356185" xlink:href="#ma9d9d4a094" y="345.776973"/>
     <use style="fill:#008000;stroke:#008000;" x="712.044583" xlink:href="#ma9d9d4a094" y="342.448489"/>
     <use style="fill:#008000;stroke:#008000;" x="722.277135" xlink:href="#ma9d9d4a094" y="339.26196"/>
     <use style="fill:#008000;stroke:#008000;" x="732.148207" xlink:href="#ma9d9d4a094" y="336.188"/>
     <use style="fill:#008000;stroke:#008000;" x="742.774963" xlink:href="#ma9d9d4a094" y="332.878712"/>
     <use style="fill:#008000;stroke:#008000;" x="752.983924" xlink:href="#ma9d9d4a094" y="329.69953"/>
     <use style="fill:#008000;stroke:#008000;" x="762.870216" xlink:href="#ma9d9d4a094" y="326.62083"/>
     <use style="fill:#008000;stroke:#008000;" x="773.513714" xlink:href="#ma9d9d4a094" y="323.306328"/>
     <use style="fill:#008000;stroke:#008000;" x="783.72648" xlink:href="#ma9d9d4a094" y="320.125961"/>
     <use style="fill:#008000;stroke:#008000;" x="793.647779" xlink:href="#ma9d9d4a094" y="317.03636"/>
     <use style="fill:#008000;stroke:#008000;" x="804.414561" xlink:href="#ma9d9d4a094" y="313.683466"/>
     <use style="fill:#008000;stroke:#008000;" x="814.527634" xlink:href="#ma9d9d4a094" y="310.534144"/>
     <use style="fill:#008000;stroke:#008000;" x="824.420015" xlink:href="#ma9d9d4a094" y="307.453549"/>
     <use style="fill:#008000;stroke:#008000;" x="835.253765" xlink:href="#ma9d9d4a094" y="304.0798"/>
     <use style="fill:#008000;stroke:#008000;" x="845.331832" xlink:href="#ma9d9d4a094" y="300.94138"/>
     <use style="fill:#008000;stroke:#008000;" x="855.25237" xlink:href="#ma9d9d4a094" y="297.852016"/>
     <use style="fill:#008000;stroke:#008000;" x="866.073945" xlink:href="#ma9d9d4a094" y="294.482059"/>
     <use style="fill:#008000;stroke:#008000;" x="876.06754" xlink:href="#ma9d9d4a094" y="291.369944"/>
     <use style="fill:#008000;stroke:#008000;" x="885.974379" xlink:href="#ma9d9d4a094" y="288.284846"/>
     <use style="fill:#008000;stroke:#008000;" x="896.747249" xlink:href="#ma9d9d4a094" y="284.930056"/>
     <use style="fill:#008000;stroke:#008000;" x="906.781178" xlink:href="#ma9d9d4a094" y="281.805381"/>
     <use style="fill:#008000;stroke:#008000;" x="916.665187" xlink:href="#ma9d9d4a094" y="278.727392"/>
     <use style="fill:#008000;stroke:#008000;" x="927.438818" xlink:href="#ma9d9d4a094" y="275.372365"/>
     <use style="fill:#008000;stroke:#008000;" x="937.539715" xlink:href="#ma9d9d4a094" y="272.226835"/>
     <use style="fill:#008000;stroke:#008000;" x="947.446555" xlink:href="#ma9d9d4a094" y="269.141737"/>
     <use style="fill:#008000;stroke:#008000;" x="958.205727" xlink:href="#ma9d9d4a094" y="265.791213"/>
     <use style="fill:#008000;stroke:#008000;" x="968.49155" xlink:href="#ma9d9d4a094" y="262.588095"/>
     <use style="fill:#008000;stroke:#008000;" x="978.430352" xlink:href="#ma9d9d4a094" y="259.493043"/>
     <use style="fill:#008000;stroke:#008000;" x="988.972635" xlink:href="#ma9d9d4a094" y="256.210061"/>
     <use style="fill:#008000;stroke:#008000;" x="999.276723" xlink:href="#ma9d9d4a094" y="253.001255"/>
     <use style="fill:#008000;stroke:#008000;" x="1009.311412" xlink:href="#ma9d9d4a094" y="249.876343"/>
     <use style="fill:#008000;stroke:#008000;" x="1245.272727" xlink:href="#ma9d9d4a094" y="176.395405"/>
    </g>
   </g>
   <g id="patch_3">
    <path d="M 180 512.64 
L 180 69.12 
" style="fill:none;stroke:#000000;stroke-linecap:square;stroke-linejoin:miter;stroke-width:0.8;"/>
   </g>
   <g id="patch_4">
    <path d="M 1296 512.64 
L 1296 69.12 
" style="fill:none;stroke:#000000;stroke-linecap:square;stroke-linejoin:miter;stroke-width:0.8;"/>
   </g>
   <g id="patch_5">
    <path d="M 180 512.64 
L 1296 512.64 
" style="fill:none;stroke:#000000;stroke-linecap:square;stroke-linejoin:miter;stroke-width:0.8;"/>
   </g>
   <g id="patch_6">
    <path d="M 180 69.12 
L 1296 69.12 
" style="fill:none;stroke:#000000;stroke-linecap:square;stroke-linejoin:miter;stroke-width:0.8;"/>
   </g>
   <g id="text_17">
    <!-- 500000.0 bit/s -->
    <defs>
     <path d="M 10.796875 72.90625 
L 49.515625 72.90625 
L 49.515625 64.59375 
L 19.828125 64.59375 
L 19.828125 46.734375 
Q 21.96875 47.46875 24.109375 47.828125 
Q 26.265625 48.1875 28.421875 48.1875 
Q 40.625 48.1875 47.75 41.5 
Q 54.890625 34.8125 54.890625 23.390625 
Q 54.890625 11.625 47.5625 5.09375 
Q 40.234375 -1.421875 26.90625 -1.421875 
Q 22.3125 -1.421875 17.546875 -0.640625 
Q 12.796875 0.140625 7.71875 1.703125 
L 7.71875 11.625 
Q 12.109375 9.234375 16.796875 8.0625 
Q 21.484375 6.890625 26.703125 6.890625 
Q 35.15625 6.890625 40.078125 11.328125 
Q 45.015625 15.765625 45.015625 23.390625 
Q 45.015625 31 40.078125 35.4375 
Q 35.15625 39.890625 26.703125 39.890625 
Q 22.75 39.890625 18.8125 39.015625 
Q 14.890625 38.140625 10.796875 36.28125 
z
" id="DejaVuSans-35"/>
     <path id="DejaVuSans-20"/>
     <path d="M 48.6875 27.296875 
Q 48.6875 37.203125 44.609375 42.84375 
Q 40.53125 48.484375 33.40625 48.484375 
Q 26.265625 48.484375 22.1875 42.84375 
Q 18.109375 37.203125 18.109375 27.296875 
Q 18.109375 17.390625 22.1875 11.75 
Q 26.265625 6.109375 33.40625 6.109375 
Q 40.53125 6.109375 44.609375 11.75 
Q 48.6875 17.390625 48.6875 27.296875 
z
M 18.109375 46.390625 
Q 20.953125 51.265625 25.265625 53.625 
Q 29.59375 56 35.59375 56 
Q 45.5625 56 51.78125 48.09375 
Q 58.015625 40.1875 58.015625 27.296875 
Q 58.015625 14.40625 51.78125 6.484375 
Q 45.5625 -1.421875 35.59375 -1.421875 
Q 29.59375 -1.421875 25.265625 0.953125 
Q 20.953125 3.328125 18.109375 8.203125 
L 18.109375 0 
L 9.078125 0 
L 9.078125 75.984375 
L 18.109375 75.984375 
z
" id="DejaVuSans-62"/>
     <path d="M 9.421875 54.6875 
L 18.40625 54.6875 
L 18.40625 0 
L 9.421875 0 
z
M 9.421875 75.984375 
L 18.40625 75.984375 
L 18.40625 64.59375 
L 9.421875 64.59375 
z
" id="DejaVuSans-69"/>
     <path d="M 18.3125 70.21875 
L 18.3125 54.6875 
L 36.8125 54.6875 
L 36.8125 47.703125 
L 18.3125 47.703125 
L 18.3125 18.015625 
Q 18.3125 11.328125 20.140625 9.421875 
Q 21.96875 7.515625 27.59375 7.515625 
L 36.8125 7.515625 
L 36.8125 0 
L 27.59375 0 
Q 17.1875 0 13.234375 3.875 
Q 9.28125 7.765625 9.28125 18.015625 
L 9.28125 47.703125 
L 2.6875 47.703125 
L 2.6875 54.6875 
L 9.28125 54.6875 
L 9.28125 70.21875 
z
" id="DejaVuSans-74"/>
     <path d="M 25.390625 72.90625 
L 33.6875 72.90625 
L 8.296875 -9.28125 
L 0 -9.28125 
z
" id="DejaVuSans-2f"/>
     <path d="M 44.28125 53.078125 
L 44.28125 44.578125 
Q 40.484375 46.53125 36.375 47.5 
Q 32.28125 48.484375 27.875 48.484375 
Q 21.1875 48.484375 17.84375 46.4375 
Q 14.5 44.390625 14.5 40.28125 
Q 14.5 37.15625 16.890625 35.375 
Q 19.28125 33.59375 26.515625 31.984375 
L 29.59375 31.296875 
Q 39.15625 29.25 43.1875 25.515625 
Q 47.21875 21.78125 47.21875 15.09375 
Q 47.21875 7.46875 41.1875 3.015625 
Q 35.15625 -1.421875 24.609375 -1.421875 
Q 20.21875 -1.421875 15.453125 -0.5625 
Q 10.6875 0.296875 5.421875 2 
L 5.421875 11.28125 
Q 10.40625 8.6875 15.234375 7.390625 
Q 20.0625 6.109375 24.8125 6.109375 
Q 31.15625 6.109375 34.5625 8.28125 
Q 37.984375 10.453125 37.984375 14.40625 
Q 37.984375 18.0625 35.515625 20.015625 
Q 33.0625 21.96875 24.703125 23.78125 
L 21.578125 24.515625 
Q 13.234375 26.265625 9.515625 29.90625 
Q 5.8125 33.546875 5.8125 39.890625 
Q 5.8125 47.609375 11.28125 51.796875 
Q 16.75 56 26.8125 56 
Q 31.78125 56 36.171875 55.265625 
Q 40.578125 54.546875 44.28125 53.078125 
z
" id="DejaVuSans-73"/>
    </defs>
    <g transform="translate(694.48875 63.12)scale(0.12 -0.12)">
     <use xlink:href="#DejaVuSans-35"/>
     <use x="63.623047" xlink:href="#DejaVuSans-30"/>
     <use x="127.246094" xlink:href="#DejaVuSans-30"/>
     <use x="190.869141" xlink:href="#DejaVuSans-30"/>
     <use x="254.492188" xlink:href="#DejaVuSans-30"/>
     <use x="318.115234" xlink:href="#DejaVuSans-30"/>
     <use x="381.738281" xlink:href="#DejaVuSans-2e"/>
     <use x="413.525391" xlink:href="#DejaVuSans-30"/>
     <use x="477.148438" xlink:href="#DejaVuSans-20"/>
     <use x="508.935547" xlink:href="#DejaVuSans-62"/>
     <use x="572.412109" xlink:href="#DejaVuSans-69"/>
     <use x="600.195312" xlink:href="#DejaVuSans-74"/>
     <use x="639.404297" xlink:href="#DejaVuSans-2f"/>
     <use x="673.095703" xlink:href="#DejaVuSans-73"/>
    </g>
   </g>
   <g id="legend_1">
    <g id="patch_7">
     <path d="M 1173.520313 135.8325 
L 1289 135.8325 
Q 1291 135.8325 1291 133.8325 
L 1291 76.12 
Q 1291 74.12 1289 74.12 
L 1173.520313 74.12 
Q 1171.520313 74.12 1171.520313 76.12 
L 1171.520313 133.8325 
Q 1171.520313 135.8325 1173.520313 135.8325 
z
" style="fill:#ffffff;opacity:0.8;stroke:#cccccc;stroke-linejoin:miter;"/>
    </g>
    <g id="line2d_21">
     <path d="M 1175.520313 82.218437 
L 1195.520313 82.218437 
" style="fill:none;stroke:#ff0000;stroke-dasharray:5.55,2.4;stroke-dashoffset:0;stroke-width:1.5;"/>
    </g>
    <g id="line2d_22">
     <g>
      <use style="fill:#ff0000;stroke:#ff0000;stroke-linejoin:miter;" x="1185.520313" xlink:href="#m332ce5cc82" y="82.218437"/>
     </g>
    </g>
    <g id="text_18">
     <!-- tcpdump -->
     <defs>
      <path d="M 48.78125 52.59375 
L 48.78125 44.1875 
Q 44.96875 46.296875 41.140625 47.34375 
Q 37.3125 48.390625 33.40625 48.390625 
Q 24.65625 48.390625 19.8125 42.84375 
Q 14.984375 37.3125 14.984375 27.296875 
Q 14.984375 17.28125 19.8125 11.734375 
Q 24.65625 6.203125 33.40625 6.203125 
Q 37.3125 6.203125 41.140625 7.25 
Q 44.96875 8.296875 48.78125 10.40625 
L 48.78125 2.09375 
Q 45.015625 0.34375 40.984375 -0.53125 
Q 36.96875 -1.421875 32.421875 -1.421875 
Q 20.0625 -1.421875 12.78125 6.34375 
Q 5.515625 14.109375 5.515625 27.296875 
Q 5.515625 40.671875 12.859375 48.328125 
Q 20.21875 56 33.015625 56 
Q 37.15625 56 41.109375 55.140625 
Q 45.0625 54.296875 48.78125 52.59375 
z
" id="DejaVuSans-63"/>
      <path d="M 18.109375 8.203125 
L 18.109375 -20.796875 
L 9.078125 -20.796875 
L 9.078125 54.6875 
L 18.109375 54.6875 
L 18.109375 46.390625 
Q 20.953125 51.265625 25.265625 53.625 
Q 29.59375 56 35.59375 56 
Q 45.5625 56 51.78125 48.09375 
Q 58.015625 40.1875 58.015625 27.296875 
Q 58.015625 14.40625 51.78125 6.484375 
Q 45.5625 -1.421875 35.59375 -1.421875 
Q 29.59375 -1.421875 25.265625 0.953125 
Q 20.953125 3.328125 18.109375 8.203125 
z
M 48.6875 27.296875 
Q 48.6875 37.203125 44.609375 42.84375 
Q 40.53125 48.484375 33.40625 48.484375 
Q 26.265625 48.484375 22.1875 42.84375 
Q 18.109375 37.203125 18.109375 27.296875 
Q 18.109375 17.390625 22.1875 11.75 
Q 26.265625 6.109375 33.40625 6.109375 
Q 40.53125 6.109375 44.609375 11.75 
Q 48.6875 17.390625 48.6875 27.296875 
z
" id="DejaVuSans-70"/>
      <path d="M 45.40625 46.390625 
L 45.40625 75.984375 
L 54.390625 75.984375 
L 54.390625 0 
L 45.40625 0 
L 45.40625 8.203125 
Q 42.578125 3.328125 38.25 0.953125 
Q 33.9375 -1.421875 27.875 -1.421875 
Q 17.96875 -1.421875 11.734375 6.484375 
Q 5.515625 14.40625 5.515625 27.296875 
Q 5.515625 40.1875 11.734375 48.09375 
Q 17.96875 56 27.875 56 
Q 33.9375 56 38.25 53.625 
Q 42.578125 51.265625 45.40625 46.390625 
z
M 14.796875 27.296875 
Q 14.796875 17.390625 18.875 11.75 
Q 22.953125 6.109375 30.078125 6.109375 
Q 37.203125 6.109375 41.296875 11.75 
Q 45.40625 17.390625 45.40625 27.296875 
Q 45.40625 37.203125 41.296875 42.84375 
Q 37.203125 48.484375 30.078125 48.484375 
Q 22.953125 48.484375 18.875 42.84375 
Q 14.796875 37.203125 14.796875 27.296875 
z
" id="DejaVuSans-64"/>
      <path d="M 8.5 21.578125 
L 8.5 54.6875 
L 17.484375 54.6875 
L 17.484375 21.921875 
Q 17.484375 14.15625 20.5 10.265625 
Q 23.53125 6.390625 29.59375 6.390625 
Q 36.859375 6.390625 41.078125 11.03125 
Q 45.3125 15.671875 45.3125 23.6875 
L 45.3125 54.6875 
L 54.296875 54.6875 
L 54.296875 0 
L 45.3125 0 
L 45.3125 8.40625 
Q 42.046875 3.421875 37.71875 1 
Q 33.40625 -1.421875 27.6875 -1.421875 
Q 18.265625 -1.421875 13.375 4.4375 
Q 8.5 10.296875 8.5 21.578125 
z
M 31.109375 56 
z
" id="DejaVuSans-75"/>
      <path d="M 52 44.1875 
Q 55.375 50.25 60.0625 53.125 
Q 64.75 56 71.09375 56 
Q 79.640625 56 84.28125 50.015625 
Q 88.921875 44.046875 88.921875 33.015625 
L 88.921875 0 
L 79.890625 0 
L 79.890625 32.71875 
Q 79.890625 40.578125 77.09375 44.375 
Q 74.3125 48.1875 68.609375 48.1875 
Q 61.625 48.1875 57.5625 43.546875 
Q 53.515625 38.921875 53.515625 30.90625 
L 53.515625 0 
L 44.484375 0 
L 44.484375 32.71875 
Q 44.484375 40.625 41.703125 44.40625 
Q 38.921875 48.1875 33.109375 48.1875 
Q 26.21875 48.1875 22.15625 43.53125 
Q 18.109375 38.875 18.109375 30.90625 
L 18.109375 0 
L 9.078125 0 
L 9.078125 54.6875 
L 18.109375 54.6875 
L 18.109375 46.1875 
Q 21.1875 51.21875 25.484375 53.609375 
Q 29.78125 56 35.6875 56 
Q 41.65625 56 45.828125 52.96875 
Q 50 49.953125 52 44.1875 
z
" id="DejaVuSans-6d"/>
     </defs>
     <g transform="translate(1203.520313 85.718437)scale(0.1 -0.1)">
      <use xlink:href="#DejaVuSans-74"/>
      <use x="39.208984" xlink:href="#DejaVuSans-63"/>
      <use x="94.189453" xlink:href="#DejaVuSans-70"/>
      <use x="157.666016" xlink:href="#DejaVuSans-64"/>
      <use x="221.142578" xlink:href="#DejaVuSans-75"/>
      <use x="284.521484" xlink:href="#DejaVuSans-6d"/>
      <use x="381.933594" xlink:href="#DejaVuSans-70"/>
     </g>
    </g>
    <g id="line2d_23">
     <path d="M 1175.520313 96.896563 
L 1195.520313 96.896563 
" style="fill:none;stroke:#800080;stroke-dasharray:9.6,2.4,1.5,2.4;stroke-dashoffset:0;stroke-width:1.5;"/>
    </g>
    <g id="line2d_24">
     <g>
      <use style="fill:#800080;stroke:#800080;" x="1185.520313" xlink:href="#m9650c76c4a" y="96.896563"/>
     </g>
    </g>
    <g id="text_19">
     <!-- filtered tcpdump -->
     <defs>
      <path d="M 37.109375 75.984375 
L 37.109375 68.5 
L 28.515625 68.5 
Q 23.6875 68.5 21.796875 66.546875 
Q 19.921875 64.59375 19.921875 59.515625 
L 19.921875 54.6875 
L 34.71875 54.6875 
L 34.71875 47.703125 
L 19.921875 47.703125 
L 19.921875 0 
L 10.890625 0 
L 10.890625 47.703125 
L 2.296875 47.703125 
L 2.296875 54.6875 
L 10.890625 54.6875 
L 10.890625 58.5 
Q 10.890625 67.625 15.140625 71.796875 
Q 19.390625 75.984375 28.609375 75.984375 
z
" id="DejaVuSans-66"/>
      <path d="M 9.421875 75.984375 
L 18.40625 75.984375 
L 18.40625 0 
L 9.421875 0 
z
" id="DejaVuSans-6c"/>
      <path d="M 56.203125 29.59375 
L 56.203125 25.203125 
L 14.890625 25.203125 
Q 15.484375 15.921875 20.484375 11.0625 
Q 25.484375 6.203125 34.421875 6.203125 
Q 39.59375 6.203125 44.453125 7.46875 
Q 49.3125 8.734375 54.109375 11.28125 
L 54.109375 2.78125 
Q 49.265625 0.734375 44.1875 -0.34375 
Q 39.109375 -1.421875 33.890625 -1.421875 
Q 20.796875 -1.421875 13.15625 6.1875 
Q 5.515625 13.8125 5.515625 26.8125 
Q 5.515625 40.234375 12.765625 48.109375 
Q 20.015625 56 32.328125 56 
Q 43.359375 56 49.78125 48.890625 
Q 56.203125 41.796875 56.203125 29.59375 
z
M 47.21875 32.234375 
Q 47.125 39.59375 43.09375 43.984375 
Q 39.0625 48.390625 32.421875 48.390625 
Q 24.90625 48.390625 20.390625 44.140625 
Q 15.875 39.890625 15.1875 32.171875 
z
" id="DejaVuSans-65"/>
      <path d="M 41.109375 46.296875 
Q 39.59375 47.171875 37.8125 47.578125 
Q 36.03125 48 33.890625 48 
Q 26.265625 48 22.1875 43.046875 
Q 18.109375 38.09375 18.109375 28.8125 
L 18.109375 0 
L 9.078125 0 
L 9.078125 54.6875 
L 18.109375 54.6875 
L 18.109375 46.1875 
Q 20.953125 51.171875 25.484375 53.578125 
Q 30.03125 56 36.53125 56 
Q 37.453125 56 38.578125 55.875 
Q 39.703125 55.765625 41.0625 55.515625 
z
" id="DejaVuSans-72"/>
     </defs>
     <g transform="translate(1203.520313 100.396563)scale(0.1 -0.1)">
      <use xlink:href="#DejaVuSans-66"/>
      <use x="35.205078" xlink:href="#DejaVuSans-69"/>
      <use x="62.988281" xlink:href="#DejaVuSans-6c"/>
      <use x="90.771484" xlink:href="#DejaVuSans-74"/>
      <use x="129.980469" xlink:href="#DejaVuSans-65"/>
      <use x="191.503906" xlink:href="#DejaVuSans-72"/>
      <use x="232.585938" xlink:href="#DejaVuSans-65"/>
      <use x="294.109375" xlink:href="#DejaVuSans-64"/>
      <use x="357.585938" xlink:href="#DejaVuSans-20"/>
      <use x="389.373047" xlink:href="#DejaVuSans-74"/>
      <use x="428.582031" xlink:href="#DejaVuSans-63"/>
      <use x="483.5625" xlink:href="#DejaVuSans-70"/>
      <use x="547.039062" xlink:href="#DejaVuSans-64"/>
      <use x="610.515625" xlink:href="#DejaVuSans-75"/>
      <use x="673.894531" xlink:href="#DejaVuSans-6d"/>
      <use x="771.306641" xlink:href="#DejaVuSans-70"/>
     </g>
    </g>
    <g id="line2d_25">
     <path d="M 1175.520313 111.574687 
L 1195.520313 111.574687 
" style="fill:none;stroke:#0000ff;stroke-linecap:square;stroke-width:1.5;"/>
    </g>
    <g id="line2d_26"/>
    <g id="text_20">
     <!-- OLS -->
     <defs>
      <path d="M 39.40625 66.21875 
Q 28.65625 66.21875 22.328125 58.203125 
Q 16.015625 50.203125 16.015625 36.375 
Q 16.015625 22.609375 22.328125 14.59375 
Q 28.65625 6.59375 39.40625 6.59375 
Q 50.140625 6.59375 56.421875 14.59375 
Q 62.703125 22.609375 62.703125 36.375 
Q 62.703125 50.203125 56.421875 58.203125 
Q 50.140625 66.21875 39.40625 66.21875 
z
M 39.40625 74.21875 
Q 54.734375 74.21875 63.90625 63.9375 
Q 73.09375 53.65625 73.09375 36.375 
Q 73.09375 19.140625 63.90625 8.859375 
Q 54.734375 -1.421875 39.40625 -1.421875 
Q 24.03125 -1.421875 14.8125 8.828125 
Q 5.609375 19.09375 5.609375 36.375 
Q 5.609375 53.65625 14.8125 63.9375 
Q 24.03125 74.21875 39.40625 74.21875 
z
" id="DejaVuSans-4f"/>
      <path d="M 9.8125 72.90625 
L 19.671875 72.90625 
L 19.671875 8.296875 
L 55.171875 8.296875 
L 55.171875 0 
L 9.8125 0 
z
" id="DejaVuSans-4c"/>
      <path d="M 53.515625 70.515625 
L 53.515625 60.890625 
Q 47.90625 63.578125 42.921875 64.890625 
Q 37.9375 66.21875 33.296875 66.21875 
Q 25.25 66.21875 20.875 63.09375 
Q 16.5 59.96875 16.5 54.203125 
Q 16.5 49.359375 19.40625 46.890625 
Q 22.3125 44.4375 30.421875 42.921875 
L 36.375 41.703125 
Q 47.40625 39.59375 52.65625 34.296875 
Q 57.90625 29 57.90625 20.125 
Q 57.90625 9.515625 50.796875 4.046875 
Q 43.703125 -1.421875 29.984375 -1.421875 
Q 24.8125 -1.421875 18.96875 -0.25 
Q 13.140625 0.921875 6.890625 3.21875 
L 6.890625 13.375 
Q 12.890625 10.015625 18.65625 8.296875 
Q 24.421875 6.59375 29.984375 6.59375 
Q 38.421875 6.59375 43.015625 9.90625 
Q 47.609375 13.234375 47.609375 19.390625 
Q 47.609375 24.75 44.3125 27.78125 
Q 41.015625 30.8125 33.5 32.328125 
L 27.484375 33.5 
Q 16.453125 35.6875 11.515625 40.375 
Q 6.59375 45.0625 6.59375 53.421875 
Q 6.59375 63.09375 13.40625 68.65625 
Q 20.21875 74.21875 32.171875 74.21875 
Q 37.3125 74.21875 42.625 73.28125 
Q 47.953125 72.359375 53.515625 70.515625 
z
" id="DejaVuSans-53"/>
     </defs>
     <g transform="translate(1203.520313 115.074687)scale(0.1 -0.1)">
      <use xlink:href="#DejaVuSans-4f"/>
      <use x="78.710938" xlink:href="#DejaVuSans-4c"/>
      <use x="134.423828" xlink:href="#DejaVuSans-53"/>
     </g>
    </g>
    <g id="line2d_27">
     <path d="M 1175.520313 126.252813 
L 1195.520313 126.252813 
" style="fill:none;stroke:#008000;stroke-linecap:square;stroke-width:1.5;"/>
    </g>
    <g id="line2d_28">
     <g>
      <use style="fill:#008000;stroke:#008000;" x="1185.520313" xlink:href="#ma9d9d4a094" y="126.252813"/>
     </g>
    </g>
    <g id="text_21">
     <!-- IRLS -->
     <defs>
      <path d="M 9.8125 72.90625 
L 19.671875 72.90625 
L 19.671875 0 
L 9.8125 0 
z
" id="DejaVuSans-49"/>
      <path d="M 44.390625 34.1875 
Q 47.5625 33.109375 50.5625 29.59375 
Q 53.5625 26.078125 56.59375 19.921875 
L 66.609375 0 
L 56 0 
L 46.6875 18.703125 
Q 43.0625 26.03125 39.671875 28.421875 
Q 36.28125 30.8125 30.421875 30.8125 
L 19.671875 30.8125 
L 19.671875 0 
L 9.8125 0 
L 9.8125 72.90625 
L 32.078125 72.90625 
Q 44.578125 72.90625 50.734375 67.671875 
Q 56.890625 62.453125 56.890625 51.90625 
Q 56.890625 45.015625 53.6875 40.46875 
Q 50.484375 35.9375 44.390625 34.1875 
z
M 19.671875 64.796875 
L 19.671875 38.921875 
L 32.078125 38.921875 
Q 39.203125 38.921875 42.84375 42.21875 
Q 46.484375 45.515625 46.484375 51.90625 
Q 46.484375 58.296875 42.84375 61.546875 
Q 39.203125 64.796875 32.078125 64.796875 
z
" id="DejaVuSans-52"/>
     </defs>
     <g transform="translate(1203.520313 129.752813)scale(0.1 -0.1)">
      <use xlink:href="#DejaVuSans-49"/>
      <use x="29.492188" xlink:href="#DejaVuSans-52"/>
      <use x="98.974609" xlink:href="#DejaVuSans-4c"/>
      <use x="154.6875" xlink:href="#DejaVuSans-53"/>
     </g>
    </g>
   </g>
  </g>
 </g>
 <defs>
  <clipPath id="pe534ea0ccd">
   <rect height="443.52" width="1116" x="180" y="69.12"/>
  </clipPath>
 </defs>
</svg>
