<?xml version="1.0" encoding="utf-8" standalone="no"?>
<!DOCTYPE svg PUBLIC "-//W3C//DTD SVG 1.1//EN"
  "http://www.w3.org/Graphics/SVG/1.1/DTD/svg11.dtd">
<!-- Created with matplotlib (http://matplotlib.org/) -->
<svg height="576pt" version="1.1" viewBox="0 0 1440 576" width="1440pt" xmlns="http://www.w3.org/2000/svg" xmlns:xlink="http://www.w3.org/1999/xlink">
 <defs>
  <style type="text/css">
*{stroke-linecap:butt;stroke-linejoin:round;}
  </style>
 </defs>
 <g id="figure_1">
  <g id="patch_1">
   <path d="M 0 576 
L 1440 576 
L 1440 0 
L 0 0 
z
" style="fill:#ffffff;"/>
  </g>
  <g id="axes_1">
   <g id="patch_2">
    <path d="M 180 512.64 
L 1296 512.64 
L 1296 69.12 
L 180 69.12 
z
" style="fill:#ffffff;"/>
   </g>
   <g id="matplotlib.axis_1">
    <g id="xtick_1">
     <g id="line2d_1">
      <defs>
       <path d="M 0 0 
L 0 3.5 
" id="m56d00649c5" style="stroke:#000000;stroke-width:0.8;"/>
      </defs>
      <g>
       <use style="stroke:#000000;stroke-width:0.8;" x="230.727273" xlink:href="#m56d00649c5" y="512.64"/>
      </g>
     </g>
     <g id="text_1">
      <!-- 0.0 -->
      <defs>
       <path d="M 31.78125 66.40625 
Q 24.171875 66.40625 20.328125 58.90625 
Q 16.5 51.421875 16.5 36.375 
Q 16.5 21.390625 20.328125 13.890625 
Q 24.171875 6.390625 31.78125 6.390625 
Q 39.453125 6.390625 43.28125 13.890625 
Q 47.125 21.390625 47.125 36.375 
Q 47.125 51.421875 43.28125 58.90625 
Q 39.453125 66.40625 31.78125 66.40625 
z
M 31.78125 74.21875 
Q 44.046875 74.21875 50.515625 64.515625 
Q 56.984375 54.828125 56.984375 36.375 
Q 56.984375 17.96875 50.515625 8.265625 
Q 44.046875 -1.421875 31.78125 -1.421875 
Q 19.53125 -1.421875 13.0625 8.265625 
Q 6.59375 17.96875 6.59375 36.375 
Q 6.59375 54.828125 13.0625 64.515625 
Q 19.53125 74.21875 31.78125 74.21875 
z
" id="DejaVuSans-30"/>
       <path d="M 10.6875 12.40625 
L 21 12.40625 
L 21 0 
L 10.6875 0 
z
" id="DejaVuSans-2e"/>
      </defs>
      <g transform="translate(222.77571 527.238438)scale(0.1 -0.1)">
       <use xlink:href="#DejaVuSans-30"/>
       <use x="63.623047" xlink:href="#DejaVuSans-2e"/>
       <use x="95.410156" xlink:href="#DejaVuSans-30"/>
      </g>
     </g>
    </g>
    <g id="xtick_2">
     <g id="line2d_2">
      <g>
       <use style="stroke:#000000;stroke-width:0.8;" x="381.756699" xlink:href="#m56d00649c5" y="512.64"/>
      </g>
     </g>
     <g id="text_2">
      <!-- 0.2 -->
      <defs>
       <path d="M 19.1875 8.296875 
L 53.609375 8.296875 
L 53.609375 0 
L 7.328125 0 
L 7.328125 8.296875 
Q 12.9375 14.109375 22.625 23.890625 
Q 32.328125 33.6875 34.8125 36.53125 
Q 39.546875 41.84375 41.421875 45.53125 
Q 43.3125 49.21875 43.3125 52.78125 
Q 43.3125 58.59375 39.234375 62.25 
Q 35.15625 65.921875 28.609375 65.921875 
Q 23.96875 65.921875 18.8125 64.3125 
Q 13.671875 62.703125 7.8125 59.421875 
L 7.8125 69.390625 
Q 13.765625 71.78125 18.9375 73 
Q 24.125 74.21875 28.421875 74.21875 
Q 39.75 74.21875 46.484375 68.546875 
Q 53.21875 62.890625 53.21875 53.421875 
Q 53.21875 48.921875 51.53125 44.890625 
Q 49.859375 40.875 45.40625 35.40625 
Q 44.1875 33.984375 37.640625 27.21875 
Q 31.109375 20.453125 19.1875 8.296875 
z
" id="DejaVuSans-32"/>
      </defs>
      <g transform="translate(373.805136 527.238438)scale(0.1 -0.1)">
       <use xlink:href="#DejaVuSans-30"/>
       <use x="63.623047" xlink:href="#DejaVuSans-2e"/>
       <use x="95.410156" xlink:href="#DejaVuSans-32"/>
      </g>
     </g>
    </g>
    <g id="xtick_3">
     <g id="line2d_3">
      <g>
       <use style="stroke:#000000;stroke-width:0.8;" x="532.786125" xlink:href="#m56d00649c5" y="512.64"/>
      </g>
     </g>
     <g id="text_3">
      <!-- 0.4 -->
      <defs>
       <path d="M 37.796875 64.3125 
L 12.890625 25.390625 
L 37.796875 25.390625 
z
M 35.203125 72.90625 
L 47.609375 72.90625 
L 47.609375 25.390625 
L 58.015625 25.390625 
L 58.015625 17.1875 
L 47.609375 17.1875 
L 47.609375 0 
L 37.796875 0 
L 37.796875 17.1875 
L 4.890625 17.1875 
L 4.890625 26.703125 
z
" id="DejaVuSans-34"/>
      </defs>
      <g transform="translate(524.834562 527.238438)scale(0.1 -0.1)">
       <use xlink:href="#DejaVuSans-30"/>
       <use x="63.623047" xlink:href="#DejaVuSans-2e"/>
       <use x="95.410156" xlink:href="#DejaVuSans-34"/>
      </g>
     </g>
    </g>
    <g id="xtick_4">
     <g id="line2d_4">
      <g>
       <use style="stroke:#000000;stroke-width:0.8;" x="683.81555" xlink:href="#m56d00649c5" y="512.64"/>
      </g>
     </g>
     <g id="text_4">
      <!-- 0.6 -->
      <defs>
       <path d="M 33.015625 40.375 
Q 26.375 40.375 22.484375 35.828125 
Q 18.609375 31.296875 18.609375 23.390625 
Q 18.609375 15.53125 22.484375 10.953125 
Q 26.375 6.390625 33.015625 6.390625 
Q 39.65625 6.390625 43.53125 10.953125 
Q 47.40625 15.53125 47.40625 23.390625 
Q 47.40625 31.296875 43.53125 35.828125 
Q 39.65625 40.375 33.015625 40.375 
z
M 52.59375 71.296875 
L 52.59375 62.3125 
Q 48.875 64.0625 45.09375 64.984375 
Q 41.3125 65.921875 37.59375 65.921875 
Q 27.828125 65.921875 22.671875 59.328125 
Q 17.53125 52.734375 16.796875 39.40625 
Q 19.671875 43.65625 24.015625 45.921875 
Q 28.375 48.1875 33.59375 48.1875 
Q 44.578125 48.1875 50.953125 41.515625 
Q 57.328125 34.859375 57.328125 23.390625 
Q 57.328125 12.15625 50.6875 5.359375 
Q 44.046875 -1.421875 33.015625 -1.421875 
Q 20.359375 -1.421875 13.671875 8.265625 
Q 6.984375 17.96875 6.984375 36.375 
Q 6.984375 53.65625 15.1875 63.9375 
Q 23.390625 74.21875 37.203125 74.21875 
Q 40.921875 74.21875 44.703125 73.484375 
Q 48.484375 72.75 52.59375 71.296875 
z
" id="DejaVuSans-36"/>
      </defs>
      <g transform="translate(675.863988 527.238438)scale(0.1 -0.1)">
       <use xlink:href="#DejaVuSans-30"/>
       <use x="63.623047" xlink:href="#DejaVuSans-2e"/>
       <use x="95.410156" xlink:href="#DejaVuSans-36"/>
      </g>
     </g>
    </g>
    <g id="xtick_5">
     <g id="line2d_5">
      <g>
       <use style="stroke:#000000;stroke-width:0.8;" x="834.844976" xlink:href="#m56d00649c5" y="512.64"/>
      </g>
     </g>
     <g id="text_5">
      <!-- 0.8 -->
      <defs>
       <path d="M 31.78125 34.625 
Q 24.75 34.625 20.71875 30.859375 
Q 16.703125 27.09375 16.703125 20.515625 
Q 16.703125 13.921875 20.71875 10.15625 
Q 24.75 6.390625 31.78125 6.390625 
Q 38.8125 6.390625 42.859375 10.171875 
Q 46.921875 13.96875 46.921875 20.515625 
Q 46.921875 27.09375 42.890625 30.859375 
Q 38.875 34.625 31.78125 34.625 
z
M 21.921875 38.8125 
Q 15.578125 40.375 12.03125 44.71875 
Q 8.5 49.078125 8.5 55.328125 
Q 8.5 64.0625 14.71875 69.140625 
Q 20.953125 74.21875 31.78125 74.21875 
Q 42.671875 74.21875 48.875 69.140625 
Q 55.078125 64.0625 55.078125 55.328125 
Q 55.078125 49.078125 51.53125 44.71875 
Q 48 40.375 41.703125 38.8125 
Q 48.828125 37.15625 52.796875 32.3125 
Q 56.78125 27.484375 56.78125 20.515625 
Q 56.78125 9.90625 50.3125 4.234375 
Q 43.84375 -1.421875 31.78125 -1.421875 
Q 19.734375 -1.421875 13.25 4.234375 
Q 6.78125 9.90625 6.78125 20.515625 
Q 6.78125 27.484375 10.78125 32.3125 
Q 14.796875 37.15625 21.921875 38.8125 
z
M 18.3125 54.390625 
Q 18.3125 48.734375 21.84375 45.5625 
Q 25.390625 42.390625 31.78125 42.390625 
Q 38.140625 42.390625 41.71875 45.5625 
Q 45.3125 48.734375 45.3125 54.390625 
Q 45.3125 60.0625 41.71875 63.234375 
Q 38.140625 66.40625 31.78125 66.40625 
Q 25.390625 66.40625 21.84375 63.234375 
Q 18.3125 60.0625 18.3125 54.390625 
z
" id="DejaVuSans-38"/>
      </defs>
      <g transform="translate(826.893414 527.238438)scale(0.1 -0.1)">
       <use xlink:href="#DejaVuSans-30"/>
       <use x="63.623047" xlink:href="#DejaVuSans-2e"/>
       <use x="95.410156" xlink:href="#DejaVuSans-38"/>
      </g>
     </g>
    </g>
    <g id="xtick_6">
     <g id="line2d_6">
      <g>
       <use style="stroke:#000000;stroke-width:0.8;" x="985.874402" xlink:href="#m56d00649c5" y="512.64"/>
      </g>
     </g>
     <g id="text_6">
      <!-- 1.0 -->
      <defs>
       <path d="M 12.40625 8.296875 
L 28.515625 8.296875 
L 28.515625 63.921875 
L 10.984375 60.40625 
L 10.984375 69.390625 
L 28.421875 72.90625 
L 38.28125 72.90625 
L 38.28125 8.296875 
L 54.390625 8.296875 
L 54.390625 0 
L 12.40625 0 
z
" id="DejaVuSans-31"/>
      </defs>
      <g transform="translate(977.92284 527.238438)scale(0.1 -0.1)">
       <use xlink:href="#DejaVuSans-31"/>
       <use x="63.623047" xlink:href="#DejaVuSans-2e"/>
       <use x="95.410156" xlink:href="#DejaVuSans-30"/>
      </g>
     </g>
    </g>
    <g id="xtick_7">
     <g id="line2d_7">
      <g>
       <use style="stroke:#000000;stroke-width:0.8;" x="1136.903828" xlink:href="#m56d00649c5" y="512.64"/>
      </g>
     </g>
     <g id="text_7">
      <!-- 1.2 -->
      <g transform="translate(1128.952266 527.238438)scale(0.1 -0.1)">
       <use xlink:href="#DejaVuSans-31"/>
       <use x="63.623047" xlink:href="#DejaVuSans-2e"/>
       <use x="95.410156" xlink:href="#DejaVuSans-32"/>
      </g>
     </g>
    </g>
    <g id="xtick_8">
     <g id="line2d_8">
      <g>
       <use style="stroke:#000000;stroke-width:0.8;" x="1287.933254" xlink:href="#m56d00649c5" y="512.64"/>
      </g>
     </g>
     <g id="text_8">
      <!-- 1.4 -->
      <g transform="translate(1279.981692 527.238438)scale(0.1 -0.1)">
       <use xlink:href="#DejaVuSans-31"/>
       <use x="63.623047" xlink:href="#DejaVuSans-2e"/>
       <use x="95.410156" xlink:href="#DejaVuSans-34"/>
      </g>
     </g>
    </g>
   </g>
   <g id="matplotlib.axis_2">
    <g id="ytick_1">
     <g id="line2d_9">
      <defs>
       <path d="M 0 0 
L -3.5 0 
" id="md4ef8ae2de" style="stroke:#000000;stroke-width:0.8;"/>
      </defs>
      <g>
       <use style="stroke:#000000;stroke-width:0.8;" x="180" xlink:href="#md4ef8ae2de" y="494.139818"/>
      </g>
     </g>
     <g id="text_9">
      <!-- 0.300 -->
      <defs>
       <path d="M 40.578125 39.3125 
Q 47.65625 37.796875 51.625 33 
Q 55.609375 28.21875 55.609375 21.1875 
Q 55.609375 10.40625 48.1875 4.484375 
Q 40.765625 -1.421875 27.09375 -1.421875 
Q 22.515625 -1.421875 17.65625 -0.515625 
Q 12.796875 0.390625 7.625 2.203125 
L 7.625 11.71875 
Q 11.71875 9.328125 16.59375 8.109375 
Q 21.484375 6.890625 26.8125 6.890625 
Q 36.078125 6.890625 40.9375 10.546875 
Q 45.796875 14.203125 45.796875 21.1875 
Q 45.796875 27.640625 41.28125 31.265625 
Q 36.765625 34.90625 28.71875 34.90625 
L 20.21875 34.90625 
L 20.21875 43.015625 
L 29.109375 43.015625 
Q 36.375 43.015625 40.234375 45.921875 
Q 44.09375 48.828125 44.09375 54.296875 
Q 44.09375 59.90625 40.109375 62.90625 
Q 36.140625 65.921875 28.71875 65.921875 
Q 24.65625 65.921875 20.015625 65.03125 
Q 15.375 64.15625 9.8125 62.3125 
L 9.8125 71.09375 
Q 15.4375 72.65625 20.34375 73.4375 
Q 25.25 74.21875 29.59375 74.21875 
Q 40.828125 74.21875 47.359375 69.109375 
Q 53.90625 64.015625 53.90625 55.328125 
Q 53.90625 49.265625 50.4375 45.09375 
Q 46.96875 40.921875 40.578125 39.3125 
z
" id="DejaVuSans-33"/>
      </defs>
      <g transform="translate(144.371875 497.939037)scale(0.1 -0.1)">
       <use xlink:href="#DejaVuSans-30"/>
       <use x="63.623047" xlink:href="#DejaVuSans-2e"/>
       <use x="95.410156" xlink:href="#DejaVuSans-33"/>
       <use x="159.033203" xlink:href="#DejaVuSans-30"/>
       <use x="222.65625" xlink:href="#DejaVuSans-30"/>
      </g>
     </g>
    </g>
    <g id="ytick_2">
     <g id="line2d_10">
      <g>
       <use style="stroke:#000000;stroke-width:0.8;" x="180" xlink:href="#md4ef8ae2de" y="440.91781"/>
      </g>
     </g>
     <g id="text_10">
      <!-- 0.302 -->
      <g transform="translate(144.371875 444.717029)scale(0.1 -0.1)">
       <use xlink:href="#DejaVuSans-30"/>
       <use x="63.623047" xlink:href="#DejaVuSans-2e"/>
       <use x="95.410156" xlink:href="#DejaVuSans-33"/>
       <use x="159.033203" xlink:href="#DejaVuSans-30"/>
       <use x="222.65625" xlink:href="#DejaVuSans-32"/>
      </g>
     </g>
    </g>
    <g id="ytick_3">
     <g id="line2d_11">
      <g>
       <use style="stroke:#000000;stroke-width:0.8;" x="180" xlink:href="#md4ef8ae2de" y="387.695801"/>
      </g>
     </g>
     <g id="text_11">
      <!-- 0.304 -->
      <g transform="translate(144.371875 391.49502)scale(0.1 -0.1)">
       <use xlink:href="#DejaVuSans-30"/>
       <use x="63.623047" xlink:href="#DejaVuSans-2e"/>
       <use x="95.410156" xlink:href="#DejaVuSans-33"/>
       <use x="159.033203" xlink:href="#DejaVuSans-30"/>
       <use x="222.65625" xlink:href="#DejaVuSans-34"/>
      </g>
     </g>
    </g>
    <g id="ytick_4">
     <g id="line2d_12">
      <g>
       <use style="stroke:#000000;stroke-width:0.8;" x="180" xlink:href="#md4ef8ae2de" y="334.473793"/>
      </g>
     </g>
     <g id="text_12">
      <!-- 0.306 -->
      <g transform="translate(144.371875 338.273012)scale(0.1 -0.1)">
       <use xlink:href="#DejaVuSans-30"/>
       <use x="63.623047" xlink:href="#DejaVuSans-2e"/>
       <use x="95.410156" xlink:href="#DejaVuSans-33"/>
       <use x="159.033203" xlink:href="#DejaVuSans-30"/>
       <use x="222.65625" xlink:href="#DejaVuSans-36"/>
      </g>
     </g>
    </g>
    <g id="ytick_5">
     <g id="line2d_13">
      <g>
       <use style="stroke:#000000;stroke-width:0.8;" x="180" xlink:href="#md4ef8ae2de" y="281.251785"/>
      </g>
     </g>
     <g id="text_13">
      <!-- 0.308 -->
      <g transform="translate(144.371875 285.051003)scale(0.1 -0.1)">
       <use xlink:href="#DejaVuSans-30"/>
       <use x="63.623047" xlink:href="#DejaVuSans-2e"/>
       <use x="95.410156" xlink:href="#DejaVuSans-33"/>
       <use x="159.033203" xlink:href="#DejaVuSans-30"/>
       <use x="222.65625" xlink:href="#DejaVuSans-38"/>
      </g>
     </g>
    </g>
    <g id="ytick_6">
     <g id="line2d_14">
      <g>
       <use style="stroke:#000000;stroke-width:0.8;" x="180" xlink:href="#md4ef8ae2de" y="228.029776"/>
      </g>
     </g>
     <g id="text_14">
      <!-- 0.310 -->
      <g transform="translate(144.371875 231.828995)scale(0.1 -0.1)">
       <use xlink:href="#DejaVuSans-30"/>
       <use x="63.623047" xlink:href="#DejaVuSans-2e"/>
       <use x="95.410156" xlink:href="#DejaVuSans-33"/>
       <use x="159.033203" xlink:href="#DejaVuSans-31"/>
       <use x="222.65625" xlink:href="#DejaVuSans-30"/>
      </g>
     </g>
    </g>
    <g id="ytick_7">
     <g id="line2d_15">
      <g>
       <use style="stroke:#000000;stroke-width:0.8;" x="180" xlink:href="#md4ef8ae2de" y="174.807768"/>
      </g>
     </g>
     <g id="text_15">
      <!-- 0.312 -->
      <g transform="translate(144.371875 178.606986)scale(0.1 -0.1)">
       <use xlink:href="#DejaVuSans-30"/>
       <use x="63.623047" xlink:href="#DejaVuSans-2e"/>
       <use x="95.410156" xlink:href="#DejaVuSans-33"/>
       <use x="159.033203" xlink:href="#DejaVuSans-31"/>
       <use x="222.65625" xlink:href="#DejaVuSans-32"/>
      </g>
     </g>
    </g>
    <g id="ytick_8">
     <g id="line2d_16">
      <g>
       <use style="stroke:#000000;stroke-width:0.8;" x="180" xlink:href="#md4ef8ae2de" y="121.585759"/>
      </g>
     </g>
     <g id="text_16">
      <!-- 0.314 -->
      <g transform="translate(144.371875 125.384978)scale(0.1 -0.1)">
       <use xlink:href="#DejaVuSans-30"/>
       <use x="63.623047" xlink:href="#DejaVuSans-2e"/>
       <use x="95.410156" xlink:href="#DejaVuSans-33"/>
       <use x="159.033203" xlink:href="#DejaVuSans-31"/>
       <use x="222.65625" xlink:href="#DejaVuSans-34"/>
      </g>
     </g>
    </g>
   </g>
   <g id="line2d_17">
    <path clip-path="url(#p826222e5fa)" d="M 230.727273 478.492548 
L 241.343131 483.548639 
L 251.183453 482.218089 
L 261.031327 348.364737 
L 271.907711 484.027637 
L 281.698949 482.138256 
L 291.509065 89.28 
L 302.431513 474.128343 
L 312.24465 484.10747 
L 322.04495 483.282529 
L 342.551725 483.761527 
L 352.244794 484.346969 
L 362.048869 484.267136 
L 372.802164 482.457588 
L 382.783699 484.001026 
L 392.676126 484.692912 
L 403.348621 484.187303 
L 413.127021 483.57525 
L 422.976405 484.134081 
L 433.824848 481.100426 
L 443.603249 483.947804 
L 454.734872 483.84136 
L 464.532906 483.57525 
L 474.364922 480.887538 
L 484.154649 484.480024 
L 494.796938 482.564032 
L 504.597992 484.160692 
L 514.44058 483.468806 
L 525.418909 481.180259 
L 535.221474 481.127037 
L 545.085206 484.426802 
L 555.83246 478.119994 
L 565.618411 484.054248 
L 575.428528 484.426802 
L 586.337383 484.533246 
L 596.136172 483.362362 
L 605.949309 483.149474 
L 616.752444 482.351144 
L 626.549723 484.692912 
L 636.33643 483.522028 
L 647.21961 483.202696 
L 657.064463 484.453413 
L 666.857211 482.51081 
L 677.75776 477.401497 
L 687.554284 484.772745 
L 697.350808 484.400191 
L 708.19321 482.723698 
L 718.058452 485.225132 
L 727.864793 484.267136 
L 738.707195 482.643865 
L 748.626808 484.453413 
L 758.464865 484.293747 
L 769.342759 484.293747 
L 779.189878 480.67465 
L 789.088346 482.590643 
L 799.868072 483.734916 
L 809.755968 481.898756 
L 819.570615 484.320358 
L 830.519494 480.727872 
L 840.331875 482.430977 
L 850.123868 483.894582 
L 860.905859 483.84136 
L 870.711444 482.138256 
L 880.494375 484.346969 
L 890.407947 485.411409 
L 900.248269 480.541595 
L 910.154289 484.054248 
L 919.971202 484.506635 
L 930.499463 481.127037 
L 940.299763 484.267136 
L 950.113655 484.506635 
L 960.96965 482.537421 
L 970.741254 484.533246 
L 980.544574 483.30914 
L 991.437571 477.428108 
L 1001.226543 483.468806 
L 1011.022312 483.548639 
L 1021.944005 479.370711 
L 1031.751856 484.213914 
L 1041.580851 483.974415 
L 1052.470828 482.883364 
L 1062.264331 484.213914 
L 1072.096346 484.293747 
L 1082.999916 481.978589 
L 1092.781337 483.814749 
L 1102.613352 484.453413 
L 1113.438386 480.14243 
L 1123.216786 484.400191 
L 1133.049557 484.293747 
L 1143.958413 482.697087 
L 1153.767774 484.453413 
L 1163.530316 483.867971 
L 1174.426334 484.533246 
L 1184.248533 484.63969 
L 1194.045811 483.788138 
L 1204.931257 484.666301 
L 1214.74968 484.240525 
L 1224.536387 484.187303 
L 1235.462611 484.10747 
L 1245.272727 484.480024 
" style="fill:none;stroke:#ff0000;stroke-dasharray:5.55,2.4;stroke-dashoffset:0;stroke-width:1.5;"/>
    <defs>
     <path d="M -3 3 
L 3 3 
L 3 -3 
L -3 -3 
z
" id="mf0d1a1eb1c" style="stroke:#ff0000;stroke-linejoin:miter;"/>
    </defs>
    <g clip-path="url(#p826222e5fa)">
     <use style="fill:#ff0000;stroke:#ff0000;stroke-linejoin:miter;" x="230.727273" xlink:href="#mf0d1a1eb1c" y="478.492548"/>
     <use style="fill:#ff0000;stroke:#ff0000;stroke-linejoin:miter;" x="241.343131" xlink:href="#mf0d1a1eb1c" y="483.548639"/>
     <use style="fill:#ff0000;stroke:#ff0000;stroke-linejoin:miter;" x="251.183453" xlink:href="#mf0d1a1eb1c" y="482.218089"/>
     <use style="fill:#ff0000;stroke:#ff0000;stroke-linejoin:miter;" x="261.031327" xlink:href="#mf0d1a1eb1c" y="348.364737"/>
     <use style="fill:#ff0000;stroke:#ff0000;stroke-linejoin:miter;" x="271.907711" xlink:href="#mf0d1a1eb1c" y="484.027637"/>
     <use style="fill:#ff0000;stroke:#ff0000;stroke-linejoin:miter;" x="281.698949" xlink:href="#mf0d1a1eb1c" y="482.138256"/>
     <use style="fill:#ff0000;stroke:#ff0000;stroke-linejoin:miter;" x="291.509065" xlink:href="#mf0d1a1eb1c" y="89.28"/>
     <use style="fill:#ff0000;stroke:#ff0000;stroke-linejoin:miter;" x="302.431513" xlink:href="#mf0d1a1eb1c" y="474.128343"/>
     <use style="fill:#ff0000;stroke:#ff0000;stroke-linejoin:miter;" x="312.24465" xlink:href="#mf0d1a1eb1c" y="484.10747"/>
     <use style="fill:#ff0000;stroke:#ff0000;stroke-linejoin:miter;" x="322.04495" xlink:href="#mf0d1a1eb1c" y="483.282529"/>
     <use style="fill:#ff0000;stroke:#ff0000;stroke-linejoin:miter;" x="342.551725" xlink:href="#mf0d1a1eb1c" y="483.761527"/>
     <use style="fill:#ff0000;stroke:#ff0000;stroke-linejoin:miter;" x="352.244794" xlink:href="#mf0d1a1eb1c" y="484.346969"/>
     <use style="fill:#ff0000;stroke:#ff0000;stroke-linejoin:miter;" x="362.048869" xlink:href="#mf0d1a1eb1c" y="484.267136"/>
     <use style="fill:#ff0000;stroke:#ff0000;stroke-linejoin:miter;" x="372.802164" xlink:href="#mf0d1a1eb1c" y="482.457588"/>
     <use style="fill:#ff0000;stroke:#ff0000;stroke-linejoin:miter;" x="382.783699" xlink:href="#mf0d1a1eb1c" y="484.001026"/>
     <use style="fill:#ff0000;stroke:#ff0000;stroke-linejoin:miter;" x="392.676126" xlink:href="#mf0d1a1eb1c" y="484.692912"/>
     <use style="fill:#ff0000;stroke:#ff0000;stroke-linejoin:miter;" x="403.348621" xlink:href="#mf0d1a1eb1c" y="484.187303"/>
     <use style="fill:#ff0000;stroke:#ff0000;stroke-linejoin:miter;" x="413.127021" xlink:href="#mf0d1a1eb1c" y="483.57525"/>
     <use style="fill:#ff0000;stroke:#ff0000;stroke-linejoin:miter;" x="422.976405" xlink:href="#mf0d1a1eb1c" y="484.134081"/>
     <use style="fill:#ff0000;stroke:#ff0000;stroke-linejoin:miter;" x="433.824848" xlink:href="#mf0d1a1eb1c" y="481.100426"/>
     <use style="fill:#ff0000;stroke:#ff0000;stroke-linejoin:miter;" x="443.603249" xlink:href="#mf0d1a1eb1c" y="483.947804"/>
     <use style="fill:#ff0000;stroke:#ff0000;stroke-linejoin:miter;" x="454.734872" xlink:href="#mf0d1a1eb1c" y="483.84136"/>
     <use style="fill:#ff0000;stroke:#ff0000;stroke-linejoin:miter;" x="464.532906" xlink:href="#mf0d1a1eb1c" y="483.57525"/>
     <use style="fill:#ff0000;stroke:#ff0000;stroke-linejoin:miter;" x="474.364922" xlink:href="#mf0d1a1eb1c" y="480.887538"/>
     <use style="fill:#ff0000;stroke:#ff0000;stroke-linejoin:miter;" x="484.154649" xlink:href="#mf0d1a1eb1c" y="484.480024"/>
     <use style="fill:#ff0000;stroke:#ff0000;stroke-linejoin:miter;" x="494.796938" xlink:href="#mf0d1a1eb1c" y="482.564032"/>
     <use style="fill:#ff0000;stroke:#ff0000;stroke-linejoin:miter;" x="504.597992" xlink:href="#mf0d1a1eb1c" y="484.160692"/>
     <use style="fill:#ff0000;stroke:#ff0000;stroke-linejoin:miter;" x="514.44058" xlink:href="#mf0d1a1eb1c" y="483.468806"/>
     <use style="fill:#ff0000;stroke:#ff0000;stroke-linejoin:miter;" x="525.418909" xlink:href="#mf0d1a1eb1c" y="481.180259"/>
     <use style="fill:#ff0000;stroke:#ff0000;stroke-linejoin:miter;" x="535.221474" xlink:href="#mf0d1a1eb1c" y="481.127037"/>
     <use style="fill:#ff0000;stroke:#ff0000;stroke-linejoin:miter;" x="545.085206" xlink:href="#mf0d1a1eb1c" y="484.426802"/>
     <use style="fill:#ff0000;stroke:#ff0000;stroke-linejoin:miter;" x="555.83246" xlink:href="#mf0d1a1eb1c" y="478.119994"/>
     <use style="fill:#ff0000;stroke:#ff0000;stroke-linejoin:miter;" x="565.618411" xlink:href="#mf0d1a1eb1c" y="484.054248"/>
     <use style="fill:#ff0000;stroke:#ff0000;stroke-linejoin:miter;" x="575.428528" xlink:href="#mf0d1a1eb1c" y="484.426802"/>
     <use style="fill:#ff0000;stroke:#ff0000;stroke-linejoin:miter;" x="586.337383" xlink:href="#mf0d1a1eb1c" y="484.533246"/>
     <use style="fill:#ff0000;stroke:#ff0000;stroke-linejoin:miter;" x="596.136172" xlink:href="#mf0d1a1eb1c" y="483.362362"/>
     <use style="fill:#ff0000;stroke:#ff0000;stroke-linejoin:miter;" x="605.949309" xlink:href="#mf0d1a1eb1c" y="483.149474"/>
     <use style="fill:#ff0000;stroke:#ff0000;stroke-linejoin:miter;" x="616.752444" xlink:href="#mf0d1a1eb1c" y="482.351144"/>
     <use style="fill:#ff0000;stroke:#ff0000;stroke-linejoin:miter;" x="626.549723" xlink:href="#mf0d1a1eb1c" y="484.692912"/>
     <use style="fill:#ff0000;stroke:#ff0000;stroke-linejoin:miter;" x="636.33643" xlink:href="#mf0d1a1eb1c" y="483.522028"/>
     <use style="fill:#ff0000;stroke:#ff0000;stroke-linejoin:miter;" x="647.21961" xlink:href="#mf0d1a1eb1c" y="483.202696"/>
     <use style="fill:#ff0000;stroke:#ff0000;stroke-linejoin:miter;" x="657.064463" xlink:href="#mf0d1a1eb1c" y="484.453413"/>
     <use style="fill:#ff0000;stroke:#ff0000;stroke-linejoin:miter;" x="666.857211" xlink:href="#mf0d1a1eb1c" y="482.51081"/>
     <use style="fill:#ff0000;stroke:#ff0000;stroke-linejoin:miter;" x="677.75776" xlink:href="#mf0d1a1eb1c" y="477.401497"/>
     <use style="fill:#ff0000;stroke:#ff0000;stroke-linejoin:miter;" x="687.554284" xlink:href="#mf0d1a1eb1c" y="484.772745"/>
     <use style="fill:#ff0000;stroke:#ff0000;stroke-linejoin:miter;" x="697.350808" xlink:href="#mf0d1a1eb1c" y="484.400191"/>
     <use style="fill:#ff0000;stroke:#ff0000;stroke-linejoin:miter;" x="708.19321" xlink:href="#mf0d1a1eb1c" y="482.723698"/>
     <use style="fill:#ff0000;stroke:#ff0000;stroke-linejoin:miter;" x="718.058452" xlink:href="#mf0d1a1eb1c" y="485.225132"/>
     <use style="fill:#ff0000;stroke:#ff0000;stroke-linejoin:miter;" x="727.864793" xlink:href="#mf0d1a1eb1c" y="484.267136"/>
     <use style="fill:#ff0000;stroke:#ff0000;stroke-linejoin:miter;" x="738.707195" xlink:href="#mf0d1a1eb1c" y="482.643865"/>
     <use style="fill:#ff0000;stroke:#ff0000;stroke-linejoin:miter;" x="748.626808" xlink:href="#mf0d1a1eb1c" y="484.453413"/>
     <use style="fill:#ff0000;stroke:#ff0000;stroke-linejoin:miter;" x="758.464865" xlink:href="#mf0d1a1eb1c" y="484.293747"/>
     <use style="fill:#ff0000;stroke:#ff0000;stroke-linejoin:miter;" x="769.342759" xlink:href="#mf0d1a1eb1c" y="484.293747"/>
     <use style="fill:#ff0000;stroke:#ff0000;stroke-linejoin:miter;" x="779.189878" xlink:href="#mf0d1a1eb1c" y="480.67465"/>
     <use style="fill:#ff0000;stroke:#ff0000;stroke-linejoin:miter;" x="789.088346" xlink:href="#mf0d1a1eb1c" y="482.590643"/>
     <use style="fill:#ff0000;stroke:#ff0000;stroke-linejoin:miter;" x="799.868072" xlink:href="#mf0d1a1eb1c" y="483.734916"/>
     <use style="fill:#ff0000;stroke:#ff0000;stroke-linejoin:miter;" x="809.755968" xlink:href="#mf0d1a1eb1c" y="481.898756"/>
     <use style="fill:#ff0000;stroke:#ff0000;stroke-linejoin:miter;" x="819.570615" xlink:href="#mf0d1a1eb1c" y="484.320358"/>
     <use style="fill:#ff0000;stroke:#ff0000;stroke-linejoin:miter;" x="830.519494" xlink:href="#mf0d1a1eb1c" y="480.727872"/>
     <use style="fill:#ff0000;stroke:#ff0000;stroke-linejoin:miter;" x="840.331875" xlink:href="#mf0d1a1eb1c" y="482.430977"/>
     <use style="fill:#ff0000;stroke:#ff0000;stroke-linejoin:miter;" x="850.123868" xlink:href="#mf0d1a1eb1c" y="483.894582"/>
     <use style="fill:#ff0000;stroke:#ff0000;stroke-linejoin:miter;" x="860.905859" xlink:href="#mf0d1a1eb1c" y="483.84136"/>
     <use style="fill:#ff0000;stroke:#ff0000;stroke-linejoin:miter;" x="870.711444" xlink:href="#mf0d1a1eb1c" y="482.138256"/>
     <use style="fill:#ff0000;stroke:#ff0000;stroke-linejoin:miter;" x="880.494375" xlink:href="#mf0d1a1eb1c" y="484.346969"/>
     <use style="fill:#ff0000;stroke:#ff0000;stroke-linejoin:miter;" x="890.407947" xlink:href="#mf0d1a1eb1c" y="485.411409"/>
     <use style="fill:#ff0000;stroke:#ff0000;stroke-linejoin:miter;" x="900.248269" xlink:href="#mf0d1a1eb1c" y="480.541595"/>
     <use style="fill:#ff0000;stroke:#ff0000;stroke-linejoin:miter;" x="910.154289" xlink:href="#mf0d1a1eb1c" y="484.054248"/>
     <use style="fill:#ff0000;stroke:#ff0000;stroke-linejoin:miter;" x="919.971202" xlink:href="#mf0d1a1eb1c" y="484.506635"/>
     <use style="fill:#ff0000;stroke:#ff0000;stroke-linejoin:miter;" x="930.499463" xlink:href="#mf0d1a1eb1c" y="481.127037"/>
     <use style="fill:#ff0000;stroke:#ff0000;stroke-linejoin:miter;" x="940.299763" xlink:href="#mf0d1a1eb1c" y="484.267136"/>
     <use style="fill:#ff0000;stroke:#ff0000;stroke-linejoin:miter;" x="950.113655" xlink:href="#mf0d1a1eb1c" y="484.506635"/>
     <use style="fill:#ff0000;stroke:#ff0000;stroke-linejoin:miter;" x="960.96965" xlink:href="#mf0d1a1eb1c" y="482.537421"/>
     <use style="fill:#ff0000;stroke:#ff0000;stroke-linejoin:miter;" x="970.741254" xlink:href="#mf0d1a1eb1c" y="484.533246"/>
     <use style="fill:#ff0000;stroke:#ff0000;stroke-linejoin:miter;" x="980.544574" xlink:href="#mf0d1a1eb1c" y="483.30914"/>
     <use style="fill:#ff0000;stroke:#ff0000;stroke-linejoin:miter;" x="991.437571" xlink:href="#mf0d1a1eb1c" y="477.428108"/>
     <use style="fill:#ff0000;stroke:#ff0000;stroke-linejoin:miter;" x="1001.226543" xlink:href="#mf0d1a1eb1c" y="483.468806"/>
     <use style="fill:#ff0000;stroke:#ff0000;stroke-linejoin:miter;" x="1011.022312" xlink:href="#mf0d1a1eb1c" y="483.548639"/>
     <use style="fill:#ff0000;stroke:#ff0000;stroke-linejoin:miter;" x="1021.944005" xlink:href="#mf0d1a1eb1c" y="479.370711"/>
     <use style="fill:#ff0000;stroke:#ff0000;stroke-linejoin:miter;" x="1031.751856" xlink:href="#mf0d1a1eb1c" y="484.213914"/>
     <use style="fill:#ff0000;stroke:#ff0000;stroke-linejoin:miter;" x="1041.580851" xlink:href="#mf0d1a1eb1c" y="483.974415"/>
     <use style="fill:#ff0000;stroke:#ff0000;stroke-linejoin:miter;" x="1052.470828" xlink:href="#mf0d1a1eb1c" y="482.883364"/>
     <use style="fill:#ff0000;stroke:#ff0000;stroke-linejoin:miter;" x="1062.264331" xlink:href="#mf0d1a1eb1c" y="484.213914"/>
     <use style="fill:#ff0000;stroke:#ff0000;stroke-linejoin:miter;" x="1072.096346" xlink:href="#mf0d1a1eb1c" y="484.293747"/>
     <use style="fill:#ff0000;stroke:#ff0000;stroke-linejoin:miter;" x="1082.999916" xlink:href="#mf0d1a1eb1c" y="481.978589"/>
     <use style="fill:#ff0000;stroke:#ff0000;stroke-linejoin:miter;" x="1092.781337" xlink:href="#mf0d1a1eb1c" y="483.814749"/>
     <use style="fill:#ff0000;stroke:#ff0000;stroke-linejoin:miter;" x="1102.613352" xlink:href="#mf0d1a1eb1c" y="484.453413"/>
     <use style="fill:#ff0000;stroke:#ff0000;stroke-linejoin:miter;" x="1113.438386" xlink:href="#mf0d1a1eb1c" y="480.14243"/>
     <use style="fill:#ff0000;stroke:#ff0000;stroke-linejoin:miter;" x="1123.216786" xlink:href="#mf0d1a1eb1c" y="484.400191"/>
     <use style="fill:#ff0000;stroke:#ff0000;stroke-linejoin:miter;" x="1133.049557" xlink:href="#mf0d1a1eb1c" y="484.293747"/>
     <use style="fill:#ff0000;stroke:#ff0000;stroke-linejoin:miter;" x="1143.958413" xlink:href="#mf0d1a1eb1c" y="482.697087"/>
     <use style="fill:#ff0000;stroke:#ff0000;stroke-linejoin:miter;" x="1153.767774" xlink:href="#mf0d1a1eb1c" y="484.453413"/>
     <use style="fill:#ff0000;stroke:#ff0000;stroke-linejoin:miter;" x="1163.530316" xlink:href="#mf0d1a1eb1c" y="483.867971"/>
     <use style="fill:#ff0000;stroke:#ff0000;stroke-linejoin:miter;" x="1174.426334" xlink:href="#mf0d1a1eb1c" y="484.533246"/>
     <use style="fill:#ff0000;stroke:#ff0000;stroke-linejoin:miter;" x="1184.248533" xlink:href="#mf0d1a1eb1c" y="484.63969"/>
     <use style="fill:#ff0000;stroke:#ff0000;stroke-linejoin:miter;" x="1194.045811" xlink:href="#mf0d1a1eb1c" y="483.788138"/>
     <use style="fill:#ff0000;stroke:#ff0000;stroke-linejoin:miter;" x="1204.931257" xlink:href="#mf0d1a1eb1c" y="484.666301"/>
     <use style="fill:#ff0000;stroke:#ff0000;stroke-linejoin:miter;" x="1214.74968" xlink:href="#mf0d1a1eb1c" y="484.240525"/>
     <use style="fill:#ff0000;stroke:#ff0000;stroke-linejoin:miter;" x="1224.536387" xlink:href="#mf0d1a1eb1c" y="484.187303"/>
     <use style="fill:#ff0000;stroke:#ff0000;stroke-linejoin:miter;" x="1235.462611" xlink:href="#mf0d1a1eb1c" y="484.10747"/>
     <use style="fill:#ff0000;stroke:#ff0000;stroke-linejoin:miter;" x="1245.272727" xlink:href="#mf0d1a1eb1c" y="484.480024"/>
    </g>
   </g>
   <g id="line2d_18">
    <path clip-path="url(#p826222e5fa)" d="M 230.727273 478.492548 
L 241.343131 483.548639 
L 251.183453 482.218089 
L 261.031327 348.364737 
L 271.907711 484.027637 
L 281.698949 482.138256 
L 291.509065 89.28 
L 302.431513 474.128343 
L 312.24465 484.10747 
L 322.04495 483.282529 
L 342.551725 483.761527 
L 352.244794 484.346969 
L 362.048869 484.267136 
L 372.802164 482.457588 
L 382.783699 484.001026 
L 392.676126 484.692912 
L 403.348621 484.187303 
L 413.127021 483.57525 
L 422.976405 484.134081 
L 433.824848 481.100426 
L 443.603249 483.947804 
L 454.734872 483.84136 
L 464.532906 483.57525 
L 474.364922 480.887538 
L 484.154649 484.480024 
L 494.796938 482.564032 
L 504.597992 484.160692 
L 514.44058 483.468806 
L 525.418909 481.180259 
L 535.221474 481.127037 
L 545.085206 484.426802 
L 555.83246 478.119994 
L 565.618411 484.054248 
L 575.428528 484.426802 
L 586.337383 484.533246 
L 596.136172 483.362362 
L 605.949309 483.149474 
L 616.752444 482.351144 
L 626.549723 484.692912 
L 636.33643 483.522028 
L 647.21961 483.202696 
L 657.064463 484.453413 
L 666.857211 482.51081 
L 677.75776 477.401497 
L 687.554284 484.772745 
L 697.350808 484.400191 
L 708.19321 482.723698 
L 718.058452 485.225132 
L 727.864793 484.267136 
L 738.707195 482.643865 
L 748.626808 484.453413 
L 758.464865 484.293747 
L 769.342759 484.293747 
L 779.189878 480.67465 
L 789.088346 482.590643 
L 799.868072 483.734916 
L 809.755968 481.898756 
L 819.570615 484.320358 
L 830.519494 480.727872 
L 840.331875 482.430977 
L 850.123868 483.894582 
L 860.905859 483.84136 
L 870.711444 482.138256 
L 880.494375 484.346969 
L 890.407947 485.411409 
L 900.248269 480.541595 
L 910.154289 484.054248 
L 919.971202 484.506635 
L 930.499463 481.127037 
L 940.299763 484.267136 
L 950.113655 484.506635 
L 960.96965 482.537421 
L 970.741254 484.533246 
L 980.544574 483.30914 
L 991.437571 477.428108 
L 1001.226543 483.468806 
L 1011.022312 483.548639 
L 1021.944005 479.370711 
L 1031.751856 484.213914 
L 1041.580851 483.974415 
L 1052.470828 482.883364 
L 1062.264331 484.213914 
L 1072.096346 484.293747 
L 1082.999916 481.978589 
L 1092.781337 483.814749 
L 1102.613352 484.453413 
L 1113.438386 480.14243 
L 1123.216786 484.400191 
L 1133.049557 484.293747 
L 1143.958413 482.697087 
L 1153.767774 484.453413 
L 1163.530316 483.867971 
L 1174.426334 484.533246 
L 1184.248533 484.63969 
L 1194.045811 483.788138 
L 1204.931257 484.666301 
L 1214.74968 484.240525 
L 1224.536387 484.187303 
L 1235.462611 484.10747 
L 1245.272727 484.480024 
" style="fill:none;stroke:#800080;stroke-dasharray:9.6,2.4,1.5,2.4;stroke-dashoffset:0;stroke-width:1.5;"/>
    <defs>
     <path d="M -3 3 
L 3 -3 
M -3 -3 
L 3 3 
" id="m4902842dcc" style="stroke:#800080;"/>
    </defs>
    <g clip-path="url(#p826222e5fa)">
     <use style="fill:#800080;stroke:#800080;" x="230.727273" xlink:href="#m4902842dcc" y="478.492548"/>
     <use style="fill:#800080;stroke:#800080;" x="241.343131" xlink:href="#m4902842dcc" y="483.548639"/>
     <use style="fill:#800080;stroke:#800080;" x="251.183453" xlink:href="#m4902842dcc" y="482.218089"/>
     <use style="fill:#800080;stroke:#800080;" x="261.031327" xlink:href="#m4902842dcc" y="348.364737"/>
     <use style="fill:#800080;stroke:#800080;" x="271.907711" xlink:href="#m4902842dcc" y="484.027637"/>
     <use style="fill:#800080;stroke:#800080;" x="281.698949" xlink:href="#m4902842dcc" y="482.138256"/>
     <use style="fill:#800080;stroke:#800080;" x="291.509065" xlink:href="#m4902842dcc" y="89.28"/>
     <use style="fill:#800080;stroke:#800080;" x="302.431513" xlink:href="#m4902842dcc" y="474.128343"/>
     <use style="fill:#800080;stroke:#800080;" x="312.24465" xlink:href="#m4902842dcc" y="484.10747"/>
     <use style="fill:#800080;stroke:#800080;" x="322.04495" xlink:href="#m4902842dcc" y="483.282529"/>
     <use style="fill:#800080;stroke:#800080;" x="342.551725" xlink:href="#m4902842dcc" y="483.761527"/>
     <use style="fill:#800080;stroke:#800080;" x="352.244794" xlink:href="#m4902842dcc" y="484.346969"/>
     <use style="fill:#800080;stroke:#800080;" x="362.048869" xlink:href="#m4902842dcc" y="484.267136"/>
     <use style="fill:#800080;stroke:#800080;" x="372.802164" xlink:href="#m4902842dcc" y="482.457588"/>
     <use style="fill:#800080;stroke:#800080;" x="382.783699" xlink:href="#m4902842dcc" y="484.001026"/>
     <use style="fill:#800080;stroke:#800080;" x="392.676126" xlink:href="#m4902842dcc" y="484.692912"/>
     <use style="fill:#800080;stroke:#800080;" x="403.348621" xlink:href="#m4902842dcc" y="484.187303"/>
     <use style="fill:#800080;stroke:#800080;" x="413.127021" xlink:href="#m4902842dcc" y="483.57525"/>
     <use style="fill:#800080;stroke:#800080;" x="422.976405" xlink:href="#m4902842dcc" y="484.134081"/>
     <use style="fill:#800080;stroke:#800080;" x="433.824848" xlink:href="#m4902842dcc" y="481.100426"/>
     <use style="fill:#800080;stroke:#800080;" x="443.603249" xlink:href="#m4902842dcc" y="483.947804"/>
     <use style="fill:#800080;stroke:#800080;" x="454.734872" xlink:href="#m4902842dcc" y="483.84136"/>
     <use style="fill:#800080;stroke:#800080;" x="464.532906" xlink:href="#m4902842dcc" y="483.57525"/>
     <use style="fill:#800080;stroke:#800080;" x="474.364922" xlink:href="#m4902842dcc" y="480.887538"/>
     <use style="fill:#800080;stroke:#800080;" x="484.154649" xlink:href="#m4902842dcc" y="484.480024"/>
     <use style="fill:#800080;stroke:#800080;" x="494.796938" xlink:href="#m4902842dcc" y="482.564032"/>
     <use style="fill:#800080;stroke:#800080;" x="504.597992" xlink:href="#m4902842dcc" y="484.160692"/>
     <use style="fill:#800080;stroke:#800080;" x="514.44058" xlink:href="#m4902842dcc" y="483.468806"/>
     <use style="fill:#800080;stroke:#800080;" x="525.418909" xlink:href="#m4902842dcc" y="481.180259"/>
     <use style="fill:#800080;stroke:#800080;" x="535.221474" xlink:href="#m4902842dcc" y="481.127037"/>
     <use style="fill:#800080;stroke:#800080;" x="545.085206" xlink:href="#m4902842dcc" y="484.426802"/>
     <use style="fill:#800080;stroke:#800080;" x="555.83246" xlink:href="#m4902842dcc" y="478.119994"/>
     <use style="fill:#800080;stroke:#800080;" x="565.618411" xlink:href="#m4902842dcc" y="484.054248"/>
     <use style="fill:#800080;stroke:#800080;" x="575.428528" xlink:href="#m4902842dcc" y="484.426802"/>
     <use style="fill:#800080;stroke:#800080;" x="586.337383" xlink:href="#m4902842dcc" y="484.533246"/>
     <use style="fill:#800080;stroke:#800080;" x="596.136172" xlink:href="#m4902842dcc" y="483.362362"/>
     <use style="fill:#800080;stroke:#800080;" x="605.949309" xlink:href="#m4902842dcc" y="483.149474"/>
     <use style="fill:#800080;stroke:#800080;" x="616.752444" xlink:href="#m4902842dcc" y="482.351144"/>
     <use style="fill:#800080;stroke:#800080;" x="626.549723" xlink:href="#m4902842dcc" y="484.692912"/>
     <use style="fill:#800080;stroke:#800080;" x="636.33643" xlink:href="#m4902842dcc" y="483.522028"/>
     <use style="fill:#800080;stroke:#800080;" x="647.21961" xlink:href="#m4902842dcc" y="483.202696"/>
     <use style="fill:#800080;stroke:#800080;" x="657.064463" xlink:href="#m4902842dcc" y="484.453413"/>
     <use style="fill:#800080;stroke:#800080;" x="666.857211" xlink:href="#m4902842dcc" y="482.51081"/>
     <use style="fill:#800080;stroke:#800080;" x="677.75776" xlink:href="#m4902842dcc" y="477.401497"/>
     <use style="fill:#800080;stroke:#800080;" x="687.554284" xlink:href="#m4902842dcc" y="484.772745"/>
     <use style="fill:#800080;stroke:#800080;" x="697.350808" xlink:href="#m4902842dcc" y="484.400191"/>
     <use style="fill:#800080;stroke:#800080;" x="708.19321" xlink:href="#m4902842dcc" y="482.723698"/>
     <use style="fill:#800080;stroke:#800080;" x="718.058452" xlink:href="#m4902842dcc" y="485.225132"/>
     <use style="fill:#800080;stroke:#800080;" x="727.864793" xlink:href="#m4902842dcc" y="484.267136"/>
     <use style="fill:#800080;stroke:#800080;" x="738.707195" xlink:href="#m4902842dcc" y="482.643865"/>
     <use style="fill:#800080;stroke:#800080;" x="748.626808" xlink:href="#m4902842dcc" y="484.453413"/>
     <use style="fill:#800080;stroke:#800080;" x="758.464865" xlink:href="#m4902842dcc" y="484.293747"/>
     <use style="fill:#800080;stroke:#800080;" x="769.342759" xlink:href="#m4902842dcc" y="484.293747"/>
     <use style="fill:#800080;stroke:#800080;" x="779.189878" xlink:href="#m4902842dcc" y="480.67465"/>
     <use style="fill:#800080;stroke:#800080;" x="789.088346" xlink:href="#m4902842dcc" y="482.590643"/>
     <use style="fill:#800080;stroke:#800080;" x="799.868072" xlink:href="#m4902842dcc" y="483.734916"/>
     <use style="fill:#800080;stroke:#800080;" x="809.755968" xlink:href="#m4902842dcc" y="481.898756"/>
     <use style="fill:#800080;stroke:#800080;" x="819.570615" xlink:href="#m4902842dcc" y="484.320358"/>
     <use style="fill:#800080;stroke:#800080;" x="830.519494" xlink:href="#m4902842dcc" y="480.727872"/>
     <use style="fill:#800080;stroke:#800080;" x="840.331875" xlink:href="#m4902842dcc" y="482.430977"/>
     <use style="fill:#800080;stroke:#800080;" x="850.123868" xlink:href="#m4902842dcc" y="483.894582"/>
     <use style="fill:#800080;stroke:#800080;" x="860.905859" xlink:href="#m4902842dcc" y="483.84136"/>
     <use style="fill:#800080;stroke:#800080;" x="870.711444" xlink:href="#m4902842dcc" y="482.138256"/>
     <use style="fill:#800080;stroke:#800080;" x="880.494375" xlink:href="#m4902842dcc" y="484.346969"/>
     <use style="fill:#800080;stroke:#800080;" x="890.407947" xlink:href="#m4902842dcc" y="485.411409"/>
     <use style="fill:#800080;stroke:#800080;" x="900.248269" xlink:href="#m4902842dcc" y="480.541595"/>
     <use style="fill:#800080;stroke:#800080;" x="910.154289" xlink:href="#m4902842dcc" y="484.054248"/>
     <use style="fill:#800080;stroke:#800080;" x="919.971202" xlink:href="#m4902842dcc" y="484.506635"/>
     <use style="fill:#800080;stroke:#800080;" x="930.499463" xlink:href="#m4902842dcc" y="481.127037"/>
     <use style="fill:#800080;stroke:#800080;" x="940.299763" xlink:href="#m4902842dcc" y="484.267136"/>
     <use style="fill:#800080;stroke:#800080;" x="950.113655" xlink:href="#m4902842dcc" y="484.506635"/>
     <use style="fill:#800080;stroke:#800080;" x="960.96965" xlink:href="#m4902842dcc" y="482.537421"/>
     <use style="fill:#800080;stroke:#800080;" x="970.741254" xlink:href="#m4902842dcc" y="484.533246"/>
     <use style="fill:#800080;stroke:#800080;" x="980.544574" xlink:href="#m4902842dcc" y="483.30914"/>
     <use style="fill:#800080;stroke:#800080;" x="991.437571" xlink:href="#m4902842dcc" y="477.428108"/>
     <use style="fill:#800080;stroke:#800080;" x="1001.226543" xlink:href="#m4902842dcc" y="483.468806"/>
     <use style="fill:#800080;stroke:#800080;" x="1011.022312" xlink:href="#m4902842dcc" y="483.548639"/>
     <use style="fill:#800080;stroke:#800080;" x="1021.944005" xlink:href="#m4902842dcc" y="479.370711"/>
     <use style="fill:#800080;stroke:#800080;" x="1031.751856" xlink:href="#m4902842dcc" y="484.213914"/>
     <use style="fill:#800080;stroke:#800080;" x="1041.580851" xlink:href="#m4902842dcc" y="483.974415"/>
     <use style="fill:#800080;stroke:#800080;" x="1052.470828" xlink:href="#m4902842dcc" y="482.883364"/>
     <use style="fill:#800080;stroke:#800080;" x="1062.264331" xlink:href="#m4902842dcc" y="484.213914"/>
     <use style="fill:#800080;stroke:#800080;" x="1072.096346" xlink:href="#m4902842dcc" y="484.293747"/>
     <use style="fill:#800080;stroke:#800080;" x="1082.999916" xlink:href="#m4902842dcc" y="481.978589"/>
     <use style="fill:#800080;stroke:#800080;" x="1092.781337" xlink:href="#m4902842dcc" y="483.814749"/>
     <use style="fill:#800080;stroke:#800080;" x="1102.613352" xlink:href="#m4902842dcc" y="484.453413"/>
     <use style="fill:#800080;stroke:#800080;" x="1113.438386" xlink:href="#m4902842dcc" y="480.14243"/>
     <use style="fill:#800080;stroke:#800080;" x="1123.216786" xlink:href="#m4902842dcc" y="484.400191"/>
     <use style="fill:#800080;stroke:#800080;" x="1133.049557" xlink:href="#m4902842dcc" y="484.293747"/>
     <use style="fill:#800080;stroke:#800080;" x="1143.958413" xlink:href="#m4902842dcc" y="482.697087"/>
     <use style="fill:#800080;stroke:#800080;" x="1153.767774" xlink:href="#m4902842dcc" y="484.453413"/>
     <use style="fill:#800080;stroke:#800080;" x="1163.530316" xlink:href="#m4902842dcc" y="483.867971"/>
     <use style="fill:#800080;stroke:#800080;" x="1174.426334" xlink:href="#m4902842dcc" y="484.533246"/>
     <use style="fill:#800080;stroke:#800080;" x="1184.248533" xlink:href="#m4902842dcc" y="484.63969"/>
     <use style="fill:#800080;stroke:#800080;" x="1194.045811" xlink:href="#m4902842dcc" y="483.788138"/>
     <use style="fill:#800080;stroke:#800080;" x="1204.931257" xlink:href="#m4902842dcc" y="484.666301"/>
     <use style="fill:#800080;stroke:#800080;" x="1214.74968" xlink:href="#m4902842dcc" y="484.240525"/>
     <use style="fill:#800080;stroke:#800080;" x="1224.536387" xlink:href="#m4902842dcc" y="484.187303"/>
     <use style="fill:#800080;stroke:#800080;" x="1235.462611" xlink:href="#m4902842dcc" y="484.10747"/>
     <use style="fill:#800080;stroke:#800080;" x="1245.272727" xlink:href="#m4902842dcc" y="484.480024"/>
    </g>
   </g>
   <g id="line2d_19">
    <path clip-path="url(#p826222e5fa)" d="M 230.727273 463.004506 
L 241.343131 463.312928 
L 251.183453 463.598818 
L 261.031327 463.884927 
L 271.907711 464.200918 
L 281.698949 464.485382 
L 291.509065 464.770394 
L 302.431513 465.087723 
L 312.24465 465.372823 
L 322.04495 465.65755 
L 342.551725 466.253332 
L 352.244794 466.534944 
L 362.048869 466.81978 
L 372.802164 467.132195 
L 382.783699 467.422187 
L 392.676126 467.709591 
L 403.348621 468.019658 
L 413.127021 468.303749 
L 422.976405 468.589902 
L 433.824848 468.905081 
L 443.603249 469.189172 
L 454.734872 469.512578 
L 464.532906 469.797239 
L 474.364922 470.082888 
L 484.154649 470.367308 
L 494.796938 470.676498 
L 504.597992 470.961247 
L 514.44058 471.247202 
L 525.418909 471.566155 
L 535.221474 471.850948 
L 545.085206 472.137518 
L 555.83246 472.449757 
L 565.618411 472.734067 
L 575.428528 473.01908 
L 586.337383 473.336013 
L 596.136172 473.620697 
L 605.949309 473.905797 
L 616.752444 474.219659 
L 626.549723 474.504299 
L 636.33643 474.788631 
L 647.21961 475.104819 
L 657.064463 475.390841 
L 666.857211 475.675348 
L 677.75776 475.992041 
L 687.554284 476.276659 
L 697.350808 476.561276 
L 708.19321 476.876279 
L 718.058452 477.162893 
L 727.864793 477.447796 
L 738.707195 477.762799 
L 748.626808 478.050993 
L 758.464865 478.336817 
L 769.342759 478.652851 
L 779.189878 478.938939 
L 789.088346 479.226518 
L 799.868072 479.5397 
L 809.755968 479.826973 
L 819.570615 480.112117 
L 830.519494 480.430213 
L 840.331875 480.715292 
L 850.123868 480.999777 
L 860.905859 481.313026 
L 870.711444 481.597906 
L 880.494375 481.882129 
L 890.407947 482.170147 
L 900.248269 482.456037 
L 910.154289 482.743836 
L 919.971202 483.029045 
L 930.499463 483.334922 
L 940.299763 483.619649 
L 950.113655 483.904771 
L 960.96965 484.220169 
L 970.741254 484.504063 
L 980.544574 484.788878 
L 991.437571 485.105351 
L 1001.226543 485.389749 
L 1011.022312 485.674345 
L 1021.944005 485.991652 
L 1031.751856 486.276598 
L 1041.580851 486.562159 
L 1052.470828 486.878545 
L 1062.264331 487.163074 
L 1072.096346 487.448723 
L 1082.999916 487.765503 
L 1092.781337 488.049682 
L 1102.613352 488.335331 
L 1113.438386 488.649829 
L 1123.216786 488.93392 
L 1133.049557 489.219591 
L 1143.958413 489.536525 
L 1153.767774 489.821515 
L 1163.530316 490.105145 
L 1174.426334 490.421706 
L 1184.248533 490.70707 
L 1194.045811 490.991709 
L 1204.931257 491.307963 
L 1214.74968 491.593217 
L 1224.536387 491.877549 
L 1235.462611 492.194988 
L 1245.272727 492.48 
" style="fill:none;stroke:#0000ff;stroke-linecap:square;stroke-width:1.5;"/>
   </g>
   <g id="line2d_20">
    <path clip-path="url(#p826222e5fa)" d="M 230.727273 483.353334 
L 241.343131 483.353417 
L 251.183453 483.353493 
L 261.031327 483.35357 
L 271.907711 483.353654 
L 281.698949 483.35373 
L 291.509065 483.353807 
L 302.431513 483.353892 
L 312.24465 483.353968 
L 322.04495 483.354044 
L 342.551725 483.354204 
L 352.244794 483.354279 
L 362.048869 483.354355 
L 372.802164 483.354439 
L 382.783699 483.354517 
L 392.676126 483.354594 
L 403.348621 483.354677 
L 413.127021 483.354753 
L 422.976405 483.354829 
L 433.824848 483.354914 
L 443.603249 483.35499 
L 454.734872 483.355076 
L 464.532906 483.355153 
L 474.364922 483.355229 
L 484.154649 483.355305 
L 494.796938 483.355388 
L 504.597992 483.355464 
L 514.44058 483.355541 
L 525.418909 483.355626 
L 535.221474 483.355703 
L 545.085206 483.355779 
L 555.83246 483.355863 
L 565.618411 483.355939 
L 575.428528 483.356015 
L 586.337383 483.3561 
L 596.136172 483.356176 
L 605.949309 483.356253 
L 616.752444 483.356337 
L 626.549723 483.356413 
L 636.33643 483.356489 
L 647.21961 483.356574 
L 657.064463 483.35665 
L 666.857211 483.356726 
L 677.75776 483.356811 
L 687.554284 483.356887 
L 697.350808 483.356964 
L 708.19321 483.357048 
L 718.058452 483.357125 
L 727.864793 483.357201 
L 738.707195 483.357285 
L 748.626808 483.357362 
L 758.464865 483.357439 
L 769.342759 483.357524 
L 779.189878 483.3576 
L 789.088346 483.357677 
L 799.868072 483.357761 
L 809.755968 483.357838 
L 819.570615 483.357914 
L 830.519494 483.357999 
L 840.331875 483.358076 
L 850.123868 483.358152 
L 860.905859 483.358236 
L 870.711444 483.358312 
L 880.494375 483.358388 
L 890.407947 483.358465 
L 900.248269 483.358542 
L 910.154289 483.358619 
L 919.971202 483.358695 
L 930.499463 483.358777 
L 940.299763 483.358853 
L 950.113655 483.35893 
L 960.96965 483.359014 
L 970.741254 483.35909 
L 980.544574 483.359166 
L 991.437571 483.359251 
L 1001.226543 483.359327 
L 1011.022312 483.359403 
L 1021.944005 483.359488 
L 1031.751856 483.359565 
L 1041.580851 483.359641 
L 1052.470828 483.359726 
L 1062.264331 483.359802 
L 1072.096346 483.359879 
L 1082.999916 483.359963 
L 1092.781337 483.360039 
L 1102.613352 483.360116 
L 1113.438386 483.3602 
L 1123.216786 483.360276 
L 1133.049557 483.360353 
L 1143.958413 483.360438 
L 1153.767774 483.360514 
L 1163.530316 483.36059 
L 1174.426334 483.360675 
L 1184.248533 483.360751 
L 1194.045811 483.360827 
L 1204.931257 483.360912 
L 1214.74968 483.360988 
L 1224.536387 483.361064 
L 1235.462611 483.361149 
L 1245.272727 483.361226 
" style="fill:none;stroke:#008000;stroke-linecap:square;stroke-width:1.5;"/>
    <defs>
     <path d="M 0 3 
C 0.795609 3 1.55874 2.683901 2.12132 2.12132 
C 2.683901 1.55874 3 0.795609 3 0 
C 3 -0.795609 2.683901 -1.55874 2.12132 -2.12132 
C 1.55874 -2.683901 0.795609 -3 0 -3 
C -0.795609 -3 -1.55874 -2.683901 -2.12132 -2.12132 
C -2.683901 -1.55874 -3 -0.795609 -3 0 
C -3 0.795609 -2.683901 1.55874 -2.12132 2.12132 
C -1.55874 2.683901 -0.795609 3 0 3 
z
" id="m0b662e132e" style="stroke:#008000;"/>
    </defs>
    <g clip-path="url(#p826222e5fa)">
     <use style="fill:#008000;stroke:#008000;" x="230.727273" xlink:href="#m0b662e132e" y="483.353334"/>
     <use style="fill:#008000;stroke:#008000;" x="241.343131" xlink:href="#m0b662e132e" y="483.353417"/>
     <use style="fill:#008000;stroke:#008000;" x="251.183453" xlink:href="#m0b662e132e" y="483.353493"/>
     <use style="fill:#008000;stroke:#008000;" x="261.031327" xlink:href="#m0b662e132e" y="483.35357"/>
     <use style="fill:#008000;stroke:#008000;" x="271.907711" xlink:href="#m0b662e132e" y="483.353654"/>
     <use style="fill:#008000;stroke:#008000;" x="281.698949" xlink:href="#m0b662e132e" y="483.35373"/>
     <use style="fill:#008000;stroke:#008000;" x="291.509065" xlink:href="#m0b662e132e" y="483.353807"/>
     <use style="fill:#008000;stroke:#008000;" x="302.431513" xlink:href="#m0b662e132e" y="483.353892"/>
     <use style="fill:#008000;stroke:#008000;" x="312.24465" xlink:href="#m0b662e132e" y="483.353968"/>
     <use style="fill:#008000;stroke:#008000;" x="322.04495" xlink:href="#m0b662e132e" y="483.354044"/>
     <use style="fill:#008000;stroke:#008000;" x="342.551725" xlink:href="#m0b662e132e" y="483.354204"/>
     <use style="fill:#008000;stroke:#008000;" x="352.244794" xlink:href="#m0b662e132e" y="483.354279"/>
     <use style="fill:#008000;stroke:#008000;" x="362.048869" xlink:href="#m0b662e132e" y="483.354355"/>
     <use style="fill:#008000;stroke:#008000;" x="372.802164" xlink:href="#m0b662e132e" y="483.354439"/>
     <use style="fill:#008000;stroke:#008000;" x="382.783699" xlink:href="#m0b662e132e" y="483.354517"/>
     <use style="fill:#008000;stroke:#008000;" x="392.676126" xlink:href="#m0b662e132e" y="483.354594"/>
     <use style="fill:#008000;stroke:#008000;" x="403.348621" xlink:href="#m0b662e132e" y="483.354677"/>
     <use style="fill:#008000;stroke:#008000;" x="413.127021" xlink:href="#m0b662e132e" y="483.354753"/>
     <use style="fill:#008000;stroke:#008000;" x="422.976405" xlink:href="#m0b662e132e" y="483.354829"/>
     <use style="fill:#008000;stroke:#008000;" x="433.824848" xlink:href="#m0b662e132e" y="483.354914"/>
     <use style="fill:#008000;stroke:#008000;" x="443.603249" xlink:href="#m0b662e132e" y="483.35499"/>
     <use style="fill:#008000;stroke:#008000;" x="454.734872" xlink:href="#m0b662e132e" y="483.355076"/>
     <use style="fill:#008000;stroke:#008000;" x="464.532906" xlink:href="#m0b662e132e" y="483.355153"/>
     <use style="fill:#008000;stroke:#008000;" x="474.364922" xlink:href="#m0b662e132e" y="483.355229"/>
     <use style="fill:#008000;stroke:#008000;" x="484.154649" xlink:href="#m0b662e132e" y="483.355305"/>
     <use style="fill:#008000;stroke:#008000;" x="494.796938" xlink:href="#m0b662e132e" y="483.355388"/>
     <use style="fill:#008000;stroke:#008000;" x="504.597992" xlink:href="#m0b662e132e" y="483.355464"/>
     <use style="fill:#008000;stroke:#008000;" x="514.44058" xlink:href="#m0b662e132e" y="483.355541"/>
     <use style="fill:#008000;stroke:#008000;" x="525.418909" xlink:href="#m0b662e132e" y="483.355626"/>
     <use style="fill:#008000;stroke:#008000;" x="535.221474" xlink:href="#m0b662e132e" y="483.355703"/>
     <use style="fill:#008000;stroke:#008000;" x="545.085206" xlink:href="#m0b662e132e" y="483.355779"/>
     <use style="fill:#008000;stroke:#008000;" x="555.83246" xlink:href="#m0b662e132e" y="483.355863"/>
     <use style="fill:#008000;stroke:#008000;" x="565.618411" xlink:href="#m0b662e132e" y="483.355939"/>
     <use style="fill:#008000;stroke:#008000;" x="575.428528" xlink:href="#m0b662e132e" y="483.356015"/>
     <use style="fill:#008000;stroke:#008000;" x="586.337383" xlink:href="#m0b662e132e" y="483.3561"/>
     <use style="fill:#008000;stroke:#008000;" x="596.136172" xlink:href="#m0b662e132e" y="483.356176"/>
     <use style="fill:#008000;stroke:#008000;" x="605.949309" xlink:href="#m0b662e132e" y="483.356253"/>
     <use style="fill:#008000;stroke:#008000;" x="616.752444" xlink:href="#m0b662e132e" y="483.356337"/>
     <use style="fill:#008000;stroke:#008000;" x="626.549723" xlink:href="#m0b662e132e" y="483.356413"/>
     <use style="fill:#008000;stroke:#008000;" x="636.33643" xlink:href="#m0b662e132e" y="483.356489"/>
     <use style="fill:#008000;stroke:#008000;" x="647.21961" xlink:href="#m0b662e132e" y="483.356574"/>
     <use style="fill:#008000;stroke:#008000;" x="657.064463" xlink:href="#m0b662e132e" y="483.35665"/>
     <use style="fill:#008000;stroke:#008000;" x="666.857211" xlink:href="#m0b662e132e" y="483.356726"/>
     <use style="fill:#008000;stroke:#008000;" x="677.75776" xlink:href="#m0b662e132e" y="483.356811"/>
     <use style="fill:#008000;stroke:#008000;" x="687.554284" xlink:href="#m0b662e132e" y="483.356887"/>
     <use style="fill:#008000;stroke:#008000;" x="697.350808" xlink:href="#m0b662e132e" y="483.356964"/>
     <use style="fill:#008000;stroke:#008000;" x="708.19321" xlink:href="#m0b662e132e" y="483.357048"/>
     <use style="fill:#008000;stroke:#008000;" x="718.058452" xlink:href="#m0b662e132e" y="483.357125"/>
     <use style="fill:#008000;stroke:#008000;" x="727.864793" xlink:href="#m0b662e132e" y="483.357201"/>
     <use style="fill:#008000;stroke:#008000;" x="738.707195" xlink:href="#m0b662e132e" y="483.357285"/>
     <use style="fill:#008000;stroke:#008000;" x="748.626808" xlink:href="#m0b662e132e" y="483.357362"/>
     <use style="fill:#008000;stroke:#008000;" x="758.464865" xlink:href="#m0b662e132e" y="483.357439"/>
     <use style="fill:#008000;stroke:#008000;" x="769.342759" xlink:href="#m0b662e132e" y="483.357524"/>
     <use style="fill:#008000;stroke:#008000;" x="779.189878" xlink:href="#m0b662e132e" y="483.3576"/>
     <use style="fill:#008000;stroke:#008000;" x="789.088346" xlink:href="#m0b662e132e" y="483.357677"/>
     <use style="fill:#008000;stroke:#008000;" x="799.868072" xlink:href="#m0b662e132e" y="483.357761"/>
     <use style="fill:#008000;stroke:#008000;" x="809.755968" xlink:href="#m0b662e132e" y="483.357838"/>
     <use style="fill:#008000;stroke:#008000;" x="819.570615" xlink:href="#m0b662e132e" y="483.357914"/>
     <use style="fill:#008000;stroke:#008000;" x="830.519494" xlink:href="#m0b662e132e" y="483.357999"/>
     <use style="fill:#008000;stroke:#008000;" x="840.331875" xlink:href="#m0b662e132e" y="483.358076"/>
     <use style="fill:#008000;stroke:#008000;" x="850.123868" xlink:href="#m0b662e132e" y="483.358152"/>
     <use style="fill:#008000;stroke:#008000;" x="860.905859" xlink:href="#m0b662e132e" y="483.358236"/>
     <use style="fill:#008000;stroke:#008000;" x="870.711444" xlink:href="#m0b662e132e" y="483.358312"/>
     <use style="fill:#008000;stroke:#008000;" x="880.494375" xlink:href="#m0b662e132e" y="483.358388"/>
     <use style="fill:#008000;stroke:#008000;" x="890.407947" xlink:href="#m0b662e132e" y="483.358465"/>
     <use style="fill:#008000;stroke:#008000;" x="900.248269" xlink:href="#m0b662e132e" y="483.358542"/>
     <use style="fill:#008000;stroke:#008000;" x="910.154289" xlink:href="#m0b662e132e" y="483.358619"/>
     <use style="fill:#008000;stroke:#008000;" x="919.971202" xlink:href="#m0b662e132e" y="483.358695"/>
     <use style="fill:#008000;stroke:#008000;" x="930.499463" xlink:href="#m0b662e132e" y="483.358777"/>
     <use style="fill:#008000;stroke:#008000;" x="940.299763" xlink:href="#m0b662e132e" y="483.358853"/>
     <use style="fill:#008000;stroke:#008000;" x="950.113655" xlink:href="#m0b662e132e" y="483.35893"/>
     <use style="fill:#008000;stroke:#008000;" x="960.96965" xlink:href="#m0b662e132e" y="483.359014"/>
     <use style="fill:#008000;stroke:#008000;" x="970.741254" xlink:href="#m0b662e132e" y="483.35909"/>
     <use style="fill:#008000;stroke:#008000;" x="980.544574" xlink:href="#m0b662e132e" y="483.359166"/>
     <use style="fill:#008000;stroke:#008000;" x="991.437571" xlink:href="#m0b662e132e" y="483.359251"/>
     <use style="fill:#008000;stroke:#008000;" x="1001.226543" xlink:href="#m0b662e132e" y="483.359327"/>
     <use style="fill:#008000;stroke:#008000;" x="1011.022312" xlink:href="#m0b662e132e" y="483.359403"/>
     <use style="fill:#008000;stroke:#008000;" x="1021.944005" xlink:href="#m0b662e132e" y="483.359488"/>
     <use style="fill:#008000;stroke:#008000;" x="1031.751856" xlink:href="#m0b662e132e" y="483.359565"/>
     <use style="fill:#008000;stroke:#008000;" x="1041.580851" xlink:href="#m0b662e132e" y="483.359641"/>
     <use style="fill:#008000;stroke:#008000;" x="1052.470828" xlink:href="#m0b662e132e" y="483.359726"/>
     <use style="fill:#008000;stroke:#008000;" x="1062.264331" xlink:href="#m0b662e132e" y="483.359802"/>
     <use style="fill:#008000;stroke:#008000;" x="1072.096346" xlink:href="#m0b662e132e" y="483.359879"/>
     <use style="fill:#008000;stroke:#008000;" x="1082.999916" xlink:href="#m0b662e132e" y="483.359963"/>
     <use style="fill:#008000;stroke:#008000;" x="1092.781337" xlink:href="#m0b662e132e" y="483.360039"/>
     <use style="fill:#008000;stroke:#008000;" x="1102.613352" xlink:href="#m0b662e132e" y="483.360116"/>
     <use style="fill:#008000;stroke:#008000;" x="1113.438386" xlink:href="#m0b662e132e" y="483.3602"/>
     <use style="fill:#008000;stroke:#008000;" x="1123.216786" xlink:href="#m0b662e132e" y="483.360276"/>
     <use style="fill:#008000;stroke:#008000;" x="1133.049557" xlink:href="#m0b662e132e" y="483.360353"/>
     <use style="fill:#008000;stroke:#008000;" x="1143.958413" xlink:href="#m0b662e132e" y="483.360438"/>
     <use style="fill:#008000;stroke:#008000;" x="1153.767774" xlink:href="#m0b662e132e" y="483.360514"/>
     <use style="fill:#008000;stroke:#008000;" x="1163.530316" xlink:href="#m0b662e132e" y="483.36059"/>
     <use style="fill:#008000;stroke:#008000;" x="1174.426334" xlink:href="#m0b662e132e" y="483.360675"/>
     <use style="fill:#008000;stroke:#008000;" x="1184.248533" xlink:href="#m0b662e132e" y="483.360751"/>
     <use style="fill:#008000;stroke:#008000;" x="1194.045811" xlink:href="#m0b662e132e" y="483.360827"/>
     <use style="fill:#008000;stroke:#008000;" x="1204.931257" xlink:href="#m0b662e132e" y="483.360912"/>
     <use style="fill:#008000;stroke:#008000;" x="1214.74968" xlink:href="#m0b662e132e" y="483.360988"/>
     <use style="fill:#008000;stroke:#008000;" x="1224.536387" xlink:href="#m0b662e132e" y="483.361064"/>
     <use style="fill:#008000;stroke:#008000;" x="1235.462611" xlink:href="#m0b662e132e" y="483.361149"/>
     <use style="fill:#008000;stroke:#008000;" x="1245.272727" xlink:href="#m0b662e132e" y="483.361226"/>
    </g>
   </g>
   <g id="patch_3">
    <path d="M 180 512.64 
L 180 69.12 
" style="fill:none;stroke:#000000;stroke-linecap:square;stroke-linejoin:miter;stroke-width:0.8;"/>
   </g>
   <g id="patch_4">
    <path d="M 1296 512.64 
L 1296 69.12 
" style="fill:none;stroke:#000000;stroke-linecap:square;stroke-linejoin:miter;stroke-width:0.8;"/>
   </g>
   <g id="patch_5">
    <path d="M 180 512.64 
L 1296 512.64 
" style="fill:none;stroke:#000000;stroke-linecap:square;stroke-linejoin:miter;stroke-width:0.8;"/>
   </g>
   <g id="patch_6">
    <path d="M 180 69.12 
L 1296 69.12 
" style="fill:none;stroke:#000000;stroke-linecap:square;stroke-linejoin:miter;stroke-width:0.8;"/>
   </g>
   <g id="text_17">
    <!-- 500000.0 bit/s -->
    <defs>
     <path d="M 10.796875 72.90625 
L 49.515625 72.90625 
L 49.515625 64.59375 
L 19.828125 64.59375 
L 19.828125 46.734375 
Q 21.96875 47.46875 24.109375 47.828125 
Q 26.265625 48.1875 28.421875 48.1875 
Q 40.625 48.1875 47.75 41.5 
Q 54.890625 34.8125 54.890625 23.390625 
Q 54.890625 11.625 47.5625 5.09375 
Q 40.234375 -1.421875 26.90625 -1.421875 
Q 22.3125 -1.421875 17.546875 -0.640625 
Q 12.796875 0.140625 7.71875 1.703125 
L 7.71875 11.625 
Q 12.109375 9.234375 16.796875 8.0625 
Q 21.484375 6.890625 26.703125 6.890625 
Q 35.15625 6.890625 40.078125 11.328125 
Q 45.015625 15.765625 45.015625 23.390625 
Q 45.015625 31 40.078125 35.4375 
Q 35.15625 39.890625 26.703125 39.890625 
Q 22.75 39.890625 18.8125 39.015625 
Q 14.890625 38.140625 10.796875 36.28125 
z
" id="DejaVuSans-35"/>
     <path id="DejaVuSans-20"/>
     <path d="M 48.6875 27.296875 
Q 48.6875 37.203125 44.609375 42.84375 
Q 40.53125 48.484375 33.40625 48.484375 
Q 26.265625 48.484375 22.1875 42.84375 
Q 18.109375 37.203125 18.109375 27.296875 
Q 18.109375 17.390625 22.1875 11.75 
Q 26.265625 6.109375 33.40625 6.109375 
Q 40.53125 6.109375 44.609375 11.75 
Q 48.6875 17.390625 48.6875 27.296875 
z
M 18.109375 46.390625 
Q 20.953125 51.265625 25.265625 53.625 
Q 29.59375 56 35.59375 56 
Q 45.5625 56 51.78125 48.09375 
Q 58.015625 40.1875 58.015625 27.296875 
Q 58.015625 14.40625 51.78125 6.484375 
Q 45.5625 -1.421875 35.59375 -1.421875 
Q 29.59375 -1.421875 25.265625 0.953125 
Q 20.953125 3.328125 18.109375 8.203125 
L 18.109375 0 
L 9.078125 0 
L 9.078125 75.984375 
L 18.109375 75.984375 
z
" id="DejaVuSans-62"/>
     <path d="M 9.421875 54.6875 
L 18.40625 54.6875 
L 18.40625 0 
L 9.421875 0 
z
M 9.421875 75.984375 
L 18.40625 75.984375 
L 18.40625 64.59375 
L 9.421875 64.59375 
z
" id="DejaVuSans-69"/>
     <path d="M 18.3125 70.21875 
L 18.3125 54.6875 
L 36.8125 54.6875 
L 36.8125 47.703125 
L 18.3125 47.703125 
L 18.3125 18.015625 
Q 18.3125 11.328125 20.140625 9.421875 
Q 21.96875 7.515625 27.59375 7.515625 
L 36.8125 7.515625 
L 36.8125 0 
L 27.59375 0 
Q 17.1875 0 13.234375 3.875 
Q 9.28125 7.765625 9.28125 18.015625 
L 9.28125 47.703125 
L 2.6875 47.703125 
L 2.6875 54.6875 
L 9.28125 54.6875 
L 9.28125 70.21875 
z
" id="DejaVuSans-74"/>
     <path d="M 25.390625 72.90625 
L 33.6875 72.90625 
L 8.296875 -9.28125 
L 0 -9.28125 
z
" id="DejaVuSans-2f"/>
     <path d="M 44.28125 53.078125 
L 44.28125 44.578125 
Q 40.484375 46.53125 36.375 47.5 
Q 32.28125 48.484375 27.875 48.484375 
Q 21.1875 48.484375 17.84375 46.4375 
Q 14.5 44.390625 14.5 40.28125 
Q 14.5 37.15625 16.890625 35.375 
Q 19.28125 33.59375 26.515625 31.984375 
L 29.59375 31.296875 
Q 39.15625 29.25 43.1875 25.515625 
Q 47.21875 21.78125 47.21875 15.09375 
Q 47.21875 7.46875 41.1875 3.015625 
Q 35.15625 -1.421875 24.609375 -1.421875 
Q 20.21875 -1.421875 15.453125 -0.5625 
Q 10.6875 0.296875 5.421875 2 
L 5.421875 11.28125 
Q 10.40625 8.6875 15.234375 7.390625 
Q 20.0625 6.109375 24.8125 6.109375 
Q 31.15625 6.109375 34.5625 8.28125 
Q 37.984375 10.453125 37.984375 14.40625 
Q 37.984375 18.0625 35.515625 20.015625 
Q 33.0625 21.96875 24.703125 23.78125 
L 21.578125 24.515625 
Q 13.234375 26.265625 9.515625 29.90625 
Q 5.8125 33.546875 5.8125 39.890625 
Q 5.8125 47.609375 11.28125 51.796875 
Q 16.75 56 26.8125 56 
Q 31.78125 56 36.171875 55.265625 
Q 40.578125 54.546875 44.28125 53.078125 
z
" id="DejaVuSans-73"/>
    </defs>
    <g transform="translate(694.48875 63.12)scale(0.12 -0.12)">
     <use xlink:href="#DejaVuSans-35"/>
     <use x="63.623047" xlink:href="#DejaVuSans-30"/>
     <use x="127.246094" xlink:href="#DejaVuSans-30"/>
     <use x="190.869141" xlink:href="#DejaVuSans-30"/>
     <use x="254.492188" xlink:href="#DejaVuSans-30"/>
     <use x="318.115234" xlink:href="#DejaVuSans-30"/>
     <use x="381.738281" xlink:href="#DejaVuSans-2e"/>
     <use x="413.525391" xlink:href="#DejaVuSans-30"/>
     <use x="477.148438" xlink:href="#DejaVuSans-20"/>
     <use x="508.935547" xlink:href="#DejaVuSans-62"/>
     <use x="572.412109" xlink:href="#DejaVuSans-69"/>
     <use x="600.195312" xlink:href="#DejaVuSans-74"/>
     <use x="639.404297" xlink:href="#DejaVuSans-2f"/>
     <use x="673.095703" xlink:href="#DejaVuSans-73"/>
    </g>
   </g>
   <g id="legend_1">
    <g id="patch_7">
     <path d="M 1173.520313 135.8325 
L 1289 135.8325 
Q 1291 135.8325 1291 133.8325 
L 1291 76.12 
Q 1291 74.12 1289 74.12 
L 1173.520313 74.12 
Q 1171.520313 74.12 1171.520313 76.12 
L 1171.520313 133.8325 
Q 1171.520313 135.8325 1173.520313 135.8325 
z
" style="fill:#ffffff;opacity:0.8;stroke:#cccccc;stroke-linejoin:miter;"/>
    </g>
    <g id="line2d_21">
     <path d="M 1175.520313 82.218437 
L 1195.520313 82.218437 
" style="fill:none;stroke:#ff0000;stroke-dasharray:5.55,2.4;stroke-dashoffset:0;stroke-width:1.5;"/>
    </g>
    <g id="line2d_22">
     <g>
      <use style="fill:#ff0000;stroke:#ff0000;stroke-linejoin:miter;" x="1185.520313" xlink:href="#mf0d1a1eb1c" y="82.218437"/>
     </g>
    </g>
    <g id="text_18">
     <!-- tcpdump -->
     <defs>
      <path d="M 48.78125 52.59375 
L 48.78125 44.1875 
Q 44.96875 46.296875 41.140625 47.34375 
Q 37.3125 48.390625 33.40625 48.390625 
Q 24.65625 48.390625 19.8125 42.84375 
Q 14.984375 37.3125 14.984375 27.296875 
Q 14.984375 17.28125 19.8125 11.734375 
Q 24.65625 6.203125 33.40625 6.203125 
Q 37.3125 6.203125 41.140625 7.25 
Q 44.96875 8.296875 48.78125 10.40625 
L 48.78125 2.09375 
Q 45.015625 0.34375 40.984375 -0.53125 
Q 36.96875 -1.421875 32.421875 -1.421875 
Q 20.0625 -1.421875 12.78125 6.34375 
Q 5.515625 14.109375 5.515625 27.296875 
Q 5.515625 40.671875 12.859375 48.328125 
Q 20.21875 56 33.015625 56 
Q 37.15625 56 41.109375 55.140625 
Q 45.0625 54.296875 48.78125 52.59375 
z
" id="DejaVuSans-63"/>
      <path d="M 18.109375 8.203125 
L 18.109375 -20.796875 
L 9.078125 -20.796875 
L 9.078125 54.6875 
L 18.109375 54.6875 
L 18.109375 46.390625 
Q 20.953125 51.265625 25.265625 53.625 
Q 29.59375 56 35.59375 56 
Q 45.5625 56 51.78125 48.09375 
Q 58.015625 40.1875 58.015625 27.296875 
Q 58.015625 14.40625 51.78125 6.484375 
Q 45.5625 -1.421875 35.59375 -1.421875 
Q 29.59375 -1.421875 25.265625 0.953125 
Q 20.953125 3.328125 18.109375 8.203125 
z
M 48.6875 27.296875 
Q 48.6875 37.203125 44.609375 42.84375 
Q 40.53125 48.484375 33.40625 48.484375 
Q 26.265625 48.484375 22.1875 42.84375 
Q 18.109375 37.203125 18.109375 27.296875 
Q 18.109375 17.390625 22.1875 11.75 
Q 26.265625 6.109375 33.40625 6.109375 
Q 40.53125 6.109375 44.609375 11.75 
Q 48.6875 17.390625 48.6875 27.296875 
z
" id="DejaVuSans-70"/>
      <path d="M 45.40625 46.390625 
L 45.40625 75.984375 
L 54.390625 75.984375 
L 54.390625 0 
L 45.40625 0 
L 45.40625 8.203125 
Q 42.578125 3.328125 38.25 0.953125 
Q 33.9375 -1.421875 27.875 -1.421875 
Q 17.96875 -1.421875 11.734375 6.484375 
Q 5.515625 14.40625 5.515625 27.296875 
Q 5.515625 40.1875 11.734375 48.09375 
Q 17.96875 56 27.875 56 
Q 33.9375 56 38.25 53.625 
Q 42.578125 51.265625 45.40625 46.390625 
z
M 14.796875 27.296875 
Q 14.796875 17.390625 18.875 11.75 
Q 22.953125 6.109375 30.078125 6.109375 
Q 37.203125 6.109375 41.296875 11.75 
Q 45.40625 17.390625 45.40625 27.296875 
Q 45.40625 37.203125 41.296875 42.84375 
Q 37.203125 48.484375 30.078125 48.484375 
Q 22.953125 48.484375 18.875 42.84375 
Q 14.796875 37.203125 14.796875 27.296875 
z
" id="DejaVuSans-64"/>
      <path d="M 8.5 21.578125 
L 8.5 54.6875 
L 17.484375 54.6875 
L 17.484375 21.921875 
Q 17.484375 14.15625 20.5 10.265625 
Q 23.53125 6.390625 29.59375 6.390625 
Q 36.859375 6.390625 41.078125 11.03125 
Q 45.3125 15.671875 45.3125 23.6875 
L 45.3125 54.6875 
L 54.296875 54.6875 
L 54.296875 0 
L 45.3125 0 
L 45.3125 8.40625 
Q 42.046875 3.421875 37.71875 1 
Q 33.40625 -1.421875 27.6875 -1.421875 
Q 18.265625 -1.421875 13.375 4.4375 
Q 8.5 10.296875 8.5 21.578125 
z
M 31.109375 56 
z
" id="DejaVuSans-75"/>
      <path d="M 52 44.1875 
Q 55.375 50.25 60.0625 53.125 
Q 64.75 56 71.09375 56 
Q 79.640625 56 84.28125 50.015625 
Q 88.921875 44.046875 88.921875 33.015625 
L 88.921875 0 
L 79.890625 0 
L 79.890625 32.71875 
Q 79.890625 40.578125 77.09375 44.375 
Q 74.3125 48.1875 68.609375 48.1875 
Q 61.625 48.1875 57.5625 43.546875 
Q 53.515625 38.921875 53.515625 30.90625 
L 53.515625 0 
L 44.484375 0 
L 44.484375 32.71875 
Q 44.484375 40.625 41.703125 44.40625 
Q 38.921875 48.1875 33.109375 48.1875 
Q 26.21875 48.1875 22.15625 43.53125 
Q 18.109375 38.875 18.109375 30.90625 
L 18.109375 0 
L 9.078125 0 
L 9.078125 54.6875 
L 18.109375 54.6875 
L 18.109375 46.1875 
Q 21.1875 51.21875 25.484375 53.609375 
Q 29.78125 56 35.6875 56 
Q 41.65625 56 45.828125 52.96875 
Q 50 49.953125 52 44.1875 
z
" id="DejaVuSans-6d"/>
     </defs>
     <g transform="translate(1203.520313 85.718437)scale(0.1 -0.1)">
      <use xlink:href="#DejaVuSans-74"/>
      <use x="39.208984" xlink:href="#DejaVuSans-63"/>
      <use x="94.189453" xlink:href="#DejaVuSans-70"/>
      <use x="157.666016" xlink:href="#DejaVuSans-64"/>
      <use x="221.142578" xlink:href="#DejaVuSans-75"/>
      <use x="284.521484" xlink:href="#DejaVuSans-6d"/>
      <use x="381.933594" xlink:href="#DejaVuSans-70"/>
     </g>
    </g>
    <g id="line2d_23">
     <path d="M 1175.520313 96.896563 
L 1195.520313 96.896563 
" style="fill:none;stroke:#800080;stroke-dasharray:9.6,2.4,1.5,2.4;stroke-dashoffset:0;stroke-width:1.5;"/>
    </g>
    <g id="line2d_24">
     <g>
      <use style="fill:#800080;stroke:#800080;" x="1185.520313" xlink:href="#m4902842dcc" y="96.896563"/>
     </g>
    </g>
    <g id="text_19">
     <!-- filtered tcpdump -->
     <defs>
      <path d="M 37.109375 75.984375 
L 37.109375 68.5 
L 28.515625 68.5 
Q 23.6875 68.5 21.796875 66.546875 
Q 19.921875 64.59375 19.921875 59.515625 
L 19.921875 54.6875 
L 34.71875 54.6875 
L 34.71875 47.703125 
L 19.921875 47.703125 
L 19.921875 0 
L 10.890625 0 
L 10.890625 47.703125 
L 2.296875 47.703125 
L 2.296875 54.6875 
L 10.890625 54.6875 
L 10.890625 58.5 
Q 10.890625 67.625 15.140625 71.796875 
Q 19.390625 75.984375 28.609375 75.984375 
z
" id="DejaVuSans-66"/>
      <path d="M 9.421875 75.984375 
L 18.40625 75.984375 
L 18.40625 0 
L 9.421875 0 
z
" id="DejaVuSans-6c"/>
      <path d="M 56.203125 29.59375 
L 56.203125 25.203125 
L 14.890625 25.203125 
Q 15.484375 15.921875 20.484375 11.0625 
Q 25.484375 6.203125 34.421875 6.203125 
Q 39.59375 6.203125 44.453125 7.46875 
Q 49.3125 8.734375 54.109375 11.28125 
L 54.109375 2.78125 
Q 49.265625 0.734375 44.1875 -0.34375 
Q 39.109375 -1.421875 33.890625 -1.421875 
Q 20.796875 -1.421875 13.15625 6.1875 
Q 5.515625 13.8125 5.515625 26.8125 
Q 5.515625 40.234375 12.765625 48.109375 
Q 20.015625 56 32.328125 56 
Q 43.359375 56 49.78125 48.890625 
Q 56.203125 41.796875 56.203125 29.59375 
z
M 47.21875 32.234375 
Q 47.125 39.59375 43.09375 43.984375 
Q 39.0625 48.390625 32.421875 48.390625 
Q 24.90625 48.390625 20.390625 44.140625 
Q 15.875 39.890625 15.1875 32.171875 
z
" id="DejaVuSans-65"/>
      <path d="M 41.109375 46.296875 
Q 39.59375 47.171875 37.8125 47.578125 
Q 36.03125 48 33.890625 48 
Q 26.265625 48 22.1875 43.046875 
Q 18.109375 38.09375 18.109375 28.8125 
L 18.109375 0 
L 9.078125 0 
L 9.078125 54.6875 
L 18.109375 54.6875 
L 18.109375 46.1875 
Q 20.953125 51.171875 25.484375 53.578125 
Q 30.03125 56 36.53125 56 
Q 37.453125 56 38.578125 55.875 
Q 39.703125 55.765625 41.0625 55.515625 
z
" id="DejaVuSans-72"/>
     </defs>
     <g transform="translate(1203.520313 100.396563)scale(0.1 -0.1)">
      <use xlink:href="#DejaVuSans-66"/>
      <use x="35.205078" xlink:href="#DejaVuSans-69"/>
      <use x="62.988281" xlink:href="#DejaVuSans-6c"/>
      <use x="90.771484" xlink:href="#DejaVuSans-74"/>
      <use x="129.980469" xlink:href="#DejaVuSans-65"/>
      <use x="191.503906" xlink:href="#DejaVuSans-72"/>
      <use x="232.585938" xlink:href="#DejaVuSans-65"/>
      <use x="294.109375" xlink:href="#DejaVuSans-64"/>
      <use x="357.585938" xlink:href="#DejaVuSans-20"/>
      <use x="389.373047" xlink:href="#DejaVuSans-74"/>
      <use x="428.582031" xlink:href="#DejaVuSans-63"/>
      <use x="483.5625" xlink:href="#DejaVuSans-70"/>
      <use x="547.039062" xlink:href="#DejaVuSans-64"/>
      <use x="610.515625" xlink:href="#DejaVuSans-75"/>
      <use x="673.894531" xlink:href="#DejaVuSans-6d"/>
      <use x="771.306641" xlink:href="#DejaVuSans-70"/>
     </g>
    </g>
    <g id="line2d_25">
     <path d="M 1175.520313 111.574687 
L 1195.520313 111.574687 
" style="fill:none;stroke:#0000ff;stroke-linecap:square;stroke-width:1.5;"/>
    </g>
    <g id="line2d_26"/>
    <g id="text_20">
     <!-- OLS -->
     <defs>
      <path d="M 39.40625 66.21875 
Q 28.65625 66.21875 22.328125 58.203125 
Q 16.015625 50.203125 16.015625 36.375 
Q 16.015625 22.609375 22.328125 14.59375 
Q 28.65625 6.59375 39.40625 6.59375 
Q 50.140625 6.59375 56.421875 14.59375 
Q 62.703125 22.609375 62.703125 36.375 
Q 62.703125 50.203125 56.421875 58.203125 
Q 50.140625 66.21875 39.40625 66.21875 
z
M 39.40625 74.21875 
Q 54.734375 74.21875 63.90625 63.9375 
Q 73.09375 53.65625 73.09375 36.375 
Q 73.09375 19.140625 63.90625 8.859375 
Q 54.734375 -1.421875 39.40625 -1.421875 
Q 24.03125 -1.421875 14.8125 8.828125 
Q 5.609375 19.09375 5.609375 36.375 
Q 5.609375 53.65625 14.8125 63.9375 
Q 24.03125 74.21875 39.40625 74.21875 
z
" id="DejaVuSans-4f"/>
      <path d="M 9.8125 72.90625 
L 19.671875 72.90625 
L 19.671875 8.296875 
L 55.171875 8.296875 
L 55.171875 0 
L 9.8125 0 
z
" id="DejaVuSans-4c"/>
      <path d="M 53.515625 70.515625 
L 53.515625 60.890625 
Q 47.90625 63.578125 42.921875 64.890625 
Q 37.9375 66.21875 33.296875 66.21875 
Q 25.25 66.21875 20.875 63.09375 
Q 16.5 59.96875 16.5 54.203125 
Q 16.5 49.359375 19.40625 46.890625 
Q 22.3125 44.4375 30.421875 42.921875 
L 36.375 41.703125 
Q 47.40625 39.59375 52.65625 34.296875 
Q 57.90625 29 57.90625 20.125 
Q 57.90625 9.515625 50.796875 4.046875 
Q 43.703125 -1.421875 29.984375 -1.421875 
Q 24.8125 -1.421875 18.96875 -0.25 
Q 13.140625 0.921875 6.890625 3.21875 
L 6.890625 13.375 
Q 12.890625 10.015625 18.65625 8.296875 
Q 24.421875 6.59375 29.984375 6.59375 
Q 38.421875 6.59375 43.015625 9.90625 
Q 47.609375 13.234375 47.609375 19.390625 
Q 47.609375 24.75 44.3125 27.78125 
Q 41.015625 30.8125 33.5 32.328125 
L 27.484375 33.5 
Q 16.453125 35.6875 11.515625 40.375 
Q 6.59375 45.0625 6.59375 53.421875 
Q 6.59375 63.09375 13.40625 68.65625 
Q 20.21875 74.21875 32.171875 74.21875 
Q 37.3125 74.21875 42.625 73.28125 
Q 47.953125 72.359375 53.515625 70.515625 
z
" id="DejaVuSans-53"/>
     </defs>
     <g transform="translate(1203.520313 115.074687)scale(0.1 -0.1)">
      <use xlink:href="#DejaVuSans-4f"/>
      <use x="78.710938" xlink:href="#DejaVuSans-4c"/>
      <use x="134.423828" xlink:href="#DejaVuSans-53"/>
     </g>
    </g>
    <g id="line2d_27">
     <path d="M 1175.520313 126.252813 
L 1195.520313 126.252813 
" style="fill:none;stroke:#008000;stroke-linecap:square;stroke-width:1.5;"/>
    </g>
    <g id="line2d_28">
     <g>
      <use style="fill:#008000;stroke:#008000;" x="1185.520313" xlink:href="#m0b662e132e" y="126.252813"/>
     </g>
    </g>
    <g id="text_21">
     <!-- IRLS -->
     <defs>
      <path d="M 9.8125 72.90625 
L 19.671875 72.90625 
L 19.671875 0 
L 9.8125 0 
z
" id="DejaVuSans-49"/>
      <path d="M 44.390625 34.1875 
Q 47.5625 33.109375 50.5625 29.59375 
Q 53.5625 26.078125 56.59375 19.921875 
L 66.609375 0 
L 56 0 
L 46.6875 18.703125 
Q 43.0625 26.03125 39.671875 28.421875 
Q 36.28125 30.8125 30.421875 30.8125 
L 19.671875 30.8125 
L 19.671875 0 
L 9.8125 0 
L 9.8125 72.90625 
L 32.078125 72.90625 
Q 44.578125 72.90625 50.734375 67.671875 
Q 56.890625 62.453125 56.890625 51.90625 
Q 56.890625 45.015625 53.6875 40.46875 
Q 50.484375 35.9375 44.390625 34.1875 
z
M 19.671875 64.796875 
L 19.671875 38.921875 
L 32.078125 38.921875 
Q 39.203125 38.921875 42.84375 42.21875 
Q 46.484375 45.515625 46.484375 51.90625 
Q 46.484375 58.296875 42.84375 61.546875 
Q 39.203125 64.796875 32.078125 64.796875 
z
" id="DejaVuSans-52"/>
     </defs>
     <g transform="translate(1203.520313 129.752813)scale(0.1 -0.1)">
      <use xlink:href="#DejaVuSans-49"/>
      <use x="29.492188" xlink:href="#DejaVuSans-52"/>
      <use x="98.974609" xlink:href="#DejaVuSans-4c"/>
      <use x="154.6875" xlink:href="#DejaVuSans-53"/>
     </g>
    </g>
   </g>
  </g>
 </g>
 <defs>
  <clipPath id="p826222e5fa">
   <rect height="443.52" width="1116" x="180" y="69.12"/>
  </clipPath>
 </defs>
</svg>
