<?xml version="1.0" encoding="utf-8" standalone="no"?>
<!DOCTYPE svg PUBLIC "-//W3C//DTD SVG 1.1//EN"
  "http://www.w3.org/Graphics/SVG/1.1/DTD/svg11.dtd">
<!-- Created with matplotlib (http://matplotlib.org/) -->
<svg height="576pt" version="1.1" viewBox="0 0 1440 576" width="1440pt" xmlns="http://www.w3.org/2000/svg" xmlns:xlink="http://www.w3.org/1999/xlink">
 <defs>
  <style type="text/css">
*{stroke-linecap:butt;stroke-linejoin:round;}
  </style>
 </defs>
 <g id="figure_1">
  <g id="patch_1">
   <path d="M 0 576 
L 1440 576 
L 1440 0 
L 0 0 
z
" style="fill:#ffffff;"/>
  </g>
  <g id="axes_1">
   <g id="patch_2">
    <path d="M 180 512.64 
L 1296 512.64 
L 1296 69.12 
L 180 69.12 
z
" style="fill:#ffffff;"/>
   </g>
   <g id="matplotlib.axis_1">
    <g id="xtick_1">
     <g id="line2d_1">
      <defs>
       <path d="M 0 0 
L 0 3.5 
" id="mb4d46e1eba" style="stroke:#000000;stroke-width:0.8;"/>
      </defs>
      <g>
       <use style="stroke:#000000;stroke-width:0.8;" x="230.727273" xlink:href="#mb4d46e1eba" y="512.64"/>
      </g>
     </g>
     <g id="text_1">
      <!-- 0.0 -->
      <defs>
       <path d="M 31.78125 66.40625 
Q 24.171875 66.40625 20.328125 58.90625 
Q 16.5 51.421875 16.5 36.375 
Q 16.5 21.390625 20.328125 13.890625 
Q 24.171875 6.390625 31.78125 6.390625 
Q 39.453125 6.390625 43.28125 13.890625 
Q 47.125 21.390625 47.125 36.375 
Q 47.125 51.421875 43.28125 58.90625 
Q 39.453125 66.40625 31.78125 66.40625 
z
M 31.78125 74.21875 
Q 44.046875 74.21875 50.515625 64.515625 
Q 56.984375 54.828125 56.984375 36.375 
Q 56.984375 17.96875 50.515625 8.265625 
Q 44.046875 -1.421875 31.78125 -1.421875 
Q 19.53125 -1.421875 13.0625 8.265625 
Q 6.59375 17.96875 6.59375 36.375 
Q 6.59375 54.828125 13.0625 64.515625 
Q 19.53125 74.21875 31.78125 74.21875 
z
" id="DejaVuSans-30"/>
       <path d="M 10.6875 12.40625 
L 21 12.40625 
L 21 0 
L 10.6875 0 
z
" id="DejaVuSans-2e"/>
      </defs>
      <g transform="translate(222.77571 527.238438)scale(0.1 -0.1)">
       <use xlink:href="#DejaVuSans-30"/>
       <use x="63.623047" xlink:href="#DejaVuSans-2e"/>
       <use x="95.410156" xlink:href="#DejaVuSans-30"/>
      </g>
     </g>
    </g>
    <g id="xtick_2">
     <g id="line2d_2">
      <g>
       <use style="stroke:#000000;stroke-width:0.8;" x="390.004951" xlink:href="#mb4d46e1eba" y="512.64"/>
      </g>
     </g>
     <g id="text_2">
      <!-- 0.2 -->
      <defs>
       <path d="M 19.1875 8.296875 
L 53.609375 8.296875 
L 53.609375 0 
L 7.328125 0 
L 7.328125 8.296875 
Q 12.9375 14.109375 22.625 23.890625 
Q 32.328125 33.6875 34.8125 36.53125 
Q 39.546875 41.84375 41.421875 45.53125 
Q 43.3125 49.21875 43.3125 52.78125 
Q 43.3125 58.59375 39.234375 62.25 
Q 35.15625 65.921875 28.609375 65.921875 
Q 23.96875 65.921875 18.8125 64.3125 
Q 13.671875 62.703125 7.8125 59.421875 
L 7.8125 69.390625 
Q 13.765625 71.78125 18.9375 73 
Q 24.125 74.21875 28.421875 74.21875 
Q 39.75 74.21875 46.484375 68.546875 
Q 53.21875 62.890625 53.21875 53.421875 
Q 53.21875 48.921875 51.53125 44.890625 
Q 49.859375 40.875 45.40625 35.40625 
Q 44.1875 33.984375 37.640625 27.21875 
Q 31.109375 20.453125 19.1875 8.296875 
z
" id="DejaVuSans-32"/>
      </defs>
      <g transform="translate(382.053389 527.238438)scale(0.1 -0.1)">
       <use xlink:href="#DejaVuSans-30"/>
       <use x="63.623047" xlink:href="#DejaVuSans-2e"/>
       <use x="95.410156" xlink:href="#DejaVuSans-32"/>
      </g>
     </g>
    </g>
    <g id="xtick_3">
     <g id="line2d_3">
      <g>
       <use style="stroke:#000000;stroke-width:0.8;" x="549.28263" xlink:href="#mb4d46e1eba" y="512.64"/>
      </g>
     </g>
     <g id="text_3">
      <!-- 0.4 -->
      <defs>
       <path d="M 37.796875 64.3125 
L 12.890625 25.390625 
L 37.796875 25.390625 
z
M 35.203125 72.90625 
L 47.609375 72.90625 
L 47.609375 25.390625 
L 58.015625 25.390625 
L 58.015625 17.1875 
L 47.609375 17.1875 
L 47.609375 0 
L 37.796875 0 
L 37.796875 17.1875 
L 4.890625 17.1875 
L 4.890625 26.703125 
z
" id="DejaVuSans-34"/>
      </defs>
      <g transform="translate(541.331067 527.238438)scale(0.1 -0.1)">
       <use xlink:href="#DejaVuSans-30"/>
       <use x="63.623047" xlink:href="#DejaVuSans-2e"/>
       <use x="95.410156" xlink:href="#DejaVuSans-34"/>
      </g>
     </g>
    </g>
    <g id="xtick_4">
     <g id="line2d_4">
      <g>
       <use style="stroke:#000000;stroke-width:0.8;" x="708.560308" xlink:href="#mb4d46e1eba" y="512.64"/>
      </g>
     </g>
     <g id="text_4">
      <!-- 0.6 -->
      <defs>
       <path d="M 33.015625 40.375 
Q 26.375 40.375 22.484375 35.828125 
Q 18.609375 31.296875 18.609375 23.390625 
Q 18.609375 15.53125 22.484375 10.953125 
Q 26.375 6.390625 33.015625 6.390625 
Q 39.65625 6.390625 43.53125 10.953125 
Q 47.40625 15.53125 47.40625 23.390625 
Q 47.40625 31.296875 43.53125 35.828125 
Q 39.65625 40.375 33.015625 40.375 
z
M 52.59375 71.296875 
L 52.59375 62.3125 
Q 48.875 64.0625 45.09375 64.984375 
Q 41.3125 65.921875 37.59375 65.921875 
Q 27.828125 65.921875 22.671875 59.328125 
Q 17.53125 52.734375 16.796875 39.40625 
Q 19.671875 43.65625 24.015625 45.921875 
Q 28.375 48.1875 33.59375 48.1875 
Q 44.578125 48.1875 50.953125 41.515625 
Q 57.328125 34.859375 57.328125 23.390625 
Q 57.328125 12.15625 50.6875 5.359375 
Q 44.046875 -1.421875 33.015625 -1.421875 
Q 20.359375 -1.421875 13.671875 8.265625 
Q 6.984375 17.96875 6.984375 36.375 
Q 6.984375 53.65625 15.1875 63.9375 
Q 23.390625 74.21875 37.203125 74.21875 
Q 40.921875 74.21875 44.703125 73.484375 
Q 48.484375 72.75 52.59375 71.296875 
z
" id="DejaVuSans-36"/>
      </defs>
      <g transform="translate(700.608746 527.238438)scale(0.1 -0.1)">
       <use xlink:href="#DejaVuSans-30"/>
       <use x="63.623047" xlink:href="#DejaVuSans-2e"/>
       <use x="95.410156" xlink:href="#DejaVuSans-36"/>
      </g>
     </g>
    </g>
    <g id="xtick_5">
     <g id="line2d_5">
      <g>
       <use style="stroke:#000000;stroke-width:0.8;" x="867.837987" xlink:href="#mb4d46e1eba" y="512.64"/>
      </g>
     </g>
     <g id="text_5">
      <!-- 0.8 -->
      <defs>
       <path d="M 31.78125 34.625 
Q 24.75 34.625 20.71875 30.859375 
Q 16.703125 27.09375 16.703125 20.515625 
Q 16.703125 13.921875 20.71875 10.15625 
Q 24.75 6.390625 31.78125 6.390625 
Q 38.8125 6.390625 42.859375 10.171875 
Q 46.921875 13.96875 46.921875 20.515625 
Q 46.921875 27.09375 42.890625 30.859375 
Q 38.875 34.625 31.78125 34.625 
z
M 21.921875 38.8125 
Q 15.578125 40.375 12.03125 44.71875 
Q 8.5 49.078125 8.5 55.328125 
Q 8.5 64.0625 14.71875 69.140625 
Q 20.953125 74.21875 31.78125 74.21875 
Q 42.671875 74.21875 48.875 69.140625 
Q 55.078125 64.0625 55.078125 55.328125 
Q 55.078125 49.078125 51.53125 44.71875 
Q 48 40.375 41.703125 38.8125 
Q 48.828125 37.15625 52.796875 32.3125 
Q 56.78125 27.484375 56.78125 20.515625 
Q 56.78125 9.90625 50.3125 4.234375 
Q 43.84375 -1.421875 31.78125 -1.421875 
Q 19.734375 -1.421875 13.25 4.234375 
Q 6.78125 9.90625 6.78125 20.515625 
Q 6.78125 27.484375 10.78125 32.3125 
Q 14.796875 37.15625 21.921875 38.8125 
z
M 18.3125 54.390625 
Q 18.3125 48.734375 21.84375 45.5625 
Q 25.390625 42.390625 31.78125 42.390625 
Q 38.140625 42.390625 41.71875 45.5625 
Q 45.3125 48.734375 45.3125 54.390625 
Q 45.3125 60.0625 41.71875 63.234375 
Q 38.140625 66.40625 31.78125 66.40625 
Q 25.390625 66.40625 21.84375 63.234375 
Q 18.3125 60.0625 18.3125 54.390625 
z
" id="DejaVuSans-38"/>
      </defs>
      <g transform="translate(859.886425 527.238438)scale(0.1 -0.1)">
       <use xlink:href="#DejaVuSans-30"/>
       <use x="63.623047" xlink:href="#DejaVuSans-2e"/>
       <use x="95.410156" xlink:href="#DejaVuSans-38"/>
      </g>
     </g>
    </g>
    <g id="xtick_6">
     <g id="line2d_6">
      <g>
       <use style="stroke:#000000;stroke-width:0.8;" x="1027.115666" xlink:href="#mb4d46e1eba" y="512.64"/>
      </g>
     </g>
     <g id="text_6">
      <!-- 1.0 -->
      <defs>
       <path d="M 12.40625 8.296875 
L 28.515625 8.296875 
L 28.515625 63.921875 
L 10.984375 60.40625 
L 10.984375 69.390625 
L 28.421875 72.90625 
L 38.28125 72.90625 
L 38.28125 8.296875 
L 54.390625 8.296875 
L 54.390625 0 
L 12.40625 0 
z
" id="DejaVuSans-31"/>
      </defs>
      <g transform="translate(1019.164103 527.238438)scale(0.1 -0.1)">
       <use xlink:href="#DejaVuSans-31"/>
       <use x="63.623047" xlink:href="#DejaVuSans-2e"/>
       <use x="95.410156" xlink:href="#DejaVuSans-30"/>
      </g>
     </g>
    </g>
    <g id="xtick_7">
     <g id="line2d_7">
      <g>
       <use style="stroke:#000000;stroke-width:0.8;" x="1186.393344" xlink:href="#mb4d46e1eba" y="512.64"/>
      </g>
     </g>
     <g id="text_7">
      <!-- 1.2 -->
      <g transform="translate(1178.441782 527.238438)scale(0.1 -0.1)">
       <use xlink:href="#DejaVuSans-31"/>
       <use x="63.623047" xlink:href="#DejaVuSans-2e"/>
       <use x="95.410156" xlink:href="#DejaVuSans-32"/>
      </g>
     </g>
    </g>
   </g>
   <g id="matplotlib.axis_2">
    <g id="ytick_1">
     <g id="line2d_8">
      <defs>
       <path d="M 0 0 
L -3.5 0 
" id="m6e52c44246" style="stroke:#000000;stroke-width:0.8;"/>
      </defs>
      <g>
       <use style="stroke:#000000;stroke-width:0.8;" x="180" xlink:href="#m6e52c44246" y="463.003238"/>
      </g>
     </g>
     <g id="text_8">
      <!-- 0.30015 -->
      <defs>
       <path d="M 40.578125 39.3125 
Q 47.65625 37.796875 51.625 33 
Q 55.609375 28.21875 55.609375 21.1875 
Q 55.609375 10.40625 48.1875 4.484375 
Q 40.765625 -1.421875 27.09375 -1.421875 
Q 22.515625 -1.421875 17.65625 -0.515625 
Q 12.796875 0.390625 7.625 2.203125 
L 7.625 11.71875 
Q 11.71875 9.328125 16.59375 8.109375 
Q 21.484375 6.890625 26.8125 6.890625 
Q 36.078125 6.890625 40.9375 10.546875 
Q 45.796875 14.203125 45.796875 21.1875 
Q 45.796875 27.640625 41.28125 31.265625 
Q 36.765625 34.90625 28.71875 34.90625 
L 20.21875 34.90625 
L 20.21875 43.015625 
L 29.109375 43.015625 
Q 36.375 43.015625 40.234375 45.921875 
Q 44.09375 48.828125 44.09375 54.296875 
Q 44.09375 59.90625 40.109375 62.90625 
Q 36.140625 65.921875 28.71875 65.921875 
Q 24.65625 65.921875 20.015625 65.03125 
Q 15.375 64.15625 9.8125 62.3125 
L 9.8125 71.09375 
Q 15.4375 72.65625 20.34375 73.4375 
Q 25.25 74.21875 29.59375 74.21875 
Q 40.828125 74.21875 47.359375 69.109375 
Q 53.90625 64.015625 53.90625 55.328125 
Q 53.90625 49.265625 50.4375 45.09375 
Q 46.96875 40.921875 40.578125 39.3125 
z
" id="DejaVuSans-33"/>
       <path d="M 10.796875 72.90625 
L 49.515625 72.90625 
L 49.515625 64.59375 
L 19.828125 64.59375 
L 19.828125 46.734375 
Q 21.96875 47.46875 24.109375 47.828125 
Q 26.265625 48.1875 28.421875 48.1875 
Q 40.625 48.1875 47.75 41.5 
Q 54.890625 34.8125 54.890625 23.390625 
Q 54.890625 11.625 47.5625 5.09375 
Q 40.234375 -1.421875 26.90625 -1.421875 
Q 22.3125 -1.421875 17.546875 -0.640625 
Q 12.796875 0.140625 7.71875 1.703125 
L 7.71875 11.625 
Q 12.109375 9.234375 16.796875 8.0625 
Q 21.484375 6.890625 26.703125 6.890625 
Q 35.15625 6.890625 40.078125 11.328125 
Q 45.015625 15.765625 45.015625 23.390625 
Q 45.015625 31 40.078125 35.4375 
Q 35.15625 39.890625 26.703125 39.890625 
Q 22.75 39.890625 18.8125 39.015625 
Q 14.890625 38.140625 10.796875 36.28125 
z
" id="DejaVuSans-35"/>
      </defs>
      <g transform="translate(131.646875 466.802456)scale(0.1 -0.1)">
       <use xlink:href="#DejaVuSans-30"/>
       <use x="63.623047" xlink:href="#DejaVuSans-2e"/>
       <use x="95.410156" xlink:href="#DejaVuSans-33"/>
       <use x="159.033203" xlink:href="#DejaVuSans-30"/>
       <use x="222.65625" xlink:href="#DejaVuSans-30"/>
       <use x="286.279297" xlink:href="#DejaVuSans-31"/>
       <use x="349.902344" xlink:href="#DejaVuSans-35"/>
      </g>
     </g>
    </g>
    <g id="ytick_2">
     <g id="line2d_9">
      <g>
       <use style="stroke:#000000;stroke-width:0.8;" x="180" xlink:href="#m6e52c44246" y="410.366162"/>
      </g>
     </g>
     <g id="text_9">
      <!-- 0.30020 -->
      <g transform="translate(131.646875 414.165381)scale(0.1 -0.1)">
       <use xlink:href="#DejaVuSans-30"/>
       <use x="63.623047" xlink:href="#DejaVuSans-2e"/>
       <use x="95.410156" xlink:href="#DejaVuSans-33"/>
       <use x="159.033203" xlink:href="#DejaVuSans-30"/>
       <use x="222.65625" xlink:href="#DejaVuSans-30"/>
       <use x="286.279297" xlink:href="#DejaVuSans-32"/>
       <use x="349.902344" xlink:href="#DejaVuSans-30"/>
      </g>
     </g>
    </g>
    <g id="ytick_3">
     <g id="line2d_10">
      <g>
       <use style="stroke:#000000;stroke-width:0.8;" x="180" xlink:href="#m6e52c44246" y="357.729086"/>
      </g>
     </g>
     <g id="text_10">
      <!-- 0.30025 -->
      <g transform="translate(131.646875 361.528305)scale(0.1 -0.1)">
       <use xlink:href="#DejaVuSans-30"/>
       <use x="63.623047" xlink:href="#DejaVuSans-2e"/>
       <use x="95.410156" xlink:href="#DejaVuSans-33"/>
       <use x="159.033203" xlink:href="#DejaVuSans-30"/>
       <use x="222.65625" xlink:href="#DejaVuSans-30"/>
       <use x="286.279297" xlink:href="#DejaVuSans-32"/>
       <use x="349.902344" xlink:href="#DejaVuSans-35"/>
      </g>
     </g>
    </g>
    <g id="ytick_4">
     <g id="line2d_11">
      <g>
       <use style="stroke:#000000;stroke-width:0.8;" x="180" xlink:href="#m6e52c44246" y="305.09201"/>
      </g>
     </g>
     <g id="text_11">
      <!-- 0.30030 -->
      <g transform="translate(131.646875 308.891229)scale(0.1 -0.1)">
       <use xlink:href="#DejaVuSans-30"/>
       <use x="63.623047" xlink:href="#DejaVuSans-2e"/>
       <use x="95.410156" xlink:href="#DejaVuSans-33"/>
       <use x="159.033203" xlink:href="#DejaVuSans-30"/>
       <use x="222.65625" xlink:href="#DejaVuSans-30"/>
       <use x="286.279297" xlink:href="#DejaVuSans-33"/>
       <use x="349.902344" xlink:href="#DejaVuSans-30"/>
      </g>
     </g>
    </g>
    <g id="ytick_5">
     <g id="line2d_12">
      <g>
       <use style="stroke:#000000;stroke-width:0.8;" x="180" xlink:href="#m6e52c44246" y="252.454935"/>
      </g>
     </g>
     <g id="text_12">
      <!-- 0.30035 -->
      <g transform="translate(131.646875 256.254153)scale(0.1 -0.1)">
       <use xlink:href="#DejaVuSans-30"/>
       <use x="63.623047" xlink:href="#DejaVuSans-2e"/>
       <use x="95.410156" xlink:href="#DejaVuSans-33"/>
       <use x="159.033203" xlink:href="#DejaVuSans-30"/>
       <use x="222.65625" xlink:href="#DejaVuSans-30"/>
       <use x="286.279297" xlink:href="#DejaVuSans-33"/>
       <use x="349.902344" xlink:href="#DejaVuSans-35"/>
      </g>
     </g>
    </g>
    <g id="ytick_6">
     <g id="line2d_13">
      <g>
       <use style="stroke:#000000;stroke-width:0.8;" x="180" xlink:href="#m6e52c44246" y="199.817859"/>
      </g>
     </g>
     <g id="text_13">
      <!-- 0.30040 -->
      <g transform="translate(131.646875 203.617078)scale(0.1 -0.1)">
       <use xlink:href="#DejaVuSans-30"/>
       <use x="63.623047" xlink:href="#DejaVuSans-2e"/>
       <use x="95.410156" xlink:href="#DejaVuSans-33"/>
       <use x="159.033203" xlink:href="#DejaVuSans-30"/>
       <use x="222.65625" xlink:href="#DejaVuSans-30"/>
       <use x="286.279297" xlink:href="#DejaVuSans-34"/>
       <use x="349.902344" xlink:href="#DejaVuSans-30"/>
      </g>
     </g>
    </g>
    <g id="ytick_7">
     <g id="line2d_14">
      <g>
       <use style="stroke:#000000;stroke-width:0.8;" x="180" xlink:href="#m6e52c44246" y="147.180783"/>
      </g>
     </g>
     <g id="text_14">
      <!-- 0.30045 -->
      <g transform="translate(131.646875 150.980002)scale(0.1 -0.1)">
       <use xlink:href="#DejaVuSans-30"/>
       <use x="63.623047" xlink:href="#DejaVuSans-2e"/>
       <use x="95.410156" xlink:href="#DejaVuSans-33"/>
       <use x="159.033203" xlink:href="#DejaVuSans-30"/>
       <use x="222.65625" xlink:href="#DejaVuSans-30"/>
       <use x="286.279297" xlink:href="#DejaVuSans-34"/>
       <use x="349.902344" xlink:href="#DejaVuSans-35"/>
      </g>
     </g>
    </g>
    <g id="ytick_8">
     <g id="line2d_15">
      <g>
       <use style="stroke:#000000;stroke-width:0.8;" x="180" xlink:href="#m6e52c44246" y="94.543708"/>
      </g>
     </g>
     <g id="text_15">
      <!-- 0.30050 -->
      <g transform="translate(131.646875 98.342926)scale(0.1 -0.1)">
       <use xlink:href="#DejaVuSans-30"/>
       <use x="63.623047" xlink:href="#DejaVuSans-2e"/>
       <use x="95.410156" xlink:href="#DejaVuSans-33"/>
       <use x="159.033203" xlink:href="#DejaVuSans-30"/>
       <use x="222.65625" xlink:href="#DejaVuSans-30"/>
       <use x="286.279297" xlink:href="#DejaVuSans-35"/>
       <use x="349.902344" xlink:href="#DejaVuSans-30"/>
      </g>
     </g>
    </g>
   </g>
   <g id="line2d_16">
    <path clip-path="url(#pbb550588db)" d="M 230.727273 154.549974 
L 241.192613 225.083655 
L 251.542476 145.0753 
L 261.822258 224.030914 
L 272.050274 275.615248 
L 282.32448 306.144752 
L 292.734073 278.773473 
L 302.984388 267.193316 
L 313.271337 328.252324 
L 323.504928 354.570862 
L 333.749668 359.834569 
L 344.012725 317.724909 
L 354.282154 409.31342 
L 364.554767 421.946319 
L 374.780394 426.157285 
L 385.202729 399.838747 
L 395.564539 408.260679 
L 405.869008 431.420992 
L 416.258691 90.332742 
L 426.573514 453.528564 
L 436.889132 89.28 
L 447.161746 461.950496 
L 457.23367 473.530653 
L 467.167023 481.952585 
L 477.005605 448.264856 
L 486.841798 485.110809 
L 496.693122 479.847102 
L 506.531705 481.952585 
L 516.36949 492.48 
L 526.236743 484.058068 
L 536.0809 450.370339 
L 545.927446 478.79436 
L 555.758064 473.530653 
L 565.606999 483.005326 
L 575.456731 457.73953 
L 585.303277 465.108721 
L 595.154601 440.895666 
L 605.138923 431.420992 
L 615.206068 436.6847 
L 625.283567 434.579217 
L 636.164622 428.262768 
L 646.217432 428.262768 
L 656.254315 418.788094 
L 666.19165 389.311332 
L 676.1035 400.891488 
L 685.932525 376.678433 
L 695.76394 344.043446 
L 705.600133 350.359896 
L 715.441901 359.834569 
L 725.279686 325.094099 
L 735.110305 322.988616 
L 744.971982 311.40846 
L 754.807379 314.566684 
L 764.653925 249.29671 
L 774.508435 205.081567 
L 784.468068 148.233525 
L 794.547956 216.661723 
L 806.57581 241.92752 
L 817.007701 229.294621 
L 827.340044 225.083655 
L 837.650089 239.822037 
L 848.017473 250.349452 
L 858.344241 249.29671 
L 868.678177 257.718642 
L 878.973886 93.490966 
L 889.298265 249.29671 
L 899.605124 232.452846 
L 910.093559 216.661723 
L 920.51669 234.558329 
L 930.916726 162.971906 
L 941.337468 233.505587 
L 951.730337 233.505587 
L 961.998969 247.191227 
L 972.309809 242.980261 
L 982.642152 232.452846 
L 992.93149 246.138486 
L 1003.175434 237.716554 
L 1013.465569 207.18705 
L 1023.826582 228.24188 
L 1036.599855 164.024648 
L 1047.910959 218.767206 
L 1059.261883 138.758851 
L 1069.571927 130.336919 
L 1079.890732 89.28 
L 1090.211129 216.661723 
L 1100.506042 218.767206 
L 1110.793787 249.29671 
L 1121.083125 201.923342 
L 1131.407504 218.767206 
L 1141.734272 218.767206 
L 1152.010868 207.18705 
L 1162.289057 158.76094 
L 1172.578395 216.661723 
L 1182.858973 250.349452 
L 1193.156274 141.917076 
L 1203.817526 216.661723 
L 1214.148276 194.554151 
L 1224.436021 175.604804 
L 1234.79146 237.716554 
L 1245.272727 232.452846 
" style="fill:none;stroke:#ff0000;stroke-dasharray:5.55,2.4;stroke-dashoffset:0;stroke-width:1.5;"/>
    <defs>
     <path d="M -3 3 
L 3 3 
L 3 -3 
L -3 -3 
z
" id="m15b7116d79" style="stroke:#ff0000;stroke-linejoin:miter;"/>
    </defs>
    <g clip-path="url(#pbb550588db)">
     <use style="fill:#ff0000;stroke:#ff0000;stroke-linejoin:miter;" x="230.727273" xlink:href="#m15b7116d79" y="154.549974"/>
     <use style="fill:#ff0000;stroke:#ff0000;stroke-linejoin:miter;" x="241.192613" xlink:href="#m15b7116d79" y="225.083655"/>
     <use style="fill:#ff0000;stroke:#ff0000;stroke-linejoin:miter;" x="251.542476" xlink:href="#m15b7116d79" y="145.0753"/>
     <use style="fill:#ff0000;stroke:#ff0000;stroke-linejoin:miter;" x="261.822258" xlink:href="#m15b7116d79" y="224.030914"/>
     <use style="fill:#ff0000;stroke:#ff0000;stroke-linejoin:miter;" x="272.050274" xlink:href="#m15b7116d79" y="275.615248"/>
     <use style="fill:#ff0000;stroke:#ff0000;stroke-linejoin:miter;" x="282.32448" xlink:href="#m15b7116d79" y="306.144752"/>
     <use style="fill:#ff0000;stroke:#ff0000;stroke-linejoin:miter;" x="292.734073" xlink:href="#m15b7116d79" y="278.773473"/>
     <use style="fill:#ff0000;stroke:#ff0000;stroke-linejoin:miter;" x="302.984388" xlink:href="#m15b7116d79" y="267.193316"/>
     <use style="fill:#ff0000;stroke:#ff0000;stroke-linejoin:miter;" x="313.271337" xlink:href="#m15b7116d79" y="328.252324"/>
     <use style="fill:#ff0000;stroke:#ff0000;stroke-linejoin:miter;" x="323.504928" xlink:href="#m15b7116d79" y="354.570862"/>
     <use style="fill:#ff0000;stroke:#ff0000;stroke-linejoin:miter;" x="333.749668" xlink:href="#m15b7116d79" y="359.834569"/>
     <use style="fill:#ff0000;stroke:#ff0000;stroke-linejoin:miter;" x="344.012725" xlink:href="#m15b7116d79" y="317.724909"/>
     <use style="fill:#ff0000;stroke:#ff0000;stroke-linejoin:miter;" x="354.282154" xlink:href="#m15b7116d79" y="409.31342"/>
     <use style="fill:#ff0000;stroke:#ff0000;stroke-linejoin:miter;" x="364.554767" xlink:href="#m15b7116d79" y="421.946319"/>
     <use style="fill:#ff0000;stroke:#ff0000;stroke-linejoin:miter;" x="374.780394" xlink:href="#m15b7116d79" y="426.157285"/>
     <use style="fill:#ff0000;stroke:#ff0000;stroke-linejoin:miter;" x="385.202729" xlink:href="#m15b7116d79" y="399.838747"/>
     <use style="fill:#ff0000;stroke:#ff0000;stroke-linejoin:miter;" x="395.564539" xlink:href="#m15b7116d79" y="408.260679"/>
     <use style="fill:#ff0000;stroke:#ff0000;stroke-linejoin:miter;" x="405.869008" xlink:href="#m15b7116d79" y="431.420992"/>
     <use style="fill:#ff0000;stroke:#ff0000;stroke-linejoin:miter;" x="416.258691" xlink:href="#m15b7116d79" y="90.332742"/>
     <use style="fill:#ff0000;stroke:#ff0000;stroke-linejoin:miter;" x="426.573514" xlink:href="#m15b7116d79" y="453.528564"/>
     <use style="fill:#ff0000;stroke:#ff0000;stroke-linejoin:miter;" x="436.889132" xlink:href="#m15b7116d79" y="89.28"/>
     <use style="fill:#ff0000;stroke:#ff0000;stroke-linejoin:miter;" x="447.161746" xlink:href="#m15b7116d79" y="461.950496"/>
     <use style="fill:#ff0000;stroke:#ff0000;stroke-linejoin:miter;" x="457.23367" xlink:href="#m15b7116d79" y="473.530653"/>
     <use style="fill:#ff0000;stroke:#ff0000;stroke-linejoin:miter;" x="467.167023" xlink:href="#m15b7116d79" y="481.952585"/>
     <use style="fill:#ff0000;stroke:#ff0000;stroke-linejoin:miter;" x="477.005605" xlink:href="#m15b7116d79" y="448.264856"/>
     <use style="fill:#ff0000;stroke:#ff0000;stroke-linejoin:miter;" x="486.841798" xlink:href="#m15b7116d79" y="485.110809"/>
     <use style="fill:#ff0000;stroke:#ff0000;stroke-linejoin:miter;" x="496.693122" xlink:href="#m15b7116d79" y="479.847102"/>
     <use style="fill:#ff0000;stroke:#ff0000;stroke-linejoin:miter;" x="506.531705" xlink:href="#m15b7116d79" y="481.952585"/>
     <use style="fill:#ff0000;stroke:#ff0000;stroke-linejoin:miter;" x="516.36949" xlink:href="#m15b7116d79" y="492.48"/>
     <use style="fill:#ff0000;stroke:#ff0000;stroke-linejoin:miter;" x="526.236743" xlink:href="#m15b7116d79" y="484.058068"/>
     <use style="fill:#ff0000;stroke:#ff0000;stroke-linejoin:miter;" x="536.0809" xlink:href="#m15b7116d79" y="450.370339"/>
     <use style="fill:#ff0000;stroke:#ff0000;stroke-linejoin:miter;" x="545.927446" xlink:href="#m15b7116d79" y="478.79436"/>
     <use style="fill:#ff0000;stroke:#ff0000;stroke-linejoin:miter;" x="555.758064" xlink:href="#m15b7116d79" y="473.530653"/>
     <use style="fill:#ff0000;stroke:#ff0000;stroke-linejoin:miter;" x="565.606999" xlink:href="#m15b7116d79" y="483.005326"/>
     <use style="fill:#ff0000;stroke:#ff0000;stroke-linejoin:miter;" x="575.456731" xlink:href="#m15b7116d79" y="457.73953"/>
     <use style="fill:#ff0000;stroke:#ff0000;stroke-linejoin:miter;" x="585.303277" xlink:href="#m15b7116d79" y="465.108721"/>
     <use style="fill:#ff0000;stroke:#ff0000;stroke-linejoin:miter;" x="595.154601" xlink:href="#m15b7116d79" y="440.895666"/>
     <use style="fill:#ff0000;stroke:#ff0000;stroke-linejoin:miter;" x="605.138923" xlink:href="#m15b7116d79" y="431.420992"/>
     <use style="fill:#ff0000;stroke:#ff0000;stroke-linejoin:miter;" x="615.206068" xlink:href="#m15b7116d79" y="436.6847"/>
     <use style="fill:#ff0000;stroke:#ff0000;stroke-linejoin:miter;" x="625.283567" xlink:href="#m15b7116d79" y="434.579217"/>
     <use style="fill:#ff0000;stroke:#ff0000;stroke-linejoin:miter;" x="636.164622" xlink:href="#m15b7116d79" y="428.262768"/>
     <use style="fill:#ff0000;stroke:#ff0000;stroke-linejoin:miter;" x="646.217432" xlink:href="#m15b7116d79" y="428.262768"/>
     <use style="fill:#ff0000;stroke:#ff0000;stroke-linejoin:miter;" x="656.254315" xlink:href="#m15b7116d79" y="418.788094"/>
     <use style="fill:#ff0000;stroke:#ff0000;stroke-linejoin:miter;" x="666.19165" xlink:href="#m15b7116d79" y="389.311332"/>
     <use style="fill:#ff0000;stroke:#ff0000;stroke-linejoin:miter;" x="676.1035" xlink:href="#m15b7116d79" y="400.891488"/>
     <use style="fill:#ff0000;stroke:#ff0000;stroke-linejoin:miter;" x="685.932525" xlink:href="#m15b7116d79" y="376.678433"/>
     <use style="fill:#ff0000;stroke:#ff0000;stroke-linejoin:miter;" x="695.76394" xlink:href="#m15b7116d79" y="344.043446"/>
     <use style="fill:#ff0000;stroke:#ff0000;stroke-linejoin:miter;" x="705.600133" xlink:href="#m15b7116d79" y="350.359896"/>
     <use style="fill:#ff0000;stroke:#ff0000;stroke-linejoin:miter;" x="715.441901" xlink:href="#m15b7116d79" y="359.834569"/>
     <use style="fill:#ff0000;stroke:#ff0000;stroke-linejoin:miter;" x="725.279686" xlink:href="#m15b7116d79" y="325.094099"/>
     <use style="fill:#ff0000;stroke:#ff0000;stroke-linejoin:miter;" x="735.110305" xlink:href="#m15b7116d79" y="322.988616"/>
     <use style="fill:#ff0000;stroke:#ff0000;stroke-linejoin:miter;" x="744.971982" xlink:href="#m15b7116d79" y="311.40846"/>
     <use style="fill:#ff0000;stroke:#ff0000;stroke-linejoin:miter;" x="754.807379" xlink:href="#m15b7116d79" y="314.566684"/>
     <use style="fill:#ff0000;stroke:#ff0000;stroke-linejoin:miter;" x="764.653925" xlink:href="#m15b7116d79" y="249.29671"/>
     <use style="fill:#ff0000;stroke:#ff0000;stroke-linejoin:miter;" x="774.508435" xlink:href="#m15b7116d79" y="205.081567"/>
     <use style="fill:#ff0000;stroke:#ff0000;stroke-linejoin:miter;" x="784.468068" xlink:href="#m15b7116d79" y="148.233525"/>
     <use style="fill:#ff0000;stroke:#ff0000;stroke-linejoin:miter;" x="794.547956" xlink:href="#m15b7116d79" y="216.661723"/>
     <use style="fill:#ff0000;stroke:#ff0000;stroke-linejoin:miter;" x="806.57581" xlink:href="#m15b7116d79" y="241.92752"/>
     <use style="fill:#ff0000;stroke:#ff0000;stroke-linejoin:miter;" x="817.007701" xlink:href="#m15b7116d79" y="229.294621"/>
     <use style="fill:#ff0000;stroke:#ff0000;stroke-linejoin:miter;" x="827.340044" xlink:href="#m15b7116d79" y="225.083655"/>
     <use style="fill:#ff0000;stroke:#ff0000;stroke-linejoin:miter;" x="837.650089" xlink:href="#m15b7116d79" y="239.822037"/>
     <use style="fill:#ff0000;stroke:#ff0000;stroke-linejoin:miter;" x="848.017473" xlink:href="#m15b7116d79" y="250.349452"/>
     <use style="fill:#ff0000;stroke:#ff0000;stroke-linejoin:miter;" x="858.344241" xlink:href="#m15b7116d79" y="249.29671"/>
     <use style="fill:#ff0000;stroke:#ff0000;stroke-linejoin:miter;" x="868.678177" xlink:href="#m15b7116d79" y="257.718642"/>
     <use style="fill:#ff0000;stroke:#ff0000;stroke-linejoin:miter;" x="878.973886" xlink:href="#m15b7116d79" y="93.490966"/>
     <use style="fill:#ff0000;stroke:#ff0000;stroke-linejoin:miter;" x="889.298265" xlink:href="#m15b7116d79" y="249.29671"/>
     <use style="fill:#ff0000;stroke:#ff0000;stroke-linejoin:miter;" x="899.605124" xlink:href="#m15b7116d79" y="232.452846"/>
     <use style="fill:#ff0000;stroke:#ff0000;stroke-linejoin:miter;" x="910.093559" xlink:href="#m15b7116d79" y="216.661723"/>
     <use style="fill:#ff0000;stroke:#ff0000;stroke-linejoin:miter;" x="920.51669" xlink:href="#m15b7116d79" y="234.558329"/>
     <use style="fill:#ff0000;stroke:#ff0000;stroke-linejoin:miter;" x="930.916726" xlink:href="#m15b7116d79" y="162.971906"/>
     <use style="fill:#ff0000;stroke:#ff0000;stroke-linejoin:miter;" x="941.337468" xlink:href="#m15b7116d79" y="233.505587"/>
     <use style="fill:#ff0000;stroke:#ff0000;stroke-linejoin:miter;" x="951.730337" xlink:href="#m15b7116d79" y="233.505587"/>
     <use style="fill:#ff0000;stroke:#ff0000;stroke-linejoin:miter;" x="961.998969" xlink:href="#m15b7116d79" y="247.191227"/>
     <use style="fill:#ff0000;stroke:#ff0000;stroke-linejoin:miter;" x="972.309809" xlink:href="#m15b7116d79" y="242.980261"/>
     <use style="fill:#ff0000;stroke:#ff0000;stroke-linejoin:miter;" x="982.642152" xlink:href="#m15b7116d79" y="232.452846"/>
     <use style="fill:#ff0000;stroke:#ff0000;stroke-linejoin:miter;" x="992.93149" xlink:href="#m15b7116d79" y="246.138486"/>
     <use style="fill:#ff0000;stroke:#ff0000;stroke-linejoin:miter;" x="1003.175434" xlink:href="#m15b7116d79" y="237.716554"/>
     <use style="fill:#ff0000;stroke:#ff0000;stroke-linejoin:miter;" x="1013.465569" xlink:href="#m15b7116d79" y="207.18705"/>
     <use style="fill:#ff0000;stroke:#ff0000;stroke-linejoin:miter;" x="1023.826582" xlink:href="#m15b7116d79" y="228.24188"/>
     <use style="fill:#ff0000;stroke:#ff0000;stroke-linejoin:miter;" x="1036.599855" xlink:href="#m15b7116d79" y="164.024648"/>
     <use style="fill:#ff0000;stroke:#ff0000;stroke-linejoin:miter;" x="1047.910959" xlink:href="#m15b7116d79" y="218.767206"/>
     <use style="fill:#ff0000;stroke:#ff0000;stroke-linejoin:miter;" x="1059.261883" xlink:href="#m15b7116d79" y="138.758851"/>
     <use style="fill:#ff0000;stroke:#ff0000;stroke-linejoin:miter;" x="1069.571927" xlink:href="#m15b7116d79" y="130.336919"/>
     <use style="fill:#ff0000;stroke:#ff0000;stroke-linejoin:miter;" x="1079.890732" xlink:href="#m15b7116d79" y="89.28"/>
     <use style="fill:#ff0000;stroke:#ff0000;stroke-linejoin:miter;" x="1090.211129" xlink:href="#m15b7116d79" y="216.661723"/>
     <use style="fill:#ff0000;stroke:#ff0000;stroke-linejoin:miter;" x="1100.506042" xlink:href="#m15b7116d79" y="218.767206"/>
     <use style="fill:#ff0000;stroke:#ff0000;stroke-linejoin:miter;" x="1110.793787" xlink:href="#m15b7116d79" y="249.29671"/>
     <use style="fill:#ff0000;stroke:#ff0000;stroke-linejoin:miter;" x="1121.083125" xlink:href="#m15b7116d79" y="201.923342"/>
     <use style="fill:#ff0000;stroke:#ff0000;stroke-linejoin:miter;" x="1131.407504" xlink:href="#m15b7116d79" y="218.767206"/>
     <use style="fill:#ff0000;stroke:#ff0000;stroke-linejoin:miter;" x="1141.734272" xlink:href="#m15b7116d79" y="218.767206"/>
     <use style="fill:#ff0000;stroke:#ff0000;stroke-linejoin:miter;" x="1152.010868" xlink:href="#m15b7116d79" y="207.18705"/>
     <use style="fill:#ff0000;stroke:#ff0000;stroke-linejoin:miter;" x="1162.289057" xlink:href="#m15b7116d79" y="158.76094"/>
     <use style="fill:#ff0000;stroke:#ff0000;stroke-linejoin:miter;" x="1172.578395" xlink:href="#m15b7116d79" y="216.661723"/>
     <use style="fill:#ff0000;stroke:#ff0000;stroke-linejoin:miter;" x="1182.858973" xlink:href="#m15b7116d79" y="250.349452"/>
     <use style="fill:#ff0000;stroke:#ff0000;stroke-linejoin:miter;" x="1193.156274" xlink:href="#m15b7116d79" y="141.917076"/>
     <use style="fill:#ff0000;stroke:#ff0000;stroke-linejoin:miter;" x="1203.817526" xlink:href="#m15b7116d79" y="216.661723"/>
     <use style="fill:#ff0000;stroke:#ff0000;stroke-linejoin:miter;" x="1214.148276" xlink:href="#m15b7116d79" y="194.554151"/>
     <use style="fill:#ff0000;stroke:#ff0000;stroke-linejoin:miter;" x="1224.436021" xlink:href="#m15b7116d79" y="175.604804"/>
     <use style="fill:#ff0000;stroke:#ff0000;stroke-linejoin:miter;" x="1234.79146" xlink:href="#m15b7116d79" y="237.716554"/>
     <use style="fill:#ff0000;stroke:#ff0000;stroke-linejoin:miter;" x="1245.272727" xlink:href="#m15b7116d79" y="232.452846"/>
    </g>
   </g>
   <g id="line2d_17">
    <path clip-path="url(#pbb550588db)" d="M 230.727273 154.549974 
L 241.192613 225.083655 
L 251.542476 145.0753 
L 261.822258 224.030914 
L 272.050274 275.615248 
L 282.32448 306.144752 
L 292.734073 278.773473 
L 302.984388 267.193316 
L 313.271337 328.252324 
L 323.504928 354.570862 
L 333.749668 359.834569 
L 344.012725 317.724909 
L 354.282154 409.31342 
L 364.554767 421.946319 
L 374.780394 426.157285 
L 385.202729 399.838747 
L 395.564539 408.260679 
L 405.869008 431.420992 
L 416.258691 90.332742 
L 426.573514 453.528564 
L 436.889132 89.28 
L 447.161746 461.950496 
L 457.23367 473.530653 
L 467.167023 481.952585 
L 477.005605 448.264856 
L 486.841798 485.110809 
L 496.693122 479.847102 
L 506.531705 481.952585 
L 516.36949 492.48 
L 526.236743 484.058068 
L 536.0809 450.370339 
L 545.927446 478.79436 
L 555.758064 473.530653 
L 565.606999 483.005326 
L 575.456731 457.73953 
L 585.303277 465.108721 
L 595.154601 440.895666 
L 605.138923 431.420992 
L 615.206068 436.6847 
L 625.283567 434.579217 
L 636.164622 428.262768 
L 646.217432 428.262768 
L 656.254315 418.788094 
L 666.19165 389.311332 
L 676.1035 400.891488 
L 685.932525 376.678433 
L 695.76394 344.043446 
L 705.600133 350.359896 
L 715.441901 359.834569 
L 725.279686 325.094099 
L 735.110305 322.988616 
L 744.971982 311.40846 
L 754.807379 314.566684 
L 764.653925 249.29671 
L 774.508435 205.081567 
L 784.468068 148.233525 
L 794.547956 216.661723 
L 806.57581 241.92752 
L 817.007701 229.294621 
L 827.340044 225.083655 
L 837.650089 239.822037 
L 848.017473 250.349452 
L 858.344241 249.29671 
L 868.678177 257.718642 
L 878.973886 93.490966 
L 889.298265 249.29671 
L 899.605124 232.452846 
L 910.093559 216.661723 
L 920.51669 234.558329 
L 930.916726 162.971906 
L 941.337468 233.505587 
L 951.730337 233.505587 
L 961.998969 247.191227 
L 972.309809 242.980261 
L 982.642152 232.452846 
L 992.93149 246.138486 
L 1003.175434 237.716554 
L 1013.465569 207.18705 
L 1023.826582 228.24188 
L 1036.599855 164.024648 
L 1047.910959 218.767206 
L 1059.261883 138.758851 
L 1069.571927 130.336919 
L 1079.890732 89.28 
L 1090.211129 216.661723 
L 1100.506042 218.767206 
L 1110.793787 249.29671 
L 1121.083125 201.923342 
L 1131.407504 218.767206 
L 1141.734272 218.767206 
L 1152.010868 207.18705 
L 1162.289057 158.76094 
L 1172.578395 216.661723 
L 1182.858973 250.349452 
L 1193.156274 141.917076 
L 1203.817526 216.661723 
L 1214.148276 194.554151 
L 1224.436021 175.604804 
L 1234.79146 237.716554 
L 1245.272727 232.452846 
" style="fill:none;stroke:#800080;stroke-dasharray:9.6,2.4,1.5,2.4;stroke-dashoffset:0;stroke-width:1.5;"/>
    <defs>
     <path d="M -3 3 
L 3 -3 
M -3 -3 
L 3 3 
" id="m0bb3f94717" style="stroke:#800080;"/>
    </defs>
    <g clip-path="url(#pbb550588db)">
     <use style="fill:#800080;stroke:#800080;" x="230.727273" xlink:href="#m0bb3f94717" y="154.549974"/>
     <use style="fill:#800080;stroke:#800080;" x="241.192613" xlink:href="#m0bb3f94717" y="225.083655"/>
     <use style="fill:#800080;stroke:#800080;" x="251.542476" xlink:href="#m0bb3f94717" y="145.0753"/>
     <use style="fill:#800080;stroke:#800080;" x="261.822258" xlink:href="#m0bb3f94717" y="224.030914"/>
     <use style="fill:#800080;stroke:#800080;" x="272.050274" xlink:href="#m0bb3f94717" y="275.615248"/>
     <use style="fill:#800080;stroke:#800080;" x="282.32448" xlink:href="#m0bb3f94717" y="306.144752"/>
     <use style="fill:#800080;stroke:#800080;" x="292.734073" xlink:href="#m0bb3f94717" y="278.773473"/>
     <use style="fill:#800080;stroke:#800080;" x="302.984388" xlink:href="#m0bb3f94717" y="267.193316"/>
     <use style="fill:#800080;stroke:#800080;" x="313.271337" xlink:href="#m0bb3f94717" y="328.252324"/>
     <use style="fill:#800080;stroke:#800080;" x="323.504928" xlink:href="#m0bb3f94717" y="354.570862"/>
     <use style="fill:#800080;stroke:#800080;" x="333.749668" xlink:href="#m0bb3f94717" y="359.834569"/>
     <use style="fill:#800080;stroke:#800080;" x="344.012725" xlink:href="#m0bb3f94717" y="317.724909"/>
     <use style="fill:#800080;stroke:#800080;" x="354.282154" xlink:href="#m0bb3f94717" y="409.31342"/>
     <use style="fill:#800080;stroke:#800080;" x="364.554767" xlink:href="#m0bb3f94717" y="421.946319"/>
     <use style="fill:#800080;stroke:#800080;" x="374.780394" xlink:href="#m0bb3f94717" y="426.157285"/>
     <use style="fill:#800080;stroke:#800080;" x="385.202729" xlink:href="#m0bb3f94717" y="399.838747"/>
     <use style="fill:#800080;stroke:#800080;" x="395.564539" xlink:href="#m0bb3f94717" y="408.260679"/>
     <use style="fill:#800080;stroke:#800080;" x="405.869008" xlink:href="#m0bb3f94717" y="431.420992"/>
     <use style="fill:#800080;stroke:#800080;" x="416.258691" xlink:href="#m0bb3f94717" y="90.332742"/>
     <use style="fill:#800080;stroke:#800080;" x="426.573514" xlink:href="#m0bb3f94717" y="453.528564"/>
     <use style="fill:#800080;stroke:#800080;" x="436.889132" xlink:href="#m0bb3f94717" y="89.28"/>
     <use style="fill:#800080;stroke:#800080;" x="447.161746" xlink:href="#m0bb3f94717" y="461.950496"/>
     <use style="fill:#800080;stroke:#800080;" x="457.23367" xlink:href="#m0bb3f94717" y="473.530653"/>
     <use style="fill:#800080;stroke:#800080;" x="467.167023" xlink:href="#m0bb3f94717" y="481.952585"/>
     <use style="fill:#800080;stroke:#800080;" x="477.005605" xlink:href="#m0bb3f94717" y="448.264856"/>
     <use style="fill:#800080;stroke:#800080;" x="486.841798" xlink:href="#m0bb3f94717" y="485.110809"/>
     <use style="fill:#800080;stroke:#800080;" x="496.693122" xlink:href="#m0bb3f94717" y="479.847102"/>
     <use style="fill:#800080;stroke:#800080;" x="506.531705" xlink:href="#m0bb3f94717" y="481.952585"/>
     <use style="fill:#800080;stroke:#800080;" x="516.36949" xlink:href="#m0bb3f94717" y="492.48"/>
     <use style="fill:#800080;stroke:#800080;" x="526.236743" xlink:href="#m0bb3f94717" y="484.058068"/>
     <use style="fill:#800080;stroke:#800080;" x="536.0809" xlink:href="#m0bb3f94717" y="450.370339"/>
     <use style="fill:#800080;stroke:#800080;" x="545.927446" xlink:href="#m0bb3f94717" y="478.79436"/>
     <use style="fill:#800080;stroke:#800080;" x="555.758064" xlink:href="#m0bb3f94717" y="473.530653"/>
     <use style="fill:#800080;stroke:#800080;" x="565.606999" xlink:href="#m0bb3f94717" y="483.005326"/>
     <use style="fill:#800080;stroke:#800080;" x="575.456731" xlink:href="#m0bb3f94717" y="457.73953"/>
     <use style="fill:#800080;stroke:#800080;" x="585.303277" xlink:href="#m0bb3f94717" y="465.108721"/>
     <use style="fill:#800080;stroke:#800080;" x="595.154601" xlink:href="#m0bb3f94717" y="440.895666"/>
     <use style="fill:#800080;stroke:#800080;" x="605.138923" xlink:href="#m0bb3f94717" y="431.420992"/>
     <use style="fill:#800080;stroke:#800080;" x="615.206068" xlink:href="#m0bb3f94717" y="436.6847"/>
     <use style="fill:#800080;stroke:#800080;" x="625.283567" xlink:href="#m0bb3f94717" y="434.579217"/>
     <use style="fill:#800080;stroke:#800080;" x="636.164622" xlink:href="#m0bb3f94717" y="428.262768"/>
     <use style="fill:#800080;stroke:#800080;" x="646.217432" xlink:href="#m0bb3f94717" y="428.262768"/>
     <use style="fill:#800080;stroke:#800080;" x="656.254315" xlink:href="#m0bb3f94717" y="418.788094"/>
     <use style="fill:#800080;stroke:#800080;" x="666.19165" xlink:href="#m0bb3f94717" y="389.311332"/>
     <use style="fill:#800080;stroke:#800080;" x="676.1035" xlink:href="#m0bb3f94717" y="400.891488"/>
     <use style="fill:#800080;stroke:#800080;" x="685.932525" xlink:href="#m0bb3f94717" y="376.678433"/>
     <use style="fill:#800080;stroke:#800080;" x="695.76394" xlink:href="#m0bb3f94717" y="344.043446"/>
     <use style="fill:#800080;stroke:#800080;" x="705.600133" xlink:href="#m0bb3f94717" y="350.359896"/>
     <use style="fill:#800080;stroke:#800080;" x="715.441901" xlink:href="#m0bb3f94717" y="359.834569"/>
     <use style="fill:#800080;stroke:#800080;" x="725.279686" xlink:href="#m0bb3f94717" y="325.094099"/>
     <use style="fill:#800080;stroke:#800080;" x="735.110305" xlink:href="#m0bb3f94717" y="322.988616"/>
     <use style="fill:#800080;stroke:#800080;" x="744.971982" xlink:href="#m0bb3f94717" y="311.40846"/>
     <use style="fill:#800080;stroke:#800080;" x="754.807379" xlink:href="#m0bb3f94717" y="314.566684"/>
     <use style="fill:#800080;stroke:#800080;" x="764.653925" xlink:href="#m0bb3f94717" y="249.29671"/>
     <use style="fill:#800080;stroke:#800080;" x="774.508435" xlink:href="#m0bb3f94717" y="205.081567"/>
     <use style="fill:#800080;stroke:#800080;" x="784.468068" xlink:href="#m0bb3f94717" y="148.233525"/>
     <use style="fill:#800080;stroke:#800080;" x="794.547956" xlink:href="#m0bb3f94717" y="216.661723"/>
     <use style="fill:#800080;stroke:#800080;" x="806.57581" xlink:href="#m0bb3f94717" y="241.92752"/>
     <use style="fill:#800080;stroke:#800080;" x="817.007701" xlink:href="#m0bb3f94717" y="229.294621"/>
     <use style="fill:#800080;stroke:#800080;" x="827.340044" xlink:href="#m0bb3f94717" y="225.083655"/>
     <use style="fill:#800080;stroke:#800080;" x="837.650089" xlink:href="#m0bb3f94717" y="239.822037"/>
     <use style="fill:#800080;stroke:#800080;" x="848.017473" xlink:href="#m0bb3f94717" y="250.349452"/>
     <use style="fill:#800080;stroke:#800080;" x="858.344241" xlink:href="#m0bb3f94717" y="249.29671"/>
     <use style="fill:#800080;stroke:#800080;" x="868.678177" xlink:href="#m0bb3f94717" y="257.718642"/>
     <use style="fill:#800080;stroke:#800080;" x="878.973886" xlink:href="#m0bb3f94717" y="93.490966"/>
     <use style="fill:#800080;stroke:#800080;" x="889.298265" xlink:href="#m0bb3f94717" y="249.29671"/>
     <use style="fill:#800080;stroke:#800080;" x="899.605124" xlink:href="#m0bb3f94717" y="232.452846"/>
     <use style="fill:#800080;stroke:#800080;" x="910.093559" xlink:href="#m0bb3f94717" y="216.661723"/>
     <use style="fill:#800080;stroke:#800080;" x="920.51669" xlink:href="#m0bb3f94717" y="234.558329"/>
     <use style="fill:#800080;stroke:#800080;" x="930.916726" xlink:href="#m0bb3f94717" y="162.971906"/>
     <use style="fill:#800080;stroke:#800080;" x="941.337468" xlink:href="#m0bb3f94717" y="233.505587"/>
     <use style="fill:#800080;stroke:#800080;" x="951.730337" xlink:href="#m0bb3f94717" y="233.505587"/>
     <use style="fill:#800080;stroke:#800080;" x="961.998969" xlink:href="#m0bb3f94717" y="247.191227"/>
     <use style="fill:#800080;stroke:#800080;" x="972.309809" xlink:href="#m0bb3f94717" y="242.980261"/>
     <use style="fill:#800080;stroke:#800080;" x="982.642152" xlink:href="#m0bb3f94717" y="232.452846"/>
     <use style="fill:#800080;stroke:#800080;" x="992.93149" xlink:href="#m0bb3f94717" y="246.138486"/>
     <use style="fill:#800080;stroke:#800080;" x="1003.175434" xlink:href="#m0bb3f94717" y="237.716554"/>
     <use style="fill:#800080;stroke:#800080;" x="1013.465569" xlink:href="#m0bb3f94717" y="207.18705"/>
     <use style="fill:#800080;stroke:#800080;" x="1023.826582" xlink:href="#m0bb3f94717" y="228.24188"/>
     <use style="fill:#800080;stroke:#800080;" x="1036.599855" xlink:href="#m0bb3f94717" y="164.024648"/>
     <use style="fill:#800080;stroke:#800080;" x="1047.910959" xlink:href="#m0bb3f94717" y="218.767206"/>
     <use style="fill:#800080;stroke:#800080;" x="1059.261883" xlink:href="#m0bb3f94717" y="138.758851"/>
     <use style="fill:#800080;stroke:#800080;" x="1069.571927" xlink:href="#m0bb3f94717" y="130.336919"/>
     <use style="fill:#800080;stroke:#800080;" x="1079.890732" xlink:href="#m0bb3f94717" y="89.28"/>
     <use style="fill:#800080;stroke:#800080;" x="1090.211129" xlink:href="#m0bb3f94717" y="216.661723"/>
     <use style="fill:#800080;stroke:#800080;" x="1100.506042" xlink:href="#m0bb3f94717" y="218.767206"/>
     <use style="fill:#800080;stroke:#800080;" x="1110.793787" xlink:href="#m0bb3f94717" y="249.29671"/>
     <use style="fill:#800080;stroke:#800080;" x="1121.083125" xlink:href="#m0bb3f94717" y="201.923342"/>
     <use style="fill:#800080;stroke:#800080;" x="1131.407504" xlink:href="#m0bb3f94717" y="218.767206"/>
     <use style="fill:#800080;stroke:#800080;" x="1141.734272" xlink:href="#m0bb3f94717" y="218.767206"/>
     <use style="fill:#800080;stroke:#800080;" x="1152.010868" xlink:href="#m0bb3f94717" y="207.18705"/>
     <use style="fill:#800080;stroke:#800080;" x="1162.289057" xlink:href="#m0bb3f94717" y="158.76094"/>
     <use style="fill:#800080;stroke:#800080;" x="1172.578395" xlink:href="#m0bb3f94717" y="216.661723"/>
     <use style="fill:#800080;stroke:#800080;" x="1182.858973" xlink:href="#m0bb3f94717" y="250.349452"/>
     <use style="fill:#800080;stroke:#800080;" x="1193.156274" xlink:href="#m0bb3f94717" y="141.917076"/>
     <use style="fill:#800080;stroke:#800080;" x="1203.817526" xlink:href="#m0bb3f94717" y="216.661723"/>
     <use style="fill:#800080;stroke:#800080;" x="1214.148276" xlink:href="#m0bb3f94717" y="194.554151"/>
     <use style="fill:#800080;stroke:#800080;" x="1224.436021" xlink:href="#m0bb3f94717" y="175.604804"/>
     <use style="fill:#800080;stroke:#800080;" x="1234.79146" xlink:href="#m0bb3f94717" y="237.716554"/>
     <use style="fill:#800080;stroke:#800080;" x="1245.272727" xlink:href="#m0bb3f94717" y="232.452846"/>
    </g>
   </g>
   <g id="line2d_18">
    <path clip-path="url(#pbb550588db)" d="M 230.727273 406.319916 
L 241.192613 404.088599 
L 251.542476 401.881903 
L 261.822258 399.69015 
L 272.050274 397.509433 
L 282.32448 395.318868 
L 292.734073 393.099437 
L 302.984388 390.913966 
L 313.271337 388.720684 
L 323.504928 386.538779 
L 333.749668 384.354496 
L 344.012725 382.166309 
L 354.282154 379.976762 
L 364.554767 377.786537 
L 374.780394 375.60633 
L 385.202729 373.384182 
L 395.564539 371.174939 
L 405.869008 368.977922 
L 416.258691 366.762736 
L 426.573514 364.563511 
L 436.889132 362.364117 
L 447.161746 360.173891 
L 457.23367 358.026455 
L 467.167023 355.908564 
L 477.005605 353.810878 
L 486.841798 351.713702 
L 496.693122 349.6133 
L 506.531705 347.515614 
L 516.36949 345.418099 
L 526.236743 343.3143 
L 536.0809 341.215426 
L 545.927446 339.116043 
L 555.758064 337.020055 
L 565.606999 334.920162 
L 575.456731 332.8201 
L 585.303277 330.720716 
L 595.154601 328.620314 
L 605.138923 326.491555 
L 615.206068 324.345138 
L 625.283567 322.196513 
L 636.164622 319.876562 
L 646.217432 317.733201 
L 656.254315 315.593235 
L 666.19165 313.474495 
L 676.1035 311.361188 
L 685.932525 309.26554 
L 695.76394 307.169383 
L 705.600133 305.072207 
L 715.441901 302.973842 
L 725.279686 300.876326 
L 735.110305 298.780339 
L 744.971982 296.677729 
L 754.807379 294.580723 
L 764.653925 292.481339 
L 774.508435 290.380258 
L 784.468068 288.256763 
L 794.547956 286.107629 
L 806.57581 283.543169 
L 817.007701 281.318983 
L 827.340044 279.116023 
L 837.650089 276.917817 
L 848.017473 274.707386 
L 858.344241 272.505614 
L 868.678177 270.302314 
L 878.973886 268.107165 
L 889.298265 265.905902 
L 899.605124 263.708375 
L 910.093559 261.472135 
L 920.51669 259.249817 
L 930.916726 257.032424 
L 941.337468 254.810616 
L 951.730337 252.594752 
L 961.998969 250.405375 
L 972.309809 248.206999 
L 982.642152 246.004039 
L 992.93149 243.810248 
L 1003.175434 241.626135 
L 1013.465569 239.432174 
L 1023.826582 237.223101 
L 1036.599855 234.49971 
L 1047.910959 232.088067 
L 1059.261883 229.667935 
L 1069.571927 227.469729 
L 1079.890732 225.269656 
L 1090.211129 223.069242 
L 1100.506042 220.874263 
L 1110.793787 218.680811 
L 1121.083125 216.48702 
L 1131.407504 214.285757 
L 1141.734272 212.083986 
L 1152.010868 209.892911 
L 1162.289057 207.701497 
L 1172.578395 205.507706 
L 1182.858973 203.315783 
L 1193.156274 201.120293 
L 1203.817526 198.847207 
L 1214.148276 196.644586 
L 1224.436021 194.451134 
L 1234.79146 192.24325 
L 1245.272727 190.008537 
" style="fill:none;stroke:#0000ff;stroke-linecap:square;stroke-width:1.5;"/>
   </g>
   <g id="line2d_19">
    <path clip-path="url(#pbb550588db)" d="M 230.727273 409.562867 
L 241.192613 407.272708 
L 251.542476 405.007818 
L 261.822258 402.758265 
L 272.050274 400.52004 
L 282.32448 398.271707 
L 292.734073 395.993747 
L 302.984388 393.750643 
L 313.271337 391.499521 
L 323.504928 389.260076 
L 333.749668 387.018191 
L 344.012725 384.772298 
L 354.282154 382.525011 
L 364.554767 380.277026 
L 374.780394 378.039324 
L 385.202729 375.758576 
L 395.564539 373.491072 
L 405.869008 371.236117 
L 416.258691 368.962514 
L 426.573514 366.705293 
L 436.889132 364.447897 
L 447.161746 362.199913 
L 457.23367 359.995846 
L 467.167023 357.822103 
L 477.005605 355.669099 
L 486.841798 353.516617 
L 496.693122 351.360825 
L 506.531705 349.207821 
L 516.36949 347.054991 
L 526.236743 344.895713 
L 536.0809 342.741489 
L 545.927446 340.586742 
L 555.758064 338.435481 
L 565.606999 336.280211 
L 575.456731 334.124767 
L 585.303277 331.97002 
L 595.154601 329.814227 
L 605.138923 327.629331 
L 615.206068 325.426309 
L 625.283567 323.221023 
L 636.164622 320.839891 
L 646.217432 318.640007 
L 656.254315 316.443608 
L 666.19165 314.268994 
L 676.1035 312.099956 
L 685.932525 309.949043 
L 695.76394 307.797608 
L 705.600133 305.645126 
L 715.441901 303.491425 
L 725.279686 301.338595 
L 735.110305 299.187334 
L 744.971982 297.029276 
L 754.807379 294.876969 
L 764.653925 292.722222 
L 774.508435 290.565732 
L 784.468068 288.386238 
L 794.547956 286.180429 
L 806.57581 283.54834 
L 817.007701 281.2655 
L 827.340044 279.004445 
L 837.650089 276.74827 
L 848.017473 274.479546 
L 858.344241 272.219711 
L 868.678177 269.958307 
L 878.973886 267.705269 
L 889.298265 265.445957 
L 899.605124 263.190478 
L 910.093559 260.895265 
L 920.51669 258.614342 
L 930.916726 256.338474 
L 941.337468 254.058074 
L 951.730337 251.783774 
L 961.998969 249.536661 
L 972.309809 247.280311 
L 982.642152 245.019256 
L 992.93149 242.767611 
L 1003.175434 240.525901 
L 1013.465569 238.274082 
L 1023.826582 236.006753 
L 1036.599855 233.211542 
L 1047.910959 230.736302 
L 1059.261883 228.252348 
L 1069.571927 225.996173 
L 1079.890732 223.73808 
L 1090.211129 221.479639 
L 1100.506042 219.226775 
L 1110.793787 216.975479 
L 1121.083125 214.723835 
L 1131.407504 212.464523 
L 1141.734272 210.204687 
L 1152.010868 207.955832 
L 1162.289057 205.706627 
L 1172.578395 203.454983 
L 1182.858973 201.205256 
L 1193.156274 198.951869 
L 1203.817526 196.618837 
L 1214.148276 194.358131 
L 1224.436021 192.106835 
L 1234.79146 189.840726 
L 1245.272727 187.547081 
" style="fill:none;stroke:#008000;stroke-linecap:square;stroke-width:1.5;"/>
    <defs>
     <path d="M 0 3 
C 0.795609 3 1.55874 2.683901 2.12132 2.12132 
C 2.683901 1.55874 3 0.795609 3 0 
C 3 -0.795609 2.683901 -1.55874 2.12132 -2.12132 
C 1.55874 -2.683901 0.795609 -3 0 -3 
C -0.795609 -3 -1.55874 -2.683901 -2.12132 -2.12132 
C -2.683901 -1.55874 -3 -0.795609 -3 0 
C -3 0.795609 -2.683901 1.55874 -2.12132 2.12132 
C -1.55874 2.683901 -0.795609 3 0 3 
z
" id="mbbeca624c9" style="stroke:#008000;"/>
    </defs>
    <g clip-path="url(#pbb550588db)">
     <use style="fill:#008000;stroke:#008000;" x="230.727273" xlink:href="#mbbeca624c9" y="409.562867"/>
     <use style="fill:#008000;stroke:#008000;" x="241.192613" xlink:href="#mbbeca624c9" y="407.272708"/>
     <use style="fill:#008000;stroke:#008000;" x="251.542476" xlink:href="#mbbeca624c9" y="405.007818"/>
     <use style="fill:#008000;stroke:#008000;" x="261.822258" xlink:href="#mbbeca624c9" y="402.758265"/>
     <use style="fill:#008000;stroke:#008000;" x="272.050274" xlink:href="#mbbeca624c9" y="400.52004"/>
     <use style="fill:#008000;stroke:#008000;" x="282.32448" xlink:href="#mbbeca624c9" y="398.271707"/>
     <use style="fill:#008000;stroke:#008000;" x="292.734073" xlink:href="#mbbeca624c9" y="395.993747"/>
     <use style="fill:#008000;stroke:#008000;" x="302.984388" xlink:href="#mbbeca624c9" y="393.750643"/>
     <use style="fill:#008000;stroke:#008000;" x="313.271337" xlink:href="#mbbeca624c9" y="391.499521"/>
     <use style="fill:#008000;stroke:#008000;" x="323.504928" xlink:href="#mbbeca624c9" y="389.260076"/>
     <use style="fill:#008000;stroke:#008000;" x="333.749668" xlink:href="#mbbeca624c9" y="387.018191"/>
     <use style="fill:#008000;stroke:#008000;" x="344.012725" xlink:href="#mbbeca624c9" y="384.772298"/>
     <use style="fill:#008000;stroke:#008000;" x="354.282154" xlink:href="#mbbeca624c9" y="382.525011"/>
     <use style="fill:#008000;stroke:#008000;" x="364.554767" xlink:href="#mbbeca624c9" y="380.277026"/>
     <use style="fill:#008000;stroke:#008000;" x="374.780394" xlink:href="#mbbeca624c9" y="378.039324"/>
     <use style="fill:#008000;stroke:#008000;" x="385.202729" xlink:href="#mbbeca624c9" y="375.758576"/>
     <use style="fill:#008000;stroke:#008000;" x="395.564539" xlink:href="#mbbeca624c9" y="373.491072"/>
     <use style="fill:#008000;stroke:#008000;" x="405.869008" xlink:href="#mbbeca624c9" y="371.236117"/>
     <use style="fill:#008000;stroke:#008000;" x="416.258691" xlink:href="#mbbeca624c9" y="368.962514"/>
     <use style="fill:#008000;stroke:#008000;" x="426.573514" xlink:href="#mbbeca624c9" y="366.705293"/>
     <use style="fill:#008000;stroke:#008000;" x="436.889132" xlink:href="#mbbeca624c9" y="364.447897"/>
     <use style="fill:#008000;stroke:#008000;" x="447.161746" xlink:href="#mbbeca624c9" y="362.199913"/>
     <use style="fill:#008000;stroke:#008000;" x="457.23367" xlink:href="#mbbeca624c9" y="359.995846"/>
     <use style="fill:#008000;stroke:#008000;" x="467.167023" xlink:href="#mbbeca624c9" y="357.822103"/>
     <use style="fill:#008000;stroke:#008000;" x="477.005605" xlink:href="#mbbeca624c9" y="355.669099"/>
     <use style="fill:#008000;stroke:#008000;" x="486.841798" xlink:href="#mbbeca624c9" y="353.516617"/>
     <use style="fill:#008000;stroke:#008000;" x="496.693122" xlink:href="#mbbeca624c9" y="351.360825"/>
     <use style="fill:#008000;stroke:#008000;" x="506.531705" xlink:href="#mbbeca624c9" y="349.207821"/>
     <use style="fill:#008000;stroke:#008000;" x="516.36949" xlink:href="#mbbeca624c9" y="347.054991"/>
     <use style="fill:#008000;stroke:#008000;" x="526.236743" xlink:href="#mbbeca624c9" y="344.895713"/>
     <use style="fill:#008000;stroke:#008000;" x="536.0809" xlink:href="#mbbeca624c9" y="342.741489"/>
     <use style="fill:#008000;stroke:#008000;" x="545.927446" xlink:href="#mbbeca624c9" y="340.586742"/>
     <use style="fill:#008000;stroke:#008000;" x="555.758064" xlink:href="#mbbeca624c9" y="338.435481"/>
     <use style="fill:#008000;stroke:#008000;" x="565.606999" xlink:href="#mbbeca624c9" y="336.280211"/>
     <use style="fill:#008000;stroke:#008000;" x="575.456731" xlink:href="#mbbeca624c9" y="334.124767"/>
     <use style="fill:#008000;stroke:#008000;" x="585.303277" xlink:href="#mbbeca624c9" y="331.97002"/>
     <use style="fill:#008000;stroke:#008000;" x="595.154601" xlink:href="#mbbeca624c9" y="329.814227"/>
     <use style="fill:#008000;stroke:#008000;" x="605.138923" xlink:href="#mbbeca624c9" y="327.629331"/>
     <use style="fill:#008000;stroke:#008000;" x="615.206068" xlink:href="#mbbeca624c9" y="325.426309"/>
     <use style="fill:#008000;stroke:#008000;" x="625.283567" xlink:href="#mbbeca624c9" y="323.221023"/>
     <use style="fill:#008000;stroke:#008000;" x="636.164622" xlink:href="#mbbeca624c9" y="320.839891"/>
     <use style="fill:#008000;stroke:#008000;" x="646.217432" xlink:href="#mbbeca624c9" y="318.640007"/>
     <use style="fill:#008000;stroke:#008000;" x="656.254315" xlink:href="#mbbeca624c9" y="316.443608"/>
     <use style="fill:#008000;stroke:#008000;" x="666.19165" xlink:href="#mbbeca624c9" y="314.268994"/>
     <use style="fill:#008000;stroke:#008000;" x="676.1035" xlink:href="#mbbeca624c9" y="312.099956"/>
     <use style="fill:#008000;stroke:#008000;" x="685.932525" xlink:href="#mbbeca624c9" y="309.949043"/>
     <use style="fill:#008000;stroke:#008000;" x="695.76394" xlink:href="#mbbeca624c9" y="307.797608"/>
     <use style="fill:#008000;stroke:#008000;" x="705.600133" xlink:href="#mbbeca624c9" y="305.645126"/>
     <use style="fill:#008000;stroke:#008000;" x="715.441901" xlink:href="#mbbeca624c9" y="303.491425"/>
     <use style="fill:#008000;stroke:#008000;" x="725.279686" xlink:href="#mbbeca624c9" y="301.338595"/>
     <use style="fill:#008000;stroke:#008000;" x="735.110305" xlink:href="#mbbeca624c9" y="299.187334"/>
     <use style="fill:#008000;stroke:#008000;" x="744.971982" xlink:href="#mbbeca624c9" y="297.029276"/>
     <use style="fill:#008000;stroke:#008000;" x="754.807379" xlink:href="#mbbeca624c9" y="294.876969"/>
     <use style="fill:#008000;stroke:#008000;" x="764.653925" xlink:href="#mbbeca624c9" y="292.722222"/>
     <use style="fill:#008000;stroke:#008000;" x="774.508435" xlink:href="#mbbeca624c9" y="290.565732"/>
     <use style="fill:#008000;stroke:#008000;" x="784.468068" xlink:href="#mbbeca624c9" y="288.386238"/>
     <use style="fill:#008000;stroke:#008000;" x="794.547956" xlink:href="#mbbeca624c9" y="286.180429"/>
     <use style="fill:#008000;stroke:#008000;" x="806.57581" xlink:href="#mbbeca624c9" y="283.54834"/>
     <use style="fill:#008000;stroke:#008000;" x="817.007701" xlink:href="#mbbeca624c9" y="281.2655"/>
     <use style="fill:#008000;stroke:#008000;" x="827.340044" xlink:href="#mbbeca624c9" y="279.004445"/>
     <use style="fill:#008000;stroke:#008000;" x="837.650089" xlink:href="#mbbeca624c9" y="276.74827"/>
     <use style="fill:#008000;stroke:#008000;" x="848.017473" xlink:href="#mbbeca624c9" y="274.479546"/>
     <use style="fill:#008000;stroke:#008000;" x="858.344241" xlink:href="#mbbeca624c9" y="272.219711"/>
     <use style="fill:#008000;stroke:#008000;" x="868.678177" xlink:href="#mbbeca624c9" y="269.958307"/>
     <use style="fill:#008000;stroke:#008000;" x="878.973886" xlink:href="#mbbeca624c9" y="267.705269"/>
     <use style="fill:#008000;stroke:#008000;" x="889.298265" xlink:href="#mbbeca624c9" y="265.445957"/>
     <use style="fill:#008000;stroke:#008000;" x="899.605124" xlink:href="#mbbeca624c9" y="263.190478"/>
     <use style="fill:#008000;stroke:#008000;" x="910.093559" xlink:href="#mbbeca624c9" y="260.895265"/>
     <use style="fill:#008000;stroke:#008000;" x="920.51669" xlink:href="#mbbeca624c9" y="258.614342"/>
     <use style="fill:#008000;stroke:#008000;" x="930.916726" xlink:href="#mbbeca624c9" y="256.338474"/>
     <use style="fill:#008000;stroke:#008000;" x="941.337468" xlink:href="#mbbeca624c9" y="254.058074"/>
     <use style="fill:#008000;stroke:#008000;" x="951.730337" xlink:href="#mbbeca624c9" y="251.783774"/>
     <use style="fill:#008000;stroke:#008000;" x="961.998969" xlink:href="#mbbeca624c9" y="249.536661"/>
     <use style="fill:#008000;stroke:#008000;" x="972.309809" xlink:href="#mbbeca624c9" y="247.280311"/>
     <use style="fill:#008000;stroke:#008000;" x="982.642152" xlink:href="#mbbeca624c9" y="245.019256"/>
     <use style="fill:#008000;stroke:#008000;" x="992.93149" xlink:href="#mbbeca624c9" y="242.767611"/>
     <use style="fill:#008000;stroke:#008000;" x="1003.175434" xlink:href="#mbbeca624c9" y="240.525901"/>
     <use style="fill:#008000;stroke:#008000;" x="1013.465569" xlink:href="#mbbeca624c9" y="238.274082"/>
     <use style="fill:#008000;stroke:#008000;" x="1023.826582" xlink:href="#mbbeca624c9" y="236.006753"/>
     <use style="fill:#008000;stroke:#008000;" x="1036.599855" xlink:href="#mbbeca624c9" y="233.211542"/>
     <use style="fill:#008000;stroke:#008000;" x="1047.910959" xlink:href="#mbbeca624c9" y="230.736302"/>
     <use style="fill:#008000;stroke:#008000;" x="1059.261883" xlink:href="#mbbeca624c9" y="228.252348"/>
     <use style="fill:#008000;stroke:#008000;" x="1069.571927" xlink:href="#mbbeca624c9" y="225.996173"/>
     <use style="fill:#008000;stroke:#008000;" x="1079.890732" xlink:href="#mbbeca624c9" y="223.73808"/>
     <use style="fill:#008000;stroke:#008000;" x="1090.211129" xlink:href="#mbbeca624c9" y="221.479639"/>
     <use style="fill:#008000;stroke:#008000;" x="1100.506042" xlink:href="#mbbeca624c9" y="219.226775"/>
     <use style="fill:#008000;stroke:#008000;" x="1110.793787" xlink:href="#mbbeca624c9" y="216.975479"/>
     <use style="fill:#008000;stroke:#008000;" x="1121.083125" xlink:href="#mbbeca624c9" y="214.723835"/>
     <use style="fill:#008000;stroke:#008000;" x="1131.407504" xlink:href="#mbbeca624c9" y="212.464523"/>
     <use style="fill:#008000;stroke:#008000;" x="1141.734272" xlink:href="#mbbeca624c9" y="210.204687"/>
     <use style="fill:#008000;stroke:#008000;" x="1152.010868" xlink:href="#mbbeca624c9" y="207.955832"/>
     <use style="fill:#008000;stroke:#008000;" x="1162.289057" xlink:href="#mbbeca624c9" y="205.706627"/>
     <use style="fill:#008000;stroke:#008000;" x="1172.578395" xlink:href="#mbbeca624c9" y="203.454983"/>
     <use style="fill:#008000;stroke:#008000;" x="1182.858973" xlink:href="#mbbeca624c9" y="201.205256"/>
     <use style="fill:#008000;stroke:#008000;" x="1193.156274" xlink:href="#mbbeca624c9" y="198.951869"/>
     <use style="fill:#008000;stroke:#008000;" x="1203.817526" xlink:href="#mbbeca624c9" y="196.618837"/>
     <use style="fill:#008000;stroke:#008000;" x="1214.148276" xlink:href="#mbbeca624c9" y="194.358131"/>
     <use style="fill:#008000;stroke:#008000;" x="1224.436021" xlink:href="#mbbeca624c9" y="192.106835"/>
     <use style="fill:#008000;stroke:#008000;" x="1234.79146" xlink:href="#mbbeca624c9" y="189.840726"/>
     <use style="fill:#008000;stroke:#008000;" x="1245.272727" xlink:href="#mbbeca624c9" y="187.547081"/>
    </g>
   </g>
   <g id="patch_3">
    <path d="M 180 512.64 
L 180 69.12 
" style="fill:none;stroke:#000000;stroke-linecap:square;stroke-linejoin:miter;stroke-width:0.8;"/>
   </g>
   <g id="patch_4">
    <path d="M 1296 512.64 
L 1296 69.12 
" style="fill:none;stroke:#000000;stroke-linecap:square;stroke-linejoin:miter;stroke-width:0.8;"/>
   </g>
   <g id="patch_5">
    <path d="M 180 512.64 
L 1296 512.64 
" style="fill:none;stroke:#000000;stroke-linecap:square;stroke-linejoin:miter;stroke-width:0.8;"/>
   </g>
   <g id="patch_6">
    <path d="M 180 69.12 
L 1296 69.12 
" style="fill:none;stroke:#000000;stroke-linecap:square;stroke-linejoin:miter;stroke-width:0.8;"/>
   </g>
   <g id="text_16">
    <!-- 500000.0 bit/s -->
    <defs>
     <path id="DejaVuSans-20"/>
     <path d="M 48.6875 27.296875 
Q 48.6875 37.203125 44.609375 42.84375 
Q 40.53125 48.484375 33.40625 48.484375 
Q 26.265625 48.484375 22.1875 42.84375 
Q 18.109375 37.203125 18.109375 27.296875 
Q 18.109375 17.390625 22.1875 11.75 
Q 26.265625 6.109375 33.40625 6.109375 
Q 40.53125 6.109375 44.609375 11.75 
Q 48.6875 17.390625 48.6875 27.296875 
z
M 18.109375 46.390625 
Q 20.953125 51.265625 25.265625 53.625 
Q 29.59375 56 35.59375 56 
Q 45.5625 56 51.78125 48.09375 
Q 58.015625 40.1875 58.015625 27.296875 
Q 58.015625 14.40625 51.78125 6.484375 
Q 45.5625 -1.421875 35.59375 -1.421875 
Q 29.59375 -1.421875 25.265625 0.953125 
Q 20.953125 3.328125 18.109375 8.203125 
L 18.109375 0 
L 9.078125 0 
L 9.078125 75.984375 
L 18.109375 75.984375 
z
" id="DejaVuSans-62"/>
     <path d="M 9.421875 54.6875 
L 18.40625 54.6875 
L 18.40625 0 
L 9.421875 0 
z
M 9.421875 75.984375 
L 18.40625 75.984375 
L 18.40625 64.59375 
L 9.421875 64.59375 
z
" id="DejaVuSans-69"/>
     <path d="M 18.3125 70.21875 
L 18.3125 54.6875 
L 36.8125 54.6875 
L 36.8125 47.703125 
L 18.3125 47.703125 
L 18.3125 18.015625 
Q 18.3125 11.328125 20.140625 9.421875 
Q 21.96875 7.515625 27.59375 7.515625 
L 36.8125 7.515625 
L 36.8125 0 
L 27.59375 0 
Q 17.1875 0 13.234375 3.875 
Q 9.28125 7.765625 9.28125 18.015625 
L 9.28125 47.703125 
L 2.6875 47.703125 
L 2.6875 54.6875 
L 9.28125 54.6875 
L 9.28125 70.21875 
z
" id="DejaVuSans-74"/>
     <path d="M 25.390625 72.90625 
L 33.6875 72.90625 
L 8.296875 -9.28125 
L 0 -9.28125 
z
" id="DejaVuSans-2f"/>
     <path d="M 44.28125 53.078125 
L 44.28125 44.578125 
Q 40.484375 46.53125 36.375 47.5 
Q 32.28125 48.484375 27.875 48.484375 
Q 21.1875 48.484375 17.84375 46.4375 
Q 14.5 44.390625 14.5 40.28125 
Q 14.5 37.15625 16.890625 35.375 
Q 19.28125 33.59375 26.515625 31.984375 
L 29.59375 31.296875 
Q 39.15625 29.25 43.1875 25.515625 
Q 47.21875 21.78125 47.21875 15.09375 
Q 47.21875 7.46875 41.1875 3.015625 
Q 35.15625 -1.421875 24.609375 -1.421875 
Q 20.21875 -1.421875 15.453125 -0.5625 
Q 10.6875 0.296875 5.421875 2 
L 5.421875 11.28125 
Q 10.40625 8.6875 15.234375 7.390625 
Q 20.0625 6.109375 24.8125 6.109375 
Q 31.15625 6.109375 34.5625 8.28125 
Q 37.984375 10.453125 37.984375 14.40625 
Q 37.984375 18.0625 35.515625 20.015625 
Q 33.0625 21.96875 24.703125 23.78125 
L 21.578125 24.515625 
Q 13.234375 26.265625 9.515625 29.90625 
Q 5.8125 33.546875 5.8125 39.890625 
Q 5.8125 47.609375 11.28125 51.796875 
Q 16.75 56 26.8125 56 
Q 31.78125 56 36.171875 55.265625 
Q 40.578125 54.546875 44.28125 53.078125 
z
" id="DejaVuSans-73"/>
    </defs>
    <g transform="translate(694.48875 63.12)scale(0.12 -0.12)">
     <use xlink:href="#DejaVuSans-35"/>
     <use x="63.623047" xlink:href="#DejaVuSans-30"/>
     <use x="127.246094" xlink:href="#DejaVuSans-30"/>
     <use x="190.869141" xlink:href="#DejaVuSans-30"/>
     <use x="254.492188" xlink:href="#DejaVuSans-30"/>
     <use x="318.115234" xlink:href="#DejaVuSans-30"/>
     <use x="381.738281" xlink:href="#DejaVuSans-2e"/>
     <use x="413.525391" xlink:href="#DejaVuSans-30"/>
     <use x="477.148438" xlink:href="#DejaVuSans-20"/>
     <use x="508.935547" xlink:href="#DejaVuSans-62"/>
     <use x="572.412109" xlink:href="#DejaVuSans-69"/>
     <use x="600.195312" xlink:href="#DejaVuSans-74"/>
     <use x="639.404297" xlink:href="#DejaVuSans-2f"/>
     <use x="673.095703" xlink:href="#DejaVuSans-73"/>
    </g>
   </g>
   <g id="legend_1">
    <g id="patch_7">
     <path d="M 1173.520313 135.8325 
L 1289 135.8325 
Q 1291 135.8325 1291 133.8325 
L 1291 76.12 
Q 1291 74.12 1289 74.12 
L 1173.520313 74.12 
Q 1171.520313 74.12 1171.520313 76.12 
L 1171.520313 133.8325 
Q 1171.520313 135.8325 1173.520313 135.8325 
z
" style="fill:#ffffff;opacity:0.8;stroke:#cccccc;stroke-linejoin:miter;"/>
    </g>
    <g id="line2d_20">
     <path d="M 1175.520313 82.218437 
L 1195.520313 82.218437 
" style="fill:none;stroke:#ff0000;stroke-dasharray:5.55,2.4;stroke-dashoffset:0;stroke-width:1.5;"/>
    </g>
    <g id="line2d_21">
     <g>
      <use style="fill:#ff0000;stroke:#ff0000;stroke-linejoin:miter;" x="1185.520313" xlink:href="#m15b7116d79" y="82.218437"/>
     </g>
    </g>
    <g id="text_17">
     <!-- tcpdump -->
     <defs>
      <path d="M 48.78125 52.59375 
L 48.78125 44.1875 
Q 44.96875 46.296875 41.140625 47.34375 
Q 37.3125 48.390625 33.40625 48.390625 
Q 24.65625 48.390625 19.8125 42.84375 
Q 14.984375 37.3125 14.984375 27.296875 
Q 14.984375 17.28125 19.8125 11.734375 
Q 24.65625 6.203125 33.40625 6.203125 
Q 37.3125 6.203125 41.140625 7.25 
Q 44.96875 8.296875 48.78125 10.40625 
L 48.78125 2.09375 
Q 45.015625 0.34375 40.984375 -0.53125 
Q 36.96875 -1.421875 32.421875 -1.421875 
Q 20.0625 -1.421875 12.78125 6.34375 
Q 5.515625 14.109375 5.515625 27.296875 
Q 5.515625 40.671875 12.859375 48.328125 
Q 20.21875 56 33.015625 56 
Q 37.15625 56 41.109375 55.140625 
Q 45.0625 54.296875 48.78125 52.59375 
z
" id="DejaVuSans-63"/>
      <path d="M 18.109375 8.203125 
L 18.109375 -20.796875 
L 9.078125 -20.796875 
L 9.078125 54.6875 
L 18.109375 54.6875 
L 18.109375 46.390625 
Q 20.953125 51.265625 25.265625 53.625 
Q 29.59375 56 35.59375 56 
Q 45.5625 56 51.78125 48.09375 
Q 58.015625 40.1875 58.015625 27.296875 
Q 58.015625 14.40625 51.78125 6.484375 
Q 45.5625 -1.421875 35.59375 -1.421875 
Q 29.59375 -1.421875 25.265625 0.953125 
Q 20.953125 3.328125 18.109375 8.203125 
z
M 48.6875 27.296875 
Q 48.6875 37.203125 44.609375 42.84375 
Q 40.53125 48.484375 33.40625 48.484375 
Q 26.265625 48.484375 22.1875 42.84375 
Q 18.109375 37.203125 18.109375 27.296875 
Q 18.109375 17.390625 22.1875 11.75 
Q 26.265625 6.109375 33.40625 6.109375 
Q 40.53125 6.109375 44.609375 11.75 
Q 48.6875 17.390625 48.6875 27.296875 
z
" id="DejaVuSans-70"/>
      <path d="M 45.40625 46.390625 
L 45.40625 75.984375 
L 54.390625 75.984375 
L 54.390625 0 
L 45.40625 0 
L 45.40625 8.203125 
Q 42.578125 3.328125 38.25 0.953125 
Q 33.9375 -1.421875 27.875 -1.421875 
Q 17.96875 -1.421875 11.734375 6.484375 
Q 5.515625 14.40625 5.515625 27.296875 
Q 5.515625 40.1875 11.734375 48.09375 
Q 17.96875 56 27.875 56 
Q 33.9375 56 38.25 53.625 
Q 42.578125 51.265625 45.40625 46.390625 
z
M 14.796875 27.296875 
Q 14.796875 17.390625 18.875 11.75 
Q 22.953125 6.109375 30.078125 6.109375 
Q 37.203125 6.109375 41.296875 11.75 
Q 45.40625 17.390625 45.40625 27.296875 
Q 45.40625 37.203125 41.296875 42.84375 
Q 37.203125 48.484375 30.078125 48.484375 
Q 22.953125 48.484375 18.875 42.84375 
Q 14.796875 37.203125 14.796875 27.296875 
z
" id="DejaVuSans-64"/>
      <path d="M 8.5 21.578125 
L 8.5 54.6875 
L 17.484375 54.6875 
L 17.484375 21.921875 
Q 17.484375 14.15625 20.5 10.265625 
Q 23.53125 6.390625 29.59375 6.390625 
Q 36.859375 6.390625 41.078125 11.03125 
Q 45.3125 15.671875 45.3125 23.6875 
L 45.3125 54.6875 
L 54.296875 54.6875 
L 54.296875 0 
L 45.3125 0 
L 45.3125 8.40625 
Q 42.046875 3.421875 37.71875 1 
Q 33.40625 -1.421875 27.6875 -1.421875 
Q 18.265625 -1.421875 13.375 4.4375 
Q 8.5 10.296875 8.5 21.578125 
z
M 31.109375 56 
z
" id="DejaVuSans-75"/>
      <path d="M 52 44.1875 
Q 55.375 50.25 60.0625 53.125 
Q 64.75 56 71.09375 56 
Q 79.640625 56 84.28125 50.015625 
Q 88.921875 44.046875 88.921875 33.015625 
L 88.921875 0 
L 79.890625 0 
L 79.890625 32.71875 
Q 79.890625 40.578125 77.09375 44.375 
Q 74.3125 48.1875 68.609375 48.1875 
Q 61.625 48.1875 57.5625 43.546875 
Q 53.515625 38.921875 53.515625 30.90625 
L 53.515625 0 
L 44.484375 0 
L 44.484375 32.71875 
Q 44.484375 40.625 41.703125 44.40625 
Q 38.921875 48.1875 33.109375 48.1875 
Q 26.21875 48.1875 22.15625 43.53125 
Q 18.109375 38.875 18.109375 30.90625 
L 18.109375 0 
L 9.078125 0 
L 9.078125 54.6875 
L 18.109375 54.6875 
L 18.109375 46.1875 
Q 21.1875 51.21875 25.484375 53.609375 
Q 29.78125 56 35.6875 56 
Q 41.65625 56 45.828125 52.96875 
Q 50 49.953125 52 44.1875 
z
" id="DejaVuSans-6d"/>
     </defs>
     <g transform="translate(1203.520313 85.718437)scale(0.1 -0.1)">
      <use xlink:href="#DejaVuSans-74"/>
      <use x="39.208984" xlink:href="#DejaVuSans-63"/>
      <use x="94.189453" xlink:href="#DejaVuSans-70"/>
      <use x="157.666016" xlink:href="#DejaVuSans-64"/>
      <use x="221.142578" xlink:href="#DejaVuSans-75"/>
      <use x="284.521484" xlink:href="#DejaVuSans-6d"/>
      <use x="381.933594" xlink:href="#DejaVuSans-70"/>
     </g>
    </g>
    <g id="line2d_22">
     <path d="M 1175.520313 96.896563 
L 1195.520313 96.896563 
" style="fill:none;stroke:#800080;stroke-dasharray:9.6,2.4,1.5,2.4;stroke-dashoffset:0;stroke-width:1.5;"/>
    </g>
    <g id="line2d_23">
     <g>
      <use style="fill:#800080;stroke:#800080;" x="1185.520313" xlink:href="#m0bb3f94717" y="96.896563"/>
     </g>
    </g>
    <g id="text_18">
     <!-- filtered tcpdump -->
     <defs>
      <path d="M 37.109375 75.984375 
L 37.109375 68.5 
L 28.515625 68.5 
Q 23.6875 68.5 21.796875 66.546875 
Q 19.921875 64.59375 19.921875 59.515625 
L 19.921875 54.6875 
L 34.71875 54.6875 
L 34.71875 47.703125 
L 19.921875 47.703125 
L 19.921875 0 
L 10.890625 0 
L 10.890625 47.703125 
L 2.296875 47.703125 
L 2.296875 54.6875 
L 10.890625 54.6875 
L 10.890625 58.5 
Q 10.890625 67.625 15.140625 71.796875 
Q 19.390625 75.984375 28.609375 75.984375 
z
" id="DejaVuSans-66"/>
      <path d="M 9.421875 75.984375 
L 18.40625 75.984375 
L 18.40625 0 
L 9.421875 0 
z
" id="DejaVuSans-6c"/>
      <path d="M 56.203125 29.59375 
L 56.203125 25.203125 
L 14.890625 25.203125 
Q 15.484375 15.921875 20.484375 11.0625 
Q 25.484375 6.203125 34.421875 6.203125 
Q 39.59375 6.203125 44.453125 7.46875 
Q 49.3125 8.734375 54.109375 11.28125 
L 54.109375 2.78125 
Q 49.265625 0.734375 44.1875 -0.34375 
Q 39.109375 -1.421875 33.890625 -1.421875 
Q 20.796875 -1.421875 13.15625 6.1875 
Q 5.515625 13.8125 5.515625 26.8125 
Q 5.515625 40.234375 12.765625 48.109375 
Q 20.015625 56 32.328125 56 
Q 43.359375 56 49.78125 48.890625 
Q 56.203125 41.796875 56.203125 29.59375 
z
M 47.21875 32.234375 
Q 47.125 39.59375 43.09375 43.984375 
Q 39.0625 48.390625 32.421875 48.390625 
Q 24.90625 48.390625 20.390625 44.140625 
Q 15.875 39.890625 15.1875 32.171875 
z
" id="DejaVuSans-65"/>
      <path d="M 41.109375 46.296875 
Q 39.59375 47.171875 37.8125 47.578125 
Q 36.03125 48 33.890625 48 
Q 26.265625 48 22.1875 43.046875 
Q 18.109375 38.09375 18.109375 28.8125 
L 18.109375 0 
L 9.078125 0 
L 9.078125 54.6875 
L 18.109375 54.6875 
L 18.109375 46.1875 
Q 20.953125 51.171875 25.484375 53.578125 
Q 30.03125 56 36.53125 56 
Q 37.453125 56 38.578125 55.875 
Q 39.703125 55.765625 41.0625 55.515625 
z
" id="DejaVuSans-72"/>
     </defs>
     <g transform="translate(1203.520313 100.396563)scale(0.1 -0.1)">
      <use xlink:href="#DejaVuSans-66"/>
      <use x="35.205078" xlink:href="#DejaVuSans-69"/>
      <use x="62.988281" xlink:href="#DejaVuSans-6c"/>
      <use x="90.771484" xlink:href="#DejaVuSans-74"/>
      <use x="129.980469" xlink:href="#DejaVuSans-65"/>
      <use x="191.503906" xlink:href="#DejaVuSans-72"/>
      <use x="232.585938" xlink:href="#DejaVuSans-65"/>
      <use x="294.109375" xlink:href="#DejaVuSans-64"/>
      <use x="357.585938" xlink:href="#DejaVuSans-20"/>
      <use x="389.373047" xlink:href="#DejaVuSans-74"/>
      <use x="428.582031" xlink:href="#DejaVuSans-63"/>
      <use x="483.5625" xlink:href="#DejaVuSans-70"/>
      <use x="547.039062" xlink:href="#DejaVuSans-64"/>
      <use x="610.515625" xlink:href="#DejaVuSans-75"/>
      <use x="673.894531" xlink:href="#DejaVuSans-6d"/>
      <use x="771.306641" xlink:href="#DejaVuSans-70"/>
     </g>
    </g>
    <g id="line2d_24">
     <path d="M 1175.520313 111.574687 
L 1195.520313 111.574687 
" style="fill:none;stroke:#0000ff;stroke-linecap:square;stroke-width:1.5;"/>
    </g>
    <g id="line2d_25"/>
    <g id="text_19">
     <!-- OLS -->
     <defs>
      <path d="M 39.40625 66.21875 
Q 28.65625 66.21875 22.328125 58.203125 
Q 16.015625 50.203125 16.015625 36.375 
Q 16.015625 22.609375 22.328125 14.59375 
Q 28.65625 6.59375 39.40625 6.59375 
Q 50.140625 6.59375 56.421875 14.59375 
Q 62.703125 22.609375 62.703125 36.375 
Q 62.703125 50.203125 56.421875 58.203125 
Q 50.140625 66.21875 39.40625 66.21875 
z
M 39.40625 74.21875 
Q 54.734375 74.21875 63.90625 63.9375 
Q 73.09375 53.65625 73.09375 36.375 
Q 73.09375 19.140625 63.90625 8.859375 
Q 54.734375 -1.421875 39.40625 -1.421875 
Q 24.03125 -1.421875 14.8125 8.828125 
Q 5.609375 19.09375 5.609375 36.375 
Q 5.609375 53.65625 14.8125 63.9375 
Q 24.03125 74.21875 39.40625 74.21875 
z
" id="DejaVuSans-4f"/>
      <path d="M 9.8125 72.90625 
L 19.671875 72.90625 
L 19.671875 8.296875 
L 55.171875 8.296875 
L 55.171875 0 
L 9.8125 0 
z
" id="DejaVuSans-4c"/>
      <path d="M 53.515625 70.515625 
L 53.515625 60.890625 
Q 47.90625 63.578125 42.921875 64.890625 
Q 37.9375 66.21875 33.296875 66.21875 
Q 25.25 66.21875 20.875 63.09375 
Q 16.5 59.96875 16.5 54.203125 
Q 16.5 49.359375 19.40625 46.890625 
Q 22.3125 44.4375 30.421875 42.921875 
L 36.375 41.703125 
Q 47.40625 39.59375 52.65625 34.296875 
Q 57.90625 29 57.90625 20.125 
Q 57.90625 9.515625 50.796875 4.046875 
Q 43.703125 -1.421875 29.984375 -1.421875 
Q 24.8125 -1.421875 18.96875 -0.25 
Q 13.140625 0.921875 6.890625 3.21875 
L 6.890625 13.375 
Q 12.890625 10.015625 18.65625 8.296875 
Q 24.421875 6.59375 29.984375 6.59375 
Q 38.421875 6.59375 43.015625 9.90625 
Q 47.609375 13.234375 47.609375 19.390625 
Q 47.609375 24.75 44.3125 27.78125 
Q 41.015625 30.8125 33.5 32.328125 
L 27.484375 33.5 
Q 16.453125 35.6875 11.515625 40.375 
Q 6.59375 45.0625 6.59375 53.421875 
Q 6.59375 63.09375 13.40625 68.65625 
Q 20.21875 74.21875 32.171875 74.21875 
Q 37.3125 74.21875 42.625 73.28125 
Q 47.953125 72.359375 53.515625 70.515625 
z
" id="DejaVuSans-53"/>
     </defs>
     <g transform="translate(1203.520313 115.074687)scale(0.1 -0.1)">
      <use xlink:href="#DejaVuSans-4f"/>
      <use x="78.710938" xlink:href="#DejaVuSans-4c"/>
      <use x="134.423828" xlink:href="#DejaVuSans-53"/>
     </g>
    </g>
    <g id="line2d_26">
     <path d="M 1175.520313 126.252813 
L 1195.520313 126.252813 
" style="fill:none;stroke:#008000;stroke-linecap:square;stroke-width:1.5;"/>
    </g>
    <g id="line2d_27">
     <g>
      <use style="fill:#008000;stroke:#008000;" x="1185.520313" xlink:href="#mbbeca624c9" y="126.252813"/>
     </g>
    </g>
    <g id="text_20">
     <!-- IRLS -->
     <defs>
      <path d="M 9.8125 72.90625 
L 19.671875 72.90625 
L 19.671875 0 
L 9.8125 0 
z
" id="DejaVuSans-49"/>
      <path d="M 44.390625 34.1875 
Q 47.5625 33.109375 50.5625 29.59375 
Q 53.5625 26.078125 56.59375 19.921875 
L 66.609375 0 
L 56 0 
L 46.6875 18.703125 
Q 43.0625 26.03125 39.671875 28.421875 
Q 36.28125 30.8125 30.421875 30.8125 
L 19.671875 30.8125 
L 19.671875 0 
L 9.8125 0 
L 9.8125 72.90625 
L 32.078125 72.90625 
Q 44.578125 72.90625 50.734375 67.671875 
Q 56.890625 62.453125 56.890625 51.90625 
Q 56.890625 45.015625 53.6875 40.46875 
Q 50.484375 35.9375 44.390625 34.1875 
z
M 19.671875 64.796875 
L 19.671875 38.921875 
L 32.078125 38.921875 
Q 39.203125 38.921875 42.84375 42.21875 
Q 46.484375 45.515625 46.484375 51.90625 
Q 46.484375 58.296875 42.84375 61.546875 
Q 39.203125 64.796875 32.078125 64.796875 
z
" id="DejaVuSans-52"/>
     </defs>
     <g transform="translate(1203.520313 129.752813)scale(0.1 -0.1)">
      <use xlink:href="#DejaVuSans-49"/>
      <use x="29.492188" xlink:href="#DejaVuSans-52"/>
      <use x="98.974609" xlink:href="#DejaVuSans-4c"/>
      <use x="154.6875" xlink:href="#DejaVuSans-53"/>
     </g>
    </g>
   </g>
  </g>
 </g>
 <defs>
  <clipPath id="pbb550588db">
   <rect height="443.52" width="1116" x="180" y="69.12"/>
  </clipPath>
 </defs>
</svg>
