<?xml version="1.0" encoding="utf-8" standalone="no"?>
<!DOCTYPE svg PUBLIC "-//W3C//DTD SVG 1.1//EN"
  "http://www.w3.org/Graphics/SVG/1.1/DTD/svg11.dtd">
<!-- Created with matplotlib (http://matplotlib.org/) -->
<svg height="576pt" version="1.1" viewBox="0 0 1440 576" width="1440pt" xmlns="http://www.w3.org/2000/svg" xmlns:xlink="http://www.w3.org/1999/xlink">
 <defs>
  <style type="text/css">
*{stroke-linecap:butt;stroke-linejoin:round;}
  </style>
 </defs>
 <g id="figure_1">
  <g id="patch_1">
   <path d="M 0 576 
L 1440 576 
L 1440 0 
L 0 0 
z
" style="fill:#ffffff;"/>
  </g>
  <g id="axes_1">
   <g id="patch_2">
    <path d="M 180 512.64 
L 1296 512.64 
L 1296 69.12 
L 180 69.12 
z
" style="fill:#ffffff;"/>
   </g>
   <g id="matplotlib.axis_1">
    <g id="xtick_1">
     <g id="line2d_1">
      <defs>
       <path d="M 0 0 
L 0 3.5 
" id="md38e26d4bd" style="stroke:#000000;stroke-width:0.8;"/>
      </defs>
      <g>
       <use style="stroke:#000000;stroke-width:0.8;" x="230.727273" xlink:href="#md38e26d4bd" y="512.64"/>
      </g>
     </g>
     <g id="text_1">
      <!-- 0.0 -->
      <defs>
       <path d="M 31.78125 66.40625 
Q 24.171875 66.40625 20.328125 58.90625 
Q 16.5 51.421875 16.5 36.375 
Q 16.5 21.390625 20.328125 13.890625 
Q 24.171875 6.390625 31.78125 6.390625 
Q 39.453125 6.390625 43.28125 13.890625 
Q 47.125 21.390625 47.125 36.375 
Q 47.125 51.421875 43.28125 58.90625 
Q 39.453125 66.40625 31.78125 66.40625 
z
M 31.78125 74.21875 
Q 44.046875 74.21875 50.515625 64.515625 
Q 56.984375 54.828125 56.984375 36.375 
Q 56.984375 17.96875 50.515625 8.265625 
Q 44.046875 -1.421875 31.78125 -1.421875 
Q 19.53125 -1.421875 13.0625 8.265625 
Q 6.59375 17.96875 6.59375 36.375 
Q 6.59375 54.828125 13.0625 64.515625 
Q 19.53125 74.21875 31.78125 74.21875 
z
" id="DejaVuSans-30"/>
       <path d="M 10.6875 12.40625 
L 21 12.40625 
L 21 0 
L 10.6875 0 
z
" id="DejaVuSans-2e"/>
      </defs>
      <g transform="translate(222.77571 527.238438)scale(0.1 -0.1)">
       <use xlink:href="#DejaVuSans-30"/>
       <use x="63.623047" xlink:href="#DejaVuSans-2e"/>
       <use x="95.410156" xlink:href="#DejaVuSans-30"/>
      </g>
     </g>
    </g>
    <g id="xtick_2">
     <g id="line2d_2">
      <g>
       <use style="stroke:#000000;stroke-width:0.8;" x="382.989295" xlink:href="#md38e26d4bd" y="512.64"/>
      </g>
     </g>
     <g id="text_2">
      <!-- 0.2 -->
      <defs>
       <path d="M 19.1875 8.296875 
L 53.609375 8.296875 
L 53.609375 0 
L 7.328125 0 
L 7.328125 8.296875 
Q 12.9375 14.109375 22.625 23.890625 
Q 32.328125 33.6875 34.8125 36.53125 
Q 39.546875 41.84375 41.421875 45.53125 
Q 43.3125 49.21875 43.3125 52.78125 
Q 43.3125 58.59375 39.234375 62.25 
Q 35.15625 65.921875 28.609375 65.921875 
Q 23.96875 65.921875 18.8125 64.3125 
Q 13.671875 62.703125 7.8125 59.421875 
L 7.8125 69.390625 
Q 13.765625 71.78125 18.9375 73 
Q 24.125 74.21875 28.421875 74.21875 
Q 39.75 74.21875 46.484375 68.546875 
Q 53.21875 62.890625 53.21875 53.421875 
Q 53.21875 48.921875 51.53125 44.890625 
Q 49.859375 40.875 45.40625 35.40625 
Q 44.1875 33.984375 37.640625 27.21875 
Q 31.109375 20.453125 19.1875 8.296875 
z
" id="DejaVuSans-32"/>
      </defs>
      <g transform="translate(375.037732 527.238438)scale(0.1 -0.1)">
       <use xlink:href="#DejaVuSans-30"/>
       <use x="63.623047" xlink:href="#DejaVuSans-2e"/>
       <use x="95.410156" xlink:href="#DejaVuSans-32"/>
      </g>
     </g>
    </g>
    <g id="xtick_3">
     <g id="line2d_3">
      <g>
       <use style="stroke:#000000;stroke-width:0.8;" x="535.251317" xlink:href="#md38e26d4bd" y="512.64"/>
      </g>
     </g>
     <g id="text_3">
      <!-- 0.4 -->
      <defs>
       <path d="M 37.796875 64.3125 
L 12.890625 25.390625 
L 37.796875 25.390625 
z
M 35.203125 72.90625 
L 47.609375 72.90625 
L 47.609375 25.390625 
L 58.015625 25.390625 
L 58.015625 17.1875 
L 47.609375 17.1875 
L 47.609375 0 
L 37.796875 0 
L 37.796875 17.1875 
L 4.890625 17.1875 
L 4.890625 26.703125 
z
" id="DejaVuSans-34"/>
      </defs>
      <g transform="translate(527.299755 527.238438)scale(0.1 -0.1)">
       <use xlink:href="#DejaVuSans-30"/>
       <use x="63.623047" xlink:href="#DejaVuSans-2e"/>
       <use x="95.410156" xlink:href="#DejaVuSans-34"/>
      </g>
     </g>
    </g>
    <g id="xtick_4">
     <g id="line2d_4">
      <g>
       <use style="stroke:#000000;stroke-width:0.8;" x="687.513339" xlink:href="#md38e26d4bd" y="512.64"/>
      </g>
     </g>
     <g id="text_4">
      <!-- 0.6 -->
      <defs>
       <path d="M 33.015625 40.375 
Q 26.375 40.375 22.484375 35.828125 
Q 18.609375 31.296875 18.609375 23.390625 
Q 18.609375 15.53125 22.484375 10.953125 
Q 26.375 6.390625 33.015625 6.390625 
Q 39.65625 6.390625 43.53125 10.953125 
Q 47.40625 15.53125 47.40625 23.390625 
Q 47.40625 31.296875 43.53125 35.828125 
Q 39.65625 40.375 33.015625 40.375 
z
M 52.59375 71.296875 
L 52.59375 62.3125 
Q 48.875 64.0625 45.09375 64.984375 
Q 41.3125 65.921875 37.59375 65.921875 
Q 27.828125 65.921875 22.671875 59.328125 
Q 17.53125 52.734375 16.796875 39.40625 
Q 19.671875 43.65625 24.015625 45.921875 
Q 28.375 48.1875 33.59375 48.1875 
Q 44.578125 48.1875 50.953125 41.515625 
Q 57.328125 34.859375 57.328125 23.390625 
Q 57.328125 12.15625 50.6875 5.359375 
Q 44.046875 -1.421875 33.015625 -1.421875 
Q 20.359375 -1.421875 13.671875 8.265625 
Q 6.984375 17.96875 6.984375 36.375 
Q 6.984375 53.65625 15.1875 63.9375 
Q 23.390625 74.21875 37.203125 74.21875 
Q 40.921875 74.21875 44.703125 73.484375 
Q 48.484375 72.75 52.59375 71.296875 
z
" id="DejaVuSans-36"/>
      </defs>
      <g transform="translate(679.561777 527.238438)scale(0.1 -0.1)">
       <use xlink:href="#DejaVuSans-30"/>
       <use x="63.623047" xlink:href="#DejaVuSans-2e"/>
       <use x="95.410156" xlink:href="#DejaVuSans-36"/>
      </g>
     </g>
    </g>
    <g id="xtick_5">
     <g id="line2d_5">
      <g>
       <use style="stroke:#000000;stroke-width:0.8;" x="839.775362" xlink:href="#md38e26d4bd" y="512.64"/>
      </g>
     </g>
     <g id="text_5">
      <!-- 0.8 -->
      <defs>
       <path d="M 31.78125 34.625 
Q 24.75 34.625 20.71875 30.859375 
Q 16.703125 27.09375 16.703125 20.515625 
Q 16.703125 13.921875 20.71875 10.15625 
Q 24.75 6.390625 31.78125 6.390625 
Q 38.8125 6.390625 42.859375 10.171875 
Q 46.921875 13.96875 46.921875 20.515625 
Q 46.921875 27.09375 42.890625 30.859375 
Q 38.875 34.625 31.78125 34.625 
z
M 21.921875 38.8125 
Q 15.578125 40.375 12.03125 44.71875 
Q 8.5 49.078125 8.5 55.328125 
Q 8.5 64.0625 14.71875 69.140625 
Q 20.953125 74.21875 31.78125 74.21875 
Q 42.671875 74.21875 48.875 69.140625 
Q 55.078125 64.0625 55.078125 55.328125 
Q 55.078125 49.078125 51.53125 44.71875 
Q 48 40.375 41.703125 38.8125 
Q 48.828125 37.15625 52.796875 32.3125 
Q 56.78125 27.484375 56.78125 20.515625 
Q 56.78125 9.90625 50.3125 4.234375 
Q 43.84375 -1.421875 31.78125 -1.421875 
Q 19.734375 -1.421875 13.25 4.234375 
Q 6.78125 9.90625 6.78125 20.515625 
Q 6.78125 27.484375 10.78125 32.3125 
Q 14.796875 37.15625 21.921875 38.8125 
z
M 18.3125 54.390625 
Q 18.3125 48.734375 21.84375 45.5625 
Q 25.390625 42.390625 31.78125 42.390625 
Q 38.140625 42.390625 41.71875 45.5625 
Q 45.3125 48.734375 45.3125 54.390625 
Q 45.3125 60.0625 41.71875 63.234375 
Q 38.140625 66.40625 31.78125 66.40625 
Q 25.390625 66.40625 21.84375 63.234375 
Q 18.3125 60.0625 18.3125 54.390625 
z
" id="DejaVuSans-38"/>
      </defs>
      <g transform="translate(831.823799 527.238438)scale(0.1 -0.1)">
       <use xlink:href="#DejaVuSans-30"/>
       <use x="63.623047" xlink:href="#DejaVuSans-2e"/>
       <use x="95.410156" xlink:href="#DejaVuSans-38"/>
      </g>
     </g>
    </g>
    <g id="xtick_6">
     <g id="line2d_6">
      <g>
       <use style="stroke:#000000;stroke-width:0.8;" x="992.037384" xlink:href="#md38e26d4bd" y="512.64"/>
      </g>
     </g>
     <g id="text_6">
      <!-- 1.0 -->
      <defs>
       <path d="M 12.40625 8.296875 
L 28.515625 8.296875 
L 28.515625 63.921875 
L 10.984375 60.40625 
L 10.984375 69.390625 
L 28.421875 72.90625 
L 38.28125 72.90625 
L 38.28125 8.296875 
L 54.390625 8.296875 
L 54.390625 0 
L 12.40625 0 
z
" id="DejaVuSans-31"/>
      </defs>
      <g transform="translate(984.085821 527.238438)scale(0.1 -0.1)">
       <use xlink:href="#DejaVuSans-31"/>
       <use x="63.623047" xlink:href="#DejaVuSans-2e"/>
       <use x="95.410156" xlink:href="#DejaVuSans-30"/>
      </g>
     </g>
    </g>
    <g id="xtick_7">
     <g id="line2d_7">
      <g>
       <use style="stroke:#000000;stroke-width:0.8;" x="1144.299406" xlink:href="#md38e26d4bd" y="512.64"/>
      </g>
     </g>
     <g id="text_7">
      <!-- 1.2 -->
      <g transform="translate(1136.347843 527.238438)scale(0.1 -0.1)">
       <use xlink:href="#DejaVuSans-31"/>
       <use x="63.623047" xlink:href="#DejaVuSans-2e"/>
       <use x="95.410156" xlink:href="#DejaVuSans-32"/>
      </g>
     </g>
    </g>
   </g>
   <g id="matplotlib.axis_2">
    <g id="ytick_1">
     <g id="line2d_8">
      <defs>
       <path d="M 0 0 
L -3.5 0 
" id="meddff8f8da" style="stroke:#000000;stroke-width:0.8;"/>
      </defs>
      <g>
       <use style="stroke:#000000;stroke-width:0.8;" x="180" xlink:href="#meddff8f8da" y="453.658862"/>
      </g>
     </g>
     <g id="text_8">
      <!-- 0.5 -->
      <defs>
       <path d="M 10.796875 72.90625 
L 49.515625 72.90625 
L 49.515625 64.59375 
L 19.828125 64.59375 
L 19.828125 46.734375 
Q 21.96875 47.46875 24.109375 47.828125 
Q 26.265625 48.1875 28.421875 48.1875 
Q 40.625 48.1875 47.75 41.5 
Q 54.890625 34.8125 54.890625 23.390625 
Q 54.890625 11.625 47.5625 5.09375 
Q 40.234375 -1.421875 26.90625 -1.421875 
Q 22.3125 -1.421875 17.546875 -0.640625 
Q 12.796875 0.140625 7.71875 1.703125 
L 7.71875 11.625 
Q 12.109375 9.234375 16.796875 8.0625 
Q 21.484375 6.890625 26.703125 6.890625 
Q 35.15625 6.890625 40.078125 11.328125 
Q 45.015625 15.765625 45.015625 23.390625 
Q 45.015625 31 40.078125 35.4375 
Q 35.15625 39.890625 26.703125 39.890625 
Q 22.75 39.890625 18.8125 39.015625 
Q 14.890625 38.140625 10.796875 36.28125 
z
" id="DejaVuSans-35"/>
      </defs>
      <g transform="translate(157.096875 457.45808)scale(0.1 -0.1)">
       <use xlink:href="#DejaVuSans-30"/>
       <use x="63.623047" xlink:href="#DejaVuSans-2e"/>
       <use x="95.410156" xlink:href="#DejaVuSans-35"/>
      </g>
     </g>
    </g>
    <g id="ytick_2">
     <g id="line2d_9">
      <g>
       <use style="stroke:#000000;stroke-width:0.8;" x="180" xlink:href="#meddff8f8da" y="356.4047"/>
      </g>
     </g>
     <g id="text_9">
      <!-- 1.0 -->
      <g transform="translate(157.096875 360.203919)scale(0.1 -0.1)">
       <use xlink:href="#DejaVuSans-31"/>
       <use x="63.623047" xlink:href="#DejaVuSans-2e"/>
       <use x="95.410156" xlink:href="#DejaVuSans-30"/>
      </g>
     </g>
    </g>
    <g id="ytick_3">
     <g id="line2d_10">
      <g>
       <use style="stroke:#000000;stroke-width:0.8;" x="180" xlink:href="#meddff8f8da" y="259.150538"/>
      </g>
     </g>
     <g id="text_10">
      <!-- 1.5 -->
      <g transform="translate(157.096875 262.949757)scale(0.1 -0.1)">
       <use xlink:href="#DejaVuSans-31"/>
       <use x="63.623047" xlink:href="#DejaVuSans-2e"/>
       <use x="95.410156" xlink:href="#DejaVuSans-35"/>
      </g>
     </g>
    </g>
    <g id="ytick_4">
     <g id="line2d_11">
      <g>
       <use style="stroke:#000000;stroke-width:0.8;" x="180" xlink:href="#meddff8f8da" y="161.896376"/>
      </g>
     </g>
     <g id="text_11">
      <!-- 2.0 -->
      <g transform="translate(157.096875 165.695595)scale(0.1 -0.1)">
       <use xlink:href="#DejaVuSans-32"/>
       <use x="63.623047" xlink:href="#DejaVuSans-2e"/>
       <use x="95.410156" xlink:href="#DejaVuSans-30"/>
      </g>
     </g>
    </g>
   </g>
   <g id="line2d_12">
    <path clip-path="url(#p3fb05e42b8)" d="M 230.727273 492.465023 
L 240.960042 492.427483 
L 251.275794 492.466968 
L 261.288545 492.471053 
L 271.881413 492.461327 
L 282.185746 492.473192 
L 292.172612 492.473192 
L 302.531758 492.459382 
L 312.842181 492.460938 
L 322.806969 492.459771 
L 333.2963 492.48 
L 343.631085 281.951776 
L 353.602725 282.154259 
L 364.104998 282.483756 
L 374.400194 282.775324 
L 384.362698 281.860357 
L 394.923592 282.211834 
L 405.216505 282.496205 
L 415.188906 282.704718 
L 425.766549 283.062613 
L 435.943742 283.322671 
L 445.933654 283.531573 
L 456.38568 283.856402 
L 466.693819 284.140967 
L 476.684492 284.35551 
L 487.194378 284.687147 
L 497.44618 284.962765 
L 507.420865 285.176919 
L 517.864517 285.50272 
L 528.11708 285.781451 
L 538.060551 285.974014 
L 548.610787 286.246325 
L 558.858782 286.602859 
L 568.809867 286.740182 
L 579.478867 287.181327 
L 589.570032 287.414153 
L 599.543195 287.618387 
L 610.113986 287.979784 
L 620.352084 288.164761 
L 630.267387 288.434544 
L 640.838178 288.796913 
L 651.088457 289.071948 
L 661.063903 289.283767 
L 671.769446 289.602761 
L 681.838534 289.88402 
L 691.769824 290.098563 
L 702.314731 290.443621 
L 712.572623 290.703873 
L 722.586896 290.940589 
L 733.105157 291.268919 
L 743.271692 291.537146 
L 753.23648 291.74138 
L 763.895583 292.107056 
L 773.992839 292.355054 
L 783.967524 292.557926 
L 794.52385 292.913682 
L 804.792401 293.195719 
L 814.886611 293.419792 
L 825.359193 293.760377 
L 835.524206 293.97667 
L 845.559034 294.234977 
L 856.125257 294.591705 
L 866.33062 294.835619 
L 876.391333 295.082839 
L 886.73373 295.350677 
L 897.095161 295.688149 
L 907.215256 295.929533 
L 917.539383 296.190174 
L 927.769868 296.466571 
L 937.786425 296.691617 
L 948.345796 297.045622 
L 958.583134 297.336607 
L 968.550206 297.528586 
L 979.014413 297.871893 
L 989.351482 298.166379 
L 999.336825 298.351162 
L 1009.833008 298.711391 
L 1020.070345 298.981369 
L 1030.007726 299.16693 
L 1040.632569 299.539024 
L 1050.796059 299.7878 
L 1060.755518 300.002927 
L 1071.258553 300.342927 
L 1081.541568 300.582561 
L 1091.504072 300.829782 
L 1101.988835 301.162974 
L 1112.278703 89.28 
L 1122.248059 89.474508 
L 1132.827224 89.839211 
L 1143.007463 90.097129 
L 1153.030872 90.30253 
L 1163.53619 90.656146 
L 1173.954719 90.978058 
L 1184.103744 91.222555 
L 1194.367727 91.496617 
L 1204.617245 91.778654 
L 1214.599543 91.986389 
L 1225.027207 92.297602 
L 1235.283577 92.586058 
L 1245.272727 92.616401 
" style="fill:none;stroke:#ff0000;stroke-dasharray:5.55,2.4;stroke-dashoffset:0;stroke-width:1.5;"/>
    <defs>
     <path d="M -3 3 
L 3 3 
L 3 -3 
L -3 -3 
z
" id="m4532521ef1" style="stroke:#ff0000;stroke-linejoin:miter;"/>
    </defs>
    <g clip-path="url(#p3fb05e42b8)">
     <use style="fill:#ff0000;stroke:#ff0000;stroke-linejoin:miter;" x="230.727273" xlink:href="#m4532521ef1" y="492.465023"/>
     <use style="fill:#ff0000;stroke:#ff0000;stroke-linejoin:miter;" x="240.960042" xlink:href="#m4532521ef1" y="492.427483"/>
     <use style="fill:#ff0000;stroke:#ff0000;stroke-linejoin:miter;" x="251.275794" xlink:href="#m4532521ef1" y="492.466968"/>
     <use style="fill:#ff0000;stroke:#ff0000;stroke-linejoin:miter;" x="261.288545" xlink:href="#m4532521ef1" y="492.471053"/>
     <use style="fill:#ff0000;stroke:#ff0000;stroke-linejoin:miter;" x="271.881413" xlink:href="#m4532521ef1" y="492.461327"/>
     <use style="fill:#ff0000;stroke:#ff0000;stroke-linejoin:miter;" x="282.185746" xlink:href="#m4532521ef1" y="492.473192"/>
     <use style="fill:#ff0000;stroke:#ff0000;stroke-linejoin:miter;" x="292.172612" xlink:href="#m4532521ef1" y="492.473192"/>
     <use style="fill:#ff0000;stroke:#ff0000;stroke-linejoin:miter;" x="302.531758" xlink:href="#m4532521ef1" y="492.459382"/>
     <use style="fill:#ff0000;stroke:#ff0000;stroke-linejoin:miter;" x="312.842181" xlink:href="#m4532521ef1" y="492.460938"/>
     <use style="fill:#ff0000;stroke:#ff0000;stroke-linejoin:miter;" x="322.806969" xlink:href="#m4532521ef1" y="492.459771"/>
     <use style="fill:#ff0000;stroke:#ff0000;stroke-linejoin:miter;" x="333.2963" xlink:href="#m4532521ef1" y="492.48"/>
     <use style="fill:#ff0000;stroke:#ff0000;stroke-linejoin:miter;" x="343.631085" xlink:href="#m4532521ef1" y="281.951776"/>
     <use style="fill:#ff0000;stroke:#ff0000;stroke-linejoin:miter;" x="353.602725" xlink:href="#m4532521ef1" y="282.154259"/>
     <use style="fill:#ff0000;stroke:#ff0000;stroke-linejoin:miter;" x="364.104998" xlink:href="#m4532521ef1" y="282.483756"/>
     <use style="fill:#ff0000;stroke:#ff0000;stroke-linejoin:miter;" x="374.400194" xlink:href="#m4532521ef1" y="282.775324"/>
     <use style="fill:#ff0000;stroke:#ff0000;stroke-linejoin:miter;" x="384.362698" xlink:href="#m4532521ef1" y="281.860357"/>
     <use style="fill:#ff0000;stroke:#ff0000;stroke-linejoin:miter;" x="394.923592" xlink:href="#m4532521ef1" y="282.211834"/>
     <use style="fill:#ff0000;stroke:#ff0000;stroke-linejoin:miter;" x="405.216505" xlink:href="#m4532521ef1" y="282.496205"/>
     <use style="fill:#ff0000;stroke:#ff0000;stroke-linejoin:miter;" x="415.188906" xlink:href="#m4532521ef1" y="282.704718"/>
     <use style="fill:#ff0000;stroke:#ff0000;stroke-linejoin:miter;" x="425.766549" xlink:href="#m4532521ef1" y="283.062613"/>
     <use style="fill:#ff0000;stroke:#ff0000;stroke-linejoin:miter;" x="435.943742" xlink:href="#m4532521ef1" y="283.322671"/>
     <use style="fill:#ff0000;stroke:#ff0000;stroke-linejoin:miter;" x="445.933654" xlink:href="#m4532521ef1" y="283.531573"/>
     <use style="fill:#ff0000;stroke:#ff0000;stroke-linejoin:miter;" x="456.38568" xlink:href="#m4532521ef1" y="283.856402"/>
     <use style="fill:#ff0000;stroke:#ff0000;stroke-linejoin:miter;" x="466.693819" xlink:href="#m4532521ef1" y="284.140967"/>
     <use style="fill:#ff0000;stroke:#ff0000;stroke-linejoin:miter;" x="476.684492" xlink:href="#m4532521ef1" y="284.35551"/>
     <use style="fill:#ff0000;stroke:#ff0000;stroke-linejoin:miter;" x="487.194378" xlink:href="#m4532521ef1" y="284.687147"/>
     <use style="fill:#ff0000;stroke:#ff0000;stroke-linejoin:miter;" x="497.44618" xlink:href="#m4532521ef1" y="284.962765"/>
     <use style="fill:#ff0000;stroke:#ff0000;stroke-linejoin:miter;" x="507.420865" xlink:href="#m4532521ef1" y="285.176919"/>
     <use style="fill:#ff0000;stroke:#ff0000;stroke-linejoin:miter;" x="517.864517" xlink:href="#m4532521ef1" y="285.50272"/>
     <use style="fill:#ff0000;stroke:#ff0000;stroke-linejoin:miter;" x="528.11708" xlink:href="#m4532521ef1" y="285.781451"/>
     <use style="fill:#ff0000;stroke:#ff0000;stroke-linejoin:miter;" x="538.060551" xlink:href="#m4532521ef1" y="285.974014"/>
     <use style="fill:#ff0000;stroke:#ff0000;stroke-linejoin:miter;" x="548.610787" xlink:href="#m4532521ef1" y="286.246325"/>
     <use style="fill:#ff0000;stroke:#ff0000;stroke-linejoin:miter;" x="558.858782" xlink:href="#m4532521ef1" y="286.602859"/>
     <use style="fill:#ff0000;stroke:#ff0000;stroke-linejoin:miter;" x="568.809867" xlink:href="#m4532521ef1" y="286.740182"/>
     <use style="fill:#ff0000;stroke:#ff0000;stroke-linejoin:miter;" x="579.478867" xlink:href="#m4532521ef1" y="287.181327"/>
     <use style="fill:#ff0000;stroke:#ff0000;stroke-linejoin:miter;" x="589.570032" xlink:href="#m4532521ef1" y="287.414153"/>
     <use style="fill:#ff0000;stroke:#ff0000;stroke-linejoin:miter;" x="599.543195" xlink:href="#m4532521ef1" y="287.618387"/>
     <use style="fill:#ff0000;stroke:#ff0000;stroke-linejoin:miter;" x="610.113986" xlink:href="#m4532521ef1" y="287.979784"/>
     <use style="fill:#ff0000;stroke:#ff0000;stroke-linejoin:miter;" x="620.352084" xlink:href="#m4532521ef1" y="288.164761"/>
     <use style="fill:#ff0000;stroke:#ff0000;stroke-linejoin:miter;" x="630.267387" xlink:href="#m4532521ef1" y="288.434544"/>
     <use style="fill:#ff0000;stroke:#ff0000;stroke-linejoin:miter;" x="640.838178" xlink:href="#m4532521ef1" y="288.796913"/>
     <use style="fill:#ff0000;stroke:#ff0000;stroke-linejoin:miter;" x="651.088457" xlink:href="#m4532521ef1" y="289.071948"/>
     <use style="fill:#ff0000;stroke:#ff0000;stroke-linejoin:miter;" x="661.063903" xlink:href="#m4532521ef1" y="289.283767"/>
     <use style="fill:#ff0000;stroke:#ff0000;stroke-linejoin:miter;" x="671.769446" xlink:href="#m4532521ef1" y="289.602761"/>
     <use style="fill:#ff0000;stroke:#ff0000;stroke-linejoin:miter;" x="681.838534" xlink:href="#m4532521ef1" y="289.88402"/>
     <use style="fill:#ff0000;stroke:#ff0000;stroke-linejoin:miter;" x="691.769824" xlink:href="#m4532521ef1" y="290.098563"/>
     <use style="fill:#ff0000;stroke:#ff0000;stroke-linejoin:miter;" x="702.314731" xlink:href="#m4532521ef1" y="290.443621"/>
     <use style="fill:#ff0000;stroke:#ff0000;stroke-linejoin:miter;" x="712.572623" xlink:href="#m4532521ef1" y="290.703873"/>
     <use style="fill:#ff0000;stroke:#ff0000;stroke-linejoin:miter;" x="722.586896" xlink:href="#m4532521ef1" y="290.940589"/>
     <use style="fill:#ff0000;stroke:#ff0000;stroke-linejoin:miter;" x="733.105157" xlink:href="#m4532521ef1" y="291.268919"/>
     <use style="fill:#ff0000;stroke:#ff0000;stroke-linejoin:miter;" x="743.271692" xlink:href="#m4532521ef1" y="291.537146"/>
     <use style="fill:#ff0000;stroke:#ff0000;stroke-linejoin:miter;" x="753.23648" xlink:href="#m4532521ef1" y="291.74138"/>
     <use style="fill:#ff0000;stroke:#ff0000;stroke-linejoin:miter;" x="763.895583" xlink:href="#m4532521ef1" y="292.107056"/>
     <use style="fill:#ff0000;stroke:#ff0000;stroke-linejoin:miter;" x="773.992839" xlink:href="#m4532521ef1" y="292.355054"/>
     <use style="fill:#ff0000;stroke:#ff0000;stroke-linejoin:miter;" x="783.967524" xlink:href="#m4532521ef1" y="292.557926"/>
     <use style="fill:#ff0000;stroke:#ff0000;stroke-linejoin:miter;" x="794.52385" xlink:href="#m4532521ef1" y="292.913682"/>
     <use style="fill:#ff0000;stroke:#ff0000;stroke-linejoin:miter;" x="804.792401" xlink:href="#m4532521ef1" y="293.195719"/>
     <use style="fill:#ff0000;stroke:#ff0000;stroke-linejoin:miter;" x="814.886611" xlink:href="#m4532521ef1" y="293.419792"/>
     <use style="fill:#ff0000;stroke:#ff0000;stroke-linejoin:miter;" x="825.359193" xlink:href="#m4532521ef1" y="293.760377"/>
     <use style="fill:#ff0000;stroke:#ff0000;stroke-linejoin:miter;" x="835.524206" xlink:href="#m4532521ef1" y="293.97667"/>
     <use style="fill:#ff0000;stroke:#ff0000;stroke-linejoin:miter;" x="845.559034" xlink:href="#m4532521ef1" y="294.234977"/>
     <use style="fill:#ff0000;stroke:#ff0000;stroke-linejoin:miter;" x="856.125257" xlink:href="#m4532521ef1" y="294.591705"/>
     <use style="fill:#ff0000;stroke:#ff0000;stroke-linejoin:miter;" x="866.33062" xlink:href="#m4532521ef1" y="294.835619"/>
     <use style="fill:#ff0000;stroke:#ff0000;stroke-linejoin:miter;" x="876.391333" xlink:href="#m4532521ef1" y="295.082839"/>
     <use style="fill:#ff0000;stroke:#ff0000;stroke-linejoin:miter;" x="886.73373" xlink:href="#m4532521ef1" y="295.350677"/>
     <use style="fill:#ff0000;stroke:#ff0000;stroke-linejoin:miter;" x="897.095161" xlink:href="#m4532521ef1" y="295.688149"/>
     <use style="fill:#ff0000;stroke:#ff0000;stroke-linejoin:miter;" x="907.215256" xlink:href="#m4532521ef1" y="295.929533"/>
     <use style="fill:#ff0000;stroke:#ff0000;stroke-linejoin:miter;" x="917.539383" xlink:href="#m4532521ef1" y="296.190174"/>
     <use style="fill:#ff0000;stroke:#ff0000;stroke-linejoin:miter;" x="927.769868" xlink:href="#m4532521ef1" y="296.466571"/>
     <use style="fill:#ff0000;stroke:#ff0000;stroke-linejoin:miter;" x="937.786425" xlink:href="#m4532521ef1" y="296.691617"/>
     <use style="fill:#ff0000;stroke:#ff0000;stroke-linejoin:miter;" x="948.345796" xlink:href="#m4532521ef1" y="297.045622"/>
     <use style="fill:#ff0000;stroke:#ff0000;stroke-linejoin:miter;" x="958.583134" xlink:href="#m4532521ef1" y="297.336607"/>
     <use style="fill:#ff0000;stroke:#ff0000;stroke-linejoin:miter;" x="968.550206" xlink:href="#m4532521ef1" y="297.528586"/>
     <use style="fill:#ff0000;stroke:#ff0000;stroke-linejoin:miter;" x="979.014413" xlink:href="#m4532521ef1" y="297.871893"/>
     <use style="fill:#ff0000;stroke:#ff0000;stroke-linejoin:miter;" x="989.351482" xlink:href="#m4532521ef1" y="298.166379"/>
     <use style="fill:#ff0000;stroke:#ff0000;stroke-linejoin:miter;" x="999.336825" xlink:href="#m4532521ef1" y="298.351162"/>
     <use style="fill:#ff0000;stroke:#ff0000;stroke-linejoin:miter;" x="1009.833008" xlink:href="#m4532521ef1" y="298.711391"/>
     <use style="fill:#ff0000;stroke:#ff0000;stroke-linejoin:miter;" x="1020.070345" xlink:href="#m4532521ef1" y="298.981369"/>
     <use style="fill:#ff0000;stroke:#ff0000;stroke-linejoin:miter;" x="1030.007726" xlink:href="#m4532521ef1" y="299.16693"/>
     <use style="fill:#ff0000;stroke:#ff0000;stroke-linejoin:miter;" x="1040.632569" xlink:href="#m4532521ef1" y="299.539024"/>
     <use style="fill:#ff0000;stroke:#ff0000;stroke-linejoin:miter;" x="1050.796059" xlink:href="#m4532521ef1" y="299.7878"/>
     <use style="fill:#ff0000;stroke:#ff0000;stroke-linejoin:miter;" x="1060.755518" xlink:href="#m4532521ef1" y="300.002927"/>
     <use style="fill:#ff0000;stroke:#ff0000;stroke-linejoin:miter;" x="1071.258553" xlink:href="#m4532521ef1" y="300.342927"/>
     <use style="fill:#ff0000;stroke:#ff0000;stroke-linejoin:miter;" x="1081.541568" xlink:href="#m4532521ef1" y="300.582561"/>
     <use style="fill:#ff0000;stroke:#ff0000;stroke-linejoin:miter;" x="1091.504072" xlink:href="#m4532521ef1" y="300.829782"/>
     <use style="fill:#ff0000;stroke:#ff0000;stroke-linejoin:miter;" x="1101.988835" xlink:href="#m4532521ef1" y="301.162974"/>
     <use style="fill:#ff0000;stroke:#ff0000;stroke-linejoin:miter;" x="1112.278703" xlink:href="#m4532521ef1" y="89.28"/>
     <use style="fill:#ff0000;stroke:#ff0000;stroke-linejoin:miter;" x="1122.248059" xlink:href="#m4532521ef1" y="89.474508"/>
     <use style="fill:#ff0000;stroke:#ff0000;stroke-linejoin:miter;" x="1132.827224" xlink:href="#m4532521ef1" y="89.839211"/>
     <use style="fill:#ff0000;stroke:#ff0000;stroke-linejoin:miter;" x="1143.007463" xlink:href="#m4532521ef1" y="90.097129"/>
     <use style="fill:#ff0000;stroke:#ff0000;stroke-linejoin:miter;" x="1153.030872" xlink:href="#m4532521ef1" y="90.30253"/>
     <use style="fill:#ff0000;stroke:#ff0000;stroke-linejoin:miter;" x="1163.53619" xlink:href="#m4532521ef1" y="90.656146"/>
     <use style="fill:#ff0000;stroke:#ff0000;stroke-linejoin:miter;" x="1173.954719" xlink:href="#m4532521ef1" y="90.978058"/>
     <use style="fill:#ff0000;stroke:#ff0000;stroke-linejoin:miter;" x="1184.103744" xlink:href="#m4532521ef1" y="91.222555"/>
     <use style="fill:#ff0000;stroke:#ff0000;stroke-linejoin:miter;" x="1194.367727" xlink:href="#m4532521ef1" y="91.496617"/>
     <use style="fill:#ff0000;stroke:#ff0000;stroke-linejoin:miter;" x="1204.617245" xlink:href="#m4532521ef1" y="91.778654"/>
     <use style="fill:#ff0000;stroke:#ff0000;stroke-linejoin:miter;" x="1214.599543" xlink:href="#m4532521ef1" y="91.986389"/>
     <use style="fill:#ff0000;stroke:#ff0000;stroke-linejoin:miter;" x="1225.027207" xlink:href="#m4532521ef1" y="92.297602"/>
     <use style="fill:#ff0000;stroke:#ff0000;stroke-linejoin:miter;" x="1235.283577" xlink:href="#m4532521ef1" y="92.586058"/>
     <use style="fill:#ff0000;stroke:#ff0000;stroke-linejoin:miter;" x="1245.272727" xlink:href="#m4532521ef1" y="92.616401"/>
    </g>
   </g>
   <g id="line2d_13">
    <path clip-path="url(#p3fb05e42b8)" d="M 230.727273 492.465023 
L 240.960042 492.427483 
L 251.275794 492.466968 
L 261.288545 492.471053 
L 271.881413 492.461327 
L 282.185746 492.473192 
L 292.172612 492.473192 
L 302.531758 492.459382 
L 312.842181 492.460938 
L 322.806969 492.459771 
L 333.2963 492.48 
L 343.631085 281.951776 
L 353.602725 282.154259 
L 364.104998 282.483756 
L 374.400194 282.775324 
L 1101.988835 301.162974 
L 1245.272727 92.616401 
" style="fill:none;stroke:#800080;stroke-dasharray:9.6,2.4,1.5,2.4;stroke-dashoffset:0;stroke-width:1.5;"/>
    <defs>
     <path d="M -3 3 
L 3 -3 
M -3 -3 
L 3 3 
" id="mf2b04dc114" style="stroke:#800080;"/>
    </defs>
    <g clip-path="url(#p3fb05e42b8)">
     <use style="fill:#800080;stroke:#800080;" x="230.727273" xlink:href="#mf2b04dc114" y="492.465023"/>
     <use style="fill:#800080;stroke:#800080;" x="240.960042" xlink:href="#mf2b04dc114" y="492.427483"/>
     <use style="fill:#800080;stroke:#800080;" x="251.275794" xlink:href="#mf2b04dc114" y="492.466968"/>
     <use style="fill:#800080;stroke:#800080;" x="261.288545" xlink:href="#mf2b04dc114" y="492.471053"/>
     <use style="fill:#800080;stroke:#800080;" x="271.881413" xlink:href="#mf2b04dc114" y="492.461327"/>
     <use style="fill:#800080;stroke:#800080;" x="282.185746" xlink:href="#mf2b04dc114" y="492.473192"/>
     <use style="fill:#800080;stroke:#800080;" x="292.172612" xlink:href="#mf2b04dc114" y="492.473192"/>
     <use style="fill:#800080;stroke:#800080;" x="302.531758" xlink:href="#mf2b04dc114" y="492.459382"/>
     <use style="fill:#800080;stroke:#800080;" x="312.842181" xlink:href="#mf2b04dc114" y="492.460938"/>
     <use style="fill:#800080;stroke:#800080;" x="322.806969" xlink:href="#mf2b04dc114" y="492.459771"/>
     <use style="fill:#800080;stroke:#800080;" x="333.2963" xlink:href="#mf2b04dc114" y="492.48"/>
     <use style="fill:#800080;stroke:#800080;" x="343.631085" xlink:href="#mf2b04dc114" y="281.951776"/>
     <use style="fill:#800080;stroke:#800080;" x="353.602725" xlink:href="#mf2b04dc114" y="282.154259"/>
     <use style="fill:#800080;stroke:#800080;" x="364.104998" xlink:href="#mf2b04dc114" y="282.483756"/>
     <use style="fill:#800080;stroke:#800080;" x="374.400194" xlink:href="#mf2b04dc114" y="282.775324"/>
     <use style="fill:#800080;stroke:#800080;" x="1101.988835" xlink:href="#mf2b04dc114" y="301.162974"/>
     <use style="fill:#800080;stroke:#800080;" x="1245.272727" xlink:href="#mf2b04dc114" y="92.616401"/>
    </g>
   </g>
   <g id="line2d_14">
    <path clip-path="url(#p3fb05e42b8)" d="M 230.727273 462.670234 
L 240.960042 459.474784 
L 251.275794 456.253421 
L 261.288545 453.126677 
L 271.881413 449.818776 
L 282.185746 446.600979 
L 292.172612 443.482318 
L 302.531758 440.247403 
L 312.842181 437.027704 
L 322.806969 433.915938 
L 333.2963 430.64037 
L 343.631085 427.413063 
L 353.602725 424.299157 
L 364.104998 421.019547 
L 374.400194 417.804602 
L 1101.988835 190.595997 
L 1245.272727 145.85185 
" style="fill:none;stroke:#0000ff;stroke-linecap:square;stroke-width:1.5;"/>
   </g>
   <g id="line2d_15">
    <path clip-path="url(#p3fb05e42b8)" d="M 230.727273 410.751465 
L 240.960042 410.717993 
L 251.275794 410.684249 
L 261.288545 410.651496 
L 271.881413 410.616845 
L 282.185746 410.583139 
L 292.172612 410.550471 
L 302.531758 410.516585 
L 312.842181 410.482858 
L 322.806969 410.450262 
L 333.2963 410.415951 
L 343.631085 410.382144 
L 353.602725 410.349526 
L 364.104998 410.315172 
L 374.400194 410.281495 
L 1101.988835 407.901472 
L 1245.272727 407.432774 
" style="fill:none;stroke:#008000;stroke-linecap:square;stroke-width:1.5;"/>
    <defs>
     <path d="M 0 3 
C 0.795609 3 1.55874 2.683901 2.12132 2.12132 
C 2.683901 1.55874 3 0.795609 3 0 
C 3 -0.795609 2.683901 -1.55874 2.12132 -2.12132 
C 1.55874 -2.683901 0.795609 -3 0 -3 
C -0.795609 -3 -1.55874 -2.683901 -2.12132 -2.12132 
C -2.683901 -1.55874 -3 -0.795609 -3 0 
C -3 0.795609 -2.683901 1.55874 -2.12132 2.12132 
C -1.55874 2.683901 -0.795609 3 0 3 
z
" id="mfa77d3217c" style="stroke:#008000;"/>
    </defs>
    <g clip-path="url(#p3fb05e42b8)">
     <use style="fill:#008000;stroke:#008000;" x="230.727273" xlink:href="#mfa77d3217c" y="410.751465"/>
     <use style="fill:#008000;stroke:#008000;" x="240.960042" xlink:href="#mfa77d3217c" y="410.717993"/>
     <use style="fill:#008000;stroke:#008000;" x="251.275794" xlink:href="#mfa77d3217c" y="410.684249"/>
     <use style="fill:#008000;stroke:#008000;" x="261.288545" xlink:href="#mfa77d3217c" y="410.651496"/>
     <use style="fill:#008000;stroke:#008000;" x="271.881413" xlink:href="#mfa77d3217c" y="410.616845"/>
     <use style="fill:#008000;stroke:#008000;" x="282.185746" xlink:href="#mfa77d3217c" y="410.583139"/>
     <use style="fill:#008000;stroke:#008000;" x="292.172612" xlink:href="#mfa77d3217c" y="410.550471"/>
     <use style="fill:#008000;stroke:#008000;" x="302.531758" xlink:href="#mfa77d3217c" y="410.516585"/>
     <use style="fill:#008000;stroke:#008000;" x="312.842181" xlink:href="#mfa77d3217c" y="410.482858"/>
     <use style="fill:#008000;stroke:#008000;" x="322.806969" xlink:href="#mfa77d3217c" y="410.450262"/>
     <use style="fill:#008000;stroke:#008000;" x="333.2963" xlink:href="#mfa77d3217c" y="410.415951"/>
     <use style="fill:#008000;stroke:#008000;" x="343.631085" xlink:href="#mfa77d3217c" y="410.382144"/>
     <use style="fill:#008000;stroke:#008000;" x="353.602725" xlink:href="#mfa77d3217c" y="410.349526"/>
     <use style="fill:#008000;stroke:#008000;" x="364.104998" xlink:href="#mfa77d3217c" y="410.315172"/>
     <use style="fill:#008000;stroke:#008000;" x="374.400194" xlink:href="#mfa77d3217c" y="410.281495"/>
     <use style="fill:#008000;stroke:#008000;" x="1101.988835" xlink:href="#mfa77d3217c" y="407.901472"/>
     <use style="fill:#008000;stroke:#008000;" x="1245.272727" xlink:href="#mfa77d3217c" y="407.432774"/>
    </g>
   </g>
   <g id="patch_3">
    <path d="M 180 512.64 
L 180 69.12 
" style="fill:none;stroke:#000000;stroke-linecap:square;stroke-linejoin:miter;stroke-width:0.8;"/>
   </g>
   <g id="patch_4">
    <path d="M 1296 512.64 
L 1296 69.12 
" style="fill:none;stroke:#000000;stroke-linecap:square;stroke-linejoin:miter;stroke-width:0.8;"/>
   </g>
   <g id="patch_5">
    <path d="M 180 512.64 
L 1296 512.64 
" style="fill:none;stroke:#000000;stroke-linecap:square;stroke-linejoin:miter;stroke-width:0.8;"/>
   </g>
   <g id="patch_6">
    <path d="M 180 69.12 
L 1296 69.12 
" style="fill:none;stroke:#000000;stroke-linecap:square;stroke-linejoin:miter;stroke-width:0.8;"/>
   </g>
   <g id="text_12">
    <!-- 500000.0 bit/s -->
    <defs>
     <path id="DejaVuSans-20"/>
     <path d="M 48.6875 27.296875 
Q 48.6875 37.203125 44.609375 42.84375 
Q 40.53125 48.484375 33.40625 48.484375 
Q 26.265625 48.484375 22.1875 42.84375 
Q 18.109375 37.203125 18.109375 27.296875 
Q 18.109375 17.390625 22.1875 11.75 
Q 26.265625 6.109375 33.40625 6.109375 
Q 40.53125 6.109375 44.609375 11.75 
Q 48.6875 17.390625 48.6875 27.296875 
z
M 18.109375 46.390625 
Q 20.953125 51.265625 25.265625 53.625 
Q 29.59375 56 35.59375 56 
Q 45.5625 56 51.78125 48.09375 
Q 58.015625 40.1875 58.015625 27.296875 
Q 58.015625 14.40625 51.78125 6.484375 
Q 45.5625 -1.421875 35.59375 -1.421875 
Q 29.59375 -1.421875 25.265625 0.953125 
Q 20.953125 3.328125 18.109375 8.203125 
L 18.109375 0 
L 9.078125 0 
L 9.078125 75.984375 
L 18.109375 75.984375 
z
" id="DejaVuSans-62"/>
     <path d="M 9.421875 54.6875 
L 18.40625 54.6875 
L 18.40625 0 
L 9.421875 0 
z
M 9.421875 75.984375 
L 18.40625 75.984375 
L 18.40625 64.59375 
L 9.421875 64.59375 
z
" id="DejaVuSans-69"/>
     <path d="M 18.3125 70.21875 
L 18.3125 54.6875 
L 36.8125 54.6875 
L 36.8125 47.703125 
L 18.3125 47.703125 
L 18.3125 18.015625 
Q 18.3125 11.328125 20.140625 9.421875 
Q 21.96875 7.515625 27.59375 7.515625 
L 36.8125 7.515625 
L 36.8125 0 
L 27.59375 0 
Q 17.1875 0 13.234375 3.875 
Q 9.28125 7.765625 9.28125 18.015625 
L 9.28125 47.703125 
L 2.6875 47.703125 
L 2.6875 54.6875 
L 9.28125 54.6875 
L 9.28125 70.21875 
z
" id="DejaVuSans-74"/>
     <path d="M 25.390625 72.90625 
L 33.6875 72.90625 
L 8.296875 -9.28125 
L 0 -9.28125 
z
" id="DejaVuSans-2f"/>
     <path d="M 44.28125 53.078125 
L 44.28125 44.578125 
Q 40.484375 46.53125 36.375 47.5 
Q 32.28125 48.484375 27.875 48.484375 
Q 21.1875 48.484375 17.84375 46.4375 
Q 14.5 44.390625 14.5 40.28125 
Q 14.5 37.15625 16.890625 35.375 
Q 19.28125 33.59375 26.515625 31.984375 
L 29.59375 31.296875 
Q 39.15625 29.25 43.1875 25.515625 
Q 47.21875 21.78125 47.21875 15.09375 
Q 47.21875 7.46875 41.1875 3.015625 
Q 35.15625 -1.421875 24.609375 -1.421875 
Q 20.21875 -1.421875 15.453125 -0.5625 
Q 10.6875 0.296875 5.421875 2 
L 5.421875 11.28125 
Q 10.40625 8.6875 15.234375 7.390625 
Q 20.0625 6.109375 24.8125 6.109375 
Q 31.15625 6.109375 34.5625 8.28125 
Q 37.984375 10.453125 37.984375 14.40625 
Q 37.984375 18.0625 35.515625 20.015625 
Q 33.0625 21.96875 24.703125 23.78125 
L 21.578125 24.515625 
Q 13.234375 26.265625 9.515625 29.90625 
Q 5.8125 33.546875 5.8125 39.890625 
Q 5.8125 47.609375 11.28125 51.796875 
Q 16.75 56 26.8125 56 
Q 31.78125 56 36.171875 55.265625 
Q 40.578125 54.546875 44.28125 53.078125 
z
" id="DejaVuSans-73"/>
    </defs>
    <g transform="translate(694.48875 63.12)scale(0.12 -0.12)">
     <use xlink:href="#DejaVuSans-35"/>
     <use x="63.623047" xlink:href="#DejaVuSans-30"/>
     <use x="127.246094" xlink:href="#DejaVuSans-30"/>
     <use x="190.869141" xlink:href="#DejaVuSans-30"/>
     <use x="254.492188" xlink:href="#DejaVuSans-30"/>
     <use x="318.115234" xlink:href="#DejaVuSans-30"/>
     <use x="381.738281" xlink:href="#DejaVuSans-2e"/>
     <use x="413.525391" xlink:href="#DejaVuSans-30"/>
     <use x="477.148438" xlink:href="#DejaVuSans-20"/>
     <use x="508.935547" xlink:href="#DejaVuSans-62"/>
     <use x="572.412109" xlink:href="#DejaVuSans-69"/>
     <use x="600.195312" xlink:href="#DejaVuSans-74"/>
     <use x="639.404297" xlink:href="#DejaVuSans-2f"/>
     <use x="673.095703" xlink:href="#DejaVuSans-73"/>
    </g>
   </g>
   <g id="legend_1">
    <g id="patch_7">
     <path d="M 1173.520313 135.8325 
L 1289 135.8325 
Q 1291 135.8325 1291 133.8325 
L 1291 76.12 
Q 1291 74.12 1289 74.12 
L 1173.520313 74.12 
Q 1171.520313 74.12 1171.520313 76.12 
L 1171.520313 133.8325 
Q 1171.520313 135.8325 1173.520313 135.8325 
z
" style="fill:#ffffff;opacity:0.8;stroke:#cccccc;stroke-linejoin:miter;"/>
    </g>
    <g id="line2d_16">
     <path d="M 1175.520313 82.218437 
L 1195.520313 82.218437 
" style="fill:none;stroke:#ff0000;stroke-dasharray:5.55,2.4;stroke-dashoffset:0;stroke-width:1.5;"/>
    </g>
    <g id="line2d_17">
     <g>
      <use style="fill:#ff0000;stroke:#ff0000;stroke-linejoin:miter;" x="1185.520313" xlink:href="#m4532521ef1" y="82.218437"/>
     </g>
    </g>
    <g id="text_13">
     <!-- tcpdump -->
     <defs>
      <path d="M 48.78125 52.59375 
L 48.78125 44.1875 
Q 44.96875 46.296875 41.140625 47.34375 
Q 37.3125 48.390625 33.40625 48.390625 
Q 24.65625 48.390625 19.8125 42.84375 
Q 14.984375 37.3125 14.984375 27.296875 
Q 14.984375 17.28125 19.8125 11.734375 
Q 24.65625 6.203125 33.40625 6.203125 
Q 37.3125 6.203125 41.140625 7.25 
Q 44.96875 8.296875 48.78125 10.40625 
L 48.78125 2.09375 
Q 45.015625 0.34375 40.984375 -0.53125 
Q 36.96875 -1.421875 32.421875 -1.421875 
Q 20.0625 -1.421875 12.78125 6.34375 
Q 5.515625 14.109375 5.515625 27.296875 
Q 5.515625 40.671875 12.859375 48.328125 
Q 20.21875 56 33.015625 56 
Q 37.15625 56 41.109375 55.140625 
Q 45.0625 54.296875 48.78125 52.59375 
z
" id="DejaVuSans-63"/>
      <path d="M 18.109375 8.203125 
L 18.109375 -20.796875 
L 9.078125 -20.796875 
L 9.078125 54.6875 
L 18.109375 54.6875 
L 18.109375 46.390625 
Q 20.953125 51.265625 25.265625 53.625 
Q 29.59375 56 35.59375 56 
Q 45.5625 56 51.78125 48.09375 
Q 58.015625 40.1875 58.015625 27.296875 
Q 58.015625 14.40625 51.78125 6.484375 
Q 45.5625 -1.421875 35.59375 -1.421875 
Q 29.59375 -1.421875 25.265625 0.953125 
Q 20.953125 3.328125 18.109375 8.203125 
z
M 48.6875 27.296875 
Q 48.6875 37.203125 44.609375 42.84375 
Q 40.53125 48.484375 33.40625 48.484375 
Q 26.265625 48.484375 22.1875 42.84375 
Q 18.109375 37.203125 18.109375 27.296875 
Q 18.109375 17.390625 22.1875 11.75 
Q 26.265625 6.109375 33.40625 6.109375 
Q 40.53125 6.109375 44.609375 11.75 
Q 48.6875 17.390625 48.6875 27.296875 
z
" id="DejaVuSans-70"/>
      <path d="M 45.40625 46.390625 
L 45.40625 75.984375 
L 54.390625 75.984375 
L 54.390625 0 
L 45.40625 0 
L 45.40625 8.203125 
Q 42.578125 3.328125 38.25 0.953125 
Q 33.9375 -1.421875 27.875 -1.421875 
Q 17.96875 -1.421875 11.734375 6.484375 
Q 5.515625 14.40625 5.515625 27.296875 
Q 5.515625 40.1875 11.734375 48.09375 
Q 17.96875 56 27.875 56 
Q 33.9375 56 38.25 53.625 
Q 42.578125 51.265625 45.40625 46.390625 
z
M 14.796875 27.296875 
Q 14.796875 17.390625 18.875 11.75 
Q 22.953125 6.109375 30.078125 6.109375 
Q 37.203125 6.109375 41.296875 11.75 
Q 45.40625 17.390625 45.40625 27.296875 
Q 45.40625 37.203125 41.296875 42.84375 
Q 37.203125 48.484375 30.078125 48.484375 
Q 22.953125 48.484375 18.875 42.84375 
Q 14.796875 37.203125 14.796875 27.296875 
z
" id="DejaVuSans-64"/>
      <path d="M 8.5 21.578125 
L 8.5 54.6875 
L 17.484375 54.6875 
L 17.484375 21.921875 
Q 17.484375 14.15625 20.5 10.265625 
Q 23.53125 6.390625 29.59375 6.390625 
Q 36.859375 6.390625 41.078125 11.03125 
Q 45.3125 15.671875 45.3125 23.6875 
L 45.3125 54.6875 
L 54.296875 54.6875 
L 54.296875 0 
L 45.3125 0 
L 45.3125 8.40625 
Q 42.046875 3.421875 37.71875 1 
Q 33.40625 -1.421875 27.6875 -1.421875 
Q 18.265625 -1.421875 13.375 4.4375 
Q 8.5 10.296875 8.5 21.578125 
z
M 31.109375 56 
z
" id="DejaVuSans-75"/>
      <path d="M 52 44.1875 
Q 55.375 50.25 60.0625 53.125 
Q 64.75 56 71.09375 56 
Q 79.640625 56 84.28125 50.015625 
Q 88.921875 44.046875 88.921875 33.015625 
L 88.921875 0 
L 79.890625 0 
L 79.890625 32.71875 
Q 79.890625 40.578125 77.09375 44.375 
Q 74.3125 48.1875 68.609375 48.1875 
Q 61.625 48.1875 57.5625 43.546875 
Q 53.515625 38.921875 53.515625 30.90625 
L 53.515625 0 
L 44.484375 0 
L 44.484375 32.71875 
Q 44.484375 40.625 41.703125 44.40625 
Q 38.921875 48.1875 33.109375 48.1875 
Q 26.21875 48.1875 22.15625 43.53125 
Q 18.109375 38.875 18.109375 30.90625 
L 18.109375 0 
L 9.078125 0 
L 9.078125 54.6875 
L 18.109375 54.6875 
L 18.109375 46.1875 
Q 21.1875 51.21875 25.484375 53.609375 
Q 29.78125 56 35.6875 56 
Q 41.65625 56 45.828125 52.96875 
Q 50 49.953125 52 44.1875 
z
" id="DejaVuSans-6d"/>
     </defs>
     <g transform="translate(1203.520313 85.718437)scale(0.1 -0.1)">
      <use xlink:href="#DejaVuSans-74"/>
      <use x="39.208984" xlink:href="#DejaVuSans-63"/>
      <use x="94.189453" xlink:href="#DejaVuSans-70"/>
      <use x="157.666016" xlink:href="#DejaVuSans-64"/>
      <use x="221.142578" xlink:href="#DejaVuSans-75"/>
      <use x="284.521484" xlink:href="#DejaVuSans-6d"/>
      <use x="381.933594" xlink:href="#DejaVuSans-70"/>
     </g>
    </g>
    <g id="line2d_18">
     <path d="M 1175.520313 96.896563 
L 1195.520313 96.896563 
" style="fill:none;stroke:#800080;stroke-dasharray:9.6,2.4,1.5,2.4;stroke-dashoffset:0;stroke-width:1.5;"/>
    </g>
    <g id="line2d_19">
     <g>
      <use style="fill:#800080;stroke:#800080;" x="1185.520313" xlink:href="#mf2b04dc114" y="96.896563"/>
     </g>
    </g>
    <g id="text_14">
     <!-- filtered tcpdump -->
     <defs>
      <path d="M 37.109375 75.984375 
L 37.109375 68.5 
L 28.515625 68.5 
Q 23.6875 68.5 21.796875 66.546875 
Q 19.921875 64.59375 19.921875 59.515625 
L 19.921875 54.6875 
L 34.71875 54.6875 
L 34.71875 47.703125 
L 19.921875 47.703125 
L 19.921875 0 
L 10.890625 0 
L 10.890625 47.703125 
L 2.296875 47.703125 
L 2.296875 54.6875 
L 10.890625 54.6875 
L 10.890625 58.5 
Q 10.890625 67.625 15.140625 71.796875 
Q 19.390625 75.984375 28.609375 75.984375 
z
" id="DejaVuSans-66"/>
      <path d="M 9.421875 75.984375 
L 18.40625 75.984375 
L 18.40625 0 
L 9.421875 0 
z
" id="DejaVuSans-6c"/>
      <path d="M 56.203125 29.59375 
L 56.203125 25.203125 
L 14.890625 25.203125 
Q 15.484375 15.921875 20.484375 11.0625 
Q 25.484375 6.203125 34.421875 6.203125 
Q 39.59375 6.203125 44.453125 7.46875 
Q 49.3125 8.734375 54.109375 11.28125 
L 54.109375 2.78125 
Q 49.265625 0.734375 44.1875 -0.34375 
Q 39.109375 -1.421875 33.890625 -1.421875 
Q 20.796875 -1.421875 13.15625 6.1875 
Q 5.515625 13.8125 5.515625 26.8125 
Q 5.515625 40.234375 12.765625 48.109375 
Q 20.015625 56 32.328125 56 
Q 43.359375 56 49.78125 48.890625 
Q 56.203125 41.796875 56.203125 29.59375 
z
M 47.21875 32.234375 
Q 47.125 39.59375 43.09375 43.984375 
Q 39.0625 48.390625 32.421875 48.390625 
Q 24.90625 48.390625 20.390625 44.140625 
Q 15.875 39.890625 15.1875 32.171875 
z
" id="DejaVuSans-65"/>
      <path d="M 41.109375 46.296875 
Q 39.59375 47.171875 37.8125 47.578125 
Q 36.03125 48 33.890625 48 
Q 26.265625 48 22.1875 43.046875 
Q 18.109375 38.09375 18.109375 28.8125 
L 18.109375 0 
L 9.078125 0 
L 9.078125 54.6875 
L 18.109375 54.6875 
L 18.109375 46.1875 
Q 20.953125 51.171875 25.484375 53.578125 
Q 30.03125 56 36.53125 56 
Q 37.453125 56 38.578125 55.875 
Q 39.703125 55.765625 41.0625 55.515625 
z
" id="DejaVuSans-72"/>
     </defs>
     <g transform="translate(1203.520313 100.396563)scale(0.1 -0.1)">
      <use xlink:href="#DejaVuSans-66"/>
      <use x="35.205078" xlink:href="#DejaVuSans-69"/>
      <use x="62.988281" xlink:href="#DejaVuSans-6c"/>
      <use x="90.771484" xlink:href="#DejaVuSans-74"/>
      <use x="129.980469" xlink:href="#DejaVuSans-65"/>
      <use x="191.503906" xlink:href="#DejaVuSans-72"/>
      <use x="232.585938" xlink:href="#DejaVuSans-65"/>
      <use x="294.109375" xlink:href="#DejaVuSans-64"/>
      <use x="357.585938" xlink:href="#DejaVuSans-20"/>
      <use x="389.373047" xlink:href="#DejaVuSans-74"/>
      <use x="428.582031" xlink:href="#DejaVuSans-63"/>
      <use x="483.5625" xlink:href="#DejaVuSans-70"/>
      <use x="547.039062" xlink:href="#DejaVuSans-64"/>
      <use x="610.515625" xlink:href="#DejaVuSans-75"/>
      <use x="673.894531" xlink:href="#DejaVuSans-6d"/>
      <use x="771.306641" xlink:href="#DejaVuSans-70"/>
     </g>
    </g>
    <g id="line2d_20">
     <path d="M 1175.520313 111.574687 
L 1195.520313 111.574687 
" style="fill:none;stroke:#0000ff;stroke-linecap:square;stroke-width:1.5;"/>
    </g>
    <g id="line2d_21"/>
    <g id="text_15">
     <!-- OLS -->
     <defs>
      <path d="M 39.40625 66.21875 
Q 28.65625 66.21875 22.328125 58.203125 
Q 16.015625 50.203125 16.015625 36.375 
Q 16.015625 22.609375 22.328125 14.59375 
Q 28.65625 6.59375 39.40625 6.59375 
Q 50.140625 6.59375 56.421875 14.59375 
Q 62.703125 22.609375 62.703125 36.375 
Q 62.703125 50.203125 56.421875 58.203125 
Q 50.140625 66.21875 39.40625 66.21875 
z
M 39.40625 74.21875 
Q 54.734375 74.21875 63.90625 63.9375 
Q 73.09375 53.65625 73.09375 36.375 
Q 73.09375 19.140625 63.90625 8.859375 
Q 54.734375 -1.421875 39.40625 -1.421875 
Q 24.03125 -1.421875 14.8125 8.828125 
Q 5.609375 19.09375 5.609375 36.375 
Q 5.609375 53.65625 14.8125 63.9375 
Q 24.03125 74.21875 39.40625 74.21875 
z
" id="DejaVuSans-4f"/>
      <path d="M 9.8125 72.90625 
L 19.671875 72.90625 
L 19.671875 8.296875 
L 55.171875 8.296875 
L 55.171875 0 
L 9.8125 0 
z
" id="DejaVuSans-4c"/>
      <path d="M 53.515625 70.515625 
L 53.515625 60.890625 
Q 47.90625 63.578125 42.921875 64.890625 
Q 37.9375 66.21875 33.296875 66.21875 
Q 25.25 66.21875 20.875 63.09375 
Q 16.5 59.96875 16.5 54.203125 
Q 16.5 49.359375 19.40625 46.890625 
Q 22.3125 44.4375 30.421875 42.921875 
L 36.375 41.703125 
Q 47.40625 39.59375 52.65625 34.296875 
Q 57.90625 29 57.90625 20.125 
Q 57.90625 9.515625 50.796875 4.046875 
Q 43.703125 -1.421875 29.984375 -1.421875 
Q 24.8125 -1.421875 18.96875 -0.25 
Q 13.140625 0.921875 6.890625 3.21875 
L 6.890625 13.375 
Q 12.890625 10.015625 18.65625 8.296875 
Q 24.421875 6.59375 29.984375 6.59375 
Q 38.421875 6.59375 43.015625 9.90625 
Q 47.609375 13.234375 47.609375 19.390625 
Q 47.609375 24.75 44.3125 27.78125 
Q 41.015625 30.8125 33.5 32.328125 
L 27.484375 33.5 
Q 16.453125 35.6875 11.515625 40.375 
Q 6.59375 45.0625 6.59375 53.421875 
Q 6.59375 63.09375 13.40625 68.65625 
Q 20.21875 74.21875 32.171875 74.21875 
Q 37.3125 74.21875 42.625 73.28125 
Q 47.953125 72.359375 53.515625 70.515625 
z
" id="DejaVuSans-53"/>
     </defs>
     <g transform="translate(1203.520313 115.074687)scale(0.1 -0.1)">
      <use xlink:href="#DejaVuSans-4f"/>
      <use x="78.710938" xlink:href="#DejaVuSans-4c"/>
      <use x="134.423828" xlink:href="#DejaVuSans-53"/>
     </g>
    </g>
    <g id="line2d_22">
     <path d="M 1175.520313 126.252813 
L 1195.520313 126.252813 
" style="fill:none;stroke:#008000;stroke-linecap:square;stroke-width:1.5;"/>
    </g>
    <g id="line2d_23">
     <g>
      <use style="fill:#008000;stroke:#008000;" x="1185.520313" xlink:href="#mfa77d3217c" y="126.252813"/>
     </g>
    </g>
    <g id="text_16">
     <!-- IRLS -->
     <defs>
      <path d="M 9.8125 72.90625 
L 19.671875 72.90625 
L 19.671875 0 
L 9.8125 0 
z
" id="DejaVuSans-49"/>
      <path d="M 44.390625 34.1875 
Q 47.5625 33.109375 50.5625 29.59375 
Q 53.5625 26.078125 56.59375 19.921875 
L 66.609375 0 
L 56 0 
L 46.6875 18.703125 
Q 43.0625 26.03125 39.671875 28.421875 
Q 36.28125 30.8125 30.421875 30.8125 
L 19.671875 30.8125 
L 19.671875 0 
L 9.8125 0 
L 9.8125 72.90625 
L 32.078125 72.90625 
Q 44.578125 72.90625 50.734375 67.671875 
Q 56.890625 62.453125 56.890625 51.90625 
Q 56.890625 45.015625 53.6875 40.46875 
Q 50.484375 35.9375 44.390625 34.1875 
z
M 19.671875 64.796875 
L 19.671875 38.921875 
L 32.078125 38.921875 
Q 39.203125 38.921875 42.84375 42.21875 
Q 46.484375 45.515625 46.484375 51.90625 
Q 46.484375 58.296875 42.84375 61.546875 
Q 39.203125 64.796875 32.078125 64.796875 
z
" id="DejaVuSans-52"/>
     </defs>
     <g transform="translate(1203.520313 129.752813)scale(0.1 -0.1)">
      <use xlink:href="#DejaVuSans-49"/>
      <use x="29.492188" xlink:href="#DejaVuSans-52"/>
      <use x="98.974609" xlink:href="#DejaVuSans-4c"/>
      <use x="154.6875" xlink:href="#DejaVuSans-53"/>
     </g>
    </g>
   </g>
  </g>
 </g>
 <defs>
  <clipPath id="p3fb05e42b8">
   <rect height="443.52" width="1116" x="180" y="69.12"/>
  </clipPath>
 </defs>
</svg>
