<?xml version="1.0" encoding="utf-8" standalone="no"?>
<!DOCTYPE svg PUBLIC "-//W3C//DTD SVG 1.1//EN"
  "http://www.w3.org/Graphics/SVG/1.1/DTD/svg11.dtd">
<!-- Created with matplotlib (http://matplotlib.org/) -->
<svg height="576pt" version="1.1" viewBox="0 0 1440 576" width="1440pt" xmlns="http://www.w3.org/2000/svg" xmlns:xlink="http://www.w3.org/1999/xlink">
 <defs>
  <style type="text/css">
*{stroke-linecap:butt;stroke-linejoin:round;}
  </style>
 </defs>
 <g id="figure_1">
  <g id="patch_1">
   <path d="M 0 576 
L 1440 576 
L 1440 0 
L 0 0 
z
" style="fill:#ffffff;"/>
  </g>
  <g id="axes_1">
   <g id="patch_2">
    <path d="M 180 512.64 
L 1296 512.64 
L 1296 69.12 
L 180 69.12 
z
" style="fill:#ffffff;"/>
   </g>
   <g id="matplotlib.axis_1">
    <g id="xtick_1">
     <g id="line2d_1">
      <defs>
       <path d="M 0 0 
L 0 3.5 
" id="mbe53566a49" style="stroke:#000000;stroke-width:0.8;"/>
      </defs>
      <g>
       <use style="stroke:#000000;stroke-width:0.8;" x="230.727273" xlink:href="#mbe53566a49" y="512.64"/>
      </g>
     </g>
     <g id="text_1">
      <!-- 0.00 -->
      <defs>
       <path d="M 31.78125 66.40625 
Q 24.171875 66.40625 20.328125 58.90625 
Q 16.5 51.421875 16.5 36.375 
Q 16.5 21.390625 20.328125 13.890625 
Q 24.171875 6.390625 31.78125 6.390625 
Q 39.453125 6.390625 43.28125 13.890625 
Q 47.125 21.390625 47.125 36.375 
Q 47.125 51.421875 43.28125 58.90625 
Q 39.453125 66.40625 31.78125 66.40625 
z
M 31.78125 74.21875 
Q 44.046875 74.21875 50.515625 64.515625 
Q 56.984375 54.828125 56.984375 36.375 
Q 56.984375 17.96875 50.515625 8.265625 
Q 44.046875 -1.421875 31.78125 -1.421875 
Q 19.53125 -1.421875 13.0625 8.265625 
Q 6.59375 17.96875 6.59375 36.375 
Q 6.59375 54.828125 13.0625 64.515625 
Q 19.53125 74.21875 31.78125 74.21875 
z
" id="DejaVuSans-30"/>
       <path d="M 10.6875 12.40625 
L 21 12.40625 
L 21 0 
L 10.6875 0 
z
" id="DejaVuSans-2e"/>
      </defs>
      <g transform="translate(219.59446 527.238438)scale(0.1 -0.1)">
       <use xlink:href="#DejaVuSans-30"/>
       <use x="63.623047" xlink:href="#DejaVuSans-2e"/>
       <use x="95.410156" xlink:href="#DejaVuSans-30"/>
       <use x="159.033203" xlink:href="#DejaVuSans-30"/>
      </g>
     </g>
    </g>
    <g id="xtick_2">
     <g id="line2d_2">
      <g>
       <use style="stroke:#000000;stroke-width:0.8;" x="434.786441" xlink:href="#mbe53566a49" y="512.64"/>
      </g>
     </g>
     <g id="text_2">
      <!-- 0.05 -->
      <defs>
       <path d="M 10.796875 72.90625 
L 49.515625 72.90625 
L 49.515625 64.59375 
L 19.828125 64.59375 
L 19.828125 46.734375 
Q 21.96875 47.46875 24.109375 47.828125 
Q 26.265625 48.1875 28.421875 48.1875 
Q 40.625 48.1875 47.75 41.5 
Q 54.890625 34.8125 54.890625 23.390625 
Q 54.890625 11.625 47.5625 5.09375 
Q 40.234375 -1.421875 26.90625 -1.421875 
Q 22.3125 -1.421875 17.546875 -0.640625 
Q 12.796875 0.140625 7.71875 1.703125 
L 7.71875 11.625 
Q 12.109375 9.234375 16.796875 8.0625 
Q 21.484375 6.890625 26.703125 6.890625 
Q 35.15625 6.890625 40.078125 11.328125 
Q 45.015625 15.765625 45.015625 23.390625 
Q 45.015625 31 40.078125 35.4375 
Q 35.15625 39.890625 26.703125 39.890625 
Q 22.75 39.890625 18.8125 39.015625 
Q 14.890625 38.140625 10.796875 36.28125 
z
" id="DejaVuSans-35"/>
      </defs>
      <g transform="translate(423.653629 527.238438)scale(0.1 -0.1)">
       <use xlink:href="#DejaVuSans-30"/>
       <use x="63.623047" xlink:href="#DejaVuSans-2e"/>
       <use x="95.410156" xlink:href="#DejaVuSans-30"/>
       <use x="159.033203" xlink:href="#DejaVuSans-35"/>
      </g>
     </g>
    </g>
    <g id="xtick_3">
     <g id="line2d_3">
      <g>
       <use style="stroke:#000000;stroke-width:0.8;" x="638.845609" xlink:href="#mbe53566a49" y="512.64"/>
      </g>
     </g>
     <g id="text_3">
      <!-- 0.10 -->
      <defs>
       <path d="M 12.40625 8.296875 
L 28.515625 8.296875 
L 28.515625 63.921875 
L 10.984375 60.40625 
L 10.984375 69.390625 
L 28.421875 72.90625 
L 38.28125 72.90625 
L 38.28125 8.296875 
L 54.390625 8.296875 
L 54.390625 0 
L 12.40625 0 
z
" id="DejaVuSans-31"/>
      </defs>
      <g transform="translate(627.712797 527.238438)scale(0.1 -0.1)">
       <use xlink:href="#DejaVuSans-30"/>
       <use x="63.623047" xlink:href="#DejaVuSans-2e"/>
       <use x="95.410156" xlink:href="#DejaVuSans-31"/>
       <use x="159.033203" xlink:href="#DejaVuSans-30"/>
      </g>
     </g>
    </g>
    <g id="xtick_4">
     <g id="line2d_4">
      <g>
       <use style="stroke:#000000;stroke-width:0.8;" x="842.904778" xlink:href="#mbe53566a49" y="512.64"/>
      </g>
     </g>
     <g id="text_4">
      <!-- 0.15 -->
      <g transform="translate(831.771965 527.238438)scale(0.1 -0.1)">
       <use xlink:href="#DejaVuSans-30"/>
       <use x="63.623047" xlink:href="#DejaVuSans-2e"/>
       <use x="95.410156" xlink:href="#DejaVuSans-31"/>
       <use x="159.033203" xlink:href="#DejaVuSans-35"/>
      </g>
     </g>
    </g>
    <g id="xtick_5">
     <g id="line2d_5">
      <g>
       <use style="stroke:#000000;stroke-width:0.8;" x="1046.963946" xlink:href="#mbe53566a49" y="512.64"/>
      </g>
     </g>
     <g id="text_5">
      <!-- 0.20 -->
      <defs>
       <path d="M 19.1875 8.296875 
L 53.609375 8.296875 
L 53.609375 0 
L 7.328125 0 
L 7.328125 8.296875 
Q 12.9375 14.109375 22.625 23.890625 
Q 32.328125 33.6875 34.8125 36.53125 
Q 39.546875 41.84375 41.421875 45.53125 
Q 43.3125 49.21875 43.3125 52.78125 
Q 43.3125 58.59375 39.234375 62.25 
Q 35.15625 65.921875 28.609375 65.921875 
Q 23.96875 65.921875 18.8125 64.3125 
Q 13.671875 62.703125 7.8125 59.421875 
L 7.8125 69.390625 
Q 13.765625 71.78125 18.9375 73 
Q 24.125 74.21875 28.421875 74.21875 
Q 39.75 74.21875 46.484375 68.546875 
Q 53.21875 62.890625 53.21875 53.421875 
Q 53.21875 48.921875 51.53125 44.890625 
Q 49.859375 40.875 45.40625 35.40625 
Q 44.1875 33.984375 37.640625 27.21875 
Q 31.109375 20.453125 19.1875 8.296875 
z
" id="DejaVuSans-32"/>
      </defs>
      <g transform="translate(1035.831134 527.238438)scale(0.1 -0.1)">
       <use xlink:href="#DejaVuSans-30"/>
       <use x="63.623047" xlink:href="#DejaVuSans-2e"/>
       <use x="95.410156" xlink:href="#DejaVuSans-32"/>
       <use x="159.033203" xlink:href="#DejaVuSans-30"/>
      </g>
     </g>
    </g>
    <g id="xtick_6">
     <g id="line2d_6">
      <g>
       <use style="stroke:#000000;stroke-width:0.8;" x="1251.023115" xlink:href="#mbe53566a49" y="512.64"/>
      </g>
     </g>
     <g id="text_6">
      <!-- 0.25 -->
      <g transform="translate(1239.890302 527.238438)scale(0.1 -0.1)">
       <use xlink:href="#DejaVuSans-30"/>
       <use x="63.623047" xlink:href="#DejaVuSans-2e"/>
       <use x="95.410156" xlink:href="#DejaVuSans-32"/>
       <use x="159.033203" xlink:href="#DejaVuSans-35"/>
      </g>
     </g>
    </g>
   </g>
   <g id="matplotlib.axis_2">
    <g id="ytick_1">
     <g id="line2d_7">
      <defs>
       <path d="M 0 0 
L -3.5 0 
" id="m53ee408c54" style="stroke:#000000;stroke-width:0.8;"/>
      </defs>
      <g>
       <use style="stroke:#000000;stroke-width:0.8;" x="180" xlink:href="#m53ee408c54" y="463.29746"/>
      </g>
     </g>
     <g id="text_7">
      <!-- 1.0 -->
      <g transform="translate(157.096875 467.096679)scale(0.1 -0.1)">
       <use xlink:href="#DejaVuSans-31"/>
       <use x="63.623047" xlink:href="#DejaVuSans-2e"/>
       <use x="95.410156" xlink:href="#DejaVuSans-30"/>
      </g>
     </g>
    </g>
    <g id="ytick_2">
     <g id="line2d_8">
      <g>
       <use style="stroke:#000000;stroke-width:0.8;" x="180" xlink:href="#m53ee408c54" y="378.84081"/>
      </g>
     </g>
     <g id="text_8">
      <!-- 1.5 -->
      <g transform="translate(157.096875 382.640028)scale(0.1 -0.1)">
       <use xlink:href="#DejaVuSans-31"/>
       <use x="63.623047" xlink:href="#DejaVuSans-2e"/>
       <use x="95.410156" xlink:href="#DejaVuSans-35"/>
      </g>
     </g>
    </g>
    <g id="ytick_3">
     <g id="line2d_9">
      <g>
       <use style="stroke:#000000;stroke-width:0.8;" x="180" xlink:href="#m53ee408c54" y="294.384159"/>
      </g>
     </g>
     <g id="text_9">
      <!-- 2.0 -->
      <g transform="translate(157.096875 298.183378)scale(0.1 -0.1)">
       <use xlink:href="#DejaVuSans-32"/>
       <use x="63.623047" xlink:href="#DejaVuSans-2e"/>
       <use x="95.410156" xlink:href="#DejaVuSans-30"/>
      </g>
     </g>
    </g>
    <g id="ytick_4">
     <g id="line2d_10">
      <g>
       <use style="stroke:#000000;stroke-width:0.8;" x="180" xlink:href="#m53ee408c54" y="209.927508"/>
      </g>
     </g>
     <g id="text_10">
      <!-- 2.5 -->
      <g transform="translate(157.096875 213.726727)scale(0.1 -0.1)">
       <use xlink:href="#DejaVuSans-32"/>
       <use x="63.623047" xlink:href="#DejaVuSans-2e"/>
       <use x="95.410156" xlink:href="#DejaVuSans-35"/>
      </g>
     </g>
    </g>
    <g id="ytick_5">
     <g id="line2d_11">
      <g>
       <use style="stroke:#000000;stroke-width:0.8;" x="180" xlink:href="#m53ee408c54" y="125.470857"/>
      </g>
     </g>
     <g id="text_11">
      <!-- 3.0 -->
      <defs>
       <path d="M 40.578125 39.3125 
Q 47.65625 37.796875 51.625 33 
Q 55.609375 28.21875 55.609375 21.1875 
Q 55.609375 10.40625 48.1875 4.484375 
Q 40.765625 -1.421875 27.09375 -1.421875 
Q 22.515625 -1.421875 17.65625 -0.515625 
Q 12.796875 0.390625 7.625 2.203125 
L 7.625 11.71875 
Q 11.71875 9.328125 16.59375 8.109375 
Q 21.484375 6.890625 26.8125 6.890625 
Q 36.078125 6.890625 40.9375 10.546875 
Q 45.796875 14.203125 45.796875 21.1875 
Q 45.796875 27.640625 41.28125 31.265625 
Q 36.765625 34.90625 28.71875 34.90625 
L 20.21875 34.90625 
L 20.21875 43.015625 
L 29.109375 43.015625 
Q 36.375 43.015625 40.234375 45.921875 
Q 44.09375 48.828125 44.09375 54.296875 
Q 44.09375 59.90625 40.109375 62.90625 
Q 36.140625 65.921875 28.71875 65.921875 
Q 24.65625 65.921875 20.015625 65.03125 
Q 15.375 64.15625 9.8125 62.3125 
L 9.8125 71.09375 
Q 15.4375 72.65625 20.34375 73.4375 
Q 25.25 74.21875 29.59375 74.21875 
Q 40.828125 74.21875 47.359375 69.109375 
Q 53.90625 64.015625 53.90625 55.328125 
Q 53.90625 49.265625 50.4375 45.09375 
Q 46.96875 40.921875 40.578125 39.3125 
z
" id="DejaVuSans-33"/>
      </defs>
      <g transform="translate(157.096875 129.270076)scale(0.1 -0.1)">
       <use xlink:href="#DejaVuSans-33"/>
       <use x="63.623047" xlink:href="#DejaVuSans-2e"/>
       <use x="95.410156" xlink:href="#DejaVuSans-30"/>
      </g>
     </g>
    </g>
   </g>
   <g id="line2d_12">
    <path clip-path="url(#p776a4c0a39)" d="M 230.727273 431.832459 
L 248.986487 430.557671 
L 257.724301 428.885091 
L 271.306479 427.412843 
L 279.668824 425.723879 
L 289.920756 424.111939 
L 298.250452 422.422637 
L 311.322482 420.928092 
L 320.158244 419.259229 
L 330.675453 417.658607 
L 339.025555 415.970318 
L 352.49346 414.491482 
L 361.055782 412.810119 
L 371.556667 411.211693 
L 379.898606 409.521208 
L 393.015529 408.028184 
L 401.688044 406.352395 
L 412.168523 404.749745 
L 420.53903 403.063484 
L 433.847769 401.579412 
L 442.295819 399.892812 
L 450.723462 398.205706 
L 461.122317 396.599341 
L 474.239241 395.110877 
L 482.940324 393.434412 
L 491.335318 391.747644 
L 499.958858 390.069321 
L 508.113063 388.368702 
L 518.046663 386.747134 
L 526.453901 385.061549 
L 537.07314 383.465487 
L 545.304887 381.770949 
L 558.458541 380.277248 
L 567.078 378.59673 
L 579.288901 377.072963 
L 587.716544 375.385857 
L 600.494729 373.879319 
L 608.865236 372.191031 
L 619.508963 370.594462 
L 627.94885 368.91141 
L 641.535109 367.438317 
L 649.889292 365.74834 
L 660.724834 364.15667 
L 669.083097 362.470408 
L 682.82036 361.006099 
L 691.19903 359.318824 
L 701.855 357.724282 
L 710.327536 356.038527 
L 723.844415 354.56307 
L 732.186354 352.874781 
L 742.985165 351.286827 
L 751.318942 349.596343 
L 765.109261 348.13102 
L 773.447118 346.440705 
L 784.119413 344.84819 
L 792.579706 343.164293 
L 806.047611 341.686471 
L 814.397712 339.994466 
L 825.123062 338.403641 
L 833.538462 336.718224 
L 847.079828 335.243442 
L 855.564609 333.560728 
L 867.134764 332.003347 
L 875.46854 330.3132 
L 888.205913 328.805311 
L 897.013107 327.135434 
L 907.742538 325.543933 
L 915.978366 323.850746 
L 929.393216 322.369715 
L 938.286114 320.70254 
L 948.856379 319.102931 
L 958.226776 317.458898 
L 970.743766 315.940874 
L 979.375469 314.263227 
L 990.121224 129.594876 
L 998.357052 127.901689 
L 1011.722928 126.422008 
L 1020.342387 124.742841 
L 1031.108549 123.155563 
L 1039.405595 121.461869 
L 1053.069397 119.992661 
L 1061.758236 118.315352 
L 1073.401852 116.765235 
L 1081.764197 115.074581 
L 1094.199563 113.555544 
L 1103.05573 111.884823 
L 1113.972896 110.301598 
L 1122.233211 108.607398 
L 1135.390946 107.117245 
L 1144.022649 105.44078 
L 1155.009195 103.859245 
L 1163.298078 102.166396 
L 1176.394596 100.673878 
L 1184.99773 98.99488 
L 1195.870003 97.41098 
L 1204.17113 95.719482 
L 1217.655359 94.239295 
L 1226.074841 92.553878 
L 1236.947113 90.967782 
L 1245.272727 89.28 
" style="fill:none;stroke:#ff0000;stroke-dasharray:5.55,2.4;stroke-dashoffset:0;stroke-width:1.5;"/>
    <defs>
     <path d="M -3 3 
L 3 3 
L 3 -3 
L -3 -3 
z
" id="m10886f13c0" style="stroke:#ff0000;stroke-linejoin:miter;"/>
    </defs>
    <g clip-path="url(#p776a4c0a39)">
     <use style="fill:#ff0000;stroke:#ff0000;stroke-linejoin:miter;" x="230.727273" xlink:href="#m10886f13c0" y="431.832459"/>
     <use style="fill:#ff0000;stroke:#ff0000;stroke-linejoin:miter;" x="248.986487" xlink:href="#m10886f13c0" y="430.557671"/>
     <use style="fill:#ff0000;stroke:#ff0000;stroke-linejoin:miter;" x="257.724301" xlink:href="#m10886f13c0" y="428.885091"/>
     <use style="fill:#ff0000;stroke:#ff0000;stroke-linejoin:miter;" x="271.306479" xlink:href="#m10886f13c0" y="427.412843"/>
     <use style="fill:#ff0000;stroke:#ff0000;stroke-linejoin:miter;" x="279.668824" xlink:href="#m10886f13c0" y="425.723879"/>
     <use style="fill:#ff0000;stroke:#ff0000;stroke-linejoin:miter;" x="289.920756" xlink:href="#m10886f13c0" y="424.111939"/>
     <use style="fill:#ff0000;stroke:#ff0000;stroke-linejoin:miter;" x="298.250452" xlink:href="#m10886f13c0" y="422.422637"/>
     <use style="fill:#ff0000;stroke:#ff0000;stroke-linejoin:miter;" x="311.322482" xlink:href="#m10886f13c0" y="420.928092"/>
     <use style="fill:#ff0000;stroke:#ff0000;stroke-linejoin:miter;" x="320.158244" xlink:href="#m10886f13c0" y="419.259229"/>
     <use style="fill:#ff0000;stroke:#ff0000;stroke-linejoin:miter;" x="330.675453" xlink:href="#m10886f13c0" y="417.658607"/>
     <use style="fill:#ff0000;stroke:#ff0000;stroke-linejoin:miter;" x="339.025555" xlink:href="#m10886f13c0" y="415.970318"/>
     <use style="fill:#ff0000;stroke:#ff0000;stroke-linejoin:miter;" x="352.49346" xlink:href="#m10886f13c0" y="414.491482"/>
     <use style="fill:#ff0000;stroke:#ff0000;stroke-linejoin:miter;" x="361.055782" xlink:href="#m10886f13c0" y="412.810119"/>
     <use style="fill:#ff0000;stroke:#ff0000;stroke-linejoin:miter;" x="371.556667" xlink:href="#m10886f13c0" y="411.211693"/>
     <use style="fill:#ff0000;stroke:#ff0000;stroke-linejoin:miter;" x="379.898606" xlink:href="#m10886f13c0" y="409.521208"/>
     <use style="fill:#ff0000;stroke:#ff0000;stroke-linejoin:miter;" x="393.015529" xlink:href="#m10886f13c0" y="408.028184"/>
     <use style="fill:#ff0000;stroke:#ff0000;stroke-linejoin:miter;" x="401.688044" xlink:href="#m10886f13c0" y="406.352395"/>
     <use style="fill:#ff0000;stroke:#ff0000;stroke-linejoin:miter;" x="412.168523" xlink:href="#m10886f13c0" y="404.749745"/>
     <use style="fill:#ff0000;stroke:#ff0000;stroke-linejoin:miter;" x="420.53903" xlink:href="#m10886f13c0" y="403.063484"/>
     <use style="fill:#ff0000;stroke:#ff0000;stroke-linejoin:miter;" x="433.847769" xlink:href="#m10886f13c0" y="401.579412"/>
     <use style="fill:#ff0000;stroke:#ff0000;stroke-linejoin:miter;" x="442.295819" xlink:href="#m10886f13c0" y="399.892812"/>
     <use style="fill:#ff0000;stroke:#ff0000;stroke-linejoin:miter;" x="450.723462" xlink:href="#m10886f13c0" y="398.205706"/>
     <use style="fill:#ff0000;stroke:#ff0000;stroke-linejoin:miter;" x="461.122317" xlink:href="#m10886f13c0" y="396.599341"/>
     <use style="fill:#ff0000;stroke:#ff0000;stroke-linejoin:miter;" x="474.239241" xlink:href="#m10886f13c0" y="395.110877"/>
     <use style="fill:#ff0000;stroke:#ff0000;stroke-linejoin:miter;" x="482.940324" xlink:href="#m10886f13c0" y="393.434412"/>
     <use style="fill:#ff0000;stroke:#ff0000;stroke-linejoin:miter;" x="491.335318" xlink:href="#m10886f13c0" y="391.747644"/>
     <use style="fill:#ff0000;stroke:#ff0000;stroke-linejoin:miter;" x="499.958858" xlink:href="#m10886f13c0" y="390.069321"/>
     <use style="fill:#ff0000;stroke:#ff0000;stroke-linejoin:miter;" x="508.113063" xlink:href="#m10886f13c0" y="388.368702"/>
     <use style="fill:#ff0000;stroke:#ff0000;stroke-linejoin:miter;" x="518.046663" xlink:href="#m10886f13c0" y="386.747134"/>
     <use style="fill:#ff0000;stroke:#ff0000;stroke-linejoin:miter;" x="526.453901" xlink:href="#m10886f13c0" y="385.061549"/>
     <use style="fill:#ff0000;stroke:#ff0000;stroke-linejoin:miter;" x="537.07314" xlink:href="#m10886f13c0" y="383.465487"/>
     <use style="fill:#ff0000;stroke:#ff0000;stroke-linejoin:miter;" x="545.304887" xlink:href="#m10886f13c0" y="381.770949"/>
     <use style="fill:#ff0000;stroke:#ff0000;stroke-linejoin:miter;" x="558.458541" xlink:href="#m10886f13c0" y="380.277248"/>
     <use style="fill:#ff0000;stroke:#ff0000;stroke-linejoin:miter;" x="567.078" xlink:href="#m10886f13c0" y="378.59673"/>
     <use style="fill:#ff0000;stroke:#ff0000;stroke-linejoin:miter;" x="579.288901" xlink:href="#m10886f13c0" y="377.072963"/>
     <use style="fill:#ff0000;stroke:#ff0000;stroke-linejoin:miter;" x="587.716544" xlink:href="#m10886f13c0" y="375.385857"/>
     <use style="fill:#ff0000;stroke:#ff0000;stroke-linejoin:miter;" x="600.494729" xlink:href="#m10886f13c0" y="373.879319"/>
     <use style="fill:#ff0000;stroke:#ff0000;stroke-linejoin:miter;" x="608.865236" xlink:href="#m10886f13c0" y="372.191031"/>
     <use style="fill:#ff0000;stroke:#ff0000;stroke-linejoin:miter;" x="619.508963" xlink:href="#m10886f13c0" y="370.594462"/>
     <use style="fill:#ff0000;stroke:#ff0000;stroke-linejoin:miter;" x="627.94885" xlink:href="#m10886f13c0" y="368.91141"/>
     <use style="fill:#ff0000;stroke:#ff0000;stroke-linejoin:miter;" x="641.535109" xlink:href="#m10886f13c0" y="367.438317"/>
     <use style="fill:#ff0000;stroke:#ff0000;stroke-linejoin:miter;" x="649.889292" xlink:href="#m10886f13c0" y="365.74834"/>
     <use style="fill:#ff0000;stroke:#ff0000;stroke-linejoin:miter;" x="660.724834" xlink:href="#m10886f13c0" y="364.15667"/>
     <use style="fill:#ff0000;stroke:#ff0000;stroke-linejoin:miter;" x="669.083097" xlink:href="#m10886f13c0" y="362.470408"/>
     <use style="fill:#ff0000;stroke:#ff0000;stroke-linejoin:miter;" x="682.82036" xlink:href="#m10886f13c0" y="361.006099"/>
     <use style="fill:#ff0000;stroke:#ff0000;stroke-linejoin:miter;" x="691.19903" xlink:href="#m10886f13c0" y="359.318824"/>
     <use style="fill:#ff0000;stroke:#ff0000;stroke-linejoin:miter;" x="701.855" xlink:href="#m10886f13c0" y="357.724282"/>
     <use style="fill:#ff0000;stroke:#ff0000;stroke-linejoin:miter;" x="710.327536" xlink:href="#m10886f13c0" y="356.038527"/>
     <use style="fill:#ff0000;stroke:#ff0000;stroke-linejoin:miter;" x="723.844415" xlink:href="#m10886f13c0" y="354.56307"/>
     <use style="fill:#ff0000;stroke:#ff0000;stroke-linejoin:miter;" x="732.186354" xlink:href="#m10886f13c0" y="352.874781"/>
     <use style="fill:#ff0000;stroke:#ff0000;stroke-linejoin:miter;" x="742.985165" xlink:href="#m10886f13c0" y="351.286827"/>
     <use style="fill:#ff0000;stroke:#ff0000;stroke-linejoin:miter;" x="751.318942" xlink:href="#m10886f13c0" y="349.596343"/>
     <use style="fill:#ff0000;stroke:#ff0000;stroke-linejoin:miter;" x="765.109261" xlink:href="#m10886f13c0" y="348.13102"/>
     <use style="fill:#ff0000;stroke:#ff0000;stroke-linejoin:miter;" x="773.447118" xlink:href="#m10886f13c0" y="346.440705"/>
     <use style="fill:#ff0000;stroke:#ff0000;stroke-linejoin:miter;" x="784.119413" xlink:href="#m10886f13c0" y="344.84819"/>
     <use style="fill:#ff0000;stroke:#ff0000;stroke-linejoin:miter;" x="792.579706" xlink:href="#m10886f13c0" y="343.164293"/>
     <use style="fill:#ff0000;stroke:#ff0000;stroke-linejoin:miter;" x="806.047611" xlink:href="#m10886f13c0" y="341.686471"/>
     <use style="fill:#ff0000;stroke:#ff0000;stroke-linejoin:miter;" x="814.397712" xlink:href="#m10886f13c0" y="339.994466"/>
     <use style="fill:#ff0000;stroke:#ff0000;stroke-linejoin:miter;" x="825.123062" xlink:href="#m10886f13c0" y="338.403641"/>
     <use style="fill:#ff0000;stroke:#ff0000;stroke-linejoin:miter;" x="833.538462" xlink:href="#m10886f13c0" y="336.718224"/>
     <use style="fill:#ff0000;stroke:#ff0000;stroke-linejoin:miter;" x="847.079828" xlink:href="#m10886f13c0" y="335.243442"/>
     <use style="fill:#ff0000;stroke:#ff0000;stroke-linejoin:miter;" x="855.564609" xlink:href="#m10886f13c0" y="333.560728"/>
     <use style="fill:#ff0000;stroke:#ff0000;stroke-linejoin:miter;" x="867.134764" xlink:href="#m10886f13c0" y="332.003347"/>
     <use style="fill:#ff0000;stroke:#ff0000;stroke-linejoin:miter;" x="875.46854" xlink:href="#m10886f13c0" y="330.3132"/>
     <use style="fill:#ff0000;stroke:#ff0000;stroke-linejoin:miter;" x="888.205913" xlink:href="#m10886f13c0" y="328.805311"/>
     <use style="fill:#ff0000;stroke:#ff0000;stroke-linejoin:miter;" x="897.013107" xlink:href="#m10886f13c0" y="327.135434"/>
     <use style="fill:#ff0000;stroke:#ff0000;stroke-linejoin:miter;" x="907.742538" xlink:href="#m10886f13c0" y="325.543933"/>
     <use style="fill:#ff0000;stroke:#ff0000;stroke-linejoin:miter;" x="915.978366" xlink:href="#m10886f13c0" y="323.850746"/>
     <use style="fill:#ff0000;stroke:#ff0000;stroke-linejoin:miter;" x="929.393216" xlink:href="#m10886f13c0" y="322.369715"/>
     <use style="fill:#ff0000;stroke:#ff0000;stroke-linejoin:miter;" x="938.286114" xlink:href="#m10886f13c0" y="320.70254"/>
     <use style="fill:#ff0000;stroke:#ff0000;stroke-linejoin:miter;" x="948.856379" xlink:href="#m10886f13c0" y="319.102931"/>
     <use style="fill:#ff0000;stroke:#ff0000;stroke-linejoin:miter;" x="958.226776" xlink:href="#m10886f13c0" y="317.458898"/>
     <use style="fill:#ff0000;stroke:#ff0000;stroke-linejoin:miter;" x="970.743766" xlink:href="#m10886f13c0" y="315.940874"/>
     <use style="fill:#ff0000;stroke:#ff0000;stroke-linejoin:miter;" x="979.375469" xlink:href="#m10886f13c0" y="314.263227"/>
     <use style="fill:#ff0000;stroke:#ff0000;stroke-linejoin:miter;" x="990.121224" xlink:href="#m10886f13c0" y="129.594876"/>
     <use style="fill:#ff0000;stroke:#ff0000;stroke-linejoin:miter;" x="998.357052" xlink:href="#m10886f13c0" y="127.901689"/>
     <use style="fill:#ff0000;stroke:#ff0000;stroke-linejoin:miter;" x="1011.722928" xlink:href="#m10886f13c0" y="126.422008"/>
     <use style="fill:#ff0000;stroke:#ff0000;stroke-linejoin:miter;" x="1020.342387" xlink:href="#m10886f13c0" y="124.742841"/>
     <use style="fill:#ff0000;stroke:#ff0000;stroke-linejoin:miter;" x="1031.108549" xlink:href="#m10886f13c0" y="123.155563"/>
     <use style="fill:#ff0000;stroke:#ff0000;stroke-linejoin:miter;" x="1039.405595" xlink:href="#m10886f13c0" y="121.461869"/>
     <use style="fill:#ff0000;stroke:#ff0000;stroke-linejoin:miter;" x="1053.069397" xlink:href="#m10886f13c0" y="119.992661"/>
     <use style="fill:#ff0000;stroke:#ff0000;stroke-linejoin:miter;" x="1061.758236" xlink:href="#m10886f13c0" y="118.315352"/>
     <use style="fill:#ff0000;stroke:#ff0000;stroke-linejoin:miter;" x="1073.401852" xlink:href="#m10886f13c0" y="116.765235"/>
     <use style="fill:#ff0000;stroke:#ff0000;stroke-linejoin:miter;" x="1081.764197" xlink:href="#m10886f13c0" y="115.074581"/>
     <use style="fill:#ff0000;stroke:#ff0000;stroke-linejoin:miter;" x="1094.199563" xlink:href="#m10886f13c0" y="113.555544"/>
     <use style="fill:#ff0000;stroke:#ff0000;stroke-linejoin:miter;" x="1103.05573" xlink:href="#m10886f13c0" y="111.884823"/>
     <use style="fill:#ff0000;stroke:#ff0000;stroke-linejoin:miter;" x="1113.972896" xlink:href="#m10886f13c0" y="110.301598"/>
     <use style="fill:#ff0000;stroke:#ff0000;stroke-linejoin:miter;" x="1122.233211" xlink:href="#m10886f13c0" y="108.607398"/>
     <use style="fill:#ff0000;stroke:#ff0000;stroke-linejoin:miter;" x="1135.390946" xlink:href="#m10886f13c0" y="107.117245"/>
     <use style="fill:#ff0000;stroke:#ff0000;stroke-linejoin:miter;" x="1144.022649" xlink:href="#m10886f13c0" y="105.44078"/>
     <use style="fill:#ff0000;stroke:#ff0000;stroke-linejoin:miter;" x="1155.009195" xlink:href="#m10886f13c0" y="103.859245"/>
     <use style="fill:#ff0000;stroke:#ff0000;stroke-linejoin:miter;" x="1163.298078" xlink:href="#m10886f13c0" y="102.166396"/>
     <use style="fill:#ff0000;stroke:#ff0000;stroke-linejoin:miter;" x="1176.394596" xlink:href="#m10886f13c0" y="100.673878"/>
     <use style="fill:#ff0000;stroke:#ff0000;stroke-linejoin:miter;" x="1184.99773" xlink:href="#m10886f13c0" y="98.99488"/>
     <use style="fill:#ff0000;stroke:#ff0000;stroke-linejoin:miter;" x="1195.870003" xlink:href="#m10886f13c0" y="97.41098"/>
     <use style="fill:#ff0000;stroke:#ff0000;stroke-linejoin:miter;" x="1204.17113" xlink:href="#m10886f13c0" y="95.719482"/>
     <use style="fill:#ff0000;stroke:#ff0000;stroke-linejoin:miter;" x="1217.655359" xlink:href="#m10886f13c0" y="94.239295"/>
     <use style="fill:#ff0000;stroke:#ff0000;stroke-linejoin:miter;" x="1226.074841" xlink:href="#m10886f13c0" y="92.553878"/>
     <use style="fill:#ff0000;stroke:#ff0000;stroke-linejoin:miter;" x="1236.947113" xlink:href="#m10886f13c0" y="90.967782"/>
     <use style="fill:#ff0000;stroke:#ff0000;stroke-linejoin:miter;" x="1245.272727" xlink:href="#m10886f13c0" y="89.28"/>
    </g>
   </g>
   <g id="line2d_13">
    <path clip-path="url(#p776a4c0a39)" d="M 230.727273 431.832459 
L 248.986487 430.557671 
L 257.724301 428.885091 
L 271.306479 427.412843 
L 279.668824 425.723879 
L 289.920756 424.111939 
L 298.250452 422.422637 
L 311.322482 420.928092 
L 320.158244 419.259229 
L 330.675453 417.658607 
L 339.025555 415.970318 
L 352.49346 414.491482 
L 361.055782 412.810119 
L 371.556667 411.211693 
L 379.898606 409.521208 
L 393.015529 408.028184 
L 401.688044 406.352395 
L 412.168523 404.749745 
L 420.53903 403.063484 
L 433.847769 401.579412 
L 442.295819 399.892812 
L 450.723462 398.205706 
L 461.122317 396.599341 
L 474.239241 395.110877 
L 482.940324 393.434412 
L 491.335318 391.747644 
L 499.958858 390.069321 
L 508.113063 388.368702 
L 518.046663 386.747134 
L 526.453901 385.061549 
L 537.07314 383.465487 
L 545.304887 381.770949 
L 558.458541 380.277248 
L 567.078 378.59673 
L 579.288901 377.072963 
L 587.716544 375.385857 
L 600.494729 373.879319 
L 608.865236 372.191031 
L 619.508963 370.594462 
L 627.94885 368.91141 
L 641.535109 367.438317 
L 649.889292 365.74834 
L 660.724834 364.15667 
L 669.083097 362.470408 
L 682.82036 361.006099 
L 691.19903 359.318824 
L 701.855 357.724282 
L 710.327536 356.038527 
L 723.844415 354.56307 
L 732.186354 352.874781 
L 742.985165 351.286827 
L 751.318942 349.596343 
L 765.109261 348.13102 
L 773.447118 346.440705 
L 784.119413 344.84819 
L 792.579706 343.164293 
L 806.047611 341.686471 
L 814.397712 339.994466 
L 825.123062 338.403641 
L 833.538462 336.718224 
L 847.079828 335.243442 
L 855.564609 333.560728 
L 867.134764 332.003347 
L 875.46854 330.3132 
L 888.205913 328.805311 
L 897.013107 327.135434 
L 907.742538 325.543933 
L 915.978366 323.850746 
L 929.393216 322.369715 
L 938.286114 320.70254 
L 948.856379 319.102931 
L 958.226776 317.458898 
L 970.743766 315.940874 
L 979.375469 314.263227 
L 990.121224 129.594876 
L 998.357052 127.901689 
L 1011.722928 126.422008 
L 1020.342387 124.742841 
L 1031.108549 123.155563 
L 1039.405595 121.461869 
L 1053.069397 119.992661 
L 1061.758236 118.315352 
L 1073.401852 116.765235 
L 1081.764197 115.074581 
L 1094.199563 113.555544 
L 1103.05573 111.884823 
L 1113.972896 110.301598 
L 1122.233211 108.607398 
L 1135.390946 107.117245 
L 1144.022649 105.44078 
L 1155.009195 103.859245 
L 1163.298078 102.166396 
L 1176.394596 100.673878 
L 1184.99773 98.99488 
L 1195.870003 97.41098 
L 1204.17113 95.719482 
L 1217.655359 94.239295 
L 1226.074841 92.553878 
L 1236.947113 90.967782 
L 1245.272727 89.28 
" style="fill:none;stroke:#800080;stroke-dasharray:9.6,2.4,1.5,2.4;stroke-dashoffset:0;stroke-width:1.5;"/>
    <defs>
     <path d="M -3 3 
L 3 -3 
M -3 -3 
L 3 3 
" id="m5ad37fad5c" style="stroke:#800080;"/>
    </defs>
    <g clip-path="url(#p776a4c0a39)">
     <use style="fill:#800080;stroke:#800080;" x="230.727273" xlink:href="#m5ad37fad5c" y="431.832459"/>
     <use style="fill:#800080;stroke:#800080;" x="248.986487" xlink:href="#m5ad37fad5c" y="430.557671"/>
     <use style="fill:#800080;stroke:#800080;" x="257.724301" xlink:href="#m5ad37fad5c" y="428.885091"/>
     <use style="fill:#800080;stroke:#800080;" x="271.306479" xlink:href="#m5ad37fad5c" y="427.412843"/>
     <use style="fill:#800080;stroke:#800080;" x="279.668824" xlink:href="#m5ad37fad5c" y="425.723879"/>
     <use style="fill:#800080;stroke:#800080;" x="289.920756" xlink:href="#m5ad37fad5c" y="424.111939"/>
     <use style="fill:#800080;stroke:#800080;" x="298.250452" xlink:href="#m5ad37fad5c" y="422.422637"/>
     <use style="fill:#800080;stroke:#800080;" x="311.322482" xlink:href="#m5ad37fad5c" y="420.928092"/>
     <use style="fill:#800080;stroke:#800080;" x="320.158244" xlink:href="#m5ad37fad5c" y="419.259229"/>
     <use style="fill:#800080;stroke:#800080;" x="330.675453" xlink:href="#m5ad37fad5c" y="417.658607"/>
     <use style="fill:#800080;stroke:#800080;" x="339.025555" xlink:href="#m5ad37fad5c" y="415.970318"/>
     <use style="fill:#800080;stroke:#800080;" x="352.49346" xlink:href="#m5ad37fad5c" y="414.491482"/>
     <use style="fill:#800080;stroke:#800080;" x="361.055782" xlink:href="#m5ad37fad5c" y="412.810119"/>
     <use style="fill:#800080;stroke:#800080;" x="371.556667" xlink:href="#m5ad37fad5c" y="411.211693"/>
     <use style="fill:#800080;stroke:#800080;" x="379.898606" xlink:href="#m5ad37fad5c" y="409.521208"/>
     <use style="fill:#800080;stroke:#800080;" x="393.015529" xlink:href="#m5ad37fad5c" y="408.028184"/>
     <use style="fill:#800080;stroke:#800080;" x="401.688044" xlink:href="#m5ad37fad5c" y="406.352395"/>
     <use style="fill:#800080;stroke:#800080;" x="412.168523" xlink:href="#m5ad37fad5c" y="404.749745"/>
     <use style="fill:#800080;stroke:#800080;" x="420.53903" xlink:href="#m5ad37fad5c" y="403.063484"/>
     <use style="fill:#800080;stroke:#800080;" x="433.847769" xlink:href="#m5ad37fad5c" y="401.579412"/>
     <use style="fill:#800080;stroke:#800080;" x="442.295819" xlink:href="#m5ad37fad5c" y="399.892812"/>
     <use style="fill:#800080;stroke:#800080;" x="450.723462" xlink:href="#m5ad37fad5c" y="398.205706"/>
     <use style="fill:#800080;stroke:#800080;" x="461.122317" xlink:href="#m5ad37fad5c" y="396.599341"/>
     <use style="fill:#800080;stroke:#800080;" x="474.239241" xlink:href="#m5ad37fad5c" y="395.110877"/>
     <use style="fill:#800080;stroke:#800080;" x="482.940324" xlink:href="#m5ad37fad5c" y="393.434412"/>
     <use style="fill:#800080;stroke:#800080;" x="491.335318" xlink:href="#m5ad37fad5c" y="391.747644"/>
     <use style="fill:#800080;stroke:#800080;" x="499.958858" xlink:href="#m5ad37fad5c" y="390.069321"/>
     <use style="fill:#800080;stroke:#800080;" x="508.113063" xlink:href="#m5ad37fad5c" y="388.368702"/>
     <use style="fill:#800080;stroke:#800080;" x="518.046663" xlink:href="#m5ad37fad5c" y="386.747134"/>
     <use style="fill:#800080;stroke:#800080;" x="526.453901" xlink:href="#m5ad37fad5c" y="385.061549"/>
     <use style="fill:#800080;stroke:#800080;" x="537.07314" xlink:href="#m5ad37fad5c" y="383.465487"/>
     <use style="fill:#800080;stroke:#800080;" x="545.304887" xlink:href="#m5ad37fad5c" y="381.770949"/>
     <use style="fill:#800080;stroke:#800080;" x="558.458541" xlink:href="#m5ad37fad5c" y="380.277248"/>
     <use style="fill:#800080;stroke:#800080;" x="567.078" xlink:href="#m5ad37fad5c" y="378.59673"/>
     <use style="fill:#800080;stroke:#800080;" x="579.288901" xlink:href="#m5ad37fad5c" y="377.072963"/>
     <use style="fill:#800080;stroke:#800080;" x="587.716544" xlink:href="#m5ad37fad5c" y="375.385857"/>
     <use style="fill:#800080;stroke:#800080;" x="600.494729" xlink:href="#m5ad37fad5c" y="373.879319"/>
     <use style="fill:#800080;stroke:#800080;" x="608.865236" xlink:href="#m5ad37fad5c" y="372.191031"/>
     <use style="fill:#800080;stroke:#800080;" x="619.508963" xlink:href="#m5ad37fad5c" y="370.594462"/>
     <use style="fill:#800080;stroke:#800080;" x="627.94885" xlink:href="#m5ad37fad5c" y="368.91141"/>
     <use style="fill:#800080;stroke:#800080;" x="641.535109" xlink:href="#m5ad37fad5c" y="367.438317"/>
     <use style="fill:#800080;stroke:#800080;" x="649.889292" xlink:href="#m5ad37fad5c" y="365.74834"/>
     <use style="fill:#800080;stroke:#800080;" x="660.724834" xlink:href="#m5ad37fad5c" y="364.15667"/>
     <use style="fill:#800080;stroke:#800080;" x="669.083097" xlink:href="#m5ad37fad5c" y="362.470408"/>
     <use style="fill:#800080;stroke:#800080;" x="682.82036" xlink:href="#m5ad37fad5c" y="361.006099"/>
     <use style="fill:#800080;stroke:#800080;" x="691.19903" xlink:href="#m5ad37fad5c" y="359.318824"/>
     <use style="fill:#800080;stroke:#800080;" x="701.855" xlink:href="#m5ad37fad5c" y="357.724282"/>
     <use style="fill:#800080;stroke:#800080;" x="710.327536" xlink:href="#m5ad37fad5c" y="356.038527"/>
     <use style="fill:#800080;stroke:#800080;" x="723.844415" xlink:href="#m5ad37fad5c" y="354.56307"/>
     <use style="fill:#800080;stroke:#800080;" x="732.186354" xlink:href="#m5ad37fad5c" y="352.874781"/>
     <use style="fill:#800080;stroke:#800080;" x="742.985165" xlink:href="#m5ad37fad5c" y="351.286827"/>
     <use style="fill:#800080;stroke:#800080;" x="751.318942" xlink:href="#m5ad37fad5c" y="349.596343"/>
     <use style="fill:#800080;stroke:#800080;" x="765.109261" xlink:href="#m5ad37fad5c" y="348.13102"/>
     <use style="fill:#800080;stroke:#800080;" x="773.447118" xlink:href="#m5ad37fad5c" y="346.440705"/>
     <use style="fill:#800080;stroke:#800080;" x="784.119413" xlink:href="#m5ad37fad5c" y="344.84819"/>
     <use style="fill:#800080;stroke:#800080;" x="792.579706" xlink:href="#m5ad37fad5c" y="343.164293"/>
     <use style="fill:#800080;stroke:#800080;" x="806.047611" xlink:href="#m5ad37fad5c" y="341.686471"/>
     <use style="fill:#800080;stroke:#800080;" x="814.397712" xlink:href="#m5ad37fad5c" y="339.994466"/>
     <use style="fill:#800080;stroke:#800080;" x="825.123062" xlink:href="#m5ad37fad5c" y="338.403641"/>
     <use style="fill:#800080;stroke:#800080;" x="833.538462" xlink:href="#m5ad37fad5c" y="336.718224"/>
     <use style="fill:#800080;stroke:#800080;" x="847.079828" xlink:href="#m5ad37fad5c" y="335.243442"/>
     <use style="fill:#800080;stroke:#800080;" x="855.564609" xlink:href="#m5ad37fad5c" y="333.560728"/>
     <use style="fill:#800080;stroke:#800080;" x="867.134764" xlink:href="#m5ad37fad5c" y="332.003347"/>
     <use style="fill:#800080;stroke:#800080;" x="875.46854" xlink:href="#m5ad37fad5c" y="330.3132"/>
     <use style="fill:#800080;stroke:#800080;" x="888.205913" xlink:href="#m5ad37fad5c" y="328.805311"/>
     <use style="fill:#800080;stroke:#800080;" x="897.013107" xlink:href="#m5ad37fad5c" y="327.135434"/>
     <use style="fill:#800080;stroke:#800080;" x="907.742538" xlink:href="#m5ad37fad5c" y="325.543933"/>
     <use style="fill:#800080;stroke:#800080;" x="915.978366" xlink:href="#m5ad37fad5c" y="323.850746"/>
     <use style="fill:#800080;stroke:#800080;" x="929.393216" xlink:href="#m5ad37fad5c" y="322.369715"/>
     <use style="fill:#800080;stroke:#800080;" x="938.286114" xlink:href="#m5ad37fad5c" y="320.70254"/>
     <use style="fill:#800080;stroke:#800080;" x="948.856379" xlink:href="#m5ad37fad5c" y="319.102931"/>
     <use style="fill:#800080;stroke:#800080;" x="958.226776" xlink:href="#m5ad37fad5c" y="317.458898"/>
     <use style="fill:#800080;stroke:#800080;" x="970.743766" xlink:href="#m5ad37fad5c" y="315.940874"/>
     <use style="fill:#800080;stroke:#800080;" x="979.375469" xlink:href="#m5ad37fad5c" y="314.263227"/>
     <use style="fill:#800080;stroke:#800080;" x="990.121224" xlink:href="#m5ad37fad5c" y="129.594876"/>
     <use style="fill:#800080;stroke:#800080;" x="998.357052" xlink:href="#m5ad37fad5c" y="127.901689"/>
     <use style="fill:#800080;stroke:#800080;" x="1011.722928" xlink:href="#m5ad37fad5c" y="126.422008"/>
     <use style="fill:#800080;stroke:#800080;" x="1020.342387" xlink:href="#m5ad37fad5c" y="124.742841"/>
     <use style="fill:#800080;stroke:#800080;" x="1031.108549" xlink:href="#m5ad37fad5c" y="123.155563"/>
     <use style="fill:#800080;stroke:#800080;" x="1039.405595" xlink:href="#m5ad37fad5c" y="121.461869"/>
     <use style="fill:#800080;stroke:#800080;" x="1053.069397" xlink:href="#m5ad37fad5c" y="119.992661"/>
     <use style="fill:#800080;stroke:#800080;" x="1061.758236" xlink:href="#m5ad37fad5c" y="118.315352"/>
     <use style="fill:#800080;stroke:#800080;" x="1073.401852" xlink:href="#m5ad37fad5c" y="116.765235"/>
     <use style="fill:#800080;stroke:#800080;" x="1081.764197" xlink:href="#m5ad37fad5c" y="115.074581"/>
     <use style="fill:#800080;stroke:#800080;" x="1094.199563" xlink:href="#m5ad37fad5c" y="113.555544"/>
     <use style="fill:#800080;stroke:#800080;" x="1103.05573" xlink:href="#m5ad37fad5c" y="111.884823"/>
     <use style="fill:#800080;stroke:#800080;" x="1113.972896" xlink:href="#m5ad37fad5c" y="110.301598"/>
     <use style="fill:#800080;stroke:#800080;" x="1122.233211" xlink:href="#m5ad37fad5c" y="108.607398"/>
     <use style="fill:#800080;stroke:#800080;" x="1135.390946" xlink:href="#m5ad37fad5c" y="107.117245"/>
     <use style="fill:#800080;stroke:#800080;" x="1144.022649" xlink:href="#m5ad37fad5c" y="105.44078"/>
     <use style="fill:#800080;stroke:#800080;" x="1155.009195" xlink:href="#m5ad37fad5c" y="103.859245"/>
     <use style="fill:#800080;stroke:#800080;" x="1163.298078" xlink:href="#m5ad37fad5c" y="102.166396"/>
     <use style="fill:#800080;stroke:#800080;" x="1176.394596" xlink:href="#m5ad37fad5c" y="100.673878"/>
     <use style="fill:#800080;stroke:#800080;" x="1184.99773" xlink:href="#m5ad37fad5c" y="98.99488"/>
     <use style="fill:#800080;stroke:#800080;" x="1195.870003" xlink:href="#m5ad37fad5c" y="97.41098"/>
     <use style="fill:#800080;stroke:#800080;" x="1204.17113" xlink:href="#m5ad37fad5c" y="95.719482"/>
     <use style="fill:#800080;stroke:#800080;" x="1217.655359" xlink:href="#m5ad37fad5c" y="94.239295"/>
     <use style="fill:#800080;stroke:#800080;" x="1226.074841" xlink:href="#m5ad37fad5c" y="92.553878"/>
     <use style="fill:#800080;stroke:#800080;" x="1236.947113" xlink:href="#m5ad37fad5c" y="90.967782"/>
     <use style="fill:#800080;stroke:#800080;" x="1245.272727" xlink:href="#m5ad37fad5c" y="89.28"/>
    </g>
   </g>
   <g id="line2d_14">
    <path clip-path="url(#p776a4c0a39)" d="M 230.727273 491.319035 
L 248.986487 484.624045 
L 257.724301 481.420206 
L 271.306479 476.440114 
L 279.668824 473.373946 
L 289.920756 469.614935 
L 298.250452 466.560738 
L 311.322482 461.7677 
L 320.158244 458.527947 
L 330.675453 454.671668 
L 339.025555 451.609989 
L 352.49346 446.671798 
L 361.055782 443.532305 
L 371.556667 439.682012 
L 379.898606 436.623326 
L 393.015529 431.813827 
L 401.688044 428.63393 
L 412.168523 424.791119 
L 420.53903 421.721959 
L 433.847769 416.842127 
L 442.295819 413.744534 
L 450.723462 410.654424 
L 461.122317 406.841541 
L 474.239241 402.032042 
L 482.940324 398.841671 
L 491.335318 395.763531 
L 499.958858 392.601592 
L 508.113063 389.611742 
L 518.046663 385.969451 
L 526.453901 382.886823 
L 537.07314 378.993133 
L 545.304887 375.974851 
L 558.458541 371.151884 
L 567.078 367.991441 
L 579.288901 363.514147 
L 587.716544 360.424036 
L 600.494729 355.73874 
L 608.865236 352.669579 
L 619.508963 348.766911 
L 627.94885 345.672311 
L 641.535109 340.690723 
L 649.889292 337.627548 
L 660.724834 333.654549 
L 669.083097 330.589877 
L 682.82036 325.552922 
L 691.19903 322.480768 
L 701.855 318.573611 
L 710.327536 315.467039 
L 723.844415 310.510891 
L 732.186354 307.452205 
L 742.985165 303.492673 
L 751.318942 300.43698 
L 765.109261 295.380571 
L 773.447118 292.323381 
L 784.119413 288.410239 
L 792.579706 285.308156 
L 806.047611 280.369965 
L 814.397712 277.308286 
L 825.123062 273.37569 
L 833.538462 270.290068 
L 847.079828 265.324941 
L 855.564609 262.21388 
L 867.134764 257.971525 
L 875.46854 254.915832 
L 888.205913 250.245499 
L 897.013107 247.016221 
L 907.742538 243.082129 
L 915.978366 240.06235 
L 929.393216 235.143612 
L 938.286114 231.882909 
L 948.856379 228.007177 
L 958.226776 224.571392 
L 970.743766 219.981867 
L 979.375469 216.816935 
L 990.121224 212.876857 
L 998.357052 209.857078 
L 1011.722928 204.956297 
L 1020.342387 201.795854 
L 1031.108549 197.848294 
L 1039.405595 194.806068 
L 1053.069397 189.796048 
L 1061.758236 186.610167 
L 1073.401852 182.340876 
L 1081.764197 179.274707 
L 1094.199563 174.715111 
L 1103.05573 171.467875 
L 1113.972896 167.464947 
L 1122.233211 164.43619 
L 1135.390946 159.611726 
L 1144.022649 156.446794 
L 1155.009195 152.418427 
L 1163.298078 149.379195 
L 1176.394596 144.577177 
L 1184.99773 141.422721 
L 1195.870003 137.436253 
L 1204.17113 134.392531 
L 1217.655359 129.448354 
L 1226.074841 126.361236 
L 1236.947113 122.374769 
L 1245.272727 119.322068 
" style="fill:none;stroke:#0000ff;stroke-linecap:square;stroke-width:1.5;"/>
   </g>
   <g id="line2d_15">
    <path clip-path="url(#p776a4c0a39)" d="M 230.727273 492.48 
L 248.986487 492.463278 
L 257.724301 492.455275 
L 271.306479 492.442836 
L 279.668824 492.435178 
L 289.920756 492.425789 
L 298.250452 492.41816 
L 311.322482 492.406188 
L 320.158244 492.398096 
L 330.675453 492.388464 
L 339.025555 492.380817 
L 352.49346 492.368482 
L 361.055782 492.360641 
L 371.556667 492.351023 
L 379.898606 492.343384 
L 393.015529 492.331371 
L 401.688044 492.323428 
L 412.168523 492.31383 
L 420.53903 492.306164 
L 433.847769 492.293975 
L 442.295819 492.286238 
L 450.723462 492.27852 
L 461.122317 492.268996 
L 474.239241 492.256983 
L 482.940324 492.249014 
L 491.335318 492.241326 
L 499.958858 492.233428 
L 508.113063 492.22596 
L 518.046663 492.216863 
L 526.453901 492.209163 
L 537.07314 492.199438 
L 545.304887 492.191899 
L 558.458541 492.179852 
L 567.078 492.171958 
L 579.288901 492.160775 
L 587.716544 492.153057 
L 600.494729 492.141354 
L 608.865236 492.133688 
L 619.508963 492.12394 
L 627.94885 492.11621 
L 641.535109 492.103768 
L 649.889292 492.096117 
L 660.724834 492.086193 
L 669.083097 492.078538 
L 682.82036 492.065957 
L 691.19903 492.058284 
L 701.855 492.048525 
L 710.327536 492.040765 
L 723.844415 492.028386 
L 732.186354 492.020746 
L 742.985165 492.010856 
L 751.318942 492.003224 
L 765.109261 491.990594 
L 773.447118 491.982958 
L 784.119413 491.973184 
L 792.579706 491.965436 
L 806.047611 491.953101 
L 814.397712 491.945454 
L 825.123062 491.935631 
L 833.538462 491.927924 
L 847.079828 491.915523 
L 855.564609 491.907752 
L 867.134764 491.897156 
L 875.46854 491.889523 
L 888.205913 491.877858 
L 897.013107 491.869792 
L 907.742538 491.859966 
L 915.978366 491.852423 
L 929.393216 491.840137 
L 938.286114 491.831993 
L 948.856379 491.822312 
L 958.226776 491.81373 
L 970.743766 491.802267 
L 979.375469 491.794362 
L 990.121224 491.78452 
L 998.357052 491.776978 
L 1011.722928 491.764737 
L 1020.342387 491.756843 
L 1031.108549 491.746983 
L 1039.405595 491.739384 
L 1053.069397 491.72687 
L 1061.758236 491.718912 
L 1073.401852 491.708249 
L 1081.764197 491.70059 
L 1094.199563 491.689202 
L 1103.05573 491.681091 
L 1113.972896 491.671092 
L 1122.233211 491.663527 
L 1135.390946 491.651477 
L 1144.022649 491.643572 
L 1155.009195 491.63351 
L 1163.298078 491.625919 
L 1176.394596 491.613924 
L 1184.99773 491.606045 
L 1195.870003 491.596088 
L 1204.17113 491.588486 
L 1217.655359 491.576136 
L 1226.074841 491.568426 
L 1236.947113 491.558468 
L 1245.272727 491.550843 
" style="fill:none;stroke:#008000;stroke-linecap:square;stroke-width:1.5;"/>
    <defs>
     <path d="M 0 3 
C 0.795609 3 1.55874 2.683901 2.12132 2.12132 
C 2.683901 1.55874 3 0.795609 3 0 
C 3 -0.795609 2.683901 -1.55874 2.12132 -2.12132 
C 1.55874 -2.683901 0.795609 -3 0 -3 
C -0.795609 -3 -1.55874 -2.683901 -2.12132 -2.12132 
C -2.683901 -1.55874 -3 -0.795609 -3 0 
C -3 0.795609 -2.683901 1.55874 -2.12132 2.12132 
C -1.55874 2.683901 -0.795609 3 0 3 
z
" id="mc2c012f68f" style="stroke:#008000;"/>
    </defs>
    <g clip-path="url(#p776a4c0a39)">
     <use style="fill:#008000;stroke:#008000;" x="230.727273" xlink:href="#mc2c012f68f" y="492.48"/>
     <use style="fill:#008000;stroke:#008000;" x="248.986487" xlink:href="#mc2c012f68f" y="492.463278"/>
     <use style="fill:#008000;stroke:#008000;" x="257.724301" xlink:href="#mc2c012f68f" y="492.455275"/>
     <use style="fill:#008000;stroke:#008000;" x="271.306479" xlink:href="#mc2c012f68f" y="492.442836"/>
     <use style="fill:#008000;stroke:#008000;" x="279.668824" xlink:href="#mc2c012f68f" y="492.435178"/>
     <use style="fill:#008000;stroke:#008000;" x="289.920756" xlink:href="#mc2c012f68f" y="492.425789"/>
     <use style="fill:#008000;stroke:#008000;" x="298.250452" xlink:href="#mc2c012f68f" y="492.41816"/>
     <use style="fill:#008000;stroke:#008000;" x="311.322482" xlink:href="#mc2c012f68f" y="492.406188"/>
     <use style="fill:#008000;stroke:#008000;" x="320.158244" xlink:href="#mc2c012f68f" y="492.398096"/>
     <use style="fill:#008000;stroke:#008000;" x="330.675453" xlink:href="#mc2c012f68f" y="492.388464"/>
     <use style="fill:#008000;stroke:#008000;" x="339.025555" xlink:href="#mc2c012f68f" y="492.380817"/>
     <use style="fill:#008000;stroke:#008000;" x="352.49346" xlink:href="#mc2c012f68f" y="492.368482"/>
     <use style="fill:#008000;stroke:#008000;" x="361.055782" xlink:href="#mc2c012f68f" y="492.360641"/>
     <use style="fill:#008000;stroke:#008000;" x="371.556667" xlink:href="#mc2c012f68f" y="492.351023"/>
     <use style="fill:#008000;stroke:#008000;" x="379.898606" xlink:href="#mc2c012f68f" y="492.343384"/>
     <use style="fill:#008000;stroke:#008000;" x="393.015529" xlink:href="#mc2c012f68f" y="492.331371"/>
     <use style="fill:#008000;stroke:#008000;" x="401.688044" xlink:href="#mc2c012f68f" y="492.323428"/>
     <use style="fill:#008000;stroke:#008000;" x="412.168523" xlink:href="#mc2c012f68f" y="492.31383"/>
     <use style="fill:#008000;stroke:#008000;" x="420.53903" xlink:href="#mc2c012f68f" y="492.306164"/>
     <use style="fill:#008000;stroke:#008000;" x="433.847769" xlink:href="#mc2c012f68f" y="492.293975"/>
     <use style="fill:#008000;stroke:#008000;" x="442.295819" xlink:href="#mc2c012f68f" y="492.286238"/>
     <use style="fill:#008000;stroke:#008000;" x="450.723462" xlink:href="#mc2c012f68f" y="492.27852"/>
     <use style="fill:#008000;stroke:#008000;" x="461.122317" xlink:href="#mc2c012f68f" y="492.268996"/>
     <use style="fill:#008000;stroke:#008000;" x="474.239241" xlink:href="#mc2c012f68f" y="492.256983"/>
     <use style="fill:#008000;stroke:#008000;" x="482.940324" xlink:href="#mc2c012f68f" y="492.249014"/>
     <use style="fill:#008000;stroke:#008000;" x="491.335318" xlink:href="#mc2c012f68f" y="492.241326"/>
     <use style="fill:#008000;stroke:#008000;" x="499.958858" xlink:href="#mc2c012f68f" y="492.233428"/>
     <use style="fill:#008000;stroke:#008000;" x="508.113063" xlink:href="#mc2c012f68f" y="492.22596"/>
     <use style="fill:#008000;stroke:#008000;" x="518.046663" xlink:href="#mc2c012f68f" y="492.216863"/>
     <use style="fill:#008000;stroke:#008000;" x="526.453901" xlink:href="#mc2c012f68f" y="492.209163"/>
     <use style="fill:#008000;stroke:#008000;" x="537.07314" xlink:href="#mc2c012f68f" y="492.199438"/>
     <use style="fill:#008000;stroke:#008000;" x="545.304887" xlink:href="#mc2c012f68f" y="492.191899"/>
     <use style="fill:#008000;stroke:#008000;" x="558.458541" xlink:href="#mc2c012f68f" y="492.179852"/>
     <use style="fill:#008000;stroke:#008000;" x="567.078" xlink:href="#mc2c012f68f" y="492.171958"/>
     <use style="fill:#008000;stroke:#008000;" x="579.288901" xlink:href="#mc2c012f68f" y="492.160775"/>
     <use style="fill:#008000;stroke:#008000;" x="587.716544" xlink:href="#mc2c012f68f" y="492.153057"/>
     <use style="fill:#008000;stroke:#008000;" x="600.494729" xlink:href="#mc2c012f68f" y="492.141354"/>
     <use style="fill:#008000;stroke:#008000;" x="608.865236" xlink:href="#mc2c012f68f" y="492.133688"/>
     <use style="fill:#008000;stroke:#008000;" x="619.508963" xlink:href="#mc2c012f68f" y="492.12394"/>
     <use style="fill:#008000;stroke:#008000;" x="627.94885" xlink:href="#mc2c012f68f" y="492.11621"/>
     <use style="fill:#008000;stroke:#008000;" x="641.535109" xlink:href="#mc2c012f68f" y="492.103768"/>
     <use style="fill:#008000;stroke:#008000;" x="649.889292" xlink:href="#mc2c012f68f" y="492.096117"/>
     <use style="fill:#008000;stroke:#008000;" x="660.724834" xlink:href="#mc2c012f68f" y="492.086193"/>
     <use style="fill:#008000;stroke:#008000;" x="669.083097" xlink:href="#mc2c012f68f" y="492.078538"/>
     <use style="fill:#008000;stroke:#008000;" x="682.82036" xlink:href="#mc2c012f68f" y="492.065957"/>
     <use style="fill:#008000;stroke:#008000;" x="691.19903" xlink:href="#mc2c012f68f" y="492.058284"/>
     <use style="fill:#008000;stroke:#008000;" x="701.855" xlink:href="#mc2c012f68f" y="492.048525"/>
     <use style="fill:#008000;stroke:#008000;" x="710.327536" xlink:href="#mc2c012f68f" y="492.040765"/>
     <use style="fill:#008000;stroke:#008000;" x="723.844415" xlink:href="#mc2c012f68f" y="492.028386"/>
     <use style="fill:#008000;stroke:#008000;" x="732.186354" xlink:href="#mc2c012f68f" y="492.020746"/>
     <use style="fill:#008000;stroke:#008000;" x="742.985165" xlink:href="#mc2c012f68f" y="492.010856"/>
     <use style="fill:#008000;stroke:#008000;" x="751.318942" xlink:href="#mc2c012f68f" y="492.003224"/>
     <use style="fill:#008000;stroke:#008000;" x="765.109261" xlink:href="#mc2c012f68f" y="491.990594"/>
     <use style="fill:#008000;stroke:#008000;" x="773.447118" xlink:href="#mc2c012f68f" y="491.982958"/>
     <use style="fill:#008000;stroke:#008000;" x="784.119413" xlink:href="#mc2c012f68f" y="491.973184"/>
     <use style="fill:#008000;stroke:#008000;" x="792.579706" xlink:href="#mc2c012f68f" y="491.965436"/>
     <use style="fill:#008000;stroke:#008000;" x="806.047611" xlink:href="#mc2c012f68f" y="491.953101"/>
     <use style="fill:#008000;stroke:#008000;" x="814.397712" xlink:href="#mc2c012f68f" y="491.945454"/>
     <use style="fill:#008000;stroke:#008000;" x="825.123062" xlink:href="#mc2c012f68f" y="491.935631"/>
     <use style="fill:#008000;stroke:#008000;" x="833.538462" xlink:href="#mc2c012f68f" y="491.927924"/>
     <use style="fill:#008000;stroke:#008000;" x="847.079828" xlink:href="#mc2c012f68f" y="491.915523"/>
     <use style="fill:#008000;stroke:#008000;" x="855.564609" xlink:href="#mc2c012f68f" y="491.907752"/>
     <use style="fill:#008000;stroke:#008000;" x="867.134764" xlink:href="#mc2c012f68f" y="491.897156"/>
     <use style="fill:#008000;stroke:#008000;" x="875.46854" xlink:href="#mc2c012f68f" y="491.889523"/>
     <use style="fill:#008000;stroke:#008000;" x="888.205913" xlink:href="#mc2c012f68f" y="491.877858"/>
     <use style="fill:#008000;stroke:#008000;" x="897.013107" xlink:href="#mc2c012f68f" y="491.869792"/>
     <use style="fill:#008000;stroke:#008000;" x="907.742538" xlink:href="#mc2c012f68f" y="491.859966"/>
     <use style="fill:#008000;stroke:#008000;" x="915.978366" xlink:href="#mc2c012f68f" y="491.852423"/>
     <use style="fill:#008000;stroke:#008000;" x="929.393216" xlink:href="#mc2c012f68f" y="491.840137"/>
     <use style="fill:#008000;stroke:#008000;" x="938.286114" xlink:href="#mc2c012f68f" y="491.831993"/>
     <use style="fill:#008000;stroke:#008000;" x="948.856379" xlink:href="#mc2c012f68f" y="491.822312"/>
     <use style="fill:#008000;stroke:#008000;" x="958.226776" xlink:href="#mc2c012f68f" y="491.81373"/>
     <use style="fill:#008000;stroke:#008000;" x="970.743766" xlink:href="#mc2c012f68f" y="491.802267"/>
     <use style="fill:#008000;stroke:#008000;" x="979.375469" xlink:href="#mc2c012f68f" y="491.794362"/>
     <use style="fill:#008000;stroke:#008000;" x="990.121224" xlink:href="#mc2c012f68f" y="491.78452"/>
     <use style="fill:#008000;stroke:#008000;" x="998.357052" xlink:href="#mc2c012f68f" y="491.776978"/>
     <use style="fill:#008000;stroke:#008000;" x="1011.722928" xlink:href="#mc2c012f68f" y="491.764737"/>
     <use style="fill:#008000;stroke:#008000;" x="1020.342387" xlink:href="#mc2c012f68f" y="491.756843"/>
     <use style="fill:#008000;stroke:#008000;" x="1031.108549" xlink:href="#mc2c012f68f" y="491.746983"/>
     <use style="fill:#008000;stroke:#008000;" x="1039.405595" xlink:href="#mc2c012f68f" y="491.739384"/>
     <use style="fill:#008000;stroke:#008000;" x="1053.069397" xlink:href="#mc2c012f68f" y="491.72687"/>
     <use style="fill:#008000;stroke:#008000;" x="1061.758236" xlink:href="#mc2c012f68f" y="491.718912"/>
     <use style="fill:#008000;stroke:#008000;" x="1073.401852" xlink:href="#mc2c012f68f" y="491.708249"/>
     <use style="fill:#008000;stroke:#008000;" x="1081.764197" xlink:href="#mc2c012f68f" y="491.70059"/>
     <use style="fill:#008000;stroke:#008000;" x="1094.199563" xlink:href="#mc2c012f68f" y="491.689202"/>
     <use style="fill:#008000;stroke:#008000;" x="1103.05573" xlink:href="#mc2c012f68f" y="491.681091"/>
     <use style="fill:#008000;stroke:#008000;" x="1113.972896" xlink:href="#mc2c012f68f" y="491.671092"/>
     <use style="fill:#008000;stroke:#008000;" x="1122.233211" xlink:href="#mc2c012f68f" y="491.663527"/>
     <use style="fill:#008000;stroke:#008000;" x="1135.390946" xlink:href="#mc2c012f68f" y="491.651477"/>
     <use style="fill:#008000;stroke:#008000;" x="1144.022649" xlink:href="#mc2c012f68f" y="491.643572"/>
     <use style="fill:#008000;stroke:#008000;" x="1155.009195" xlink:href="#mc2c012f68f" y="491.63351"/>
     <use style="fill:#008000;stroke:#008000;" x="1163.298078" xlink:href="#mc2c012f68f" y="491.625919"/>
     <use style="fill:#008000;stroke:#008000;" x="1176.394596" xlink:href="#mc2c012f68f" y="491.613924"/>
     <use style="fill:#008000;stroke:#008000;" x="1184.99773" xlink:href="#mc2c012f68f" y="491.606045"/>
     <use style="fill:#008000;stroke:#008000;" x="1195.870003" xlink:href="#mc2c012f68f" y="491.596088"/>
     <use style="fill:#008000;stroke:#008000;" x="1204.17113" xlink:href="#mc2c012f68f" y="491.588486"/>
     <use style="fill:#008000;stroke:#008000;" x="1217.655359" xlink:href="#mc2c012f68f" y="491.576136"/>
     <use style="fill:#008000;stroke:#008000;" x="1226.074841" xlink:href="#mc2c012f68f" y="491.568426"/>
     <use style="fill:#008000;stroke:#008000;" x="1236.947113" xlink:href="#mc2c012f68f" y="491.558468"/>
     <use style="fill:#008000;stroke:#008000;" x="1245.272727" xlink:href="#mc2c012f68f" y="491.550843"/>
    </g>
   </g>
   <g id="patch_3">
    <path d="M 180 512.64 
L 180 69.12 
" style="fill:none;stroke:#000000;stroke-linecap:square;stroke-linejoin:miter;stroke-width:0.8;"/>
   </g>
   <g id="patch_4">
    <path d="M 1296 512.64 
L 1296 69.12 
" style="fill:none;stroke:#000000;stroke-linecap:square;stroke-linejoin:miter;stroke-width:0.8;"/>
   </g>
   <g id="patch_5">
    <path d="M 180 512.64 
L 1296 512.64 
" style="fill:none;stroke:#000000;stroke-linecap:square;stroke-linejoin:miter;stroke-width:0.8;"/>
   </g>
   <g id="patch_6">
    <path d="M 180 69.12 
L 1296 69.12 
" style="fill:none;stroke:#000000;stroke-linecap:square;stroke-linejoin:miter;stroke-width:0.8;"/>
   </g>
   <g id="text_12">
    <!-- 5000000.0 bit/s -->
    <defs>
     <path id="DejaVuSans-20"/>
     <path d="M 48.6875 27.296875 
Q 48.6875 37.203125 44.609375 42.84375 
Q 40.53125 48.484375 33.40625 48.484375 
Q 26.265625 48.484375 22.1875 42.84375 
Q 18.109375 37.203125 18.109375 27.296875 
Q 18.109375 17.390625 22.1875 11.75 
Q 26.265625 6.109375 33.40625 6.109375 
Q 40.53125 6.109375 44.609375 11.75 
Q 48.6875 17.390625 48.6875 27.296875 
z
M 18.109375 46.390625 
Q 20.953125 51.265625 25.265625 53.625 
Q 29.59375 56 35.59375 56 
Q 45.5625 56 51.78125 48.09375 
Q 58.015625 40.1875 58.015625 27.296875 
Q 58.015625 14.40625 51.78125 6.484375 
Q 45.5625 -1.421875 35.59375 -1.421875 
Q 29.59375 -1.421875 25.265625 0.953125 
Q 20.953125 3.328125 18.109375 8.203125 
L 18.109375 0 
L 9.078125 0 
L 9.078125 75.984375 
L 18.109375 75.984375 
z
" id="DejaVuSans-62"/>
     <path d="M 9.421875 54.6875 
L 18.40625 54.6875 
L 18.40625 0 
L 9.421875 0 
z
M 9.421875 75.984375 
L 18.40625 75.984375 
L 18.40625 64.59375 
L 9.421875 64.59375 
z
" id="DejaVuSans-69"/>
     <path d="M 18.3125 70.21875 
L 18.3125 54.6875 
L 36.8125 54.6875 
L 36.8125 47.703125 
L 18.3125 47.703125 
L 18.3125 18.015625 
Q 18.3125 11.328125 20.140625 9.421875 
Q 21.96875 7.515625 27.59375 7.515625 
L 36.8125 7.515625 
L 36.8125 0 
L 27.59375 0 
Q 17.1875 0 13.234375 3.875 
Q 9.28125 7.765625 9.28125 18.015625 
L 9.28125 47.703125 
L 2.6875 47.703125 
L 2.6875 54.6875 
L 9.28125 54.6875 
L 9.28125 70.21875 
z
" id="DejaVuSans-74"/>
     <path d="M 25.390625 72.90625 
L 33.6875 72.90625 
L 8.296875 -9.28125 
L 0 -9.28125 
z
" id="DejaVuSans-2f"/>
     <path d="M 44.28125 53.078125 
L 44.28125 44.578125 
Q 40.484375 46.53125 36.375 47.5 
Q 32.28125 48.484375 27.875 48.484375 
Q 21.1875 48.484375 17.84375 46.4375 
Q 14.5 44.390625 14.5 40.28125 
Q 14.5 37.15625 16.890625 35.375 
Q 19.28125 33.59375 26.515625 31.984375 
L 29.59375 31.296875 
Q 39.15625 29.25 43.1875 25.515625 
Q 47.21875 21.78125 47.21875 15.09375 
Q 47.21875 7.46875 41.1875 3.015625 
Q 35.15625 -1.421875 24.609375 -1.421875 
Q 20.21875 -1.421875 15.453125 -0.5625 
Q 10.6875 0.296875 5.421875 2 
L 5.421875 11.28125 
Q 10.40625 8.6875 15.234375 7.390625 
Q 20.0625 6.109375 24.8125 6.109375 
Q 31.15625 6.109375 34.5625 8.28125 
Q 37.984375 10.453125 37.984375 14.40625 
Q 37.984375 18.0625 35.515625 20.015625 
Q 33.0625 21.96875 24.703125 23.78125 
L 21.578125 24.515625 
Q 13.234375 26.265625 9.515625 29.90625 
Q 5.8125 33.546875 5.8125 39.890625 
Q 5.8125 47.609375 11.28125 51.796875 
Q 16.75 56 26.8125 56 
Q 31.78125 56 36.171875 55.265625 
Q 40.578125 54.546875 44.28125 53.078125 
z
" id="DejaVuSans-73"/>
    </defs>
    <g transform="translate(690.67125 63.12)scale(0.12 -0.12)">
     <use xlink:href="#DejaVuSans-35"/>
     <use x="63.623047" xlink:href="#DejaVuSans-30"/>
     <use x="127.246094" xlink:href="#DejaVuSans-30"/>
     <use x="190.869141" xlink:href="#DejaVuSans-30"/>
     <use x="254.492188" xlink:href="#DejaVuSans-30"/>
     <use x="318.115234" xlink:href="#DejaVuSans-30"/>
     <use x="381.738281" xlink:href="#DejaVuSans-30"/>
     <use x="445.361328" xlink:href="#DejaVuSans-2e"/>
     <use x="477.148438" xlink:href="#DejaVuSans-30"/>
     <use x="540.771484" xlink:href="#DejaVuSans-20"/>
     <use x="572.558594" xlink:href="#DejaVuSans-62"/>
     <use x="636.035156" xlink:href="#DejaVuSans-69"/>
     <use x="663.818359" xlink:href="#DejaVuSans-74"/>
     <use x="703.027344" xlink:href="#DejaVuSans-2f"/>
     <use x="736.71875" xlink:href="#DejaVuSans-73"/>
    </g>
   </g>
   <g id="legend_1">
    <g id="patch_7">
     <path d="M 1173.520313 135.8325 
L 1289 135.8325 
Q 1291 135.8325 1291 133.8325 
L 1291 76.12 
Q 1291 74.12 1289 74.12 
L 1173.520313 74.12 
Q 1171.520313 74.12 1171.520313 76.12 
L 1171.520313 133.8325 
Q 1171.520313 135.8325 1173.520313 135.8325 
z
" style="fill:#ffffff;opacity:0.8;stroke:#cccccc;stroke-linejoin:miter;"/>
    </g>
    <g id="line2d_16">
     <path d="M 1175.520313 82.218437 
L 1195.520313 82.218437 
" style="fill:none;stroke:#ff0000;stroke-dasharray:5.55,2.4;stroke-dashoffset:0;stroke-width:1.5;"/>
    </g>
    <g id="line2d_17">
     <g>
      <use style="fill:#ff0000;stroke:#ff0000;stroke-linejoin:miter;" x="1185.520313" xlink:href="#m10886f13c0" y="82.218437"/>
     </g>
    </g>
    <g id="text_13">
     <!-- tcpdump -->
     <defs>
      <path d="M 48.78125 52.59375 
L 48.78125 44.1875 
Q 44.96875 46.296875 41.140625 47.34375 
Q 37.3125 48.390625 33.40625 48.390625 
Q 24.65625 48.390625 19.8125 42.84375 
Q 14.984375 37.3125 14.984375 27.296875 
Q 14.984375 17.28125 19.8125 11.734375 
Q 24.65625 6.203125 33.40625 6.203125 
Q 37.3125 6.203125 41.140625 7.25 
Q 44.96875 8.296875 48.78125 10.40625 
L 48.78125 2.09375 
Q 45.015625 0.34375 40.984375 -0.53125 
Q 36.96875 -1.421875 32.421875 -1.421875 
Q 20.0625 -1.421875 12.78125 6.34375 
Q 5.515625 14.109375 5.515625 27.296875 
Q 5.515625 40.671875 12.859375 48.328125 
Q 20.21875 56 33.015625 56 
Q 37.15625 56 41.109375 55.140625 
Q 45.0625 54.296875 48.78125 52.59375 
z
" id="DejaVuSans-63"/>
      <path d="M 18.109375 8.203125 
L 18.109375 -20.796875 
L 9.078125 -20.796875 
L 9.078125 54.6875 
L 18.109375 54.6875 
L 18.109375 46.390625 
Q 20.953125 51.265625 25.265625 53.625 
Q 29.59375 56 35.59375 56 
Q 45.5625 56 51.78125 48.09375 
Q 58.015625 40.1875 58.015625 27.296875 
Q 58.015625 14.40625 51.78125 6.484375 
Q 45.5625 -1.421875 35.59375 -1.421875 
Q 29.59375 -1.421875 25.265625 0.953125 
Q 20.953125 3.328125 18.109375 8.203125 
z
M 48.6875 27.296875 
Q 48.6875 37.203125 44.609375 42.84375 
Q 40.53125 48.484375 33.40625 48.484375 
Q 26.265625 48.484375 22.1875 42.84375 
Q 18.109375 37.203125 18.109375 27.296875 
Q 18.109375 17.390625 22.1875 11.75 
Q 26.265625 6.109375 33.40625 6.109375 
Q 40.53125 6.109375 44.609375 11.75 
Q 48.6875 17.390625 48.6875 27.296875 
z
" id="DejaVuSans-70"/>
      <path d="M 45.40625 46.390625 
L 45.40625 75.984375 
L 54.390625 75.984375 
L 54.390625 0 
L 45.40625 0 
L 45.40625 8.203125 
Q 42.578125 3.328125 38.25 0.953125 
Q 33.9375 -1.421875 27.875 -1.421875 
Q 17.96875 -1.421875 11.734375 6.484375 
Q 5.515625 14.40625 5.515625 27.296875 
Q 5.515625 40.1875 11.734375 48.09375 
Q 17.96875 56 27.875 56 
Q 33.9375 56 38.25 53.625 
Q 42.578125 51.265625 45.40625 46.390625 
z
M 14.796875 27.296875 
Q 14.796875 17.390625 18.875 11.75 
Q 22.953125 6.109375 30.078125 6.109375 
Q 37.203125 6.109375 41.296875 11.75 
Q 45.40625 17.390625 45.40625 27.296875 
Q 45.40625 37.203125 41.296875 42.84375 
Q 37.203125 48.484375 30.078125 48.484375 
Q 22.953125 48.484375 18.875 42.84375 
Q 14.796875 37.203125 14.796875 27.296875 
z
" id="DejaVuSans-64"/>
      <path d="M 8.5 21.578125 
L 8.5 54.6875 
L 17.484375 54.6875 
L 17.484375 21.921875 
Q 17.484375 14.15625 20.5 10.265625 
Q 23.53125 6.390625 29.59375 6.390625 
Q 36.859375 6.390625 41.078125 11.03125 
Q 45.3125 15.671875 45.3125 23.6875 
L 45.3125 54.6875 
L 54.296875 54.6875 
L 54.296875 0 
L 45.3125 0 
L 45.3125 8.40625 
Q 42.046875 3.421875 37.71875 1 
Q 33.40625 -1.421875 27.6875 -1.421875 
Q 18.265625 -1.421875 13.375 4.4375 
Q 8.5 10.296875 8.5 21.578125 
z
M 31.109375 56 
z
" id="DejaVuSans-75"/>
      <path d="M 52 44.1875 
Q 55.375 50.25 60.0625 53.125 
Q 64.75 56 71.09375 56 
Q 79.640625 56 84.28125 50.015625 
Q 88.921875 44.046875 88.921875 33.015625 
L 88.921875 0 
L 79.890625 0 
L 79.890625 32.71875 
Q 79.890625 40.578125 77.09375 44.375 
Q 74.3125 48.1875 68.609375 48.1875 
Q 61.625 48.1875 57.5625 43.546875 
Q 53.515625 38.921875 53.515625 30.90625 
L 53.515625 0 
L 44.484375 0 
L 44.484375 32.71875 
Q 44.484375 40.625 41.703125 44.40625 
Q 38.921875 48.1875 33.109375 48.1875 
Q 26.21875 48.1875 22.15625 43.53125 
Q 18.109375 38.875 18.109375 30.90625 
L 18.109375 0 
L 9.078125 0 
L 9.078125 54.6875 
L 18.109375 54.6875 
L 18.109375 46.1875 
Q 21.1875 51.21875 25.484375 53.609375 
Q 29.78125 56 35.6875 56 
Q 41.65625 56 45.828125 52.96875 
Q 50 49.953125 52 44.1875 
z
" id="DejaVuSans-6d"/>
     </defs>
     <g transform="translate(1203.520313 85.718437)scale(0.1 -0.1)">
      <use xlink:href="#DejaVuSans-74"/>
      <use x="39.208984" xlink:href="#DejaVuSans-63"/>
      <use x="94.189453" xlink:href="#DejaVuSans-70"/>
      <use x="157.666016" xlink:href="#DejaVuSans-64"/>
      <use x="221.142578" xlink:href="#DejaVuSans-75"/>
      <use x="284.521484" xlink:href="#DejaVuSans-6d"/>
      <use x="381.933594" xlink:href="#DejaVuSans-70"/>
     </g>
    </g>
    <g id="line2d_18">
     <path d="M 1175.520313 96.896563 
L 1195.520313 96.896563 
" style="fill:none;stroke:#800080;stroke-dasharray:9.6,2.4,1.5,2.4;stroke-dashoffset:0;stroke-width:1.5;"/>
    </g>
    <g id="line2d_19">
     <g>
      <use style="fill:#800080;stroke:#800080;" x="1185.520313" xlink:href="#m5ad37fad5c" y="96.896563"/>
     </g>
    </g>
    <g id="text_14">
     <!-- filtered tcpdump -->
     <defs>
      <path d="M 37.109375 75.984375 
L 37.109375 68.5 
L 28.515625 68.5 
Q 23.6875 68.5 21.796875 66.546875 
Q 19.921875 64.59375 19.921875 59.515625 
L 19.921875 54.6875 
L 34.71875 54.6875 
L 34.71875 47.703125 
L 19.921875 47.703125 
L 19.921875 0 
L 10.890625 0 
L 10.890625 47.703125 
L 2.296875 47.703125 
L 2.296875 54.6875 
L 10.890625 54.6875 
L 10.890625 58.5 
Q 10.890625 67.625 15.140625 71.796875 
Q 19.390625 75.984375 28.609375 75.984375 
z
" id="DejaVuSans-66"/>
      <path d="M 9.421875 75.984375 
L 18.40625 75.984375 
L 18.40625 0 
L 9.421875 0 
z
" id="DejaVuSans-6c"/>
      <path d="M 56.203125 29.59375 
L 56.203125 25.203125 
L 14.890625 25.203125 
Q 15.484375 15.921875 20.484375 11.0625 
Q 25.484375 6.203125 34.421875 6.203125 
Q 39.59375 6.203125 44.453125 7.46875 
Q 49.3125 8.734375 54.109375 11.28125 
L 54.109375 2.78125 
Q 49.265625 0.734375 44.1875 -0.34375 
Q 39.109375 -1.421875 33.890625 -1.421875 
Q 20.796875 -1.421875 13.15625 6.1875 
Q 5.515625 13.8125 5.515625 26.8125 
Q 5.515625 40.234375 12.765625 48.109375 
Q 20.015625 56 32.328125 56 
Q 43.359375 56 49.78125 48.890625 
Q 56.203125 41.796875 56.203125 29.59375 
z
M 47.21875 32.234375 
Q 47.125 39.59375 43.09375 43.984375 
Q 39.0625 48.390625 32.421875 48.390625 
Q 24.90625 48.390625 20.390625 44.140625 
Q 15.875 39.890625 15.1875 32.171875 
z
" id="DejaVuSans-65"/>
      <path d="M 41.109375 46.296875 
Q 39.59375 47.171875 37.8125 47.578125 
Q 36.03125 48 33.890625 48 
Q 26.265625 48 22.1875 43.046875 
Q 18.109375 38.09375 18.109375 28.8125 
L 18.109375 0 
L 9.078125 0 
L 9.078125 54.6875 
L 18.109375 54.6875 
L 18.109375 46.1875 
Q 20.953125 51.171875 25.484375 53.578125 
Q 30.03125 56 36.53125 56 
Q 37.453125 56 38.578125 55.875 
Q 39.703125 55.765625 41.0625 55.515625 
z
" id="DejaVuSans-72"/>
     </defs>
     <g transform="translate(1203.520313 100.396563)scale(0.1 -0.1)">
      <use xlink:href="#DejaVuSans-66"/>
      <use x="35.205078" xlink:href="#DejaVuSans-69"/>
      <use x="62.988281" xlink:href="#DejaVuSans-6c"/>
      <use x="90.771484" xlink:href="#DejaVuSans-74"/>
      <use x="129.980469" xlink:href="#DejaVuSans-65"/>
      <use x="191.503906" xlink:href="#DejaVuSans-72"/>
      <use x="232.585938" xlink:href="#DejaVuSans-65"/>
      <use x="294.109375" xlink:href="#DejaVuSans-64"/>
      <use x="357.585938" xlink:href="#DejaVuSans-20"/>
      <use x="389.373047" xlink:href="#DejaVuSans-74"/>
      <use x="428.582031" xlink:href="#DejaVuSans-63"/>
      <use x="483.5625" xlink:href="#DejaVuSans-70"/>
      <use x="547.039062" xlink:href="#DejaVuSans-64"/>
      <use x="610.515625" xlink:href="#DejaVuSans-75"/>
      <use x="673.894531" xlink:href="#DejaVuSans-6d"/>
      <use x="771.306641" xlink:href="#DejaVuSans-70"/>
     </g>
    </g>
    <g id="line2d_20">
     <path d="M 1175.520313 111.574687 
L 1195.520313 111.574687 
" style="fill:none;stroke:#0000ff;stroke-linecap:square;stroke-width:1.5;"/>
    </g>
    <g id="line2d_21"/>
    <g id="text_15">
     <!-- OLS -->
     <defs>
      <path d="M 39.40625 66.21875 
Q 28.65625 66.21875 22.328125 58.203125 
Q 16.015625 50.203125 16.015625 36.375 
Q 16.015625 22.609375 22.328125 14.59375 
Q 28.65625 6.59375 39.40625 6.59375 
Q 50.140625 6.59375 56.421875 14.59375 
Q 62.703125 22.609375 62.703125 36.375 
Q 62.703125 50.203125 56.421875 58.203125 
Q 50.140625 66.21875 39.40625 66.21875 
z
M 39.40625 74.21875 
Q 54.734375 74.21875 63.90625 63.9375 
Q 73.09375 53.65625 73.09375 36.375 
Q 73.09375 19.140625 63.90625 8.859375 
Q 54.734375 -1.421875 39.40625 -1.421875 
Q 24.03125 -1.421875 14.8125 8.828125 
Q 5.609375 19.09375 5.609375 36.375 
Q 5.609375 53.65625 14.8125 63.9375 
Q 24.03125 74.21875 39.40625 74.21875 
z
" id="DejaVuSans-4f"/>
      <path d="M 9.8125 72.90625 
L 19.671875 72.90625 
L 19.671875 8.296875 
L 55.171875 8.296875 
L 55.171875 0 
L 9.8125 0 
z
" id="DejaVuSans-4c"/>
      <path d="M 53.515625 70.515625 
L 53.515625 60.890625 
Q 47.90625 63.578125 42.921875 64.890625 
Q 37.9375 66.21875 33.296875 66.21875 
Q 25.25 66.21875 20.875 63.09375 
Q 16.5 59.96875 16.5 54.203125 
Q 16.5 49.359375 19.40625 46.890625 
Q 22.3125 44.4375 30.421875 42.921875 
L 36.375 41.703125 
Q 47.40625 39.59375 52.65625 34.296875 
Q 57.90625 29 57.90625 20.125 
Q 57.90625 9.515625 50.796875 4.046875 
Q 43.703125 -1.421875 29.984375 -1.421875 
Q 24.8125 -1.421875 18.96875 -0.25 
Q 13.140625 0.921875 6.890625 3.21875 
L 6.890625 13.375 
Q 12.890625 10.015625 18.65625 8.296875 
Q 24.421875 6.59375 29.984375 6.59375 
Q 38.421875 6.59375 43.015625 9.90625 
Q 47.609375 13.234375 47.609375 19.390625 
Q 47.609375 24.75 44.3125 27.78125 
Q 41.015625 30.8125 33.5 32.328125 
L 27.484375 33.5 
Q 16.453125 35.6875 11.515625 40.375 
Q 6.59375 45.0625 6.59375 53.421875 
Q 6.59375 63.09375 13.40625 68.65625 
Q 20.21875 74.21875 32.171875 74.21875 
Q 37.3125 74.21875 42.625 73.28125 
Q 47.953125 72.359375 53.515625 70.515625 
z
" id="DejaVuSans-53"/>
     </defs>
     <g transform="translate(1203.520313 115.074687)scale(0.1 -0.1)">
      <use xlink:href="#DejaVuSans-4f"/>
      <use x="78.710938" xlink:href="#DejaVuSans-4c"/>
      <use x="134.423828" xlink:href="#DejaVuSans-53"/>
     </g>
    </g>
    <g id="line2d_22">
     <path d="M 1175.520313 126.252813 
L 1195.520313 126.252813 
" style="fill:none;stroke:#008000;stroke-linecap:square;stroke-width:1.5;"/>
    </g>
    <g id="line2d_23">
     <g>
      <use style="fill:#008000;stroke:#008000;" x="1185.520313" xlink:href="#mc2c012f68f" y="126.252813"/>
     </g>
    </g>
    <g id="text_16">
     <!-- IRLS -->
     <defs>
      <path d="M 9.8125 72.90625 
L 19.671875 72.90625 
L 19.671875 0 
L 9.8125 0 
z
" id="DejaVuSans-49"/>
      <path d="M 44.390625 34.1875 
Q 47.5625 33.109375 50.5625 29.59375 
Q 53.5625 26.078125 56.59375 19.921875 
L 66.609375 0 
L 56 0 
L 46.6875 18.703125 
Q 43.0625 26.03125 39.671875 28.421875 
Q 36.28125 30.8125 30.421875 30.8125 
L 19.671875 30.8125 
L 19.671875 0 
L 9.8125 0 
L 9.8125 72.90625 
L 32.078125 72.90625 
Q 44.578125 72.90625 50.734375 67.671875 
Q 56.890625 62.453125 56.890625 51.90625 
Q 56.890625 45.015625 53.6875 40.46875 
Q 50.484375 35.9375 44.390625 34.1875 
z
M 19.671875 64.796875 
L 19.671875 38.921875 
L 32.078125 38.921875 
Q 39.203125 38.921875 42.84375 42.21875 
Q 46.484375 45.515625 46.484375 51.90625 
Q 46.484375 58.296875 42.84375 61.546875 
Q 39.203125 64.796875 32.078125 64.796875 
z
" id="DejaVuSans-52"/>
     </defs>
     <g transform="translate(1203.520313 129.752813)scale(0.1 -0.1)">
      <use xlink:href="#DejaVuSans-49"/>
      <use x="29.492188" xlink:href="#DejaVuSans-52"/>
      <use x="98.974609" xlink:href="#DejaVuSans-4c"/>
      <use x="154.6875" xlink:href="#DejaVuSans-53"/>
     </g>
    </g>
   </g>
  </g>
 </g>
 <defs>
  <clipPath id="p776a4c0a39">
   <rect height="443.52" width="1116" x="180" y="69.12"/>
  </clipPath>
 </defs>
</svg>
