<?xml version="1.0" encoding="utf-8" standalone="no"?>
<!DOCTYPE svg PUBLIC "-//W3C//DTD SVG 1.1//EN"
  "http://www.w3.org/Graphics/SVG/1.1/DTD/svg11.dtd">
<!-- Created with matplotlib (http://matplotlib.org/) -->
<svg height="576pt" version="1.1" viewBox="0 0 1440 576" width="1440pt" xmlns="http://www.w3.org/2000/svg" xmlns:xlink="http://www.w3.org/1999/xlink">
 <defs>
  <style type="text/css">
*{stroke-linecap:butt;stroke-linejoin:round;}
  </style>
 </defs>
 <g id="figure_1">
  <g id="patch_1">
   <path d="M 0 576 
L 1440 576 
L 1440 0 
L 0 0 
z
" style="fill:#ffffff;"/>
  </g>
  <g id="axes_1">
   <g id="patch_2">
    <path d="M 180 512.64 
L 1296 512.64 
L 1296 69.12 
L 180 69.12 
z
" style="fill:#ffffff;"/>
   </g>
   <g id="matplotlib.axis_1">
    <g id="xtick_1">
     <g id="line2d_1">
      <defs>
       <path d="M 0 0 
L 0 3.5 
" id="ma25b0c5fe0" style="stroke:#000000;stroke-width:0.8;"/>
      </defs>
      <g>
       <use style="stroke:#000000;stroke-width:0.8;" x="230.727273" xlink:href="#ma25b0c5fe0" y="512.64"/>
      </g>
     </g>
     <g id="text_1">
      <!-- 0.0 -->
      <defs>
       <path d="M 31.78125 66.40625 
Q 24.171875 66.40625 20.328125 58.90625 
Q 16.5 51.421875 16.5 36.375 
Q 16.5 21.390625 20.328125 13.890625 
Q 24.171875 6.390625 31.78125 6.390625 
Q 39.453125 6.390625 43.28125 13.890625 
Q 47.125 21.390625 47.125 36.375 
Q 47.125 51.421875 43.28125 58.90625 
Q 39.453125 66.40625 31.78125 66.40625 
z
M 31.78125 74.21875 
Q 44.046875 74.21875 50.515625 64.515625 
Q 56.984375 54.828125 56.984375 36.375 
Q 56.984375 17.96875 50.515625 8.265625 
Q 44.046875 -1.421875 31.78125 -1.421875 
Q 19.53125 -1.421875 13.0625 8.265625 
Q 6.59375 17.96875 6.59375 36.375 
Q 6.59375 54.828125 13.0625 64.515625 
Q 19.53125 74.21875 31.78125 74.21875 
z
" id="DejaVuSans-30"/>
       <path d="M 10.6875 12.40625 
L 21 12.40625 
L 21 0 
L 10.6875 0 
z
" id="DejaVuSans-2e"/>
      </defs>
      <g transform="translate(222.77571 527.238438)scale(0.1 -0.1)">
       <use xlink:href="#DejaVuSans-30"/>
       <use x="63.623047" xlink:href="#DejaVuSans-2e"/>
       <use x="95.410156" xlink:href="#DejaVuSans-30"/>
      </g>
     </g>
    </g>
    <g id="xtick_2">
     <g id="line2d_2">
      <g>
       <use style="stroke:#000000;stroke-width:0.8;" x="385.596774" xlink:href="#ma25b0c5fe0" y="512.64"/>
      </g>
     </g>
     <g id="text_2">
      <!-- 0.2 -->
      <defs>
       <path d="M 19.1875 8.296875 
L 53.609375 8.296875 
L 53.609375 0 
L 7.328125 0 
L 7.328125 8.296875 
Q 12.9375 14.109375 22.625 23.890625 
Q 32.328125 33.6875 34.8125 36.53125 
Q 39.546875 41.84375 41.421875 45.53125 
Q 43.3125 49.21875 43.3125 52.78125 
Q 43.3125 58.59375 39.234375 62.25 
Q 35.15625 65.921875 28.609375 65.921875 
Q 23.96875 65.921875 18.8125 64.3125 
Q 13.671875 62.703125 7.8125 59.421875 
L 7.8125 69.390625 
Q 13.765625 71.78125 18.9375 73 
Q 24.125 74.21875 28.421875 74.21875 
Q 39.75 74.21875 46.484375 68.546875 
Q 53.21875 62.890625 53.21875 53.421875 
Q 53.21875 48.921875 51.53125 44.890625 
Q 49.859375 40.875 45.40625 35.40625 
Q 44.1875 33.984375 37.640625 27.21875 
Q 31.109375 20.453125 19.1875 8.296875 
z
" id="DejaVuSans-32"/>
      </defs>
      <g transform="translate(377.645211 527.238438)scale(0.1 -0.1)">
       <use xlink:href="#DejaVuSans-30"/>
       <use x="63.623047" xlink:href="#DejaVuSans-2e"/>
       <use x="95.410156" xlink:href="#DejaVuSans-32"/>
      </g>
     </g>
    </g>
    <g id="xtick_3">
     <g id="line2d_3">
      <g>
       <use style="stroke:#000000;stroke-width:0.8;" x="540.466275" xlink:href="#ma25b0c5fe0" y="512.64"/>
      </g>
     </g>
     <g id="text_3">
      <!-- 0.4 -->
      <defs>
       <path d="M 37.796875 64.3125 
L 12.890625 25.390625 
L 37.796875 25.390625 
z
M 35.203125 72.90625 
L 47.609375 72.90625 
L 47.609375 25.390625 
L 58.015625 25.390625 
L 58.015625 17.1875 
L 47.609375 17.1875 
L 47.609375 0 
L 37.796875 0 
L 37.796875 17.1875 
L 4.890625 17.1875 
L 4.890625 26.703125 
z
" id="DejaVuSans-34"/>
      </defs>
      <g transform="translate(532.514712 527.238438)scale(0.1 -0.1)">
       <use xlink:href="#DejaVuSans-30"/>
       <use x="63.623047" xlink:href="#DejaVuSans-2e"/>
       <use x="95.410156" xlink:href="#DejaVuSans-34"/>
      </g>
     </g>
    </g>
    <g id="xtick_4">
     <g id="line2d_4">
      <g>
       <use style="stroke:#000000;stroke-width:0.8;" x="695.335776" xlink:href="#ma25b0c5fe0" y="512.64"/>
      </g>
     </g>
     <g id="text_4">
      <!-- 0.6 -->
      <defs>
       <path d="M 33.015625 40.375 
Q 26.375 40.375 22.484375 35.828125 
Q 18.609375 31.296875 18.609375 23.390625 
Q 18.609375 15.53125 22.484375 10.953125 
Q 26.375 6.390625 33.015625 6.390625 
Q 39.65625 6.390625 43.53125 10.953125 
Q 47.40625 15.53125 47.40625 23.390625 
Q 47.40625 31.296875 43.53125 35.828125 
Q 39.65625 40.375 33.015625 40.375 
z
M 52.59375 71.296875 
L 52.59375 62.3125 
Q 48.875 64.0625 45.09375 64.984375 
Q 41.3125 65.921875 37.59375 65.921875 
Q 27.828125 65.921875 22.671875 59.328125 
Q 17.53125 52.734375 16.796875 39.40625 
Q 19.671875 43.65625 24.015625 45.921875 
Q 28.375 48.1875 33.59375 48.1875 
Q 44.578125 48.1875 50.953125 41.515625 
Q 57.328125 34.859375 57.328125 23.390625 
Q 57.328125 12.15625 50.6875 5.359375 
Q 44.046875 -1.421875 33.015625 -1.421875 
Q 20.359375 -1.421875 13.671875 8.265625 
Q 6.984375 17.96875 6.984375 36.375 
Q 6.984375 53.65625 15.1875 63.9375 
Q 23.390625 74.21875 37.203125 74.21875 
Q 40.921875 74.21875 44.703125 73.484375 
Q 48.484375 72.75 52.59375 71.296875 
z
" id="DejaVuSans-36"/>
      </defs>
      <g transform="translate(687.384213 527.238438)scale(0.1 -0.1)">
       <use xlink:href="#DejaVuSans-30"/>
       <use x="63.623047" xlink:href="#DejaVuSans-2e"/>
       <use x="95.410156" xlink:href="#DejaVuSans-36"/>
      </g>
     </g>
    </g>
    <g id="xtick_5">
     <g id="line2d_5">
      <g>
       <use style="stroke:#000000;stroke-width:0.8;" x="850.205276" xlink:href="#ma25b0c5fe0" y="512.64"/>
      </g>
     </g>
     <g id="text_5">
      <!-- 0.8 -->
      <defs>
       <path d="M 31.78125 34.625 
Q 24.75 34.625 20.71875 30.859375 
Q 16.703125 27.09375 16.703125 20.515625 
Q 16.703125 13.921875 20.71875 10.15625 
Q 24.75 6.390625 31.78125 6.390625 
Q 38.8125 6.390625 42.859375 10.171875 
Q 46.921875 13.96875 46.921875 20.515625 
Q 46.921875 27.09375 42.890625 30.859375 
Q 38.875 34.625 31.78125 34.625 
z
M 21.921875 38.8125 
Q 15.578125 40.375 12.03125 44.71875 
Q 8.5 49.078125 8.5 55.328125 
Q 8.5 64.0625 14.71875 69.140625 
Q 20.953125 74.21875 31.78125 74.21875 
Q 42.671875 74.21875 48.875 69.140625 
Q 55.078125 64.0625 55.078125 55.328125 
Q 55.078125 49.078125 51.53125 44.71875 
Q 48 40.375 41.703125 38.8125 
Q 48.828125 37.15625 52.796875 32.3125 
Q 56.78125 27.484375 56.78125 20.515625 
Q 56.78125 9.90625 50.3125 4.234375 
Q 43.84375 -1.421875 31.78125 -1.421875 
Q 19.734375 -1.421875 13.25 4.234375 
Q 6.78125 9.90625 6.78125 20.515625 
Q 6.78125 27.484375 10.78125 32.3125 
Q 14.796875 37.15625 21.921875 38.8125 
z
M 18.3125 54.390625 
Q 18.3125 48.734375 21.84375 45.5625 
Q 25.390625 42.390625 31.78125 42.390625 
Q 38.140625 42.390625 41.71875 45.5625 
Q 45.3125 48.734375 45.3125 54.390625 
Q 45.3125 60.0625 41.71875 63.234375 
Q 38.140625 66.40625 31.78125 66.40625 
Q 25.390625 66.40625 21.84375 63.234375 
Q 18.3125 60.0625 18.3125 54.390625 
z
" id="DejaVuSans-38"/>
      </defs>
      <g transform="translate(842.253714 527.238438)scale(0.1 -0.1)">
       <use xlink:href="#DejaVuSans-30"/>
       <use x="63.623047" xlink:href="#DejaVuSans-2e"/>
       <use x="95.410156" xlink:href="#DejaVuSans-38"/>
      </g>
     </g>
    </g>
    <g id="xtick_6">
     <g id="line2d_6">
      <g>
       <use style="stroke:#000000;stroke-width:0.8;" x="1005.074777" xlink:href="#ma25b0c5fe0" y="512.64"/>
      </g>
     </g>
     <g id="text_6">
      <!-- 1.0 -->
      <defs>
       <path d="M 12.40625 8.296875 
L 28.515625 8.296875 
L 28.515625 63.921875 
L 10.984375 60.40625 
L 10.984375 69.390625 
L 28.421875 72.90625 
L 38.28125 72.90625 
L 38.28125 8.296875 
L 54.390625 8.296875 
L 54.390625 0 
L 12.40625 0 
z
" id="DejaVuSans-31"/>
      </defs>
      <g transform="translate(997.123215 527.238438)scale(0.1 -0.1)">
       <use xlink:href="#DejaVuSans-31"/>
       <use x="63.623047" xlink:href="#DejaVuSans-2e"/>
       <use x="95.410156" xlink:href="#DejaVuSans-30"/>
      </g>
     </g>
    </g>
    <g id="xtick_7">
     <g id="line2d_7">
      <g>
       <use style="stroke:#000000;stroke-width:0.8;" x="1159.944278" xlink:href="#ma25b0c5fe0" y="512.64"/>
      </g>
     </g>
     <g id="text_7">
      <!-- 1.2 -->
      <g transform="translate(1151.992716 527.238438)scale(0.1 -0.1)">
       <use xlink:href="#DejaVuSans-31"/>
       <use x="63.623047" xlink:href="#DejaVuSans-2e"/>
       <use x="95.410156" xlink:href="#DejaVuSans-32"/>
      </g>
     </g>
    </g>
   </g>
   <g id="matplotlib.axis_2">
    <g id="ytick_1">
     <g id="line2d_8">
      <defs>
       <path d="M 0 0 
L -3.5 0 
" id="m92c451fc09" style="stroke:#000000;stroke-width:0.8;"/>
      </defs>
      <g>
       <use style="stroke:#000000;stroke-width:0.8;" x="180" xlink:href="#m92c451fc09" y="445.4784"/>
      </g>
     </g>
     <g id="text_8">
      <!-- 0.3004 -->
      <defs>
       <path d="M 40.578125 39.3125 
Q 47.65625 37.796875 51.625 33 
Q 55.609375 28.21875 55.609375 21.1875 
Q 55.609375 10.40625 48.1875 4.484375 
Q 40.765625 -1.421875 27.09375 -1.421875 
Q 22.515625 -1.421875 17.65625 -0.515625 
Q 12.796875 0.390625 7.625 2.203125 
L 7.625 11.71875 
Q 11.71875 9.328125 16.59375 8.109375 
Q 21.484375 6.890625 26.8125 6.890625 
Q 36.078125 6.890625 40.9375 10.546875 
Q 45.796875 14.203125 45.796875 21.1875 
Q 45.796875 27.640625 41.28125 31.265625 
Q 36.765625 34.90625 28.71875 34.90625 
L 20.21875 34.90625 
L 20.21875 43.015625 
L 29.109375 43.015625 
Q 36.375 43.015625 40.234375 45.921875 
Q 44.09375 48.828125 44.09375 54.296875 
Q 44.09375 59.90625 40.109375 62.90625 
Q 36.140625 65.921875 28.71875 65.921875 
Q 24.65625 65.921875 20.015625 65.03125 
Q 15.375 64.15625 9.8125 62.3125 
L 9.8125 71.09375 
Q 15.4375 72.65625 20.34375 73.4375 
Q 25.25 74.21875 29.59375 74.21875 
Q 40.828125 74.21875 47.359375 69.109375 
Q 53.90625 64.015625 53.90625 55.328125 
Q 53.90625 49.265625 50.4375 45.09375 
Q 46.96875 40.921875 40.578125 39.3125 
z
" id="DejaVuSans-33"/>
      </defs>
      <g transform="translate(138.009375 449.277619)scale(0.1 -0.1)">
       <use xlink:href="#DejaVuSans-30"/>
       <use x="63.623047" xlink:href="#DejaVuSans-2e"/>
       <use x="95.410156" xlink:href="#DejaVuSans-33"/>
       <use x="159.033203" xlink:href="#DejaVuSans-30"/>
       <use x="222.65625" xlink:href="#DejaVuSans-30"/>
       <use x="286.279297" xlink:href="#DejaVuSans-34"/>
      </g>
     </g>
    </g>
    <g id="ytick_2">
     <g id="line2d_9">
      <g>
       <use style="stroke:#000000;stroke-width:0.8;" x="180" xlink:href="#m92c451fc09" y="353.3184"/>
      </g>
     </g>
     <g id="text_9">
      <!-- 0.3006 -->
      <g transform="translate(138.009375 357.117619)scale(0.1 -0.1)">
       <use xlink:href="#DejaVuSans-30"/>
       <use x="63.623047" xlink:href="#DejaVuSans-2e"/>
       <use x="95.410156" xlink:href="#DejaVuSans-33"/>
       <use x="159.033203" xlink:href="#DejaVuSans-30"/>
       <use x="222.65625" xlink:href="#DejaVuSans-30"/>
       <use x="286.279297" xlink:href="#DejaVuSans-36"/>
      </g>
     </g>
    </g>
    <g id="ytick_3">
     <g id="line2d_10">
      <g>
       <use style="stroke:#000000;stroke-width:0.8;" x="180" xlink:href="#m92c451fc09" y="261.1584"/>
      </g>
     </g>
     <g id="text_10">
      <!-- 0.3008 -->
      <g transform="translate(138.009375 264.957619)scale(0.1 -0.1)">
       <use xlink:href="#DejaVuSans-30"/>
       <use x="63.623047" xlink:href="#DejaVuSans-2e"/>
       <use x="95.410156" xlink:href="#DejaVuSans-33"/>
       <use x="159.033203" xlink:href="#DejaVuSans-30"/>
       <use x="222.65625" xlink:href="#DejaVuSans-30"/>
       <use x="286.279297" xlink:href="#DejaVuSans-38"/>
      </g>
     </g>
    </g>
    <g id="ytick_4">
     <g id="line2d_11">
      <g>
       <use style="stroke:#000000;stroke-width:0.8;" x="180" xlink:href="#m92c451fc09" y="168.9984"/>
      </g>
     </g>
     <g id="text_11">
      <!-- 0.3010 -->
      <g transform="translate(138.009375 172.797619)scale(0.1 -0.1)">
       <use xlink:href="#DejaVuSans-30"/>
       <use x="63.623047" xlink:href="#DejaVuSans-2e"/>
       <use x="95.410156" xlink:href="#DejaVuSans-33"/>
       <use x="159.033203" xlink:href="#DejaVuSans-30"/>
       <use x="222.65625" xlink:href="#DejaVuSans-31"/>
       <use x="286.279297" xlink:href="#DejaVuSans-30"/>
      </g>
     </g>
    </g>
    <g id="ytick_5">
     <g id="line2d_12">
      <g>
       <use style="stroke:#000000;stroke-width:0.8;" x="180" xlink:href="#m92c451fc09" y="76.8384"/>
      </g>
     </g>
     <g id="text_12">
      <!-- 0.3012 -->
      <g transform="translate(138.009375 80.637619)scale(0.1 -0.1)">
       <use xlink:href="#DejaVuSans-30"/>
       <use x="63.623047" xlink:href="#DejaVuSans-2e"/>
       <use x="95.410156" xlink:href="#DejaVuSans-33"/>
       <use x="159.033203" xlink:href="#DejaVuSans-30"/>
       <use x="222.65625" xlink:href="#DejaVuSans-31"/>
       <use x="286.279297" xlink:href="#DejaVuSans-32"/>
      </g>
     </g>
    </g>
   </g>
   <g id="line2d_13">
    <path clip-path="url(#pe337eace55)" d="M 230.727273 383.2704 
L 241.709843 434.88 
L 251.80656 424.2816 
L 262.170428 457.4592 
L 272.497126 453.7728 
L 282.589971 454.6944 
L 293.28371 407.6928 
L 303.768375 398.016 
L 313.844185 448.704 
L 324.472879 431.6544 
L 335.374918 407.232 
L 345.440661 448.2432 
L 355.879639 156.5568 
L 366.590414 370.8288 
L 376.66545 449.6256 
L 387.047127 368.9856 
L 397.791973 475.8912 
L 407.885592 449.1648 
L 418.348576 393.408 
L 429.151498 419.6736 
L 439.248989 452.8512 
L 449.659317 445.0176 
L 460.420424 421.5168 
L 470.515593 438.5664 
L 480.915854 440.8704 
L 491.673864 463.4496 
L 501.762838 461.6064 
L 512.133674 427.968 
L 523.004738 438.5664 
L 533.078999 478.656 
L 543.447512 429.8112 
L 554.210943 456.9984 
L 564.286753 462.0672 
L 574.681593 461.6064 
L 585.44967 436.2624 
L 595.524705 456.9984 
L 606.042667 462.9888 
L 616.717048 407.6928 
L 626.797504 421.5168 
L 636.859375 457.4592 
L 646.9166 476.352 
L 657.126372 368.5248 
L 667.988919 461.1456 
L 678.024463 461.1456 
L 688.088657 440.8704 
L 698.133493 452.3904 
L 708.377336 89.28 
L 718.63202 448.704 
L 728.522761 468.5184 
L 738.682974 438.1056 
L 748.74562 424.2816 
L 758.919772 421.5168 
L 769.033525 410.9184 
L 779.354803 459.7632 
L 789.883606 475.8912 
L 799.949349 462.0672 
L 810.608242 445.9392 
L 821.116138 437.184 
L 831.164071 436.7232 
L 841.509354 453.312 
L 851.570451 437.184 
L 861.596703 463.9104 
L 871.616759 456.5376 
L 882.140142 461.6064 
L 892.246926 492.48 
L 902.256141 474.9696 
L 912.506954 446.8608 
L 922.684977 426.5856 
L 932.780146 449.1648 
L 942.971333 409.0752 
L 953.143162 450.5472 
L 963.26853 434.4192 
L 973.357504 469.9008 
L 983.574245 451.008 
L 993.603593 440.8704 
L 1003.334044 468.5184 
L 1013.041265 474.048 
L 1022.853796 473.5872 
L 1032.861463 318.2976 
L 1042.891586 467.136 
L 1052.907771 462.0672 
L 1063.035462 452.8512 
L 1073.11979 452.3904 
L 1083.243609 445.9392 
L 1093.327937 438.1056 
L 1103.428526 425.664 
L 1113.457875 443.1744 
L 1123.505808 427.0464 
L 1133.539803 440.8704 
L 1143.662073 396.1728 
L 1153.792862 444.5568 
L 1163.90042 356.544 
L 1174.007978 442.7136 
L 1184.043521 386.496 
L 1194.275749 420.5952 
L 1204.537402 417.3696 
L 1214.718523 227.52 
L 1224.868671 439.488 
L 1235.092381 438.5664 
L 1245.272727 455.1552 
" style="fill:none;stroke:#ff0000;stroke-dasharray:5.55,2.4;stroke-dashoffset:0;stroke-width:1.5;"/>
    <defs>
     <path d="M -3 3 
L 3 3 
L 3 -3 
L -3 -3 
z
" id="m3f94942ede" style="stroke:#ff0000;stroke-linejoin:miter;"/>
    </defs>
    <g clip-path="url(#pe337eace55)">
     <use style="fill:#ff0000;stroke:#ff0000;stroke-linejoin:miter;" x="230.727273" xlink:href="#m3f94942ede" y="383.2704"/>
     <use style="fill:#ff0000;stroke:#ff0000;stroke-linejoin:miter;" x="241.709843" xlink:href="#m3f94942ede" y="434.88"/>
     <use style="fill:#ff0000;stroke:#ff0000;stroke-linejoin:miter;" x="251.80656" xlink:href="#m3f94942ede" y="424.2816"/>
     <use style="fill:#ff0000;stroke:#ff0000;stroke-linejoin:miter;" x="262.170428" xlink:href="#m3f94942ede" y="457.4592"/>
     <use style="fill:#ff0000;stroke:#ff0000;stroke-linejoin:miter;" x="272.497126" xlink:href="#m3f94942ede" y="453.7728"/>
     <use style="fill:#ff0000;stroke:#ff0000;stroke-linejoin:miter;" x="282.589971" xlink:href="#m3f94942ede" y="454.6944"/>
     <use style="fill:#ff0000;stroke:#ff0000;stroke-linejoin:miter;" x="293.28371" xlink:href="#m3f94942ede" y="407.6928"/>
     <use style="fill:#ff0000;stroke:#ff0000;stroke-linejoin:miter;" x="303.768375" xlink:href="#m3f94942ede" y="398.016"/>
     <use style="fill:#ff0000;stroke:#ff0000;stroke-linejoin:miter;" x="313.844185" xlink:href="#m3f94942ede" y="448.704"/>
     <use style="fill:#ff0000;stroke:#ff0000;stroke-linejoin:miter;" x="324.472879" xlink:href="#m3f94942ede" y="431.6544"/>
     <use style="fill:#ff0000;stroke:#ff0000;stroke-linejoin:miter;" x="335.374918" xlink:href="#m3f94942ede" y="407.232"/>
     <use style="fill:#ff0000;stroke:#ff0000;stroke-linejoin:miter;" x="345.440661" xlink:href="#m3f94942ede" y="448.2432"/>
     <use style="fill:#ff0000;stroke:#ff0000;stroke-linejoin:miter;" x="355.879639" xlink:href="#m3f94942ede" y="156.5568"/>
     <use style="fill:#ff0000;stroke:#ff0000;stroke-linejoin:miter;" x="366.590414" xlink:href="#m3f94942ede" y="370.8288"/>
     <use style="fill:#ff0000;stroke:#ff0000;stroke-linejoin:miter;" x="376.66545" xlink:href="#m3f94942ede" y="449.6256"/>
     <use style="fill:#ff0000;stroke:#ff0000;stroke-linejoin:miter;" x="387.047127" xlink:href="#m3f94942ede" y="368.9856"/>
     <use style="fill:#ff0000;stroke:#ff0000;stroke-linejoin:miter;" x="397.791973" xlink:href="#m3f94942ede" y="475.8912"/>
     <use style="fill:#ff0000;stroke:#ff0000;stroke-linejoin:miter;" x="407.885592" xlink:href="#m3f94942ede" y="449.1648"/>
     <use style="fill:#ff0000;stroke:#ff0000;stroke-linejoin:miter;" x="418.348576" xlink:href="#m3f94942ede" y="393.408"/>
     <use style="fill:#ff0000;stroke:#ff0000;stroke-linejoin:miter;" x="429.151498" xlink:href="#m3f94942ede" y="419.6736"/>
     <use style="fill:#ff0000;stroke:#ff0000;stroke-linejoin:miter;" x="439.248989" xlink:href="#m3f94942ede" y="452.8512"/>
     <use style="fill:#ff0000;stroke:#ff0000;stroke-linejoin:miter;" x="449.659317" xlink:href="#m3f94942ede" y="445.0176"/>
     <use style="fill:#ff0000;stroke:#ff0000;stroke-linejoin:miter;" x="460.420424" xlink:href="#m3f94942ede" y="421.5168"/>
     <use style="fill:#ff0000;stroke:#ff0000;stroke-linejoin:miter;" x="470.515593" xlink:href="#m3f94942ede" y="438.5664"/>
     <use style="fill:#ff0000;stroke:#ff0000;stroke-linejoin:miter;" x="480.915854" xlink:href="#m3f94942ede" y="440.8704"/>
     <use style="fill:#ff0000;stroke:#ff0000;stroke-linejoin:miter;" x="491.673864" xlink:href="#m3f94942ede" y="463.4496"/>
     <use style="fill:#ff0000;stroke:#ff0000;stroke-linejoin:miter;" x="501.762838" xlink:href="#m3f94942ede" y="461.6064"/>
     <use style="fill:#ff0000;stroke:#ff0000;stroke-linejoin:miter;" x="512.133674" xlink:href="#m3f94942ede" y="427.968"/>
     <use style="fill:#ff0000;stroke:#ff0000;stroke-linejoin:miter;" x="523.004738" xlink:href="#m3f94942ede" y="438.5664"/>
     <use style="fill:#ff0000;stroke:#ff0000;stroke-linejoin:miter;" x="533.078999" xlink:href="#m3f94942ede" y="478.656"/>
     <use style="fill:#ff0000;stroke:#ff0000;stroke-linejoin:miter;" x="543.447512" xlink:href="#m3f94942ede" y="429.8112"/>
     <use style="fill:#ff0000;stroke:#ff0000;stroke-linejoin:miter;" x="554.210943" xlink:href="#m3f94942ede" y="456.9984"/>
     <use style="fill:#ff0000;stroke:#ff0000;stroke-linejoin:miter;" x="564.286753" xlink:href="#m3f94942ede" y="462.0672"/>
     <use style="fill:#ff0000;stroke:#ff0000;stroke-linejoin:miter;" x="574.681593" xlink:href="#m3f94942ede" y="461.6064"/>
     <use style="fill:#ff0000;stroke:#ff0000;stroke-linejoin:miter;" x="585.44967" xlink:href="#m3f94942ede" y="436.2624"/>
     <use style="fill:#ff0000;stroke:#ff0000;stroke-linejoin:miter;" x="595.524705" xlink:href="#m3f94942ede" y="456.9984"/>
     <use style="fill:#ff0000;stroke:#ff0000;stroke-linejoin:miter;" x="606.042667" xlink:href="#m3f94942ede" y="462.9888"/>
     <use style="fill:#ff0000;stroke:#ff0000;stroke-linejoin:miter;" x="616.717048" xlink:href="#m3f94942ede" y="407.6928"/>
     <use style="fill:#ff0000;stroke:#ff0000;stroke-linejoin:miter;" x="626.797504" xlink:href="#m3f94942ede" y="421.5168"/>
     <use style="fill:#ff0000;stroke:#ff0000;stroke-linejoin:miter;" x="636.859375" xlink:href="#m3f94942ede" y="457.4592"/>
     <use style="fill:#ff0000;stroke:#ff0000;stroke-linejoin:miter;" x="646.9166" xlink:href="#m3f94942ede" y="476.352"/>
     <use style="fill:#ff0000;stroke:#ff0000;stroke-linejoin:miter;" x="657.126372" xlink:href="#m3f94942ede" y="368.5248"/>
     <use style="fill:#ff0000;stroke:#ff0000;stroke-linejoin:miter;" x="667.988919" xlink:href="#m3f94942ede" y="461.1456"/>
     <use style="fill:#ff0000;stroke:#ff0000;stroke-linejoin:miter;" x="678.024463" xlink:href="#m3f94942ede" y="461.1456"/>
     <use style="fill:#ff0000;stroke:#ff0000;stroke-linejoin:miter;" x="688.088657" xlink:href="#m3f94942ede" y="440.8704"/>
     <use style="fill:#ff0000;stroke:#ff0000;stroke-linejoin:miter;" x="698.133493" xlink:href="#m3f94942ede" y="452.3904"/>
     <use style="fill:#ff0000;stroke:#ff0000;stroke-linejoin:miter;" x="708.377336" xlink:href="#m3f94942ede" y="89.28"/>
     <use style="fill:#ff0000;stroke:#ff0000;stroke-linejoin:miter;" x="718.63202" xlink:href="#m3f94942ede" y="448.704"/>
     <use style="fill:#ff0000;stroke:#ff0000;stroke-linejoin:miter;" x="728.522761" xlink:href="#m3f94942ede" y="468.5184"/>
     <use style="fill:#ff0000;stroke:#ff0000;stroke-linejoin:miter;" x="738.682974" xlink:href="#m3f94942ede" y="438.1056"/>
     <use style="fill:#ff0000;stroke:#ff0000;stroke-linejoin:miter;" x="748.74562" xlink:href="#m3f94942ede" y="424.2816"/>
     <use style="fill:#ff0000;stroke:#ff0000;stroke-linejoin:miter;" x="758.919772" xlink:href="#m3f94942ede" y="421.5168"/>
     <use style="fill:#ff0000;stroke:#ff0000;stroke-linejoin:miter;" x="769.033525" xlink:href="#m3f94942ede" y="410.9184"/>
     <use style="fill:#ff0000;stroke:#ff0000;stroke-linejoin:miter;" x="779.354803" xlink:href="#m3f94942ede" y="459.7632"/>
     <use style="fill:#ff0000;stroke:#ff0000;stroke-linejoin:miter;" x="789.883606" xlink:href="#m3f94942ede" y="475.8912"/>
     <use style="fill:#ff0000;stroke:#ff0000;stroke-linejoin:miter;" x="799.949349" xlink:href="#m3f94942ede" y="462.0672"/>
     <use style="fill:#ff0000;stroke:#ff0000;stroke-linejoin:miter;" x="810.608242" xlink:href="#m3f94942ede" y="445.9392"/>
     <use style="fill:#ff0000;stroke:#ff0000;stroke-linejoin:miter;" x="821.116138" xlink:href="#m3f94942ede" y="437.184"/>
     <use style="fill:#ff0000;stroke:#ff0000;stroke-linejoin:miter;" x="831.164071" xlink:href="#m3f94942ede" y="436.7232"/>
     <use style="fill:#ff0000;stroke:#ff0000;stroke-linejoin:miter;" x="841.509354" xlink:href="#m3f94942ede" y="453.312"/>
     <use style="fill:#ff0000;stroke:#ff0000;stroke-linejoin:miter;" x="851.570451" xlink:href="#m3f94942ede" y="437.184"/>
     <use style="fill:#ff0000;stroke:#ff0000;stroke-linejoin:miter;" x="861.596703" xlink:href="#m3f94942ede" y="463.9104"/>
     <use style="fill:#ff0000;stroke:#ff0000;stroke-linejoin:miter;" x="871.616759" xlink:href="#m3f94942ede" y="456.5376"/>
     <use style="fill:#ff0000;stroke:#ff0000;stroke-linejoin:miter;" x="882.140142" xlink:href="#m3f94942ede" y="461.6064"/>
     <use style="fill:#ff0000;stroke:#ff0000;stroke-linejoin:miter;" x="892.246926" xlink:href="#m3f94942ede" y="492.48"/>
     <use style="fill:#ff0000;stroke:#ff0000;stroke-linejoin:miter;" x="902.256141" xlink:href="#m3f94942ede" y="474.9696"/>
     <use style="fill:#ff0000;stroke:#ff0000;stroke-linejoin:miter;" x="912.506954" xlink:href="#m3f94942ede" y="446.8608"/>
     <use style="fill:#ff0000;stroke:#ff0000;stroke-linejoin:miter;" x="922.684977" xlink:href="#m3f94942ede" y="426.5856"/>
     <use style="fill:#ff0000;stroke:#ff0000;stroke-linejoin:miter;" x="932.780146" xlink:href="#m3f94942ede" y="449.1648"/>
     <use style="fill:#ff0000;stroke:#ff0000;stroke-linejoin:miter;" x="942.971333" xlink:href="#m3f94942ede" y="409.0752"/>
     <use style="fill:#ff0000;stroke:#ff0000;stroke-linejoin:miter;" x="953.143162" xlink:href="#m3f94942ede" y="450.5472"/>
     <use style="fill:#ff0000;stroke:#ff0000;stroke-linejoin:miter;" x="963.26853" xlink:href="#m3f94942ede" y="434.4192"/>
     <use style="fill:#ff0000;stroke:#ff0000;stroke-linejoin:miter;" x="973.357504" xlink:href="#m3f94942ede" y="469.9008"/>
     <use style="fill:#ff0000;stroke:#ff0000;stroke-linejoin:miter;" x="983.574245" xlink:href="#m3f94942ede" y="451.008"/>
     <use style="fill:#ff0000;stroke:#ff0000;stroke-linejoin:miter;" x="993.603593" xlink:href="#m3f94942ede" y="440.8704"/>
     <use style="fill:#ff0000;stroke:#ff0000;stroke-linejoin:miter;" x="1003.334044" xlink:href="#m3f94942ede" y="468.5184"/>
     <use style="fill:#ff0000;stroke:#ff0000;stroke-linejoin:miter;" x="1013.041265" xlink:href="#m3f94942ede" y="474.048"/>
     <use style="fill:#ff0000;stroke:#ff0000;stroke-linejoin:miter;" x="1022.853796" xlink:href="#m3f94942ede" y="473.5872"/>
     <use style="fill:#ff0000;stroke:#ff0000;stroke-linejoin:miter;" x="1032.861463" xlink:href="#m3f94942ede" y="318.2976"/>
     <use style="fill:#ff0000;stroke:#ff0000;stroke-linejoin:miter;" x="1042.891586" xlink:href="#m3f94942ede" y="467.136"/>
     <use style="fill:#ff0000;stroke:#ff0000;stroke-linejoin:miter;" x="1052.907771" xlink:href="#m3f94942ede" y="462.0672"/>
     <use style="fill:#ff0000;stroke:#ff0000;stroke-linejoin:miter;" x="1063.035462" xlink:href="#m3f94942ede" y="452.8512"/>
     <use style="fill:#ff0000;stroke:#ff0000;stroke-linejoin:miter;" x="1073.11979" xlink:href="#m3f94942ede" y="452.3904"/>
     <use style="fill:#ff0000;stroke:#ff0000;stroke-linejoin:miter;" x="1083.243609" xlink:href="#m3f94942ede" y="445.9392"/>
     <use style="fill:#ff0000;stroke:#ff0000;stroke-linejoin:miter;" x="1093.327937" xlink:href="#m3f94942ede" y="438.1056"/>
     <use style="fill:#ff0000;stroke:#ff0000;stroke-linejoin:miter;" x="1103.428526" xlink:href="#m3f94942ede" y="425.664"/>
     <use style="fill:#ff0000;stroke:#ff0000;stroke-linejoin:miter;" x="1113.457875" xlink:href="#m3f94942ede" y="443.1744"/>
     <use style="fill:#ff0000;stroke:#ff0000;stroke-linejoin:miter;" x="1123.505808" xlink:href="#m3f94942ede" y="427.0464"/>
     <use style="fill:#ff0000;stroke:#ff0000;stroke-linejoin:miter;" x="1133.539803" xlink:href="#m3f94942ede" y="440.8704"/>
     <use style="fill:#ff0000;stroke:#ff0000;stroke-linejoin:miter;" x="1143.662073" xlink:href="#m3f94942ede" y="396.1728"/>
     <use style="fill:#ff0000;stroke:#ff0000;stroke-linejoin:miter;" x="1153.792862" xlink:href="#m3f94942ede" y="444.5568"/>
     <use style="fill:#ff0000;stroke:#ff0000;stroke-linejoin:miter;" x="1163.90042" xlink:href="#m3f94942ede" y="356.544"/>
     <use style="fill:#ff0000;stroke:#ff0000;stroke-linejoin:miter;" x="1174.007978" xlink:href="#m3f94942ede" y="442.7136"/>
     <use style="fill:#ff0000;stroke:#ff0000;stroke-linejoin:miter;" x="1184.043521" xlink:href="#m3f94942ede" y="386.496"/>
     <use style="fill:#ff0000;stroke:#ff0000;stroke-linejoin:miter;" x="1194.275749" xlink:href="#m3f94942ede" y="420.5952"/>
     <use style="fill:#ff0000;stroke:#ff0000;stroke-linejoin:miter;" x="1204.537402" xlink:href="#m3f94942ede" y="417.3696"/>
     <use style="fill:#ff0000;stroke:#ff0000;stroke-linejoin:miter;" x="1214.718523" xlink:href="#m3f94942ede" y="227.52"/>
     <use style="fill:#ff0000;stroke:#ff0000;stroke-linejoin:miter;" x="1224.868671" xlink:href="#m3f94942ede" y="439.488"/>
     <use style="fill:#ff0000;stroke:#ff0000;stroke-linejoin:miter;" x="1235.092381" xlink:href="#m3f94942ede" y="438.5664"/>
     <use style="fill:#ff0000;stroke:#ff0000;stroke-linejoin:miter;" x="1245.272727" xlink:href="#m3f94942ede" y="455.1552"/>
    </g>
   </g>
   <g id="line2d_14">
    <path clip-path="url(#pe337eace55)" d="M 230.727273 383.2704 
L 241.709843 434.88 
L 251.80656 424.2816 
L 262.170428 457.4592 
L 272.497126 453.7728 
L 282.589971 454.6944 
L 293.28371 407.6928 
L 303.768375 398.016 
L 313.844185 448.704 
L 324.472879 431.6544 
L 335.374918 407.232 
L 345.440661 448.2432 
L 355.879639 156.5568 
L 366.590414 370.8288 
L 376.66545 449.6256 
L 387.047127 368.9856 
L 397.791973 475.8912 
L 407.885592 449.1648 
L 418.348576 393.408 
L 429.151498 419.6736 
L 439.248989 452.8512 
L 449.659317 445.0176 
L 460.420424 421.5168 
L 470.515593 438.5664 
L 480.915854 440.8704 
L 491.673864 463.4496 
L 501.762838 461.6064 
L 512.133674 427.968 
L 523.004738 438.5664 
L 533.078999 478.656 
L 543.447512 429.8112 
L 554.210943 456.9984 
L 564.286753 462.0672 
L 574.681593 461.6064 
L 585.44967 436.2624 
L 595.524705 456.9984 
L 606.042667 462.9888 
L 616.717048 407.6928 
L 626.797504 421.5168 
L 636.859375 457.4592 
L 646.9166 476.352 
L 657.126372 368.5248 
L 667.988919 461.1456 
L 678.024463 461.1456 
L 688.088657 440.8704 
L 698.133493 452.3904 
L 708.377336 89.28 
L 718.63202 448.704 
L 728.522761 468.5184 
L 738.682974 438.1056 
L 748.74562 424.2816 
L 758.919772 421.5168 
L 769.033525 410.9184 
L 779.354803 459.7632 
L 789.883606 475.8912 
L 799.949349 462.0672 
L 810.608242 445.9392 
L 821.116138 437.184 
L 831.164071 436.7232 
L 841.509354 453.312 
L 851.570451 437.184 
L 861.596703 463.9104 
L 871.616759 456.5376 
L 882.140142 461.6064 
L 892.246926 492.48 
L 902.256141 474.9696 
L 912.506954 446.8608 
L 922.684977 426.5856 
L 932.780146 449.1648 
L 942.971333 409.0752 
L 953.143162 450.5472 
L 963.26853 434.4192 
L 973.357504 469.9008 
L 983.574245 451.008 
L 993.603593 440.8704 
L 1003.334044 468.5184 
L 1013.041265 474.048 
L 1022.853796 473.5872 
L 1032.861463 318.2976 
L 1042.891586 467.136 
L 1052.907771 462.0672 
L 1063.035462 452.8512 
L 1073.11979 452.3904 
L 1083.243609 445.9392 
L 1093.327937 438.1056 
L 1103.428526 425.664 
L 1113.457875 443.1744 
L 1123.505808 427.0464 
L 1133.539803 440.8704 
L 1143.662073 396.1728 
L 1153.792862 444.5568 
L 1163.90042 356.544 
L 1174.007978 442.7136 
L 1184.043521 386.496 
L 1194.275749 420.5952 
L 1204.537402 417.3696 
L 1214.718523 227.52 
L 1224.868671 439.488 
L 1235.092381 438.5664 
L 1245.272727 455.1552 
" style="fill:none;stroke:#800080;stroke-dasharray:9.6,2.4,1.5,2.4;stroke-dashoffset:0;stroke-width:1.5;"/>
    <defs>
     <path d="M -3 3 
L 3 -3 
M -3 -3 
L 3 3 
" id="md89585133c" style="stroke:#800080;"/>
    </defs>
    <g clip-path="url(#pe337eace55)">
     <use style="fill:#800080;stroke:#800080;" x="230.727273" xlink:href="#md89585133c" y="383.2704"/>
     <use style="fill:#800080;stroke:#800080;" x="241.709843" xlink:href="#md89585133c" y="434.88"/>
     <use style="fill:#800080;stroke:#800080;" x="251.80656" xlink:href="#md89585133c" y="424.2816"/>
     <use style="fill:#800080;stroke:#800080;" x="262.170428" xlink:href="#md89585133c" y="457.4592"/>
     <use style="fill:#800080;stroke:#800080;" x="272.497126" xlink:href="#md89585133c" y="453.7728"/>
     <use style="fill:#800080;stroke:#800080;" x="282.589971" xlink:href="#md89585133c" y="454.6944"/>
     <use style="fill:#800080;stroke:#800080;" x="293.28371" xlink:href="#md89585133c" y="407.6928"/>
     <use style="fill:#800080;stroke:#800080;" x="303.768375" xlink:href="#md89585133c" y="398.016"/>
     <use style="fill:#800080;stroke:#800080;" x="313.844185" xlink:href="#md89585133c" y="448.704"/>
     <use style="fill:#800080;stroke:#800080;" x="324.472879" xlink:href="#md89585133c" y="431.6544"/>
     <use style="fill:#800080;stroke:#800080;" x="335.374918" xlink:href="#md89585133c" y="407.232"/>
     <use style="fill:#800080;stroke:#800080;" x="345.440661" xlink:href="#md89585133c" y="448.2432"/>
     <use style="fill:#800080;stroke:#800080;" x="355.879639" xlink:href="#md89585133c" y="156.5568"/>
     <use style="fill:#800080;stroke:#800080;" x="366.590414" xlink:href="#md89585133c" y="370.8288"/>
     <use style="fill:#800080;stroke:#800080;" x="376.66545" xlink:href="#md89585133c" y="449.6256"/>
     <use style="fill:#800080;stroke:#800080;" x="387.047127" xlink:href="#md89585133c" y="368.9856"/>
     <use style="fill:#800080;stroke:#800080;" x="397.791973" xlink:href="#md89585133c" y="475.8912"/>
     <use style="fill:#800080;stroke:#800080;" x="407.885592" xlink:href="#md89585133c" y="449.1648"/>
     <use style="fill:#800080;stroke:#800080;" x="418.348576" xlink:href="#md89585133c" y="393.408"/>
     <use style="fill:#800080;stroke:#800080;" x="429.151498" xlink:href="#md89585133c" y="419.6736"/>
     <use style="fill:#800080;stroke:#800080;" x="439.248989" xlink:href="#md89585133c" y="452.8512"/>
     <use style="fill:#800080;stroke:#800080;" x="449.659317" xlink:href="#md89585133c" y="445.0176"/>
     <use style="fill:#800080;stroke:#800080;" x="460.420424" xlink:href="#md89585133c" y="421.5168"/>
     <use style="fill:#800080;stroke:#800080;" x="470.515593" xlink:href="#md89585133c" y="438.5664"/>
     <use style="fill:#800080;stroke:#800080;" x="480.915854" xlink:href="#md89585133c" y="440.8704"/>
     <use style="fill:#800080;stroke:#800080;" x="491.673864" xlink:href="#md89585133c" y="463.4496"/>
     <use style="fill:#800080;stroke:#800080;" x="501.762838" xlink:href="#md89585133c" y="461.6064"/>
     <use style="fill:#800080;stroke:#800080;" x="512.133674" xlink:href="#md89585133c" y="427.968"/>
     <use style="fill:#800080;stroke:#800080;" x="523.004738" xlink:href="#md89585133c" y="438.5664"/>
     <use style="fill:#800080;stroke:#800080;" x="533.078999" xlink:href="#md89585133c" y="478.656"/>
     <use style="fill:#800080;stroke:#800080;" x="543.447512" xlink:href="#md89585133c" y="429.8112"/>
     <use style="fill:#800080;stroke:#800080;" x="554.210943" xlink:href="#md89585133c" y="456.9984"/>
     <use style="fill:#800080;stroke:#800080;" x="564.286753" xlink:href="#md89585133c" y="462.0672"/>
     <use style="fill:#800080;stroke:#800080;" x="574.681593" xlink:href="#md89585133c" y="461.6064"/>
     <use style="fill:#800080;stroke:#800080;" x="585.44967" xlink:href="#md89585133c" y="436.2624"/>
     <use style="fill:#800080;stroke:#800080;" x="595.524705" xlink:href="#md89585133c" y="456.9984"/>
     <use style="fill:#800080;stroke:#800080;" x="606.042667" xlink:href="#md89585133c" y="462.9888"/>
     <use style="fill:#800080;stroke:#800080;" x="616.717048" xlink:href="#md89585133c" y="407.6928"/>
     <use style="fill:#800080;stroke:#800080;" x="626.797504" xlink:href="#md89585133c" y="421.5168"/>
     <use style="fill:#800080;stroke:#800080;" x="636.859375" xlink:href="#md89585133c" y="457.4592"/>
     <use style="fill:#800080;stroke:#800080;" x="646.9166" xlink:href="#md89585133c" y="476.352"/>
     <use style="fill:#800080;stroke:#800080;" x="657.126372" xlink:href="#md89585133c" y="368.5248"/>
     <use style="fill:#800080;stroke:#800080;" x="667.988919" xlink:href="#md89585133c" y="461.1456"/>
     <use style="fill:#800080;stroke:#800080;" x="678.024463" xlink:href="#md89585133c" y="461.1456"/>
     <use style="fill:#800080;stroke:#800080;" x="688.088657" xlink:href="#md89585133c" y="440.8704"/>
     <use style="fill:#800080;stroke:#800080;" x="698.133493" xlink:href="#md89585133c" y="452.3904"/>
     <use style="fill:#800080;stroke:#800080;" x="708.377336" xlink:href="#md89585133c" y="89.28"/>
     <use style="fill:#800080;stroke:#800080;" x="718.63202" xlink:href="#md89585133c" y="448.704"/>
     <use style="fill:#800080;stroke:#800080;" x="728.522761" xlink:href="#md89585133c" y="468.5184"/>
     <use style="fill:#800080;stroke:#800080;" x="738.682974" xlink:href="#md89585133c" y="438.1056"/>
     <use style="fill:#800080;stroke:#800080;" x="748.74562" xlink:href="#md89585133c" y="424.2816"/>
     <use style="fill:#800080;stroke:#800080;" x="758.919772" xlink:href="#md89585133c" y="421.5168"/>
     <use style="fill:#800080;stroke:#800080;" x="769.033525" xlink:href="#md89585133c" y="410.9184"/>
     <use style="fill:#800080;stroke:#800080;" x="779.354803" xlink:href="#md89585133c" y="459.7632"/>
     <use style="fill:#800080;stroke:#800080;" x="789.883606" xlink:href="#md89585133c" y="475.8912"/>
     <use style="fill:#800080;stroke:#800080;" x="799.949349" xlink:href="#md89585133c" y="462.0672"/>
     <use style="fill:#800080;stroke:#800080;" x="810.608242" xlink:href="#md89585133c" y="445.9392"/>
     <use style="fill:#800080;stroke:#800080;" x="821.116138" xlink:href="#md89585133c" y="437.184"/>
     <use style="fill:#800080;stroke:#800080;" x="831.164071" xlink:href="#md89585133c" y="436.7232"/>
     <use style="fill:#800080;stroke:#800080;" x="841.509354" xlink:href="#md89585133c" y="453.312"/>
     <use style="fill:#800080;stroke:#800080;" x="851.570451" xlink:href="#md89585133c" y="437.184"/>
     <use style="fill:#800080;stroke:#800080;" x="861.596703" xlink:href="#md89585133c" y="463.9104"/>
     <use style="fill:#800080;stroke:#800080;" x="871.616759" xlink:href="#md89585133c" y="456.5376"/>
     <use style="fill:#800080;stroke:#800080;" x="882.140142" xlink:href="#md89585133c" y="461.6064"/>
     <use style="fill:#800080;stroke:#800080;" x="892.246926" xlink:href="#md89585133c" y="492.48"/>
     <use style="fill:#800080;stroke:#800080;" x="902.256141" xlink:href="#md89585133c" y="474.9696"/>
     <use style="fill:#800080;stroke:#800080;" x="912.506954" xlink:href="#md89585133c" y="446.8608"/>
     <use style="fill:#800080;stroke:#800080;" x="922.684977" xlink:href="#md89585133c" y="426.5856"/>
     <use style="fill:#800080;stroke:#800080;" x="932.780146" xlink:href="#md89585133c" y="449.1648"/>
     <use style="fill:#800080;stroke:#800080;" x="942.971333" xlink:href="#md89585133c" y="409.0752"/>
     <use style="fill:#800080;stroke:#800080;" x="953.143162" xlink:href="#md89585133c" y="450.5472"/>
     <use style="fill:#800080;stroke:#800080;" x="963.26853" xlink:href="#md89585133c" y="434.4192"/>
     <use style="fill:#800080;stroke:#800080;" x="973.357504" xlink:href="#md89585133c" y="469.9008"/>
     <use style="fill:#800080;stroke:#800080;" x="983.574245" xlink:href="#md89585133c" y="451.008"/>
     <use style="fill:#800080;stroke:#800080;" x="993.603593" xlink:href="#md89585133c" y="440.8704"/>
     <use style="fill:#800080;stroke:#800080;" x="1003.334044" xlink:href="#md89585133c" y="468.5184"/>
     <use style="fill:#800080;stroke:#800080;" x="1013.041265" xlink:href="#md89585133c" y="474.048"/>
     <use style="fill:#800080;stroke:#800080;" x="1022.853796" xlink:href="#md89585133c" y="473.5872"/>
     <use style="fill:#800080;stroke:#800080;" x="1032.861463" xlink:href="#md89585133c" y="318.2976"/>
     <use style="fill:#800080;stroke:#800080;" x="1042.891586" xlink:href="#md89585133c" y="467.136"/>
     <use style="fill:#800080;stroke:#800080;" x="1052.907771" xlink:href="#md89585133c" y="462.0672"/>
     <use style="fill:#800080;stroke:#800080;" x="1063.035462" xlink:href="#md89585133c" y="452.8512"/>
     <use style="fill:#800080;stroke:#800080;" x="1073.11979" xlink:href="#md89585133c" y="452.3904"/>
     <use style="fill:#800080;stroke:#800080;" x="1083.243609" xlink:href="#md89585133c" y="445.9392"/>
     <use style="fill:#800080;stroke:#800080;" x="1093.327937" xlink:href="#md89585133c" y="438.1056"/>
     <use style="fill:#800080;stroke:#800080;" x="1103.428526" xlink:href="#md89585133c" y="425.664"/>
     <use style="fill:#800080;stroke:#800080;" x="1113.457875" xlink:href="#md89585133c" y="443.1744"/>
     <use style="fill:#800080;stroke:#800080;" x="1123.505808" xlink:href="#md89585133c" y="427.0464"/>
     <use style="fill:#800080;stroke:#800080;" x="1133.539803" xlink:href="#md89585133c" y="440.8704"/>
     <use style="fill:#800080;stroke:#800080;" x="1143.662073" xlink:href="#md89585133c" y="396.1728"/>
     <use style="fill:#800080;stroke:#800080;" x="1153.792862" xlink:href="#md89585133c" y="444.5568"/>
     <use style="fill:#800080;stroke:#800080;" x="1163.90042" xlink:href="#md89585133c" y="356.544"/>
     <use style="fill:#800080;stroke:#800080;" x="1174.007978" xlink:href="#md89585133c" y="442.7136"/>
     <use style="fill:#800080;stroke:#800080;" x="1184.043521" xlink:href="#md89585133c" y="386.496"/>
     <use style="fill:#800080;stroke:#800080;" x="1194.275749" xlink:href="#md89585133c" y="420.5952"/>
     <use style="fill:#800080;stroke:#800080;" x="1204.537402" xlink:href="#md89585133c" y="417.3696"/>
     <use style="fill:#800080;stroke:#800080;" x="1214.718523" xlink:href="#md89585133c" y="227.52"/>
     <use style="fill:#800080;stroke:#800080;" x="1224.868671" xlink:href="#md89585133c" y="439.488"/>
     <use style="fill:#800080;stroke:#800080;" x="1235.092381" xlink:href="#md89585133c" y="438.5664"/>
     <use style="fill:#800080;stroke:#800080;" x="1245.272727" xlink:href="#md89585133c" y="455.1552"/>
    </g>
   </g>
   <g id="line2d_15">
    <path clip-path="url(#pe337eace55)" d="M 230.727273 427.26951 
L 241.709843 427.343048 
L 251.80656 427.410654 
L 262.170428 427.480049 
L 272.497126 427.549195 
L 282.589971 427.616775 
L 293.28371 427.688379 
L 303.768375 427.758583 
L 313.844185 427.826049 
L 324.472879 427.897217 
L 335.374918 427.970215 
L 345.440661 428.037614 
L 355.879639 428.107512 
L 366.590414 428.179229 
L 376.66545 428.24669 
L 387.047127 428.316205 
L 397.791973 428.38815 
L 407.885592 428.455736 
L 418.348576 428.525794 
L 429.151498 428.598129 
L 439.248989 428.66574 
L 449.659317 428.735446 
L 460.420424 428.807501 
L 470.515593 428.875097 
L 480.915854 428.944735 
L 491.673864 429.016769 
L 501.762838 429.084324 
L 512.133674 429.153765 
L 523.004738 429.226556 
L 533.078999 429.294012 
L 543.447512 429.363438 
L 554.210943 429.435508 
L 564.286753 429.502974 
L 574.681593 429.572577 
L 585.44967 429.644678 
L 595.524705 429.712139 
L 606.042667 429.782566 
L 616.717048 429.85404 
L 626.797504 429.921537 
L 636.859375 429.98891 
L 646.9166 430.056251 
L 657.126372 430.124614 
L 667.988919 430.197348 
L 678.024463 430.264545 
L 688.088657 430.331933 
L 698.133493 430.399192 
L 708.377336 430.467783 
L 718.63202 430.536447 
L 728.522761 430.602674 
L 738.682974 430.670705 
L 748.74562 430.738083 
L 758.919772 430.806207 
L 769.033525 430.873928 
L 779.354803 430.943037 
L 789.883606 431.013537 
L 799.949349 431.080935 
L 810.608242 431.152306 
L 821.116138 431.222665 
L 831.164071 431.289944 
L 841.509354 431.359215 
L 851.570451 431.426582 
L 861.596703 431.493717 
L 871.616759 431.560809 
L 882.140142 431.631272 
L 892.246926 431.698946 
L 902.256141 431.765966 
L 912.506954 431.834604 
L 922.684977 431.902755 
L 932.780146 431.97035 
L 942.971333 432.038589 
L 953.143162 432.106698 
L 963.26853 432.174496 
L 973.357504 432.24205 
L 983.574245 432.31046 
L 993.603593 432.377615 
L 1003.334044 432.442768 
L 1013.041265 432.507767 
L 1022.853796 432.57347 
L 1032.861463 432.64048 
L 1042.891586 432.70764 
L 1052.907771 432.774707 
L 1063.035462 432.84252 
L 1073.11979 432.910043 
L 1083.243609 432.977831 
L 1093.327937 433.045354 
L 1103.428526 433.112986 
L 1113.457875 433.180141 
L 1123.505808 433.24742 
L 1133.539803 433.314607 
L 1143.662073 433.382384 
L 1153.792862 433.450218 
L 1163.90042 433.517897 
L 1174.007978 433.585575 
L 1184.043521 433.652772 
L 1194.275749 433.721285 
L 1204.537402 433.789996 
L 1214.718523 433.858167 
L 1224.868671 433.926131 
L 1235.092381 433.994587 
L 1245.272727 434.062753 
" style="fill:none;stroke:#0000ff;stroke-linecap:square;stroke-width:1.5;"/>
   </g>
   <g id="line2d_16">
    <path clip-path="url(#pe337eace55)" d="M 230.727273 438.502304 
L 241.709843 438.503548 
L 251.80656 438.504691 
L 262.170428 438.505865 
L 272.497126 438.507034 
L 282.589971 438.508177 
L 293.28371 438.509388 
L 303.768375 438.510575 
L 313.844185 438.511716 
L 324.472879 438.51292 
L 335.374918 438.514154 
L 345.440661 438.515294 
L 355.879639 438.516476 
L 366.590414 438.517689 
L 376.66545 438.51883 
L 387.047127 438.520006 
L 397.791973 438.521222 
L 407.885592 438.522365 
L 418.348576 438.52355 
L 429.151498 438.524773 
L 439.248989 438.525917 
L 449.659317 438.527096 
L 460.420424 438.528314 
L 470.515593 438.529457 
L 480.915854 438.530635 
L 491.673864 438.531853 
L 501.762838 438.532996 
L 512.133674 438.53417 
L 523.004738 438.535401 
L 533.078999 438.536542 
L 543.447512 438.537716 
L 554.210943 438.538935 
L 564.286753 438.540076 
L 574.681593 438.541253 
L 585.44967 438.542472 
L 595.524705 438.543613 
L 606.042667 438.544804 
L 616.717048 438.546013 
L 626.797504 438.547154 
L 636.859375 438.548294 
L 646.9166 438.549433 
L 657.126372 438.550589 
L 667.988919 438.551819 
L 678.024463 438.552955 
L 688.088657 438.554095 
L 698.133493 438.555232 
L 708.377336 438.556392 
L 718.63202 438.557553 
L 728.522761 438.558673 
L 738.682974 438.559824 
L 748.74562 438.560963 
L 758.919772 438.562115 
L 769.033525 438.563261 
L 779.354803 438.564429 
L 789.883606 438.565622 
L 799.949349 438.566762 
L 810.608242 438.567969 
L 821.116138 438.569158 
L 831.164071 438.570296 
L 841.509354 438.571468 
L 851.570451 438.572607 
L 861.596703 438.573742 
L 871.616759 438.574877 
L 882.140142 438.576069 
L 892.246926 438.577213 
L 902.256141 438.578346 
L 912.506954 438.579507 
L 922.684977 438.58066 
L 932.780146 438.581803 
L 942.971333 438.582957 
L 953.143162 438.584109 
L 963.26853 438.585255 
L 973.357504 438.586398 
L 983.574245 438.587555 
L 993.603593 438.58869 
L 1003.334044 438.589792 
L 1013.041265 438.590891 
L 1022.853796 438.592003 
L 1032.861463 438.593136 
L 1042.891586 438.594272 
L 1052.907771 438.595406 
L 1063.035462 438.596553 
L 1073.11979 438.597695 
L 1083.243609 438.598841 
L 1093.327937 438.599983 
L 1103.428526 438.601127 
L 1113.457875 438.602262 
L 1123.505808 438.6034 
L 1133.539803 438.604536 
L 1143.662073 438.605683 
L 1153.792862 438.60683 
L 1163.90042 438.607974 
L 1174.007978 438.609119 
L 1184.043521 438.610255 
L 1194.275749 438.611414 
L 1204.537402 438.612576 
L 1214.718523 438.613729 
L 1224.868671 438.614878 
L 1235.092381 438.616036 
L 1245.272727 438.617189 
" style="fill:none;stroke:#008000;stroke-linecap:square;stroke-width:1.5;"/>
    <defs>
     <path d="M 0 3 
C 0.795609 3 1.55874 2.683901 2.12132 2.12132 
C 2.683901 1.55874 3 0.795609 3 0 
C 3 -0.795609 2.683901 -1.55874 2.12132 -2.12132 
C 1.55874 -2.683901 0.795609 -3 0 -3 
C -0.795609 -3 -1.55874 -2.683901 -2.12132 -2.12132 
C -2.683901 -1.55874 -3 -0.795609 -3 0 
C -3 0.795609 -2.683901 1.55874 -2.12132 2.12132 
C -1.55874 2.683901 -0.795609 3 0 3 
z
" id="ma6942a21ae" style="stroke:#008000;"/>
    </defs>
    <g clip-path="url(#pe337eace55)">
     <use style="fill:#008000;stroke:#008000;" x="230.727273" xlink:href="#ma6942a21ae" y="438.502304"/>
     <use style="fill:#008000;stroke:#008000;" x="241.709843" xlink:href="#ma6942a21ae" y="438.503548"/>
     <use style="fill:#008000;stroke:#008000;" x="251.80656" xlink:href="#ma6942a21ae" y="438.504691"/>
     <use style="fill:#008000;stroke:#008000;" x="262.170428" xlink:href="#ma6942a21ae" y="438.505865"/>
     <use style="fill:#008000;stroke:#008000;" x="272.497126" xlink:href="#ma6942a21ae" y="438.507034"/>
     <use style="fill:#008000;stroke:#008000;" x="282.589971" xlink:href="#ma6942a21ae" y="438.508177"/>
     <use style="fill:#008000;stroke:#008000;" x="293.28371" xlink:href="#ma6942a21ae" y="438.509388"/>
     <use style="fill:#008000;stroke:#008000;" x="303.768375" xlink:href="#ma6942a21ae" y="438.510575"/>
     <use style="fill:#008000;stroke:#008000;" x="313.844185" xlink:href="#ma6942a21ae" y="438.511716"/>
     <use style="fill:#008000;stroke:#008000;" x="324.472879" xlink:href="#ma6942a21ae" y="438.51292"/>
     <use style="fill:#008000;stroke:#008000;" x="335.374918" xlink:href="#ma6942a21ae" y="438.514154"/>
     <use style="fill:#008000;stroke:#008000;" x="345.440661" xlink:href="#ma6942a21ae" y="438.515294"/>
     <use style="fill:#008000;stroke:#008000;" x="355.879639" xlink:href="#ma6942a21ae" y="438.516476"/>
     <use style="fill:#008000;stroke:#008000;" x="366.590414" xlink:href="#ma6942a21ae" y="438.517689"/>
     <use style="fill:#008000;stroke:#008000;" x="376.66545" xlink:href="#ma6942a21ae" y="438.51883"/>
     <use style="fill:#008000;stroke:#008000;" x="387.047127" xlink:href="#ma6942a21ae" y="438.520006"/>
     <use style="fill:#008000;stroke:#008000;" x="397.791973" xlink:href="#ma6942a21ae" y="438.521222"/>
     <use style="fill:#008000;stroke:#008000;" x="407.885592" xlink:href="#ma6942a21ae" y="438.522365"/>
     <use style="fill:#008000;stroke:#008000;" x="418.348576" xlink:href="#ma6942a21ae" y="438.52355"/>
     <use style="fill:#008000;stroke:#008000;" x="429.151498" xlink:href="#ma6942a21ae" y="438.524773"/>
     <use style="fill:#008000;stroke:#008000;" x="439.248989" xlink:href="#ma6942a21ae" y="438.525917"/>
     <use style="fill:#008000;stroke:#008000;" x="449.659317" xlink:href="#ma6942a21ae" y="438.527096"/>
     <use style="fill:#008000;stroke:#008000;" x="460.420424" xlink:href="#ma6942a21ae" y="438.528314"/>
     <use style="fill:#008000;stroke:#008000;" x="470.515593" xlink:href="#ma6942a21ae" y="438.529457"/>
     <use style="fill:#008000;stroke:#008000;" x="480.915854" xlink:href="#ma6942a21ae" y="438.530635"/>
     <use style="fill:#008000;stroke:#008000;" x="491.673864" xlink:href="#ma6942a21ae" y="438.531853"/>
     <use style="fill:#008000;stroke:#008000;" x="501.762838" xlink:href="#ma6942a21ae" y="438.532996"/>
     <use style="fill:#008000;stroke:#008000;" x="512.133674" xlink:href="#ma6942a21ae" y="438.53417"/>
     <use style="fill:#008000;stroke:#008000;" x="523.004738" xlink:href="#ma6942a21ae" y="438.535401"/>
     <use style="fill:#008000;stroke:#008000;" x="533.078999" xlink:href="#ma6942a21ae" y="438.536542"/>
     <use style="fill:#008000;stroke:#008000;" x="543.447512" xlink:href="#ma6942a21ae" y="438.537716"/>
     <use style="fill:#008000;stroke:#008000;" x="554.210943" xlink:href="#ma6942a21ae" y="438.538935"/>
     <use style="fill:#008000;stroke:#008000;" x="564.286753" xlink:href="#ma6942a21ae" y="438.540076"/>
     <use style="fill:#008000;stroke:#008000;" x="574.681593" xlink:href="#ma6942a21ae" y="438.541253"/>
     <use style="fill:#008000;stroke:#008000;" x="585.44967" xlink:href="#ma6942a21ae" y="438.542472"/>
     <use style="fill:#008000;stroke:#008000;" x="595.524705" xlink:href="#ma6942a21ae" y="438.543613"/>
     <use style="fill:#008000;stroke:#008000;" x="606.042667" xlink:href="#ma6942a21ae" y="438.544804"/>
     <use style="fill:#008000;stroke:#008000;" x="616.717048" xlink:href="#ma6942a21ae" y="438.546013"/>
     <use style="fill:#008000;stroke:#008000;" x="626.797504" xlink:href="#ma6942a21ae" y="438.547154"/>
     <use style="fill:#008000;stroke:#008000;" x="636.859375" xlink:href="#ma6942a21ae" y="438.548294"/>
     <use style="fill:#008000;stroke:#008000;" x="646.9166" xlink:href="#ma6942a21ae" y="438.549433"/>
     <use style="fill:#008000;stroke:#008000;" x="657.126372" xlink:href="#ma6942a21ae" y="438.550589"/>
     <use style="fill:#008000;stroke:#008000;" x="667.988919" xlink:href="#ma6942a21ae" y="438.551819"/>
     <use style="fill:#008000;stroke:#008000;" x="678.024463" xlink:href="#ma6942a21ae" y="438.552955"/>
     <use style="fill:#008000;stroke:#008000;" x="688.088657" xlink:href="#ma6942a21ae" y="438.554095"/>
     <use style="fill:#008000;stroke:#008000;" x="698.133493" xlink:href="#ma6942a21ae" y="438.555232"/>
     <use style="fill:#008000;stroke:#008000;" x="708.377336" xlink:href="#ma6942a21ae" y="438.556392"/>
     <use style="fill:#008000;stroke:#008000;" x="718.63202" xlink:href="#ma6942a21ae" y="438.557553"/>
     <use style="fill:#008000;stroke:#008000;" x="728.522761" xlink:href="#ma6942a21ae" y="438.558673"/>
     <use style="fill:#008000;stroke:#008000;" x="738.682974" xlink:href="#ma6942a21ae" y="438.559824"/>
     <use style="fill:#008000;stroke:#008000;" x="748.74562" xlink:href="#ma6942a21ae" y="438.560963"/>
     <use style="fill:#008000;stroke:#008000;" x="758.919772" xlink:href="#ma6942a21ae" y="438.562115"/>
     <use style="fill:#008000;stroke:#008000;" x="769.033525" xlink:href="#ma6942a21ae" y="438.563261"/>
     <use style="fill:#008000;stroke:#008000;" x="779.354803" xlink:href="#ma6942a21ae" y="438.564429"/>
     <use style="fill:#008000;stroke:#008000;" x="789.883606" xlink:href="#ma6942a21ae" y="438.565622"/>
     <use style="fill:#008000;stroke:#008000;" x="799.949349" xlink:href="#ma6942a21ae" y="438.566762"/>
     <use style="fill:#008000;stroke:#008000;" x="810.608242" xlink:href="#ma6942a21ae" y="438.567969"/>
     <use style="fill:#008000;stroke:#008000;" x="821.116138" xlink:href="#ma6942a21ae" y="438.569158"/>
     <use style="fill:#008000;stroke:#008000;" x="831.164071" xlink:href="#ma6942a21ae" y="438.570296"/>
     <use style="fill:#008000;stroke:#008000;" x="841.509354" xlink:href="#ma6942a21ae" y="438.571468"/>
     <use style="fill:#008000;stroke:#008000;" x="851.570451" xlink:href="#ma6942a21ae" y="438.572607"/>
     <use style="fill:#008000;stroke:#008000;" x="861.596703" xlink:href="#ma6942a21ae" y="438.573742"/>
     <use style="fill:#008000;stroke:#008000;" x="871.616759" xlink:href="#ma6942a21ae" y="438.574877"/>
     <use style="fill:#008000;stroke:#008000;" x="882.140142" xlink:href="#ma6942a21ae" y="438.576069"/>
     <use style="fill:#008000;stroke:#008000;" x="892.246926" xlink:href="#ma6942a21ae" y="438.577213"/>
     <use style="fill:#008000;stroke:#008000;" x="902.256141" xlink:href="#ma6942a21ae" y="438.578346"/>
     <use style="fill:#008000;stroke:#008000;" x="912.506954" xlink:href="#ma6942a21ae" y="438.579507"/>
     <use style="fill:#008000;stroke:#008000;" x="922.684977" xlink:href="#ma6942a21ae" y="438.58066"/>
     <use style="fill:#008000;stroke:#008000;" x="932.780146" xlink:href="#ma6942a21ae" y="438.581803"/>
     <use style="fill:#008000;stroke:#008000;" x="942.971333" xlink:href="#ma6942a21ae" y="438.582957"/>
     <use style="fill:#008000;stroke:#008000;" x="953.143162" xlink:href="#ma6942a21ae" y="438.584109"/>
     <use style="fill:#008000;stroke:#008000;" x="963.26853" xlink:href="#ma6942a21ae" y="438.585255"/>
     <use style="fill:#008000;stroke:#008000;" x="973.357504" xlink:href="#ma6942a21ae" y="438.586398"/>
     <use style="fill:#008000;stroke:#008000;" x="983.574245" xlink:href="#ma6942a21ae" y="438.587555"/>
     <use style="fill:#008000;stroke:#008000;" x="993.603593" xlink:href="#ma6942a21ae" y="438.58869"/>
     <use style="fill:#008000;stroke:#008000;" x="1003.334044" xlink:href="#ma6942a21ae" y="438.589792"/>
     <use style="fill:#008000;stroke:#008000;" x="1013.041265" xlink:href="#ma6942a21ae" y="438.590891"/>
     <use style="fill:#008000;stroke:#008000;" x="1022.853796" xlink:href="#ma6942a21ae" y="438.592003"/>
     <use style="fill:#008000;stroke:#008000;" x="1032.861463" xlink:href="#ma6942a21ae" y="438.593136"/>
     <use style="fill:#008000;stroke:#008000;" x="1042.891586" xlink:href="#ma6942a21ae" y="438.594272"/>
     <use style="fill:#008000;stroke:#008000;" x="1052.907771" xlink:href="#ma6942a21ae" y="438.595406"/>
     <use style="fill:#008000;stroke:#008000;" x="1063.035462" xlink:href="#ma6942a21ae" y="438.596553"/>
     <use style="fill:#008000;stroke:#008000;" x="1073.11979" xlink:href="#ma6942a21ae" y="438.597695"/>
     <use style="fill:#008000;stroke:#008000;" x="1083.243609" xlink:href="#ma6942a21ae" y="438.598841"/>
     <use style="fill:#008000;stroke:#008000;" x="1093.327937" xlink:href="#ma6942a21ae" y="438.599983"/>
     <use style="fill:#008000;stroke:#008000;" x="1103.428526" xlink:href="#ma6942a21ae" y="438.601127"/>
     <use style="fill:#008000;stroke:#008000;" x="1113.457875" xlink:href="#ma6942a21ae" y="438.602262"/>
     <use style="fill:#008000;stroke:#008000;" x="1123.505808" xlink:href="#ma6942a21ae" y="438.6034"/>
     <use style="fill:#008000;stroke:#008000;" x="1133.539803" xlink:href="#ma6942a21ae" y="438.604536"/>
     <use style="fill:#008000;stroke:#008000;" x="1143.662073" xlink:href="#ma6942a21ae" y="438.605683"/>
     <use style="fill:#008000;stroke:#008000;" x="1153.792862" xlink:href="#ma6942a21ae" y="438.60683"/>
     <use style="fill:#008000;stroke:#008000;" x="1163.90042" xlink:href="#ma6942a21ae" y="438.607974"/>
     <use style="fill:#008000;stroke:#008000;" x="1174.007978" xlink:href="#ma6942a21ae" y="438.609119"/>
     <use style="fill:#008000;stroke:#008000;" x="1184.043521" xlink:href="#ma6942a21ae" y="438.610255"/>
     <use style="fill:#008000;stroke:#008000;" x="1194.275749" xlink:href="#ma6942a21ae" y="438.611414"/>
     <use style="fill:#008000;stroke:#008000;" x="1204.537402" xlink:href="#ma6942a21ae" y="438.612576"/>
     <use style="fill:#008000;stroke:#008000;" x="1214.718523" xlink:href="#ma6942a21ae" y="438.613729"/>
     <use style="fill:#008000;stroke:#008000;" x="1224.868671" xlink:href="#ma6942a21ae" y="438.614878"/>
     <use style="fill:#008000;stroke:#008000;" x="1235.092381" xlink:href="#ma6942a21ae" y="438.616036"/>
     <use style="fill:#008000;stroke:#008000;" x="1245.272727" xlink:href="#ma6942a21ae" y="438.617189"/>
    </g>
   </g>
   <g id="patch_3">
    <path d="M 180 512.64 
L 180 69.12 
" style="fill:none;stroke:#000000;stroke-linecap:square;stroke-linejoin:miter;stroke-width:0.8;"/>
   </g>
   <g id="patch_4">
    <path d="M 1296 512.64 
L 1296 69.12 
" style="fill:none;stroke:#000000;stroke-linecap:square;stroke-linejoin:miter;stroke-width:0.8;"/>
   </g>
   <g id="patch_5">
    <path d="M 180 512.64 
L 1296 512.64 
" style="fill:none;stroke:#000000;stroke-linecap:square;stroke-linejoin:miter;stroke-width:0.8;"/>
   </g>
   <g id="patch_6">
    <path d="M 180 69.12 
L 1296 69.12 
" style="fill:none;stroke:#000000;stroke-linecap:square;stroke-linejoin:miter;stroke-width:0.8;"/>
   </g>
   <g id="text_13">
    <!-- 500000.0 bit/s -->
    <defs>
     <path d="M 10.796875 72.90625 
L 49.515625 72.90625 
L 49.515625 64.59375 
L 19.828125 64.59375 
L 19.828125 46.734375 
Q 21.96875 47.46875 24.109375 47.828125 
Q 26.265625 48.1875 28.421875 48.1875 
Q 40.625 48.1875 47.75 41.5 
Q 54.890625 34.8125 54.890625 23.390625 
Q 54.890625 11.625 47.5625 5.09375 
Q 40.234375 -1.421875 26.90625 -1.421875 
Q 22.3125 -1.421875 17.546875 -0.640625 
Q 12.796875 0.140625 7.71875 1.703125 
L 7.71875 11.625 
Q 12.109375 9.234375 16.796875 8.0625 
Q 21.484375 6.890625 26.703125 6.890625 
Q 35.15625 6.890625 40.078125 11.328125 
Q 45.015625 15.765625 45.015625 23.390625 
Q 45.015625 31 40.078125 35.4375 
Q 35.15625 39.890625 26.703125 39.890625 
Q 22.75 39.890625 18.8125 39.015625 
Q 14.890625 38.140625 10.796875 36.28125 
z
" id="DejaVuSans-35"/>
     <path id="DejaVuSans-20"/>
     <path d="M 48.6875 27.296875 
Q 48.6875 37.203125 44.609375 42.84375 
Q 40.53125 48.484375 33.40625 48.484375 
Q 26.265625 48.484375 22.1875 42.84375 
Q 18.109375 37.203125 18.109375 27.296875 
Q 18.109375 17.390625 22.1875 11.75 
Q 26.265625 6.109375 33.40625 6.109375 
Q 40.53125 6.109375 44.609375 11.75 
Q 48.6875 17.390625 48.6875 27.296875 
z
M 18.109375 46.390625 
Q 20.953125 51.265625 25.265625 53.625 
Q 29.59375 56 35.59375 56 
Q 45.5625 56 51.78125 48.09375 
Q 58.015625 40.1875 58.015625 27.296875 
Q 58.015625 14.40625 51.78125 6.484375 
Q 45.5625 -1.421875 35.59375 -1.421875 
Q 29.59375 -1.421875 25.265625 0.953125 
Q 20.953125 3.328125 18.109375 8.203125 
L 18.109375 0 
L 9.078125 0 
L 9.078125 75.984375 
L 18.109375 75.984375 
z
" id="DejaVuSans-62"/>
     <path d="M 9.421875 54.6875 
L 18.40625 54.6875 
L 18.40625 0 
L 9.421875 0 
z
M 9.421875 75.984375 
L 18.40625 75.984375 
L 18.40625 64.59375 
L 9.421875 64.59375 
z
" id="DejaVuSans-69"/>
     <path d="M 18.3125 70.21875 
L 18.3125 54.6875 
L 36.8125 54.6875 
L 36.8125 47.703125 
L 18.3125 47.703125 
L 18.3125 18.015625 
Q 18.3125 11.328125 20.140625 9.421875 
Q 21.96875 7.515625 27.59375 7.515625 
L 36.8125 7.515625 
L 36.8125 0 
L 27.59375 0 
Q 17.1875 0 13.234375 3.875 
Q 9.28125 7.765625 9.28125 18.015625 
L 9.28125 47.703125 
L 2.6875 47.703125 
L 2.6875 54.6875 
L 9.28125 54.6875 
L 9.28125 70.21875 
z
" id="DejaVuSans-74"/>
     <path d="M 25.390625 72.90625 
L 33.6875 72.90625 
L 8.296875 -9.28125 
L 0 -9.28125 
z
" id="DejaVuSans-2f"/>
     <path d="M 44.28125 53.078125 
L 44.28125 44.578125 
Q 40.484375 46.53125 36.375 47.5 
Q 32.28125 48.484375 27.875 48.484375 
Q 21.1875 48.484375 17.84375 46.4375 
Q 14.5 44.390625 14.5 40.28125 
Q 14.5 37.15625 16.890625 35.375 
Q 19.28125 33.59375 26.515625 31.984375 
L 29.59375 31.296875 
Q 39.15625 29.25 43.1875 25.515625 
Q 47.21875 21.78125 47.21875 15.09375 
Q 47.21875 7.46875 41.1875 3.015625 
Q 35.15625 -1.421875 24.609375 -1.421875 
Q 20.21875 -1.421875 15.453125 -0.5625 
Q 10.6875 0.296875 5.421875 2 
L 5.421875 11.28125 
Q 10.40625 8.6875 15.234375 7.390625 
Q 20.0625 6.109375 24.8125 6.109375 
Q 31.15625 6.109375 34.5625 8.28125 
Q 37.984375 10.453125 37.984375 14.40625 
Q 37.984375 18.0625 35.515625 20.015625 
Q 33.0625 21.96875 24.703125 23.78125 
L 21.578125 24.515625 
Q 13.234375 26.265625 9.515625 29.90625 
Q 5.8125 33.546875 5.8125 39.890625 
Q 5.8125 47.609375 11.28125 51.796875 
Q 16.75 56 26.8125 56 
Q 31.78125 56 36.171875 55.265625 
Q 40.578125 54.546875 44.28125 53.078125 
z
" id="DejaVuSans-73"/>
    </defs>
    <g transform="translate(694.48875 63.12)scale(0.12 -0.12)">
     <use xlink:href="#DejaVuSans-35"/>
     <use x="63.623047" xlink:href="#DejaVuSans-30"/>
     <use x="127.246094" xlink:href="#DejaVuSans-30"/>
     <use x="190.869141" xlink:href="#DejaVuSans-30"/>
     <use x="254.492188" xlink:href="#DejaVuSans-30"/>
     <use x="318.115234" xlink:href="#DejaVuSans-30"/>
     <use x="381.738281" xlink:href="#DejaVuSans-2e"/>
     <use x="413.525391" xlink:href="#DejaVuSans-30"/>
     <use x="477.148438" xlink:href="#DejaVuSans-20"/>
     <use x="508.935547" xlink:href="#DejaVuSans-62"/>
     <use x="572.412109" xlink:href="#DejaVuSans-69"/>
     <use x="600.195312" xlink:href="#DejaVuSans-74"/>
     <use x="639.404297" xlink:href="#DejaVuSans-2f"/>
     <use x="673.095703" xlink:href="#DejaVuSans-73"/>
    </g>
   </g>
   <g id="legend_1">
    <g id="patch_7">
     <path d="M 1173.520313 135.8325 
L 1289 135.8325 
Q 1291 135.8325 1291 133.8325 
L 1291 76.12 
Q 1291 74.12 1289 74.12 
L 1173.520313 74.12 
Q 1171.520313 74.12 1171.520313 76.12 
L 1171.520313 133.8325 
Q 1171.520313 135.8325 1173.520313 135.8325 
z
" style="fill:#ffffff;opacity:0.8;stroke:#cccccc;stroke-linejoin:miter;"/>
    </g>
    <g id="line2d_17">
     <path d="M 1175.520313 82.218437 
L 1195.520313 82.218437 
" style="fill:none;stroke:#ff0000;stroke-dasharray:5.55,2.4;stroke-dashoffset:0;stroke-width:1.5;"/>
    </g>
    <g id="line2d_18">
     <g>
      <use style="fill:#ff0000;stroke:#ff0000;stroke-linejoin:miter;" x="1185.520313" xlink:href="#m3f94942ede" y="82.218437"/>
     </g>
    </g>
    <g id="text_14">
     <!-- tcpdump -->
     <defs>
      <path d="M 48.78125 52.59375 
L 48.78125 44.1875 
Q 44.96875 46.296875 41.140625 47.34375 
Q 37.3125 48.390625 33.40625 48.390625 
Q 24.65625 48.390625 19.8125 42.84375 
Q 14.984375 37.3125 14.984375 27.296875 
Q 14.984375 17.28125 19.8125 11.734375 
Q 24.65625 6.203125 33.40625 6.203125 
Q 37.3125 6.203125 41.140625 7.25 
Q 44.96875 8.296875 48.78125 10.40625 
L 48.78125 2.09375 
Q 45.015625 0.34375 40.984375 -0.53125 
Q 36.96875 -1.421875 32.421875 -1.421875 
Q 20.0625 -1.421875 12.78125 6.34375 
Q 5.515625 14.109375 5.515625 27.296875 
Q 5.515625 40.671875 12.859375 48.328125 
Q 20.21875 56 33.015625 56 
Q 37.15625 56 41.109375 55.140625 
Q 45.0625 54.296875 48.78125 52.59375 
z
" id="DejaVuSans-63"/>
      <path d="M 18.109375 8.203125 
L 18.109375 -20.796875 
L 9.078125 -20.796875 
L 9.078125 54.6875 
L 18.109375 54.6875 
L 18.109375 46.390625 
Q 20.953125 51.265625 25.265625 53.625 
Q 29.59375 56 35.59375 56 
Q 45.5625 56 51.78125 48.09375 
Q 58.015625 40.1875 58.015625 27.296875 
Q 58.015625 14.40625 51.78125 6.484375 
Q 45.5625 -1.421875 35.59375 -1.421875 
Q 29.59375 -1.421875 25.265625 0.953125 
Q 20.953125 3.328125 18.109375 8.203125 
z
M 48.6875 27.296875 
Q 48.6875 37.203125 44.609375 42.84375 
Q 40.53125 48.484375 33.40625 48.484375 
Q 26.265625 48.484375 22.1875 42.84375 
Q 18.109375 37.203125 18.109375 27.296875 
Q 18.109375 17.390625 22.1875 11.75 
Q 26.265625 6.109375 33.40625 6.109375 
Q 40.53125 6.109375 44.609375 11.75 
Q 48.6875 17.390625 48.6875 27.296875 
z
" id="DejaVuSans-70"/>
      <path d="M 45.40625 46.390625 
L 45.40625 75.984375 
L 54.390625 75.984375 
L 54.390625 0 
L 45.40625 0 
L 45.40625 8.203125 
Q 42.578125 3.328125 38.25 0.953125 
Q 33.9375 -1.421875 27.875 -1.421875 
Q 17.96875 -1.421875 11.734375 6.484375 
Q 5.515625 14.40625 5.515625 27.296875 
Q 5.515625 40.1875 11.734375 48.09375 
Q 17.96875 56 27.875 56 
Q 33.9375 56 38.25 53.625 
Q 42.578125 51.265625 45.40625 46.390625 
z
M 14.796875 27.296875 
Q 14.796875 17.390625 18.875 11.75 
Q 22.953125 6.109375 30.078125 6.109375 
Q 37.203125 6.109375 41.296875 11.75 
Q 45.40625 17.390625 45.40625 27.296875 
Q 45.40625 37.203125 41.296875 42.84375 
Q 37.203125 48.484375 30.078125 48.484375 
Q 22.953125 48.484375 18.875 42.84375 
Q 14.796875 37.203125 14.796875 27.296875 
z
" id="DejaVuSans-64"/>
      <path d="M 8.5 21.578125 
L 8.5 54.6875 
L 17.484375 54.6875 
L 17.484375 21.921875 
Q 17.484375 14.15625 20.5 10.265625 
Q 23.53125 6.390625 29.59375 6.390625 
Q 36.859375 6.390625 41.078125 11.03125 
Q 45.3125 15.671875 45.3125 23.6875 
L 45.3125 54.6875 
L 54.296875 54.6875 
L 54.296875 0 
L 45.3125 0 
L 45.3125 8.40625 
Q 42.046875 3.421875 37.71875 1 
Q 33.40625 -1.421875 27.6875 -1.421875 
Q 18.265625 -1.421875 13.375 4.4375 
Q 8.5 10.296875 8.5 21.578125 
z
M 31.109375 56 
z
" id="DejaVuSans-75"/>
      <path d="M 52 44.1875 
Q 55.375 50.25 60.0625 53.125 
Q 64.75 56 71.09375 56 
Q 79.640625 56 84.28125 50.015625 
Q 88.921875 44.046875 88.921875 33.015625 
L 88.921875 0 
L 79.890625 0 
L 79.890625 32.71875 
Q 79.890625 40.578125 77.09375 44.375 
Q 74.3125 48.1875 68.609375 48.1875 
Q 61.625 48.1875 57.5625 43.546875 
Q 53.515625 38.921875 53.515625 30.90625 
L 53.515625 0 
L 44.484375 0 
L 44.484375 32.71875 
Q 44.484375 40.625 41.703125 44.40625 
Q 38.921875 48.1875 33.109375 48.1875 
Q 26.21875 48.1875 22.15625 43.53125 
Q 18.109375 38.875 18.109375 30.90625 
L 18.109375 0 
L 9.078125 0 
L 9.078125 54.6875 
L 18.109375 54.6875 
L 18.109375 46.1875 
Q 21.1875 51.21875 25.484375 53.609375 
Q 29.78125 56 35.6875 56 
Q 41.65625 56 45.828125 52.96875 
Q 50 49.953125 52 44.1875 
z
" id="DejaVuSans-6d"/>
     </defs>
     <g transform="translate(1203.520313 85.718437)scale(0.1 -0.1)">
      <use xlink:href="#DejaVuSans-74"/>
      <use x="39.208984" xlink:href="#DejaVuSans-63"/>
      <use x="94.189453" xlink:href="#DejaVuSans-70"/>
      <use x="157.666016" xlink:href="#DejaVuSans-64"/>
      <use x="221.142578" xlink:href="#DejaVuSans-75"/>
      <use x="284.521484" xlink:href="#DejaVuSans-6d"/>
      <use x="381.933594" xlink:href="#DejaVuSans-70"/>
     </g>
    </g>
    <g id="line2d_19">
     <path d="M 1175.520313 96.896563 
L 1195.520313 96.896563 
" style="fill:none;stroke:#800080;stroke-dasharray:9.6,2.4,1.5,2.4;stroke-dashoffset:0;stroke-width:1.5;"/>
    </g>
    <g id="line2d_20">
     <g>
      <use style="fill:#800080;stroke:#800080;" x="1185.520313" xlink:href="#md89585133c" y="96.896563"/>
     </g>
    </g>
    <g id="text_15">
     <!-- filtered tcpdump -->
     <defs>
      <path d="M 37.109375 75.984375 
L 37.109375 68.5 
L 28.515625 68.5 
Q 23.6875 68.5 21.796875 66.546875 
Q 19.921875 64.59375 19.921875 59.515625 
L 19.921875 54.6875 
L 34.71875 54.6875 
L 34.71875 47.703125 
L 19.921875 47.703125 
L 19.921875 0 
L 10.890625 0 
L 10.890625 47.703125 
L 2.296875 47.703125 
L 2.296875 54.6875 
L 10.890625 54.6875 
L 10.890625 58.5 
Q 10.890625 67.625 15.140625 71.796875 
Q 19.390625 75.984375 28.609375 75.984375 
z
" id="DejaVuSans-66"/>
      <path d="M 9.421875 75.984375 
L 18.40625 75.984375 
L 18.40625 0 
L 9.421875 0 
z
" id="DejaVuSans-6c"/>
      <path d="M 56.203125 29.59375 
L 56.203125 25.203125 
L 14.890625 25.203125 
Q 15.484375 15.921875 20.484375 11.0625 
Q 25.484375 6.203125 34.421875 6.203125 
Q 39.59375 6.203125 44.453125 7.46875 
Q 49.3125 8.734375 54.109375 11.28125 
L 54.109375 2.78125 
Q 49.265625 0.734375 44.1875 -0.34375 
Q 39.109375 -1.421875 33.890625 -1.421875 
Q 20.796875 -1.421875 13.15625 6.1875 
Q 5.515625 13.8125 5.515625 26.8125 
Q 5.515625 40.234375 12.765625 48.109375 
Q 20.015625 56 32.328125 56 
Q 43.359375 56 49.78125 48.890625 
Q 56.203125 41.796875 56.203125 29.59375 
z
M 47.21875 32.234375 
Q 47.125 39.59375 43.09375 43.984375 
Q 39.0625 48.390625 32.421875 48.390625 
Q 24.90625 48.390625 20.390625 44.140625 
Q 15.875 39.890625 15.1875 32.171875 
z
" id="DejaVuSans-65"/>
      <path d="M 41.109375 46.296875 
Q 39.59375 47.171875 37.8125 47.578125 
Q 36.03125 48 33.890625 48 
Q 26.265625 48 22.1875 43.046875 
Q 18.109375 38.09375 18.109375 28.8125 
L 18.109375 0 
L 9.078125 0 
L 9.078125 54.6875 
L 18.109375 54.6875 
L 18.109375 46.1875 
Q 20.953125 51.171875 25.484375 53.578125 
Q 30.03125 56 36.53125 56 
Q 37.453125 56 38.578125 55.875 
Q 39.703125 55.765625 41.0625 55.515625 
z
" id="DejaVuSans-72"/>
     </defs>
     <g transform="translate(1203.520313 100.396563)scale(0.1 -0.1)">
      <use xlink:href="#DejaVuSans-66"/>
      <use x="35.205078" xlink:href="#DejaVuSans-69"/>
      <use x="62.988281" xlink:href="#DejaVuSans-6c"/>
      <use x="90.771484" xlink:href="#DejaVuSans-74"/>
      <use x="129.980469" xlink:href="#DejaVuSans-65"/>
      <use x="191.503906" xlink:href="#DejaVuSans-72"/>
      <use x="232.585938" xlink:href="#DejaVuSans-65"/>
      <use x="294.109375" xlink:href="#DejaVuSans-64"/>
      <use x="357.585938" xlink:href="#DejaVuSans-20"/>
      <use x="389.373047" xlink:href="#DejaVuSans-74"/>
      <use x="428.582031" xlink:href="#DejaVuSans-63"/>
      <use x="483.5625" xlink:href="#DejaVuSans-70"/>
      <use x="547.039062" xlink:href="#DejaVuSans-64"/>
      <use x="610.515625" xlink:href="#DejaVuSans-75"/>
      <use x="673.894531" xlink:href="#DejaVuSans-6d"/>
      <use x="771.306641" xlink:href="#DejaVuSans-70"/>
     </g>
    </g>
    <g id="line2d_21">
     <path d="M 1175.520313 111.574687 
L 1195.520313 111.574687 
" style="fill:none;stroke:#0000ff;stroke-linecap:square;stroke-width:1.5;"/>
    </g>
    <g id="line2d_22"/>
    <g id="text_16">
     <!-- OLS -->
     <defs>
      <path d="M 39.40625 66.21875 
Q 28.65625 66.21875 22.328125 58.203125 
Q 16.015625 50.203125 16.015625 36.375 
Q 16.015625 22.609375 22.328125 14.59375 
Q 28.65625 6.59375 39.40625 6.59375 
Q 50.140625 6.59375 56.421875 14.59375 
Q 62.703125 22.609375 62.703125 36.375 
Q 62.703125 50.203125 56.421875 58.203125 
Q 50.140625 66.21875 39.40625 66.21875 
z
M 39.40625 74.21875 
Q 54.734375 74.21875 63.90625 63.9375 
Q 73.09375 53.65625 73.09375 36.375 
Q 73.09375 19.140625 63.90625 8.859375 
Q 54.734375 -1.421875 39.40625 -1.421875 
Q 24.03125 -1.421875 14.8125 8.828125 
Q 5.609375 19.09375 5.609375 36.375 
Q 5.609375 53.65625 14.8125 63.9375 
Q 24.03125 74.21875 39.40625 74.21875 
z
" id="DejaVuSans-4f"/>
      <path d="M 9.8125 72.90625 
L 19.671875 72.90625 
L 19.671875 8.296875 
L 55.171875 8.296875 
L 55.171875 0 
L 9.8125 0 
z
" id="DejaVuSans-4c"/>
      <path d="M 53.515625 70.515625 
L 53.515625 60.890625 
Q 47.90625 63.578125 42.921875 64.890625 
Q 37.9375 66.21875 33.296875 66.21875 
Q 25.25 66.21875 20.875 63.09375 
Q 16.5 59.96875 16.5 54.203125 
Q 16.5 49.359375 19.40625 46.890625 
Q 22.3125 44.4375 30.421875 42.921875 
L 36.375 41.703125 
Q 47.40625 39.59375 52.65625 34.296875 
Q 57.90625 29 57.90625 20.125 
Q 57.90625 9.515625 50.796875 4.046875 
Q 43.703125 -1.421875 29.984375 -1.421875 
Q 24.8125 -1.421875 18.96875 -0.25 
Q 13.140625 0.921875 6.890625 3.21875 
L 6.890625 13.375 
Q 12.890625 10.015625 18.65625 8.296875 
Q 24.421875 6.59375 29.984375 6.59375 
Q 38.421875 6.59375 43.015625 9.90625 
Q 47.609375 13.234375 47.609375 19.390625 
Q 47.609375 24.75 44.3125 27.78125 
Q 41.015625 30.8125 33.5 32.328125 
L 27.484375 33.5 
Q 16.453125 35.6875 11.515625 40.375 
Q 6.59375 45.0625 6.59375 53.421875 
Q 6.59375 63.09375 13.40625 68.65625 
Q 20.21875 74.21875 32.171875 74.21875 
Q 37.3125 74.21875 42.625 73.28125 
Q 47.953125 72.359375 53.515625 70.515625 
z
" id="DejaVuSans-53"/>
     </defs>
     <g transform="translate(1203.520313 115.074687)scale(0.1 -0.1)">
      <use xlink:href="#DejaVuSans-4f"/>
      <use x="78.710938" xlink:href="#DejaVuSans-4c"/>
      <use x="134.423828" xlink:href="#DejaVuSans-53"/>
     </g>
    </g>
    <g id="line2d_23">
     <path d="M 1175.520313 126.252813 
L 1195.520313 126.252813 
" style="fill:none;stroke:#008000;stroke-linecap:square;stroke-width:1.5;"/>
    </g>
    <g id="line2d_24">
     <g>
      <use style="fill:#008000;stroke:#008000;" x="1185.520313" xlink:href="#ma6942a21ae" y="126.252813"/>
     </g>
    </g>
    <g id="text_17">
     <!-- IRLS -->
     <defs>
      <path d="M 9.8125 72.90625 
L 19.671875 72.90625 
L 19.671875 0 
L 9.8125 0 
z
" id="DejaVuSans-49"/>
      <path d="M 44.390625 34.1875 
Q 47.5625 33.109375 50.5625 29.59375 
Q 53.5625 26.078125 56.59375 19.921875 
L 66.609375 0 
L 56 0 
L 46.6875 18.703125 
Q 43.0625 26.03125 39.671875 28.421875 
Q 36.28125 30.8125 30.421875 30.8125 
L 19.671875 30.8125 
L 19.671875 0 
L 9.8125 0 
L 9.8125 72.90625 
L 32.078125 72.90625 
Q 44.578125 72.90625 50.734375 67.671875 
Q 56.890625 62.453125 56.890625 51.90625 
Q 56.890625 45.015625 53.6875 40.46875 
Q 50.484375 35.9375 44.390625 34.1875 
z
M 19.671875 64.796875 
L 19.671875 38.921875 
L 32.078125 38.921875 
Q 39.203125 38.921875 42.84375 42.21875 
Q 46.484375 45.515625 46.484375 51.90625 
Q 46.484375 58.296875 42.84375 61.546875 
Q 39.203125 64.796875 32.078125 64.796875 
z
" id="DejaVuSans-52"/>
     </defs>
     <g transform="translate(1203.520313 129.752813)scale(0.1 -0.1)">
      <use xlink:href="#DejaVuSans-49"/>
      <use x="29.492188" xlink:href="#DejaVuSans-52"/>
      <use x="98.974609" xlink:href="#DejaVuSans-4c"/>
      <use x="154.6875" xlink:href="#DejaVuSans-53"/>
     </g>
    </g>
   </g>
  </g>
 </g>
 <defs>
  <clipPath id="pe337eace55">
   <rect height="443.52" width="1116" x="180" y="69.12"/>
  </clipPath>
 </defs>
</svg>
