<?xml version="1.0" encoding="utf-8" standalone="no"?>
<!DOCTYPE svg PUBLIC "-//W3C//DTD SVG 1.1//EN"
  "http://www.w3.org/Graphics/SVG/1.1/DTD/svg11.dtd">
<!-- Created with matplotlib (http://matplotlib.org/) -->
<svg height="576pt" version="1.1" viewBox="0 0 1440 576" width="1440pt" xmlns="http://www.w3.org/2000/svg" xmlns:xlink="http://www.w3.org/1999/xlink">
 <defs>
  <style type="text/css">
*{stroke-linecap:butt;stroke-linejoin:round;}
  </style>
 </defs>
 <g id="figure_1">
  <g id="patch_1">
   <path d="M 0 576 
L 1440 576 
L 1440 0 
L 0 0 
z
" style="fill:#ffffff;"/>
  </g>
  <g id="axes_1">
   <g id="patch_2">
    <path d="M 180 512.64 
L 1296 512.64 
L 1296 69.12 
L 180 69.12 
z
" style="fill:#ffffff;"/>
   </g>
   <g id="matplotlib.axis_1">
    <g id="xtick_1">
     <g id="line2d_1">
      <defs>
       <path d="M 0 0 
L 0 3.5 
" id="m1216822624" style="stroke:#000000;stroke-width:0.8;"/>
      </defs>
      <g>
       <use style="stroke:#000000;stroke-width:0.8;" x="230.727273" xlink:href="#m1216822624" y="512.64"/>
      </g>
     </g>
     <g id="text_1">
      <!-- 0.0 -->
      <defs>
       <path d="M 31.78125 66.40625 
Q 24.171875 66.40625 20.328125 58.90625 
Q 16.5 51.421875 16.5 36.375 
Q 16.5 21.390625 20.328125 13.890625 
Q 24.171875 6.390625 31.78125 6.390625 
Q 39.453125 6.390625 43.28125 13.890625 
Q 47.125 21.390625 47.125 36.375 
Q 47.125 51.421875 43.28125 58.90625 
Q 39.453125 66.40625 31.78125 66.40625 
z
M 31.78125 74.21875 
Q 44.046875 74.21875 50.515625 64.515625 
Q 56.984375 54.828125 56.984375 36.375 
Q 56.984375 17.96875 50.515625 8.265625 
Q 44.046875 -1.421875 31.78125 -1.421875 
Q 19.53125 -1.421875 13.0625 8.265625 
Q 6.59375 17.96875 6.59375 36.375 
Q 6.59375 54.828125 13.0625 64.515625 
Q 19.53125 74.21875 31.78125 74.21875 
z
" id="DejaVuSans-30"/>
       <path d="M 10.6875 12.40625 
L 21 12.40625 
L 21 0 
L 10.6875 0 
z
" id="DejaVuSans-2e"/>
      </defs>
      <g transform="translate(222.77571 527.238438)scale(0.1 -0.1)">
       <use xlink:href="#DejaVuSans-30"/>
       <use x="63.623047" xlink:href="#DejaVuSans-2e"/>
       <use x="95.410156" xlink:href="#DejaVuSans-30"/>
      </g>
     </g>
    </g>
    <g id="xtick_2">
     <g id="line2d_2">
      <g>
       <use style="stroke:#000000;stroke-width:0.8;" x="382.27943" xlink:href="#m1216822624" y="512.64"/>
      </g>
     </g>
     <g id="text_2">
      <!-- 0.2 -->
      <defs>
       <path d="M 19.1875 8.296875 
L 53.609375 8.296875 
L 53.609375 0 
L 7.328125 0 
L 7.328125 8.296875 
Q 12.9375 14.109375 22.625 23.890625 
Q 32.328125 33.6875 34.8125 36.53125 
Q 39.546875 41.84375 41.421875 45.53125 
Q 43.3125 49.21875 43.3125 52.78125 
Q 43.3125 58.59375 39.234375 62.25 
Q 35.15625 65.921875 28.609375 65.921875 
Q 23.96875 65.921875 18.8125 64.3125 
Q 13.671875 62.703125 7.8125 59.421875 
L 7.8125 69.390625 
Q 13.765625 71.78125 18.9375 73 
Q 24.125 74.21875 28.421875 74.21875 
Q 39.75 74.21875 46.484375 68.546875 
Q 53.21875 62.890625 53.21875 53.421875 
Q 53.21875 48.921875 51.53125 44.890625 
Q 49.859375 40.875 45.40625 35.40625 
Q 44.1875 33.984375 37.640625 27.21875 
Q 31.109375 20.453125 19.1875 8.296875 
z
" id="DejaVuSans-32"/>
      </defs>
      <g transform="translate(374.327867 527.238438)scale(0.1 -0.1)">
       <use xlink:href="#DejaVuSans-30"/>
       <use x="63.623047" xlink:href="#DejaVuSans-2e"/>
       <use x="95.410156" xlink:href="#DejaVuSans-32"/>
      </g>
     </g>
    </g>
    <g id="xtick_3">
     <g id="line2d_3">
      <g>
       <use style="stroke:#000000;stroke-width:0.8;" x="533.831586" xlink:href="#m1216822624" y="512.64"/>
      </g>
     </g>
     <g id="text_3">
      <!-- 0.4 -->
      <defs>
       <path d="M 37.796875 64.3125 
L 12.890625 25.390625 
L 37.796875 25.390625 
z
M 35.203125 72.90625 
L 47.609375 72.90625 
L 47.609375 25.390625 
L 58.015625 25.390625 
L 58.015625 17.1875 
L 47.609375 17.1875 
L 47.609375 0 
L 37.796875 0 
L 37.796875 17.1875 
L 4.890625 17.1875 
L 4.890625 26.703125 
z
" id="DejaVuSans-34"/>
      </defs>
      <g transform="translate(525.880024 527.238438)scale(0.1 -0.1)">
       <use xlink:href="#DejaVuSans-30"/>
       <use x="63.623047" xlink:href="#DejaVuSans-2e"/>
       <use x="95.410156" xlink:href="#DejaVuSans-34"/>
      </g>
     </g>
    </g>
    <g id="xtick_4">
     <g id="line2d_4">
      <g>
       <use style="stroke:#000000;stroke-width:0.8;" x="685.383743" xlink:href="#m1216822624" y="512.64"/>
      </g>
     </g>
     <g id="text_4">
      <!-- 0.6 -->
      <defs>
       <path d="M 33.015625 40.375 
Q 26.375 40.375 22.484375 35.828125 
Q 18.609375 31.296875 18.609375 23.390625 
Q 18.609375 15.53125 22.484375 10.953125 
Q 26.375 6.390625 33.015625 6.390625 
Q 39.65625 6.390625 43.53125 10.953125 
Q 47.40625 15.53125 47.40625 23.390625 
Q 47.40625 31.296875 43.53125 35.828125 
Q 39.65625 40.375 33.015625 40.375 
z
M 52.59375 71.296875 
L 52.59375 62.3125 
Q 48.875 64.0625 45.09375 64.984375 
Q 41.3125 65.921875 37.59375 65.921875 
Q 27.828125 65.921875 22.671875 59.328125 
Q 17.53125 52.734375 16.796875 39.40625 
Q 19.671875 43.65625 24.015625 45.921875 
Q 28.375 48.1875 33.59375 48.1875 
Q 44.578125 48.1875 50.953125 41.515625 
Q 57.328125 34.859375 57.328125 23.390625 
Q 57.328125 12.15625 50.6875 5.359375 
Q 44.046875 -1.421875 33.015625 -1.421875 
Q 20.359375 -1.421875 13.671875 8.265625 
Q 6.984375 17.96875 6.984375 36.375 
Q 6.984375 53.65625 15.1875 63.9375 
Q 23.390625 74.21875 37.203125 74.21875 
Q 40.921875 74.21875 44.703125 73.484375 
Q 48.484375 72.75 52.59375 71.296875 
z
" id="DejaVuSans-36"/>
      </defs>
      <g transform="translate(677.432181 527.238438)scale(0.1 -0.1)">
       <use xlink:href="#DejaVuSans-30"/>
       <use x="63.623047" xlink:href="#DejaVuSans-2e"/>
       <use x="95.410156" xlink:href="#DejaVuSans-36"/>
      </g>
     </g>
    </g>
    <g id="xtick_5">
     <g id="line2d_5">
      <g>
       <use style="stroke:#000000;stroke-width:0.8;" x="836.9359" xlink:href="#m1216822624" y="512.64"/>
      </g>
     </g>
     <g id="text_5">
      <!-- 0.8 -->
      <defs>
       <path d="M 31.78125 34.625 
Q 24.75 34.625 20.71875 30.859375 
Q 16.703125 27.09375 16.703125 20.515625 
Q 16.703125 13.921875 20.71875 10.15625 
Q 24.75 6.390625 31.78125 6.390625 
Q 38.8125 6.390625 42.859375 10.171875 
Q 46.921875 13.96875 46.921875 20.515625 
Q 46.921875 27.09375 42.890625 30.859375 
Q 38.875 34.625 31.78125 34.625 
z
M 21.921875 38.8125 
Q 15.578125 40.375 12.03125 44.71875 
Q 8.5 49.078125 8.5 55.328125 
Q 8.5 64.0625 14.71875 69.140625 
Q 20.953125 74.21875 31.78125 74.21875 
Q 42.671875 74.21875 48.875 69.140625 
Q 55.078125 64.0625 55.078125 55.328125 
Q 55.078125 49.078125 51.53125 44.71875 
Q 48 40.375 41.703125 38.8125 
Q 48.828125 37.15625 52.796875 32.3125 
Q 56.78125 27.484375 56.78125 20.515625 
Q 56.78125 9.90625 50.3125 4.234375 
Q 43.84375 -1.421875 31.78125 -1.421875 
Q 19.734375 -1.421875 13.25 4.234375 
Q 6.78125 9.90625 6.78125 20.515625 
Q 6.78125 27.484375 10.78125 32.3125 
Q 14.796875 37.15625 21.921875 38.8125 
z
M 18.3125 54.390625 
Q 18.3125 48.734375 21.84375 45.5625 
Q 25.390625 42.390625 31.78125 42.390625 
Q 38.140625 42.390625 41.71875 45.5625 
Q 45.3125 48.734375 45.3125 54.390625 
Q 45.3125 60.0625 41.71875 63.234375 
Q 38.140625 66.40625 31.78125 66.40625 
Q 25.390625 66.40625 21.84375 63.234375 
Q 18.3125 60.0625 18.3125 54.390625 
z
" id="DejaVuSans-38"/>
      </defs>
      <g transform="translate(828.984338 527.238438)scale(0.1 -0.1)">
       <use xlink:href="#DejaVuSans-30"/>
       <use x="63.623047" xlink:href="#DejaVuSans-2e"/>
       <use x="95.410156" xlink:href="#DejaVuSans-38"/>
      </g>
     </g>
    </g>
    <g id="xtick_6">
     <g id="line2d_6">
      <g>
       <use style="stroke:#000000;stroke-width:0.8;" x="988.488057" xlink:href="#m1216822624" y="512.64"/>
      </g>
     </g>
     <g id="text_6">
      <!-- 1.0 -->
      <defs>
       <path d="M 12.40625 8.296875 
L 28.515625 8.296875 
L 28.515625 63.921875 
L 10.984375 60.40625 
L 10.984375 69.390625 
L 28.421875 72.90625 
L 38.28125 72.90625 
L 38.28125 8.296875 
L 54.390625 8.296875 
L 54.390625 0 
L 12.40625 0 
z
" id="DejaVuSans-31"/>
      </defs>
      <g transform="translate(980.536495 527.238438)scale(0.1 -0.1)">
       <use xlink:href="#DejaVuSans-31"/>
       <use x="63.623047" xlink:href="#DejaVuSans-2e"/>
       <use x="95.410156" xlink:href="#DejaVuSans-30"/>
      </g>
     </g>
    </g>
    <g id="xtick_7">
     <g id="line2d_7">
      <g>
       <use style="stroke:#000000;stroke-width:0.8;" x="1140.040214" xlink:href="#m1216822624" y="512.64"/>
      </g>
     </g>
     <g id="text_7">
      <!-- 1.2 -->
      <g transform="translate(1132.088651 527.238438)scale(0.1 -0.1)">
       <use xlink:href="#DejaVuSans-31"/>
       <use x="63.623047" xlink:href="#DejaVuSans-2e"/>
       <use x="95.410156" xlink:href="#DejaVuSans-32"/>
      </g>
     </g>
    </g>
    <g id="xtick_8">
     <g id="line2d_8">
      <g>
       <use style="stroke:#000000;stroke-width:0.8;" x="1291.592371" xlink:href="#m1216822624" y="512.64"/>
      </g>
     </g>
     <g id="text_8">
      <!-- 1.4 -->
      <g transform="translate(1283.640808 527.238438)scale(0.1 -0.1)">
       <use xlink:href="#DejaVuSans-31"/>
       <use x="63.623047" xlink:href="#DejaVuSans-2e"/>
       <use x="95.410156" xlink:href="#DejaVuSans-34"/>
      </g>
     </g>
    </g>
   </g>
   <g id="matplotlib.axis_2">
    <g id="ytick_1">
     <g id="line2d_9">
      <defs>
       <path d="M 0 0 
L -3.5 0 
" id="me38442770f" style="stroke:#000000;stroke-width:0.8;"/>
      </defs>
      <g>
       <use style="stroke:#000000;stroke-width:0.8;" x="180" xlink:href="#me38442770f" y="489.86067"/>
      </g>
     </g>
     <g id="text_9">
      <!-- 0.3 -->
      <defs>
       <path d="M 40.578125 39.3125 
Q 47.65625 37.796875 51.625 33 
Q 55.609375 28.21875 55.609375 21.1875 
Q 55.609375 10.40625 48.1875 4.484375 
Q 40.765625 -1.421875 27.09375 -1.421875 
Q 22.515625 -1.421875 17.65625 -0.515625 
Q 12.796875 0.390625 7.625 2.203125 
L 7.625 11.71875 
Q 11.71875 9.328125 16.59375 8.109375 
Q 21.484375 6.890625 26.8125 6.890625 
Q 36.078125 6.890625 40.9375 10.546875 
Q 45.796875 14.203125 45.796875 21.1875 
Q 45.796875 27.640625 41.28125 31.265625 
Q 36.765625 34.90625 28.71875 34.90625 
L 20.21875 34.90625 
L 20.21875 43.015625 
L 29.109375 43.015625 
Q 36.375 43.015625 40.234375 45.921875 
Q 44.09375 48.828125 44.09375 54.296875 
Q 44.09375 59.90625 40.109375 62.90625 
Q 36.140625 65.921875 28.71875 65.921875 
Q 24.65625 65.921875 20.015625 65.03125 
Q 15.375 64.15625 9.8125 62.3125 
L 9.8125 71.09375 
Q 15.4375 72.65625 20.34375 73.4375 
Q 25.25 74.21875 29.59375 74.21875 
Q 40.828125 74.21875 47.359375 69.109375 
Q 53.90625 64.015625 53.90625 55.328125 
Q 53.90625 49.265625 50.4375 45.09375 
Q 46.96875 40.921875 40.578125 39.3125 
z
" id="DejaVuSans-33"/>
      </defs>
      <g transform="translate(157.096875 493.659889)scale(0.1 -0.1)">
       <use xlink:href="#DejaVuSans-30"/>
       <use x="63.623047" xlink:href="#DejaVuSans-2e"/>
       <use x="95.410156" xlink:href="#DejaVuSans-33"/>
      </g>
     </g>
    </g>
    <g id="ytick_2">
     <g id="line2d_10">
      <g>
       <use style="stroke:#000000;stroke-width:0.8;" x="180" xlink:href="#me38442770f" y="435.968985"/>
      </g>
     </g>
     <g id="text_10">
      <!-- 0.4 -->
      <g transform="translate(157.096875 439.768203)scale(0.1 -0.1)">
       <use xlink:href="#DejaVuSans-30"/>
       <use x="63.623047" xlink:href="#DejaVuSans-2e"/>
       <use x="95.410156" xlink:href="#DejaVuSans-34"/>
      </g>
     </g>
    </g>
    <g id="ytick_3">
     <g id="line2d_11">
      <g>
       <use style="stroke:#000000;stroke-width:0.8;" x="180" xlink:href="#me38442770f" y="382.077299"/>
      </g>
     </g>
     <g id="text_11">
      <!-- 0.5 -->
      <defs>
       <path d="M 10.796875 72.90625 
L 49.515625 72.90625 
L 49.515625 64.59375 
L 19.828125 64.59375 
L 19.828125 46.734375 
Q 21.96875 47.46875 24.109375 47.828125 
Q 26.265625 48.1875 28.421875 48.1875 
Q 40.625 48.1875 47.75 41.5 
Q 54.890625 34.8125 54.890625 23.390625 
Q 54.890625 11.625 47.5625 5.09375 
Q 40.234375 -1.421875 26.90625 -1.421875 
Q 22.3125 -1.421875 17.546875 -0.640625 
Q 12.796875 0.140625 7.71875 1.703125 
L 7.71875 11.625 
Q 12.109375 9.234375 16.796875 8.0625 
Q 21.484375 6.890625 26.703125 6.890625 
Q 35.15625 6.890625 40.078125 11.328125 
Q 45.015625 15.765625 45.015625 23.390625 
Q 45.015625 31 40.078125 35.4375 
Q 35.15625 39.890625 26.703125 39.890625 
Q 22.75 39.890625 18.8125 39.015625 
Q 14.890625 38.140625 10.796875 36.28125 
z
" id="DejaVuSans-35"/>
      </defs>
      <g transform="translate(157.096875 385.876518)scale(0.1 -0.1)">
       <use xlink:href="#DejaVuSans-30"/>
       <use x="63.623047" xlink:href="#DejaVuSans-2e"/>
       <use x="95.410156" xlink:href="#DejaVuSans-35"/>
      </g>
     </g>
    </g>
    <g id="ytick_4">
     <g id="line2d_12">
      <g>
       <use style="stroke:#000000;stroke-width:0.8;" x="180" xlink:href="#me38442770f" y="328.185614"/>
      </g>
     </g>
     <g id="text_12">
      <!-- 0.6 -->
      <g transform="translate(157.096875 331.984833)scale(0.1 -0.1)">
       <use xlink:href="#DejaVuSans-30"/>
       <use x="63.623047" xlink:href="#DejaVuSans-2e"/>
       <use x="95.410156" xlink:href="#DejaVuSans-36"/>
      </g>
     </g>
    </g>
    <g id="ytick_5">
     <g id="line2d_13">
      <g>
       <use style="stroke:#000000;stroke-width:0.8;" x="180" xlink:href="#me38442770f" y="274.293928"/>
      </g>
     </g>
     <g id="text_13">
      <!-- 0.7 -->
      <defs>
       <path d="M 8.203125 72.90625 
L 55.078125 72.90625 
L 55.078125 68.703125 
L 28.609375 0 
L 18.3125 0 
L 43.21875 64.59375 
L 8.203125 64.59375 
z
" id="DejaVuSans-37"/>
      </defs>
      <g transform="translate(157.096875 278.093147)scale(0.1 -0.1)">
       <use xlink:href="#DejaVuSans-30"/>
       <use x="63.623047" xlink:href="#DejaVuSans-2e"/>
       <use x="95.410156" xlink:href="#DejaVuSans-37"/>
      </g>
     </g>
    </g>
    <g id="ytick_6">
     <g id="line2d_14">
      <g>
       <use style="stroke:#000000;stroke-width:0.8;" x="180" xlink:href="#me38442770f" y="220.402243"/>
      </g>
     </g>
     <g id="text_14">
      <!-- 0.8 -->
      <g transform="translate(157.096875 224.201462)scale(0.1 -0.1)">
       <use xlink:href="#DejaVuSans-30"/>
       <use x="63.623047" xlink:href="#DejaVuSans-2e"/>
       <use x="95.410156" xlink:href="#DejaVuSans-38"/>
      </g>
     </g>
    </g>
    <g id="ytick_7">
     <g id="line2d_15">
      <g>
       <use style="stroke:#000000;stroke-width:0.8;" x="180" xlink:href="#me38442770f" y="166.510558"/>
      </g>
     </g>
     <g id="text_15">
      <!-- 0.9 -->
      <defs>
       <path d="M 10.984375 1.515625 
L 10.984375 10.5 
Q 14.703125 8.734375 18.5 7.8125 
Q 22.3125 6.890625 25.984375 6.890625 
Q 35.75 6.890625 40.890625 13.453125 
Q 46.046875 20.015625 46.78125 33.40625 
Q 43.953125 29.203125 39.59375 26.953125 
Q 35.25 24.703125 29.984375 24.703125 
Q 19.046875 24.703125 12.671875 31.3125 
Q 6.296875 37.9375 6.296875 49.421875 
Q 6.296875 60.640625 12.9375 67.421875 
Q 19.578125 74.21875 30.609375 74.21875 
Q 43.265625 74.21875 49.921875 64.515625 
Q 56.59375 54.828125 56.59375 36.375 
Q 56.59375 19.140625 48.40625 8.859375 
Q 40.234375 -1.421875 26.421875 -1.421875 
Q 22.703125 -1.421875 18.890625 -0.6875 
Q 15.09375 0.046875 10.984375 1.515625 
z
M 30.609375 32.421875 
Q 37.25 32.421875 41.125 36.953125 
Q 45.015625 41.5 45.015625 49.421875 
Q 45.015625 57.28125 41.125 61.84375 
Q 37.25 66.40625 30.609375 66.40625 
Q 23.96875 66.40625 20.09375 61.84375 
Q 16.21875 57.28125 16.21875 49.421875 
Q 16.21875 41.5 20.09375 36.953125 
Q 23.96875 32.421875 30.609375 32.421875 
z
" id="DejaVuSans-39"/>
      </defs>
      <g transform="translate(157.096875 170.309776)scale(0.1 -0.1)">
       <use xlink:href="#DejaVuSans-30"/>
       <use x="63.623047" xlink:href="#DejaVuSans-2e"/>
       <use x="95.410156" xlink:href="#DejaVuSans-39"/>
      </g>
     </g>
    </g>
    <g id="ytick_8">
     <g id="line2d_16">
      <g>
       <use style="stroke:#000000;stroke-width:0.8;" x="180" xlink:href="#me38442770f" y="112.618872"/>
      </g>
     </g>
     <g id="text_16">
      <!-- 1.0 -->
      <g transform="translate(157.096875 116.418091)scale(0.1 -0.1)">
       <use xlink:href="#DejaVuSans-31"/>
       <use x="63.623047" xlink:href="#DejaVuSans-2e"/>
       <use x="95.410156" xlink:href="#DejaVuSans-30"/>
      </g>
     </g>
    </g>
   </g>
   <g id="line2d_17">
    <path clip-path="url(#pc8fd4fee9e)" d="M 230.727273 468.057711 
L 240.660001 452.117628 
L 250.566208 452.661395 
L 260.775519 446.918158 
L 270.594583 447.408034 
L 280.409859 447.953418 
L 290.25696 448.443293 
L 300.215452 432.463869 
L 310.047398 432.940272 
L 319.973307 433.493739 
L 330.054556 434.227744 
L 339.871347 434.710075 
L 349.681318 435.18001 
L 359.851226 435.898386 
L 369.675594 436.373172 
L 379.475715 436.899694 
L 389.828243 437.771661 
L 399.689741 438.271776 
L 409.523203 438.714227 
L 420.237183 439.887988 
L 430.057005 440.422593 
L 439.95033 440.974444 
L 450.653701 442.078685 
L 460.500802 442.589578 
L 470.488089 443.196399 
L 481.163423 444.289861 
L 491.94257 445.425359 
L 501.819224 446.005233 
L 512.292236 446.938637 
L 523.223693 447.9324 
L 533.121565 448.488023 
L 542.935325 448.970354 
L 552.773333 449.470469 
L 562.671204 450.015313 
L 573.397308 451.137877 
L 583.248198 451.66386 
L 593.102877 452.117628 
L 603.823677 453.305401 
L 613.756405 453.892281 
L 623.702773 454.472156 
L 634.362952 455.557534 
L 644.219904 456.04741 
L 655.737868 457.762782 
L 665.600883 458.28122 
L 675.426009 458.784569 
L 685.306452 459.255582 
L 695.399068 459.986353 
L 705.403783 460.584012 
L 715.365306 461.218317 
L 725.208619 461.731366 
L 735.462638 462.536508 
L 746.864665 464.133318 
L 757.821128 465.422946 
L 768.17214 466.305692 
L 778.245812 466.976105 
L 788.985555 468.090046 
L 799.097115 468.818122 
L 808.919968 469.270274 
L 819.781712 470.545351 
L 830.516151 471.687316 
L 840.395836 387.408265 
L 850.277794 387.960654 
L 860.359802 388.585798 
L 870.183412 389.133876 
L 880.795852 390.178836 
L 890.868008 390.851943 
L 900.681011 384.691046 
L 912.797606 386.888749 
L 922.959935 387.593113 
L 933.977777 388.949028 
L 944.378044 389.845786 
L 954.256214 370.88184 
L 966.739565 347.158182 
L 976.622281 347.694404 
L 987.772731 323.020635 
L 997.974464 323.787513 
L 1007.867789 298.197047 
L 1018.630265 299.397753 
L 1028.591789 273.875729 
L 1041.197139 276.349357 
L 1051.511021 264.140735 
L 1061.512706 264.752944 
L 1072.25245 239.797322 
L 1082.293538 240.448872 
L 1092.125484 240.949526 
L 1102.834917 242.057539 
L 1112.929806 242.75382 
L 1122.867081 243.322377 
L 1133.396925 244.324762 
L 1143.540311 245.039905 
L 1153.4253 245.583672 
L 1163.94984 246.563423 
L 1174.082617 195.06345 
L 1183.925172 182.408605 
L 1194.536096 170.516865 
L 1204.734041 158.237645 
L 1214.620546 132.655801 
L 1225.126141 127.099029 
L 1235.3938 114.852683 
L 1245.272727 89.28 
" style="fill:none;stroke:#ff0000;stroke-dasharray:5.55,2.4;stroke-dashoffset:0;stroke-width:1.5;"/>
    <defs>
     <path d="M -3 3 
L 3 3 
L 3 -3 
L -3 -3 
z
" id="m9ee7b77ed8" style="stroke:#ff0000;stroke-linejoin:miter;"/>
    </defs>
    <g clip-path="url(#pc8fd4fee9e)">
     <use style="fill:#ff0000;stroke:#ff0000;stroke-linejoin:miter;" x="230.727273" xlink:href="#m9ee7b77ed8" y="468.057711"/>
     <use style="fill:#ff0000;stroke:#ff0000;stroke-linejoin:miter;" x="240.660001" xlink:href="#m9ee7b77ed8" y="452.117628"/>
     <use style="fill:#ff0000;stroke:#ff0000;stroke-linejoin:miter;" x="250.566208" xlink:href="#m9ee7b77ed8" y="452.661395"/>
     <use style="fill:#ff0000;stroke:#ff0000;stroke-linejoin:miter;" x="260.775519" xlink:href="#m9ee7b77ed8" y="446.918158"/>
     <use style="fill:#ff0000;stroke:#ff0000;stroke-linejoin:miter;" x="270.594583" xlink:href="#m9ee7b77ed8" y="447.408034"/>
     <use style="fill:#ff0000;stroke:#ff0000;stroke-linejoin:miter;" x="280.409859" xlink:href="#m9ee7b77ed8" y="447.953418"/>
     <use style="fill:#ff0000;stroke:#ff0000;stroke-linejoin:miter;" x="290.25696" xlink:href="#m9ee7b77ed8" y="448.443293"/>
     <use style="fill:#ff0000;stroke:#ff0000;stroke-linejoin:miter;" x="300.215452" xlink:href="#m9ee7b77ed8" y="432.463869"/>
     <use style="fill:#ff0000;stroke:#ff0000;stroke-linejoin:miter;" x="310.047398" xlink:href="#m9ee7b77ed8" y="432.940272"/>
     <use style="fill:#ff0000;stroke:#ff0000;stroke-linejoin:miter;" x="319.973307" xlink:href="#m9ee7b77ed8" y="433.493739"/>
     <use style="fill:#ff0000;stroke:#ff0000;stroke-linejoin:miter;" x="330.054556" xlink:href="#m9ee7b77ed8" y="434.227744"/>
     <use style="fill:#ff0000;stroke:#ff0000;stroke-linejoin:miter;" x="339.871347" xlink:href="#m9ee7b77ed8" y="434.710075"/>
     <use style="fill:#ff0000;stroke:#ff0000;stroke-linejoin:miter;" x="349.681318" xlink:href="#m9ee7b77ed8" y="435.18001"/>
     <use style="fill:#ff0000;stroke:#ff0000;stroke-linejoin:miter;" x="359.851226" xlink:href="#m9ee7b77ed8" y="435.898386"/>
     <use style="fill:#ff0000;stroke:#ff0000;stroke-linejoin:miter;" x="369.675594" xlink:href="#m9ee7b77ed8" y="436.373172"/>
     <use style="fill:#ff0000;stroke:#ff0000;stroke-linejoin:miter;" x="379.475715" xlink:href="#m9ee7b77ed8" y="436.899694"/>
     <use style="fill:#ff0000;stroke:#ff0000;stroke-linejoin:miter;" x="389.828243" xlink:href="#m9ee7b77ed8" y="437.771661"/>
     <use style="fill:#ff0000;stroke:#ff0000;stroke-linejoin:miter;" x="399.689741" xlink:href="#m9ee7b77ed8" y="438.271776"/>
     <use style="fill:#ff0000;stroke:#ff0000;stroke-linejoin:miter;" x="409.523203" xlink:href="#m9ee7b77ed8" y="438.714227"/>
     <use style="fill:#ff0000;stroke:#ff0000;stroke-linejoin:miter;" x="420.237183" xlink:href="#m9ee7b77ed8" y="439.887988"/>
     <use style="fill:#ff0000;stroke:#ff0000;stroke-linejoin:miter;" x="430.057005" xlink:href="#m9ee7b77ed8" y="440.422593"/>
     <use style="fill:#ff0000;stroke:#ff0000;stroke-linejoin:miter;" x="439.95033" xlink:href="#m9ee7b77ed8" y="440.974444"/>
     <use style="fill:#ff0000;stroke:#ff0000;stroke-linejoin:miter;" x="450.653701" xlink:href="#m9ee7b77ed8" y="442.078685"/>
     <use style="fill:#ff0000;stroke:#ff0000;stroke-linejoin:miter;" x="460.500802" xlink:href="#m9ee7b77ed8" y="442.589578"/>
     <use style="fill:#ff0000;stroke:#ff0000;stroke-linejoin:miter;" x="470.488089" xlink:href="#m9ee7b77ed8" y="443.196399"/>
     <use style="fill:#ff0000;stroke:#ff0000;stroke-linejoin:miter;" x="481.163423" xlink:href="#m9ee7b77ed8" y="444.289861"/>
     <use style="fill:#ff0000;stroke:#ff0000;stroke-linejoin:miter;" x="491.94257" xlink:href="#m9ee7b77ed8" y="445.425359"/>
     <use style="fill:#ff0000;stroke:#ff0000;stroke-linejoin:miter;" x="501.819224" xlink:href="#m9ee7b77ed8" y="446.005233"/>
     <use style="fill:#ff0000;stroke:#ff0000;stroke-linejoin:miter;" x="512.292236" xlink:href="#m9ee7b77ed8" y="446.938637"/>
     <use style="fill:#ff0000;stroke:#ff0000;stroke-linejoin:miter;" x="523.223693" xlink:href="#m9ee7b77ed8" y="447.9324"/>
     <use style="fill:#ff0000;stroke:#ff0000;stroke-linejoin:miter;" x="533.121565" xlink:href="#m9ee7b77ed8" y="448.488023"/>
     <use style="fill:#ff0000;stroke:#ff0000;stroke-linejoin:miter;" x="542.935325" xlink:href="#m9ee7b77ed8" y="448.970354"/>
     <use style="fill:#ff0000;stroke:#ff0000;stroke-linejoin:miter;" x="552.773333" xlink:href="#m9ee7b77ed8" y="449.470469"/>
     <use style="fill:#ff0000;stroke:#ff0000;stroke-linejoin:miter;" x="562.671204" xlink:href="#m9ee7b77ed8" y="450.015313"/>
     <use style="fill:#ff0000;stroke:#ff0000;stroke-linejoin:miter;" x="573.397308" xlink:href="#m9ee7b77ed8" y="451.137877"/>
     <use style="fill:#ff0000;stroke:#ff0000;stroke-linejoin:miter;" x="583.248198" xlink:href="#m9ee7b77ed8" y="451.66386"/>
     <use style="fill:#ff0000;stroke:#ff0000;stroke-linejoin:miter;" x="593.102877" xlink:href="#m9ee7b77ed8" y="452.117628"/>
     <use style="fill:#ff0000;stroke:#ff0000;stroke-linejoin:miter;" x="603.823677" xlink:href="#m9ee7b77ed8" y="453.305401"/>
     <use style="fill:#ff0000;stroke:#ff0000;stroke-linejoin:miter;" x="613.756405" xlink:href="#m9ee7b77ed8" y="453.892281"/>
     <use style="fill:#ff0000;stroke:#ff0000;stroke-linejoin:miter;" x="623.702773" xlink:href="#m9ee7b77ed8" y="454.472156"/>
     <use style="fill:#ff0000;stroke:#ff0000;stroke-linejoin:miter;" x="634.362952" xlink:href="#m9ee7b77ed8" y="455.557534"/>
     <use style="fill:#ff0000;stroke:#ff0000;stroke-linejoin:miter;" x="644.219904" xlink:href="#m9ee7b77ed8" y="456.04741"/>
     <use style="fill:#ff0000;stroke:#ff0000;stroke-linejoin:miter;" x="655.737868" xlink:href="#m9ee7b77ed8" y="457.762782"/>
     <use style="fill:#ff0000;stroke:#ff0000;stroke-linejoin:miter;" x="665.600883" xlink:href="#m9ee7b77ed8" y="458.28122"/>
     <use style="fill:#ff0000;stroke:#ff0000;stroke-linejoin:miter;" x="675.426009" xlink:href="#m9ee7b77ed8" y="458.784569"/>
     <use style="fill:#ff0000;stroke:#ff0000;stroke-linejoin:miter;" x="685.306452" xlink:href="#m9ee7b77ed8" y="459.255582"/>
     <use style="fill:#ff0000;stroke:#ff0000;stroke-linejoin:miter;" x="695.399068" xlink:href="#m9ee7b77ed8" y="459.986353"/>
     <use style="fill:#ff0000;stroke:#ff0000;stroke-linejoin:miter;" x="705.403783" xlink:href="#m9ee7b77ed8" y="460.584012"/>
     <use style="fill:#ff0000;stroke:#ff0000;stroke-linejoin:miter;" x="715.365306" xlink:href="#m9ee7b77ed8" y="461.218317"/>
     <use style="fill:#ff0000;stroke:#ff0000;stroke-linejoin:miter;" x="725.208619" xlink:href="#m9ee7b77ed8" y="461.731366"/>
     <use style="fill:#ff0000;stroke:#ff0000;stroke-linejoin:miter;" x="735.462638" xlink:href="#m9ee7b77ed8" y="462.536508"/>
     <use style="fill:#ff0000;stroke:#ff0000;stroke-linejoin:miter;" x="746.864665" xlink:href="#m9ee7b77ed8" y="464.133318"/>
     <use style="fill:#ff0000;stroke:#ff0000;stroke-linejoin:miter;" x="757.821128" xlink:href="#m9ee7b77ed8" y="465.422946"/>
     <use style="fill:#ff0000;stroke:#ff0000;stroke-linejoin:miter;" x="768.17214" xlink:href="#m9ee7b77ed8" y="466.305692"/>
     <use style="fill:#ff0000;stroke:#ff0000;stroke-linejoin:miter;" x="778.245812" xlink:href="#m9ee7b77ed8" y="466.976105"/>
     <use style="fill:#ff0000;stroke:#ff0000;stroke-linejoin:miter;" x="788.985555" xlink:href="#m9ee7b77ed8" y="468.090046"/>
     <use style="fill:#ff0000;stroke:#ff0000;stroke-linejoin:miter;" x="799.097115" xlink:href="#m9ee7b77ed8" y="468.818122"/>
     <use style="fill:#ff0000;stroke:#ff0000;stroke-linejoin:miter;" x="808.919968" xlink:href="#m9ee7b77ed8" y="469.270274"/>
     <use style="fill:#ff0000;stroke:#ff0000;stroke-linejoin:miter;" x="819.781712" xlink:href="#m9ee7b77ed8" y="470.545351"/>
     <use style="fill:#ff0000;stroke:#ff0000;stroke-linejoin:miter;" x="830.516151" xlink:href="#m9ee7b77ed8" y="471.687316"/>
     <use style="fill:#ff0000;stroke:#ff0000;stroke-linejoin:miter;" x="840.395836" xlink:href="#m9ee7b77ed8" y="387.408265"/>
     <use style="fill:#ff0000;stroke:#ff0000;stroke-linejoin:miter;" x="850.277794" xlink:href="#m9ee7b77ed8" y="387.960654"/>
     <use style="fill:#ff0000;stroke:#ff0000;stroke-linejoin:miter;" x="860.359802" xlink:href="#m9ee7b77ed8" y="388.585798"/>
     <use style="fill:#ff0000;stroke:#ff0000;stroke-linejoin:miter;" x="870.183412" xlink:href="#m9ee7b77ed8" y="389.133876"/>
     <use style="fill:#ff0000;stroke:#ff0000;stroke-linejoin:miter;" x="880.795852" xlink:href="#m9ee7b77ed8" y="390.178836"/>
     <use style="fill:#ff0000;stroke:#ff0000;stroke-linejoin:miter;" x="890.868008" xlink:href="#m9ee7b77ed8" y="390.851943"/>
     <use style="fill:#ff0000;stroke:#ff0000;stroke-linejoin:miter;" x="900.681011" xlink:href="#m9ee7b77ed8" y="384.691046"/>
     <use style="fill:#ff0000;stroke:#ff0000;stroke-linejoin:miter;" x="912.797606" xlink:href="#m9ee7b77ed8" y="386.888749"/>
     <use style="fill:#ff0000;stroke:#ff0000;stroke-linejoin:miter;" x="922.959935" xlink:href="#m9ee7b77ed8" y="387.593113"/>
     <use style="fill:#ff0000;stroke:#ff0000;stroke-linejoin:miter;" x="933.977777" xlink:href="#m9ee7b77ed8" y="388.949028"/>
     <use style="fill:#ff0000;stroke:#ff0000;stroke-linejoin:miter;" x="944.378044" xlink:href="#m9ee7b77ed8" y="389.845786"/>
     <use style="fill:#ff0000;stroke:#ff0000;stroke-linejoin:miter;" x="954.256214" xlink:href="#m9ee7b77ed8" y="370.88184"/>
     <use style="fill:#ff0000;stroke:#ff0000;stroke-linejoin:miter;" x="966.739565" xlink:href="#m9ee7b77ed8" y="347.158182"/>
     <use style="fill:#ff0000;stroke:#ff0000;stroke-linejoin:miter;" x="976.622281" xlink:href="#m9ee7b77ed8" y="347.694404"/>
     <use style="fill:#ff0000;stroke:#ff0000;stroke-linejoin:miter;" x="987.772731" xlink:href="#m9ee7b77ed8" y="323.020635"/>
     <use style="fill:#ff0000;stroke:#ff0000;stroke-linejoin:miter;" x="997.974464" xlink:href="#m9ee7b77ed8" y="323.787513"/>
     <use style="fill:#ff0000;stroke:#ff0000;stroke-linejoin:miter;" x="1007.867789" xlink:href="#m9ee7b77ed8" y="298.197047"/>
     <use style="fill:#ff0000;stroke:#ff0000;stroke-linejoin:miter;" x="1018.630265" xlink:href="#m9ee7b77ed8" y="299.397753"/>
     <use style="fill:#ff0000;stroke:#ff0000;stroke-linejoin:miter;" x="1028.591789" xlink:href="#m9ee7b77ed8" y="273.875729"/>
     <use style="fill:#ff0000;stroke:#ff0000;stroke-linejoin:miter;" x="1041.197139" xlink:href="#m9ee7b77ed8" y="276.349357"/>
     <use style="fill:#ff0000;stroke:#ff0000;stroke-linejoin:miter;" x="1051.511021" xlink:href="#m9ee7b77ed8" y="264.140735"/>
     <use style="fill:#ff0000;stroke:#ff0000;stroke-linejoin:miter;" x="1061.512706" xlink:href="#m9ee7b77ed8" y="264.752944"/>
     <use style="fill:#ff0000;stroke:#ff0000;stroke-linejoin:miter;" x="1072.25245" xlink:href="#m9ee7b77ed8" y="239.797322"/>
     <use style="fill:#ff0000;stroke:#ff0000;stroke-linejoin:miter;" x="1082.293538" xlink:href="#m9ee7b77ed8" y="240.448872"/>
     <use style="fill:#ff0000;stroke:#ff0000;stroke-linejoin:miter;" x="1092.125484" xlink:href="#m9ee7b77ed8" y="240.949526"/>
     <use style="fill:#ff0000;stroke:#ff0000;stroke-linejoin:miter;" x="1102.834917" xlink:href="#m9ee7b77ed8" y="242.057539"/>
     <use style="fill:#ff0000;stroke:#ff0000;stroke-linejoin:miter;" x="1112.929806" xlink:href="#m9ee7b77ed8" y="242.75382"/>
     <use style="fill:#ff0000;stroke:#ff0000;stroke-linejoin:miter;" x="1122.867081" xlink:href="#m9ee7b77ed8" y="243.322377"/>
     <use style="fill:#ff0000;stroke:#ff0000;stroke-linejoin:miter;" x="1133.396925" xlink:href="#m9ee7b77ed8" y="244.324762"/>
     <use style="fill:#ff0000;stroke:#ff0000;stroke-linejoin:miter;" x="1143.540311" xlink:href="#m9ee7b77ed8" y="245.039905"/>
     <use style="fill:#ff0000;stroke:#ff0000;stroke-linejoin:miter;" x="1153.4253" xlink:href="#m9ee7b77ed8" y="245.583672"/>
     <use style="fill:#ff0000;stroke:#ff0000;stroke-linejoin:miter;" x="1163.94984" xlink:href="#m9ee7b77ed8" y="246.563423"/>
     <use style="fill:#ff0000;stroke:#ff0000;stroke-linejoin:miter;" x="1174.082617" xlink:href="#m9ee7b77ed8" y="195.06345"/>
     <use style="fill:#ff0000;stroke:#ff0000;stroke-linejoin:miter;" x="1183.925172" xlink:href="#m9ee7b77ed8" y="182.408605"/>
     <use style="fill:#ff0000;stroke:#ff0000;stroke-linejoin:miter;" x="1194.536096" xlink:href="#m9ee7b77ed8" y="170.516865"/>
     <use style="fill:#ff0000;stroke:#ff0000;stroke-linejoin:miter;" x="1204.734041" xlink:href="#m9ee7b77ed8" y="158.237645"/>
     <use style="fill:#ff0000;stroke:#ff0000;stroke-linejoin:miter;" x="1214.620546" xlink:href="#m9ee7b77ed8" y="132.655801"/>
     <use style="fill:#ff0000;stroke:#ff0000;stroke-linejoin:miter;" x="1225.126141" xlink:href="#m9ee7b77ed8" y="127.099029"/>
     <use style="fill:#ff0000;stroke:#ff0000;stroke-linejoin:miter;" x="1235.3938" xlink:href="#m9ee7b77ed8" y="114.852683"/>
     <use style="fill:#ff0000;stroke:#ff0000;stroke-linejoin:miter;" x="1245.272727" xlink:href="#m9ee7b77ed8" y="89.28"/>
    </g>
   </g>
   <g id="line2d_18">
    <path clip-path="url(#pc8fd4fee9e)" d="M 230.727273 468.057711 
L 240.660001 452.117628 
L 250.566208 452.661395 
L 260.775519 446.918158 
L 270.594583 447.408034 
L 280.409859 447.953418 
L 290.25696 448.443293 
L 900.681011 384.691046 
L 912.797606 386.888749 
L 922.959935 387.593113 
L 933.977777 388.949028 
L 944.378044 389.845786 
L 954.256214 370.88184 
L 966.739565 347.158182 
L 976.622281 347.694404 
L 987.772731 323.020635 
L 997.974464 323.787513 
L 1007.867789 298.197047 
L 1018.630265 299.397753 
L 1028.591789 273.875729 
L 1041.197139 276.349357 
L 1051.511021 264.140735 
L 1061.512706 264.752944 
L 1174.082617 195.06345 
L 1183.925172 182.408605 
L 1194.536096 170.516865 
L 1204.734041 158.237645 
L 1214.620546 132.655801 
L 1225.126141 127.099029 
L 1235.3938 114.852683 
L 1245.272727 89.28 
" style="fill:none;stroke:#800080;stroke-dasharray:9.6,2.4,1.5,2.4;stroke-dashoffset:0;stroke-width:1.5;"/>
    <defs>
     <path d="M -3 3 
L 3 -3 
M -3 -3 
L 3 3 
" id="m0ddc69acd3" style="stroke:#800080;"/>
    </defs>
    <g clip-path="url(#pc8fd4fee9e)">
     <use style="fill:#800080;stroke:#800080;" x="230.727273" xlink:href="#m0ddc69acd3" y="468.057711"/>
     <use style="fill:#800080;stroke:#800080;" x="240.660001" xlink:href="#m0ddc69acd3" y="452.117628"/>
     <use style="fill:#800080;stroke:#800080;" x="250.566208" xlink:href="#m0ddc69acd3" y="452.661395"/>
     <use style="fill:#800080;stroke:#800080;" x="260.775519" xlink:href="#m0ddc69acd3" y="446.918158"/>
     <use style="fill:#800080;stroke:#800080;" x="270.594583" xlink:href="#m0ddc69acd3" y="447.408034"/>
     <use style="fill:#800080;stroke:#800080;" x="280.409859" xlink:href="#m0ddc69acd3" y="447.953418"/>
     <use style="fill:#800080;stroke:#800080;" x="290.25696" xlink:href="#m0ddc69acd3" y="448.443293"/>
     <use style="fill:#800080;stroke:#800080;" x="900.681011" xlink:href="#m0ddc69acd3" y="384.691046"/>
     <use style="fill:#800080;stroke:#800080;" x="912.797606" xlink:href="#m0ddc69acd3" y="386.888749"/>
     <use style="fill:#800080;stroke:#800080;" x="922.959935" xlink:href="#m0ddc69acd3" y="387.593113"/>
     <use style="fill:#800080;stroke:#800080;" x="933.977777" xlink:href="#m0ddc69acd3" y="388.949028"/>
     <use style="fill:#800080;stroke:#800080;" x="944.378044" xlink:href="#m0ddc69acd3" y="389.845786"/>
     <use style="fill:#800080;stroke:#800080;" x="954.256214" xlink:href="#m0ddc69acd3" y="370.88184"/>
     <use style="fill:#800080;stroke:#800080;" x="966.739565" xlink:href="#m0ddc69acd3" y="347.158182"/>
     <use style="fill:#800080;stroke:#800080;" x="976.622281" xlink:href="#m0ddc69acd3" y="347.694404"/>
     <use style="fill:#800080;stroke:#800080;" x="987.772731" xlink:href="#m0ddc69acd3" y="323.020635"/>
     <use style="fill:#800080;stroke:#800080;" x="997.974464" xlink:href="#m0ddc69acd3" y="323.787513"/>
     <use style="fill:#800080;stroke:#800080;" x="1007.867789" xlink:href="#m0ddc69acd3" y="298.197047"/>
     <use style="fill:#800080;stroke:#800080;" x="1018.630265" xlink:href="#m0ddc69acd3" y="299.397753"/>
     <use style="fill:#800080;stroke:#800080;" x="1028.591789" xlink:href="#m0ddc69acd3" y="273.875729"/>
     <use style="fill:#800080;stroke:#800080;" x="1041.197139" xlink:href="#m0ddc69acd3" y="276.349357"/>
     <use style="fill:#800080;stroke:#800080;" x="1051.511021" xlink:href="#m0ddc69acd3" y="264.140735"/>
     <use style="fill:#800080;stroke:#800080;" x="1061.512706" xlink:href="#m0ddc69acd3" y="264.752944"/>
     <use style="fill:#800080;stroke:#800080;" x="1174.082617" xlink:href="#m0ddc69acd3" y="195.06345"/>
     <use style="fill:#800080;stroke:#800080;" x="1183.925172" xlink:href="#m0ddc69acd3" y="182.408605"/>
     <use style="fill:#800080;stroke:#800080;" x="1194.536096" xlink:href="#m0ddc69acd3" y="170.516865"/>
     <use style="fill:#800080;stroke:#800080;" x="1204.734041" xlink:href="#m0ddc69acd3" y="158.237645"/>
     <use style="fill:#800080;stroke:#800080;" x="1214.620546" xlink:href="#m0ddc69acd3" y="132.655801"/>
     <use style="fill:#800080;stroke:#800080;" x="1225.126141" xlink:href="#m0ddc69acd3" y="127.099029"/>
     <use style="fill:#800080;stroke:#800080;" x="1235.3938" xlink:href="#m0ddc69acd3" y="114.852683"/>
     <use style="fill:#800080;stroke:#800080;" x="1245.272727" xlink:href="#m0ddc69acd3" y="89.28"/>
    </g>
   </g>
   <g id="line2d_19">
    <path clip-path="url(#pc8fd4fee9e)" d="M 230.727273 492.48 
L 240.660001 489.703723 
L 250.566208 486.934858 
L 260.775519 484.081274 
L 270.594583 481.336767 
L 280.409859 478.593319 
L 290.25696 475.840975 
L 900.681011 305.222555 
L 912.797606 301.835869 
L 922.959935 298.995416 
L 933.977777 295.915841 
L 944.378044 293.008883 
L 954.256214 290.247856 
L 966.739565 286.758659 
L 976.622281 283.99636 
L 987.772731 280.87972 
L 997.974464 278.028254 
L 1007.867789 275.26299 
L 1018.630265 272.254792 
L 1028.591789 269.470466 
L 1041.197139 265.947169 
L 1051.511021 263.064357 
L 1061.512706 260.268805 
L 1174.082617 228.804612 
L 1183.925172 226.053539 
L 1194.536096 223.087701 
L 1204.734041 220.237293 
L 1214.620546 217.473936 
L 1225.126141 214.537537 
L 1235.3938 211.667644 
L 1245.272727 208.906405 
" style="fill:none;stroke:#0000ff;stroke-linecap:square;stroke-width:1.5;"/>
   </g>
   <g id="line2d_20">
    <path clip-path="url(#pc8fd4fee9e)" d="M 230.727273 468.240947 
L 240.660001 465.777021 
L 250.566208 463.319674 
L 260.775519 460.787139 
L 270.594583 458.351408 
L 280.409859 455.916618 
L 290.25696 453.473933 
L 900.681011 302.051326 
L 912.797606 299.045667 
L 922.959935 296.524786 
L 933.977777 293.791686 
L 944.378044 291.211782 
L 954.256214 288.76139 
L 966.739565 285.664753 
L 976.622281 283.213233 
L 987.772731 280.447238 
L 997.974464 277.916582 
L 1007.867789 275.46243 
L 1018.630265 272.792676 
L 1028.591789 270.321607 
L 1041.197139 267.194707 
L 1051.511021 264.636232 
L 1061.512706 262.155201 
L 1174.082617 234.230958 
L 1183.925172 231.789401 
L 1194.536096 229.15724 
L 1204.734041 226.627525 
L 1214.620546 224.175065 
L 1225.126141 221.569033 
L 1235.3938 219.022024 
L 1245.272727 216.571444 
" style="fill:none;stroke:#008000;stroke-linecap:square;stroke-width:1.5;"/>
    <defs>
     <path d="M 0 3 
C 0.795609 3 1.55874 2.683901 2.12132 2.12132 
C 2.683901 1.55874 3 0.795609 3 0 
C 3 -0.795609 2.683901 -1.55874 2.12132 -2.12132 
C 1.55874 -2.683901 0.795609 -3 0 -3 
C -0.795609 -3 -1.55874 -2.683901 -2.12132 -2.12132 
C -2.683901 -1.55874 -3 -0.795609 -3 0 
C -3 0.795609 -2.683901 1.55874 -2.12132 2.12132 
C -1.55874 2.683901 -0.795609 3 0 3 
z
" id="mb8d9d038fd" style="stroke:#008000;"/>
    </defs>
    <g clip-path="url(#pc8fd4fee9e)">
     <use style="fill:#008000;stroke:#008000;" x="230.727273" xlink:href="#mb8d9d038fd" y="468.240947"/>
     <use style="fill:#008000;stroke:#008000;" x="240.660001" xlink:href="#mb8d9d038fd" y="465.777021"/>
     <use style="fill:#008000;stroke:#008000;" x="250.566208" xlink:href="#mb8d9d038fd" y="463.319674"/>
     <use style="fill:#008000;stroke:#008000;" x="260.775519" xlink:href="#mb8d9d038fd" y="460.787139"/>
     <use style="fill:#008000;stroke:#008000;" x="270.594583" xlink:href="#mb8d9d038fd" y="458.351408"/>
     <use style="fill:#008000;stroke:#008000;" x="280.409859" xlink:href="#mb8d9d038fd" y="455.916618"/>
     <use style="fill:#008000;stroke:#008000;" x="290.25696" xlink:href="#mb8d9d038fd" y="453.473933"/>
     <use style="fill:#008000;stroke:#008000;" x="900.681011" xlink:href="#mb8d9d038fd" y="302.051326"/>
     <use style="fill:#008000;stroke:#008000;" x="912.797606" xlink:href="#mb8d9d038fd" y="299.045667"/>
     <use style="fill:#008000;stroke:#008000;" x="922.959935" xlink:href="#mb8d9d038fd" y="296.524786"/>
     <use style="fill:#008000;stroke:#008000;" x="933.977777" xlink:href="#mb8d9d038fd" y="293.791686"/>
     <use style="fill:#008000;stroke:#008000;" x="944.378044" xlink:href="#mb8d9d038fd" y="291.211782"/>
     <use style="fill:#008000;stroke:#008000;" x="954.256214" xlink:href="#mb8d9d038fd" y="288.76139"/>
     <use style="fill:#008000;stroke:#008000;" x="966.739565" xlink:href="#mb8d9d038fd" y="285.664753"/>
     <use style="fill:#008000;stroke:#008000;" x="976.622281" xlink:href="#mb8d9d038fd" y="283.213233"/>
     <use style="fill:#008000;stroke:#008000;" x="987.772731" xlink:href="#mb8d9d038fd" y="280.447238"/>
     <use style="fill:#008000;stroke:#008000;" x="997.974464" xlink:href="#mb8d9d038fd" y="277.916582"/>
     <use style="fill:#008000;stroke:#008000;" x="1007.867789" xlink:href="#mb8d9d038fd" y="275.46243"/>
     <use style="fill:#008000;stroke:#008000;" x="1018.630265" xlink:href="#mb8d9d038fd" y="272.792676"/>
     <use style="fill:#008000;stroke:#008000;" x="1028.591789" xlink:href="#mb8d9d038fd" y="270.321607"/>
     <use style="fill:#008000;stroke:#008000;" x="1041.197139" xlink:href="#mb8d9d038fd" y="267.194707"/>
     <use style="fill:#008000;stroke:#008000;" x="1051.511021" xlink:href="#mb8d9d038fd" y="264.636232"/>
     <use style="fill:#008000;stroke:#008000;" x="1061.512706" xlink:href="#mb8d9d038fd" y="262.155201"/>
     <use style="fill:#008000;stroke:#008000;" x="1174.082617" xlink:href="#mb8d9d038fd" y="234.230958"/>
     <use style="fill:#008000;stroke:#008000;" x="1183.925172" xlink:href="#mb8d9d038fd" y="231.789401"/>
     <use style="fill:#008000;stroke:#008000;" x="1194.536096" xlink:href="#mb8d9d038fd" y="229.15724"/>
     <use style="fill:#008000;stroke:#008000;" x="1204.734041" xlink:href="#mb8d9d038fd" y="226.627525"/>
     <use style="fill:#008000;stroke:#008000;" x="1214.620546" xlink:href="#mb8d9d038fd" y="224.175065"/>
     <use style="fill:#008000;stroke:#008000;" x="1225.126141" xlink:href="#mb8d9d038fd" y="221.569033"/>
     <use style="fill:#008000;stroke:#008000;" x="1235.3938" xlink:href="#mb8d9d038fd" y="219.022024"/>
     <use style="fill:#008000;stroke:#008000;" x="1245.272727" xlink:href="#mb8d9d038fd" y="216.571444"/>
    </g>
   </g>
   <g id="patch_3">
    <path d="M 180 512.64 
L 180 69.12 
" style="fill:none;stroke:#000000;stroke-linecap:square;stroke-linejoin:miter;stroke-width:0.8;"/>
   </g>
   <g id="patch_4">
    <path d="M 1296 512.64 
L 1296 69.12 
" style="fill:none;stroke:#000000;stroke-linecap:square;stroke-linejoin:miter;stroke-width:0.8;"/>
   </g>
   <g id="patch_5">
    <path d="M 180 512.64 
L 1296 512.64 
" style="fill:none;stroke:#000000;stroke-linecap:square;stroke-linejoin:miter;stroke-width:0.8;"/>
   </g>
   <g id="patch_6">
    <path d="M 180 69.12 
L 1296 69.12 
" style="fill:none;stroke:#000000;stroke-linecap:square;stroke-linejoin:miter;stroke-width:0.8;"/>
   </g>
   <g id="text_17">
    <!-- 500000.0 bit/s -->
    <defs>
     <path id="DejaVuSans-20"/>
     <path d="M 48.6875 27.296875 
Q 48.6875 37.203125 44.609375 42.84375 
Q 40.53125 48.484375 33.40625 48.484375 
Q 26.265625 48.484375 22.1875 42.84375 
Q 18.109375 37.203125 18.109375 27.296875 
Q 18.109375 17.390625 22.1875 11.75 
Q 26.265625 6.109375 33.40625 6.109375 
Q 40.53125 6.109375 44.609375 11.75 
Q 48.6875 17.390625 48.6875 27.296875 
z
M 18.109375 46.390625 
Q 20.953125 51.265625 25.265625 53.625 
Q 29.59375 56 35.59375 56 
Q 45.5625 56 51.78125 48.09375 
Q 58.015625 40.1875 58.015625 27.296875 
Q 58.015625 14.40625 51.78125 6.484375 
Q 45.5625 -1.421875 35.59375 -1.421875 
Q 29.59375 -1.421875 25.265625 0.953125 
Q 20.953125 3.328125 18.109375 8.203125 
L 18.109375 0 
L 9.078125 0 
L 9.078125 75.984375 
L 18.109375 75.984375 
z
" id="DejaVuSans-62"/>
     <path d="M 9.421875 54.6875 
L 18.40625 54.6875 
L 18.40625 0 
L 9.421875 0 
z
M 9.421875 75.984375 
L 18.40625 75.984375 
L 18.40625 64.59375 
L 9.421875 64.59375 
z
" id="DejaVuSans-69"/>
     <path d="M 18.3125 70.21875 
L 18.3125 54.6875 
L 36.8125 54.6875 
L 36.8125 47.703125 
L 18.3125 47.703125 
L 18.3125 18.015625 
Q 18.3125 11.328125 20.140625 9.421875 
Q 21.96875 7.515625 27.59375 7.515625 
L 36.8125 7.515625 
L 36.8125 0 
L 27.59375 0 
Q 17.1875 0 13.234375 3.875 
Q 9.28125 7.765625 9.28125 18.015625 
L 9.28125 47.703125 
L 2.6875 47.703125 
L 2.6875 54.6875 
L 9.28125 54.6875 
L 9.28125 70.21875 
z
" id="DejaVuSans-74"/>
     <path d="M 25.390625 72.90625 
L 33.6875 72.90625 
L 8.296875 -9.28125 
L 0 -9.28125 
z
" id="DejaVuSans-2f"/>
     <path d="M 44.28125 53.078125 
L 44.28125 44.578125 
Q 40.484375 46.53125 36.375 47.5 
Q 32.28125 48.484375 27.875 48.484375 
Q 21.1875 48.484375 17.84375 46.4375 
Q 14.5 44.390625 14.5 40.28125 
Q 14.5 37.15625 16.890625 35.375 
Q 19.28125 33.59375 26.515625 31.984375 
L 29.59375 31.296875 
Q 39.15625 29.25 43.1875 25.515625 
Q 47.21875 21.78125 47.21875 15.09375 
Q 47.21875 7.46875 41.1875 3.015625 
Q 35.15625 -1.421875 24.609375 -1.421875 
Q 20.21875 -1.421875 15.453125 -0.5625 
Q 10.6875 0.296875 5.421875 2 
L 5.421875 11.28125 
Q 10.40625 8.6875 15.234375 7.390625 
Q 20.0625 6.109375 24.8125 6.109375 
Q 31.15625 6.109375 34.5625 8.28125 
Q 37.984375 10.453125 37.984375 14.40625 
Q 37.984375 18.0625 35.515625 20.015625 
Q 33.0625 21.96875 24.703125 23.78125 
L 21.578125 24.515625 
Q 13.234375 26.265625 9.515625 29.90625 
Q 5.8125 33.546875 5.8125 39.890625 
Q 5.8125 47.609375 11.28125 51.796875 
Q 16.75 56 26.8125 56 
Q 31.78125 56 36.171875 55.265625 
Q 40.578125 54.546875 44.28125 53.078125 
z
" id="DejaVuSans-73"/>
    </defs>
    <g transform="translate(694.48875 63.12)scale(0.12 -0.12)">
     <use xlink:href="#DejaVuSans-35"/>
     <use x="63.623047" xlink:href="#DejaVuSans-30"/>
     <use x="127.246094" xlink:href="#DejaVuSans-30"/>
     <use x="190.869141" xlink:href="#DejaVuSans-30"/>
     <use x="254.492188" xlink:href="#DejaVuSans-30"/>
     <use x="318.115234" xlink:href="#DejaVuSans-30"/>
     <use x="381.738281" xlink:href="#DejaVuSans-2e"/>
     <use x="413.525391" xlink:href="#DejaVuSans-30"/>
     <use x="477.148438" xlink:href="#DejaVuSans-20"/>
     <use x="508.935547" xlink:href="#DejaVuSans-62"/>
     <use x="572.412109" xlink:href="#DejaVuSans-69"/>
     <use x="600.195312" xlink:href="#DejaVuSans-74"/>
     <use x="639.404297" xlink:href="#DejaVuSans-2f"/>
     <use x="673.095703" xlink:href="#DejaVuSans-73"/>
    </g>
   </g>
   <g id="legend_1">
    <g id="patch_7">
     <path d="M 1173.520313 135.8325 
L 1289 135.8325 
Q 1291 135.8325 1291 133.8325 
L 1291 76.12 
Q 1291 74.12 1289 74.12 
L 1173.520313 74.12 
Q 1171.520313 74.12 1171.520313 76.12 
L 1171.520313 133.8325 
Q 1171.520313 135.8325 1173.520313 135.8325 
z
" style="fill:#ffffff;opacity:0.8;stroke:#cccccc;stroke-linejoin:miter;"/>
    </g>
    <g id="line2d_21">
     <path d="M 1175.520313 82.218437 
L 1195.520313 82.218437 
" style="fill:none;stroke:#ff0000;stroke-dasharray:5.55,2.4;stroke-dashoffset:0;stroke-width:1.5;"/>
    </g>
    <g id="line2d_22">
     <g>
      <use style="fill:#ff0000;stroke:#ff0000;stroke-linejoin:miter;" x="1185.520313" xlink:href="#m9ee7b77ed8" y="82.218437"/>
     </g>
    </g>
    <g id="text_18">
     <!-- tcpdump -->
     <defs>
      <path d="M 48.78125 52.59375 
L 48.78125 44.1875 
Q 44.96875 46.296875 41.140625 47.34375 
Q 37.3125 48.390625 33.40625 48.390625 
Q 24.65625 48.390625 19.8125 42.84375 
Q 14.984375 37.3125 14.984375 27.296875 
Q 14.984375 17.28125 19.8125 11.734375 
Q 24.65625 6.203125 33.40625 6.203125 
Q 37.3125 6.203125 41.140625 7.25 
Q 44.96875 8.296875 48.78125 10.40625 
L 48.78125 2.09375 
Q 45.015625 0.34375 40.984375 -0.53125 
Q 36.96875 -1.421875 32.421875 -1.421875 
Q 20.0625 -1.421875 12.78125 6.34375 
Q 5.515625 14.109375 5.515625 27.296875 
Q 5.515625 40.671875 12.859375 48.328125 
Q 20.21875 56 33.015625 56 
Q 37.15625 56 41.109375 55.140625 
Q 45.0625 54.296875 48.78125 52.59375 
z
" id="DejaVuSans-63"/>
      <path d="M 18.109375 8.203125 
L 18.109375 -20.796875 
L 9.078125 -20.796875 
L 9.078125 54.6875 
L 18.109375 54.6875 
L 18.109375 46.390625 
Q 20.953125 51.265625 25.265625 53.625 
Q 29.59375 56 35.59375 56 
Q 45.5625 56 51.78125 48.09375 
Q 58.015625 40.1875 58.015625 27.296875 
Q 58.015625 14.40625 51.78125 6.484375 
Q 45.5625 -1.421875 35.59375 -1.421875 
Q 29.59375 -1.421875 25.265625 0.953125 
Q 20.953125 3.328125 18.109375 8.203125 
z
M 48.6875 27.296875 
Q 48.6875 37.203125 44.609375 42.84375 
Q 40.53125 48.484375 33.40625 48.484375 
Q 26.265625 48.484375 22.1875 42.84375 
Q 18.109375 37.203125 18.109375 27.296875 
Q 18.109375 17.390625 22.1875 11.75 
Q 26.265625 6.109375 33.40625 6.109375 
Q 40.53125 6.109375 44.609375 11.75 
Q 48.6875 17.390625 48.6875 27.296875 
z
" id="DejaVuSans-70"/>
      <path d="M 45.40625 46.390625 
L 45.40625 75.984375 
L 54.390625 75.984375 
L 54.390625 0 
L 45.40625 0 
L 45.40625 8.203125 
Q 42.578125 3.328125 38.25 0.953125 
Q 33.9375 -1.421875 27.875 -1.421875 
Q 17.96875 -1.421875 11.734375 6.484375 
Q 5.515625 14.40625 5.515625 27.296875 
Q 5.515625 40.1875 11.734375 48.09375 
Q 17.96875 56 27.875 56 
Q 33.9375 56 38.25 53.625 
Q 42.578125 51.265625 45.40625 46.390625 
z
M 14.796875 27.296875 
Q 14.796875 17.390625 18.875 11.75 
Q 22.953125 6.109375 30.078125 6.109375 
Q 37.203125 6.109375 41.296875 11.75 
Q 45.40625 17.390625 45.40625 27.296875 
Q 45.40625 37.203125 41.296875 42.84375 
Q 37.203125 48.484375 30.078125 48.484375 
Q 22.953125 48.484375 18.875 42.84375 
Q 14.796875 37.203125 14.796875 27.296875 
z
" id="DejaVuSans-64"/>
      <path d="M 8.5 21.578125 
L 8.5 54.6875 
L 17.484375 54.6875 
L 17.484375 21.921875 
Q 17.484375 14.15625 20.5 10.265625 
Q 23.53125 6.390625 29.59375 6.390625 
Q 36.859375 6.390625 41.078125 11.03125 
Q 45.3125 15.671875 45.3125 23.6875 
L 45.3125 54.6875 
L 54.296875 54.6875 
L 54.296875 0 
L 45.3125 0 
L 45.3125 8.40625 
Q 42.046875 3.421875 37.71875 1 
Q 33.40625 -1.421875 27.6875 -1.421875 
Q 18.265625 -1.421875 13.375 4.4375 
Q 8.5 10.296875 8.5 21.578125 
z
M 31.109375 56 
z
" id="DejaVuSans-75"/>
      <path d="M 52 44.1875 
Q 55.375 50.25 60.0625 53.125 
Q 64.75 56 71.09375 56 
Q 79.640625 56 84.28125 50.015625 
Q 88.921875 44.046875 88.921875 33.015625 
L 88.921875 0 
L 79.890625 0 
L 79.890625 32.71875 
Q 79.890625 40.578125 77.09375 44.375 
Q 74.3125 48.1875 68.609375 48.1875 
Q 61.625 48.1875 57.5625 43.546875 
Q 53.515625 38.921875 53.515625 30.90625 
L 53.515625 0 
L 44.484375 0 
L 44.484375 32.71875 
Q 44.484375 40.625 41.703125 44.40625 
Q 38.921875 48.1875 33.109375 48.1875 
Q 26.21875 48.1875 22.15625 43.53125 
Q 18.109375 38.875 18.109375 30.90625 
L 18.109375 0 
L 9.078125 0 
L 9.078125 54.6875 
L 18.109375 54.6875 
L 18.109375 46.1875 
Q 21.1875 51.21875 25.484375 53.609375 
Q 29.78125 56 35.6875 56 
Q 41.65625 56 45.828125 52.96875 
Q 50 49.953125 52 44.1875 
z
" id="DejaVuSans-6d"/>
     </defs>
     <g transform="translate(1203.520313 85.718437)scale(0.1 -0.1)">
      <use xlink:href="#DejaVuSans-74"/>
      <use x="39.208984" xlink:href="#DejaVuSans-63"/>
      <use x="94.189453" xlink:href="#DejaVuSans-70"/>
      <use x="157.666016" xlink:href="#DejaVuSans-64"/>
      <use x="221.142578" xlink:href="#DejaVuSans-75"/>
      <use x="284.521484" xlink:href="#DejaVuSans-6d"/>
      <use x="381.933594" xlink:href="#DejaVuSans-70"/>
     </g>
    </g>
    <g id="line2d_23">
     <path d="M 1175.520313 96.896563 
L 1195.520313 96.896563 
" style="fill:none;stroke:#800080;stroke-dasharray:9.6,2.4,1.5,2.4;stroke-dashoffset:0;stroke-width:1.5;"/>
    </g>
    <g id="line2d_24">
     <g>
      <use style="fill:#800080;stroke:#800080;" x="1185.520313" xlink:href="#m0ddc69acd3" y="96.896563"/>
     </g>
    </g>
    <g id="text_19">
     <!-- filtered tcpdump -->
     <defs>
      <path d="M 37.109375 75.984375 
L 37.109375 68.5 
L 28.515625 68.5 
Q 23.6875 68.5 21.796875 66.546875 
Q 19.921875 64.59375 19.921875 59.515625 
L 19.921875 54.6875 
L 34.71875 54.6875 
L 34.71875 47.703125 
L 19.921875 47.703125 
L 19.921875 0 
L 10.890625 0 
L 10.890625 47.703125 
L 2.296875 47.703125 
L 2.296875 54.6875 
L 10.890625 54.6875 
L 10.890625 58.5 
Q 10.890625 67.625 15.140625 71.796875 
Q 19.390625 75.984375 28.609375 75.984375 
z
" id="DejaVuSans-66"/>
      <path d="M 9.421875 75.984375 
L 18.40625 75.984375 
L 18.40625 0 
L 9.421875 0 
z
" id="DejaVuSans-6c"/>
      <path d="M 56.203125 29.59375 
L 56.203125 25.203125 
L 14.890625 25.203125 
Q 15.484375 15.921875 20.484375 11.0625 
Q 25.484375 6.203125 34.421875 6.203125 
Q 39.59375 6.203125 44.453125 7.46875 
Q 49.3125 8.734375 54.109375 11.28125 
L 54.109375 2.78125 
Q 49.265625 0.734375 44.1875 -0.34375 
Q 39.109375 -1.421875 33.890625 -1.421875 
Q 20.796875 -1.421875 13.15625 6.1875 
Q 5.515625 13.8125 5.515625 26.8125 
Q 5.515625 40.234375 12.765625 48.109375 
Q 20.015625 56 32.328125 56 
Q 43.359375 56 49.78125 48.890625 
Q 56.203125 41.796875 56.203125 29.59375 
z
M 47.21875 32.234375 
Q 47.125 39.59375 43.09375 43.984375 
Q 39.0625 48.390625 32.421875 48.390625 
Q 24.90625 48.390625 20.390625 44.140625 
Q 15.875 39.890625 15.1875 32.171875 
z
" id="DejaVuSans-65"/>
      <path d="M 41.109375 46.296875 
Q 39.59375 47.171875 37.8125 47.578125 
Q 36.03125 48 33.890625 48 
Q 26.265625 48 22.1875 43.046875 
Q 18.109375 38.09375 18.109375 28.8125 
L 18.109375 0 
L 9.078125 0 
L 9.078125 54.6875 
L 18.109375 54.6875 
L 18.109375 46.1875 
Q 20.953125 51.171875 25.484375 53.578125 
Q 30.03125 56 36.53125 56 
Q 37.453125 56 38.578125 55.875 
Q 39.703125 55.765625 41.0625 55.515625 
z
" id="DejaVuSans-72"/>
     </defs>
     <g transform="translate(1203.520313 100.396563)scale(0.1 -0.1)">
      <use xlink:href="#DejaVuSans-66"/>
      <use x="35.205078" xlink:href="#DejaVuSans-69"/>
      <use x="62.988281" xlink:href="#DejaVuSans-6c"/>
      <use x="90.771484" xlink:href="#DejaVuSans-74"/>
      <use x="129.980469" xlink:href="#DejaVuSans-65"/>
      <use x="191.503906" xlink:href="#DejaVuSans-72"/>
      <use x="232.585938" xlink:href="#DejaVuSans-65"/>
      <use x="294.109375" xlink:href="#DejaVuSans-64"/>
      <use x="357.585938" xlink:href="#DejaVuSans-20"/>
      <use x="389.373047" xlink:href="#DejaVuSans-74"/>
      <use x="428.582031" xlink:href="#DejaVuSans-63"/>
      <use x="483.5625" xlink:href="#DejaVuSans-70"/>
      <use x="547.039062" xlink:href="#DejaVuSans-64"/>
      <use x="610.515625" xlink:href="#DejaVuSans-75"/>
      <use x="673.894531" xlink:href="#DejaVuSans-6d"/>
      <use x="771.306641" xlink:href="#DejaVuSans-70"/>
     </g>
    </g>
    <g id="line2d_25">
     <path d="M 1175.520313 111.574687 
L 1195.520313 111.574687 
" style="fill:none;stroke:#0000ff;stroke-linecap:square;stroke-width:1.5;"/>
    </g>
    <g id="line2d_26"/>
    <g id="text_20">
     <!-- OLS -->
     <defs>
      <path d="M 39.40625 66.21875 
Q 28.65625 66.21875 22.328125 58.203125 
Q 16.015625 50.203125 16.015625 36.375 
Q 16.015625 22.609375 22.328125 14.59375 
Q 28.65625 6.59375 39.40625 6.59375 
Q 50.140625 6.59375 56.421875 14.59375 
Q 62.703125 22.609375 62.703125 36.375 
Q 62.703125 50.203125 56.421875 58.203125 
Q 50.140625 66.21875 39.40625 66.21875 
z
M 39.40625 74.21875 
Q 54.734375 74.21875 63.90625 63.9375 
Q 73.09375 53.65625 73.09375 36.375 
Q 73.09375 19.140625 63.90625 8.859375 
Q 54.734375 -1.421875 39.40625 -1.421875 
Q 24.03125 -1.421875 14.8125 8.828125 
Q 5.609375 19.09375 5.609375 36.375 
Q 5.609375 53.65625 14.8125 63.9375 
Q 24.03125 74.21875 39.40625 74.21875 
z
" id="DejaVuSans-4f"/>
      <path d="M 9.8125 72.90625 
L 19.671875 72.90625 
L 19.671875 8.296875 
L 55.171875 8.296875 
L 55.171875 0 
L 9.8125 0 
z
" id="DejaVuSans-4c"/>
      <path d="M 53.515625 70.515625 
L 53.515625 60.890625 
Q 47.90625 63.578125 42.921875 64.890625 
Q 37.9375 66.21875 33.296875 66.21875 
Q 25.25 66.21875 20.875 63.09375 
Q 16.5 59.96875 16.5 54.203125 
Q 16.5 49.359375 19.40625 46.890625 
Q 22.3125 44.4375 30.421875 42.921875 
L 36.375 41.703125 
Q 47.40625 39.59375 52.65625 34.296875 
Q 57.90625 29 57.90625 20.125 
Q 57.90625 9.515625 50.796875 4.046875 
Q 43.703125 -1.421875 29.984375 -1.421875 
Q 24.8125 -1.421875 18.96875 -0.25 
Q 13.140625 0.921875 6.890625 3.21875 
L 6.890625 13.375 
Q 12.890625 10.015625 18.65625 8.296875 
Q 24.421875 6.59375 29.984375 6.59375 
Q 38.421875 6.59375 43.015625 9.90625 
Q 47.609375 13.234375 47.609375 19.390625 
Q 47.609375 24.75 44.3125 27.78125 
Q 41.015625 30.8125 33.5 32.328125 
L 27.484375 33.5 
Q 16.453125 35.6875 11.515625 40.375 
Q 6.59375 45.0625 6.59375 53.421875 
Q 6.59375 63.09375 13.40625 68.65625 
Q 20.21875 74.21875 32.171875 74.21875 
Q 37.3125 74.21875 42.625 73.28125 
Q 47.953125 72.359375 53.515625 70.515625 
z
" id="DejaVuSans-53"/>
     </defs>
     <g transform="translate(1203.520313 115.074687)scale(0.1 -0.1)">
      <use xlink:href="#DejaVuSans-4f"/>
      <use x="78.710938" xlink:href="#DejaVuSans-4c"/>
      <use x="134.423828" xlink:href="#DejaVuSans-53"/>
     </g>
    </g>
    <g id="line2d_27">
     <path d="M 1175.520313 126.252813 
L 1195.520313 126.252813 
" style="fill:none;stroke:#008000;stroke-linecap:square;stroke-width:1.5;"/>
    </g>
    <g id="line2d_28">
     <g>
      <use style="fill:#008000;stroke:#008000;" x="1185.520313" xlink:href="#mb8d9d038fd" y="126.252813"/>
     </g>
    </g>
    <g id="text_21">
     <!-- IRLS -->
     <defs>
      <path d="M 9.8125 72.90625 
L 19.671875 72.90625 
L 19.671875 0 
L 9.8125 0 
z
" id="DejaVuSans-49"/>
      <path d="M 44.390625 34.1875 
Q 47.5625 33.109375 50.5625 29.59375 
Q 53.5625 26.078125 56.59375 19.921875 
L 66.609375 0 
L 56 0 
L 46.6875 18.703125 
Q 43.0625 26.03125 39.671875 28.421875 
Q 36.28125 30.8125 30.421875 30.8125 
L 19.671875 30.8125 
L 19.671875 0 
L 9.8125 0 
L 9.8125 72.90625 
L 32.078125 72.90625 
Q 44.578125 72.90625 50.734375 67.671875 
Q 56.890625 62.453125 56.890625 51.90625 
Q 56.890625 45.015625 53.6875 40.46875 
Q 50.484375 35.9375 44.390625 34.1875 
z
M 19.671875 64.796875 
L 19.671875 38.921875 
L 32.078125 38.921875 
Q 39.203125 38.921875 42.84375 42.21875 
Q 46.484375 45.515625 46.484375 51.90625 
Q 46.484375 58.296875 42.84375 61.546875 
Q 39.203125 64.796875 32.078125 64.796875 
z
" id="DejaVuSans-52"/>
     </defs>
     <g transform="translate(1203.520313 129.752813)scale(0.1 -0.1)">
      <use xlink:href="#DejaVuSans-49"/>
      <use x="29.492188" xlink:href="#DejaVuSans-52"/>
      <use x="98.974609" xlink:href="#DejaVuSans-4c"/>
      <use x="154.6875" xlink:href="#DejaVuSans-53"/>
     </g>
    </g>
   </g>
  </g>
 </g>
 <defs>
  <clipPath id="pc8fd4fee9e">
   <rect height="443.52" width="1116" x="180" y="69.12"/>
  </clipPath>
 </defs>
</svg>
