<?xml version="1.0" encoding="utf-8" standalone="no"?>
<!DOCTYPE svg PUBLIC "-//W3C//DTD SVG 1.1//EN"
  "http://www.w3.org/Graphics/SVG/1.1/DTD/svg11.dtd">
<!-- Created with matplotlib (http://matplotlib.org/) -->
<svg height="576pt" version="1.1" viewBox="0 0 1440 576" width="1440pt" xmlns="http://www.w3.org/2000/svg" xmlns:xlink="http://www.w3.org/1999/xlink">
 <defs>
  <style type="text/css">
*{stroke-linecap:butt;stroke-linejoin:round;}
  </style>
 </defs>
 <g id="figure_1">
  <g id="patch_1">
   <path d="M 0 576 
L 1440 576 
L 1440 0 
L 0 0 
z
" style="fill:#ffffff;"/>
  </g>
  <g id="axes_1">
   <g id="patch_2">
    <path d="M 180 512.64 
L 1296 512.64 
L 1296 69.12 
L 180 69.12 
z
" style="fill:#ffffff;"/>
   </g>
   <g id="matplotlib.axis_1">
    <g id="xtick_1">
     <g id="line2d_1">
      <defs>
       <path d="M 0 0 
L 0 3.5 
" id="m740919dfec" style="stroke:#000000;stroke-width:0.8;"/>
      </defs>
      <g>
       <use style="stroke:#000000;stroke-width:0.8;" x="230.727273" xlink:href="#m740919dfec" y="512.64"/>
      </g>
     </g>
     <g id="text_1">
      <!-- 0.0 -->
      <defs>
       <path d="M 31.78125 66.40625 
Q 24.171875 66.40625 20.328125 58.90625 
Q 16.5 51.421875 16.5 36.375 
Q 16.5 21.390625 20.328125 13.890625 
Q 24.171875 6.390625 31.78125 6.390625 
Q 39.453125 6.390625 43.28125 13.890625 
Q 47.125 21.390625 47.125 36.375 
Q 47.125 51.421875 43.28125 58.90625 
Q 39.453125 66.40625 31.78125 66.40625 
z
M 31.78125 74.21875 
Q 44.046875 74.21875 50.515625 64.515625 
Q 56.984375 54.828125 56.984375 36.375 
Q 56.984375 17.96875 50.515625 8.265625 
Q 44.046875 -1.421875 31.78125 -1.421875 
Q 19.53125 -1.421875 13.0625 8.265625 
Q 6.59375 17.96875 6.59375 36.375 
Q 6.59375 54.828125 13.0625 64.515625 
Q 19.53125 74.21875 31.78125 74.21875 
z
" id="DejaVuSans-30"/>
       <path d="M 10.6875 12.40625 
L 21 12.40625 
L 21 0 
L 10.6875 0 
z
" id="DejaVuSans-2e"/>
      </defs>
      <g transform="translate(222.77571 527.238438)scale(0.1 -0.1)">
       <use xlink:href="#DejaVuSans-30"/>
       <use x="63.623047" xlink:href="#DejaVuSans-2e"/>
       <use x="95.410156" xlink:href="#DejaVuSans-30"/>
      </g>
     </g>
    </g>
    <g id="xtick_2">
     <g id="line2d_2">
      <g>
       <use style="stroke:#000000;stroke-width:0.8;" x="385.834253" xlink:href="#m740919dfec" y="512.64"/>
      </g>
     </g>
     <g id="text_2">
      <!-- 0.2 -->
      <defs>
       <path d="M 19.1875 8.296875 
L 53.609375 8.296875 
L 53.609375 0 
L 7.328125 0 
L 7.328125 8.296875 
Q 12.9375 14.109375 22.625 23.890625 
Q 32.328125 33.6875 34.8125 36.53125 
Q 39.546875 41.84375 41.421875 45.53125 
Q 43.3125 49.21875 43.3125 52.78125 
Q 43.3125 58.59375 39.234375 62.25 
Q 35.15625 65.921875 28.609375 65.921875 
Q 23.96875 65.921875 18.8125 64.3125 
Q 13.671875 62.703125 7.8125 59.421875 
L 7.8125 69.390625 
Q 13.765625 71.78125 18.9375 73 
Q 24.125 74.21875 28.421875 74.21875 
Q 39.75 74.21875 46.484375 68.546875 
Q 53.21875 62.890625 53.21875 53.421875 
Q 53.21875 48.921875 51.53125 44.890625 
Q 49.859375 40.875 45.40625 35.40625 
Q 44.1875 33.984375 37.640625 27.21875 
Q 31.109375 20.453125 19.1875 8.296875 
z
" id="DejaVuSans-32"/>
      </defs>
      <g transform="translate(377.882691 527.238438)scale(0.1 -0.1)">
       <use xlink:href="#DejaVuSans-30"/>
       <use x="63.623047" xlink:href="#DejaVuSans-2e"/>
       <use x="95.410156" xlink:href="#DejaVuSans-32"/>
      </g>
     </g>
    </g>
    <g id="xtick_3">
     <g id="line2d_3">
      <g>
       <use style="stroke:#000000;stroke-width:0.8;" x="540.941234" xlink:href="#m740919dfec" y="512.64"/>
      </g>
     </g>
     <g id="text_3">
      <!-- 0.4 -->
      <defs>
       <path d="M 37.796875 64.3125 
L 12.890625 25.390625 
L 37.796875 25.390625 
z
M 35.203125 72.90625 
L 47.609375 72.90625 
L 47.609375 25.390625 
L 58.015625 25.390625 
L 58.015625 17.1875 
L 47.609375 17.1875 
L 47.609375 0 
L 37.796875 0 
L 37.796875 17.1875 
L 4.890625 17.1875 
L 4.890625 26.703125 
z
" id="DejaVuSans-34"/>
      </defs>
      <g transform="translate(532.989672 527.238438)scale(0.1 -0.1)">
       <use xlink:href="#DejaVuSans-30"/>
       <use x="63.623047" xlink:href="#DejaVuSans-2e"/>
       <use x="95.410156" xlink:href="#DejaVuSans-34"/>
      </g>
     </g>
    </g>
    <g id="xtick_4">
     <g id="line2d_4">
      <g>
       <use style="stroke:#000000;stroke-width:0.8;" x="696.048215" xlink:href="#m740919dfec" y="512.64"/>
      </g>
     </g>
     <g id="text_4">
      <!-- 0.6 -->
      <defs>
       <path d="M 33.015625 40.375 
Q 26.375 40.375 22.484375 35.828125 
Q 18.609375 31.296875 18.609375 23.390625 
Q 18.609375 15.53125 22.484375 10.953125 
Q 26.375 6.390625 33.015625 6.390625 
Q 39.65625 6.390625 43.53125 10.953125 
Q 47.40625 15.53125 47.40625 23.390625 
Q 47.40625 31.296875 43.53125 35.828125 
Q 39.65625 40.375 33.015625 40.375 
z
M 52.59375 71.296875 
L 52.59375 62.3125 
Q 48.875 64.0625 45.09375 64.984375 
Q 41.3125 65.921875 37.59375 65.921875 
Q 27.828125 65.921875 22.671875 59.328125 
Q 17.53125 52.734375 16.796875 39.40625 
Q 19.671875 43.65625 24.015625 45.921875 
Q 28.375 48.1875 33.59375 48.1875 
Q 44.578125 48.1875 50.953125 41.515625 
Q 57.328125 34.859375 57.328125 23.390625 
Q 57.328125 12.15625 50.6875 5.359375 
Q 44.046875 -1.421875 33.015625 -1.421875 
Q 20.359375 -1.421875 13.671875 8.265625 
Q 6.984375 17.96875 6.984375 36.375 
Q 6.984375 53.65625 15.1875 63.9375 
Q 23.390625 74.21875 37.203125 74.21875 
Q 40.921875 74.21875 44.703125 73.484375 
Q 48.484375 72.75 52.59375 71.296875 
z
" id="DejaVuSans-36"/>
      </defs>
      <g transform="translate(688.096652 527.238438)scale(0.1 -0.1)">
       <use xlink:href="#DejaVuSans-30"/>
       <use x="63.623047" xlink:href="#DejaVuSans-2e"/>
       <use x="95.410156" xlink:href="#DejaVuSans-36"/>
      </g>
     </g>
    </g>
    <g id="xtick_5">
     <g id="line2d_5">
      <g>
       <use style="stroke:#000000;stroke-width:0.8;" x="851.155196" xlink:href="#m740919dfec" y="512.64"/>
      </g>
     </g>
     <g id="text_5">
      <!-- 0.8 -->
      <defs>
       <path d="M 31.78125 34.625 
Q 24.75 34.625 20.71875 30.859375 
Q 16.703125 27.09375 16.703125 20.515625 
Q 16.703125 13.921875 20.71875 10.15625 
Q 24.75 6.390625 31.78125 6.390625 
Q 38.8125 6.390625 42.859375 10.171875 
Q 46.921875 13.96875 46.921875 20.515625 
Q 46.921875 27.09375 42.890625 30.859375 
Q 38.875 34.625 31.78125 34.625 
z
M 21.921875 38.8125 
Q 15.578125 40.375 12.03125 44.71875 
Q 8.5 49.078125 8.5 55.328125 
Q 8.5 64.0625 14.71875 69.140625 
Q 20.953125 74.21875 31.78125 74.21875 
Q 42.671875 74.21875 48.875 69.140625 
Q 55.078125 64.0625 55.078125 55.328125 
Q 55.078125 49.078125 51.53125 44.71875 
Q 48 40.375 41.703125 38.8125 
Q 48.828125 37.15625 52.796875 32.3125 
Q 56.78125 27.484375 56.78125 20.515625 
Q 56.78125 9.90625 50.3125 4.234375 
Q 43.84375 -1.421875 31.78125 -1.421875 
Q 19.734375 -1.421875 13.25 4.234375 
Q 6.78125 9.90625 6.78125 20.515625 
Q 6.78125 27.484375 10.78125 32.3125 
Q 14.796875 37.15625 21.921875 38.8125 
z
M 18.3125 54.390625 
Q 18.3125 48.734375 21.84375 45.5625 
Q 25.390625 42.390625 31.78125 42.390625 
Q 38.140625 42.390625 41.71875 45.5625 
Q 45.3125 48.734375 45.3125 54.390625 
Q 45.3125 60.0625 41.71875 63.234375 
Q 38.140625 66.40625 31.78125 66.40625 
Q 25.390625 66.40625 21.84375 63.234375 
Q 18.3125 60.0625 18.3125 54.390625 
z
" id="DejaVuSans-38"/>
      </defs>
      <g transform="translate(843.203633 527.238438)scale(0.1 -0.1)">
       <use xlink:href="#DejaVuSans-30"/>
       <use x="63.623047" xlink:href="#DejaVuSans-2e"/>
       <use x="95.410156" xlink:href="#DejaVuSans-38"/>
      </g>
     </g>
    </g>
    <g id="xtick_6">
     <g id="line2d_6">
      <g>
       <use style="stroke:#000000;stroke-width:0.8;" x="1006.262176" xlink:href="#m740919dfec" y="512.64"/>
      </g>
     </g>
     <g id="text_6">
      <!-- 1.0 -->
      <defs>
       <path d="M 12.40625 8.296875 
L 28.515625 8.296875 
L 28.515625 63.921875 
L 10.984375 60.40625 
L 10.984375 69.390625 
L 28.421875 72.90625 
L 38.28125 72.90625 
L 38.28125 8.296875 
L 54.390625 8.296875 
L 54.390625 0 
L 12.40625 0 
z
" id="DejaVuSans-31"/>
      </defs>
      <g transform="translate(998.310614 527.238438)scale(0.1 -0.1)">
       <use xlink:href="#DejaVuSans-31"/>
       <use x="63.623047" xlink:href="#DejaVuSans-2e"/>
       <use x="95.410156" xlink:href="#DejaVuSans-30"/>
      </g>
     </g>
    </g>
    <g id="xtick_7">
     <g id="line2d_7">
      <g>
       <use style="stroke:#000000;stroke-width:0.8;" x="1161.369157" xlink:href="#m740919dfec" y="512.64"/>
      </g>
     </g>
     <g id="text_7">
      <!-- 1.2 -->
      <g transform="translate(1153.417595 527.238438)scale(0.1 -0.1)">
       <use xlink:href="#DejaVuSans-31"/>
       <use x="63.623047" xlink:href="#DejaVuSans-2e"/>
       <use x="95.410156" xlink:href="#DejaVuSans-32"/>
      </g>
     </g>
    </g>
   </g>
   <g id="matplotlib.axis_2">
    <g id="ytick_1">
     <g id="line2d_8">
      <defs>
       <path d="M 0 0 
L -3.5 0 
" id="m7dc17df737" style="stroke:#000000;stroke-width:0.8;"/>
      </defs>
      <g>
       <use style="stroke:#000000;stroke-width:0.8;" x="180" xlink:href="#m7dc17df737" y="512.514783"/>
      </g>
     </g>
     <g id="text_8">
      <!-- 0.30030 -->
      <defs>
       <path d="M 40.578125 39.3125 
Q 47.65625 37.796875 51.625 33 
Q 55.609375 28.21875 55.609375 21.1875 
Q 55.609375 10.40625 48.1875 4.484375 
Q 40.765625 -1.421875 27.09375 -1.421875 
Q 22.515625 -1.421875 17.65625 -0.515625 
Q 12.796875 0.390625 7.625 2.203125 
L 7.625 11.71875 
Q 11.71875 9.328125 16.59375 8.109375 
Q 21.484375 6.890625 26.8125 6.890625 
Q 36.078125 6.890625 40.9375 10.546875 
Q 45.796875 14.203125 45.796875 21.1875 
Q 45.796875 27.640625 41.28125 31.265625 
Q 36.765625 34.90625 28.71875 34.90625 
L 20.21875 34.90625 
L 20.21875 43.015625 
L 29.109375 43.015625 
Q 36.375 43.015625 40.234375 45.921875 
Q 44.09375 48.828125 44.09375 54.296875 
Q 44.09375 59.90625 40.109375 62.90625 
Q 36.140625 65.921875 28.71875 65.921875 
Q 24.65625 65.921875 20.015625 65.03125 
Q 15.375 64.15625 9.8125 62.3125 
L 9.8125 71.09375 
Q 15.4375 72.65625 20.34375 73.4375 
Q 25.25 74.21875 29.59375 74.21875 
Q 40.828125 74.21875 47.359375 69.109375 
Q 53.90625 64.015625 53.90625 55.328125 
Q 53.90625 49.265625 50.4375 45.09375 
Q 46.96875 40.921875 40.578125 39.3125 
z
" id="DejaVuSans-33"/>
      </defs>
      <g transform="translate(131.646875 516.314001)scale(0.1 -0.1)">
       <use xlink:href="#DejaVuSans-30"/>
       <use x="63.623047" xlink:href="#DejaVuSans-2e"/>
       <use x="95.410156" xlink:href="#DejaVuSans-33"/>
       <use x="159.033203" xlink:href="#DejaVuSans-30"/>
       <use x="222.65625" xlink:href="#DejaVuSans-30"/>
       <use x="286.279297" xlink:href="#DejaVuSans-33"/>
       <use x="349.902344" xlink:href="#DejaVuSans-30"/>
      </g>
     </g>
    </g>
    <g id="ytick_2">
     <g id="line2d_9">
      <g>
       <use style="stroke:#000000;stroke-width:0.8;" x="180" xlink:href="#m7dc17df737" y="449.906087"/>
      </g>
     </g>
     <g id="text_9">
      <!-- 0.30035 -->
      <defs>
       <path d="M 10.796875 72.90625 
L 49.515625 72.90625 
L 49.515625 64.59375 
L 19.828125 64.59375 
L 19.828125 46.734375 
Q 21.96875 47.46875 24.109375 47.828125 
Q 26.265625 48.1875 28.421875 48.1875 
Q 40.625 48.1875 47.75 41.5 
Q 54.890625 34.8125 54.890625 23.390625 
Q 54.890625 11.625 47.5625 5.09375 
Q 40.234375 -1.421875 26.90625 -1.421875 
Q 22.3125 -1.421875 17.546875 -0.640625 
Q 12.796875 0.140625 7.71875 1.703125 
L 7.71875 11.625 
Q 12.109375 9.234375 16.796875 8.0625 
Q 21.484375 6.890625 26.703125 6.890625 
Q 35.15625 6.890625 40.078125 11.328125 
Q 45.015625 15.765625 45.015625 23.390625 
Q 45.015625 31 40.078125 35.4375 
Q 35.15625 39.890625 26.703125 39.890625 
Q 22.75 39.890625 18.8125 39.015625 
Q 14.890625 38.140625 10.796875 36.28125 
z
" id="DejaVuSans-35"/>
      </defs>
      <g transform="translate(131.646875 453.705306)scale(0.1 -0.1)">
       <use xlink:href="#DejaVuSans-30"/>
       <use x="63.623047" xlink:href="#DejaVuSans-2e"/>
       <use x="95.410156" xlink:href="#DejaVuSans-33"/>
       <use x="159.033203" xlink:href="#DejaVuSans-30"/>
       <use x="222.65625" xlink:href="#DejaVuSans-30"/>
       <use x="286.279297" xlink:href="#DejaVuSans-33"/>
       <use x="349.902344" xlink:href="#DejaVuSans-35"/>
      </g>
     </g>
    </g>
    <g id="ytick_3">
     <g id="line2d_10">
      <g>
       <use style="stroke:#000000;stroke-width:0.8;" x="180" xlink:href="#m7dc17df737" y="387.297391"/>
      </g>
     </g>
     <g id="text_10">
      <!-- 0.30040 -->
      <g transform="translate(131.646875 391.09661)scale(0.1 -0.1)">
       <use xlink:href="#DejaVuSans-30"/>
       <use x="63.623047" xlink:href="#DejaVuSans-2e"/>
       <use x="95.410156" xlink:href="#DejaVuSans-33"/>
       <use x="159.033203" xlink:href="#DejaVuSans-30"/>
       <use x="222.65625" xlink:href="#DejaVuSans-30"/>
       <use x="286.279297" xlink:href="#DejaVuSans-34"/>
       <use x="349.902344" xlink:href="#DejaVuSans-30"/>
      </g>
     </g>
    </g>
    <g id="ytick_4">
     <g id="line2d_11">
      <g>
       <use style="stroke:#000000;stroke-width:0.8;" x="180" xlink:href="#m7dc17df737" y="324.688696"/>
      </g>
     </g>
     <g id="text_11">
      <!-- 0.30045 -->
      <g transform="translate(131.646875 328.487914)scale(0.1 -0.1)">
       <use xlink:href="#DejaVuSans-30"/>
       <use x="63.623047" xlink:href="#DejaVuSans-2e"/>
       <use x="95.410156" xlink:href="#DejaVuSans-33"/>
       <use x="159.033203" xlink:href="#DejaVuSans-30"/>
       <use x="222.65625" xlink:href="#DejaVuSans-30"/>
       <use x="286.279297" xlink:href="#DejaVuSans-34"/>
       <use x="349.902344" xlink:href="#DejaVuSans-35"/>
      </g>
     </g>
    </g>
    <g id="ytick_5">
     <g id="line2d_12">
      <g>
       <use style="stroke:#000000;stroke-width:0.8;" x="180" xlink:href="#m7dc17df737" y="262.08"/>
      </g>
     </g>
     <g id="text_12">
      <!-- 0.30050 -->
      <g transform="translate(131.646875 265.879219)scale(0.1 -0.1)">
       <use xlink:href="#DejaVuSans-30"/>
       <use x="63.623047" xlink:href="#DejaVuSans-2e"/>
       <use x="95.410156" xlink:href="#DejaVuSans-33"/>
       <use x="159.033203" xlink:href="#DejaVuSans-30"/>
       <use x="222.65625" xlink:href="#DejaVuSans-30"/>
       <use x="286.279297" xlink:href="#DejaVuSans-35"/>
       <use x="349.902344" xlink:href="#DejaVuSans-30"/>
      </g>
     </g>
    </g>
    <g id="ytick_6">
     <g id="line2d_13">
      <g>
       <use style="stroke:#000000;stroke-width:0.8;" x="180" xlink:href="#m7dc17df737" y="199.471304"/>
      </g>
     </g>
     <g id="text_13">
      <!-- 0.30055 -->
      <g transform="translate(131.646875 203.270523)scale(0.1 -0.1)">
       <use xlink:href="#DejaVuSans-30"/>
       <use x="63.623047" xlink:href="#DejaVuSans-2e"/>
       <use x="95.410156" xlink:href="#DejaVuSans-33"/>
       <use x="159.033203" xlink:href="#DejaVuSans-30"/>
       <use x="222.65625" xlink:href="#DejaVuSans-30"/>
       <use x="286.279297" xlink:href="#DejaVuSans-35"/>
       <use x="349.902344" xlink:href="#DejaVuSans-35"/>
      </g>
     </g>
    </g>
    <g id="ytick_7">
     <g id="line2d_14">
      <g>
       <use style="stroke:#000000;stroke-width:0.8;" x="180" xlink:href="#m7dc17df737" y="136.862609"/>
      </g>
     </g>
     <g id="text_14">
      <!-- 0.30060 -->
      <g transform="translate(131.646875 140.661827)scale(0.1 -0.1)">
       <use xlink:href="#DejaVuSans-30"/>
       <use x="63.623047" xlink:href="#DejaVuSans-2e"/>
       <use x="95.410156" xlink:href="#DejaVuSans-33"/>
       <use x="159.033203" xlink:href="#DejaVuSans-30"/>
       <use x="222.65625" xlink:href="#DejaVuSans-30"/>
       <use x="286.279297" xlink:href="#DejaVuSans-36"/>
       <use x="349.902344" xlink:href="#DejaVuSans-30"/>
      </g>
     </g>
    </g>
    <g id="ytick_8">
     <g id="line2d_15">
      <g>
       <use style="stroke:#000000;stroke-width:0.8;" x="180" xlink:href="#m7dc17df737" y="74.253913"/>
      </g>
     </g>
     <g id="text_15">
      <!-- 0.30065 -->
      <g transform="translate(131.646875 78.053132)scale(0.1 -0.1)">
       <use xlink:href="#DejaVuSans-30"/>
       <use x="63.623047" xlink:href="#DejaVuSans-2e"/>
       <use x="95.410156" xlink:href="#DejaVuSans-33"/>
       <use x="159.033203" xlink:href="#DejaVuSans-30"/>
       <use x="222.65625" xlink:href="#DejaVuSans-30"/>
       <use x="286.279297" xlink:href="#DejaVuSans-36"/>
       <use x="349.902344" xlink:href="#DejaVuSans-35"/>
      </g>
     </g>
    </g>
   </g>
   <g id="line2d_16">
    <path clip-path="url(#p6ad7012610)" d="M 230.727273 367.262609 
L 241.080664 257.071304 
L 251.253355 369.766957 
L 261.315145 406.08 
L 271.344362 444.897391 
L 281.355742 417.349565 
L 292.467606 409.836522 
L 302.543356 428.61913 
L 312.559389 461.175652 
L 322.562238 417.349565 
L 332.543373 451.158261 
L 342.575692 426.114783 
L 352.881775 412.34087 
L 362.883074 325.94087 
L 372.949517 367.262609 
L 382.98804 333.453913 
L 393.332125 352.236522 
L 403.313259 436.132174 
L 413.325415 457.41913 
L 423.43141 436.132174 
L 433.439688 401.071304 
L 443.433231 449.906087 
L 453.448488 433.627826 
L 464.125278 397.314783 
L 474.360787 288.375652 
L 484.808793 393.558261 
L 496.91024 472.445217 
L 506.989867 438.636522 
L 517.042351 469.94087 
L 527.212715 427.366957 
L 537.584719 452.410435 
L 547.707776 443.645217 
L 557.868835 486.21913 
L 567.946911 391.053913 
L 578.028864 469.94087 
L 588.057306 398.566957 
L 598.166404 398.566957 
L 608.055249 451.158261 
L 618.068956 484.966957 
L 628.235443 444.897391 
L 639.535762 373.523478 
L 649.539387 350.984348 
L 659.3817 412.34087 
L 669.297689 429.871304 
L 679.523893 433.627826 
L 689.677971 454.914783 
L 699.987157 366.010435 
L 710.135806 382.288696 
L 720.234046 329.697391 
L 731.075249 384.793043 
L 743.154205 89.28 
L 753.478126 391.053913 
L 763.557753 381.036522 
L 774.125191 366.010435 
L 784.340537 438.636522 
L 794.394572 210.74087 
L 804.303581 456.166957 
L 814.345207 437.384348 
L 824.416303 443.645217 
L 834.623118 418.601739 
L 844.802014 244.549565 
L 854.635796 362.253913 
L 864.66734 492.48 
L 874.705089 409.836522 
L 884.73353 448.653913 
L 894.927161 387.297391 
L 905.075035 436.132174 
L 915.096497 339.714783 
L 925.112531 414.845217 
L 935.139421 218.253913 
L 945.171741 451.158261 
L 955.451456 379.784348 
L 966.27327 237.036522 
L 976.272242 108.062609 
L 989.467193 388.549565 
L 999.657721 353.488696 
L 1009.725715 377.28 
L 1019.896856 343.471304 
L 1029.975707 452.410435 
L 1040.17942 338.462609 
L 1050.187698 363.506087 
L 1060.323163 249.558261 
L 1070.320584 414.845217 
L 1080.397109 387.297391 
L 1091.199535 438.636522 
L 1101.48623 429.871304 
L 1111.565081 452.410435 
L 1121.830837 335.958261 
L 1131.935281 424.862609 
L 1142.129687 372.271304 
L 1152.194579 416.097391 
L 1162.299799 389.801739 
L 1172.508165 432.375652 
L 1182.590119 449.906087 
L 1193.124209 345.975652 
L 1203.213143 438.636522 
L 1213.245462 393.558261 
L 1224.736563 448.653913 
L 1235.168283 344.723478 
L 1245.272727 403.575652 
" style="fill:none;stroke:#ff0000;stroke-dasharray:5.55,2.4;stroke-dashoffset:0;stroke-width:1.5;"/>
    <defs>
     <path d="M -3 3 
L 3 3 
L 3 -3 
L -3 -3 
z
" id="mf9be73805c" style="stroke:#ff0000;stroke-linejoin:miter;"/>
    </defs>
    <g clip-path="url(#p6ad7012610)">
     <use style="fill:#ff0000;stroke:#ff0000;stroke-linejoin:miter;" x="230.727273" xlink:href="#mf9be73805c" y="367.262609"/>
     <use style="fill:#ff0000;stroke:#ff0000;stroke-linejoin:miter;" x="241.080664" xlink:href="#mf9be73805c" y="257.071304"/>
     <use style="fill:#ff0000;stroke:#ff0000;stroke-linejoin:miter;" x="251.253355" xlink:href="#mf9be73805c" y="369.766957"/>
     <use style="fill:#ff0000;stroke:#ff0000;stroke-linejoin:miter;" x="261.315145" xlink:href="#mf9be73805c" y="406.08"/>
     <use style="fill:#ff0000;stroke:#ff0000;stroke-linejoin:miter;" x="271.344362" xlink:href="#mf9be73805c" y="444.897391"/>
     <use style="fill:#ff0000;stroke:#ff0000;stroke-linejoin:miter;" x="281.355742" xlink:href="#mf9be73805c" y="417.349565"/>
     <use style="fill:#ff0000;stroke:#ff0000;stroke-linejoin:miter;" x="292.467606" xlink:href="#mf9be73805c" y="409.836522"/>
     <use style="fill:#ff0000;stroke:#ff0000;stroke-linejoin:miter;" x="302.543356" xlink:href="#mf9be73805c" y="428.61913"/>
     <use style="fill:#ff0000;stroke:#ff0000;stroke-linejoin:miter;" x="312.559389" xlink:href="#mf9be73805c" y="461.175652"/>
     <use style="fill:#ff0000;stroke:#ff0000;stroke-linejoin:miter;" x="322.562238" xlink:href="#mf9be73805c" y="417.349565"/>
     <use style="fill:#ff0000;stroke:#ff0000;stroke-linejoin:miter;" x="332.543373" xlink:href="#mf9be73805c" y="451.158261"/>
     <use style="fill:#ff0000;stroke:#ff0000;stroke-linejoin:miter;" x="342.575692" xlink:href="#mf9be73805c" y="426.114783"/>
     <use style="fill:#ff0000;stroke:#ff0000;stroke-linejoin:miter;" x="352.881775" xlink:href="#mf9be73805c" y="412.34087"/>
     <use style="fill:#ff0000;stroke:#ff0000;stroke-linejoin:miter;" x="362.883074" xlink:href="#mf9be73805c" y="325.94087"/>
     <use style="fill:#ff0000;stroke:#ff0000;stroke-linejoin:miter;" x="372.949517" xlink:href="#mf9be73805c" y="367.262609"/>
     <use style="fill:#ff0000;stroke:#ff0000;stroke-linejoin:miter;" x="382.98804" xlink:href="#mf9be73805c" y="333.453913"/>
     <use style="fill:#ff0000;stroke:#ff0000;stroke-linejoin:miter;" x="393.332125" xlink:href="#mf9be73805c" y="352.236522"/>
     <use style="fill:#ff0000;stroke:#ff0000;stroke-linejoin:miter;" x="403.313259" xlink:href="#mf9be73805c" y="436.132174"/>
     <use style="fill:#ff0000;stroke:#ff0000;stroke-linejoin:miter;" x="413.325415" xlink:href="#mf9be73805c" y="457.41913"/>
     <use style="fill:#ff0000;stroke:#ff0000;stroke-linejoin:miter;" x="423.43141" xlink:href="#mf9be73805c" y="436.132174"/>
     <use style="fill:#ff0000;stroke:#ff0000;stroke-linejoin:miter;" x="433.439688" xlink:href="#mf9be73805c" y="401.071304"/>
     <use style="fill:#ff0000;stroke:#ff0000;stroke-linejoin:miter;" x="443.433231" xlink:href="#mf9be73805c" y="449.906087"/>
     <use style="fill:#ff0000;stroke:#ff0000;stroke-linejoin:miter;" x="453.448488" xlink:href="#mf9be73805c" y="433.627826"/>
     <use style="fill:#ff0000;stroke:#ff0000;stroke-linejoin:miter;" x="464.125278" xlink:href="#mf9be73805c" y="397.314783"/>
     <use style="fill:#ff0000;stroke:#ff0000;stroke-linejoin:miter;" x="474.360787" xlink:href="#mf9be73805c" y="288.375652"/>
     <use style="fill:#ff0000;stroke:#ff0000;stroke-linejoin:miter;" x="484.808793" xlink:href="#mf9be73805c" y="393.558261"/>
     <use style="fill:#ff0000;stroke:#ff0000;stroke-linejoin:miter;" x="496.91024" xlink:href="#mf9be73805c" y="472.445217"/>
     <use style="fill:#ff0000;stroke:#ff0000;stroke-linejoin:miter;" x="506.989867" xlink:href="#mf9be73805c" y="438.636522"/>
     <use style="fill:#ff0000;stroke:#ff0000;stroke-linejoin:miter;" x="517.042351" xlink:href="#mf9be73805c" y="469.94087"/>
     <use style="fill:#ff0000;stroke:#ff0000;stroke-linejoin:miter;" x="527.212715" xlink:href="#mf9be73805c" y="427.366957"/>
     <use style="fill:#ff0000;stroke:#ff0000;stroke-linejoin:miter;" x="537.584719" xlink:href="#mf9be73805c" y="452.410435"/>
     <use style="fill:#ff0000;stroke:#ff0000;stroke-linejoin:miter;" x="547.707776" xlink:href="#mf9be73805c" y="443.645217"/>
     <use style="fill:#ff0000;stroke:#ff0000;stroke-linejoin:miter;" x="557.868835" xlink:href="#mf9be73805c" y="486.21913"/>
     <use style="fill:#ff0000;stroke:#ff0000;stroke-linejoin:miter;" x="567.946911" xlink:href="#mf9be73805c" y="391.053913"/>
     <use style="fill:#ff0000;stroke:#ff0000;stroke-linejoin:miter;" x="578.028864" xlink:href="#mf9be73805c" y="469.94087"/>
     <use style="fill:#ff0000;stroke:#ff0000;stroke-linejoin:miter;" x="588.057306" xlink:href="#mf9be73805c" y="398.566957"/>
     <use style="fill:#ff0000;stroke:#ff0000;stroke-linejoin:miter;" x="598.166404" xlink:href="#mf9be73805c" y="398.566957"/>
     <use style="fill:#ff0000;stroke:#ff0000;stroke-linejoin:miter;" x="608.055249" xlink:href="#mf9be73805c" y="451.158261"/>
     <use style="fill:#ff0000;stroke:#ff0000;stroke-linejoin:miter;" x="618.068956" xlink:href="#mf9be73805c" y="484.966957"/>
     <use style="fill:#ff0000;stroke:#ff0000;stroke-linejoin:miter;" x="628.235443" xlink:href="#mf9be73805c" y="444.897391"/>
     <use style="fill:#ff0000;stroke:#ff0000;stroke-linejoin:miter;" x="639.535762" xlink:href="#mf9be73805c" y="373.523478"/>
     <use style="fill:#ff0000;stroke:#ff0000;stroke-linejoin:miter;" x="649.539387" xlink:href="#mf9be73805c" y="350.984348"/>
     <use style="fill:#ff0000;stroke:#ff0000;stroke-linejoin:miter;" x="659.3817" xlink:href="#mf9be73805c" y="412.34087"/>
     <use style="fill:#ff0000;stroke:#ff0000;stroke-linejoin:miter;" x="669.297689" xlink:href="#mf9be73805c" y="429.871304"/>
     <use style="fill:#ff0000;stroke:#ff0000;stroke-linejoin:miter;" x="679.523893" xlink:href="#mf9be73805c" y="433.627826"/>
     <use style="fill:#ff0000;stroke:#ff0000;stroke-linejoin:miter;" x="689.677971" xlink:href="#mf9be73805c" y="454.914783"/>
     <use style="fill:#ff0000;stroke:#ff0000;stroke-linejoin:miter;" x="699.987157" xlink:href="#mf9be73805c" y="366.010435"/>
     <use style="fill:#ff0000;stroke:#ff0000;stroke-linejoin:miter;" x="710.135806" xlink:href="#mf9be73805c" y="382.288696"/>
     <use style="fill:#ff0000;stroke:#ff0000;stroke-linejoin:miter;" x="720.234046" xlink:href="#mf9be73805c" y="329.697391"/>
     <use style="fill:#ff0000;stroke:#ff0000;stroke-linejoin:miter;" x="731.075249" xlink:href="#mf9be73805c" y="384.793043"/>
     <use style="fill:#ff0000;stroke:#ff0000;stroke-linejoin:miter;" x="743.154205" xlink:href="#mf9be73805c" y="89.28"/>
     <use style="fill:#ff0000;stroke:#ff0000;stroke-linejoin:miter;" x="753.478126" xlink:href="#mf9be73805c" y="391.053913"/>
     <use style="fill:#ff0000;stroke:#ff0000;stroke-linejoin:miter;" x="763.557753" xlink:href="#mf9be73805c" y="381.036522"/>
     <use style="fill:#ff0000;stroke:#ff0000;stroke-linejoin:miter;" x="774.125191" xlink:href="#mf9be73805c" y="366.010435"/>
     <use style="fill:#ff0000;stroke:#ff0000;stroke-linejoin:miter;" x="784.340537" xlink:href="#mf9be73805c" y="438.636522"/>
     <use style="fill:#ff0000;stroke:#ff0000;stroke-linejoin:miter;" x="794.394572" xlink:href="#mf9be73805c" y="210.74087"/>
     <use style="fill:#ff0000;stroke:#ff0000;stroke-linejoin:miter;" x="804.303581" xlink:href="#mf9be73805c" y="456.166957"/>
     <use style="fill:#ff0000;stroke:#ff0000;stroke-linejoin:miter;" x="814.345207" xlink:href="#mf9be73805c" y="437.384348"/>
     <use style="fill:#ff0000;stroke:#ff0000;stroke-linejoin:miter;" x="824.416303" xlink:href="#mf9be73805c" y="443.645217"/>
     <use style="fill:#ff0000;stroke:#ff0000;stroke-linejoin:miter;" x="834.623118" xlink:href="#mf9be73805c" y="418.601739"/>
     <use style="fill:#ff0000;stroke:#ff0000;stroke-linejoin:miter;" x="844.802014" xlink:href="#mf9be73805c" y="244.549565"/>
     <use style="fill:#ff0000;stroke:#ff0000;stroke-linejoin:miter;" x="854.635796" xlink:href="#mf9be73805c" y="362.253913"/>
     <use style="fill:#ff0000;stroke:#ff0000;stroke-linejoin:miter;" x="864.66734" xlink:href="#mf9be73805c" y="492.48"/>
     <use style="fill:#ff0000;stroke:#ff0000;stroke-linejoin:miter;" x="874.705089" xlink:href="#mf9be73805c" y="409.836522"/>
     <use style="fill:#ff0000;stroke:#ff0000;stroke-linejoin:miter;" x="884.73353" xlink:href="#mf9be73805c" y="448.653913"/>
     <use style="fill:#ff0000;stroke:#ff0000;stroke-linejoin:miter;" x="894.927161" xlink:href="#mf9be73805c" y="387.297391"/>
     <use style="fill:#ff0000;stroke:#ff0000;stroke-linejoin:miter;" x="905.075035" xlink:href="#mf9be73805c" y="436.132174"/>
     <use style="fill:#ff0000;stroke:#ff0000;stroke-linejoin:miter;" x="915.096497" xlink:href="#mf9be73805c" y="339.714783"/>
     <use style="fill:#ff0000;stroke:#ff0000;stroke-linejoin:miter;" x="925.112531" xlink:href="#mf9be73805c" y="414.845217"/>
     <use style="fill:#ff0000;stroke:#ff0000;stroke-linejoin:miter;" x="935.139421" xlink:href="#mf9be73805c" y="218.253913"/>
     <use style="fill:#ff0000;stroke:#ff0000;stroke-linejoin:miter;" x="945.171741" xlink:href="#mf9be73805c" y="451.158261"/>
     <use style="fill:#ff0000;stroke:#ff0000;stroke-linejoin:miter;" x="955.451456" xlink:href="#mf9be73805c" y="379.784348"/>
     <use style="fill:#ff0000;stroke:#ff0000;stroke-linejoin:miter;" x="966.27327" xlink:href="#mf9be73805c" y="237.036522"/>
     <use style="fill:#ff0000;stroke:#ff0000;stroke-linejoin:miter;" x="976.272242" xlink:href="#mf9be73805c" y="108.062609"/>
     <use style="fill:#ff0000;stroke:#ff0000;stroke-linejoin:miter;" x="989.467193" xlink:href="#mf9be73805c" y="388.549565"/>
     <use style="fill:#ff0000;stroke:#ff0000;stroke-linejoin:miter;" x="999.657721" xlink:href="#mf9be73805c" y="353.488696"/>
     <use style="fill:#ff0000;stroke:#ff0000;stroke-linejoin:miter;" x="1009.725715" xlink:href="#mf9be73805c" y="377.28"/>
     <use style="fill:#ff0000;stroke:#ff0000;stroke-linejoin:miter;" x="1019.896856" xlink:href="#mf9be73805c" y="343.471304"/>
     <use style="fill:#ff0000;stroke:#ff0000;stroke-linejoin:miter;" x="1029.975707" xlink:href="#mf9be73805c" y="452.410435"/>
     <use style="fill:#ff0000;stroke:#ff0000;stroke-linejoin:miter;" x="1040.17942" xlink:href="#mf9be73805c" y="338.462609"/>
     <use style="fill:#ff0000;stroke:#ff0000;stroke-linejoin:miter;" x="1050.187698" xlink:href="#mf9be73805c" y="363.506087"/>
     <use style="fill:#ff0000;stroke:#ff0000;stroke-linejoin:miter;" x="1060.323163" xlink:href="#mf9be73805c" y="249.558261"/>
     <use style="fill:#ff0000;stroke:#ff0000;stroke-linejoin:miter;" x="1070.320584" xlink:href="#mf9be73805c" y="414.845217"/>
     <use style="fill:#ff0000;stroke:#ff0000;stroke-linejoin:miter;" x="1080.397109" xlink:href="#mf9be73805c" y="387.297391"/>
     <use style="fill:#ff0000;stroke:#ff0000;stroke-linejoin:miter;" x="1091.199535" xlink:href="#mf9be73805c" y="438.636522"/>
     <use style="fill:#ff0000;stroke:#ff0000;stroke-linejoin:miter;" x="1101.48623" xlink:href="#mf9be73805c" y="429.871304"/>
     <use style="fill:#ff0000;stroke:#ff0000;stroke-linejoin:miter;" x="1111.565081" xlink:href="#mf9be73805c" y="452.410435"/>
     <use style="fill:#ff0000;stroke:#ff0000;stroke-linejoin:miter;" x="1121.830837" xlink:href="#mf9be73805c" y="335.958261"/>
     <use style="fill:#ff0000;stroke:#ff0000;stroke-linejoin:miter;" x="1131.935281" xlink:href="#mf9be73805c" y="424.862609"/>
     <use style="fill:#ff0000;stroke:#ff0000;stroke-linejoin:miter;" x="1142.129687" xlink:href="#mf9be73805c" y="372.271304"/>
     <use style="fill:#ff0000;stroke:#ff0000;stroke-linejoin:miter;" x="1152.194579" xlink:href="#mf9be73805c" y="416.097391"/>
     <use style="fill:#ff0000;stroke:#ff0000;stroke-linejoin:miter;" x="1162.299799" xlink:href="#mf9be73805c" y="389.801739"/>
     <use style="fill:#ff0000;stroke:#ff0000;stroke-linejoin:miter;" x="1172.508165" xlink:href="#mf9be73805c" y="432.375652"/>
     <use style="fill:#ff0000;stroke:#ff0000;stroke-linejoin:miter;" x="1182.590119" xlink:href="#mf9be73805c" y="449.906087"/>
     <use style="fill:#ff0000;stroke:#ff0000;stroke-linejoin:miter;" x="1193.124209" xlink:href="#mf9be73805c" y="345.975652"/>
     <use style="fill:#ff0000;stroke:#ff0000;stroke-linejoin:miter;" x="1203.213143" xlink:href="#mf9be73805c" y="438.636522"/>
     <use style="fill:#ff0000;stroke:#ff0000;stroke-linejoin:miter;" x="1213.245462" xlink:href="#mf9be73805c" y="393.558261"/>
     <use style="fill:#ff0000;stroke:#ff0000;stroke-linejoin:miter;" x="1224.736563" xlink:href="#mf9be73805c" y="448.653913"/>
     <use style="fill:#ff0000;stroke:#ff0000;stroke-linejoin:miter;" x="1235.168283" xlink:href="#mf9be73805c" y="344.723478"/>
     <use style="fill:#ff0000;stroke:#ff0000;stroke-linejoin:miter;" x="1245.272727" xlink:href="#mf9be73805c" y="403.575652"/>
    </g>
   </g>
   <g id="line2d_17">
    <path clip-path="url(#p6ad7012610)" d="M 230.727273 367.262609 
L 241.080664 257.071304 
L 251.253355 369.766957 
L 261.315145 406.08 
L 271.344362 444.897391 
L 281.355742 417.349565 
L 292.467606 409.836522 
L 302.543356 428.61913 
L 312.559389 461.175652 
L 322.562238 417.349565 
L 332.543373 451.158261 
L 342.575692 426.114783 
L 352.881775 412.34087 
L 362.883074 325.94087 
L 372.949517 367.262609 
L 382.98804 333.453913 
L 393.332125 352.236522 
L 403.313259 436.132174 
L 413.325415 457.41913 
L 423.43141 436.132174 
L 433.439688 401.071304 
L 443.433231 449.906087 
L 453.448488 433.627826 
L 464.125278 397.314783 
L 474.360787 288.375652 
L 484.808793 393.558261 
L 496.91024 472.445217 
L 506.989867 438.636522 
L 517.042351 469.94087 
L 527.212715 427.366957 
L 537.584719 452.410435 
L 547.707776 443.645217 
L 557.868835 486.21913 
L 567.946911 391.053913 
L 578.028864 469.94087 
L 588.057306 398.566957 
L 598.166404 398.566957 
L 608.055249 451.158261 
L 618.068956 484.966957 
L 628.235443 444.897391 
L 639.535762 373.523478 
L 649.539387 350.984348 
L 659.3817 412.34087 
L 669.297689 429.871304 
L 679.523893 433.627826 
L 689.677971 454.914783 
L 699.987157 366.010435 
L 710.135806 382.288696 
L 720.234046 329.697391 
L 731.075249 384.793043 
L 743.154205 89.28 
L 753.478126 391.053913 
L 763.557753 381.036522 
L 774.125191 366.010435 
L 784.340537 438.636522 
L 794.394572 210.74087 
L 804.303581 456.166957 
L 814.345207 437.384348 
L 824.416303 443.645217 
L 834.623118 418.601739 
L 844.802014 244.549565 
L 854.635796 362.253913 
L 864.66734 492.48 
L 874.705089 409.836522 
L 884.73353 448.653913 
L 894.927161 387.297391 
L 905.075035 436.132174 
L 915.096497 339.714783 
L 925.112531 414.845217 
L 935.139421 218.253913 
L 945.171741 451.158261 
L 955.451456 379.784348 
L 966.27327 237.036522 
L 976.272242 108.062609 
L 989.467193 388.549565 
L 999.657721 353.488696 
L 1009.725715 377.28 
L 1019.896856 343.471304 
L 1029.975707 452.410435 
L 1040.17942 338.462609 
L 1050.187698 363.506087 
L 1060.323163 249.558261 
L 1070.320584 414.845217 
L 1080.397109 387.297391 
L 1091.199535 438.636522 
L 1101.48623 429.871304 
L 1111.565081 452.410435 
L 1121.830837 335.958261 
L 1131.935281 424.862609 
L 1142.129687 372.271304 
L 1152.194579 416.097391 
L 1162.299799 389.801739 
L 1172.508165 432.375652 
L 1182.590119 449.906087 
L 1193.124209 345.975652 
L 1203.213143 438.636522 
L 1213.245462 393.558261 
L 1224.736563 448.653913 
L 1235.168283 344.723478 
L 1245.272727 403.575652 
" style="fill:none;stroke:#800080;stroke-dasharray:9.6,2.4,1.5,2.4;stroke-dashoffset:0;stroke-width:1.5;"/>
    <defs>
     <path d="M -3 3 
L 3 -3 
M -3 -3 
L 3 3 
" id="m363df6fbaf" style="stroke:#800080;"/>
    </defs>
    <g clip-path="url(#p6ad7012610)">
     <use style="fill:#800080;stroke:#800080;" x="230.727273" xlink:href="#m363df6fbaf" y="367.262609"/>
     <use style="fill:#800080;stroke:#800080;" x="241.080664" xlink:href="#m363df6fbaf" y="257.071304"/>
     <use style="fill:#800080;stroke:#800080;" x="251.253355" xlink:href="#m363df6fbaf" y="369.766957"/>
     <use style="fill:#800080;stroke:#800080;" x="261.315145" xlink:href="#m363df6fbaf" y="406.08"/>
     <use style="fill:#800080;stroke:#800080;" x="271.344362" xlink:href="#m363df6fbaf" y="444.897391"/>
     <use style="fill:#800080;stroke:#800080;" x="281.355742" xlink:href="#m363df6fbaf" y="417.349565"/>
     <use style="fill:#800080;stroke:#800080;" x="292.467606" xlink:href="#m363df6fbaf" y="409.836522"/>
     <use style="fill:#800080;stroke:#800080;" x="302.543356" xlink:href="#m363df6fbaf" y="428.61913"/>
     <use style="fill:#800080;stroke:#800080;" x="312.559389" xlink:href="#m363df6fbaf" y="461.175652"/>
     <use style="fill:#800080;stroke:#800080;" x="322.562238" xlink:href="#m363df6fbaf" y="417.349565"/>
     <use style="fill:#800080;stroke:#800080;" x="332.543373" xlink:href="#m363df6fbaf" y="451.158261"/>
     <use style="fill:#800080;stroke:#800080;" x="342.575692" xlink:href="#m363df6fbaf" y="426.114783"/>
     <use style="fill:#800080;stroke:#800080;" x="352.881775" xlink:href="#m363df6fbaf" y="412.34087"/>
     <use style="fill:#800080;stroke:#800080;" x="362.883074" xlink:href="#m363df6fbaf" y="325.94087"/>
     <use style="fill:#800080;stroke:#800080;" x="372.949517" xlink:href="#m363df6fbaf" y="367.262609"/>
     <use style="fill:#800080;stroke:#800080;" x="382.98804" xlink:href="#m363df6fbaf" y="333.453913"/>
     <use style="fill:#800080;stroke:#800080;" x="393.332125" xlink:href="#m363df6fbaf" y="352.236522"/>
     <use style="fill:#800080;stroke:#800080;" x="403.313259" xlink:href="#m363df6fbaf" y="436.132174"/>
     <use style="fill:#800080;stroke:#800080;" x="413.325415" xlink:href="#m363df6fbaf" y="457.41913"/>
     <use style="fill:#800080;stroke:#800080;" x="423.43141" xlink:href="#m363df6fbaf" y="436.132174"/>
     <use style="fill:#800080;stroke:#800080;" x="433.439688" xlink:href="#m363df6fbaf" y="401.071304"/>
     <use style="fill:#800080;stroke:#800080;" x="443.433231" xlink:href="#m363df6fbaf" y="449.906087"/>
     <use style="fill:#800080;stroke:#800080;" x="453.448488" xlink:href="#m363df6fbaf" y="433.627826"/>
     <use style="fill:#800080;stroke:#800080;" x="464.125278" xlink:href="#m363df6fbaf" y="397.314783"/>
     <use style="fill:#800080;stroke:#800080;" x="474.360787" xlink:href="#m363df6fbaf" y="288.375652"/>
     <use style="fill:#800080;stroke:#800080;" x="484.808793" xlink:href="#m363df6fbaf" y="393.558261"/>
     <use style="fill:#800080;stroke:#800080;" x="496.91024" xlink:href="#m363df6fbaf" y="472.445217"/>
     <use style="fill:#800080;stroke:#800080;" x="506.989867" xlink:href="#m363df6fbaf" y="438.636522"/>
     <use style="fill:#800080;stroke:#800080;" x="517.042351" xlink:href="#m363df6fbaf" y="469.94087"/>
     <use style="fill:#800080;stroke:#800080;" x="527.212715" xlink:href="#m363df6fbaf" y="427.366957"/>
     <use style="fill:#800080;stroke:#800080;" x="537.584719" xlink:href="#m363df6fbaf" y="452.410435"/>
     <use style="fill:#800080;stroke:#800080;" x="547.707776" xlink:href="#m363df6fbaf" y="443.645217"/>
     <use style="fill:#800080;stroke:#800080;" x="557.868835" xlink:href="#m363df6fbaf" y="486.21913"/>
     <use style="fill:#800080;stroke:#800080;" x="567.946911" xlink:href="#m363df6fbaf" y="391.053913"/>
     <use style="fill:#800080;stroke:#800080;" x="578.028864" xlink:href="#m363df6fbaf" y="469.94087"/>
     <use style="fill:#800080;stroke:#800080;" x="588.057306" xlink:href="#m363df6fbaf" y="398.566957"/>
     <use style="fill:#800080;stroke:#800080;" x="598.166404" xlink:href="#m363df6fbaf" y="398.566957"/>
     <use style="fill:#800080;stroke:#800080;" x="608.055249" xlink:href="#m363df6fbaf" y="451.158261"/>
     <use style="fill:#800080;stroke:#800080;" x="618.068956" xlink:href="#m363df6fbaf" y="484.966957"/>
     <use style="fill:#800080;stroke:#800080;" x="628.235443" xlink:href="#m363df6fbaf" y="444.897391"/>
     <use style="fill:#800080;stroke:#800080;" x="639.535762" xlink:href="#m363df6fbaf" y="373.523478"/>
     <use style="fill:#800080;stroke:#800080;" x="649.539387" xlink:href="#m363df6fbaf" y="350.984348"/>
     <use style="fill:#800080;stroke:#800080;" x="659.3817" xlink:href="#m363df6fbaf" y="412.34087"/>
     <use style="fill:#800080;stroke:#800080;" x="669.297689" xlink:href="#m363df6fbaf" y="429.871304"/>
     <use style="fill:#800080;stroke:#800080;" x="679.523893" xlink:href="#m363df6fbaf" y="433.627826"/>
     <use style="fill:#800080;stroke:#800080;" x="689.677971" xlink:href="#m363df6fbaf" y="454.914783"/>
     <use style="fill:#800080;stroke:#800080;" x="699.987157" xlink:href="#m363df6fbaf" y="366.010435"/>
     <use style="fill:#800080;stroke:#800080;" x="710.135806" xlink:href="#m363df6fbaf" y="382.288696"/>
     <use style="fill:#800080;stroke:#800080;" x="720.234046" xlink:href="#m363df6fbaf" y="329.697391"/>
     <use style="fill:#800080;stroke:#800080;" x="731.075249" xlink:href="#m363df6fbaf" y="384.793043"/>
     <use style="fill:#800080;stroke:#800080;" x="743.154205" xlink:href="#m363df6fbaf" y="89.28"/>
     <use style="fill:#800080;stroke:#800080;" x="753.478126" xlink:href="#m363df6fbaf" y="391.053913"/>
     <use style="fill:#800080;stroke:#800080;" x="763.557753" xlink:href="#m363df6fbaf" y="381.036522"/>
     <use style="fill:#800080;stroke:#800080;" x="774.125191" xlink:href="#m363df6fbaf" y="366.010435"/>
     <use style="fill:#800080;stroke:#800080;" x="784.340537" xlink:href="#m363df6fbaf" y="438.636522"/>
     <use style="fill:#800080;stroke:#800080;" x="794.394572" xlink:href="#m363df6fbaf" y="210.74087"/>
     <use style="fill:#800080;stroke:#800080;" x="804.303581" xlink:href="#m363df6fbaf" y="456.166957"/>
     <use style="fill:#800080;stroke:#800080;" x="814.345207" xlink:href="#m363df6fbaf" y="437.384348"/>
     <use style="fill:#800080;stroke:#800080;" x="824.416303" xlink:href="#m363df6fbaf" y="443.645217"/>
     <use style="fill:#800080;stroke:#800080;" x="834.623118" xlink:href="#m363df6fbaf" y="418.601739"/>
     <use style="fill:#800080;stroke:#800080;" x="844.802014" xlink:href="#m363df6fbaf" y="244.549565"/>
     <use style="fill:#800080;stroke:#800080;" x="854.635796" xlink:href="#m363df6fbaf" y="362.253913"/>
     <use style="fill:#800080;stroke:#800080;" x="864.66734" xlink:href="#m363df6fbaf" y="492.48"/>
     <use style="fill:#800080;stroke:#800080;" x="874.705089" xlink:href="#m363df6fbaf" y="409.836522"/>
     <use style="fill:#800080;stroke:#800080;" x="884.73353" xlink:href="#m363df6fbaf" y="448.653913"/>
     <use style="fill:#800080;stroke:#800080;" x="894.927161" xlink:href="#m363df6fbaf" y="387.297391"/>
     <use style="fill:#800080;stroke:#800080;" x="905.075035" xlink:href="#m363df6fbaf" y="436.132174"/>
     <use style="fill:#800080;stroke:#800080;" x="915.096497" xlink:href="#m363df6fbaf" y="339.714783"/>
     <use style="fill:#800080;stroke:#800080;" x="925.112531" xlink:href="#m363df6fbaf" y="414.845217"/>
     <use style="fill:#800080;stroke:#800080;" x="935.139421" xlink:href="#m363df6fbaf" y="218.253913"/>
     <use style="fill:#800080;stroke:#800080;" x="945.171741" xlink:href="#m363df6fbaf" y="451.158261"/>
     <use style="fill:#800080;stroke:#800080;" x="955.451456" xlink:href="#m363df6fbaf" y="379.784348"/>
     <use style="fill:#800080;stroke:#800080;" x="966.27327" xlink:href="#m363df6fbaf" y="237.036522"/>
     <use style="fill:#800080;stroke:#800080;" x="976.272242" xlink:href="#m363df6fbaf" y="108.062609"/>
     <use style="fill:#800080;stroke:#800080;" x="989.467193" xlink:href="#m363df6fbaf" y="388.549565"/>
     <use style="fill:#800080;stroke:#800080;" x="999.657721" xlink:href="#m363df6fbaf" y="353.488696"/>
     <use style="fill:#800080;stroke:#800080;" x="1009.725715" xlink:href="#m363df6fbaf" y="377.28"/>
     <use style="fill:#800080;stroke:#800080;" x="1019.896856" xlink:href="#m363df6fbaf" y="343.471304"/>
     <use style="fill:#800080;stroke:#800080;" x="1029.975707" xlink:href="#m363df6fbaf" y="452.410435"/>
     <use style="fill:#800080;stroke:#800080;" x="1040.17942" xlink:href="#m363df6fbaf" y="338.462609"/>
     <use style="fill:#800080;stroke:#800080;" x="1050.187698" xlink:href="#m363df6fbaf" y="363.506087"/>
     <use style="fill:#800080;stroke:#800080;" x="1060.323163" xlink:href="#m363df6fbaf" y="249.558261"/>
     <use style="fill:#800080;stroke:#800080;" x="1070.320584" xlink:href="#m363df6fbaf" y="414.845217"/>
     <use style="fill:#800080;stroke:#800080;" x="1080.397109" xlink:href="#m363df6fbaf" y="387.297391"/>
     <use style="fill:#800080;stroke:#800080;" x="1091.199535" xlink:href="#m363df6fbaf" y="438.636522"/>
     <use style="fill:#800080;stroke:#800080;" x="1101.48623" xlink:href="#m363df6fbaf" y="429.871304"/>
     <use style="fill:#800080;stroke:#800080;" x="1111.565081" xlink:href="#m363df6fbaf" y="452.410435"/>
     <use style="fill:#800080;stroke:#800080;" x="1121.830837" xlink:href="#m363df6fbaf" y="335.958261"/>
     <use style="fill:#800080;stroke:#800080;" x="1131.935281" xlink:href="#m363df6fbaf" y="424.862609"/>
     <use style="fill:#800080;stroke:#800080;" x="1142.129687" xlink:href="#m363df6fbaf" y="372.271304"/>
     <use style="fill:#800080;stroke:#800080;" x="1152.194579" xlink:href="#m363df6fbaf" y="416.097391"/>
     <use style="fill:#800080;stroke:#800080;" x="1162.299799" xlink:href="#m363df6fbaf" y="389.801739"/>
     <use style="fill:#800080;stroke:#800080;" x="1172.508165" xlink:href="#m363df6fbaf" y="432.375652"/>
     <use style="fill:#800080;stroke:#800080;" x="1182.590119" xlink:href="#m363df6fbaf" y="449.906087"/>
     <use style="fill:#800080;stroke:#800080;" x="1193.124209" xlink:href="#m363df6fbaf" y="345.975652"/>
     <use style="fill:#800080;stroke:#800080;" x="1203.213143" xlink:href="#m363df6fbaf" y="438.636522"/>
     <use style="fill:#800080;stroke:#800080;" x="1213.245462" xlink:href="#m363df6fbaf" y="393.558261"/>
     <use style="fill:#800080;stroke:#800080;" x="1224.736563" xlink:href="#m363df6fbaf" y="448.653913"/>
     <use style="fill:#800080;stroke:#800080;" x="1235.168283" xlink:href="#m363df6fbaf" y="344.723478"/>
     <use style="fill:#800080;stroke:#800080;" x="1245.272727" xlink:href="#m363df6fbaf" y="403.575652"/>
    </g>
   </g>
   <g id="line2d_18">
    <path clip-path="url(#p6ad7012610)" d="M 230.727273 408.439739 
L 241.080664 408.111304 
L 251.253355 407.788602 
L 261.315145 407.469418 
L 271.344362 407.151267 
L 281.355742 406.833682 
L 292.467606 406.481187 
L 302.543356 406.16156 
L 312.559389 405.843827 
L 322.562238 405.526513 
L 332.543373 405.209887 
L 342.575692 404.891638 
L 352.881775 404.564704 
L 362.883074 404.247439 
L 372.949517 403.928107 
L 382.98804 403.609661 
L 393.332125 403.281522 
L 403.313259 402.964896 
L 413.325415 402.647287 
L 423.43141 402.3267 
L 433.439688 402.009214 
L 443.433231 401.692194 
L 453.448488 401.374486 
L 464.125278 401.035793 
L 474.360787 400.711098 
L 484.808793 400.379662 
L 496.91024 399.995775 
L 506.989867 399.676025 
L 517.042351 399.357136 
L 527.212715 399.034508 
L 537.584719 398.705483 
L 547.707776 398.384355 
L 557.868835 398.062022 
L 567.946911 397.742321 
L 578.028864 397.422497 
L 588.057306 397.104371 
L 598.166404 396.783686 
L 608.055249 396.469988 
L 618.068956 396.152329 
L 628.235443 395.829824 
L 639.535762 395.471351 
L 649.539387 395.154012 
L 659.3817 394.84179 
L 669.297689 394.527231 
L 679.523893 394.202831 
L 689.677971 393.880719 
L 699.987157 393.553687 
L 710.135806 393.231747 
L 720.234046 392.911407 
L 731.075249 392.567498 
L 743.154205 392.184325 
L 753.478126 391.856825 
L 763.557753 391.537075 
L 774.125191 391.20185 
L 784.340537 390.877795 
L 794.394572 390.558857 
L 804.303581 390.244519 
L 814.345207 389.925975 
L 824.416303 389.606495 
L 834.623118 389.282711 
L 844.802014 388.959812 
L 854.635796 388.64786 
L 864.66734 388.329636 
L 874.705089 388.011214 
L 884.73353 387.693088 
L 894.927161 387.369721 
L 905.075035 387.047807 
L 915.096497 386.729902 
L 925.112531 386.412169 
L 935.139421 386.094092 
L 945.171741 385.775843 
L 955.451456 385.449745 
L 966.27327 385.106451 
L 976.272242 384.78926 
L 989.467193 384.370684 
L 999.657721 384.047416 
L 1009.725715 383.728035 
L 1019.896856 383.405382 
L 1029.975707 383.085657 
L 1040.17942 382.761971 
L 1050.187698 382.444484 
L 1060.323163 382.122963 
L 1070.320584 381.80582 
L 1080.397109 381.486169 
L 1091.199535 381.14349 
L 1101.48623 380.817171 
L 1111.565081 380.497446 
L 1121.830837 380.171791 
L 1131.935281 379.851254 
L 1142.129687 379.527863 
L 1152.194579 379.208581 
L 1162.299799 378.888019 
L 1172.508165 378.564185 
L 1182.590119 378.244361 
L 1193.124209 377.910194 
L 1203.213143 377.590149 
L 1213.245462 377.2719 
L 1224.736563 376.907374 
L 1235.168283 376.576455 
L 1245.272727 376.255918 
" style="fill:none;stroke:#0000ff;stroke-linecap:square;stroke-width:1.5;"/>
   </g>
   <g id="line2d_19">
    <path clip-path="url(#p6ad7012610)" d="M 230.727273 407.866926 
L 241.080664 407.546287 
L 251.253355 407.231244 
L 261.315145 406.919636 
L 271.344362 406.609037 
L 281.355742 406.29899 
L 292.467606 405.954861 
L 302.543356 405.642821 
L 312.559389 405.332629 
L 322.562238 405.022847 
L 332.543373 404.713736 
L 342.575692 404.403041 
L 352.881775 404.083867 
L 362.883074 403.774132 
L 372.949517 403.46238 
L 382.98804 403.151492 
L 393.332125 402.831141 
L 403.313259 402.522031 
L 413.325415 402.21196 
L 423.43141 401.898983 
L 433.439688 401.589032 
L 443.433231 401.279537 
L 453.448488 400.96937 
L 464.125278 400.638715 
L 474.360787 400.321727 
L 484.808793 399.998158 
L 496.91024 399.623383 
L 506.989867 399.311222 
L 517.042351 398.999902 
L 527.212715 398.684931 
L 537.584719 398.363716 
L 547.707776 398.05021 
L 557.868835 397.735528 
L 567.946911 397.423415 
L 578.028864 397.111183 
L 588.057306 396.800607 
L 598.166404 396.487534 
L 608.055249 396.181282 
L 618.068956 395.871163 
L 628.235443 395.556312 
L 639.535762 395.206347 
L 649.539387 394.89654 
L 659.3817 394.591729 
L 669.297689 394.284636 
L 679.523893 393.967936 
L 689.677971 393.65347 
L 699.987157 393.3342 
L 710.135806 393.019902 
L 720.234046 392.707165 
L 731.075249 392.371419 
L 743.154205 391.99734 
L 753.478126 391.677613 
L 763.557753 391.365453 
L 774.125191 391.038185 
L 784.340537 390.721821 
L 794.394572 390.410453 
L 804.303581 390.103576 
L 814.345207 389.792593 
L 824.416303 389.480696 
L 834.623118 389.164597 
L 844.802014 388.849362 
L 854.635796 388.544815 
L 864.66734 388.234143 
L 874.705089 387.92328 
L 884.73353 387.612704 
L 894.927161 387.297013 
L 905.075035 386.982739 
L 915.096497 386.672379 
L 925.112531 386.362188 
L 935.139421 386.051661 
L 945.171741 385.740965 
L 955.451456 385.422608 
L 966.27327 385.087462 
L 976.272242 384.7778 
L 989.467193 384.369159 
L 999.657721 384.053564 
L 1009.725715 383.741764 
L 1019.896856 383.426769 
L 1029.975707 383.114632 
L 1040.17942 382.798629 
L 1050.187698 382.488678 
L 1060.323163 382.174788 
L 1070.320584 381.865173 
L 1080.397109 381.553108 
L 1091.199535 381.218563 
L 1101.48623 380.89999 
L 1111.565081 380.587853 
L 1121.830837 380.269928 
L 1131.935281 379.956999 
L 1142.129687 379.641284 
L 1152.194579 379.329579 
L 1162.299799 379.016626 
L 1172.508165 378.700479 
L 1182.590119 378.388246 
L 1193.124209 378.062011 
L 1203.213143 377.749562 
L 1213.245462 377.438866 
L 1224.736563 377.082993 
L 1235.168283 376.759929 
L 1245.272727 376.446999 
" style="fill:none;stroke:#008000;stroke-linecap:square;stroke-width:1.5;"/>
    <defs>
     <path d="M 0 3 
C 0.795609 3 1.55874 2.683901 2.12132 2.12132 
C 2.683901 1.55874 3 0.795609 3 0 
C 3 -0.795609 2.683901 -1.55874 2.12132 -2.12132 
C 1.55874 -2.683901 0.795609 -3 0 -3 
C -0.795609 -3 -1.55874 -2.683901 -2.12132 -2.12132 
C -2.683901 -1.55874 -3 -0.795609 -3 0 
C -3 0.795609 -2.683901 1.55874 -2.12132 2.12132 
C -1.55874 2.683901 -0.795609 3 0 3 
z
" id="m496ed56730" style="stroke:#008000;"/>
    </defs>
    <g clip-path="url(#p6ad7012610)">
     <use style="fill:#008000;stroke:#008000;" x="230.727273" xlink:href="#m496ed56730" y="407.866926"/>
     <use style="fill:#008000;stroke:#008000;" x="241.080664" xlink:href="#m496ed56730" y="407.546287"/>
     <use style="fill:#008000;stroke:#008000;" x="251.253355" xlink:href="#m496ed56730" y="407.231244"/>
     <use style="fill:#008000;stroke:#008000;" x="261.315145" xlink:href="#m496ed56730" y="406.919636"/>
     <use style="fill:#008000;stroke:#008000;" x="271.344362" xlink:href="#m496ed56730" y="406.609037"/>
     <use style="fill:#008000;stroke:#008000;" x="281.355742" xlink:href="#m496ed56730" y="406.29899"/>
     <use style="fill:#008000;stroke:#008000;" x="292.467606" xlink:href="#m496ed56730" y="405.954861"/>
     <use style="fill:#008000;stroke:#008000;" x="302.543356" xlink:href="#m496ed56730" y="405.642821"/>
     <use style="fill:#008000;stroke:#008000;" x="312.559389" xlink:href="#m496ed56730" y="405.332629"/>
     <use style="fill:#008000;stroke:#008000;" x="322.562238" xlink:href="#m496ed56730" y="405.022847"/>
     <use style="fill:#008000;stroke:#008000;" x="332.543373" xlink:href="#m496ed56730" y="404.713736"/>
     <use style="fill:#008000;stroke:#008000;" x="342.575692" xlink:href="#m496ed56730" y="404.403041"/>
     <use style="fill:#008000;stroke:#008000;" x="352.881775" xlink:href="#m496ed56730" y="404.083867"/>
     <use style="fill:#008000;stroke:#008000;" x="362.883074" xlink:href="#m496ed56730" y="403.774132"/>
     <use style="fill:#008000;stroke:#008000;" x="372.949517" xlink:href="#m496ed56730" y="403.46238"/>
     <use style="fill:#008000;stroke:#008000;" x="382.98804" xlink:href="#m496ed56730" y="403.151492"/>
     <use style="fill:#008000;stroke:#008000;" x="393.332125" xlink:href="#m496ed56730" y="402.831141"/>
     <use style="fill:#008000;stroke:#008000;" x="403.313259" xlink:href="#m496ed56730" y="402.522031"/>
     <use style="fill:#008000;stroke:#008000;" x="413.325415" xlink:href="#m496ed56730" y="402.21196"/>
     <use style="fill:#008000;stroke:#008000;" x="423.43141" xlink:href="#m496ed56730" y="401.898983"/>
     <use style="fill:#008000;stroke:#008000;" x="433.439688" xlink:href="#m496ed56730" y="401.589032"/>
     <use style="fill:#008000;stroke:#008000;" x="443.433231" xlink:href="#m496ed56730" y="401.279537"/>
     <use style="fill:#008000;stroke:#008000;" x="453.448488" xlink:href="#m496ed56730" y="400.96937"/>
     <use style="fill:#008000;stroke:#008000;" x="464.125278" xlink:href="#m496ed56730" y="400.638715"/>
     <use style="fill:#008000;stroke:#008000;" x="474.360787" xlink:href="#m496ed56730" y="400.321727"/>
     <use style="fill:#008000;stroke:#008000;" x="484.808793" xlink:href="#m496ed56730" y="399.998158"/>
     <use style="fill:#008000;stroke:#008000;" x="496.91024" xlink:href="#m496ed56730" y="399.623383"/>
     <use style="fill:#008000;stroke:#008000;" x="506.989867" xlink:href="#m496ed56730" y="399.311222"/>
     <use style="fill:#008000;stroke:#008000;" x="517.042351" xlink:href="#m496ed56730" y="398.999902"/>
     <use style="fill:#008000;stroke:#008000;" x="527.212715" xlink:href="#m496ed56730" y="398.684931"/>
     <use style="fill:#008000;stroke:#008000;" x="537.584719" xlink:href="#m496ed56730" y="398.363716"/>
     <use style="fill:#008000;stroke:#008000;" x="547.707776" xlink:href="#m496ed56730" y="398.05021"/>
     <use style="fill:#008000;stroke:#008000;" x="557.868835" xlink:href="#m496ed56730" y="397.735528"/>
     <use style="fill:#008000;stroke:#008000;" x="567.946911" xlink:href="#m496ed56730" y="397.423415"/>
     <use style="fill:#008000;stroke:#008000;" x="578.028864" xlink:href="#m496ed56730" y="397.111183"/>
     <use style="fill:#008000;stroke:#008000;" x="588.057306" xlink:href="#m496ed56730" y="396.800607"/>
     <use style="fill:#008000;stroke:#008000;" x="598.166404" xlink:href="#m496ed56730" y="396.487534"/>
     <use style="fill:#008000;stroke:#008000;" x="608.055249" xlink:href="#m496ed56730" y="396.181282"/>
     <use style="fill:#008000;stroke:#008000;" x="618.068956" xlink:href="#m496ed56730" y="395.871163"/>
     <use style="fill:#008000;stroke:#008000;" x="628.235443" xlink:href="#m496ed56730" y="395.556312"/>
     <use style="fill:#008000;stroke:#008000;" x="639.535762" xlink:href="#m496ed56730" y="395.206347"/>
     <use style="fill:#008000;stroke:#008000;" x="649.539387" xlink:href="#m496ed56730" y="394.89654"/>
     <use style="fill:#008000;stroke:#008000;" x="659.3817" xlink:href="#m496ed56730" y="394.591729"/>
     <use style="fill:#008000;stroke:#008000;" x="669.297689" xlink:href="#m496ed56730" y="394.284636"/>
     <use style="fill:#008000;stroke:#008000;" x="679.523893" xlink:href="#m496ed56730" y="393.967936"/>
     <use style="fill:#008000;stroke:#008000;" x="689.677971" xlink:href="#m496ed56730" y="393.65347"/>
     <use style="fill:#008000;stroke:#008000;" x="699.987157" xlink:href="#m496ed56730" y="393.3342"/>
     <use style="fill:#008000;stroke:#008000;" x="710.135806" xlink:href="#m496ed56730" y="393.019902"/>
     <use style="fill:#008000;stroke:#008000;" x="720.234046" xlink:href="#m496ed56730" y="392.707165"/>
     <use style="fill:#008000;stroke:#008000;" x="731.075249" xlink:href="#m496ed56730" y="392.371419"/>
     <use style="fill:#008000;stroke:#008000;" x="743.154205" xlink:href="#m496ed56730" y="391.99734"/>
     <use style="fill:#008000;stroke:#008000;" x="753.478126" xlink:href="#m496ed56730" y="391.677613"/>
     <use style="fill:#008000;stroke:#008000;" x="763.557753" xlink:href="#m496ed56730" y="391.365453"/>
     <use style="fill:#008000;stroke:#008000;" x="774.125191" xlink:href="#m496ed56730" y="391.038185"/>
     <use style="fill:#008000;stroke:#008000;" x="784.340537" xlink:href="#m496ed56730" y="390.721821"/>
     <use style="fill:#008000;stroke:#008000;" x="794.394572" xlink:href="#m496ed56730" y="390.410453"/>
     <use style="fill:#008000;stroke:#008000;" x="804.303581" xlink:href="#m496ed56730" y="390.103576"/>
     <use style="fill:#008000;stroke:#008000;" x="814.345207" xlink:href="#m496ed56730" y="389.792593"/>
     <use style="fill:#008000;stroke:#008000;" x="824.416303" xlink:href="#m496ed56730" y="389.480696"/>
     <use style="fill:#008000;stroke:#008000;" x="834.623118" xlink:href="#m496ed56730" y="389.164597"/>
     <use style="fill:#008000;stroke:#008000;" x="844.802014" xlink:href="#m496ed56730" y="388.849362"/>
     <use style="fill:#008000;stroke:#008000;" x="854.635796" xlink:href="#m496ed56730" y="388.544815"/>
     <use style="fill:#008000;stroke:#008000;" x="864.66734" xlink:href="#m496ed56730" y="388.234143"/>
     <use style="fill:#008000;stroke:#008000;" x="874.705089" xlink:href="#m496ed56730" y="387.92328"/>
     <use style="fill:#008000;stroke:#008000;" x="884.73353" xlink:href="#m496ed56730" y="387.612704"/>
     <use style="fill:#008000;stroke:#008000;" x="894.927161" xlink:href="#m496ed56730" y="387.297013"/>
     <use style="fill:#008000;stroke:#008000;" x="905.075035" xlink:href="#m496ed56730" y="386.982739"/>
     <use style="fill:#008000;stroke:#008000;" x="915.096497" xlink:href="#m496ed56730" y="386.672379"/>
     <use style="fill:#008000;stroke:#008000;" x="925.112531" xlink:href="#m496ed56730" y="386.362188"/>
     <use style="fill:#008000;stroke:#008000;" x="935.139421" xlink:href="#m496ed56730" y="386.051661"/>
     <use style="fill:#008000;stroke:#008000;" x="945.171741" xlink:href="#m496ed56730" y="385.740965"/>
     <use style="fill:#008000;stroke:#008000;" x="955.451456" xlink:href="#m496ed56730" y="385.422608"/>
     <use style="fill:#008000;stroke:#008000;" x="966.27327" xlink:href="#m496ed56730" y="385.087462"/>
     <use style="fill:#008000;stroke:#008000;" x="976.272242" xlink:href="#m496ed56730" y="384.7778"/>
     <use style="fill:#008000;stroke:#008000;" x="989.467193" xlink:href="#m496ed56730" y="384.369159"/>
     <use style="fill:#008000;stroke:#008000;" x="999.657721" xlink:href="#m496ed56730" y="384.053564"/>
     <use style="fill:#008000;stroke:#008000;" x="1009.725715" xlink:href="#m496ed56730" y="383.741764"/>
     <use style="fill:#008000;stroke:#008000;" x="1019.896856" xlink:href="#m496ed56730" y="383.426769"/>
     <use style="fill:#008000;stroke:#008000;" x="1029.975707" xlink:href="#m496ed56730" y="383.114632"/>
     <use style="fill:#008000;stroke:#008000;" x="1040.17942" xlink:href="#m496ed56730" y="382.798629"/>
     <use style="fill:#008000;stroke:#008000;" x="1050.187698" xlink:href="#m496ed56730" y="382.488678"/>
     <use style="fill:#008000;stroke:#008000;" x="1060.323163" xlink:href="#m496ed56730" y="382.174788"/>
     <use style="fill:#008000;stroke:#008000;" x="1070.320584" xlink:href="#m496ed56730" y="381.865173"/>
     <use style="fill:#008000;stroke:#008000;" x="1080.397109" xlink:href="#m496ed56730" y="381.553108"/>
     <use style="fill:#008000;stroke:#008000;" x="1091.199535" xlink:href="#m496ed56730" y="381.218563"/>
     <use style="fill:#008000;stroke:#008000;" x="1101.48623" xlink:href="#m496ed56730" y="380.89999"/>
     <use style="fill:#008000;stroke:#008000;" x="1111.565081" xlink:href="#m496ed56730" y="380.587853"/>
     <use style="fill:#008000;stroke:#008000;" x="1121.830837" xlink:href="#m496ed56730" y="380.269928"/>
     <use style="fill:#008000;stroke:#008000;" x="1131.935281" xlink:href="#m496ed56730" y="379.956999"/>
     <use style="fill:#008000;stroke:#008000;" x="1142.129687" xlink:href="#m496ed56730" y="379.641284"/>
     <use style="fill:#008000;stroke:#008000;" x="1152.194579" xlink:href="#m496ed56730" y="379.329579"/>
     <use style="fill:#008000;stroke:#008000;" x="1162.299799" xlink:href="#m496ed56730" y="379.016626"/>
     <use style="fill:#008000;stroke:#008000;" x="1172.508165" xlink:href="#m496ed56730" y="378.700479"/>
     <use style="fill:#008000;stroke:#008000;" x="1182.590119" xlink:href="#m496ed56730" y="378.388246"/>
     <use style="fill:#008000;stroke:#008000;" x="1193.124209" xlink:href="#m496ed56730" y="378.062011"/>
     <use style="fill:#008000;stroke:#008000;" x="1203.213143" xlink:href="#m496ed56730" y="377.749562"/>
     <use style="fill:#008000;stroke:#008000;" x="1213.245462" xlink:href="#m496ed56730" y="377.438866"/>
     <use style="fill:#008000;stroke:#008000;" x="1224.736563" xlink:href="#m496ed56730" y="377.082993"/>
     <use style="fill:#008000;stroke:#008000;" x="1235.168283" xlink:href="#m496ed56730" y="376.759929"/>
     <use style="fill:#008000;stroke:#008000;" x="1245.272727" xlink:href="#m496ed56730" y="376.446999"/>
    </g>
   </g>
   <g id="patch_3">
    <path d="M 180 512.64 
L 180 69.12 
" style="fill:none;stroke:#000000;stroke-linecap:square;stroke-linejoin:miter;stroke-width:0.8;"/>
   </g>
   <g id="patch_4">
    <path d="M 1296 512.64 
L 1296 69.12 
" style="fill:none;stroke:#000000;stroke-linecap:square;stroke-linejoin:miter;stroke-width:0.8;"/>
   </g>
   <g id="patch_5">
    <path d="M 180 512.64 
L 1296 512.64 
" style="fill:none;stroke:#000000;stroke-linecap:square;stroke-linejoin:miter;stroke-width:0.8;"/>
   </g>
   <g id="patch_6">
    <path d="M 180 69.12 
L 1296 69.12 
" style="fill:none;stroke:#000000;stroke-linecap:square;stroke-linejoin:miter;stroke-width:0.8;"/>
   </g>
   <g id="text_16">
    <!-- 500000.0 bit/s -->
    <defs>
     <path id="DejaVuSans-20"/>
     <path d="M 48.6875 27.296875 
Q 48.6875 37.203125 44.609375 42.84375 
Q 40.53125 48.484375 33.40625 48.484375 
Q 26.265625 48.484375 22.1875 42.84375 
Q 18.109375 37.203125 18.109375 27.296875 
Q 18.109375 17.390625 22.1875 11.75 
Q 26.265625 6.109375 33.40625 6.109375 
Q 40.53125 6.109375 44.609375 11.75 
Q 48.6875 17.390625 48.6875 27.296875 
z
M 18.109375 46.390625 
Q 20.953125 51.265625 25.265625 53.625 
Q 29.59375 56 35.59375 56 
Q 45.5625 56 51.78125 48.09375 
Q 58.015625 40.1875 58.015625 27.296875 
Q 58.015625 14.40625 51.78125 6.484375 
Q 45.5625 -1.421875 35.59375 -1.421875 
Q 29.59375 -1.421875 25.265625 0.953125 
Q 20.953125 3.328125 18.109375 8.203125 
L 18.109375 0 
L 9.078125 0 
L 9.078125 75.984375 
L 18.109375 75.984375 
z
" id="DejaVuSans-62"/>
     <path d="M 9.421875 54.6875 
L 18.40625 54.6875 
L 18.40625 0 
L 9.421875 0 
z
M 9.421875 75.984375 
L 18.40625 75.984375 
L 18.40625 64.59375 
L 9.421875 64.59375 
z
" id="DejaVuSans-69"/>
     <path d="M 18.3125 70.21875 
L 18.3125 54.6875 
L 36.8125 54.6875 
L 36.8125 47.703125 
L 18.3125 47.703125 
L 18.3125 18.015625 
Q 18.3125 11.328125 20.140625 9.421875 
Q 21.96875 7.515625 27.59375 7.515625 
L 36.8125 7.515625 
L 36.8125 0 
L 27.59375 0 
Q 17.1875 0 13.234375 3.875 
Q 9.28125 7.765625 9.28125 18.015625 
L 9.28125 47.703125 
L 2.6875 47.703125 
L 2.6875 54.6875 
L 9.28125 54.6875 
L 9.28125 70.21875 
z
" id="DejaVuSans-74"/>
     <path d="M 25.390625 72.90625 
L 33.6875 72.90625 
L 8.296875 -9.28125 
L 0 -9.28125 
z
" id="DejaVuSans-2f"/>
     <path d="M 44.28125 53.078125 
L 44.28125 44.578125 
Q 40.484375 46.53125 36.375 47.5 
Q 32.28125 48.484375 27.875 48.484375 
Q 21.1875 48.484375 17.84375 46.4375 
Q 14.5 44.390625 14.5 40.28125 
Q 14.5 37.15625 16.890625 35.375 
Q 19.28125 33.59375 26.515625 31.984375 
L 29.59375 31.296875 
Q 39.15625 29.25 43.1875 25.515625 
Q 47.21875 21.78125 47.21875 15.09375 
Q 47.21875 7.46875 41.1875 3.015625 
Q 35.15625 -1.421875 24.609375 -1.421875 
Q 20.21875 -1.421875 15.453125 -0.5625 
Q 10.6875 0.296875 5.421875 2 
L 5.421875 11.28125 
Q 10.40625 8.6875 15.234375 7.390625 
Q 20.0625 6.109375 24.8125 6.109375 
Q 31.15625 6.109375 34.5625 8.28125 
Q 37.984375 10.453125 37.984375 14.40625 
Q 37.984375 18.0625 35.515625 20.015625 
Q 33.0625 21.96875 24.703125 23.78125 
L 21.578125 24.515625 
Q 13.234375 26.265625 9.515625 29.90625 
Q 5.8125 33.546875 5.8125 39.890625 
Q 5.8125 47.609375 11.28125 51.796875 
Q 16.75 56 26.8125 56 
Q 31.78125 56 36.171875 55.265625 
Q 40.578125 54.546875 44.28125 53.078125 
z
" id="DejaVuSans-73"/>
    </defs>
    <g transform="translate(694.48875 63.12)scale(0.12 -0.12)">
     <use xlink:href="#DejaVuSans-35"/>
     <use x="63.623047" xlink:href="#DejaVuSans-30"/>
     <use x="127.246094" xlink:href="#DejaVuSans-30"/>
     <use x="190.869141" xlink:href="#DejaVuSans-30"/>
     <use x="254.492188" xlink:href="#DejaVuSans-30"/>
     <use x="318.115234" xlink:href="#DejaVuSans-30"/>
     <use x="381.738281" xlink:href="#DejaVuSans-2e"/>
     <use x="413.525391" xlink:href="#DejaVuSans-30"/>
     <use x="477.148438" xlink:href="#DejaVuSans-20"/>
     <use x="508.935547" xlink:href="#DejaVuSans-62"/>
     <use x="572.412109" xlink:href="#DejaVuSans-69"/>
     <use x="600.195312" xlink:href="#DejaVuSans-74"/>
     <use x="639.404297" xlink:href="#DejaVuSans-2f"/>
     <use x="673.095703" xlink:href="#DejaVuSans-73"/>
    </g>
   </g>
   <g id="legend_1">
    <g id="patch_7">
     <path d="M 1173.520313 135.8325 
L 1289 135.8325 
Q 1291 135.8325 1291 133.8325 
L 1291 76.12 
Q 1291 74.12 1289 74.12 
L 1173.520313 74.12 
Q 1171.520313 74.12 1171.520313 76.12 
L 1171.520313 133.8325 
Q 1171.520313 135.8325 1173.520313 135.8325 
z
" style="fill:#ffffff;opacity:0.8;stroke:#cccccc;stroke-linejoin:miter;"/>
    </g>
    <g id="line2d_20">
     <path d="M 1175.520313 82.218437 
L 1195.520313 82.218437 
" style="fill:none;stroke:#ff0000;stroke-dasharray:5.55,2.4;stroke-dashoffset:0;stroke-width:1.5;"/>
    </g>
    <g id="line2d_21">
     <g>
      <use style="fill:#ff0000;stroke:#ff0000;stroke-linejoin:miter;" x="1185.520313" xlink:href="#mf9be73805c" y="82.218437"/>
     </g>
    </g>
    <g id="text_17">
     <!-- tcpdump -->
     <defs>
      <path d="M 48.78125 52.59375 
L 48.78125 44.1875 
Q 44.96875 46.296875 41.140625 47.34375 
Q 37.3125 48.390625 33.40625 48.390625 
Q 24.65625 48.390625 19.8125 42.84375 
Q 14.984375 37.3125 14.984375 27.296875 
Q 14.984375 17.28125 19.8125 11.734375 
Q 24.65625 6.203125 33.40625 6.203125 
Q 37.3125 6.203125 41.140625 7.25 
Q 44.96875 8.296875 48.78125 10.40625 
L 48.78125 2.09375 
Q 45.015625 0.34375 40.984375 -0.53125 
Q 36.96875 -1.421875 32.421875 -1.421875 
Q 20.0625 -1.421875 12.78125 6.34375 
Q 5.515625 14.109375 5.515625 27.296875 
Q 5.515625 40.671875 12.859375 48.328125 
Q 20.21875 56 33.015625 56 
Q 37.15625 56 41.109375 55.140625 
Q 45.0625 54.296875 48.78125 52.59375 
z
" id="DejaVuSans-63"/>
      <path d="M 18.109375 8.203125 
L 18.109375 -20.796875 
L 9.078125 -20.796875 
L 9.078125 54.6875 
L 18.109375 54.6875 
L 18.109375 46.390625 
Q 20.953125 51.265625 25.265625 53.625 
Q 29.59375 56 35.59375 56 
Q 45.5625 56 51.78125 48.09375 
Q 58.015625 40.1875 58.015625 27.296875 
Q 58.015625 14.40625 51.78125 6.484375 
Q 45.5625 -1.421875 35.59375 -1.421875 
Q 29.59375 -1.421875 25.265625 0.953125 
Q 20.953125 3.328125 18.109375 8.203125 
z
M 48.6875 27.296875 
Q 48.6875 37.203125 44.609375 42.84375 
Q 40.53125 48.484375 33.40625 48.484375 
Q 26.265625 48.484375 22.1875 42.84375 
Q 18.109375 37.203125 18.109375 27.296875 
Q 18.109375 17.390625 22.1875 11.75 
Q 26.265625 6.109375 33.40625 6.109375 
Q 40.53125 6.109375 44.609375 11.75 
Q 48.6875 17.390625 48.6875 27.296875 
z
" id="DejaVuSans-70"/>
      <path d="M 45.40625 46.390625 
L 45.40625 75.984375 
L 54.390625 75.984375 
L 54.390625 0 
L 45.40625 0 
L 45.40625 8.203125 
Q 42.578125 3.328125 38.25 0.953125 
Q 33.9375 -1.421875 27.875 -1.421875 
Q 17.96875 -1.421875 11.734375 6.484375 
Q 5.515625 14.40625 5.515625 27.296875 
Q 5.515625 40.1875 11.734375 48.09375 
Q 17.96875 56 27.875 56 
Q 33.9375 56 38.25 53.625 
Q 42.578125 51.265625 45.40625 46.390625 
z
M 14.796875 27.296875 
Q 14.796875 17.390625 18.875 11.75 
Q 22.953125 6.109375 30.078125 6.109375 
Q 37.203125 6.109375 41.296875 11.75 
Q 45.40625 17.390625 45.40625 27.296875 
Q 45.40625 37.203125 41.296875 42.84375 
Q 37.203125 48.484375 30.078125 48.484375 
Q 22.953125 48.484375 18.875 42.84375 
Q 14.796875 37.203125 14.796875 27.296875 
z
" id="DejaVuSans-64"/>
      <path d="M 8.5 21.578125 
L 8.5 54.6875 
L 17.484375 54.6875 
L 17.484375 21.921875 
Q 17.484375 14.15625 20.5 10.265625 
Q 23.53125 6.390625 29.59375 6.390625 
Q 36.859375 6.390625 41.078125 11.03125 
Q 45.3125 15.671875 45.3125 23.6875 
L 45.3125 54.6875 
L 54.296875 54.6875 
L 54.296875 0 
L 45.3125 0 
L 45.3125 8.40625 
Q 42.046875 3.421875 37.71875 1 
Q 33.40625 -1.421875 27.6875 -1.421875 
Q 18.265625 -1.421875 13.375 4.4375 
Q 8.5 10.296875 8.5 21.578125 
z
M 31.109375 56 
z
" id="DejaVuSans-75"/>
      <path d="M 52 44.1875 
Q 55.375 50.25 60.0625 53.125 
Q 64.75 56 71.09375 56 
Q 79.640625 56 84.28125 50.015625 
Q 88.921875 44.046875 88.921875 33.015625 
L 88.921875 0 
L 79.890625 0 
L 79.890625 32.71875 
Q 79.890625 40.578125 77.09375 44.375 
Q 74.3125 48.1875 68.609375 48.1875 
Q 61.625 48.1875 57.5625 43.546875 
Q 53.515625 38.921875 53.515625 30.90625 
L 53.515625 0 
L 44.484375 0 
L 44.484375 32.71875 
Q 44.484375 40.625 41.703125 44.40625 
Q 38.921875 48.1875 33.109375 48.1875 
Q 26.21875 48.1875 22.15625 43.53125 
Q 18.109375 38.875 18.109375 30.90625 
L 18.109375 0 
L 9.078125 0 
L 9.078125 54.6875 
L 18.109375 54.6875 
L 18.109375 46.1875 
Q 21.1875 51.21875 25.484375 53.609375 
Q 29.78125 56 35.6875 56 
Q 41.65625 56 45.828125 52.96875 
Q 50 49.953125 52 44.1875 
z
" id="DejaVuSans-6d"/>
     </defs>
     <g transform="translate(1203.520313 85.718437)scale(0.1 -0.1)">
      <use xlink:href="#DejaVuSans-74"/>
      <use x="39.208984" xlink:href="#DejaVuSans-63"/>
      <use x="94.189453" xlink:href="#DejaVuSans-70"/>
      <use x="157.666016" xlink:href="#DejaVuSans-64"/>
      <use x="221.142578" xlink:href="#DejaVuSans-75"/>
      <use x="284.521484" xlink:href="#DejaVuSans-6d"/>
      <use x="381.933594" xlink:href="#DejaVuSans-70"/>
     </g>
    </g>
    <g id="line2d_22">
     <path d="M 1175.520313 96.896563 
L 1195.520313 96.896563 
" style="fill:none;stroke:#800080;stroke-dasharray:9.6,2.4,1.5,2.4;stroke-dashoffset:0;stroke-width:1.5;"/>
    </g>
    <g id="line2d_23">
     <g>
      <use style="fill:#800080;stroke:#800080;" x="1185.520313" xlink:href="#m363df6fbaf" y="96.896563"/>
     </g>
    </g>
    <g id="text_18">
     <!-- filtered tcpdump -->
     <defs>
      <path d="M 37.109375 75.984375 
L 37.109375 68.5 
L 28.515625 68.5 
Q 23.6875 68.5 21.796875 66.546875 
Q 19.921875 64.59375 19.921875 59.515625 
L 19.921875 54.6875 
L 34.71875 54.6875 
L 34.71875 47.703125 
L 19.921875 47.703125 
L 19.921875 0 
L 10.890625 0 
L 10.890625 47.703125 
L 2.296875 47.703125 
L 2.296875 54.6875 
L 10.890625 54.6875 
L 10.890625 58.5 
Q 10.890625 67.625 15.140625 71.796875 
Q 19.390625 75.984375 28.609375 75.984375 
z
" id="DejaVuSans-66"/>
      <path d="M 9.421875 75.984375 
L 18.40625 75.984375 
L 18.40625 0 
L 9.421875 0 
z
" id="DejaVuSans-6c"/>
      <path d="M 56.203125 29.59375 
L 56.203125 25.203125 
L 14.890625 25.203125 
Q 15.484375 15.921875 20.484375 11.0625 
Q 25.484375 6.203125 34.421875 6.203125 
Q 39.59375 6.203125 44.453125 7.46875 
Q 49.3125 8.734375 54.109375 11.28125 
L 54.109375 2.78125 
Q 49.265625 0.734375 44.1875 -0.34375 
Q 39.109375 -1.421875 33.890625 -1.421875 
Q 20.796875 -1.421875 13.15625 6.1875 
Q 5.515625 13.8125 5.515625 26.8125 
Q 5.515625 40.234375 12.765625 48.109375 
Q 20.015625 56 32.328125 56 
Q 43.359375 56 49.78125 48.890625 
Q 56.203125 41.796875 56.203125 29.59375 
z
M 47.21875 32.234375 
Q 47.125 39.59375 43.09375 43.984375 
Q 39.0625 48.390625 32.421875 48.390625 
Q 24.90625 48.390625 20.390625 44.140625 
Q 15.875 39.890625 15.1875 32.171875 
z
" id="DejaVuSans-65"/>
      <path d="M 41.109375 46.296875 
Q 39.59375 47.171875 37.8125 47.578125 
Q 36.03125 48 33.890625 48 
Q 26.265625 48 22.1875 43.046875 
Q 18.109375 38.09375 18.109375 28.8125 
L 18.109375 0 
L 9.078125 0 
L 9.078125 54.6875 
L 18.109375 54.6875 
L 18.109375 46.1875 
Q 20.953125 51.171875 25.484375 53.578125 
Q 30.03125 56 36.53125 56 
Q 37.453125 56 38.578125 55.875 
Q 39.703125 55.765625 41.0625 55.515625 
z
" id="DejaVuSans-72"/>
     </defs>
     <g transform="translate(1203.520313 100.396563)scale(0.1 -0.1)">
      <use xlink:href="#DejaVuSans-66"/>
      <use x="35.205078" xlink:href="#DejaVuSans-69"/>
      <use x="62.988281" xlink:href="#DejaVuSans-6c"/>
      <use x="90.771484" xlink:href="#DejaVuSans-74"/>
      <use x="129.980469" xlink:href="#DejaVuSans-65"/>
      <use x="191.503906" xlink:href="#DejaVuSans-72"/>
      <use x="232.585938" xlink:href="#DejaVuSans-65"/>
      <use x="294.109375" xlink:href="#DejaVuSans-64"/>
      <use x="357.585938" xlink:href="#DejaVuSans-20"/>
      <use x="389.373047" xlink:href="#DejaVuSans-74"/>
      <use x="428.582031" xlink:href="#DejaVuSans-63"/>
      <use x="483.5625" xlink:href="#DejaVuSans-70"/>
      <use x="547.039062" xlink:href="#DejaVuSans-64"/>
      <use x="610.515625" xlink:href="#DejaVuSans-75"/>
      <use x="673.894531" xlink:href="#DejaVuSans-6d"/>
      <use x="771.306641" xlink:href="#DejaVuSans-70"/>
     </g>
    </g>
    <g id="line2d_24">
     <path d="M 1175.520313 111.574687 
L 1195.520313 111.574687 
" style="fill:none;stroke:#0000ff;stroke-linecap:square;stroke-width:1.5;"/>
    </g>
    <g id="line2d_25"/>
    <g id="text_19">
     <!-- OLS -->
     <defs>
      <path d="M 39.40625 66.21875 
Q 28.65625 66.21875 22.328125 58.203125 
Q 16.015625 50.203125 16.015625 36.375 
Q 16.015625 22.609375 22.328125 14.59375 
Q 28.65625 6.59375 39.40625 6.59375 
Q 50.140625 6.59375 56.421875 14.59375 
Q 62.703125 22.609375 62.703125 36.375 
Q 62.703125 50.203125 56.421875 58.203125 
Q 50.140625 66.21875 39.40625 66.21875 
z
M 39.40625 74.21875 
Q 54.734375 74.21875 63.90625 63.9375 
Q 73.09375 53.65625 73.09375 36.375 
Q 73.09375 19.140625 63.90625 8.859375 
Q 54.734375 -1.421875 39.40625 -1.421875 
Q 24.03125 -1.421875 14.8125 8.828125 
Q 5.609375 19.09375 5.609375 36.375 
Q 5.609375 53.65625 14.8125 63.9375 
Q 24.03125 74.21875 39.40625 74.21875 
z
" id="DejaVuSans-4f"/>
      <path d="M 9.8125 72.90625 
L 19.671875 72.90625 
L 19.671875 8.296875 
L 55.171875 8.296875 
L 55.171875 0 
L 9.8125 0 
z
" id="DejaVuSans-4c"/>
      <path d="M 53.515625 70.515625 
L 53.515625 60.890625 
Q 47.90625 63.578125 42.921875 64.890625 
Q 37.9375 66.21875 33.296875 66.21875 
Q 25.25 66.21875 20.875 63.09375 
Q 16.5 59.96875 16.5 54.203125 
Q 16.5 49.359375 19.40625 46.890625 
Q 22.3125 44.4375 30.421875 42.921875 
L 36.375 41.703125 
Q 47.40625 39.59375 52.65625 34.296875 
Q 57.90625 29 57.90625 20.125 
Q 57.90625 9.515625 50.796875 4.046875 
Q 43.703125 -1.421875 29.984375 -1.421875 
Q 24.8125 -1.421875 18.96875 -0.25 
Q 13.140625 0.921875 6.890625 3.21875 
L 6.890625 13.375 
Q 12.890625 10.015625 18.65625 8.296875 
Q 24.421875 6.59375 29.984375 6.59375 
Q 38.421875 6.59375 43.015625 9.90625 
Q 47.609375 13.234375 47.609375 19.390625 
Q 47.609375 24.75 44.3125 27.78125 
Q 41.015625 30.8125 33.5 32.328125 
L 27.484375 33.5 
Q 16.453125 35.6875 11.515625 40.375 
Q 6.59375 45.0625 6.59375 53.421875 
Q 6.59375 63.09375 13.40625 68.65625 
Q 20.21875 74.21875 32.171875 74.21875 
Q 37.3125 74.21875 42.625 73.28125 
Q 47.953125 72.359375 53.515625 70.515625 
z
" id="DejaVuSans-53"/>
     </defs>
     <g transform="translate(1203.520313 115.074687)scale(0.1 -0.1)">
      <use xlink:href="#DejaVuSans-4f"/>
      <use x="78.710938" xlink:href="#DejaVuSans-4c"/>
      <use x="134.423828" xlink:href="#DejaVuSans-53"/>
     </g>
    </g>
    <g id="line2d_26">
     <path d="M 1175.520313 126.252813 
L 1195.520313 126.252813 
" style="fill:none;stroke:#008000;stroke-linecap:square;stroke-width:1.5;"/>
    </g>
    <g id="line2d_27">
     <g>
      <use style="fill:#008000;stroke:#008000;" x="1185.520313" xlink:href="#m496ed56730" y="126.252813"/>
     </g>
    </g>
    <g id="text_20">
     <!-- IRLS -->
     <defs>
      <path d="M 9.8125 72.90625 
L 19.671875 72.90625 
L 19.671875 0 
L 9.8125 0 
z
" id="DejaVuSans-49"/>
      <path d="M 44.390625 34.1875 
Q 47.5625 33.109375 50.5625 29.59375 
Q 53.5625 26.078125 56.59375 19.921875 
L 66.609375 0 
L 56 0 
L 46.6875 18.703125 
Q 43.0625 26.03125 39.671875 28.421875 
Q 36.28125 30.8125 30.421875 30.8125 
L 19.671875 30.8125 
L 19.671875 0 
L 9.8125 0 
L 9.8125 72.90625 
L 32.078125 72.90625 
Q 44.578125 72.90625 50.734375 67.671875 
Q 56.890625 62.453125 56.890625 51.90625 
Q 56.890625 45.015625 53.6875 40.46875 
Q 50.484375 35.9375 44.390625 34.1875 
z
M 19.671875 64.796875 
L 19.671875 38.921875 
L 32.078125 38.921875 
Q 39.203125 38.921875 42.84375 42.21875 
Q 46.484375 45.515625 46.484375 51.90625 
Q 46.484375 58.296875 42.84375 61.546875 
Q 39.203125 64.796875 32.078125 64.796875 
z
" id="DejaVuSans-52"/>
     </defs>
     <g transform="translate(1203.520313 129.752813)scale(0.1 -0.1)">
      <use xlink:href="#DejaVuSans-49"/>
      <use x="29.492188" xlink:href="#DejaVuSans-52"/>
      <use x="98.974609" xlink:href="#DejaVuSans-4c"/>
      <use x="154.6875" xlink:href="#DejaVuSans-53"/>
     </g>
    </g>
   </g>
  </g>
 </g>
 <defs>
  <clipPath id="p6ad7012610">
   <rect height="443.52" width="1116" x="180" y="69.12"/>
  </clipPath>
 </defs>
</svg>
