<?xml version="1.0" encoding="utf-8" standalone="no"?>
<!DOCTYPE svg PUBLIC "-//W3C//DTD SVG 1.1//EN"
  "http://www.w3.org/Graphics/SVG/1.1/DTD/svg11.dtd">
<!-- Created with matplotlib (http://matplotlib.org/) -->
<svg height="576pt" version="1.1" viewBox="0 0 1440 576" width="1440pt" xmlns="http://www.w3.org/2000/svg" xmlns:xlink="http://www.w3.org/1999/xlink">
 <defs>
  <style type="text/css">
*{stroke-linecap:butt;stroke-linejoin:round;}
  </style>
 </defs>
 <g id="figure_1">
  <g id="patch_1">
   <path d="M 0 576 
L 1440 576 
L 1440 0 
L 0 0 
z
" style="fill:#ffffff;"/>
  </g>
  <g id="axes_1">
   <g id="patch_2">
    <path d="M 180 512.64 
L 1296 512.64 
L 1296 69.12 
L 180 69.12 
z
" style="fill:#ffffff;"/>
   </g>
   <g id="matplotlib.axis_1">
    <g id="xtick_1">
     <g id="line2d_1">
      <defs>
       <path d="M 0 0 
L 0 3.5 
" id="m30bdacbe3c" style="stroke:#000000;stroke-width:0.8;"/>
      </defs>
      <g>
       <use style="stroke:#000000;stroke-width:0.8;" x="230.727273" xlink:href="#m30bdacbe3c" y="512.64"/>
      </g>
     </g>
     <g id="text_1">
      <!-- 0.00 -->
      <defs>
       <path d="M 31.78125 66.40625 
Q 24.171875 66.40625 20.328125 58.90625 
Q 16.5 51.421875 16.5 36.375 
Q 16.5 21.390625 20.328125 13.890625 
Q 24.171875 6.390625 31.78125 6.390625 
Q 39.453125 6.390625 43.28125 13.890625 
Q 47.125 21.390625 47.125 36.375 
Q 47.125 51.421875 43.28125 58.90625 
Q 39.453125 66.40625 31.78125 66.40625 
z
M 31.78125 74.21875 
Q 44.046875 74.21875 50.515625 64.515625 
Q 56.984375 54.828125 56.984375 36.375 
Q 56.984375 17.96875 50.515625 8.265625 
Q 44.046875 -1.421875 31.78125 -1.421875 
Q 19.53125 -1.421875 13.0625 8.265625 
Q 6.59375 17.96875 6.59375 36.375 
Q 6.59375 54.828125 13.0625 64.515625 
Q 19.53125 74.21875 31.78125 74.21875 
z
" id="DejaVuSans-30"/>
       <path d="M 10.6875 12.40625 
L 21 12.40625 
L 21 0 
L 10.6875 0 
z
" id="DejaVuSans-2e"/>
      </defs>
      <g transform="translate(219.59446 527.238438)scale(0.1 -0.1)">
       <use xlink:href="#DejaVuSans-30"/>
       <use x="63.623047" xlink:href="#DejaVuSans-2e"/>
       <use x="95.410156" xlink:href="#DejaVuSans-30"/>
       <use x="159.033203" xlink:href="#DejaVuSans-30"/>
      </g>
     </g>
    </g>
    <g id="xtick_2">
     <g id="line2d_2">
      <g>
       <use style="stroke:#000000;stroke-width:0.8;" x="442.486192" xlink:href="#m30bdacbe3c" y="512.64"/>
      </g>
     </g>
     <g id="text_2">
      <!-- 0.05 -->
      <defs>
       <path d="M 10.796875 72.90625 
L 49.515625 72.90625 
L 49.515625 64.59375 
L 19.828125 64.59375 
L 19.828125 46.734375 
Q 21.96875 47.46875 24.109375 47.828125 
Q 26.265625 48.1875 28.421875 48.1875 
Q 40.625 48.1875 47.75 41.5 
Q 54.890625 34.8125 54.890625 23.390625 
Q 54.890625 11.625 47.5625 5.09375 
Q 40.234375 -1.421875 26.90625 -1.421875 
Q 22.3125 -1.421875 17.546875 -0.640625 
Q 12.796875 0.140625 7.71875 1.703125 
L 7.71875 11.625 
Q 12.109375 9.234375 16.796875 8.0625 
Q 21.484375 6.890625 26.703125 6.890625 
Q 35.15625 6.890625 40.078125 11.328125 
Q 45.015625 15.765625 45.015625 23.390625 
Q 45.015625 31 40.078125 35.4375 
Q 35.15625 39.890625 26.703125 39.890625 
Q 22.75 39.890625 18.8125 39.015625 
Q 14.890625 38.140625 10.796875 36.28125 
z
" id="DejaVuSans-35"/>
      </defs>
      <g transform="translate(431.35338 527.238438)scale(0.1 -0.1)">
       <use xlink:href="#DejaVuSans-30"/>
       <use x="63.623047" xlink:href="#DejaVuSans-2e"/>
       <use x="95.410156" xlink:href="#DejaVuSans-30"/>
       <use x="159.033203" xlink:href="#DejaVuSans-35"/>
      </g>
     </g>
    </g>
    <g id="xtick_3">
     <g id="line2d_3">
      <g>
       <use style="stroke:#000000;stroke-width:0.8;" x="654.245112" xlink:href="#m30bdacbe3c" y="512.64"/>
      </g>
     </g>
     <g id="text_3">
      <!-- 0.10 -->
      <defs>
       <path d="M 12.40625 8.296875 
L 28.515625 8.296875 
L 28.515625 63.921875 
L 10.984375 60.40625 
L 10.984375 69.390625 
L 28.421875 72.90625 
L 38.28125 72.90625 
L 38.28125 8.296875 
L 54.390625 8.296875 
L 54.390625 0 
L 12.40625 0 
z
" id="DejaVuSans-31"/>
      </defs>
      <g transform="translate(643.1123 527.238438)scale(0.1 -0.1)">
       <use xlink:href="#DejaVuSans-30"/>
       <use x="63.623047" xlink:href="#DejaVuSans-2e"/>
       <use x="95.410156" xlink:href="#DejaVuSans-31"/>
       <use x="159.033203" xlink:href="#DejaVuSans-30"/>
      </g>
     </g>
    </g>
    <g id="xtick_4">
     <g id="line2d_4">
      <g>
       <use style="stroke:#000000;stroke-width:0.8;" x="866.004032" xlink:href="#m30bdacbe3c" y="512.64"/>
      </g>
     </g>
     <g id="text_4">
      <!-- 0.15 -->
      <g transform="translate(854.871219 527.238438)scale(0.1 -0.1)">
       <use xlink:href="#DejaVuSans-30"/>
       <use x="63.623047" xlink:href="#DejaVuSans-2e"/>
       <use x="95.410156" xlink:href="#DejaVuSans-31"/>
       <use x="159.033203" xlink:href="#DejaVuSans-35"/>
      </g>
     </g>
    </g>
    <g id="xtick_5">
     <g id="line2d_5">
      <g>
       <use style="stroke:#000000;stroke-width:0.8;" x="1077.762951" xlink:href="#m30bdacbe3c" y="512.64"/>
      </g>
     </g>
     <g id="text_5">
      <!-- 0.20 -->
      <defs>
       <path d="M 19.1875 8.296875 
L 53.609375 8.296875 
L 53.609375 0 
L 7.328125 0 
L 7.328125 8.296875 
Q 12.9375 14.109375 22.625 23.890625 
Q 32.328125 33.6875 34.8125 36.53125 
Q 39.546875 41.84375 41.421875 45.53125 
Q 43.3125 49.21875 43.3125 52.78125 
Q 43.3125 58.59375 39.234375 62.25 
Q 35.15625 65.921875 28.609375 65.921875 
Q 23.96875 65.921875 18.8125 64.3125 
Q 13.671875 62.703125 7.8125 59.421875 
L 7.8125 69.390625 
Q 13.765625 71.78125 18.9375 73 
Q 24.125 74.21875 28.421875 74.21875 
Q 39.75 74.21875 46.484375 68.546875 
Q 53.21875 62.890625 53.21875 53.421875 
Q 53.21875 48.921875 51.53125 44.890625 
Q 49.859375 40.875 45.40625 35.40625 
Q 44.1875 33.984375 37.640625 27.21875 
Q 31.109375 20.453125 19.1875 8.296875 
z
" id="DejaVuSans-32"/>
      </defs>
      <g transform="translate(1066.630139 527.238438)scale(0.1 -0.1)">
       <use xlink:href="#DejaVuSans-30"/>
       <use x="63.623047" xlink:href="#DejaVuSans-2e"/>
       <use x="95.410156" xlink:href="#DejaVuSans-32"/>
       <use x="159.033203" xlink:href="#DejaVuSans-30"/>
      </g>
     </g>
    </g>
    <g id="xtick_6">
     <g id="line2d_6">
      <g>
       <use style="stroke:#000000;stroke-width:0.8;" x="1289.521871" xlink:href="#m30bdacbe3c" y="512.64"/>
      </g>
     </g>
     <g id="text_6">
      <!-- 0.25 -->
      <g transform="translate(1278.389059 527.238438)scale(0.1 -0.1)">
       <use xlink:href="#DejaVuSans-30"/>
       <use x="63.623047" xlink:href="#DejaVuSans-2e"/>
       <use x="95.410156" xlink:href="#DejaVuSans-32"/>
       <use x="159.033203" xlink:href="#DejaVuSans-35"/>
      </g>
     </g>
    </g>
   </g>
   <g id="matplotlib.axis_2">
    <g id="ytick_1">
     <g id="line2d_7">
      <defs>
       <path d="M 0 0 
L -3.5 0 
" id="mf2c4076d64" style="stroke:#000000;stroke-width:0.8;"/>
      </defs>
      <g>
       <use style="stroke:#000000;stroke-width:0.8;" x="180" xlink:href="#mf2c4076d64" y="432.458629"/>
      </g>
     </g>
     <g id="text_7">
      <!-- 0.4 -->
      <defs>
       <path d="M 37.796875 64.3125 
L 12.890625 25.390625 
L 37.796875 25.390625 
z
M 35.203125 72.90625 
L 47.609375 72.90625 
L 47.609375 25.390625 
L 58.015625 25.390625 
L 58.015625 17.1875 
L 47.609375 17.1875 
L 47.609375 0 
L 37.796875 0 
L 37.796875 17.1875 
L 4.890625 17.1875 
L 4.890625 26.703125 
z
" id="DejaVuSans-34"/>
      </defs>
      <g transform="translate(157.096875 436.257848)scale(0.1 -0.1)">
       <use xlink:href="#DejaVuSans-30"/>
       <use x="63.623047" xlink:href="#DejaVuSans-2e"/>
       <use x="95.410156" xlink:href="#DejaVuSans-34"/>
      </g>
     </g>
    </g>
    <g id="ytick_2">
     <g id="line2d_8">
      <g>
       <use style="stroke:#000000;stroke-width:0.8;" x="180" xlink:href="#mf2c4076d64" y="350.88432"/>
      </g>
     </g>
     <g id="text_8">
      <!-- 0.6 -->
      <defs>
       <path d="M 33.015625 40.375 
Q 26.375 40.375 22.484375 35.828125 
Q 18.609375 31.296875 18.609375 23.390625 
Q 18.609375 15.53125 22.484375 10.953125 
Q 26.375 6.390625 33.015625 6.390625 
Q 39.65625 6.390625 43.53125 10.953125 
Q 47.40625 15.53125 47.40625 23.390625 
Q 47.40625 31.296875 43.53125 35.828125 
Q 39.65625 40.375 33.015625 40.375 
z
M 52.59375 71.296875 
L 52.59375 62.3125 
Q 48.875 64.0625 45.09375 64.984375 
Q 41.3125 65.921875 37.59375 65.921875 
Q 27.828125 65.921875 22.671875 59.328125 
Q 17.53125 52.734375 16.796875 39.40625 
Q 19.671875 43.65625 24.015625 45.921875 
Q 28.375 48.1875 33.59375 48.1875 
Q 44.578125 48.1875 50.953125 41.515625 
Q 57.328125 34.859375 57.328125 23.390625 
Q 57.328125 12.15625 50.6875 5.359375 
Q 44.046875 -1.421875 33.015625 -1.421875 
Q 20.359375 -1.421875 13.671875 8.265625 
Q 6.984375 17.96875 6.984375 36.375 
Q 6.984375 53.65625 15.1875 63.9375 
Q 23.390625 74.21875 37.203125 74.21875 
Q 40.921875 74.21875 44.703125 73.484375 
Q 48.484375 72.75 52.59375 71.296875 
z
" id="DejaVuSans-36"/>
      </defs>
      <g transform="translate(157.096875 354.683539)scale(0.1 -0.1)">
       <use xlink:href="#DejaVuSans-30"/>
       <use x="63.623047" xlink:href="#DejaVuSans-2e"/>
       <use x="95.410156" xlink:href="#DejaVuSans-36"/>
      </g>
     </g>
    </g>
    <g id="ytick_3">
     <g id="line2d_9">
      <g>
       <use style="stroke:#000000;stroke-width:0.8;" x="180" xlink:href="#mf2c4076d64" y="269.310012"/>
      </g>
     </g>
     <g id="text_9">
      <!-- 0.8 -->
      <defs>
       <path d="M 31.78125 34.625 
Q 24.75 34.625 20.71875 30.859375 
Q 16.703125 27.09375 16.703125 20.515625 
Q 16.703125 13.921875 20.71875 10.15625 
Q 24.75 6.390625 31.78125 6.390625 
Q 38.8125 6.390625 42.859375 10.171875 
Q 46.921875 13.96875 46.921875 20.515625 
Q 46.921875 27.09375 42.890625 30.859375 
Q 38.875 34.625 31.78125 34.625 
z
M 21.921875 38.8125 
Q 15.578125 40.375 12.03125 44.71875 
Q 8.5 49.078125 8.5 55.328125 
Q 8.5 64.0625 14.71875 69.140625 
Q 20.953125 74.21875 31.78125 74.21875 
Q 42.671875 74.21875 48.875 69.140625 
Q 55.078125 64.0625 55.078125 55.328125 
Q 55.078125 49.078125 51.53125 44.71875 
Q 48 40.375 41.703125 38.8125 
Q 48.828125 37.15625 52.796875 32.3125 
Q 56.78125 27.484375 56.78125 20.515625 
Q 56.78125 9.90625 50.3125 4.234375 
Q 43.84375 -1.421875 31.78125 -1.421875 
Q 19.734375 -1.421875 13.25 4.234375 
Q 6.78125 9.90625 6.78125 20.515625 
Q 6.78125 27.484375 10.78125 32.3125 
Q 14.796875 37.15625 21.921875 38.8125 
z
M 18.3125 54.390625 
Q 18.3125 48.734375 21.84375 45.5625 
Q 25.390625 42.390625 31.78125 42.390625 
Q 38.140625 42.390625 41.71875 45.5625 
Q 45.3125 48.734375 45.3125 54.390625 
Q 45.3125 60.0625 41.71875 63.234375 
Q 38.140625 66.40625 31.78125 66.40625 
Q 25.390625 66.40625 21.84375 63.234375 
Q 18.3125 60.0625 18.3125 54.390625 
z
" id="DejaVuSans-38"/>
      </defs>
      <g transform="translate(157.096875 273.109231)scale(0.1 -0.1)">
       <use xlink:href="#DejaVuSans-30"/>
       <use x="63.623047" xlink:href="#DejaVuSans-2e"/>
       <use x="95.410156" xlink:href="#DejaVuSans-38"/>
      </g>
     </g>
    </g>
    <g id="ytick_4">
     <g id="line2d_10">
      <g>
       <use style="stroke:#000000;stroke-width:0.8;" x="180" xlink:href="#mf2c4076d64" y="187.735704"/>
      </g>
     </g>
     <g id="text_10">
      <!-- 1.0 -->
      <g transform="translate(157.096875 191.534922)scale(0.1 -0.1)">
       <use xlink:href="#DejaVuSans-31"/>
       <use x="63.623047" xlink:href="#DejaVuSans-2e"/>
       <use x="95.410156" xlink:href="#DejaVuSans-30"/>
      </g>
     </g>
    </g>
    <g id="ytick_5">
     <g id="line2d_11">
      <g>
       <use style="stroke:#000000;stroke-width:0.8;" x="180" xlink:href="#mf2c4076d64" y="106.161395"/>
      </g>
     </g>
     <g id="text_11">
      <!-- 1.2 -->
      <g transform="translate(157.096875 109.960614)scale(0.1 -0.1)">
       <use xlink:href="#DejaVuSans-31"/>
       <use x="63.623047" xlink:href="#DejaVuSans-2e"/>
       <use x="95.410156" xlink:href="#DejaVuSans-32"/>
      </g>
     </g>
    </g>
   </g>
   <g id="line2d_12">
    <path clip-path="url(#pecfe820866)" d="M 230.727273 473.091608 
L 256.180695 473.107922 
L 264.807753 471.731764 
L 272.880003 467.6298 
L 283.188427 463.704036 
L 296.575826 460.061743 
L 305.037713 455.98262 
L 313.063376 451.825185 
L 325.853615 448.115594 
L 339.596769 444.559362 
L 347.762192 440.418242 
L 356.025026 436.320357 
L 368.84491 432.644618 
L 382.702414 429.066361 
L 391.121949 424.941556 
L 399.401723 420.825317 
L 411.810795 417.132856 
L 425.998643 413.578255 
L 434.519822 409.47262 
L 442.985943 405.383708 
L 454.619979 401.583161 
L 468.994174 398.06119 
L 477.443355 393.960042 
L 496.997174 390.939753 
L 512.912974 387.370469 
L 521.459564 383.390051 
L 529.815571 379.240366 
L 542.643926 375.675161 
L 556.404021 372.087523 
L 564.832026 367.939469 
L 573.12874 363.855043 
L 584.87289 360.081008 
L 599.103089 356.529263 
L 607.827557 352.468494 
L 625.187553 349.083975 
L 640.213966 345.725969 
L 648.671617 341.624413 
L 657.103858 337.548552 
L 670.508197 333.852828 
L 685.022153 330.341462 
L 693.522157 326.108571 
L 701.844282 322.142021 
L 713.474082 318.41693 
L 727.522169 314.850501 
L 735.895116 310.735893 
L 744.357003 306.646165 
L 756.135034 302.869275 
L 774.867228 299.756399 
L 783.460405 295.66504 
L 793.290254 291.70216 
L 801.599674 287.561448 
L 810.870479 283.516178 
L 819.08249 279.430936 
L 828.281298 275.182954 
L 837.073528 271.1022 
L 850.105172 267.399542 
L 857.982604 263.304919 
L 865.436518 259.110368 
L 873.013252 254.91541 
L 885.291034 251.102626 
L 894.777834 247.180942 
L 902.833143 242.992509 
L 910.587755 238.863625 
L 919.324928 234.804895 
L 928.667731 230.771454 
L 937.565841 226.729039 
L 945.667737 222.551618 
L 953.43929 218.409275 
L 961.841884 214.335454 
L 971.570088 210.362785 
L 980.591018 206.109909 
L 988.680209 202.143358 
L 996.455997 197.985923 
L 1004.591774 193.878249 
L 1014.938315 189.970024 
L 1023.527257 185.830128 
L 1032.124669 181.775885 
L 1055.63838 179.135324 
L 1065.370819 175.162655 
L 1073.409188 171.024391 
L 1081.151094 166.820459 
L 1089.498631 162.728692 
L 1100.141634 158.75847 
L 1108.607756 154.755211 
L 1116.853648 150.638563 
L 1124.803078 146.474603 
L 1132.921915 142.297182 
L 1142.654355 138.314725 
L 1151.315295 134.302492 
L 1159.39178 130.082653 
L 1167.696965 126.050027 
L 1175.78192 121.907684 
L 1185.501655 117.934607 
L 1193.904249 113.837946 
L 1202.150141 109.709878 
L 1209.993691 105.551627 
L 1218.222643 101.398679 
L 1228.302367 97.470061 
L 1237.0226 93.374622 
L 1245.272727 89.28 
" style="fill:none;stroke:#ff0000;stroke-dasharray:5.55,2.4;stroke-dashoffset:0;stroke-width:1.5;"/>
    <defs>
     <path d="M -3 3 
L 3 3 
L 3 -3 
L -3 -3 
z
" id="m8a123827ae" style="stroke:#ff0000;stroke-linejoin:miter;"/>
    </defs>
    <g clip-path="url(#pecfe820866)">
     <use style="fill:#ff0000;stroke:#ff0000;stroke-linejoin:miter;" x="230.727273" xlink:href="#m8a123827ae" y="473.091608"/>
     <use style="fill:#ff0000;stroke:#ff0000;stroke-linejoin:miter;" x="256.180695" xlink:href="#m8a123827ae" y="473.107922"/>
     <use style="fill:#ff0000;stroke:#ff0000;stroke-linejoin:miter;" x="264.807753" xlink:href="#m8a123827ae" y="471.731764"/>
     <use style="fill:#ff0000;stroke:#ff0000;stroke-linejoin:miter;" x="272.880003" xlink:href="#m8a123827ae" y="467.6298"/>
     <use style="fill:#ff0000;stroke:#ff0000;stroke-linejoin:miter;" x="283.188427" xlink:href="#m8a123827ae" y="463.704036"/>
     <use style="fill:#ff0000;stroke:#ff0000;stroke-linejoin:miter;" x="296.575826" xlink:href="#m8a123827ae" y="460.061743"/>
     <use style="fill:#ff0000;stroke:#ff0000;stroke-linejoin:miter;" x="305.037713" xlink:href="#m8a123827ae" y="455.98262"/>
     <use style="fill:#ff0000;stroke:#ff0000;stroke-linejoin:miter;" x="313.063376" xlink:href="#m8a123827ae" y="451.825185"/>
     <use style="fill:#ff0000;stroke:#ff0000;stroke-linejoin:miter;" x="325.853615" xlink:href="#m8a123827ae" y="448.115594"/>
     <use style="fill:#ff0000;stroke:#ff0000;stroke-linejoin:miter;" x="339.596769" xlink:href="#m8a123827ae" y="444.559362"/>
     <use style="fill:#ff0000;stroke:#ff0000;stroke-linejoin:miter;" x="347.762192" xlink:href="#m8a123827ae" y="440.418242"/>
     <use style="fill:#ff0000;stroke:#ff0000;stroke-linejoin:miter;" x="356.025026" xlink:href="#m8a123827ae" y="436.320357"/>
     <use style="fill:#ff0000;stroke:#ff0000;stroke-linejoin:miter;" x="368.84491" xlink:href="#m8a123827ae" y="432.644618"/>
     <use style="fill:#ff0000;stroke:#ff0000;stroke-linejoin:miter;" x="382.702414" xlink:href="#m8a123827ae" y="429.066361"/>
     <use style="fill:#ff0000;stroke:#ff0000;stroke-linejoin:miter;" x="391.121949" xlink:href="#m8a123827ae" y="424.941556"/>
     <use style="fill:#ff0000;stroke:#ff0000;stroke-linejoin:miter;" x="399.401723" xlink:href="#m8a123827ae" y="420.825317"/>
     <use style="fill:#ff0000;stroke:#ff0000;stroke-linejoin:miter;" x="411.810795" xlink:href="#m8a123827ae" y="417.132856"/>
     <use style="fill:#ff0000;stroke:#ff0000;stroke-linejoin:miter;" x="425.998643" xlink:href="#m8a123827ae" y="413.578255"/>
     <use style="fill:#ff0000;stroke:#ff0000;stroke-linejoin:miter;" x="434.519822" xlink:href="#m8a123827ae" y="409.47262"/>
     <use style="fill:#ff0000;stroke:#ff0000;stroke-linejoin:miter;" x="442.985943" xlink:href="#m8a123827ae" y="405.383708"/>
     <use style="fill:#ff0000;stroke:#ff0000;stroke-linejoin:miter;" x="454.619979" xlink:href="#m8a123827ae" y="401.583161"/>
     <use style="fill:#ff0000;stroke:#ff0000;stroke-linejoin:miter;" x="468.994174" xlink:href="#m8a123827ae" y="398.06119"/>
     <use style="fill:#ff0000;stroke:#ff0000;stroke-linejoin:miter;" x="477.443355" xlink:href="#m8a123827ae" y="393.960042"/>
     <use style="fill:#ff0000;stroke:#ff0000;stroke-linejoin:miter;" x="496.997174" xlink:href="#m8a123827ae" y="390.939753"/>
     <use style="fill:#ff0000;stroke:#ff0000;stroke-linejoin:miter;" x="512.912974" xlink:href="#m8a123827ae" y="387.370469"/>
     <use style="fill:#ff0000;stroke:#ff0000;stroke-linejoin:miter;" x="521.459564" xlink:href="#m8a123827ae" y="383.390051"/>
     <use style="fill:#ff0000;stroke:#ff0000;stroke-linejoin:miter;" x="529.815571" xlink:href="#m8a123827ae" y="379.240366"/>
     <use style="fill:#ff0000;stroke:#ff0000;stroke-linejoin:miter;" x="542.643926" xlink:href="#m8a123827ae" y="375.675161"/>
     <use style="fill:#ff0000;stroke:#ff0000;stroke-linejoin:miter;" x="556.404021" xlink:href="#m8a123827ae" y="372.087523"/>
     <use style="fill:#ff0000;stroke:#ff0000;stroke-linejoin:miter;" x="564.832026" xlink:href="#m8a123827ae" y="367.939469"/>
     <use style="fill:#ff0000;stroke:#ff0000;stroke-linejoin:miter;" x="573.12874" xlink:href="#m8a123827ae" y="363.855043"/>
     <use style="fill:#ff0000;stroke:#ff0000;stroke-linejoin:miter;" x="584.87289" xlink:href="#m8a123827ae" y="360.081008"/>
     <use style="fill:#ff0000;stroke:#ff0000;stroke-linejoin:miter;" x="599.103089" xlink:href="#m8a123827ae" y="356.529263"/>
     <use style="fill:#ff0000;stroke:#ff0000;stroke-linejoin:miter;" x="607.827557" xlink:href="#m8a123827ae" y="352.468494"/>
     <use style="fill:#ff0000;stroke:#ff0000;stroke-linejoin:miter;" x="625.187553" xlink:href="#m8a123827ae" y="349.083975"/>
     <use style="fill:#ff0000;stroke:#ff0000;stroke-linejoin:miter;" x="640.213966" xlink:href="#m8a123827ae" y="345.725969"/>
     <use style="fill:#ff0000;stroke:#ff0000;stroke-linejoin:miter;" x="648.671617" xlink:href="#m8a123827ae" y="341.624413"/>
     <use style="fill:#ff0000;stroke:#ff0000;stroke-linejoin:miter;" x="657.103858" xlink:href="#m8a123827ae" y="337.548552"/>
     <use style="fill:#ff0000;stroke:#ff0000;stroke-linejoin:miter;" x="670.508197" xlink:href="#m8a123827ae" y="333.852828"/>
     <use style="fill:#ff0000;stroke:#ff0000;stroke-linejoin:miter;" x="685.022153" xlink:href="#m8a123827ae" y="330.341462"/>
     <use style="fill:#ff0000;stroke:#ff0000;stroke-linejoin:miter;" x="693.522157" xlink:href="#m8a123827ae" y="326.108571"/>
     <use style="fill:#ff0000;stroke:#ff0000;stroke-linejoin:miter;" x="701.844282" xlink:href="#m8a123827ae" y="322.142021"/>
     <use style="fill:#ff0000;stroke:#ff0000;stroke-linejoin:miter;" x="713.474082" xlink:href="#m8a123827ae" y="318.41693"/>
     <use style="fill:#ff0000;stroke:#ff0000;stroke-linejoin:miter;" x="727.522169" xlink:href="#m8a123827ae" y="314.850501"/>
     <use style="fill:#ff0000;stroke:#ff0000;stroke-linejoin:miter;" x="735.895116" xlink:href="#m8a123827ae" y="310.735893"/>
     <use style="fill:#ff0000;stroke:#ff0000;stroke-linejoin:miter;" x="744.357003" xlink:href="#m8a123827ae" y="306.646165"/>
     <use style="fill:#ff0000;stroke:#ff0000;stroke-linejoin:miter;" x="756.135034" xlink:href="#m8a123827ae" y="302.869275"/>
     <use style="fill:#ff0000;stroke:#ff0000;stroke-linejoin:miter;" x="774.867228" xlink:href="#m8a123827ae" y="299.756399"/>
     <use style="fill:#ff0000;stroke:#ff0000;stroke-linejoin:miter;" x="783.460405" xlink:href="#m8a123827ae" y="295.66504"/>
     <use style="fill:#ff0000;stroke:#ff0000;stroke-linejoin:miter;" x="793.290254" xlink:href="#m8a123827ae" y="291.70216"/>
     <use style="fill:#ff0000;stroke:#ff0000;stroke-linejoin:miter;" x="801.599674" xlink:href="#m8a123827ae" y="287.561448"/>
     <use style="fill:#ff0000;stroke:#ff0000;stroke-linejoin:miter;" x="810.870479" xlink:href="#m8a123827ae" y="283.516178"/>
     <use style="fill:#ff0000;stroke:#ff0000;stroke-linejoin:miter;" x="819.08249" xlink:href="#m8a123827ae" y="279.430936"/>
     <use style="fill:#ff0000;stroke:#ff0000;stroke-linejoin:miter;" x="828.281298" xlink:href="#m8a123827ae" y="275.182954"/>
     <use style="fill:#ff0000;stroke:#ff0000;stroke-linejoin:miter;" x="837.073528" xlink:href="#m8a123827ae" y="271.1022"/>
     <use style="fill:#ff0000;stroke:#ff0000;stroke-linejoin:miter;" x="850.105172" xlink:href="#m8a123827ae" y="267.399542"/>
     <use style="fill:#ff0000;stroke:#ff0000;stroke-linejoin:miter;" x="857.982604" xlink:href="#m8a123827ae" y="263.304919"/>
     <use style="fill:#ff0000;stroke:#ff0000;stroke-linejoin:miter;" x="865.436518" xlink:href="#m8a123827ae" y="259.110368"/>
     <use style="fill:#ff0000;stroke:#ff0000;stroke-linejoin:miter;" x="873.013252" xlink:href="#m8a123827ae" y="254.91541"/>
     <use style="fill:#ff0000;stroke:#ff0000;stroke-linejoin:miter;" x="885.291034" xlink:href="#m8a123827ae" y="251.102626"/>
     <use style="fill:#ff0000;stroke:#ff0000;stroke-linejoin:miter;" x="894.777834" xlink:href="#m8a123827ae" y="247.180942"/>
     <use style="fill:#ff0000;stroke:#ff0000;stroke-linejoin:miter;" x="902.833143" xlink:href="#m8a123827ae" y="242.992509"/>
     <use style="fill:#ff0000;stroke:#ff0000;stroke-linejoin:miter;" x="910.587755" xlink:href="#m8a123827ae" y="238.863625"/>
     <use style="fill:#ff0000;stroke:#ff0000;stroke-linejoin:miter;" x="919.324928" xlink:href="#m8a123827ae" y="234.804895"/>
     <use style="fill:#ff0000;stroke:#ff0000;stroke-linejoin:miter;" x="928.667731" xlink:href="#m8a123827ae" y="230.771454"/>
     <use style="fill:#ff0000;stroke:#ff0000;stroke-linejoin:miter;" x="937.565841" xlink:href="#m8a123827ae" y="226.729039"/>
     <use style="fill:#ff0000;stroke:#ff0000;stroke-linejoin:miter;" x="945.667737" xlink:href="#m8a123827ae" y="222.551618"/>
     <use style="fill:#ff0000;stroke:#ff0000;stroke-linejoin:miter;" x="953.43929" xlink:href="#m8a123827ae" y="218.409275"/>
     <use style="fill:#ff0000;stroke:#ff0000;stroke-linejoin:miter;" x="961.841884" xlink:href="#m8a123827ae" y="214.335454"/>
     <use style="fill:#ff0000;stroke:#ff0000;stroke-linejoin:miter;" x="971.570088" xlink:href="#m8a123827ae" y="210.362785"/>
     <use style="fill:#ff0000;stroke:#ff0000;stroke-linejoin:miter;" x="980.591018" xlink:href="#m8a123827ae" y="206.109909"/>
     <use style="fill:#ff0000;stroke:#ff0000;stroke-linejoin:miter;" x="988.680209" xlink:href="#m8a123827ae" y="202.143358"/>
     <use style="fill:#ff0000;stroke:#ff0000;stroke-linejoin:miter;" x="996.455997" xlink:href="#m8a123827ae" y="197.985923"/>
     <use style="fill:#ff0000;stroke:#ff0000;stroke-linejoin:miter;" x="1004.591774" xlink:href="#m8a123827ae" y="193.878249"/>
     <use style="fill:#ff0000;stroke:#ff0000;stroke-linejoin:miter;" x="1014.938315" xlink:href="#m8a123827ae" y="189.970024"/>
     <use style="fill:#ff0000;stroke:#ff0000;stroke-linejoin:miter;" x="1023.527257" xlink:href="#m8a123827ae" y="185.830128"/>
     <use style="fill:#ff0000;stroke:#ff0000;stroke-linejoin:miter;" x="1032.124669" xlink:href="#m8a123827ae" y="181.775885"/>
     <use style="fill:#ff0000;stroke:#ff0000;stroke-linejoin:miter;" x="1055.63838" xlink:href="#m8a123827ae" y="179.135324"/>
     <use style="fill:#ff0000;stroke:#ff0000;stroke-linejoin:miter;" x="1065.370819" xlink:href="#m8a123827ae" y="175.162655"/>
     <use style="fill:#ff0000;stroke:#ff0000;stroke-linejoin:miter;" x="1073.409188" xlink:href="#m8a123827ae" y="171.024391"/>
     <use style="fill:#ff0000;stroke:#ff0000;stroke-linejoin:miter;" x="1081.151094" xlink:href="#m8a123827ae" y="166.820459"/>
     <use style="fill:#ff0000;stroke:#ff0000;stroke-linejoin:miter;" x="1089.498631" xlink:href="#m8a123827ae" y="162.728692"/>
     <use style="fill:#ff0000;stroke:#ff0000;stroke-linejoin:miter;" x="1100.141634" xlink:href="#m8a123827ae" y="158.75847"/>
     <use style="fill:#ff0000;stroke:#ff0000;stroke-linejoin:miter;" x="1108.607756" xlink:href="#m8a123827ae" y="154.755211"/>
     <use style="fill:#ff0000;stroke:#ff0000;stroke-linejoin:miter;" x="1116.853648" xlink:href="#m8a123827ae" y="150.638563"/>
     <use style="fill:#ff0000;stroke:#ff0000;stroke-linejoin:miter;" x="1124.803078" xlink:href="#m8a123827ae" y="146.474603"/>
     <use style="fill:#ff0000;stroke:#ff0000;stroke-linejoin:miter;" x="1132.921915" xlink:href="#m8a123827ae" y="142.297182"/>
     <use style="fill:#ff0000;stroke:#ff0000;stroke-linejoin:miter;" x="1142.654355" xlink:href="#m8a123827ae" y="138.314725"/>
     <use style="fill:#ff0000;stroke:#ff0000;stroke-linejoin:miter;" x="1151.315295" xlink:href="#m8a123827ae" y="134.302492"/>
     <use style="fill:#ff0000;stroke:#ff0000;stroke-linejoin:miter;" x="1159.39178" xlink:href="#m8a123827ae" y="130.082653"/>
     <use style="fill:#ff0000;stroke:#ff0000;stroke-linejoin:miter;" x="1167.696965" xlink:href="#m8a123827ae" y="126.050027"/>
     <use style="fill:#ff0000;stroke:#ff0000;stroke-linejoin:miter;" x="1175.78192" xlink:href="#m8a123827ae" y="121.907684"/>
     <use style="fill:#ff0000;stroke:#ff0000;stroke-linejoin:miter;" x="1185.501655" xlink:href="#m8a123827ae" y="117.934607"/>
     <use style="fill:#ff0000;stroke:#ff0000;stroke-linejoin:miter;" x="1193.904249" xlink:href="#m8a123827ae" y="113.837946"/>
     <use style="fill:#ff0000;stroke:#ff0000;stroke-linejoin:miter;" x="1202.150141" xlink:href="#m8a123827ae" y="109.709878"/>
     <use style="fill:#ff0000;stroke:#ff0000;stroke-linejoin:miter;" x="1209.993691" xlink:href="#m8a123827ae" y="105.551627"/>
     <use style="fill:#ff0000;stroke:#ff0000;stroke-linejoin:miter;" x="1218.222643" xlink:href="#m8a123827ae" y="101.398679"/>
     <use style="fill:#ff0000;stroke:#ff0000;stroke-linejoin:miter;" x="1228.302367" xlink:href="#m8a123827ae" y="97.470061"/>
     <use style="fill:#ff0000;stroke:#ff0000;stroke-linejoin:miter;" x="1237.0226" xlink:href="#m8a123827ae" y="93.374622"/>
     <use style="fill:#ff0000;stroke:#ff0000;stroke-linejoin:miter;" x="1245.272727" xlink:href="#m8a123827ae" y="89.28"/>
    </g>
   </g>
   <g id="line2d_13">
    <path clip-path="url(#pecfe820866)" d="M 230.727273 473.091608 
L 256.180695 473.107922 
L 264.807753 471.731764 
L 272.880003 467.6298 
L 283.188427 463.704036 
L 296.575826 460.061743 
L 305.037713 455.98262 
L 313.063376 451.825185 
L 325.853615 448.115594 
L 339.596769 444.559362 
L 347.762192 440.418242 
L 356.025026 436.320357 
L 368.84491 432.644618 
L 382.702414 429.066361 
L 391.121949 424.941556 
L 399.401723 420.825317 
L 411.810795 417.132856 
L 425.998643 413.578255 
L 434.519822 409.47262 
L 442.985943 405.383708 
L 454.619979 401.583161 
L 468.994174 398.06119 
L 477.443355 393.960042 
L 496.997174 390.939753 
L 512.912974 387.370469 
L 521.459564 383.390051 
L 529.815571 379.240366 
L 542.643926 375.675161 
L 556.404021 372.087523 
L 564.832026 367.939469 
L 573.12874 363.855043 
L 584.87289 360.081008 
L 599.103089 356.529263 
L 607.827557 352.468494 
L 625.187553 349.083975 
L 640.213966 345.725969 
L 648.671617 341.624413 
L 657.103858 337.548552 
L 670.508197 333.852828 
L 685.022153 330.341462 
L 693.522157 326.108571 
L 701.844282 322.142021 
L 713.474082 318.41693 
L 727.522169 314.850501 
L 735.895116 310.735893 
L 744.357003 306.646165 
L 756.135034 302.869275 
L 774.867228 299.756399 
L 783.460405 295.66504 
L 793.290254 291.70216 
L 801.599674 287.561448 
L 810.870479 283.516178 
L 819.08249 279.430936 
L 828.281298 275.182954 
L 837.073528 271.1022 
L 850.105172 267.399542 
L 857.982604 263.304919 
L 865.436518 259.110368 
L 873.013252 254.91541 
L 885.291034 251.102626 
L 894.777834 247.180942 
L 902.833143 242.992509 
L 910.587755 238.863625 
L 919.324928 234.804895 
L 928.667731 230.771454 
L 937.565841 226.729039 
L 945.667737 222.551618 
L 953.43929 218.409275 
L 961.841884 214.335454 
L 971.570088 210.362785 
L 980.591018 206.109909 
L 988.680209 202.143358 
L 996.455997 197.985923 
L 1004.591774 193.878249 
L 1014.938315 189.970024 
L 1023.527257 185.830128 
L 1032.124669 181.775885 
L 1055.63838 179.135324 
L 1065.370819 175.162655 
L 1073.409188 171.024391 
L 1081.151094 166.820459 
L 1089.498631 162.728692 
L 1100.141634 158.75847 
L 1108.607756 154.755211 
L 1116.853648 150.638563 
L 1124.803078 146.474603 
L 1132.921915 142.297182 
L 1142.654355 138.314725 
L 1151.315295 134.302492 
L 1159.39178 130.082653 
L 1167.696965 126.050027 
L 1175.78192 121.907684 
L 1185.501655 117.934607 
L 1193.904249 113.837946 
L 1202.150141 109.709878 
L 1209.993691 105.551627 
L 1218.222643 101.398679 
L 1228.302367 97.470061 
L 1237.0226 93.374622 
L 1245.272727 89.28 
" style="fill:none;stroke:#800080;stroke-dasharray:9.6,2.4,1.5,2.4;stroke-dashoffset:0;stroke-width:1.5;"/>
    <defs>
     <path d="M -3 3 
L 3 -3 
M -3 -3 
L 3 3 
" id="m365da466c4" style="stroke:#800080;"/>
    </defs>
    <g clip-path="url(#pecfe820866)">
     <use style="fill:#800080;stroke:#800080;" x="230.727273" xlink:href="#m365da466c4" y="473.091608"/>
     <use style="fill:#800080;stroke:#800080;" x="256.180695" xlink:href="#m365da466c4" y="473.107922"/>
     <use style="fill:#800080;stroke:#800080;" x="264.807753" xlink:href="#m365da466c4" y="471.731764"/>
     <use style="fill:#800080;stroke:#800080;" x="272.880003" xlink:href="#m365da466c4" y="467.6298"/>
     <use style="fill:#800080;stroke:#800080;" x="283.188427" xlink:href="#m365da466c4" y="463.704036"/>
     <use style="fill:#800080;stroke:#800080;" x="296.575826" xlink:href="#m365da466c4" y="460.061743"/>
     <use style="fill:#800080;stroke:#800080;" x="305.037713" xlink:href="#m365da466c4" y="455.98262"/>
     <use style="fill:#800080;stroke:#800080;" x="313.063376" xlink:href="#m365da466c4" y="451.825185"/>
     <use style="fill:#800080;stroke:#800080;" x="325.853615" xlink:href="#m365da466c4" y="448.115594"/>
     <use style="fill:#800080;stroke:#800080;" x="339.596769" xlink:href="#m365da466c4" y="444.559362"/>
     <use style="fill:#800080;stroke:#800080;" x="347.762192" xlink:href="#m365da466c4" y="440.418242"/>
     <use style="fill:#800080;stroke:#800080;" x="356.025026" xlink:href="#m365da466c4" y="436.320357"/>
     <use style="fill:#800080;stroke:#800080;" x="368.84491" xlink:href="#m365da466c4" y="432.644618"/>
     <use style="fill:#800080;stroke:#800080;" x="382.702414" xlink:href="#m365da466c4" y="429.066361"/>
     <use style="fill:#800080;stroke:#800080;" x="391.121949" xlink:href="#m365da466c4" y="424.941556"/>
     <use style="fill:#800080;stroke:#800080;" x="399.401723" xlink:href="#m365da466c4" y="420.825317"/>
     <use style="fill:#800080;stroke:#800080;" x="411.810795" xlink:href="#m365da466c4" y="417.132856"/>
     <use style="fill:#800080;stroke:#800080;" x="425.998643" xlink:href="#m365da466c4" y="413.578255"/>
     <use style="fill:#800080;stroke:#800080;" x="434.519822" xlink:href="#m365da466c4" y="409.47262"/>
     <use style="fill:#800080;stroke:#800080;" x="442.985943" xlink:href="#m365da466c4" y="405.383708"/>
     <use style="fill:#800080;stroke:#800080;" x="454.619979" xlink:href="#m365da466c4" y="401.583161"/>
     <use style="fill:#800080;stroke:#800080;" x="468.994174" xlink:href="#m365da466c4" y="398.06119"/>
     <use style="fill:#800080;stroke:#800080;" x="477.443355" xlink:href="#m365da466c4" y="393.960042"/>
     <use style="fill:#800080;stroke:#800080;" x="496.997174" xlink:href="#m365da466c4" y="390.939753"/>
     <use style="fill:#800080;stroke:#800080;" x="512.912974" xlink:href="#m365da466c4" y="387.370469"/>
     <use style="fill:#800080;stroke:#800080;" x="521.459564" xlink:href="#m365da466c4" y="383.390051"/>
     <use style="fill:#800080;stroke:#800080;" x="529.815571" xlink:href="#m365da466c4" y="379.240366"/>
     <use style="fill:#800080;stroke:#800080;" x="542.643926" xlink:href="#m365da466c4" y="375.675161"/>
     <use style="fill:#800080;stroke:#800080;" x="556.404021" xlink:href="#m365da466c4" y="372.087523"/>
     <use style="fill:#800080;stroke:#800080;" x="564.832026" xlink:href="#m365da466c4" y="367.939469"/>
     <use style="fill:#800080;stroke:#800080;" x="573.12874" xlink:href="#m365da466c4" y="363.855043"/>
     <use style="fill:#800080;stroke:#800080;" x="584.87289" xlink:href="#m365da466c4" y="360.081008"/>
     <use style="fill:#800080;stroke:#800080;" x="599.103089" xlink:href="#m365da466c4" y="356.529263"/>
     <use style="fill:#800080;stroke:#800080;" x="607.827557" xlink:href="#m365da466c4" y="352.468494"/>
     <use style="fill:#800080;stroke:#800080;" x="625.187553" xlink:href="#m365da466c4" y="349.083975"/>
     <use style="fill:#800080;stroke:#800080;" x="640.213966" xlink:href="#m365da466c4" y="345.725969"/>
     <use style="fill:#800080;stroke:#800080;" x="648.671617" xlink:href="#m365da466c4" y="341.624413"/>
     <use style="fill:#800080;stroke:#800080;" x="657.103858" xlink:href="#m365da466c4" y="337.548552"/>
     <use style="fill:#800080;stroke:#800080;" x="670.508197" xlink:href="#m365da466c4" y="333.852828"/>
     <use style="fill:#800080;stroke:#800080;" x="685.022153" xlink:href="#m365da466c4" y="330.341462"/>
     <use style="fill:#800080;stroke:#800080;" x="693.522157" xlink:href="#m365da466c4" y="326.108571"/>
     <use style="fill:#800080;stroke:#800080;" x="701.844282" xlink:href="#m365da466c4" y="322.142021"/>
     <use style="fill:#800080;stroke:#800080;" x="713.474082" xlink:href="#m365da466c4" y="318.41693"/>
     <use style="fill:#800080;stroke:#800080;" x="727.522169" xlink:href="#m365da466c4" y="314.850501"/>
     <use style="fill:#800080;stroke:#800080;" x="735.895116" xlink:href="#m365da466c4" y="310.735893"/>
     <use style="fill:#800080;stroke:#800080;" x="744.357003" xlink:href="#m365da466c4" y="306.646165"/>
     <use style="fill:#800080;stroke:#800080;" x="756.135034" xlink:href="#m365da466c4" y="302.869275"/>
     <use style="fill:#800080;stroke:#800080;" x="774.867228" xlink:href="#m365da466c4" y="299.756399"/>
     <use style="fill:#800080;stroke:#800080;" x="783.460405" xlink:href="#m365da466c4" y="295.66504"/>
     <use style="fill:#800080;stroke:#800080;" x="793.290254" xlink:href="#m365da466c4" y="291.70216"/>
     <use style="fill:#800080;stroke:#800080;" x="801.599674" xlink:href="#m365da466c4" y="287.561448"/>
     <use style="fill:#800080;stroke:#800080;" x="810.870479" xlink:href="#m365da466c4" y="283.516178"/>
     <use style="fill:#800080;stroke:#800080;" x="819.08249" xlink:href="#m365da466c4" y="279.430936"/>
     <use style="fill:#800080;stroke:#800080;" x="828.281298" xlink:href="#m365da466c4" y="275.182954"/>
     <use style="fill:#800080;stroke:#800080;" x="837.073528" xlink:href="#m365da466c4" y="271.1022"/>
     <use style="fill:#800080;stroke:#800080;" x="850.105172" xlink:href="#m365da466c4" y="267.399542"/>
     <use style="fill:#800080;stroke:#800080;" x="857.982604" xlink:href="#m365da466c4" y="263.304919"/>
     <use style="fill:#800080;stroke:#800080;" x="865.436518" xlink:href="#m365da466c4" y="259.110368"/>
     <use style="fill:#800080;stroke:#800080;" x="873.013252" xlink:href="#m365da466c4" y="254.91541"/>
     <use style="fill:#800080;stroke:#800080;" x="885.291034" xlink:href="#m365da466c4" y="251.102626"/>
     <use style="fill:#800080;stroke:#800080;" x="894.777834" xlink:href="#m365da466c4" y="247.180942"/>
     <use style="fill:#800080;stroke:#800080;" x="902.833143" xlink:href="#m365da466c4" y="242.992509"/>
     <use style="fill:#800080;stroke:#800080;" x="910.587755" xlink:href="#m365da466c4" y="238.863625"/>
     <use style="fill:#800080;stroke:#800080;" x="919.324928" xlink:href="#m365da466c4" y="234.804895"/>
     <use style="fill:#800080;stroke:#800080;" x="928.667731" xlink:href="#m365da466c4" y="230.771454"/>
     <use style="fill:#800080;stroke:#800080;" x="937.565841" xlink:href="#m365da466c4" y="226.729039"/>
     <use style="fill:#800080;stroke:#800080;" x="945.667737" xlink:href="#m365da466c4" y="222.551618"/>
     <use style="fill:#800080;stroke:#800080;" x="953.43929" xlink:href="#m365da466c4" y="218.409275"/>
     <use style="fill:#800080;stroke:#800080;" x="961.841884" xlink:href="#m365da466c4" y="214.335454"/>
     <use style="fill:#800080;stroke:#800080;" x="971.570088" xlink:href="#m365da466c4" y="210.362785"/>
     <use style="fill:#800080;stroke:#800080;" x="980.591018" xlink:href="#m365da466c4" y="206.109909"/>
     <use style="fill:#800080;stroke:#800080;" x="988.680209" xlink:href="#m365da466c4" y="202.143358"/>
     <use style="fill:#800080;stroke:#800080;" x="996.455997" xlink:href="#m365da466c4" y="197.985923"/>
     <use style="fill:#800080;stroke:#800080;" x="1004.591774" xlink:href="#m365da466c4" y="193.878249"/>
     <use style="fill:#800080;stroke:#800080;" x="1014.938315" xlink:href="#m365da466c4" y="189.970024"/>
     <use style="fill:#800080;stroke:#800080;" x="1023.527257" xlink:href="#m365da466c4" y="185.830128"/>
     <use style="fill:#800080;stroke:#800080;" x="1032.124669" xlink:href="#m365da466c4" y="181.775885"/>
     <use style="fill:#800080;stroke:#800080;" x="1055.63838" xlink:href="#m365da466c4" y="179.135324"/>
     <use style="fill:#800080;stroke:#800080;" x="1065.370819" xlink:href="#m365da466c4" y="175.162655"/>
     <use style="fill:#800080;stroke:#800080;" x="1073.409188" xlink:href="#m365da466c4" y="171.024391"/>
     <use style="fill:#800080;stroke:#800080;" x="1081.151094" xlink:href="#m365da466c4" y="166.820459"/>
     <use style="fill:#800080;stroke:#800080;" x="1089.498631" xlink:href="#m365da466c4" y="162.728692"/>
     <use style="fill:#800080;stroke:#800080;" x="1100.141634" xlink:href="#m365da466c4" y="158.75847"/>
     <use style="fill:#800080;stroke:#800080;" x="1108.607756" xlink:href="#m365da466c4" y="154.755211"/>
     <use style="fill:#800080;stroke:#800080;" x="1116.853648" xlink:href="#m365da466c4" y="150.638563"/>
     <use style="fill:#800080;stroke:#800080;" x="1124.803078" xlink:href="#m365da466c4" y="146.474603"/>
     <use style="fill:#800080;stroke:#800080;" x="1132.921915" xlink:href="#m365da466c4" y="142.297182"/>
     <use style="fill:#800080;stroke:#800080;" x="1142.654355" xlink:href="#m365da466c4" y="138.314725"/>
     <use style="fill:#800080;stroke:#800080;" x="1151.315295" xlink:href="#m365da466c4" y="134.302492"/>
     <use style="fill:#800080;stroke:#800080;" x="1159.39178" xlink:href="#m365da466c4" y="130.082653"/>
     <use style="fill:#800080;stroke:#800080;" x="1167.696965" xlink:href="#m365da466c4" y="126.050027"/>
     <use style="fill:#800080;stroke:#800080;" x="1175.78192" xlink:href="#m365da466c4" y="121.907684"/>
     <use style="fill:#800080;stroke:#800080;" x="1185.501655" xlink:href="#m365da466c4" y="117.934607"/>
     <use style="fill:#800080;stroke:#800080;" x="1193.904249" xlink:href="#m365da466c4" y="113.837946"/>
     <use style="fill:#800080;stroke:#800080;" x="1202.150141" xlink:href="#m365da466c4" y="109.709878"/>
     <use style="fill:#800080;stroke:#800080;" x="1209.993691" xlink:href="#m365da466c4" y="105.551627"/>
     <use style="fill:#800080;stroke:#800080;" x="1218.222643" xlink:href="#m365da466c4" y="101.398679"/>
     <use style="fill:#800080;stroke:#800080;" x="1228.302367" xlink:href="#m365da466c4" y="97.470061"/>
     <use style="fill:#800080;stroke:#800080;" x="1237.0226" xlink:href="#m365da466c4" y="93.374622"/>
     <use style="fill:#800080;stroke:#800080;" x="1245.272727" xlink:href="#m365da466c4" y="89.28"/>
    </g>
   </g>
   <g id="line2d_14">
    <path clip-path="url(#pecfe820866)" d="M 230.727273 492.48 
L 256.180695 482.760734 
L 264.807753 479.466534 
L 272.880003 476.384184 
L 283.188427 472.447962 
L 296.575826 467.336049 
L 305.037713 464.104918 
L 313.063376 461.040358 
L 325.853615 456.156467 
L 339.596769 450.90871 
L 347.762192 447.790783 
L 356.025026 444.63566 
L 368.84491 439.740449 
L 382.702414 434.449028 
L 391.121949 431.23407 
L 399.401723 428.072478 
L 411.810795 423.334134 
L 425.998643 417.916573 
L 434.519822 414.662802 
L 442.985943 411.430054 
L 454.619979 406.987654 
L 468.994174 401.498937 
L 477.443355 398.272659 
L 496.997174 390.806128 
L 512.912974 384.728756 
L 521.459564 381.465282 
L 529.815571 378.274582 
L 542.643926 373.376136 
L 556.404021 368.121911 
L 564.832026 364.903718 
L 573.12874 361.735658 
L 584.87289 357.251211 
L 599.103089 351.817478 
L 607.827557 348.486082 
L 625.187553 341.857252 
L 640.213966 336.119489 
L 648.671617 332.889976 
L 657.103858 329.670166 
L 670.508197 324.551783 
L 685.022153 319.0097 
L 693.522157 315.764015 
L 701.844282 312.586251 
L 713.474082 308.145468 
L 727.522169 302.781275 
L 735.895116 299.584105 
L 744.357003 296.352975 
L 756.135034 291.85559 
L 774.867228 284.702793 
L 783.460405 281.42153 
L 793.290254 277.66805 
L 801.599674 274.495138 
L 810.870479 270.955126 
L 819.08249 267.819409 
L 828.281298 264.306889 
L 837.073528 260.949618 
L 850.105172 255.973548 
L 857.982604 252.965589 
L 865.436518 250.119348 
L 873.013252 247.226209 
L 885.291034 242.537997 
L 894.777834 238.915509 
L 902.833143 235.839628 
L 910.587755 232.878567 
L 919.324928 229.54232 
L 928.667731 225.974815 
L 937.565841 222.577115 
L 945.667737 219.483445 
L 953.43929 216.515916 
L 961.841884 213.307426 
L 971.570088 209.592758 
L 980.591018 206.14816 
L 988.680209 203.059341 
L 996.455997 200.090194 
L 1004.591774 196.983587 
L 1014.938315 193.032811 
L 1023.527257 189.753165 
L 1032.124669 186.470285 
L 1055.63838 177.491688 
L 1065.370819 173.775403 
L 1073.409188 170.705991 
L 1081.151094 167.749782 
L 1089.498631 164.562315 
L 1100.141634 160.498336 
L 1108.607756 157.265588 
L 1116.853648 154.116934 
L 1124.803078 151.081483 
L 1132.921915 147.981344 
L 1142.654355 144.265059 
L 1151.315295 140.957921 
L 1159.39178 137.873955 
L 1167.696965 134.70266 
L 1175.78192 131.615459 
L 1185.501655 127.904025 
L 1193.904249 124.695536 
L 1202.150141 121.546882 
L 1209.993691 118.55186 
L 1218.222643 115.409674 
L 1228.302367 111.56078 
L 1237.0226 108.231002 
L 1245.272727 105.080731 
" style="fill:none;stroke:#0000ff;stroke-linecap:square;stroke-width:1.5;"/>
   </g>
   <g id="line2d_15">
    <path clip-path="url(#pecfe820866)" d="M 230.727273 485.33638 
L 256.180695 485.312754 
L 264.807753 485.304747 
L 272.880003 485.297254 
L 283.188427 485.287686 
L 296.575826 485.27526 
L 305.037713 485.267405 
L 313.063376 485.259956 
L 325.853615 485.248084 
L 339.596769 485.235328 
L 347.762192 485.227749 
L 356.025026 485.220079 
L 368.84491 485.20818 
L 382.702414 485.195317 
L 391.121949 485.187502 
L 399.401723 485.179817 
L 411.810795 485.168299 
L 425.998643 485.15513 
L 434.519822 485.14722 
L 442.985943 485.139362 
L 454.619979 485.128564 
L 468.994174 485.115222 
L 477.443355 485.107379 
L 496.997174 485.089229 
L 512.912974 485.074456 
L 521.459564 485.066523 
L 529.815571 485.058767 
L 542.643926 485.04686 
L 556.404021 485.034088 
L 564.832026 485.026265 
L 573.12874 485.018564 
L 584.87289 485.007663 
L 599.103089 484.994455 
L 607.827557 484.986357 
L 625.187553 484.970243 
L 640.213966 484.956296 
L 648.671617 484.948446 
L 657.103858 484.940619 
L 670.508197 484.928177 
L 685.022153 484.914705 
L 693.522157 484.906815 
L 701.844282 484.899091 
L 713.474082 484.888296 
L 727.522169 484.875257 
L 735.895116 484.867485 
L 744.357003 484.859631 
L 756.135034 484.848698 
L 774.867228 484.831311 
L 783.460405 484.823335 
L 793.290254 484.814211 
L 801.599674 484.806498 
L 810.870479 484.797893 
L 819.08249 484.790271 
L 828.281298 484.781733 
L 837.073528 484.773572 
L 850.105172 484.761476 
L 857.982604 484.754164 
L 865.436518 484.747245 
L 873.013252 484.740213 
L 885.291034 484.728816 
L 894.777834 484.720011 
L 902.833143 484.712534 
L 910.587755 484.705336 
L 919.324928 484.697226 
L 928.667731 484.688554 
L 937.565841 484.680295 
L 945.667737 484.672775 
L 953.43929 484.665561 
L 961.841884 484.657762 
L 971.570088 484.648732 
L 980.591018 484.640359 
L 988.680209 484.632851 
L 996.455997 484.625633 
L 1004.591774 484.618082 
L 1014.938315 484.608478 
L 1023.527257 484.600506 
L 1032.124669 484.592526 
L 1055.63838 484.570701 
L 1065.370819 484.561667 
L 1073.409188 484.554206 
L 1081.151094 484.54702 
L 1089.498631 484.539272 
L 1100.141634 484.529393 
L 1108.607756 484.521535 
L 1116.853648 484.513881 
L 1124.803078 484.506502 
L 1132.921915 484.498966 
L 1142.654355 484.489933 
L 1151.315295 484.481894 
L 1159.39178 484.474397 
L 1167.696965 484.466688 
L 1175.78192 484.459184 
L 1185.501655 484.450162 
L 1193.904249 484.442363 
L 1202.150141 484.434709 
L 1209.993691 484.427429 
L 1218.222643 484.41979 
L 1228.302367 484.410434 
L 1237.0226 484.40234 
L 1245.272727 484.394683 
" style="fill:none;stroke:#008000;stroke-linecap:square;stroke-width:1.5;"/>
    <defs>
     <path d="M 0 3 
C 0.795609 3 1.55874 2.683901 2.12132 2.12132 
C 2.683901 1.55874 3 0.795609 3 0 
C 3 -0.795609 2.683901 -1.55874 2.12132 -2.12132 
C 1.55874 -2.683901 0.795609 -3 0 -3 
C -0.795609 -3 -1.55874 -2.683901 -2.12132 -2.12132 
C -2.683901 -1.55874 -3 -0.795609 -3 0 
C -3 0.795609 -2.683901 1.55874 -2.12132 2.12132 
C -1.55874 2.683901 -0.795609 3 0 3 
z
" id="mec70b4859f" style="stroke:#008000;"/>
    </defs>
    <g clip-path="url(#pecfe820866)">
     <use style="fill:#008000;stroke:#008000;" x="230.727273" xlink:href="#mec70b4859f" y="485.33638"/>
     <use style="fill:#008000;stroke:#008000;" x="256.180695" xlink:href="#mec70b4859f" y="485.312754"/>
     <use style="fill:#008000;stroke:#008000;" x="264.807753" xlink:href="#mec70b4859f" y="485.304747"/>
     <use style="fill:#008000;stroke:#008000;" x="272.880003" xlink:href="#mec70b4859f" y="485.297254"/>
     <use style="fill:#008000;stroke:#008000;" x="283.188427" xlink:href="#mec70b4859f" y="485.287686"/>
     <use style="fill:#008000;stroke:#008000;" x="296.575826" xlink:href="#mec70b4859f" y="485.27526"/>
     <use style="fill:#008000;stroke:#008000;" x="305.037713" xlink:href="#mec70b4859f" y="485.267405"/>
     <use style="fill:#008000;stroke:#008000;" x="313.063376" xlink:href="#mec70b4859f" y="485.259956"/>
     <use style="fill:#008000;stroke:#008000;" x="325.853615" xlink:href="#mec70b4859f" y="485.248084"/>
     <use style="fill:#008000;stroke:#008000;" x="339.596769" xlink:href="#mec70b4859f" y="485.235328"/>
     <use style="fill:#008000;stroke:#008000;" x="347.762192" xlink:href="#mec70b4859f" y="485.227749"/>
     <use style="fill:#008000;stroke:#008000;" x="356.025026" xlink:href="#mec70b4859f" y="485.220079"/>
     <use style="fill:#008000;stroke:#008000;" x="368.84491" xlink:href="#mec70b4859f" y="485.20818"/>
     <use style="fill:#008000;stroke:#008000;" x="382.702414" xlink:href="#mec70b4859f" y="485.195317"/>
     <use style="fill:#008000;stroke:#008000;" x="391.121949" xlink:href="#mec70b4859f" y="485.187502"/>
     <use style="fill:#008000;stroke:#008000;" x="399.401723" xlink:href="#mec70b4859f" y="485.179817"/>
     <use style="fill:#008000;stroke:#008000;" x="411.810795" xlink:href="#mec70b4859f" y="485.168299"/>
     <use style="fill:#008000;stroke:#008000;" x="425.998643" xlink:href="#mec70b4859f" y="485.15513"/>
     <use style="fill:#008000;stroke:#008000;" x="434.519822" xlink:href="#mec70b4859f" y="485.14722"/>
     <use style="fill:#008000;stroke:#008000;" x="442.985943" xlink:href="#mec70b4859f" y="485.139362"/>
     <use style="fill:#008000;stroke:#008000;" x="454.619979" xlink:href="#mec70b4859f" y="485.128564"/>
     <use style="fill:#008000;stroke:#008000;" x="468.994174" xlink:href="#mec70b4859f" y="485.115222"/>
     <use style="fill:#008000;stroke:#008000;" x="477.443355" xlink:href="#mec70b4859f" y="485.107379"/>
     <use style="fill:#008000;stroke:#008000;" x="496.997174" xlink:href="#mec70b4859f" y="485.089229"/>
     <use style="fill:#008000;stroke:#008000;" x="512.912974" xlink:href="#mec70b4859f" y="485.074456"/>
     <use style="fill:#008000;stroke:#008000;" x="521.459564" xlink:href="#mec70b4859f" y="485.066523"/>
     <use style="fill:#008000;stroke:#008000;" x="529.815571" xlink:href="#mec70b4859f" y="485.058767"/>
     <use style="fill:#008000;stroke:#008000;" x="542.643926" xlink:href="#mec70b4859f" y="485.04686"/>
     <use style="fill:#008000;stroke:#008000;" x="556.404021" xlink:href="#mec70b4859f" y="485.034088"/>
     <use style="fill:#008000;stroke:#008000;" x="564.832026" xlink:href="#mec70b4859f" y="485.026265"/>
     <use style="fill:#008000;stroke:#008000;" x="573.12874" xlink:href="#mec70b4859f" y="485.018564"/>
     <use style="fill:#008000;stroke:#008000;" x="584.87289" xlink:href="#mec70b4859f" y="485.007663"/>
     <use style="fill:#008000;stroke:#008000;" x="599.103089" xlink:href="#mec70b4859f" y="484.994455"/>
     <use style="fill:#008000;stroke:#008000;" x="607.827557" xlink:href="#mec70b4859f" y="484.986357"/>
     <use style="fill:#008000;stroke:#008000;" x="625.187553" xlink:href="#mec70b4859f" y="484.970243"/>
     <use style="fill:#008000;stroke:#008000;" x="640.213966" xlink:href="#mec70b4859f" y="484.956296"/>
     <use style="fill:#008000;stroke:#008000;" x="648.671617" xlink:href="#mec70b4859f" y="484.948446"/>
     <use style="fill:#008000;stroke:#008000;" x="657.103858" xlink:href="#mec70b4859f" y="484.940619"/>
     <use style="fill:#008000;stroke:#008000;" x="670.508197" xlink:href="#mec70b4859f" y="484.928177"/>
     <use style="fill:#008000;stroke:#008000;" x="685.022153" xlink:href="#mec70b4859f" y="484.914705"/>
     <use style="fill:#008000;stroke:#008000;" x="693.522157" xlink:href="#mec70b4859f" y="484.906815"/>
     <use style="fill:#008000;stroke:#008000;" x="701.844282" xlink:href="#mec70b4859f" y="484.899091"/>
     <use style="fill:#008000;stroke:#008000;" x="713.474082" xlink:href="#mec70b4859f" y="484.888296"/>
     <use style="fill:#008000;stroke:#008000;" x="727.522169" xlink:href="#mec70b4859f" y="484.875257"/>
     <use style="fill:#008000;stroke:#008000;" x="735.895116" xlink:href="#mec70b4859f" y="484.867485"/>
     <use style="fill:#008000;stroke:#008000;" x="744.357003" xlink:href="#mec70b4859f" y="484.859631"/>
     <use style="fill:#008000;stroke:#008000;" x="756.135034" xlink:href="#mec70b4859f" y="484.848698"/>
     <use style="fill:#008000;stroke:#008000;" x="774.867228" xlink:href="#mec70b4859f" y="484.831311"/>
     <use style="fill:#008000;stroke:#008000;" x="783.460405" xlink:href="#mec70b4859f" y="484.823335"/>
     <use style="fill:#008000;stroke:#008000;" x="793.290254" xlink:href="#mec70b4859f" y="484.814211"/>
     <use style="fill:#008000;stroke:#008000;" x="801.599674" xlink:href="#mec70b4859f" y="484.806498"/>
     <use style="fill:#008000;stroke:#008000;" x="810.870479" xlink:href="#mec70b4859f" y="484.797893"/>
     <use style="fill:#008000;stroke:#008000;" x="819.08249" xlink:href="#mec70b4859f" y="484.790271"/>
     <use style="fill:#008000;stroke:#008000;" x="828.281298" xlink:href="#mec70b4859f" y="484.781733"/>
     <use style="fill:#008000;stroke:#008000;" x="837.073528" xlink:href="#mec70b4859f" y="484.773572"/>
     <use style="fill:#008000;stroke:#008000;" x="850.105172" xlink:href="#mec70b4859f" y="484.761476"/>
     <use style="fill:#008000;stroke:#008000;" x="857.982604" xlink:href="#mec70b4859f" y="484.754164"/>
     <use style="fill:#008000;stroke:#008000;" x="865.436518" xlink:href="#mec70b4859f" y="484.747245"/>
     <use style="fill:#008000;stroke:#008000;" x="873.013252" xlink:href="#mec70b4859f" y="484.740213"/>
     <use style="fill:#008000;stroke:#008000;" x="885.291034" xlink:href="#mec70b4859f" y="484.728816"/>
     <use style="fill:#008000;stroke:#008000;" x="894.777834" xlink:href="#mec70b4859f" y="484.720011"/>
     <use style="fill:#008000;stroke:#008000;" x="902.833143" xlink:href="#mec70b4859f" y="484.712534"/>
     <use style="fill:#008000;stroke:#008000;" x="910.587755" xlink:href="#mec70b4859f" y="484.705336"/>
     <use style="fill:#008000;stroke:#008000;" x="919.324928" xlink:href="#mec70b4859f" y="484.697226"/>
     <use style="fill:#008000;stroke:#008000;" x="928.667731" xlink:href="#mec70b4859f" y="484.688554"/>
     <use style="fill:#008000;stroke:#008000;" x="937.565841" xlink:href="#mec70b4859f" y="484.680295"/>
     <use style="fill:#008000;stroke:#008000;" x="945.667737" xlink:href="#mec70b4859f" y="484.672775"/>
     <use style="fill:#008000;stroke:#008000;" x="953.43929" xlink:href="#mec70b4859f" y="484.665561"/>
     <use style="fill:#008000;stroke:#008000;" x="961.841884" xlink:href="#mec70b4859f" y="484.657762"/>
     <use style="fill:#008000;stroke:#008000;" x="971.570088" xlink:href="#mec70b4859f" y="484.648732"/>
     <use style="fill:#008000;stroke:#008000;" x="980.591018" xlink:href="#mec70b4859f" y="484.640359"/>
     <use style="fill:#008000;stroke:#008000;" x="988.680209" xlink:href="#mec70b4859f" y="484.632851"/>
     <use style="fill:#008000;stroke:#008000;" x="996.455997" xlink:href="#mec70b4859f" y="484.625633"/>
     <use style="fill:#008000;stroke:#008000;" x="1004.591774" xlink:href="#mec70b4859f" y="484.618082"/>
     <use style="fill:#008000;stroke:#008000;" x="1014.938315" xlink:href="#mec70b4859f" y="484.608478"/>
     <use style="fill:#008000;stroke:#008000;" x="1023.527257" xlink:href="#mec70b4859f" y="484.600506"/>
     <use style="fill:#008000;stroke:#008000;" x="1032.124669" xlink:href="#mec70b4859f" y="484.592526"/>
     <use style="fill:#008000;stroke:#008000;" x="1055.63838" xlink:href="#mec70b4859f" y="484.570701"/>
     <use style="fill:#008000;stroke:#008000;" x="1065.370819" xlink:href="#mec70b4859f" y="484.561667"/>
     <use style="fill:#008000;stroke:#008000;" x="1073.409188" xlink:href="#mec70b4859f" y="484.554206"/>
     <use style="fill:#008000;stroke:#008000;" x="1081.151094" xlink:href="#mec70b4859f" y="484.54702"/>
     <use style="fill:#008000;stroke:#008000;" x="1089.498631" xlink:href="#mec70b4859f" y="484.539272"/>
     <use style="fill:#008000;stroke:#008000;" x="1100.141634" xlink:href="#mec70b4859f" y="484.529393"/>
     <use style="fill:#008000;stroke:#008000;" x="1108.607756" xlink:href="#mec70b4859f" y="484.521535"/>
     <use style="fill:#008000;stroke:#008000;" x="1116.853648" xlink:href="#mec70b4859f" y="484.513881"/>
     <use style="fill:#008000;stroke:#008000;" x="1124.803078" xlink:href="#mec70b4859f" y="484.506502"/>
     <use style="fill:#008000;stroke:#008000;" x="1132.921915" xlink:href="#mec70b4859f" y="484.498966"/>
     <use style="fill:#008000;stroke:#008000;" x="1142.654355" xlink:href="#mec70b4859f" y="484.489933"/>
     <use style="fill:#008000;stroke:#008000;" x="1151.315295" xlink:href="#mec70b4859f" y="484.481894"/>
     <use style="fill:#008000;stroke:#008000;" x="1159.39178" xlink:href="#mec70b4859f" y="484.474397"/>
     <use style="fill:#008000;stroke:#008000;" x="1167.696965" xlink:href="#mec70b4859f" y="484.466688"/>
     <use style="fill:#008000;stroke:#008000;" x="1175.78192" xlink:href="#mec70b4859f" y="484.459184"/>
     <use style="fill:#008000;stroke:#008000;" x="1185.501655" xlink:href="#mec70b4859f" y="484.450162"/>
     <use style="fill:#008000;stroke:#008000;" x="1193.904249" xlink:href="#mec70b4859f" y="484.442363"/>
     <use style="fill:#008000;stroke:#008000;" x="1202.150141" xlink:href="#mec70b4859f" y="484.434709"/>
     <use style="fill:#008000;stroke:#008000;" x="1209.993691" xlink:href="#mec70b4859f" y="484.427429"/>
     <use style="fill:#008000;stroke:#008000;" x="1218.222643" xlink:href="#mec70b4859f" y="484.41979"/>
     <use style="fill:#008000;stroke:#008000;" x="1228.302367" xlink:href="#mec70b4859f" y="484.410434"/>
     <use style="fill:#008000;stroke:#008000;" x="1237.0226" xlink:href="#mec70b4859f" y="484.40234"/>
     <use style="fill:#008000;stroke:#008000;" x="1245.272727" xlink:href="#mec70b4859f" y="484.394683"/>
    </g>
   </g>
   <g id="patch_3">
    <path d="M 180 512.64 
L 180 69.12 
" style="fill:none;stroke:#000000;stroke-linecap:square;stroke-linejoin:miter;stroke-width:0.8;"/>
   </g>
   <g id="patch_4">
    <path d="M 1296 512.64 
L 1296 69.12 
" style="fill:none;stroke:#000000;stroke-linecap:square;stroke-linejoin:miter;stroke-width:0.8;"/>
   </g>
   <g id="patch_5">
    <path d="M 180 512.64 
L 1296 512.64 
" style="fill:none;stroke:#000000;stroke-linecap:square;stroke-linejoin:miter;stroke-width:0.8;"/>
   </g>
   <g id="patch_6">
    <path d="M 180 69.12 
L 1296 69.12 
" style="fill:none;stroke:#000000;stroke-linecap:square;stroke-linejoin:miter;stroke-width:0.8;"/>
   </g>
   <g id="text_12">
    <!-- 5000000.0 bit/s -->
    <defs>
     <path id="DejaVuSans-20"/>
     <path d="M 48.6875 27.296875 
Q 48.6875 37.203125 44.609375 42.84375 
Q 40.53125 48.484375 33.40625 48.484375 
Q 26.265625 48.484375 22.1875 42.84375 
Q 18.109375 37.203125 18.109375 27.296875 
Q 18.109375 17.390625 22.1875 11.75 
Q 26.265625 6.109375 33.40625 6.109375 
Q 40.53125 6.109375 44.609375 11.75 
Q 48.6875 17.390625 48.6875 27.296875 
z
M 18.109375 46.390625 
Q 20.953125 51.265625 25.265625 53.625 
Q 29.59375 56 35.59375 56 
Q 45.5625 56 51.78125 48.09375 
Q 58.015625 40.1875 58.015625 27.296875 
Q 58.015625 14.40625 51.78125 6.484375 
Q 45.5625 -1.421875 35.59375 -1.421875 
Q 29.59375 -1.421875 25.265625 0.953125 
Q 20.953125 3.328125 18.109375 8.203125 
L 18.109375 0 
L 9.078125 0 
L 9.078125 75.984375 
L 18.109375 75.984375 
z
" id="DejaVuSans-62"/>
     <path d="M 9.421875 54.6875 
L 18.40625 54.6875 
L 18.40625 0 
L 9.421875 0 
z
M 9.421875 75.984375 
L 18.40625 75.984375 
L 18.40625 64.59375 
L 9.421875 64.59375 
z
" id="DejaVuSans-69"/>
     <path d="M 18.3125 70.21875 
L 18.3125 54.6875 
L 36.8125 54.6875 
L 36.8125 47.703125 
L 18.3125 47.703125 
L 18.3125 18.015625 
Q 18.3125 11.328125 20.140625 9.421875 
Q 21.96875 7.515625 27.59375 7.515625 
L 36.8125 7.515625 
L 36.8125 0 
L 27.59375 0 
Q 17.1875 0 13.234375 3.875 
Q 9.28125 7.765625 9.28125 18.015625 
L 9.28125 47.703125 
L 2.6875 47.703125 
L 2.6875 54.6875 
L 9.28125 54.6875 
L 9.28125 70.21875 
z
" id="DejaVuSans-74"/>
     <path d="M 25.390625 72.90625 
L 33.6875 72.90625 
L 8.296875 -9.28125 
L 0 -9.28125 
z
" id="DejaVuSans-2f"/>
     <path d="M 44.28125 53.078125 
L 44.28125 44.578125 
Q 40.484375 46.53125 36.375 47.5 
Q 32.28125 48.484375 27.875 48.484375 
Q 21.1875 48.484375 17.84375 46.4375 
Q 14.5 44.390625 14.5 40.28125 
Q 14.5 37.15625 16.890625 35.375 
Q 19.28125 33.59375 26.515625 31.984375 
L 29.59375 31.296875 
Q 39.15625 29.25 43.1875 25.515625 
Q 47.21875 21.78125 47.21875 15.09375 
Q 47.21875 7.46875 41.1875 3.015625 
Q 35.15625 -1.421875 24.609375 -1.421875 
Q 20.21875 -1.421875 15.453125 -0.5625 
Q 10.6875 0.296875 5.421875 2 
L 5.421875 11.28125 
Q 10.40625 8.6875 15.234375 7.390625 
Q 20.0625 6.109375 24.8125 6.109375 
Q 31.15625 6.109375 34.5625 8.28125 
Q 37.984375 10.453125 37.984375 14.40625 
Q 37.984375 18.0625 35.515625 20.015625 
Q 33.0625 21.96875 24.703125 23.78125 
L 21.578125 24.515625 
Q 13.234375 26.265625 9.515625 29.90625 
Q 5.8125 33.546875 5.8125 39.890625 
Q 5.8125 47.609375 11.28125 51.796875 
Q 16.75 56 26.8125 56 
Q 31.78125 56 36.171875 55.265625 
Q 40.578125 54.546875 44.28125 53.078125 
z
" id="DejaVuSans-73"/>
    </defs>
    <g transform="translate(690.67125 63.12)scale(0.12 -0.12)">
     <use xlink:href="#DejaVuSans-35"/>
     <use x="63.623047" xlink:href="#DejaVuSans-30"/>
     <use x="127.246094" xlink:href="#DejaVuSans-30"/>
     <use x="190.869141" xlink:href="#DejaVuSans-30"/>
     <use x="254.492188" xlink:href="#DejaVuSans-30"/>
     <use x="318.115234" xlink:href="#DejaVuSans-30"/>
     <use x="381.738281" xlink:href="#DejaVuSans-30"/>
     <use x="445.361328" xlink:href="#DejaVuSans-2e"/>
     <use x="477.148438" xlink:href="#DejaVuSans-30"/>
     <use x="540.771484" xlink:href="#DejaVuSans-20"/>
     <use x="572.558594" xlink:href="#DejaVuSans-62"/>
     <use x="636.035156" xlink:href="#DejaVuSans-69"/>
     <use x="663.818359" xlink:href="#DejaVuSans-74"/>
     <use x="703.027344" xlink:href="#DejaVuSans-2f"/>
     <use x="736.71875" xlink:href="#DejaVuSans-73"/>
    </g>
   </g>
   <g id="legend_1">
    <g id="patch_7">
     <path d="M 1173.520313 135.8325 
L 1289 135.8325 
Q 1291 135.8325 1291 133.8325 
L 1291 76.12 
Q 1291 74.12 1289 74.12 
L 1173.520313 74.12 
Q 1171.520313 74.12 1171.520313 76.12 
L 1171.520313 133.8325 
Q 1171.520313 135.8325 1173.520313 135.8325 
z
" style="fill:#ffffff;opacity:0.8;stroke:#cccccc;stroke-linejoin:miter;"/>
    </g>
    <g id="line2d_16">
     <path d="M 1175.520313 82.218437 
L 1195.520313 82.218437 
" style="fill:none;stroke:#ff0000;stroke-dasharray:5.55,2.4;stroke-dashoffset:0;stroke-width:1.5;"/>
    </g>
    <g id="line2d_17">
     <g>
      <use style="fill:#ff0000;stroke:#ff0000;stroke-linejoin:miter;" x="1185.520313" xlink:href="#m8a123827ae" y="82.218437"/>
     </g>
    </g>
    <g id="text_13">
     <!-- tcpdump -->
     <defs>
      <path d="M 48.78125 52.59375 
L 48.78125 44.1875 
Q 44.96875 46.296875 41.140625 47.34375 
Q 37.3125 48.390625 33.40625 48.390625 
Q 24.65625 48.390625 19.8125 42.84375 
Q 14.984375 37.3125 14.984375 27.296875 
Q 14.984375 17.28125 19.8125 11.734375 
Q 24.65625 6.203125 33.40625 6.203125 
Q 37.3125 6.203125 41.140625 7.25 
Q 44.96875 8.296875 48.78125 10.40625 
L 48.78125 2.09375 
Q 45.015625 0.34375 40.984375 -0.53125 
Q 36.96875 -1.421875 32.421875 -1.421875 
Q 20.0625 -1.421875 12.78125 6.34375 
Q 5.515625 14.109375 5.515625 27.296875 
Q 5.515625 40.671875 12.859375 48.328125 
Q 20.21875 56 33.015625 56 
Q 37.15625 56 41.109375 55.140625 
Q 45.0625 54.296875 48.78125 52.59375 
z
" id="DejaVuSans-63"/>
      <path d="M 18.109375 8.203125 
L 18.109375 -20.796875 
L 9.078125 -20.796875 
L 9.078125 54.6875 
L 18.109375 54.6875 
L 18.109375 46.390625 
Q 20.953125 51.265625 25.265625 53.625 
Q 29.59375 56 35.59375 56 
Q 45.5625 56 51.78125 48.09375 
Q 58.015625 40.1875 58.015625 27.296875 
Q 58.015625 14.40625 51.78125 6.484375 
Q 45.5625 -1.421875 35.59375 -1.421875 
Q 29.59375 -1.421875 25.265625 0.953125 
Q 20.953125 3.328125 18.109375 8.203125 
z
M 48.6875 27.296875 
Q 48.6875 37.203125 44.609375 42.84375 
Q 40.53125 48.484375 33.40625 48.484375 
Q 26.265625 48.484375 22.1875 42.84375 
Q 18.109375 37.203125 18.109375 27.296875 
Q 18.109375 17.390625 22.1875 11.75 
Q 26.265625 6.109375 33.40625 6.109375 
Q 40.53125 6.109375 44.609375 11.75 
Q 48.6875 17.390625 48.6875 27.296875 
z
" id="DejaVuSans-70"/>
      <path d="M 45.40625 46.390625 
L 45.40625 75.984375 
L 54.390625 75.984375 
L 54.390625 0 
L 45.40625 0 
L 45.40625 8.203125 
Q 42.578125 3.328125 38.25 0.953125 
Q 33.9375 -1.421875 27.875 -1.421875 
Q 17.96875 -1.421875 11.734375 6.484375 
Q 5.515625 14.40625 5.515625 27.296875 
Q 5.515625 40.1875 11.734375 48.09375 
Q 17.96875 56 27.875 56 
Q 33.9375 56 38.25 53.625 
Q 42.578125 51.265625 45.40625 46.390625 
z
M 14.796875 27.296875 
Q 14.796875 17.390625 18.875 11.75 
Q 22.953125 6.109375 30.078125 6.109375 
Q 37.203125 6.109375 41.296875 11.75 
Q 45.40625 17.390625 45.40625 27.296875 
Q 45.40625 37.203125 41.296875 42.84375 
Q 37.203125 48.484375 30.078125 48.484375 
Q 22.953125 48.484375 18.875 42.84375 
Q 14.796875 37.203125 14.796875 27.296875 
z
" id="DejaVuSans-64"/>
      <path d="M 8.5 21.578125 
L 8.5 54.6875 
L 17.484375 54.6875 
L 17.484375 21.921875 
Q 17.484375 14.15625 20.5 10.265625 
Q 23.53125 6.390625 29.59375 6.390625 
Q 36.859375 6.390625 41.078125 11.03125 
Q 45.3125 15.671875 45.3125 23.6875 
L 45.3125 54.6875 
L 54.296875 54.6875 
L 54.296875 0 
L 45.3125 0 
L 45.3125 8.40625 
Q 42.046875 3.421875 37.71875 1 
Q 33.40625 -1.421875 27.6875 -1.421875 
Q 18.265625 -1.421875 13.375 4.4375 
Q 8.5 10.296875 8.5 21.578125 
z
M 31.109375 56 
z
" id="DejaVuSans-75"/>
      <path d="M 52 44.1875 
Q 55.375 50.25 60.0625 53.125 
Q 64.75 56 71.09375 56 
Q 79.640625 56 84.28125 50.015625 
Q 88.921875 44.046875 88.921875 33.015625 
L 88.921875 0 
L 79.890625 0 
L 79.890625 32.71875 
Q 79.890625 40.578125 77.09375 44.375 
Q 74.3125 48.1875 68.609375 48.1875 
Q 61.625 48.1875 57.5625 43.546875 
Q 53.515625 38.921875 53.515625 30.90625 
L 53.515625 0 
L 44.484375 0 
L 44.484375 32.71875 
Q 44.484375 40.625 41.703125 44.40625 
Q 38.921875 48.1875 33.109375 48.1875 
Q 26.21875 48.1875 22.15625 43.53125 
Q 18.109375 38.875 18.109375 30.90625 
L 18.109375 0 
L 9.078125 0 
L 9.078125 54.6875 
L 18.109375 54.6875 
L 18.109375 46.1875 
Q 21.1875 51.21875 25.484375 53.609375 
Q 29.78125 56 35.6875 56 
Q 41.65625 56 45.828125 52.96875 
Q 50 49.953125 52 44.1875 
z
" id="DejaVuSans-6d"/>
     </defs>
     <g transform="translate(1203.520313 85.718437)scale(0.1 -0.1)">
      <use xlink:href="#DejaVuSans-74"/>
      <use x="39.208984" xlink:href="#DejaVuSans-63"/>
      <use x="94.189453" xlink:href="#DejaVuSans-70"/>
      <use x="157.666016" xlink:href="#DejaVuSans-64"/>
      <use x="221.142578" xlink:href="#DejaVuSans-75"/>
      <use x="284.521484" xlink:href="#DejaVuSans-6d"/>
      <use x="381.933594" xlink:href="#DejaVuSans-70"/>
     </g>
    </g>
    <g id="line2d_18">
     <path d="M 1175.520313 96.896563 
L 1195.520313 96.896563 
" style="fill:none;stroke:#800080;stroke-dasharray:9.6,2.4,1.5,2.4;stroke-dashoffset:0;stroke-width:1.5;"/>
    </g>
    <g id="line2d_19">
     <g>
      <use style="fill:#800080;stroke:#800080;" x="1185.520313" xlink:href="#m365da466c4" y="96.896563"/>
     </g>
    </g>
    <g id="text_14">
     <!-- filtered tcpdump -->
     <defs>
      <path d="M 37.109375 75.984375 
L 37.109375 68.5 
L 28.515625 68.5 
Q 23.6875 68.5 21.796875 66.546875 
Q 19.921875 64.59375 19.921875 59.515625 
L 19.921875 54.6875 
L 34.71875 54.6875 
L 34.71875 47.703125 
L 19.921875 47.703125 
L 19.921875 0 
L 10.890625 0 
L 10.890625 47.703125 
L 2.296875 47.703125 
L 2.296875 54.6875 
L 10.890625 54.6875 
L 10.890625 58.5 
Q 10.890625 67.625 15.140625 71.796875 
Q 19.390625 75.984375 28.609375 75.984375 
z
" id="DejaVuSans-66"/>
      <path d="M 9.421875 75.984375 
L 18.40625 75.984375 
L 18.40625 0 
L 9.421875 0 
z
" id="DejaVuSans-6c"/>
      <path d="M 56.203125 29.59375 
L 56.203125 25.203125 
L 14.890625 25.203125 
Q 15.484375 15.921875 20.484375 11.0625 
Q 25.484375 6.203125 34.421875 6.203125 
Q 39.59375 6.203125 44.453125 7.46875 
Q 49.3125 8.734375 54.109375 11.28125 
L 54.109375 2.78125 
Q 49.265625 0.734375 44.1875 -0.34375 
Q 39.109375 -1.421875 33.890625 -1.421875 
Q 20.796875 -1.421875 13.15625 6.1875 
Q 5.515625 13.8125 5.515625 26.8125 
Q 5.515625 40.234375 12.765625 48.109375 
Q 20.015625 56 32.328125 56 
Q 43.359375 56 49.78125 48.890625 
Q 56.203125 41.796875 56.203125 29.59375 
z
M 47.21875 32.234375 
Q 47.125 39.59375 43.09375 43.984375 
Q 39.0625 48.390625 32.421875 48.390625 
Q 24.90625 48.390625 20.390625 44.140625 
Q 15.875 39.890625 15.1875 32.171875 
z
" id="DejaVuSans-65"/>
      <path d="M 41.109375 46.296875 
Q 39.59375 47.171875 37.8125 47.578125 
Q 36.03125 48 33.890625 48 
Q 26.265625 48 22.1875 43.046875 
Q 18.109375 38.09375 18.109375 28.8125 
L 18.109375 0 
L 9.078125 0 
L 9.078125 54.6875 
L 18.109375 54.6875 
L 18.109375 46.1875 
Q 20.953125 51.171875 25.484375 53.578125 
Q 30.03125 56 36.53125 56 
Q 37.453125 56 38.578125 55.875 
Q 39.703125 55.765625 41.0625 55.515625 
z
" id="DejaVuSans-72"/>
     </defs>
     <g transform="translate(1203.520313 100.396563)scale(0.1 -0.1)">
      <use xlink:href="#DejaVuSans-66"/>
      <use x="35.205078" xlink:href="#DejaVuSans-69"/>
      <use x="62.988281" xlink:href="#DejaVuSans-6c"/>
      <use x="90.771484" xlink:href="#DejaVuSans-74"/>
      <use x="129.980469" xlink:href="#DejaVuSans-65"/>
      <use x="191.503906" xlink:href="#DejaVuSans-72"/>
      <use x="232.585938" xlink:href="#DejaVuSans-65"/>
      <use x="294.109375" xlink:href="#DejaVuSans-64"/>
      <use x="357.585938" xlink:href="#DejaVuSans-20"/>
      <use x="389.373047" xlink:href="#DejaVuSans-74"/>
      <use x="428.582031" xlink:href="#DejaVuSans-63"/>
      <use x="483.5625" xlink:href="#DejaVuSans-70"/>
      <use x="547.039062" xlink:href="#DejaVuSans-64"/>
      <use x="610.515625" xlink:href="#DejaVuSans-75"/>
      <use x="673.894531" xlink:href="#DejaVuSans-6d"/>
      <use x="771.306641" xlink:href="#DejaVuSans-70"/>
     </g>
    </g>
    <g id="line2d_20">
     <path d="M 1175.520313 111.574687 
L 1195.520313 111.574687 
" style="fill:none;stroke:#0000ff;stroke-linecap:square;stroke-width:1.5;"/>
    </g>
    <g id="line2d_21"/>
    <g id="text_15">
     <!-- OLS -->
     <defs>
      <path d="M 39.40625 66.21875 
Q 28.65625 66.21875 22.328125 58.203125 
Q 16.015625 50.203125 16.015625 36.375 
Q 16.015625 22.609375 22.328125 14.59375 
Q 28.65625 6.59375 39.40625 6.59375 
Q 50.140625 6.59375 56.421875 14.59375 
Q 62.703125 22.609375 62.703125 36.375 
Q 62.703125 50.203125 56.421875 58.203125 
Q 50.140625 66.21875 39.40625 66.21875 
z
M 39.40625 74.21875 
Q 54.734375 74.21875 63.90625 63.9375 
Q 73.09375 53.65625 73.09375 36.375 
Q 73.09375 19.140625 63.90625 8.859375 
Q 54.734375 -1.421875 39.40625 -1.421875 
Q 24.03125 -1.421875 14.8125 8.828125 
Q 5.609375 19.09375 5.609375 36.375 
Q 5.609375 53.65625 14.8125 63.9375 
Q 24.03125 74.21875 39.40625 74.21875 
z
" id="DejaVuSans-4f"/>
      <path d="M 9.8125 72.90625 
L 19.671875 72.90625 
L 19.671875 8.296875 
L 55.171875 8.296875 
L 55.171875 0 
L 9.8125 0 
z
" id="DejaVuSans-4c"/>
      <path d="M 53.515625 70.515625 
L 53.515625 60.890625 
Q 47.90625 63.578125 42.921875 64.890625 
Q 37.9375 66.21875 33.296875 66.21875 
Q 25.25 66.21875 20.875 63.09375 
Q 16.5 59.96875 16.5 54.203125 
Q 16.5 49.359375 19.40625 46.890625 
Q 22.3125 44.4375 30.421875 42.921875 
L 36.375 41.703125 
Q 47.40625 39.59375 52.65625 34.296875 
Q 57.90625 29 57.90625 20.125 
Q 57.90625 9.515625 50.796875 4.046875 
Q 43.703125 -1.421875 29.984375 -1.421875 
Q 24.8125 -1.421875 18.96875 -0.25 
Q 13.140625 0.921875 6.890625 3.21875 
L 6.890625 13.375 
Q 12.890625 10.015625 18.65625 8.296875 
Q 24.421875 6.59375 29.984375 6.59375 
Q 38.421875 6.59375 43.015625 9.90625 
Q 47.609375 13.234375 47.609375 19.390625 
Q 47.609375 24.75 44.3125 27.78125 
Q 41.015625 30.8125 33.5 32.328125 
L 27.484375 33.5 
Q 16.453125 35.6875 11.515625 40.375 
Q 6.59375 45.0625 6.59375 53.421875 
Q 6.59375 63.09375 13.40625 68.65625 
Q 20.21875 74.21875 32.171875 74.21875 
Q 37.3125 74.21875 42.625 73.28125 
Q 47.953125 72.359375 53.515625 70.515625 
z
" id="DejaVuSans-53"/>
     </defs>
     <g transform="translate(1203.520313 115.074687)scale(0.1 -0.1)">
      <use xlink:href="#DejaVuSans-4f"/>
      <use x="78.710938" xlink:href="#DejaVuSans-4c"/>
      <use x="134.423828" xlink:href="#DejaVuSans-53"/>
     </g>
    </g>
    <g id="line2d_22">
     <path d="M 1175.520313 126.252813 
L 1195.520313 126.252813 
" style="fill:none;stroke:#008000;stroke-linecap:square;stroke-width:1.5;"/>
    </g>
    <g id="line2d_23">
     <g>
      <use style="fill:#008000;stroke:#008000;" x="1185.520313" xlink:href="#mec70b4859f" y="126.252813"/>
     </g>
    </g>
    <g id="text_16">
     <!-- IRLS -->
     <defs>
      <path d="M 9.8125 72.90625 
L 19.671875 72.90625 
L 19.671875 0 
L 9.8125 0 
z
" id="DejaVuSans-49"/>
      <path d="M 44.390625 34.1875 
Q 47.5625 33.109375 50.5625 29.59375 
Q 53.5625 26.078125 56.59375 19.921875 
L 66.609375 0 
L 56 0 
L 46.6875 18.703125 
Q 43.0625 26.03125 39.671875 28.421875 
Q 36.28125 30.8125 30.421875 30.8125 
L 19.671875 30.8125 
L 19.671875 0 
L 9.8125 0 
L 9.8125 72.90625 
L 32.078125 72.90625 
Q 44.578125 72.90625 50.734375 67.671875 
Q 56.890625 62.453125 56.890625 51.90625 
Q 56.890625 45.015625 53.6875 40.46875 
Q 50.484375 35.9375 44.390625 34.1875 
z
M 19.671875 64.796875 
L 19.671875 38.921875 
L 32.078125 38.921875 
Q 39.203125 38.921875 42.84375 42.21875 
Q 46.484375 45.515625 46.484375 51.90625 
Q 46.484375 58.296875 42.84375 61.546875 
Q 39.203125 64.796875 32.078125 64.796875 
z
" id="DejaVuSans-52"/>
     </defs>
     <g transform="translate(1203.520313 129.752813)scale(0.1 -0.1)">
      <use xlink:href="#DejaVuSans-49"/>
      <use x="29.492188" xlink:href="#DejaVuSans-52"/>
      <use x="98.974609" xlink:href="#DejaVuSans-4c"/>
      <use x="154.6875" xlink:href="#DejaVuSans-53"/>
     </g>
    </g>
   </g>
  </g>
 </g>
 <defs>
  <clipPath id="pecfe820866">
   <rect height="443.52" width="1116" x="180" y="69.12"/>
  </clipPath>
 </defs>
</svg>
