<?xml version="1.0" encoding="utf-8" standalone="no"?>
<!DOCTYPE svg PUBLIC "-//W3C//DTD SVG 1.1//EN"
  "http://www.w3.org/Graphics/SVG/1.1/DTD/svg11.dtd">
<!-- Created with matplotlib (http://matplotlib.org/) -->
<svg height="576pt" version="1.1" viewBox="0 0 1440 576" width="1440pt" xmlns="http://www.w3.org/2000/svg" xmlns:xlink="http://www.w3.org/1999/xlink">
 <defs>
  <style type="text/css">
*{stroke-linecap:butt;stroke-linejoin:round;}
  </style>
 </defs>
 <g id="figure_1">
  <g id="patch_1">
   <path d="M 0 576 
L 1440 576 
L 1440 0 
L 0 0 
z
" style="fill:#ffffff;"/>
  </g>
  <g id="axes_1">
   <g id="patch_2">
    <path d="M 180 512.64 
L 1296 512.64 
L 1296 69.12 
L 180 69.12 
z
" style="fill:#ffffff;"/>
   </g>
   <g id="matplotlib.axis_1">
    <g id="xtick_1">
     <g id="line2d_1">
      <defs>
       <path d="M 0 0 
L 0 3.5 
" id="m2fadc6581e" style="stroke:#000000;stroke-width:0.8;"/>
      </defs>
      <g>
       <use style="stroke:#000000;stroke-width:0.8;" x="230.727273" xlink:href="#m2fadc6581e" y="512.64"/>
      </g>
     </g>
     <g id="text_1">
      <!-- 0.00 -->
      <defs>
       <path d="M 31.78125 66.40625 
Q 24.171875 66.40625 20.328125 58.90625 
Q 16.5 51.421875 16.5 36.375 
Q 16.5 21.390625 20.328125 13.890625 
Q 24.171875 6.390625 31.78125 6.390625 
Q 39.453125 6.390625 43.28125 13.890625 
Q 47.125 21.390625 47.125 36.375 
Q 47.125 51.421875 43.28125 58.90625 
Q 39.453125 66.40625 31.78125 66.40625 
z
M 31.78125 74.21875 
Q 44.046875 74.21875 50.515625 64.515625 
Q 56.984375 54.828125 56.984375 36.375 
Q 56.984375 17.96875 50.515625 8.265625 
Q 44.046875 -1.421875 31.78125 -1.421875 
Q 19.53125 -1.421875 13.0625 8.265625 
Q 6.59375 17.96875 6.59375 36.375 
Q 6.59375 54.828125 13.0625 64.515625 
Q 19.53125 74.21875 31.78125 74.21875 
z
" id="DejaVuSans-30"/>
       <path d="M 10.6875 12.40625 
L 21 12.40625 
L 21 0 
L 10.6875 0 
z
" id="DejaVuSans-2e"/>
      </defs>
      <g transform="translate(219.59446 527.238438)scale(0.1 -0.1)">
       <use xlink:href="#DejaVuSans-30"/>
       <use x="63.623047" xlink:href="#DejaVuSans-2e"/>
       <use x="95.410156" xlink:href="#DejaVuSans-30"/>
       <use x="159.033203" xlink:href="#DejaVuSans-30"/>
      </g>
     </g>
    </g>
    <g id="xtick_2">
     <g id="line2d_2">
      <g>
       <use style="stroke:#000000;stroke-width:0.8;" x="462.073434" xlink:href="#m2fadc6581e" y="512.64"/>
      </g>
     </g>
     <g id="text_2">
      <!-- 0.05 -->
      <defs>
       <path d="M 10.796875 72.90625 
L 49.515625 72.90625 
L 49.515625 64.59375 
L 19.828125 64.59375 
L 19.828125 46.734375 
Q 21.96875 47.46875 24.109375 47.828125 
Q 26.265625 48.1875 28.421875 48.1875 
Q 40.625 48.1875 47.75 41.5 
Q 54.890625 34.8125 54.890625 23.390625 
Q 54.890625 11.625 47.5625 5.09375 
Q 40.234375 -1.421875 26.90625 -1.421875 
Q 22.3125 -1.421875 17.546875 -0.640625 
Q 12.796875 0.140625 7.71875 1.703125 
L 7.71875 11.625 
Q 12.109375 9.234375 16.796875 8.0625 
Q 21.484375 6.890625 26.703125 6.890625 
Q 35.15625 6.890625 40.078125 11.328125 
Q 45.015625 15.765625 45.015625 23.390625 
Q 45.015625 31 40.078125 35.4375 
Q 35.15625 39.890625 26.703125 39.890625 
Q 22.75 39.890625 18.8125 39.015625 
Q 14.890625 38.140625 10.796875 36.28125 
z
" id="DejaVuSans-35"/>
      </defs>
      <g transform="translate(450.940621 527.238438)scale(0.1 -0.1)">
       <use xlink:href="#DejaVuSans-30"/>
       <use x="63.623047" xlink:href="#DejaVuSans-2e"/>
       <use x="95.410156" xlink:href="#DejaVuSans-30"/>
       <use x="159.033203" xlink:href="#DejaVuSans-35"/>
      </g>
     </g>
    </g>
    <g id="xtick_3">
     <g id="line2d_3">
      <g>
       <use style="stroke:#000000;stroke-width:0.8;" x="693.419595" xlink:href="#m2fadc6581e" y="512.64"/>
      </g>
     </g>
     <g id="text_3">
      <!-- 0.10 -->
      <defs>
       <path d="M 12.40625 8.296875 
L 28.515625 8.296875 
L 28.515625 63.921875 
L 10.984375 60.40625 
L 10.984375 69.390625 
L 28.421875 72.90625 
L 38.28125 72.90625 
L 38.28125 8.296875 
L 54.390625 8.296875 
L 54.390625 0 
L 12.40625 0 
z
" id="DejaVuSans-31"/>
      </defs>
      <g transform="translate(682.286782 527.238438)scale(0.1 -0.1)">
       <use xlink:href="#DejaVuSans-30"/>
       <use x="63.623047" xlink:href="#DejaVuSans-2e"/>
       <use x="95.410156" xlink:href="#DejaVuSans-31"/>
       <use x="159.033203" xlink:href="#DejaVuSans-30"/>
      </g>
     </g>
    </g>
    <g id="xtick_4">
     <g id="line2d_4">
      <g>
       <use style="stroke:#000000;stroke-width:0.8;" x="924.765756" xlink:href="#m2fadc6581e" y="512.64"/>
      </g>
     </g>
     <g id="text_4">
      <!-- 0.15 -->
      <g transform="translate(913.632943 527.238438)scale(0.1 -0.1)">
       <use xlink:href="#DejaVuSans-30"/>
       <use x="63.623047" xlink:href="#DejaVuSans-2e"/>
       <use x="95.410156" xlink:href="#DejaVuSans-31"/>
       <use x="159.033203" xlink:href="#DejaVuSans-35"/>
      </g>
     </g>
    </g>
    <g id="xtick_5">
     <g id="line2d_5">
      <g>
       <use style="stroke:#000000;stroke-width:0.8;" x="1156.111917" xlink:href="#m2fadc6581e" y="512.64"/>
      </g>
     </g>
     <g id="text_5">
      <!-- 0.20 -->
      <defs>
       <path d="M 19.1875 8.296875 
L 53.609375 8.296875 
L 53.609375 0 
L 7.328125 0 
L 7.328125 8.296875 
Q 12.9375 14.109375 22.625 23.890625 
Q 32.328125 33.6875 34.8125 36.53125 
Q 39.546875 41.84375 41.421875 45.53125 
Q 43.3125 49.21875 43.3125 52.78125 
Q 43.3125 58.59375 39.234375 62.25 
Q 35.15625 65.921875 28.609375 65.921875 
Q 23.96875 65.921875 18.8125 64.3125 
Q 13.671875 62.703125 7.8125 59.421875 
L 7.8125 69.390625 
Q 13.765625 71.78125 18.9375 73 
Q 24.125 74.21875 28.421875 74.21875 
Q 39.75 74.21875 46.484375 68.546875 
Q 53.21875 62.890625 53.21875 53.421875 
Q 53.21875 48.921875 51.53125 44.890625 
Q 49.859375 40.875 45.40625 35.40625 
Q 44.1875 33.984375 37.640625 27.21875 
Q 31.109375 20.453125 19.1875 8.296875 
z
" id="DejaVuSans-32"/>
      </defs>
      <g transform="translate(1144.979104 527.238438)scale(0.1 -0.1)">
       <use xlink:href="#DejaVuSans-30"/>
       <use x="63.623047" xlink:href="#DejaVuSans-2e"/>
       <use x="95.410156" xlink:href="#DejaVuSans-32"/>
       <use x="159.033203" xlink:href="#DejaVuSans-30"/>
      </g>
     </g>
    </g>
   </g>
   <g id="matplotlib.axis_2">
    <g id="ytick_1">
     <g id="line2d_6">
      <defs>
       <path d="M 0 0 
L -3.5 0 
" id="m8c5cca615b" style="stroke:#000000;stroke-width:0.8;"/>
      </defs>
      <g>
       <use style="stroke:#000000;stroke-width:0.8;" x="180" xlink:href="#m8c5cca615b" y="507.354573"/>
      </g>
     </g>
     <g id="text_6">
      <!-- 0.5 -->
      <g transform="translate(157.096875 511.153791)scale(0.1 -0.1)">
       <use xlink:href="#DejaVuSans-30"/>
       <use x="63.623047" xlink:href="#DejaVuSans-2e"/>
       <use x="95.410156" xlink:href="#DejaVuSans-35"/>
      </g>
     </g>
    </g>
    <g id="ytick_2">
     <g id="line2d_7">
      <g>
       <use style="stroke:#000000;stroke-width:0.8;" x="180" xlink:href="#m8c5cca615b" y="424.23743"/>
      </g>
     </g>
     <g id="text_7">
      <!-- 1.0 -->
      <g transform="translate(157.096875 428.036649)scale(0.1 -0.1)">
       <use xlink:href="#DejaVuSans-31"/>
       <use x="63.623047" xlink:href="#DejaVuSans-2e"/>
       <use x="95.410156" xlink:href="#DejaVuSans-30"/>
      </g>
     </g>
    </g>
    <g id="ytick_3">
     <g id="line2d_8">
      <g>
       <use style="stroke:#000000;stroke-width:0.8;" x="180" xlink:href="#m8c5cca615b" y="341.120287"/>
      </g>
     </g>
     <g id="text_8">
      <!-- 1.5 -->
      <g transform="translate(157.096875 344.919506)scale(0.1 -0.1)">
       <use xlink:href="#DejaVuSans-31"/>
       <use x="63.623047" xlink:href="#DejaVuSans-2e"/>
       <use x="95.410156" xlink:href="#DejaVuSans-35"/>
      </g>
     </g>
    </g>
    <g id="ytick_4">
     <g id="line2d_9">
      <g>
       <use style="stroke:#000000;stroke-width:0.8;" x="180" xlink:href="#m8c5cca615b" y="258.003145"/>
      </g>
     </g>
     <g id="text_9">
      <!-- 2.0 -->
      <g transform="translate(157.096875 261.802364)scale(0.1 -0.1)">
       <use xlink:href="#DejaVuSans-32"/>
       <use x="63.623047" xlink:href="#DejaVuSans-2e"/>
       <use x="95.410156" xlink:href="#DejaVuSans-30"/>
      </g>
     </g>
    </g>
    <g id="ytick_5">
     <g id="line2d_10">
      <g>
       <use style="stroke:#000000;stroke-width:0.8;" x="180" xlink:href="#m8c5cca615b" y="174.886002"/>
      </g>
     </g>
     <g id="text_10">
      <!-- 2.5 -->
      <g transform="translate(157.096875 178.685221)scale(0.1 -0.1)">
       <use xlink:href="#DejaVuSans-32"/>
       <use x="63.623047" xlink:href="#DejaVuSans-2e"/>
       <use x="95.410156" xlink:href="#DejaVuSans-35"/>
      </g>
     </g>
    </g>
    <g id="ytick_6">
     <g id="line2d_11">
      <g>
       <use style="stroke:#000000;stroke-width:0.8;" x="180" xlink:href="#m8c5cca615b" y="91.76886"/>
      </g>
     </g>
     <g id="text_11">
      <!-- 3.0 -->
      <defs>
       <path d="M 40.578125 39.3125 
Q 47.65625 37.796875 51.625 33 
Q 55.609375 28.21875 55.609375 21.1875 
Q 55.609375 10.40625 48.1875 4.484375 
Q 40.765625 -1.421875 27.09375 -1.421875 
Q 22.515625 -1.421875 17.65625 -0.515625 
Q 12.796875 0.390625 7.625 2.203125 
L 7.625 11.71875 
Q 11.71875 9.328125 16.59375 8.109375 
Q 21.484375 6.890625 26.8125 6.890625 
Q 36.078125 6.890625 40.9375 10.546875 
Q 45.796875 14.203125 45.796875 21.1875 
Q 45.796875 27.640625 41.28125 31.265625 
Q 36.765625 34.90625 28.71875 34.90625 
L 20.21875 34.90625 
L 20.21875 43.015625 
L 29.109375 43.015625 
Q 36.375 43.015625 40.234375 45.921875 
Q 44.09375 48.828125 44.09375 54.296875 
Q 44.09375 59.90625 40.109375 62.90625 
Q 36.140625 65.921875 28.71875 65.921875 
Q 24.65625 65.921875 20.015625 65.03125 
Q 15.375 64.15625 9.8125 62.3125 
L 9.8125 71.09375 
Q 15.4375 72.65625 20.34375 73.4375 
Q 25.25 74.21875 29.59375 74.21875 
Q 40.828125 74.21875 47.359375 69.109375 
Q 53.90625 64.015625 53.90625 55.328125 
Q 53.90625 49.265625 50.4375 45.09375 
Q 46.96875 40.921875 40.578125 39.3125 
z
" id="DejaVuSans-33"/>
      </defs>
      <g transform="translate(157.096875 95.568078)scale(0.1 -0.1)">
       <use xlink:href="#DejaVuSans-33"/>
       <use x="63.623047" xlink:href="#DejaVuSans-2e"/>
       <use x="95.410156" xlink:href="#DejaVuSans-30"/>
      </g>
     </g>
    </g>
   </g>
   <g id="line2d_12">
    <path clip-path="url(#pa377d06f4e)" d="M 230.727273 431.271301 
L 252.797696 430.066435 
L 263.906939 428.463272 
L 273.554074 426.808077 
L 283.020759 425.138919 
L 294.037463 423.535423 
L 304.804313 421.922119 
L 314.400552 420.263932 
L 323.867237 418.600758 
L 336.535753 417.051787 
L 346.340203 415.401745 
L 357.204219 413.789439 
L 366.504335 412.120613 
L 375.873854 410.443309 
L 385.627408 408.801247 
L 396.732024 407.198748 
L 406.231097 405.538566 
L 415.563602 403.86625 
L 424.914613 402.203242 
L 434.612644 400.550707 
L 444.643814 398.90665 
L 453.962437 397.239985 
L 463.216284 395.564509 
L 476.106892 394.028505 
L 485.851192 392.377964 
L 497.052973 390.776629 
L 506.889812 389.127918 
L 516.453662 387.468401 
L 526.230351 385.81703 
L 537.339594 384.214199 
L 546.875683 382.551523 
L 556.249829 380.886687 
L 565.684125 379.221186 
L 579.10683 377.702802 
L 590.738915 376.118423 
L 600.3259 374.459238 
L 609.718554 372.794568 
L 619.75435 371.152007 
L 630.669262 369.541363 
L 640.048035 367.876028 
L 649.32039 366.204875 
L 658.578863 364.535218 
L 668.276894 362.877696 
L 678.525529 361.246106 
L 687.987587 359.584262 
L 697.477406 357.921587 
L 710.330999 356.380262 
L 719.954999 354.72407 
L 729.625269 353.068709 
L 739.054938 351.405369 
L 748.447593 349.739036 
L 759.802062 348.145016 
L 770.911305 346.539359 
L 780.424259 344.879842 
L 790.191694 343.228637 
L 799.56584 341.562138 
L 810.911056 339.966455 
L 820.493414 338.304279 
L 829.788903 336.63911 
L 839.11678 334.972112 
L 851.840819 333.425967 
L 862.792746 331.815988 
L 872.476896 330.161458 
L 881.971343 328.499614 
L 891.294593 326.832617 
L 901.154567 325.183739 
L 911.884402 323.567111 
L 921.309444 321.896456 
L 930.554037 320.23162 
L 939.905049 318.565121 
L 952.693864 317.017978 
L 962.419657 315.368103 
L 971.8447 313.701604 
L 981.158696 312.035604 
L 993.308996 130.292325 
L 1004.159131 128.686004 
L 1013.908059 127.03297 
L 1023.222055 125.363146 
L 1032.563813 123.697313 
L 1042.224829 122.041287 
L 1052.205102 120.397063 
L 1062.014179 118.739541 
L 1071.388326 117.080689 
L 1083.441461 115.511105 
L 1093.042326 113.85242 
L 1102.805134 112.202212 
L 1112.248685 110.537542 
L 1121.60895 108.870212 
L 1133.68522 107.302622 
L 1144.803716 105.69896 
L 1154.497121 104.044431 
L 1163.871267 102.378929 
L 1173.185263 100.710436 
L 1182.975833 99.057402 
L 1192.706253 97.402872 
L 1202.668018 95.76081 
L 1212.083807 94.096638 
L 1224.488588 92.539356 
L 1234.334681 90.89081 
L 1245.272727 89.28 
" style="fill:none;stroke:#ff0000;stroke-dasharray:5.55,2.4;stroke-dashoffset:0;stroke-width:1.5;"/>
    <defs>
     <path d="M -3 3 
L 3 3 
L 3 -3 
L -3 -3 
z
" id="mc3cf3ec461" style="stroke:#ff0000;stroke-linejoin:miter;"/>
    </defs>
    <g clip-path="url(#pa377d06f4e)">
     <use style="fill:#ff0000;stroke:#ff0000;stroke-linejoin:miter;" x="230.727273" xlink:href="#mc3cf3ec461" y="431.271301"/>
     <use style="fill:#ff0000;stroke:#ff0000;stroke-linejoin:miter;" x="252.797696" xlink:href="#mc3cf3ec461" y="430.066435"/>
     <use style="fill:#ff0000;stroke:#ff0000;stroke-linejoin:miter;" x="263.906939" xlink:href="#mc3cf3ec461" y="428.463272"/>
     <use style="fill:#ff0000;stroke:#ff0000;stroke-linejoin:miter;" x="273.554074" xlink:href="#mc3cf3ec461" y="426.808077"/>
     <use style="fill:#ff0000;stroke:#ff0000;stroke-linejoin:miter;" x="283.020759" xlink:href="#mc3cf3ec461" y="425.138919"/>
     <use style="fill:#ff0000;stroke:#ff0000;stroke-linejoin:miter;" x="294.037463" xlink:href="#mc3cf3ec461" y="423.535423"/>
     <use style="fill:#ff0000;stroke:#ff0000;stroke-linejoin:miter;" x="304.804313" xlink:href="#mc3cf3ec461" y="421.922119"/>
     <use style="fill:#ff0000;stroke:#ff0000;stroke-linejoin:miter;" x="314.400552" xlink:href="#mc3cf3ec461" y="420.263932"/>
     <use style="fill:#ff0000;stroke:#ff0000;stroke-linejoin:miter;" x="323.867237" xlink:href="#mc3cf3ec461" y="418.600758"/>
     <use style="fill:#ff0000;stroke:#ff0000;stroke-linejoin:miter;" x="336.535753" xlink:href="#mc3cf3ec461" y="417.051787"/>
     <use style="fill:#ff0000;stroke:#ff0000;stroke-linejoin:miter;" x="346.340203" xlink:href="#mc3cf3ec461" y="415.401745"/>
     <use style="fill:#ff0000;stroke:#ff0000;stroke-linejoin:miter;" x="357.204219" xlink:href="#mc3cf3ec461" y="413.789439"/>
     <use style="fill:#ff0000;stroke:#ff0000;stroke-linejoin:miter;" x="366.504335" xlink:href="#mc3cf3ec461" y="412.120613"/>
     <use style="fill:#ff0000;stroke:#ff0000;stroke-linejoin:miter;" x="375.873854" xlink:href="#mc3cf3ec461" y="410.443309"/>
     <use style="fill:#ff0000;stroke:#ff0000;stroke-linejoin:miter;" x="385.627408" xlink:href="#mc3cf3ec461" y="408.801247"/>
     <use style="fill:#ff0000;stroke:#ff0000;stroke-linejoin:miter;" x="396.732024" xlink:href="#mc3cf3ec461" y="407.198748"/>
     <use style="fill:#ff0000;stroke:#ff0000;stroke-linejoin:miter;" x="406.231097" xlink:href="#mc3cf3ec461" y="405.538566"/>
     <use style="fill:#ff0000;stroke:#ff0000;stroke-linejoin:miter;" x="415.563602" xlink:href="#mc3cf3ec461" y="403.86625"/>
     <use style="fill:#ff0000;stroke:#ff0000;stroke-linejoin:miter;" x="424.914613" xlink:href="#mc3cf3ec461" y="402.203242"/>
     <use style="fill:#ff0000;stroke:#ff0000;stroke-linejoin:miter;" x="434.612644" xlink:href="#mc3cf3ec461" y="400.550707"/>
     <use style="fill:#ff0000;stroke:#ff0000;stroke-linejoin:miter;" x="444.643814" xlink:href="#mc3cf3ec461" y="398.90665"/>
     <use style="fill:#ff0000;stroke:#ff0000;stroke-linejoin:miter;" x="453.962437" xlink:href="#mc3cf3ec461" y="397.239985"/>
     <use style="fill:#ff0000;stroke:#ff0000;stroke-linejoin:miter;" x="463.216284" xlink:href="#mc3cf3ec461" y="395.564509"/>
     <use style="fill:#ff0000;stroke:#ff0000;stroke-linejoin:miter;" x="476.106892" xlink:href="#mc3cf3ec461" y="394.028505"/>
     <use style="fill:#ff0000;stroke:#ff0000;stroke-linejoin:miter;" x="485.851192" xlink:href="#mc3cf3ec461" y="392.377964"/>
     <use style="fill:#ff0000;stroke:#ff0000;stroke-linejoin:miter;" x="497.052973" xlink:href="#mc3cf3ec461" y="390.776629"/>
     <use style="fill:#ff0000;stroke:#ff0000;stroke-linejoin:miter;" x="506.889812" xlink:href="#mc3cf3ec461" y="389.127918"/>
     <use style="fill:#ff0000;stroke:#ff0000;stroke-linejoin:miter;" x="516.453662" xlink:href="#mc3cf3ec461" y="387.468401"/>
     <use style="fill:#ff0000;stroke:#ff0000;stroke-linejoin:miter;" x="526.230351" xlink:href="#mc3cf3ec461" y="385.81703"/>
     <use style="fill:#ff0000;stroke:#ff0000;stroke-linejoin:miter;" x="537.339594" xlink:href="#mc3cf3ec461" y="384.214199"/>
     <use style="fill:#ff0000;stroke:#ff0000;stroke-linejoin:miter;" x="546.875683" xlink:href="#mc3cf3ec461" y="382.551523"/>
     <use style="fill:#ff0000;stroke:#ff0000;stroke-linejoin:miter;" x="556.249829" xlink:href="#mc3cf3ec461" y="380.886687"/>
     <use style="fill:#ff0000;stroke:#ff0000;stroke-linejoin:miter;" x="565.684125" xlink:href="#mc3cf3ec461" y="379.221186"/>
     <use style="fill:#ff0000;stroke:#ff0000;stroke-linejoin:miter;" x="579.10683" xlink:href="#mc3cf3ec461" y="377.702802"/>
     <use style="fill:#ff0000;stroke:#ff0000;stroke-linejoin:miter;" x="590.738915" xlink:href="#mc3cf3ec461" y="376.118423"/>
     <use style="fill:#ff0000;stroke:#ff0000;stroke-linejoin:miter;" x="600.3259" xlink:href="#mc3cf3ec461" y="374.459238"/>
     <use style="fill:#ff0000;stroke:#ff0000;stroke-linejoin:miter;" x="609.718554" xlink:href="#mc3cf3ec461" y="372.794568"/>
     <use style="fill:#ff0000;stroke:#ff0000;stroke-linejoin:miter;" x="619.75435" xlink:href="#mc3cf3ec461" y="371.152007"/>
     <use style="fill:#ff0000;stroke:#ff0000;stroke-linejoin:miter;" x="630.669262" xlink:href="#mc3cf3ec461" y="369.541363"/>
     <use style="fill:#ff0000;stroke:#ff0000;stroke-linejoin:miter;" x="640.048035" xlink:href="#mc3cf3ec461" y="367.876028"/>
     <use style="fill:#ff0000;stroke:#ff0000;stroke-linejoin:miter;" x="649.32039" xlink:href="#mc3cf3ec461" y="366.204875"/>
     <use style="fill:#ff0000;stroke:#ff0000;stroke-linejoin:miter;" x="658.578863" xlink:href="#mc3cf3ec461" y="364.535218"/>
     <use style="fill:#ff0000;stroke:#ff0000;stroke-linejoin:miter;" x="668.276894" xlink:href="#mc3cf3ec461" y="362.877696"/>
     <use style="fill:#ff0000;stroke:#ff0000;stroke-linejoin:miter;" x="678.525529" xlink:href="#mc3cf3ec461" y="361.246106"/>
     <use style="fill:#ff0000;stroke:#ff0000;stroke-linejoin:miter;" x="687.987587" xlink:href="#mc3cf3ec461" y="359.584262"/>
     <use style="fill:#ff0000;stroke:#ff0000;stroke-linejoin:miter;" x="697.477406" xlink:href="#mc3cf3ec461" y="357.921587"/>
     <use style="fill:#ff0000;stroke:#ff0000;stroke-linejoin:miter;" x="710.330999" xlink:href="#mc3cf3ec461" y="356.380262"/>
     <use style="fill:#ff0000;stroke:#ff0000;stroke-linejoin:miter;" x="719.954999" xlink:href="#mc3cf3ec461" y="354.72407"/>
     <use style="fill:#ff0000;stroke:#ff0000;stroke-linejoin:miter;" x="729.625269" xlink:href="#mc3cf3ec461" y="353.068709"/>
     <use style="fill:#ff0000;stroke:#ff0000;stroke-linejoin:miter;" x="739.054938" xlink:href="#mc3cf3ec461" y="351.405369"/>
     <use style="fill:#ff0000;stroke:#ff0000;stroke-linejoin:miter;" x="748.447593" xlink:href="#mc3cf3ec461" y="349.739036"/>
     <use style="fill:#ff0000;stroke:#ff0000;stroke-linejoin:miter;" x="759.802062" xlink:href="#mc3cf3ec461" y="348.145016"/>
     <use style="fill:#ff0000;stroke:#ff0000;stroke-linejoin:miter;" x="770.911305" xlink:href="#mc3cf3ec461" y="346.539359"/>
     <use style="fill:#ff0000;stroke:#ff0000;stroke-linejoin:miter;" x="780.424259" xlink:href="#mc3cf3ec461" y="344.879842"/>
     <use style="fill:#ff0000;stroke:#ff0000;stroke-linejoin:miter;" x="790.191694" xlink:href="#mc3cf3ec461" y="343.228637"/>
     <use style="fill:#ff0000;stroke:#ff0000;stroke-linejoin:miter;" x="799.56584" xlink:href="#mc3cf3ec461" y="341.562138"/>
     <use style="fill:#ff0000;stroke:#ff0000;stroke-linejoin:miter;" x="810.911056" xlink:href="#mc3cf3ec461" y="339.966455"/>
     <use style="fill:#ff0000;stroke:#ff0000;stroke-linejoin:miter;" x="820.493414" xlink:href="#mc3cf3ec461" y="338.304279"/>
     <use style="fill:#ff0000;stroke:#ff0000;stroke-linejoin:miter;" x="829.788903" xlink:href="#mc3cf3ec461" y="336.63911"/>
     <use style="fill:#ff0000;stroke:#ff0000;stroke-linejoin:miter;" x="839.11678" xlink:href="#mc3cf3ec461" y="334.972112"/>
     <use style="fill:#ff0000;stroke:#ff0000;stroke-linejoin:miter;" x="851.840819" xlink:href="#mc3cf3ec461" y="333.425967"/>
     <use style="fill:#ff0000;stroke:#ff0000;stroke-linejoin:miter;" x="862.792746" xlink:href="#mc3cf3ec461" y="331.815988"/>
     <use style="fill:#ff0000;stroke:#ff0000;stroke-linejoin:miter;" x="872.476896" xlink:href="#mc3cf3ec461" y="330.161458"/>
     <use style="fill:#ff0000;stroke:#ff0000;stroke-linejoin:miter;" x="881.971343" xlink:href="#mc3cf3ec461" y="328.499614"/>
     <use style="fill:#ff0000;stroke:#ff0000;stroke-linejoin:miter;" x="891.294593" xlink:href="#mc3cf3ec461" y="326.832617"/>
     <use style="fill:#ff0000;stroke:#ff0000;stroke-linejoin:miter;" x="901.154567" xlink:href="#mc3cf3ec461" y="325.183739"/>
     <use style="fill:#ff0000;stroke:#ff0000;stroke-linejoin:miter;" x="911.884402" xlink:href="#mc3cf3ec461" y="323.567111"/>
     <use style="fill:#ff0000;stroke:#ff0000;stroke-linejoin:miter;" x="921.309444" xlink:href="#mc3cf3ec461" y="321.896456"/>
     <use style="fill:#ff0000;stroke:#ff0000;stroke-linejoin:miter;" x="930.554037" xlink:href="#mc3cf3ec461" y="320.23162"/>
     <use style="fill:#ff0000;stroke:#ff0000;stroke-linejoin:miter;" x="939.905049" xlink:href="#mc3cf3ec461" y="318.565121"/>
     <use style="fill:#ff0000;stroke:#ff0000;stroke-linejoin:miter;" x="952.693864" xlink:href="#mc3cf3ec461" y="317.017978"/>
     <use style="fill:#ff0000;stroke:#ff0000;stroke-linejoin:miter;" x="962.419657" xlink:href="#mc3cf3ec461" y="315.368103"/>
     <use style="fill:#ff0000;stroke:#ff0000;stroke-linejoin:miter;" x="971.8447" xlink:href="#mc3cf3ec461" y="313.701604"/>
     <use style="fill:#ff0000;stroke:#ff0000;stroke-linejoin:miter;" x="981.158696" xlink:href="#mc3cf3ec461" y="312.035604"/>
     <use style="fill:#ff0000;stroke:#ff0000;stroke-linejoin:miter;" x="993.308996" xlink:href="#mc3cf3ec461" y="130.292325"/>
     <use style="fill:#ff0000;stroke:#ff0000;stroke-linejoin:miter;" x="1004.159131" xlink:href="#mc3cf3ec461" y="128.686004"/>
     <use style="fill:#ff0000;stroke:#ff0000;stroke-linejoin:miter;" x="1013.908059" xlink:href="#mc3cf3ec461" y="127.03297"/>
     <use style="fill:#ff0000;stroke:#ff0000;stroke-linejoin:miter;" x="1023.222055" xlink:href="#mc3cf3ec461" y="125.363146"/>
     <use style="fill:#ff0000;stroke:#ff0000;stroke-linejoin:miter;" x="1032.563813" xlink:href="#mc3cf3ec461" y="123.697313"/>
     <use style="fill:#ff0000;stroke:#ff0000;stroke-linejoin:miter;" x="1042.224829" xlink:href="#mc3cf3ec461" y="122.041287"/>
     <use style="fill:#ff0000;stroke:#ff0000;stroke-linejoin:miter;" x="1052.205102" xlink:href="#mc3cf3ec461" y="120.397063"/>
     <use style="fill:#ff0000;stroke:#ff0000;stroke-linejoin:miter;" x="1062.014179" xlink:href="#mc3cf3ec461" y="118.739541"/>
     <use style="fill:#ff0000;stroke:#ff0000;stroke-linejoin:miter;" x="1071.388326" xlink:href="#mc3cf3ec461" y="117.080689"/>
     <use style="fill:#ff0000;stroke:#ff0000;stroke-linejoin:miter;" x="1083.441461" xlink:href="#mc3cf3ec461" y="115.511105"/>
     <use style="fill:#ff0000;stroke:#ff0000;stroke-linejoin:miter;" x="1093.042326" xlink:href="#mc3cf3ec461" y="113.85242"/>
     <use style="fill:#ff0000;stroke:#ff0000;stroke-linejoin:miter;" x="1102.805134" xlink:href="#mc3cf3ec461" y="112.202212"/>
     <use style="fill:#ff0000;stroke:#ff0000;stroke-linejoin:miter;" x="1112.248685" xlink:href="#mc3cf3ec461" y="110.537542"/>
     <use style="fill:#ff0000;stroke:#ff0000;stroke-linejoin:miter;" x="1121.60895" xlink:href="#mc3cf3ec461" y="108.870212"/>
     <use style="fill:#ff0000;stroke:#ff0000;stroke-linejoin:miter;" x="1133.68522" xlink:href="#mc3cf3ec461" y="107.302622"/>
     <use style="fill:#ff0000;stroke:#ff0000;stroke-linejoin:miter;" x="1144.803716" xlink:href="#mc3cf3ec461" y="105.69896"/>
     <use style="fill:#ff0000;stroke:#ff0000;stroke-linejoin:miter;" x="1154.497121" xlink:href="#mc3cf3ec461" y="104.044431"/>
     <use style="fill:#ff0000;stroke:#ff0000;stroke-linejoin:miter;" x="1163.871267" xlink:href="#mc3cf3ec461" y="102.378929"/>
     <use style="fill:#ff0000;stroke:#ff0000;stroke-linejoin:miter;" x="1173.185263" xlink:href="#mc3cf3ec461" y="100.710436"/>
     <use style="fill:#ff0000;stroke:#ff0000;stroke-linejoin:miter;" x="1182.975833" xlink:href="#mc3cf3ec461" y="99.057402"/>
     <use style="fill:#ff0000;stroke:#ff0000;stroke-linejoin:miter;" x="1192.706253" xlink:href="#mc3cf3ec461" y="97.402872"/>
     <use style="fill:#ff0000;stroke:#ff0000;stroke-linejoin:miter;" x="1202.668018" xlink:href="#mc3cf3ec461" y="95.76081"/>
     <use style="fill:#ff0000;stroke:#ff0000;stroke-linejoin:miter;" x="1212.083807" xlink:href="#mc3cf3ec461" y="94.096638"/>
     <use style="fill:#ff0000;stroke:#ff0000;stroke-linejoin:miter;" x="1224.488588" xlink:href="#mc3cf3ec461" y="92.539356"/>
     <use style="fill:#ff0000;stroke:#ff0000;stroke-linejoin:miter;" x="1234.334681" xlink:href="#mc3cf3ec461" y="90.89081"/>
     <use style="fill:#ff0000;stroke:#ff0000;stroke-linejoin:miter;" x="1245.272727" xlink:href="#mc3cf3ec461" y="89.28"/>
    </g>
   </g>
   <g id="line2d_13">
    <path clip-path="url(#pa377d06f4e)" d="M 230.727273 431.271301 
L 252.797696 430.066435 
L 263.906939 428.463272 
L 273.554074 426.808077 
L 283.020759 425.138919 
L 294.037463 423.535423 
L 304.804313 421.922119 
L 314.400552 420.263932 
L 323.867237 418.600758 
L 336.535753 417.051787 
L 346.340203 415.401745 
L 357.204219 413.789439 
L 366.504335 412.120613 
L 375.873854 410.443309 
L 385.627408 408.801247 
L 396.732024 407.198748 
L 406.231097 405.538566 
L 415.563602 403.86625 
L 424.914613 402.203242 
L 434.612644 400.550707 
L 444.643814 398.90665 
L 453.962437 397.239985 
L 463.216284 395.564509 
L 476.106892 394.028505 
L 485.851192 392.377964 
L 497.052973 390.776629 
L 506.889812 389.127918 
L 516.453662 387.468401 
L 526.230351 385.81703 
L 537.339594 384.214199 
L 546.875683 382.551523 
L 556.249829 380.886687 
L 565.684125 379.221186 
L 579.10683 377.702802 
L 590.738915 376.118423 
L 600.3259 374.459238 
L 609.718554 372.794568 
L 619.75435 371.152007 
L 630.669262 369.541363 
L 640.048035 367.876028 
L 649.32039 366.204875 
L 658.578863 364.535218 
L 668.276894 362.877696 
L 678.525529 361.246106 
L 687.987587 359.584262 
L 697.477406 357.921587 
L 710.330999 356.380262 
L 719.954999 354.72407 
L 729.625269 353.068709 
L 739.054938 351.405369 
L 748.447593 349.739036 
L 759.802062 348.145016 
L 770.911305 346.539359 
L 780.424259 344.879842 
L 790.191694 343.228637 
L 799.56584 341.562138 
L 810.911056 339.966455 
L 820.493414 338.304279 
L 829.788903 336.63911 
L 839.11678 334.972112 
L 851.840819 333.425967 
L 862.792746 331.815988 
L 872.476896 330.161458 
L 881.971343 328.499614 
L 891.294593 326.832617 
L 901.154567 325.183739 
L 911.884402 323.567111 
L 921.309444 321.896456 
L 930.554037 320.23162 
L 939.905049 318.565121 
L 952.693864 317.017978 
L 962.419657 315.368103 
L 971.8447 313.701604 
L 981.158696 312.035604 
L 993.308996 130.292325 
L 1004.159131 128.686004 
L 1013.908059 127.03297 
L 1023.222055 125.363146 
L 1032.563813 123.697313 
L 1042.224829 122.041287 
L 1052.205102 120.397063 
L 1062.014179 118.739541 
L 1071.388326 117.080689 
L 1083.441461 115.511105 
L 1093.042326 113.85242 
L 1102.805134 112.202212 
L 1112.248685 110.537542 
L 1121.60895 108.870212 
L 1133.68522 107.302622 
L 1144.803716 105.69896 
L 1154.497121 104.044431 
L 1163.871267 102.378929 
L 1173.185263 100.710436 
L 1182.975833 99.057402 
L 1192.706253 97.402872 
L 1202.668018 95.76081 
L 1212.083807 94.096638 
L 1224.488588 92.539356 
L 1234.334681 90.89081 
L 1245.272727 89.28 
" style="fill:none;stroke:#800080;stroke-dasharray:9.6,2.4,1.5,2.4;stroke-dashoffset:0;stroke-width:1.5;"/>
    <defs>
     <path d="M -3 3 
L 3 -3 
M -3 -3 
L 3 3 
" id="m7708737d2e" style="stroke:#800080;"/>
    </defs>
    <g clip-path="url(#pa377d06f4e)">
     <use style="fill:#800080;stroke:#800080;" x="230.727273" xlink:href="#m7708737d2e" y="431.271301"/>
     <use style="fill:#800080;stroke:#800080;" x="252.797696" xlink:href="#m7708737d2e" y="430.066435"/>
     <use style="fill:#800080;stroke:#800080;" x="263.906939" xlink:href="#m7708737d2e" y="428.463272"/>
     <use style="fill:#800080;stroke:#800080;" x="273.554074" xlink:href="#m7708737d2e" y="426.808077"/>
     <use style="fill:#800080;stroke:#800080;" x="283.020759" xlink:href="#m7708737d2e" y="425.138919"/>
     <use style="fill:#800080;stroke:#800080;" x="294.037463" xlink:href="#m7708737d2e" y="423.535423"/>
     <use style="fill:#800080;stroke:#800080;" x="304.804313" xlink:href="#m7708737d2e" y="421.922119"/>
     <use style="fill:#800080;stroke:#800080;" x="314.400552" xlink:href="#m7708737d2e" y="420.263932"/>
     <use style="fill:#800080;stroke:#800080;" x="323.867237" xlink:href="#m7708737d2e" y="418.600758"/>
     <use style="fill:#800080;stroke:#800080;" x="336.535753" xlink:href="#m7708737d2e" y="417.051787"/>
     <use style="fill:#800080;stroke:#800080;" x="346.340203" xlink:href="#m7708737d2e" y="415.401745"/>
     <use style="fill:#800080;stroke:#800080;" x="357.204219" xlink:href="#m7708737d2e" y="413.789439"/>
     <use style="fill:#800080;stroke:#800080;" x="366.504335" xlink:href="#m7708737d2e" y="412.120613"/>
     <use style="fill:#800080;stroke:#800080;" x="375.873854" xlink:href="#m7708737d2e" y="410.443309"/>
     <use style="fill:#800080;stroke:#800080;" x="385.627408" xlink:href="#m7708737d2e" y="408.801247"/>
     <use style="fill:#800080;stroke:#800080;" x="396.732024" xlink:href="#m7708737d2e" y="407.198748"/>
     <use style="fill:#800080;stroke:#800080;" x="406.231097" xlink:href="#m7708737d2e" y="405.538566"/>
     <use style="fill:#800080;stroke:#800080;" x="415.563602" xlink:href="#m7708737d2e" y="403.86625"/>
     <use style="fill:#800080;stroke:#800080;" x="424.914613" xlink:href="#m7708737d2e" y="402.203242"/>
     <use style="fill:#800080;stroke:#800080;" x="434.612644" xlink:href="#m7708737d2e" y="400.550707"/>
     <use style="fill:#800080;stroke:#800080;" x="444.643814" xlink:href="#m7708737d2e" y="398.90665"/>
     <use style="fill:#800080;stroke:#800080;" x="453.962437" xlink:href="#m7708737d2e" y="397.239985"/>
     <use style="fill:#800080;stroke:#800080;" x="463.216284" xlink:href="#m7708737d2e" y="395.564509"/>
     <use style="fill:#800080;stroke:#800080;" x="476.106892" xlink:href="#m7708737d2e" y="394.028505"/>
     <use style="fill:#800080;stroke:#800080;" x="485.851192" xlink:href="#m7708737d2e" y="392.377964"/>
     <use style="fill:#800080;stroke:#800080;" x="497.052973" xlink:href="#m7708737d2e" y="390.776629"/>
     <use style="fill:#800080;stroke:#800080;" x="506.889812" xlink:href="#m7708737d2e" y="389.127918"/>
     <use style="fill:#800080;stroke:#800080;" x="516.453662" xlink:href="#m7708737d2e" y="387.468401"/>
     <use style="fill:#800080;stroke:#800080;" x="526.230351" xlink:href="#m7708737d2e" y="385.81703"/>
     <use style="fill:#800080;stroke:#800080;" x="537.339594" xlink:href="#m7708737d2e" y="384.214199"/>
     <use style="fill:#800080;stroke:#800080;" x="546.875683" xlink:href="#m7708737d2e" y="382.551523"/>
     <use style="fill:#800080;stroke:#800080;" x="556.249829" xlink:href="#m7708737d2e" y="380.886687"/>
     <use style="fill:#800080;stroke:#800080;" x="565.684125" xlink:href="#m7708737d2e" y="379.221186"/>
     <use style="fill:#800080;stroke:#800080;" x="579.10683" xlink:href="#m7708737d2e" y="377.702802"/>
     <use style="fill:#800080;stroke:#800080;" x="590.738915" xlink:href="#m7708737d2e" y="376.118423"/>
     <use style="fill:#800080;stroke:#800080;" x="600.3259" xlink:href="#m7708737d2e" y="374.459238"/>
     <use style="fill:#800080;stroke:#800080;" x="609.718554" xlink:href="#m7708737d2e" y="372.794568"/>
     <use style="fill:#800080;stroke:#800080;" x="619.75435" xlink:href="#m7708737d2e" y="371.152007"/>
     <use style="fill:#800080;stroke:#800080;" x="630.669262" xlink:href="#m7708737d2e" y="369.541363"/>
     <use style="fill:#800080;stroke:#800080;" x="640.048035" xlink:href="#m7708737d2e" y="367.876028"/>
     <use style="fill:#800080;stroke:#800080;" x="649.32039" xlink:href="#m7708737d2e" y="366.204875"/>
     <use style="fill:#800080;stroke:#800080;" x="658.578863" xlink:href="#m7708737d2e" y="364.535218"/>
     <use style="fill:#800080;stroke:#800080;" x="668.276894" xlink:href="#m7708737d2e" y="362.877696"/>
     <use style="fill:#800080;stroke:#800080;" x="678.525529" xlink:href="#m7708737d2e" y="361.246106"/>
     <use style="fill:#800080;stroke:#800080;" x="687.987587" xlink:href="#m7708737d2e" y="359.584262"/>
     <use style="fill:#800080;stroke:#800080;" x="697.477406" xlink:href="#m7708737d2e" y="357.921587"/>
     <use style="fill:#800080;stroke:#800080;" x="710.330999" xlink:href="#m7708737d2e" y="356.380262"/>
     <use style="fill:#800080;stroke:#800080;" x="719.954999" xlink:href="#m7708737d2e" y="354.72407"/>
     <use style="fill:#800080;stroke:#800080;" x="729.625269" xlink:href="#m7708737d2e" y="353.068709"/>
     <use style="fill:#800080;stroke:#800080;" x="739.054938" xlink:href="#m7708737d2e" y="351.405369"/>
     <use style="fill:#800080;stroke:#800080;" x="748.447593" xlink:href="#m7708737d2e" y="349.739036"/>
     <use style="fill:#800080;stroke:#800080;" x="759.802062" xlink:href="#m7708737d2e" y="348.145016"/>
     <use style="fill:#800080;stroke:#800080;" x="770.911305" xlink:href="#m7708737d2e" y="346.539359"/>
     <use style="fill:#800080;stroke:#800080;" x="780.424259" xlink:href="#m7708737d2e" y="344.879842"/>
     <use style="fill:#800080;stroke:#800080;" x="790.191694" xlink:href="#m7708737d2e" y="343.228637"/>
     <use style="fill:#800080;stroke:#800080;" x="799.56584" xlink:href="#m7708737d2e" y="341.562138"/>
     <use style="fill:#800080;stroke:#800080;" x="810.911056" xlink:href="#m7708737d2e" y="339.966455"/>
     <use style="fill:#800080;stroke:#800080;" x="820.493414" xlink:href="#m7708737d2e" y="338.304279"/>
     <use style="fill:#800080;stroke:#800080;" x="829.788903" xlink:href="#m7708737d2e" y="336.63911"/>
     <use style="fill:#800080;stroke:#800080;" x="839.11678" xlink:href="#m7708737d2e" y="334.972112"/>
     <use style="fill:#800080;stroke:#800080;" x="851.840819" xlink:href="#m7708737d2e" y="333.425967"/>
     <use style="fill:#800080;stroke:#800080;" x="862.792746" xlink:href="#m7708737d2e" y="331.815988"/>
     <use style="fill:#800080;stroke:#800080;" x="872.476896" xlink:href="#m7708737d2e" y="330.161458"/>
     <use style="fill:#800080;stroke:#800080;" x="881.971343" xlink:href="#m7708737d2e" y="328.499614"/>
     <use style="fill:#800080;stroke:#800080;" x="891.294593" xlink:href="#m7708737d2e" y="326.832617"/>
     <use style="fill:#800080;stroke:#800080;" x="901.154567" xlink:href="#m7708737d2e" y="325.183739"/>
     <use style="fill:#800080;stroke:#800080;" x="911.884402" xlink:href="#m7708737d2e" y="323.567111"/>
     <use style="fill:#800080;stroke:#800080;" x="921.309444" xlink:href="#m7708737d2e" y="321.896456"/>
     <use style="fill:#800080;stroke:#800080;" x="930.554037" xlink:href="#m7708737d2e" y="320.23162"/>
     <use style="fill:#800080;stroke:#800080;" x="939.905049" xlink:href="#m7708737d2e" y="318.565121"/>
     <use style="fill:#800080;stroke:#800080;" x="952.693864" xlink:href="#m7708737d2e" y="317.017978"/>
     <use style="fill:#800080;stroke:#800080;" x="962.419657" xlink:href="#m7708737d2e" y="315.368103"/>
     <use style="fill:#800080;stroke:#800080;" x="971.8447" xlink:href="#m7708737d2e" y="313.701604"/>
     <use style="fill:#800080;stroke:#800080;" x="981.158696" xlink:href="#m7708737d2e" y="312.035604"/>
     <use style="fill:#800080;stroke:#800080;" x="993.308996" xlink:href="#m7708737d2e" y="130.292325"/>
     <use style="fill:#800080;stroke:#800080;" x="1004.159131" xlink:href="#m7708737d2e" y="128.686004"/>
     <use style="fill:#800080;stroke:#800080;" x="1013.908059" xlink:href="#m7708737d2e" y="127.03297"/>
     <use style="fill:#800080;stroke:#800080;" x="1023.222055" xlink:href="#m7708737d2e" y="125.363146"/>
     <use style="fill:#800080;stroke:#800080;" x="1032.563813" xlink:href="#m7708737d2e" y="123.697313"/>
     <use style="fill:#800080;stroke:#800080;" x="1042.224829" xlink:href="#m7708737d2e" y="122.041287"/>
     <use style="fill:#800080;stroke:#800080;" x="1052.205102" xlink:href="#m7708737d2e" y="120.397063"/>
     <use style="fill:#800080;stroke:#800080;" x="1062.014179" xlink:href="#m7708737d2e" y="118.739541"/>
     <use style="fill:#800080;stroke:#800080;" x="1071.388326" xlink:href="#m7708737d2e" y="117.080689"/>
     <use style="fill:#800080;stroke:#800080;" x="1083.441461" xlink:href="#m7708737d2e" y="115.511105"/>
     <use style="fill:#800080;stroke:#800080;" x="1093.042326" xlink:href="#m7708737d2e" y="113.85242"/>
     <use style="fill:#800080;stroke:#800080;" x="1102.805134" xlink:href="#m7708737d2e" y="112.202212"/>
     <use style="fill:#800080;stroke:#800080;" x="1112.248685" xlink:href="#m7708737d2e" y="110.537542"/>
     <use style="fill:#800080;stroke:#800080;" x="1121.60895" xlink:href="#m7708737d2e" y="108.870212"/>
     <use style="fill:#800080;stroke:#800080;" x="1133.68522" xlink:href="#m7708737d2e" y="107.302622"/>
     <use style="fill:#800080;stroke:#800080;" x="1144.803716" xlink:href="#m7708737d2e" y="105.69896"/>
     <use style="fill:#800080;stroke:#800080;" x="1154.497121" xlink:href="#m7708737d2e" y="104.044431"/>
     <use style="fill:#800080;stroke:#800080;" x="1163.871267" xlink:href="#m7708737d2e" y="102.378929"/>
     <use style="fill:#800080;stroke:#800080;" x="1173.185263" xlink:href="#m7708737d2e" y="100.710436"/>
     <use style="fill:#800080;stroke:#800080;" x="1182.975833" xlink:href="#m7708737d2e" y="99.057402"/>
     <use style="fill:#800080;stroke:#800080;" x="1192.706253" xlink:href="#m7708737d2e" y="97.402872"/>
     <use style="fill:#800080;stroke:#800080;" x="1202.668018" xlink:href="#m7708737d2e" y="95.76081"/>
     <use style="fill:#800080;stroke:#800080;" x="1212.083807" xlink:href="#m7708737d2e" y="94.096638"/>
     <use style="fill:#800080;stroke:#800080;" x="1224.488588" xlink:href="#m7708737d2e" y="92.539356"/>
     <use style="fill:#800080;stroke:#800080;" x="1234.334681" xlink:href="#m7708737d2e" y="90.89081"/>
     <use style="fill:#800080;stroke:#800080;" x="1245.272727" xlink:href="#m7708737d2e" y="89.28"/>
    </g>
   </g>
   <g id="line2d_14">
    <path clip-path="url(#pa377d06f4e)" d="M 230.727273 492.48 
L 252.797696 484.369109 
L 263.906939 480.286458 
L 273.554074 476.741131 
L 283.020759 473.26212 
L 294.037463 469.213476 
L 304.804313 465.256654 
L 314.400552 461.730032 
L 323.867237 458.251021 
L 336.535753 453.595335 
L 346.340203 449.992195 
L 357.204219 445.999665 
L 366.504335 442.581868 
L 375.873854 439.138565 
L 385.627408 435.55413 
L 396.732024 431.473178 
L 406.231097 427.982265 
L 415.563602 424.552565 
L 424.914613 421.116064 
L 434.612644 417.552033 
L 444.643814 413.865574 
L 453.962437 410.440975 
L 463.216284 407.040183 
L 476.106892 402.302878 
L 485.851192 398.721844 
L 497.052973 394.605184 
L 506.889812 390.990141 
L 516.453662 387.475422 
L 526.230351 383.882484 
L 537.339594 379.799833 
L 546.875683 376.295316 
L 556.249829 372.850313 
L 565.684125 369.383204 
L 579.10683 364.450354 
L 590.738915 360.175558 
L 600.3259 356.652337 
L 609.718554 353.200532 
L 619.75435 349.512372 
L 630.669262 345.501137 
L 640.048035 342.054434 
L 649.32039 338.646839 
L 658.578863 335.244346 
L 668.276894 331.680315 
L 678.525529 327.913937 
L 687.987587 324.436627 
L 697.477406 320.949114 
L 710.330999 316.225412 
L 719.954999 312.688588 
L 729.625269 309.134759 
L 739.054938 305.669352 
L 748.447593 302.217547 
L 759.802062 298.044774 
L 770.911305 293.962122 
L 780.424259 290.466108 
L 790.191694 286.876571 
L 799.56584 283.431568 
L 810.911056 279.262196 
L 820.493414 275.740675 
L 829.788903 272.324578 
L 839.11678 268.896579 
L 851.840819 264.220489 
L 862.792746 260.195651 
L 872.476896 256.636721 
L 881.971343 253.147508 
L 891.294593 249.721209 
L 901.154567 246.097665 
L 911.884402 242.154445 
L 921.309444 238.690738 
L 930.554037 235.293346 
L 939.905049 231.856845 
L 952.693864 227.156949 
L 962.419657 223.582716 
L 971.8447 220.119009 
L 981.158696 216.696111 
L 993.308996 212.23087 
L 1004.159131 208.24344 
L 1013.908059 204.660705 
L 1023.222055 201.237807 
L 1032.563813 197.804707 
L 1042.224829 194.254279 
L 1052.205102 190.586524 
L 1062.014179 186.981684 
L 1071.388326 183.536681 
L 1083.441461 179.107148 
L 1093.042326 175.578826 
L 1102.805134 171.990989 
L 1112.248685 168.52048 
L 1121.60895 165.080578 
L 1133.68522 160.642544 
L 1144.803716 156.556491 
L 1154.497121 152.994161 
L 1163.871267 149.549158 
L 1173.185263 146.12626 
L 1182.975833 142.528221 
L 1192.706253 138.952287 
L 1202.668018 135.291334 
L 1212.083807 131.831027 
L 1224.488588 127.272265 
L 1234.334681 123.653821 
L 1245.272727 119.634084 
" style="fill:none;stroke:#0000ff;stroke-linecap:square;stroke-width:1.5;"/>
   </g>
   <g id="line2d_15">
    <path clip-path="url(#pa377d06f4e)" d="M 230.727273 491.267615 
L 252.797696 491.249823 
L 263.906939 491.240868 
L 273.554074 491.233091 
L 283.020759 491.22546 
L 294.037463 491.216579 
L 304.804313 491.207899 
L 314.400552 491.200163 
L 323.867237 491.192532 
L 336.535753 491.18232 
L 346.340203 491.174416 
L 357.204219 491.165658 
L 366.504335 491.158161 
L 375.873854 491.150608 
L 385.627408 491.142745 
L 396.732024 491.133794 
L 406.231097 491.126136 
L 415.563602 491.118613 
L 424.914613 491.111075 
L 434.612644 491.103257 
L 444.643814 491.095171 
L 453.962437 491.087659 
L 463.216284 491.080199 
L 476.106892 491.069807 
L 485.851192 491.061952 
L 497.052973 491.052922 
L 506.889812 491.044992 
L 516.453662 491.037283 
L 526.230351 491.029401 
L 537.339594 491.020446 
L 546.875683 491.012759 
L 556.249829 491.005202 
L 565.684125 490.997597 
L 579.10683 490.986776 
L 590.738915 490.977399 
L 600.3259 490.969671 
L 609.718554 490.962099 
L 619.75435 490.954009 
L 630.669262 490.94521 
L 640.048035 490.93765 
L 649.32039 490.930175 
L 658.578863 490.922711 
L 668.276894 490.914894 
L 678.525529 490.906632 
L 687.987587 490.899004 
L 697.477406 490.891354 
L 710.330999 490.880993 
L 719.954999 490.873234 
L 729.625269 490.865439 
L 739.054938 490.857837 
L 748.447593 490.850266 
L 759.802062 490.841113 
L 770.911305 490.832157 
L 780.424259 490.824488 
L 790.191694 490.816615 
L 799.56584 490.809058 
L 810.911056 490.799912 
L 820.493414 490.792188 
L 829.788903 490.784694 
L 839.11678 490.777175 
L 851.840819 490.766918 
L 862.792746 490.758089 
L 872.476896 490.750282 
L 881.971343 490.742628 
L 891.294593 490.735113 
L 901.154567 490.727164 
L 911.884402 490.718515 
L 921.309444 490.710917 
L 930.554037 490.703465 
L 939.905049 490.695926 
L 952.693864 490.685617 
L 962.419657 490.677777 
L 971.8447 490.670179 
L 981.158696 490.662671 
L 993.308996 490.652876 
L 1004.159131 490.644129 
L 1013.908059 490.63627 
L 1023.222055 490.628762 
L 1032.563813 490.621232 
L 1042.224829 490.613444 
L 1052.205102 490.605398 
L 1062.014179 490.597491 
L 1071.388326 490.589934 
L 1083.441461 490.580218 
L 1093.042326 490.572478 
L 1102.805134 490.564608 
L 1112.248685 490.556995 
L 1121.60895 490.54945 
L 1133.68522 490.539715 
L 1144.803716 490.530752 
L 1154.497121 490.522938 
L 1163.871267 490.515381 
L 1173.185263 490.507873 
L 1182.975833 490.49998 
L 1192.706253 490.492136 
L 1202.668018 490.484106 
L 1212.083807 490.476515 
L 1224.488588 490.466516 
L 1234.334681 490.458578 
L 1245.272727 490.449761 
" style="fill:none;stroke:#008000;stroke-linecap:square;stroke-width:1.5;"/>
    <defs>
     <path d="M 0 3 
C 0.795609 3 1.55874 2.683901 2.12132 2.12132 
C 2.683901 1.55874 3 0.795609 3 0 
C 3 -0.795609 2.683901 -1.55874 2.12132 -2.12132 
C 1.55874 -2.683901 0.795609 -3 0 -3 
C -0.795609 -3 -1.55874 -2.683901 -2.12132 -2.12132 
C -2.683901 -1.55874 -3 -0.795609 -3 0 
C -3 0.795609 -2.683901 1.55874 -2.12132 2.12132 
C -1.55874 2.683901 -0.795609 3 0 3 
z
" id="maa4632db24" style="stroke:#008000;"/>
    </defs>
    <g clip-path="url(#pa377d06f4e)">
     <use style="fill:#008000;stroke:#008000;" x="230.727273" xlink:href="#maa4632db24" y="491.267615"/>
     <use style="fill:#008000;stroke:#008000;" x="252.797696" xlink:href="#maa4632db24" y="491.249823"/>
     <use style="fill:#008000;stroke:#008000;" x="263.906939" xlink:href="#maa4632db24" y="491.240868"/>
     <use style="fill:#008000;stroke:#008000;" x="273.554074" xlink:href="#maa4632db24" y="491.233091"/>
     <use style="fill:#008000;stroke:#008000;" x="283.020759" xlink:href="#maa4632db24" y="491.22546"/>
     <use style="fill:#008000;stroke:#008000;" x="294.037463" xlink:href="#maa4632db24" y="491.216579"/>
     <use style="fill:#008000;stroke:#008000;" x="304.804313" xlink:href="#maa4632db24" y="491.207899"/>
     <use style="fill:#008000;stroke:#008000;" x="314.400552" xlink:href="#maa4632db24" y="491.200163"/>
     <use style="fill:#008000;stroke:#008000;" x="323.867237" xlink:href="#maa4632db24" y="491.192532"/>
     <use style="fill:#008000;stroke:#008000;" x="336.535753" xlink:href="#maa4632db24" y="491.18232"/>
     <use style="fill:#008000;stroke:#008000;" x="346.340203" xlink:href="#maa4632db24" y="491.174416"/>
     <use style="fill:#008000;stroke:#008000;" x="357.204219" xlink:href="#maa4632db24" y="491.165658"/>
     <use style="fill:#008000;stroke:#008000;" x="366.504335" xlink:href="#maa4632db24" y="491.158161"/>
     <use style="fill:#008000;stroke:#008000;" x="375.873854" xlink:href="#maa4632db24" y="491.150608"/>
     <use style="fill:#008000;stroke:#008000;" x="385.627408" xlink:href="#maa4632db24" y="491.142745"/>
     <use style="fill:#008000;stroke:#008000;" x="396.732024" xlink:href="#maa4632db24" y="491.133794"/>
     <use style="fill:#008000;stroke:#008000;" x="406.231097" xlink:href="#maa4632db24" y="491.126136"/>
     <use style="fill:#008000;stroke:#008000;" x="415.563602" xlink:href="#maa4632db24" y="491.118613"/>
     <use style="fill:#008000;stroke:#008000;" x="424.914613" xlink:href="#maa4632db24" y="491.111075"/>
     <use style="fill:#008000;stroke:#008000;" x="434.612644" xlink:href="#maa4632db24" y="491.103257"/>
     <use style="fill:#008000;stroke:#008000;" x="444.643814" xlink:href="#maa4632db24" y="491.095171"/>
     <use style="fill:#008000;stroke:#008000;" x="453.962437" xlink:href="#maa4632db24" y="491.087659"/>
     <use style="fill:#008000;stroke:#008000;" x="463.216284" xlink:href="#maa4632db24" y="491.080199"/>
     <use style="fill:#008000;stroke:#008000;" x="476.106892" xlink:href="#maa4632db24" y="491.069807"/>
     <use style="fill:#008000;stroke:#008000;" x="485.851192" xlink:href="#maa4632db24" y="491.061952"/>
     <use style="fill:#008000;stroke:#008000;" x="497.052973" xlink:href="#maa4632db24" y="491.052922"/>
     <use style="fill:#008000;stroke:#008000;" x="506.889812" xlink:href="#maa4632db24" y="491.044992"/>
     <use style="fill:#008000;stroke:#008000;" x="516.453662" xlink:href="#maa4632db24" y="491.037283"/>
     <use style="fill:#008000;stroke:#008000;" x="526.230351" xlink:href="#maa4632db24" y="491.029401"/>
     <use style="fill:#008000;stroke:#008000;" x="537.339594" xlink:href="#maa4632db24" y="491.020446"/>
     <use style="fill:#008000;stroke:#008000;" x="546.875683" xlink:href="#maa4632db24" y="491.012759"/>
     <use style="fill:#008000;stroke:#008000;" x="556.249829" xlink:href="#maa4632db24" y="491.005202"/>
     <use style="fill:#008000;stroke:#008000;" x="565.684125" xlink:href="#maa4632db24" y="490.997597"/>
     <use style="fill:#008000;stroke:#008000;" x="579.10683" xlink:href="#maa4632db24" y="490.986776"/>
     <use style="fill:#008000;stroke:#008000;" x="590.738915" xlink:href="#maa4632db24" y="490.977399"/>
     <use style="fill:#008000;stroke:#008000;" x="600.3259" xlink:href="#maa4632db24" y="490.969671"/>
     <use style="fill:#008000;stroke:#008000;" x="609.718554" xlink:href="#maa4632db24" y="490.962099"/>
     <use style="fill:#008000;stroke:#008000;" x="619.75435" xlink:href="#maa4632db24" y="490.954009"/>
     <use style="fill:#008000;stroke:#008000;" x="630.669262" xlink:href="#maa4632db24" y="490.94521"/>
     <use style="fill:#008000;stroke:#008000;" x="640.048035" xlink:href="#maa4632db24" y="490.93765"/>
     <use style="fill:#008000;stroke:#008000;" x="649.32039" xlink:href="#maa4632db24" y="490.930175"/>
     <use style="fill:#008000;stroke:#008000;" x="658.578863" xlink:href="#maa4632db24" y="490.922711"/>
     <use style="fill:#008000;stroke:#008000;" x="668.276894" xlink:href="#maa4632db24" y="490.914894"/>
     <use style="fill:#008000;stroke:#008000;" x="678.525529" xlink:href="#maa4632db24" y="490.906632"/>
     <use style="fill:#008000;stroke:#008000;" x="687.987587" xlink:href="#maa4632db24" y="490.899004"/>
     <use style="fill:#008000;stroke:#008000;" x="697.477406" xlink:href="#maa4632db24" y="490.891354"/>
     <use style="fill:#008000;stroke:#008000;" x="710.330999" xlink:href="#maa4632db24" y="490.880993"/>
     <use style="fill:#008000;stroke:#008000;" x="719.954999" xlink:href="#maa4632db24" y="490.873234"/>
     <use style="fill:#008000;stroke:#008000;" x="729.625269" xlink:href="#maa4632db24" y="490.865439"/>
     <use style="fill:#008000;stroke:#008000;" x="739.054938" xlink:href="#maa4632db24" y="490.857837"/>
     <use style="fill:#008000;stroke:#008000;" x="748.447593" xlink:href="#maa4632db24" y="490.850266"/>
     <use style="fill:#008000;stroke:#008000;" x="759.802062" xlink:href="#maa4632db24" y="490.841113"/>
     <use style="fill:#008000;stroke:#008000;" x="770.911305" xlink:href="#maa4632db24" y="490.832157"/>
     <use style="fill:#008000;stroke:#008000;" x="780.424259" xlink:href="#maa4632db24" y="490.824488"/>
     <use style="fill:#008000;stroke:#008000;" x="790.191694" xlink:href="#maa4632db24" y="490.816615"/>
     <use style="fill:#008000;stroke:#008000;" x="799.56584" xlink:href="#maa4632db24" y="490.809058"/>
     <use style="fill:#008000;stroke:#008000;" x="810.911056" xlink:href="#maa4632db24" y="490.799912"/>
     <use style="fill:#008000;stroke:#008000;" x="820.493414" xlink:href="#maa4632db24" y="490.792188"/>
     <use style="fill:#008000;stroke:#008000;" x="829.788903" xlink:href="#maa4632db24" y="490.784694"/>
     <use style="fill:#008000;stroke:#008000;" x="839.11678" xlink:href="#maa4632db24" y="490.777175"/>
     <use style="fill:#008000;stroke:#008000;" x="851.840819" xlink:href="#maa4632db24" y="490.766918"/>
     <use style="fill:#008000;stroke:#008000;" x="862.792746" xlink:href="#maa4632db24" y="490.758089"/>
     <use style="fill:#008000;stroke:#008000;" x="872.476896" xlink:href="#maa4632db24" y="490.750282"/>
     <use style="fill:#008000;stroke:#008000;" x="881.971343" xlink:href="#maa4632db24" y="490.742628"/>
     <use style="fill:#008000;stroke:#008000;" x="891.294593" xlink:href="#maa4632db24" y="490.735113"/>
     <use style="fill:#008000;stroke:#008000;" x="901.154567" xlink:href="#maa4632db24" y="490.727164"/>
     <use style="fill:#008000;stroke:#008000;" x="911.884402" xlink:href="#maa4632db24" y="490.718515"/>
     <use style="fill:#008000;stroke:#008000;" x="921.309444" xlink:href="#maa4632db24" y="490.710917"/>
     <use style="fill:#008000;stroke:#008000;" x="930.554037" xlink:href="#maa4632db24" y="490.703465"/>
     <use style="fill:#008000;stroke:#008000;" x="939.905049" xlink:href="#maa4632db24" y="490.695926"/>
     <use style="fill:#008000;stroke:#008000;" x="952.693864" xlink:href="#maa4632db24" y="490.685617"/>
     <use style="fill:#008000;stroke:#008000;" x="962.419657" xlink:href="#maa4632db24" y="490.677777"/>
     <use style="fill:#008000;stroke:#008000;" x="971.8447" xlink:href="#maa4632db24" y="490.670179"/>
     <use style="fill:#008000;stroke:#008000;" x="981.158696" xlink:href="#maa4632db24" y="490.662671"/>
     <use style="fill:#008000;stroke:#008000;" x="993.308996" xlink:href="#maa4632db24" y="490.652876"/>
     <use style="fill:#008000;stroke:#008000;" x="1004.159131" xlink:href="#maa4632db24" y="490.644129"/>
     <use style="fill:#008000;stroke:#008000;" x="1013.908059" xlink:href="#maa4632db24" y="490.63627"/>
     <use style="fill:#008000;stroke:#008000;" x="1023.222055" xlink:href="#maa4632db24" y="490.628762"/>
     <use style="fill:#008000;stroke:#008000;" x="1032.563813" xlink:href="#maa4632db24" y="490.621232"/>
     <use style="fill:#008000;stroke:#008000;" x="1042.224829" xlink:href="#maa4632db24" y="490.613444"/>
     <use style="fill:#008000;stroke:#008000;" x="1052.205102" xlink:href="#maa4632db24" y="490.605398"/>
     <use style="fill:#008000;stroke:#008000;" x="1062.014179" xlink:href="#maa4632db24" y="490.597491"/>
     <use style="fill:#008000;stroke:#008000;" x="1071.388326" xlink:href="#maa4632db24" y="490.589934"/>
     <use style="fill:#008000;stroke:#008000;" x="1083.441461" xlink:href="#maa4632db24" y="490.580218"/>
     <use style="fill:#008000;stroke:#008000;" x="1093.042326" xlink:href="#maa4632db24" y="490.572478"/>
     <use style="fill:#008000;stroke:#008000;" x="1102.805134" xlink:href="#maa4632db24" y="490.564608"/>
     <use style="fill:#008000;stroke:#008000;" x="1112.248685" xlink:href="#maa4632db24" y="490.556995"/>
     <use style="fill:#008000;stroke:#008000;" x="1121.60895" xlink:href="#maa4632db24" y="490.54945"/>
     <use style="fill:#008000;stroke:#008000;" x="1133.68522" xlink:href="#maa4632db24" y="490.539715"/>
     <use style="fill:#008000;stroke:#008000;" x="1144.803716" xlink:href="#maa4632db24" y="490.530752"/>
     <use style="fill:#008000;stroke:#008000;" x="1154.497121" xlink:href="#maa4632db24" y="490.522938"/>
     <use style="fill:#008000;stroke:#008000;" x="1163.871267" xlink:href="#maa4632db24" y="490.515381"/>
     <use style="fill:#008000;stroke:#008000;" x="1173.185263" xlink:href="#maa4632db24" y="490.507873"/>
     <use style="fill:#008000;stroke:#008000;" x="1182.975833" xlink:href="#maa4632db24" y="490.49998"/>
     <use style="fill:#008000;stroke:#008000;" x="1192.706253" xlink:href="#maa4632db24" y="490.492136"/>
     <use style="fill:#008000;stroke:#008000;" x="1202.668018" xlink:href="#maa4632db24" y="490.484106"/>
     <use style="fill:#008000;stroke:#008000;" x="1212.083807" xlink:href="#maa4632db24" y="490.476515"/>
     <use style="fill:#008000;stroke:#008000;" x="1224.488588" xlink:href="#maa4632db24" y="490.466516"/>
     <use style="fill:#008000;stroke:#008000;" x="1234.334681" xlink:href="#maa4632db24" y="490.458578"/>
     <use style="fill:#008000;stroke:#008000;" x="1245.272727" xlink:href="#maa4632db24" y="490.449761"/>
    </g>
   </g>
   <g id="patch_3">
    <path d="M 180 512.64 
L 180 69.12 
" style="fill:none;stroke:#000000;stroke-linecap:square;stroke-linejoin:miter;stroke-width:0.8;"/>
   </g>
   <g id="patch_4">
    <path d="M 1296 512.64 
L 1296 69.12 
" style="fill:none;stroke:#000000;stroke-linecap:square;stroke-linejoin:miter;stroke-width:0.8;"/>
   </g>
   <g id="patch_5">
    <path d="M 180 512.64 
L 1296 512.64 
" style="fill:none;stroke:#000000;stroke-linecap:square;stroke-linejoin:miter;stroke-width:0.8;"/>
   </g>
   <g id="patch_6">
    <path d="M 180 69.12 
L 1296 69.12 
" style="fill:none;stroke:#000000;stroke-linecap:square;stroke-linejoin:miter;stroke-width:0.8;"/>
   </g>
   <g id="text_12">
    <!-- 5000000.0 bit/s -->
    <defs>
     <path id="DejaVuSans-20"/>
     <path d="M 48.6875 27.296875 
Q 48.6875 37.203125 44.609375 42.84375 
Q 40.53125 48.484375 33.40625 48.484375 
Q 26.265625 48.484375 22.1875 42.84375 
Q 18.109375 37.203125 18.109375 27.296875 
Q 18.109375 17.390625 22.1875 11.75 
Q 26.265625 6.109375 33.40625 6.109375 
Q 40.53125 6.109375 44.609375 11.75 
Q 48.6875 17.390625 48.6875 27.296875 
z
M 18.109375 46.390625 
Q 20.953125 51.265625 25.265625 53.625 
Q 29.59375 56 35.59375 56 
Q 45.5625 56 51.78125 48.09375 
Q 58.015625 40.1875 58.015625 27.296875 
Q 58.015625 14.40625 51.78125 6.484375 
Q 45.5625 -1.421875 35.59375 -1.421875 
Q 29.59375 -1.421875 25.265625 0.953125 
Q 20.953125 3.328125 18.109375 8.203125 
L 18.109375 0 
L 9.078125 0 
L 9.078125 75.984375 
L 18.109375 75.984375 
z
" id="DejaVuSans-62"/>
     <path d="M 9.421875 54.6875 
L 18.40625 54.6875 
L 18.40625 0 
L 9.421875 0 
z
M 9.421875 75.984375 
L 18.40625 75.984375 
L 18.40625 64.59375 
L 9.421875 64.59375 
z
" id="DejaVuSans-69"/>
     <path d="M 18.3125 70.21875 
L 18.3125 54.6875 
L 36.8125 54.6875 
L 36.8125 47.703125 
L 18.3125 47.703125 
L 18.3125 18.015625 
Q 18.3125 11.328125 20.140625 9.421875 
Q 21.96875 7.515625 27.59375 7.515625 
L 36.8125 7.515625 
L 36.8125 0 
L 27.59375 0 
Q 17.1875 0 13.234375 3.875 
Q 9.28125 7.765625 9.28125 18.015625 
L 9.28125 47.703125 
L 2.6875 47.703125 
L 2.6875 54.6875 
L 9.28125 54.6875 
L 9.28125 70.21875 
z
" id="DejaVuSans-74"/>
     <path d="M 25.390625 72.90625 
L 33.6875 72.90625 
L 8.296875 -9.28125 
L 0 -9.28125 
z
" id="DejaVuSans-2f"/>
     <path d="M 44.28125 53.078125 
L 44.28125 44.578125 
Q 40.484375 46.53125 36.375 47.5 
Q 32.28125 48.484375 27.875 48.484375 
Q 21.1875 48.484375 17.84375 46.4375 
Q 14.5 44.390625 14.5 40.28125 
Q 14.5 37.15625 16.890625 35.375 
Q 19.28125 33.59375 26.515625 31.984375 
L 29.59375 31.296875 
Q 39.15625 29.25 43.1875 25.515625 
Q 47.21875 21.78125 47.21875 15.09375 
Q 47.21875 7.46875 41.1875 3.015625 
Q 35.15625 -1.421875 24.609375 -1.421875 
Q 20.21875 -1.421875 15.453125 -0.5625 
Q 10.6875 0.296875 5.421875 2 
L 5.421875 11.28125 
Q 10.40625 8.6875 15.234375 7.390625 
Q 20.0625 6.109375 24.8125 6.109375 
Q 31.15625 6.109375 34.5625 8.28125 
Q 37.984375 10.453125 37.984375 14.40625 
Q 37.984375 18.0625 35.515625 20.015625 
Q 33.0625 21.96875 24.703125 23.78125 
L 21.578125 24.515625 
Q 13.234375 26.265625 9.515625 29.90625 
Q 5.8125 33.546875 5.8125 39.890625 
Q 5.8125 47.609375 11.28125 51.796875 
Q 16.75 56 26.8125 56 
Q 31.78125 56 36.171875 55.265625 
Q 40.578125 54.546875 44.28125 53.078125 
z
" id="DejaVuSans-73"/>
    </defs>
    <g transform="translate(690.67125 63.12)scale(0.12 -0.12)">
     <use xlink:href="#DejaVuSans-35"/>
     <use x="63.623047" xlink:href="#DejaVuSans-30"/>
     <use x="127.246094" xlink:href="#DejaVuSans-30"/>
     <use x="190.869141" xlink:href="#DejaVuSans-30"/>
     <use x="254.492188" xlink:href="#DejaVuSans-30"/>
     <use x="318.115234" xlink:href="#DejaVuSans-30"/>
     <use x="381.738281" xlink:href="#DejaVuSans-30"/>
     <use x="445.361328" xlink:href="#DejaVuSans-2e"/>
     <use x="477.148438" xlink:href="#DejaVuSans-30"/>
     <use x="540.771484" xlink:href="#DejaVuSans-20"/>
     <use x="572.558594" xlink:href="#DejaVuSans-62"/>
     <use x="636.035156" xlink:href="#DejaVuSans-69"/>
     <use x="663.818359" xlink:href="#DejaVuSans-74"/>
     <use x="703.027344" xlink:href="#DejaVuSans-2f"/>
     <use x="736.71875" xlink:href="#DejaVuSans-73"/>
    </g>
   </g>
   <g id="legend_1">
    <g id="patch_7">
     <path d="M 1173.520313 135.8325 
L 1289 135.8325 
Q 1291 135.8325 1291 133.8325 
L 1291 76.12 
Q 1291 74.12 1289 74.12 
L 1173.520313 74.12 
Q 1171.520313 74.12 1171.520313 76.12 
L 1171.520313 133.8325 
Q 1171.520313 135.8325 1173.520313 135.8325 
z
" style="fill:#ffffff;opacity:0.8;stroke:#cccccc;stroke-linejoin:miter;"/>
    </g>
    <g id="line2d_16">
     <path d="M 1175.520313 82.218437 
L 1195.520313 82.218437 
" style="fill:none;stroke:#ff0000;stroke-dasharray:5.55,2.4;stroke-dashoffset:0;stroke-width:1.5;"/>
    </g>
    <g id="line2d_17">
     <g>
      <use style="fill:#ff0000;stroke:#ff0000;stroke-linejoin:miter;" x="1185.520313" xlink:href="#mc3cf3ec461" y="82.218437"/>
     </g>
    </g>
    <g id="text_13">
     <!-- tcpdump -->
     <defs>
      <path d="M 48.78125 52.59375 
L 48.78125 44.1875 
Q 44.96875 46.296875 41.140625 47.34375 
Q 37.3125 48.390625 33.40625 48.390625 
Q 24.65625 48.390625 19.8125 42.84375 
Q 14.984375 37.3125 14.984375 27.296875 
Q 14.984375 17.28125 19.8125 11.734375 
Q 24.65625 6.203125 33.40625 6.203125 
Q 37.3125 6.203125 41.140625 7.25 
Q 44.96875 8.296875 48.78125 10.40625 
L 48.78125 2.09375 
Q 45.015625 0.34375 40.984375 -0.53125 
Q 36.96875 -1.421875 32.421875 -1.421875 
Q 20.0625 -1.421875 12.78125 6.34375 
Q 5.515625 14.109375 5.515625 27.296875 
Q 5.515625 40.671875 12.859375 48.328125 
Q 20.21875 56 33.015625 56 
Q 37.15625 56 41.109375 55.140625 
Q 45.0625 54.296875 48.78125 52.59375 
z
" id="DejaVuSans-63"/>
      <path d="M 18.109375 8.203125 
L 18.109375 -20.796875 
L 9.078125 -20.796875 
L 9.078125 54.6875 
L 18.109375 54.6875 
L 18.109375 46.390625 
Q 20.953125 51.265625 25.265625 53.625 
Q 29.59375 56 35.59375 56 
Q 45.5625 56 51.78125 48.09375 
Q 58.015625 40.1875 58.015625 27.296875 
Q 58.015625 14.40625 51.78125 6.484375 
Q 45.5625 -1.421875 35.59375 -1.421875 
Q 29.59375 -1.421875 25.265625 0.953125 
Q 20.953125 3.328125 18.109375 8.203125 
z
M 48.6875 27.296875 
Q 48.6875 37.203125 44.609375 42.84375 
Q 40.53125 48.484375 33.40625 48.484375 
Q 26.265625 48.484375 22.1875 42.84375 
Q 18.109375 37.203125 18.109375 27.296875 
Q 18.109375 17.390625 22.1875 11.75 
Q 26.265625 6.109375 33.40625 6.109375 
Q 40.53125 6.109375 44.609375 11.75 
Q 48.6875 17.390625 48.6875 27.296875 
z
" id="DejaVuSans-70"/>
      <path d="M 45.40625 46.390625 
L 45.40625 75.984375 
L 54.390625 75.984375 
L 54.390625 0 
L 45.40625 0 
L 45.40625 8.203125 
Q 42.578125 3.328125 38.25 0.953125 
Q 33.9375 -1.421875 27.875 -1.421875 
Q 17.96875 -1.421875 11.734375 6.484375 
Q 5.515625 14.40625 5.515625 27.296875 
Q 5.515625 40.1875 11.734375 48.09375 
Q 17.96875 56 27.875 56 
Q 33.9375 56 38.25 53.625 
Q 42.578125 51.265625 45.40625 46.390625 
z
M 14.796875 27.296875 
Q 14.796875 17.390625 18.875 11.75 
Q 22.953125 6.109375 30.078125 6.109375 
Q 37.203125 6.109375 41.296875 11.75 
Q 45.40625 17.390625 45.40625 27.296875 
Q 45.40625 37.203125 41.296875 42.84375 
Q 37.203125 48.484375 30.078125 48.484375 
Q 22.953125 48.484375 18.875 42.84375 
Q 14.796875 37.203125 14.796875 27.296875 
z
" id="DejaVuSans-64"/>
      <path d="M 8.5 21.578125 
L 8.5 54.6875 
L 17.484375 54.6875 
L 17.484375 21.921875 
Q 17.484375 14.15625 20.5 10.265625 
Q 23.53125 6.390625 29.59375 6.390625 
Q 36.859375 6.390625 41.078125 11.03125 
Q 45.3125 15.671875 45.3125 23.6875 
L 45.3125 54.6875 
L 54.296875 54.6875 
L 54.296875 0 
L 45.3125 0 
L 45.3125 8.40625 
Q 42.046875 3.421875 37.71875 1 
Q 33.40625 -1.421875 27.6875 -1.421875 
Q 18.265625 -1.421875 13.375 4.4375 
Q 8.5 10.296875 8.5 21.578125 
z
M 31.109375 56 
z
" id="DejaVuSans-75"/>
      <path d="M 52 44.1875 
Q 55.375 50.25 60.0625 53.125 
Q 64.75 56 71.09375 56 
Q 79.640625 56 84.28125 50.015625 
Q 88.921875 44.046875 88.921875 33.015625 
L 88.921875 0 
L 79.890625 0 
L 79.890625 32.71875 
Q 79.890625 40.578125 77.09375 44.375 
Q 74.3125 48.1875 68.609375 48.1875 
Q 61.625 48.1875 57.5625 43.546875 
Q 53.515625 38.921875 53.515625 30.90625 
L 53.515625 0 
L 44.484375 0 
L 44.484375 32.71875 
Q 44.484375 40.625 41.703125 44.40625 
Q 38.921875 48.1875 33.109375 48.1875 
Q 26.21875 48.1875 22.15625 43.53125 
Q 18.109375 38.875 18.109375 30.90625 
L 18.109375 0 
L 9.078125 0 
L 9.078125 54.6875 
L 18.109375 54.6875 
L 18.109375 46.1875 
Q 21.1875 51.21875 25.484375 53.609375 
Q 29.78125 56 35.6875 56 
Q 41.65625 56 45.828125 52.96875 
Q 50 49.953125 52 44.1875 
z
" id="DejaVuSans-6d"/>
     </defs>
     <g transform="translate(1203.520313 85.718437)scale(0.1 -0.1)">
      <use xlink:href="#DejaVuSans-74"/>
      <use x="39.208984" xlink:href="#DejaVuSans-63"/>
      <use x="94.189453" xlink:href="#DejaVuSans-70"/>
      <use x="157.666016" xlink:href="#DejaVuSans-64"/>
      <use x="221.142578" xlink:href="#DejaVuSans-75"/>
      <use x="284.521484" xlink:href="#DejaVuSans-6d"/>
      <use x="381.933594" xlink:href="#DejaVuSans-70"/>
     </g>
    </g>
    <g id="line2d_18">
     <path d="M 1175.520313 96.896563 
L 1195.520313 96.896563 
" style="fill:none;stroke:#800080;stroke-dasharray:9.6,2.4,1.5,2.4;stroke-dashoffset:0;stroke-width:1.5;"/>
    </g>
    <g id="line2d_19">
     <g>
      <use style="fill:#800080;stroke:#800080;" x="1185.520313" xlink:href="#m7708737d2e" y="96.896563"/>
     </g>
    </g>
    <g id="text_14">
     <!-- filtered tcpdump -->
     <defs>
      <path d="M 37.109375 75.984375 
L 37.109375 68.5 
L 28.515625 68.5 
Q 23.6875 68.5 21.796875 66.546875 
Q 19.921875 64.59375 19.921875 59.515625 
L 19.921875 54.6875 
L 34.71875 54.6875 
L 34.71875 47.703125 
L 19.921875 47.703125 
L 19.921875 0 
L 10.890625 0 
L 10.890625 47.703125 
L 2.296875 47.703125 
L 2.296875 54.6875 
L 10.890625 54.6875 
L 10.890625 58.5 
Q 10.890625 67.625 15.140625 71.796875 
Q 19.390625 75.984375 28.609375 75.984375 
z
" id="DejaVuSans-66"/>
      <path d="M 9.421875 75.984375 
L 18.40625 75.984375 
L 18.40625 0 
L 9.421875 0 
z
" id="DejaVuSans-6c"/>
      <path d="M 56.203125 29.59375 
L 56.203125 25.203125 
L 14.890625 25.203125 
Q 15.484375 15.921875 20.484375 11.0625 
Q 25.484375 6.203125 34.421875 6.203125 
Q 39.59375 6.203125 44.453125 7.46875 
Q 49.3125 8.734375 54.109375 11.28125 
L 54.109375 2.78125 
Q 49.265625 0.734375 44.1875 -0.34375 
Q 39.109375 -1.421875 33.890625 -1.421875 
Q 20.796875 -1.421875 13.15625 6.1875 
Q 5.515625 13.8125 5.515625 26.8125 
Q 5.515625 40.234375 12.765625 48.109375 
Q 20.015625 56 32.328125 56 
Q 43.359375 56 49.78125 48.890625 
Q 56.203125 41.796875 56.203125 29.59375 
z
M 47.21875 32.234375 
Q 47.125 39.59375 43.09375 43.984375 
Q 39.0625 48.390625 32.421875 48.390625 
Q 24.90625 48.390625 20.390625 44.140625 
Q 15.875 39.890625 15.1875 32.171875 
z
" id="DejaVuSans-65"/>
      <path d="M 41.109375 46.296875 
Q 39.59375 47.171875 37.8125 47.578125 
Q 36.03125 48 33.890625 48 
Q 26.265625 48 22.1875 43.046875 
Q 18.109375 38.09375 18.109375 28.8125 
L 18.109375 0 
L 9.078125 0 
L 9.078125 54.6875 
L 18.109375 54.6875 
L 18.109375 46.1875 
Q 20.953125 51.171875 25.484375 53.578125 
Q 30.03125 56 36.53125 56 
Q 37.453125 56 38.578125 55.875 
Q 39.703125 55.765625 41.0625 55.515625 
z
" id="DejaVuSans-72"/>
     </defs>
     <g transform="translate(1203.520313 100.396563)scale(0.1 -0.1)">
      <use xlink:href="#DejaVuSans-66"/>
      <use x="35.205078" xlink:href="#DejaVuSans-69"/>
      <use x="62.988281" xlink:href="#DejaVuSans-6c"/>
      <use x="90.771484" xlink:href="#DejaVuSans-74"/>
      <use x="129.980469" xlink:href="#DejaVuSans-65"/>
      <use x="191.503906" xlink:href="#DejaVuSans-72"/>
      <use x="232.585938" xlink:href="#DejaVuSans-65"/>
      <use x="294.109375" xlink:href="#DejaVuSans-64"/>
      <use x="357.585938" xlink:href="#DejaVuSans-20"/>
      <use x="389.373047" xlink:href="#DejaVuSans-74"/>
      <use x="428.582031" xlink:href="#DejaVuSans-63"/>
      <use x="483.5625" xlink:href="#DejaVuSans-70"/>
      <use x="547.039062" xlink:href="#DejaVuSans-64"/>
      <use x="610.515625" xlink:href="#DejaVuSans-75"/>
      <use x="673.894531" xlink:href="#DejaVuSans-6d"/>
      <use x="771.306641" xlink:href="#DejaVuSans-70"/>
     </g>
    </g>
    <g id="line2d_20">
     <path d="M 1175.520313 111.574687 
L 1195.520313 111.574687 
" style="fill:none;stroke:#0000ff;stroke-linecap:square;stroke-width:1.5;"/>
    </g>
    <g id="line2d_21"/>
    <g id="text_15">
     <!-- OLS -->
     <defs>
      <path d="M 39.40625 66.21875 
Q 28.65625 66.21875 22.328125 58.203125 
Q 16.015625 50.203125 16.015625 36.375 
Q 16.015625 22.609375 22.328125 14.59375 
Q 28.65625 6.59375 39.40625 6.59375 
Q 50.140625 6.59375 56.421875 14.59375 
Q 62.703125 22.609375 62.703125 36.375 
Q 62.703125 50.203125 56.421875 58.203125 
Q 50.140625 66.21875 39.40625 66.21875 
z
M 39.40625 74.21875 
Q 54.734375 74.21875 63.90625 63.9375 
Q 73.09375 53.65625 73.09375 36.375 
Q 73.09375 19.140625 63.90625 8.859375 
Q 54.734375 -1.421875 39.40625 -1.421875 
Q 24.03125 -1.421875 14.8125 8.828125 
Q 5.609375 19.09375 5.609375 36.375 
Q 5.609375 53.65625 14.8125 63.9375 
Q 24.03125 74.21875 39.40625 74.21875 
z
" id="DejaVuSans-4f"/>
      <path d="M 9.8125 72.90625 
L 19.671875 72.90625 
L 19.671875 8.296875 
L 55.171875 8.296875 
L 55.171875 0 
L 9.8125 0 
z
" id="DejaVuSans-4c"/>
      <path d="M 53.515625 70.515625 
L 53.515625 60.890625 
Q 47.90625 63.578125 42.921875 64.890625 
Q 37.9375 66.21875 33.296875 66.21875 
Q 25.25 66.21875 20.875 63.09375 
Q 16.5 59.96875 16.5 54.203125 
Q 16.5 49.359375 19.40625 46.890625 
Q 22.3125 44.4375 30.421875 42.921875 
L 36.375 41.703125 
Q 47.40625 39.59375 52.65625 34.296875 
Q 57.90625 29 57.90625 20.125 
Q 57.90625 9.515625 50.796875 4.046875 
Q 43.703125 -1.421875 29.984375 -1.421875 
Q 24.8125 -1.421875 18.96875 -0.25 
Q 13.140625 0.921875 6.890625 3.21875 
L 6.890625 13.375 
Q 12.890625 10.015625 18.65625 8.296875 
Q 24.421875 6.59375 29.984375 6.59375 
Q 38.421875 6.59375 43.015625 9.90625 
Q 47.609375 13.234375 47.609375 19.390625 
Q 47.609375 24.75 44.3125 27.78125 
Q 41.015625 30.8125 33.5 32.328125 
L 27.484375 33.5 
Q 16.453125 35.6875 11.515625 40.375 
Q 6.59375 45.0625 6.59375 53.421875 
Q 6.59375 63.09375 13.40625 68.65625 
Q 20.21875 74.21875 32.171875 74.21875 
Q 37.3125 74.21875 42.625 73.28125 
Q 47.953125 72.359375 53.515625 70.515625 
z
" id="DejaVuSans-53"/>
     </defs>
     <g transform="translate(1203.520313 115.074687)scale(0.1 -0.1)">
      <use xlink:href="#DejaVuSans-4f"/>
      <use x="78.710938" xlink:href="#DejaVuSans-4c"/>
      <use x="134.423828" xlink:href="#DejaVuSans-53"/>
     </g>
    </g>
    <g id="line2d_22">
     <path d="M 1175.520313 126.252813 
L 1195.520313 126.252813 
" style="fill:none;stroke:#008000;stroke-linecap:square;stroke-width:1.5;"/>
    </g>
    <g id="line2d_23">
     <g>
      <use style="fill:#008000;stroke:#008000;" x="1185.520313" xlink:href="#maa4632db24" y="126.252813"/>
     </g>
    </g>
    <g id="text_16">
     <!-- IRLS -->
     <defs>
      <path d="M 9.8125 72.90625 
L 19.671875 72.90625 
L 19.671875 0 
L 9.8125 0 
z
" id="DejaVuSans-49"/>
      <path d="M 44.390625 34.1875 
Q 47.5625 33.109375 50.5625 29.59375 
Q 53.5625 26.078125 56.59375 19.921875 
L 66.609375 0 
L 56 0 
L 46.6875 18.703125 
Q 43.0625 26.03125 39.671875 28.421875 
Q 36.28125 30.8125 30.421875 30.8125 
L 19.671875 30.8125 
L 19.671875 0 
L 9.8125 0 
L 9.8125 72.90625 
L 32.078125 72.90625 
Q 44.578125 72.90625 50.734375 67.671875 
Q 56.890625 62.453125 56.890625 51.90625 
Q 56.890625 45.015625 53.6875 40.46875 
Q 50.484375 35.9375 44.390625 34.1875 
z
M 19.671875 64.796875 
L 19.671875 38.921875 
L 32.078125 38.921875 
Q 39.203125 38.921875 42.84375 42.21875 
Q 46.484375 45.515625 46.484375 51.90625 
Q 46.484375 58.296875 42.84375 61.546875 
Q 39.203125 64.796875 32.078125 64.796875 
z
" id="DejaVuSans-52"/>
     </defs>
     <g transform="translate(1203.520313 129.752813)scale(0.1 -0.1)">
      <use xlink:href="#DejaVuSans-49"/>
      <use x="29.492188" xlink:href="#DejaVuSans-52"/>
      <use x="98.974609" xlink:href="#DejaVuSans-4c"/>
      <use x="154.6875" xlink:href="#DejaVuSans-53"/>
     </g>
    </g>
   </g>
  </g>
 </g>
 <defs>
  <clipPath id="pa377d06f4e">
   <rect height="443.52" width="1116" x="180" y="69.12"/>
  </clipPath>
 </defs>
</svg>
