<?xml version="1.0" encoding="utf-8" standalone="no"?>
<!DOCTYPE svg PUBLIC "-//W3C//DTD SVG 1.1//EN"
  "http://www.w3.org/Graphics/SVG/1.1/DTD/svg11.dtd">
<!-- Created with matplotlib (http://matplotlib.org/) -->
<svg height="576pt" version="1.1" viewBox="0 0 1440 576" width="1440pt" xmlns="http://www.w3.org/2000/svg" xmlns:xlink="http://www.w3.org/1999/xlink">
 <defs>
  <style type="text/css">
*{stroke-linecap:butt;stroke-linejoin:round;}
  </style>
 </defs>
 <g id="figure_1">
  <g id="patch_1">
   <path d="M 0 576 
L 1440 576 
L 1440 0 
L 0 0 
z
" style="fill:#ffffff;"/>
  </g>
  <g id="axes_1">
   <g id="patch_2">
    <path d="M 180 512.64 
L 1296 512.64 
L 1296 69.12 
L 180 69.12 
z
" style="fill:#ffffff;"/>
   </g>
   <g id="matplotlib.axis_1">
    <g id="xtick_1">
     <g id="line2d_1">
      <defs>
       <path d="M 0 0 
L 0 3.5 
" id="m69071eb0c4" style="stroke:#000000;stroke-width:0.8;"/>
      </defs>
      <g>
       <use style="stroke:#000000;stroke-width:0.8;" x="230.727273" xlink:href="#m69071eb0c4" y="512.64"/>
      </g>
     </g>
     <g id="text_1">
      <!-- 0.0 -->
      <defs>
       <path d="M 31.78125 66.40625 
Q 24.171875 66.40625 20.328125 58.90625 
Q 16.5 51.421875 16.5 36.375 
Q 16.5 21.390625 20.328125 13.890625 
Q 24.171875 6.390625 31.78125 6.390625 
Q 39.453125 6.390625 43.28125 13.890625 
Q 47.125 21.390625 47.125 36.375 
Q 47.125 51.421875 43.28125 58.90625 
Q 39.453125 66.40625 31.78125 66.40625 
z
M 31.78125 74.21875 
Q 44.046875 74.21875 50.515625 64.515625 
Q 56.984375 54.828125 56.984375 36.375 
Q 56.984375 17.96875 50.515625 8.265625 
Q 44.046875 -1.421875 31.78125 -1.421875 
Q 19.53125 -1.421875 13.0625 8.265625 
Q 6.59375 17.96875 6.59375 36.375 
Q 6.59375 54.828125 13.0625 64.515625 
Q 19.53125 74.21875 31.78125 74.21875 
z
" id="DejaVuSans-30"/>
       <path d="M 10.6875 12.40625 
L 21 12.40625 
L 21 0 
L 10.6875 0 
z
" id="DejaVuSans-2e"/>
      </defs>
      <g transform="translate(222.77571 527.238438)scale(0.1 -0.1)">
       <use xlink:href="#DejaVuSans-30"/>
       <use x="63.623047" xlink:href="#DejaVuSans-2e"/>
       <use x="95.410156" xlink:href="#DejaVuSans-30"/>
      </g>
     </g>
    </g>
    <g id="xtick_2">
     <g id="line2d_2">
      <g>
       <use style="stroke:#000000;stroke-width:0.8;" x="386.17493" xlink:href="#m69071eb0c4" y="512.64"/>
      </g>
     </g>
     <g id="text_2">
      <!-- 0.2 -->
      <defs>
       <path d="M 19.1875 8.296875 
L 53.609375 8.296875 
L 53.609375 0 
L 7.328125 0 
L 7.328125 8.296875 
Q 12.9375 14.109375 22.625 23.890625 
Q 32.328125 33.6875 34.8125 36.53125 
Q 39.546875 41.84375 41.421875 45.53125 
Q 43.3125 49.21875 43.3125 52.78125 
Q 43.3125 58.59375 39.234375 62.25 
Q 35.15625 65.921875 28.609375 65.921875 
Q 23.96875 65.921875 18.8125 64.3125 
Q 13.671875 62.703125 7.8125 59.421875 
L 7.8125 69.390625 
Q 13.765625 71.78125 18.9375 73 
Q 24.125 74.21875 28.421875 74.21875 
Q 39.75 74.21875 46.484375 68.546875 
Q 53.21875 62.890625 53.21875 53.421875 
Q 53.21875 48.921875 51.53125 44.890625 
Q 49.859375 40.875 45.40625 35.40625 
Q 44.1875 33.984375 37.640625 27.21875 
Q 31.109375 20.453125 19.1875 8.296875 
z
" id="DejaVuSans-32"/>
      </defs>
      <g transform="translate(378.223367 527.238438)scale(0.1 -0.1)">
       <use xlink:href="#DejaVuSans-30"/>
       <use x="63.623047" xlink:href="#DejaVuSans-2e"/>
       <use x="95.410156" xlink:href="#DejaVuSans-32"/>
      </g>
     </g>
    </g>
    <g id="xtick_3">
     <g id="line2d_3">
      <g>
       <use style="stroke:#000000;stroke-width:0.8;" x="541.622586" xlink:href="#m69071eb0c4" y="512.64"/>
      </g>
     </g>
     <g id="text_3">
      <!-- 0.4 -->
      <defs>
       <path d="M 37.796875 64.3125 
L 12.890625 25.390625 
L 37.796875 25.390625 
z
M 35.203125 72.90625 
L 47.609375 72.90625 
L 47.609375 25.390625 
L 58.015625 25.390625 
L 58.015625 17.1875 
L 47.609375 17.1875 
L 47.609375 0 
L 37.796875 0 
L 37.796875 17.1875 
L 4.890625 17.1875 
L 4.890625 26.703125 
z
" id="DejaVuSans-34"/>
      </defs>
      <g transform="translate(533.671024 527.238438)scale(0.1 -0.1)">
       <use xlink:href="#DejaVuSans-30"/>
       <use x="63.623047" xlink:href="#DejaVuSans-2e"/>
       <use x="95.410156" xlink:href="#DejaVuSans-34"/>
      </g>
     </g>
    </g>
    <g id="xtick_4">
     <g id="line2d_4">
      <g>
       <use style="stroke:#000000;stroke-width:0.8;" x="697.070243" xlink:href="#m69071eb0c4" y="512.64"/>
      </g>
     </g>
     <g id="text_4">
      <!-- 0.6 -->
      <defs>
       <path d="M 33.015625 40.375 
Q 26.375 40.375 22.484375 35.828125 
Q 18.609375 31.296875 18.609375 23.390625 
Q 18.609375 15.53125 22.484375 10.953125 
Q 26.375 6.390625 33.015625 6.390625 
Q 39.65625 6.390625 43.53125 10.953125 
Q 47.40625 15.53125 47.40625 23.390625 
Q 47.40625 31.296875 43.53125 35.828125 
Q 39.65625 40.375 33.015625 40.375 
z
M 52.59375 71.296875 
L 52.59375 62.3125 
Q 48.875 64.0625 45.09375 64.984375 
Q 41.3125 65.921875 37.59375 65.921875 
Q 27.828125 65.921875 22.671875 59.328125 
Q 17.53125 52.734375 16.796875 39.40625 
Q 19.671875 43.65625 24.015625 45.921875 
Q 28.375 48.1875 33.59375 48.1875 
Q 44.578125 48.1875 50.953125 41.515625 
Q 57.328125 34.859375 57.328125 23.390625 
Q 57.328125 12.15625 50.6875 5.359375 
Q 44.046875 -1.421875 33.015625 -1.421875 
Q 20.359375 -1.421875 13.671875 8.265625 
Q 6.984375 17.96875 6.984375 36.375 
Q 6.984375 53.65625 15.1875 63.9375 
Q 23.390625 74.21875 37.203125 74.21875 
Q 40.921875 74.21875 44.703125 73.484375 
Q 48.484375 72.75 52.59375 71.296875 
z
" id="DejaVuSans-36"/>
      </defs>
      <g transform="translate(689.118681 527.238438)scale(0.1 -0.1)">
       <use xlink:href="#DejaVuSans-30"/>
       <use x="63.623047" xlink:href="#DejaVuSans-2e"/>
       <use x="95.410156" xlink:href="#DejaVuSans-36"/>
      </g>
     </g>
    </g>
    <g id="xtick_5">
     <g id="line2d_5">
      <g>
       <use style="stroke:#000000;stroke-width:0.8;" x="852.5179" xlink:href="#m69071eb0c4" y="512.64"/>
      </g>
     </g>
     <g id="text_5">
      <!-- 0.8 -->
      <defs>
       <path d="M 31.78125 34.625 
Q 24.75 34.625 20.71875 30.859375 
Q 16.703125 27.09375 16.703125 20.515625 
Q 16.703125 13.921875 20.71875 10.15625 
Q 24.75 6.390625 31.78125 6.390625 
Q 38.8125 6.390625 42.859375 10.171875 
Q 46.921875 13.96875 46.921875 20.515625 
Q 46.921875 27.09375 42.890625 30.859375 
Q 38.875 34.625 31.78125 34.625 
z
M 21.921875 38.8125 
Q 15.578125 40.375 12.03125 44.71875 
Q 8.5 49.078125 8.5 55.328125 
Q 8.5 64.0625 14.71875 69.140625 
Q 20.953125 74.21875 31.78125 74.21875 
Q 42.671875 74.21875 48.875 69.140625 
Q 55.078125 64.0625 55.078125 55.328125 
Q 55.078125 49.078125 51.53125 44.71875 
Q 48 40.375 41.703125 38.8125 
Q 48.828125 37.15625 52.796875 32.3125 
Q 56.78125 27.484375 56.78125 20.515625 
Q 56.78125 9.90625 50.3125 4.234375 
Q 43.84375 -1.421875 31.78125 -1.421875 
Q 19.734375 -1.421875 13.25 4.234375 
Q 6.78125 9.90625 6.78125 20.515625 
Q 6.78125 27.484375 10.78125 32.3125 
Q 14.796875 37.15625 21.921875 38.8125 
z
M 18.3125 54.390625 
Q 18.3125 48.734375 21.84375 45.5625 
Q 25.390625 42.390625 31.78125 42.390625 
Q 38.140625 42.390625 41.71875 45.5625 
Q 45.3125 48.734375 45.3125 54.390625 
Q 45.3125 60.0625 41.71875 63.234375 
Q 38.140625 66.40625 31.78125 66.40625 
Q 25.390625 66.40625 21.84375 63.234375 
Q 18.3125 60.0625 18.3125 54.390625 
z
" id="DejaVuSans-38"/>
      </defs>
      <g transform="translate(844.566338 527.238438)scale(0.1 -0.1)">
       <use xlink:href="#DejaVuSans-30"/>
       <use x="63.623047" xlink:href="#DejaVuSans-2e"/>
       <use x="95.410156" xlink:href="#DejaVuSans-38"/>
      </g>
     </g>
    </g>
    <g id="xtick_6">
     <g id="line2d_6">
      <g>
       <use style="stroke:#000000;stroke-width:0.8;" x="1007.965557" xlink:href="#m69071eb0c4" y="512.64"/>
      </g>
     </g>
     <g id="text_6">
      <!-- 1.0 -->
      <defs>
       <path d="M 12.40625 8.296875 
L 28.515625 8.296875 
L 28.515625 63.921875 
L 10.984375 60.40625 
L 10.984375 69.390625 
L 28.421875 72.90625 
L 38.28125 72.90625 
L 38.28125 8.296875 
L 54.390625 8.296875 
L 54.390625 0 
L 12.40625 0 
z
" id="DejaVuSans-31"/>
      </defs>
      <g transform="translate(1000.013995 527.238438)scale(0.1 -0.1)">
       <use xlink:href="#DejaVuSans-31"/>
       <use x="63.623047" xlink:href="#DejaVuSans-2e"/>
       <use x="95.410156" xlink:href="#DejaVuSans-30"/>
      </g>
     </g>
    </g>
    <g id="xtick_7">
     <g id="line2d_7">
      <g>
       <use style="stroke:#000000;stroke-width:0.8;" x="1163.413214" xlink:href="#m69071eb0c4" y="512.64"/>
      </g>
     </g>
     <g id="text_7">
      <!-- 1.2 -->
      <g transform="translate(1155.461651 527.238438)scale(0.1 -0.1)">
       <use xlink:href="#DejaVuSans-31"/>
       <use x="63.623047" xlink:href="#DejaVuSans-2e"/>
       <use x="95.410156" xlink:href="#DejaVuSans-32"/>
      </g>
     </g>
    </g>
   </g>
   <g id="matplotlib.axis_2">
    <g id="ytick_1">
     <g id="line2d_8">
      <defs>
       <path d="M 0 0 
L -3.5 0 
" id="m11b0168af2" style="stroke:#000000;stroke-width:0.8;"/>
      </defs>
      <g>
       <use style="stroke:#000000;stroke-width:0.8;" x="180" xlink:href="#m11b0168af2" y="483.274521"/>
      </g>
     </g>
     <g id="text_8">
      <!-- 0.30025 -->
      <defs>
       <path d="M 40.578125 39.3125 
Q 47.65625 37.796875 51.625 33 
Q 55.609375 28.21875 55.609375 21.1875 
Q 55.609375 10.40625 48.1875 4.484375 
Q 40.765625 -1.421875 27.09375 -1.421875 
Q 22.515625 -1.421875 17.65625 -0.515625 
Q 12.796875 0.390625 7.625 2.203125 
L 7.625 11.71875 
Q 11.71875 9.328125 16.59375 8.109375 
Q 21.484375 6.890625 26.8125 6.890625 
Q 36.078125 6.890625 40.9375 10.546875 
Q 45.796875 14.203125 45.796875 21.1875 
Q 45.796875 27.640625 41.28125 31.265625 
Q 36.765625 34.90625 28.71875 34.90625 
L 20.21875 34.90625 
L 20.21875 43.015625 
L 29.109375 43.015625 
Q 36.375 43.015625 40.234375 45.921875 
Q 44.09375 48.828125 44.09375 54.296875 
Q 44.09375 59.90625 40.109375 62.90625 
Q 36.140625 65.921875 28.71875 65.921875 
Q 24.65625 65.921875 20.015625 65.03125 
Q 15.375 64.15625 9.8125 62.3125 
L 9.8125 71.09375 
Q 15.4375 72.65625 20.34375 73.4375 
Q 25.25 74.21875 29.59375 74.21875 
Q 40.828125 74.21875 47.359375 69.109375 
Q 53.90625 64.015625 53.90625 55.328125 
Q 53.90625 49.265625 50.4375 45.09375 
Q 46.96875 40.921875 40.578125 39.3125 
z
" id="DejaVuSans-33"/>
       <path d="M 10.796875 72.90625 
L 49.515625 72.90625 
L 49.515625 64.59375 
L 19.828125 64.59375 
L 19.828125 46.734375 
Q 21.96875 47.46875 24.109375 47.828125 
Q 26.265625 48.1875 28.421875 48.1875 
Q 40.625 48.1875 47.75 41.5 
Q 54.890625 34.8125 54.890625 23.390625 
Q 54.890625 11.625 47.5625 5.09375 
Q 40.234375 -1.421875 26.90625 -1.421875 
Q 22.3125 -1.421875 17.546875 -0.640625 
Q 12.796875 0.140625 7.71875 1.703125 
L 7.71875 11.625 
Q 12.109375 9.234375 16.796875 8.0625 
Q 21.484375 6.890625 26.703125 6.890625 
Q 35.15625 6.890625 40.078125 11.328125 
Q 45.015625 15.765625 45.015625 23.390625 
Q 45.015625 31 40.078125 35.4375 
Q 35.15625 39.890625 26.703125 39.890625 
Q 22.75 39.890625 18.8125 39.015625 
Q 14.890625 38.140625 10.796875 36.28125 
z
" id="DejaVuSans-35"/>
      </defs>
      <g transform="translate(131.646875 487.073739)scale(0.1 -0.1)">
       <use xlink:href="#DejaVuSans-30"/>
       <use x="63.623047" xlink:href="#DejaVuSans-2e"/>
       <use x="95.410156" xlink:href="#DejaVuSans-33"/>
       <use x="159.033203" xlink:href="#DejaVuSans-30"/>
       <use x="222.65625" xlink:href="#DejaVuSans-30"/>
       <use x="286.279297" xlink:href="#DejaVuSans-32"/>
       <use x="349.902344" xlink:href="#DejaVuSans-35"/>
      </g>
     </g>
    </g>
    <g id="ytick_2">
     <g id="line2d_9">
      <g>
       <use style="stroke:#000000;stroke-width:0.8;" x="180" xlink:href="#m11b0168af2" y="391.219726"/>
      </g>
     </g>
     <g id="text_9">
      <!-- 0.30030 -->
      <g transform="translate(131.646875 395.018945)scale(0.1 -0.1)">
       <use xlink:href="#DejaVuSans-30"/>
       <use x="63.623047" xlink:href="#DejaVuSans-2e"/>
       <use x="95.410156" xlink:href="#DejaVuSans-33"/>
       <use x="159.033203" xlink:href="#DejaVuSans-30"/>
       <use x="222.65625" xlink:href="#DejaVuSans-30"/>
       <use x="286.279297" xlink:href="#DejaVuSans-33"/>
       <use x="349.902344" xlink:href="#DejaVuSans-30"/>
      </g>
     </g>
    </g>
    <g id="ytick_3">
     <g id="line2d_10">
      <g>
       <use style="stroke:#000000;stroke-width:0.8;" x="180" xlink:href="#m11b0168af2" y="299.164932"/>
      </g>
     </g>
     <g id="text_10">
      <!-- 0.30035 -->
      <g transform="translate(131.646875 302.96415)scale(0.1 -0.1)">
       <use xlink:href="#DejaVuSans-30"/>
       <use x="63.623047" xlink:href="#DejaVuSans-2e"/>
       <use x="95.410156" xlink:href="#DejaVuSans-33"/>
       <use x="159.033203" xlink:href="#DejaVuSans-30"/>
       <use x="222.65625" xlink:href="#DejaVuSans-30"/>
       <use x="286.279297" xlink:href="#DejaVuSans-33"/>
       <use x="349.902344" xlink:href="#DejaVuSans-35"/>
      </g>
     </g>
    </g>
    <g id="ytick_4">
     <g id="line2d_11">
      <g>
       <use style="stroke:#000000;stroke-width:0.8;" x="180" xlink:href="#m11b0168af2" y="207.110137"/>
      </g>
     </g>
     <g id="text_11">
      <!-- 0.30040 -->
      <g transform="translate(131.646875 210.909356)scale(0.1 -0.1)">
       <use xlink:href="#DejaVuSans-30"/>
       <use x="63.623047" xlink:href="#DejaVuSans-2e"/>
       <use x="95.410156" xlink:href="#DejaVuSans-33"/>
       <use x="159.033203" xlink:href="#DejaVuSans-30"/>
       <use x="222.65625" xlink:href="#DejaVuSans-30"/>
       <use x="286.279297" xlink:href="#DejaVuSans-34"/>
       <use x="349.902344" xlink:href="#DejaVuSans-30"/>
      </g>
     </g>
    </g>
    <g id="ytick_5">
     <g id="line2d_12">
      <g>
       <use style="stroke:#000000;stroke-width:0.8;" x="180" xlink:href="#m11b0168af2" y="115.055342"/>
      </g>
     </g>
     <g id="text_12">
      <!-- 0.30045 -->
      <g transform="translate(131.646875 118.854561)scale(0.1 -0.1)">
       <use xlink:href="#DejaVuSans-30"/>
       <use x="63.623047" xlink:href="#DejaVuSans-2e"/>
       <use x="95.410156" xlink:href="#DejaVuSans-33"/>
       <use x="159.033203" xlink:href="#DejaVuSans-30"/>
       <use x="222.65625" xlink:href="#DejaVuSans-30"/>
       <use x="286.279297" xlink:href="#DejaVuSans-34"/>
       <use x="349.902344" xlink:href="#DejaVuSans-35"/>
      </g>
     </g>
    </g>
   </g>
   <g id="line2d_13">
    <path clip-path="url(#p05c1d7dcf9)" d="M 230.727273 308.370411 
L 241.653689 277.071781 
L 251.732915 409.630685 
L 261.77017 396.743014 
L 271.848619 418.836164 
L 282.368539 451.97589 
L 292.849597 420.67726 
L 302.866644 428.041644 
L 312.884468 413.312877 
L 322.901515 389.37863 
L 332.912344 429.88274 
L 343.433042 232.885479 
L 353.452421 466.704658 
L 363.466359 442.770411 
L 373.520713 413.312877 
L 383.568072 429.88274 
L 393.597555 492.48 
L 403.613048 437.247123 
L 414.099547 455.658082 
L 424.191986 433.564932 
L 434.219914 393.060822 
L 444.246288 464.863562 
L 454.267221 457.499178 
L 464.606045 442.770411 
L 477.777125 317.57589 
L 487.965164 332.304658 
L 498.162531 372.808767 
L 510.078371 415.153973 
L 520.264078 317.57589 
L 530.340196 407.789589 
L 540.376673 429.88274 
L 550.488544 442.770411 
L 560.57321 431.723836 
L 570.788453 374.649863 
L 580.831149 407.789589 
L 590.8583 409.630685 
L 601.070434 435.406027 
L 611.132561 448.293699 
L 621.294951 457.499178 
L 631.365628 269.707397 
L 641.425423 323.099178 
L 651.460346 446.452603 
L 661.482834 256.819726 
L 671.632789 431.723836 
L 681.731446 418.836164 
L 691.799013 365.444384 
L 701.826164 297.323836 
L 713.389916 350.715616 
L 723.856984 409.630685 
L 733.970408 413.312877 
L 745.084916 317.57589 
L 756.553066 308.370411 
L 766.63851 380.173151 
L 776.671879 358.08 
L 786.823389 190.540274 
L 796.890956 416.995068 
L 807.049461 433.564932 
L 817.169103 391.219726 
L 827.282528 104.008767 
L 837.337659 335.986849 
L 847.362479 444.611507 
L 857.534196 269.707397 
L 867.570674 426.200548 
L 877.945251 326.78137 
L 888.078883 402.266301 
L 898.130129 426.200548 
L 908.17127 238.408767 
L 918.26915 437.247123 
L 928.306405 459.340274 
L 938.332779 422.518356 
L 948.635073 312.052603 
L 959.413036 89.28 
L 969.537342 457.499178 
L 981.569768 464.863562 
L 992.819515 420.67726 
L 1003.107041 405.948493 
L 1013.152845 444.611507 
L 1023.54219 330.463562 
L 1033.596544 391.219726 
L 1043.662557 429.88274 
L 1053.689708 332.304658 
L 1063.721523 398.58411 
L 1073.940652 433.564932 
L 1083.961585 439.088219 
L 1094.082004 444.611507 
L 1104.118482 435.406027 
L 1114.175946 394.901918 
L 1124.23885 352.556712 
L 1134.280769 426.200548 
L 1144.484353 288.118356 
L 1154.531712 405.948493 
L 1164.620265 363.603288 
L 1174.678506 352.556712 
L 1184.701771 405.948493 
L 1194.854057 431.723836 
L 1204.887426 418.836164 
L 1215.073134 337.827945 
L 1225.089404 475.910137 
L 1235.229254 405.948493 
L 1245.272727 324.940274 
" style="fill:none;stroke:#ff0000;stroke-dasharray:5.55,2.4;stroke-dashoffset:0;stroke-width:1.5;"/>
    <defs>
     <path d="M -3 3 
L 3 3 
L 3 -3 
L -3 -3 
z
" id="mc16f064b33" style="stroke:#ff0000;stroke-linejoin:miter;"/>
    </defs>
    <g clip-path="url(#p05c1d7dcf9)">
     <use style="fill:#ff0000;stroke:#ff0000;stroke-linejoin:miter;" x="230.727273" xlink:href="#mc16f064b33" y="308.370411"/>
     <use style="fill:#ff0000;stroke:#ff0000;stroke-linejoin:miter;" x="241.653689" xlink:href="#mc16f064b33" y="277.071781"/>
     <use style="fill:#ff0000;stroke:#ff0000;stroke-linejoin:miter;" x="251.732915" xlink:href="#mc16f064b33" y="409.630685"/>
     <use style="fill:#ff0000;stroke:#ff0000;stroke-linejoin:miter;" x="261.77017" xlink:href="#mc16f064b33" y="396.743014"/>
     <use style="fill:#ff0000;stroke:#ff0000;stroke-linejoin:miter;" x="271.848619" xlink:href="#mc16f064b33" y="418.836164"/>
     <use style="fill:#ff0000;stroke:#ff0000;stroke-linejoin:miter;" x="282.368539" xlink:href="#mc16f064b33" y="451.97589"/>
     <use style="fill:#ff0000;stroke:#ff0000;stroke-linejoin:miter;" x="292.849597" xlink:href="#mc16f064b33" y="420.67726"/>
     <use style="fill:#ff0000;stroke:#ff0000;stroke-linejoin:miter;" x="302.866644" xlink:href="#mc16f064b33" y="428.041644"/>
     <use style="fill:#ff0000;stroke:#ff0000;stroke-linejoin:miter;" x="312.884468" xlink:href="#mc16f064b33" y="413.312877"/>
     <use style="fill:#ff0000;stroke:#ff0000;stroke-linejoin:miter;" x="322.901515" xlink:href="#mc16f064b33" y="389.37863"/>
     <use style="fill:#ff0000;stroke:#ff0000;stroke-linejoin:miter;" x="332.912344" xlink:href="#mc16f064b33" y="429.88274"/>
     <use style="fill:#ff0000;stroke:#ff0000;stroke-linejoin:miter;" x="343.433042" xlink:href="#mc16f064b33" y="232.885479"/>
     <use style="fill:#ff0000;stroke:#ff0000;stroke-linejoin:miter;" x="353.452421" xlink:href="#mc16f064b33" y="466.704658"/>
     <use style="fill:#ff0000;stroke:#ff0000;stroke-linejoin:miter;" x="363.466359" xlink:href="#mc16f064b33" y="442.770411"/>
     <use style="fill:#ff0000;stroke:#ff0000;stroke-linejoin:miter;" x="373.520713" xlink:href="#mc16f064b33" y="413.312877"/>
     <use style="fill:#ff0000;stroke:#ff0000;stroke-linejoin:miter;" x="383.568072" xlink:href="#mc16f064b33" y="429.88274"/>
     <use style="fill:#ff0000;stroke:#ff0000;stroke-linejoin:miter;" x="393.597555" xlink:href="#mc16f064b33" y="492.48"/>
     <use style="fill:#ff0000;stroke:#ff0000;stroke-linejoin:miter;" x="403.613048" xlink:href="#mc16f064b33" y="437.247123"/>
     <use style="fill:#ff0000;stroke:#ff0000;stroke-linejoin:miter;" x="414.099547" xlink:href="#mc16f064b33" y="455.658082"/>
     <use style="fill:#ff0000;stroke:#ff0000;stroke-linejoin:miter;" x="424.191986" xlink:href="#mc16f064b33" y="433.564932"/>
     <use style="fill:#ff0000;stroke:#ff0000;stroke-linejoin:miter;" x="434.219914" xlink:href="#mc16f064b33" y="393.060822"/>
     <use style="fill:#ff0000;stroke:#ff0000;stroke-linejoin:miter;" x="444.246288" xlink:href="#mc16f064b33" y="464.863562"/>
     <use style="fill:#ff0000;stroke:#ff0000;stroke-linejoin:miter;" x="454.267221" xlink:href="#mc16f064b33" y="457.499178"/>
     <use style="fill:#ff0000;stroke:#ff0000;stroke-linejoin:miter;" x="464.606045" xlink:href="#mc16f064b33" y="442.770411"/>
     <use style="fill:#ff0000;stroke:#ff0000;stroke-linejoin:miter;" x="477.777125" xlink:href="#mc16f064b33" y="317.57589"/>
     <use style="fill:#ff0000;stroke:#ff0000;stroke-linejoin:miter;" x="487.965164" xlink:href="#mc16f064b33" y="332.304658"/>
     <use style="fill:#ff0000;stroke:#ff0000;stroke-linejoin:miter;" x="498.162531" xlink:href="#mc16f064b33" y="372.808767"/>
     <use style="fill:#ff0000;stroke:#ff0000;stroke-linejoin:miter;" x="510.078371" xlink:href="#mc16f064b33" y="415.153973"/>
     <use style="fill:#ff0000;stroke:#ff0000;stroke-linejoin:miter;" x="520.264078" xlink:href="#mc16f064b33" y="317.57589"/>
     <use style="fill:#ff0000;stroke:#ff0000;stroke-linejoin:miter;" x="530.340196" xlink:href="#mc16f064b33" y="407.789589"/>
     <use style="fill:#ff0000;stroke:#ff0000;stroke-linejoin:miter;" x="540.376673" xlink:href="#mc16f064b33" y="429.88274"/>
     <use style="fill:#ff0000;stroke:#ff0000;stroke-linejoin:miter;" x="550.488544" xlink:href="#mc16f064b33" y="442.770411"/>
     <use style="fill:#ff0000;stroke:#ff0000;stroke-linejoin:miter;" x="560.57321" xlink:href="#mc16f064b33" y="431.723836"/>
     <use style="fill:#ff0000;stroke:#ff0000;stroke-linejoin:miter;" x="570.788453" xlink:href="#mc16f064b33" y="374.649863"/>
     <use style="fill:#ff0000;stroke:#ff0000;stroke-linejoin:miter;" x="580.831149" xlink:href="#mc16f064b33" y="407.789589"/>
     <use style="fill:#ff0000;stroke:#ff0000;stroke-linejoin:miter;" x="590.8583" xlink:href="#mc16f064b33" y="409.630685"/>
     <use style="fill:#ff0000;stroke:#ff0000;stroke-linejoin:miter;" x="601.070434" xlink:href="#mc16f064b33" y="435.406027"/>
     <use style="fill:#ff0000;stroke:#ff0000;stroke-linejoin:miter;" x="611.132561" xlink:href="#mc16f064b33" y="448.293699"/>
     <use style="fill:#ff0000;stroke:#ff0000;stroke-linejoin:miter;" x="621.294951" xlink:href="#mc16f064b33" y="457.499178"/>
     <use style="fill:#ff0000;stroke:#ff0000;stroke-linejoin:miter;" x="631.365628" xlink:href="#mc16f064b33" y="269.707397"/>
     <use style="fill:#ff0000;stroke:#ff0000;stroke-linejoin:miter;" x="641.425423" xlink:href="#mc16f064b33" y="323.099178"/>
     <use style="fill:#ff0000;stroke:#ff0000;stroke-linejoin:miter;" x="651.460346" xlink:href="#mc16f064b33" y="446.452603"/>
     <use style="fill:#ff0000;stroke:#ff0000;stroke-linejoin:miter;" x="661.482834" xlink:href="#mc16f064b33" y="256.819726"/>
     <use style="fill:#ff0000;stroke:#ff0000;stroke-linejoin:miter;" x="671.632789" xlink:href="#mc16f064b33" y="431.723836"/>
     <use style="fill:#ff0000;stroke:#ff0000;stroke-linejoin:miter;" x="681.731446" xlink:href="#mc16f064b33" y="418.836164"/>
     <use style="fill:#ff0000;stroke:#ff0000;stroke-linejoin:miter;" x="691.799013" xlink:href="#mc16f064b33" y="365.444384"/>
     <use style="fill:#ff0000;stroke:#ff0000;stroke-linejoin:miter;" x="701.826164" xlink:href="#mc16f064b33" y="297.323836"/>
     <use style="fill:#ff0000;stroke:#ff0000;stroke-linejoin:miter;" x="713.389916" xlink:href="#mc16f064b33" y="350.715616"/>
     <use style="fill:#ff0000;stroke:#ff0000;stroke-linejoin:miter;" x="723.856984" xlink:href="#mc16f064b33" y="409.630685"/>
     <use style="fill:#ff0000;stroke:#ff0000;stroke-linejoin:miter;" x="733.970408" xlink:href="#mc16f064b33" y="413.312877"/>
     <use style="fill:#ff0000;stroke:#ff0000;stroke-linejoin:miter;" x="745.084916" xlink:href="#mc16f064b33" y="317.57589"/>
     <use style="fill:#ff0000;stroke:#ff0000;stroke-linejoin:miter;" x="756.553066" xlink:href="#mc16f064b33" y="308.370411"/>
     <use style="fill:#ff0000;stroke:#ff0000;stroke-linejoin:miter;" x="766.63851" xlink:href="#mc16f064b33" y="380.173151"/>
     <use style="fill:#ff0000;stroke:#ff0000;stroke-linejoin:miter;" x="776.671879" xlink:href="#mc16f064b33" y="358.08"/>
     <use style="fill:#ff0000;stroke:#ff0000;stroke-linejoin:miter;" x="786.823389" xlink:href="#mc16f064b33" y="190.540274"/>
     <use style="fill:#ff0000;stroke:#ff0000;stroke-linejoin:miter;" x="796.890956" xlink:href="#mc16f064b33" y="416.995068"/>
     <use style="fill:#ff0000;stroke:#ff0000;stroke-linejoin:miter;" x="807.049461" xlink:href="#mc16f064b33" y="433.564932"/>
     <use style="fill:#ff0000;stroke:#ff0000;stroke-linejoin:miter;" x="817.169103" xlink:href="#mc16f064b33" y="391.219726"/>
     <use style="fill:#ff0000;stroke:#ff0000;stroke-linejoin:miter;" x="827.282528" xlink:href="#mc16f064b33" y="104.008767"/>
     <use style="fill:#ff0000;stroke:#ff0000;stroke-linejoin:miter;" x="837.337659" xlink:href="#mc16f064b33" y="335.986849"/>
     <use style="fill:#ff0000;stroke:#ff0000;stroke-linejoin:miter;" x="847.362479" xlink:href="#mc16f064b33" y="444.611507"/>
     <use style="fill:#ff0000;stroke:#ff0000;stroke-linejoin:miter;" x="857.534196" xlink:href="#mc16f064b33" y="269.707397"/>
     <use style="fill:#ff0000;stroke:#ff0000;stroke-linejoin:miter;" x="867.570674" xlink:href="#mc16f064b33" y="426.200548"/>
     <use style="fill:#ff0000;stroke:#ff0000;stroke-linejoin:miter;" x="877.945251" xlink:href="#mc16f064b33" y="326.78137"/>
     <use style="fill:#ff0000;stroke:#ff0000;stroke-linejoin:miter;" x="888.078883" xlink:href="#mc16f064b33" y="402.266301"/>
     <use style="fill:#ff0000;stroke:#ff0000;stroke-linejoin:miter;" x="898.130129" xlink:href="#mc16f064b33" y="426.200548"/>
     <use style="fill:#ff0000;stroke:#ff0000;stroke-linejoin:miter;" x="908.17127" xlink:href="#mc16f064b33" y="238.408767"/>
     <use style="fill:#ff0000;stroke:#ff0000;stroke-linejoin:miter;" x="918.26915" xlink:href="#mc16f064b33" y="437.247123"/>
     <use style="fill:#ff0000;stroke:#ff0000;stroke-linejoin:miter;" x="928.306405" xlink:href="#mc16f064b33" y="459.340274"/>
     <use style="fill:#ff0000;stroke:#ff0000;stroke-linejoin:miter;" x="938.332779" xlink:href="#mc16f064b33" y="422.518356"/>
     <use style="fill:#ff0000;stroke:#ff0000;stroke-linejoin:miter;" x="948.635073" xlink:href="#mc16f064b33" y="312.052603"/>
     <use style="fill:#ff0000;stroke:#ff0000;stroke-linejoin:miter;" x="959.413036" xlink:href="#mc16f064b33" y="89.28"/>
     <use style="fill:#ff0000;stroke:#ff0000;stroke-linejoin:miter;" x="969.537342" xlink:href="#mc16f064b33" y="457.499178"/>
     <use style="fill:#ff0000;stroke:#ff0000;stroke-linejoin:miter;" x="981.569768" xlink:href="#mc16f064b33" y="464.863562"/>
     <use style="fill:#ff0000;stroke:#ff0000;stroke-linejoin:miter;" x="992.819515" xlink:href="#mc16f064b33" y="420.67726"/>
     <use style="fill:#ff0000;stroke:#ff0000;stroke-linejoin:miter;" x="1003.107041" xlink:href="#mc16f064b33" y="405.948493"/>
     <use style="fill:#ff0000;stroke:#ff0000;stroke-linejoin:miter;" x="1013.152845" xlink:href="#mc16f064b33" y="444.611507"/>
     <use style="fill:#ff0000;stroke:#ff0000;stroke-linejoin:miter;" x="1023.54219" xlink:href="#mc16f064b33" y="330.463562"/>
     <use style="fill:#ff0000;stroke:#ff0000;stroke-linejoin:miter;" x="1033.596544" xlink:href="#mc16f064b33" y="391.219726"/>
     <use style="fill:#ff0000;stroke:#ff0000;stroke-linejoin:miter;" x="1043.662557" xlink:href="#mc16f064b33" y="429.88274"/>
     <use style="fill:#ff0000;stroke:#ff0000;stroke-linejoin:miter;" x="1053.689708" xlink:href="#mc16f064b33" y="332.304658"/>
     <use style="fill:#ff0000;stroke:#ff0000;stroke-linejoin:miter;" x="1063.721523" xlink:href="#mc16f064b33" y="398.58411"/>
     <use style="fill:#ff0000;stroke:#ff0000;stroke-linejoin:miter;" x="1073.940652" xlink:href="#mc16f064b33" y="433.564932"/>
     <use style="fill:#ff0000;stroke:#ff0000;stroke-linejoin:miter;" x="1083.961585" xlink:href="#mc16f064b33" y="439.088219"/>
     <use style="fill:#ff0000;stroke:#ff0000;stroke-linejoin:miter;" x="1094.082004" xlink:href="#mc16f064b33" y="444.611507"/>
     <use style="fill:#ff0000;stroke:#ff0000;stroke-linejoin:miter;" x="1104.118482" xlink:href="#mc16f064b33" y="435.406027"/>
     <use style="fill:#ff0000;stroke:#ff0000;stroke-linejoin:miter;" x="1114.175946" xlink:href="#mc16f064b33" y="394.901918"/>
     <use style="fill:#ff0000;stroke:#ff0000;stroke-linejoin:miter;" x="1124.23885" xlink:href="#mc16f064b33" y="352.556712"/>
     <use style="fill:#ff0000;stroke:#ff0000;stroke-linejoin:miter;" x="1134.280769" xlink:href="#mc16f064b33" y="426.200548"/>
     <use style="fill:#ff0000;stroke:#ff0000;stroke-linejoin:miter;" x="1144.484353" xlink:href="#mc16f064b33" y="288.118356"/>
     <use style="fill:#ff0000;stroke:#ff0000;stroke-linejoin:miter;" x="1154.531712" xlink:href="#mc16f064b33" y="405.948493"/>
     <use style="fill:#ff0000;stroke:#ff0000;stroke-linejoin:miter;" x="1164.620265" xlink:href="#mc16f064b33" y="363.603288"/>
     <use style="fill:#ff0000;stroke:#ff0000;stroke-linejoin:miter;" x="1174.678506" xlink:href="#mc16f064b33" y="352.556712"/>
     <use style="fill:#ff0000;stroke:#ff0000;stroke-linejoin:miter;" x="1184.701771" xlink:href="#mc16f064b33" y="405.948493"/>
     <use style="fill:#ff0000;stroke:#ff0000;stroke-linejoin:miter;" x="1194.854057" xlink:href="#mc16f064b33" y="431.723836"/>
     <use style="fill:#ff0000;stroke:#ff0000;stroke-linejoin:miter;" x="1204.887426" xlink:href="#mc16f064b33" y="418.836164"/>
     <use style="fill:#ff0000;stroke:#ff0000;stroke-linejoin:miter;" x="1215.073134" xlink:href="#mc16f064b33" y="337.827945"/>
     <use style="fill:#ff0000;stroke:#ff0000;stroke-linejoin:miter;" x="1225.089404" xlink:href="#mc16f064b33" y="475.910137"/>
     <use style="fill:#ff0000;stroke:#ff0000;stroke-linejoin:miter;" x="1235.229254" xlink:href="#mc16f064b33" y="405.948493"/>
     <use style="fill:#ff0000;stroke:#ff0000;stroke-linejoin:miter;" x="1245.272727" xlink:href="#mc16f064b33" y="324.940274"/>
    </g>
   </g>
   <g id="line2d_14">
    <path clip-path="url(#p05c1d7dcf9)" d="M 230.727273 308.370411 
L 241.653689 277.071781 
L 251.732915 409.630685 
L 261.77017 396.743014 
L 271.848619 418.836164 
L 282.368539 451.97589 
L 292.849597 420.67726 
L 302.866644 428.041644 
L 312.884468 413.312877 
L 322.901515 389.37863 
L 332.912344 429.88274 
L 343.433042 232.885479 
L 353.452421 466.704658 
L 363.466359 442.770411 
L 373.520713 413.312877 
L 383.568072 429.88274 
L 393.597555 492.48 
L 403.613048 437.247123 
L 414.099547 455.658082 
L 424.191986 433.564932 
L 434.219914 393.060822 
L 444.246288 464.863562 
L 454.267221 457.499178 
L 464.606045 442.770411 
L 477.777125 317.57589 
L 487.965164 332.304658 
L 498.162531 372.808767 
L 510.078371 415.153973 
L 520.264078 317.57589 
L 530.340196 407.789589 
L 540.376673 429.88274 
L 550.488544 442.770411 
L 560.57321 431.723836 
L 631.365628 269.707397 
L 641.425423 323.099178 
L 651.460346 446.452603 
L 661.482834 256.819726 
L 671.632789 431.723836 
L 681.731446 418.836164 
L 691.799013 365.444384 
L 701.826164 297.323836 
L 713.389916 350.715616 
L 723.856984 409.630685 
L 733.970408 413.312877 
L 745.084916 317.57589 
L 756.553066 308.370411 
L 766.63851 380.173151 
L 776.671879 358.08 
L 786.823389 190.540274 
L 796.890956 416.995068 
L 807.049461 433.564932 
L 817.169103 391.219726 
L 827.282528 104.008767 
L 837.337659 335.986849 
L 847.362479 444.611507 
L 857.534196 269.707397 
L 867.570674 426.200548 
L 877.945251 326.78137 
L 888.078883 402.266301 
L 898.130129 426.200548 
L 908.17127 238.408767 
L 918.26915 437.247123 
L 928.306405 459.340274 
L 938.332779 422.518356 
L 948.635073 312.052603 
L 959.413036 89.28 
L 969.537342 457.499178 
L 981.569768 464.863562 
L 992.819515 420.67726 
L 1003.107041 405.948493 
L 1013.152845 444.611507 
L 1023.54219 330.463562 
L 1033.596544 391.219726 
L 1043.662557 429.88274 
L 1053.689708 332.304658 
L 1063.721523 398.58411 
L 1073.940652 433.564932 
L 1083.961585 439.088219 
L 1094.082004 444.611507 
L 1104.118482 435.406027 
L 1114.175946 394.901918 
L 1124.23885 352.556712 
L 1134.280769 426.200548 
L 1144.484353 288.118356 
L 1154.531712 405.948493 
L 1164.620265 363.603288 
L 1174.678506 352.556712 
L 1184.701771 405.948493 
L 1194.854057 431.723836 
L 1204.887426 418.836164 
L 1215.073134 337.827945 
L 1225.089404 475.910137 
L 1235.229254 405.948493 
L 1245.272727 324.940274 
" style="fill:none;stroke:#800080;stroke-dasharray:9.6,2.4,1.5,2.4;stroke-dashoffset:0;stroke-width:1.5;"/>
    <defs>
     <path d="M -3 3 
L 3 -3 
M -3 -3 
L 3 3 
" id="m87c4d9e50a" style="stroke:#800080;"/>
    </defs>
    <g clip-path="url(#p05c1d7dcf9)">
     <use style="fill:#800080;stroke:#800080;" x="230.727273" xlink:href="#m87c4d9e50a" y="308.370411"/>
     <use style="fill:#800080;stroke:#800080;" x="241.653689" xlink:href="#m87c4d9e50a" y="277.071781"/>
     <use style="fill:#800080;stroke:#800080;" x="251.732915" xlink:href="#m87c4d9e50a" y="409.630685"/>
     <use style="fill:#800080;stroke:#800080;" x="261.77017" xlink:href="#m87c4d9e50a" y="396.743014"/>
     <use style="fill:#800080;stroke:#800080;" x="271.848619" xlink:href="#m87c4d9e50a" y="418.836164"/>
     <use style="fill:#800080;stroke:#800080;" x="282.368539" xlink:href="#m87c4d9e50a" y="451.97589"/>
     <use style="fill:#800080;stroke:#800080;" x="292.849597" xlink:href="#m87c4d9e50a" y="420.67726"/>
     <use style="fill:#800080;stroke:#800080;" x="302.866644" xlink:href="#m87c4d9e50a" y="428.041644"/>
     <use style="fill:#800080;stroke:#800080;" x="312.884468" xlink:href="#m87c4d9e50a" y="413.312877"/>
     <use style="fill:#800080;stroke:#800080;" x="322.901515" xlink:href="#m87c4d9e50a" y="389.37863"/>
     <use style="fill:#800080;stroke:#800080;" x="332.912344" xlink:href="#m87c4d9e50a" y="429.88274"/>
     <use style="fill:#800080;stroke:#800080;" x="343.433042" xlink:href="#m87c4d9e50a" y="232.885479"/>
     <use style="fill:#800080;stroke:#800080;" x="353.452421" xlink:href="#m87c4d9e50a" y="466.704658"/>
     <use style="fill:#800080;stroke:#800080;" x="363.466359" xlink:href="#m87c4d9e50a" y="442.770411"/>
     <use style="fill:#800080;stroke:#800080;" x="373.520713" xlink:href="#m87c4d9e50a" y="413.312877"/>
     <use style="fill:#800080;stroke:#800080;" x="383.568072" xlink:href="#m87c4d9e50a" y="429.88274"/>
     <use style="fill:#800080;stroke:#800080;" x="393.597555" xlink:href="#m87c4d9e50a" y="492.48"/>
     <use style="fill:#800080;stroke:#800080;" x="403.613048" xlink:href="#m87c4d9e50a" y="437.247123"/>
     <use style="fill:#800080;stroke:#800080;" x="414.099547" xlink:href="#m87c4d9e50a" y="455.658082"/>
     <use style="fill:#800080;stroke:#800080;" x="424.191986" xlink:href="#m87c4d9e50a" y="433.564932"/>
     <use style="fill:#800080;stroke:#800080;" x="434.219914" xlink:href="#m87c4d9e50a" y="393.060822"/>
     <use style="fill:#800080;stroke:#800080;" x="444.246288" xlink:href="#m87c4d9e50a" y="464.863562"/>
     <use style="fill:#800080;stroke:#800080;" x="454.267221" xlink:href="#m87c4d9e50a" y="457.499178"/>
     <use style="fill:#800080;stroke:#800080;" x="464.606045" xlink:href="#m87c4d9e50a" y="442.770411"/>
     <use style="fill:#800080;stroke:#800080;" x="477.777125" xlink:href="#m87c4d9e50a" y="317.57589"/>
     <use style="fill:#800080;stroke:#800080;" x="487.965164" xlink:href="#m87c4d9e50a" y="332.304658"/>
     <use style="fill:#800080;stroke:#800080;" x="498.162531" xlink:href="#m87c4d9e50a" y="372.808767"/>
     <use style="fill:#800080;stroke:#800080;" x="510.078371" xlink:href="#m87c4d9e50a" y="415.153973"/>
     <use style="fill:#800080;stroke:#800080;" x="520.264078" xlink:href="#m87c4d9e50a" y="317.57589"/>
     <use style="fill:#800080;stroke:#800080;" x="530.340196" xlink:href="#m87c4d9e50a" y="407.789589"/>
     <use style="fill:#800080;stroke:#800080;" x="540.376673" xlink:href="#m87c4d9e50a" y="429.88274"/>
     <use style="fill:#800080;stroke:#800080;" x="550.488544" xlink:href="#m87c4d9e50a" y="442.770411"/>
     <use style="fill:#800080;stroke:#800080;" x="560.57321" xlink:href="#m87c4d9e50a" y="431.723836"/>
     <use style="fill:#800080;stroke:#800080;" x="631.365628" xlink:href="#m87c4d9e50a" y="269.707397"/>
     <use style="fill:#800080;stroke:#800080;" x="641.425423" xlink:href="#m87c4d9e50a" y="323.099178"/>
     <use style="fill:#800080;stroke:#800080;" x="651.460346" xlink:href="#m87c4d9e50a" y="446.452603"/>
     <use style="fill:#800080;stroke:#800080;" x="661.482834" xlink:href="#m87c4d9e50a" y="256.819726"/>
     <use style="fill:#800080;stroke:#800080;" x="671.632789" xlink:href="#m87c4d9e50a" y="431.723836"/>
     <use style="fill:#800080;stroke:#800080;" x="681.731446" xlink:href="#m87c4d9e50a" y="418.836164"/>
     <use style="fill:#800080;stroke:#800080;" x="691.799013" xlink:href="#m87c4d9e50a" y="365.444384"/>
     <use style="fill:#800080;stroke:#800080;" x="701.826164" xlink:href="#m87c4d9e50a" y="297.323836"/>
     <use style="fill:#800080;stroke:#800080;" x="713.389916" xlink:href="#m87c4d9e50a" y="350.715616"/>
     <use style="fill:#800080;stroke:#800080;" x="723.856984" xlink:href="#m87c4d9e50a" y="409.630685"/>
     <use style="fill:#800080;stroke:#800080;" x="733.970408" xlink:href="#m87c4d9e50a" y="413.312877"/>
     <use style="fill:#800080;stroke:#800080;" x="745.084916" xlink:href="#m87c4d9e50a" y="317.57589"/>
     <use style="fill:#800080;stroke:#800080;" x="756.553066" xlink:href="#m87c4d9e50a" y="308.370411"/>
     <use style="fill:#800080;stroke:#800080;" x="766.63851" xlink:href="#m87c4d9e50a" y="380.173151"/>
     <use style="fill:#800080;stroke:#800080;" x="776.671879" xlink:href="#m87c4d9e50a" y="358.08"/>
     <use style="fill:#800080;stroke:#800080;" x="786.823389" xlink:href="#m87c4d9e50a" y="190.540274"/>
     <use style="fill:#800080;stroke:#800080;" x="796.890956" xlink:href="#m87c4d9e50a" y="416.995068"/>
     <use style="fill:#800080;stroke:#800080;" x="807.049461" xlink:href="#m87c4d9e50a" y="433.564932"/>
     <use style="fill:#800080;stroke:#800080;" x="817.169103" xlink:href="#m87c4d9e50a" y="391.219726"/>
     <use style="fill:#800080;stroke:#800080;" x="827.282528" xlink:href="#m87c4d9e50a" y="104.008767"/>
     <use style="fill:#800080;stroke:#800080;" x="837.337659" xlink:href="#m87c4d9e50a" y="335.986849"/>
     <use style="fill:#800080;stroke:#800080;" x="847.362479" xlink:href="#m87c4d9e50a" y="444.611507"/>
     <use style="fill:#800080;stroke:#800080;" x="857.534196" xlink:href="#m87c4d9e50a" y="269.707397"/>
     <use style="fill:#800080;stroke:#800080;" x="867.570674" xlink:href="#m87c4d9e50a" y="426.200548"/>
     <use style="fill:#800080;stroke:#800080;" x="877.945251" xlink:href="#m87c4d9e50a" y="326.78137"/>
     <use style="fill:#800080;stroke:#800080;" x="888.078883" xlink:href="#m87c4d9e50a" y="402.266301"/>
     <use style="fill:#800080;stroke:#800080;" x="898.130129" xlink:href="#m87c4d9e50a" y="426.200548"/>
     <use style="fill:#800080;stroke:#800080;" x="908.17127" xlink:href="#m87c4d9e50a" y="238.408767"/>
     <use style="fill:#800080;stroke:#800080;" x="918.26915" xlink:href="#m87c4d9e50a" y="437.247123"/>
     <use style="fill:#800080;stroke:#800080;" x="928.306405" xlink:href="#m87c4d9e50a" y="459.340274"/>
     <use style="fill:#800080;stroke:#800080;" x="938.332779" xlink:href="#m87c4d9e50a" y="422.518356"/>
     <use style="fill:#800080;stroke:#800080;" x="948.635073" xlink:href="#m87c4d9e50a" y="312.052603"/>
     <use style="fill:#800080;stroke:#800080;" x="959.413036" xlink:href="#m87c4d9e50a" y="89.28"/>
     <use style="fill:#800080;stroke:#800080;" x="969.537342" xlink:href="#m87c4d9e50a" y="457.499178"/>
     <use style="fill:#800080;stroke:#800080;" x="981.569768" xlink:href="#m87c4d9e50a" y="464.863562"/>
     <use style="fill:#800080;stroke:#800080;" x="992.819515" xlink:href="#m87c4d9e50a" y="420.67726"/>
     <use style="fill:#800080;stroke:#800080;" x="1003.107041" xlink:href="#m87c4d9e50a" y="405.948493"/>
     <use style="fill:#800080;stroke:#800080;" x="1013.152845" xlink:href="#m87c4d9e50a" y="444.611507"/>
     <use style="fill:#800080;stroke:#800080;" x="1023.54219" xlink:href="#m87c4d9e50a" y="330.463562"/>
     <use style="fill:#800080;stroke:#800080;" x="1033.596544" xlink:href="#m87c4d9e50a" y="391.219726"/>
     <use style="fill:#800080;stroke:#800080;" x="1043.662557" xlink:href="#m87c4d9e50a" y="429.88274"/>
     <use style="fill:#800080;stroke:#800080;" x="1053.689708" xlink:href="#m87c4d9e50a" y="332.304658"/>
     <use style="fill:#800080;stroke:#800080;" x="1063.721523" xlink:href="#m87c4d9e50a" y="398.58411"/>
     <use style="fill:#800080;stroke:#800080;" x="1073.940652" xlink:href="#m87c4d9e50a" y="433.564932"/>
     <use style="fill:#800080;stroke:#800080;" x="1083.961585" xlink:href="#m87c4d9e50a" y="439.088219"/>
     <use style="fill:#800080;stroke:#800080;" x="1094.082004" xlink:href="#m87c4d9e50a" y="444.611507"/>
     <use style="fill:#800080;stroke:#800080;" x="1104.118482" xlink:href="#m87c4d9e50a" y="435.406027"/>
     <use style="fill:#800080;stroke:#800080;" x="1114.175946" xlink:href="#m87c4d9e50a" y="394.901918"/>
     <use style="fill:#800080;stroke:#800080;" x="1124.23885" xlink:href="#m87c4d9e50a" y="352.556712"/>
     <use style="fill:#800080;stroke:#800080;" x="1134.280769" xlink:href="#m87c4d9e50a" y="426.200548"/>
     <use style="fill:#800080;stroke:#800080;" x="1144.484353" xlink:href="#m87c4d9e50a" y="288.118356"/>
     <use style="fill:#800080;stroke:#800080;" x="1154.531712" xlink:href="#m87c4d9e50a" y="405.948493"/>
     <use style="fill:#800080;stroke:#800080;" x="1164.620265" xlink:href="#m87c4d9e50a" y="363.603288"/>
     <use style="fill:#800080;stroke:#800080;" x="1174.678506" xlink:href="#m87c4d9e50a" y="352.556712"/>
     <use style="fill:#800080;stroke:#800080;" x="1184.701771" xlink:href="#m87c4d9e50a" y="405.948493"/>
     <use style="fill:#800080;stroke:#800080;" x="1194.854057" xlink:href="#m87c4d9e50a" y="431.723836"/>
     <use style="fill:#800080;stroke:#800080;" x="1204.887426" xlink:href="#m87c4d9e50a" y="418.836164"/>
     <use style="fill:#800080;stroke:#800080;" x="1215.073134" xlink:href="#m87c4d9e50a" y="337.827945"/>
     <use style="fill:#800080;stroke:#800080;" x="1225.089404" xlink:href="#m87c4d9e50a" y="475.910137"/>
     <use style="fill:#800080;stroke:#800080;" x="1235.229254" xlink:href="#m87c4d9e50a" y="405.948493"/>
     <use style="fill:#800080;stroke:#800080;" x="1245.272727" xlink:href="#m87c4d9e50a" y="324.940274"/>
    </g>
   </g>
   <g id="line2d_15">
    <path clip-path="url(#p05c1d7dcf9)" d="M 230.727273 393.25129 
L 241.653689 393.048386 
L 251.732915 392.861216 
L 261.77017 392.674824 
L 271.848619 392.487668 
L 282.368539 392.292313 
L 292.849597 392.09768 
L 302.866644 391.911664 
L 312.884468 391.725633 
L 322.901515 391.539617 
L 332.912344 391.353716 
L 343.433042 391.158347 
L 353.452421 390.972288 
L 363.466359 390.786329 
L 373.520713 390.59962 
L 383.568072 390.413041 
L 393.597555 390.226794 
L 403.613048 390.040806 
L 414.099547 389.846073 
L 424.191986 389.658656 
L 434.219914 389.472438 
L 444.246288 389.286249 
L 454.267221 389.10016 
L 464.606045 388.908169 
L 477.777125 388.663582 
L 487.965164 388.47439 
L 498.162531 388.285026 
L 510.078371 388.063749 
L 520.264078 387.874601 
L 530.340196 387.687488 
L 540.376673 387.50111 
L 550.488544 387.313333 
L 560.57321 387.126061 
L 631.365628 385.811449 
L 641.425423 385.624639 
L 651.460346 385.43829 
L 661.482834 385.252173 
L 671.632789 385.063689 
L 681.731446 384.876157 
L 691.799013 384.689203 
L 701.826164 384.502999 
L 713.389916 384.28826 
L 723.856984 384.093887 
L 733.970408 383.906081 
L 745.084916 383.699685 
L 756.553066 383.486722 
L 766.63851 383.299436 
L 776.671879 383.113116 
L 786.823389 382.924603 
L 796.890956 382.737649 
L 807.049461 382.549006 
L 817.169103 382.361084 
L 827.282528 382.173278 
L 837.337659 381.986555 
L 847.362479 381.800394 
L 857.534196 381.611506 
L 867.570674 381.425129 
L 877.945251 381.232473 
L 888.078883 381.044292 
L 898.130129 380.857641 
L 908.17127 380.671177 
L 918.26915 380.48366 
L 928.306405 380.297268 
L 938.332779 380.111079 
L 948.635073 379.919765 
L 959.413036 379.719619 
L 969.537342 379.531611 
L 981.569768 379.308169 
L 992.819515 379.099262 
L 1003.107041 378.908223 
L 1013.152845 378.721672 
L 1023.54219 378.528743 
L 1033.596544 378.342034 
L 1043.662557 378.155108 
L 1053.689708 377.968904 
L 1063.721523 377.782614 
L 1073.940652 377.592845 
L 1083.961585 377.406757 
L 1094.082004 377.218821 
L 1104.118482 377.032444 
L 1114.175946 376.845677 
L 1124.23885 376.658809 
L 1134.280769 376.472331 
L 1144.484353 376.282851 
L 1154.531712 376.096272 
L 1164.620265 375.908927 
L 1174.678506 375.722146 
L 1184.701771 375.536015 
L 1194.854057 375.347487 
L 1204.887426 375.161168 
L 1215.073134 374.972019 
L 1225.089404 374.786018 
L 1235.229254 374.597721 
L 1245.272727 374.411214 
" style="fill:none;stroke:#0000ff;stroke-linecap:square;stroke-width:1.5;"/>
   </g>
   <g id="line2d_16">
    <path clip-path="url(#p05c1d7dcf9)" d="M 230.727273 393.892184 
L 241.653689 393.714638 
L 251.732915 393.550859 
L 261.77017 393.387761 
L 271.848619 393.223994 
L 282.368539 393.053053 
L 292.849597 392.882744 
L 302.866644 392.719975 
L 312.884468 392.557193 
L 322.901515 392.394423 
L 332.912344 392.231755 
L 343.433042 392.060802 
L 353.452421 391.897995 
L 363.466359 391.735276 
L 373.520713 391.5719 
L 383.568072 391.408638 
L 393.597555 391.245667 
L 403.613048 391.082923 
L 414.099547 390.912525 
L 424.191986 390.748531 
L 434.219914 390.585585 
L 444.246288 390.422664 
L 454.267221 390.259831 
L 464.606045 390.091833 
L 477.777125 389.877813 
L 487.965164 389.712265 
L 498.162531 389.546566 
L 510.078371 389.352943 
L 520.264078 389.187433 
L 530.340196 389.023704 
L 540.376673 388.860618 
L 550.488544 388.696308 
L 560.57321 388.53244 
L 631.365628 387.382118 
L 641.425423 387.218654 
L 651.460346 387.055594 
L 661.482834 386.892736 
L 671.632789 386.727807 
L 681.731446 386.563712 
L 691.799013 386.400121 
L 701.826164 386.237188 
L 713.389916 386.049286 
L 723.856984 385.879204 
L 733.970408 385.714868 
L 745.084916 385.534266 
L 756.553066 385.347917 
L 766.63851 385.184037 
L 776.671879 385.021002 
L 786.823389 384.856048 
L 796.890956 384.692458 
L 807.049461 384.52739 
L 817.169103 384.362953 
L 827.282528 384.198618 
L 837.337659 384.03523 
L 847.362479 383.872334 
L 857.534196 383.707051 
L 867.570674 383.543966 
L 877.945251 383.375387 
L 888.078883 383.210723 
L 898.130129 383.047398 
L 908.17127 382.884238 
L 918.26915 382.720155 
L 928.306405 382.557057 
L 938.332779 382.394136 
L 948.635073 382.226732 
L 959.413036 382.051598 
L 969.537342 381.887086 
L 981.569768 381.691568 
L 992.819515 381.508768 
L 1003.107041 381.341604 
L 1013.152845 381.178367 
L 1023.54219 381.009548 
L 1033.596544 380.846173 
L 1043.662557 380.682608 
L 1053.689708 380.519674 
L 1063.721523 380.356665 
L 1073.940652 380.190612 
L 1083.961585 380.027779 
L 1094.082004 379.86333 
L 1104.118482 379.700245 
L 1114.175946 379.536819 
L 1124.23885 379.373305 
L 1134.280769 379.210131 
L 1144.484353 379.044331 
L 1154.531712 378.881069 
L 1164.620265 378.717138 
L 1174.678506 378.553699 
L 1184.701771 378.390828 
L 1194.854057 378.225862 
L 1204.887426 378.062827 
L 1215.073134 377.897317 
L 1225.089404 377.73456 
L 1235.229254 377.569795 
L 1245.272727 377.406597 
" style="fill:none;stroke:#008000;stroke-linecap:square;stroke-width:1.5;"/>
    <defs>
     <path d="M 0 3 
C 0.795609 3 1.55874 2.683901 2.12132 2.12132 
C 2.683901 1.55874 3 0.795609 3 0 
C 3 -0.795609 2.683901 -1.55874 2.12132 -2.12132 
C 1.55874 -2.683901 0.795609 -3 0 -3 
C -0.795609 -3 -1.55874 -2.683901 -2.12132 -2.12132 
C -2.683901 -1.55874 -3 -0.795609 -3 0 
C -3 0.795609 -2.683901 1.55874 -2.12132 2.12132 
C -1.55874 2.683901 -0.795609 3 0 3 
z
" id="mf0a69c463b" style="stroke:#008000;"/>
    </defs>
    <g clip-path="url(#p05c1d7dcf9)">
     <use style="fill:#008000;stroke:#008000;" x="230.727273" xlink:href="#mf0a69c463b" y="393.892184"/>
     <use style="fill:#008000;stroke:#008000;" x="241.653689" xlink:href="#mf0a69c463b" y="393.714638"/>
     <use style="fill:#008000;stroke:#008000;" x="251.732915" xlink:href="#mf0a69c463b" y="393.550859"/>
     <use style="fill:#008000;stroke:#008000;" x="261.77017" xlink:href="#mf0a69c463b" y="393.387761"/>
     <use style="fill:#008000;stroke:#008000;" x="271.848619" xlink:href="#mf0a69c463b" y="393.223994"/>
     <use style="fill:#008000;stroke:#008000;" x="282.368539" xlink:href="#mf0a69c463b" y="393.053053"/>
     <use style="fill:#008000;stroke:#008000;" x="292.849597" xlink:href="#mf0a69c463b" y="392.882744"/>
     <use style="fill:#008000;stroke:#008000;" x="302.866644" xlink:href="#mf0a69c463b" y="392.719975"/>
     <use style="fill:#008000;stroke:#008000;" x="312.884468" xlink:href="#mf0a69c463b" y="392.557193"/>
     <use style="fill:#008000;stroke:#008000;" x="322.901515" xlink:href="#mf0a69c463b" y="392.394423"/>
     <use style="fill:#008000;stroke:#008000;" x="332.912344" xlink:href="#mf0a69c463b" y="392.231755"/>
     <use style="fill:#008000;stroke:#008000;" x="343.433042" xlink:href="#mf0a69c463b" y="392.060802"/>
     <use style="fill:#008000;stroke:#008000;" x="353.452421" xlink:href="#mf0a69c463b" y="391.897995"/>
     <use style="fill:#008000;stroke:#008000;" x="363.466359" xlink:href="#mf0a69c463b" y="391.735276"/>
     <use style="fill:#008000;stroke:#008000;" x="373.520713" xlink:href="#mf0a69c463b" y="391.5719"/>
     <use style="fill:#008000;stroke:#008000;" x="383.568072" xlink:href="#mf0a69c463b" y="391.408638"/>
     <use style="fill:#008000;stroke:#008000;" x="393.597555" xlink:href="#mf0a69c463b" y="391.245667"/>
     <use style="fill:#008000;stroke:#008000;" x="403.613048" xlink:href="#mf0a69c463b" y="391.082923"/>
     <use style="fill:#008000;stroke:#008000;" x="414.099547" xlink:href="#mf0a69c463b" y="390.912525"/>
     <use style="fill:#008000;stroke:#008000;" x="424.191986" xlink:href="#mf0a69c463b" y="390.748531"/>
     <use style="fill:#008000;stroke:#008000;" x="434.219914" xlink:href="#mf0a69c463b" y="390.585585"/>
     <use style="fill:#008000;stroke:#008000;" x="444.246288" xlink:href="#mf0a69c463b" y="390.422664"/>
     <use style="fill:#008000;stroke:#008000;" x="454.267221" xlink:href="#mf0a69c463b" y="390.259831"/>
     <use style="fill:#008000;stroke:#008000;" x="464.606045" xlink:href="#mf0a69c463b" y="390.091833"/>
     <use style="fill:#008000;stroke:#008000;" x="477.777125" xlink:href="#mf0a69c463b" y="389.877813"/>
     <use style="fill:#008000;stroke:#008000;" x="487.965164" xlink:href="#mf0a69c463b" y="389.712265"/>
     <use style="fill:#008000;stroke:#008000;" x="498.162531" xlink:href="#mf0a69c463b" y="389.546566"/>
     <use style="fill:#008000;stroke:#008000;" x="510.078371" xlink:href="#mf0a69c463b" y="389.352943"/>
     <use style="fill:#008000;stroke:#008000;" x="520.264078" xlink:href="#mf0a69c463b" y="389.187433"/>
     <use style="fill:#008000;stroke:#008000;" x="530.340196" xlink:href="#mf0a69c463b" y="389.023704"/>
     <use style="fill:#008000;stroke:#008000;" x="540.376673" xlink:href="#mf0a69c463b" y="388.860618"/>
     <use style="fill:#008000;stroke:#008000;" x="550.488544" xlink:href="#mf0a69c463b" y="388.696308"/>
     <use style="fill:#008000;stroke:#008000;" x="560.57321" xlink:href="#mf0a69c463b" y="388.53244"/>
     <use style="fill:#008000;stroke:#008000;" x="631.365628" xlink:href="#mf0a69c463b" y="387.382118"/>
     <use style="fill:#008000;stroke:#008000;" x="641.425423" xlink:href="#mf0a69c463b" y="387.218654"/>
     <use style="fill:#008000;stroke:#008000;" x="651.460346" xlink:href="#mf0a69c463b" y="387.055594"/>
     <use style="fill:#008000;stroke:#008000;" x="661.482834" xlink:href="#mf0a69c463b" y="386.892736"/>
     <use style="fill:#008000;stroke:#008000;" x="671.632789" xlink:href="#mf0a69c463b" y="386.727807"/>
     <use style="fill:#008000;stroke:#008000;" x="681.731446" xlink:href="#mf0a69c463b" y="386.563712"/>
     <use style="fill:#008000;stroke:#008000;" x="691.799013" xlink:href="#mf0a69c463b" y="386.400121"/>
     <use style="fill:#008000;stroke:#008000;" x="701.826164" xlink:href="#mf0a69c463b" y="386.237188"/>
     <use style="fill:#008000;stroke:#008000;" x="713.389916" xlink:href="#mf0a69c463b" y="386.049286"/>
     <use style="fill:#008000;stroke:#008000;" x="723.856984" xlink:href="#mf0a69c463b" y="385.879204"/>
     <use style="fill:#008000;stroke:#008000;" x="733.970408" xlink:href="#mf0a69c463b" y="385.714868"/>
     <use style="fill:#008000;stroke:#008000;" x="745.084916" xlink:href="#mf0a69c463b" y="385.534266"/>
     <use style="fill:#008000;stroke:#008000;" x="756.553066" xlink:href="#mf0a69c463b" y="385.347917"/>
     <use style="fill:#008000;stroke:#008000;" x="766.63851" xlink:href="#mf0a69c463b" y="385.184037"/>
     <use style="fill:#008000;stroke:#008000;" x="776.671879" xlink:href="#mf0a69c463b" y="385.021002"/>
     <use style="fill:#008000;stroke:#008000;" x="786.823389" xlink:href="#mf0a69c463b" y="384.856048"/>
     <use style="fill:#008000;stroke:#008000;" x="796.890956" xlink:href="#mf0a69c463b" y="384.692458"/>
     <use style="fill:#008000;stroke:#008000;" x="807.049461" xlink:href="#mf0a69c463b" y="384.52739"/>
     <use style="fill:#008000;stroke:#008000;" x="817.169103" xlink:href="#mf0a69c463b" y="384.362953"/>
     <use style="fill:#008000;stroke:#008000;" x="827.282528" xlink:href="#mf0a69c463b" y="384.198618"/>
     <use style="fill:#008000;stroke:#008000;" x="837.337659" xlink:href="#mf0a69c463b" y="384.03523"/>
     <use style="fill:#008000;stroke:#008000;" x="847.362479" xlink:href="#mf0a69c463b" y="383.872334"/>
     <use style="fill:#008000;stroke:#008000;" x="857.534196" xlink:href="#mf0a69c463b" y="383.707051"/>
     <use style="fill:#008000;stroke:#008000;" x="867.570674" xlink:href="#mf0a69c463b" y="383.543966"/>
     <use style="fill:#008000;stroke:#008000;" x="877.945251" xlink:href="#mf0a69c463b" y="383.375387"/>
     <use style="fill:#008000;stroke:#008000;" x="888.078883" xlink:href="#mf0a69c463b" y="383.210723"/>
     <use style="fill:#008000;stroke:#008000;" x="898.130129" xlink:href="#mf0a69c463b" y="383.047398"/>
     <use style="fill:#008000;stroke:#008000;" x="908.17127" xlink:href="#mf0a69c463b" y="382.884238"/>
     <use style="fill:#008000;stroke:#008000;" x="918.26915" xlink:href="#mf0a69c463b" y="382.720155"/>
     <use style="fill:#008000;stroke:#008000;" x="928.306405" xlink:href="#mf0a69c463b" y="382.557057"/>
     <use style="fill:#008000;stroke:#008000;" x="938.332779" xlink:href="#mf0a69c463b" y="382.394136"/>
     <use style="fill:#008000;stroke:#008000;" x="948.635073" xlink:href="#mf0a69c463b" y="382.226732"/>
     <use style="fill:#008000;stroke:#008000;" x="959.413036" xlink:href="#mf0a69c463b" y="382.051598"/>
     <use style="fill:#008000;stroke:#008000;" x="969.537342" xlink:href="#mf0a69c463b" y="381.887086"/>
     <use style="fill:#008000;stroke:#008000;" x="981.569768" xlink:href="#mf0a69c463b" y="381.691568"/>
     <use style="fill:#008000;stroke:#008000;" x="992.819515" xlink:href="#mf0a69c463b" y="381.508768"/>
     <use style="fill:#008000;stroke:#008000;" x="1003.107041" xlink:href="#mf0a69c463b" y="381.341604"/>
     <use style="fill:#008000;stroke:#008000;" x="1013.152845" xlink:href="#mf0a69c463b" y="381.178367"/>
     <use style="fill:#008000;stroke:#008000;" x="1023.54219" xlink:href="#mf0a69c463b" y="381.009548"/>
     <use style="fill:#008000;stroke:#008000;" x="1033.596544" xlink:href="#mf0a69c463b" y="380.846173"/>
     <use style="fill:#008000;stroke:#008000;" x="1043.662557" xlink:href="#mf0a69c463b" y="380.682608"/>
     <use style="fill:#008000;stroke:#008000;" x="1053.689708" xlink:href="#mf0a69c463b" y="380.519674"/>
     <use style="fill:#008000;stroke:#008000;" x="1063.721523" xlink:href="#mf0a69c463b" y="380.356665"/>
     <use style="fill:#008000;stroke:#008000;" x="1073.940652" xlink:href="#mf0a69c463b" y="380.190612"/>
     <use style="fill:#008000;stroke:#008000;" x="1083.961585" xlink:href="#mf0a69c463b" y="380.027779"/>
     <use style="fill:#008000;stroke:#008000;" x="1094.082004" xlink:href="#mf0a69c463b" y="379.86333"/>
     <use style="fill:#008000;stroke:#008000;" x="1104.118482" xlink:href="#mf0a69c463b" y="379.700245"/>
     <use style="fill:#008000;stroke:#008000;" x="1114.175946" xlink:href="#mf0a69c463b" y="379.536819"/>
     <use style="fill:#008000;stroke:#008000;" x="1124.23885" xlink:href="#mf0a69c463b" y="379.373305"/>
     <use style="fill:#008000;stroke:#008000;" x="1134.280769" xlink:href="#mf0a69c463b" y="379.210131"/>
     <use style="fill:#008000;stroke:#008000;" x="1144.484353" xlink:href="#mf0a69c463b" y="379.044331"/>
     <use style="fill:#008000;stroke:#008000;" x="1154.531712" xlink:href="#mf0a69c463b" y="378.881069"/>
     <use style="fill:#008000;stroke:#008000;" x="1164.620265" xlink:href="#mf0a69c463b" y="378.717138"/>
     <use style="fill:#008000;stroke:#008000;" x="1174.678506" xlink:href="#mf0a69c463b" y="378.553699"/>
     <use style="fill:#008000;stroke:#008000;" x="1184.701771" xlink:href="#mf0a69c463b" y="378.390828"/>
     <use style="fill:#008000;stroke:#008000;" x="1194.854057" xlink:href="#mf0a69c463b" y="378.225862"/>
     <use style="fill:#008000;stroke:#008000;" x="1204.887426" xlink:href="#mf0a69c463b" y="378.062827"/>
     <use style="fill:#008000;stroke:#008000;" x="1215.073134" xlink:href="#mf0a69c463b" y="377.897317"/>
     <use style="fill:#008000;stroke:#008000;" x="1225.089404" xlink:href="#mf0a69c463b" y="377.73456"/>
     <use style="fill:#008000;stroke:#008000;" x="1235.229254" xlink:href="#mf0a69c463b" y="377.569795"/>
     <use style="fill:#008000;stroke:#008000;" x="1245.272727" xlink:href="#mf0a69c463b" y="377.406597"/>
    </g>
   </g>
   <g id="patch_3">
    <path d="M 180 512.64 
L 180 69.12 
" style="fill:none;stroke:#000000;stroke-linecap:square;stroke-linejoin:miter;stroke-width:0.8;"/>
   </g>
   <g id="patch_4">
    <path d="M 1296 512.64 
L 1296 69.12 
" style="fill:none;stroke:#000000;stroke-linecap:square;stroke-linejoin:miter;stroke-width:0.8;"/>
   </g>
   <g id="patch_5">
    <path d="M 180 512.64 
L 1296 512.64 
" style="fill:none;stroke:#000000;stroke-linecap:square;stroke-linejoin:miter;stroke-width:0.8;"/>
   </g>
   <g id="patch_6">
    <path d="M 180 69.12 
L 1296 69.12 
" style="fill:none;stroke:#000000;stroke-linecap:square;stroke-linejoin:miter;stroke-width:0.8;"/>
   </g>
   <g id="text_13">
    <!-- 500000.0 bit/s -->
    <defs>
     <path id="DejaVuSans-20"/>
     <path d="M 48.6875 27.296875 
Q 48.6875 37.203125 44.609375 42.84375 
Q 40.53125 48.484375 33.40625 48.484375 
Q 26.265625 48.484375 22.1875 42.84375 
Q 18.109375 37.203125 18.109375 27.296875 
Q 18.109375 17.390625 22.1875 11.75 
Q 26.265625 6.109375 33.40625 6.109375 
Q 40.53125 6.109375 44.609375 11.75 
Q 48.6875 17.390625 48.6875 27.296875 
z
M 18.109375 46.390625 
Q 20.953125 51.265625 25.265625 53.625 
Q 29.59375 56 35.59375 56 
Q 45.5625 56 51.78125 48.09375 
Q 58.015625 40.1875 58.015625 27.296875 
Q 58.015625 14.40625 51.78125 6.484375 
Q 45.5625 -1.421875 35.59375 -1.421875 
Q 29.59375 -1.421875 25.265625 0.953125 
Q 20.953125 3.328125 18.109375 8.203125 
L 18.109375 0 
L 9.078125 0 
L 9.078125 75.984375 
L 18.109375 75.984375 
z
" id="DejaVuSans-62"/>
     <path d="M 9.421875 54.6875 
L 18.40625 54.6875 
L 18.40625 0 
L 9.421875 0 
z
M 9.421875 75.984375 
L 18.40625 75.984375 
L 18.40625 64.59375 
L 9.421875 64.59375 
z
" id="DejaVuSans-69"/>
     <path d="M 18.3125 70.21875 
L 18.3125 54.6875 
L 36.8125 54.6875 
L 36.8125 47.703125 
L 18.3125 47.703125 
L 18.3125 18.015625 
Q 18.3125 11.328125 20.140625 9.421875 
Q 21.96875 7.515625 27.59375 7.515625 
L 36.8125 7.515625 
L 36.8125 0 
L 27.59375 0 
Q 17.1875 0 13.234375 3.875 
Q 9.28125 7.765625 9.28125 18.015625 
L 9.28125 47.703125 
L 2.6875 47.703125 
L 2.6875 54.6875 
L 9.28125 54.6875 
L 9.28125 70.21875 
z
" id="DejaVuSans-74"/>
     <path d="M 25.390625 72.90625 
L 33.6875 72.90625 
L 8.296875 -9.28125 
L 0 -9.28125 
z
" id="DejaVuSans-2f"/>
     <path d="M 44.28125 53.078125 
L 44.28125 44.578125 
Q 40.484375 46.53125 36.375 47.5 
Q 32.28125 48.484375 27.875 48.484375 
Q 21.1875 48.484375 17.84375 46.4375 
Q 14.5 44.390625 14.5 40.28125 
Q 14.5 37.15625 16.890625 35.375 
Q 19.28125 33.59375 26.515625 31.984375 
L 29.59375 31.296875 
Q 39.15625 29.25 43.1875 25.515625 
Q 47.21875 21.78125 47.21875 15.09375 
Q 47.21875 7.46875 41.1875 3.015625 
Q 35.15625 -1.421875 24.609375 -1.421875 
Q 20.21875 -1.421875 15.453125 -0.5625 
Q 10.6875 0.296875 5.421875 2 
L 5.421875 11.28125 
Q 10.40625 8.6875 15.234375 7.390625 
Q 20.0625 6.109375 24.8125 6.109375 
Q 31.15625 6.109375 34.5625 8.28125 
Q 37.984375 10.453125 37.984375 14.40625 
Q 37.984375 18.0625 35.515625 20.015625 
Q 33.0625 21.96875 24.703125 23.78125 
L 21.578125 24.515625 
Q 13.234375 26.265625 9.515625 29.90625 
Q 5.8125 33.546875 5.8125 39.890625 
Q 5.8125 47.609375 11.28125 51.796875 
Q 16.75 56 26.8125 56 
Q 31.78125 56 36.171875 55.265625 
Q 40.578125 54.546875 44.28125 53.078125 
z
" id="DejaVuSans-73"/>
    </defs>
    <g transform="translate(694.48875 63.12)scale(0.12 -0.12)">
     <use xlink:href="#DejaVuSans-35"/>
     <use x="63.623047" xlink:href="#DejaVuSans-30"/>
     <use x="127.246094" xlink:href="#DejaVuSans-30"/>
     <use x="190.869141" xlink:href="#DejaVuSans-30"/>
     <use x="254.492188" xlink:href="#DejaVuSans-30"/>
     <use x="318.115234" xlink:href="#DejaVuSans-30"/>
     <use x="381.738281" xlink:href="#DejaVuSans-2e"/>
     <use x="413.525391" xlink:href="#DejaVuSans-30"/>
     <use x="477.148438" xlink:href="#DejaVuSans-20"/>
     <use x="508.935547" xlink:href="#DejaVuSans-62"/>
     <use x="572.412109" xlink:href="#DejaVuSans-69"/>
     <use x="600.195312" xlink:href="#DejaVuSans-74"/>
     <use x="639.404297" xlink:href="#DejaVuSans-2f"/>
     <use x="673.095703" xlink:href="#DejaVuSans-73"/>
    </g>
   </g>
   <g id="legend_1">
    <g id="patch_7">
     <path d="M 1173.520313 135.8325 
L 1289 135.8325 
Q 1291 135.8325 1291 133.8325 
L 1291 76.12 
Q 1291 74.12 1289 74.12 
L 1173.520313 74.12 
Q 1171.520313 74.12 1171.520313 76.12 
L 1171.520313 133.8325 
Q 1171.520313 135.8325 1173.520313 135.8325 
z
" style="fill:#ffffff;opacity:0.8;stroke:#cccccc;stroke-linejoin:miter;"/>
    </g>
    <g id="line2d_17">
     <path d="M 1175.520313 82.218437 
L 1195.520313 82.218437 
" style="fill:none;stroke:#ff0000;stroke-dasharray:5.55,2.4;stroke-dashoffset:0;stroke-width:1.5;"/>
    </g>
    <g id="line2d_18">
     <g>
      <use style="fill:#ff0000;stroke:#ff0000;stroke-linejoin:miter;" x="1185.520313" xlink:href="#mc16f064b33" y="82.218437"/>
     </g>
    </g>
    <g id="text_14">
     <!-- tcpdump -->
     <defs>
      <path d="M 48.78125 52.59375 
L 48.78125 44.1875 
Q 44.96875 46.296875 41.140625 47.34375 
Q 37.3125 48.390625 33.40625 48.390625 
Q 24.65625 48.390625 19.8125 42.84375 
Q 14.984375 37.3125 14.984375 27.296875 
Q 14.984375 17.28125 19.8125 11.734375 
Q 24.65625 6.203125 33.40625 6.203125 
Q 37.3125 6.203125 41.140625 7.25 
Q 44.96875 8.296875 48.78125 10.40625 
L 48.78125 2.09375 
Q 45.015625 0.34375 40.984375 -0.53125 
Q 36.96875 -1.421875 32.421875 -1.421875 
Q 20.0625 -1.421875 12.78125 6.34375 
Q 5.515625 14.109375 5.515625 27.296875 
Q 5.515625 40.671875 12.859375 48.328125 
Q 20.21875 56 33.015625 56 
Q 37.15625 56 41.109375 55.140625 
Q 45.0625 54.296875 48.78125 52.59375 
z
" id="DejaVuSans-63"/>
      <path d="M 18.109375 8.203125 
L 18.109375 -20.796875 
L 9.078125 -20.796875 
L 9.078125 54.6875 
L 18.109375 54.6875 
L 18.109375 46.390625 
Q 20.953125 51.265625 25.265625 53.625 
Q 29.59375 56 35.59375 56 
Q 45.5625 56 51.78125 48.09375 
Q 58.015625 40.1875 58.015625 27.296875 
Q 58.015625 14.40625 51.78125 6.484375 
Q 45.5625 -1.421875 35.59375 -1.421875 
Q 29.59375 -1.421875 25.265625 0.953125 
Q 20.953125 3.328125 18.109375 8.203125 
z
M 48.6875 27.296875 
Q 48.6875 37.203125 44.609375 42.84375 
Q 40.53125 48.484375 33.40625 48.484375 
Q 26.265625 48.484375 22.1875 42.84375 
Q 18.109375 37.203125 18.109375 27.296875 
Q 18.109375 17.390625 22.1875 11.75 
Q 26.265625 6.109375 33.40625 6.109375 
Q 40.53125 6.109375 44.609375 11.75 
Q 48.6875 17.390625 48.6875 27.296875 
z
" id="DejaVuSans-70"/>
      <path d="M 45.40625 46.390625 
L 45.40625 75.984375 
L 54.390625 75.984375 
L 54.390625 0 
L 45.40625 0 
L 45.40625 8.203125 
Q 42.578125 3.328125 38.25 0.953125 
Q 33.9375 -1.421875 27.875 -1.421875 
Q 17.96875 -1.421875 11.734375 6.484375 
Q 5.515625 14.40625 5.515625 27.296875 
Q 5.515625 40.1875 11.734375 48.09375 
Q 17.96875 56 27.875 56 
Q 33.9375 56 38.25 53.625 
Q 42.578125 51.265625 45.40625 46.390625 
z
M 14.796875 27.296875 
Q 14.796875 17.390625 18.875 11.75 
Q 22.953125 6.109375 30.078125 6.109375 
Q 37.203125 6.109375 41.296875 11.75 
Q 45.40625 17.390625 45.40625 27.296875 
Q 45.40625 37.203125 41.296875 42.84375 
Q 37.203125 48.484375 30.078125 48.484375 
Q 22.953125 48.484375 18.875 42.84375 
Q 14.796875 37.203125 14.796875 27.296875 
z
" id="DejaVuSans-64"/>
      <path d="M 8.5 21.578125 
L 8.5 54.6875 
L 17.484375 54.6875 
L 17.484375 21.921875 
Q 17.484375 14.15625 20.5 10.265625 
Q 23.53125 6.390625 29.59375 6.390625 
Q 36.859375 6.390625 41.078125 11.03125 
Q 45.3125 15.671875 45.3125 23.6875 
L 45.3125 54.6875 
L 54.296875 54.6875 
L 54.296875 0 
L 45.3125 0 
L 45.3125 8.40625 
Q 42.046875 3.421875 37.71875 1 
Q 33.40625 -1.421875 27.6875 -1.421875 
Q 18.265625 -1.421875 13.375 4.4375 
Q 8.5 10.296875 8.5 21.578125 
z
M 31.109375 56 
z
" id="DejaVuSans-75"/>
      <path d="M 52 44.1875 
Q 55.375 50.25 60.0625 53.125 
Q 64.75 56 71.09375 56 
Q 79.640625 56 84.28125 50.015625 
Q 88.921875 44.046875 88.921875 33.015625 
L 88.921875 0 
L 79.890625 0 
L 79.890625 32.71875 
Q 79.890625 40.578125 77.09375 44.375 
Q 74.3125 48.1875 68.609375 48.1875 
Q 61.625 48.1875 57.5625 43.546875 
Q 53.515625 38.921875 53.515625 30.90625 
L 53.515625 0 
L 44.484375 0 
L 44.484375 32.71875 
Q 44.484375 40.625 41.703125 44.40625 
Q 38.921875 48.1875 33.109375 48.1875 
Q 26.21875 48.1875 22.15625 43.53125 
Q 18.109375 38.875 18.109375 30.90625 
L 18.109375 0 
L 9.078125 0 
L 9.078125 54.6875 
L 18.109375 54.6875 
L 18.109375 46.1875 
Q 21.1875 51.21875 25.484375 53.609375 
Q 29.78125 56 35.6875 56 
Q 41.65625 56 45.828125 52.96875 
Q 50 49.953125 52 44.1875 
z
" id="DejaVuSans-6d"/>
     </defs>
     <g transform="translate(1203.520313 85.718437)scale(0.1 -0.1)">
      <use xlink:href="#DejaVuSans-74"/>
      <use x="39.208984" xlink:href="#DejaVuSans-63"/>
      <use x="94.189453" xlink:href="#DejaVuSans-70"/>
      <use x="157.666016" xlink:href="#DejaVuSans-64"/>
      <use x="221.142578" xlink:href="#DejaVuSans-75"/>
      <use x="284.521484" xlink:href="#DejaVuSans-6d"/>
      <use x="381.933594" xlink:href="#DejaVuSans-70"/>
     </g>
    </g>
    <g id="line2d_19">
     <path d="M 1175.520313 96.896563 
L 1195.520313 96.896563 
" style="fill:none;stroke:#800080;stroke-dasharray:9.6,2.4,1.5,2.4;stroke-dashoffset:0;stroke-width:1.5;"/>
    </g>
    <g id="line2d_20">
     <g>
      <use style="fill:#800080;stroke:#800080;" x="1185.520313" xlink:href="#m87c4d9e50a" y="96.896563"/>
     </g>
    </g>
    <g id="text_15">
     <!-- filtered tcpdump -->
     <defs>
      <path d="M 37.109375 75.984375 
L 37.109375 68.5 
L 28.515625 68.5 
Q 23.6875 68.5 21.796875 66.546875 
Q 19.921875 64.59375 19.921875 59.515625 
L 19.921875 54.6875 
L 34.71875 54.6875 
L 34.71875 47.703125 
L 19.921875 47.703125 
L 19.921875 0 
L 10.890625 0 
L 10.890625 47.703125 
L 2.296875 47.703125 
L 2.296875 54.6875 
L 10.890625 54.6875 
L 10.890625 58.5 
Q 10.890625 67.625 15.140625 71.796875 
Q 19.390625 75.984375 28.609375 75.984375 
z
" id="DejaVuSans-66"/>
      <path d="M 9.421875 75.984375 
L 18.40625 75.984375 
L 18.40625 0 
L 9.421875 0 
z
" id="DejaVuSans-6c"/>
      <path d="M 56.203125 29.59375 
L 56.203125 25.203125 
L 14.890625 25.203125 
Q 15.484375 15.921875 20.484375 11.0625 
Q 25.484375 6.203125 34.421875 6.203125 
Q 39.59375 6.203125 44.453125 7.46875 
Q 49.3125 8.734375 54.109375 11.28125 
L 54.109375 2.78125 
Q 49.265625 0.734375 44.1875 -0.34375 
Q 39.109375 -1.421875 33.890625 -1.421875 
Q 20.796875 -1.421875 13.15625 6.1875 
Q 5.515625 13.8125 5.515625 26.8125 
Q 5.515625 40.234375 12.765625 48.109375 
Q 20.015625 56 32.328125 56 
Q 43.359375 56 49.78125 48.890625 
Q 56.203125 41.796875 56.203125 29.59375 
z
M 47.21875 32.234375 
Q 47.125 39.59375 43.09375 43.984375 
Q 39.0625 48.390625 32.421875 48.390625 
Q 24.90625 48.390625 20.390625 44.140625 
Q 15.875 39.890625 15.1875 32.171875 
z
" id="DejaVuSans-65"/>
      <path d="M 41.109375 46.296875 
Q 39.59375 47.171875 37.8125 47.578125 
Q 36.03125 48 33.890625 48 
Q 26.265625 48 22.1875 43.046875 
Q 18.109375 38.09375 18.109375 28.8125 
L 18.109375 0 
L 9.078125 0 
L 9.078125 54.6875 
L 18.109375 54.6875 
L 18.109375 46.1875 
Q 20.953125 51.171875 25.484375 53.578125 
Q 30.03125 56 36.53125 56 
Q 37.453125 56 38.578125 55.875 
Q 39.703125 55.765625 41.0625 55.515625 
z
" id="DejaVuSans-72"/>
     </defs>
     <g transform="translate(1203.520313 100.396563)scale(0.1 -0.1)">
      <use xlink:href="#DejaVuSans-66"/>
      <use x="35.205078" xlink:href="#DejaVuSans-69"/>
      <use x="62.988281" xlink:href="#DejaVuSans-6c"/>
      <use x="90.771484" xlink:href="#DejaVuSans-74"/>
      <use x="129.980469" xlink:href="#DejaVuSans-65"/>
      <use x="191.503906" xlink:href="#DejaVuSans-72"/>
      <use x="232.585938" xlink:href="#DejaVuSans-65"/>
      <use x="294.109375" xlink:href="#DejaVuSans-64"/>
      <use x="357.585938" xlink:href="#DejaVuSans-20"/>
      <use x="389.373047" xlink:href="#DejaVuSans-74"/>
      <use x="428.582031" xlink:href="#DejaVuSans-63"/>
      <use x="483.5625" xlink:href="#DejaVuSans-70"/>
      <use x="547.039062" xlink:href="#DejaVuSans-64"/>
      <use x="610.515625" xlink:href="#DejaVuSans-75"/>
      <use x="673.894531" xlink:href="#DejaVuSans-6d"/>
      <use x="771.306641" xlink:href="#DejaVuSans-70"/>
     </g>
    </g>
    <g id="line2d_21">
     <path d="M 1175.520313 111.574687 
L 1195.520313 111.574687 
" style="fill:none;stroke:#0000ff;stroke-linecap:square;stroke-width:1.5;"/>
    </g>
    <g id="line2d_22"/>
    <g id="text_16">
     <!-- OLS -->
     <defs>
      <path d="M 39.40625 66.21875 
Q 28.65625 66.21875 22.328125 58.203125 
Q 16.015625 50.203125 16.015625 36.375 
Q 16.015625 22.609375 22.328125 14.59375 
Q 28.65625 6.59375 39.40625 6.59375 
Q 50.140625 6.59375 56.421875 14.59375 
Q 62.703125 22.609375 62.703125 36.375 
Q 62.703125 50.203125 56.421875 58.203125 
Q 50.140625 66.21875 39.40625 66.21875 
z
M 39.40625 74.21875 
Q 54.734375 74.21875 63.90625 63.9375 
Q 73.09375 53.65625 73.09375 36.375 
Q 73.09375 19.140625 63.90625 8.859375 
Q 54.734375 -1.421875 39.40625 -1.421875 
Q 24.03125 -1.421875 14.8125 8.828125 
Q 5.609375 19.09375 5.609375 36.375 
Q 5.609375 53.65625 14.8125 63.9375 
Q 24.03125 74.21875 39.40625 74.21875 
z
" id="DejaVuSans-4f"/>
      <path d="M 9.8125 72.90625 
L 19.671875 72.90625 
L 19.671875 8.296875 
L 55.171875 8.296875 
L 55.171875 0 
L 9.8125 0 
z
" id="DejaVuSans-4c"/>
      <path d="M 53.515625 70.515625 
L 53.515625 60.890625 
Q 47.90625 63.578125 42.921875 64.890625 
Q 37.9375 66.21875 33.296875 66.21875 
Q 25.25 66.21875 20.875 63.09375 
Q 16.5 59.96875 16.5 54.203125 
Q 16.5 49.359375 19.40625 46.890625 
Q 22.3125 44.4375 30.421875 42.921875 
L 36.375 41.703125 
Q 47.40625 39.59375 52.65625 34.296875 
Q 57.90625 29 57.90625 20.125 
Q 57.90625 9.515625 50.796875 4.046875 
Q 43.703125 -1.421875 29.984375 -1.421875 
Q 24.8125 -1.421875 18.96875 -0.25 
Q 13.140625 0.921875 6.890625 3.21875 
L 6.890625 13.375 
Q 12.890625 10.015625 18.65625 8.296875 
Q 24.421875 6.59375 29.984375 6.59375 
Q 38.421875 6.59375 43.015625 9.90625 
Q 47.609375 13.234375 47.609375 19.390625 
Q 47.609375 24.75 44.3125 27.78125 
Q 41.015625 30.8125 33.5 32.328125 
L 27.484375 33.5 
Q 16.453125 35.6875 11.515625 40.375 
Q 6.59375 45.0625 6.59375 53.421875 
Q 6.59375 63.09375 13.40625 68.65625 
Q 20.21875 74.21875 32.171875 74.21875 
Q 37.3125 74.21875 42.625 73.28125 
Q 47.953125 72.359375 53.515625 70.515625 
z
" id="DejaVuSans-53"/>
     </defs>
     <g transform="translate(1203.520313 115.074687)scale(0.1 -0.1)">
      <use xlink:href="#DejaVuSans-4f"/>
      <use x="78.710938" xlink:href="#DejaVuSans-4c"/>
      <use x="134.423828" xlink:href="#DejaVuSans-53"/>
     </g>
    </g>
    <g id="line2d_23">
     <path d="M 1175.520313 126.252813 
L 1195.520313 126.252813 
" style="fill:none;stroke:#008000;stroke-linecap:square;stroke-width:1.5;"/>
    </g>
    <g id="line2d_24">
     <g>
      <use style="fill:#008000;stroke:#008000;" x="1185.520313" xlink:href="#mf0a69c463b" y="126.252813"/>
     </g>
    </g>
    <g id="text_17">
     <!-- IRLS -->
     <defs>
      <path d="M 9.8125 72.90625 
L 19.671875 72.90625 
L 19.671875 0 
L 9.8125 0 
z
" id="DejaVuSans-49"/>
      <path d="M 44.390625 34.1875 
Q 47.5625 33.109375 50.5625 29.59375 
Q 53.5625 26.078125 56.59375 19.921875 
L 66.609375 0 
L 56 0 
L 46.6875 18.703125 
Q 43.0625 26.03125 39.671875 28.421875 
Q 36.28125 30.8125 30.421875 30.8125 
L 19.671875 30.8125 
L 19.671875 0 
L 9.8125 0 
L 9.8125 72.90625 
L 32.078125 72.90625 
Q 44.578125 72.90625 50.734375 67.671875 
Q 56.890625 62.453125 56.890625 51.90625 
Q 56.890625 45.015625 53.6875 40.46875 
Q 50.484375 35.9375 44.390625 34.1875 
z
M 19.671875 64.796875 
L 19.671875 38.921875 
L 32.078125 38.921875 
Q 39.203125 38.921875 42.84375 42.21875 
Q 46.484375 45.515625 46.484375 51.90625 
Q 46.484375 58.296875 42.84375 61.546875 
Q 39.203125 64.796875 32.078125 64.796875 
z
" id="DejaVuSans-52"/>
     </defs>
     <g transform="translate(1203.520313 129.752813)scale(0.1 -0.1)">
      <use xlink:href="#DejaVuSans-49"/>
      <use x="29.492188" xlink:href="#DejaVuSans-52"/>
      <use x="98.974609" xlink:href="#DejaVuSans-4c"/>
      <use x="154.6875" xlink:href="#DejaVuSans-53"/>
     </g>
    </g>
   </g>
  </g>
 </g>
 <defs>
  <clipPath id="p05c1d7dcf9">
   <rect height="443.52" width="1116" x="180" y="69.12"/>
  </clipPath>
 </defs>
</svg>
