<?xml version="1.0" encoding="utf-8" standalone="no"?>
<!DOCTYPE svg PUBLIC "-//W3C//DTD SVG 1.1//EN"
  "http://www.w3.org/Graphics/SVG/1.1/DTD/svg11.dtd">
<!-- Created with matplotlib (http://matplotlib.org/) -->
<svg height="576pt" version="1.1" viewBox="0 0 1440 576" width="1440pt" xmlns="http://www.w3.org/2000/svg" xmlns:xlink="http://www.w3.org/1999/xlink">
 <defs>
  <style type="text/css">
*{stroke-linecap:butt;stroke-linejoin:round;}
  </style>
 </defs>
 <g id="figure_1">
  <g id="patch_1">
   <path d="M 0 576 
L 1440 576 
L 1440 0 
L 0 0 
z
" style="fill:#ffffff;"/>
  </g>
  <g id="axes_1">
   <g id="patch_2">
    <path d="M 180 512.64 
L 1296 512.64 
L 1296 69.12 
L 180 69.12 
z
" style="fill:#ffffff;"/>
   </g>
   <g id="matplotlib.axis_1">
    <g id="xtick_1">
     <g id="line2d_1">
      <defs>
       <path d="M 0 0 
L 0 3.5 
" id="m7155d0aa21" style="stroke:#000000;stroke-width:0.8;"/>
      </defs>
      <g>
       <use style="stroke:#000000;stroke-width:0.8;" x="230.727273" xlink:href="#m7155d0aa21" y="512.64"/>
      </g>
     </g>
     <g id="text_1">
      <!-- 0.0 -->
      <defs>
       <path d="M 31.78125 66.40625 
Q 24.171875 66.40625 20.328125 58.90625 
Q 16.5 51.421875 16.5 36.375 
Q 16.5 21.390625 20.328125 13.890625 
Q 24.171875 6.390625 31.78125 6.390625 
Q 39.453125 6.390625 43.28125 13.890625 
Q 47.125 21.390625 47.125 36.375 
Q 47.125 51.421875 43.28125 58.90625 
Q 39.453125 66.40625 31.78125 66.40625 
z
M 31.78125 74.21875 
Q 44.046875 74.21875 50.515625 64.515625 
Q 56.984375 54.828125 56.984375 36.375 
Q 56.984375 17.96875 50.515625 8.265625 
Q 44.046875 -1.421875 31.78125 -1.421875 
Q 19.53125 -1.421875 13.0625 8.265625 
Q 6.59375 17.96875 6.59375 36.375 
Q 6.59375 54.828125 13.0625 64.515625 
Q 19.53125 74.21875 31.78125 74.21875 
z
" id="DejaVuSans-30"/>
       <path d="M 10.6875 12.40625 
L 21 12.40625 
L 21 0 
L 10.6875 0 
z
" id="DejaVuSans-2e"/>
      </defs>
      <g transform="translate(222.77571 527.238438)scale(0.1 -0.1)">
       <use xlink:href="#DejaVuSans-30"/>
       <use x="63.623047" xlink:href="#DejaVuSans-2e"/>
       <use x="95.410156" xlink:href="#DejaVuSans-30"/>
      </g>
     </g>
    </g>
    <g id="xtick_2">
     <g id="line2d_2">
      <g>
       <use style="stroke:#000000;stroke-width:0.8;" x="383.639668" xlink:href="#m7155d0aa21" y="512.64"/>
      </g>
     </g>
     <g id="text_2">
      <!-- 0.2 -->
      <defs>
       <path d="M 19.1875 8.296875 
L 53.609375 8.296875 
L 53.609375 0 
L 7.328125 0 
L 7.328125 8.296875 
Q 12.9375 14.109375 22.625 23.890625 
Q 32.328125 33.6875 34.8125 36.53125 
Q 39.546875 41.84375 41.421875 45.53125 
Q 43.3125 49.21875 43.3125 52.78125 
Q 43.3125 58.59375 39.234375 62.25 
Q 35.15625 65.921875 28.609375 65.921875 
Q 23.96875 65.921875 18.8125 64.3125 
Q 13.671875 62.703125 7.8125 59.421875 
L 7.8125 69.390625 
Q 13.765625 71.78125 18.9375 73 
Q 24.125 74.21875 28.421875 74.21875 
Q 39.75 74.21875 46.484375 68.546875 
Q 53.21875 62.890625 53.21875 53.421875 
Q 53.21875 48.921875 51.53125 44.890625 
Q 49.859375 40.875 45.40625 35.40625 
Q 44.1875 33.984375 37.640625 27.21875 
Q 31.109375 20.453125 19.1875 8.296875 
z
" id="DejaVuSans-32"/>
      </defs>
      <g transform="translate(375.688106 527.238438)scale(0.1 -0.1)">
       <use xlink:href="#DejaVuSans-30"/>
       <use x="63.623047" xlink:href="#DejaVuSans-2e"/>
       <use x="95.410156" xlink:href="#DejaVuSans-32"/>
      </g>
     </g>
    </g>
    <g id="xtick_3">
     <g id="line2d_3">
      <g>
       <use style="stroke:#000000;stroke-width:0.8;" x="536.552063" xlink:href="#m7155d0aa21" y="512.64"/>
      </g>
     </g>
     <g id="text_3">
      <!-- 0.4 -->
      <defs>
       <path d="M 37.796875 64.3125 
L 12.890625 25.390625 
L 37.796875 25.390625 
z
M 35.203125 72.90625 
L 47.609375 72.90625 
L 47.609375 25.390625 
L 58.015625 25.390625 
L 58.015625 17.1875 
L 47.609375 17.1875 
L 47.609375 0 
L 37.796875 0 
L 37.796875 17.1875 
L 4.890625 17.1875 
L 4.890625 26.703125 
z
" id="DejaVuSans-34"/>
      </defs>
      <g transform="translate(528.600501 527.238438)scale(0.1 -0.1)">
       <use xlink:href="#DejaVuSans-30"/>
       <use x="63.623047" xlink:href="#DejaVuSans-2e"/>
       <use x="95.410156" xlink:href="#DejaVuSans-34"/>
      </g>
     </g>
    </g>
    <g id="xtick_4">
     <g id="line2d_4">
      <g>
       <use style="stroke:#000000;stroke-width:0.8;" x="689.464459" xlink:href="#m7155d0aa21" y="512.64"/>
      </g>
     </g>
     <g id="text_4">
      <!-- 0.6 -->
      <defs>
       <path d="M 33.015625 40.375 
Q 26.375 40.375 22.484375 35.828125 
Q 18.609375 31.296875 18.609375 23.390625 
Q 18.609375 15.53125 22.484375 10.953125 
Q 26.375 6.390625 33.015625 6.390625 
Q 39.65625 6.390625 43.53125 10.953125 
Q 47.40625 15.53125 47.40625 23.390625 
Q 47.40625 31.296875 43.53125 35.828125 
Q 39.65625 40.375 33.015625 40.375 
z
M 52.59375 71.296875 
L 52.59375 62.3125 
Q 48.875 64.0625 45.09375 64.984375 
Q 41.3125 65.921875 37.59375 65.921875 
Q 27.828125 65.921875 22.671875 59.328125 
Q 17.53125 52.734375 16.796875 39.40625 
Q 19.671875 43.65625 24.015625 45.921875 
Q 28.375 48.1875 33.59375 48.1875 
Q 44.578125 48.1875 50.953125 41.515625 
Q 57.328125 34.859375 57.328125 23.390625 
Q 57.328125 12.15625 50.6875 5.359375 
Q 44.046875 -1.421875 33.015625 -1.421875 
Q 20.359375 -1.421875 13.671875 8.265625 
Q 6.984375 17.96875 6.984375 36.375 
Q 6.984375 53.65625 15.1875 63.9375 
Q 23.390625 74.21875 37.203125 74.21875 
Q 40.921875 74.21875 44.703125 73.484375 
Q 48.484375 72.75 52.59375 71.296875 
z
" id="DejaVuSans-36"/>
      </defs>
      <g transform="translate(681.512896 527.238438)scale(0.1 -0.1)">
       <use xlink:href="#DejaVuSans-30"/>
       <use x="63.623047" xlink:href="#DejaVuSans-2e"/>
       <use x="95.410156" xlink:href="#DejaVuSans-36"/>
      </g>
     </g>
    </g>
    <g id="xtick_5">
     <g id="line2d_5">
      <g>
       <use style="stroke:#000000;stroke-width:0.8;" x="842.376854" xlink:href="#m7155d0aa21" y="512.64"/>
      </g>
     </g>
     <g id="text_5">
      <!-- 0.8 -->
      <defs>
       <path d="M 31.78125 34.625 
Q 24.75 34.625 20.71875 30.859375 
Q 16.703125 27.09375 16.703125 20.515625 
Q 16.703125 13.921875 20.71875 10.15625 
Q 24.75 6.390625 31.78125 6.390625 
Q 38.8125 6.390625 42.859375 10.171875 
Q 46.921875 13.96875 46.921875 20.515625 
Q 46.921875 27.09375 42.890625 30.859375 
Q 38.875 34.625 31.78125 34.625 
z
M 21.921875 38.8125 
Q 15.578125 40.375 12.03125 44.71875 
Q 8.5 49.078125 8.5 55.328125 
Q 8.5 64.0625 14.71875 69.140625 
Q 20.953125 74.21875 31.78125 74.21875 
Q 42.671875 74.21875 48.875 69.140625 
Q 55.078125 64.0625 55.078125 55.328125 
Q 55.078125 49.078125 51.53125 44.71875 
Q 48 40.375 41.703125 38.8125 
Q 48.828125 37.15625 52.796875 32.3125 
Q 56.78125 27.484375 56.78125 20.515625 
Q 56.78125 9.90625 50.3125 4.234375 
Q 43.84375 -1.421875 31.78125 -1.421875 
Q 19.734375 -1.421875 13.25 4.234375 
Q 6.78125 9.90625 6.78125 20.515625 
Q 6.78125 27.484375 10.78125 32.3125 
Q 14.796875 37.15625 21.921875 38.8125 
z
M 18.3125 54.390625 
Q 18.3125 48.734375 21.84375 45.5625 
Q 25.390625 42.390625 31.78125 42.390625 
Q 38.140625 42.390625 41.71875 45.5625 
Q 45.3125 48.734375 45.3125 54.390625 
Q 45.3125 60.0625 41.71875 63.234375 
Q 38.140625 66.40625 31.78125 66.40625 
Q 25.390625 66.40625 21.84375 63.234375 
Q 18.3125 60.0625 18.3125 54.390625 
z
" id="DejaVuSans-38"/>
      </defs>
      <g transform="translate(834.425292 527.238438)scale(0.1 -0.1)">
       <use xlink:href="#DejaVuSans-30"/>
       <use x="63.623047" xlink:href="#DejaVuSans-2e"/>
       <use x="95.410156" xlink:href="#DejaVuSans-38"/>
      </g>
     </g>
    </g>
    <g id="xtick_6">
     <g id="line2d_6">
      <g>
       <use style="stroke:#000000;stroke-width:0.8;" x="995.28925" xlink:href="#m7155d0aa21" y="512.64"/>
      </g>
     </g>
     <g id="text_6">
      <!-- 1.0 -->
      <defs>
       <path d="M 12.40625 8.296875 
L 28.515625 8.296875 
L 28.515625 63.921875 
L 10.984375 60.40625 
L 10.984375 69.390625 
L 28.421875 72.90625 
L 38.28125 72.90625 
L 38.28125 8.296875 
L 54.390625 8.296875 
L 54.390625 0 
L 12.40625 0 
z
" id="DejaVuSans-31"/>
      </defs>
      <g transform="translate(987.337687 527.238438)scale(0.1 -0.1)">
       <use xlink:href="#DejaVuSans-31"/>
       <use x="63.623047" xlink:href="#DejaVuSans-2e"/>
       <use x="95.410156" xlink:href="#DejaVuSans-30"/>
      </g>
     </g>
    </g>
    <g id="xtick_7">
     <g id="line2d_7">
      <g>
       <use style="stroke:#000000;stroke-width:0.8;" x="1148.201645" xlink:href="#m7155d0aa21" y="512.64"/>
      </g>
     </g>
     <g id="text_7">
      <!-- 1.2 -->
      <g transform="translate(1140.250083 527.238438)scale(0.1 -0.1)">
       <use xlink:href="#DejaVuSans-31"/>
       <use x="63.623047" xlink:href="#DejaVuSans-2e"/>
       <use x="95.410156" xlink:href="#DejaVuSans-32"/>
      </g>
     </g>
    </g>
   </g>
   <g id="matplotlib.axis_2">
    <g id="ytick_1">
     <g id="line2d_8">
      <defs>
       <path d="M 0 0 
L -3.5 0 
" id="me7ccd90d0f" style="stroke:#000000;stroke-width:0.8;"/>
      </defs>
      <g>
       <use style="stroke:#000000;stroke-width:0.8;" x="180" xlink:href="#me7ccd90d0f" y="478.989091"/>
      </g>
     </g>
     <g id="text_8">
      <!-- 0.3004 -->
      <defs>
       <path d="M 40.578125 39.3125 
Q 47.65625 37.796875 51.625 33 
Q 55.609375 28.21875 55.609375 21.1875 
Q 55.609375 10.40625 48.1875 4.484375 
Q 40.765625 -1.421875 27.09375 -1.421875 
Q 22.515625 -1.421875 17.65625 -0.515625 
Q 12.796875 0.390625 7.625 2.203125 
L 7.625 11.71875 
Q 11.71875 9.328125 16.59375 8.109375 
Q 21.484375 6.890625 26.8125 6.890625 
Q 36.078125 6.890625 40.9375 10.546875 
Q 45.796875 14.203125 45.796875 21.1875 
Q 45.796875 27.640625 41.28125 31.265625 
Q 36.765625 34.90625 28.71875 34.90625 
L 20.21875 34.90625 
L 20.21875 43.015625 
L 29.109375 43.015625 
Q 36.375 43.015625 40.234375 45.921875 
Q 44.09375 48.828125 44.09375 54.296875 
Q 44.09375 59.90625 40.109375 62.90625 
Q 36.140625 65.921875 28.71875 65.921875 
Q 24.65625 65.921875 20.015625 65.03125 
Q 15.375 64.15625 9.8125 62.3125 
L 9.8125 71.09375 
Q 15.4375 72.65625 20.34375 73.4375 
Q 25.25 74.21875 29.59375 74.21875 
Q 40.828125 74.21875 47.359375 69.109375 
Q 53.90625 64.015625 53.90625 55.328125 
Q 53.90625 49.265625 50.4375 45.09375 
Q 46.96875 40.921875 40.578125 39.3125 
z
" id="DejaVuSans-33"/>
      </defs>
      <g transform="translate(138.009375 482.78831)scale(0.1 -0.1)">
       <use xlink:href="#DejaVuSans-30"/>
       <use x="63.623047" xlink:href="#DejaVuSans-2e"/>
       <use x="95.410156" xlink:href="#DejaVuSans-33"/>
       <use x="159.033203" xlink:href="#DejaVuSans-30"/>
       <use x="222.65625" xlink:href="#DejaVuSans-30"/>
       <use x="286.279297" xlink:href="#DejaVuSans-34"/>
      </g>
     </g>
    </g>
    <g id="ytick_2">
     <g id="line2d_9">
      <g>
       <use style="stroke:#000000;stroke-width:0.8;" x="180" xlink:href="#me7ccd90d0f" y="428.08"/>
      </g>
     </g>
     <g id="text_9">
      <!-- 0.3006 -->
      <g transform="translate(138.009375 431.879219)scale(0.1 -0.1)">
       <use xlink:href="#DejaVuSans-30"/>
       <use x="63.623047" xlink:href="#DejaVuSans-2e"/>
       <use x="95.410156" xlink:href="#DejaVuSans-33"/>
       <use x="159.033203" xlink:href="#DejaVuSans-30"/>
       <use x="222.65625" xlink:href="#DejaVuSans-30"/>
       <use x="286.279297" xlink:href="#DejaVuSans-36"/>
      </g>
     </g>
    </g>
    <g id="ytick_3">
     <g id="line2d_10">
      <g>
       <use style="stroke:#000000;stroke-width:0.8;" x="180" xlink:href="#me7ccd90d0f" y="377.170909"/>
      </g>
     </g>
     <g id="text_10">
      <!-- 0.3008 -->
      <g transform="translate(138.009375 380.970128)scale(0.1 -0.1)">
       <use xlink:href="#DejaVuSans-30"/>
       <use x="63.623047" xlink:href="#DejaVuSans-2e"/>
       <use x="95.410156" xlink:href="#DejaVuSans-33"/>
       <use x="159.033203" xlink:href="#DejaVuSans-30"/>
       <use x="222.65625" xlink:href="#DejaVuSans-30"/>
       <use x="286.279297" xlink:href="#DejaVuSans-38"/>
      </g>
     </g>
    </g>
    <g id="ytick_4">
     <g id="line2d_11">
      <g>
       <use style="stroke:#000000;stroke-width:0.8;" x="180" xlink:href="#me7ccd90d0f" y="326.261818"/>
      </g>
     </g>
     <g id="text_11">
      <!-- 0.3010 -->
      <g transform="translate(138.009375 330.061037)scale(0.1 -0.1)">
       <use xlink:href="#DejaVuSans-30"/>
       <use x="63.623047" xlink:href="#DejaVuSans-2e"/>
       <use x="95.410156" xlink:href="#DejaVuSans-33"/>
       <use x="159.033203" xlink:href="#DejaVuSans-30"/>
       <use x="222.65625" xlink:href="#DejaVuSans-31"/>
       <use x="286.279297" xlink:href="#DejaVuSans-30"/>
      </g>
     </g>
    </g>
    <g id="ytick_5">
     <g id="line2d_12">
      <g>
       <use style="stroke:#000000;stroke-width:0.8;" x="180" xlink:href="#me7ccd90d0f" y="275.352727"/>
      </g>
     </g>
     <g id="text_12">
      <!-- 0.3012 -->
      <g transform="translate(138.009375 279.151946)scale(0.1 -0.1)">
       <use xlink:href="#DejaVuSans-30"/>
       <use x="63.623047" xlink:href="#DejaVuSans-2e"/>
       <use x="95.410156" xlink:href="#DejaVuSans-33"/>
       <use x="159.033203" xlink:href="#DejaVuSans-30"/>
       <use x="222.65625" xlink:href="#DejaVuSans-31"/>
       <use x="286.279297" xlink:href="#DejaVuSans-32"/>
      </g>
     </g>
    </g>
    <g id="ytick_6">
     <g id="line2d_13">
      <g>
       <use style="stroke:#000000;stroke-width:0.8;" x="180" xlink:href="#me7ccd90d0f" y="224.443636"/>
      </g>
     </g>
     <g id="text_13">
      <!-- 0.3014 -->
      <g transform="translate(138.009375 228.242855)scale(0.1 -0.1)">
       <use xlink:href="#DejaVuSans-30"/>
       <use x="63.623047" xlink:href="#DejaVuSans-2e"/>
       <use x="95.410156" xlink:href="#DejaVuSans-33"/>
       <use x="159.033203" xlink:href="#DejaVuSans-30"/>
       <use x="222.65625" xlink:href="#DejaVuSans-31"/>
       <use x="286.279297" xlink:href="#DejaVuSans-34"/>
      </g>
     </g>
    </g>
    <g id="ytick_7">
     <g id="line2d_14">
      <g>
       <use style="stroke:#000000;stroke-width:0.8;" x="180" xlink:href="#me7ccd90d0f" y="173.534545"/>
      </g>
     </g>
     <g id="text_14">
      <!-- 0.3016 -->
      <g transform="translate(138.009375 177.333764)scale(0.1 -0.1)">
       <use xlink:href="#DejaVuSans-30"/>
       <use x="63.623047" xlink:href="#DejaVuSans-2e"/>
       <use x="95.410156" xlink:href="#DejaVuSans-33"/>
       <use x="159.033203" xlink:href="#DejaVuSans-30"/>
       <use x="222.65625" xlink:href="#DejaVuSans-31"/>
       <use x="286.279297" xlink:href="#DejaVuSans-36"/>
      </g>
     </g>
    </g>
    <g id="ytick_8">
     <g id="line2d_15">
      <g>
       <use style="stroke:#000000;stroke-width:0.8;" x="180" xlink:href="#me7ccd90d0f" y="122.625455"/>
      </g>
     </g>
     <g id="text_15">
      <!-- 0.3018 -->
      <g transform="translate(138.009375 126.424673)scale(0.1 -0.1)">
       <use xlink:href="#DejaVuSans-30"/>
       <use x="63.623047" xlink:href="#DejaVuSans-2e"/>
       <use x="95.410156" xlink:href="#DejaVuSans-33"/>
       <use x="159.033203" xlink:href="#DejaVuSans-30"/>
       <use x="222.65625" xlink:href="#DejaVuSans-31"/>
       <use x="286.279297" xlink:href="#DejaVuSans-38"/>
      </g>
     </g>
    </g>
    <g id="ytick_9">
     <g id="line2d_16">
      <g>
       <use style="stroke:#000000;stroke-width:0.8;" x="180" xlink:href="#me7ccd90d0f" y="71.716364"/>
      </g>
     </g>
     <g id="text_16">
      <!-- 0.3020 -->
      <g transform="translate(138.009375 75.515582)scale(0.1 -0.1)">
       <use xlink:href="#DejaVuSans-30"/>
       <use x="63.623047" xlink:href="#DejaVuSans-2e"/>
       <use x="95.410156" xlink:href="#DejaVuSans-33"/>
       <use x="159.033203" xlink:href="#DejaVuSans-30"/>
       <use x="222.65625" xlink:href="#DejaVuSans-32"/>
       <use x="286.279297" xlink:href="#DejaVuSans-30"/>
      </g>
     </g>
    </g>
   </g>
   <g id="line2d_17">
    <path clip-path="url(#p23c6a5b6c0)" d="M 230.727273 472.116364 
L 240.860777 473.898182 
L 250.766442 89.28 
L 260.890007 481.025455 
L 270.906534 489.170909 
L 280.780852 484.589091 
L 291.331042 470.589091 
L 301.37968 475.170909 
L 311.24253 492.225455 
L 321.847005 485.861818 
L 331.788604 492.48 
L 341.688152 491.207273 
L 351.64122 489.934545 
L 361.858062 489.68 
L 371.862355 481.28 
L 381.854416 486.116364 
L 392.048321 490.189091 
L 402.288864 487.389091 
L 412.199881 479.752727 
L 422.386905 488.916364 
L 432.411077 478.225455 
L 442.348089 482.552727 
L 452.330974 480.770909 
L 463.088361 473.134545 
L 473.144645 484.08 
L 483.879095 483.825455 
L 494.040124 478.989091 
L 504.019951 476.952727 
L 513.993662 471.352727 
L 524.216621 475.68 
L 534.195683 484.08 
L 544.304722 486.116364 
L 555.00706 480.007273 
L 567.383025 485.861818 
L 577.964563 479.243636 
L 588.088893 487.643636 
L 598.044254 481.28 
L 608.609736 483.061818 
L 618.782233 464.48 
L 628.880568 467.534545 
L 639.47128 473.134545 
L 649.623899 486.88 
L 659.648071 485.861818 
L 670.178383 483.316364 
L 680.243841 458.625455 
L 690.185441 482.043636 
L 700.172149 464.48 
L 711.058747 456.843636 
L 721.041633 488.407273 
L 731.000053 478.989091 
L 741.889709 454.043636 
L 751.918469 488.916364 
L 761.902883 465.752727 
L 772.793304 447.68 
L 782.793775 482.043636 
L 792.760605 480.261818 
L 803.78253 441.061818 
L 813.746302 459.898182 
L 823.777355 490.952727 
L 834.615021 448.443636 
L 844.61014 484.08 
L 854.781108 472.116364 
L 865.582075 462.443636 
L 875.523674 486.116364 
L 885.439278 477.461818 
L 896.321289 470.08 
L 906.237658 486.88 
L 916.136442 487.643636 
L 927.084205 490.189091 
L 937.000574 487.898182 
L 946.939879 487.643636 
L 957.870057 469.570909 
L 967.779545 488.407273 
L 977.728026 486.116364 
L 988.67273 486.88 
L 998.583747 484.843636 
L 1008.548283 481.789091 
L 1019.547272 473.134545 
L 1029.45676 487.134545 
L 1039.435823 486.625455 
L 1050.385115 452.770909 
L 1060.301484 489.170909 
L 1070.267549 486.88 
L 1081.197727 447.934545 
L 1091.105686 479.498182 
L 1101.077103 485.861818 
L 1112.024101 445.898182 
L 1121.971053 487.643636 
L 1131.918004 484.334545 
L 1142.816835 419.425455 
L 1152.768374 486.116364 
L 1162.722971 483.316364 
L 1173.673792 472.625455 
L 1183.603158 485.861818 
L 1193.563872 489.170909 
L 1204.523868 452.261818 
L 1214.443295 483.570909 
L 1224.424651 487.898182 
L 1235.359417 477.970909 
L 1245.272727 475.170909 
" style="fill:none;stroke:#ff0000;stroke-dasharray:5.55,2.4;stroke-dashoffset:0;stroke-width:1.5;"/>
    <defs>
     <path d="M -3 3 
L 3 3 
L 3 -3 
L -3 -3 
z
" id="m8c5ef0b04d" style="stroke:#ff0000;stroke-linejoin:miter;"/>
    </defs>
    <g clip-path="url(#p23c6a5b6c0)">
     <use style="fill:#ff0000;stroke:#ff0000;stroke-linejoin:miter;" x="230.727273" xlink:href="#m8c5ef0b04d" y="472.116364"/>
     <use style="fill:#ff0000;stroke:#ff0000;stroke-linejoin:miter;" x="240.860777" xlink:href="#m8c5ef0b04d" y="473.898182"/>
     <use style="fill:#ff0000;stroke:#ff0000;stroke-linejoin:miter;" x="250.766442" xlink:href="#m8c5ef0b04d" y="89.28"/>
     <use style="fill:#ff0000;stroke:#ff0000;stroke-linejoin:miter;" x="260.890007" xlink:href="#m8c5ef0b04d" y="481.025455"/>
     <use style="fill:#ff0000;stroke:#ff0000;stroke-linejoin:miter;" x="270.906534" xlink:href="#m8c5ef0b04d" y="489.170909"/>
     <use style="fill:#ff0000;stroke:#ff0000;stroke-linejoin:miter;" x="280.780852" xlink:href="#m8c5ef0b04d" y="484.589091"/>
     <use style="fill:#ff0000;stroke:#ff0000;stroke-linejoin:miter;" x="291.331042" xlink:href="#m8c5ef0b04d" y="470.589091"/>
     <use style="fill:#ff0000;stroke:#ff0000;stroke-linejoin:miter;" x="301.37968" xlink:href="#m8c5ef0b04d" y="475.170909"/>
     <use style="fill:#ff0000;stroke:#ff0000;stroke-linejoin:miter;" x="311.24253" xlink:href="#m8c5ef0b04d" y="492.225455"/>
     <use style="fill:#ff0000;stroke:#ff0000;stroke-linejoin:miter;" x="321.847005" xlink:href="#m8c5ef0b04d" y="485.861818"/>
     <use style="fill:#ff0000;stroke:#ff0000;stroke-linejoin:miter;" x="331.788604" xlink:href="#m8c5ef0b04d" y="492.48"/>
     <use style="fill:#ff0000;stroke:#ff0000;stroke-linejoin:miter;" x="341.688152" xlink:href="#m8c5ef0b04d" y="491.207273"/>
     <use style="fill:#ff0000;stroke:#ff0000;stroke-linejoin:miter;" x="351.64122" xlink:href="#m8c5ef0b04d" y="489.934545"/>
     <use style="fill:#ff0000;stroke:#ff0000;stroke-linejoin:miter;" x="361.858062" xlink:href="#m8c5ef0b04d" y="489.68"/>
     <use style="fill:#ff0000;stroke:#ff0000;stroke-linejoin:miter;" x="371.862355" xlink:href="#m8c5ef0b04d" y="481.28"/>
     <use style="fill:#ff0000;stroke:#ff0000;stroke-linejoin:miter;" x="381.854416" xlink:href="#m8c5ef0b04d" y="486.116364"/>
     <use style="fill:#ff0000;stroke:#ff0000;stroke-linejoin:miter;" x="392.048321" xlink:href="#m8c5ef0b04d" y="490.189091"/>
     <use style="fill:#ff0000;stroke:#ff0000;stroke-linejoin:miter;" x="402.288864" xlink:href="#m8c5ef0b04d" y="487.389091"/>
     <use style="fill:#ff0000;stroke:#ff0000;stroke-linejoin:miter;" x="412.199881" xlink:href="#m8c5ef0b04d" y="479.752727"/>
     <use style="fill:#ff0000;stroke:#ff0000;stroke-linejoin:miter;" x="422.386905" xlink:href="#m8c5ef0b04d" y="488.916364"/>
     <use style="fill:#ff0000;stroke:#ff0000;stroke-linejoin:miter;" x="432.411077" xlink:href="#m8c5ef0b04d" y="478.225455"/>
     <use style="fill:#ff0000;stroke:#ff0000;stroke-linejoin:miter;" x="442.348089" xlink:href="#m8c5ef0b04d" y="482.552727"/>
     <use style="fill:#ff0000;stroke:#ff0000;stroke-linejoin:miter;" x="452.330974" xlink:href="#m8c5ef0b04d" y="480.770909"/>
     <use style="fill:#ff0000;stroke:#ff0000;stroke-linejoin:miter;" x="463.088361" xlink:href="#m8c5ef0b04d" y="473.134545"/>
     <use style="fill:#ff0000;stroke:#ff0000;stroke-linejoin:miter;" x="473.144645" xlink:href="#m8c5ef0b04d" y="484.08"/>
     <use style="fill:#ff0000;stroke:#ff0000;stroke-linejoin:miter;" x="483.879095" xlink:href="#m8c5ef0b04d" y="483.825455"/>
     <use style="fill:#ff0000;stroke:#ff0000;stroke-linejoin:miter;" x="494.040124" xlink:href="#m8c5ef0b04d" y="478.989091"/>
     <use style="fill:#ff0000;stroke:#ff0000;stroke-linejoin:miter;" x="504.019951" xlink:href="#m8c5ef0b04d" y="476.952727"/>
     <use style="fill:#ff0000;stroke:#ff0000;stroke-linejoin:miter;" x="513.993662" xlink:href="#m8c5ef0b04d" y="471.352727"/>
     <use style="fill:#ff0000;stroke:#ff0000;stroke-linejoin:miter;" x="524.216621" xlink:href="#m8c5ef0b04d" y="475.68"/>
     <use style="fill:#ff0000;stroke:#ff0000;stroke-linejoin:miter;" x="534.195683" xlink:href="#m8c5ef0b04d" y="484.08"/>
     <use style="fill:#ff0000;stroke:#ff0000;stroke-linejoin:miter;" x="544.304722" xlink:href="#m8c5ef0b04d" y="486.116364"/>
     <use style="fill:#ff0000;stroke:#ff0000;stroke-linejoin:miter;" x="555.00706" xlink:href="#m8c5ef0b04d" y="480.007273"/>
     <use style="fill:#ff0000;stroke:#ff0000;stroke-linejoin:miter;" x="567.383025" xlink:href="#m8c5ef0b04d" y="485.861818"/>
     <use style="fill:#ff0000;stroke:#ff0000;stroke-linejoin:miter;" x="577.964563" xlink:href="#m8c5ef0b04d" y="479.243636"/>
     <use style="fill:#ff0000;stroke:#ff0000;stroke-linejoin:miter;" x="588.088893" xlink:href="#m8c5ef0b04d" y="487.643636"/>
     <use style="fill:#ff0000;stroke:#ff0000;stroke-linejoin:miter;" x="598.044254" xlink:href="#m8c5ef0b04d" y="481.28"/>
     <use style="fill:#ff0000;stroke:#ff0000;stroke-linejoin:miter;" x="608.609736" xlink:href="#m8c5ef0b04d" y="483.061818"/>
     <use style="fill:#ff0000;stroke:#ff0000;stroke-linejoin:miter;" x="618.782233" xlink:href="#m8c5ef0b04d" y="464.48"/>
     <use style="fill:#ff0000;stroke:#ff0000;stroke-linejoin:miter;" x="628.880568" xlink:href="#m8c5ef0b04d" y="467.534545"/>
     <use style="fill:#ff0000;stroke:#ff0000;stroke-linejoin:miter;" x="639.47128" xlink:href="#m8c5ef0b04d" y="473.134545"/>
     <use style="fill:#ff0000;stroke:#ff0000;stroke-linejoin:miter;" x="649.623899" xlink:href="#m8c5ef0b04d" y="486.88"/>
     <use style="fill:#ff0000;stroke:#ff0000;stroke-linejoin:miter;" x="659.648071" xlink:href="#m8c5ef0b04d" y="485.861818"/>
     <use style="fill:#ff0000;stroke:#ff0000;stroke-linejoin:miter;" x="670.178383" xlink:href="#m8c5ef0b04d" y="483.316364"/>
     <use style="fill:#ff0000;stroke:#ff0000;stroke-linejoin:miter;" x="680.243841" xlink:href="#m8c5ef0b04d" y="458.625455"/>
     <use style="fill:#ff0000;stroke:#ff0000;stroke-linejoin:miter;" x="690.185441" xlink:href="#m8c5ef0b04d" y="482.043636"/>
     <use style="fill:#ff0000;stroke:#ff0000;stroke-linejoin:miter;" x="700.172149" xlink:href="#m8c5ef0b04d" y="464.48"/>
     <use style="fill:#ff0000;stroke:#ff0000;stroke-linejoin:miter;" x="711.058747" xlink:href="#m8c5ef0b04d" y="456.843636"/>
     <use style="fill:#ff0000;stroke:#ff0000;stroke-linejoin:miter;" x="721.041633" xlink:href="#m8c5ef0b04d" y="488.407273"/>
     <use style="fill:#ff0000;stroke:#ff0000;stroke-linejoin:miter;" x="731.000053" xlink:href="#m8c5ef0b04d" y="478.989091"/>
     <use style="fill:#ff0000;stroke:#ff0000;stroke-linejoin:miter;" x="741.889709" xlink:href="#m8c5ef0b04d" y="454.043636"/>
     <use style="fill:#ff0000;stroke:#ff0000;stroke-linejoin:miter;" x="751.918469" xlink:href="#m8c5ef0b04d" y="488.916364"/>
     <use style="fill:#ff0000;stroke:#ff0000;stroke-linejoin:miter;" x="761.902883" xlink:href="#m8c5ef0b04d" y="465.752727"/>
     <use style="fill:#ff0000;stroke:#ff0000;stroke-linejoin:miter;" x="772.793304" xlink:href="#m8c5ef0b04d" y="447.68"/>
     <use style="fill:#ff0000;stroke:#ff0000;stroke-linejoin:miter;" x="782.793775" xlink:href="#m8c5ef0b04d" y="482.043636"/>
     <use style="fill:#ff0000;stroke:#ff0000;stroke-linejoin:miter;" x="792.760605" xlink:href="#m8c5ef0b04d" y="480.261818"/>
     <use style="fill:#ff0000;stroke:#ff0000;stroke-linejoin:miter;" x="803.78253" xlink:href="#m8c5ef0b04d" y="441.061818"/>
     <use style="fill:#ff0000;stroke:#ff0000;stroke-linejoin:miter;" x="813.746302" xlink:href="#m8c5ef0b04d" y="459.898182"/>
     <use style="fill:#ff0000;stroke:#ff0000;stroke-linejoin:miter;" x="823.777355" xlink:href="#m8c5ef0b04d" y="490.952727"/>
     <use style="fill:#ff0000;stroke:#ff0000;stroke-linejoin:miter;" x="834.615021" xlink:href="#m8c5ef0b04d" y="448.443636"/>
     <use style="fill:#ff0000;stroke:#ff0000;stroke-linejoin:miter;" x="844.61014" xlink:href="#m8c5ef0b04d" y="484.08"/>
     <use style="fill:#ff0000;stroke:#ff0000;stroke-linejoin:miter;" x="854.781108" xlink:href="#m8c5ef0b04d" y="472.116364"/>
     <use style="fill:#ff0000;stroke:#ff0000;stroke-linejoin:miter;" x="865.582075" xlink:href="#m8c5ef0b04d" y="462.443636"/>
     <use style="fill:#ff0000;stroke:#ff0000;stroke-linejoin:miter;" x="875.523674" xlink:href="#m8c5ef0b04d" y="486.116364"/>
     <use style="fill:#ff0000;stroke:#ff0000;stroke-linejoin:miter;" x="885.439278" xlink:href="#m8c5ef0b04d" y="477.461818"/>
     <use style="fill:#ff0000;stroke:#ff0000;stroke-linejoin:miter;" x="896.321289" xlink:href="#m8c5ef0b04d" y="470.08"/>
     <use style="fill:#ff0000;stroke:#ff0000;stroke-linejoin:miter;" x="906.237658" xlink:href="#m8c5ef0b04d" y="486.88"/>
     <use style="fill:#ff0000;stroke:#ff0000;stroke-linejoin:miter;" x="916.136442" xlink:href="#m8c5ef0b04d" y="487.643636"/>
     <use style="fill:#ff0000;stroke:#ff0000;stroke-linejoin:miter;" x="927.084205" xlink:href="#m8c5ef0b04d" y="490.189091"/>
     <use style="fill:#ff0000;stroke:#ff0000;stroke-linejoin:miter;" x="937.000574" xlink:href="#m8c5ef0b04d" y="487.898182"/>
     <use style="fill:#ff0000;stroke:#ff0000;stroke-linejoin:miter;" x="946.939879" xlink:href="#m8c5ef0b04d" y="487.643636"/>
     <use style="fill:#ff0000;stroke:#ff0000;stroke-linejoin:miter;" x="957.870057" xlink:href="#m8c5ef0b04d" y="469.570909"/>
     <use style="fill:#ff0000;stroke:#ff0000;stroke-linejoin:miter;" x="967.779545" xlink:href="#m8c5ef0b04d" y="488.407273"/>
     <use style="fill:#ff0000;stroke:#ff0000;stroke-linejoin:miter;" x="977.728026" xlink:href="#m8c5ef0b04d" y="486.116364"/>
     <use style="fill:#ff0000;stroke:#ff0000;stroke-linejoin:miter;" x="988.67273" xlink:href="#m8c5ef0b04d" y="486.88"/>
     <use style="fill:#ff0000;stroke:#ff0000;stroke-linejoin:miter;" x="998.583747" xlink:href="#m8c5ef0b04d" y="484.843636"/>
     <use style="fill:#ff0000;stroke:#ff0000;stroke-linejoin:miter;" x="1008.548283" xlink:href="#m8c5ef0b04d" y="481.789091"/>
     <use style="fill:#ff0000;stroke:#ff0000;stroke-linejoin:miter;" x="1019.547272" xlink:href="#m8c5ef0b04d" y="473.134545"/>
     <use style="fill:#ff0000;stroke:#ff0000;stroke-linejoin:miter;" x="1029.45676" xlink:href="#m8c5ef0b04d" y="487.134545"/>
     <use style="fill:#ff0000;stroke:#ff0000;stroke-linejoin:miter;" x="1039.435823" xlink:href="#m8c5ef0b04d" y="486.625455"/>
     <use style="fill:#ff0000;stroke:#ff0000;stroke-linejoin:miter;" x="1050.385115" xlink:href="#m8c5ef0b04d" y="452.770909"/>
     <use style="fill:#ff0000;stroke:#ff0000;stroke-linejoin:miter;" x="1060.301484" xlink:href="#m8c5ef0b04d" y="489.170909"/>
     <use style="fill:#ff0000;stroke:#ff0000;stroke-linejoin:miter;" x="1070.267549" xlink:href="#m8c5ef0b04d" y="486.88"/>
     <use style="fill:#ff0000;stroke:#ff0000;stroke-linejoin:miter;" x="1081.197727" xlink:href="#m8c5ef0b04d" y="447.934545"/>
     <use style="fill:#ff0000;stroke:#ff0000;stroke-linejoin:miter;" x="1091.105686" xlink:href="#m8c5ef0b04d" y="479.498182"/>
     <use style="fill:#ff0000;stroke:#ff0000;stroke-linejoin:miter;" x="1101.077103" xlink:href="#m8c5ef0b04d" y="485.861818"/>
     <use style="fill:#ff0000;stroke:#ff0000;stroke-linejoin:miter;" x="1112.024101" xlink:href="#m8c5ef0b04d" y="445.898182"/>
     <use style="fill:#ff0000;stroke:#ff0000;stroke-linejoin:miter;" x="1121.971053" xlink:href="#m8c5ef0b04d" y="487.643636"/>
     <use style="fill:#ff0000;stroke:#ff0000;stroke-linejoin:miter;" x="1131.918004" xlink:href="#m8c5ef0b04d" y="484.334545"/>
     <use style="fill:#ff0000;stroke:#ff0000;stroke-linejoin:miter;" x="1142.816835" xlink:href="#m8c5ef0b04d" y="419.425455"/>
     <use style="fill:#ff0000;stroke:#ff0000;stroke-linejoin:miter;" x="1152.768374" xlink:href="#m8c5ef0b04d" y="486.116364"/>
     <use style="fill:#ff0000;stroke:#ff0000;stroke-linejoin:miter;" x="1162.722971" xlink:href="#m8c5ef0b04d" y="483.316364"/>
     <use style="fill:#ff0000;stroke:#ff0000;stroke-linejoin:miter;" x="1173.673792" xlink:href="#m8c5ef0b04d" y="472.625455"/>
     <use style="fill:#ff0000;stroke:#ff0000;stroke-linejoin:miter;" x="1183.603158" xlink:href="#m8c5ef0b04d" y="485.861818"/>
     <use style="fill:#ff0000;stroke:#ff0000;stroke-linejoin:miter;" x="1193.563872" xlink:href="#m8c5ef0b04d" y="489.170909"/>
     <use style="fill:#ff0000;stroke:#ff0000;stroke-linejoin:miter;" x="1204.523868" xlink:href="#m8c5ef0b04d" y="452.261818"/>
     <use style="fill:#ff0000;stroke:#ff0000;stroke-linejoin:miter;" x="1214.443295" xlink:href="#m8c5ef0b04d" y="483.570909"/>
     <use style="fill:#ff0000;stroke:#ff0000;stroke-linejoin:miter;" x="1224.424651" xlink:href="#m8c5ef0b04d" y="487.898182"/>
     <use style="fill:#ff0000;stroke:#ff0000;stroke-linejoin:miter;" x="1235.359417" xlink:href="#m8c5ef0b04d" y="477.970909"/>
     <use style="fill:#ff0000;stroke:#ff0000;stroke-linejoin:miter;" x="1245.272727" xlink:href="#m8c5ef0b04d" y="475.170909"/>
    </g>
   </g>
   <g id="line2d_18">
    <path clip-path="url(#p23c6a5b6c0)" d="M 230.727273 472.116364 
L 240.860777 473.898182 
L 250.766442 89.28 
L 260.890007 481.025455 
L 270.906534 489.170909 
L 280.780852 484.589091 
L 291.331042 470.589091 
L 301.37968 475.170909 
L 311.24253 492.225455 
L 321.847005 485.861818 
L 331.788604 492.48 
L 341.688152 491.207273 
L 351.64122 489.934545 
L 361.858062 489.68 
L 371.862355 481.28 
L 381.854416 486.116364 
L 392.048321 490.189091 
L 402.288864 487.389091 
L 412.199881 479.752727 
L 422.386905 488.916364 
L 432.411077 478.225455 
L 442.348089 482.552727 
L 452.330974 480.770909 
L 463.088361 473.134545 
L 473.144645 484.08 
L 483.879095 483.825455 
L 494.040124 478.989091 
L 504.019951 476.952727 
L 513.993662 471.352727 
L 524.216621 475.68 
L 534.195683 484.08 
L 544.304722 486.116364 
L 555.00706 480.007273 
L 567.383025 485.861818 
L 577.964563 479.243636 
L 588.088893 487.643636 
L 598.044254 481.28 
L 608.609736 483.061818 
L 618.782233 464.48 
L 628.880568 467.534545 
L 639.47128 473.134545 
L 649.623899 486.88 
L 659.648071 485.861818 
L 670.178383 483.316364 
L 680.243841 458.625455 
L 690.185441 482.043636 
L 700.172149 464.48 
L 711.058747 456.843636 
L 721.041633 488.407273 
L 731.000053 478.989091 
L 741.889709 454.043636 
L 751.918469 488.916364 
L 761.902883 465.752727 
L 772.793304 447.68 
L 782.793775 482.043636 
L 792.760605 480.261818 
L 803.78253 441.061818 
L 813.746302 459.898182 
L 823.777355 490.952727 
L 834.615021 448.443636 
L 844.61014 484.08 
L 854.781108 472.116364 
L 865.582075 462.443636 
L 875.523674 486.116364 
L 885.439278 477.461818 
L 896.321289 470.08 
L 906.237658 486.88 
L 916.136442 487.643636 
L 927.084205 490.189091 
L 937.000574 487.898182 
L 946.939879 487.643636 
L 957.870057 469.570909 
L 967.779545 488.407273 
L 977.728026 486.116364 
L 988.67273 486.88 
L 998.583747 484.843636 
L 1008.548283 481.789091 
L 1019.547272 473.134545 
L 1029.45676 487.134545 
L 1039.435823 486.625455 
L 1050.385115 452.770909 
L 1060.301484 489.170909 
L 1070.267549 486.88 
L 1081.197727 447.934545 
L 1091.105686 479.498182 
L 1101.077103 485.861818 
L 1112.024101 445.898182 
L 1121.971053 487.643636 
L 1131.918004 484.334545 
L 1142.816835 419.425455 
L 1152.768374 486.116364 
L 1162.722971 483.316364 
L 1173.673792 472.625455 
L 1183.603158 485.861818 
L 1193.563872 489.170909 
L 1204.523868 452.261818 
L 1214.443295 483.570909 
L 1224.424651 487.898182 
L 1235.359417 477.970909 
L 1245.272727 475.170909 
" style="fill:none;stroke:#800080;stroke-dasharray:9.6,2.4,1.5,2.4;stroke-dashoffset:0;stroke-width:1.5;"/>
    <defs>
     <path d="M -3 3 
L 3 -3 
M -3 -3 
L 3 3 
" id="meacb0ebdba" style="stroke:#800080;"/>
    </defs>
    <g clip-path="url(#p23c6a5b6c0)">
     <use style="fill:#800080;stroke:#800080;" x="230.727273" xlink:href="#meacb0ebdba" y="472.116364"/>
     <use style="fill:#800080;stroke:#800080;" x="240.860777" xlink:href="#meacb0ebdba" y="473.898182"/>
     <use style="fill:#800080;stroke:#800080;" x="250.766442" xlink:href="#meacb0ebdba" y="89.28"/>
     <use style="fill:#800080;stroke:#800080;" x="260.890007" xlink:href="#meacb0ebdba" y="481.025455"/>
     <use style="fill:#800080;stroke:#800080;" x="270.906534" xlink:href="#meacb0ebdba" y="489.170909"/>
     <use style="fill:#800080;stroke:#800080;" x="280.780852" xlink:href="#meacb0ebdba" y="484.589091"/>
     <use style="fill:#800080;stroke:#800080;" x="291.331042" xlink:href="#meacb0ebdba" y="470.589091"/>
     <use style="fill:#800080;stroke:#800080;" x="301.37968" xlink:href="#meacb0ebdba" y="475.170909"/>
     <use style="fill:#800080;stroke:#800080;" x="311.24253" xlink:href="#meacb0ebdba" y="492.225455"/>
     <use style="fill:#800080;stroke:#800080;" x="321.847005" xlink:href="#meacb0ebdba" y="485.861818"/>
     <use style="fill:#800080;stroke:#800080;" x="331.788604" xlink:href="#meacb0ebdba" y="492.48"/>
     <use style="fill:#800080;stroke:#800080;" x="341.688152" xlink:href="#meacb0ebdba" y="491.207273"/>
     <use style="fill:#800080;stroke:#800080;" x="351.64122" xlink:href="#meacb0ebdba" y="489.934545"/>
     <use style="fill:#800080;stroke:#800080;" x="361.858062" xlink:href="#meacb0ebdba" y="489.68"/>
     <use style="fill:#800080;stroke:#800080;" x="371.862355" xlink:href="#meacb0ebdba" y="481.28"/>
     <use style="fill:#800080;stroke:#800080;" x="381.854416" xlink:href="#meacb0ebdba" y="486.116364"/>
     <use style="fill:#800080;stroke:#800080;" x="392.048321" xlink:href="#meacb0ebdba" y="490.189091"/>
     <use style="fill:#800080;stroke:#800080;" x="402.288864" xlink:href="#meacb0ebdba" y="487.389091"/>
     <use style="fill:#800080;stroke:#800080;" x="412.199881" xlink:href="#meacb0ebdba" y="479.752727"/>
     <use style="fill:#800080;stroke:#800080;" x="422.386905" xlink:href="#meacb0ebdba" y="488.916364"/>
     <use style="fill:#800080;stroke:#800080;" x="432.411077" xlink:href="#meacb0ebdba" y="478.225455"/>
     <use style="fill:#800080;stroke:#800080;" x="442.348089" xlink:href="#meacb0ebdba" y="482.552727"/>
     <use style="fill:#800080;stroke:#800080;" x="452.330974" xlink:href="#meacb0ebdba" y="480.770909"/>
     <use style="fill:#800080;stroke:#800080;" x="463.088361" xlink:href="#meacb0ebdba" y="473.134545"/>
     <use style="fill:#800080;stroke:#800080;" x="473.144645" xlink:href="#meacb0ebdba" y="484.08"/>
     <use style="fill:#800080;stroke:#800080;" x="483.879095" xlink:href="#meacb0ebdba" y="483.825455"/>
     <use style="fill:#800080;stroke:#800080;" x="494.040124" xlink:href="#meacb0ebdba" y="478.989091"/>
     <use style="fill:#800080;stroke:#800080;" x="504.019951" xlink:href="#meacb0ebdba" y="476.952727"/>
     <use style="fill:#800080;stroke:#800080;" x="513.993662" xlink:href="#meacb0ebdba" y="471.352727"/>
     <use style="fill:#800080;stroke:#800080;" x="524.216621" xlink:href="#meacb0ebdba" y="475.68"/>
     <use style="fill:#800080;stroke:#800080;" x="534.195683" xlink:href="#meacb0ebdba" y="484.08"/>
     <use style="fill:#800080;stroke:#800080;" x="544.304722" xlink:href="#meacb0ebdba" y="486.116364"/>
     <use style="fill:#800080;stroke:#800080;" x="555.00706" xlink:href="#meacb0ebdba" y="480.007273"/>
     <use style="fill:#800080;stroke:#800080;" x="567.383025" xlink:href="#meacb0ebdba" y="485.861818"/>
     <use style="fill:#800080;stroke:#800080;" x="577.964563" xlink:href="#meacb0ebdba" y="479.243636"/>
     <use style="fill:#800080;stroke:#800080;" x="588.088893" xlink:href="#meacb0ebdba" y="487.643636"/>
     <use style="fill:#800080;stroke:#800080;" x="598.044254" xlink:href="#meacb0ebdba" y="481.28"/>
     <use style="fill:#800080;stroke:#800080;" x="608.609736" xlink:href="#meacb0ebdba" y="483.061818"/>
     <use style="fill:#800080;stroke:#800080;" x="618.782233" xlink:href="#meacb0ebdba" y="464.48"/>
     <use style="fill:#800080;stroke:#800080;" x="628.880568" xlink:href="#meacb0ebdba" y="467.534545"/>
     <use style="fill:#800080;stroke:#800080;" x="639.47128" xlink:href="#meacb0ebdba" y="473.134545"/>
     <use style="fill:#800080;stroke:#800080;" x="649.623899" xlink:href="#meacb0ebdba" y="486.88"/>
     <use style="fill:#800080;stroke:#800080;" x="659.648071" xlink:href="#meacb0ebdba" y="485.861818"/>
     <use style="fill:#800080;stroke:#800080;" x="670.178383" xlink:href="#meacb0ebdba" y="483.316364"/>
     <use style="fill:#800080;stroke:#800080;" x="680.243841" xlink:href="#meacb0ebdba" y="458.625455"/>
     <use style="fill:#800080;stroke:#800080;" x="690.185441" xlink:href="#meacb0ebdba" y="482.043636"/>
     <use style="fill:#800080;stroke:#800080;" x="700.172149" xlink:href="#meacb0ebdba" y="464.48"/>
     <use style="fill:#800080;stroke:#800080;" x="711.058747" xlink:href="#meacb0ebdba" y="456.843636"/>
     <use style="fill:#800080;stroke:#800080;" x="721.041633" xlink:href="#meacb0ebdba" y="488.407273"/>
     <use style="fill:#800080;stroke:#800080;" x="731.000053" xlink:href="#meacb0ebdba" y="478.989091"/>
     <use style="fill:#800080;stroke:#800080;" x="741.889709" xlink:href="#meacb0ebdba" y="454.043636"/>
     <use style="fill:#800080;stroke:#800080;" x="751.918469" xlink:href="#meacb0ebdba" y="488.916364"/>
     <use style="fill:#800080;stroke:#800080;" x="761.902883" xlink:href="#meacb0ebdba" y="465.752727"/>
     <use style="fill:#800080;stroke:#800080;" x="772.793304" xlink:href="#meacb0ebdba" y="447.68"/>
     <use style="fill:#800080;stroke:#800080;" x="782.793775" xlink:href="#meacb0ebdba" y="482.043636"/>
     <use style="fill:#800080;stroke:#800080;" x="792.760605" xlink:href="#meacb0ebdba" y="480.261818"/>
     <use style="fill:#800080;stroke:#800080;" x="803.78253" xlink:href="#meacb0ebdba" y="441.061818"/>
     <use style="fill:#800080;stroke:#800080;" x="813.746302" xlink:href="#meacb0ebdba" y="459.898182"/>
     <use style="fill:#800080;stroke:#800080;" x="823.777355" xlink:href="#meacb0ebdba" y="490.952727"/>
     <use style="fill:#800080;stroke:#800080;" x="834.615021" xlink:href="#meacb0ebdba" y="448.443636"/>
     <use style="fill:#800080;stroke:#800080;" x="844.61014" xlink:href="#meacb0ebdba" y="484.08"/>
     <use style="fill:#800080;stroke:#800080;" x="854.781108" xlink:href="#meacb0ebdba" y="472.116364"/>
     <use style="fill:#800080;stroke:#800080;" x="865.582075" xlink:href="#meacb0ebdba" y="462.443636"/>
     <use style="fill:#800080;stroke:#800080;" x="875.523674" xlink:href="#meacb0ebdba" y="486.116364"/>
     <use style="fill:#800080;stroke:#800080;" x="885.439278" xlink:href="#meacb0ebdba" y="477.461818"/>
     <use style="fill:#800080;stroke:#800080;" x="896.321289" xlink:href="#meacb0ebdba" y="470.08"/>
     <use style="fill:#800080;stroke:#800080;" x="906.237658" xlink:href="#meacb0ebdba" y="486.88"/>
     <use style="fill:#800080;stroke:#800080;" x="916.136442" xlink:href="#meacb0ebdba" y="487.643636"/>
     <use style="fill:#800080;stroke:#800080;" x="927.084205" xlink:href="#meacb0ebdba" y="490.189091"/>
     <use style="fill:#800080;stroke:#800080;" x="937.000574" xlink:href="#meacb0ebdba" y="487.898182"/>
     <use style="fill:#800080;stroke:#800080;" x="946.939879" xlink:href="#meacb0ebdba" y="487.643636"/>
     <use style="fill:#800080;stroke:#800080;" x="957.870057" xlink:href="#meacb0ebdba" y="469.570909"/>
     <use style="fill:#800080;stroke:#800080;" x="967.779545" xlink:href="#meacb0ebdba" y="488.407273"/>
     <use style="fill:#800080;stroke:#800080;" x="977.728026" xlink:href="#meacb0ebdba" y="486.116364"/>
     <use style="fill:#800080;stroke:#800080;" x="988.67273" xlink:href="#meacb0ebdba" y="486.88"/>
     <use style="fill:#800080;stroke:#800080;" x="998.583747" xlink:href="#meacb0ebdba" y="484.843636"/>
     <use style="fill:#800080;stroke:#800080;" x="1008.548283" xlink:href="#meacb0ebdba" y="481.789091"/>
     <use style="fill:#800080;stroke:#800080;" x="1019.547272" xlink:href="#meacb0ebdba" y="473.134545"/>
     <use style="fill:#800080;stroke:#800080;" x="1029.45676" xlink:href="#meacb0ebdba" y="487.134545"/>
     <use style="fill:#800080;stroke:#800080;" x="1039.435823" xlink:href="#meacb0ebdba" y="486.625455"/>
     <use style="fill:#800080;stroke:#800080;" x="1050.385115" xlink:href="#meacb0ebdba" y="452.770909"/>
     <use style="fill:#800080;stroke:#800080;" x="1060.301484" xlink:href="#meacb0ebdba" y="489.170909"/>
     <use style="fill:#800080;stroke:#800080;" x="1070.267549" xlink:href="#meacb0ebdba" y="486.88"/>
     <use style="fill:#800080;stroke:#800080;" x="1081.197727" xlink:href="#meacb0ebdba" y="447.934545"/>
     <use style="fill:#800080;stroke:#800080;" x="1091.105686" xlink:href="#meacb0ebdba" y="479.498182"/>
     <use style="fill:#800080;stroke:#800080;" x="1101.077103" xlink:href="#meacb0ebdba" y="485.861818"/>
     <use style="fill:#800080;stroke:#800080;" x="1112.024101" xlink:href="#meacb0ebdba" y="445.898182"/>
     <use style="fill:#800080;stroke:#800080;" x="1121.971053" xlink:href="#meacb0ebdba" y="487.643636"/>
     <use style="fill:#800080;stroke:#800080;" x="1131.918004" xlink:href="#meacb0ebdba" y="484.334545"/>
     <use style="fill:#800080;stroke:#800080;" x="1142.816835" xlink:href="#meacb0ebdba" y="419.425455"/>
     <use style="fill:#800080;stroke:#800080;" x="1152.768374" xlink:href="#meacb0ebdba" y="486.116364"/>
     <use style="fill:#800080;stroke:#800080;" x="1162.722971" xlink:href="#meacb0ebdba" y="483.316364"/>
     <use style="fill:#800080;stroke:#800080;" x="1173.673792" xlink:href="#meacb0ebdba" y="472.625455"/>
     <use style="fill:#800080;stroke:#800080;" x="1183.603158" xlink:href="#meacb0ebdba" y="485.861818"/>
     <use style="fill:#800080;stroke:#800080;" x="1193.563872" xlink:href="#meacb0ebdba" y="489.170909"/>
     <use style="fill:#800080;stroke:#800080;" x="1204.523868" xlink:href="#meacb0ebdba" y="452.261818"/>
     <use style="fill:#800080;stroke:#800080;" x="1214.443295" xlink:href="#meacb0ebdba" y="483.570909"/>
     <use style="fill:#800080;stroke:#800080;" x="1224.424651" xlink:href="#meacb0ebdba" y="487.898182"/>
     <use style="fill:#800080;stroke:#800080;" x="1235.359417" xlink:href="#meacb0ebdba" y="477.970909"/>
     <use style="fill:#800080;stroke:#800080;" x="1245.272727" xlink:href="#meacb0ebdba" y="475.170909"/>
    </g>
   </g>
   <g id="line2d_19">
    <path clip-path="url(#p23c6a5b6c0)" d="M 230.727273 467.24018 
L 240.860777 467.376344 
L 250.766442 467.509446 
L 260.890007 467.645476 
L 270.906534 467.780068 
L 280.780852 467.91275 
L 291.331042 468.054513 
L 301.37968 468.189536 
L 311.24253 468.322063 
L 321.847005 468.464556 
L 331.788604 468.598141 
L 341.688152 468.731161 
L 351.64122 468.864901 
L 361.858062 469.002184 
L 371.862355 469.136612 
L 381.854416 469.270875 
L 392.048321 469.407851 
L 402.288864 469.545453 
L 412.199881 469.678627 
L 422.386905 469.815511 
L 432.411077 469.950205 
L 442.348089 470.083729 
L 452.330974 470.217869 
L 463.088361 470.362416 
L 473.144645 470.497542 
L 483.879095 470.641781 
L 494.040124 470.778315 
L 504.019951 470.912414 
L 513.993662 471.046431 
L 524.216621 471.183797 
L 534.195683 471.317885 
L 544.304722 471.453721 
L 555.00706 471.597528 
L 567.383025 471.763824 
L 577.964563 471.906008 
L 588.088893 472.042049 
L 598.044254 472.175819 
L 608.609736 472.317787 
L 618.782233 472.454475 
L 628.880568 472.590166 
L 639.47128 472.732474 
L 649.623899 472.868895 
L 659.648071 473.003589 
L 670.178383 473.145085 
L 680.243841 473.280335 
L 690.185441 473.41392 
L 700.172149 473.548111 
L 711.058747 473.694395 
L 721.041633 473.828535 
L 731.000053 473.962346 
L 741.889709 474.10867 
L 751.918469 474.243427 
L 761.902883 474.377588 
L 772.793304 474.523922 
L 782.793775 474.658298 
L 792.760605 474.792223 
L 803.78253 474.940324 
L 813.746302 475.074208 
L 823.777355 475.208995 
L 834.615021 475.354621 
L 844.61014 475.488925 
L 854.781108 475.625592 
L 865.582075 475.770725 
L 875.523674 475.90431 
L 885.439278 476.037546 
L 896.321289 476.183768 
L 906.237658 476.317014 
L 916.136442 476.450024 
L 927.084205 476.597129 
L 937.000574 476.730376 
L 946.939879 476.86393 
L 957.870057 477.010799 
L 967.779545 477.143953 
L 977.728026 477.27763 
L 988.67273 477.424694 
L 998.583747 477.557869 
L 1008.548283 477.691762 
L 1019.547272 477.839556 
L 1029.45676 477.97271 
L 1039.435823 478.106798 
L 1050.385115 478.253924 
L 1060.301484 478.38717 
L 1070.267549 478.521084 
L 1081.197727 478.667953 
L 1091.105686 478.801086 
L 1101.077103 478.935072 
L 1112.024101 479.082167 
L 1121.971053 479.215824 
L 1131.918004 479.349482 
L 1142.816835 479.495929 
L 1152.768374 479.629648 
L 1162.722971 479.763408 
L 1173.673792 479.910554 
L 1183.603158 480.043975 
L 1193.563872 480.177817 
L 1204.523868 480.325087 
L 1214.443295 480.458374 
L 1224.424651 480.592494 
L 1235.359417 480.739424 
L 1245.272727 480.872629 
" style="fill:none;stroke:#0000ff;stroke-linecap:square;stroke-width:1.5;"/>
   </g>
   <g id="line2d_20">
    <path clip-path="url(#p23c6a5b6c0)" d="M 230.727273 481.429463 
L 240.860777 481.42924 
L 250.766442 481.429023 
L 260.890007 481.4288 
L 270.906534 481.42858 
L 280.780852 481.428364 
L 291.331042 481.428132 
L 301.37968 481.427911 
L 311.24253 481.427695 
L 321.847005 481.427462 
L 331.788604 481.427244 
L 341.688152 481.427026 
L 351.64122 481.426808 
L 361.858062 481.426583 
L 371.862355 481.426364 
L 381.854416 481.426144 
L 392.048321 481.42592 
L 402.288864 481.425695 
L 412.199881 481.425478 
L 422.386905 481.425254 
L 432.411077 481.425034 
L 442.348089 481.424816 
L 452.330974 481.424597 
L 463.088361 481.42436 
L 473.144645 481.42414 
L 483.879095 481.423904 
L 494.040124 481.423681 
L 504.019951 481.423462 
L 513.993662 481.423243 
L 524.216621 481.423018 
L 534.195683 481.422799 
L 544.304722 481.422577 
L 555.00706 481.422342 
L 567.383025 481.42207 
L 577.964563 481.421838 
L 588.088893 481.421616 
L 598.044254 481.421397 
L 608.609736 481.421165 
L 618.782233 481.420942 
L 628.880568 481.42072 
L 639.47128 481.420487 
L 649.623899 481.420264 
L 659.648071 481.420044 
L 670.178383 481.419813 
L 680.243841 481.419592 
L 690.185441 481.419374 
L 700.172149 481.419154 
L 711.058747 481.418915 
L 721.041633 481.418696 
L 731.000053 481.418477 
L 741.889709 481.418238 
L 751.918469 481.418018 
L 761.902883 481.417799 
L 772.793304 481.41756 
L 782.793775 481.41734 
L 792.760605 481.417121 
L 803.78253 481.416879 
L 813.746302 481.41666 
L 823.777355 481.41644 
L 834.615021 481.416202 
L 844.61014 481.415983 
L 854.781108 481.415759 
L 865.582075 481.415522 
L 875.523674 481.415304 
L 885.439278 481.415086 
L 896.321289 481.414847 
L 906.237658 481.414629 
L 916.136442 481.414412 
L 927.084205 481.414172 
L 937.000574 481.413954 
L 946.939879 481.413736 
L 957.870057 481.413496 
L 967.779545 481.413278 
L 977.728026 481.413059 
L 988.67273 481.412819 
L 998.583747 481.412602 
L 1008.548283 481.412383 
L 1019.547272 481.412141 
L 1029.45676 481.411924 
L 1039.435823 481.411704 
L 1050.385115 481.411464 
L 1060.301484 481.411246 
L 1070.267549 481.411027 
L 1081.197727 481.410787 
L 1091.105686 481.41057 
L 1101.077103 481.410351 
L 1112.024101 481.41011 
L 1121.971053 481.409892 
L 1131.918004 481.409674 
L 1142.816835 481.409434 
L 1152.768374 481.409216 
L 1162.722971 481.408997 
L 1173.673792 481.408757 
L 1183.603158 481.408539 
L 1193.563872 481.40832 
L 1204.523868 481.408079 
L 1214.443295 481.407861 
L 1224.424651 481.407642 
L 1235.359417 481.407402 
L 1245.272727 481.407185 
" style="fill:none;stroke:#008000;stroke-linecap:square;stroke-width:1.5;"/>
    <defs>
     <path d="M 0 3 
C 0.795609 3 1.55874 2.683901 2.12132 2.12132 
C 2.683901 1.55874 3 0.795609 3 0 
C 3 -0.795609 2.683901 -1.55874 2.12132 -2.12132 
C 1.55874 -2.683901 0.795609 -3 0 -3 
C -0.795609 -3 -1.55874 -2.683901 -2.12132 -2.12132 
C -2.683901 -1.55874 -3 -0.795609 -3 0 
C -3 0.795609 -2.683901 1.55874 -2.12132 2.12132 
C -1.55874 2.683901 -0.795609 3 0 3 
z
" id="m171fa937c2" style="stroke:#008000;"/>
    </defs>
    <g clip-path="url(#p23c6a5b6c0)">
     <use style="fill:#008000;stroke:#008000;" x="230.727273" xlink:href="#m171fa937c2" y="481.429463"/>
     <use style="fill:#008000;stroke:#008000;" x="240.860777" xlink:href="#m171fa937c2" y="481.42924"/>
     <use style="fill:#008000;stroke:#008000;" x="250.766442" xlink:href="#m171fa937c2" y="481.429023"/>
     <use style="fill:#008000;stroke:#008000;" x="260.890007" xlink:href="#m171fa937c2" y="481.4288"/>
     <use style="fill:#008000;stroke:#008000;" x="270.906534" xlink:href="#m171fa937c2" y="481.42858"/>
     <use style="fill:#008000;stroke:#008000;" x="280.780852" xlink:href="#m171fa937c2" y="481.428364"/>
     <use style="fill:#008000;stroke:#008000;" x="291.331042" xlink:href="#m171fa937c2" y="481.428132"/>
     <use style="fill:#008000;stroke:#008000;" x="301.37968" xlink:href="#m171fa937c2" y="481.427911"/>
     <use style="fill:#008000;stroke:#008000;" x="311.24253" xlink:href="#m171fa937c2" y="481.427695"/>
     <use style="fill:#008000;stroke:#008000;" x="321.847005" xlink:href="#m171fa937c2" y="481.427462"/>
     <use style="fill:#008000;stroke:#008000;" x="331.788604" xlink:href="#m171fa937c2" y="481.427244"/>
     <use style="fill:#008000;stroke:#008000;" x="341.688152" xlink:href="#m171fa937c2" y="481.427026"/>
     <use style="fill:#008000;stroke:#008000;" x="351.64122" xlink:href="#m171fa937c2" y="481.426808"/>
     <use style="fill:#008000;stroke:#008000;" x="361.858062" xlink:href="#m171fa937c2" y="481.426583"/>
     <use style="fill:#008000;stroke:#008000;" x="371.862355" xlink:href="#m171fa937c2" y="481.426364"/>
     <use style="fill:#008000;stroke:#008000;" x="381.854416" xlink:href="#m171fa937c2" y="481.426144"/>
     <use style="fill:#008000;stroke:#008000;" x="392.048321" xlink:href="#m171fa937c2" y="481.42592"/>
     <use style="fill:#008000;stroke:#008000;" x="402.288864" xlink:href="#m171fa937c2" y="481.425695"/>
     <use style="fill:#008000;stroke:#008000;" x="412.199881" xlink:href="#m171fa937c2" y="481.425478"/>
     <use style="fill:#008000;stroke:#008000;" x="422.386905" xlink:href="#m171fa937c2" y="481.425254"/>
     <use style="fill:#008000;stroke:#008000;" x="432.411077" xlink:href="#m171fa937c2" y="481.425034"/>
     <use style="fill:#008000;stroke:#008000;" x="442.348089" xlink:href="#m171fa937c2" y="481.424816"/>
     <use style="fill:#008000;stroke:#008000;" x="452.330974" xlink:href="#m171fa937c2" y="481.424597"/>
     <use style="fill:#008000;stroke:#008000;" x="463.088361" xlink:href="#m171fa937c2" y="481.42436"/>
     <use style="fill:#008000;stroke:#008000;" x="473.144645" xlink:href="#m171fa937c2" y="481.42414"/>
     <use style="fill:#008000;stroke:#008000;" x="483.879095" xlink:href="#m171fa937c2" y="481.423904"/>
     <use style="fill:#008000;stroke:#008000;" x="494.040124" xlink:href="#m171fa937c2" y="481.423681"/>
     <use style="fill:#008000;stroke:#008000;" x="504.019951" xlink:href="#m171fa937c2" y="481.423462"/>
     <use style="fill:#008000;stroke:#008000;" x="513.993662" xlink:href="#m171fa937c2" y="481.423243"/>
     <use style="fill:#008000;stroke:#008000;" x="524.216621" xlink:href="#m171fa937c2" y="481.423018"/>
     <use style="fill:#008000;stroke:#008000;" x="534.195683" xlink:href="#m171fa937c2" y="481.422799"/>
     <use style="fill:#008000;stroke:#008000;" x="544.304722" xlink:href="#m171fa937c2" y="481.422577"/>
     <use style="fill:#008000;stroke:#008000;" x="555.00706" xlink:href="#m171fa937c2" y="481.422342"/>
     <use style="fill:#008000;stroke:#008000;" x="567.383025" xlink:href="#m171fa937c2" y="481.42207"/>
     <use style="fill:#008000;stroke:#008000;" x="577.964563" xlink:href="#m171fa937c2" y="481.421838"/>
     <use style="fill:#008000;stroke:#008000;" x="588.088893" xlink:href="#m171fa937c2" y="481.421616"/>
     <use style="fill:#008000;stroke:#008000;" x="598.044254" xlink:href="#m171fa937c2" y="481.421397"/>
     <use style="fill:#008000;stroke:#008000;" x="608.609736" xlink:href="#m171fa937c2" y="481.421165"/>
     <use style="fill:#008000;stroke:#008000;" x="618.782233" xlink:href="#m171fa937c2" y="481.420942"/>
     <use style="fill:#008000;stroke:#008000;" x="628.880568" xlink:href="#m171fa937c2" y="481.42072"/>
     <use style="fill:#008000;stroke:#008000;" x="639.47128" xlink:href="#m171fa937c2" y="481.420487"/>
     <use style="fill:#008000;stroke:#008000;" x="649.623899" xlink:href="#m171fa937c2" y="481.420264"/>
     <use style="fill:#008000;stroke:#008000;" x="659.648071" xlink:href="#m171fa937c2" y="481.420044"/>
     <use style="fill:#008000;stroke:#008000;" x="670.178383" xlink:href="#m171fa937c2" y="481.419813"/>
     <use style="fill:#008000;stroke:#008000;" x="680.243841" xlink:href="#m171fa937c2" y="481.419592"/>
     <use style="fill:#008000;stroke:#008000;" x="690.185441" xlink:href="#m171fa937c2" y="481.419374"/>
     <use style="fill:#008000;stroke:#008000;" x="700.172149" xlink:href="#m171fa937c2" y="481.419154"/>
     <use style="fill:#008000;stroke:#008000;" x="711.058747" xlink:href="#m171fa937c2" y="481.418915"/>
     <use style="fill:#008000;stroke:#008000;" x="721.041633" xlink:href="#m171fa937c2" y="481.418696"/>
     <use style="fill:#008000;stroke:#008000;" x="731.000053" xlink:href="#m171fa937c2" y="481.418477"/>
     <use style="fill:#008000;stroke:#008000;" x="741.889709" xlink:href="#m171fa937c2" y="481.418238"/>
     <use style="fill:#008000;stroke:#008000;" x="751.918469" xlink:href="#m171fa937c2" y="481.418018"/>
     <use style="fill:#008000;stroke:#008000;" x="761.902883" xlink:href="#m171fa937c2" y="481.417799"/>
     <use style="fill:#008000;stroke:#008000;" x="772.793304" xlink:href="#m171fa937c2" y="481.41756"/>
     <use style="fill:#008000;stroke:#008000;" x="782.793775" xlink:href="#m171fa937c2" y="481.41734"/>
     <use style="fill:#008000;stroke:#008000;" x="792.760605" xlink:href="#m171fa937c2" y="481.417121"/>
     <use style="fill:#008000;stroke:#008000;" x="803.78253" xlink:href="#m171fa937c2" y="481.416879"/>
     <use style="fill:#008000;stroke:#008000;" x="813.746302" xlink:href="#m171fa937c2" y="481.41666"/>
     <use style="fill:#008000;stroke:#008000;" x="823.777355" xlink:href="#m171fa937c2" y="481.41644"/>
     <use style="fill:#008000;stroke:#008000;" x="834.615021" xlink:href="#m171fa937c2" y="481.416202"/>
     <use style="fill:#008000;stroke:#008000;" x="844.61014" xlink:href="#m171fa937c2" y="481.415983"/>
     <use style="fill:#008000;stroke:#008000;" x="854.781108" xlink:href="#m171fa937c2" y="481.415759"/>
     <use style="fill:#008000;stroke:#008000;" x="865.582075" xlink:href="#m171fa937c2" y="481.415522"/>
     <use style="fill:#008000;stroke:#008000;" x="875.523674" xlink:href="#m171fa937c2" y="481.415304"/>
     <use style="fill:#008000;stroke:#008000;" x="885.439278" xlink:href="#m171fa937c2" y="481.415086"/>
     <use style="fill:#008000;stroke:#008000;" x="896.321289" xlink:href="#m171fa937c2" y="481.414847"/>
     <use style="fill:#008000;stroke:#008000;" x="906.237658" xlink:href="#m171fa937c2" y="481.414629"/>
     <use style="fill:#008000;stroke:#008000;" x="916.136442" xlink:href="#m171fa937c2" y="481.414412"/>
     <use style="fill:#008000;stroke:#008000;" x="927.084205" xlink:href="#m171fa937c2" y="481.414172"/>
     <use style="fill:#008000;stroke:#008000;" x="937.000574" xlink:href="#m171fa937c2" y="481.413954"/>
     <use style="fill:#008000;stroke:#008000;" x="946.939879" xlink:href="#m171fa937c2" y="481.413736"/>
     <use style="fill:#008000;stroke:#008000;" x="957.870057" xlink:href="#m171fa937c2" y="481.413496"/>
     <use style="fill:#008000;stroke:#008000;" x="967.779545" xlink:href="#m171fa937c2" y="481.413278"/>
     <use style="fill:#008000;stroke:#008000;" x="977.728026" xlink:href="#m171fa937c2" y="481.413059"/>
     <use style="fill:#008000;stroke:#008000;" x="988.67273" xlink:href="#m171fa937c2" y="481.412819"/>
     <use style="fill:#008000;stroke:#008000;" x="998.583747" xlink:href="#m171fa937c2" y="481.412602"/>
     <use style="fill:#008000;stroke:#008000;" x="1008.548283" xlink:href="#m171fa937c2" y="481.412383"/>
     <use style="fill:#008000;stroke:#008000;" x="1019.547272" xlink:href="#m171fa937c2" y="481.412141"/>
     <use style="fill:#008000;stroke:#008000;" x="1029.45676" xlink:href="#m171fa937c2" y="481.411924"/>
     <use style="fill:#008000;stroke:#008000;" x="1039.435823" xlink:href="#m171fa937c2" y="481.411704"/>
     <use style="fill:#008000;stroke:#008000;" x="1050.385115" xlink:href="#m171fa937c2" y="481.411464"/>
     <use style="fill:#008000;stroke:#008000;" x="1060.301484" xlink:href="#m171fa937c2" y="481.411246"/>
     <use style="fill:#008000;stroke:#008000;" x="1070.267549" xlink:href="#m171fa937c2" y="481.411027"/>
     <use style="fill:#008000;stroke:#008000;" x="1081.197727" xlink:href="#m171fa937c2" y="481.410787"/>
     <use style="fill:#008000;stroke:#008000;" x="1091.105686" xlink:href="#m171fa937c2" y="481.41057"/>
     <use style="fill:#008000;stroke:#008000;" x="1101.077103" xlink:href="#m171fa937c2" y="481.410351"/>
     <use style="fill:#008000;stroke:#008000;" x="1112.024101" xlink:href="#m171fa937c2" y="481.41011"/>
     <use style="fill:#008000;stroke:#008000;" x="1121.971053" xlink:href="#m171fa937c2" y="481.409892"/>
     <use style="fill:#008000;stroke:#008000;" x="1131.918004" xlink:href="#m171fa937c2" y="481.409674"/>
     <use style="fill:#008000;stroke:#008000;" x="1142.816835" xlink:href="#m171fa937c2" y="481.409434"/>
     <use style="fill:#008000;stroke:#008000;" x="1152.768374" xlink:href="#m171fa937c2" y="481.409216"/>
     <use style="fill:#008000;stroke:#008000;" x="1162.722971" xlink:href="#m171fa937c2" y="481.408997"/>
     <use style="fill:#008000;stroke:#008000;" x="1173.673792" xlink:href="#m171fa937c2" y="481.408757"/>
     <use style="fill:#008000;stroke:#008000;" x="1183.603158" xlink:href="#m171fa937c2" y="481.408539"/>
     <use style="fill:#008000;stroke:#008000;" x="1193.563872" xlink:href="#m171fa937c2" y="481.40832"/>
     <use style="fill:#008000;stroke:#008000;" x="1204.523868" xlink:href="#m171fa937c2" y="481.408079"/>
     <use style="fill:#008000;stroke:#008000;" x="1214.443295" xlink:href="#m171fa937c2" y="481.407861"/>
     <use style="fill:#008000;stroke:#008000;" x="1224.424651" xlink:href="#m171fa937c2" y="481.407642"/>
     <use style="fill:#008000;stroke:#008000;" x="1235.359417" xlink:href="#m171fa937c2" y="481.407402"/>
     <use style="fill:#008000;stroke:#008000;" x="1245.272727" xlink:href="#m171fa937c2" y="481.407185"/>
    </g>
   </g>
   <g id="patch_3">
    <path d="M 180 512.64 
L 180 69.12 
" style="fill:none;stroke:#000000;stroke-linecap:square;stroke-linejoin:miter;stroke-width:0.8;"/>
   </g>
   <g id="patch_4">
    <path d="M 1296 512.64 
L 1296 69.12 
" style="fill:none;stroke:#000000;stroke-linecap:square;stroke-linejoin:miter;stroke-width:0.8;"/>
   </g>
   <g id="patch_5">
    <path d="M 180 512.64 
L 1296 512.64 
" style="fill:none;stroke:#000000;stroke-linecap:square;stroke-linejoin:miter;stroke-width:0.8;"/>
   </g>
   <g id="patch_6">
    <path d="M 180 69.12 
L 1296 69.12 
" style="fill:none;stroke:#000000;stroke-linecap:square;stroke-linejoin:miter;stroke-width:0.8;"/>
   </g>
   <g id="text_17">
    <!-- 500000.0 bit/s -->
    <defs>
     <path d="M 10.796875 72.90625 
L 49.515625 72.90625 
L 49.515625 64.59375 
L 19.828125 64.59375 
L 19.828125 46.734375 
Q 21.96875 47.46875 24.109375 47.828125 
Q 26.265625 48.1875 28.421875 48.1875 
Q 40.625 48.1875 47.75 41.5 
Q 54.890625 34.8125 54.890625 23.390625 
Q 54.890625 11.625 47.5625 5.09375 
Q 40.234375 -1.421875 26.90625 -1.421875 
Q 22.3125 -1.421875 17.546875 -0.640625 
Q 12.796875 0.140625 7.71875 1.703125 
L 7.71875 11.625 
Q 12.109375 9.234375 16.796875 8.0625 
Q 21.484375 6.890625 26.703125 6.890625 
Q 35.15625 6.890625 40.078125 11.328125 
Q 45.015625 15.765625 45.015625 23.390625 
Q 45.015625 31 40.078125 35.4375 
Q 35.15625 39.890625 26.703125 39.890625 
Q 22.75 39.890625 18.8125 39.015625 
Q 14.890625 38.140625 10.796875 36.28125 
z
" id="DejaVuSans-35"/>
     <path id="DejaVuSans-20"/>
     <path d="M 48.6875 27.296875 
Q 48.6875 37.203125 44.609375 42.84375 
Q 40.53125 48.484375 33.40625 48.484375 
Q 26.265625 48.484375 22.1875 42.84375 
Q 18.109375 37.203125 18.109375 27.296875 
Q 18.109375 17.390625 22.1875 11.75 
Q 26.265625 6.109375 33.40625 6.109375 
Q 40.53125 6.109375 44.609375 11.75 
Q 48.6875 17.390625 48.6875 27.296875 
z
M 18.109375 46.390625 
Q 20.953125 51.265625 25.265625 53.625 
Q 29.59375 56 35.59375 56 
Q 45.5625 56 51.78125 48.09375 
Q 58.015625 40.1875 58.015625 27.296875 
Q 58.015625 14.40625 51.78125 6.484375 
Q 45.5625 -1.421875 35.59375 -1.421875 
Q 29.59375 -1.421875 25.265625 0.953125 
Q 20.953125 3.328125 18.109375 8.203125 
L 18.109375 0 
L 9.078125 0 
L 9.078125 75.984375 
L 18.109375 75.984375 
z
" id="DejaVuSans-62"/>
     <path d="M 9.421875 54.6875 
L 18.40625 54.6875 
L 18.40625 0 
L 9.421875 0 
z
M 9.421875 75.984375 
L 18.40625 75.984375 
L 18.40625 64.59375 
L 9.421875 64.59375 
z
" id="DejaVuSans-69"/>
     <path d="M 18.3125 70.21875 
L 18.3125 54.6875 
L 36.8125 54.6875 
L 36.8125 47.703125 
L 18.3125 47.703125 
L 18.3125 18.015625 
Q 18.3125 11.328125 20.140625 9.421875 
Q 21.96875 7.515625 27.59375 7.515625 
L 36.8125 7.515625 
L 36.8125 0 
L 27.59375 0 
Q 17.1875 0 13.234375 3.875 
Q 9.28125 7.765625 9.28125 18.015625 
L 9.28125 47.703125 
L 2.6875 47.703125 
L 2.6875 54.6875 
L 9.28125 54.6875 
L 9.28125 70.21875 
z
" id="DejaVuSans-74"/>
     <path d="M 25.390625 72.90625 
L 33.6875 72.90625 
L 8.296875 -9.28125 
L 0 -9.28125 
z
" id="DejaVuSans-2f"/>
     <path d="M 44.28125 53.078125 
L 44.28125 44.578125 
Q 40.484375 46.53125 36.375 47.5 
Q 32.28125 48.484375 27.875 48.484375 
Q 21.1875 48.484375 17.84375 46.4375 
Q 14.5 44.390625 14.5 40.28125 
Q 14.5 37.15625 16.890625 35.375 
Q 19.28125 33.59375 26.515625 31.984375 
L 29.59375 31.296875 
Q 39.15625 29.25 43.1875 25.515625 
Q 47.21875 21.78125 47.21875 15.09375 
Q 47.21875 7.46875 41.1875 3.015625 
Q 35.15625 -1.421875 24.609375 -1.421875 
Q 20.21875 -1.421875 15.453125 -0.5625 
Q 10.6875 0.296875 5.421875 2 
L 5.421875 11.28125 
Q 10.40625 8.6875 15.234375 7.390625 
Q 20.0625 6.109375 24.8125 6.109375 
Q 31.15625 6.109375 34.5625 8.28125 
Q 37.984375 10.453125 37.984375 14.40625 
Q 37.984375 18.0625 35.515625 20.015625 
Q 33.0625 21.96875 24.703125 23.78125 
L 21.578125 24.515625 
Q 13.234375 26.265625 9.515625 29.90625 
Q 5.8125 33.546875 5.8125 39.890625 
Q 5.8125 47.609375 11.28125 51.796875 
Q 16.75 56 26.8125 56 
Q 31.78125 56 36.171875 55.265625 
Q 40.578125 54.546875 44.28125 53.078125 
z
" id="DejaVuSans-73"/>
    </defs>
    <g transform="translate(694.48875 63.12)scale(0.12 -0.12)">
     <use xlink:href="#DejaVuSans-35"/>
     <use x="63.623047" xlink:href="#DejaVuSans-30"/>
     <use x="127.246094" xlink:href="#DejaVuSans-30"/>
     <use x="190.869141" xlink:href="#DejaVuSans-30"/>
     <use x="254.492188" xlink:href="#DejaVuSans-30"/>
     <use x="318.115234" xlink:href="#DejaVuSans-30"/>
     <use x="381.738281" xlink:href="#DejaVuSans-2e"/>
     <use x="413.525391" xlink:href="#DejaVuSans-30"/>
     <use x="477.148438" xlink:href="#DejaVuSans-20"/>
     <use x="508.935547" xlink:href="#DejaVuSans-62"/>
     <use x="572.412109" xlink:href="#DejaVuSans-69"/>
     <use x="600.195312" xlink:href="#DejaVuSans-74"/>
     <use x="639.404297" xlink:href="#DejaVuSans-2f"/>
     <use x="673.095703" xlink:href="#DejaVuSans-73"/>
    </g>
   </g>
   <g id="legend_1">
    <g id="patch_7">
     <path d="M 1173.520313 135.8325 
L 1289 135.8325 
Q 1291 135.8325 1291 133.8325 
L 1291 76.12 
Q 1291 74.12 1289 74.12 
L 1173.520313 74.12 
Q 1171.520313 74.12 1171.520313 76.12 
L 1171.520313 133.8325 
Q 1171.520313 135.8325 1173.520313 135.8325 
z
" style="fill:#ffffff;opacity:0.8;stroke:#cccccc;stroke-linejoin:miter;"/>
    </g>
    <g id="line2d_21">
     <path d="M 1175.520313 82.218437 
L 1195.520313 82.218437 
" style="fill:none;stroke:#ff0000;stroke-dasharray:5.55,2.4;stroke-dashoffset:0;stroke-width:1.5;"/>
    </g>
    <g id="line2d_22">
     <g>
      <use style="fill:#ff0000;stroke:#ff0000;stroke-linejoin:miter;" x="1185.520313" xlink:href="#m8c5ef0b04d" y="82.218437"/>
     </g>
    </g>
    <g id="text_18">
     <!-- tcpdump -->
     <defs>
      <path d="M 48.78125 52.59375 
L 48.78125 44.1875 
Q 44.96875 46.296875 41.140625 47.34375 
Q 37.3125 48.390625 33.40625 48.390625 
Q 24.65625 48.390625 19.8125 42.84375 
Q 14.984375 37.3125 14.984375 27.296875 
Q 14.984375 17.28125 19.8125 11.734375 
Q 24.65625 6.203125 33.40625 6.203125 
Q 37.3125 6.203125 41.140625 7.25 
Q 44.96875 8.296875 48.78125 10.40625 
L 48.78125 2.09375 
Q 45.015625 0.34375 40.984375 -0.53125 
Q 36.96875 -1.421875 32.421875 -1.421875 
Q 20.0625 -1.421875 12.78125 6.34375 
Q 5.515625 14.109375 5.515625 27.296875 
Q 5.515625 40.671875 12.859375 48.328125 
Q 20.21875 56 33.015625 56 
Q 37.15625 56 41.109375 55.140625 
Q 45.0625 54.296875 48.78125 52.59375 
z
" id="DejaVuSans-63"/>
      <path d="M 18.109375 8.203125 
L 18.109375 -20.796875 
L 9.078125 -20.796875 
L 9.078125 54.6875 
L 18.109375 54.6875 
L 18.109375 46.390625 
Q 20.953125 51.265625 25.265625 53.625 
Q 29.59375 56 35.59375 56 
Q 45.5625 56 51.78125 48.09375 
Q 58.015625 40.1875 58.015625 27.296875 
Q 58.015625 14.40625 51.78125 6.484375 
Q 45.5625 -1.421875 35.59375 -1.421875 
Q 29.59375 -1.421875 25.265625 0.953125 
Q 20.953125 3.328125 18.109375 8.203125 
z
M 48.6875 27.296875 
Q 48.6875 37.203125 44.609375 42.84375 
Q 40.53125 48.484375 33.40625 48.484375 
Q 26.265625 48.484375 22.1875 42.84375 
Q 18.109375 37.203125 18.109375 27.296875 
Q 18.109375 17.390625 22.1875 11.75 
Q 26.265625 6.109375 33.40625 6.109375 
Q 40.53125 6.109375 44.609375 11.75 
Q 48.6875 17.390625 48.6875 27.296875 
z
" id="DejaVuSans-70"/>
      <path d="M 45.40625 46.390625 
L 45.40625 75.984375 
L 54.390625 75.984375 
L 54.390625 0 
L 45.40625 0 
L 45.40625 8.203125 
Q 42.578125 3.328125 38.25 0.953125 
Q 33.9375 -1.421875 27.875 -1.421875 
Q 17.96875 -1.421875 11.734375 6.484375 
Q 5.515625 14.40625 5.515625 27.296875 
Q 5.515625 40.1875 11.734375 48.09375 
Q 17.96875 56 27.875 56 
Q 33.9375 56 38.25 53.625 
Q 42.578125 51.265625 45.40625 46.390625 
z
M 14.796875 27.296875 
Q 14.796875 17.390625 18.875 11.75 
Q 22.953125 6.109375 30.078125 6.109375 
Q 37.203125 6.109375 41.296875 11.75 
Q 45.40625 17.390625 45.40625 27.296875 
Q 45.40625 37.203125 41.296875 42.84375 
Q 37.203125 48.484375 30.078125 48.484375 
Q 22.953125 48.484375 18.875 42.84375 
Q 14.796875 37.203125 14.796875 27.296875 
z
" id="DejaVuSans-64"/>
      <path d="M 8.5 21.578125 
L 8.5 54.6875 
L 17.484375 54.6875 
L 17.484375 21.921875 
Q 17.484375 14.15625 20.5 10.265625 
Q 23.53125 6.390625 29.59375 6.390625 
Q 36.859375 6.390625 41.078125 11.03125 
Q 45.3125 15.671875 45.3125 23.6875 
L 45.3125 54.6875 
L 54.296875 54.6875 
L 54.296875 0 
L 45.3125 0 
L 45.3125 8.40625 
Q 42.046875 3.421875 37.71875 1 
Q 33.40625 -1.421875 27.6875 -1.421875 
Q 18.265625 -1.421875 13.375 4.4375 
Q 8.5 10.296875 8.5 21.578125 
z
M 31.109375 56 
z
" id="DejaVuSans-75"/>
      <path d="M 52 44.1875 
Q 55.375 50.25 60.0625 53.125 
Q 64.75 56 71.09375 56 
Q 79.640625 56 84.28125 50.015625 
Q 88.921875 44.046875 88.921875 33.015625 
L 88.921875 0 
L 79.890625 0 
L 79.890625 32.71875 
Q 79.890625 40.578125 77.09375 44.375 
Q 74.3125 48.1875 68.609375 48.1875 
Q 61.625 48.1875 57.5625 43.546875 
Q 53.515625 38.921875 53.515625 30.90625 
L 53.515625 0 
L 44.484375 0 
L 44.484375 32.71875 
Q 44.484375 40.625 41.703125 44.40625 
Q 38.921875 48.1875 33.109375 48.1875 
Q 26.21875 48.1875 22.15625 43.53125 
Q 18.109375 38.875 18.109375 30.90625 
L 18.109375 0 
L 9.078125 0 
L 9.078125 54.6875 
L 18.109375 54.6875 
L 18.109375 46.1875 
Q 21.1875 51.21875 25.484375 53.609375 
Q 29.78125 56 35.6875 56 
Q 41.65625 56 45.828125 52.96875 
Q 50 49.953125 52 44.1875 
z
" id="DejaVuSans-6d"/>
     </defs>
     <g transform="translate(1203.520313 85.718437)scale(0.1 -0.1)">
      <use xlink:href="#DejaVuSans-74"/>
      <use x="39.208984" xlink:href="#DejaVuSans-63"/>
      <use x="94.189453" xlink:href="#DejaVuSans-70"/>
      <use x="157.666016" xlink:href="#DejaVuSans-64"/>
      <use x="221.142578" xlink:href="#DejaVuSans-75"/>
      <use x="284.521484" xlink:href="#DejaVuSans-6d"/>
      <use x="381.933594" xlink:href="#DejaVuSans-70"/>
     </g>
    </g>
    <g id="line2d_23">
     <path d="M 1175.520313 96.896563 
L 1195.520313 96.896563 
" style="fill:none;stroke:#800080;stroke-dasharray:9.6,2.4,1.5,2.4;stroke-dashoffset:0;stroke-width:1.5;"/>
    </g>
    <g id="line2d_24">
     <g>
      <use style="fill:#800080;stroke:#800080;" x="1185.520313" xlink:href="#meacb0ebdba" y="96.896563"/>
     </g>
    </g>
    <g id="text_19">
     <!-- filtered tcpdump -->
     <defs>
      <path d="M 37.109375 75.984375 
L 37.109375 68.5 
L 28.515625 68.5 
Q 23.6875 68.5 21.796875 66.546875 
Q 19.921875 64.59375 19.921875 59.515625 
L 19.921875 54.6875 
L 34.71875 54.6875 
L 34.71875 47.703125 
L 19.921875 47.703125 
L 19.921875 0 
L 10.890625 0 
L 10.890625 47.703125 
L 2.296875 47.703125 
L 2.296875 54.6875 
L 10.890625 54.6875 
L 10.890625 58.5 
Q 10.890625 67.625 15.140625 71.796875 
Q 19.390625 75.984375 28.609375 75.984375 
z
" id="DejaVuSans-66"/>
      <path d="M 9.421875 75.984375 
L 18.40625 75.984375 
L 18.40625 0 
L 9.421875 0 
z
" id="DejaVuSans-6c"/>
      <path d="M 56.203125 29.59375 
L 56.203125 25.203125 
L 14.890625 25.203125 
Q 15.484375 15.921875 20.484375 11.0625 
Q 25.484375 6.203125 34.421875 6.203125 
Q 39.59375 6.203125 44.453125 7.46875 
Q 49.3125 8.734375 54.109375 11.28125 
L 54.109375 2.78125 
Q 49.265625 0.734375 44.1875 -0.34375 
Q 39.109375 -1.421875 33.890625 -1.421875 
Q 20.796875 -1.421875 13.15625 6.1875 
Q 5.515625 13.8125 5.515625 26.8125 
Q 5.515625 40.234375 12.765625 48.109375 
Q 20.015625 56 32.328125 56 
Q 43.359375 56 49.78125 48.890625 
Q 56.203125 41.796875 56.203125 29.59375 
z
M 47.21875 32.234375 
Q 47.125 39.59375 43.09375 43.984375 
Q 39.0625 48.390625 32.421875 48.390625 
Q 24.90625 48.390625 20.390625 44.140625 
Q 15.875 39.890625 15.1875 32.171875 
z
" id="DejaVuSans-65"/>
      <path d="M 41.109375 46.296875 
Q 39.59375 47.171875 37.8125 47.578125 
Q 36.03125 48 33.890625 48 
Q 26.265625 48 22.1875 43.046875 
Q 18.109375 38.09375 18.109375 28.8125 
L 18.109375 0 
L 9.078125 0 
L 9.078125 54.6875 
L 18.109375 54.6875 
L 18.109375 46.1875 
Q 20.953125 51.171875 25.484375 53.578125 
Q 30.03125 56 36.53125 56 
Q 37.453125 56 38.578125 55.875 
Q 39.703125 55.765625 41.0625 55.515625 
z
" id="DejaVuSans-72"/>
     </defs>
     <g transform="translate(1203.520313 100.396563)scale(0.1 -0.1)">
      <use xlink:href="#DejaVuSans-66"/>
      <use x="35.205078" xlink:href="#DejaVuSans-69"/>
      <use x="62.988281" xlink:href="#DejaVuSans-6c"/>
      <use x="90.771484" xlink:href="#DejaVuSans-74"/>
      <use x="129.980469" xlink:href="#DejaVuSans-65"/>
      <use x="191.503906" xlink:href="#DejaVuSans-72"/>
      <use x="232.585938" xlink:href="#DejaVuSans-65"/>
      <use x="294.109375" xlink:href="#DejaVuSans-64"/>
      <use x="357.585938" xlink:href="#DejaVuSans-20"/>
      <use x="389.373047" xlink:href="#DejaVuSans-74"/>
      <use x="428.582031" xlink:href="#DejaVuSans-63"/>
      <use x="483.5625" xlink:href="#DejaVuSans-70"/>
      <use x="547.039062" xlink:href="#DejaVuSans-64"/>
      <use x="610.515625" xlink:href="#DejaVuSans-75"/>
      <use x="673.894531" xlink:href="#DejaVuSans-6d"/>
      <use x="771.306641" xlink:href="#DejaVuSans-70"/>
     </g>
    </g>
    <g id="line2d_25">
     <path d="M 1175.520313 111.574687 
L 1195.520313 111.574687 
" style="fill:none;stroke:#0000ff;stroke-linecap:square;stroke-width:1.5;"/>
    </g>
    <g id="line2d_26"/>
    <g id="text_20">
     <!-- OLS -->
     <defs>
      <path d="M 39.40625 66.21875 
Q 28.65625 66.21875 22.328125 58.203125 
Q 16.015625 50.203125 16.015625 36.375 
Q 16.015625 22.609375 22.328125 14.59375 
Q 28.65625 6.59375 39.40625 6.59375 
Q 50.140625 6.59375 56.421875 14.59375 
Q 62.703125 22.609375 62.703125 36.375 
Q 62.703125 50.203125 56.421875 58.203125 
Q 50.140625 66.21875 39.40625 66.21875 
z
M 39.40625 74.21875 
Q 54.734375 74.21875 63.90625 63.9375 
Q 73.09375 53.65625 73.09375 36.375 
Q 73.09375 19.140625 63.90625 8.859375 
Q 54.734375 -1.421875 39.40625 -1.421875 
Q 24.03125 -1.421875 14.8125 8.828125 
Q 5.609375 19.09375 5.609375 36.375 
Q 5.609375 53.65625 14.8125 63.9375 
Q 24.03125 74.21875 39.40625 74.21875 
z
" id="DejaVuSans-4f"/>
      <path d="M 9.8125 72.90625 
L 19.671875 72.90625 
L 19.671875 8.296875 
L 55.171875 8.296875 
L 55.171875 0 
L 9.8125 0 
z
" id="DejaVuSans-4c"/>
      <path d="M 53.515625 70.515625 
L 53.515625 60.890625 
Q 47.90625 63.578125 42.921875 64.890625 
Q 37.9375 66.21875 33.296875 66.21875 
Q 25.25 66.21875 20.875 63.09375 
Q 16.5 59.96875 16.5 54.203125 
Q 16.5 49.359375 19.40625 46.890625 
Q 22.3125 44.4375 30.421875 42.921875 
L 36.375 41.703125 
Q 47.40625 39.59375 52.65625 34.296875 
Q 57.90625 29 57.90625 20.125 
Q 57.90625 9.515625 50.796875 4.046875 
Q 43.703125 -1.421875 29.984375 -1.421875 
Q 24.8125 -1.421875 18.96875 -0.25 
Q 13.140625 0.921875 6.890625 3.21875 
L 6.890625 13.375 
Q 12.890625 10.015625 18.65625 8.296875 
Q 24.421875 6.59375 29.984375 6.59375 
Q 38.421875 6.59375 43.015625 9.90625 
Q 47.609375 13.234375 47.609375 19.390625 
Q 47.609375 24.75 44.3125 27.78125 
Q 41.015625 30.8125 33.5 32.328125 
L 27.484375 33.5 
Q 16.453125 35.6875 11.515625 40.375 
Q 6.59375 45.0625 6.59375 53.421875 
Q 6.59375 63.09375 13.40625 68.65625 
Q 20.21875 74.21875 32.171875 74.21875 
Q 37.3125 74.21875 42.625 73.28125 
Q 47.953125 72.359375 53.515625 70.515625 
z
" id="DejaVuSans-53"/>
     </defs>
     <g transform="translate(1203.520313 115.074687)scale(0.1 -0.1)">
      <use xlink:href="#DejaVuSans-4f"/>
      <use x="78.710938" xlink:href="#DejaVuSans-4c"/>
      <use x="134.423828" xlink:href="#DejaVuSans-53"/>
     </g>
    </g>
    <g id="line2d_27">
     <path d="M 1175.520313 126.252813 
L 1195.520313 126.252813 
" style="fill:none;stroke:#008000;stroke-linecap:square;stroke-width:1.5;"/>
    </g>
    <g id="line2d_28">
     <g>
      <use style="fill:#008000;stroke:#008000;" x="1185.520313" xlink:href="#m171fa937c2" y="126.252813"/>
     </g>
    </g>
    <g id="text_21">
     <!-- IRLS -->
     <defs>
      <path d="M 9.8125 72.90625 
L 19.671875 72.90625 
L 19.671875 0 
L 9.8125 0 
z
" id="DejaVuSans-49"/>
      <path d="M 44.390625 34.1875 
Q 47.5625 33.109375 50.5625 29.59375 
Q 53.5625 26.078125 56.59375 19.921875 
L 66.609375 0 
L 56 0 
L 46.6875 18.703125 
Q 43.0625 26.03125 39.671875 28.421875 
Q 36.28125 30.8125 30.421875 30.8125 
L 19.671875 30.8125 
L 19.671875 0 
L 9.8125 0 
L 9.8125 72.90625 
L 32.078125 72.90625 
Q 44.578125 72.90625 50.734375 67.671875 
Q 56.890625 62.453125 56.890625 51.90625 
Q 56.890625 45.015625 53.6875 40.46875 
Q 50.484375 35.9375 44.390625 34.1875 
z
M 19.671875 64.796875 
L 19.671875 38.921875 
L 32.078125 38.921875 
Q 39.203125 38.921875 42.84375 42.21875 
Q 46.484375 45.515625 46.484375 51.90625 
Q 46.484375 58.296875 42.84375 61.546875 
Q 39.203125 64.796875 32.078125 64.796875 
z
" id="DejaVuSans-52"/>
     </defs>
     <g transform="translate(1203.520313 129.752813)scale(0.1 -0.1)">
      <use xlink:href="#DejaVuSans-49"/>
      <use x="29.492188" xlink:href="#DejaVuSans-52"/>
      <use x="98.974609" xlink:href="#DejaVuSans-4c"/>
      <use x="154.6875" xlink:href="#DejaVuSans-53"/>
     </g>
    </g>
   </g>
  </g>
 </g>
 <defs>
  <clipPath id="p23c6a5b6c0">
   <rect height="443.52" width="1116" x="180" y="69.12"/>
  </clipPath>
 </defs>
</svg>
