<?xml version="1.0" encoding="utf-8" standalone="no"?>
<!DOCTYPE svg PUBLIC "-//W3C//DTD SVG 1.1//EN"
  "http://www.w3.org/Graphics/SVG/1.1/DTD/svg11.dtd">
<!-- Created with matplotlib (http://matplotlib.org/) -->
<svg height="576pt" version="1.1" viewBox="0 0 1440 576" width="1440pt" xmlns="http://www.w3.org/2000/svg" xmlns:xlink="http://www.w3.org/1999/xlink">
 <defs>
  <style type="text/css">
*{stroke-linecap:butt;stroke-linejoin:round;}
  </style>
 </defs>
 <g id="figure_1">
  <g id="patch_1">
   <path d="M 0 576 
L 1440 576 
L 1440 0 
L 0 0 
z
" style="fill:#ffffff;"/>
  </g>
  <g id="axes_1">
   <g id="patch_2">
    <path d="M 180 512.64 
L 1296 512.64 
L 1296 69.12 
L 180 69.12 
z
" style="fill:#ffffff;"/>
   </g>
   <g id="matplotlib.axis_1">
    <g id="xtick_1">
     <g id="line2d_1">
      <defs>
       <path d="M 0 0 
L 0 3.5 
" id="mb344fac1d2" style="stroke:#000000;stroke-width:0.8;"/>
      </defs>
      <g>
       <use style="stroke:#000000;stroke-width:0.8;" x="230.727273" xlink:href="#mb344fac1d2" y="512.64"/>
      </g>
     </g>
     <g id="text_1">
      <!-- 0.0 -->
      <defs>
       <path d="M 31.78125 66.40625 
Q 24.171875 66.40625 20.328125 58.90625 
Q 16.5 51.421875 16.5 36.375 
Q 16.5 21.390625 20.328125 13.890625 
Q 24.171875 6.390625 31.78125 6.390625 
Q 39.453125 6.390625 43.28125 13.890625 
Q 47.125 21.390625 47.125 36.375 
Q 47.125 51.421875 43.28125 58.90625 
Q 39.453125 66.40625 31.78125 66.40625 
z
M 31.78125 74.21875 
Q 44.046875 74.21875 50.515625 64.515625 
Q 56.984375 54.828125 56.984375 36.375 
Q 56.984375 17.96875 50.515625 8.265625 
Q 44.046875 -1.421875 31.78125 -1.421875 
Q 19.53125 -1.421875 13.0625 8.265625 
Q 6.59375 17.96875 6.59375 36.375 
Q 6.59375 54.828125 13.0625 64.515625 
Q 19.53125 74.21875 31.78125 74.21875 
z
" id="DejaVuSans-30"/>
       <path d="M 10.6875 12.40625 
L 21 12.40625 
L 21 0 
L 10.6875 0 
z
" id="DejaVuSans-2e"/>
      </defs>
      <g transform="translate(222.77571 527.238438)scale(0.1 -0.1)">
       <use xlink:href="#DejaVuSans-30"/>
       <use x="63.623047" xlink:href="#DejaVuSans-2e"/>
       <use x="95.410156" xlink:href="#DejaVuSans-30"/>
      </g>
     </g>
    </g>
    <g id="xtick_2">
     <g id="line2d_2">
      <g>
       <use style="stroke:#000000;stroke-width:0.8;" x="385.490582" xlink:href="#mb344fac1d2" y="512.64"/>
      </g>
     </g>
     <g id="text_2">
      <!-- 0.2 -->
      <defs>
       <path d="M 19.1875 8.296875 
L 53.609375 8.296875 
L 53.609375 0 
L 7.328125 0 
L 7.328125 8.296875 
Q 12.9375 14.109375 22.625 23.890625 
Q 32.328125 33.6875 34.8125 36.53125 
Q 39.546875 41.84375 41.421875 45.53125 
Q 43.3125 49.21875 43.3125 52.78125 
Q 43.3125 58.59375 39.234375 62.25 
Q 35.15625 65.921875 28.609375 65.921875 
Q 23.96875 65.921875 18.8125 64.3125 
Q 13.671875 62.703125 7.8125 59.421875 
L 7.8125 69.390625 
Q 13.765625 71.78125 18.9375 73 
Q 24.125 74.21875 28.421875 74.21875 
Q 39.75 74.21875 46.484375 68.546875 
Q 53.21875 62.890625 53.21875 53.421875 
Q 53.21875 48.921875 51.53125 44.890625 
Q 49.859375 40.875 45.40625 35.40625 
Q 44.1875 33.984375 37.640625 27.21875 
Q 31.109375 20.453125 19.1875 8.296875 
z
" id="DejaVuSans-32"/>
      </defs>
      <g transform="translate(377.539019 527.238438)scale(0.1 -0.1)">
       <use xlink:href="#DejaVuSans-30"/>
       <use x="63.623047" xlink:href="#DejaVuSans-2e"/>
       <use x="95.410156" xlink:href="#DejaVuSans-32"/>
      </g>
     </g>
    </g>
    <g id="xtick_3">
     <g id="line2d_3">
      <g>
       <use style="stroke:#000000;stroke-width:0.8;" x="540.25389" xlink:href="#mb344fac1d2" y="512.64"/>
      </g>
     </g>
     <g id="text_3">
      <!-- 0.4 -->
      <defs>
       <path d="M 37.796875 64.3125 
L 12.890625 25.390625 
L 37.796875 25.390625 
z
M 35.203125 72.90625 
L 47.609375 72.90625 
L 47.609375 25.390625 
L 58.015625 25.390625 
L 58.015625 17.1875 
L 47.609375 17.1875 
L 47.609375 0 
L 37.796875 0 
L 37.796875 17.1875 
L 4.890625 17.1875 
L 4.890625 26.703125 
z
" id="DejaVuSans-34"/>
      </defs>
      <g transform="translate(532.302328 527.238438)scale(0.1 -0.1)">
       <use xlink:href="#DejaVuSans-30"/>
       <use x="63.623047" xlink:href="#DejaVuSans-2e"/>
       <use x="95.410156" xlink:href="#DejaVuSans-34"/>
      </g>
     </g>
    </g>
    <g id="xtick_4">
     <g id="line2d_4">
      <g>
       <use style="stroke:#000000;stroke-width:0.8;" x="695.017199" xlink:href="#mb344fac1d2" y="512.64"/>
      </g>
     </g>
     <g id="text_4">
      <!-- 0.6 -->
      <defs>
       <path d="M 33.015625 40.375 
Q 26.375 40.375 22.484375 35.828125 
Q 18.609375 31.296875 18.609375 23.390625 
Q 18.609375 15.53125 22.484375 10.953125 
Q 26.375 6.390625 33.015625 6.390625 
Q 39.65625 6.390625 43.53125 10.953125 
Q 47.40625 15.53125 47.40625 23.390625 
Q 47.40625 31.296875 43.53125 35.828125 
Q 39.65625 40.375 33.015625 40.375 
z
M 52.59375 71.296875 
L 52.59375 62.3125 
Q 48.875 64.0625 45.09375 64.984375 
Q 41.3125 65.921875 37.59375 65.921875 
Q 27.828125 65.921875 22.671875 59.328125 
Q 17.53125 52.734375 16.796875 39.40625 
Q 19.671875 43.65625 24.015625 45.921875 
Q 28.375 48.1875 33.59375 48.1875 
Q 44.578125 48.1875 50.953125 41.515625 
Q 57.328125 34.859375 57.328125 23.390625 
Q 57.328125 12.15625 50.6875 5.359375 
Q 44.046875 -1.421875 33.015625 -1.421875 
Q 20.359375 -1.421875 13.671875 8.265625 
Q 6.984375 17.96875 6.984375 36.375 
Q 6.984375 53.65625 15.1875 63.9375 
Q 23.390625 74.21875 37.203125 74.21875 
Q 40.921875 74.21875 44.703125 73.484375 
Q 48.484375 72.75 52.59375 71.296875 
z
" id="DejaVuSans-36"/>
      </defs>
      <g transform="translate(687.065637 527.238438)scale(0.1 -0.1)">
       <use xlink:href="#DejaVuSans-30"/>
       <use x="63.623047" xlink:href="#DejaVuSans-2e"/>
       <use x="95.410156" xlink:href="#DejaVuSans-36"/>
      </g>
     </g>
    </g>
    <g id="xtick_5">
     <g id="line2d_5">
      <g>
       <use style="stroke:#000000;stroke-width:0.8;" x="849.780508" xlink:href="#mb344fac1d2" y="512.64"/>
      </g>
     </g>
     <g id="text_5">
      <!-- 0.8 -->
      <defs>
       <path d="M 31.78125 34.625 
Q 24.75 34.625 20.71875 30.859375 
Q 16.703125 27.09375 16.703125 20.515625 
Q 16.703125 13.921875 20.71875 10.15625 
Q 24.75 6.390625 31.78125 6.390625 
Q 38.8125 6.390625 42.859375 10.171875 
Q 46.921875 13.96875 46.921875 20.515625 
Q 46.921875 27.09375 42.890625 30.859375 
Q 38.875 34.625 31.78125 34.625 
z
M 21.921875 38.8125 
Q 15.578125 40.375 12.03125 44.71875 
Q 8.5 49.078125 8.5 55.328125 
Q 8.5 64.0625 14.71875 69.140625 
Q 20.953125 74.21875 31.78125 74.21875 
Q 42.671875 74.21875 48.875 69.140625 
Q 55.078125 64.0625 55.078125 55.328125 
Q 55.078125 49.078125 51.53125 44.71875 
Q 48 40.375 41.703125 38.8125 
Q 48.828125 37.15625 52.796875 32.3125 
Q 56.78125 27.484375 56.78125 20.515625 
Q 56.78125 9.90625 50.3125 4.234375 
Q 43.84375 -1.421875 31.78125 -1.421875 
Q 19.734375 -1.421875 13.25 4.234375 
Q 6.78125 9.90625 6.78125 20.515625 
Q 6.78125 27.484375 10.78125 32.3125 
Q 14.796875 37.15625 21.921875 38.8125 
z
M 18.3125 54.390625 
Q 18.3125 48.734375 21.84375 45.5625 
Q 25.390625 42.390625 31.78125 42.390625 
Q 38.140625 42.390625 41.71875 45.5625 
Q 45.3125 48.734375 45.3125 54.390625 
Q 45.3125 60.0625 41.71875 63.234375 
Q 38.140625 66.40625 31.78125 66.40625 
Q 25.390625 66.40625 21.84375 63.234375 
Q 18.3125 60.0625 18.3125 54.390625 
z
" id="DejaVuSans-38"/>
      </defs>
      <g transform="translate(841.828946 527.238438)scale(0.1 -0.1)">
       <use xlink:href="#DejaVuSans-30"/>
       <use x="63.623047" xlink:href="#DejaVuSans-2e"/>
       <use x="95.410156" xlink:href="#DejaVuSans-38"/>
      </g>
     </g>
    </g>
    <g id="xtick_6">
     <g id="line2d_6">
      <g>
       <use style="stroke:#000000;stroke-width:0.8;" x="1004.543817" xlink:href="#mb344fac1d2" y="512.64"/>
      </g>
     </g>
     <g id="text_6">
      <!-- 1.0 -->
      <defs>
       <path d="M 12.40625 8.296875 
L 28.515625 8.296875 
L 28.515625 63.921875 
L 10.984375 60.40625 
L 10.984375 69.390625 
L 28.421875 72.90625 
L 38.28125 72.90625 
L 38.28125 8.296875 
L 54.390625 8.296875 
L 54.390625 0 
L 12.40625 0 
z
" id="DejaVuSans-31"/>
      </defs>
      <g transform="translate(996.592255 527.238438)scale(0.1 -0.1)">
       <use xlink:href="#DejaVuSans-31"/>
       <use x="63.623047" xlink:href="#DejaVuSans-2e"/>
       <use x="95.410156" xlink:href="#DejaVuSans-30"/>
      </g>
     </g>
    </g>
    <g id="xtick_7">
     <g id="line2d_7">
      <g>
       <use style="stroke:#000000;stroke-width:0.8;" x="1159.307126" xlink:href="#mb344fac1d2" y="512.64"/>
      </g>
     </g>
     <g id="text_7">
      <!-- 1.2 -->
      <g transform="translate(1151.355563 527.238438)scale(0.1 -0.1)">
       <use xlink:href="#DejaVuSans-31"/>
       <use x="63.623047" xlink:href="#DejaVuSans-2e"/>
       <use x="95.410156" xlink:href="#DejaVuSans-32"/>
      </g>
     </g>
    </g>
   </g>
   <g id="matplotlib.axis_2">
    <g id="ytick_1">
     <g id="line2d_8">
      <defs>
       <path d="M 0 0 
L -3.5 0 
" id="m53abc4e60d" style="stroke:#000000;stroke-width:0.8;"/>
      </defs>
      <g>
       <use style="stroke:#000000;stroke-width:0.8;" x="180" xlink:href="#m53abc4e60d" y="456.465216"/>
      </g>
     </g>
     <g id="text_8">
      <!-- 0.3004 -->
      <defs>
       <path d="M 40.578125 39.3125 
Q 47.65625 37.796875 51.625 33 
Q 55.609375 28.21875 55.609375 21.1875 
Q 55.609375 10.40625 48.1875 4.484375 
Q 40.765625 -1.421875 27.09375 -1.421875 
Q 22.515625 -1.421875 17.65625 -0.515625 
Q 12.796875 0.390625 7.625 2.203125 
L 7.625 11.71875 
Q 11.71875 9.328125 16.59375 8.109375 
Q 21.484375 6.890625 26.8125 6.890625 
Q 36.078125 6.890625 40.9375 10.546875 
Q 45.796875 14.203125 45.796875 21.1875 
Q 45.796875 27.640625 41.28125 31.265625 
Q 36.765625 34.90625 28.71875 34.90625 
L 20.21875 34.90625 
L 20.21875 43.015625 
L 29.109375 43.015625 
Q 36.375 43.015625 40.234375 45.921875 
Q 44.09375 48.828125 44.09375 54.296875 
Q 44.09375 59.90625 40.109375 62.90625 
Q 36.140625 65.921875 28.71875 65.921875 
Q 24.65625 65.921875 20.015625 65.03125 
Q 15.375 64.15625 9.8125 62.3125 
L 9.8125 71.09375 
Q 15.4375 72.65625 20.34375 73.4375 
Q 25.25 74.21875 29.59375 74.21875 
Q 40.828125 74.21875 47.359375 69.109375 
Q 53.90625 64.015625 53.90625 55.328125 
Q 53.90625 49.265625 50.4375 45.09375 
Q 46.96875 40.921875 40.578125 39.3125 
z
" id="DejaVuSans-33"/>
      </defs>
      <g transform="translate(138.009375 460.264434)scale(0.1 -0.1)">
       <use xlink:href="#DejaVuSans-30"/>
       <use x="63.623047" xlink:href="#DejaVuSans-2e"/>
       <use x="95.410156" xlink:href="#DejaVuSans-33"/>
       <use x="159.033203" xlink:href="#DejaVuSans-30"/>
       <use x="222.65625" xlink:href="#DejaVuSans-30"/>
       <use x="286.279297" xlink:href="#DejaVuSans-34"/>
      </g>
     </g>
    </g>
    <g id="ytick_2">
     <g id="line2d_9">
      <g>
       <use style="stroke:#000000;stroke-width:0.8;" x="180" xlink:href="#m53abc4e60d" y="373.672608"/>
      </g>
     </g>
     <g id="text_9">
      <!-- 0.3006 -->
      <g transform="translate(138.009375 377.471827)scale(0.1 -0.1)">
       <use xlink:href="#DejaVuSans-30"/>
       <use x="63.623047" xlink:href="#DejaVuSans-2e"/>
       <use x="95.410156" xlink:href="#DejaVuSans-33"/>
       <use x="159.033203" xlink:href="#DejaVuSans-30"/>
       <use x="222.65625" xlink:href="#DejaVuSans-30"/>
       <use x="286.279297" xlink:href="#DejaVuSans-36"/>
      </g>
     </g>
    </g>
    <g id="ytick_3">
     <g id="line2d_10">
      <g>
       <use style="stroke:#000000;stroke-width:0.8;" x="180" xlink:href="#m53abc4e60d" y="290.88"/>
      </g>
     </g>
     <g id="text_10">
      <!-- 0.3008 -->
      <g transform="translate(138.009375 294.679219)scale(0.1 -0.1)">
       <use xlink:href="#DejaVuSans-30"/>
       <use x="63.623047" xlink:href="#DejaVuSans-2e"/>
       <use x="95.410156" xlink:href="#DejaVuSans-33"/>
       <use x="159.033203" xlink:href="#DejaVuSans-30"/>
       <use x="222.65625" xlink:href="#DejaVuSans-30"/>
       <use x="286.279297" xlink:href="#DejaVuSans-38"/>
      </g>
     </g>
    </g>
    <g id="ytick_4">
     <g id="line2d_11">
      <g>
       <use style="stroke:#000000;stroke-width:0.8;" x="180" xlink:href="#m53abc4e60d" y="208.087392"/>
      </g>
     </g>
     <g id="text_11">
      <!-- 0.3010 -->
      <g transform="translate(138.009375 211.886611)scale(0.1 -0.1)">
       <use xlink:href="#DejaVuSans-30"/>
       <use x="63.623047" xlink:href="#DejaVuSans-2e"/>
       <use x="95.410156" xlink:href="#DejaVuSans-33"/>
       <use x="159.033203" xlink:href="#DejaVuSans-30"/>
       <use x="222.65625" xlink:href="#DejaVuSans-31"/>
       <use x="286.279297" xlink:href="#DejaVuSans-30"/>
      </g>
     </g>
    </g>
    <g id="ytick_5">
     <g id="line2d_12">
      <g>
       <use style="stroke:#000000;stroke-width:0.8;" x="180" xlink:href="#m53abc4e60d" y="125.294784"/>
      </g>
     </g>
     <g id="text_12">
      <!-- 0.3012 -->
      <g transform="translate(138.009375 129.094003)scale(0.1 -0.1)">
       <use xlink:href="#DejaVuSans-30"/>
       <use x="63.623047" xlink:href="#DejaVuSans-2e"/>
       <use x="95.410156" xlink:href="#DejaVuSans-33"/>
       <use x="159.033203" xlink:href="#DejaVuSans-30"/>
       <use x="222.65625" xlink:href="#DejaVuSans-31"/>
       <use x="286.279297" xlink:href="#DejaVuSans-32"/>
      </g>
     </g>
    </g>
   </g>
   <g id="line2d_13">
    <path clip-path="url(#p4ee45ea865)" d="M 230.727273 446.11614 
L 241.576954 449.841807 
L 251.620319 89.28 
L 261.985592 456.051253 
L 272.054493 465.572402 
L 282.507207 464.744476 
L 292.908075 468.470144 
L 303.040429 458.535031 
L 313.673442 469.712033 
L 323.666509 465.572402 
L 333.66654 473.851663 
L 344.74295 462.674661 
L 354.877625 464.330513 
L 364.871466 453.153511 
L 375.07888 452.739548 
L 385.149328 434.525175 
L 395.321921 472.195811 
L 405.450406 466.400329 
L 415.74913 463.088624 
L 425.849757 459.362957 
L 435.998361 468.056181 
L 445.974404 434.939138 
L 456.0139 480.475072 
L 466.118396 470.953922 
L 476.429502 477.991294 
L 487.20954 478.405257 
L 497.277667 451.497659 
L 507.416212 472.195811 
L 517.885176 449.013881 
L 527.978839 451.083696 
L 538.053156 458.121068 
L 548.546109 405.961725 
L 558.837869 458.121068 
L 568.946234 475.921478 
L 579.645795 473.851663 
L 589.707732 452.325585 
L 600.452175 475.921478 
L 610.93971 432.455359 
L 620.976111 440.73462 
L 630.998583 419.622505 
L 641.027245 477.577331 
L 651.202159 400.166242 
L 661.21225 468.470144 
L 671.380199 406.375688 
L 682.006248 451.083696 
L 692.026398 463.91655 
L 702.104585 471.781848 
L 713.155459 475.093552 
L 723.25686 465.986366 
L 733.400821 477.163368 
L 743.891452 410.101355 
L 753.989758 473.023737 
L 764.018421 471.781848 
L 774.02619 476.749405 
L 784.151579 477.577331 
L 794.222802 480.889035 
L 804.310274 454.809363 
L 814.896858 457.707105 
L 825.012188 467.228255 
L 835.228888 454.809363 
L 846.073927 284.670554 
L 856.104911 465.986366 
L 866.247324 477.991294 
L 876.814563 492.48 
L 886.896619 432.041396 
L 896.970163 447.771992 
L 907.571449 453.981437 
L 917.622552 480.061109 
L 927.816811 473.023737 
L 937.872557 467.642218 
L 948.985337 430.799507 
L 959.132393 459.77692 
L 969.181949 455.63729 
L 979.556507 450.669733 
L 989.584396 479.647146 
L 999.609963 471.781848 
L 1009.747733 427.487803 
L 1019.83598 479.647146 
L 1029.902559 473.851663 
L 1040.455869 438.250842 
L 1050.461317 450.669733 
L 1060.6401 453.567474 
L 1070.70281 480.061109 
L 1081.92315 445.702177 
L 1092.004432 488.34037 
L 1102.089583 489.582259 
L 1112.288485 473.851663 
L 1122.309409 480.475072 
L 1132.543907 463.91655 
L 1142.961025 453.981437 
L 1153.010581 482.95885 
L 1163.317817 476.749405 
L 1173.685411 435.767064 
L 1183.792229 487.512444 
L 1194.654292 463.502587 
L 1204.640394 395.198686 
L 1214.498817 483.372813 
L 1224.561527 488.754333 
L 1234.839359 477.577331 
L 1245.272727 368.705051 
" style="fill:none;stroke:#ff0000;stroke-dasharray:5.55,2.4;stroke-dashoffset:0;stroke-width:1.5;"/>
    <defs>
     <path d="M -3 3 
L 3 3 
L 3 -3 
L -3 -3 
z
" id="md59cef229b" style="stroke:#ff0000;stroke-linejoin:miter;"/>
    </defs>
    <g clip-path="url(#p4ee45ea865)">
     <use style="fill:#ff0000;stroke:#ff0000;stroke-linejoin:miter;" x="230.727273" xlink:href="#md59cef229b" y="446.11614"/>
     <use style="fill:#ff0000;stroke:#ff0000;stroke-linejoin:miter;" x="241.576954" xlink:href="#md59cef229b" y="449.841807"/>
     <use style="fill:#ff0000;stroke:#ff0000;stroke-linejoin:miter;" x="251.620319" xlink:href="#md59cef229b" y="89.28"/>
     <use style="fill:#ff0000;stroke:#ff0000;stroke-linejoin:miter;" x="261.985592" xlink:href="#md59cef229b" y="456.051253"/>
     <use style="fill:#ff0000;stroke:#ff0000;stroke-linejoin:miter;" x="272.054493" xlink:href="#md59cef229b" y="465.572402"/>
     <use style="fill:#ff0000;stroke:#ff0000;stroke-linejoin:miter;" x="282.507207" xlink:href="#md59cef229b" y="464.744476"/>
     <use style="fill:#ff0000;stroke:#ff0000;stroke-linejoin:miter;" x="292.908075" xlink:href="#md59cef229b" y="468.470144"/>
     <use style="fill:#ff0000;stroke:#ff0000;stroke-linejoin:miter;" x="303.040429" xlink:href="#md59cef229b" y="458.535031"/>
     <use style="fill:#ff0000;stroke:#ff0000;stroke-linejoin:miter;" x="313.673442" xlink:href="#md59cef229b" y="469.712033"/>
     <use style="fill:#ff0000;stroke:#ff0000;stroke-linejoin:miter;" x="323.666509" xlink:href="#md59cef229b" y="465.572402"/>
     <use style="fill:#ff0000;stroke:#ff0000;stroke-linejoin:miter;" x="333.66654" xlink:href="#md59cef229b" y="473.851663"/>
     <use style="fill:#ff0000;stroke:#ff0000;stroke-linejoin:miter;" x="344.74295" xlink:href="#md59cef229b" y="462.674661"/>
     <use style="fill:#ff0000;stroke:#ff0000;stroke-linejoin:miter;" x="354.877625" xlink:href="#md59cef229b" y="464.330513"/>
     <use style="fill:#ff0000;stroke:#ff0000;stroke-linejoin:miter;" x="364.871466" xlink:href="#md59cef229b" y="453.153511"/>
     <use style="fill:#ff0000;stroke:#ff0000;stroke-linejoin:miter;" x="375.07888" xlink:href="#md59cef229b" y="452.739548"/>
     <use style="fill:#ff0000;stroke:#ff0000;stroke-linejoin:miter;" x="385.149328" xlink:href="#md59cef229b" y="434.525175"/>
     <use style="fill:#ff0000;stroke:#ff0000;stroke-linejoin:miter;" x="395.321921" xlink:href="#md59cef229b" y="472.195811"/>
     <use style="fill:#ff0000;stroke:#ff0000;stroke-linejoin:miter;" x="405.450406" xlink:href="#md59cef229b" y="466.400329"/>
     <use style="fill:#ff0000;stroke:#ff0000;stroke-linejoin:miter;" x="415.74913" xlink:href="#md59cef229b" y="463.088624"/>
     <use style="fill:#ff0000;stroke:#ff0000;stroke-linejoin:miter;" x="425.849757" xlink:href="#md59cef229b" y="459.362957"/>
     <use style="fill:#ff0000;stroke:#ff0000;stroke-linejoin:miter;" x="435.998361" xlink:href="#md59cef229b" y="468.056181"/>
     <use style="fill:#ff0000;stroke:#ff0000;stroke-linejoin:miter;" x="445.974404" xlink:href="#md59cef229b" y="434.939138"/>
     <use style="fill:#ff0000;stroke:#ff0000;stroke-linejoin:miter;" x="456.0139" xlink:href="#md59cef229b" y="480.475072"/>
     <use style="fill:#ff0000;stroke:#ff0000;stroke-linejoin:miter;" x="466.118396" xlink:href="#md59cef229b" y="470.953922"/>
     <use style="fill:#ff0000;stroke:#ff0000;stroke-linejoin:miter;" x="476.429502" xlink:href="#md59cef229b" y="477.991294"/>
     <use style="fill:#ff0000;stroke:#ff0000;stroke-linejoin:miter;" x="487.20954" xlink:href="#md59cef229b" y="478.405257"/>
     <use style="fill:#ff0000;stroke:#ff0000;stroke-linejoin:miter;" x="497.277667" xlink:href="#md59cef229b" y="451.497659"/>
     <use style="fill:#ff0000;stroke:#ff0000;stroke-linejoin:miter;" x="507.416212" xlink:href="#md59cef229b" y="472.195811"/>
     <use style="fill:#ff0000;stroke:#ff0000;stroke-linejoin:miter;" x="517.885176" xlink:href="#md59cef229b" y="449.013881"/>
     <use style="fill:#ff0000;stroke:#ff0000;stroke-linejoin:miter;" x="527.978839" xlink:href="#md59cef229b" y="451.083696"/>
     <use style="fill:#ff0000;stroke:#ff0000;stroke-linejoin:miter;" x="538.053156" xlink:href="#md59cef229b" y="458.121068"/>
     <use style="fill:#ff0000;stroke:#ff0000;stroke-linejoin:miter;" x="548.546109" xlink:href="#md59cef229b" y="405.961725"/>
     <use style="fill:#ff0000;stroke:#ff0000;stroke-linejoin:miter;" x="558.837869" xlink:href="#md59cef229b" y="458.121068"/>
     <use style="fill:#ff0000;stroke:#ff0000;stroke-linejoin:miter;" x="568.946234" xlink:href="#md59cef229b" y="475.921478"/>
     <use style="fill:#ff0000;stroke:#ff0000;stroke-linejoin:miter;" x="579.645795" xlink:href="#md59cef229b" y="473.851663"/>
     <use style="fill:#ff0000;stroke:#ff0000;stroke-linejoin:miter;" x="589.707732" xlink:href="#md59cef229b" y="452.325585"/>
     <use style="fill:#ff0000;stroke:#ff0000;stroke-linejoin:miter;" x="600.452175" xlink:href="#md59cef229b" y="475.921478"/>
     <use style="fill:#ff0000;stroke:#ff0000;stroke-linejoin:miter;" x="610.93971" xlink:href="#md59cef229b" y="432.455359"/>
     <use style="fill:#ff0000;stroke:#ff0000;stroke-linejoin:miter;" x="620.976111" xlink:href="#md59cef229b" y="440.73462"/>
     <use style="fill:#ff0000;stroke:#ff0000;stroke-linejoin:miter;" x="630.998583" xlink:href="#md59cef229b" y="419.622505"/>
     <use style="fill:#ff0000;stroke:#ff0000;stroke-linejoin:miter;" x="641.027245" xlink:href="#md59cef229b" y="477.577331"/>
     <use style="fill:#ff0000;stroke:#ff0000;stroke-linejoin:miter;" x="651.202159" xlink:href="#md59cef229b" y="400.166242"/>
     <use style="fill:#ff0000;stroke:#ff0000;stroke-linejoin:miter;" x="661.21225" xlink:href="#md59cef229b" y="468.470144"/>
     <use style="fill:#ff0000;stroke:#ff0000;stroke-linejoin:miter;" x="671.380199" xlink:href="#md59cef229b" y="406.375688"/>
     <use style="fill:#ff0000;stroke:#ff0000;stroke-linejoin:miter;" x="682.006248" xlink:href="#md59cef229b" y="451.083696"/>
     <use style="fill:#ff0000;stroke:#ff0000;stroke-linejoin:miter;" x="692.026398" xlink:href="#md59cef229b" y="463.91655"/>
     <use style="fill:#ff0000;stroke:#ff0000;stroke-linejoin:miter;" x="702.104585" xlink:href="#md59cef229b" y="471.781848"/>
     <use style="fill:#ff0000;stroke:#ff0000;stroke-linejoin:miter;" x="713.155459" xlink:href="#md59cef229b" y="475.093552"/>
     <use style="fill:#ff0000;stroke:#ff0000;stroke-linejoin:miter;" x="723.25686" xlink:href="#md59cef229b" y="465.986366"/>
     <use style="fill:#ff0000;stroke:#ff0000;stroke-linejoin:miter;" x="733.400821" xlink:href="#md59cef229b" y="477.163368"/>
     <use style="fill:#ff0000;stroke:#ff0000;stroke-linejoin:miter;" x="743.891452" xlink:href="#md59cef229b" y="410.101355"/>
     <use style="fill:#ff0000;stroke:#ff0000;stroke-linejoin:miter;" x="753.989758" xlink:href="#md59cef229b" y="473.023737"/>
     <use style="fill:#ff0000;stroke:#ff0000;stroke-linejoin:miter;" x="764.018421" xlink:href="#md59cef229b" y="471.781848"/>
     <use style="fill:#ff0000;stroke:#ff0000;stroke-linejoin:miter;" x="774.02619" xlink:href="#md59cef229b" y="476.749405"/>
     <use style="fill:#ff0000;stroke:#ff0000;stroke-linejoin:miter;" x="784.151579" xlink:href="#md59cef229b" y="477.577331"/>
     <use style="fill:#ff0000;stroke:#ff0000;stroke-linejoin:miter;" x="794.222802" xlink:href="#md59cef229b" y="480.889035"/>
     <use style="fill:#ff0000;stroke:#ff0000;stroke-linejoin:miter;" x="804.310274" xlink:href="#md59cef229b" y="454.809363"/>
     <use style="fill:#ff0000;stroke:#ff0000;stroke-linejoin:miter;" x="814.896858" xlink:href="#md59cef229b" y="457.707105"/>
     <use style="fill:#ff0000;stroke:#ff0000;stroke-linejoin:miter;" x="825.012188" xlink:href="#md59cef229b" y="467.228255"/>
     <use style="fill:#ff0000;stroke:#ff0000;stroke-linejoin:miter;" x="835.228888" xlink:href="#md59cef229b" y="454.809363"/>
     <use style="fill:#ff0000;stroke:#ff0000;stroke-linejoin:miter;" x="846.073927" xlink:href="#md59cef229b" y="284.670554"/>
     <use style="fill:#ff0000;stroke:#ff0000;stroke-linejoin:miter;" x="856.104911" xlink:href="#md59cef229b" y="465.986366"/>
     <use style="fill:#ff0000;stroke:#ff0000;stroke-linejoin:miter;" x="866.247324" xlink:href="#md59cef229b" y="477.991294"/>
     <use style="fill:#ff0000;stroke:#ff0000;stroke-linejoin:miter;" x="876.814563" xlink:href="#md59cef229b" y="492.48"/>
     <use style="fill:#ff0000;stroke:#ff0000;stroke-linejoin:miter;" x="886.896619" xlink:href="#md59cef229b" y="432.041396"/>
     <use style="fill:#ff0000;stroke:#ff0000;stroke-linejoin:miter;" x="896.970163" xlink:href="#md59cef229b" y="447.771992"/>
     <use style="fill:#ff0000;stroke:#ff0000;stroke-linejoin:miter;" x="907.571449" xlink:href="#md59cef229b" y="453.981437"/>
     <use style="fill:#ff0000;stroke:#ff0000;stroke-linejoin:miter;" x="917.622552" xlink:href="#md59cef229b" y="480.061109"/>
     <use style="fill:#ff0000;stroke:#ff0000;stroke-linejoin:miter;" x="927.816811" xlink:href="#md59cef229b" y="473.023737"/>
     <use style="fill:#ff0000;stroke:#ff0000;stroke-linejoin:miter;" x="937.872557" xlink:href="#md59cef229b" y="467.642218"/>
     <use style="fill:#ff0000;stroke:#ff0000;stroke-linejoin:miter;" x="948.985337" xlink:href="#md59cef229b" y="430.799507"/>
     <use style="fill:#ff0000;stroke:#ff0000;stroke-linejoin:miter;" x="959.132393" xlink:href="#md59cef229b" y="459.77692"/>
     <use style="fill:#ff0000;stroke:#ff0000;stroke-linejoin:miter;" x="969.181949" xlink:href="#md59cef229b" y="455.63729"/>
     <use style="fill:#ff0000;stroke:#ff0000;stroke-linejoin:miter;" x="979.556507" xlink:href="#md59cef229b" y="450.669733"/>
     <use style="fill:#ff0000;stroke:#ff0000;stroke-linejoin:miter;" x="989.584396" xlink:href="#md59cef229b" y="479.647146"/>
     <use style="fill:#ff0000;stroke:#ff0000;stroke-linejoin:miter;" x="999.609963" xlink:href="#md59cef229b" y="471.781848"/>
     <use style="fill:#ff0000;stroke:#ff0000;stroke-linejoin:miter;" x="1009.747733" xlink:href="#md59cef229b" y="427.487803"/>
     <use style="fill:#ff0000;stroke:#ff0000;stroke-linejoin:miter;" x="1019.83598" xlink:href="#md59cef229b" y="479.647146"/>
     <use style="fill:#ff0000;stroke:#ff0000;stroke-linejoin:miter;" x="1029.902559" xlink:href="#md59cef229b" y="473.851663"/>
     <use style="fill:#ff0000;stroke:#ff0000;stroke-linejoin:miter;" x="1040.455869" xlink:href="#md59cef229b" y="438.250842"/>
     <use style="fill:#ff0000;stroke:#ff0000;stroke-linejoin:miter;" x="1050.461317" xlink:href="#md59cef229b" y="450.669733"/>
     <use style="fill:#ff0000;stroke:#ff0000;stroke-linejoin:miter;" x="1060.6401" xlink:href="#md59cef229b" y="453.567474"/>
     <use style="fill:#ff0000;stroke:#ff0000;stroke-linejoin:miter;" x="1070.70281" xlink:href="#md59cef229b" y="480.061109"/>
     <use style="fill:#ff0000;stroke:#ff0000;stroke-linejoin:miter;" x="1081.92315" xlink:href="#md59cef229b" y="445.702177"/>
     <use style="fill:#ff0000;stroke:#ff0000;stroke-linejoin:miter;" x="1092.004432" xlink:href="#md59cef229b" y="488.34037"/>
     <use style="fill:#ff0000;stroke:#ff0000;stroke-linejoin:miter;" x="1102.089583" xlink:href="#md59cef229b" y="489.582259"/>
     <use style="fill:#ff0000;stroke:#ff0000;stroke-linejoin:miter;" x="1112.288485" xlink:href="#md59cef229b" y="473.851663"/>
     <use style="fill:#ff0000;stroke:#ff0000;stroke-linejoin:miter;" x="1122.309409" xlink:href="#md59cef229b" y="480.475072"/>
     <use style="fill:#ff0000;stroke:#ff0000;stroke-linejoin:miter;" x="1132.543907" xlink:href="#md59cef229b" y="463.91655"/>
     <use style="fill:#ff0000;stroke:#ff0000;stroke-linejoin:miter;" x="1142.961025" xlink:href="#md59cef229b" y="453.981437"/>
     <use style="fill:#ff0000;stroke:#ff0000;stroke-linejoin:miter;" x="1153.010581" xlink:href="#md59cef229b" y="482.95885"/>
     <use style="fill:#ff0000;stroke:#ff0000;stroke-linejoin:miter;" x="1163.317817" xlink:href="#md59cef229b" y="476.749405"/>
     <use style="fill:#ff0000;stroke:#ff0000;stroke-linejoin:miter;" x="1173.685411" xlink:href="#md59cef229b" y="435.767064"/>
     <use style="fill:#ff0000;stroke:#ff0000;stroke-linejoin:miter;" x="1183.792229" xlink:href="#md59cef229b" y="487.512444"/>
     <use style="fill:#ff0000;stroke:#ff0000;stroke-linejoin:miter;" x="1194.654292" xlink:href="#md59cef229b" y="463.502587"/>
     <use style="fill:#ff0000;stroke:#ff0000;stroke-linejoin:miter;" x="1204.640394" xlink:href="#md59cef229b" y="395.198686"/>
     <use style="fill:#ff0000;stroke:#ff0000;stroke-linejoin:miter;" x="1214.498817" xlink:href="#md59cef229b" y="483.372813"/>
     <use style="fill:#ff0000;stroke:#ff0000;stroke-linejoin:miter;" x="1224.561527" xlink:href="#md59cef229b" y="488.754333"/>
     <use style="fill:#ff0000;stroke:#ff0000;stroke-linejoin:miter;" x="1234.839359" xlink:href="#md59cef229b" y="477.577331"/>
     <use style="fill:#ff0000;stroke:#ff0000;stroke-linejoin:miter;" x="1245.272727" xlink:href="#md59cef229b" y="368.705051"/>
    </g>
   </g>
   <g id="line2d_14">
    <path clip-path="url(#p4ee45ea865)" d="M 230.727273 446.11614 
L 241.576954 449.841807 
L 251.620319 89.28 
L 261.985592 456.051253 
L 272.054493 465.572402 
L 282.507207 464.744476 
L 292.908075 468.470144 
L 303.040429 458.535031 
L 313.673442 469.712033 
L 323.666509 465.572402 
L 333.66654 473.851663 
L 344.74295 462.674661 
L 354.877625 464.330513 
L 364.871466 453.153511 
L 375.07888 452.739548 
L 385.149328 434.525175 
L 395.321921 472.195811 
L 405.450406 466.400329 
L 415.74913 463.088624 
L 425.849757 459.362957 
L 435.998361 468.056181 
L 445.974404 434.939138 
L 456.0139 480.475072 
L 466.118396 470.953922 
L 476.429502 477.991294 
L 487.20954 478.405257 
L 497.277667 451.497659 
L 507.416212 472.195811 
L 517.885176 449.013881 
L 527.978839 451.083696 
L 538.053156 458.121068 
L 548.546109 405.961725 
L 558.837869 458.121068 
L 568.946234 475.921478 
L 579.645795 473.851663 
L 589.707732 452.325585 
L 600.452175 475.921478 
L 610.93971 432.455359 
L 620.976111 440.73462 
L 630.998583 419.622505 
L 641.027245 477.577331 
L 651.202159 400.166242 
L 661.21225 468.470144 
L 671.380199 406.375688 
L 682.006248 451.083696 
L 692.026398 463.91655 
L 702.104585 471.781848 
L 713.155459 475.093552 
L 723.25686 465.986366 
L 733.400821 477.163368 
L 743.891452 410.101355 
L 753.989758 473.023737 
L 764.018421 471.781848 
L 774.02619 476.749405 
L 784.151579 477.577331 
L 794.222802 480.889035 
L 804.310274 454.809363 
L 814.896858 457.707105 
L 825.012188 467.228255 
L 835.228888 454.809363 
L 846.073927 284.670554 
L 856.104911 465.986366 
L 866.247324 477.991294 
L 876.814563 492.48 
L 886.896619 432.041396 
L 896.970163 447.771992 
L 907.571449 453.981437 
L 917.622552 480.061109 
L 927.816811 473.023737 
L 937.872557 467.642218 
L 948.985337 430.799507 
L 959.132393 459.77692 
L 969.181949 455.63729 
L 979.556507 450.669733 
L 989.584396 479.647146 
L 999.609963 471.781848 
L 1009.747733 427.487803 
L 1019.83598 479.647146 
L 1029.902559 473.851663 
L 1040.455869 438.250842 
L 1050.461317 450.669733 
L 1060.6401 453.567474 
L 1070.70281 480.061109 
L 1081.92315 445.702177 
L 1092.004432 488.34037 
L 1102.089583 489.582259 
L 1112.288485 473.851663 
L 1122.309409 480.475072 
L 1132.543907 463.91655 
L 1142.961025 453.981437 
L 1153.010581 482.95885 
L 1163.317817 476.749405 
L 1173.685411 435.767064 
L 1183.792229 487.512444 
L 1194.654292 463.502587 
L 1204.640394 395.198686 
L 1214.498817 483.372813 
L 1224.561527 488.754333 
L 1234.839359 477.577331 
L 1245.272727 368.705051 
" style="fill:none;stroke:#800080;stroke-dasharray:9.6,2.4,1.5,2.4;stroke-dashoffset:0;stroke-width:1.5;"/>
    <defs>
     <path d="M -3 3 
L 3 -3 
M -3 -3 
L 3 3 
" id="m0c52b8b189" style="stroke:#800080;"/>
    </defs>
    <g clip-path="url(#p4ee45ea865)">
     <use style="fill:#800080;stroke:#800080;" x="230.727273" xlink:href="#m0c52b8b189" y="446.11614"/>
     <use style="fill:#800080;stroke:#800080;" x="241.576954" xlink:href="#m0c52b8b189" y="449.841807"/>
     <use style="fill:#800080;stroke:#800080;" x="251.620319" xlink:href="#m0c52b8b189" y="89.28"/>
     <use style="fill:#800080;stroke:#800080;" x="261.985592" xlink:href="#m0c52b8b189" y="456.051253"/>
     <use style="fill:#800080;stroke:#800080;" x="272.054493" xlink:href="#m0c52b8b189" y="465.572402"/>
     <use style="fill:#800080;stroke:#800080;" x="282.507207" xlink:href="#m0c52b8b189" y="464.744476"/>
     <use style="fill:#800080;stroke:#800080;" x="292.908075" xlink:href="#m0c52b8b189" y="468.470144"/>
     <use style="fill:#800080;stroke:#800080;" x="303.040429" xlink:href="#m0c52b8b189" y="458.535031"/>
     <use style="fill:#800080;stroke:#800080;" x="313.673442" xlink:href="#m0c52b8b189" y="469.712033"/>
     <use style="fill:#800080;stroke:#800080;" x="323.666509" xlink:href="#m0c52b8b189" y="465.572402"/>
     <use style="fill:#800080;stroke:#800080;" x="333.66654" xlink:href="#m0c52b8b189" y="473.851663"/>
     <use style="fill:#800080;stroke:#800080;" x="344.74295" xlink:href="#m0c52b8b189" y="462.674661"/>
     <use style="fill:#800080;stroke:#800080;" x="354.877625" xlink:href="#m0c52b8b189" y="464.330513"/>
     <use style="fill:#800080;stroke:#800080;" x="364.871466" xlink:href="#m0c52b8b189" y="453.153511"/>
     <use style="fill:#800080;stroke:#800080;" x="375.07888" xlink:href="#m0c52b8b189" y="452.739548"/>
     <use style="fill:#800080;stroke:#800080;" x="385.149328" xlink:href="#m0c52b8b189" y="434.525175"/>
     <use style="fill:#800080;stroke:#800080;" x="395.321921" xlink:href="#m0c52b8b189" y="472.195811"/>
     <use style="fill:#800080;stroke:#800080;" x="405.450406" xlink:href="#m0c52b8b189" y="466.400329"/>
     <use style="fill:#800080;stroke:#800080;" x="415.74913" xlink:href="#m0c52b8b189" y="463.088624"/>
     <use style="fill:#800080;stroke:#800080;" x="425.849757" xlink:href="#m0c52b8b189" y="459.362957"/>
     <use style="fill:#800080;stroke:#800080;" x="435.998361" xlink:href="#m0c52b8b189" y="468.056181"/>
     <use style="fill:#800080;stroke:#800080;" x="445.974404" xlink:href="#m0c52b8b189" y="434.939138"/>
     <use style="fill:#800080;stroke:#800080;" x="456.0139" xlink:href="#m0c52b8b189" y="480.475072"/>
     <use style="fill:#800080;stroke:#800080;" x="466.118396" xlink:href="#m0c52b8b189" y="470.953922"/>
     <use style="fill:#800080;stroke:#800080;" x="476.429502" xlink:href="#m0c52b8b189" y="477.991294"/>
     <use style="fill:#800080;stroke:#800080;" x="487.20954" xlink:href="#m0c52b8b189" y="478.405257"/>
     <use style="fill:#800080;stroke:#800080;" x="497.277667" xlink:href="#m0c52b8b189" y="451.497659"/>
     <use style="fill:#800080;stroke:#800080;" x="507.416212" xlink:href="#m0c52b8b189" y="472.195811"/>
     <use style="fill:#800080;stroke:#800080;" x="517.885176" xlink:href="#m0c52b8b189" y="449.013881"/>
     <use style="fill:#800080;stroke:#800080;" x="527.978839" xlink:href="#m0c52b8b189" y="451.083696"/>
     <use style="fill:#800080;stroke:#800080;" x="538.053156" xlink:href="#m0c52b8b189" y="458.121068"/>
     <use style="fill:#800080;stroke:#800080;" x="548.546109" xlink:href="#m0c52b8b189" y="405.961725"/>
     <use style="fill:#800080;stroke:#800080;" x="558.837869" xlink:href="#m0c52b8b189" y="458.121068"/>
     <use style="fill:#800080;stroke:#800080;" x="568.946234" xlink:href="#m0c52b8b189" y="475.921478"/>
     <use style="fill:#800080;stroke:#800080;" x="579.645795" xlink:href="#m0c52b8b189" y="473.851663"/>
     <use style="fill:#800080;stroke:#800080;" x="589.707732" xlink:href="#m0c52b8b189" y="452.325585"/>
     <use style="fill:#800080;stroke:#800080;" x="600.452175" xlink:href="#m0c52b8b189" y="475.921478"/>
     <use style="fill:#800080;stroke:#800080;" x="610.93971" xlink:href="#m0c52b8b189" y="432.455359"/>
     <use style="fill:#800080;stroke:#800080;" x="620.976111" xlink:href="#m0c52b8b189" y="440.73462"/>
     <use style="fill:#800080;stroke:#800080;" x="630.998583" xlink:href="#m0c52b8b189" y="419.622505"/>
     <use style="fill:#800080;stroke:#800080;" x="641.027245" xlink:href="#m0c52b8b189" y="477.577331"/>
     <use style="fill:#800080;stroke:#800080;" x="651.202159" xlink:href="#m0c52b8b189" y="400.166242"/>
     <use style="fill:#800080;stroke:#800080;" x="661.21225" xlink:href="#m0c52b8b189" y="468.470144"/>
     <use style="fill:#800080;stroke:#800080;" x="671.380199" xlink:href="#m0c52b8b189" y="406.375688"/>
     <use style="fill:#800080;stroke:#800080;" x="682.006248" xlink:href="#m0c52b8b189" y="451.083696"/>
     <use style="fill:#800080;stroke:#800080;" x="692.026398" xlink:href="#m0c52b8b189" y="463.91655"/>
     <use style="fill:#800080;stroke:#800080;" x="702.104585" xlink:href="#m0c52b8b189" y="471.781848"/>
     <use style="fill:#800080;stroke:#800080;" x="713.155459" xlink:href="#m0c52b8b189" y="475.093552"/>
     <use style="fill:#800080;stroke:#800080;" x="723.25686" xlink:href="#m0c52b8b189" y="465.986366"/>
     <use style="fill:#800080;stroke:#800080;" x="733.400821" xlink:href="#m0c52b8b189" y="477.163368"/>
     <use style="fill:#800080;stroke:#800080;" x="743.891452" xlink:href="#m0c52b8b189" y="410.101355"/>
     <use style="fill:#800080;stroke:#800080;" x="753.989758" xlink:href="#m0c52b8b189" y="473.023737"/>
     <use style="fill:#800080;stroke:#800080;" x="764.018421" xlink:href="#m0c52b8b189" y="471.781848"/>
     <use style="fill:#800080;stroke:#800080;" x="774.02619" xlink:href="#m0c52b8b189" y="476.749405"/>
     <use style="fill:#800080;stroke:#800080;" x="784.151579" xlink:href="#m0c52b8b189" y="477.577331"/>
     <use style="fill:#800080;stroke:#800080;" x="794.222802" xlink:href="#m0c52b8b189" y="480.889035"/>
     <use style="fill:#800080;stroke:#800080;" x="804.310274" xlink:href="#m0c52b8b189" y="454.809363"/>
     <use style="fill:#800080;stroke:#800080;" x="814.896858" xlink:href="#m0c52b8b189" y="457.707105"/>
     <use style="fill:#800080;stroke:#800080;" x="825.012188" xlink:href="#m0c52b8b189" y="467.228255"/>
     <use style="fill:#800080;stroke:#800080;" x="835.228888" xlink:href="#m0c52b8b189" y="454.809363"/>
     <use style="fill:#800080;stroke:#800080;" x="846.073927" xlink:href="#m0c52b8b189" y="284.670554"/>
     <use style="fill:#800080;stroke:#800080;" x="856.104911" xlink:href="#m0c52b8b189" y="465.986366"/>
     <use style="fill:#800080;stroke:#800080;" x="866.247324" xlink:href="#m0c52b8b189" y="477.991294"/>
     <use style="fill:#800080;stroke:#800080;" x="876.814563" xlink:href="#m0c52b8b189" y="492.48"/>
     <use style="fill:#800080;stroke:#800080;" x="886.896619" xlink:href="#m0c52b8b189" y="432.041396"/>
     <use style="fill:#800080;stroke:#800080;" x="896.970163" xlink:href="#m0c52b8b189" y="447.771992"/>
     <use style="fill:#800080;stroke:#800080;" x="907.571449" xlink:href="#m0c52b8b189" y="453.981437"/>
     <use style="fill:#800080;stroke:#800080;" x="917.622552" xlink:href="#m0c52b8b189" y="480.061109"/>
     <use style="fill:#800080;stroke:#800080;" x="927.816811" xlink:href="#m0c52b8b189" y="473.023737"/>
     <use style="fill:#800080;stroke:#800080;" x="937.872557" xlink:href="#m0c52b8b189" y="467.642218"/>
     <use style="fill:#800080;stroke:#800080;" x="948.985337" xlink:href="#m0c52b8b189" y="430.799507"/>
     <use style="fill:#800080;stroke:#800080;" x="959.132393" xlink:href="#m0c52b8b189" y="459.77692"/>
     <use style="fill:#800080;stroke:#800080;" x="969.181949" xlink:href="#m0c52b8b189" y="455.63729"/>
     <use style="fill:#800080;stroke:#800080;" x="979.556507" xlink:href="#m0c52b8b189" y="450.669733"/>
     <use style="fill:#800080;stroke:#800080;" x="989.584396" xlink:href="#m0c52b8b189" y="479.647146"/>
     <use style="fill:#800080;stroke:#800080;" x="999.609963" xlink:href="#m0c52b8b189" y="471.781848"/>
     <use style="fill:#800080;stroke:#800080;" x="1009.747733" xlink:href="#m0c52b8b189" y="427.487803"/>
     <use style="fill:#800080;stroke:#800080;" x="1019.83598" xlink:href="#m0c52b8b189" y="479.647146"/>
     <use style="fill:#800080;stroke:#800080;" x="1029.902559" xlink:href="#m0c52b8b189" y="473.851663"/>
     <use style="fill:#800080;stroke:#800080;" x="1040.455869" xlink:href="#m0c52b8b189" y="438.250842"/>
     <use style="fill:#800080;stroke:#800080;" x="1050.461317" xlink:href="#m0c52b8b189" y="450.669733"/>
     <use style="fill:#800080;stroke:#800080;" x="1060.6401" xlink:href="#m0c52b8b189" y="453.567474"/>
     <use style="fill:#800080;stroke:#800080;" x="1070.70281" xlink:href="#m0c52b8b189" y="480.061109"/>
     <use style="fill:#800080;stroke:#800080;" x="1081.92315" xlink:href="#m0c52b8b189" y="445.702177"/>
     <use style="fill:#800080;stroke:#800080;" x="1092.004432" xlink:href="#m0c52b8b189" y="488.34037"/>
     <use style="fill:#800080;stroke:#800080;" x="1102.089583" xlink:href="#m0c52b8b189" y="489.582259"/>
     <use style="fill:#800080;stroke:#800080;" x="1112.288485" xlink:href="#m0c52b8b189" y="473.851663"/>
     <use style="fill:#800080;stroke:#800080;" x="1122.309409" xlink:href="#m0c52b8b189" y="480.475072"/>
     <use style="fill:#800080;stroke:#800080;" x="1132.543907" xlink:href="#m0c52b8b189" y="463.91655"/>
     <use style="fill:#800080;stroke:#800080;" x="1142.961025" xlink:href="#m0c52b8b189" y="453.981437"/>
     <use style="fill:#800080;stroke:#800080;" x="1153.010581" xlink:href="#m0c52b8b189" y="482.95885"/>
     <use style="fill:#800080;stroke:#800080;" x="1163.317817" xlink:href="#m0c52b8b189" y="476.749405"/>
     <use style="fill:#800080;stroke:#800080;" x="1173.685411" xlink:href="#m0c52b8b189" y="435.767064"/>
     <use style="fill:#800080;stroke:#800080;" x="1183.792229" xlink:href="#m0c52b8b189" y="487.512444"/>
     <use style="fill:#800080;stroke:#800080;" x="1194.654292" xlink:href="#m0c52b8b189" y="463.502587"/>
     <use style="fill:#800080;stroke:#800080;" x="1204.640394" xlink:href="#m0c52b8b189" y="395.198686"/>
     <use style="fill:#800080;stroke:#800080;" x="1214.498817" xlink:href="#m0c52b8b189" y="483.372813"/>
     <use style="fill:#800080;stroke:#800080;" x="1224.561527" xlink:href="#m0c52b8b189" y="488.754333"/>
     <use style="fill:#800080;stroke:#800080;" x="1234.839359" xlink:href="#m0c52b8b189" y="477.577331"/>
     <use style="fill:#800080;stroke:#800080;" x="1245.272727" xlink:href="#m0c52b8b189" y="368.705051"/>
    </g>
   </g>
   <g id="line2d_15">
    <path clip-path="url(#p4ee45ea865)" d="M 230.727273 443.772671 
L 241.576954 443.997612 
L 251.620319 444.205836 
L 261.985592 444.420734 
L 272.054493 444.629487 
L 282.507207 444.846198 
L 292.908075 445.061834 
L 303.040429 445.271903 
L 313.673442 445.492352 
L 323.666509 445.699533 
L 333.66654 445.906859 
L 344.74295 446.1365 
L 354.877625 446.346617 
L 364.871466 446.553814 
L 375.07888 446.76544 
L 385.149328 446.974225 
L 395.321921 447.185128 
L 405.450406 447.395117 
L 415.74913 447.608635 
L 425.849757 447.818047 
L 435.998361 448.028452 
L 445.974404 448.235281 
L 456.0139 448.443425 
L 466.118396 448.652916 
L 476.429502 448.866691 
L 487.20954 449.090188 
L 497.277667 449.298925 
L 507.416212 449.509123 
L 517.885176 449.72617 
L 527.978839 449.935437 
L 538.053156 450.144303 
L 548.546109 450.361848 
L 558.837869 450.575222 
L 568.946234 450.784794 
L 579.645795 451.006622 
L 589.707732 451.215231 
L 600.452175 451.43799 
L 610.93971 451.655423 
L 620.976111 451.863503 
L 630.998583 452.071294 
L 641.027245 452.279213 
L 651.202159 452.490164 
L 661.21225 452.697698 
L 671.380199 452.908505 
L 682.006248 453.12881 
L 692.026398 453.336552 
L 702.104585 453.545498 
L 713.155459 453.774611 
L 723.25686 453.984038 
L 733.400821 454.194347 
L 743.891452 454.411844 
L 753.989758 454.621207 
L 764.018421 454.829127 
L 774.02619 455.036613 
L 784.151579 455.246537 
L 794.222802 455.455339 
L 804.310274 455.664477 
L 814.896858 455.883964 
L 825.012188 456.09368 
L 835.228888 456.305497 
L 846.073927 456.530342 
L 856.104911 456.738309 
L 866.247324 456.948587 
L 876.814563 457.167672 
L 886.896619 457.376698 
L 896.970163 457.585548 
L 907.571449 457.805339 
L 917.622552 458.013724 
L 927.816811 458.225076 
L 937.872557 458.433557 
L 948.985337 458.663952 
L 959.132393 458.874326 
L 969.181949 459.082678 
L 979.556507 459.297769 
L 989.584396 459.505672 
L 999.609963 459.713527 
L 1009.747733 459.923708 
L 1019.83598 460.132863 
L 1029.902559 460.341568 
L 1040.455869 460.560365 
L 1050.461317 460.767803 
L 1060.6401 460.978834 
L 1070.70281 461.187459 
L 1081.92315 461.420085 
L 1092.004432 461.629095 
L 1102.089583 461.838185 
L 1112.288485 462.049634 
L 1122.309409 462.257393 
L 1132.543907 462.469579 
L 1142.961025 462.685552 
L 1153.010581 462.893905 
L 1163.317817 463.107599 
L 1173.685411 463.322545 
L 1183.792229 463.532085 
L 1194.654292 463.757283 
L 1204.640394 463.964319 
L 1214.498817 464.168709 
L 1224.561527 464.377334 
L 1234.839359 464.590419 
L 1245.272727 464.806729 
" style="fill:none;stroke:#0000ff;stroke-linecap:square;stroke-width:1.5;"/>
   </g>
   <g id="line2d_16">
    <path clip-path="url(#p4ee45ea865)" d="M 230.727273 444.721889 
L 241.576954 444.933494 
L 251.620319 445.129374 
L 261.985592 445.331531 
L 272.054493 445.527908 
L 282.507207 445.731771 
L 292.908075 445.934623 
L 303.040429 446.132238 
L 313.673442 446.339617 
L 323.666509 446.534515 
L 333.66654 446.729549 
L 344.74295 446.945576 
L 354.877625 447.143237 
L 364.871466 447.33815 
L 375.07888 447.537229 
L 385.149328 447.733636 
L 395.321921 447.932036 
L 405.450406 448.129575 
L 415.74913 448.330435 
L 425.849757 448.527431 
L 435.998361 448.725362 
L 445.974404 448.919929 
L 456.0139 449.115732 
L 466.118396 449.312804 
L 476.429502 449.513905 
L 487.20954 449.724152 
L 497.277667 449.920514 
L 507.416212 450.118249 
L 517.885176 450.322429 
L 527.978839 450.519289 
L 538.053156 450.715772 
L 548.546109 450.92042 
L 558.837869 451.121144 
L 568.946234 451.318291 
L 579.645795 451.526968 
L 589.707732 451.723209 
L 600.452175 451.932762 
L 610.93971 452.137304 
L 620.976111 452.333047 
L 630.998583 452.528519 
L 641.027245 452.724112 
L 651.202159 452.922557 
L 661.21225 453.117787 
L 671.380199 453.316096 
L 682.006248 453.523339 
L 692.026398 453.718766 
L 702.104585 453.915324 
L 713.155459 454.130853 
L 723.25686 454.327864 
L 733.400821 454.525706 
L 743.891452 454.730308 
L 753.989758 454.927259 
L 764.018421 455.122851 
L 774.02619 455.318036 
L 784.151579 455.515515 
L 794.222802 455.711938 
L 804.310274 455.908677 
L 814.896858 456.115151 
L 825.012188 456.312434 
L 835.228888 456.511694 
L 846.073927 456.723208 
L 856.104911 456.918846 
L 866.247324 457.116657 
L 876.814563 457.322753 
L 886.896619 457.519387 
L 896.970163 457.715855 
L 907.571449 457.922616 
L 917.622552 458.118646 
L 927.816811 458.317468 
L 937.872557 458.513589 
L 948.985337 458.730325 
L 959.132393 458.928227 
L 969.181949 459.124227 
L 979.556507 459.326565 
L 989.584396 459.522143 
L 999.609963 459.717675 
L 1009.747733 459.915395 
L 1019.83598 460.11215 
L 1029.902559 460.308482 
L 1040.455869 460.514307 
L 1050.461317 460.709446 
L 1060.6401 460.907967 
L 1070.70281 461.104223 
L 1081.92315 461.323057 
L 1092.004432 461.519676 
L 1102.089583 461.71637 
L 1112.288485 461.915283 
L 1122.309409 462.110725 
L 1132.543907 462.310331 
L 1142.961025 462.5135 
L 1153.010581 462.7095 
L 1163.317817 462.910526 
L 1173.685411 463.112728 
L 1183.792229 463.309845 
L 1194.654292 463.521692 
L 1204.640394 463.716454 
L 1214.498817 463.908726 
L 1224.561527 464.104983 
L 1234.839359 464.305435 
L 1245.272727 464.508921 
" style="fill:none;stroke:#008000;stroke-linecap:square;stroke-width:1.5;"/>
    <defs>
     <path d="M 0 3 
C 0.795609 3 1.55874 2.683901 2.12132 2.12132 
C 2.683901 1.55874 3 0.795609 3 0 
C 3 -0.795609 2.683901 -1.55874 2.12132 -2.12132 
C 1.55874 -2.683901 0.795609 -3 0 -3 
C -0.795609 -3 -1.55874 -2.683901 -2.12132 -2.12132 
C -2.683901 -1.55874 -3 -0.795609 -3 0 
C -3 0.795609 -2.683901 1.55874 -2.12132 2.12132 
C -1.55874 2.683901 -0.795609 3 0 3 
z
" id="me3ab277440" style="stroke:#008000;"/>
    </defs>
    <g clip-path="url(#p4ee45ea865)">
     <use style="fill:#008000;stroke:#008000;" x="230.727273" xlink:href="#me3ab277440" y="444.721889"/>
     <use style="fill:#008000;stroke:#008000;" x="241.576954" xlink:href="#me3ab277440" y="444.933494"/>
     <use style="fill:#008000;stroke:#008000;" x="251.620319" xlink:href="#me3ab277440" y="445.129374"/>
     <use style="fill:#008000;stroke:#008000;" x="261.985592" xlink:href="#me3ab277440" y="445.331531"/>
     <use style="fill:#008000;stroke:#008000;" x="272.054493" xlink:href="#me3ab277440" y="445.527908"/>
     <use style="fill:#008000;stroke:#008000;" x="282.507207" xlink:href="#me3ab277440" y="445.731771"/>
     <use style="fill:#008000;stroke:#008000;" x="292.908075" xlink:href="#me3ab277440" y="445.934623"/>
     <use style="fill:#008000;stroke:#008000;" x="303.040429" xlink:href="#me3ab277440" y="446.132238"/>
     <use style="fill:#008000;stroke:#008000;" x="313.673442" xlink:href="#me3ab277440" y="446.339617"/>
     <use style="fill:#008000;stroke:#008000;" x="323.666509" xlink:href="#me3ab277440" y="446.534515"/>
     <use style="fill:#008000;stroke:#008000;" x="333.66654" xlink:href="#me3ab277440" y="446.729549"/>
     <use style="fill:#008000;stroke:#008000;" x="344.74295" xlink:href="#me3ab277440" y="446.945576"/>
     <use style="fill:#008000;stroke:#008000;" x="354.877625" xlink:href="#me3ab277440" y="447.143237"/>
     <use style="fill:#008000;stroke:#008000;" x="364.871466" xlink:href="#me3ab277440" y="447.33815"/>
     <use style="fill:#008000;stroke:#008000;" x="375.07888" xlink:href="#me3ab277440" y="447.537229"/>
     <use style="fill:#008000;stroke:#008000;" x="385.149328" xlink:href="#me3ab277440" y="447.733636"/>
     <use style="fill:#008000;stroke:#008000;" x="395.321921" xlink:href="#me3ab277440" y="447.932036"/>
     <use style="fill:#008000;stroke:#008000;" x="405.450406" xlink:href="#me3ab277440" y="448.129575"/>
     <use style="fill:#008000;stroke:#008000;" x="415.74913" xlink:href="#me3ab277440" y="448.330435"/>
     <use style="fill:#008000;stroke:#008000;" x="425.849757" xlink:href="#me3ab277440" y="448.527431"/>
     <use style="fill:#008000;stroke:#008000;" x="435.998361" xlink:href="#me3ab277440" y="448.725362"/>
     <use style="fill:#008000;stroke:#008000;" x="445.974404" xlink:href="#me3ab277440" y="448.919929"/>
     <use style="fill:#008000;stroke:#008000;" x="456.0139" xlink:href="#me3ab277440" y="449.115732"/>
     <use style="fill:#008000;stroke:#008000;" x="466.118396" xlink:href="#me3ab277440" y="449.312804"/>
     <use style="fill:#008000;stroke:#008000;" x="476.429502" xlink:href="#me3ab277440" y="449.513905"/>
     <use style="fill:#008000;stroke:#008000;" x="487.20954" xlink:href="#me3ab277440" y="449.724152"/>
     <use style="fill:#008000;stroke:#008000;" x="497.277667" xlink:href="#me3ab277440" y="449.920514"/>
     <use style="fill:#008000;stroke:#008000;" x="507.416212" xlink:href="#me3ab277440" y="450.118249"/>
     <use style="fill:#008000;stroke:#008000;" x="517.885176" xlink:href="#me3ab277440" y="450.322429"/>
     <use style="fill:#008000;stroke:#008000;" x="527.978839" xlink:href="#me3ab277440" y="450.519289"/>
     <use style="fill:#008000;stroke:#008000;" x="538.053156" xlink:href="#me3ab277440" y="450.715772"/>
     <use style="fill:#008000;stroke:#008000;" x="548.546109" xlink:href="#me3ab277440" y="450.92042"/>
     <use style="fill:#008000;stroke:#008000;" x="558.837869" xlink:href="#me3ab277440" y="451.121144"/>
     <use style="fill:#008000;stroke:#008000;" x="568.946234" xlink:href="#me3ab277440" y="451.318291"/>
     <use style="fill:#008000;stroke:#008000;" x="579.645795" xlink:href="#me3ab277440" y="451.526968"/>
     <use style="fill:#008000;stroke:#008000;" x="589.707732" xlink:href="#me3ab277440" y="451.723209"/>
     <use style="fill:#008000;stroke:#008000;" x="600.452175" xlink:href="#me3ab277440" y="451.932762"/>
     <use style="fill:#008000;stroke:#008000;" x="610.93971" xlink:href="#me3ab277440" y="452.137304"/>
     <use style="fill:#008000;stroke:#008000;" x="620.976111" xlink:href="#me3ab277440" y="452.333047"/>
     <use style="fill:#008000;stroke:#008000;" x="630.998583" xlink:href="#me3ab277440" y="452.528519"/>
     <use style="fill:#008000;stroke:#008000;" x="641.027245" xlink:href="#me3ab277440" y="452.724112"/>
     <use style="fill:#008000;stroke:#008000;" x="651.202159" xlink:href="#me3ab277440" y="452.922557"/>
     <use style="fill:#008000;stroke:#008000;" x="661.21225" xlink:href="#me3ab277440" y="453.117787"/>
     <use style="fill:#008000;stroke:#008000;" x="671.380199" xlink:href="#me3ab277440" y="453.316096"/>
     <use style="fill:#008000;stroke:#008000;" x="682.006248" xlink:href="#me3ab277440" y="453.523339"/>
     <use style="fill:#008000;stroke:#008000;" x="692.026398" xlink:href="#me3ab277440" y="453.718766"/>
     <use style="fill:#008000;stroke:#008000;" x="702.104585" xlink:href="#me3ab277440" y="453.915324"/>
     <use style="fill:#008000;stroke:#008000;" x="713.155459" xlink:href="#me3ab277440" y="454.130853"/>
     <use style="fill:#008000;stroke:#008000;" x="723.25686" xlink:href="#me3ab277440" y="454.327864"/>
     <use style="fill:#008000;stroke:#008000;" x="733.400821" xlink:href="#me3ab277440" y="454.525706"/>
     <use style="fill:#008000;stroke:#008000;" x="743.891452" xlink:href="#me3ab277440" y="454.730308"/>
     <use style="fill:#008000;stroke:#008000;" x="753.989758" xlink:href="#me3ab277440" y="454.927259"/>
     <use style="fill:#008000;stroke:#008000;" x="764.018421" xlink:href="#me3ab277440" y="455.122851"/>
     <use style="fill:#008000;stroke:#008000;" x="774.02619" xlink:href="#me3ab277440" y="455.318036"/>
     <use style="fill:#008000;stroke:#008000;" x="784.151579" xlink:href="#me3ab277440" y="455.515515"/>
     <use style="fill:#008000;stroke:#008000;" x="794.222802" xlink:href="#me3ab277440" y="455.711938"/>
     <use style="fill:#008000;stroke:#008000;" x="804.310274" xlink:href="#me3ab277440" y="455.908677"/>
     <use style="fill:#008000;stroke:#008000;" x="814.896858" xlink:href="#me3ab277440" y="456.115151"/>
     <use style="fill:#008000;stroke:#008000;" x="825.012188" xlink:href="#me3ab277440" y="456.312434"/>
     <use style="fill:#008000;stroke:#008000;" x="835.228888" xlink:href="#me3ab277440" y="456.511694"/>
     <use style="fill:#008000;stroke:#008000;" x="846.073927" xlink:href="#me3ab277440" y="456.723208"/>
     <use style="fill:#008000;stroke:#008000;" x="856.104911" xlink:href="#me3ab277440" y="456.918846"/>
     <use style="fill:#008000;stroke:#008000;" x="866.247324" xlink:href="#me3ab277440" y="457.116657"/>
     <use style="fill:#008000;stroke:#008000;" x="876.814563" xlink:href="#me3ab277440" y="457.322753"/>
     <use style="fill:#008000;stroke:#008000;" x="886.896619" xlink:href="#me3ab277440" y="457.519387"/>
     <use style="fill:#008000;stroke:#008000;" x="896.970163" xlink:href="#me3ab277440" y="457.715855"/>
     <use style="fill:#008000;stroke:#008000;" x="907.571449" xlink:href="#me3ab277440" y="457.922616"/>
     <use style="fill:#008000;stroke:#008000;" x="917.622552" xlink:href="#me3ab277440" y="458.118646"/>
     <use style="fill:#008000;stroke:#008000;" x="927.816811" xlink:href="#me3ab277440" y="458.317468"/>
     <use style="fill:#008000;stroke:#008000;" x="937.872557" xlink:href="#me3ab277440" y="458.513589"/>
     <use style="fill:#008000;stroke:#008000;" x="948.985337" xlink:href="#me3ab277440" y="458.730325"/>
     <use style="fill:#008000;stroke:#008000;" x="959.132393" xlink:href="#me3ab277440" y="458.928227"/>
     <use style="fill:#008000;stroke:#008000;" x="969.181949" xlink:href="#me3ab277440" y="459.124227"/>
     <use style="fill:#008000;stroke:#008000;" x="979.556507" xlink:href="#me3ab277440" y="459.326565"/>
     <use style="fill:#008000;stroke:#008000;" x="989.584396" xlink:href="#me3ab277440" y="459.522143"/>
     <use style="fill:#008000;stroke:#008000;" x="999.609963" xlink:href="#me3ab277440" y="459.717675"/>
     <use style="fill:#008000;stroke:#008000;" x="1009.747733" xlink:href="#me3ab277440" y="459.915395"/>
     <use style="fill:#008000;stroke:#008000;" x="1019.83598" xlink:href="#me3ab277440" y="460.11215"/>
     <use style="fill:#008000;stroke:#008000;" x="1029.902559" xlink:href="#me3ab277440" y="460.308482"/>
     <use style="fill:#008000;stroke:#008000;" x="1040.455869" xlink:href="#me3ab277440" y="460.514307"/>
     <use style="fill:#008000;stroke:#008000;" x="1050.461317" xlink:href="#me3ab277440" y="460.709446"/>
     <use style="fill:#008000;stroke:#008000;" x="1060.6401" xlink:href="#me3ab277440" y="460.907967"/>
     <use style="fill:#008000;stroke:#008000;" x="1070.70281" xlink:href="#me3ab277440" y="461.104223"/>
     <use style="fill:#008000;stroke:#008000;" x="1081.92315" xlink:href="#me3ab277440" y="461.323057"/>
     <use style="fill:#008000;stroke:#008000;" x="1092.004432" xlink:href="#me3ab277440" y="461.519676"/>
     <use style="fill:#008000;stroke:#008000;" x="1102.089583" xlink:href="#me3ab277440" y="461.71637"/>
     <use style="fill:#008000;stroke:#008000;" x="1112.288485" xlink:href="#me3ab277440" y="461.915283"/>
     <use style="fill:#008000;stroke:#008000;" x="1122.309409" xlink:href="#me3ab277440" y="462.110725"/>
     <use style="fill:#008000;stroke:#008000;" x="1132.543907" xlink:href="#me3ab277440" y="462.310331"/>
     <use style="fill:#008000;stroke:#008000;" x="1142.961025" xlink:href="#me3ab277440" y="462.5135"/>
     <use style="fill:#008000;stroke:#008000;" x="1153.010581" xlink:href="#me3ab277440" y="462.7095"/>
     <use style="fill:#008000;stroke:#008000;" x="1163.317817" xlink:href="#me3ab277440" y="462.910526"/>
     <use style="fill:#008000;stroke:#008000;" x="1173.685411" xlink:href="#me3ab277440" y="463.112728"/>
     <use style="fill:#008000;stroke:#008000;" x="1183.792229" xlink:href="#me3ab277440" y="463.309845"/>
     <use style="fill:#008000;stroke:#008000;" x="1194.654292" xlink:href="#me3ab277440" y="463.521692"/>
     <use style="fill:#008000;stroke:#008000;" x="1204.640394" xlink:href="#me3ab277440" y="463.716454"/>
     <use style="fill:#008000;stroke:#008000;" x="1214.498817" xlink:href="#me3ab277440" y="463.908726"/>
     <use style="fill:#008000;stroke:#008000;" x="1224.561527" xlink:href="#me3ab277440" y="464.104983"/>
     <use style="fill:#008000;stroke:#008000;" x="1234.839359" xlink:href="#me3ab277440" y="464.305435"/>
     <use style="fill:#008000;stroke:#008000;" x="1245.272727" xlink:href="#me3ab277440" y="464.508921"/>
    </g>
   </g>
   <g id="patch_3">
    <path d="M 180 512.64 
L 180 69.12 
" style="fill:none;stroke:#000000;stroke-linecap:square;stroke-linejoin:miter;stroke-width:0.8;"/>
   </g>
   <g id="patch_4">
    <path d="M 1296 512.64 
L 1296 69.12 
" style="fill:none;stroke:#000000;stroke-linecap:square;stroke-linejoin:miter;stroke-width:0.8;"/>
   </g>
   <g id="patch_5">
    <path d="M 180 512.64 
L 1296 512.64 
" style="fill:none;stroke:#000000;stroke-linecap:square;stroke-linejoin:miter;stroke-width:0.8;"/>
   </g>
   <g id="patch_6">
    <path d="M 180 69.12 
L 1296 69.12 
" style="fill:none;stroke:#000000;stroke-linecap:square;stroke-linejoin:miter;stroke-width:0.8;"/>
   </g>
   <g id="text_13">
    <!-- 500000.0 bit/s -->
    <defs>
     <path d="M 10.796875 72.90625 
L 49.515625 72.90625 
L 49.515625 64.59375 
L 19.828125 64.59375 
L 19.828125 46.734375 
Q 21.96875 47.46875 24.109375 47.828125 
Q 26.265625 48.1875 28.421875 48.1875 
Q 40.625 48.1875 47.75 41.5 
Q 54.890625 34.8125 54.890625 23.390625 
Q 54.890625 11.625 47.5625 5.09375 
Q 40.234375 -1.421875 26.90625 -1.421875 
Q 22.3125 -1.421875 17.546875 -0.640625 
Q 12.796875 0.140625 7.71875 1.703125 
L 7.71875 11.625 
Q 12.109375 9.234375 16.796875 8.0625 
Q 21.484375 6.890625 26.703125 6.890625 
Q 35.15625 6.890625 40.078125 11.328125 
Q 45.015625 15.765625 45.015625 23.390625 
Q 45.015625 31 40.078125 35.4375 
Q 35.15625 39.890625 26.703125 39.890625 
Q 22.75 39.890625 18.8125 39.015625 
Q 14.890625 38.140625 10.796875 36.28125 
z
" id="DejaVuSans-35"/>
     <path id="DejaVuSans-20"/>
     <path d="M 48.6875 27.296875 
Q 48.6875 37.203125 44.609375 42.84375 
Q 40.53125 48.484375 33.40625 48.484375 
Q 26.265625 48.484375 22.1875 42.84375 
Q 18.109375 37.203125 18.109375 27.296875 
Q 18.109375 17.390625 22.1875 11.75 
Q 26.265625 6.109375 33.40625 6.109375 
Q 40.53125 6.109375 44.609375 11.75 
Q 48.6875 17.390625 48.6875 27.296875 
z
M 18.109375 46.390625 
Q 20.953125 51.265625 25.265625 53.625 
Q 29.59375 56 35.59375 56 
Q 45.5625 56 51.78125 48.09375 
Q 58.015625 40.1875 58.015625 27.296875 
Q 58.015625 14.40625 51.78125 6.484375 
Q 45.5625 -1.421875 35.59375 -1.421875 
Q 29.59375 -1.421875 25.265625 0.953125 
Q 20.953125 3.328125 18.109375 8.203125 
L 18.109375 0 
L 9.078125 0 
L 9.078125 75.984375 
L 18.109375 75.984375 
z
" id="DejaVuSans-62"/>
     <path d="M 9.421875 54.6875 
L 18.40625 54.6875 
L 18.40625 0 
L 9.421875 0 
z
M 9.421875 75.984375 
L 18.40625 75.984375 
L 18.40625 64.59375 
L 9.421875 64.59375 
z
" id="DejaVuSans-69"/>
     <path d="M 18.3125 70.21875 
L 18.3125 54.6875 
L 36.8125 54.6875 
L 36.8125 47.703125 
L 18.3125 47.703125 
L 18.3125 18.015625 
Q 18.3125 11.328125 20.140625 9.421875 
Q 21.96875 7.515625 27.59375 7.515625 
L 36.8125 7.515625 
L 36.8125 0 
L 27.59375 0 
Q 17.1875 0 13.234375 3.875 
Q 9.28125 7.765625 9.28125 18.015625 
L 9.28125 47.703125 
L 2.6875 47.703125 
L 2.6875 54.6875 
L 9.28125 54.6875 
L 9.28125 70.21875 
z
" id="DejaVuSans-74"/>
     <path d="M 25.390625 72.90625 
L 33.6875 72.90625 
L 8.296875 -9.28125 
L 0 -9.28125 
z
" id="DejaVuSans-2f"/>
     <path d="M 44.28125 53.078125 
L 44.28125 44.578125 
Q 40.484375 46.53125 36.375 47.5 
Q 32.28125 48.484375 27.875 48.484375 
Q 21.1875 48.484375 17.84375 46.4375 
Q 14.5 44.390625 14.5 40.28125 
Q 14.5 37.15625 16.890625 35.375 
Q 19.28125 33.59375 26.515625 31.984375 
L 29.59375 31.296875 
Q 39.15625 29.25 43.1875 25.515625 
Q 47.21875 21.78125 47.21875 15.09375 
Q 47.21875 7.46875 41.1875 3.015625 
Q 35.15625 -1.421875 24.609375 -1.421875 
Q 20.21875 -1.421875 15.453125 -0.5625 
Q 10.6875 0.296875 5.421875 2 
L 5.421875 11.28125 
Q 10.40625 8.6875 15.234375 7.390625 
Q 20.0625 6.109375 24.8125 6.109375 
Q 31.15625 6.109375 34.5625 8.28125 
Q 37.984375 10.453125 37.984375 14.40625 
Q 37.984375 18.0625 35.515625 20.015625 
Q 33.0625 21.96875 24.703125 23.78125 
L 21.578125 24.515625 
Q 13.234375 26.265625 9.515625 29.90625 
Q 5.8125 33.546875 5.8125 39.890625 
Q 5.8125 47.609375 11.28125 51.796875 
Q 16.75 56 26.8125 56 
Q 31.78125 56 36.171875 55.265625 
Q 40.578125 54.546875 44.28125 53.078125 
z
" id="DejaVuSans-73"/>
    </defs>
    <g transform="translate(694.48875 63.12)scale(0.12 -0.12)">
     <use xlink:href="#DejaVuSans-35"/>
     <use x="63.623047" xlink:href="#DejaVuSans-30"/>
     <use x="127.246094" xlink:href="#DejaVuSans-30"/>
     <use x="190.869141" xlink:href="#DejaVuSans-30"/>
     <use x="254.492188" xlink:href="#DejaVuSans-30"/>
     <use x="318.115234" xlink:href="#DejaVuSans-30"/>
     <use x="381.738281" xlink:href="#DejaVuSans-2e"/>
     <use x="413.525391" xlink:href="#DejaVuSans-30"/>
     <use x="477.148438" xlink:href="#DejaVuSans-20"/>
     <use x="508.935547" xlink:href="#DejaVuSans-62"/>
     <use x="572.412109" xlink:href="#DejaVuSans-69"/>
     <use x="600.195312" xlink:href="#DejaVuSans-74"/>
     <use x="639.404297" xlink:href="#DejaVuSans-2f"/>
     <use x="673.095703" xlink:href="#DejaVuSans-73"/>
    </g>
   </g>
   <g id="legend_1">
    <g id="patch_7">
     <path d="M 1173.520313 135.8325 
L 1289 135.8325 
Q 1291 135.8325 1291 133.8325 
L 1291 76.12 
Q 1291 74.12 1289 74.12 
L 1173.520313 74.12 
Q 1171.520313 74.12 1171.520313 76.12 
L 1171.520313 133.8325 
Q 1171.520313 135.8325 1173.520313 135.8325 
z
" style="fill:#ffffff;opacity:0.8;stroke:#cccccc;stroke-linejoin:miter;"/>
    </g>
    <g id="line2d_17">
     <path d="M 1175.520313 82.218437 
L 1195.520313 82.218437 
" style="fill:none;stroke:#ff0000;stroke-dasharray:5.55,2.4;stroke-dashoffset:0;stroke-width:1.5;"/>
    </g>
    <g id="line2d_18">
     <g>
      <use style="fill:#ff0000;stroke:#ff0000;stroke-linejoin:miter;" x="1185.520313" xlink:href="#md59cef229b" y="82.218437"/>
     </g>
    </g>
    <g id="text_14">
     <!-- tcpdump -->
     <defs>
      <path d="M 48.78125 52.59375 
L 48.78125 44.1875 
Q 44.96875 46.296875 41.140625 47.34375 
Q 37.3125 48.390625 33.40625 48.390625 
Q 24.65625 48.390625 19.8125 42.84375 
Q 14.984375 37.3125 14.984375 27.296875 
Q 14.984375 17.28125 19.8125 11.734375 
Q 24.65625 6.203125 33.40625 6.203125 
Q 37.3125 6.203125 41.140625 7.25 
Q 44.96875 8.296875 48.78125 10.40625 
L 48.78125 2.09375 
Q 45.015625 0.34375 40.984375 -0.53125 
Q 36.96875 -1.421875 32.421875 -1.421875 
Q 20.0625 -1.421875 12.78125 6.34375 
Q 5.515625 14.109375 5.515625 27.296875 
Q 5.515625 40.671875 12.859375 48.328125 
Q 20.21875 56 33.015625 56 
Q 37.15625 56 41.109375 55.140625 
Q 45.0625 54.296875 48.78125 52.59375 
z
" id="DejaVuSans-63"/>
      <path d="M 18.109375 8.203125 
L 18.109375 -20.796875 
L 9.078125 -20.796875 
L 9.078125 54.6875 
L 18.109375 54.6875 
L 18.109375 46.390625 
Q 20.953125 51.265625 25.265625 53.625 
Q 29.59375 56 35.59375 56 
Q 45.5625 56 51.78125 48.09375 
Q 58.015625 40.1875 58.015625 27.296875 
Q 58.015625 14.40625 51.78125 6.484375 
Q 45.5625 -1.421875 35.59375 -1.421875 
Q 29.59375 -1.421875 25.265625 0.953125 
Q 20.953125 3.328125 18.109375 8.203125 
z
M 48.6875 27.296875 
Q 48.6875 37.203125 44.609375 42.84375 
Q 40.53125 48.484375 33.40625 48.484375 
Q 26.265625 48.484375 22.1875 42.84375 
Q 18.109375 37.203125 18.109375 27.296875 
Q 18.109375 17.390625 22.1875 11.75 
Q 26.265625 6.109375 33.40625 6.109375 
Q 40.53125 6.109375 44.609375 11.75 
Q 48.6875 17.390625 48.6875 27.296875 
z
" id="DejaVuSans-70"/>
      <path d="M 45.40625 46.390625 
L 45.40625 75.984375 
L 54.390625 75.984375 
L 54.390625 0 
L 45.40625 0 
L 45.40625 8.203125 
Q 42.578125 3.328125 38.25 0.953125 
Q 33.9375 -1.421875 27.875 -1.421875 
Q 17.96875 -1.421875 11.734375 6.484375 
Q 5.515625 14.40625 5.515625 27.296875 
Q 5.515625 40.1875 11.734375 48.09375 
Q 17.96875 56 27.875 56 
Q 33.9375 56 38.25 53.625 
Q 42.578125 51.265625 45.40625 46.390625 
z
M 14.796875 27.296875 
Q 14.796875 17.390625 18.875 11.75 
Q 22.953125 6.109375 30.078125 6.109375 
Q 37.203125 6.109375 41.296875 11.75 
Q 45.40625 17.390625 45.40625 27.296875 
Q 45.40625 37.203125 41.296875 42.84375 
Q 37.203125 48.484375 30.078125 48.484375 
Q 22.953125 48.484375 18.875 42.84375 
Q 14.796875 37.203125 14.796875 27.296875 
z
" id="DejaVuSans-64"/>
      <path d="M 8.5 21.578125 
L 8.5 54.6875 
L 17.484375 54.6875 
L 17.484375 21.921875 
Q 17.484375 14.15625 20.5 10.265625 
Q 23.53125 6.390625 29.59375 6.390625 
Q 36.859375 6.390625 41.078125 11.03125 
Q 45.3125 15.671875 45.3125 23.6875 
L 45.3125 54.6875 
L 54.296875 54.6875 
L 54.296875 0 
L 45.3125 0 
L 45.3125 8.40625 
Q 42.046875 3.421875 37.71875 1 
Q 33.40625 -1.421875 27.6875 -1.421875 
Q 18.265625 -1.421875 13.375 4.4375 
Q 8.5 10.296875 8.5 21.578125 
z
M 31.109375 56 
z
" id="DejaVuSans-75"/>
      <path d="M 52 44.1875 
Q 55.375 50.25 60.0625 53.125 
Q 64.75 56 71.09375 56 
Q 79.640625 56 84.28125 50.015625 
Q 88.921875 44.046875 88.921875 33.015625 
L 88.921875 0 
L 79.890625 0 
L 79.890625 32.71875 
Q 79.890625 40.578125 77.09375 44.375 
Q 74.3125 48.1875 68.609375 48.1875 
Q 61.625 48.1875 57.5625 43.546875 
Q 53.515625 38.921875 53.515625 30.90625 
L 53.515625 0 
L 44.484375 0 
L 44.484375 32.71875 
Q 44.484375 40.625 41.703125 44.40625 
Q 38.921875 48.1875 33.109375 48.1875 
Q 26.21875 48.1875 22.15625 43.53125 
Q 18.109375 38.875 18.109375 30.90625 
L 18.109375 0 
L 9.078125 0 
L 9.078125 54.6875 
L 18.109375 54.6875 
L 18.109375 46.1875 
Q 21.1875 51.21875 25.484375 53.609375 
Q 29.78125 56 35.6875 56 
Q 41.65625 56 45.828125 52.96875 
Q 50 49.953125 52 44.1875 
z
" id="DejaVuSans-6d"/>
     </defs>
     <g transform="translate(1203.520313 85.718437)scale(0.1 -0.1)">
      <use xlink:href="#DejaVuSans-74"/>
      <use x="39.208984" xlink:href="#DejaVuSans-63"/>
      <use x="94.189453" xlink:href="#DejaVuSans-70"/>
      <use x="157.666016" xlink:href="#DejaVuSans-64"/>
      <use x="221.142578" xlink:href="#DejaVuSans-75"/>
      <use x="284.521484" xlink:href="#DejaVuSans-6d"/>
      <use x="381.933594" xlink:href="#DejaVuSans-70"/>
     </g>
    </g>
    <g id="line2d_19">
     <path d="M 1175.520313 96.896563 
L 1195.520313 96.896563 
" style="fill:none;stroke:#800080;stroke-dasharray:9.6,2.4,1.5,2.4;stroke-dashoffset:0;stroke-width:1.5;"/>
    </g>
    <g id="line2d_20">
     <g>
      <use style="fill:#800080;stroke:#800080;" x="1185.520313" xlink:href="#m0c52b8b189" y="96.896563"/>
     </g>
    </g>
    <g id="text_15">
     <!-- filtered tcpdump -->
     <defs>
      <path d="M 37.109375 75.984375 
L 37.109375 68.5 
L 28.515625 68.5 
Q 23.6875 68.5 21.796875 66.546875 
Q 19.921875 64.59375 19.921875 59.515625 
L 19.921875 54.6875 
L 34.71875 54.6875 
L 34.71875 47.703125 
L 19.921875 47.703125 
L 19.921875 0 
L 10.890625 0 
L 10.890625 47.703125 
L 2.296875 47.703125 
L 2.296875 54.6875 
L 10.890625 54.6875 
L 10.890625 58.5 
Q 10.890625 67.625 15.140625 71.796875 
Q 19.390625 75.984375 28.609375 75.984375 
z
" id="DejaVuSans-66"/>
      <path d="M 9.421875 75.984375 
L 18.40625 75.984375 
L 18.40625 0 
L 9.421875 0 
z
" id="DejaVuSans-6c"/>
      <path d="M 56.203125 29.59375 
L 56.203125 25.203125 
L 14.890625 25.203125 
Q 15.484375 15.921875 20.484375 11.0625 
Q 25.484375 6.203125 34.421875 6.203125 
Q 39.59375 6.203125 44.453125 7.46875 
Q 49.3125 8.734375 54.109375 11.28125 
L 54.109375 2.78125 
Q 49.265625 0.734375 44.1875 -0.34375 
Q 39.109375 -1.421875 33.890625 -1.421875 
Q 20.796875 -1.421875 13.15625 6.1875 
Q 5.515625 13.8125 5.515625 26.8125 
Q 5.515625 40.234375 12.765625 48.109375 
Q 20.015625 56 32.328125 56 
Q 43.359375 56 49.78125 48.890625 
Q 56.203125 41.796875 56.203125 29.59375 
z
M 47.21875 32.234375 
Q 47.125 39.59375 43.09375 43.984375 
Q 39.0625 48.390625 32.421875 48.390625 
Q 24.90625 48.390625 20.390625 44.140625 
Q 15.875 39.890625 15.1875 32.171875 
z
" id="DejaVuSans-65"/>
      <path d="M 41.109375 46.296875 
Q 39.59375 47.171875 37.8125 47.578125 
Q 36.03125 48 33.890625 48 
Q 26.265625 48 22.1875 43.046875 
Q 18.109375 38.09375 18.109375 28.8125 
L 18.109375 0 
L 9.078125 0 
L 9.078125 54.6875 
L 18.109375 54.6875 
L 18.109375 46.1875 
Q 20.953125 51.171875 25.484375 53.578125 
Q 30.03125 56 36.53125 56 
Q 37.453125 56 38.578125 55.875 
Q 39.703125 55.765625 41.0625 55.515625 
z
" id="DejaVuSans-72"/>
     </defs>
     <g transform="translate(1203.520313 100.396563)scale(0.1 -0.1)">
      <use xlink:href="#DejaVuSans-66"/>
      <use x="35.205078" xlink:href="#DejaVuSans-69"/>
      <use x="62.988281" xlink:href="#DejaVuSans-6c"/>
      <use x="90.771484" xlink:href="#DejaVuSans-74"/>
      <use x="129.980469" xlink:href="#DejaVuSans-65"/>
      <use x="191.503906" xlink:href="#DejaVuSans-72"/>
      <use x="232.585938" xlink:href="#DejaVuSans-65"/>
      <use x="294.109375" xlink:href="#DejaVuSans-64"/>
      <use x="357.585938" xlink:href="#DejaVuSans-20"/>
      <use x="389.373047" xlink:href="#DejaVuSans-74"/>
      <use x="428.582031" xlink:href="#DejaVuSans-63"/>
      <use x="483.5625" xlink:href="#DejaVuSans-70"/>
      <use x="547.039062" xlink:href="#DejaVuSans-64"/>
      <use x="610.515625" xlink:href="#DejaVuSans-75"/>
      <use x="673.894531" xlink:href="#DejaVuSans-6d"/>
      <use x="771.306641" xlink:href="#DejaVuSans-70"/>
     </g>
    </g>
    <g id="line2d_21">
     <path d="M 1175.520313 111.574687 
L 1195.520313 111.574687 
" style="fill:none;stroke:#0000ff;stroke-linecap:square;stroke-width:1.5;"/>
    </g>
    <g id="line2d_22"/>
    <g id="text_16">
     <!-- OLS -->
     <defs>
      <path d="M 39.40625 66.21875 
Q 28.65625 66.21875 22.328125 58.203125 
Q 16.015625 50.203125 16.015625 36.375 
Q 16.015625 22.609375 22.328125 14.59375 
Q 28.65625 6.59375 39.40625 6.59375 
Q 50.140625 6.59375 56.421875 14.59375 
Q 62.703125 22.609375 62.703125 36.375 
Q 62.703125 50.203125 56.421875 58.203125 
Q 50.140625 66.21875 39.40625 66.21875 
z
M 39.40625 74.21875 
Q 54.734375 74.21875 63.90625 63.9375 
Q 73.09375 53.65625 73.09375 36.375 
Q 73.09375 19.140625 63.90625 8.859375 
Q 54.734375 -1.421875 39.40625 -1.421875 
Q 24.03125 -1.421875 14.8125 8.828125 
Q 5.609375 19.09375 5.609375 36.375 
Q 5.609375 53.65625 14.8125 63.9375 
Q 24.03125 74.21875 39.40625 74.21875 
z
" id="DejaVuSans-4f"/>
      <path d="M 9.8125 72.90625 
L 19.671875 72.90625 
L 19.671875 8.296875 
L 55.171875 8.296875 
L 55.171875 0 
L 9.8125 0 
z
" id="DejaVuSans-4c"/>
      <path d="M 53.515625 70.515625 
L 53.515625 60.890625 
Q 47.90625 63.578125 42.921875 64.890625 
Q 37.9375 66.21875 33.296875 66.21875 
Q 25.25 66.21875 20.875 63.09375 
Q 16.5 59.96875 16.5 54.203125 
Q 16.5 49.359375 19.40625 46.890625 
Q 22.3125 44.4375 30.421875 42.921875 
L 36.375 41.703125 
Q 47.40625 39.59375 52.65625 34.296875 
Q 57.90625 29 57.90625 20.125 
Q 57.90625 9.515625 50.796875 4.046875 
Q 43.703125 -1.421875 29.984375 -1.421875 
Q 24.8125 -1.421875 18.96875 -0.25 
Q 13.140625 0.921875 6.890625 3.21875 
L 6.890625 13.375 
Q 12.890625 10.015625 18.65625 8.296875 
Q 24.421875 6.59375 29.984375 6.59375 
Q 38.421875 6.59375 43.015625 9.90625 
Q 47.609375 13.234375 47.609375 19.390625 
Q 47.609375 24.75 44.3125 27.78125 
Q 41.015625 30.8125 33.5 32.328125 
L 27.484375 33.5 
Q 16.453125 35.6875 11.515625 40.375 
Q 6.59375 45.0625 6.59375 53.421875 
Q 6.59375 63.09375 13.40625 68.65625 
Q 20.21875 74.21875 32.171875 74.21875 
Q 37.3125 74.21875 42.625 73.28125 
Q 47.953125 72.359375 53.515625 70.515625 
z
" id="DejaVuSans-53"/>
     </defs>
     <g transform="translate(1203.520313 115.074687)scale(0.1 -0.1)">
      <use xlink:href="#DejaVuSans-4f"/>
      <use x="78.710938" xlink:href="#DejaVuSans-4c"/>
      <use x="134.423828" xlink:href="#DejaVuSans-53"/>
     </g>
    </g>
    <g id="line2d_23">
     <path d="M 1175.520313 126.252813 
L 1195.520313 126.252813 
" style="fill:none;stroke:#008000;stroke-linecap:square;stroke-width:1.5;"/>
    </g>
    <g id="line2d_24">
     <g>
      <use style="fill:#008000;stroke:#008000;" x="1185.520313" xlink:href="#me3ab277440" y="126.252813"/>
     </g>
    </g>
    <g id="text_17">
     <!-- IRLS -->
     <defs>
      <path d="M 9.8125 72.90625 
L 19.671875 72.90625 
L 19.671875 0 
L 9.8125 0 
z
" id="DejaVuSans-49"/>
      <path d="M 44.390625 34.1875 
Q 47.5625 33.109375 50.5625 29.59375 
Q 53.5625 26.078125 56.59375 19.921875 
L 66.609375 0 
L 56 0 
L 46.6875 18.703125 
Q 43.0625 26.03125 39.671875 28.421875 
Q 36.28125 30.8125 30.421875 30.8125 
L 19.671875 30.8125 
L 19.671875 0 
L 9.8125 0 
L 9.8125 72.90625 
L 32.078125 72.90625 
Q 44.578125 72.90625 50.734375 67.671875 
Q 56.890625 62.453125 56.890625 51.90625 
Q 56.890625 45.015625 53.6875 40.46875 
Q 50.484375 35.9375 44.390625 34.1875 
z
M 19.671875 64.796875 
L 19.671875 38.921875 
L 32.078125 38.921875 
Q 39.203125 38.921875 42.84375 42.21875 
Q 46.484375 45.515625 46.484375 51.90625 
Q 46.484375 58.296875 42.84375 61.546875 
Q 39.203125 64.796875 32.078125 64.796875 
z
" id="DejaVuSans-52"/>
     </defs>
     <g transform="translate(1203.520313 129.752813)scale(0.1 -0.1)">
      <use xlink:href="#DejaVuSans-49"/>
      <use x="29.492188" xlink:href="#DejaVuSans-52"/>
      <use x="98.974609" xlink:href="#DejaVuSans-4c"/>
      <use x="154.6875" xlink:href="#DejaVuSans-53"/>
     </g>
    </g>
   </g>
  </g>
 </g>
 <defs>
  <clipPath id="p4ee45ea865">
   <rect height="443.52" width="1116" x="180" y="69.12"/>
  </clipPath>
 </defs>
</svg>
