<?xml version="1.0" encoding="utf-8" standalone="no"?>
<!DOCTYPE svg PUBLIC "-//W3C//DTD SVG 1.1//EN"
  "http://www.w3.org/Graphics/SVG/1.1/DTD/svg11.dtd">
<!-- Created with matplotlib (http://matplotlib.org/) -->
<svg height="345.6pt" version="1.1" viewBox="0 0 460.8 345.6" width="460.8pt" xmlns="http://www.w3.org/2000/svg" xmlns:xlink="http://www.w3.org/1999/xlink">
 <defs>
  <style type="text/css">
*{stroke-linecap:butt;stroke-linejoin:round;}
  </style>
 </defs>
 <g id="figure_1">
  <g id="patch_1">
   <path d="M 0 345.6 
L 460.8 345.6 
L 460.8 0 
L 0 0 
z
" style="fill:#ffffff;"/>
  </g>
  <g id="axes_1">
   <g id="patch_2">
    <path d="M 57.6 307.584 
L 414.72 307.584 
L 414.72 41.472 
L 57.6 41.472 
z
" style="fill:#ffffff;"/>
   </g>
   <g id="matplotlib.axis_1">
    <g id="xtick_1">
     <g id="line2d_1">
      <defs>
       <path d="M 0 0 
L 0 3.5 
" id="m339cdb99c8" style="stroke:#000000;stroke-width:0.8;"/>
      </defs>
      <g>
       <use style="stroke:#000000;stroke-width:0.8;" x="73.832727" xlink:href="#m339cdb99c8" y="307.584"/>
      </g>
     </g>
     <g id="text_1">
      <!-- 0.0 -->
      <defs>
       <path d="M 31.78125 66.40625 
Q 24.171875 66.40625 20.328125 58.90625 
Q 16.5 51.421875 16.5 36.375 
Q 16.5 21.390625 20.328125 13.890625 
Q 24.171875 6.390625 31.78125 6.390625 
Q 39.453125 6.390625 43.28125 13.890625 
Q 47.125 21.390625 47.125 36.375 
Q 47.125 51.421875 43.28125 58.90625 
Q 39.453125 66.40625 31.78125 66.40625 
z
M 31.78125 74.21875 
Q 44.046875 74.21875 50.515625 64.515625 
Q 56.984375 54.828125 56.984375 36.375 
Q 56.984375 17.96875 50.515625 8.265625 
Q 44.046875 -1.421875 31.78125 -1.421875 
Q 19.53125 -1.421875 13.0625 8.265625 
Q 6.59375 17.96875 6.59375 36.375 
Q 6.59375 54.828125 13.0625 64.515625 
Q 19.53125 74.21875 31.78125 74.21875 
z
" id="DejaVuSans-30"/>
       <path d="M 10.6875 12.40625 
L 21 12.40625 
L 21 0 
L 10.6875 0 
z
" id="DejaVuSans-2e"/>
      </defs>
      <g transform="translate(65.881165 322.182437)scale(0.1 -0.1)">
       <use xlink:href="#DejaVuSans-30"/>
       <use x="63.623047" xlink:href="#DejaVuSans-2e"/>
       <use x="95.410156" xlink:href="#DejaVuSans-30"/>
      </g>
     </g>
    </g>
    <g id="xtick_2">
     <g id="line2d_2">
      <g>
       <use style="stroke:#000000;stroke-width:0.8;" x="130.510403" xlink:href="#m339cdb99c8" y="307.584"/>
      </g>
     </g>
     <g id="text_2">
      <!-- 0.2 -->
      <defs>
       <path d="M 19.1875 8.296875 
L 53.609375 8.296875 
L 53.609375 0 
L 7.328125 0 
L 7.328125 8.296875 
Q 12.9375 14.109375 22.625 23.890625 
Q 32.328125 33.6875 34.8125 36.53125 
Q 39.546875 41.84375 41.421875 45.53125 
Q 43.3125 49.21875 43.3125 52.78125 
Q 43.3125 58.59375 39.234375 62.25 
Q 35.15625 65.921875 28.609375 65.921875 
Q 23.96875 65.921875 18.8125 64.3125 
Q 13.671875 62.703125 7.8125 59.421875 
L 7.8125 69.390625 
Q 13.765625 71.78125 18.9375 73 
Q 24.125 74.21875 28.421875 74.21875 
Q 39.75 74.21875 46.484375 68.546875 
Q 53.21875 62.890625 53.21875 53.421875 
Q 53.21875 48.921875 51.53125 44.890625 
Q 49.859375 40.875 45.40625 35.40625 
Q 44.1875 33.984375 37.640625 27.21875 
Q 31.109375 20.453125 19.1875 8.296875 
z
" id="DejaVuSans-32"/>
      </defs>
      <g transform="translate(122.55884 322.182437)scale(0.1 -0.1)">
       <use xlink:href="#DejaVuSans-30"/>
       <use x="63.623047" xlink:href="#DejaVuSans-2e"/>
       <use x="95.410156" xlink:href="#DejaVuSans-32"/>
      </g>
     </g>
    </g>
    <g id="xtick_3">
     <g id="line2d_3">
      <g>
       <use style="stroke:#000000;stroke-width:0.8;" x="187.188078" xlink:href="#m339cdb99c8" y="307.584"/>
      </g>
     </g>
     <g id="text_3">
      <!-- 0.4 -->
      <defs>
       <path d="M 37.796875 64.3125 
L 12.890625 25.390625 
L 37.796875 25.390625 
z
M 35.203125 72.90625 
L 47.609375 72.90625 
L 47.609375 25.390625 
L 58.015625 25.390625 
L 58.015625 17.1875 
L 47.609375 17.1875 
L 47.609375 0 
L 37.796875 0 
L 37.796875 17.1875 
L 4.890625 17.1875 
L 4.890625 26.703125 
z
" id="DejaVuSans-34"/>
      </defs>
      <g transform="translate(179.236516 322.182437)scale(0.1 -0.1)">
       <use xlink:href="#DejaVuSans-30"/>
       <use x="63.623047" xlink:href="#DejaVuSans-2e"/>
       <use x="95.410156" xlink:href="#DejaVuSans-34"/>
      </g>
     </g>
    </g>
    <g id="xtick_4">
     <g id="line2d_4">
      <g>
       <use style="stroke:#000000;stroke-width:0.8;" x="243.865754" xlink:href="#m339cdb99c8" y="307.584"/>
      </g>
     </g>
     <g id="text_4">
      <!-- 0.6 -->
      <defs>
       <path d="M 33.015625 40.375 
Q 26.375 40.375 22.484375 35.828125 
Q 18.609375 31.296875 18.609375 23.390625 
Q 18.609375 15.53125 22.484375 10.953125 
Q 26.375 6.390625 33.015625 6.390625 
Q 39.65625 6.390625 43.53125 10.953125 
Q 47.40625 15.53125 47.40625 23.390625 
Q 47.40625 31.296875 43.53125 35.828125 
Q 39.65625 40.375 33.015625 40.375 
z
M 52.59375 71.296875 
L 52.59375 62.3125 
Q 48.875 64.0625 45.09375 64.984375 
Q 41.3125 65.921875 37.59375 65.921875 
Q 27.828125 65.921875 22.671875 59.328125 
Q 17.53125 52.734375 16.796875 39.40625 
Q 19.671875 43.65625 24.015625 45.921875 
Q 28.375 48.1875 33.59375 48.1875 
Q 44.578125 48.1875 50.953125 41.515625 
Q 57.328125 34.859375 57.328125 23.390625 
Q 57.328125 12.15625 50.6875 5.359375 
Q 44.046875 -1.421875 33.015625 -1.421875 
Q 20.359375 -1.421875 13.671875 8.265625 
Q 6.984375 17.96875 6.984375 36.375 
Q 6.984375 53.65625 15.1875 63.9375 
Q 23.390625 74.21875 37.203125 74.21875 
Q 40.921875 74.21875 44.703125 73.484375 
Q 48.484375 72.75 52.59375 71.296875 
z
" id="DejaVuSans-36"/>
      </defs>
      <g transform="translate(235.914191 322.182437)scale(0.1 -0.1)">
       <use xlink:href="#DejaVuSans-30"/>
       <use x="63.623047" xlink:href="#DejaVuSans-2e"/>
       <use x="95.410156" xlink:href="#DejaVuSans-36"/>
      </g>
     </g>
    </g>
    <g id="xtick_5">
     <g id="line2d_5">
      <g>
       <use style="stroke:#000000;stroke-width:0.8;" x="300.543429" xlink:href="#m339cdb99c8" y="307.584"/>
      </g>
     </g>
     <g id="text_5">
      <!-- 0.8 -->
      <defs>
       <path d="M 31.78125 34.625 
Q 24.75 34.625 20.71875 30.859375 
Q 16.703125 27.09375 16.703125 20.515625 
Q 16.703125 13.921875 20.71875 10.15625 
Q 24.75 6.390625 31.78125 6.390625 
Q 38.8125 6.390625 42.859375 10.171875 
Q 46.921875 13.96875 46.921875 20.515625 
Q 46.921875 27.09375 42.890625 30.859375 
Q 38.875 34.625 31.78125 34.625 
z
M 21.921875 38.8125 
Q 15.578125 40.375 12.03125 44.71875 
Q 8.5 49.078125 8.5 55.328125 
Q 8.5 64.0625 14.71875 69.140625 
Q 20.953125 74.21875 31.78125 74.21875 
Q 42.671875 74.21875 48.875 69.140625 
Q 55.078125 64.0625 55.078125 55.328125 
Q 55.078125 49.078125 51.53125 44.71875 
Q 48 40.375 41.703125 38.8125 
Q 48.828125 37.15625 52.796875 32.3125 
Q 56.78125 27.484375 56.78125 20.515625 
Q 56.78125 9.90625 50.3125 4.234375 
Q 43.84375 -1.421875 31.78125 -1.421875 
Q 19.734375 -1.421875 13.25 4.234375 
Q 6.78125 9.90625 6.78125 20.515625 
Q 6.78125 27.484375 10.78125 32.3125 
Q 14.796875 37.15625 21.921875 38.8125 
z
M 18.3125 54.390625 
Q 18.3125 48.734375 21.84375 45.5625 
Q 25.390625 42.390625 31.78125 42.390625 
Q 38.140625 42.390625 41.71875 45.5625 
Q 45.3125 48.734375 45.3125 54.390625 
Q 45.3125 60.0625 41.71875 63.234375 
Q 38.140625 66.40625 31.78125 66.40625 
Q 25.390625 66.40625 21.84375 63.234375 
Q 18.3125 60.0625 18.3125 54.390625 
z
" id="DejaVuSans-38"/>
      </defs>
      <g transform="translate(292.591867 322.182437)scale(0.1 -0.1)">
       <use xlink:href="#DejaVuSans-30"/>
       <use x="63.623047" xlink:href="#DejaVuSans-2e"/>
       <use x="95.410156" xlink:href="#DejaVuSans-38"/>
      </g>
     </g>
    </g>
    <g id="xtick_6">
     <g id="line2d_6">
      <g>
       <use style="stroke:#000000;stroke-width:0.8;" x="357.221105" xlink:href="#m339cdb99c8" y="307.584"/>
      </g>
     </g>
     <g id="text_6">
      <!-- 1.0 -->
      <defs>
       <path d="M 12.40625 8.296875 
L 28.515625 8.296875 
L 28.515625 63.921875 
L 10.984375 60.40625 
L 10.984375 69.390625 
L 28.421875 72.90625 
L 38.28125 72.90625 
L 38.28125 8.296875 
L 54.390625 8.296875 
L 54.390625 0 
L 12.40625 0 
z
" id="DejaVuSans-31"/>
      </defs>
      <g transform="translate(349.269543 322.182437)scale(0.1 -0.1)">
       <use xlink:href="#DejaVuSans-31"/>
       <use x="63.623047" xlink:href="#DejaVuSans-2e"/>
       <use x="95.410156" xlink:href="#DejaVuSans-30"/>
      </g>
     </g>
    </g>
    <g id="xtick_7">
     <g id="line2d_7">
      <g>
       <use style="stroke:#000000;stroke-width:0.8;" x="413.898781" xlink:href="#m339cdb99c8" y="307.584"/>
      </g>
     </g>
     <g id="text_7">
      <!-- 1.2 -->
      <g transform="translate(405.947218 322.182437)scale(0.1 -0.1)">
       <use xlink:href="#DejaVuSans-31"/>
       <use x="63.623047" xlink:href="#DejaVuSans-2e"/>
       <use x="95.410156" xlink:href="#DejaVuSans-32"/>
      </g>
     </g>
    </g>
    <g id="text_8">
     <!-- Time in seconds -->
     <defs>
      <path d="M -0.296875 72.90625 
L 61.375 72.90625 
L 61.375 64.59375 
L 35.5 64.59375 
L 35.5 0 
L 25.59375 0 
L 25.59375 64.59375 
L -0.296875 64.59375 
z
" id="DejaVuSans-54"/>
      <path d="M 9.421875 54.6875 
L 18.40625 54.6875 
L 18.40625 0 
L 9.421875 0 
z
M 9.421875 75.984375 
L 18.40625 75.984375 
L 18.40625 64.59375 
L 9.421875 64.59375 
z
" id="DejaVuSans-69"/>
      <path d="M 52 44.1875 
Q 55.375 50.25 60.0625 53.125 
Q 64.75 56 71.09375 56 
Q 79.640625 56 84.28125 50.015625 
Q 88.921875 44.046875 88.921875 33.015625 
L 88.921875 0 
L 79.890625 0 
L 79.890625 32.71875 
Q 79.890625 40.578125 77.09375 44.375 
Q 74.3125 48.1875 68.609375 48.1875 
Q 61.625 48.1875 57.5625 43.546875 
Q 53.515625 38.921875 53.515625 30.90625 
L 53.515625 0 
L 44.484375 0 
L 44.484375 32.71875 
Q 44.484375 40.625 41.703125 44.40625 
Q 38.921875 48.1875 33.109375 48.1875 
Q 26.21875 48.1875 22.15625 43.53125 
Q 18.109375 38.875 18.109375 30.90625 
L 18.109375 0 
L 9.078125 0 
L 9.078125 54.6875 
L 18.109375 54.6875 
L 18.109375 46.1875 
Q 21.1875 51.21875 25.484375 53.609375 
Q 29.78125 56 35.6875 56 
Q 41.65625 56 45.828125 52.96875 
Q 50 49.953125 52 44.1875 
z
" id="DejaVuSans-6d"/>
      <path d="M 56.203125 29.59375 
L 56.203125 25.203125 
L 14.890625 25.203125 
Q 15.484375 15.921875 20.484375 11.0625 
Q 25.484375 6.203125 34.421875 6.203125 
Q 39.59375 6.203125 44.453125 7.46875 
Q 49.3125 8.734375 54.109375 11.28125 
L 54.109375 2.78125 
Q 49.265625 0.734375 44.1875 -0.34375 
Q 39.109375 -1.421875 33.890625 -1.421875 
Q 20.796875 -1.421875 13.15625 6.1875 
Q 5.515625 13.8125 5.515625 26.8125 
Q 5.515625 40.234375 12.765625 48.109375 
Q 20.015625 56 32.328125 56 
Q 43.359375 56 49.78125 48.890625 
Q 56.203125 41.796875 56.203125 29.59375 
z
M 47.21875 32.234375 
Q 47.125 39.59375 43.09375 43.984375 
Q 39.0625 48.390625 32.421875 48.390625 
Q 24.90625 48.390625 20.390625 44.140625 
Q 15.875 39.890625 15.1875 32.171875 
z
" id="DejaVuSans-65"/>
      <path id="DejaVuSans-20"/>
      <path d="M 54.890625 33.015625 
L 54.890625 0 
L 45.90625 0 
L 45.90625 32.71875 
Q 45.90625 40.484375 42.875 44.328125 
Q 39.84375 48.1875 33.796875 48.1875 
Q 26.515625 48.1875 22.3125 43.546875 
Q 18.109375 38.921875 18.109375 30.90625 
L 18.109375 0 
L 9.078125 0 
L 9.078125 54.6875 
L 18.109375 54.6875 
L 18.109375 46.1875 
Q 21.34375 51.125 25.703125 53.5625 
Q 30.078125 56 35.796875 56 
Q 45.21875 56 50.046875 50.171875 
Q 54.890625 44.34375 54.890625 33.015625 
z
" id="DejaVuSans-6e"/>
      <path d="M 44.28125 53.078125 
L 44.28125 44.578125 
Q 40.484375 46.53125 36.375 47.5 
Q 32.28125 48.484375 27.875 48.484375 
Q 21.1875 48.484375 17.84375 46.4375 
Q 14.5 44.390625 14.5 40.28125 
Q 14.5 37.15625 16.890625 35.375 
Q 19.28125 33.59375 26.515625 31.984375 
L 29.59375 31.296875 
Q 39.15625 29.25 43.1875 25.515625 
Q 47.21875 21.78125 47.21875 15.09375 
Q 47.21875 7.46875 41.1875 3.015625 
Q 35.15625 -1.421875 24.609375 -1.421875 
Q 20.21875 -1.421875 15.453125 -0.5625 
Q 10.6875 0.296875 5.421875 2 
L 5.421875 11.28125 
Q 10.40625 8.6875 15.234375 7.390625 
Q 20.0625 6.109375 24.8125 6.109375 
Q 31.15625 6.109375 34.5625 8.28125 
Q 37.984375 10.453125 37.984375 14.40625 
Q 37.984375 18.0625 35.515625 20.015625 
Q 33.0625 21.96875 24.703125 23.78125 
L 21.578125 24.515625 
Q 13.234375 26.265625 9.515625 29.90625 
Q 5.8125 33.546875 5.8125 39.890625 
Q 5.8125 47.609375 11.28125 51.796875 
Q 16.75 56 26.8125 56 
Q 31.78125 56 36.171875 55.265625 
Q 40.578125 54.546875 44.28125 53.078125 
z
" id="DejaVuSans-73"/>
      <path d="M 48.78125 52.59375 
L 48.78125 44.1875 
Q 44.96875 46.296875 41.140625 47.34375 
Q 37.3125 48.390625 33.40625 48.390625 
Q 24.65625 48.390625 19.8125 42.84375 
Q 14.984375 37.3125 14.984375 27.296875 
Q 14.984375 17.28125 19.8125 11.734375 
Q 24.65625 6.203125 33.40625 6.203125 
Q 37.3125 6.203125 41.140625 7.25 
Q 44.96875 8.296875 48.78125 10.40625 
L 48.78125 2.09375 
Q 45.015625 0.34375 40.984375 -0.53125 
Q 36.96875 -1.421875 32.421875 -1.421875 
Q 20.0625 -1.421875 12.78125 6.34375 
Q 5.515625 14.109375 5.515625 27.296875 
Q 5.515625 40.671875 12.859375 48.328125 
Q 20.21875 56 33.015625 56 
Q 37.15625 56 41.109375 55.140625 
Q 45.0625 54.296875 48.78125 52.59375 
z
" id="DejaVuSans-63"/>
      <path d="M 30.609375 48.390625 
Q 23.390625 48.390625 19.1875 42.75 
Q 14.984375 37.109375 14.984375 27.296875 
Q 14.984375 17.484375 19.15625 11.84375 
Q 23.34375 6.203125 30.609375 6.203125 
Q 37.796875 6.203125 41.984375 11.859375 
Q 46.1875 17.53125 46.1875 27.296875 
Q 46.1875 37.015625 41.984375 42.703125 
Q 37.796875 48.390625 30.609375 48.390625 
z
M 30.609375 56 
Q 42.328125 56 49.015625 48.375 
Q 55.71875 40.765625 55.71875 27.296875 
Q 55.71875 13.875 49.015625 6.21875 
Q 42.328125 -1.421875 30.609375 -1.421875 
Q 18.84375 -1.421875 12.171875 6.21875 
Q 5.515625 13.875 5.515625 27.296875 
Q 5.515625 40.765625 12.171875 48.375 
Q 18.84375 56 30.609375 56 
z
" id="DejaVuSans-6f"/>
      <path d="M 45.40625 46.390625 
L 45.40625 75.984375 
L 54.390625 75.984375 
L 54.390625 0 
L 45.40625 0 
L 45.40625 8.203125 
Q 42.578125 3.328125 38.25 0.953125 
Q 33.9375 -1.421875 27.875 -1.421875 
Q 17.96875 -1.421875 11.734375 6.484375 
Q 5.515625 14.40625 5.515625 27.296875 
Q 5.515625 40.1875 11.734375 48.09375 
Q 17.96875 56 27.875 56 
Q 33.9375 56 38.25 53.625 
Q 42.578125 51.265625 45.40625 46.390625 
z
M 14.796875 27.296875 
Q 14.796875 17.390625 18.875 11.75 
Q 22.953125 6.109375 30.078125 6.109375 
Q 37.203125 6.109375 41.296875 11.75 
Q 45.40625 17.390625 45.40625 27.296875 
Q 45.40625 37.203125 41.296875 42.84375 
Q 37.203125 48.484375 30.078125 48.484375 
Q 22.953125 48.484375 18.875 42.84375 
Q 14.796875 37.203125 14.796875 27.296875 
z
" id="DejaVuSans-64"/>
     </defs>
     <g transform="translate(195.599063 335.860562)scale(0.1 -0.1)">
      <use xlink:href="#DejaVuSans-54"/>
      <use x="61.037109" xlink:href="#DejaVuSans-69"/>
      <use x="88.820312" xlink:href="#DejaVuSans-6d"/>
      <use x="186.232422" xlink:href="#DejaVuSans-65"/>
      <use x="247.755859" xlink:href="#DejaVuSans-20"/>
      <use x="279.542969" xlink:href="#DejaVuSans-69"/>
      <use x="307.326172" xlink:href="#DejaVuSans-6e"/>
      <use x="370.705078" xlink:href="#DejaVuSans-20"/>
      <use x="402.492188" xlink:href="#DejaVuSans-73"/>
      <use x="454.591797" xlink:href="#DejaVuSans-65"/>
      <use x="516.115234" xlink:href="#DejaVuSans-63"/>
      <use x="571.095703" xlink:href="#DejaVuSans-6f"/>
      <use x="632.277344" xlink:href="#DejaVuSans-6e"/>
      <use x="695.65625" xlink:href="#DejaVuSans-64"/>
      <use x="759.132812" xlink:href="#DejaVuSans-73"/>
     </g>
    </g>
   </g>
   <g id="matplotlib.axis_2">
    <g id="ytick_1">
     <g id="line2d_8">
      <defs>
       <path d="M 0 0 
L -3.5 0 
" id="m0080853972" style="stroke:#000000;stroke-width:0.8;"/>
      </defs>
      <g>
       <use style="stroke:#000000;stroke-width:0.8;" x="57.6" xlink:href="#m0080853972" y="297.333825"/>
      </g>
     </g>
     <g id="text_9">
      <!-- 0.30 -->
      <defs>
       <path d="M 40.578125 39.3125 
Q 47.65625 37.796875 51.625 33 
Q 55.609375 28.21875 55.609375 21.1875 
Q 55.609375 10.40625 48.1875 4.484375 
Q 40.765625 -1.421875 27.09375 -1.421875 
Q 22.515625 -1.421875 17.65625 -0.515625 
Q 12.796875 0.390625 7.625 2.203125 
L 7.625 11.71875 
Q 11.71875 9.328125 16.59375 8.109375 
Q 21.484375 6.890625 26.8125 6.890625 
Q 36.078125 6.890625 40.9375 10.546875 
Q 45.796875 14.203125 45.796875 21.1875 
Q 45.796875 27.640625 41.28125 31.265625 
Q 36.765625 34.90625 28.71875 34.90625 
L 20.21875 34.90625 
L 20.21875 43.015625 
L 29.109375 43.015625 
Q 36.375 43.015625 40.234375 45.921875 
Q 44.09375 48.828125 44.09375 54.296875 
Q 44.09375 59.90625 40.109375 62.90625 
Q 36.140625 65.921875 28.71875 65.921875 
Q 24.65625 65.921875 20.015625 65.03125 
Q 15.375 64.15625 9.8125 62.3125 
L 9.8125 71.09375 
Q 15.4375 72.65625 20.34375 73.4375 
Q 25.25 74.21875 29.59375 74.21875 
Q 40.828125 74.21875 47.359375 69.109375 
Q 53.90625 64.015625 53.90625 55.328125 
Q 53.90625 49.265625 50.4375 45.09375 
Q 46.96875 40.921875 40.578125 39.3125 
z
" id="DejaVuSans-33"/>
      </defs>
      <g transform="translate(28.334375 301.133043)scale(0.1 -0.1)">
       <use xlink:href="#DejaVuSans-30"/>
       <use x="63.623047" xlink:href="#DejaVuSans-2e"/>
       <use x="95.410156" xlink:href="#DejaVuSans-33"/>
       <use x="159.033203" xlink:href="#DejaVuSans-30"/>
      </g>
     </g>
    </g>
    <g id="ytick_2">
     <g id="line2d_9">
      <g>
       <use style="stroke:#000000;stroke-width:0.8;" x="57.6" xlink:href="#m0080853972" y="242.88472"/>
      </g>
     </g>
     <g id="text_10">
      <!-- 0.31 -->
      <g transform="translate(28.334375 246.683939)scale(0.1 -0.1)">
       <use xlink:href="#DejaVuSans-30"/>
       <use x="63.623047" xlink:href="#DejaVuSans-2e"/>
       <use x="95.410156" xlink:href="#DejaVuSans-33"/>
       <use x="159.033203" xlink:href="#DejaVuSans-31"/>
      </g>
     </g>
    </g>
    <g id="ytick_3">
     <g id="line2d_10">
      <g>
       <use style="stroke:#000000;stroke-width:0.8;" x="57.6" xlink:href="#m0080853972" y="188.435616"/>
      </g>
     </g>
     <g id="text_11">
      <!-- 0.32 -->
      <g transform="translate(28.334375 192.234835)scale(0.1 -0.1)">
       <use xlink:href="#DejaVuSans-30"/>
       <use x="63.623047" xlink:href="#DejaVuSans-2e"/>
       <use x="95.410156" xlink:href="#DejaVuSans-33"/>
       <use x="159.033203" xlink:href="#DejaVuSans-32"/>
      </g>
     </g>
    </g>
    <g id="ytick_4">
     <g id="line2d_11">
      <g>
       <use style="stroke:#000000;stroke-width:0.8;" x="57.6" xlink:href="#m0080853972" y="133.986512"/>
      </g>
     </g>
     <g id="text_12">
      <!-- 0.33 -->
      <g transform="translate(28.334375 137.78573)scale(0.1 -0.1)">
       <use xlink:href="#DejaVuSans-30"/>
       <use x="63.623047" xlink:href="#DejaVuSans-2e"/>
       <use x="95.410156" xlink:href="#DejaVuSans-33"/>
       <use x="159.033203" xlink:href="#DejaVuSans-33"/>
      </g>
     </g>
    </g>
    <g id="ytick_5">
     <g id="line2d_12">
      <g>
       <use style="stroke:#000000;stroke-width:0.8;" x="57.6" xlink:href="#m0080853972" y="79.537407"/>
      </g>
     </g>
     <g id="text_13">
      <!-- 0.34 -->
      <g transform="translate(28.334375 83.336626)scale(0.1 -0.1)">
       <use xlink:href="#DejaVuSans-30"/>
       <use x="63.623047" xlink:href="#DejaVuSans-2e"/>
       <use x="95.410156" xlink:href="#DejaVuSans-33"/>
       <use x="159.033203" xlink:href="#DejaVuSans-34"/>
      </g>
     </g>
    </g>
    <g id="text_14">
     <!-- Round trip time in second -->
     <defs>
      <path d="M 44.390625 34.1875 
Q 47.5625 33.109375 50.5625 29.59375 
Q 53.5625 26.078125 56.59375 19.921875 
L 66.609375 0 
L 56 0 
L 46.6875 18.703125 
Q 43.0625 26.03125 39.671875 28.421875 
Q 36.28125 30.8125 30.421875 30.8125 
L 19.671875 30.8125 
L 19.671875 0 
L 9.8125 0 
L 9.8125 72.90625 
L 32.078125 72.90625 
Q 44.578125 72.90625 50.734375 67.671875 
Q 56.890625 62.453125 56.890625 51.90625 
Q 56.890625 45.015625 53.6875 40.46875 
Q 50.484375 35.9375 44.390625 34.1875 
z
M 19.671875 64.796875 
L 19.671875 38.921875 
L 32.078125 38.921875 
Q 39.203125 38.921875 42.84375 42.21875 
Q 46.484375 45.515625 46.484375 51.90625 
Q 46.484375 58.296875 42.84375 61.546875 
Q 39.203125 64.796875 32.078125 64.796875 
z
" id="DejaVuSans-52"/>
      <path d="M 8.5 21.578125 
L 8.5 54.6875 
L 17.484375 54.6875 
L 17.484375 21.921875 
Q 17.484375 14.15625 20.5 10.265625 
Q 23.53125 6.390625 29.59375 6.390625 
Q 36.859375 6.390625 41.078125 11.03125 
Q 45.3125 15.671875 45.3125 23.6875 
L 45.3125 54.6875 
L 54.296875 54.6875 
L 54.296875 0 
L 45.3125 0 
L 45.3125 8.40625 
Q 42.046875 3.421875 37.71875 1 
Q 33.40625 -1.421875 27.6875 -1.421875 
Q 18.265625 -1.421875 13.375 4.4375 
Q 8.5 10.296875 8.5 21.578125 
z
M 31.109375 56 
z
" id="DejaVuSans-75"/>
      <path d="M 18.3125 70.21875 
L 18.3125 54.6875 
L 36.8125 54.6875 
L 36.8125 47.703125 
L 18.3125 47.703125 
L 18.3125 18.015625 
Q 18.3125 11.328125 20.140625 9.421875 
Q 21.96875 7.515625 27.59375 7.515625 
L 36.8125 7.515625 
L 36.8125 0 
L 27.59375 0 
Q 17.1875 0 13.234375 3.875 
Q 9.28125 7.765625 9.28125 18.015625 
L 9.28125 47.703125 
L 2.6875 47.703125 
L 2.6875 54.6875 
L 9.28125 54.6875 
L 9.28125 70.21875 
z
" id="DejaVuSans-74"/>
      <path d="M 41.109375 46.296875 
Q 39.59375 47.171875 37.8125 47.578125 
Q 36.03125 48 33.890625 48 
Q 26.265625 48 22.1875 43.046875 
Q 18.109375 38.09375 18.109375 28.8125 
L 18.109375 0 
L 9.078125 0 
L 9.078125 54.6875 
L 18.109375 54.6875 
L 18.109375 46.1875 
Q 20.953125 51.171875 25.484375 53.578125 
Q 30.03125 56 36.53125 56 
Q 37.453125 56 38.578125 55.875 
Q 39.703125 55.765625 41.0625 55.515625 
z
" id="DejaVuSans-72"/>
      <path d="M 18.109375 8.203125 
L 18.109375 -20.796875 
L 9.078125 -20.796875 
L 9.078125 54.6875 
L 18.109375 54.6875 
L 18.109375 46.390625 
Q 20.953125 51.265625 25.265625 53.625 
Q 29.59375 56 35.59375 56 
Q 45.5625 56 51.78125 48.09375 
Q 58.015625 40.1875 58.015625 27.296875 
Q 58.015625 14.40625 51.78125 6.484375 
Q 45.5625 -1.421875 35.59375 -1.421875 
Q 29.59375 -1.421875 25.265625 0.953125 
Q 20.953125 3.328125 18.109375 8.203125 
z
M 48.6875 27.296875 
Q 48.6875 37.203125 44.609375 42.84375 
Q 40.53125 48.484375 33.40625 48.484375 
Q 26.265625 48.484375 22.1875 42.84375 
Q 18.109375 37.203125 18.109375 27.296875 
Q 18.109375 17.390625 22.1875 11.75 
Q 26.265625 6.109375 33.40625 6.109375 
Q 40.53125 6.109375 44.609375 11.75 
Q 48.6875 17.390625 48.6875 27.296875 
z
" id="DejaVuSans-70"/>
     </defs>
     <g transform="translate(22.254687 239.192062)rotate(-90)scale(0.1 -0.1)">
      <use xlink:href="#DejaVuSans-52"/>
      <use x="69.419922" xlink:href="#DejaVuSans-6f"/>
      <use x="130.601562" xlink:href="#DejaVuSans-75"/>
      <use x="193.980469" xlink:href="#DejaVuSans-6e"/>
      <use x="257.359375" xlink:href="#DejaVuSans-64"/>
      <use x="320.835938" xlink:href="#DejaVuSans-20"/>
      <use x="352.623047" xlink:href="#DejaVuSans-74"/>
      <use x="391.832031" xlink:href="#DejaVuSans-72"/>
      <use x="432.945312" xlink:href="#DejaVuSans-69"/>
      <use x="460.728516" xlink:href="#DejaVuSans-70"/>
      <use x="524.205078" xlink:href="#DejaVuSans-20"/>
      <use x="555.992188" xlink:href="#DejaVuSans-74"/>
      <use x="595.201172" xlink:href="#DejaVuSans-69"/>
      <use x="622.984375" xlink:href="#DejaVuSans-6d"/>
      <use x="720.396484" xlink:href="#DejaVuSans-65"/>
      <use x="781.919922" xlink:href="#DejaVuSans-20"/>
      <use x="813.707031" xlink:href="#DejaVuSans-69"/>
      <use x="841.490234" xlink:href="#DejaVuSans-6e"/>
      <use x="904.869141" xlink:href="#DejaVuSans-20"/>
      <use x="936.65625" xlink:href="#DejaVuSans-73"/>
      <use x="988.755859" xlink:href="#DejaVuSans-65"/>
      <use x="1050.279297" xlink:href="#DejaVuSans-63"/>
      <use x="1105.259766" xlink:href="#DejaVuSans-6f"/>
      <use x="1166.441406" xlink:href="#DejaVuSans-6e"/>
      <use x="1229.820312" xlink:href="#DejaVuSans-64"/>
     </g>
    </g>
   </g>
   <g id="line2d_13">
    <path clip-path="url(#paf64a3befb)" d="M 73.832727 295.117746 
L 76.904091 295.226644 
L 79.955617 295.395437 
L 83.006576 295.460775 
L 86.059519 295.128636 
L 89.122664 295.488 
L 92.170222 295.379102 
L 95.226566 295.471665 
L 98.28546 295.438996 
L 101.357674 295.357322 
L 104.405516 295.455331 
L 107.451091 289.302582 
L 110.503183 282.218753 
L 113.554426 275.336386 
L 116.617854 268.573808 
L 119.683266 261.903792 
L 122.737626 254.634837 
L 125.79397 248.079165 
L 128.879503 241.724954 
L 131.941514 235.016825 
L 135.006076 228.30325 
L 138.292814 225.700583 
L 141.370129 219.297368 
L 144.439225 212.600128 
L 147.505204 206.006342 
L 150.560131 199.11853 
L 153.612223 192.138155 
L 156.679052 185.310237 
L 159.79009 179.554967 
L 162.869388 173.140863 
L 165.939901 166.59608 
L 169.001629 159.828056 
L 172.051738 152.766008 
L 175.118001 146.079658 
L 178.193048 139.556655 
L 181.269229 132.979203 
L 184.41654 127.99711 
L 187.511425 121.953259 
L 190.585338 115.332248 
L 193.654434 108.678568 
L 196.946557 106.342701 
L 200.442153 107.910835 
L 203.819009 107.186662 
L 207.330474 109.043377 
L 210.659721 107.415349 
L 214.077385 107.486132 
L 217.515736 107.91628 
L 220.890325 107.186662 
L 224.347663 108.046958 
L 227.715734 107.055985 
L 231.235701 109.119606 
L 234.540293 107.034205 
L 237.996781 107.883611 
L 241.506262 109.658652 
L 244.761828 106.685731 
L 248.185726 106.865413 
L 251.634846 107.529692 
L 255.048259 107.518802 
L 258.476692 107.796492 
L 261.848447 106.957976 
L 265.316554 107.992509 
L 268.704462 107.497022 
L 272.117308 107.453463 
L 275.530438 107.442573 
L 278.925714 107.083209 
L 282.372 107.682149 
L 285.778045 107.513357 
L 289.223481 108.128632 
L 292.609405 107.584141 
L 296.00043 107.137658 
L 299.44955 107.747488 
L 302.934944 109.163165 
L 306.236985 106.936197 
L 309.669102 107.355455 
L 313.108587 107.796492 
L 316.47184 106.865413 
L 319.93938 107.883611 
L 323.346275 107.742043 
L 326.731349 107.175773 
L 330.180469 107.850941 
L 333.578296 107.562361 
L 337.046403 108.564225 
L 340.370549 106.838188 
L 343.858209 108.253865 
L 347.205026 106.941641 
L 350.710257 108.727572 
L 354.044888 107.213887 
L 357.469637 107.426238 
L 360.876532 107.279226 
L 364.366176 108.733017 
L 367.651214 106.217468 
L 371.132074 107.622255 
L 374.621435 109.010707 
L 377.941613 107.045095 
L 381.364378 107.377234 
L 384.772406 107.137658 
L 388.180152 106.838188 
L 391.644575 107.682149 
L 394.988274 106.369926 
L 398.485287 108.112297 
" style="fill:none;stroke:#ff0000;stroke-dasharray:5.55,2.4;stroke-dashoffset:0;stroke-width:1.5;"/>
   </g>
   <g id="line2d_14">
    <path clip-path="url(#paf64a3befb)" d="M 73.832727 284.969036 
L 76.906937 295.134988 
L 79.958986 295.312837 
L 83.010224 295.384236 
L 86.06288 295.046713 
L 89.121213 295.312837 
L 92.173869 295.302452 
L 95.229702 295.385534 
L 98.288845 295.356975 
L 101.360487 295.264805 
L 104.408887 295.373851 
L 107.45445 289.220535 
L 110.506566 282.136434 
L 113.557804 275.254846 
L 116.620663 268.481007 
L 119.686359 261.816213 
L 122.741043 254.554262 
L 125.797078 247.992024 
L 128.882301 241.6323 
L 131.944079 234.919474 
L 135.008898 228.210543 
L 138.294789 225.592138 
L 141.372647 219.198662 
L 144.44179 212.502712 
L 147.50296 205.81585 
L 150.563252 199.031625 
L 153.615638 192.056569 
L 156.682416 185.228207 
L 159.792908 179.461745 
L 162.872186 173.047498 
L 165.942747 166.503434 
L 169.004728 159.741278 
L 172.054817 152.677947 
L 175.121122 145.992383 
L 178.187967 139.312011 
L 181.272042 132.886081 
L 184.417398 127.867364 
L 187.513972 121.855549 
L 190.587303 115.223209 
L 193.656986 108.580485 
L 196.948823 106.239888 
L 200.444437 107.808075 
L 203.82127 107.083697 
L 207.331613 108.918008 
L 210.661421 107.301789 
L 214.079673 107.383574 
L 217.515694 107.76913 
L 220.893135 107.094083 
L 224.349628 107.937892 
L 227.718287 106.957775 
L 231.238832 109.033545 
L 234.54283 106.935706 
L 237.998175 107.763937 
L 241.507977 109.545023 
L 244.764072 106.582605 
L 248.185701 106.717614 
L 251.637127 107.426414 
L 255.050784 107.419923 
L 258.478967 107.693836 
L 261.850734 106.85522 
L 265.31878 107.888561 
L 268.707033 107.399152 
L 272.119879 107.356313 
L 275.533265 107.349822 
L 278.928274 106.985037 
L 282.374565 107.58479 
L 285.780587 107.41473 
L 289.225999 108.030062 
L 292.611954 107.486129 
L 295.99845 106.952582 
L 299.452105 107.649698 
L 302.937786 109.071192 
L 306.239218 106.831853 
L 309.671657 107.257652 
L 313.110584 107.688643 
L 316.474377 106.766944 
L 319.941951 107.786006 
L 323.348514 107.638015 
L 326.733861 107.077206 
L 330.180489 107.704222 
L 333.580565 107.458868 
L 337.046653 108.422108 
L 340.372813 106.73449 
L 343.860724 108.154686 
L 347.207829 106.848729 
L 350.712225 108.618132 
L 354.04771 107.121344 
L 357.472177 107.327753 
L 360.879347 107.186253 
L 364.366718 108.596063 
L 367.653757 106.119159 
L 371.134912 107.530267 
L 374.616066 108.76093 
L 377.941618 106.898059 
L 381.366896 107.278422 
L 384.775215 107.044752 
L 388.182724 106.740981 
L 391.646581 107.574405 
L 394.990849 106.272342 
L 398.487273 108.004098 
" style="fill:none;stroke:#0000ff;stroke-dasharray:1.5,2.475;stroke-dashoffset:0;stroke-width:1.5;"/>
   </g>
   <g id="line2d_15">
    <path clip-path="url(#paf64a3befb)" d="M 73.832727 284.969036 
L 76.906937 295.134988 
L 79.958986 295.312837 
L 83.010224 295.384236 
L 86.06288 295.046713 
L 89.121213 295.312837 
L 92.173869 295.302452 
L 95.229702 295.385534 
L 98.288845 295.356975 
L 101.360487 295.264805 
L 104.408887 295.373851 
L 107.45445 289.220535 
L 110.506566 282.136434 
L 113.557804 275.254846 
L 116.620663 268.481007 
L 119.686359 261.816213 
L 122.741043 254.554262 
L 125.797078 247.992024 
L 128.882301 241.6323 
L 131.944079 234.919474 
L 135.008898 228.210543 
L 138.294789 225.592138 
L 141.372647 219.198662 
L 144.44179 212.502712 
L 147.50296 205.81585 
L 150.563252 199.031625 
L 153.615638 192.056569 
L 156.682416 185.228207 
L 159.792908 179.461745 
L 162.872186 173.047498 
L 165.942747 166.503434 
L 169.004728 159.741278 
L 172.054817 152.677947 
L 175.121122 145.992383 
L 178.187967 139.312011 
L 181.272042 132.886081 
L 184.417398 127.867364 
L 187.513972 121.855549 
L 190.587303 115.223209 
L 193.656986 108.580485 
L 196.948823 106.239888 
L 200.444437 107.808075 
L 203.82127 107.083697 
L 207.331613 108.918008 
L 210.661421 107.301789 
L 214.079673 107.383574 
L 217.515694 107.76913 
L 220.893135 107.094083 
L 224.349628 107.937892 
L 227.718287 106.957775 
L 231.238832 109.033545 
L 234.54283 106.935706 
L 237.998175 107.763937 
L 241.507977 109.545023 
L 244.764072 106.582605 
L 248.185701 106.717614 
L 251.637127 107.426414 
L 255.050784 107.419923 
L 258.478967 107.693836 
L 261.850734 106.85522 
L 265.31878 107.888561 
L 268.707033 107.399152 
L 272.119879 107.356313 
L 275.533265 107.349822 
L 278.928274 106.985037 
L 282.374565 107.58479 
L 285.780587 107.41473 
L 289.225999 108.030062 
L 292.611954 107.486129 
L 295.99845 106.952582 
L 299.452105 107.649698 
L 302.937786 109.071192 
L 306.239218 106.831853 
L 309.671657 107.257652 
L 313.110584 107.688643 
L 316.474377 106.766944 
L 319.941951 107.786006 
L 323.348514 107.638015 
L 326.733861 107.077206 
L 330.180489 107.704222 
L 333.580565 107.458868 
L 337.046653 108.422108 
L 340.372813 106.73449 
L 343.860724 108.154686 
L 347.207829 106.848729 
L 350.712225 108.618132 
L 354.04771 107.121344 
L 357.472177 107.327753 
L 360.879347 107.186253 
L 364.366718 108.596063 
L 367.653757 106.119159 
L 371.134912 107.530267 
L 374.616066 108.76093 
L 377.941618 106.898059 
L 381.366896 107.278422 
L 384.775215 107.044752 
L 388.182724 106.740981 
L 391.646581 107.574405 
L 394.990849 106.272342 
L 398.487273 108.004098 
" style="fill:none;stroke:#008000;stroke-linecap:square;stroke-width:1.5;"/>
   </g>
   <g id="line2d_16">
    <path clip-path="url(#paf64a3befb)" d="M 73.832727 295.117746 
L 76.904091 295.226644 
L 79.955617 295.395437 
L 83.006576 295.460775 
L 86.059519 295.128636 
L 89.122664 295.488 
L 92.170222 295.379102 
L 95.226566 295.471665 
L 98.28546 295.438996 
L 101.357674 295.357322 
L 104.405516 295.455331 
L 107.451091 289.302582 
L 110.503183 282.218753 
L 113.554426 275.336386 
L 116.617854 268.573808 
L 119.683266 261.903792 
L 122.737626 254.634837 
L 125.79397 248.079165 
L 128.879503 241.724954 
L 131.941514 235.016825 
L 135.006076 228.30325 
L 138.292814 225.700583 
L 141.370129 219.297368 
L 144.439225 212.600128 
L 147.505204 206.006342 
L 150.560131 199.11853 
L 153.612223 192.138155 
L 156.679052 185.310237 
L 159.79009 179.554967 
L 162.869388 173.140863 
L 165.939901 166.59608 
L 169.001629 159.828056 
L 172.051738 152.766008 
L 175.118001 146.079658 
L 178.193048 139.556655 
L 181.269229 132.979203 
L 184.41654 127.99711 
L 187.511425 121.953259 
L 190.585338 115.332248 
L 193.654434 108.678568 
L 196.946557 106.342701 
L 200.442153 107.910835 
L 203.819009 107.186662 
L 207.330474 109.043377 
L 210.659721 107.415349 
L 214.077385 107.486132 
L 217.515736 107.91628 
L 220.890325 107.186662 
L 224.347663 108.046958 
L 227.715734 107.055985 
L 231.235701 109.119606 
L 234.540293 107.034205 
L 237.996781 107.883611 
L 241.506262 109.658652 
L 244.761828 106.685731 
L 248.185726 106.865413 
L 251.634846 107.529692 
L 255.048259 107.518802 
L 258.476692 107.796492 
L 261.848447 106.957976 
L 265.316554 107.992509 
L 268.704462 107.497022 
L 272.117308 107.453463 
L 275.530438 107.442573 
L 278.925714 107.083209 
L 282.372 107.682149 
L 285.778045 107.513357 
L 289.223481 108.128632 
L 292.609405 107.584141 
L 296.00043 107.137658 
L 299.44955 107.747488 
L 302.934944 109.163165 
L 306.236985 106.936197 
L 309.669102 107.355455 
L 313.108587 107.796492 
L 316.47184 106.865413 
L 319.93938 107.883611 
L 323.346275 107.742043 
L 326.731349 107.175773 
L 330.180469 107.850941 
L 333.578296 107.562361 
L 337.046403 108.564225 
L 340.370549 106.838188 
L 343.858209 108.253865 
L 347.205026 106.941641 
L 350.710257 108.727572 
L 354.044888 107.213887 
L 357.469637 107.426238 
L 360.876532 107.279226 
L 364.366176 108.733017 
L 367.651214 106.217468 
L 371.132074 107.622255 
L 374.621435 109.010707 
L 377.941613 107.045095 
L 381.364378 107.377234 
L 384.772406 107.137658 
L 388.180152 106.838188 
L 391.644575 107.682149 
L 394.988274 106.369926 
L 398.485287 108.112297 
" style="fill:none;stroke:#800080;stroke-dasharray:9.6,2.4,1.5,2.4;stroke-dashoffset:0;stroke-width:1.5;"/>
   </g>
   <g id="line2d_17">
    <path clip-path="url(#paf64a3befb)" d="M 73.832727 250.582438 
L 76.904091 248.718591 
L 79.955617 246.866781 
L 83.006576 245.015316 
L 86.059519 243.162646 
L 89.122664 241.303786 
L 92.170222 239.454384 
L 95.226566 237.599651 
L 98.28546 235.74337 
L 101.357674 233.879007 
L 104.405516 232.029433 
L 107.451091 230.181235 
L 110.503183 228.329081 
L 113.554426 226.477444 
L 116.617854 224.618411 
L 119.683266 222.758175 
L 122.737626 220.904646 
L 125.79397 219.049913 
L 128.879503 217.177467 
L 131.941514 215.319294 
L 135.006076 213.459574 
L 138.292814 211.465026 
L 141.370129 209.597567 
L 144.439225 207.735096 
L 147.505204 205.874515 
L 150.560131 204.020642 
L 153.612223 202.168489 
L 156.679052 200.307393 
L 159.79009 198.419469 
L 162.869388 196.550806 
L 165.939901 194.687474 
L 169.001629 192.829474 
L 172.051738 190.978524 
L 175.118001 189.117772 
L 178.193048 187.251689 
L 181.269229 185.384918 
L 184.41654 183.474981 
L 187.511425 181.59686 
L 190.585338 179.731464 
L 193.654434 177.868992 
L 196.946557 175.871177 
L 200.442153 173.749886 
L 203.819009 171.700651 
L 207.330474 169.569728 
L 210.659721 167.549385 
L 214.077385 165.475386 
L 217.515736 163.388833 
L 220.890325 161.340974 
L 224.347663 159.242898 
L 227.715734 157.198994 
L 231.235701 155.062913 
L 234.540293 153.057531 
L 237.996781 150.959972 
L 241.506262 148.830253 
L 244.761828 146.854623 
L 248.185726 144.77684 
L 251.634846 142.683752 
L 255.048259 140.612333 
L 258.476692 138.531799 
L 261.848447 136.485659 
L 265.316554 134.381049 
L 268.704462 132.325107 
L 272.117308 130.254031 
L 275.530438 128.182784 
L 278.925714 126.122371 
L 282.372 124.031002 
L 285.778045 121.964054 
L 289.223481 119.873201 
L 292.609405 117.818463 
L 296.00043 115.76063 
L 299.44955 113.667542 
L 302.934944 111.552441 
L 306.236985 109.548607 
L 309.669102 107.465837 
L 313.108587 105.378596 
L 316.47184 103.337616 
L 319.93938 101.233349 
L 323.346275 99.165885 
L 326.731349 97.111663 
L 330.180469 95.018575 
L 333.578296 92.956614 
L 337.046403 90.852003 
L 340.370549 88.834756 
L 343.858209 86.718279 
L 347.205026 84.687273 
L 350.710257 82.560134 
L 354.044888 80.536523 
L 357.469637 78.458225 
L 360.876532 76.390761 
L 364.366176 74.273081 
L 367.651214 72.279565 
L 371.132074 70.167216 
L 374.621435 68.049707 
L 377.941613 66.034867 
L 381.364378 63.957773 
L 384.772406 61.88962 
L 388.180152 59.82164 
L 391.644575 57.719266 
L 394.988274 55.690152 
L 398.485287 53.568 
" style="fill:none;stroke:#ff0000;stroke-linecap:square;stroke-width:1.5;"/>
   </g>
   <g id="patch_3">
    <path d="M 57.6 307.584 
L 57.6 41.472 
" style="fill:none;stroke:#000000;stroke-linecap:square;stroke-linejoin:miter;stroke-width:0.8;"/>
   </g>
   <g id="patch_4">
    <path d="M 414.72 307.584 
L 414.72 41.472 
" style="fill:none;stroke:#000000;stroke-linecap:square;stroke-linejoin:miter;stroke-width:0.8;"/>
   </g>
   <g id="patch_5">
    <path d="M 57.6 307.584 
L 414.72 307.584 
" style="fill:none;stroke:#000000;stroke-linecap:square;stroke-linejoin:miter;stroke-width:0.8;"/>
   </g>
   <g id="patch_6">
    <path d="M 57.6 41.472 
L 414.72 41.472 
" style="fill:none;stroke:#000000;stroke-linecap:square;stroke-linejoin:miter;stroke-width:0.8;"/>
   </g>
   <g id="text_15">
    <!-- Rate 75000.0 Mbit/s  -->
    <defs>
     <path d="M 34.28125 27.484375 
Q 23.390625 27.484375 19.1875 25 
Q 14.984375 22.515625 14.984375 16.5 
Q 14.984375 11.71875 18.140625 8.90625 
Q 21.296875 6.109375 26.703125 6.109375 
Q 34.1875 6.109375 38.703125 11.40625 
Q 43.21875 16.703125 43.21875 25.484375 
L 43.21875 27.484375 
z
M 52.203125 31.203125 
L 52.203125 0 
L 43.21875 0 
L 43.21875 8.296875 
Q 40.140625 3.328125 35.546875 0.953125 
Q 30.953125 -1.421875 24.3125 -1.421875 
Q 15.921875 -1.421875 10.953125 3.296875 
Q 6 8.015625 6 15.921875 
Q 6 25.140625 12.171875 29.828125 
Q 18.359375 34.515625 30.609375 34.515625 
L 43.21875 34.515625 
L 43.21875 35.40625 
Q 43.21875 41.609375 39.140625 45 
Q 35.0625 48.390625 27.6875 48.390625 
Q 23 48.390625 18.546875 47.265625 
Q 14.109375 46.140625 10.015625 43.890625 
L 10.015625 52.203125 
Q 14.9375 54.109375 19.578125 55.046875 
Q 24.21875 56 28.609375 56 
Q 40.484375 56 46.34375 49.84375 
Q 52.203125 43.703125 52.203125 31.203125 
z
" id="DejaVuSans-61"/>
     <path d="M 8.203125 72.90625 
L 55.078125 72.90625 
L 55.078125 68.703125 
L 28.609375 0 
L 18.3125 0 
L 43.21875 64.59375 
L 8.203125 64.59375 
z
" id="DejaVuSans-37"/>
     <path d="M 10.796875 72.90625 
L 49.515625 72.90625 
L 49.515625 64.59375 
L 19.828125 64.59375 
L 19.828125 46.734375 
Q 21.96875 47.46875 24.109375 47.828125 
Q 26.265625 48.1875 28.421875 48.1875 
Q 40.625 48.1875 47.75 41.5 
Q 54.890625 34.8125 54.890625 23.390625 
Q 54.890625 11.625 47.5625 5.09375 
Q 40.234375 -1.421875 26.90625 -1.421875 
Q 22.3125 -1.421875 17.546875 -0.640625 
Q 12.796875 0.140625 7.71875 1.703125 
L 7.71875 11.625 
Q 12.109375 9.234375 16.796875 8.0625 
Q 21.484375 6.890625 26.703125 6.890625 
Q 35.15625 6.890625 40.078125 11.328125 
Q 45.015625 15.765625 45.015625 23.390625 
Q 45.015625 31 40.078125 35.4375 
Q 35.15625 39.890625 26.703125 39.890625 
Q 22.75 39.890625 18.8125 39.015625 
Q 14.890625 38.140625 10.796875 36.28125 
z
" id="DejaVuSans-35"/>
     <path d="M 9.8125 72.90625 
L 24.515625 72.90625 
L 43.109375 23.296875 
L 61.8125 72.90625 
L 76.515625 72.90625 
L 76.515625 0 
L 66.890625 0 
L 66.890625 64.015625 
L 48.09375 14.015625 
L 38.1875 14.015625 
L 19.390625 64.015625 
L 19.390625 0 
L 9.8125 0 
z
" id="DejaVuSans-4d"/>
     <path d="M 48.6875 27.296875 
Q 48.6875 37.203125 44.609375 42.84375 
Q 40.53125 48.484375 33.40625 48.484375 
Q 26.265625 48.484375 22.1875 42.84375 
Q 18.109375 37.203125 18.109375 27.296875 
Q 18.109375 17.390625 22.1875 11.75 
Q 26.265625 6.109375 33.40625 6.109375 
Q 40.53125 6.109375 44.609375 11.75 
Q 48.6875 17.390625 48.6875 27.296875 
z
M 18.109375 46.390625 
Q 20.953125 51.265625 25.265625 53.625 
Q 29.59375 56 35.59375 56 
Q 45.5625 56 51.78125 48.09375 
Q 58.015625 40.1875 58.015625 27.296875 
Q 58.015625 14.40625 51.78125 6.484375 
Q 45.5625 -1.421875 35.59375 -1.421875 
Q 29.59375 -1.421875 25.265625 0.953125 
Q 20.953125 3.328125 18.109375 8.203125 
L 18.109375 0 
L 9.078125 0 
L 9.078125 75.984375 
L 18.109375 75.984375 
z
" id="DejaVuSans-62"/>
     <path d="M 25.390625 72.90625 
L 33.6875 72.90625 
L 8.296875 -9.28125 
L 0 -9.28125 
z
" id="DejaVuSans-2f"/>
    </defs>
    <g transform="translate(173.5875 35.472)scale(0.12 -0.12)">
     <use xlink:href="#DejaVuSans-52"/>
     <use x="69.451172" xlink:href="#DejaVuSans-61"/>
     <use x="130.730469" xlink:href="#DejaVuSans-74"/>
     <use x="169.939453" xlink:href="#DejaVuSans-65"/>
     <use x="231.462891" xlink:href="#DejaVuSans-20"/>
     <use x="263.25" xlink:href="#DejaVuSans-37"/>
     <use x="326.873047" xlink:href="#DejaVuSans-35"/>
     <use x="390.496094" xlink:href="#DejaVuSans-30"/>
     <use x="454.119141" xlink:href="#DejaVuSans-30"/>
     <use x="517.742188" xlink:href="#DejaVuSans-30"/>
     <use x="581.365234" xlink:href="#DejaVuSans-2e"/>
     <use x="613.152344" xlink:href="#DejaVuSans-30"/>
     <use x="676.775391" xlink:href="#DejaVuSans-20"/>
     <use x="708.5625" xlink:href="#DejaVuSans-4d"/>
     <use x="794.841797" xlink:href="#DejaVuSans-62"/>
     <use x="858.318359" xlink:href="#DejaVuSans-69"/>
     <use x="886.101562" xlink:href="#DejaVuSans-74"/>
     <use x="925.310547" xlink:href="#DejaVuSans-2f"/>
     <use x="959.001953" xlink:href="#DejaVuSans-73"/>
     <use x="1011.101562" xlink:href="#DejaVuSans-20"/>
    </g>
   </g>
   <g id="legend_1">
    <g id="patch_7">
     <path d="M 292.240313 122.862625 
L 407.72 122.862625 
Q 409.72 122.862625 409.72 120.862625 
L 409.72 48.472 
Q 409.72 46.472 407.72 46.472 
L 292.240313 46.472 
Q 290.240313 46.472 290.240313 48.472 
L 290.240313 120.862625 
Q 290.240313 122.862625 292.240313 122.862625 
z
" style="fill:#ffffff;opacity:0.8;stroke:#cccccc;stroke-linejoin:miter;"/>
    </g>
    <g id="line2d_18">
     <path d="M 294.240313 54.570438 
L 314.240313 54.570438 
" style="fill:none;stroke:#ff0000;stroke-dasharray:5.55,2.4;stroke-dashoffset:0;stroke-width:1.5;"/>
    </g>
    <g id="line2d_19"/>
    <g id="text_16">
     <!-- tcpdump -->
     <g transform="translate(322.240313 58.070438)scale(0.1 -0.1)">
      <use xlink:href="#DejaVuSans-74"/>
      <use x="39.208984" xlink:href="#DejaVuSans-63"/>
      <use x="94.189453" xlink:href="#DejaVuSans-70"/>
      <use x="157.666016" xlink:href="#DejaVuSans-64"/>
      <use x="221.142578" xlink:href="#DejaVuSans-75"/>
      <use x="284.521484" xlink:href="#DejaVuSans-6d"/>
      <use x="381.933594" xlink:href="#DejaVuSans-70"/>
     </g>
    </g>
    <g id="line2d_20">
     <path d="M 294.240313 69.248563 
L 314.240313 69.248563 
" style="fill:none;stroke:#0000ff;stroke-dasharray:1.5,2.475;stroke-dashoffset:0;stroke-width:1.5;"/>
    </g>
    <g id="line2d_21"/>
    <g id="text_17">
     <!-- scapy -->
     <defs>
      <path d="M 32.171875 -5.078125 
Q 28.375 -14.84375 24.75 -17.8125 
Q 21.140625 -20.796875 15.09375 -20.796875 
L 7.90625 -20.796875 
L 7.90625 -13.28125 
L 13.1875 -13.28125 
Q 16.890625 -13.28125 18.9375 -11.515625 
Q 21 -9.765625 23.484375 -3.21875 
L 25.09375 0.875 
L 2.984375 54.6875 
L 12.5 54.6875 
L 29.59375 11.921875 
L 46.6875 54.6875 
L 56.203125 54.6875 
z
" id="DejaVuSans-79"/>
     </defs>
     <g transform="translate(322.240313 72.748563)scale(0.1 -0.1)">
      <use xlink:href="#DejaVuSans-73"/>
      <use x="52.099609" xlink:href="#DejaVuSans-63"/>
      <use x="107.080078" xlink:href="#DejaVuSans-61"/>
      <use x="168.359375" xlink:href="#DejaVuSans-70"/>
      <use x="231.835938" xlink:href="#DejaVuSans-79"/>
     </g>
    </g>
    <g id="line2d_22">
     <path d="M 294.240313 83.926688 
L 314.240313 83.926688 
" style="fill:none;stroke:#008000;stroke-linecap:square;stroke-width:1.5;"/>
    </g>
    <g id="line2d_23"/>
    <g id="text_18">
     <!-- filtered scapy -->
     <defs>
      <path d="M 37.109375 75.984375 
L 37.109375 68.5 
L 28.515625 68.5 
Q 23.6875 68.5 21.796875 66.546875 
Q 19.921875 64.59375 19.921875 59.515625 
L 19.921875 54.6875 
L 34.71875 54.6875 
L 34.71875 47.703125 
L 19.921875 47.703125 
L 19.921875 0 
L 10.890625 0 
L 10.890625 47.703125 
L 2.296875 47.703125 
L 2.296875 54.6875 
L 10.890625 54.6875 
L 10.890625 58.5 
Q 10.890625 67.625 15.140625 71.796875 
Q 19.390625 75.984375 28.609375 75.984375 
z
" id="DejaVuSans-66"/>
      <path d="M 9.421875 75.984375 
L 18.40625 75.984375 
L 18.40625 0 
L 9.421875 0 
z
" id="DejaVuSans-6c"/>
     </defs>
     <g transform="translate(322.240313 87.426688)scale(0.1 -0.1)">
      <use xlink:href="#DejaVuSans-66"/>
      <use x="35.205078" xlink:href="#DejaVuSans-69"/>
      <use x="62.988281" xlink:href="#DejaVuSans-6c"/>
      <use x="90.771484" xlink:href="#DejaVuSans-74"/>
      <use x="129.980469" xlink:href="#DejaVuSans-65"/>
      <use x="191.503906" xlink:href="#DejaVuSans-72"/>
      <use x="232.585938" xlink:href="#DejaVuSans-65"/>
      <use x="294.109375" xlink:href="#DejaVuSans-64"/>
      <use x="357.585938" xlink:href="#DejaVuSans-20"/>
      <use x="389.373047" xlink:href="#DejaVuSans-73"/>
      <use x="441.472656" xlink:href="#DejaVuSans-63"/>
      <use x="496.453125" xlink:href="#DejaVuSans-61"/>
      <use x="557.732422" xlink:href="#DejaVuSans-70"/>
      <use x="621.208984" xlink:href="#DejaVuSans-79"/>
     </g>
    </g>
    <g id="line2d_24">
     <path d="M 294.240313 98.604813 
L 314.240313 98.604813 
" style="fill:none;stroke:#800080;stroke-dasharray:9.6,2.4,1.5,2.4;stroke-dashoffset:0;stroke-width:1.5;"/>
    </g>
    <g id="line2d_25"/>
    <g id="text_19">
     <!-- filtered tcpdump -->
     <g transform="translate(322.240313 102.104813)scale(0.1 -0.1)">
      <use xlink:href="#DejaVuSans-66"/>
      <use x="35.205078" xlink:href="#DejaVuSans-69"/>
      <use x="62.988281" xlink:href="#DejaVuSans-6c"/>
      <use x="90.771484" xlink:href="#DejaVuSans-74"/>
      <use x="129.980469" xlink:href="#DejaVuSans-65"/>
      <use x="191.503906" xlink:href="#DejaVuSans-72"/>
      <use x="232.585938" xlink:href="#DejaVuSans-65"/>
      <use x="294.109375" xlink:href="#DejaVuSans-64"/>
      <use x="357.585938" xlink:href="#DejaVuSans-20"/>
      <use x="389.373047" xlink:href="#DejaVuSans-74"/>
      <use x="428.582031" xlink:href="#DejaVuSans-63"/>
      <use x="483.5625" xlink:href="#DejaVuSans-70"/>
      <use x="547.039062" xlink:href="#DejaVuSans-64"/>
      <use x="610.515625" xlink:href="#DejaVuSans-75"/>
      <use x="673.894531" xlink:href="#DejaVuSans-6d"/>
      <use x="771.306641" xlink:href="#DejaVuSans-70"/>
     </g>
    </g>
    <g id="line2d_26">
     <path d="M 294.240313 113.282938 
L 314.240313 113.282938 
" style="fill:none;stroke:#ff0000;stroke-linecap:square;stroke-width:1.5;"/>
    </g>
    <g id="line2d_27"/>
    <g id="text_20">
     <!-- Fitted Line -->
     <defs>
      <path d="M 9.8125 72.90625 
L 51.703125 72.90625 
L 51.703125 64.59375 
L 19.671875 64.59375 
L 19.671875 43.109375 
L 48.578125 43.109375 
L 48.578125 34.8125 
L 19.671875 34.8125 
L 19.671875 0 
L 9.8125 0 
z
" id="DejaVuSans-46"/>
      <path d="M 9.8125 72.90625 
L 19.671875 72.90625 
L 19.671875 8.296875 
L 55.171875 8.296875 
L 55.171875 0 
L 9.8125 0 
z
" id="DejaVuSans-4c"/>
     </defs>
     <g transform="translate(322.240313 116.782938)scale(0.1 -0.1)">
      <use xlink:href="#DejaVuSans-46"/>
      <use x="57.410156" xlink:href="#DejaVuSans-69"/>
      <use x="85.193359" xlink:href="#DejaVuSans-74"/>
      <use x="124.402344" xlink:href="#DejaVuSans-74"/>
      <use x="163.611328" xlink:href="#DejaVuSans-65"/>
      <use x="225.134766" xlink:href="#DejaVuSans-64"/>
      <use x="288.611328" xlink:href="#DejaVuSans-20"/>
      <use x="320.398438" xlink:href="#DejaVuSans-4c"/>
      <use x="376.111328" xlink:href="#DejaVuSans-69"/>
      <use x="403.894531" xlink:href="#DejaVuSans-6e"/>
      <use x="467.273438" xlink:href="#DejaVuSans-65"/>
     </g>
    </g>
   </g>
  </g>
 </g>
 <defs>
  <clipPath id="paf64a3befb">
   <rect height="266.112" width="357.12" x="57.6" y="41.472"/>
  </clipPath>
 </defs>
</svg>
