<?xml version="1.0" encoding="utf-8" standalone="no"?>
<!DOCTYPE svg PUBLIC "-//W3C//DTD SVG 1.1//EN"
  "http://www.w3.org/Graphics/SVG/1.1/DTD/svg11.dtd">
<!-- Created with matplotlib (http://matplotlib.org/) -->
<svg height="576pt" version="1.1" viewBox="0 0 1440 576" width="1440pt" xmlns="http://www.w3.org/2000/svg" xmlns:xlink="http://www.w3.org/1999/xlink">
 <defs>
  <style type="text/css">
*{stroke-linecap:butt;stroke-linejoin:round;}
  </style>
 </defs>
 <g id="figure_1">
  <g id="patch_1">
   <path d="M 0 576 
L 1440 576 
L 1440 0 
L 0 0 
z
" style="fill:#ffffff;"/>
  </g>
  <g id="axes_1">
   <g id="patch_2">
    <path d="M 180 512.64 
L 1296 512.64 
L 1296 69.12 
L 180 69.12 
z
" style="fill:#ffffff;"/>
   </g>
   <g id="matplotlib.axis_1">
    <g id="xtick_1">
     <g id="line2d_1">
      <defs>
       <path d="M 0 0 
L 0 3.5 
" id="mddeddc0966" style="stroke:#000000;stroke-width:0.8;"/>
      </defs>
      <g>
       <use style="stroke:#000000;stroke-width:0.8;" x="230.727273" xlink:href="#mddeddc0966" y="512.64"/>
      </g>
     </g>
     <g id="text_1">
      <!-- 0.000 -->
      <defs>
       <path d="M 31.78125 66.40625 
Q 24.171875 66.40625 20.328125 58.90625 
Q 16.5 51.421875 16.5 36.375 
Q 16.5 21.390625 20.328125 13.890625 
Q 24.171875 6.390625 31.78125 6.390625 
Q 39.453125 6.390625 43.28125 13.890625 
Q 47.125 21.390625 47.125 36.375 
Q 47.125 51.421875 43.28125 58.90625 
Q 39.453125 66.40625 31.78125 66.40625 
z
M 31.78125 74.21875 
Q 44.046875 74.21875 50.515625 64.515625 
Q 56.984375 54.828125 56.984375 36.375 
Q 56.984375 17.96875 50.515625 8.265625 
Q 44.046875 -1.421875 31.78125 -1.421875 
Q 19.53125 -1.421875 13.0625 8.265625 
Q 6.59375 17.96875 6.59375 36.375 
Q 6.59375 54.828125 13.0625 64.515625 
Q 19.53125 74.21875 31.78125 74.21875 
z
" id="DejaVuSans-30"/>
       <path d="M 10.6875 12.40625 
L 21 12.40625 
L 21 0 
L 10.6875 0 
z
" id="DejaVuSans-2e"/>
      </defs>
      <g transform="translate(216.41321 527.238438)scale(0.1 -0.1)">
       <use xlink:href="#DejaVuSans-30"/>
       <use x="63.623047" xlink:href="#DejaVuSans-2e"/>
       <use x="95.410156" xlink:href="#DejaVuSans-30"/>
       <use x="159.033203" xlink:href="#DejaVuSans-30"/>
       <use x="222.65625" xlink:href="#DejaVuSans-30"/>
      </g>
     </g>
    </g>
    <g id="xtick_2">
     <g id="line2d_2">
      <g>
       <use style="stroke:#000000;stroke-width:0.8;" x="356.659521" xlink:href="#mddeddc0966" y="512.64"/>
      </g>
     </g>
     <g id="text_2">
      <!-- 0.025 -->
      <defs>
       <path d="M 19.1875 8.296875 
L 53.609375 8.296875 
L 53.609375 0 
L 7.328125 0 
L 7.328125 8.296875 
Q 12.9375 14.109375 22.625 23.890625 
Q 32.328125 33.6875 34.8125 36.53125 
Q 39.546875 41.84375 41.421875 45.53125 
Q 43.3125 49.21875 43.3125 52.78125 
Q 43.3125 58.59375 39.234375 62.25 
Q 35.15625 65.921875 28.609375 65.921875 
Q 23.96875 65.921875 18.8125 64.3125 
Q 13.671875 62.703125 7.8125 59.421875 
L 7.8125 69.390625 
Q 13.765625 71.78125 18.9375 73 
Q 24.125 74.21875 28.421875 74.21875 
Q 39.75 74.21875 46.484375 68.546875 
Q 53.21875 62.890625 53.21875 53.421875 
Q 53.21875 48.921875 51.53125 44.890625 
Q 49.859375 40.875 45.40625 35.40625 
Q 44.1875 33.984375 37.640625 27.21875 
Q 31.109375 20.453125 19.1875 8.296875 
z
" id="DejaVuSans-32"/>
       <path d="M 10.796875 72.90625 
L 49.515625 72.90625 
L 49.515625 64.59375 
L 19.828125 64.59375 
L 19.828125 46.734375 
Q 21.96875 47.46875 24.109375 47.828125 
Q 26.265625 48.1875 28.421875 48.1875 
Q 40.625 48.1875 47.75 41.5 
Q 54.890625 34.8125 54.890625 23.390625 
Q 54.890625 11.625 47.5625 5.09375 
Q 40.234375 -1.421875 26.90625 -1.421875 
Q 22.3125 -1.421875 17.546875 -0.640625 
Q 12.796875 0.140625 7.71875 1.703125 
L 7.71875 11.625 
Q 12.109375 9.234375 16.796875 8.0625 
Q 21.484375 6.890625 26.703125 6.890625 
Q 35.15625 6.890625 40.078125 11.328125 
Q 45.015625 15.765625 45.015625 23.390625 
Q 45.015625 31 40.078125 35.4375 
Q 35.15625 39.890625 26.703125 39.890625 
Q 22.75 39.890625 18.8125 39.015625 
Q 14.890625 38.140625 10.796875 36.28125 
z
" id="DejaVuSans-35"/>
      </defs>
      <g transform="translate(342.345459 527.238438)scale(0.1 -0.1)">
       <use xlink:href="#DejaVuSans-30"/>
       <use x="63.623047" xlink:href="#DejaVuSans-2e"/>
       <use x="95.410156" xlink:href="#DejaVuSans-30"/>
       <use x="159.033203" xlink:href="#DejaVuSans-32"/>
       <use x="222.65625" xlink:href="#DejaVuSans-35"/>
      </g>
     </g>
    </g>
    <g id="xtick_3">
     <g id="line2d_3">
      <g>
       <use style="stroke:#000000;stroke-width:0.8;" x="482.59177" xlink:href="#mddeddc0966" y="512.64"/>
      </g>
     </g>
     <g id="text_3">
      <!-- 0.050 -->
      <g transform="translate(468.277707 527.238438)scale(0.1 -0.1)">
       <use xlink:href="#DejaVuSans-30"/>
       <use x="63.623047" xlink:href="#DejaVuSans-2e"/>
       <use x="95.410156" xlink:href="#DejaVuSans-30"/>
       <use x="159.033203" xlink:href="#DejaVuSans-35"/>
       <use x="222.65625" xlink:href="#DejaVuSans-30"/>
      </g>
     </g>
    </g>
    <g id="xtick_4">
     <g id="line2d_4">
      <g>
       <use style="stroke:#000000;stroke-width:0.8;" x="608.524018" xlink:href="#mddeddc0966" y="512.64"/>
      </g>
     </g>
     <g id="text_4">
      <!-- 0.075 -->
      <defs>
       <path d="M 8.203125 72.90625 
L 55.078125 72.90625 
L 55.078125 68.703125 
L 28.609375 0 
L 18.3125 0 
L 43.21875 64.59375 
L 8.203125 64.59375 
z
" id="DejaVuSans-37"/>
      </defs>
      <g transform="translate(594.209956 527.238438)scale(0.1 -0.1)">
       <use xlink:href="#DejaVuSans-30"/>
       <use x="63.623047" xlink:href="#DejaVuSans-2e"/>
       <use x="95.410156" xlink:href="#DejaVuSans-30"/>
       <use x="159.033203" xlink:href="#DejaVuSans-37"/>
       <use x="222.65625" xlink:href="#DejaVuSans-35"/>
      </g>
     </g>
    </g>
    <g id="xtick_5">
     <g id="line2d_5">
      <g>
       <use style="stroke:#000000;stroke-width:0.8;" x="734.456267" xlink:href="#mddeddc0966" y="512.64"/>
      </g>
     </g>
     <g id="text_5">
      <!-- 0.100 -->
      <defs>
       <path d="M 12.40625 8.296875 
L 28.515625 8.296875 
L 28.515625 63.921875 
L 10.984375 60.40625 
L 10.984375 69.390625 
L 28.421875 72.90625 
L 38.28125 72.90625 
L 38.28125 8.296875 
L 54.390625 8.296875 
L 54.390625 0 
L 12.40625 0 
z
" id="DejaVuSans-31"/>
      </defs>
      <g transform="translate(720.142204 527.238438)scale(0.1 -0.1)">
       <use xlink:href="#DejaVuSans-30"/>
       <use x="63.623047" xlink:href="#DejaVuSans-2e"/>
       <use x="95.410156" xlink:href="#DejaVuSans-31"/>
       <use x="159.033203" xlink:href="#DejaVuSans-30"/>
       <use x="222.65625" xlink:href="#DejaVuSans-30"/>
      </g>
     </g>
    </g>
    <g id="xtick_6">
     <g id="line2d_6">
      <g>
       <use style="stroke:#000000;stroke-width:0.8;" x="860.388515" xlink:href="#mddeddc0966" y="512.64"/>
      </g>
     </g>
     <g id="text_6">
      <!-- 0.125 -->
      <g transform="translate(846.074452 527.238438)scale(0.1 -0.1)">
       <use xlink:href="#DejaVuSans-30"/>
       <use x="63.623047" xlink:href="#DejaVuSans-2e"/>
       <use x="95.410156" xlink:href="#DejaVuSans-31"/>
       <use x="159.033203" xlink:href="#DejaVuSans-32"/>
       <use x="222.65625" xlink:href="#DejaVuSans-35"/>
      </g>
     </g>
    </g>
    <g id="xtick_7">
     <g id="line2d_7">
      <g>
       <use style="stroke:#000000;stroke-width:0.8;" x="986.320763" xlink:href="#mddeddc0966" y="512.64"/>
      </g>
     </g>
     <g id="text_7">
      <!-- 0.150 -->
      <g transform="translate(972.006701 527.238438)scale(0.1 -0.1)">
       <use xlink:href="#DejaVuSans-30"/>
       <use x="63.623047" xlink:href="#DejaVuSans-2e"/>
       <use x="95.410156" xlink:href="#DejaVuSans-31"/>
       <use x="159.033203" xlink:href="#DejaVuSans-35"/>
       <use x="222.65625" xlink:href="#DejaVuSans-30"/>
      </g>
     </g>
    </g>
    <g id="xtick_8">
     <g id="line2d_8">
      <g>
       <use style="stroke:#000000;stroke-width:0.8;" x="1112.253012" xlink:href="#mddeddc0966" y="512.64"/>
      </g>
     </g>
     <g id="text_8">
      <!-- 0.175 -->
      <g transform="translate(1097.938949 527.238438)scale(0.1 -0.1)">
       <use xlink:href="#DejaVuSans-30"/>
       <use x="63.623047" xlink:href="#DejaVuSans-2e"/>
       <use x="95.410156" xlink:href="#DejaVuSans-31"/>
       <use x="159.033203" xlink:href="#DejaVuSans-37"/>
       <use x="222.65625" xlink:href="#DejaVuSans-35"/>
      </g>
     </g>
    </g>
    <g id="xtick_9">
     <g id="line2d_9">
      <g>
       <use style="stroke:#000000;stroke-width:0.8;" x="1238.18526" xlink:href="#mddeddc0966" y="512.64"/>
      </g>
     </g>
     <g id="text_9">
      <!-- 0.200 -->
      <g transform="translate(1223.871198 527.238438)scale(0.1 -0.1)">
       <use xlink:href="#DejaVuSans-30"/>
       <use x="63.623047" xlink:href="#DejaVuSans-2e"/>
       <use x="95.410156" xlink:href="#DejaVuSans-32"/>
       <use x="159.033203" xlink:href="#DejaVuSans-30"/>
       <use x="222.65625" xlink:href="#DejaVuSans-30"/>
      </g>
     </g>
    </g>
   </g>
   <g id="matplotlib.axis_2">
    <g id="ytick_1">
     <g id="line2d_10">
      <defs>
       <path d="M 0 0 
L -3.5 0 
" id="m8d369ed954" style="stroke:#000000;stroke-width:0.8;"/>
      </defs>
      <g>
       <use style="stroke:#000000;stroke-width:0.8;" x="180" xlink:href="#m8d369ed954" y="448.898342"/>
      </g>
     </g>
     <g id="text_10">
      <!-- 0.4 -->
      <defs>
       <path d="M 37.796875 64.3125 
L 12.890625 25.390625 
L 37.796875 25.390625 
z
M 35.203125 72.90625 
L 47.609375 72.90625 
L 47.609375 25.390625 
L 58.015625 25.390625 
L 58.015625 17.1875 
L 47.609375 17.1875 
L 47.609375 0 
L 37.796875 0 
L 37.796875 17.1875 
L 4.890625 17.1875 
L 4.890625 26.703125 
z
" id="DejaVuSans-34"/>
      </defs>
      <g transform="translate(157.096875 452.69756)scale(0.1 -0.1)">
       <use xlink:href="#DejaVuSans-30"/>
       <use x="63.623047" xlink:href="#DejaVuSans-2e"/>
       <use x="95.410156" xlink:href="#DejaVuSans-34"/>
      </g>
     </g>
    </g>
    <g id="ytick_2">
     <g id="line2d_11">
      <g>
       <use style="stroke:#000000;stroke-width:0.8;" x="180" xlink:href="#m8d369ed954" y="368.467953"/>
      </g>
     </g>
     <g id="text_11">
      <!-- 0.6 -->
      <defs>
       <path d="M 33.015625 40.375 
Q 26.375 40.375 22.484375 35.828125 
Q 18.609375 31.296875 18.609375 23.390625 
Q 18.609375 15.53125 22.484375 10.953125 
Q 26.375 6.390625 33.015625 6.390625 
Q 39.65625 6.390625 43.53125 10.953125 
Q 47.40625 15.53125 47.40625 23.390625 
Q 47.40625 31.296875 43.53125 35.828125 
Q 39.65625 40.375 33.015625 40.375 
z
M 52.59375 71.296875 
L 52.59375 62.3125 
Q 48.875 64.0625 45.09375 64.984375 
Q 41.3125 65.921875 37.59375 65.921875 
Q 27.828125 65.921875 22.671875 59.328125 
Q 17.53125 52.734375 16.796875 39.40625 
Q 19.671875 43.65625 24.015625 45.921875 
Q 28.375 48.1875 33.59375 48.1875 
Q 44.578125 48.1875 50.953125 41.515625 
Q 57.328125 34.859375 57.328125 23.390625 
Q 57.328125 12.15625 50.6875 5.359375 
Q 44.046875 -1.421875 33.015625 -1.421875 
Q 20.359375 -1.421875 13.671875 8.265625 
Q 6.984375 17.96875 6.984375 36.375 
Q 6.984375 53.65625 15.1875 63.9375 
Q 23.390625 74.21875 37.203125 74.21875 
Q 40.921875 74.21875 44.703125 73.484375 
Q 48.484375 72.75 52.59375 71.296875 
z
" id="DejaVuSans-36"/>
      </defs>
      <g transform="translate(157.096875 372.267172)scale(0.1 -0.1)">
       <use xlink:href="#DejaVuSans-30"/>
       <use x="63.623047" xlink:href="#DejaVuSans-2e"/>
       <use x="95.410156" xlink:href="#DejaVuSans-36"/>
      </g>
     </g>
    </g>
    <g id="ytick_3">
     <g id="line2d_12">
      <g>
       <use style="stroke:#000000;stroke-width:0.8;" x="180" xlink:href="#m8d369ed954" y="288.037565"/>
      </g>
     </g>
     <g id="text_12">
      <!-- 0.8 -->
      <defs>
       <path d="M 31.78125 34.625 
Q 24.75 34.625 20.71875 30.859375 
Q 16.703125 27.09375 16.703125 20.515625 
Q 16.703125 13.921875 20.71875 10.15625 
Q 24.75 6.390625 31.78125 6.390625 
Q 38.8125 6.390625 42.859375 10.171875 
Q 46.921875 13.96875 46.921875 20.515625 
Q 46.921875 27.09375 42.890625 30.859375 
Q 38.875 34.625 31.78125 34.625 
z
M 21.921875 38.8125 
Q 15.578125 40.375 12.03125 44.71875 
Q 8.5 49.078125 8.5 55.328125 
Q 8.5 64.0625 14.71875 69.140625 
Q 20.953125 74.21875 31.78125 74.21875 
Q 42.671875 74.21875 48.875 69.140625 
Q 55.078125 64.0625 55.078125 55.328125 
Q 55.078125 49.078125 51.53125 44.71875 
Q 48 40.375 41.703125 38.8125 
Q 48.828125 37.15625 52.796875 32.3125 
Q 56.78125 27.484375 56.78125 20.515625 
Q 56.78125 9.90625 50.3125 4.234375 
Q 43.84375 -1.421875 31.78125 -1.421875 
Q 19.734375 -1.421875 13.25 4.234375 
Q 6.78125 9.90625 6.78125 20.515625 
Q 6.78125 27.484375 10.78125 32.3125 
Q 14.796875 37.15625 21.921875 38.8125 
z
M 18.3125 54.390625 
Q 18.3125 48.734375 21.84375 45.5625 
Q 25.390625 42.390625 31.78125 42.390625 
Q 38.140625 42.390625 41.71875 45.5625 
Q 45.3125 48.734375 45.3125 54.390625 
Q 45.3125 60.0625 41.71875 63.234375 
Q 38.140625 66.40625 31.78125 66.40625 
Q 25.390625 66.40625 21.84375 63.234375 
Q 18.3125 60.0625 18.3125 54.390625 
z
" id="DejaVuSans-38"/>
      </defs>
      <g transform="translate(157.096875 291.836784)scale(0.1 -0.1)">
       <use xlink:href="#DejaVuSans-30"/>
       <use x="63.623047" xlink:href="#DejaVuSans-2e"/>
       <use x="95.410156" xlink:href="#DejaVuSans-38"/>
      </g>
     </g>
    </g>
    <g id="ytick_4">
     <g id="line2d_13">
      <g>
       <use style="stroke:#000000;stroke-width:0.8;" x="180" xlink:href="#m8d369ed954" y="207.607177"/>
      </g>
     </g>
     <g id="text_13">
      <!-- 1.0 -->
      <g transform="translate(157.096875 211.406395)scale(0.1 -0.1)">
       <use xlink:href="#DejaVuSans-31"/>
       <use x="63.623047" xlink:href="#DejaVuSans-2e"/>
       <use x="95.410156" xlink:href="#DejaVuSans-30"/>
      </g>
     </g>
    </g>
    <g id="ytick_5">
     <g id="line2d_14">
      <g>
       <use style="stroke:#000000;stroke-width:0.8;" x="180" xlink:href="#m8d369ed954" y="127.176788"/>
      </g>
     </g>
     <g id="text_14">
      <!-- 1.2 -->
      <g transform="translate(157.096875 130.976007)scale(0.1 -0.1)">
       <use xlink:href="#DejaVuSans-31"/>
       <use x="63.623047" xlink:href="#DejaVuSans-2e"/>
       <use x="95.410156" xlink:href="#DejaVuSans-32"/>
      </g>
     </g>
    </g>
   </g>
   <g id="line2d_15">
    <path clip-path="url(#p0a09c9b8c1)" d="M 230.727273 463.970192 
L 247.828872 476.386231 
L 258.709418 473.935919 
L 269.322988 472.003579 
L 280.198497 477.577807 
L 290.197518 473.572374 
L 299.410721 464.612831 
L 308.487918 460.495197 
L 317.771643 456.387215 
L 326.576826 452.24505 
L 335.356822 448.102081 
L 346.166846 444.111125 
L 355.430422 439.991883 
L 366.945667 436.087792 
L 376.032938 431.932356 
L 385.820393 427.911238 
L 398.307834 424.045352 
L 408.825696 420.046755 
L 421.061273 416.182879 
L 430.979697 412.125568 
L 440.953531 408.081528 
L 451.012999 404.037086 
L 460.931423 399.989829 
L 471.958051 396.023807 
L 481.841213 391.96167 
L 491.7546 387.915619 
L 502.917235 383.955227 
L 514.513076 380.038267 
L 525.524592 376.072244 
L 536.566331 372.101396 
L 546.49483 368.056954 
L 555.959898 363.960634 
L 565.445115 359.876379 
L 574.623057 355.746681 
L 583.695216 351.642318 
L 592.676704 347.524685 
L 601.466775 343.376487 
L 610.146025 339.172793 
L 621.187765 335.245779 
L 630.511789 331.147047 
L 640.35969 327.09054 
L 650.701247 323.082292 
L 660.131053 318.981548 
L 672.180251 315.096358 
L 682.21957 311.052318 
L 693.044706 307.07584 
L 705.184575 303.171347 
L 715.908965 299.208139 
L 726.230372 295.191848 
L 736.244504 291.138961 
L 746.394644 287.097334 
L 757.436383 283.130105 
L 777.600655 279.913694 
L 788.224299 275.913488 
L 798.601117 271.859797 
L 808.549764 267.846722 
L 818.347293 263.787401 
L 829.751718 259.850735 
L 839.206711 255.735112 
L 848.70704 251.662118 
L 857.703639 247.544082 
L 866.750612 243.426046 
L 877.812501 239.463241 
L 886.899772 235.315445 
L 896.148236 231.232799 
L 907.320945 227.276026 
L 916.987505 223.209868 
L 929.626065 219.380979 
L 939.342997 215.305973 
L 949.155638 211.233783 
L 959.13451 207.193764 
L 969.874012 203.210852 
L 982.346342 199.365073 
L 992.365511 195.316609 
L 1002.354457 191.264526 
L 1013.426421 187.312177 
L 1023.370031 183.269745 
L 1033.439574 179.212837 
L 1043.46378 175.183676 
L 1053.48295 171.128778 
L 1064.549876 167.162354 
L 1075.284341 163.182658 
L 1086.003694 159.191702 
L 1096.838905 155.185062 
L 1106.465166 151.105231 
L 1115.985644 147.018965 
L 1125.365078 142.93471 
L 1134.638728 138.821098 
L 1143.821708 134.711105 
L 1152.903942 130.55406 
L 1161.547931 126.19795 
L 1170.227182 122.044525 
L 1178.866134 117.901154 
L 1187.540347 113.743305 
L 1196.219598 109.58988 
L 1205.221235 105.461388 
L 1215.159808 101.419359 
L 1225.103418 97.368482 
L 1235.837883 93.38195 
L 1245.272727 89.28 
" style="fill:none;stroke:#ff0000;stroke-dasharray:5.55,2.4;stroke-dashoffset:0;stroke-width:1.5;"/>
    <defs>
     <path d="M -3 3 
L 3 3 
L 3 -3 
L -3 -3 
z
" id="m569c16627c" style="stroke:#ff0000;stroke-linejoin:miter;"/>
    </defs>
    <g clip-path="url(#p0a09c9b8c1)">
     <use style="fill:#ff0000;stroke:#ff0000;stroke-linejoin:miter;" x="230.727273" xlink:href="#m569c16627c" y="463.970192"/>
     <use style="fill:#ff0000;stroke:#ff0000;stroke-linejoin:miter;" x="247.828872" xlink:href="#m569c16627c" y="476.386231"/>
     <use style="fill:#ff0000;stroke:#ff0000;stroke-linejoin:miter;" x="258.709418" xlink:href="#m569c16627c" y="473.935919"/>
     <use style="fill:#ff0000;stroke:#ff0000;stroke-linejoin:miter;" x="269.322988" xlink:href="#m569c16627c" y="472.003579"/>
     <use style="fill:#ff0000;stroke:#ff0000;stroke-linejoin:miter;" x="280.198497" xlink:href="#m569c16627c" y="477.577807"/>
     <use style="fill:#ff0000;stroke:#ff0000;stroke-linejoin:miter;" x="290.197518" xlink:href="#m569c16627c" y="473.572374"/>
     <use style="fill:#ff0000;stroke:#ff0000;stroke-linejoin:miter;" x="299.410721" xlink:href="#m569c16627c" y="464.612831"/>
     <use style="fill:#ff0000;stroke:#ff0000;stroke-linejoin:miter;" x="308.487918" xlink:href="#m569c16627c" y="460.495197"/>
     <use style="fill:#ff0000;stroke:#ff0000;stroke-linejoin:miter;" x="317.771643" xlink:href="#m569c16627c" y="456.387215"/>
     <use style="fill:#ff0000;stroke:#ff0000;stroke-linejoin:miter;" x="326.576826" xlink:href="#m569c16627c" y="452.24505"/>
     <use style="fill:#ff0000;stroke:#ff0000;stroke-linejoin:miter;" x="335.356822" xlink:href="#m569c16627c" y="448.102081"/>
     <use style="fill:#ff0000;stroke:#ff0000;stroke-linejoin:miter;" x="346.166846" xlink:href="#m569c16627c" y="444.111125"/>
     <use style="fill:#ff0000;stroke:#ff0000;stroke-linejoin:miter;" x="355.430422" xlink:href="#m569c16627c" y="439.991883"/>
     <use style="fill:#ff0000;stroke:#ff0000;stroke-linejoin:miter;" x="366.945667" xlink:href="#m569c16627c" y="436.087792"/>
     <use style="fill:#ff0000;stroke:#ff0000;stroke-linejoin:miter;" x="376.032938" xlink:href="#m569c16627c" y="431.932356"/>
     <use style="fill:#ff0000;stroke:#ff0000;stroke-linejoin:miter;" x="385.820393" xlink:href="#m569c16627c" y="427.911238"/>
     <use style="fill:#ff0000;stroke:#ff0000;stroke-linejoin:miter;" x="398.307834" xlink:href="#m569c16627c" y="424.045352"/>
     <use style="fill:#ff0000;stroke:#ff0000;stroke-linejoin:miter;" x="408.825696" xlink:href="#m569c16627c" y="420.046755"/>
     <use style="fill:#ff0000;stroke:#ff0000;stroke-linejoin:miter;" x="421.061273" xlink:href="#m569c16627c" y="416.182879"/>
     <use style="fill:#ff0000;stroke:#ff0000;stroke-linejoin:miter;" x="430.979697" xlink:href="#m569c16627c" y="412.125568"/>
     <use style="fill:#ff0000;stroke:#ff0000;stroke-linejoin:miter;" x="440.953531" xlink:href="#m569c16627c" y="408.081528"/>
     <use style="fill:#ff0000;stroke:#ff0000;stroke-linejoin:miter;" x="451.012999" xlink:href="#m569c16627c" y="404.037086"/>
     <use style="fill:#ff0000;stroke:#ff0000;stroke-linejoin:miter;" x="460.931423" xlink:href="#m569c16627c" y="399.989829"/>
     <use style="fill:#ff0000;stroke:#ff0000;stroke-linejoin:miter;" x="471.958051" xlink:href="#m569c16627c" y="396.023807"/>
     <use style="fill:#ff0000;stroke:#ff0000;stroke-linejoin:miter;" x="481.841213" xlink:href="#m569c16627c" y="391.96167"/>
     <use style="fill:#ff0000;stroke:#ff0000;stroke-linejoin:miter;" x="491.7546" xlink:href="#m569c16627c" y="387.915619"/>
     <use style="fill:#ff0000;stroke:#ff0000;stroke-linejoin:miter;" x="502.917235" xlink:href="#m569c16627c" y="383.955227"/>
     <use style="fill:#ff0000;stroke:#ff0000;stroke-linejoin:miter;" x="514.513076" xlink:href="#m569c16627c" y="380.038267"/>
     <use style="fill:#ff0000;stroke:#ff0000;stroke-linejoin:miter;" x="525.524592" xlink:href="#m569c16627c" y="376.072244"/>
     <use style="fill:#ff0000;stroke:#ff0000;stroke-linejoin:miter;" x="536.566331" xlink:href="#m569c16627c" y="372.101396"/>
     <use style="fill:#ff0000;stroke:#ff0000;stroke-linejoin:miter;" x="546.49483" xlink:href="#m569c16627c" y="368.056954"/>
     <use style="fill:#ff0000;stroke:#ff0000;stroke-linejoin:miter;" x="555.959898" xlink:href="#m569c16627c" y="363.960634"/>
     <use style="fill:#ff0000;stroke:#ff0000;stroke-linejoin:miter;" x="565.445115" xlink:href="#m569c16627c" y="359.876379"/>
     <use style="fill:#ff0000;stroke:#ff0000;stroke-linejoin:miter;" x="574.623057" xlink:href="#m569c16627c" y="355.746681"/>
     <use style="fill:#ff0000;stroke:#ff0000;stroke-linejoin:miter;" x="583.695216" xlink:href="#m569c16627c" y="351.642318"/>
     <use style="fill:#ff0000;stroke:#ff0000;stroke-linejoin:miter;" x="592.676704" xlink:href="#m569c16627c" y="347.524685"/>
     <use style="fill:#ff0000;stroke:#ff0000;stroke-linejoin:miter;" x="601.466775" xlink:href="#m569c16627c" y="343.376487"/>
     <use style="fill:#ff0000;stroke:#ff0000;stroke-linejoin:miter;" x="610.146025" xlink:href="#m569c16627c" y="339.172793"/>
     <use style="fill:#ff0000;stroke:#ff0000;stroke-linejoin:miter;" x="621.187765" xlink:href="#m569c16627c" y="335.245779"/>
     <use style="fill:#ff0000;stroke:#ff0000;stroke-linejoin:miter;" x="630.511789" xlink:href="#m569c16627c" y="331.147047"/>
     <use style="fill:#ff0000;stroke:#ff0000;stroke-linejoin:miter;" x="640.35969" xlink:href="#m569c16627c" y="327.09054"/>
     <use style="fill:#ff0000;stroke:#ff0000;stroke-linejoin:miter;" x="650.701247" xlink:href="#m569c16627c" y="323.082292"/>
     <use style="fill:#ff0000;stroke:#ff0000;stroke-linejoin:miter;" x="660.131053" xlink:href="#m569c16627c" y="318.981548"/>
     <use style="fill:#ff0000;stroke:#ff0000;stroke-linejoin:miter;" x="672.180251" xlink:href="#m569c16627c" y="315.096358"/>
     <use style="fill:#ff0000;stroke:#ff0000;stroke-linejoin:miter;" x="682.21957" xlink:href="#m569c16627c" y="311.052318"/>
     <use style="fill:#ff0000;stroke:#ff0000;stroke-linejoin:miter;" x="693.044706" xlink:href="#m569c16627c" y="307.07584"/>
     <use style="fill:#ff0000;stroke:#ff0000;stroke-linejoin:miter;" x="705.184575" xlink:href="#m569c16627c" y="303.171347"/>
     <use style="fill:#ff0000;stroke:#ff0000;stroke-linejoin:miter;" x="715.908965" xlink:href="#m569c16627c" y="299.208139"/>
     <use style="fill:#ff0000;stroke:#ff0000;stroke-linejoin:miter;" x="726.230372" xlink:href="#m569c16627c" y="295.191848"/>
     <use style="fill:#ff0000;stroke:#ff0000;stroke-linejoin:miter;" x="736.244504" xlink:href="#m569c16627c" y="291.138961"/>
     <use style="fill:#ff0000;stroke:#ff0000;stroke-linejoin:miter;" x="746.394644" xlink:href="#m569c16627c" y="287.097334"/>
     <use style="fill:#ff0000;stroke:#ff0000;stroke-linejoin:miter;" x="757.436383" xlink:href="#m569c16627c" y="283.130105"/>
     <use style="fill:#ff0000;stroke:#ff0000;stroke-linejoin:miter;" x="777.600655" xlink:href="#m569c16627c" y="279.913694"/>
     <use style="fill:#ff0000;stroke:#ff0000;stroke-linejoin:miter;" x="788.224299" xlink:href="#m569c16627c" y="275.913488"/>
     <use style="fill:#ff0000;stroke:#ff0000;stroke-linejoin:miter;" x="798.601117" xlink:href="#m569c16627c" y="271.859797"/>
     <use style="fill:#ff0000;stroke:#ff0000;stroke-linejoin:miter;" x="808.549764" xlink:href="#m569c16627c" y="267.846722"/>
     <use style="fill:#ff0000;stroke:#ff0000;stroke-linejoin:miter;" x="818.347293" xlink:href="#m569c16627c" y="263.787401"/>
     <use style="fill:#ff0000;stroke:#ff0000;stroke-linejoin:miter;" x="829.751718" xlink:href="#m569c16627c" y="259.850735"/>
     <use style="fill:#ff0000;stroke:#ff0000;stroke-linejoin:miter;" x="839.206711" xlink:href="#m569c16627c" y="255.735112"/>
     <use style="fill:#ff0000;stroke:#ff0000;stroke-linejoin:miter;" x="848.70704" xlink:href="#m569c16627c" y="251.662118"/>
     <use style="fill:#ff0000;stroke:#ff0000;stroke-linejoin:miter;" x="857.703639" xlink:href="#m569c16627c" y="247.544082"/>
     <use style="fill:#ff0000;stroke:#ff0000;stroke-linejoin:miter;" x="866.750612" xlink:href="#m569c16627c" y="243.426046"/>
     <use style="fill:#ff0000;stroke:#ff0000;stroke-linejoin:miter;" x="877.812501" xlink:href="#m569c16627c" y="239.463241"/>
     <use style="fill:#ff0000;stroke:#ff0000;stroke-linejoin:miter;" x="886.899772" xlink:href="#m569c16627c" y="235.315445"/>
     <use style="fill:#ff0000;stroke:#ff0000;stroke-linejoin:miter;" x="896.148236" xlink:href="#m569c16627c" y="231.232799"/>
     <use style="fill:#ff0000;stroke:#ff0000;stroke-linejoin:miter;" x="907.320945" xlink:href="#m569c16627c" y="227.276026"/>
     <use style="fill:#ff0000;stroke:#ff0000;stroke-linejoin:miter;" x="916.987505" xlink:href="#m569c16627c" y="223.209868"/>
     <use style="fill:#ff0000;stroke:#ff0000;stroke-linejoin:miter;" x="929.626065" xlink:href="#m569c16627c" y="219.380979"/>
     <use style="fill:#ff0000;stroke:#ff0000;stroke-linejoin:miter;" x="939.342997" xlink:href="#m569c16627c" y="215.305973"/>
     <use style="fill:#ff0000;stroke:#ff0000;stroke-linejoin:miter;" x="949.155638" xlink:href="#m569c16627c" y="211.233783"/>
     <use style="fill:#ff0000;stroke:#ff0000;stroke-linejoin:miter;" x="959.13451" xlink:href="#m569c16627c" y="207.193764"/>
     <use style="fill:#ff0000;stroke:#ff0000;stroke-linejoin:miter;" x="969.874012" xlink:href="#m569c16627c" y="203.210852"/>
     <use style="fill:#ff0000;stroke:#ff0000;stroke-linejoin:miter;" x="982.346342" xlink:href="#m569c16627c" y="199.365073"/>
     <use style="fill:#ff0000;stroke:#ff0000;stroke-linejoin:miter;" x="992.365511" xlink:href="#m569c16627c" y="195.316609"/>
     <use style="fill:#ff0000;stroke:#ff0000;stroke-linejoin:miter;" x="1002.354457" xlink:href="#m569c16627c" y="191.264526"/>
     <use style="fill:#ff0000;stroke:#ff0000;stroke-linejoin:miter;" x="1013.426421" xlink:href="#m569c16627c" y="187.312177"/>
     <use style="fill:#ff0000;stroke:#ff0000;stroke-linejoin:miter;" x="1023.370031" xlink:href="#m569c16627c" y="183.269745"/>
     <use style="fill:#ff0000;stroke:#ff0000;stroke-linejoin:miter;" x="1033.439574" xlink:href="#m569c16627c" y="179.212837"/>
     <use style="fill:#ff0000;stroke:#ff0000;stroke-linejoin:miter;" x="1043.46378" xlink:href="#m569c16627c" y="175.183676"/>
     <use style="fill:#ff0000;stroke:#ff0000;stroke-linejoin:miter;" x="1053.48295" xlink:href="#m569c16627c" y="171.128778"/>
     <use style="fill:#ff0000;stroke:#ff0000;stroke-linejoin:miter;" x="1064.549876" xlink:href="#m569c16627c" y="167.162354"/>
     <use style="fill:#ff0000;stroke:#ff0000;stroke-linejoin:miter;" x="1075.284341" xlink:href="#m569c16627c" y="163.182658"/>
     <use style="fill:#ff0000;stroke:#ff0000;stroke-linejoin:miter;" x="1086.003694" xlink:href="#m569c16627c" y="159.191702"/>
     <use style="fill:#ff0000;stroke:#ff0000;stroke-linejoin:miter;" x="1096.838905" xlink:href="#m569c16627c" y="155.185062"/>
     <use style="fill:#ff0000;stroke:#ff0000;stroke-linejoin:miter;" x="1106.465166" xlink:href="#m569c16627c" y="151.105231"/>
     <use style="fill:#ff0000;stroke:#ff0000;stroke-linejoin:miter;" x="1115.985644" xlink:href="#m569c16627c" y="147.018965"/>
     <use style="fill:#ff0000;stroke:#ff0000;stroke-linejoin:miter;" x="1125.365078" xlink:href="#m569c16627c" y="142.93471"/>
     <use style="fill:#ff0000;stroke:#ff0000;stroke-linejoin:miter;" x="1134.638728" xlink:href="#m569c16627c" y="138.821098"/>
     <use style="fill:#ff0000;stroke:#ff0000;stroke-linejoin:miter;" x="1143.821708" xlink:href="#m569c16627c" y="134.711105"/>
     <use style="fill:#ff0000;stroke:#ff0000;stroke-linejoin:miter;" x="1152.903942" xlink:href="#m569c16627c" y="130.55406"/>
     <use style="fill:#ff0000;stroke:#ff0000;stroke-linejoin:miter;" x="1161.547931" xlink:href="#m569c16627c" y="126.19795"/>
     <use style="fill:#ff0000;stroke:#ff0000;stroke-linejoin:miter;" x="1170.227182" xlink:href="#m569c16627c" y="122.044525"/>
     <use style="fill:#ff0000;stroke:#ff0000;stroke-linejoin:miter;" x="1178.866134" xlink:href="#m569c16627c" y="117.901154"/>
     <use style="fill:#ff0000;stroke:#ff0000;stroke-linejoin:miter;" x="1187.540347" xlink:href="#m569c16627c" y="113.743305"/>
     <use style="fill:#ff0000;stroke:#ff0000;stroke-linejoin:miter;" x="1196.219598" xlink:href="#m569c16627c" y="109.58988"/>
     <use style="fill:#ff0000;stroke:#ff0000;stroke-linejoin:miter;" x="1205.221235" xlink:href="#m569c16627c" y="105.461388"/>
     <use style="fill:#ff0000;stroke:#ff0000;stroke-linejoin:miter;" x="1215.159808" xlink:href="#m569c16627c" y="101.419359"/>
     <use style="fill:#ff0000;stroke:#ff0000;stroke-linejoin:miter;" x="1225.103418" xlink:href="#m569c16627c" y="97.368482"/>
     <use style="fill:#ff0000;stroke:#ff0000;stroke-linejoin:miter;" x="1235.837883" xlink:href="#m569c16627c" y="93.38195"/>
     <use style="fill:#ff0000;stroke:#ff0000;stroke-linejoin:miter;" x="1245.272727" xlink:href="#m569c16627c" y="89.28"/>
    </g>
   </g>
   <g id="line2d_16">
    <path clip-path="url(#p0a09c9b8c1)" d="M 230.727273 463.970192 
L 247.828872 476.386231 
L 258.709418 473.935919 
L 269.322988 472.003579 
L 280.198497 477.577807 
L 290.197518 473.572374 
L 299.410721 464.612831 
L 308.487918 460.495197 
L 317.771643 456.387215 
L 326.576826 452.24505 
L 335.356822 448.102081 
L 346.166846 444.111125 
L 355.430422 439.991883 
L 366.945667 436.087792 
L 376.032938 431.932356 
L 385.820393 427.911238 
L 398.307834 424.045352 
L 408.825696 420.046755 
L 421.061273 416.182879 
L 430.979697 412.125568 
L 440.953531 408.081528 
L 451.012999 404.037086 
L 460.931423 399.989829 
L 471.958051 396.023807 
L 481.841213 391.96167 
L 491.7546 387.915619 
L 502.917235 383.955227 
L 514.513076 380.038267 
L 525.524592 376.072244 
L 536.566331 372.101396 
L 546.49483 368.056954 
L 555.959898 363.960634 
L 565.445115 359.876379 
L 574.623057 355.746681 
L 583.695216 351.642318 
L 592.676704 347.524685 
L 601.466775 343.376487 
L 610.146025 339.172793 
L 621.187765 335.245779 
L 630.511789 331.147047 
L 640.35969 327.09054 
L 650.701247 323.082292 
L 660.131053 318.981548 
L 672.180251 315.096358 
L 682.21957 311.052318 
L 693.044706 307.07584 
L 705.184575 303.171347 
L 715.908965 299.208139 
L 726.230372 295.191848 
L 736.244504 291.138961 
L 746.394644 287.097334 
L 757.436383 283.130105 
L 777.600655 279.913694 
L 788.224299 275.913488 
L 798.601117 271.859797 
L 808.549764 267.846722 
L 818.347293 263.787401 
L 829.751718 259.850735 
L 839.206711 255.735112 
L 848.70704 251.662118 
L 857.703639 247.544082 
L 866.750612 243.426046 
L 877.812501 239.463241 
L 886.899772 235.315445 
L 896.148236 231.232799 
L 907.320945 227.276026 
L 916.987505 223.209868 
L 929.626065 219.380979 
L 939.342997 215.305973 
L 949.155638 211.233783 
L 959.13451 207.193764 
L 969.874012 203.210852 
L 982.346342 199.365073 
L 992.365511 195.316609 
L 1002.354457 191.264526 
L 1013.426421 187.312177 
L 1023.370031 183.269745 
L 1033.439574 179.212837 
L 1043.46378 175.183676 
L 1053.48295 171.128778 
L 1064.549876 167.162354 
L 1075.284341 163.182658 
L 1086.003694 159.191702 
L 1096.838905 155.185062 
L 1106.465166 151.105231 
L 1115.985644 147.018965 
L 1125.365078 142.93471 
L 1134.638728 138.821098 
L 1143.821708 134.711105 
L 1152.903942 130.55406 
L 1161.547931 126.19795 
L 1170.227182 122.044525 
L 1178.866134 117.901154 
L 1187.540347 113.743305 
L 1196.219598 109.58988 
L 1205.221235 105.461388 
L 1215.159808 101.419359 
L 1225.103418 97.368482 
L 1235.837883 93.38195 
L 1245.272727 89.28 
" style="fill:none;stroke:#800080;stroke-dasharray:9.6,2.4,1.5,2.4;stroke-dashoffset:0;stroke-width:1.5;"/>
    <defs>
     <path d="M -3 3 
L 3 -3 
M -3 -3 
L 3 3 
" id="ma22f30a25f" style="stroke:#800080;"/>
    </defs>
    <g clip-path="url(#p0a09c9b8c1)">
     <use style="fill:#800080;stroke:#800080;" x="230.727273" xlink:href="#ma22f30a25f" y="463.970192"/>
     <use style="fill:#800080;stroke:#800080;" x="247.828872" xlink:href="#ma22f30a25f" y="476.386231"/>
     <use style="fill:#800080;stroke:#800080;" x="258.709418" xlink:href="#ma22f30a25f" y="473.935919"/>
     <use style="fill:#800080;stroke:#800080;" x="269.322988" xlink:href="#ma22f30a25f" y="472.003579"/>
     <use style="fill:#800080;stroke:#800080;" x="280.198497" xlink:href="#ma22f30a25f" y="477.577807"/>
     <use style="fill:#800080;stroke:#800080;" x="290.197518" xlink:href="#ma22f30a25f" y="473.572374"/>
     <use style="fill:#800080;stroke:#800080;" x="299.410721" xlink:href="#ma22f30a25f" y="464.612831"/>
     <use style="fill:#800080;stroke:#800080;" x="308.487918" xlink:href="#ma22f30a25f" y="460.495197"/>
     <use style="fill:#800080;stroke:#800080;" x="317.771643" xlink:href="#ma22f30a25f" y="456.387215"/>
     <use style="fill:#800080;stroke:#800080;" x="326.576826" xlink:href="#ma22f30a25f" y="452.24505"/>
     <use style="fill:#800080;stroke:#800080;" x="335.356822" xlink:href="#ma22f30a25f" y="448.102081"/>
     <use style="fill:#800080;stroke:#800080;" x="346.166846" xlink:href="#ma22f30a25f" y="444.111125"/>
     <use style="fill:#800080;stroke:#800080;" x="355.430422" xlink:href="#ma22f30a25f" y="439.991883"/>
     <use style="fill:#800080;stroke:#800080;" x="366.945667" xlink:href="#ma22f30a25f" y="436.087792"/>
     <use style="fill:#800080;stroke:#800080;" x="376.032938" xlink:href="#ma22f30a25f" y="431.932356"/>
     <use style="fill:#800080;stroke:#800080;" x="385.820393" xlink:href="#ma22f30a25f" y="427.911238"/>
     <use style="fill:#800080;stroke:#800080;" x="398.307834" xlink:href="#ma22f30a25f" y="424.045352"/>
     <use style="fill:#800080;stroke:#800080;" x="408.825696" xlink:href="#ma22f30a25f" y="420.046755"/>
     <use style="fill:#800080;stroke:#800080;" x="421.061273" xlink:href="#ma22f30a25f" y="416.182879"/>
     <use style="fill:#800080;stroke:#800080;" x="430.979697" xlink:href="#ma22f30a25f" y="412.125568"/>
     <use style="fill:#800080;stroke:#800080;" x="440.953531" xlink:href="#ma22f30a25f" y="408.081528"/>
     <use style="fill:#800080;stroke:#800080;" x="451.012999" xlink:href="#ma22f30a25f" y="404.037086"/>
     <use style="fill:#800080;stroke:#800080;" x="460.931423" xlink:href="#ma22f30a25f" y="399.989829"/>
     <use style="fill:#800080;stroke:#800080;" x="471.958051" xlink:href="#ma22f30a25f" y="396.023807"/>
     <use style="fill:#800080;stroke:#800080;" x="481.841213" xlink:href="#ma22f30a25f" y="391.96167"/>
     <use style="fill:#800080;stroke:#800080;" x="491.7546" xlink:href="#ma22f30a25f" y="387.915619"/>
     <use style="fill:#800080;stroke:#800080;" x="502.917235" xlink:href="#ma22f30a25f" y="383.955227"/>
     <use style="fill:#800080;stroke:#800080;" x="514.513076" xlink:href="#ma22f30a25f" y="380.038267"/>
     <use style="fill:#800080;stroke:#800080;" x="525.524592" xlink:href="#ma22f30a25f" y="376.072244"/>
     <use style="fill:#800080;stroke:#800080;" x="536.566331" xlink:href="#ma22f30a25f" y="372.101396"/>
     <use style="fill:#800080;stroke:#800080;" x="546.49483" xlink:href="#ma22f30a25f" y="368.056954"/>
     <use style="fill:#800080;stroke:#800080;" x="555.959898" xlink:href="#ma22f30a25f" y="363.960634"/>
     <use style="fill:#800080;stroke:#800080;" x="565.445115" xlink:href="#ma22f30a25f" y="359.876379"/>
     <use style="fill:#800080;stroke:#800080;" x="574.623057" xlink:href="#ma22f30a25f" y="355.746681"/>
     <use style="fill:#800080;stroke:#800080;" x="583.695216" xlink:href="#ma22f30a25f" y="351.642318"/>
     <use style="fill:#800080;stroke:#800080;" x="592.676704" xlink:href="#ma22f30a25f" y="347.524685"/>
     <use style="fill:#800080;stroke:#800080;" x="601.466775" xlink:href="#ma22f30a25f" y="343.376487"/>
     <use style="fill:#800080;stroke:#800080;" x="610.146025" xlink:href="#ma22f30a25f" y="339.172793"/>
     <use style="fill:#800080;stroke:#800080;" x="621.187765" xlink:href="#ma22f30a25f" y="335.245779"/>
     <use style="fill:#800080;stroke:#800080;" x="630.511789" xlink:href="#ma22f30a25f" y="331.147047"/>
     <use style="fill:#800080;stroke:#800080;" x="640.35969" xlink:href="#ma22f30a25f" y="327.09054"/>
     <use style="fill:#800080;stroke:#800080;" x="650.701247" xlink:href="#ma22f30a25f" y="323.082292"/>
     <use style="fill:#800080;stroke:#800080;" x="660.131053" xlink:href="#ma22f30a25f" y="318.981548"/>
     <use style="fill:#800080;stroke:#800080;" x="672.180251" xlink:href="#ma22f30a25f" y="315.096358"/>
     <use style="fill:#800080;stroke:#800080;" x="682.21957" xlink:href="#ma22f30a25f" y="311.052318"/>
     <use style="fill:#800080;stroke:#800080;" x="693.044706" xlink:href="#ma22f30a25f" y="307.07584"/>
     <use style="fill:#800080;stroke:#800080;" x="705.184575" xlink:href="#ma22f30a25f" y="303.171347"/>
     <use style="fill:#800080;stroke:#800080;" x="715.908965" xlink:href="#ma22f30a25f" y="299.208139"/>
     <use style="fill:#800080;stroke:#800080;" x="726.230372" xlink:href="#ma22f30a25f" y="295.191848"/>
     <use style="fill:#800080;stroke:#800080;" x="736.244504" xlink:href="#ma22f30a25f" y="291.138961"/>
     <use style="fill:#800080;stroke:#800080;" x="746.394644" xlink:href="#ma22f30a25f" y="287.097334"/>
     <use style="fill:#800080;stroke:#800080;" x="757.436383" xlink:href="#ma22f30a25f" y="283.130105"/>
     <use style="fill:#800080;stroke:#800080;" x="777.600655" xlink:href="#ma22f30a25f" y="279.913694"/>
     <use style="fill:#800080;stroke:#800080;" x="788.224299" xlink:href="#ma22f30a25f" y="275.913488"/>
     <use style="fill:#800080;stroke:#800080;" x="798.601117" xlink:href="#ma22f30a25f" y="271.859797"/>
     <use style="fill:#800080;stroke:#800080;" x="808.549764" xlink:href="#ma22f30a25f" y="267.846722"/>
     <use style="fill:#800080;stroke:#800080;" x="818.347293" xlink:href="#ma22f30a25f" y="263.787401"/>
     <use style="fill:#800080;stroke:#800080;" x="829.751718" xlink:href="#ma22f30a25f" y="259.850735"/>
     <use style="fill:#800080;stroke:#800080;" x="839.206711" xlink:href="#ma22f30a25f" y="255.735112"/>
     <use style="fill:#800080;stroke:#800080;" x="848.70704" xlink:href="#ma22f30a25f" y="251.662118"/>
     <use style="fill:#800080;stroke:#800080;" x="857.703639" xlink:href="#ma22f30a25f" y="247.544082"/>
     <use style="fill:#800080;stroke:#800080;" x="866.750612" xlink:href="#ma22f30a25f" y="243.426046"/>
     <use style="fill:#800080;stroke:#800080;" x="877.812501" xlink:href="#ma22f30a25f" y="239.463241"/>
     <use style="fill:#800080;stroke:#800080;" x="886.899772" xlink:href="#ma22f30a25f" y="235.315445"/>
     <use style="fill:#800080;stroke:#800080;" x="896.148236" xlink:href="#ma22f30a25f" y="231.232799"/>
     <use style="fill:#800080;stroke:#800080;" x="907.320945" xlink:href="#ma22f30a25f" y="227.276026"/>
     <use style="fill:#800080;stroke:#800080;" x="916.987505" xlink:href="#ma22f30a25f" y="223.209868"/>
     <use style="fill:#800080;stroke:#800080;" x="929.626065" xlink:href="#ma22f30a25f" y="219.380979"/>
     <use style="fill:#800080;stroke:#800080;" x="939.342997" xlink:href="#ma22f30a25f" y="215.305973"/>
     <use style="fill:#800080;stroke:#800080;" x="949.155638" xlink:href="#ma22f30a25f" y="211.233783"/>
     <use style="fill:#800080;stroke:#800080;" x="959.13451" xlink:href="#ma22f30a25f" y="207.193764"/>
     <use style="fill:#800080;stroke:#800080;" x="969.874012" xlink:href="#ma22f30a25f" y="203.210852"/>
     <use style="fill:#800080;stroke:#800080;" x="982.346342" xlink:href="#ma22f30a25f" y="199.365073"/>
     <use style="fill:#800080;stroke:#800080;" x="992.365511" xlink:href="#ma22f30a25f" y="195.316609"/>
     <use style="fill:#800080;stroke:#800080;" x="1002.354457" xlink:href="#ma22f30a25f" y="191.264526"/>
     <use style="fill:#800080;stroke:#800080;" x="1013.426421" xlink:href="#ma22f30a25f" y="187.312177"/>
     <use style="fill:#800080;stroke:#800080;" x="1023.370031" xlink:href="#ma22f30a25f" y="183.269745"/>
     <use style="fill:#800080;stroke:#800080;" x="1033.439574" xlink:href="#ma22f30a25f" y="179.212837"/>
     <use style="fill:#800080;stroke:#800080;" x="1043.46378" xlink:href="#ma22f30a25f" y="175.183676"/>
     <use style="fill:#800080;stroke:#800080;" x="1053.48295" xlink:href="#ma22f30a25f" y="171.128778"/>
     <use style="fill:#800080;stroke:#800080;" x="1064.549876" xlink:href="#ma22f30a25f" y="167.162354"/>
     <use style="fill:#800080;stroke:#800080;" x="1075.284341" xlink:href="#ma22f30a25f" y="163.182658"/>
     <use style="fill:#800080;stroke:#800080;" x="1086.003694" xlink:href="#ma22f30a25f" y="159.191702"/>
     <use style="fill:#800080;stroke:#800080;" x="1096.838905" xlink:href="#ma22f30a25f" y="155.185062"/>
     <use style="fill:#800080;stroke:#800080;" x="1106.465166" xlink:href="#ma22f30a25f" y="151.105231"/>
     <use style="fill:#800080;stroke:#800080;" x="1115.985644" xlink:href="#ma22f30a25f" y="147.018965"/>
     <use style="fill:#800080;stroke:#800080;" x="1125.365078" xlink:href="#ma22f30a25f" y="142.93471"/>
     <use style="fill:#800080;stroke:#800080;" x="1134.638728" xlink:href="#ma22f30a25f" y="138.821098"/>
     <use style="fill:#800080;stroke:#800080;" x="1143.821708" xlink:href="#ma22f30a25f" y="134.711105"/>
     <use style="fill:#800080;stroke:#800080;" x="1152.903942" xlink:href="#ma22f30a25f" y="130.55406"/>
     <use style="fill:#800080;stroke:#800080;" x="1161.547931" xlink:href="#ma22f30a25f" y="126.19795"/>
     <use style="fill:#800080;stroke:#800080;" x="1170.227182" xlink:href="#ma22f30a25f" y="122.044525"/>
     <use style="fill:#800080;stroke:#800080;" x="1178.866134" xlink:href="#ma22f30a25f" y="117.901154"/>
     <use style="fill:#800080;stroke:#800080;" x="1187.540347" xlink:href="#ma22f30a25f" y="113.743305"/>
     <use style="fill:#800080;stroke:#800080;" x="1196.219598" xlink:href="#ma22f30a25f" y="109.58988"/>
     <use style="fill:#800080;stroke:#800080;" x="1205.221235" xlink:href="#ma22f30a25f" y="105.461388"/>
     <use style="fill:#800080;stroke:#800080;" x="1215.159808" xlink:href="#ma22f30a25f" y="101.419359"/>
     <use style="fill:#800080;stroke:#800080;" x="1225.103418" xlink:href="#ma22f30a25f" y="97.368482"/>
     <use style="fill:#800080;stroke:#800080;" x="1235.837883" xlink:href="#ma22f30a25f" y="93.38195"/>
     <use style="fill:#800080;stroke:#800080;" x="1245.272727" xlink:href="#ma22f30a25f" y="89.28"/>
    </g>
   </g>
   <g id="line2d_17">
    <path clip-path="url(#p0a09c9b8c1)" d="M 230.727273 488.68697 
L 247.828872 482.053415 
L 258.709418 477.83295 
L 269.322988 473.716042 
L 280.198497 469.49753 
L 290.197518 465.619001 
L 299.410721 462.045283 
L 308.487918 458.52432 
L 317.771643 454.923247 
L 326.576826 451.507797 
L 335.356822 448.102116 
L 346.166846 443.909005 
L 355.430422 440.315748 
L 366.945667 435.849089 
L 376.032938 432.324219 
L 385.820393 428.527754 
L 398.307834 423.683988 
L 408.825696 419.604205 
L 421.061273 414.858135 
L 430.979697 411.010868 
L 440.953531 407.142108 
L 451.012999 403.240132 
L 460.931423 399.392865 
L 471.958051 395.115736 
L 481.841213 391.282147 
L 491.7546 387.436834 
L 502.917235 383.106949 
L 514.513076 378.609027 
L 525.524592 374.33776 
L 536.566331 370.054769 
L 546.49483 366.203594 
L 555.959898 362.53218 
L 565.445115 358.85295 
L 574.623057 355.29291 
L 583.695216 351.773901 
L 592.676704 348.290064 
L 601.466775 344.880475 
L 610.146025 341.513872 
L 621.187765 337.230881 
L 630.511789 333.614177 
L 640.35969 329.794265 
L 650.701247 325.782869 
L 660.131053 322.125132 
L 672.180251 317.451358 
L 682.21957 313.557197 
L 693.044706 309.358224 
L 705.184575 304.649279 
L 715.908965 300.489385 
L 726.230372 296.485805 
L 736.244504 292.601414 
L 746.394644 288.664267 
L 757.436383 284.381276 
L 777.600655 276.559737 
L 788.224299 272.438922 
L 798.601117 268.413848 
L 808.549764 264.554858 
L 818.347293 260.754485 
L 829.751718 256.330812 
L 839.206711 252.663306 
L 848.70704 248.978215 
L 857.703639 245.488515 
L 866.750612 241.979276 
L 877.812501 237.68847 
L 886.899772 234.1636 
L 896.148236 230.576204 
L 907.320945 226.242411 
L 916.987505 222.492841 
L 929.626065 217.590457 
L 939.342997 213.821347 
L 949.155638 210.015113 
L 959.13451 206.144399 
L 969.874012 201.978643 
L 982.346342 197.140739 
L 992.365511 193.254394 
L 1002.354457 189.379773 
L 1013.426421 185.085058 
L 1023.370031 181.228022 
L 1033.439574 177.322138 
L 1043.46378 173.433838 
L 1053.48295 169.547493 
L 1064.549876 165.254733 
L 1075.284341 161.090931 
L 1086.003694 156.932991 
L 1096.838905 152.730111 
L 1106.465166 148.996172 
L 1115.985644 145.303264 
L 1125.365078 141.665067 
L 1134.638728 138.067902 
L 1143.821708 134.505907 
L 1152.903942 130.982991 
L 1161.547931 127.630066 
L 1170.227182 124.263463 
L 1178.866134 120.912492 
L 1187.540347 117.547843 
L 1196.219598 114.18124 
L 1205.221235 110.689586 
L 1215.159808 106.834504 
L 1225.103418 102.977468 
L 1235.837883 98.813666 
L 1245.272727 95.153975 
" style="fill:none;stroke:#0000ff;stroke-linecap:square;stroke-width:1.5;"/>
   </g>
   <g id="line2d_18">
    <path clip-path="url(#p0a09c9b8c1)" d="M 230.727273 492.48 
L 247.828872 492.46635 
L 258.709418 492.457665 
L 269.322988 492.449193 
L 280.198497 492.440512 
L 290.197518 492.432531 
L 299.410721 492.425177 
L 308.487918 492.417932 
L 317.771643 492.410521 
L 326.576826 492.403493 
L 335.356822 492.396485 
L 346.166846 492.387856 
L 355.430422 492.380462 
L 366.945667 492.371271 
L 376.032938 492.364017 
L 385.820393 492.356205 
L 398.307834 492.346237 
L 408.825696 492.337842 
L 421.061273 492.328076 
L 430.979697 492.320159 
L 440.953531 492.312198 
L 451.012999 492.304168 
L 460.931423 492.296251 
L 471.958051 492.28745 
L 481.841213 492.279561 
L 491.7546 492.271648 
L 502.917235 492.262738 
L 514.513076 492.253483 
L 525.524592 492.244693 
L 536.566331 492.23588 
L 546.49483 492.227955 
L 555.959898 492.2204 
L 565.445115 492.212829 
L 574.623057 492.205503 
L 583.695216 492.198262 
L 592.676704 492.191093 
L 601.466775 492.184076 
L 610.146025 492.177149 
L 621.187765 492.168335 
L 630.511789 492.160893 
L 640.35969 492.153032 
L 650.701247 492.144777 
L 660.131053 492.137251 
L 672.180251 492.127633 
L 682.21957 492.11962 
L 693.044706 492.110979 
L 705.184575 492.101289 
L 715.908965 492.092729 
L 726.230372 492.08449 
L 736.244504 492.076497 
L 746.394644 492.068395 
L 757.436383 492.059582 
L 777.600655 492.043487 
L 788.224299 492.035007 
L 798.601117 492.026724 
L 808.549764 492.018783 
L 818.347293 492.010963 
L 829.751718 492.00186 
L 839.206711 491.994313 
L 848.70704 491.98673 
L 857.703639 491.979549 
L 866.750612 491.972327 
L 877.812501 491.963498 
L 886.899772 491.956244 
L 896.148236 491.948862 
L 907.320945 491.939944 
L 916.987505 491.932228 
L 929.626065 491.92214 
L 939.342997 491.914384 
L 949.155638 491.906552 
L 959.13451 491.898587 
L 969.874012 491.890014 
L 982.346342 491.880059 
L 992.365511 491.872062 
L 1002.354457 491.864089 
L 1013.426421 491.855251 
L 1023.370031 491.847314 
L 1033.439574 491.839276 
L 1043.46378 491.831275 
L 1053.48295 491.823278 
L 1064.549876 491.814444 
L 1075.284341 491.805876 
L 1086.003694 491.79732 
L 1096.838905 491.788671 
L 1106.465166 491.780988 
L 1115.985644 491.773388 
L 1125.365078 491.765902 
L 1134.638728 491.758499 
L 1143.821708 491.75117 
L 1152.903942 491.74392 
L 1161.547931 491.737021 
L 1170.227182 491.730093 
L 1178.866134 491.723197 
L 1187.540347 491.716273 
L 1196.219598 491.709346 
L 1205.221235 491.702161 
L 1215.159808 491.694228 
L 1225.103418 491.686291 
L 1235.837883 491.677722 
L 1245.272727 491.670192 
" style="fill:none;stroke:#008000;stroke-linecap:square;stroke-width:1.5;"/>
    <defs>
     <path d="M 0 3 
C 0.795609 3 1.55874 2.683901 2.12132 2.12132 
C 2.683901 1.55874 3 0.795609 3 0 
C 3 -0.795609 2.683901 -1.55874 2.12132 -2.12132 
C 1.55874 -2.683901 0.795609 -3 0 -3 
C -0.795609 -3 -1.55874 -2.683901 -2.12132 -2.12132 
C -2.683901 -1.55874 -3 -0.795609 -3 0 
C -3 0.795609 -2.683901 1.55874 -2.12132 2.12132 
C -1.55874 2.683901 -0.795609 3 0 3 
z
" id="m977cf21543" style="stroke:#008000;"/>
    </defs>
    <g clip-path="url(#p0a09c9b8c1)">
     <use style="fill:#008000;stroke:#008000;" x="230.727273" xlink:href="#m977cf21543" y="492.48"/>
     <use style="fill:#008000;stroke:#008000;" x="247.828872" xlink:href="#m977cf21543" y="492.46635"/>
     <use style="fill:#008000;stroke:#008000;" x="258.709418" xlink:href="#m977cf21543" y="492.457665"/>
     <use style="fill:#008000;stroke:#008000;" x="269.322988" xlink:href="#m977cf21543" y="492.449193"/>
     <use style="fill:#008000;stroke:#008000;" x="280.198497" xlink:href="#m977cf21543" y="492.440512"/>
     <use style="fill:#008000;stroke:#008000;" x="290.197518" xlink:href="#m977cf21543" y="492.432531"/>
     <use style="fill:#008000;stroke:#008000;" x="299.410721" xlink:href="#m977cf21543" y="492.425177"/>
     <use style="fill:#008000;stroke:#008000;" x="308.487918" xlink:href="#m977cf21543" y="492.417932"/>
     <use style="fill:#008000;stroke:#008000;" x="317.771643" xlink:href="#m977cf21543" y="492.410521"/>
     <use style="fill:#008000;stroke:#008000;" x="326.576826" xlink:href="#m977cf21543" y="492.403493"/>
     <use style="fill:#008000;stroke:#008000;" x="335.356822" xlink:href="#m977cf21543" y="492.396485"/>
     <use style="fill:#008000;stroke:#008000;" x="346.166846" xlink:href="#m977cf21543" y="492.387856"/>
     <use style="fill:#008000;stroke:#008000;" x="355.430422" xlink:href="#m977cf21543" y="492.380462"/>
     <use style="fill:#008000;stroke:#008000;" x="366.945667" xlink:href="#m977cf21543" y="492.371271"/>
     <use style="fill:#008000;stroke:#008000;" x="376.032938" xlink:href="#m977cf21543" y="492.364017"/>
     <use style="fill:#008000;stroke:#008000;" x="385.820393" xlink:href="#m977cf21543" y="492.356205"/>
     <use style="fill:#008000;stroke:#008000;" x="398.307834" xlink:href="#m977cf21543" y="492.346237"/>
     <use style="fill:#008000;stroke:#008000;" x="408.825696" xlink:href="#m977cf21543" y="492.337842"/>
     <use style="fill:#008000;stroke:#008000;" x="421.061273" xlink:href="#m977cf21543" y="492.328076"/>
     <use style="fill:#008000;stroke:#008000;" x="430.979697" xlink:href="#m977cf21543" y="492.320159"/>
     <use style="fill:#008000;stroke:#008000;" x="440.953531" xlink:href="#m977cf21543" y="492.312198"/>
     <use style="fill:#008000;stroke:#008000;" x="451.012999" xlink:href="#m977cf21543" y="492.304168"/>
     <use style="fill:#008000;stroke:#008000;" x="460.931423" xlink:href="#m977cf21543" y="492.296251"/>
     <use style="fill:#008000;stroke:#008000;" x="471.958051" xlink:href="#m977cf21543" y="492.28745"/>
     <use style="fill:#008000;stroke:#008000;" x="481.841213" xlink:href="#m977cf21543" y="492.279561"/>
     <use style="fill:#008000;stroke:#008000;" x="491.7546" xlink:href="#m977cf21543" y="492.271648"/>
     <use style="fill:#008000;stroke:#008000;" x="502.917235" xlink:href="#m977cf21543" y="492.262738"/>
     <use style="fill:#008000;stroke:#008000;" x="514.513076" xlink:href="#m977cf21543" y="492.253483"/>
     <use style="fill:#008000;stroke:#008000;" x="525.524592" xlink:href="#m977cf21543" y="492.244693"/>
     <use style="fill:#008000;stroke:#008000;" x="536.566331" xlink:href="#m977cf21543" y="492.23588"/>
     <use style="fill:#008000;stroke:#008000;" x="546.49483" xlink:href="#m977cf21543" y="492.227955"/>
     <use style="fill:#008000;stroke:#008000;" x="555.959898" xlink:href="#m977cf21543" y="492.2204"/>
     <use style="fill:#008000;stroke:#008000;" x="565.445115" xlink:href="#m977cf21543" y="492.212829"/>
     <use style="fill:#008000;stroke:#008000;" x="574.623057" xlink:href="#m977cf21543" y="492.205503"/>
     <use style="fill:#008000;stroke:#008000;" x="583.695216" xlink:href="#m977cf21543" y="492.198262"/>
     <use style="fill:#008000;stroke:#008000;" x="592.676704" xlink:href="#m977cf21543" y="492.191093"/>
     <use style="fill:#008000;stroke:#008000;" x="601.466775" xlink:href="#m977cf21543" y="492.184076"/>
     <use style="fill:#008000;stroke:#008000;" x="610.146025" xlink:href="#m977cf21543" y="492.177149"/>
     <use style="fill:#008000;stroke:#008000;" x="621.187765" xlink:href="#m977cf21543" y="492.168335"/>
     <use style="fill:#008000;stroke:#008000;" x="630.511789" xlink:href="#m977cf21543" y="492.160893"/>
     <use style="fill:#008000;stroke:#008000;" x="640.35969" xlink:href="#m977cf21543" y="492.153032"/>
     <use style="fill:#008000;stroke:#008000;" x="650.701247" xlink:href="#m977cf21543" y="492.144777"/>
     <use style="fill:#008000;stroke:#008000;" x="660.131053" xlink:href="#m977cf21543" y="492.137251"/>
     <use style="fill:#008000;stroke:#008000;" x="672.180251" xlink:href="#m977cf21543" y="492.127633"/>
     <use style="fill:#008000;stroke:#008000;" x="682.21957" xlink:href="#m977cf21543" y="492.11962"/>
     <use style="fill:#008000;stroke:#008000;" x="693.044706" xlink:href="#m977cf21543" y="492.110979"/>
     <use style="fill:#008000;stroke:#008000;" x="705.184575" xlink:href="#m977cf21543" y="492.101289"/>
     <use style="fill:#008000;stroke:#008000;" x="715.908965" xlink:href="#m977cf21543" y="492.092729"/>
     <use style="fill:#008000;stroke:#008000;" x="726.230372" xlink:href="#m977cf21543" y="492.08449"/>
     <use style="fill:#008000;stroke:#008000;" x="736.244504" xlink:href="#m977cf21543" y="492.076497"/>
     <use style="fill:#008000;stroke:#008000;" x="746.394644" xlink:href="#m977cf21543" y="492.068395"/>
     <use style="fill:#008000;stroke:#008000;" x="757.436383" xlink:href="#m977cf21543" y="492.059582"/>
     <use style="fill:#008000;stroke:#008000;" x="777.600655" xlink:href="#m977cf21543" y="492.043487"/>
     <use style="fill:#008000;stroke:#008000;" x="788.224299" xlink:href="#m977cf21543" y="492.035007"/>
     <use style="fill:#008000;stroke:#008000;" x="798.601117" xlink:href="#m977cf21543" y="492.026724"/>
     <use style="fill:#008000;stroke:#008000;" x="808.549764" xlink:href="#m977cf21543" y="492.018783"/>
     <use style="fill:#008000;stroke:#008000;" x="818.347293" xlink:href="#m977cf21543" y="492.010963"/>
     <use style="fill:#008000;stroke:#008000;" x="829.751718" xlink:href="#m977cf21543" y="492.00186"/>
     <use style="fill:#008000;stroke:#008000;" x="839.206711" xlink:href="#m977cf21543" y="491.994313"/>
     <use style="fill:#008000;stroke:#008000;" x="848.70704" xlink:href="#m977cf21543" y="491.98673"/>
     <use style="fill:#008000;stroke:#008000;" x="857.703639" xlink:href="#m977cf21543" y="491.979549"/>
     <use style="fill:#008000;stroke:#008000;" x="866.750612" xlink:href="#m977cf21543" y="491.972327"/>
     <use style="fill:#008000;stroke:#008000;" x="877.812501" xlink:href="#m977cf21543" y="491.963498"/>
     <use style="fill:#008000;stroke:#008000;" x="886.899772" xlink:href="#m977cf21543" y="491.956244"/>
     <use style="fill:#008000;stroke:#008000;" x="896.148236" xlink:href="#m977cf21543" y="491.948862"/>
     <use style="fill:#008000;stroke:#008000;" x="907.320945" xlink:href="#m977cf21543" y="491.939944"/>
     <use style="fill:#008000;stroke:#008000;" x="916.987505" xlink:href="#m977cf21543" y="491.932228"/>
     <use style="fill:#008000;stroke:#008000;" x="929.626065" xlink:href="#m977cf21543" y="491.92214"/>
     <use style="fill:#008000;stroke:#008000;" x="939.342997" xlink:href="#m977cf21543" y="491.914384"/>
     <use style="fill:#008000;stroke:#008000;" x="949.155638" xlink:href="#m977cf21543" y="491.906552"/>
     <use style="fill:#008000;stroke:#008000;" x="959.13451" xlink:href="#m977cf21543" y="491.898587"/>
     <use style="fill:#008000;stroke:#008000;" x="969.874012" xlink:href="#m977cf21543" y="491.890014"/>
     <use style="fill:#008000;stroke:#008000;" x="982.346342" xlink:href="#m977cf21543" y="491.880059"/>
     <use style="fill:#008000;stroke:#008000;" x="992.365511" xlink:href="#m977cf21543" y="491.872062"/>
     <use style="fill:#008000;stroke:#008000;" x="1002.354457" xlink:href="#m977cf21543" y="491.864089"/>
     <use style="fill:#008000;stroke:#008000;" x="1013.426421" xlink:href="#m977cf21543" y="491.855251"/>
     <use style="fill:#008000;stroke:#008000;" x="1023.370031" xlink:href="#m977cf21543" y="491.847314"/>
     <use style="fill:#008000;stroke:#008000;" x="1033.439574" xlink:href="#m977cf21543" y="491.839276"/>
     <use style="fill:#008000;stroke:#008000;" x="1043.46378" xlink:href="#m977cf21543" y="491.831275"/>
     <use style="fill:#008000;stroke:#008000;" x="1053.48295" xlink:href="#m977cf21543" y="491.823278"/>
     <use style="fill:#008000;stroke:#008000;" x="1064.549876" xlink:href="#m977cf21543" y="491.814444"/>
     <use style="fill:#008000;stroke:#008000;" x="1075.284341" xlink:href="#m977cf21543" y="491.805876"/>
     <use style="fill:#008000;stroke:#008000;" x="1086.003694" xlink:href="#m977cf21543" y="491.79732"/>
     <use style="fill:#008000;stroke:#008000;" x="1096.838905" xlink:href="#m977cf21543" y="491.788671"/>
     <use style="fill:#008000;stroke:#008000;" x="1106.465166" xlink:href="#m977cf21543" y="491.780988"/>
     <use style="fill:#008000;stroke:#008000;" x="1115.985644" xlink:href="#m977cf21543" y="491.773388"/>
     <use style="fill:#008000;stroke:#008000;" x="1125.365078" xlink:href="#m977cf21543" y="491.765902"/>
     <use style="fill:#008000;stroke:#008000;" x="1134.638728" xlink:href="#m977cf21543" y="491.758499"/>
     <use style="fill:#008000;stroke:#008000;" x="1143.821708" xlink:href="#m977cf21543" y="491.75117"/>
     <use style="fill:#008000;stroke:#008000;" x="1152.903942" xlink:href="#m977cf21543" y="491.74392"/>
     <use style="fill:#008000;stroke:#008000;" x="1161.547931" xlink:href="#m977cf21543" y="491.737021"/>
     <use style="fill:#008000;stroke:#008000;" x="1170.227182" xlink:href="#m977cf21543" y="491.730093"/>
     <use style="fill:#008000;stroke:#008000;" x="1178.866134" xlink:href="#m977cf21543" y="491.723197"/>
     <use style="fill:#008000;stroke:#008000;" x="1187.540347" xlink:href="#m977cf21543" y="491.716273"/>
     <use style="fill:#008000;stroke:#008000;" x="1196.219598" xlink:href="#m977cf21543" y="491.709346"/>
     <use style="fill:#008000;stroke:#008000;" x="1205.221235" xlink:href="#m977cf21543" y="491.702161"/>
     <use style="fill:#008000;stroke:#008000;" x="1215.159808" xlink:href="#m977cf21543" y="491.694228"/>
     <use style="fill:#008000;stroke:#008000;" x="1225.103418" xlink:href="#m977cf21543" y="491.686291"/>
     <use style="fill:#008000;stroke:#008000;" x="1235.837883" xlink:href="#m977cf21543" y="491.677722"/>
     <use style="fill:#008000;stroke:#008000;" x="1245.272727" xlink:href="#m977cf21543" y="491.670192"/>
    </g>
   </g>
   <g id="patch_3">
    <path d="M 180 512.64 
L 180 69.12 
" style="fill:none;stroke:#000000;stroke-linecap:square;stroke-linejoin:miter;stroke-width:0.8;"/>
   </g>
   <g id="patch_4">
    <path d="M 1296 512.64 
L 1296 69.12 
" style="fill:none;stroke:#000000;stroke-linecap:square;stroke-linejoin:miter;stroke-width:0.8;"/>
   </g>
   <g id="patch_5">
    <path d="M 180 512.64 
L 1296 512.64 
" style="fill:none;stroke:#000000;stroke-linecap:square;stroke-linejoin:miter;stroke-width:0.8;"/>
   </g>
   <g id="patch_6">
    <path d="M 180 69.12 
L 1296 69.12 
" style="fill:none;stroke:#000000;stroke-linecap:square;stroke-linejoin:miter;stroke-width:0.8;"/>
   </g>
   <g id="text_15">
    <!-- 5000000.0 bit/s -->
    <defs>
     <path id="DejaVuSans-20"/>
     <path d="M 48.6875 27.296875 
Q 48.6875 37.203125 44.609375 42.84375 
Q 40.53125 48.484375 33.40625 48.484375 
Q 26.265625 48.484375 22.1875 42.84375 
Q 18.109375 37.203125 18.109375 27.296875 
Q 18.109375 17.390625 22.1875 11.75 
Q 26.265625 6.109375 33.40625 6.109375 
Q 40.53125 6.109375 44.609375 11.75 
Q 48.6875 17.390625 48.6875 27.296875 
z
M 18.109375 46.390625 
Q 20.953125 51.265625 25.265625 53.625 
Q 29.59375 56 35.59375 56 
Q 45.5625 56 51.78125 48.09375 
Q 58.015625 40.1875 58.015625 27.296875 
Q 58.015625 14.40625 51.78125 6.484375 
Q 45.5625 -1.421875 35.59375 -1.421875 
Q 29.59375 -1.421875 25.265625 0.953125 
Q 20.953125 3.328125 18.109375 8.203125 
L 18.109375 0 
L 9.078125 0 
L 9.078125 75.984375 
L 18.109375 75.984375 
z
" id="DejaVuSans-62"/>
     <path d="M 9.421875 54.6875 
L 18.40625 54.6875 
L 18.40625 0 
L 9.421875 0 
z
M 9.421875 75.984375 
L 18.40625 75.984375 
L 18.40625 64.59375 
L 9.421875 64.59375 
z
" id="DejaVuSans-69"/>
     <path d="M 18.3125 70.21875 
L 18.3125 54.6875 
L 36.8125 54.6875 
L 36.8125 47.703125 
L 18.3125 47.703125 
L 18.3125 18.015625 
Q 18.3125 11.328125 20.140625 9.421875 
Q 21.96875 7.515625 27.59375 7.515625 
L 36.8125 7.515625 
L 36.8125 0 
L 27.59375 0 
Q 17.1875 0 13.234375 3.875 
Q 9.28125 7.765625 9.28125 18.015625 
L 9.28125 47.703125 
L 2.6875 47.703125 
L 2.6875 54.6875 
L 9.28125 54.6875 
L 9.28125 70.21875 
z
" id="DejaVuSans-74"/>
     <path d="M 25.390625 72.90625 
L 33.6875 72.90625 
L 8.296875 -9.28125 
L 0 -9.28125 
z
" id="DejaVuSans-2f"/>
     <path d="M 44.28125 53.078125 
L 44.28125 44.578125 
Q 40.484375 46.53125 36.375 47.5 
Q 32.28125 48.484375 27.875 48.484375 
Q 21.1875 48.484375 17.84375 46.4375 
Q 14.5 44.390625 14.5 40.28125 
Q 14.5 37.15625 16.890625 35.375 
Q 19.28125 33.59375 26.515625 31.984375 
L 29.59375 31.296875 
Q 39.15625 29.25 43.1875 25.515625 
Q 47.21875 21.78125 47.21875 15.09375 
Q 47.21875 7.46875 41.1875 3.015625 
Q 35.15625 -1.421875 24.609375 -1.421875 
Q 20.21875 -1.421875 15.453125 -0.5625 
Q 10.6875 0.296875 5.421875 2 
L 5.421875 11.28125 
Q 10.40625 8.6875 15.234375 7.390625 
Q 20.0625 6.109375 24.8125 6.109375 
Q 31.15625 6.109375 34.5625 8.28125 
Q 37.984375 10.453125 37.984375 14.40625 
Q 37.984375 18.0625 35.515625 20.015625 
Q 33.0625 21.96875 24.703125 23.78125 
L 21.578125 24.515625 
Q 13.234375 26.265625 9.515625 29.90625 
Q 5.8125 33.546875 5.8125 39.890625 
Q 5.8125 47.609375 11.28125 51.796875 
Q 16.75 56 26.8125 56 
Q 31.78125 56 36.171875 55.265625 
Q 40.578125 54.546875 44.28125 53.078125 
z
" id="DejaVuSans-73"/>
    </defs>
    <g transform="translate(690.67125 63.12)scale(0.12 -0.12)">
     <use xlink:href="#DejaVuSans-35"/>
     <use x="63.623047" xlink:href="#DejaVuSans-30"/>
     <use x="127.246094" xlink:href="#DejaVuSans-30"/>
     <use x="190.869141" xlink:href="#DejaVuSans-30"/>
     <use x="254.492188" xlink:href="#DejaVuSans-30"/>
     <use x="318.115234" xlink:href="#DejaVuSans-30"/>
     <use x="381.738281" xlink:href="#DejaVuSans-30"/>
     <use x="445.361328" xlink:href="#DejaVuSans-2e"/>
     <use x="477.148438" xlink:href="#DejaVuSans-30"/>
     <use x="540.771484" xlink:href="#DejaVuSans-20"/>
     <use x="572.558594" xlink:href="#DejaVuSans-62"/>
     <use x="636.035156" xlink:href="#DejaVuSans-69"/>
     <use x="663.818359" xlink:href="#DejaVuSans-74"/>
     <use x="703.027344" xlink:href="#DejaVuSans-2f"/>
     <use x="736.71875" xlink:href="#DejaVuSans-73"/>
    </g>
   </g>
   <g id="legend_1">
    <g id="patch_7">
     <path d="M 1173.520313 135.8325 
L 1289 135.8325 
Q 1291 135.8325 1291 133.8325 
L 1291 76.12 
Q 1291 74.12 1289 74.12 
L 1173.520313 74.12 
Q 1171.520313 74.12 1171.520313 76.12 
L 1171.520313 133.8325 
Q 1171.520313 135.8325 1173.520313 135.8325 
z
" style="fill:#ffffff;opacity:0.8;stroke:#cccccc;stroke-linejoin:miter;"/>
    </g>
    <g id="line2d_19">
     <path d="M 1175.520313 82.218437 
L 1195.520313 82.218437 
" style="fill:none;stroke:#ff0000;stroke-dasharray:5.55,2.4;stroke-dashoffset:0;stroke-width:1.5;"/>
    </g>
    <g id="line2d_20">
     <g>
      <use style="fill:#ff0000;stroke:#ff0000;stroke-linejoin:miter;" x="1185.520313" xlink:href="#m569c16627c" y="82.218437"/>
     </g>
    </g>
    <g id="text_16">
     <!-- tcpdump -->
     <defs>
      <path d="M 48.78125 52.59375 
L 48.78125 44.1875 
Q 44.96875 46.296875 41.140625 47.34375 
Q 37.3125 48.390625 33.40625 48.390625 
Q 24.65625 48.390625 19.8125 42.84375 
Q 14.984375 37.3125 14.984375 27.296875 
Q 14.984375 17.28125 19.8125 11.734375 
Q 24.65625 6.203125 33.40625 6.203125 
Q 37.3125 6.203125 41.140625 7.25 
Q 44.96875 8.296875 48.78125 10.40625 
L 48.78125 2.09375 
Q 45.015625 0.34375 40.984375 -0.53125 
Q 36.96875 -1.421875 32.421875 -1.421875 
Q 20.0625 -1.421875 12.78125 6.34375 
Q 5.515625 14.109375 5.515625 27.296875 
Q 5.515625 40.671875 12.859375 48.328125 
Q 20.21875 56 33.015625 56 
Q 37.15625 56 41.109375 55.140625 
Q 45.0625 54.296875 48.78125 52.59375 
z
" id="DejaVuSans-63"/>
      <path d="M 18.109375 8.203125 
L 18.109375 -20.796875 
L 9.078125 -20.796875 
L 9.078125 54.6875 
L 18.109375 54.6875 
L 18.109375 46.390625 
Q 20.953125 51.265625 25.265625 53.625 
Q 29.59375 56 35.59375 56 
Q 45.5625 56 51.78125 48.09375 
Q 58.015625 40.1875 58.015625 27.296875 
Q 58.015625 14.40625 51.78125 6.484375 
Q 45.5625 -1.421875 35.59375 -1.421875 
Q 29.59375 -1.421875 25.265625 0.953125 
Q 20.953125 3.328125 18.109375 8.203125 
z
M 48.6875 27.296875 
Q 48.6875 37.203125 44.609375 42.84375 
Q 40.53125 48.484375 33.40625 48.484375 
Q 26.265625 48.484375 22.1875 42.84375 
Q 18.109375 37.203125 18.109375 27.296875 
Q 18.109375 17.390625 22.1875 11.75 
Q 26.265625 6.109375 33.40625 6.109375 
Q 40.53125 6.109375 44.609375 11.75 
Q 48.6875 17.390625 48.6875 27.296875 
z
" id="DejaVuSans-70"/>
      <path d="M 45.40625 46.390625 
L 45.40625 75.984375 
L 54.390625 75.984375 
L 54.390625 0 
L 45.40625 0 
L 45.40625 8.203125 
Q 42.578125 3.328125 38.25 0.953125 
Q 33.9375 -1.421875 27.875 -1.421875 
Q 17.96875 -1.421875 11.734375 6.484375 
Q 5.515625 14.40625 5.515625 27.296875 
Q 5.515625 40.1875 11.734375 48.09375 
Q 17.96875 56 27.875 56 
Q 33.9375 56 38.25 53.625 
Q 42.578125 51.265625 45.40625 46.390625 
z
M 14.796875 27.296875 
Q 14.796875 17.390625 18.875 11.75 
Q 22.953125 6.109375 30.078125 6.109375 
Q 37.203125 6.109375 41.296875 11.75 
Q 45.40625 17.390625 45.40625 27.296875 
Q 45.40625 37.203125 41.296875 42.84375 
Q 37.203125 48.484375 30.078125 48.484375 
Q 22.953125 48.484375 18.875 42.84375 
Q 14.796875 37.203125 14.796875 27.296875 
z
" id="DejaVuSans-64"/>
      <path d="M 8.5 21.578125 
L 8.5 54.6875 
L 17.484375 54.6875 
L 17.484375 21.921875 
Q 17.484375 14.15625 20.5 10.265625 
Q 23.53125 6.390625 29.59375 6.390625 
Q 36.859375 6.390625 41.078125 11.03125 
Q 45.3125 15.671875 45.3125 23.6875 
L 45.3125 54.6875 
L 54.296875 54.6875 
L 54.296875 0 
L 45.3125 0 
L 45.3125 8.40625 
Q 42.046875 3.421875 37.71875 1 
Q 33.40625 -1.421875 27.6875 -1.421875 
Q 18.265625 -1.421875 13.375 4.4375 
Q 8.5 10.296875 8.5 21.578125 
z
M 31.109375 56 
z
" id="DejaVuSans-75"/>
      <path d="M 52 44.1875 
Q 55.375 50.25 60.0625 53.125 
Q 64.75 56 71.09375 56 
Q 79.640625 56 84.28125 50.015625 
Q 88.921875 44.046875 88.921875 33.015625 
L 88.921875 0 
L 79.890625 0 
L 79.890625 32.71875 
Q 79.890625 40.578125 77.09375 44.375 
Q 74.3125 48.1875 68.609375 48.1875 
Q 61.625 48.1875 57.5625 43.546875 
Q 53.515625 38.921875 53.515625 30.90625 
L 53.515625 0 
L 44.484375 0 
L 44.484375 32.71875 
Q 44.484375 40.625 41.703125 44.40625 
Q 38.921875 48.1875 33.109375 48.1875 
Q 26.21875 48.1875 22.15625 43.53125 
Q 18.109375 38.875 18.109375 30.90625 
L 18.109375 0 
L 9.078125 0 
L 9.078125 54.6875 
L 18.109375 54.6875 
L 18.109375 46.1875 
Q 21.1875 51.21875 25.484375 53.609375 
Q 29.78125 56 35.6875 56 
Q 41.65625 56 45.828125 52.96875 
Q 50 49.953125 52 44.1875 
z
" id="DejaVuSans-6d"/>
     </defs>
     <g transform="translate(1203.520313 85.718437)scale(0.1 -0.1)">
      <use xlink:href="#DejaVuSans-74"/>
      <use x="39.208984" xlink:href="#DejaVuSans-63"/>
      <use x="94.189453" xlink:href="#DejaVuSans-70"/>
      <use x="157.666016" xlink:href="#DejaVuSans-64"/>
      <use x="221.142578" xlink:href="#DejaVuSans-75"/>
      <use x="284.521484" xlink:href="#DejaVuSans-6d"/>
      <use x="381.933594" xlink:href="#DejaVuSans-70"/>
     </g>
    </g>
    <g id="line2d_21">
     <path d="M 1175.520313 96.896563 
L 1195.520313 96.896563 
" style="fill:none;stroke:#800080;stroke-dasharray:9.6,2.4,1.5,2.4;stroke-dashoffset:0;stroke-width:1.5;"/>
    </g>
    <g id="line2d_22">
     <g>
      <use style="fill:#800080;stroke:#800080;" x="1185.520313" xlink:href="#ma22f30a25f" y="96.896563"/>
     </g>
    </g>
    <g id="text_17">
     <!-- filtered tcpdump -->
     <defs>
      <path d="M 37.109375 75.984375 
L 37.109375 68.5 
L 28.515625 68.5 
Q 23.6875 68.5 21.796875 66.546875 
Q 19.921875 64.59375 19.921875 59.515625 
L 19.921875 54.6875 
L 34.71875 54.6875 
L 34.71875 47.703125 
L 19.921875 47.703125 
L 19.921875 0 
L 10.890625 0 
L 10.890625 47.703125 
L 2.296875 47.703125 
L 2.296875 54.6875 
L 10.890625 54.6875 
L 10.890625 58.5 
Q 10.890625 67.625 15.140625 71.796875 
Q 19.390625 75.984375 28.609375 75.984375 
z
" id="DejaVuSans-66"/>
      <path d="M 9.421875 75.984375 
L 18.40625 75.984375 
L 18.40625 0 
L 9.421875 0 
z
" id="DejaVuSans-6c"/>
      <path d="M 56.203125 29.59375 
L 56.203125 25.203125 
L 14.890625 25.203125 
Q 15.484375 15.921875 20.484375 11.0625 
Q 25.484375 6.203125 34.421875 6.203125 
Q 39.59375 6.203125 44.453125 7.46875 
Q 49.3125 8.734375 54.109375 11.28125 
L 54.109375 2.78125 
Q 49.265625 0.734375 44.1875 -0.34375 
Q 39.109375 -1.421875 33.890625 -1.421875 
Q 20.796875 -1.421875 13.15625 6.1875 
Q 5.515625 13.8125 5.515625 26.8125 
Q 5.515625 40.234375 12.765625 48.109375 
Q 20.015625 56 32.328125 56 
Q 43.359375 56 49.78125 48.890625 
Q 56.203125 41.796875 56.203125 29.59375 
z
M 47.21875 32.234375 
Q 47.125 39.59375 43.09375 43.984375 
Q 39.0625 48.390625 32.421875 48.390625 
Q 24.90625 48.390625 20.390625 44.140625 
Q 15.875 39.890625 15.1875 32.171875 
z
" id="DejaVuSans-65"/>
      <path d="M 41.109375 46.296875 
Q 39.59375 47.171875 37.8125 47.578125 
Q 36.03125 48 33.890625 48 
Q 26.265625 48 22.1875 43.046875 
Q 18.109375 38.09375 18.109375 28.8125 
L 18.109375 0 
L 9.078125 0 
L 9.078125 54.6875 
L 18.109375 54.6875 
L 18.109375 46.1875 
Q 20.953125 51.171875 25.484375 53.578125 
Q 30.03125 56 36.53125 56 
Q 37.453125 56 38.578125 55.875 
Q 39.703125 55.765625 41.0625 55.515625 
z
" id="DejaVuSans-72"/>
     </defs>
     <g transform="translate(1203.520313 100.396563)scale(0.1 -0.1)">
      <use xlink:href="#DejaVuSans-66"/>
      <use x="35.205078" xlink:href="#DejaVuSans-69"/>
      <use x="62.988281" xlink:href="#DejaVuSans-6c"/>
      <use x="90.771484" xlink:href="#DejaVuSans-74"/>
      <use x="129.980469" xlink:href="#DejaVuSans-65"/>
      <use x="191.503906" xlink:href="#DejaVuSans-72"/>
      <use x="232.585938" xlink:href="#DejaVuSans-65"/>
      <use x="294.109375" xlink:href="#DejaVuSans-64"/>
      <use x="357.585938" xlink:href="#DejaVuSans-20"/>
      <use x="389.373047" xlink:href="#DejaVuSans-74"/>
      <use x="428.582031" xlink:href="#DejaVuSans-63"/>
      <use x="483.5625" xlink:href="#DejaVuSans-70"/>
      <use x="547.039062" xlink:href="#DejaVuSans-64"/>
      <use x="610.515625" xlink:href="#DejaVuSans-75"/>
      <use x="673.894531" xlink:href="#DejaVuSans-6d"/>
      <use x="771.306641" xlink:href="#DejaVuSans-70"/>
     </g>
    </g>
    <g id="line2d_23">
     <path d="M 1175.520313 111.574687 
L 1195.520313 111.574687 
" style="fill:none;stroke:#0000ff;stroke-linecap:square;stroke-width:1.5;"/>
    </g>
    <g id="line2d_24"/>
    <g id="text_18">
     <!-- OLS -->
     <defs>
      <path d="M 39.40625 66.21875 
Q 28.65625 66.21875 22.328125 58.203125 
Q 16.015625 50.203125 16.015625 36.375 
Q 16.015625 22.609375 22.328125 14.59375 
Q 28.65625 6.59375 39.40625 6.59375 
Q 50.140625 6.59375 56.421875 14.59375 
Q 62.703125 22.609375 62.703125 36.375 
Q 62.703125 50.203125 56.421875 58.203125 
Q 50.140625 66.21875 39.40625 66.21875 
z
M 39.40625 74.21875 
Q 54.734375 74.21875 63.90625 63.9375 
Q 73.09375 53.65625 73.09375 36.375 
Q 73.09375 19.140625 63.90625 8.859375 
Q 54.734375 -1.421875 39.40625 -1.421875 
Q 24.03125 -1.421875 14.8125 8.828125 
Q 5.609375 19.09375 5.609375 36.375 
Q 5.609375 53.65625 14.8125 63.9375 
Q 24.03125 74.21875 39.40625 74.21875 
z
" id="DejaVuSans-4f"/>
      <path d="M 9.8125 72.90625 
L 19.671875 72.90625 
L 19.671875 8.296875 
L 55.171875 8.296875 
L 55.171875 0 
L 9.8125 0 
z
" id="DejaVuSans-4c"/>
      <path d="M 53.515625 70.515625 
L 53.515625 60.890625 
Q 47.90625 63.578125 42.921875 64.890625 
Q 37.9375 66.21875 33.296875 66.21875 
Q 25.25 66.21875 20.875 63.09375 
Q 16.5 59.96875 16.5 54.203125 
Q 16.5 49.359375 19.40625 46.890625 
Q 22.3125 44.4375 30.421875 42.921875 
L 36.375 41.703125 
Q 47.40625 39.59375 52.65625 34.296875 
Q 57.90625 29 57.90625 20.125 
Q 57.90625 9.515625 50.796875 4.046875 
Q 43.703125 -1.421875 29.984375 -1.421875 
Q 24.8125 -1.421875 18.96875 -0.25 
Q 13.140625 0.921875 6.890625 3.21875 
L 6.890625 13.375 
Q 12.890625 10.015625 18.65625 8.296875 
Q 24.421875 6.59375 29.984375 6.59375 
Q 38.421875 6.59375 43.015625 9.90625 
Q 47.609375 13.234375 47.609375 19.390625 
Q 47.609375 24.75 44.3125 27.78125 
Q 41.015625 30.8125 33.5 32.328125 
L 27.484375 33.5 
Q 16.453125 35.6875 11.515625 40.375 
Q 6.59375 45.0625 6.59375 53.421875 
Q 6.59375 63.09375 13.40625 68.65625 
Q 20.21875 74.21875 32.171875 74.21875 
Q 37.3125 74.21875 42.625 73.28125 
Q 47.953125 72.359375 53.515625 70.515625 
z
" id="DejaVuSans-53"/>
     </defs>
     <g transform="translate(1203.520313 115.074687)scale(0.1 -0.1)">
      <use xlink:href="#DejaVuSans-4f"/>
      <use x="78.710938" xlink:href="#DejaVuSans-4c"/>
      <use x="134.423828" xlink:href="#DejaVuSans-53"/>
     </g>
    </g>
    <g id="line2d_25">
     <path d="M 1175.520313 126.252813 
L 1195.520313 126.252813 
" style="fill:none;stroke:#008000;stroke-linecap:square;stroke-width:1.5;"/>
    </g>
    <g id="line2d_26">
     <g>
      <use style="fill:#008000;stroke:#008000;" x="1185.520313" xlink:href="#m977cf21543" y="126.252813"/>
     </g>
    </g>
    <g id="text_19">
     <!-- IRLS -->
     <defs>
      <path d="M 9.8125 72.90625 
L 19.671875 72.90625 
L 19.671875 0 
L 9.8125 0 
z
" id="DejaVuSans-49"/>
      <path d="M 44.390625 34.1875 
Q 47.5625 33.109375 50.5625 29.59375 
Q 53.5625 26.078125 56.59375 19.921875 
L 66.609375 0 
L 56 0 
L 46.6875 18.703125 
Q 43.0625 26.03125 39.671875 28.421875 
Q 36.28125 30.8125 30.421875 30.8125 
L 19.671875 30.8125 
L 19.671875 0 
L 9.8125 0 
L 9.8125 72.90625 
L 32.078125 72.90625 
Q 44.578125 72.90625 50.734375 67.671875 
Q 56.890625 62.453125 56.890625 51.90625 
Q 56.890625 45.015625 53.6875 40.46875 
Q 50.484375 35.9375 44.390625 34.1875 
z
M 19.671875 64.796875 
L 19.671875 38.921875 
L 32.078125 38.921875 
Q 39.203125 38.921875 42.84375 42.21875 
Q 46.484375 45.515625 46.484375 51.90625 
Q 46.484375 58.296875 42.84375 61.546875 
Q 39.203125 64.796875 32.078125 64.796875 
z
" id="DejaVuSans-52"/>
     </defs>
     <g transform="translate(1203.520313 129.752813)scale(0.1 -0.1)">
      <use xlink:href="#DejaVuSans-49"/>
      <use x="29.492188" xlink:href="#DejaVuSans-52"/>
      <use x="98.974609" xlink:href="#DejaVuSans-4c"/>
      <use x="154.6875" xlink:href="#DejaVuSans-53"/>
     </g>
    </g>
   </g>
  </g>
 </g>
 <defs>
  <clipPath id="p0a09c9b8c1">
   <rect height="443.52" width="1116" x="180" y="69.12"/>
  </clipPath>
 </defs>
</svg>
